<?xml version="1.0" encoding="UTF-8" standalone="no"?>
<!DOCTYPE svg PUBLIC "-//W3C//DTD SVG 1.1//EN"
 "http://www.w3.org/Graphics/SVG/1.1/DTD/svg11.dtd">
<!-- Generated by graphviz version 8.0.4 (20230421.1958)
 -->
<!-- Title: aviation Pages: 1 -->
<svg width="238pt" height="761pt"
 viewBox="0.00 0.00 238.00 761.00" xmlns="http://www.w3.org/2000/svg" xmlns:xlink="http://www.w3.org/1999/xlink">
<g id="graph0" class="graph" transform="scale(1 1) rotate(0) translate(4 757)">
<title>aviation</title>
<polygon fill="white" stroke="none" points="-4,4 -4,-757 234,-757 234,4 -4,4"/>
<g id="clust1" class="cluster">
<title>cluster_NASALib</title>
<polygon fill="none" stroke="black" points="8,-92.5 8,-745 210,-745 210,-92.5 8,-92.5"/>
<text text-anchor="middle" x="109" y="-727.7" font-family="Times,serif" font-size="14.00">NASALib</text>
</g>
<g id="clust2" class="cluster">
<title>cluster_PVS Prelude</title>
<polygon fill="none" stroke="black" points="116,-8 116,-84.5 204,-84.5 204,-8 116,-8"/>
<text text-anchor="middle" x="160" y="-67.2" font-family="Times,serif" font-size="14.00">PVS Prelude</text>
</g>
<!-- NASALib/ACCoRD -->
<g id="node1" class="node">
<title>NASALib/ACCoRD</title>
<polygon fill="#fcfcd7" stroke="black" points="186.62,-712.5 117.38,-712.5 117.38,-676.5 186.62,-676.5 186.62,-712.5"/>
<text text-anchor="middle" x="152" y="-689.45" font-family="Times,serif" font-size="14.00">ACCoRD</text>
</g>
<!-- NASALib/analysis -->
<g id="node2" class="node">
<title>NASALib/analysis</title>
<polygon fill="#fcfcd7" stroke="black" points="181.75,-352.5 122.25,-352.5 122.25,-316.5 181.75,-316.5 181.75,-352.5"/>
<text text-anchor="middle" x="152" y="-329.45" font-family="Times,serif" font-size="14.00">analysis</text>
</g>
<!-- NASALib/ACCoRD&#45;&gt;NASALib/analysis -->
<g id="edge1" class="edge">
<title>NASALib/ACCoRD&#45;&gt;NASALib/analysis</title>
<path fill="none" stroke="black" d="M201,-405.5C201,-405.5 184.17,-381.46 170.24,-361.56"/>
<polygon fill="black" stroke="black" points="172.71,-359.99 164.11,-353.8 166.98,-364 172.71,-359.99"/>
<path fill="none" stroke="black" d="M201,-621.5C201,-621.5 201,-407.5 201,-407.5"/>
<path fill="none" stroke="black" d="M164.77,-676.15C176.14,-660.69 191,-640.5 191,-640.5 191,-640.5 201,-623.5 201,-623.5"/>
</g>
<!-- NASALib/aviation -->
<g id="node3" class="node">
<title>NASALib/aviation</title>
<polygon fill="#f7e28d" stroke="black" points="181.75,-640.5 122.25,-640.5 122.25,-604.5 181.75,-604.5 181.75,-640.5"/>
<text text-anchor="middle" x="152" y="-617.45" font-family="Times,serif" font-size="14.00">aviation</text>
</g>
<!-- NASALib/ACCoRD&#45;&gt;NASALib/aviation -->
<g id="edge2" class="edge">
<title>NASALib/ACCoRD&#45;&gt;NASALib/aviation</title>
<path fill="none" stroke="black" d="M152,-676.2C152,-668.74 152,-659.82 152,-651.47"/>
<polygon fill="black" stroke="black" points="155.5,-651.6 152,-641.6 148.5,-651.6 155.5,-651.6"/>
</g>
<!-- NASALib/reals -->
<g id="node6" class="node">
<title>NASALib/reals</title>
<polygon fill="#fcfcd7" stroke="black" points="90,-280.5 36,-280.5 36,-244.5 90,-244.5 90,-280.5"/>
<text text-anchor="middle" x="63" y="-257.45" font-family="Times,serif" font-size="14.00">reals</text>
</g>
<!-- NASALib/ACCoRD&#45;&gt;NASALib/reals -->
<g id="edge3" class="edge">
<title>NASALib/ACCoRD&#45;&gt;NASALib/reals</title>
<path fill="none" stroke="black" d="M131.48,-676.2C106.9,-655.47 69,-623.5 69,-623.5"/>
<path fill="none" stroke="black" d="M69,-477.5C69,-477.5 44,-424.5 44,-424.5 44,-424.5 44,-388.5 44,-388.5 44,-388.5 49,-335.5 49,-335.5"/>
<path fill="none" stroke="black" d="M49,-333.5C49,-333.5 53.51,-310.95 57.41,-291.45"/>
<polygon fill="black" stroke="black" points="61.01,-292.3 59.54,-281.8 54.15,-290.92 61.01,-292.3"/>
<path fill="none" stroke="black" d="M69,-549.5C69,-549.5 69,-479.5 69,-479.5"/>
<path fill="none" stroke="black" d="M69,-621.5C69,-621.5 69,-551.5 69,-551.5"/>
</g>
<!-- NASALib/structures -->
<g id="node8" class="node">
<title>NASALib/structures</title>
<polygon fill="#fcfcd7" stroke="black" points="189.25,-208.5 120.75,-208.5 120.75,-172.5 189.25,-172.5 189.25,-208.5"/>
<text text-anchor="middle" x="155" y="-185.45" font-family="Times,serif" font-size="14.00">structures</text>
</g>
<!-- NASALib/ACCoRD&#45;&gt;NASALib/structures -->
<g id="edge4" class="edge">
<title>NASALib/ACCoRD&#45;&gt;NASALib/structures</title>
<path fill="none" stroke="black" d="M201,-405.5C201,-405.5 201,-335.5 201,-335.5"/>
</g>
<!-- NASALib/trig -->
<g id="node9" class="node">
<title>NASALib/trig</title>
<polygon fill="#fcfcd7" stroke="black" points="142,-496.5 88,-496.5 88,-460.5 142,-460.5 142,-496.5"/>
<text text-anchor="middle" x="115" y="-473.45" font-family="Times,serif" font-size="14.00">trig</text>
</g>
<!-- NASALib/ACCoRD&#45;&gt;NASALib/trig -->
<g id="edge5" class="edge">
<title>NASALib/ACCoRD&#45;&gt;NASALib/trig</title>
<path fill="none" stroke="black" d="M69,-549.5C69,-549.5 80,-532.5 80,-532.5 80,-532.5 88.8,-519.17 97.58,-505.88"/>
<polygon fill="black" stroke="black" points="100.95,-508.13 103.54,-497.85 95.11,-504.27 100.95,-508.13"/>
</g>
<!-- NASALib/vectors -->
<g id="node10" class="node">
<title>NASALib/vectors</title>
<polygon fill="#fcfcd7" stroke="black" points="143.5,-568.5 88.5,-568.5 88.5,-532.5 143.5,-532.5 143.5,-568.5"/>
<text text-anchor="middle" x="116" y="-545.45" font-family="Times,serif" font-size="14.00">vectors</text>
</g>
<!-- NASALib/ACCoRD&#45;&gt;NASALib/vectors -->
<g id="edge6" class="edge">
<title>NASALib/ACCoRD&#45;&gt;NASALib/vectors</title>
<path fill="none" stroke="black" d="M69,-621.5C69,-621.5 85,-597.68 98.32,-577.83"/>
<polygon fill="black" stroke="black" points="101.71,-580.06 104.38,-569.8 95.9,-576.15 101.71,-580.06"/>
</g>
<!-- lib/finite_sets -->
<g id="node11" class="node">
<title>lib/finite_sets</title>
<polygon fill="#fcfcd7" stroke="black" points="195.75,-52 124.25,-52 124.25,-16 195.75,-16 195.75,-52"/>
<text text-anchor="middle" x="160" y="-28.95" font-family="Times,serif" font-size="14.00">finite_sets</text>
</g>
<!-- NASALib/ACCoRD&#45;&gt;lib/finite_sets -->
<g id="edge7" class="edge">
<title>NASALib/ACCoRD&#45;&gt;lib/finite_sets</title>
<path fill="none" stroke="black" d="M201,-621.5C201,-621.5 230,-551.5 230,-551.5"/>
</g>
<!-- NASALib/ints -->
<g id="node4" class="node">
<title>NASALib/ints</title>
<polygon fill="#fcfcd7" stroke="black" points="182,-136.5 128,-136.5 128,-100.5 182,-100.5 182,-136.5"/>
<text text-anchor="middle" x="155" y="-113.45" font-family="Times,serif" font-size="14.00">ints</text>
</g>
<!-- NASALib/analysis&#45;&gt;NASALib/ints -->
<g id="edge8" class="edge">
<title>NASALib/analysis&#45;&gt;NASALib/ints</title>
<path fill="none" stroke="black" d="M141.19,-316.15C131.57,-300.69 119,-280.5 119,-280.5 119,-280.5 109,-263.5 109,-263.5"/>
</g>
<!-- NASALib/orders -->
<g id="node5" class="node">
<title>NASALib/orders</title>
<polygon fill="#fcfcd7" stroke="black" points="182,-280.5 128,-280.5 128,-244.5 182,-244.5 182,-280.5"/>
<text text-anchor="middle" x="155" y="-257.45" font-family="Times,serif" font-size="14.00">orders</text>
</g>
<!-- NASALib/analysis&#45;&gt;NASALib/orders -->
<g id="edge9" class="edge">
<title>NASALib/analysis&#45;&gt;NASALib/orders</title>
<path fill="none" stroke="black" d="M152.74,-316.2C153.06,-308.74 153.44,-299.82 153.8,-291.47"/>
<polygon fill="black" stroke="black" points="157.34,-291.75 154.27,-281.6 150.34,-291.45 157.34,-291.75"/>
</g>
<!-- NASALib/analysis&#45;&gt;NASALib/reals -->
<g id="edge10" class="edge">
<title>NASALib/analysis&#45;&gt;NASALib/reals</title>
<path fill="none" stroke="black" d="M130,-316.2C118.98,-307.53 105.47,-296.9 93.47,-287.46"/>
<polygon fill="black" stroke="black" points="96.08,-284.28 86.06,-280.85 91.75,-289.78 96.08,-284.28"/>
</g>
<!-- NASALib/analysis&#45;&gt;NASALib/structures -->
<g id="edge11" class="edge">
<title>NASALib/analysis&#45;&gt;NASALib/structures</title>
<path fill="none" stroke="black" d="M201,-261.5C201,-261.5 191,-244.5 191,-244.5 191,-244.5 181.95,-231.17 172.92,-217.88"/>
<polygon fill="black" stroke="black" points="175.3,-216.16 166.79,-209.85 169.51,-220.09 175.3,-216.16"/>
<path fill="none" stroke="black" d="M164.77,-316.15C176.14,-300.69 191,-280.5 191,-280.5 191,-280.5 201,-263.5 201,-263.5"/>
</g>
<!-- NASALib/analysis&#45;&gt;lib/finite_sets -->
<g id="edge12" class="edge">
<title>NASALib/analysis&#45;&gt;lib/finite_sets</title>
<path fill="none" stroke="black" d="M230,-261.5C230,-261.5 230,-191.5 230,-191.5"/>
<path fill="none" stroke="black" d="M172.3,-316.15C190.38,-300.69 214,-280.5 214,-280.5 214,-280.5 230,-263.5 230,-263.5"/>
</g>
<!-- NASALib/aviation&#45;&gt;NASALib/analysis -->
<g id="edge13" class="edge">
<title>NASALib/aviation&#45;&gt;NASALib/analysis</title>
<path fill="none" stroke="black" d="M161,-477.5C161,-477.5 161,-407.5 161,-407.5"/>
</g>
<!-- NASALib/aviation&#45;&gt;NASALib/reals -->
<g id="edge14" class="edge">
<title>NASALib/aviation&#45;&gt;NASALib/reals</title>
<path fill="none" stroke="black" d="M161,-477.5C161,-477.5 151,-460.5 151,-460.5 151,-460.5 79,-424.5 79,-424.5 79,-424.5 49,-335.5 49,-335.5"/>
<path fill="none" stroke="black" d="M181,-549.5C181,-549.5 161,-479.5 161,-479.5"/>
</g>
<!-- NASALib/aviation&#45;&gt;NASALib/structures -->
<g id="edge15" class="edge">
<title>NASALib/aviation&#45;&gt;NASALib/structures</title>
<path fill="none" stroke="black" d="M181,-549.5C181,-549.5 181,-479.5 181,-479.5"/>
</g>
<!-- NASALib/aviation&#45;&gt;NASALib/trig -->
<g id="edge16" class="edge">
<title>NASALib/aviation&#45;&gt;NASALib/trig</title>
<path fill="none" stroke="black" d="M159.17,-604.2C167.76,-583.47 181,-551.5 181,-551.5"/>
<path fill="none" stroke="black" d="M181,-549.5C181,-549.5 157.72,-524.81 138.81,-504.75"/>
<polygon fill="black" stroke="black" points="141.72,-502.68 132.31,-497.8 136.63,-507.48 141.72,-502.68"/>
</g>
<!-- NASALib/aviation&#45;&gt;NASALib/vectors -->
<g id="edge17" class="edge">
<title>NASALib/aviation&#45;&gt;NASALib/vectors</title>
<path fill="none" stroke="black" d="M143.1,-604.2C139.09,-596.4 134.26,-587.01 129.8,-578.33"/>
<polygon fill="black" stroke="black" points="132.48,-576.9 124.8,-569.6 126.26,-580.1 132.48,-576.9"/>
</g>
<!-- NASALib/aviation&#45;&gt;lib/finite_sets -->
<g id="edge18" class="edge">
<title>NASALib/aviation&#45;&gt;lib/finite_sets</title>
<path fill="none" stroke="black" d="M171.28,-604.2C194.38,-583.47 230,-551.5 230,-551.5"/>
<path fill="none" stroke="black" d="M230,-549.5C230,-549.5 230,-263.5 230,-263.5"/>
</g>
<!-- NASALib/ints&#45;&gt;lib/finite_sets -->
<g id="edge19" class="edge">
<title>NASALib/ints&#45;&gt;lib/finite_sets</title>
<path fill="none" stroke="black" d="M156.06,-100C156.71,-89.28 157.56,-75.32 158.3,-63.08"/>
<polygon fill="black" stroke="black" points="161.83,-63.66 158.94,-53.47 154.84,-63.24 161.83,-63.66"/>
</g>
<!-- NASALib/orders&#45;&gt;NASALib/structures -->
<g id="edge20" class="edge">
<title>NASALib/orders&#45;&gt;NASALib/structures</title>
<path fill="none" stroke="black" d="M155,-244.2C155,-236.74 155,-227.82 155,-219.47"/>
<polygon fill="black" stroke="black" points="158.5,-219.6 155,-209.6 151.5,-219.6 158.5,-219.6"/>
</g>
<!-- NASALib/orders&#45;&gt;lib/finite_sets -->
<g id="edge21" class="edge">
<title>NASALib/orders&#45;&gt;lib/finite_sets</title>
<path fill="none" stroke="black" d="M174.32,-244.15C191.53,-228.69 214,-208.5 214,-208.5 214,-208.5 230,-191.5 230,-191.5"/>
<path fill="none" stroke="black" d="M230,-189.5C230,-189.5 230,-119.5 230,-119.5"/>
</g>
<!-- NASALib/reals&#45;&gt;NASALib/ints -->
<g id="edge22" class="edge">
<title>NASALib/reals&#45;&gt;NASALib/ints</title>
<path fill="none" stroke="black" d="M67.94,-244.2C73.87,-223.47 83,-191.5 83,-191.5"/>
</g>
<!-- NASALib/reals&#45;&gt;NASALib/structures -->
<g id="edge23" class="edge">
<title>NASALib/reals&#45;&gt;NASALib/structures</title>
<path fill="none" stroke="black" d="M85.74,-244.2C97.13,-235.53 111.1,-224.9 123.51,-215.46"/>
<polygon fill="black" stroke="black" points="125.36,-217.69 131.2,-208.85 121.12,-212.12 125.36,-217.69"/>
</g>
<!-- NASALib/series -->
<g id="node7" class="node">
<title>NASALib/series</title>
<polygon fill="#fcfcd7" stroke="black" points="142,-424.5 88,-424.5 88,-388.5 142,-388.5 142,-424.5"/>
<text text-anchor="middle" x="115" y="-401.45" font-family="Times,serif" font-size="14.00">series</text>
</g>
<!-- NASALib/series&#45;&gt;NASALib/analysis -->
<g id="edge24" class="edge">
<title>NASALib/series&#45;&gt;NASALib/analysis</title>
<path fill="none" stroke="black" d="M124.15,-388.2C128.27,-380.4 133.23,-371.01 137.82,-362.33"/>
<polygon fill="black" stroke="black" points="141.38,-364.08 142.96,-353.6 135.19,-360.81 141.38,-364.08"/>
</g>
<!-- NASALib/series&#45;&gt;NASALib/ints -->
<g id="edge25" class="edge">
<title>NASALib/series&#45;&gt;NASALib/ints</title>
<path fill="none" stroke="black" d="M103,-333.5C103,-333.5 109,-263.5 109,-263.5"/>
<path fill="none" stroke="black" d="M109,-261.5C109,-261.5 83,-191.5 83,-191.5"/>
</g>
<!-- NASALib/series&#45;&gt;NASALib/orders -->
<g id="edge26" class="edge">
<title>NASALib/series&#45;&gt;NASALib/orders</title>
<path fill="none" stroke="black" d="M103,-333.5C103,-333.5 113,-316.5 113,-316.5 113,-316.5 123.97,-302.65 134.7,-289.12"/>
<polygon fill="black" stroke="black" points="137.78,-291.87 141.25,-281.85 132.29,-287.52 137.78,-291.87"/>
</g>
<!-- NASALib/series&#45;&gt;NASALib/reals -->
<g id="edge27" class="edge">
<title>NASALib/series&#45;&gt;NASALib/reals</title>
<path fill="none" stroke="black" d="M112.03,-388.2C108.48,-367.47 103,-335.5 103,-335.5"/>
<path fill="none" stroke="black" d="M103,-333.5C103,-333.5 89.51,-309.89 78.2,-290.1"/>
<polygon fill="black" stroke="black" points="80.89,-288.75 72.89,-281.8 74.81,-292.22 80.89,-288.75"/>
</g>
<!-- NASALib/structures&#45;&gt;NASALib/ints -->
<g id="edge28" class="edge">
<title>NASALib/structures&#45;&gt;NASALib/ints</title>
<path fill="none" stroke="black" d="M155,-172.2C155,-164.74 155,-155.82 155,-147.47"/>
<polygon fill="black" stroke="black" points="158.5,-147.6 155,-137.6 151.5,-147.6 158.5,-147.6"/>
</g>
<!-- NASALib/structures&#45;&gt;lib/finite_sets -->
<g id="edge29" class="edge">
<title>NASALib/structures&#45;&gt;lib/finite_sets</title>
<path fill="none" stroke="black" d="M173.54,-172.2C195.75,-151.47 230,-119.5 230,-119.5"/>
<path fill="none" stroke="black" d="M230,-117.5C230,-117.5 202.31,-84.86 181.76,-60.64"/>
<polygon fill="black" stroke="black" points="183.98,-58.86 174.85,-53.5 178.65,-63.39 183.98,-58.86"/>
</g>
<!-- NASALib/trig&#45;&gt;NASALib/analysis -->
<g id="edge30" class="edge">
<title>NASALib/trig&#45;&gt;NASALib/analysis</title>
<path fill="none" stroke="black" d="M126.79,-460.15C137.29,-444.69 151,-424.5 151,-424.5 151,-424.5 161,-407.5 161,-407.5"/>
<path fill="none" stroke="black" d="M161,-405.5C161,-405.5 158.1,-382.95 155.59,-363.45"/>
<polygon fill="black" stroke="black" points="158.97,-363.28 154.22,-353.8 152.03,-364.17 158.97,-363.28"/>
</g>
<!-- NASALib/trig&#45;&gt;NASALib/ints -->
<g id="edge31" class="edge">
<title>NASALib/trig&#45;&gt;NASALib/ints</title>
<path fill="none" stroke="black" d="M49,-405.5C49,-405.5 27,-280.5 27,-280.5 27,-280.5 27,-244.5 27,-244.5 27,-244.5 83,-191.5 83,-191.5"/>
<path fill="none" stroke="black" d="M83,-189.5C83,-189.5 108.85,-164.36 129.58,-144.22"/>
<polygon fill="black" stroke="black" points="131.47,-147.28 136.2,-137.8 126.59,-142.26 131.47,-147.28"/>
<path fill="none" stroke="black" d="M98.3,-460.15C83.43,-444.69 64,-424.5 64,-424.5 64,-424.5 49,-407.5 49,-407.5"/>
</g>
<!-- NASALib/trig&#45;&gt;NASALib/reals -->
<g id="edge32" class="edge">
<title>NASALib/trig&#45;&gt;NASALib/reals</title>
<path fill="none" stroke="black" d="M49,-405.5C49,-405.5 49,-335.5 49,-335.5"/>
</g>
<!-- NASALib/trig&#45;&gt;NASALib/series -->
<g id="edge33" class="edge">
<title>NASALib/trig&#45;&gt;NASALib/series</title>
<path fill="none" stroke="black" d="M115,-460.2C115,-452.74 115,-443.82 115,-435.47"/>
<polygon fill="black" stroke="black" points="118.5,-435.6 115,-425.6 111.5,-435.6 118.5,-435.6"/>
</g>
<!-- NASALib/vectors&#45;&gt;NASALib/reals -->
<g id="edge34" class="edge">
<title>NASALib/vectors&#45;&gt;NASALib/reals</title>
<path fill="none" stroke="black" d="M103.88,-532.15C93.09,-516.69 79,-496.5 79,-496.5 79,-496.5 69,-479.5 69,-479.5"/>
</g>
<!-- NASALib/vectors&#45;&gt;NASALib/structures -->
<g id="edge35" class="edge">
<title>NASALib/vectors&#45;&gt;NASALib/structures</title>
<path fill="none" stroke="black" d="M181,-477.5C181,-477.5 201,-335.5 201,-335.5"/>
<path fill="none" stroke="black" d="M201,-333.5C201,-333.5 201,-263.5 201,-263.5"/>
<path fill="none" stroke="black" d="M132.07,-532.2C151.32,-511.47 181,-479.5 181,-479.5"/>
</g>
<!-- NASALib/vectors&#45;&gt;NASALib/trig -->
<g id="edge36" class="edge">
<title>NASALib/vectors&#45;&gt;NASALib/trig</title>
<path fill="none" stroke="black" d="M115.75,-532.2C115.65,-524.74 115.52,-515.82 115.4,-507.47"/>
<polygon fill="black" stroke="black" points="118.89,-507.55 115.24,-497.6 111.89,-507.65 118.89,-507.55"/>
</g>
</g>
</svg>
