<?xml version="1.0" encoding="UTF-8" standalone="no"?>
<!DOCTYPE svg PUBLIC "-//W3C//DTD SVG 1.1//EN"
 "http://www.w3.org/Graphics/SVG/1.1/DTD/svg11.dtd">
<!-- Generated by graphviz version 2.40.1 (20161225.0304)
 -->
<!-- Title: aviation Pages: 1 -->
<svg width="354pt" height="756pt"
 viewBox="0.00 0.00 354.00 756.00" xmlns="http://www.w3.org/2000/svg" xmlns:xlink="http://www.w3.org/1999/xlink">
<g id="graph0" class="graph" transform="scale(1 1) rotate(0) translate(4 752)">
<title>aviation</title>
<polygon fill="#ffffff" stroke="transparent" points="-4,4 -4,-752 350,-752 350,4 -4,4"/>
<g id="clust1" class="cluster">
<title>cluster_NASALib</title>
<polygon fill="none" stroke="#000000" points="8,-90 8,-740 338,-740 338,-90 8,-90"/>
<text text-anchor="middle" x="173" y="-724.8" font-family="Times,serif" font-size="14.00" fill="#000000">NASALib</text>
</g>
<g id="clust2" class="cluster">
<title>cluster_PVS Prelude</title>
<polygon fill="none" stroke="#000000" points="191,-8 191,-82 279,-82 279,-8 191,-8"/>
<text text-anchor="middle" x="235" y="-66.8" font-family="Times,serif" font-size="14.00" fill="#000000">PVS Prelude</text>
</g>
<!-- /Users/mmoscato/Workspace/Workbench/pvs/dependency&#45;all/Users/mmoscato/pvs/pvs/lib/finite_sets -->
<g id="node1" class="node">
<title>/Users/mmoscato/Workspace/Workbench/pvs/dependency&#45;all/Users/mmoscato/pvs/pvs/lib/finite_sets</title>
<polygon fill="#fcfcd7" stroke="#000000" points="271.2796,-52 198.7204,-52 198.7204,-16 271.2796,-16 271.2796,-52"/>
<text text-anchor="middle" x="235" y="-29.8" font-family="Times,serif" font-size="14.00" fill="#000000">finite_sets</text>
</g>
<!-- /Users/mmoscato/Workspace/Workbench/pvs/dependency&#45;all/Users/mmoscato/pvs/pvs/nasalib/ACCoRD -->
<g id="node2" class="node">
<title>/Users/mmoscato/Workspace/Workbench/pvs/dependency&#45;all/Users/mmoscato/pvs/pvs/nasalib/ACCoRD</title>
<polygon fill="#fcfcd7" stroke="#000000" points="250.7348,-710 179.2652,-710 179.2652,-674 250.7348,-674 250.7348,-710"/>
<text text-anchor="middle" x="215" y="-687.8" font-family="Times,serif" font-size="14.00" fill="#000000">ACCoRD</text>
</g>
<!-- /Users/mmoscato/Workspace/Workbench/pvs/dependency&#45;all/Users/mmoscato/pvs/pvs/nasalib/ACCoRD&#45;&gt;/Users/mmoscato/Workspace/Workbench/pvs/dependency&#45;all/Users/mmoscato/pvs/pvs/lib/finite_sets -->
<g id="edge1" class="edge">
<title>/Users/mmoscato/Workspace/Workbench/pvs/dependency&#45;all/Users/mmoscato/pvs/pvs/nasalib/ACCoRD&#45;&gt;/Users/mmoscato/Workspace/Workbench/pvs/dependency&#45;all/Users/mmoscato/pvs/pvs/lib/finite_sets</title>
<path fill="none" stroke="#000000" d="M250.9108,-704C281.6828,-704 321.071,-704 321.071,-704 321.071,-704 321.071,-25 321.071,-25 321.071,-25 281.5019,-25 281.5019,-25"/>
<polygon fill="#000000" stroke="#000000" points="281.5019,-21.5001 271.5019,-25 281.5018,-28.5001 281.5019,-21.5001"/>
</g>
<!-- /Users/mmoscato/Workspace/Workbench/pvs/dependency&#45;all/Users/mmoscato/pvs/pvs/nasalib/analysis -->
<g id="node3" class="node">
<title>/Users/mmoscato/Workspace/Workbench/pvs/dependency&#45;all/Users/mmoscato/pvs/pvs/nasalib/analysis</title>
<polygon fill="#fcfcd7" stroke="#000000" points="269.6036,-350 208.3964,-350 208.3964,-314 269.6036,-314 269.6036,-350"/>
<text text-anchor="middle" x="239" y="-327.8" font-family="Times,serif" font-size="14.00" fill="#000000">analysis</text>
</g>
<!-- /Users/mmoscato/Workspace/Workbench/pvs/dependency&#45;all/Users/mmoscato/pvs/pvs/nasalib/ACCoRD&#45;&gt;/Users/mmoscato/Workspace/Workbench/pvs/dependency&#45;all/Users/mmoscato/pvs/pvs/nasalib/analysis -->
<g id="edge2" class="edge">
<title>/Users/mmoscato/Workspace/Workbench/pvs/dependency&#45;all/Users/mmoscato/pvs/pvs/nasalib/ACCoRD&#45;&gt;/Users/mmoscato/Workspace/Workbench/pvs/dependency&#45;all/Users/mmoscato/pvs/pvs/nasalib/analysis</title>
<path fill="none" stroke="#000000" d="M250.7641,-684C274.1932,-684 300.4996,-684 300.4996,-684 300.4996,-684 300.4996,-341 300.4996,-341 300.4996,-341 279.7498,-341 279.7498,-341"/>
<polygon fill="#000000" stroke="#000000" points="279.7498,-337.5001 269.7498,-341 279.7498,-344.5001 279.7498,-337.5001"/>
</g>
<!-- /Users/mmoscato/Workspace/Workbench/pvs/dependency&#45;all/Users/mmoscato/pvs/pvs/nasalib/aviation -->
<g id="node4" class="node">
<title>/Users/mmoscato/Workspace/Workbench/pvs/dependency&#45;all/Users/mmoscato/pvs/pvs/nasalib/aviation</title>
<polygon fill="#f7e28d" stroke="#000000" points="245.5968,-638 184.4032,-638 184.4032,-602 245.5968,-602 245.5968,-638"/>
<text text-anchor="middle" x="215" y="-615.8" font-family="Times,serif" font-size="14.00" fill="#000000">aviation</text>
</g>
<!-- /Users/mmoscato/Workspace/Workbench/pvs/dependency&#45;all/Users/mmoscato/pvs/pvs/nasalib/ACCoRD&#45;&gt;/Users/mmoscato/Workspace/Workbench/pvs/dependency&#45;all/Users/mmoscato/pvs/pvs/nasalib/aviation -->
<g id="edge3" class="edge">
<title>/Users/mmoscato/Workspace/Workbench/pvs/dependency&#45;all/Users/mmoscato/pvs/pvs/nasalib/ACCoRD&#45;&gt;/Users/mmoscato/Workspace/Workbench/pvs/dependency&#45;all/Users/mmoscato/pvs/pvs/nasalib/aviation</title>
<path fill="none" stroke="#000000" d="M215,-673.8314C215,-673.8314 215,-648.4133 215,-648.4133"/>
<polygon fill="#000000" stroke="#000000" points="218.5001,-648.4132 215,-638.4133 211.5001,-648.4133 218.5001,-648.4132"/>
</g>
<!-- /Users/mmoscato/Workspace/Workbench/pvs/dependency&#45;all/Users/mmoscato/pvs/pvs/nasalib/ints -->
<g id="node5" class="node">
<title>/Users/mmoscato/Workspace/Workbench/pvs/dependency&#45;all/Users/mmoscato/pvs/pvs/nasalib/ints</title>
<polygon fill="#fcfcd7" stroke="#000000" points="204,-134 150,-134 150,-98 204,-98 204,-134"/>
<text text-anchor="middle" x="177" y="-111.8" font-family="Times,serif" font-size="14.00" fill="#000000">ints</text>
</g>
<!-- /Users/mmoscato/Workspace/Workbench/pvs/dependency&#45;all/Users/mmoscato/pvs/pvs/nasalib/ACCoRD&#45;&gt;/Users/mmoscato/Workspace/Workbench/pvs/dependency&#45;all/Users/mmoscato/pvs/pvs/nasalib/ints -->
<g id="edge4" class="edge">
<title>/Users/mmoscato/Workspace/Workbench/pvs/dependency&#45;all/Users/mmoscato/pvs/pvs/nasalib/ACCoRD&#45;&gt;/Users/mmoscato/Workspace/Workbench/pvs/dependency&#45;all/Users/mmoscato/pvs/pvs/nasalib/ints</title>
<path fill="none" stroke="#000000" d="M250.8677,-699C279.8773,-699 315.9282,-699 315.9282,-699 315.9282,-699 315.9282,-108 315.9282,-108 315.9282,-108 214.1165,-108 214.1165,-108"/>
<polygon fill="#000000" stroke="#000000" points="214.1166,-104.5001 204.1165,-108 214.1165,-111.5001 214.1166,-104.5001"/>
</g>
<!-- /Users/mmoscato/Workspace/Workbench/pvs/dependency&#45;all/Users/mmoscato/pvs/pvs/nasalib/orders -->
<g id="node6" class="node">
<title>/Users/mmoscato/Workspace/Workbench/pvs/dependency&#45;all/Users/mmoscato/pvs/pvs/nasalib/orders</title>
<polygon fill="#fcfcd7" stroke="#000000" points="270,-278 216,-278 216,-242 270,-242 270,-278"/>
<text text-anchor="middle" x="243" y="-255.8" font-family="Times,serif" font-size="14.00" fill="#000000">orders</text>
</g>
<!-- /Users/mmoscato/Workspace/Workbench/pvs/dependency&#45;all/Users/mmoscato/pvs/pvs/nasalib/ACCoRD&#45;&gt;/Users/mmoscato/Workspace/Workbench/pvs/dependency&#45;all/Users/mmoscato/pvs/pvs/nasalib/orders -->
<g id="edge5" class="edge">
<title>/Users/mmoscato/Workspace/Workbench/pvs/dependency&#45;all/Users/mmoscato/pvs/pvs/nasalib/ACCoRD&#45;&gt;/Users/mmoscato/Workspace/Workbench/pvs/dependency&#45;all/Users/mmoscato/pvs/pvs/nasalib/orders</title>
<path fill="none" stroke="#000000" d="M250.8243,-689C276.1604,-689 305.6424,-689 305.6424,-689 305.6424,-689 305.6424,-254 305.6424,-254 305.6424,-254 280.2937,-254 280.2937,-254"/>
<polygon fill="#000000" stroke="#000000" points="280.2937,-250.5001 270.2937,-254 280.2936,-257.5001 280.2937,-250.5001"/>
</g>
<!-- /Users/mmoscato/Workspace/Workbench/pvs/dependency&#45;all/Users/mmoscato/pvs/pvs/nasalib/reals -->
<g id="node7" class="node">
<title>/Users/mmoscato/Workspace/Workbench/pvs/dependency&#45;all/Users/mmoscato/pvs/pvs/nasalib/reals</title>
<polygon fill="#fcfcd7" stroke="#000000" points="138,-278 84,-278 84,-242 138,-242 138,-278"/>
<text text-anchor="middle" x="111" y="-255.8" font-family="Times,serif" font-size="14.00" fill="#000000">reals</text>
</g>
<!-- /Users/mmoscato/Workspace/Workbench/pvs/dependency&#45;all/Users/mmoscato/pvs/pvs/nasalib/ACCoRD&#45;&gt;/Users/mmoscato/Workspace/Workbench/pvs/dependency&#45;all/Users/mmoscato/pvs/pvs/nasalib/reals -->
<g id="edge6" class="edge">
<title>/Users/mmoscato/Workspace/Workbench/pvs/dependency&#45;all/Users/mmoscato/pvs/pvs/nasalib/ACCoRD&#45;&gt;/Users/mmoscato/Workspace/Workbench/pvs/dependency&#45;all/Users/mmoscato/pvs/pvs/nasalib/reals</title>
<path fill="none" stroke="#000000" d="M179.0322,-692C156.3557,-692 131.3333,-692 131.3333,-692 131.3333,-692 131.3333,-288.0125 131.3333,-288.0125"/>
<polygon fill="#000000" stroke="#000000" points="134.8334,-288.0125 131.3333,-278.0125 127.8334,-288.0125 134.8334,-288.0125"/>
</g>
<!-- /Users/mmoscato/Workspace/Workbench/pvs/dependency&#45;all/Users/mmoscato/pvs/pvs/nasalib/series -->
<g id="node8" class="node">
<title>/Users/mmoscato/Workspace/Workbench/pvs/dependency&#45;all/Users/mmoscato/pvs/pvs/nasalib/series</title>
<polygon fill="#fcfcd7" stroke="#000000" points="130,-422 76,-422 76,-386 130,-386 130,-422"/>
<text text-anchor="middle" x="103" y="-399.8" font-family="Times,serif" font-size="14.00" fill="#000000">series</text>
</g>
<!-- /Users/mmoscato/Workspace/Workbench/pvs/dependency&#45;all/Users/mmoscato/pvs/pvs/nasalib/ACCoRD&#45;&gt;/Users/mmoscato/Workspace/Workbench/pvs/dependency&#45;all/Users/mmoscato/pvs/pvs/nasalib/series -->
<g id="edge7" class="edge">
<title>/Users/mmoscato/Workspace/Workbench/pvs/dependency&#45;all/Users/mmoscato/pvs/pvs/nasalib/ACCoRD&#45;&gt;/Users/mmoscato/Workspace/Workbench/pvs/dependency&#45;all/Users/mmoscato/pvs/pvs/nasalib/series</title>
<path fill="none" stroke="#000000" d="M179.2546,-701C146.477,-701 103,-701 103,-701 103,-701 103,-432.1316 103,-432.1316"/>
<polygon fill="#000000" stroke="#000000" points="106.5001,-432.1316 103,-422.1316 99.5001,-432.1316 106.5001,-432.1316"/>
</g>
<!-- /Users/mmoscato/Workspace/Workbench/pvs/dependency&#45;all/Users/mmoscato/pvs/pvs/nasalib/structures -->
<g id="node9" class="node">
<title>/Users/mmoscato/Workspace/Workbench/pvs/dependency&#45;all/Users/mmoscato/pvs/pvs/nasalib/structures</title>
<polygon fill="#fcfcd7" stroke="#000000" points="212.429,-206 141.571,-206 141.571,-170 212.429,-170 212.429,-206"/>
<text text-anchor="middle" x="177" y="-183.8" font-family="Times,serif" font-size="14.00" fill="#000000">structures</text>
</g>
<!-- /Users/mmoscato/Workspace/Workbench/pvs/dependency&#45;all/Users/mmoscato/pvs/pvs/nasalib/ACCoRD&#45;&gt;/Users/mmoscato/Workspace/Workbench/pvs/dependency&#45;all/Users/mmoscato/pvs/pvs/nasalib/structures -->
<g id="edge8" class="edge">
<title>/Users/mmoscato/Workspace/Workbench/pvs/dependency&#45;all/Users/mmoscato/pvs/pvs/nasalib/ACCoRD&#45;&gt;/Users/mmoscato/Workspace/Workbench/pvs/dependency&#45;all/Users/mmoscato/pvs/pvs/nasalib/structures</title>
<path fill="none" stroke="#000000" d="M250.6669,-694C277.9,-694 310.7853,-694 310.7853,-694 310.7853,-694 310.7853,-188 310.7853,-188 310.7853,-188 222.5008,-188 222.5008,-188"/>
<polygon fill="#000000" stroke="#000000" points="222.5008,-184.5001 212.5008,-188 222.5007,-191.5001 222.5008,-184.5001"/>
</g>
<!-- /Users/mmoscato/Workspace/Workbench/pvs/dependency&#45;all/Users/mmoscato/pvs/pvs/nasalib/trig -->
<g id="node10" class="node">
<title>/Users/mmoscato/Workspace/Workbench/pvs/dependency&#45;all/Users/mmoscato/pvs/pvs/nasalib/trig</title>
<polygon fill="#fcfcd7" stroke="#000000" points="196,-494 142,-494 142,-458 196,-458 196,-494"/>
<text text-anchor="middle" x="169" y="-471.8" font-family="Times,serif" font-size="14.00" fill="#000000">trig</text>
</g>
<!-- /Users/mmoscato/Workspace/Workbench/pvs/dependency&#45;all/Users/mmoscato/pvs/pvs/nasalib/ACCoRD&#45;&gt;/Users/mmoscato/Workspace/Workbench/pvs/dependency&#45;all/Users/mmoscato/pvs/pvs/nasalib/trig -->
<g id="edge9" class="edge">
<title>/Users/mmoscato/Workspace/Workbench/pvs/dependency&#45;all/Users/mmoscato/pvs/pvs/nasalib/ACCoRD&#45;&gt;/Users/mmoscato/Workspace/Workbench/pvs/dependency&#45;all/Users/mmoscato/pvs/pvs/nasalib/trig</title>
<path fill="none" stroke="#000000" d="M179.3813,-683C169.1448,-683 160.6914,-683 160.6914,-683 160.6914,-683 160.6914,-504.0078 160.6914,-504.0078"/>
<polygon fill="#000000" stroke="#000000" points="164.1915,-504.0077 160.6914,-494.0078 157.1915,-504.0078 164.1915,-504.0077"/>
</g>
<!-- /Users/mmoscato/Workspace/Workbench/pvs/dependency&#45;all/Users/mmoscato/pvs/pvs/nasalib/vectors -->
<g id="node11" class="node">
<title>/Users/mmoscato/Workspace/Workbench/pvs/dependency&#45;all/Users/mmoscato/pvs/pvs/nasalib/vectors</title>
<polygon fill="#fcfcd7" stroke="#000000" points="290.4294,-566 233.5706,-566 233.5706,-530 290.4294,-530 290.4294,-566"/>
<text text-anchor="middle" x="262" y="-543.8" font-family="Times,serif" font-size="14.00" fill="#000000">vectors</text>
</g>
<!-- /Users/mmoscato/Workspace/Workbench/pvs/dependency&#45;all/Users/mmoscato/pvs/pvs/nasalib/ACCoRD&#45;&gt;/Users/mmoscato/Workspace/Workbench/pvs/dependency&#45;all/Users/mmoscato/pvs/pvs/nasalib/vectors -->
<g id="edge10" class="edge">
<title>/Users/mmoscato/Workspace/Workbench/pvs/dependency&#45;all/Users/mmoscato/pvs/pvs/nasalib/ACCoRD&#45;&gt;/Users/mmoscato/Workspace/Workbench/pvs/dependency&#45;all/Users/mmoscato/pvs/pvs/nasalib/vectors</title>
<path fill="none" stroke="#000000" d="M250.7221,-679C261.4448,-679 270.4155,-679 270.4155,-679 270.4155,-679 270.4155,-576.215 270.4155,-576.215"/>
<polygon fill="#000000" stroke="#000000" points="273.9156,-576.215 270.4155,-566.215 266.9156,-576.215 273.9156,-576.215"/>
</g>
<!-- /Users/mmoscato/Workspace/Workbench/pvs/dependency&#45;all/Users/mmoscato/pvs/pvs/nasalib/analysis&#45;&gt;/Users/mmoscato/Workspace/Workbench/pvs/dependency&#45;all/Users/mmoscato/pvs/pvs/lib/finite_sets -->
<g id="edge11" class="edge">
<title>/Users/mmoscato/Workspace/Workbench/pvs/dependency&#45;all/Users/mmoscato/pvs/pvs/nasalib/analysis&#45;&gt;/Users/mmoscato/Workspace/Workbench/pvs/dependency&#45;all/Users/mmoscato/pvs/pvs/lib/finite_sets</title>
<path fill="none" stroke="#000000" d="M269.573,-332C277.9808,-332 284.8355,-332 284.8355,-332 284.8355,-332 284.8355,-43 284.8355,-43 284.8355,-43 281.4805,-43 281.4805,-43"/>
<polygon fill="#000000" stroke="#000000" points="281.4805,-39.5001 271.4805,-43 281.4805,-46.5001 281.4805,-39.5001"/>
</g>
<!-- /Users/mmoscato/Workspace/Workbench/pvs/dependency&#45;all/Users/mmoscato/pvs/pvs/nasalib/analysis&#45;&gt;/Users/mmoscato/Workspace/Workbench/pvs/dependency&#45;all/Users/mmoscato/pvs/pvs/nasalib/ints -->
<g id="edge12" class="edge">
<title>/Users/mmoscato/Workspace/Workbench/pvs/dependency&#45;all/Users/mmoscato/pvs/pvs/nasalib/analysis&#45;&gt;/Users/mmoscato/Workspace/Workbench/pvs/dependency&#45;all/Users/mmoscato/pvs/pvs/nasalib/ints</title>
<path fill="none" stroke="#000000" d="M269.8408,-323C273.9442,-323 276.768,-323 276.768,-323 276.768,-323 276.768,-128 276.768,-128 276.768,-128 214.262,-128 214.262,-128"/>
<polygon fill="#000000" stroke="#000000" points="214.2621,-124.5001 204.262,-128 214.262,-131.5001 214.2621,-124.5001"/>
</g>
<!-- /Users/mmoscato/Workspace/Workbench/pvs/dependency&#45;all/Users/mmoscato/pvs/pvs/nasalib/analysis&#45;&gt;/Users/mmoscato/Workspace/Workbench/pvs/dependency&#45;all/Users/mmoscato/pvs/pvs/nasalib/orders -->
<g id="edge13" class="edge">
<title>/Users/mmoscato/Workspace/Workbench/pvs/dependency&#45;all/Users/mmoscato/pvs/pvs/nasalib/analysis&#45;&gt;/Users/mmoscato/Workspace/Workbench/pvs/dependency&#45;all/Users/mmoscato/pvs/pvs/nasalib/orders</title>
<path fill="none" stroke="#000000" d="M242.7759,-313.8314C242.7759,-313.8314 242.7759,-288.4133 242.7759,-288.4133"/>
<polygon fill="#000000" stroke="#000000" points="246.276,-288.4132 242.7759,-278.4133 239.276,-288.4133 246.276,-288.4132"/>
</g>
<!-- /Users/mmoscato/Workspace/Workbench/pvs/dependency&#45;all/Users/mmoscato/pvs/pvs/nasalib/analysis&#45;&gt;/Users/mmoscato/Workspace/Workbench/pvs/dependency&#45;all/Users/mmoscato/pvs/pvs/nasalib/reals -->
<g id="edge14" class="edge">
<title>/Users/mmoscato/Workspace/Workbench/pvs/dependency&#45;all/Users/mmoscato/pvs/pvs/nasalib/analysis&#45;&gt;/Users/mmoscato/Workspace/Workbench/pvs/dependency&#45;all/Users/mmoscato/pvs/pvs/nasalib/reals</title>
<path fill="none" stroke="#000000" d="M208.2966,-326C178.1537,-326 136.6667,-326 136.6667,-326 136.6667,-326 136.6667,-288.0348 136.6667,-288.0348"/>
<polygon fill="#000000" stroke="#000000" points="140.1668,-288.0348 136.6667,-278.0348 133.1668,-288.0348 140.1668,-288.0348"/>
</g>
<!-- /Users/mmoscato/Workspace/Workbench/pvs/dependency&#45;all/Users/mmoscato/pvs/pvs/nasalib/analysis&#45;&gt;/Users/mmoscato/Workspace/Workbench/pvs/dependency&#45;all/Users/mmoscato/pvs/pvs/nasalib/structures -->
<g id="edge15" class="edge">
<title>/Users/mmoscato/Workspace/Workbench/pvs/dependency&#45;all/Users/mmoscato/pvs/pvs/nasalib/analysis&#45;&gt;/Users/mmoscato/Workspace/Workbench/pvs/dependency&#45;all/Users/mmoscato/pvs/pvs/nasalib/structures</title>
<path fill="none" stroke="#000000" d="M208.4081,-338C207.3093,-338 206.6699,-338 206.6699,-338 206.6699,-338 206.6699,-216.0935 206.6699,-216.0935"/>
<polygon fill="#000000" stroke="#000000" points="210.17,-216.0935 206.6699,-206.0935 203.17,-216.0935 210.17,-216.0935"/>
</g>
<!-- /Users/mmoscato/Workspace/Workbench/pvs/dependency&#45;all/Users/mmoscato/pvs/pvs/nasalib/aviation&#45;&gt;/Users/mmoscato/Workspace/Workbench/pvs/dependency&#45;all/Users/mmoscato/pvs/pvs/lib/finite_sets -->
<g id="edge16" class="edge">
<title>/Users/mmoscato/Workspace/Workbench/pvs/dependency&#45;all/Users/mmoscato/pvs/pvs/nasalib/aviation&#45;&gt;/Users/mmoscato/Workspace/Workbench/pvs/dependency&#45;all/Users/mmoscato/pvs/pvs/lib/finite_sets</title>
<path fill="none" stroke="#000000" d="M201.335,-601.9717C201.335,-525.2705 201.335,-230 201.335,-230 201.335,-230 243,-230 243,-230 243,-230 243,-62.0879 243,-62.0879"/>
<polygon fill="#000000" stroke="#000000" points="246.5001,-62.0879 243,-52.0879 239.5001,-62.0879 246.5001,-62.0879"/>
</g>
<!-- /Users/mmoscato/Workspace/Workbench/pvs/dependency&#45;all/Users/mmoscato/pvs/pvs/nasalib/aviation&#45;&gt;/Users/mmoscato/Workspace/Workbench/pvs/dependency&#45;all/Users/mmoscato/pvs/pvs/nasalib/analysis -->
<g id="edge17" class="edge">
<title>/Users/mmoscato/Workspace/Workbench/pvs/dependency&#45;all/Users/mmoscato/pvs/pvs/nasalib/aviation&#45;&gt;/Users/mmoscato/Workspace/Workbench/pvs/dependency&#45;all/Users/mmoscato/pvs/pvs/nasalib/analysis</title>
<path fill="none" stroke="#000000" d="M227.4517,-601.9843C227.4517,-601.9843 227.4517,-360.0089 227.4517,-360.0089"/>
<polygon fill="#000000" stroke="#000000" points="230.9518,-360.0088 227.4517,-350.0089 223.9518,-360.0089 230.9518,-360.0088"/>
</g>
<!-- /Users/mmoscato/Workspace/Workbench/pvs/dependency&#45;all/Users/mmoscato/pvs/pvs/nasalib/aviation&#45;&gt;/Users/mmoscato/Workspace/Workbench/pvs/dependency&#45;all/Users/mmoscato/pvs/pvs/nasalib/ints -->
<g id="edge18" class="edge">
<title>/Users/mmoscato/Workspace/Workbench/pvs/dependency&#45;all/Users/mmoscato/pvs/pvs/nasalib/aviation&#45;&gt;/Users/mmoscato/Workspace/Workbench/pvs/dependency&#45;all/Users/mmoscato/pvs/pvs/nasalib/ints</title>
<path fill="none" stroke="#000000" d="M245.8382,-620C268.4992,-620 295.3567,-620 295.3567,-620 295.3567,-620 295.3567,-113 295.3567,-113 295.3567,-113 214.1534,-113 214.1534,-113"/>
<polygon fill="#000000" stroke="#000000" points="214.1535,-109.5001 204.1534,-113 214.1534,-116.5001 214.1535,-109.5001"/>
</g>
<!-- /Users/mmoscato/Workspace/Workbench/pvs/dependency&#45;all/Users/mmoscato/pvs/pvs/nasalib/aviation&#45;&gt;/Users/mmoscato/Workspace/Workbench/pvs/dependency&#45;all/Users/mmoscato/pvs/pvs/nasalib/orders -->
<g id="edge19" class="edge">
<title>/Users/mmoscato/Workspace/Workbench/pvs/dependency&#45;all/Users/mmoscato/pvs/pvs/nasalib/aviation&#45;&gt;/Users/mmoscato/Workspace/Workbench/pvs/dependency&#45;all/Users/mmoscato/pvs/pvs/nasalib/orders</title>
<path fill="none" stroke="#000000" d="M204.8916,-601.6229C204.8916,-529.402 204.8916,-269 204.8916,-269 204.8916,-269 205.9734,-269 205.9734,-269"/>
<polygon fill="#000000" stroke="#000000" points="205.71,-272.5001 215.71,-269 205.71,-265.5001 205.71,-272.5001"/>
</g>
<!-- /Users/mmoscato/Workspace/Workbench/pvs/dependency&#45;all/Users/mmoscato/pvs/pvs/nasalib/aviation&#45;&gt;/Users/mmoscato/Workspace/Workbench/pvs/dependency&#45;all/Users/mmoscato/pvs/pvs/nasalib/reals -->
<g id="edge20" class="edge">
<title>/Users/mmoscato/Workspace/Workbench/pvs/dependency&#45;all/Users/mmoscato/pvs/pvs/nasalib/aviation&#45;&gt;/Users/mmoscato/Workspace/Workbench/pvs/dependency&#45;all/Users/mmoscato/pvs/pvs/nasalib/reals</title>
<path fill="none" stroke="#000000" d="M184.3421,-620C160.9336,-620 132.6667,-620 132.6667,-620 132.6667,-620 132.6667,-288.3474 132.6667,-288.3474"/>
<polygon fill="#000000" stroke="#000000" points="136.1668,-288.3473 132.6667,-278.3474 129.1668,-288.3474 136.1668,-288.3473"/>
</g>
<!-- /Users/mmoscato/Workspace/Workbench/pvs/dependency&#45;all/Users/mmoscato/pvs/pvs/nasalib/aviation&#45;&gt;/Users/mmoscato/Workspace/Workbench/pvs/dependency&#45;all/Users/mmoscato/pvs/pvs/nasalib/series -->
<g id="edge21" class="edge">
<title>/Users/mmoscato/Workspace/Workbench/pvs/dependency&#45;all/Users/mmoscato/pvs/pvs/nasalib/aviation&#45;&gt;/Users/mmoscato/Workspace/Workbench/pvs/dependency&#45;all/Users/mmoscato/pvs/pvs/nasalib/series</title>
<path fill="none" stroke="#000000" d="M197.7783,-601.8182C197.7783,-550.9698 197.7783,-411 197.7783,-411 197.7783,-411 140.1597,-411 140.1597,-411"/>
<polygon fill="#000000" stroke="#000000" points="140.1597,-407.5001 130.1597,-411 140.1596,-414.5001 140.1597,-407.5001"/>
</g>
<!-- /Users/mmoscato/Workspace/Workbench/pvs/dependency&#45;all/Users/mmoscato/pvs/pvs/nasalib/aviation&#45;&gt;/Users/mmoscato/Workspace/Workbench/pvs/dependency&#45;all/Users/mmoscato/pvs/pvs/nasalib/structures -->
<g id="edge22" class="edge">
<title>/Users/mmoscato/Workspace/Workbench/pvs/dependency&#45;all/Users/mmoscato/pvs/pvs/nasalib/aviation&#45;&gt;/Users/mmoscato/Workspace/Workbench/pvs/dependency&#45;all/Users/mmoscato/pvs/pvs/nasalib/structures</title>
<path fill="none" stroke="#000000" d="M199.5566,-601.9875C199.5566,-601.9875 199.5566,-216.0894 199.5566,-216.0894"/>
<polygon fill="#000000" stroke="#000000" points="203.0567,-216.0894 199.5566,-206.0894 196.0567,-216.0894 203.0567,-216.0894"/>
</g>
<!-- /Users/mmoscato/Workspace/Workbench/pvs/dependency&#45;all/Users/mmoscato/pvs/pvs/nasalib/aviation&#45;&gt;/Users/mmoscato/Workspace/Workbench/pvs/dependency&#45;all/Users/mmoscato/pvs/pvs/nasalib/trig -->
<g id="edge23" class="edge">
<title>/Users/mmoscato/Workspace/Workbench/pvs/dependency&#45;all/Users/mmoscato/pvs/pvs/nasalib/aviation&#45;&gt;/Users/mmoscato/Workspace/Workbench/pvs/dependency&#45;all/Users/mmoscato/pvs/pvs/nasalib/trig</title>
<path fill="none" stroke="#000000" d="M188.3011,-601.7623C188.3011,-601.7623 188.3011,-504.0896 188.3011,-504.0896"/>
<polygon fill="#000000" stroke="#000000" points="191.8012,-504.0896 188.3011,-494.0896 184.8012,-504.0897 191.8012,-504.0896"/>
</g>
<!-- /Users/mmoscato/Workspace/Workbench/pvs/dependency&#45;all/Users/mmoscato/pvs/pvs/nasalib/aviation&#45;&gt;/Users/mmoscato/Workspace/Workbench/pvs/dependency&#45;all/Users/mmoscato/pvs/pvs/nasalib/vectors -->
<g id="edge24" class="edge">
<title>/Users/mmoscato/Workspace/Workbench/pvs/dependency&#45;all/Users/mmoscato/pvs/pvs/nasalib/aviation&#45;&gt;/Users/mmoscato/Workspace/Workbench/pvs/dependency&#45;all/Users/mmoscato/pvs/pvs/nasalib/vectors</title>
<path fill="none" stroke="#000000" d="M239.6672,-601.8314C239.6672,-601.8314 239.6672,-576.4133 239.6672,-576.4133"/>
<polygon fill="#000000" stroke="#000000" points="243.1673,-576.4132 239.6672,-566.4133 236.1673,-576.4133 243.1673,-576.4132"/>
</g>
<!-- /Users/mmoscato/Workspace/Workbench/pvs/dependency&#45;all/Users/mmoscato/pvs/pvs/nasalib/ints&#45;&gt;/Users/mmoscato/Workspace/Workbench/pvs/dependency&#45;all/Users/mmoscato/pvs/pvs/lib/finite_sets -->
<g id="edge25" class="edge">
<title>/Users/mmoscato/Workspace/Workbench/pvs/dependency&#45;all/Users/mmoscato/pvs/pvs/nasalib/ints&#45;&gt;/Users/mmoscato/Workspace/Workbench/pvs/dependency&#45;all/Users/mmoscato/pvs/pvs/lib/finite_sets</title>
<path fill="none" stroke="#000000" d="M204.4045,-103C205.8595,-103 206.738,-103 206.738,-103 206.738,-103 206.738,-62.1289 206.738,-62.1289"/>
<polygon fill="#000000" stroke="#000000" points="210.2379,-62.129 206.738,-52.1289 203.2379,-62.1289 210.2379,-62.129"/>
</g>
<!-- /Users/mmoscato/Workspace/Workbench/pvs/dependency&#45;all/Users/mmoscato/pvs/pvs/nasalib/orders&#45;&gt;/Users/mmoscato/Workspace/Workbench/pvs/dependency&#45;all/Users/mmoscato/pvs/pvs/lib/finite_sets -->
<g id="edge26" class="edge">
<title>/Users/mmoscato/Workspace/Workbench/pvs/dependency&#45;all/Users/mmoscato/pvs/pvs/nasalib/orders&#45;&gt;/Users/mmoscato/Workspace/Workbench/pvs/dependency&#45;all/Users/mmoscato/pvs/pvs/lib/finite_sets</title>
<path fill="none" stroke="#000000" d="M256.5,-241.8875C256.5,-241.8875 256.5,-62.1988 256.5,-62.1988"/>
<polygon fill="#000000" stroke="#000000" points="260.0001,-62.1987 256.5,-52.1988 253.0001,-62.1988 260.0001,-62.1987"/>
</g>
<!-- /Users/mmoscato/Workspace/Workbench/pvs/dependency&#45;all/Users/mmoscato/pvs/pvs/nasalib/reals&#45;&gt;/Users/mmoscato/Workspace/Workbench/pvs/dependency&#45;all/Users/mmoscato/pvs/pvs/nasalib/ints -->
<g id="edge27" class="edge">
<title>/Users/mmoscato/Workspace/Workbench/pvs/dependency&#45;all/Users/mmoscato/pvs/pvs/nasalib/reals&#45;&gt;/Users/mmoscato/Workspace/Workbench/pvs/dependency&#45;all/Users/mmoscato/pvs/pvs/nasalib/ints</title>
<path fill="none" stroke="#000000" d="M102,-241.9589C102,-204.5524 102,-122 102,-122 102,-122 139.9233,-122 139.9233,-122"/>
<polygon fill="#000000" stroke="#000000" points="139.9233,-125.5001 149.9233,-122 139.9232,-118.5001 139.9233,-125.5001"/>
</g>
<!-- /Users/mmoscato/Workspace/Workbench/pvs/dependency&#45;all/Users/mmoscato/pvs/pvs/nasalib/reals&#45;&gt;/Users/mmoscato/Workspace/Workbench/pvs/dependency&#45;all/Users/mmoscato/pvs/pvs/nasalib/structures -->
<g id="edge28" class="edge">
<title>/Users/mmoscato/Workspace/Workbench/pvs/dependency&#45;all/Users/mmoscato/pvs/pvs/nasalib/reals&#45;&gt;/Users/mmoscato/Workspace/Workbench/pvs/dependency&#45;all/Users/mmoscato/pvs/pvs/nasalib/structures</title>
<path fill="none" stroke="#000000" d="M120,-241.8314C120,-220.502 120,-188 120,-188 120,-188 131.5493,-188 131.5493,-188"/>
<polygon fill="#000000" stroke="#000000" points="131.5493,-191.5001 141.5493,-188 131.5492,-184.5001 131.5493,-191.5001"/>
</g>
<!-- /Users/mmoscato/Workspace/Workbench/pvs/dependency&#45;all/Users/mmoscato/pvs/pvs/nasalib/series&#45;&gt;/Users/mmoscato/Workspace/Workbench/pvs/dependency&#45;all/Users/mmoscato/pvs/pvs/lib/finite_sets -->
<g id="edge29" class="edge">
<title>/Users/mmoscato/Workspace/Workbench/pvs/dependency&#45;all/Users/mmoscato/pvs/pvs/nasalib/series&#45;&gt;/Users/mmoscato/Workspace/Workbench/pvs/dependency&#45;all/Users/mmoscato/pvs/pvs/lib/finite_sets</title>
<path fill="none" stroke="#000000" d="M78.6667,-385.9037C78.6667,-311.6189 78.6667,-34 78.6667,-34 78.6667,-34 188.3468,-34 188.3468,-34"/>
<polygon fill="#000000" stroke="#000000" points="188.3468,-37.5001 198.3468,-34 188.3467,-30.5001 188.3468,-37.5001"/>
</g>
<!-- /Users/mmoscato/Workspace/Workbench/pvs/dependency&#45;all/Users/mmoscato/pvs/pvs/nasalib/series&#45;&gt;/Users/mmoscato/Workspace/Workbench/pvs/dependency&#45;all/Users/mmoscato/pvs/pvs/nasalib/analysis -->
<g id="edge30" class="edge">
<title>/Users/mmoscato/Workspace/Workbench/pvs/dependency&#45;all/Users/mmoscato/pvs/pvs/nasalib/series&#45;&gt;/Users/mmoscato/Workspace/Workbench/pvs/dependency&#45;all/Users/mmoscato/pvs/pvs/nasalib/analysis</title>
<path fill="none" stroke="#000000" d="M130.0595,-401C163.1419,-401 214.7827,-401 214.7827,-401 214.7827,-401 214.7827,-360.1289 214.7827,-360.1289"/>
<polygon fill="#000000" stroke="#000000" points="218.2828,-360.1289 214.7827,-350.1289 211.2828,-360.129 218.2828,-360.1289"/>
</g>
<!-- /Users/mmoscato/Workspace/Workbench/pvs/dependency&#45;all/Users/mmoscato/pvs/pvs/nasalib/series&#45;&gt;/Users/mmoscato/Workspace/Workbench/pvs/dependency&#45;all/Users/mmoscato/pvs/pvs/nasalib/ints -->
<g id="edge31" class="edge">
<title>/Users/mmoscato/Workspace/Workbench/pvs/dependency&#45;all/Users/mmoscato/pvs/pvs/nasalib/series&#45;&gt;/Users/mmoscato/Workspace/Workbench/pvs/dependency&#45;all/Users/mmoscato/pvs/pvs/nasalib/ints</title>
<path fill="none" stroke="#000000" d="M81.3333,-385.609C81.3333,-321.2452 81.3333,-110 81.3333,-110 81.3333,-110 139.8417,-110 139.8417,-110"/>
<polygon fill="#000000" stroke="#000000" points="139.8417,-113.5001 149.8417,-110 139.8416,-106.5001 139.8417,-113.5001"/>
</g>
<!-- /Users/mmoscato/Workspace/Workbench/pvs/dependency&#45;all/Users/mmoscato/pvs/pvs/nasalib/series&#45;&gt;/Users/mmoscato/Workspace/Workbench/pvs/dependency&#45;all/Users/mmoscato/pvs/pvs/nasalib/orders -->
<g id="edge32" class="edge">
<title>/Users/mmoscato/Workspace/Workbench/pvs/dependency&#45;all/Users/mmoscato/pvs/pvs/nasalib/series&#45;&gt;/Users/mmoscato/Workspace/Workbench/pvs/dependency&#45;all/Users/mmoscato/pvs/pvs/nasalib/orders</title>
<path fill="none" stroke="#000000" d="M130.2143,-396C143.8214,-396 157.4286,-396 157.4286,-396 157.4286,-396 157.4286,-251 157.4286,-251 157.4286,-251 205.9247,-251 205.9247,-251"/>
<polygon fill="#000000" stroke="#000000" points="205.9247,-254.5001 215.9247,-251 205.9246,-247.5001 205.9247,-254.5001"/>
</g>
<!-- /Users/mmoscato/Workspace/Workbench/pvs/dependency&#45;all/Users/mmoscato/pvs/pvs/nasalib/series&#45;&gt;/Users/mmoscato/Workspace/Workbench/pvs/dependency&#45;all/Users/mmoscato/pvs/pvs/nasalib/reals -->
<g id="edge33" class="edge">
<title>/Users/mmoscato/Workspace/Workbench/pvs/dependency&#45;all/Users/mmoscato/pvs/pvs/nasalib/series&#45;&gt;/Users/mmoscato/Workspace/Workbench/pvs/dependency&#45;all/Users/mmoscato/pvs/pvs/nasalib/reals</title>
<path fill="none" stroke="#000000" d="M107,-385.7623C107,-385.7623 107,-288.0896 107,-288.0896"/>
<polygon fill="#000000" stroke="#000000" points="110.5001,-288.0896 107,-278.0896 103.5001,-288.0897 110.5001,-288.0896"/>
</g>
<!-- /Users/mmoscato/Workspace/Workbench/pvs/dependency&#45;all/Users/mmoscato/pvs/pvs/nasalib/series&#45;&gt;/Users/mmoscato/Workspace/Workbench/pvs/dependency&#45;all/Users/mmoscato/pvs/pvs/nasalib/structures -->
<g id="edge34" class="edge">
<title>/Users/mmoscato/Workspace/Workbench/pvs/dependency&#45;all/Users/mmoscato/pvs/pvs/nasalib/series&#45;&gt;/Users/mmoscato/Workspace/Workbench/pvs/dependency&#45;all/Users/mmoscato/pvs/pvs/nasalib/structures</title>
<path fill="none" stroke="#000000" d="M130.1739,-391C140.4507,-391 149.7143,-391 149.7143,-391 149.7143,-391 149.7143,-216.0149 149.7143,-216.0149"/>
<polygon fill="#000000" stroke="#000000" points="153.2144,-216.0149 149.7143,-206.0149 146.2144,-216.0149 153.2144,-216.0149"/>
</g>
<!-- /Users/mmoscato/Workspace/Workbench/pvs/dependency&#45;all/Users/mmoscato/pvs/pvs/nasalib/structures&#45;&gt;/Users/mmoscato/Workspace/Workbench/pvs/dependency&#45;all/Users/mmoscato/pvs/pvs/lib/finite_sets -->
<g id="edge35" class="edge">
<title>/Users/mmoscato/Workspace/Workbench/pvs/dependency&#45;all/Users/mmoscato/pvs/pvs/nasalib/structures&#45;&gt;/Users/mmoscato/Workspace/Workbench/pvs/dependency&#45;all/Users/mmoscato/pvs/pvs/lib/finite_sets</title>
<path fill="none" stroke="#000000" d="M209.4759,-169.7294C209.4759,-169.7294 209.4759,-62.2468 209.4759,-62.2468"/>
<polygon fill="#000000" stroke="#000000" points="212.976,-62.2468 209.4759,-52.2468 205.976,-62.2468 212.976,-62.2468"/>
</g>
<!-- /Users/mmoscato/Workspace/Workbench/pvs/dependency&#45;all/Users/mmoscato/pvs/pvs/nasalib/structures&#45;&gt;/Users/mmoscato/Workspace/Workbench/pvs/dependency&#45;all/Users/mmoscato/pvs/pvs/nasalib/ints -->
<g id="edge36" class="edge">
<title>/Users/mmoscato/Workspace/Workbench/pvs/dependency&#45;all/Users/mmoscato/pvs/pvs/nasalib/structures&#45;&gt;/Users/mmoscato/Workspace/Workbench/pvs/dependency&#45;all/Users/mmoscato/pvs/pvs/nasalib/ints</title>
<path fill="none" stroke="#000000" d="M177,-169.8314C177,-169.8314 177,-144.4133 177,-144.4133"/>
<polygon fill="#000000" stroke="#000000" points="180.5001,-144.4132 177,-134.4133 173.5001,-144.4133 180.5001,-144.4132"/>
</g>
<!-- /Users/mmoscato/Workspace/Workbench/pvs/dependency&#45;all/Users/mmoscato/pvs/pvs/nasalib/trig&#45;&gt;/Users/mmoscato/Workspace/Workbench/pvs/dependency&#45;all/Users/mmoscato/pvs/pvs/lib/finite_sets -->
<g id="edge37" class="edge">
<title>/Users/mmoscato/Workspace/Workbench/pvs/dependency&#45;all/Users/mmoscato/pvs/pvs/nasalib/trig&#45;&gt;/Users/mmoscato/Workspace/Workbench/pvs/dependency&#45;all/Users/mmoscato/pvs/pvs/lib/finite_sets</title>
<path fill="none" stroke="#000000" d="M180.5714,-457.8579C180.5714,-399.1317 180.5714,-218 180.5714,-218 180.5714,-218 229.5,-218 229.5,-218 229.5,-218 229.5,-62.3153 229.5,-62.3153"/>
<polygon fill="#000000" stroke="#000000" points="233.0001,-62.3153 229.5,-52.3153 226.0001,-62.3154 233.0001,-62.3153"/>
</g>
<!-- /Users/mmoscato/Workspace/Workbench/pvs/dependency&#45;all/Users/mmoscato/pvs/pvs/nasalib/trig&#45;&gt;/Users/mmoscato/Workspace/Workbench/pvs/dependency&#45;all/Users/mmoscato/pvs/pvs/nasalib/analysis -->
<g id="edge38" class="edge">
<title>/Users/mmoscato/Workspace/Workbench/pvs/dependency&#45;all/Users/mmoscato/pvs/pvs/nasalib/trig&#45;&gt;/Users/mmoscato/Workspace/Workbench/pvs/dependency&#45;all/Users/mmoscato/pvs/pvs/nasalib/analysis</title>
<path fill="none" stroke="#000000" d="M196.2797,-470C208.8895,-470 221.1172,-470 221.1172,-470 221.1172,-470 221.1172,-360.0411 221.1172,-360.0411"/>
<polygon fill="#000000" stroke="#000000" points="224.6173,-360.0411 221.1172,-350.0411 217.6173,-360.0411 224.6173,-360.0411"/>
</g>
<!-- /Users/mmoscato/Workspace/Workbench/pvs/dependency&#45;all/Users/mmoscato/pvs/pvs/nasalib/trig&#45;&gt;/Users/mmoscato/Workspace/Workbench/pvs/dependency&#45;all/Users/mmoscato/pvs/pvs/nasalib/ints -->
<g id="edge39" class="edge">
<title>/Users/mmoscato/Workspace/Workbench/pvs/dependency&#45;all/Users/mmoscato/pvs/pvs/nasalib/trig&#45;&gt;/Users/mmoscato/Workspace/Workbench/pvs/dependency&#45;all/Users/mmoscato/pvs/pvs/nasalib/ints</title>
<path fill="none" stroke="#000000" d="M196.0209,-482C228.7216,-482 279.4572,-482 279.4572,-482 279.4572,-482 279.4572,-123 279.4572,-123 279.4572,-123 214.1876,-123 214.1876,-123"/>
<polygon fill="#000000" stroke="#000000" points="214.1877,-119.5001 204.1876,-123 214.1876,-126.5001 214.1877,-119.5001"/>
</g>
<!-- /Users/mmoscato/Workspace/Workbench/pvs/dependency&#45;all/Users/mmoscato/pvs/pvs/nasalib/trig&#45;&gt;/Users/mmoscato/Workspace/Workbench/pvs/dependency&#45;all/Users/mmoscato/pvs/pvs/nasalib/orders -->
<g id="edge40" class="edge">
<title>/Users/mmoscato/Workspace/Workbench/pvs/dependency&#45;all/Users/mmoscato/pvs/pvs/nasalib/trig&#45;&gt;/Users/mmoscato/Workspace/Workbench/pvs/dependency&#45;all/Users/mmoscato/pvs/pvs/nasalib/orders</title>
<path fill="none" stroke="#000000" d="M188.2857,-457.9555C188.2857,-406.0421 188.2857,-260 188.2857,-260 188.2857,-260 205.9634,-260 205.9634,-260"/>
<polygon fill="#000000" stroke="#000000" points="205.9635,-263.5001 215.9634,-260 205.9634,-256.5001 205.9635,-263.5001"/>
</g>
<!-- /Users/mmoscato/Workspace/Workbench/pvs/dependency&#45;all/Users/mmoscato/pvs/pvs/nasalib/trig&#45;&gt;/Users/mmoscato/Workspace/Workbench/pvs/dependency&#45;all/Users/mmoscato/pvs/pvs/nasalib/reals -->
<g id="edge41" class="edge">
<title>/Users/mmoscato/Workspace/Workbench/pvs/dependency&#45;all/Users/mmoscato/pvs/pvs/nasalib/trig&#45;&gt;/Users/mmoscato/Workspace/Workbench/pvs/dependency&#45;all/Users/mmoscato/pvs/pvs/nasalib/reals</title>
<path fill="none" stroke="#000000" d="M141.8246,-476C137.9964,-476 135.3333,-476 135.3333,-476 135.3333,-476 135.3333,-288.0445 135.3333,-288.0445"/>
<polygon fill="#000000" stroke="#000000" points="138.8334,-288.0445 135.3333,-278.0445 131.8334,-288.0446 138.8334,-288.0445"/>
</g>
<!-- /Users/mmoscato/Workspace/Workbench/pvs/dependency&#45;all/Users/mmoscato/pvs/pvs/nasalib/trig&#45;&gt;/Users/mmoscato/Workspace/Workbench/pvs/dependency&#45;all/Users/mmoscato/pvs/pvs/nasalib/series -->
<g id="edge42" class="edge">
<title>/Users/mmoscato/Workspace/Workbench/pvs/dependency&#45;all/Users/mmoscato/pvs/pvs/nasalib/trig&#45;&gt;/Users/mmoscato/Workspace/Workbench/pvs/dependency&#45;all/Users/mmoscato/pvs/pvs/nasalib/series</title>
<path fill="none" stroke="#000000" d="M165.1429,-457.998C165.1429,-440.3246 165.1429,-416 165.1429,-416 165.1429,-416 140.076,-416 140.076,-416"/>
<polygon fill="#000000" stroke="#000000" points="140.076,-412.5001 130.076,-416 140.076,-419.5001 140.076,-412.5001"/>
</g>
<!-- /Users/mmoscato/Workspace/Workbench/pvs/dependency&#45;all/Users/mmoscato/pvs/pvs/nasalib/trig&#45;&gt;/Users/mmoscato/Workspace/Workbench/pvs/dependency&#45;all/Users/mmoscato/pvs/pvs/nasalib/structures -->
<g id="edge43" class="edge">
<title>/Users/mmoscato/Workspace/Workbench/pvs/dependency&#45;all/Users/mmoscato/pvs/pvs/nasalib/trig&#45;&gt;/Users/mmoscato/Workspace/Workbench/pvs/dependency&#45;all/Users/mmoscato/pvs/pvs/nasalib/structures</title>
<path fill="none" stroke="#000000" d="M172.8571,-457.9843C172.8571,-457.9843 172.8571,-216.0089 172.8571,-216.0089"/>
<polygon fill="#000000" stroke="#000000" points="176.3572,-216.0088 172.8571,-206.0089 169.3572,-216.0089 176.3572,-216.0088"/>
</g>
<!-- /Users/mmoscato/Workspace/Workbench/pvs/dependency&#45;all/Users/mmoscato/pvs/pvs/nasalib/vectors&#45;&gt;/Users/mmoscato/Workspace/Workbench/pvs/dependency&#45;all/Users/mmoscato/pvs/pvs/lib/finite_sets -->
<g id="edge44" class="edge">
<title>/Users/mmoscato/Workspace/Workbench/pvs/dependency&#45;all/Users/mmoscato/pvs/pvs/nasalib/vectors&#45;&gt;/Users/mmoscato/Workspace/Workbench/pvs/dependency&#45;all/Users/mmoscato/pvs/pvs/lib/finite_sets</title>
<path fill="none" stroke="#000000" d="M287.5247,-529.7065C287.5247,-438.1429 287.5247,-34 287.5247,-34 287.5247,-34 281.4802,-34 281.4802,-34"/>
<polygon fill="#000000" stroke="#000000" points="281.4802,-30.5001 271.4802,-34 281.4801,-37.5001 281.4802,-30.5001"/>
</g>
<!-- /Users/mmoscato/Workspace/Workbench/pvs/dependency&#45;all/Users/mmoscato/pvs/pvs/nasalib/vectors&#45;&gt;/Users/mmoscato/Workspace/Workbench/pvs/dependency&#45;all/Users/mmoscato/pvs/pvs/nasalib/analysis -->
<g id="edge45" class="edge">
<title>/Users/mmoscato/Workspace/Workbench/pvs/dependency&#45;all/Users/mmoscato/pvs/pvs/nasalib/vectors&#45;&gt;/Users/mmoscato/Workspace/Workbench/pvs/dependency&#45;all/Users/mmoscato/pvs/pvs/nasalib/analysis</title>
<path fill="none" stroke="#000000" d="M257.6299,-529.9555C257.6299,-529.9555 257.6299,-360.1451 257.6299,-360.1451"/>
<polygon fill="#000000" stroke="#000000" points="261.13,-360.145 257.6299,-350.1451 254.13,-360.1451 261.13,-360.145"/>
</g>
<!-- /Users/mmoscato/Workspace/Workbench/pvs/dependency&#45;all/Users/mmoscato/pvs/pvs/nasalib/vectors&#45;&gt;/Users/mmoscato/Workspace/Workbench/pvs/dependency&#45;all/Users/mmoscato/pvs/pvs/nasalib/ints -->
<g id="edge46" class="edge">
<title>/Users/mmoscato/Workspace/Workbench/pvs/dependency&#45;all/Users/mmoscato/pvs/pvs/nasalib/vectors&#45;&gt;/Users/mmoscato/Workspace/Workbench/pvs/dependency&#45;all/Users/mmoscato/pvs/pvs/nasalib/ints</title>
<path fill="none" stroke="#000000" d="M282.1463,-529.7981C282.1463,-447.954 282.1463,-118 282.1463,-118 282.1463,-118 214.0778,-118 214.0778,-118"/>
<polygon fill="#000000" stroke="#000000" points="214.0778,-114.5001 204.0778,-118 214.0778,-121.5001 214.0778,-114.5001"/>
</g>
<!-- /Users/mmoscato/Workspace/Workbench/pvs/dependency&#45;all/Users/mmoscato/pvs/pvs/nasalib/vectors&#45;&gt;/Users/mmoscato/Workspace/Workbench/pvs/dependency&#45;all/Users/mmoscato/pvs/pvs/nasalib/orders -->
<g id="edge47" class="edge">
<title>/Users/mmoscato/Workspace/Workbench/pvs/dependency&#45;all/Users/mmoscato/pvs/pvs/nasalib/vectors&#45;&gt;/Users/mmoscato/Workspace/Workbench/pvs/dependency&#45;all/Users/mmoscato/pvs/pvs/nasalib/orders</title>
<path fill="none" stroke="#000000" d="M274.0788,-529.9306C274.0788,-467.6903 274.0788,-266 274.0788,-266 274.0788,-266 273.6725,-266 273.6725,-266"/>
<polygon fill="#000000" stroke="#000000" points="280.0159,-262.5003 270.0158,-266 280.0157,-269.5003 280.0159,-262.5003"/>
</g>
<!-- /Users/mmoscato/Workspace/Workbench/pvs/dependency&#45;all/Users/mmoscato/pvs/pvs/nasalib/vectors&#45;&gt;/Users/mmoscato/Workspace/Workbench/pvs/dependency&#45;all/Users/mmoscato/pvs/pvs/nasalib/reals -->
<g id="edge48" class="edge">
<title>/Users/mmoscato/Workspace/Workbench/pvs/dependency&#45;all/Users/mmoscato/pvs/pvs/nasalib/vectors&#45;&gt;/Users/mmoscato/Workspace/Workbench/pvs/dependency&#45;all/Users/mmoscato/pvs/pvs/nasalib/reals</title>
<path fill="none" stroke="#000000" d="M233.5927,-557C195.8828,-557 134,-557 134,-557 134,-557 134,-288.1316 134,-288.1316"/>
<polygon fill="#000000" stroke="#000000" points="137.5001,-288.1316 134,-278.1316 130.5001,-288.1316 137.5001,-288.1316"/>
</g>
<!-- /Users/mmoscato/Workspace/Workbench/pvs/dependency&#45;all/Users/mmoscato/pvs/pvs/nasalib/vectors&#45;&gt;/Users/mmoscato/Workspace/Workbench/pvs/dependency&#45;all/Users/mmoscato/pvs/pvs/nasalib/series -->
<g id="edge49" class="edge">
<title>/Users/mmoscato/Workspace/Workbench/pvs/dependency&#45;all/Users/mmoscato/pvs/pvs/nasalib/vectors&#45;&gt;/Users/mmoscato/Workspace/Workbench/pvs/dependency&#45;all/Users/mmoscato/pvs/pvs/nasalib/series</title>
<path fill="none" stroke="#000000" d="M245.708,-529.7267C245.708,-491.3747 245.708,-406 245.708,-406 245.708,-406 140.1782,-406 140.1782,-406"/>
<polygon fill="#000000" stroke="#000000" points="140.1782,-402.5001 130.1782,-406 140.1782,-409.5001 140.1782,-402.5001"/>
</g>
<!-- /Users/mmoscato/Workspace/Workbench/pvs/dependency&#45;all/Users/mmoscato/pvs/pvs/nasalib/vectors&#45;&gt;/Users/mmoscato/Workspace/Workbench/pvs/dependency&#45;all/Users/mmoscato/pvs/pvs/nasalib/structures -->
<g id="edge50" class="edge">
<title>/Users/mmoscato/Workspace/Workbench/pvs/dependency&#45;all/Users/mmoscato/pvs/pvs/nasalib/vectors&#45;&gt;/Users/mmoscato/Workspace/Workbench/pvs/dependency&#45;all/Users/mmoscato/pvs/pvs/nasalib/structures</title>
<path fill="none" stroke="#000000" d="M233.5916,-539C218.5331,-539 203.1133,-539 203.1133,-539 203.1133,-539 203.1133,-216.3771 203.1133,-216.3771"/>
<polygon fill="#000000" stroke="#000000" points="206.6134,-216.3771 203.1133,-206.3771 199.6134,-216.3771 206.6134,-216.3771"/>
</g>
<!-- /Users/mmoscato/Workspace/Workbench/pvs/dependency&#45;all/Users/mmoscato/pvs/pvs/nasalib/vectors&#45;&gt;/Users/mmoscato/Workspace/Workbench/pvs/dependency&#45;all/Users/mmoscato/pvs/pvs/nasalib/trig -->
<g id="edge51" class="edge">
<title>/Users/mmoscato/Workspace/Workbench/pvs/dependency&#45;all/Users/mmoscato/pvs/pvs/nasalib/vectors&#45;&gt;/Users/mmoscato/Workspace/Workbench/pvs/dependency&#45;all/Users/mmoscato/pvs/pvs/nasalib/trig</title>
<path fill="none" stroke="#000000" d="M233.5896,-548C214.2514,-548 192.1506,-548 192.1506,-548 192.1506,-548 192.1506,-504.1686 192.1506,-504.1686"/>
<polygon fill="#000000" stroke="#000000" points="195.6507,-504.1686 192.1506,-494.1686 188.6507,-504.1687 195.6507,-504.1686"/>
</g>
</g>
</svg>
