<?xml version="1.0" encoding="UTF-8" standalone="no"?>
<!DOCTYPE svg PUBLIC "-//W3C//DTD SVG 1.1//EN"
 "http://www.w3.org/Graphics/SVG/1.1/DTD/svg11.dtd">
<!-- Generated by graphviz version 7.0.6 (20230106.0513)
 -->
<!-- Title: aviation Pages: 1 -->
<svg width="858pt" height="966pt"
 viewBox="0.00 0.00 858.00 966.00" xmlns="http://www.w3.org/2000/svg" xmlns:xlink="http://www.w3.org/1999/xlink">
<g id="graph0" class="graph" transform="scale(1 1) rotate(0) translate(4 962)">
<title>aviation</title>
<polygon fill="white" stroke="none" points="-4,4 -4,-962 854,-962 854,4 -4,4"/>
<g id="clust1" class="cluster">
<title>cluster_NASALib</title>
<polygon fill="none" stroke="black" points="8,-8 8,-950 746,-950 746,-8 8,-8"/>
<text text-anchor="middle" x="377" y="-934.8" font-family="Times,serif" font-size="14.00">NASALib</text>
</g>
<g id="clust2" class="cluster">
<title>cluster_PVS Prelude</title>
<polygon fill="none" stroke="black" points="754,-8 754,-83 842,-83 842,-8 754,-8"/>
<text text-anchor="middle" x="798" y="-67.8" font-family="Times,serif" font-size="14.00">PVS Prelude</text>
</g>
<!-- NASALib/ACCoRD -->
<g id="node1" class="node">
<title>NASALib/ACCoRD</title>
<polygon fill="#fcfcd7" stroke="black" points="198,-919 128,-919 128,-883 198,-883 198,-919"/>
<text text-anchor="middle" x="163" y="-897.3" font-family="Times,serif" font-size="14.00">ACCoRD</text>
</g>
<!-- NASALib/analysis -->
<g id="node2" class="node">
<title>NASALib/analysis</title>
<polygon fill="#fcfcd7" stroke="black" points="193,-775 133,-775 133,-739 193,-739 193,-775"/>
<text text-anchor="middle" x="163" y="-753.3" font-family="Times,serif" font-size="14.00">analysis</text>
</g>
<!-- NASALib/ACCoRD&#45;&gt;NASALib/analysis -->
<g id="edge1" class="edge">
<title>NASALib/ACCoRD&#45;&gt;NASALib/analysis</title>
<path fill="none" stroke="black" d="M737,-828C737,-828 336.65,-779.18 204.66,-763.08"/>
<polygon fill="black" stroke="black" points="205.31,-759.63 194.96,-761.9 204.46,-766.58 205.31,-759.63"/>
<path fill="none" stroke="black" d="M198.47,-895.67C323.62,-880.41 737,-830 737,-830"/>
</g>
<!-- NASALib/aviation -->
<g id="node3" class="node">
<title>NASALib/aviation</title>
<polygon fill="#f7e28d" stroke="black" points="193,-847 133,-847 133,-811 193,-811 193,-847"/>
<text text-anchor="middle" x="163" y="-825.3" font-family="Times,serif" font-size="14.00">aviation</text>
</g>
<!-- NASALib/ACCoRD&#45;&gt;NASALib/aviation -->
<g id="edge2" class="edge">
<title>NASALib/ACCoRD&#45;&gt;NASALib/aviation</title>
<path fill="none" stroke="black" d="M163,-882.7C163,-875.41 163,-866.73 163,-858.54"/>
<polygon fill="black" stroke="black" points="166.5,-858.62 163,-848.62 159.5,-858.62 166.5,-858.62"/>
</g>
<!-- NASALib/reals -->
<g id="node12" class="node">
<title>NASALib/reals</title>
<polygon fill="#fcfcd7" stroke="black" points="190,-703 136,-703 136,-667 190,-667 190,-703"/>
<text text-anchor="middle" x="163" y="-681.3" font-family="Times,serif" font-size="14.00">reals</text>
</g>
<!-- NASALib/ACCoRD&#45;&gt;NASALib/reals -->
<g id="edge3" class="edge">
<title>NASALib/ACCoRD&#45;&gt;NASALib/reals</title>
<path fill="none" stroke="black" d="M737,-828C737,-828 737,-758 737,-758"/>
<path fill="none" stroke="black" d="M737,-756C737,-756 330.17,-706.39 201.51,-690.7"/>
<polygon fill="black" stroke="black" points="202.15,-687.25 191.8,-689.51 201.3,-694.2 202.15,-687.25"/>
</g>
<!-- NASALib/structures -->
<g id="node16" class="node">
<title>NASALib/structures</title>
<polygon fill="#fcfcd7" stroke="black" points="475.5,-127 406.5,-127 406.5,-91 475.5,-91 475.5,-127"/>
<text text-anchor="middle" x="441" y="-105.3" font-family="Times,serif" font-size="14.00">structures</text>
</g>
<!-- NASALib/ACCoRD&#45;&gt;NASALib/structures -->
<g id="edge4" class="edge">
<title>NASALib/ACCoRD&#45;&gt;NASALib/structures</title>
<path fill="none" stroke="black" d="M737,-756C737,-756 737,-614 737,-614 737,-614 737,-614 737,-324 737,-324 717,-182 717,-182"/>
</g>
<!-- NASALib/trig -->
<g id="node18" class="node">
<title>NASALib/trig</title>
<polygon fill="#fcfcd7" stroke="black" points="110,-343 56,-343 56,-307 110,-307 110,-343"/>
<text text-anchor="middle" x="83" y="-321.3" font-family="Times,serif" font-size="14.00">trig</text>
</g>
<!-- NASALib/ACCoRD&#45;&gt;NASALib/trig -->
<g id="edge5" class="edge">
<title>NASALib/ACCoRD&#45;&gt;NASALib/trig</title>
<path fill="none" stroke="black" d="M37,-468C37,-468 60.46,-395.59 73.87,-354.18"/>
<polygon fill="black" stroke="black" points="77.14,-355.44 76.89,-344.85 70.48,-353.29 77.14,-355.44"/>
<path fill="none" stroke="black" d="M150.23,-882.65C138.86,-867.19 124,-847 124,-847 124,-847 72,-775 72,-775 72,-775 57,-686 57,-686"/>
<path fill="none" stroke="black" d="M57,-684C57,-684 32,-631 32,-631 32,-631 32,-523 32,-523 32,-523 37,-470 37,-470"/>
</g>
<!-- NASALib/vectors -->
<g id="node19" class="node">
<title>NASALib/vectors</title>
<polygon fill="#fcfcd7" stroke="black" points="152,-415 96,-415 96,-379 152,-379 152,-415"/>
<text text-anchor="middle" x="124" y="-393.3" font-family="Times,serif" font-size="14.00">vectors</text>
</g>
<!-- NASALib/ACCoRD&#45;&gt;NASALib/vectors -->
<g id="edge6" class="edge">
<title>NASALib/ACCoRD&#45;&gt;NASALib/vectors</title>
<path fill="none" stroke="black" d="M77,-612C77,-612 112,-451 112,-451 112,-451 114.73,-438.92 117.59,-426.3"/>
<polygon fill="black" stroke="black" points="120.94,-427.36 119.74,-416.83 114.11,-425.81 120.94,-427.36"/>
<path fill="none" stroke="black" d="M57,-684C57,-684 77,-614 77,-614"/>
</g>
<!-- lib/finite_sets -->
<g id="node20" class="node">
<title>lib/finite_sets</title>
<polygon fill="#fcfcd7" stroke="black" points="834,-52 762,-52 762,-16 834,-16 834,-52"/>
<text text-anchor="middle" x="798" y="-30.3" font-family="Times,serif" font-size="14.00">finite_sets</text>
</g>
<!-- NASALib/ACCoRD&#45;&gt;lib/finite_sets -->
<g id="edge7" class="edge">
<title>NASALib/ACCoRD&#45;&gt;lib/finite_sets</title>
<path fill="none" stroke="black" d="M737,-828C737,-828 766,-758 766,-758"/>
</g>
<!-- NASALib/ints -->
<g id="node5" class="node">
<title>NASALib/ints</title>
<polygon fill="#fcfcd7" stroke="black" points="468,-52 414,-52 414,-16 468,-16 468,-52"/>
<text text-anchor="middle" x="441" y="-30.3" font-family="Times,serif" font-size="14.00">ints</text>
</g>
<!-- NASALib/analysis&#45;&gt;NASALib/ints -->
<g id="edge8" class="edge">
<title>NASALib/analysis&#45;&gt;NASALib/ints</title>
<path fill="none" stroke="black" d="M199,-108C199,-108 334.87,-67.01 403,-46.46"/>
<polygon fill="black" stroke="black" points="403.7,-49.91 412.26,-43.67 401.68,-43.21 403.7,-49.91"/>
<path fill="none" stroke="black" d="M146.3,-738.65C131.43,-723.19 112,-703 112,-703 112,-703 72,-631 72,-631 72,-631 47,-343 47,-343 47,-343 47,-307 47,-307 47,-307 94,-254 94,-254"/>
<path fill="none" stroke="black" d="M94,-252C94,-252 109,-163 109,-163 109,-163 199,-110 199,-110"/>
</g>
<!-- NASALib/orders -->
<g id="node10" class="node">
<title>NASALib/orders</title>
<polygon fill="#fcfcd7" stroke="black" points="568,-199 514,-199 514,-163 568,-163 568,-199"/>
<text text-anchor="middle" x="541" y="-177.3" font-family="Times,serif" font-size="14.00">orders</text>
</g>
<!-- NASALib/analysis&#45;&gt;NASALib/orders -->
<g id="edge9" class="edge">
<title>NASALib/analysis&#45;&gt;NASALib/orders</title>
<path fill="none" stroke="black" d="M717,-252C717,-252 630.71,-217.68 578.97,-197.1"/>
<polygon fill="black" stroke="black" points="580.49,-193.94 569.91,-193.5 577.9,-200.44 580.49,-193.94"/>
<path fill="none" stroke="black" d="M193.16,-749.61C259.65,-735.51 413,-703 413,-703 413,-703 689,-631 689,-631 689,-631 717,-614 717,-614 717,-614 717,-614 717,-396 717,-396 717,-254 717,-254"/>
</g>
<!-- NASALib/analysis&#45;&gt;NASALib/reals -->
<g id="edge10" class="edge">
<title>NASALib/analysis&#45;&gt;NASALib/reals</title>
<path fill="none" stroke="black" d="M163,-738.7C163,-731.41 163,-722.73 163,-714.54"/>
<polygon fill="black" stroke="black" points="166.5,-714.62 163,-704.62 159.5,-714.62 166.5,-714.62"/>
</g>
<!-- NASALib/analysis&#45;&gt;NASALib/structures -->
<g id="edge11" class="edge">
<title>NASALib/analysis&#45;&gt;NASALib/structures</title>
<path fill="none" stroke="black" d="M717,-180C717,-180 565.49,-141.57 486.98,-121.66"/>
<polygon fill="black" stroke="black" points="487.98,-118.3 477.42,-119.24 486.26,-125.09 487.98,-118.3"/>
<path fill="none" stroke="black" d="M717,-252C717,-252 717,-182 717,-182"/>
</g>
<!-- NASALib/analysis&#45;&gt;lib/finite_sets -->
<g id="edge12" class="edge">
<title>NASALib/analysis&#45;&gt;lib/finite_sets</title>
<path fill="none" stroke="black" d="M766,-684C766,-684 766,-470 766,-470"/>
<path fill="none" stroke="black" d="M193.32,-752.48C315.59,-738.29 766,-686 766,-686"/>
</g>
<!-- NASALib/aviation&#45;&gt;NASALib/analysis -->
<g id="edge13" class="edge">
<title>NASALib/aviation&#45;&gt;NASALib/analysis</title>
<path fill="none" stroke="black" d="M163,-810.7C163,-803.41 163,-794.73 163,-786.54"/>
<polygon fill="black" stroke="black" points="166.5,-786.62 163,-776.62 159.5,-786.62 166.5,-786.62"/>
</g>
<!-- NASALib/aviation&#45;&gt;NASALib/reals -->
<g id="edge14" class="edge">
<title>NASALib/aviation&#45;&gt;NASALib/reals</title>
<path fill="none" stroke="black" d="M77,-756C77,-756 108.15,-730.64 132.96,-710.45"/>
<polygon fill="black" stroke="black" points="135.02,-713.29 140.57,-704.26 130.6,-707.86 135.02,-713.29"/>
</g>
<!-- NASALib/aviation&#45;&gt;NASALib/structures -->
<g id="edge15" class="edge">
<title>NASALib/aviation&#45;&gt;NASALib/structures</title>
<path fill="none" stroke="black" d="M77,-756C77,-756 77,-686 77,-686"/>
<path fill="none" stroke="black" d="M77,-684C77,-684 37,-542 37,-542"/>
<path fill="none" stroke="black" d="M141.74,-810.7C116.27,-789.97 77,-758 77,-758"/>
<path fill="none" stroke="black" d="M37,-540C37,-540 32,-487 32,-487 32,-487 32,-451 32,-451 32,-451 47,-307 47,-307 47,-307 99,-271 99,-271 99,-271 214,-163 214,-163 214,-163 328.7,-136.22 395.03,-120.73"/>
<polygon fill="black" stroke="black" points="395.61,-124.19 404.55,-118.51 394.02,-117.37 395.61,-124.19"/>
</g>
<!-- NASALib/aviation&#45;&gt;NASALib/trig -->
<g id="edge16" class="edge">
<title>NASALib/aviation&#45;&gt;NASALib/trig</title>
<path fill="none" stroke="black" d="M37,-540C37,-540 37,-470 37,-470"/>
</g>
<!-- NASALib/aviation&#45;&gt;NASALib/vectors -->
<g id="edge17" class="edge">
<title>NASALib/aviation&#45;&gt;NASALib/vectors</title>
<path fill="none" stroke="black" d="M77,-684C77,-684 77,-614 77,-614"/>
</g>
<!-- NASALib/aviation&#45;&gt;lib/finite_sets -->
<g id="edge18" class="edge">
<title>NASALib/aviation&#45;&gt;lib/finite_sets</title>
<path fill="none" stroke="black" d="M766,-756C766,-756 766,-686 766,-686"/>
<path fill="none" stroke="black" d="M193.32,-825.26C313.52,-814.41 750,-775 750,-775 750,-775 766,-758 766,-758"/>
</g>
<!-- NASALib/extended_nnreal -->
<g id="node4" class="node">
<title>NASALib/extended_nnreal</title>
<polygon fill="#fcfcd7" stroke="black" points="638,-487 532,-487 532,-451 638,-451 638,-487"/>
<text text-anchor="middle" x="585" y="-465.3" font-family="Times,serif" font-size="14.00">extended_nnreal</text>
</g>
<!-- NASALib/extended_nnreal&#45;&gt;NASALib/analysis -->
<g id="edge19" class="edge">
<title>NASALib/extended_nnreal&#45;&gt;NASALib/analysis</title>
<path fill="none" stroke="black" d="M697,-542C697,-542 682,-631 682,-631 682,-631 408,-684 408,-684"/>
<path fill="none" stroke="black" d="M612.97,-487.48C637.21,-502.63 670.87,-523.67 687.26,-533.91"/>
<polygon fill="black" stroke="black" points="685.38,-536.87 695.72,-539.2 689.09,-530.93 685.38,-536.87"/>
</g>
<!-- NASALib/extended_nnreal&#45;&gt;NASALib/reals -->
<g id="edge20" class="edge">
<title>NASALib/extended_nnreal&#45;&gt;NASALib/reals</title>
<path fill="none" stroke="black" d="M577.87,-487.16C567.11,-513.02 548,-559 548,-559 548,-559 449,-631 449,-631 449,-631 279.82,-662.35 201.7,-676.83"/>
<polygon fill="black" stroke="black" points="201.11,-673.38 191.91,-678.64 202.38,-680.26 201.11,-673.38"/>
</g>
<!-- NASALib/series -->
<g id="node13" class="node">
<title>NASALib/series</title>
<polygon fill="#fcfcd7" stroke="black" points="308,-271 254,-271 254,-235 308,-235 308,-271"/>
<text text-anchor="middle" x="281" y="-249.3" font-family="Times,serif" font-size="14.00">series</text>
</g>
<!-- NASALib/extended_nnreal&#45;&gt;NASALib/series -->
<g id="edge21" class="edge">
<title>NASALib/extended_nnreal&#45;&gt;NASALib/series</title>
<path fill="none" stroke="black" d="M559.79,-450.65C537.33,-435.19 508,-415 508,-415 508,-415 483,-379 483,-379 483,-379 376.11,-312.85 317.84,-276.8"/>
<polygon fill="black" stroke="black" points="319.87,-273.94 309.53,-271.65 316.19,-279.89 319.87,-273.94"/>
</g>
<!-- NASALib/sigma_set -->
<g id="node15" class="node">
<title>NASALib/sigma_set</title>
<polygon fill="#fcfcd7" stroke="black" points="623.5,-415 552.5,-415 552.5,-379 623.5,-379 623.5,-415"/>
<text text-anchor="middle" x="588" y="-393.3" font-family="Times,serif" font-size="14.00">sigma_set</text>
</g>
<!-- NASALib/extended_nnreal&#45;&gt;NASALib/sigma_set -->
<g id="edge22" class="edge">
<title>NASALib/extended_nnreal&#45;&gt;NASALib/sigma_set</title>
<path fill="none" stroke="black" d="M585.74,-450.7C586.05,-443.41 586.43,-434.73 586.78,-426.54"/>
<polygon fill="black" stroke="black" points="590.27,-426.76 587.2,-416.62 583.28,-426.46 590.27,-426.76"/>
</g>
<!-- NASALib/lebesgue -->
<g id="node6" class="node">
<title>NASALib/lebesgue</title>
<polygon fill="#fcfcd7" stroke="black" points="440,-631 376,-631 376,-595 440,-595 440,-631"/>
<text text-anchor="middle" x="408" y="-609.3" font-family="Times,serif" font-size="14.00">lebesgue</text>
</g>
<!-- NASALib/lebesgue&#45;&gt;NASALib/analysis -->
<g id="edge23" class="edge">
<title>NASALib/lebesgue&#45;&gt;NASALib/analysis</title>
<path fill="none" stroke="black" d="M408,-631.3C408,-644.26 408,-661.6 408,-672.79"/>
<polygon fill="black" stroke="black" points="404.5,-672.49 408,-682.49 411.5,-672.49 404.5,-672.49"/>
</g>
<!-- NASALib/lebesgue&#45;&gt;NASALib/extended_nnreal -->
<g id="edge24" class="edge">
<title>NASALib/lebesgue&#45;&gt;NASALib/extended_nnreal</title>
<path fill="none" stroke="black" d="M543,-540C543,-540 556.91,-516.82 568.72,-497.14"/>
<polygon fill="black" stroke="black" points="571.7,-498.98 573.84,-488.6 565.69,-495.38 571.7,-498.98"/>
</g>
<!-- NASALib/measure_integration -->
<g id="node8" class="node">
<title>NASALib/measure_integration</title>
<polygon fill="#fcfcd7" stroke="black" points="524,-559 396,-559 396,-523 524,-523 524,-559"/>
<text text-anchor="middle" x="460" y="-537.3" font-family="Times,serif" font-size="14.00">measure_integration</text>
</g>
<!-- NASALib/lebesgue&#45;&gt;NASALib/measure_integration -->
<g id="edge25" class="edge">
<title>NASALib/lebesgue&#45;&gt;NASALib/measure_integration</title>
<path fill="none" stroke="black" d="M420.85,-594.7C426.77,-586.73 433.93,-577.1 440.49,-568.26"/>
<polygon fill="black" stroke="black" points="443.24,-570.43 446.39,-560.32 437.62,-566.26 443.24,-570.43"/>
</g>
<!-- NASALib/metric_space -->
<g id="node9" class="node">
<title>NASALib/metric_space</title>
<polygon fill="#fcfcd7" stroke="black" points="385.5,-487 296.5,-487 296.5,-451 385.5,-451 385.5,-487"/>
<text text-anchor="middle" x="341" y="-465.3" font-family="Times,serif" font-size="14.00">metric_space</text>
</g>
<!-- NASALib/lebesgue&#45;&gt;NASALib/metric_space -->
<g id="edge26" class="edge">
<title>NASALib/lebesgue&#45;&gt;NASALib/metric_space</title>
<path fill="none" stroke="black" d="M396.21,-594.65C385.71,-579.19 372,-559 372,-559 372,-559 359.85,-524.11 350.76,-498.02"/>
<polygon fill="black" stroke="black" points="354.07,-496.88 347.47,-488.59 347.46,-499.18 354.07,-496.88"/>
</g>
<!-- NASALib/power -->
<g id="node11" class="node">
<title>NASALib/power</title>
<polygon fill="#fcfcd7" stroke="black" points="330,-415 276,-415 276,-379 330,-379 330,-415"/>
<text text-anchor="middle" x="303" y="-393.3" font-family="Times,serif" font-size="14.00">power</text>
</g>
<!-- NASALib/lebesgue&#45;&gt;NASALib/power -->
<g id="edge27" class="edge">
<title>NASALib/lebesgue&#45;&gt;NASALib/power</title>
<path fill="none" stroke="black" d="M390.97,-594.65C375.81,-579.19 356,-559 356,-559 356,-559 288,-487 288,-487 288,-487 288,-451 288,-451 288,-451 291.42,-438.92 294.99,-426.3"/>
<polygon fill="black" stroke="black" points="298.32,-427.39 297.68,-416.81 291.59,-425.48 298.32,-427.39"/>
</g>
<!-- NASALib/sets_aux -->
<g id="node14" class="node">
<title>NASALib/sets_aux</title>
<polygon fill="#fcfcd7" stroke="black" points="543.5,-343 480.5,-343 480.5,-307 543.5,-307 543.5,-343"/>
<text text-anchor="middle" x="512" y="-321.3" font-family="Times,serif" font-size="14.00">sets_aux</text>
</g>
<!-- NASALib/lebesgue&#45;&gt;NASALib/sets_aux -->
<g id="edge29" class="edge">
<title>NASALib/lebesgue&#45;&gt;NASALib/sets_aux</title>
<path fill="none" stroke="black" d="M543,-540C543,-540 523,-487 523,-487 523,-487 513,-398 513,-398"/>
</g>
<!-- NASALib/lebesgue&#45;&gt;NASALib/sigma_set -->
<g id="edge30" class="edge">
<title>NASALib/lebesgue&#45;&gt;NASALib/sigma_set</title>
<path fill="none" stroke="black" d="M440.47,-599.71C481.83,-584.05 548,-559 548,-559 548,-559 647,-487 647,-487 647,-487 647,-451 647,-451 647,-451 631,-436.63 615.66,-422.85"/>
<polygon fill="black" stroke="black" points="618.22,-420.44 608.44,-416.37 613.55,-425.65 618.22,-420.44"/>
</g>
<!-- NASALib/lebesgue&#45;&gt;NASALib/structures -->
<g id="edge31" class="edge">
<title>NASALib/lebesgue&#45;&gt;NASALib/structures</title>
<path fill="none" stroke="black" d="M401.12,-594.65C395,-579.19 387,-559 387,-559 387,-559 387,-523 387,-523 387,-523 433,-470 433,-470"/>
<path fill="none" stroke="black" d="M433,-468C433,-468 400,-415 400,-415 400,-415 400,-379 400,-379 400,-379 441,-326 441,-326"/>
<path fill="none" stroke="black" d="M441,-324C441,-324 441,-196.69 441,-138.46"/>
<polygon fill="black" stroke="black" points="444.5,-138.66 441,-128.66 437.5,-138.66 444.5,-138.66"/>
</g>
<!-- NASALib/topology -->
<g id="node17" class="node">
<title>NASALib/topology</title>
<polygon fill="#fcfcd7" stroke="black" points="473.5,-415 408.5,-415 408.5,-379 473.5,-379 473.5,-415"/>
<text text-anchor="middle" x="441" y="-393.3" font-family="Times,serif" font-size="14.00">topology</text>
</g>
<!-- NASALib/lebesgue&#45;&gt;NASALib/topology -->
<g id="edge32" class="edge">
<title>NASALib/lebesgue&#45;&gt;NASALib/topology</title>
<path fill="none" stroke="black" d="M440.19,-598.35C477.23,-582.65 533,-559 533,-559 533,-559 543,-542 543,-542"/>
<path fill="none" stroke="black" d="M543,-540C543,-540 533,-523 533,-523 533,-523 473,-470 473,-470"/>
</g>
<!-- NASALib/lnexp -->
<g id="node7" class="node">
<title>NASALib/lnexp</title>
<polygon fill="#fcfcd7" stroke="black" points="242,-343 188,-343 188,-307 242,-307 242,-343"/>
<text text-anchor="middle" x="215" y="-321.3" font-family="Times,serif" font-size="14.00">lnexp</text>
</g>
<!-- NASALib/lnexp&#45;&gt;NASALib/analysis -->
<g id="edge33" class="edge">
<title>NASALib/lnexp&#45;&gt;NASALib/analysis</title>
<path fill="none" stroke="black" d="M215.25,-343.3C215.43,-356.26 215.68,-373.6 215.84,-384.79"/>
<polygon fill="black" stroke="black" points="212.34,-384.54 215.98,-394.49 219.34,-384.44 212.34,-384.54"/>
<path fill="none" stroke="black" d="M216,-398C216,-398 117,-684 117,-684"/>
</g>
<!-- NASALib/lnexp&#45;&gt;NASALib/ints -->
<g id="edge34" class="edge">
<title>NASALib/lnexp&#45;&gt;NASALib/ints</title>
<path fill="none" stroke="black" d="M213.72,-306.85C209.92,-256.07 199,-110 199,-110"/>
</g>
<!-- NASALib/lnexp&#45;&gt;NASALib/reals -->
<g id="edge35" class="edge">
<title>NASALib/lnexp&#45;&gt;NASALib/reals</title>
<path fill="none" stroke="black" d="M216,-398C216,-398 202,-631 202,-631 202,-631 187.14,-651.19 175.77,-666.65"/>
</g>
<!-- NASALib/lnexp&#45;&gt;NASALib/series -->
<g id="edge36" class="edge">
<title>NASALib/lnexp&#45;&gt;NASALib/series</title>
<path fill="none" stroke="black" d="M231.31,-306.7C239.07,-298.47 248.49,-288.48 257.03,-279.42"/>
<polygon fill="black" stroke="black" points="259.52,-281.88 263.83,-272.21 254.43,-277.08 259.52,-281.88"/>
</g>
<!-- NASALib/measure_integration&#45;&gt;NASALib/extended_nnreal -->
<g id="edge37" class="edge">
<title>NASALib/measure_integration&#45;&gt;NASALib/extended_nnreal</title>
<path fill="none" stroke="black" d="M491.22,-522.52C507.3,-513.51 527.1,-502.42 544.36,-492.76"/>
<polygon fill="black" stroke="black" points="545.84,-495.94 552.86,-488 542.42,-489.83 545.84,-495.94"/>
</g>
<!-- NASALib/measure_integration&#45;&gt;NASALib/metric_space -->
<g id="edge38" class="edge">
<title>NASALib/measure_integration&#45;&gt;NASALib/metric_space</title>
<path fill="none" stroke="black" d="M430.28,-522.52C415.11,-513.6 396.47,-502.63 380.15,-493.03"/>
<polygon fill="black" stroke="black" points="382.04,-490.08 371.65,-488.03 378.49,-496.11 382.04,-490.08"/>
</g>
<!-- NASALib/measure_integration&#45;&gt;NASALib/orders -->
<g id="edge39" class="edge">
<title>NASALib/measure_integration&#45;&gt;NASALib/orders</title>
<path fill="none" stroke="black" d="M583,-252C583,-252 569.09,-228.82 557.28,-209.14"/>
<polygon fill="black" stroke="black" points="560.31,-207.38 552.16,-200.6 554.3,-210.98 560.31,-207.38"/>
<path fill="none" stroke="black" d="M493,-468C493,-468 553,-343 553,-343 553,-343 583,-254 583,-254"/>
</g>
<!-- NASALib/measure_integration&#45;&gt;NASALib/power -->
<g id="edge40" class="edge">
<title>NASALib/measure_integration&#45;&gt;NASALib/power</title>
<path fill="none" stroke="black" d="M446.4,-522.7C430.12,-501.97 405,-470 405,-470"/>
<path fill="none" stroke="black" d="M405,-468C405,-468 395,-451 395,-451 395,-451 365.57,-434.05 340.01,-419.32"/>
<polygon fill="black" stroke="black" points="341.83,-416.33 331.42,-414.37 338.33,-422.4 341.83,-416.33"/>
</g>
<!-- NASALib/measure_integration&#45;&gt;NASALib/reals -->
<g id="edge41" class="edge">
<title>NASALib/measure_integration&#45;&gt;NASALib/reals</title>
<path fill="none" stroke="black" d="M429.55,-559.35C402.43,-574.81 367,-595 367,-595 367,-595 364.95,-598.49 362.7,-602.31"/>
<polygon fill="black" stroke="black" points="359.82,-600.3 357.77,-610.7 365.85,-603.85 359.82,-600.3"/>
</g>
<!-- NASALib/measure_integration&#45;&gt;NASALib/series -->
<g id="edge42" class="edge">
<title>NASALib/measure_integration&#45;&gt;NASALib/series</title>
<path fill="none" stroke="black" d="M405,-468C405,-468 384,-415 384,-415 384,-415 359,-326 359,-326"/>
</g>
<!-- NASALib/measure_integration&#45;&gt;NASALib/sets_aux -->
<g id="edge43" class="edge">
<title>NASALib/measure_integration&#45;&gt;NASALib/sets_aux</title>
<path fill="none" stroke="black" d="M493,-468C493,-468 513,-398 513,-398"/>
<path fill="none" stroke="black" d="M468.16,-522.7C477.93,-501.97 493,-470 493,-470"/>
<path fill="none" stroke="black" d="M513,-396C513,-396 512.69,-374.08 512.41,-354.77"/>
<polygon fill="black" stroke="black" points="515.91,-354.77 512.27,-344.82 508.91,-354.87 515.91,-354.77"/>
</g>
<!-- NASALib/measure_integration&#45;&gt;NASALib/sigma_set -->
<g id="edge44" class="edge">
<title>NASALib/measure_integration&#45;&gt;NASALib/sigma_set</title>
<path fill="none" stroke="black" d="M493,-468C493,-468 528.02,-442.2 555.53,-421.92"/>
<polygon fill="black" stroke="black" points="557.32,-424.95 563.3,-416.2 553.17,-419.32 557.32,-424.95"/>
</g>
<!-- NASALib/measure_integration&#45;&gt;NASALib/structures -->
<g id="edge45" class="edge">
<title>NASALib/measure_integration&#45;&gt;NASALib/structures</title>
<path fill="none" stroke="black" d="M453.33,-522.7C445.33,-501.97 433,-470 433,-470"/>
</g>
<!-- NASALib/measure_integration&#45;&gt;NASALib/topology -->
<g id="edge46" class="edge">
<title>NASALib/measure_integration&#45;&gt;NASALib/topology</title>
<path fill="none" stroke="black" d="M473,-468C473,-468 462.6,-445.24 453.65,-425.68"/>
<polygon fill="black" stroke="black" points="456.88,-424.32 449.54,-416.68 450.51,-427.23 456.88,-424.32"/>
<path fill="none" stroke="black" d="M463.21,-522.7C467.06,-501.97 473,-470 473,-470"/>
</g>
<!-- NASALib/measure_integration&#45;&gt;lib/finite_sets -->
<g id="edge47" class="edge">
<title>NASALib/measure_integration&#45;&gt;lib/finite_sets</title>
<path fill="none" stroke="black" d="M766,-468C766,-468 766,-398 766,-398"/>
<path fill="none" stroke="black" d="M524.41,-525.96C532.5,-524.2 538,-523 538,-523 538,-523 750,-487 750,-487 750,-487 766,-470 766,-470"/>
</g>
<!-- NASALib/metric_space&#45;&gt;NASALib/analysis -->
<g id="edge48" class="edge">
<title>NASALib/metric_space&#45;&gt;NASALib/analysis</title>
<path fill="none" stroke="black" d="M343.78,-487.23C350.49,-528.76 367,-631 367,-631 367,-631 389.58,-660.19 401.23,-675.25"/>
<polygon fill="black" stroke="black" points="398.19,-677.03 407.07,-682.8 403.72,-672.75 398.19,-677.03"/>
<path fill="none" stroke="black" d="M408,-686C408,-686 258.46,-728.72 193.04,-747.42"/>
</g>
<!-- NASALib/metric_space&#45;&gt;NASALib/power -->
<g id="edge49" class="edge">
<title>NASALib/metric_space&#45;&gt;NASALib/power</title>
<path fill="none" stroke="black" d="M331.61,-450.7C327.42,-442.98 322.39,-433.71 317.72,-425.11"/>
<polygon fill="black" stroke="black" points="320.85,-423.55 313.01,-416.43 314.7,-426.89 320.85,-423.55"/>
</g>
<!-- NASALib/metric_space&#45;&gt;NASALib/series -->
<g id="edge51" class="edge">
<title>NASALib/metric_space&#45;&gt;NASALib/series</title>
<path fill="none" stroke="black" d="M359,-324C359,-324 331.24,-299.09 308.84,-278.98"/>
<polygon fill="black" stroke="black" points="311.19,-276.39 301.41,-272.31 306.51,-281.6 311.19,-276.39"/>
<path fill="none" stroke="black" d="M349,-396C349,-396 359,-326 359,-326"/>
<path fill="none" stroke="black" d="M342.98,-450.7C345.35,-429.97 349,-398 349,-398"/>
</g>
<!-- NASALib/metric_space&#45;&gt;NASALib/sets_aux -->
<g id="edge52" class="edge">
<title>NASALib/metric_space&#45;&gt;NASALib/sets_aux</title>
<path fill="none" stroke="black" d="M349,-396C349,-396 421.39,-364.91 469.68,-344.17"/>
<polygon fill="black" stroke="black" points="470.99,-347.42 478.79,-340.26 468.22,-340.99 470.99,-347.42"/>
</g>
<!-- NASALib/metric_space&#45;&gt;NASALib/topology -->
<g id="edge53" class="edge">
<title>NASALib/metric_space&#45;&gt;NASALib/topology</title>
<path fill="none" stroke="black" d="M365.98,-450.52C378.36,-441.85 393.5,-431.25 406.93,-421.85"/>
<polygon fill="black" stroke="black" points="408.92,-424.73 415.1,-416.13 404.9,-419 408.92,-424.73"/>
</g>
<!-- NASALib/metric_space&#45;&gt;NASALib/vectors -->
<g id="edge54" class="edge">
<title>NASALib/metric_space&#45;&gt;NASALib/vectors</title>
<path fill="none" stroke="black" d="M296.04,-453.5C256.72,-440.81 200.21,-422.58 162.82,-410.52"/>
<polygon fill="black" stroke="black" points="164.38,-407.35 153.79,-407.61 162.23,-414.01 164.38,-407.35"/>
</g>
<!-- NASALib/metric_space&#45;&gt;lib/finite_sets -->
<g id="edge55" class="edge">
<title>NASALib/metric_space&#45;&gt;lib/finite_sets</title>
<path fill="none" stroke="black" d="M766,-396C766,-396 766,-254 766,-254"/>
<path fill="none" stroke="black" d="M385.72,-455.12C393.95,-452.74 400,-451 400,-451 400,-451 766,-398 766,-398"/>
</g>
<!-- NASALib/orders&#45;&gt;NASALib/structures -->
<g id="edge56" class="edge">
<title>NASALib/orders&#45;&gt;NASALib/structures</title>
<path fill="none" stroke="black" d="M516.02,-162.52C503.64,-153.85 488.5,-143.25 475.07,-133.85"/>
<polygon fill="black" stroke="black" points="477.1,-131 466.9,-128.13 473.08,-136.73 477.1,-131"/>
</g>
<!-- NASALib/orders&#45;&gt;lib/finite_sets -->
<g id="edge57" class="edge">
<title>NASALib/orders&#45;&gt;lib/finite_sets</title>
<path fill="none" stroke="black" d="M568.14,-171.56C627.98,-152.94 766,-110 766,-110"/>
<path fill="none" stroke="black" d="M766,-108C766,-108 776.84,-83.26 785.91,-62.59"/>
<polygon fill="black" stroke="black" points="789,-64.25 789.81,-53.69 782.59,-61.44 789,-64.25"/>
</g>
<!-- NASALib/power&#45;&gt;NASALib/analysis -->
<g id="edge58" class="edge">
<title>NASALib/power&#45;&gt;NASALib/analysis</title>
<path fill="none" stroke="black" d="M286.3,-415.35C271.43,-430.81 252,-451 252,-451 252,-451 162,-631 162,-631 162,-631 127,-667 127,-667 127,-667 124.95,-670.49 122.7,-674.31"/>
<polygon fill="black" stroke="black" points="119.82,-672.3 117.77,-682.7 125.85,-675.85 119.82,-672.3"/>
</g>
<!-- NASALib/power&#45;&gt;NASALib/lnexp -->
<g id="edge59" class="edge">
<title>NASALib/power&#45;&gt;NASALib/lnexp</title>
<path fill="none" stroke="black" d="M281.25,-378.7C270.56,-370.2 257.51,-359.81 245.82,-350.51"/>
<polygon fill="black" stroke="black" points="248,-347.78 237.99,-344.29 243.64,-353.25 248,-347.78"/>
</g>
<!-- NASALib/power&#45;&gt;NASALib/reals -->
<g id="edge60" class="edge">
<title>NASALib/power&#45;&gt;NASALib/reals</title>
<path fill="none" stroke="black" d="M291.63,-415.3C282.69,-428.91 270.57,-447.35 263.29,-458.42"/>
<polygon fill="black" stroke="black" points="260.4,-456.46 257.83,-466.74 266.25,-460.3 260.4,-456.46"/>
</g>
<!-- NASALib/reals&#45;&gt;NASALib/ints -->
<g id="edge61" class="edge">
<title>NASALib/reals&#45;&gt;NASALib/ints</title>
<path fill="none" stroke="black" d="M161.36,-666.65C159.9,-651.19 158,-631 158,-631 158,-631 158,-595 158,-595 158,-595 161,-415 161,-415 161,-415 161,-379 161,-379 161,-379 94,-254 94,-254"/>
</g>
<!-- NASALib/reals&#45;&gt;NASALib/lebesgue -->
<g id="edge62" class="edge">
<title>NASALib/reals&#45;&gt;NASALib/lebesgue</title>
<path fill="none" stroke="black" d="M201.16,-673.84C258.95,-658.45 362,-631 362,-631 362,-631 363.14,-630.58 365.05,-629.87"/>
<polygon fill="black" stroke="black" points="200.48,-670.4 191.72,-676.35 202.28,-677.16 200.48,-670.4"/>
<polygon fill="black" stroke="black" points="365.97,-633.27 374.13,-626.52 363.54,-626.7 365.97,-633.27"/>
</g>
<!-- NASALib/reals&#45;&gt;NASALib/metric_space -->
<g id="edge63" class="edge">
<title>NASALib/reals&#45;&gt;NASALib/metric_space</title>
<path fill="none" stroke="black" d="M200.33,-664.02C228.38,-649 262,-631 262,-631 262,-631 312,-523 312,-523 312,-523 319.01,-510.18 326.14,-497.15"/>
<polygon fill="black" stroke="black" points="198.81,-660.86 191.65,-668.66 202.12,-667.03 198.81,-660.86"/>
<polygon fill="black" stroke="black" points="329.05,-499.13 330.78,-488.68 322.91,-495.77 329.05,-499.13"/>
</g>
<!-- NASALib/reals&#45;&gt;NASALib/sets_aux -->
<g id="edge64" class="edge">
<title>NASALib/reals&#45;&gt;NASALib/sets_aux</title>
<path fill="none" stroke="black" d="M190.4,-679.39C267.04,-666.49 478,-631 478,-631 478,-631 647,-487 647,-487 647,-487 647,-451 647,-451 647,-451 544,-415 544,-415 544,-415 513,-398 513,-398"/>
</g>
<!-- NASALib/reals&#45;&gt;NASALib/structures -->
<g id="edge65" class="edge">
<title>NASALib/reals&#45;&gt;NASALib/structures</title>
<path fill="none" stroke="black" d="M178.06,-666.65C191.48,-651.19 209,-631 209,-631 209,-631 237,-542 237,-542 237,-542 237,-542 237,-468 237,-468 251,-343 251,-343 251,-343 251,-307 251,-307 251,-307 219,-182 219,-182"/>
</g>
<!-- NASALib/series&#45;&gt;NASALib/analysis -->
<g id="edge66" class="edge">
<title>NASALib/series&#45;&gt;NASALib/analysis</title>
<path fill="none" stroke="black" d="M253.67,-268.2C223.45,-283.9 179,-307 179,-307 179,-307 176,-415 176,-415 176,-415 147,-631 147,-631 147,-631 131.16,-658.98 122.5,-674.28"/>
<polygon fill="black" stroke="black" points="119.63,-672.26 117.75,-682.68 125.72,-675.7 119.63,-672.26"/>
</g>
<!-- NASALib/series&#45;&gt;NASALib/ints -->
<g id="edge67" class="edge">
<title>NASALib/series&#45;&gt;NASALib/ints</title>
<path fill="none" stroke="black" d="M270.95,-234.59C249.05,-196.67 199,-110 199,-110"/>
</g>
<!-- NASALib/series&#45;&gt;NASALib/orders -->
<g id="edge68" class="edge">
<title>NASALib/series&#45;&gt;NASALib/orders</title>
<path fill="none" stroke="black" d="M308.29,-245.39C367,-231.19 500,-199 500,-199 500,-199 501.37,-198.43 503.62,-197.5"/>
<polygon fill="black" stroke="black" points="504.59,-200.89 512.48,-193.82 501.9,-194.42 504.59,-200.89"/>
</g>
<!-- NASALib/series&#45;&gt;NASALib/reals -->
<g id="edge69" class="edge">
<title>NASALib/series&#45;&gt;NASALib/reals</title>
<path fill="none" stroke="black" d="M257,-470C257,-470 242,-631 242,-631 242,-631 211.91,-651.19 188.87,-666.65"/>
<path fill="none" stroke="black" d="M279.08,-271.15C274.34,-313.4 262.2,-421.62 258.26,-456.78"/>
<polygon fill="black" stroke="black" points="254.81,-456.17 257.17,-466.5 261.76,-456.95 254.81,-456.17"/>
</g>
<!-- NASALib/sets_aux&#45;&gt;NASALib/ints -->
<g id="edge70" class="edge">
<title>NASALib/sets_aux&#45;&gt;NASALib/ints</title>
<path fill="none" stroke="black" d="M495,-180C495,-180 485,-91 485,-91 485,-91 473.07,-75.81 461.63,-61.25"/>
<polygon fill="black" stroke="black" points="464.55,-59.3 455.62,-53.6 459.04,-63.63 464.55,-59.3"/>
</g>
<!-- NASALib/sets_aux&#45;&gt;NASALib/orders -->
<g id="edge71" class="edge">
<title>NASALib/sets_aux&#45;&gt;NASALib/orders</title>
<path fill="none" stroke="black" d="M495,-252C495,-252 510.37,-228.61 523.35,-208.87"/>
<polygon fill="black" stroke="black" points="526.23,-210.85 528.8,-200.57 520.38,-207 526.23,-210.85"/>
</g>
<!-- NASALib/sets_aux&#45;&gt;NASALib/structures -->
<g id="edge72" class="edge">
<title>NASALib/sets_aux&#45;&gt;NASALib/structures</title>
<path fill="none" stroke="black" d="M495,-180C495,-180 476.62,-156.18 461.31,-136.33"/>
<polygon fill="black" stroke="black" points="464.15,-134.28 455.27,-128.5 458.61,-138.56 464.15,-134.28"/>
<path fill="none" stroke="black" d="M495,-252C495,-252 495,-182 495,-182"/>
<path fill="none" stroke="black" d="M507.8,-306.7C502.76,-285.97 495,-254 495,-254"/>
</g>
<!-- NASALib/sets_aux&#45;&gt;lib/finite_sets -->
<g id="edge73" class="edge">
<title>NASALib/sets_aux&#45;&gt;lib/finite_sets</title>
<path fill="none" stroke="black" d="M543.91,-315.21C612.13,-296.4 766,-254 766,-254"/>
<path fill="none" stroke="black" d="M766,-252C766,-252 766,-110 766,-110"/>
</g>
<!-- NASALib/sigma_set&#45;&gt;NASALib/analysis -->
<g id="edge74" class="edge">
<title>NASALib/sigma_set&#45;&gt;NASALib/analysis</title>
<path fill="none" stroke="black" d="M697,-470C697,-470 697,-540 697,-540"/>
</g>
<!-- NASALib/sigma_set&#45;&gt;NASALib/orders -->
<g id="edge75" class="edge">
<title>NASALib/sigma_set&#45;&gt;NASALib/orders</title>
<path fill="none" stroke="black" d="M583,-324C583,-324 583,-254 583,-254"/>
</g>
<!-- NASALib/sigma_set&#45;&gt;NASALib/reals -->
<g id="edge76" class="edge">
<title>NASALib/sigma_set&#45;&gt;NASALib/reals</title>
<path fill="none" stroke="black" d="M697,-470C697,-470 642,-631 642,-631 642,-631 292.25,-669.7 190.47,-680.96"/>
<path fill="none" stroke="black" d="M615.22,-415.48C638.81,-430.63 671.57,-451.67 687.52,-461.91"/>
<polygon fill="black" stroke="black" points="685.42,-464.72 695.73,-467.18 689.2,-458.83 685.42,-464.72"/>
</g>
<!-- NASALib/sigma_set&#45;&gt;NASALib/series -->
<g id="edge77" class="edge">
<title>NASALib/sigma_set&#45;&gt;NASALib/series</title>
<path fill="none" stroke="black" d="M586.76,-378.7C585.28,-357.97 583,-326 583,-326"/>
<path fill="none" stroke="black" d="M583,-324C583,-324 553,-307 553,-307 553,-307 394.69,-276.15 319.62,-261.53"/>
<polygon fill="black" stroke="black" points="320.3,-258.09 309.81,-259.61 318.96,-264.96 320.3,-258.09"/>
</g>
<!-- NASALib/sigma_set&#45;&gt;NASALib/sets_aux -->
<g id="edge78" class="edge">
<title>NASALib/sigma_set&#45;&gt;NASALib/sets_aux</title>
<path fill="none" stroke="black" d="M569.21,-378.7C560.17,-370.37 549.16,-360.22 539.22,-351.07"/>
<polygon fill="black" stroke="black" points="541.67,-348.57 531.95,-344.37 536.93,-353.72 541.67,-348.57"/>
</g>
<!-- NASALib/structures&#45;&gt;NASALib/ints -->
<g id="edge79" class="edge">
<title>NASALib/structures&#45;&gt;NASALib/ints</title>
<path fill="none" stroke="black" d="M441,-90.7C441,-82.67 441,-72.9 441,-63.8"/>
<polygon fill="black" stroke="black" points="444.5,-63.94 441,-53.94 437.5,-63.94 444.5,-63.94"/>
</g>
<!-- NASALib/structures&#45;&gt;lib/finite_sets -->
<g id="edge80" class="edge">
<title>NASALib/structures&#45;&gt;lib/finite_sets</title>
<path fill="none" stroke="black" d="M475.85,-105.18C556.66,-98.64 750,-83 750,-83 750,-83 761.17,-71.83 772.73,-60.27"/>
<polygon fill="black" stroke="black" points="775,-62.95 779.6,-53.4 770.05,-58 775,-62.95"/>
</g>
<!-- NASALib/topology&#45;&gt;NASALib/reals -->
<g id="edge81" class="edge">
<title>NASALib/topology&#45;&gt;NASALib/reals</title>
<path fill="none" stroke="black" d="M440.42,-415.16C439.55,-441.02 438,-487 438,-487 438,-487 387,-523 387,-523 387,-523 368.51,-577.87 360.56,-601.44"/>
<polygon fill="black" stroke="black" points="357.36,-599.97 357.48,-610.57 363.99,-602.21 357.36,-599.97"/>
<path fill="none" stroke="black" d="M357,-614C357,-614 243.86,-654.82 190.38,-674.12"/>
</g>
<!-- NASALib/topology&#45;&gt;NASALib/sets_aux -->
<g id="edge82" class="edge">
<title>NASALib/topology&#45;&gt;NASALib/sets_aux</title>
<path fill="none" stroke="black" d="M458.55,-378.7C466.98,-370.39 477.23,-360.28 486.5,-351.14"/>
<polygon fill="black" stroke="black" points="488.91,-353.68 493.57,-344.17 484,-348.7 488.91,-353.68"/>
</g>
<!-- NASALib/topology&#45;&gt;NASALib/structures -->
<g id="edge83" class="edge">
<title>NASALib/topology&#45;&gt;NASALib/structures</title>
<path fill="none" stroke="black" d="M441,-378.7C441,-357.97 441,-326 441,-326"/>
</g>
<!-- NASALib/trig&#45;&gt;NASALib/analysis -->
<g id="edge84" class="edge">
<title>NASALib/trig&#45;&gt;NASALib/analysis</title>
<path fill="none" stroke="black" d="M83.77,-343.16C84.93,-369.02 87,-415 87,-415 87,-415 94.28,-558.51 96.42,-600.56"/>
<polygon fill="black" stroke="black" points="92.92,-600.68 96.92,-610.49 99.91,-600.32 92.92,-600.68"/>
<path fill="none" stroke="black" d="M117,-686C117,-686 127,-703 127,-703 127,-703 140.71,-723.19 151.21,-738.65"/>
<path fill="none" stroke="black" d="M97,-614C97,-614 117,-684 117,-684"/>
</g>
<!-- NASALib/trig&#45;&gt;NASALib/ints -->
<g id="edge85" class="edge">
<title>NASALib/trig&#45;&gt;NASALib/ints</title>
<path fill="none" stroke="black" d="M85.72,-306.7C88.98,-285.97 94,-254 94,-254"/>
</g>
<!-- NASALib/trig&#45;&gt;NASALib/reals -->
<g id="edge86" class="edge">
<title>NASALib/trig&#45;&gt;NASALib/reals</title>
<path fill="none" stroke="black" d="M97,-614C97,-614 127.14,-645.97 146.69,-666.7"/>
</g>
<!-- NASALib/trig&#45;&gt;NASALib/series -->
<g id="edge87" class="edge">
<title>NASALib/trig&#45;&gt;NASALib/series</title>
<path fill="none" stroke="black" d="M110.12,-314.41C144.51,-302.26 204.01,-281.22 242.94,-267.46"/>
<polygon fill="black" stroke="black" points="243.89,-270.83 252.15,-264.2 241.55,-264.23 243.89,-270.83"/>
</g>
<!-- NASALib/vectors&#45;&gt;NASALib/reals -->
<g id="edge88" class="edge">
<title>NASALib/vectors&#45;&gt;NASALib/reals</title>
<path fill="none" stroke="black" d="M127.37,-415.48C136.67,-463.7 162,-595 162,-595 162,-595 162.39,-629.58 162.68,-655.63"/>
<polygon fill="black" stroke="black" points="159.18,-655.37 162.79,-665.33 166.18,-655.29 159.18,-655.37"/>
</g>
<!-- NASALib/vectors&#45;&gt;NASALib/structures -->
<g id="edge89" class="edge">
<title>NASALib/vectors&#45;&gt;NASALib/structures</title>
<path fill="none" stroke="black" d="M131.61,-378.85C154.16,-328.07 219,-182 219,-182"/>
<path fill="none" stroke="black" d="M219,-180C219,-180 330.59,-144.81 395.54,-124.33"/>
<polygon fill="black" stroke="black" points="396.38,-127.74 404.87,-121.39 394.28,-121.06 396.38,-127.74"/>
</g>
<!-- NASALib/vectors&#45;&gt;NASALib/trig -->
<g id="edge90" class="edge">
<title>NASALib/vectors&#45;&gt;NASALib/trig</title>
<path fill="none" stroke="black" d="M113.87,-378.7C109.3,-370.9 103.8,-361.51 98.71,-352.83"/>
<polygon fill="black" stroke="black" points="101.86,-351.27 93.78,-344.41 95.82,-354.81 101.86,-351.27"/>
</g>
</g>
</svg>
