<?xml version="1.0" encoding="UTF-8" standalone="no"?>
<!DOCTYPE svg PUBLIC "-//W3C//DTD SVG 1.1//EN"
 "http://www.w3.org/Graphics/SVG/1.1/DTD/svg11.dtd">
<!-- Generated by graphviz version 8.0.4 (20230421.1958)
 -->
<!-- Title: float&#45;axm_bnd Pages: 1 -->
<svg width="358pt" height="774pt"
 viewBox="0.00 0.00 358.00 773.50" xmlns="http://www.w3.org/2000/svg" xmlns:xlink="http://www.w3.org/1999/xlink">
<g id="graph0" class="graph" transform="scale(1 1) rotate(0) translate(4 769.5)">
<title>float&#45;axm_bnd</title>
<polygon fill="white" stroke="none" points="-4,4 -4,-769.5 354,-769.5 354,4 -4,4"/>
<g id="clust1" class="cluster">
<title>cluster_NASALib</title>
<polygon fill="none" stroke="black" points="20,-92.5 20,-601 292,-601 292,-92.5 20,-92.5"/>
<text text-anchor="middle" x="156" y="-583.7" font-family="Times,serif" font-size="14.00">NASALib</text>
</g>
<g id="clust2" class="cluster">
<title>cluster_PVS Prelude</title>
<polygon fill="none" stroke="black" points="58,-8 58,-84.5 146,-84.5 146,-8 58,-8"/>
<text text-anchor="middle" x="102" y="-67.2" font-family="Times,serif" font-size="14.00">PVS Prelude</text>
</g>
<g id="clust3" class="cluster">
<title>cluster_float</title>
<polygon fill="none" stroke="black" points="227,-609 227,-757.5 311,-757.5 311,-609 227,-609"/>
<text text-anchor="middle" x="269" y="-740.2" font-family="Times,serif" font-size="14.00">float</text>
</g>
<!-- NASALib/analysis -->
<g id="node1" class="node">
<title>NASALib/analysis</title>
<polygon fill="#fcfcd7" stroke="black" points="107.75,-352.5 48.25,-352.5 48.25,-316.5 107.75,-316.5 107.75,-352.5"/>
<text text-anchor="middle" x="78" y="-329.45" font-family="Times,serif" font-size="14.00">analysis</text>
</g>
<!-- NASALib/ints -->
<g id="node3" class="node">
<title>NASALib/ints</title>
<polygon fill="#fcfcd7" stroke="black" points="129,-136.5 75,-136.5 75,-100.5 129,-100.5 129,-136.5"/>
<text text-anchor="middle" x="102" y="-113.45" font-family="Times,serif" font-size="14.00">ints</text>
</g>
<!-- NASALib/analysis&#45;&gt;NASALib/ints -->
<g id="edge1" class="edge">
<title>NASALib/analysis&#45;&gt;NASALib/ints</title>
<path fill="none" stroke="black" d="M49,-261.5C49,-261.5 49,-191.5 49,-191.5"/>
<path fill="none" stroke="black" d="M70.83,-316.2C62.24,-295.47 49,-263.5 49,-263.5"/>
</g>
<!-- NASALib/orders -->
<g id="node5" class="node">
<title>NASALib/orders</title>
<polygon fill="#fcfcd7" stroke="black" points="124,-280.5 70,-280.5 70,-244.5 124,-244.5 124,-280.5"/>
<text text-anchor="middle" x="97" y="-257.45" font-family="Times,serif" font-size="14.00">orders</text>
</g>
<!-- NASALib/analysis&#45;&gt;NASALib/orders -->
<g id="edge2" class="edge">
<title>NASALib/analysis&#45;&gt;NASALib/orders</title>
<path fill="none" stroke="black" d="M82.7,-316.2C84.74,-308.65 87.2,-299.62 89.49,-291.18"/>
<polygon fill="black" stroke="black" points="93.12,-292.17 92.36,-281.6 86.36,-290.34 93.12,-292.17"/>
</g>
<!-- NASALib/reals -->
<g id="node7" class="node">
<title>NASALib/reals</title>
<polygon fill="#fcfcd7" stroke="black" points="196,-280.5 142,-280.5 142,-244.5 196,-244.5 196,-280.5"/>
<text text-anchor="middle" x="169" y="-257.45" font-family="Times,serif" font-size="14.00">reals</text>
</g>
<!-- NASALib/analysis&#45;&gt;NASALib/reals -->
<g id="edge3" class="edge">
<title>NASALib/analysis&#45;&gt;NASALib/reals</title>
<path fill="none" stroke="black" d="M100.49,-316.2C111.76,-307.53 125.58,-296.9 137.85,-287.46"/>
<polygon fill="black" stroke="black" points="139.66,-289.72 145.45,-280.85 135.39,-284.17 139.66,-289.72"/>
</g>
<!-- NASALib/structures -->
<g id="node9" class="node">
<title>NASALib/structures</title>
<polygon fill="#fcfcd7" stroke="black" points="136.25,-208.5 67.75,-208.5 67.75,-172.5 136.25,-172.5 136.25,-208.5"/>
<text text-anchor="middle" x="102" y="-185.45" font-family="Times,serif" font-size="14.00">structures</text>
</g>
<!-- NASALib/analysis&#45;&gt;NASALib/structures -->
<g id="edge4" class="edge">
<title>NASALib/analysis&#45;&gt;NASALib/structures</title>
<path fill="none" stroke="black" d="M49,-261.5C49,-261.5 61,-244.5 61,-244.5 61,-244.5 71.51,-230.91 81.89,-217.5"/>
<polygon fill="black" stroke="black" points="85.22,-219.91 88.58,-209.85 79.69,-215.62 85.22,-219.91"/>
</g>
<!-- lib/finite_sets -->
<g id="node13" class="node">
<title>lib/finite_sets</title>
<polygon fill="#fcfcd7" stroke="black" points="137.75,-52 66.25,-52 66.25,-16 137.75,-16 137.75,-52"/>
<text text-anchor="middle" x="102" y="-28.95" font-family="Times,serif" font-size="14.00">finite_sets</text>
</g>
<!-- NASALib/analysis&#45;&gt;lib/finite_sets -->
<g id="edge5" class="edge">
<title>NASALib/analysis&#45;&gt;lib/finite_sets</title>
<path fill="none" stroke="black" d="M0,-117.5C0,-117.5 41.77,-83.71 71.85,-59.38"/>
<polygon fill="black" stroke="black" points="73.79,-61.51 79.37,-52.5 69.39,-56.06 73.79,-61.51"/>
<path fill="none" stroke="black" d="M0,-261.5C0,-261.5 0,-119.5 0,-119.5"/>
<path fill="none" stroke="black" d="M58.72,-316.2C35.62,-295.47 0,-263.5 0,-263.5"/>
</g>
<!-- NASALib/fault_tolerance -->
<g id="node2" class="node">
<title>NASALib/fault_tolerance</title>
<polygon fill="#fcfcd7" stroke="black" points="263.5,-352.5 166.5,-352.5 166.5,-316.5 263.5,-316.5 263.5,-352.5"/>
<text text-anchor="middle" x="215" y="-329.45" font-family="Times,serif" font-size="14.00">fault_tolerance</text>
</g>
<!-- NASALib/fault_tolerance&#45;&gt;NASALib/reals -->
<g id="edge6" class="edge">
<title>NASALib/fault_tolerance&#45;&gt;NASALib/reals</title>
<path fill="none" stroke="black" d="M203.63,-316.2C198.39,-308.23 192.07,-298.6 186.26,-289.76"/>
<polygon fill="black" stroke="black" points="188.66,-288.04 180.24,-281.6 182.81,-291.88 188.66,-288.04"/>
</g>
<!-- NASALib/fault_tolerance&#45;&gt;NASALib/structures -->
<g id="edge7" class="edge">
<title>NASALib/fault_tolerance&#45;&gt;NASALib/structures</title>
<path fill="none" stroke="black" d="M213.07,-316.34C210.17,-290.48 205,-244.5 205,-244.5 205,-244.5 173.6,-228.35 145.48,-213.87"/>
<polygon fill="black" stroke="black" points="147.22,-210.32 136.73,-208.85 144.02,-216.54 147.22,-210.32"/>
</g>
<!-- NASALib/fault_tolerance&#45;&gt;lib/finite_sets -->
<g id="edge8" class="edge">
<title>NASALib/fault_tolerance&#45;&gt;lib/finite_sets</title>
<path fill="none" stroke="black" d="M166.21,-317.62C102.78,-296.96 0,-263.5 0,-263.5"/>
</g>
<!-- NASALib/ints&#45;&gt;lib/finite_sets -->
<g id="edge9" class="edge">
<title>NASALib/ints&#45;&gt;lib/finite_sets</title>
<path fill="none" stroke="black" d="M102,-100C102,-89.39 102,-75.6 102,-63.46"/>
<polygon fill="black" stroke="black" points="105.5,-63.47 102,-53.47 98.5,-63.47 105.5,-63.47"/>
</g>
<!-- NASALib/lnexp -->
<g id="node4" class="node">
<title>NASALib/lnexp</title>
<polygon fill="#fcfcd7" stroke="black" points="174,-496.5 120,-496.5 120,-460.5 174,-460.5 174,-496.5"/>
<text text-anchor="middle" x="147" y="-473.45" font-family="Times,serif" font-size="14.00">lnexp</text>
</g>
<!-- NASALib/lnexp&#45;&gt;NASALib/analysis -->
<g id="edge10" class="edge">
<title>NASALib/lnexp&#45;&gt;NASALib/analysis</title>
<path fill="none" stroke="black" d="M135.21,-460.15C124.71,-444.69 111,-424.5 111,-424.5 111,-424.5 97.83,-388.98 88.13,-362.82"/>
<polygon fill="black" stroke="black" points="91.12,-361.82 84.36,-353.66 84.56,-364.25 91.12,-361.82"/>
</g>
<!-- NASALib/lnexp&#45;&gt;NASALib/ints -->
<g id="edge11" class="edge">
<title>NASALib/lnexp&#45;&gt;NASALib/ints</title>
<path fill="none" stroke="black" d="M164.52,-460.12C199.14,-425.77 273,-352.5 273,-352.5 273,-352.5 283,-335.5 283,-335.5"/>
</g>
<!-- NASALib/lnexp&#45;&gt;NASALib/reals -->
<g id="edge12" class="edge">
<title>NASALib/lnexp&#45;&gt;NASALib/reals</title>
<path fill="none" stroke="black" d="M193,-405.5C193,-405.5 183,-388.5 183,-388.5 183,-388.5 158,-352.5 158,-352.5 158,-352.5 147,-335.5 147,-335.5"/>
<path fill="none" stroke="black" d="M158.79,-460.15C169.29,-444.69 183,-424.5 183,-424.5 183,-424.5 193,-407.5 193,-407.5"/>
</g>
<!-- NASALib/series -->
<g id="node8" class="node">
<title>NASALib/series</title>
<polygon fill="#fcfcd7" stroke="black" points="174,-424.5 120,-424.5 120,-388.5 174,-388.5 174,-424.5"/>
<text text-anchor="middle" x="147" y="-401.45" font-family="Times,serif" font-size="14.00">series</text>
</g>
<!-- NASALib/lnexp&#45;&gt;NASALib/series -->
<g id="edge13" class="edge">
<title>NASALib/lnexp&#45;&gt;NASALib/series</title>
<path fill="none" stroke="black" d="M147,-460.2C147,-452.74 147,-443.82 147,-435.47"/>
<polygon fill="black" stroke="black" points="150.5,-435.6 147,-425.6 143.5,-435.6 150.5,-435.6"/>
</g>
<!-- NASALib/orders&#45;&gt;NASALib/structures -->
<g id="edge14" class="edge">
<title>NASALib/orders&#45;&gt;NASALib/structures</title>
<path fill="none" stroke="black" d="M98.24,-244.2C98.77,-236.74 99.41,-227.82 100,-219.47"/>
<polygon fill="black" stroke="black" points="103.56,-219.83 100.78,-209.6 96.57,-219.33 103.56,-219.83"/>
</g>
<!-- NASALib/orders&#45;&gt;lib/finite_sets -->
<g id="edge15" class="edge">
<title>NASALib/orders&#45;&gt;lib/finite_sets</title>
<path fill="none" stroke="black" d="M124.29,-248.62C129.31,-246.24 133,-244.5 133,-244.5 133,-244.5 288,-208.5 288,-208.5 288,-208.5 288,-172.5 288,-172.5 288,-172.5 187.56,-98.25 134.3,-58.88"/>
<polygon fill="black" stroke="black" points="136.68,-55.54 126.56,-52.41 132.52,-61.17 136.68,-55.54"/>
</g>
<!-- NASALib/power -->
<g id="node6" class="node">
<title>NASALib/power</title>
<polygon fill="#fcfcd7" stroke="black" points="174,-568.5 120,-568.5 120,-532.5 174,-532.5 174,-568.5"/>
<text text-anchor="middle" x="147" y="-545.45" font-family="Times,serif" font-size="14.00">power</text>
</g>
<!-- NASALib/power&#45;&gt;NASALib/analysis -->
<g id="edge16" class="edge">
<title>NASALib/power&#45;&gt;NASALib/analysis</title>
<path fill="none" stroke="black" d="M119.75,-536.13C87.75,-520.43 39,-496.5 39,-496.5 39,-496.5 39,-460.5 39,-460.5 39,-460.5 57.94,-399.8 69.42,-363"/>
<polygon fill="black" stroke="black" points="72.94,-364.47 72.58,-353.88 66.26,-362.38 72.94,-364.47"/>
</g>
<!-- NASALib/power&#45;&gt;NASALib/lnexp -->
<g id="edge17" class="edge">
<title>NASALib/power&#45;&gt;NASALib/lnexp</title>
<path fill="none" stroke="black" d="M147,-532.2C147,-524.74 147,-515.82 147,-507.47"/>
<polygon fill="black" stroke="black" points="150.5,-507.6 147,-497.6 143.5,-507.6 150.5,-507.6"/>
</g>
<!-- NASALib/power&#45;&gt;NASALib/reals -->
<g id="edge18" class="edge">
<title>NASALib/power&#45;&gt;NASALib/reals</title>
<path fill="none" stroke="black" d="M158.79,-532.15C169.29,-516.69 183,-496.5 183,-496.5 183,-496.5 193,-407.5 193,-407.5"/>
</g>
<!-- NASALib/reals&#45;&gt;NASALib/ints -->
<g id="edge19" class="edge">
<title>NASALib/reals&#45;&gt;NASALib/ints</title>
<path fill="none" stroke="black" d="M283,-189.5C283,-189.5 192.58,-154.53 139.56,-134.03"/>
<polygon fill="black" stroke="black" points="141.08,-130.47 130.49,-130.13 138.55,-137 141.08,-130.47"/>
<path fill="none" stroke="black" d="M196.31,-244.73C230.03,-224.02 283,-191.5 283,-191.5"/>
</g>
<!-- NASALib/reals&#45;&gt;NASALib/structures -->
<g id="edge20" class="edge">
<title>NASALib/reals&#45;&gt;NASALib/structures</title>
<path fill="none" stroke="black" d="M152.44,-244.2C144.41,-235.8 134.61,-225.57 125.8,-216.36"/>
<polygon fill="black" stroke="black" points="128.81,-214.41 119.37,-209.6 123.76,-219.25 128.81,-214.41"/>
</g>
<!-- NASALib/series&#45;&gt;NASALib/analysis -->
<g id="edge21" class="edge">
<title>NASALib/series&#45;&gt;NASALib/analysis</title>
<path fill="none" stroke="black" d="M129.94,-388.2C121.67,-379.8 111.58,-369.57 102.51,-360.36"/>
<polygon fill="black" stroke="black" points="105.37,-358.27 95.86,-353.6 100.39,-363.18 105.37,-358.27"/>
</g>
<!-- NASALib/series&#45;&gt;NASALib/ints -->
<g id="edge22" class="edge">
<title>NASALib/series&#45;&gt;NASALib/ints</title>
<path fill="none" stroke="black" d="M283,-333.5C283,-333.5 283,-191.5 283,-191.5"/>
<path fill="none" stroke="black" d="M174.34,-394C211.4,-378.41 273,-352.5 273,-352.5 273,-352.5 283,-335.5 283,-335.5"/>
</g>
<!-- NASALib/series&#45;&gt;NASALib/orders -->
<g id="edge23" class="edge">
<title>NASALib/series&#45;&gt;NASALib/orders</title>
<path fill="none" stroke="black" d="M141.22,-388.34C132.5,-362.48 117,-316.5 117,-316.5 117,-316.5 112.26,-303.93 107.39,-291.03"/>
<polygon fill="black" stroke="black" points="110.35,-289.97 103.55,-281.85 103.8,-292.45 110.35,-289.97"/>
</g>
<!-- NASALib/series&#45;&gt;NASALib/reals -->
<g id="edge24" class="edge">
<title>NASALib/series&#45;&gt;NASALib/reals</title>
<path fill="none" stroke="black" d="M147,-388.2C147,-367.47 147,-335.5 147,-335.5"/>
</g>
<!-- NASALib/structures&#45;&gt;NASALib/ints -->
<g id="edge25" class="edge">
<title>NASALib/structures&#45;&gt;NASALib/ints</title>
<path fill="none" stroke="black" d="M102,-172.2C102,-164.74 102,-155.82 102,-147.47"/>
<polygon fill="black" stroke="black" points="105.5,-147.6 102,-137.6 98.5,-147.6 105.5,-147.6"/>
</g>
<!-- NASALib/structures&#45;&gt;lib/finite_sets -->
<g id="edge26" class="edge">
<title>NASALib/structures&#45;&gt;lib/finite_sets</title>
<path fill="none" stroke="black" d="M76.52,-172.02C46.31,-151.28 0,-119.5 0,-119.5"/>
</g>
<!-- NASALib/trig -->
<g id="node10" class="node">
<title>NASALib/trig</title>
<polygon fill="#fcfcd7" stroke="black" points="102,-496.5 48,-496.5 48,-460.5 102,-460.5 102,-496.5"/>
<text text-anchor="middle" x="75" y="-473.45" font-family="Times,serif" font-size="14.00">trig</text>
</g>
<!-- NASALib/trig&#45;&gt;NASALib/analysis -->
<g id="edge27" class="edge">
<title>NASALib/trig&#45;&gt;NASALib/analysis</title>
<path fill="none" stroke="black" d="M76.48,-460.2C78.26,-439.47 81,-407.5 81,-407.5"/>
<path fill="none" stroke="black" d="M81,-405.5C81,-405.5 80.04,-383.16 79.21,-363.72"/>
<polygon fill="black" stroke="black" points="82.67,-363.64 78.74,-353.8 75.67,-363.94 82.67,-363.64"/>
</g>
<!-- NASALib/trig&#45;&gt;NASALib/ints -->
<g id="edge28" class="edge">
<title>NASALib/trig&#45;&gt;NASALib/ints</title>
<path fill="none" stroke="black" d="M69.99,-460.12C60.1,-425.77 39,-352.5 39,-352.5 39,-352.5 39,-316.5 39,-316.5 39,-316.5 44,-244.5 44,-244.5 44,-244.5 49,-191.5 49,-191.5"/>
<path fill="none" stroke="black" d="M49,-189.5C49,-189.5 59,-172.5 59,-172.5 59,-172.5 70.23,-158.65 81.22,-145.12"/>
<polygon fill="black" stroke="black" points="84.34,-147.82 87.92,-137.85 78.9,-143.41 84.34,-147.82"/>
</g>
<!-- NASALib/trig&#45;&gt;NASALib/reals -->
<g id="edge29" class="edge">
<title>NASALib/trig&#45;&gt;NASALib/reals</title>
<path fill="none" stroke="black" d="M81,-405.5C81,-405.5 147,-335.5 147,-335.5"/>
<path fill="none" stroke="black" d="M147,-333.5C147,-333.5 154.15,-310.74 160.3,-291.18"/>
<polygon fill="black" stroke="black" points="163.9,-292.39 163.56,-281.8 157.22,-290.29 163.9,-292.39"/>
</g>
<!-- NASALib/trig&#45;&gt;NASALib/series -->
<g id="edge30" class="edge">
<title>NASALib/trig&#45;&gt;NASALib/series</title>
<path fill="none" stroke="black" d="M92.8,-460.2C101.45,-451.78 112.01,-441.52 121.5,-432.29"/>
<polygon fill="black" stroke="black" points="123.43,-435.33 128.16,-425.85 118.55,-430.31 123.43,-435.33"/>
</g>
<!-- float/axm_bnd -->
<g id="node11" class="node">
<title>float/axm_bnd</title>
<polygon fill="#f7e28d" stroke="black" points="302.5,-653 235.5,-653 235.5,-617 302.5,-617 302.5,-653"/>
<text text-anchor="middle" x="269" y="-629.95" font-family="Times,serif" font-size="14.00">axm_bnd</text>
</g>
<!-- float/axm_bnd&#45;&gt;NASALib/fault_tolerance -->
<g id="edge31" class="edge">
<title>float/axm_bnd&#45;&gt;NASALib/fault_tolerance</title>
<path fill="none" stroke="black" d="M312,-405.5C312,-405.5 275.93,-379.47 247.78,-359.16"/>
<polygon fill="black" stroke="black" points="250.13,-355.82 239.98,-352.8 246.04,-361.49 250.13,-355.82"/>
<path fill="none" stroke="black" d="M312,-549.5C312,-549.5 312,-407.5 312,-407.5"/>
</g>
<!-- float/axm_bnd&#45;&gt;NASALib/power -->
<g id="edge32" class="edge">
<title>float/axm_bnd&#45;&gt;NASALib/power</title>
<path fill="none" stroke="black" d="M243.13,-616.5C225.25,-604.42 201.28,-588.2 181.74,-574.99"/>
<polygon fill="black" stroke="black" points="184.08,-571.67 173.84,-568.97 180.16,-577.47 184.08,-571.67"/>
</g>
<!-- float/axm_bnd&#45;&gt;NASALib/reals -->
<g id="edge33" class="edge">
<title>float/axm_bnd&#45;&gt;NASALib/reals</title>
<path fill="none" stroke="black" d="M312,-405.5C312,-405.5 312,-335.5 312,-335.5"/>
<path fill="none" stroke="black" d="M312,-333.5C312,-333.5 248.34,-302.34 205.97,-281.6"/>
<polygon fill="black" stroke="black" points="207.75,-278.08 197.23,-276.83 204.68,-284.37 207.75,-278.08"/>
</g>
<!-- float/axm_bnd&#45;&gt;NASALib/trig -->
<g id="edge34" class="edge">
<title>float/axm_bnd&#45;&gt;NASALib/trig</title>
<path fill="none" stroke="black" d="M312,-549.5C312,-549.5 155.35,-508.19 112.64,-495.68"/>
<polygon fill="black" stroke="black" points="113.88,-492.08 103.29,-492.38 111.75,-498.75 113.88,-492.08"/>
<path fill="none" stroke="black" d="M278.12,-616.5C290.74,-592.29 312,-551.5 312,-551.5"/>
</g>
<!-- float/fnd_bnd -->
<g id="node12" class="node">
<title>float/fnd_bnd</title>
<polygon fill="#fcfcd7" stroke="black" points="299.5,-725 238.5,-725 238.5,-689 299.5,-689 299.5,-725"/>
<text text-anchor="middle" x="269" y="-701.95" font-family="Times,serif" font-size="14.00">fnd_bnd</text>
</g>
<!-- float/fnd_bnd&#45;&gt;NASALib/power -->
<g id="edge35" class="edge">
<title>float/fnd_bnd&#45;&gt;NASALib/power</title>
<path fill="none" stroke="black" d="M92,-634C92,-634 113.19,-602.21 129.27,-578.1"/>
<polygon fill="black" stroke="black" points="132.7,-580.26 135.34,-570 126.88,-576.38 132.7,-580.26"/>
</g>
<!-- float/fnd_bnd&#45;&gt;NASALib/reals -->
<g id="edge36" class="edge">
<title>float/fnd_bnd&#45;&gt;NASALib/reals</title>
<path fill="none" stroke="black" d="M283.08,-688.65C295.62,-673.19 312,-653 312,-653 312,-653 350,-551.5 350,-551.5 350,-551.5 350,-551.5 350,-477.5 350,-477.5 312,-335.5 312,-335.5"/>
</g>
<!-- float/fnd_bnd&#45;&gt;NASALib/trig -->
<g id="edge37" class="edge">
<title>float/fnd_bnd&#45;&gt;NASALib/trig</title>
<path fill="none" stroke="black" d="M238.17,-693.81C187.46,-673.75 92,-636 92,-636"/>
<path fill="none" stroke="black" d="M92,-634C92,-634 83,-552.19 78.1,-507.63"/>
<polygon fill="black" stroke="black" points="81.49,-507.48 76.92,-497.92 74.53,-508.25 81.49,-507.48"/>
</g>
<!-- float/fnd_bnd&#45;&gt;float/axm_bnd -->
<g id="edge38" class="edge">
<title>float/fnd_bnd&#45;&gt;float/axm_bnd</title>
<path fill="none" stroke="black" d="M269,-688.7C269,-681.24 269,-672.32 269,-663.97"/>
<polygon fill="black" stroke="black" points="272.5,-664.1 269,-654.1 265.5,-664.1 272.5,-664.1"/>
</g>
</g>
</svg>
