<?xml version="1.0" encoding="UTF-8" standalone="no"?>
<!DOCTYPE svg PUBLIC "-//W3C//DTD SVG 1.1//EN"
 "http://www.w3.org/Graphics/SVG/1.1/DTD/svg11.dtd">
<!-- Generated by graphviz version 8.0.4 (20230421.1958)
 -->
<!-- Title: float&#45;float_bounded_axiomatic Pages: 1 -->
<svg width="354pt" height="257pt"
 viewBox="0.00 0.00 354.00 257.00" xmlns="http://www.w3.org/2000/svg" xmlns:xlink="http://www.w3.org/1999/xlink">
<g id="graph0" class="graph" transform="scale(1 1) rotate(0) translate(4 253)">
<title>float&#45;float_bounded_axiomatic</title>
<polygon fill="white" stroke="none" points="-4,4 -4,-253 350,-253 350,4 -4,4"/>
<g id="clust1" class="cluster">
<title>cluster_NASALib</title>
<polygon fill="none" stroke="black" points="8,-8 8,-84.5 338,-84.5 338,-8 8,-8"/>
<text text-anchor="middle" x="173" y="-67.2" font-family="Times,serif" font-size="14.00">NASALib</text>
</g>
<g id="clust2" class="cluster">
<title>cluster_float</title>
<polygon fill="none" stroke="black" points="74,-92.5 74,-241 244,-241 244,-92.5 74,-92.5"/>
<text text-anchor="middle" x="159" y="-223.7" font-family="Times,serif" font-size="14.00">float</text>
</g>
<!-- float/float_bounded -->
<g id="node1" class="node">
<title>float/float_bounded</title>
<polygon fill="#fcfcd7" stroke="black" points="206,-208.5 112,-208.5 112,-172.5 206,-172.5 206,-208.5"/>
<text text-anchor="middle" x="159" y="-185.45" font-family="Times,serif" font-size="14.00">float_bounded</text>
</g>
<!-- float/float_bounded_axiomatic -->
<g id="node2" class="node">
<title>float/float_bounded_axiomatic</title>
<polygon fill="#f7e28d" stroke="black" points="236.38,-136.5 81.62,-136.5 81.62,-100.5 236.38,-100.5 236.38,-136.5"/>
<text text-anchor="middle" x="159" y="-113.45" font-family="Times,serif" font-size="14.00">float_bounded_axiomatic</text>
</g>
<!-- float/float_bounded&#45;&gt;float/float_bounded_axiomatic -->
<g id="edge5" class="edge">
<title>float/float_bounded&#45;&gt;float/float_bounded_axiomatic</title>
<path fill="none" stroke="black" d="M159,-172.2C159,-164.74 159,-155.82 159,-147.47"/>
<polygon fill="black" stroke="black" points="162.5,-147.6 159,-137.6 155.5,-147.6 162.5,-147.6"/>
</g>
<!-- pvslib&#45;gitlab&#45;pvs&#45;8.0&#45;fixes/power -->
<g id="node4" class="node">
<title>pvslib&#45;gitlab&#45;pvs&#45;8.0&#45;fixes/power</title>
<polygon fill="#fcfcd7" stroke="black" points="258,-52 204,-52 204,-16 258,-16 258,-52"/>
<text text-anchor="middle" x="231" y="-28.95" font-family="Times,serif" font-size="14.00">power</text>
</g>
<!-- float/float_bounded&#45;&gt;pvslib&#45;gitlab&#45;pvs&#45;8.0&#45;fixes/power -->
<g id="edge6" class="edge">
<title>float/float_bounded&#45;&gt;pvslib&#45;gitlab&#45;pvs&#45;8.0&#45;fixes/power</title>
<path fill="none" stroke="black" d="M264,-117.5C264,-117.5 251.62,-86.55 242.03,-62.56"/>
<polygon fill="black" stroke="black" points="244.96,-61.48 238,-53.5 238.46,-64.08 244.96,-61.48"/>
</g>
<!-- pvslib&#45;gitlab&#45;pvs&#45;8.0&#45;fixes/reals -->
<g id="node5" class="node">
<title>pvslib&#45;gitlab&#45;pvs&#45;8.0&#45;fixes/reals</title>
<polygon fill="#fcfcd7" stroke="black" points="330,-52 276,-52 276,-16 330,-16 330,-52"/>
<text text-anchor="middle" x="303" y="-28.95" font-family="Times,serif" font-size="14.00">reals</text>
</g>
<!-- float/float_bounded&#45;&gt;pvslib&#45;gitlab&#45;pvs&#45;8.0&#45;fixes/reals -->
<g id="edge7" class="edge">
<title>float/float_bounded&#45;&gt;pvslib&#45;gitlab&#45;pvs&#45;8.0&#45;fixes/reals</title>
<path fill="none" stroke="black" d="M264,-117.5C264,-117.5 278.76,-86.27 290.12,-62.24"/>
<polygon fill="black" stroke="black" points="293.62,-64.03 294.73,-53.5 287.29,-61.04 293.62,-64.03"/>
</g>
<!-- pvslib&#45;gitlab&#45;pvs&#45;8.0&#45;fixes/trig -->
<g id="node6" class="node">
<title>pvslib&#45;gitlab&#45;pvs&#45;8.0&#45;fixes/trig</title>
<polygon fill="#fcfcd7" stroke="black" points="186,-52 132,-52 132,-16 186,-16 186,-52"/>
<text text-anchor="middle" x="159" y="-28.95" font-family="Times,serif" font-size="14.00">trig</text>
</g>
<!-- float/float_bounded&#45;&gt;pvslib&#45;gitlab&#45;pvs&#45;8.0&#45;fixes/trig -->
<g id="edge8" class="edge">
<title>float/float_bounded&#45;&gt;pvslib&#45;gitlab&#45;pvs&#45;8.0&#45;fixes/trig</title>
<path fill="none" stroke="black" d="M187.16,-172.15C212.24,-156.69 245,-136.5 245,-136.5 245,-136.5 264,-119.5 264,-119.5"/>
<path fill="none" stroke="black" d="M264,-117.5C264,-117.5 245,-92.5 245,-92.5 245,-92.5 195,-84.5 195,-84.5 195,-84.5 186.56,-72.9 177.86,-60.93"/>
<polygon fill="black" stroke="black" points="180.3,-59.34 171.59,-53.31 174.64,-63.46 180.3,-59.34"/>
</g>
<!-- pvslib&#45;gitlab&#45;pvs&#45;8.0&#45;fixes/fault_tolerance -->
<g id="node3" class="node">
<title>pvslib&#45;gitlab&#45;pvs&#45;8.0&#45;fixes/fault_tolerance</title>
<polygon fill="#fcfcd7" stroke="black" points="113.5,-52 16.5,-52 16.5,-16 113.5,-16 113.5,-52"/>
<text text-anchor="middle" x="65" y="-28.95" font-family="Times,serif" font-size="14.00">fault_tolerance</text>
</g>
<!-- float/float_bounded_axiomatic&#45;&gt;pvslib&#45;gitlab&#45;pvs&#45;8.0&#45;fixes/fault_tolerance -->
<g id="edge1" class="edge">
<title>float/float_bounded_axiomatic&#45;&gt;pvslib&#45;gitlab&#45;pvs&#45;8.0&#45;fixes/fault_tolerance</title>
<path fill="none" stroke="black" d="M139.07,-100C125.61,-88.19 107.65,-72.44 92.79,-59.39"/>
<polygon fill="black" stroke="black" points="95.73,-56.44 85.91,-52.47 91.11,-61.7 95.73,-56.44"/>
</g>
<!-- float/float_bounded_axiomatic&#45;&gt;pvslib&#45;gitlab&#45;pvs&#45;8.0&#45;fixes/power -->
<g id="edge2" class="edge">
<title>float/float_bounded_axiomatic&#45;&gt;pvslib&#45;gitlab&#45;pvs&#45;8.0&#45;fixes/power</title>
<path fill="none" stroke="black" d="M177.84,-100.23C186.55,-92.24 195,-84.5 195,-84.5 195,-84.5 203.44,-72.9 212.14,-60.93"/>
<polygon fill="black" stroke="black" points="215.36,-63.46 218.41,-53.31 209.7,-59.34 215.36,-63.46"/>
</g>
<!-- float/float_bounded_axiomatic&#45;&gt;pvslib&#45;gitlab&#45;pvs&#45;8.0&#45;fixes/reals -->
<g id="edge3" class="edge">
<title>float/float_bounded_axiomatic&#45;&gt;pvslib&#45;gitlab&#45;pvs&#45;8.0&#45;fixes/reals</title>
<path fill="none" stroke="black" d="M216.16,-100.03C242.07,-92.12 267,-84.5 267,-84.5 267,-84.5 275.44,-72.9 284.14,-60.93"/>
<polygon fill="black" stroke="black" points="287.36,-63.46 290.41,-53.31 281.7,-59.34 287.36,-63.46"/>
</g>
<!-- float/float_bounded_axiomatic&#45;&gt;pvslib&#45;gitlab&#45;pvs&#45;8.0&#45;fixes/trig -->
<g id="edge4" class="edge">
<title>float/float_bounded_axiomatic&#45;&gt;pvslib&#45;gitlab&#45;pvs&#45;8.0&#45;fixes/trig</title>
<path fill="none" stroke="black" d="M159,-100C159,-89.39 159,-75.6 159,-63.46"/>
<polygon fill="black" stroke="black" points="162.5,-63.47 159,-53.47 155.5,-63.47 162.5,-63.47"/>
</g>
</g>
</svg>
