<?xml version="1.0" encoding="UTF-8" standalone="no"?>
<!DOCTYPE svg PUBLIC "-//W3C//DTD SVG 1.1//EN"
 "http://www.w3.org/Graphics/SVG/1.1/DTD/svg11.dtd">
<!-- Generated by graphviz version 2.44.1 (20200629.0846)
 -->
<!-- Title: matrices&#45;zoomed Pages: 1 -->
<svg width="378pt" height="686pt"
 viewBox="0.00 0.00 378.00 686.00" xmlns="http://www.w3.org/2000/svg" xmlns:xlink="http://www.w3.org/1999/xlink">
<g id="graph0" class="graph" transform="scale(1 1) rotate(0) translate(4 682)">
<title>matrices&#45;zoomed</title>
<polygon fill="white" stroke="transparent" points="-4,4 -4,-682 374,-682 374,4 -4,4"/>
<g id="clust1" class="cluster">
<title>cluster_NASALib</title>
<polygon fill="none" stroke="black" points="132,-8 132,-83 362,-83 362,-8 132,-8"/>
<text text-anchor="middle" x="247" y="-67.8" font-family="Times,serif" font-size="14.00">NASALib</text>
</g>
<g id="clust2" class="cluster">
<title>cluster_NASALib/matrices</title>
<polygon fill="none" stroke="black" points="8,-91 8,-670 336,-670 336,-91 8,-91"/>
<text text-anchor="middle" x="172" y="-654.8" font-family="Times,serif" font-size="14.00">NASALib/matrices</text>
</g>
<!-- nasalib/ints -->
<g id="node1" class="node">
<title>nasalib/ints</title>
<polygon fill="#fcfcd7" stroke="black" points="354,-52 300,-52 300,-16 354,-16 354,-52"/>
<text text-anchor="middle" x="327" y="-30.3" font-family="Times,serif" font-size="14.00">ints</text>
</g>
<!-- nasalib/matrices@linear_dependence -->
<g id="node2" class="node">
<title>nasalib/matrices@linear_dependence</title>
<ellipse fill="#e6f3ff" stroke="black" cx="113" cy="-477" rx="76.89" ry="18"/>
<text text-anchor="middle" x="113" y="-473.3" font-family="Times,serif" font-size="14.00">linear_dependence</text>
</g>
<!-- nasalib/matrices@matrices -->
<g id="node3" class="node">
<title>nasalib/matrices@matrices</title>
<ellipse fill="#e6f3ff" stroke="black" cx="94" cy="-117" rx="40.89" ry="18"/>
<text text-anchor="middle" x="94" y="-113.3" font-family="Times,serif" font-size="14.00">matrices</text>
</g>
<!-- nasalib/matrices@linear_dependence&#45;&gt;nasalib/matrices@matrices -->
<g id="edge1" class="edge">
<title>nasalib/matrices@linear_dependence&#45;&gt;nasalib/matrices@matrices</title>
<path fill="none" stroke="black" d="M36.14,-477C28.87,-477 24.16,-477 24.16,-477 24.16,-477 24.16,-123 24.16,-123 24.16,-123 44.99,-123 44.99,-123"/>
<polygon fill="black" stroke="black" points="44.99,-126.5 54.99,-123 44.99,-119.5 44.99,-126.5"/>
</g>
<!-- nasalib/matrices@matrix_props -->
<g id="node7" class="node">
<title>nasalib/matrices@matrix_props</title>
<ellipse fill="#e6f3ff" stroke="black" cx="94" cy="-189" rx="57.69" ry="18"/>
<text text-anchor="middle" x="94" y="-185.3" font-family="Times,serif" font-size="14.00">matrix_props</text>
</g>
<!-- nasalib/matrices@linear_dependence&#45;&gt;nasalib/matrices@matrix_props -->
<g id="edge2" class="edge">
<title>nasalib/matrices@linear_dependence&#45;&gt;nasalib/matrices@matrix_props</title>
<path fill="none" stroke="black" d="M66.81,-462.32C66.81,-462.32 66.81,-215.05 66.81,-215.05"/>
<polygon fill="black" stroke="black" points="70.31,-215.05 66.81,-205.05 63.31,-215.05 70.31,-215.05"/>
</g>
<!-- nasalib/reals -->
<g id="node11" class="node">
<title>nasalib/reals</title>
<polygon fill="#fcfcd7" stroke="black" points="282,-52 228,-52 228,-16 282,-16 282,-52"/>
<text text-anchor="middle" x="255" y="-30.3" font-family="Times,serif" font-size="14.00">reals</text>
</g>
<!-- nasalib/matrices@matrices&#45;&gt;nasalib/reals -->
<g id="edge3" class="edge">
<title>nasalib/matrices@matrices&#45;&gt;nasalib/reals</title>
<path fill="none" stroke="black" d="M132.84,-123C173.28,-123 230.8,-123 230.8,-123 230.8,-123 230.8,-62.01 230.8,-62.01"/>
<polygon fill="black" stroke="black" points="234.3,-62.01 230.8,-52.01 227.3,-62.01 234.3,-62.01"/>
</g>
<!-- nasalib/structures -->
<g id="node12" class="node">
<title>nasalib/structures</title>
<polygon fill="#fcfcd7" stroke="black" points="209.5,-52 140.5,-52 140.5,-16 209.5,-16 209.5,-52"/>
<text text-anchor="middle" x="175" y="-30.3" font-family="Times,serif" font-size="14.00">structures</text>
</g>
<!-- nasalib/matrices@matrices&#45;&gt;nasalib/structures -->
<g id="edge4" class="edge">
<title>nasalib/matrices@matrices&#45;&gt;nasalib/structures</title>
<path fill="none" stroke="black" d="M132.74,-111C140.42,-111 146.17,-111 146.17,-111 146.17,-111 146.17,-62.25 146.17,-62.25"/>
<polygon fill="black" stroke="black" points="149.67,-62.25 146.17,-52.25 142.67,-62.25 149.67,-62.25"/>
</g>
<!-- nasalib/matrices@matrix_det -->
<g id="node4" class="node">
<title>nasalib/matrices@matrix_det</title>
<ellipse fill="#e6f3ff" stroke="black" cx="187" cy="-261" rx="49.29" ry="18"/>
<text text-anchor="middle" x="187" y="-257.3" font-family="Times,serif" font-size="14.00">matrix_det</text>
</g>
<!-- nasalib/matrices@matrix_det&#45;&gt;nasalib/matrices@matrix_props -->
<g id="edge5" class="edge">
<title>nasalib/matrices@matrix_det&#45;&gt;nasalib/matrices@matrix_props</title>
<path fill="none" stroke="black" d="M144.72,-251.59C144.72,-251.59 144.72,-207.74 144.72,-207.74"/>
<polygon fill="black" stroke="black" points="148.22,-207.74 144.72,-197.74 141.22,-207.74 148.22,-207.74"/>
</g>
<!-- nasalib/matrices@matrix_diag -->
<g id="node5" class="node">
<title>nasalib/matrices@matrix_diag</title>
<ellipse fill="#e6f3ff" stroke="black" cx="232" cy="-405" rx="53.89" ry="18"/>
<text text-anchor="middle" x="232" y="-401.3" font-family="Times,serif" font-size="14.00">matrix_diag</text>
</g>
<!-- nasalib/matrices@matrix_upper_triang -->
<g id="node8" class="node">
<title>nasalib/matrices@matrix_upper_triang</title>
<ellipse fill="#e6f3ff" stroke="black" cx="211" cy="-333" rx="83.39" ry="18"/>
<text text-anchor="middle" x="211" y="-329.3" font-family="Times,serif" font-size="14.00">matrix_upper_triang</text>
</g>
<!-- nasalib/matrices@matrix_diag&#45;&gt;nasalib/matrices@matrix_upper_triang -->
<g id="edge6" class="edge">
<title>nasalib/matrices@matrix_diag&#45;&gt;nasalib/matrices@matrix_upper_triang</title>
<path fill="none" stroke="black" d="M232,-386.83C232,-386.83 232,-360.42 232,-360.42"/>
<polygon fill="black" stroke="black" points="235.5,-360.42 232,-350.42 228.5,-360.42 235.5,-360.42"/>
</g>
<!-- nasalib/matrices@matrix_inv -->
<g id="node6" class="node">
<title>nasalib/matrices@matrix_inv</title>
<ellipse fill="#e6f3ff" stroke="black" cx="258" cy="-477" rx="50.09" ry="18"/>
<text text-anchor="middle" x="258" y="-473.3" font-family="Times,serif" font-size="14.00">matrix_inv</text>
</g>
<!-- nasalib/matrices@matrix_inv&#45;&gt;nasalib/matrices@matrix_diag -->
<g id="edge7" class="edge">
<title>nasalib/matrices@matrix_inv&#45;&gt;nasalib/matrices@matrix_diag</title>
<path fill="none" stroke="black" d="M246.95,-459.2C246.95,-459.2 246.95,-432.34 246.95,-432.34"/>
<polygon fill="black" stroke="black" points="250.45,-432.34 246.95,-422.34 243.45,-432.34 250.45,-432.34"/>
</g>
<!-- nasalib/matrices@matrix_props&#45;&gt;nasalib/matrices@matrices -->
<g id="edge8" class="edge">
<title>nasalib/matrices@matrix_props&#45;&gt;nasalib/matrices@matrices</title>
<path fill="none" stroke="black" d="M94,-170.83C94,-170.83 94,-145.41 94,-145.41"/>
<polygon fill="black" stroke="black" points="97.5,-145.41 94,-135.41 90.5,-145.41 97.5,-145.41"/>
</g>
<!-- nasalib/matrices@matrix_props&#45;&gt;nasalib/reals -->
<g id="edge9" class="edge">
<title>nasalib/matrices@matrix_props&#45;&gt;nasalib/reals</title>
<path fill="none" stroke="black" d="M151.99,-189C190.34,-189 233.6,-189 233.6,-189 233.6,-189 233.6,-62.08 233.6,-62.08"/>
<polygon fill="black" stroke="black" points="237.1,-62.08 233.6,-52.08 230.1,-62.08 237.1,-62.08"/>
</g>
<!-- nasalib/matrices@matrix_upper_triang&#45;&gt;nasalib/matrices@matrix_det -->
<g id="edge10" class="edge">
<title>nasalib/matrices@matrix_upper_triang&#45;&gt;nasalib/matrices@matrix_det</title>
<path fill="none" stroke="black" d="M187,-315.57C187,-315.57 187,-289.02 187,-289.02"/>
<polygon fill="black" stroke="black" points="190.5,-289.02 187,-279.02 183.5,-289.02 190.5,-289.02"/>
</g>
<!-- nasalib/matrices@query_coeff -->
<g id="node9" class="node">
<title>nasalib/matrices@query_coeff</title>
<ellipse fill="#e6f3ff" stroke="black" cx="185" cy="-621" rx="53.09" ry="18"/>
<text text-anchor="middle" x="185" y="-617.3" font-family="Times,serif" font-size="14.00">query_coeff</text>
</g>
<!-- nasalib/matrices@tensor_product -->
<g id="node10" class="node">
<title>nasalib/matrices@tensor_product</title>
<ellipse fill="#e6f3ff" stroke="black" cx="185" cy="-549" rx="63.89" ry="18"/>
<text text-anchor="middle" x="185" y="-545.3" font-family="Times,serif" font-size="14.00">tensor_product</text>
</g>
<!-- nasalib/matrices@query_coeff&#45;&gt;nasalib/matrices@tensor_product -->
<g id="edge11" class="edge">
<title>nasalib/matrices@query_coeff&#45;&gt;nasalib/matrices@tensor_product</title>
<path fill="none" stroke="black" d="M185,-602.83C185,-602.83 185,-577.41 185,-577.41"/>
<polygon fill="black" stroke="black" points="188.5,-577.41 185,-567.41 181.5,-577.41 188.5,-577.41"/>
</g>
<!-- nasalib/matrices@tensor_product&#45;&gt;nasalib/ints -->
<g id="edge12" class="edge">
<title>nasalib/matrices@tensor_product&#45;&gt;nasalib/ints</title>
<path fill="none" stroke="black" d="M245.3,-555C288.35,-555 338.68,-555 338.68,-555 338.68,-555 338.68,-62.24 338.68,-62.24"/>
<polygon fill="black" stroke="black" points="342.18,-62.24 338.68,-52.24 335.18,-62.24 342.18,-62.24"/>
</g>
<!-- nasalib/matrices@tensor_product&#45;&gt;nasalib/matrices@linear_dependence -->
<g id="edge13" class="edge">
<title>nasalib/matrices@tensor_product&#45;&gt;nasalib/matrices@linear_dependence</title>
<path fill="none" stroke="black" d="M155.5,-533.02C155.5,-533.02 155.5,-502.44 155.5,-502.44"/>
<polygon fill="black" stroke="black" points="159,-502.44 155.5,-492.44 152,-502.44 159,-502.44"/>
</g>
<!-- nasalib/matrices@tensor_product&#45;&gt;nasalib/matrices@matrices -->
<g id="edge14" class="edge">
<title>nasalib/matrices@tensor_product&#45;&gt;nasalib/matrices@matrices</title>
<path fill="none" stroke="black" d="M121.13,-549C71.89,-549 12.16,-549 12.16,-549 12.16,-549 12.16,-111 12.16,-111 12.16,-111 45,-111 45,-111"/>
<polygon fill="black" stroke="black" points="45,-114.5 55,-111 45,-107.5 45,-114.5"/>
</g>
<!-- nasalib/matrices@tensor_product&#45;&gt;nasalib/matrices@matrix_inv -->
<g id="edge15" class="edge">
<title>nasalib/matrices@tensor_product&#45;&gt;nasalib/matrices@matrix_inv</title>
<path fill="none" stroke="black" d="M228.32,-535.79C228.32,-535.79 228.32,-501.61 228.32,-501.61"/>
<polygon fill="black" stroke="black" points="231.82,-501.61 228.32,-491.61 224.82,-501.61 231.82,-501.61"/>
</g>
<!-- nasalib/matrices@tensor_product&#45;&gt;nasalib/matrices@matrix_props -->
<g id="edge16" class="edge">
<title>nasalib/matrices@tensor_product&#45;&gt;nasalib/matrices@matrix_props</title>
<path fill="none" stroke="black" d="M198.82,-531.17C198.82,-500.49 198.82,-441 198.82,-441 198.82,-441 97.31,-441 97.31,-441 97.31,-441 97.31,-217.12 97.31,-217.12"/>
<polygon fill="black" stroke="black" points="100.81,-217.12 97.31,-207.12 93.81,-217.12 100.81,-217.12"/>
</g>
<!-- nasalib/matrices@tensor_product&#45;&gt;nasalib/reals -->
<g id="edge17" class="edge">
<title>nasalib/matrices@tensor_product&#45;&gt;nasalib/reals</title>
<path fill="none" stroke="black" d="M245.29,-543C282.57,-543 323.36,-543 323.36,-543 323.36,-543 323.36,-297 323.36,-297 323.36,-297 259.2,-297 259.2,-297 259.2,-297 259.2,-62.08 259.2,-62.08"/>
<polygon fill="black" stroke="black" points="262.7,-62.08 259.2,-52.08 255.7,-62.08 262.7,-62.08"/>
</g>
</g>
</svg>
