<?xml version="1.0" encoding="UTF-8" standalone="no"?>
<!DOCTYPE svg PUBLIC "-//W3C//DTD SVG 1.1//EN"
 "http://www.w3.org/Graphics/SVG/1.1/DTD/svg11.dtd">
<!-- Generated by graphviz version 7.0.6 (20230106.0513)
 -->
<!-- Title: matrices&#45;zoomed Pages: 1 -->
<svg width="378pt" height="686pt"
 viewBox="0.00 0.00 378.00 686.00" xmlns="http://www.w3.org/2000/svg" xmlns:xlink="http://www.w3.org/1999/xlink">
<g id="graph0" class="graph" transform="scale(1 1) rotate(0) translate(4 682)">
<title>matrices&#45;zoomed</title>
<polygon fill="white" stroke="none" points="-4,4 -4,-682 374,-682 374,4 -4,4"/>
<g id="clust1" class="cluster">
<title>cluster_NASALib</title>
<polygon fill="none" stroke="black" points="132,-8 132,-83 362,-83 362,-8 132,-8"/>
<text text-anchor="middle" x="247" y="-67.8" font-family="Times,serif" font-size="14.00">NASALib</text>
</g>
<g id="clust2" class="cluster">
<title>cluster_NASALib/matrices</title>
<polygon fill="none" stroke="black" points="8,-91 8,-670 336,-670 336,-91 8,-91"/>
<text text-anchor="middle" x="172" y="-654.8" font-family="Times,serif" font-size="14.00">NASALib/matrices</text>
</g>
<!-- NASALib/ints -->
<g id="node1" class="node">
<title>NASALib/ints</title>
<polygon fill="#fcfcd7" stroke="black" points="354,-52 300,-52 300,-16 354,-16 354,-52"/>
<text text-anchor="middle" x="327" y="-30.3" font-family="Times,serif" font-size="14.00">ints</text>
</g>
<!-- NASALib/matrices@linear_dependence -->
<g id="node2" class="node">
<title>NASALib/matrices@linear_dependence</title>
<ellipse fill="#e6f3ff" stroke="black" cx="113" cy="-477" rx="76.89" ry="18"/>
<text text-anchor="middle" x="113" y="-473.3" font-family="Times,serif" font-size="14.00">linear_dependence</text>
</g>
<!-- NASALib/matrices@matrices -->
<g id="node3" class="node">
<title>NASALib/matrices@matrices</title>
<ellipse fill="#e6f3ff" stroke="black" cx="94" cy="-117" rx="40.89" ry="18"/>
<text text-anchor="middle" x="94" y="-113.3" font-family="Times,serif" font-size="14.00">matrices</text>
</g>
<!-- NASALib/matrices@linear_dependence&#45;&gt;NASALib/matrices@matrices -->
<g id="edge1" class="edge">
<title>NASALib/matrices@linear_dependence&#45;&gt;NASALib/matrices@matrices</title>
<path fill="none" stroke="black" d="M94,-260C94,-260 27,-207 27,-207 27,-207 17,-190 17,-190"/>
<path fill="none" stroke="black" d="M111.48,-458.85C106.97,-408.07 94,-262 94,-262"/>
</g>
<!-- NASALib/matrices@matrix_props -->
<g id="node7" class="node">
<title>NASALib/matrices@matrix_props</title>
<ellipse fill="#e6f3ff" stroke="black" cx="94" cy="-189" rx="57.69" ry="18"/>
<text text-anchor="middle" x="94" y="-185.3" font-family="Times,serif" font-size="14.00">matrix_props</text>
</g>
<!-- NASALib/matrices@linear_dependence&#45;&gt;NASALib/matrices@matrix_props -->
<g id="edge2" class="edge">
<title>NASALib/matrices@linear_dependence&#45;&gt;NASALib/matrices@matrix_props</title>
<path fill="none" stroke="black" d="M94,-260C94,-260 94,-238.08 94,-218.77"/>
<polygon fill="black" stroke="black" points="97.5,-218.82 94,-208.82 90.5,-218.82 97.5,-218.82"/>
</g>
<!-- NASALib/reals -->
<g id="node11" class="node">
<title>NASALib/reals</title>
<polygon fill="#fcfcd7" stroke="black" points="282,-52 228,-52 228,-16 282,-16 282,-52"/>
<text text-anchor="middle" x="255" y="-30.3" font-family="Times,serif" font-size="14.00">reals</text>
</g>
<!-- NASALib/matrices@matrices&#45;&gt;NASALib/reals -->
<g id="edge3" class="edge">
<title>NASALib/matrices@matrices&#45;&gt;NASALib/reals</title>
<path fill="none" stroke="black" d="M128.49,-106.9C165.49,-97.13 219,-83 219,-83 219,-83 226.9,-72.46 235.3,-61.26"/>
<polygon fill="black" stroke="black" points="237.9,-63.64 241.1,-53.54 232.3,-59.44 237.9,-63.64"/>
</g>
<!-- NASALib/structures -->
<g id="node12" class="node">
<title>NASALib/structures</title>
<polygon fill="#fcfcd7" stroke="black" points="209.5,-52 140.5,-52 140.5,-16 209.5,-16 209.5,-52"/>
<text text-anchor="middle" x="175" y="-30.3" font-family="Times,serif" font-size="14.00">structures</text>
</g>
<!-- NASALib/matrices@matrices&#45;&gt;NASALib/structures -->
<g id="edge4" class="edge">
<title>NASALib/matrices@matrices&#45;&gt;NASALib/structures</title>
<path fill="none" stroke="black" d="M110,-100C121.27,-88.73 136.6,-73.4 149.54,-60.46"/>
<polygon fill="black" stroke="black" points="151.96,-62.99 156.56,-53.44 147.01,-58.04 151.96,-62.99"/>
</g>
<!-- NASALib/matrices@matrix_det -->
<g id="node4" class="node">
<title>NASALib/matrices@matrix_det</title>
<ellipse fill="#e6f3ff" stroke="black" cx="187" cy="-261" rx="49.29" ry="18"/>
<text text-anchor="middle" x="187" y="-257.3" font-family="Times,serif" font-size="14.00">matrix_det</text>
</g>
<!-- NASALib/matrices@matrix_det&#45;&gt;NASALib/matrices@matrix_props -->
<g id="edge5" class="edge">
<title>NASALib/matrices@matrix_det&#45;&gt;NASALib/matrices@matrix_props</title>
<path fill="none" stroke="black" d="M166.36,-244.46C154.01,-235.17 138.1,-223.19 124.34,-212.83"/>
<polygon fill="black" stroke="black" points="126.53,-210.1 116.44,-206.89 122.32,-215.7 126.53,-210.1"/>
</g>
<!-- NASALib/matrices@matrix_diag -->
<g id="node5" class="node">
<title>NASALib/matrices@matrix_diag</title>
<ellipse fill="#e6f3ff" stroke="black" cx="232" cy="-405" rx="53.89" ry="18"/>
<text text-anchor="middle" x="232" y="-401.3" font-family="Times,serif" font-size="14.00">matrix_diag</text>
</g>
<!-- NASALib/matrices@matrix_upper_triang -->
<g id="node8" class="node">
<title>NASALib/matrices@matrix_upper_triang</title>
<ellipse fill="#e6f3ff" stroke="black" cx="211" cy="-333" rx="83.39" ry="18"/>
<text text-anchor="middle" x="211" y="-329.3" font-family="Times,serif" font-size="14.00">matrix_upper_triang</text>
</g>
<!-- NASALib/matrices@matrix_diag&#45;&gt;NASALib/matrices@matrix_upper_triang -->
<g id="edge6" class="edge">
<title>NASALib/matrices@matrix_diag&#45;&gt;NASALib/matrices@matrix_upper_triang</title>
<path fill="none" stroke="black" d="M226.81,-386.7C224.57,-379.24 221.9,-370.32 219.39,-361.97"/>
<polygon fill="black" stroke="black" points="222.79,-361.13 216.57,-352.55 216.09,-363.14 222.79,-361.13"/>
</g>
<!-- NASALib/matrices@matrix_inv -->
<g id="node6" class="node">
<title>NASALib/matrices@matrix_inv</title>
<ellipse fill="#e6f3ff" stroke="black" cx="258" cy="-477" rx="50.09" ry="18"/>
<text text-anchor="middle" x="258" y="-473.3" font-family="Times,serif" font-size="14.00">matrix_inv</text>
</g>
<!-- NASALib/matrices@matrix_inv&#45;&gt;NASALib/matrices@matrix_diag -->
<g id="edge7" class="edge">
<title>NASALib/matrices@matrix_inv&#45;&gt;NASALib/matrices@matrix_diag</title>
<path fill="none" stroke="black" d="M251.57,-458.7C248.77,-451.15 245.42,-442.12 242.28,-433.68"/>
<polygon fill="black" stroke="black" points="245.64,-432.68 238.88,-424.52 239.08,-435.12 245.64,-432.68"/>
</g>
<!-- NASALib/matrices@matrix_props&#45;&gt;NASALib/matrices@matrices -->
<g id="edge8" class="edge">
<title>NASALib/matrices@matrix_props&#45;&gt;NASALib/matrices@matrices</title>
<path fill="none" stroke="black" d="M94,-170.7C94,-163.41 94,-154.73 94,-146.54"/>
<polygon fill="black" stroke="black" points="97.5,-146.62 94,-136.62 90.5,-146.62 97.5,-146.62"/>
</g>
<!-- NASALib/matrices@matrix_props&#45;&gt;NASALib/reals -->
<g id="edge9" class="edge">
<title>NASALib/matrices@matrix_props&#45;&gt;NASALib/reals</title>
<path fill="none" stroke="black" d="M113.53,-171.59C148.69,-142.06 219,-83 219,-83 219,-83 226.9,-72.46 235.3,-61.26"/>
<polygon fill="black" stroke="black" points="237.9,-63.64 241.1,-53.54 232.3,-59.44 237.9,-63.64"/>
</g>
<!-- NASALib/matrices@matrix_upper_triang&#45;&gt;NASALib/matrices@matrix_det -->
<g id="edge10" class="edge">
<title>NASALib/matrices@matrix_upper_triang&#45;&gt;NASALib/matrices@matrix_det</title>
<path fill="none" stroke="black" d="M205.07,-314.7C202.51,-307.24 199.45,-298.32 196.59,-289.97"/>
<polygon fill="black" stroke="black" points="199.91,-288.86 193.36,-280.54 193.29,-291.13 199.91,-288.86"/>
</g>
<!-- NASALib/matrices@query_coeff -->
<g id="node9" class="node">
<title>NASALib/matrices@query_coeff</title>
<ellipse fill="#e6f3ff" stroke="black" cx="185" cy="-621" rx="53.09" ry="18"/>
<text text-anchor="middle" x="185" y="-617.3" font-family="Times,serif" font-size="14.00">query_coeff</text>
</g>
<!-- NASALib/matrices@tensor_product -->
<g id="node10" class="node">
<title>NASALib/matrices@tensor_product</title>
<ellipse fill="#e6f3ff" stroke="black" cx="185" cy="-549" rx="63.89" ry="18"/>
<text text-anchor="middle" x="185" y="-545.3" font-family="Times,serif" font-size="14.00">tensor_product</text>
</g>
<!-- NASALib/matrices@query_coeff&#45;&gt;NASALib/matrices@tensor_product -->
<g id="edge11" class="edge">
<title>NASALib/matrices@query_coeff&#45;&gt;NASALib/matrices@tensor_product</title>
<path fill="none" stroke="black" d="M185,-602.7C185,-595.41 185,-586.73 185,-578.54"/>
<polygon fill="black" stroke="black" points="188.5,-578.62 185,-568.62 181.5,-578.62 188.5,-578.62"/>
</g>
<!-- NASALib/matrices@tensor_product&#45;&gt;NASALib/ints -->
<g id="edge12" class="edge">
<title>NASALib/matrices@tensor_product&#45;&gt;NASALib/ints</title>
<path fill="none" stroke="black" d="M327,-116C327,-116 327,-86.96 327,-63.66"/>
<polygon fill="black" stroke="black" points="330.5,-63.69 327,-53.69 323.5,-63.69 330.5,-63.69"/>
</g>
<!-- NASALib/matrices@tensor_product&#45;&gt;NASALib/matrices@linear_dependence -->
<g id="edge13" class="edge">
<title>NASALib/matrices@tensor_product&#45;&gt;NASALib/matrices@linear_dependence</title>
<path fill="none" stroke="black" d="M167.94,-531.41C159.19,-522.91 148.35,-512.37 138.63,-502.91"/>
<polygon fill="black" stroke="black" points="141.14,-500.47 131.53,-496.01 136.26,-505.49 141.14,-500.47"/>
</g>
<!-- NASALib/matrices@tensor_product&#45;&gt;NASALib/matrices@matrices -->
<g id="edge14" class="edge">
<title>NASALib/matrices@tensor_product&#45;&gt;NASALib/matrices@matrices</title>
<path fill="none" stroke="black" d="M145.13,-534.63C98.32,-518.93 27,-495 27,-495 27,-495 17,-406 17,-406 17,-406 17,-406 17,-332 17,-332 17,-190 17,-190"/>
<path fill="none" stroke="black" d="M17,-188C17,-188 27,-171 27,-171 27,-171 47.37,-154.89 65.65,-140.43"/>
<polygon fill="black" stroke="black" points="67.76,-143.22 73.43,-134.27 63.42,-137.73 67.76,-143.22"/>
</g>
<!-- NASALib/matrices@tensor_product&#45;&gt;NASALib/matrices@matrix_inv -->
<g id="edge15" class="edge">
<title>NASALib/matrices@tensor_product&#45;&gt;NASALib/matrices@matrix_inv</title>
<path fill="none" stroke="black" d="M202.3,-531.41C211.46,-522.63 222.87,-511.69 232.97,-502"/>
<polygon fill="black" stroke="black" points="235.19,-504.72 239.98,-495.28 230.34,-499.67 235.19,-504.72"/>
</g>
<!-- NASALib/matrices@tensor_product&#45;&gt;NASALib/matrices@matrix_props -->
<g id="edge16" class="edge">
<title>NASALib/matrices@tensor_product&#45;&gt;NASALib/matrices@matrix_props</title>
<path fill="none" stroke="black" d="M327,-260C327,-260 214.25,-226.13 145.61,-205.51"/>
<polygon fill="black" stroke="black" points="146.62,-202.15 136.04,-202.63 144.61,-208.86 146.62,-202.15"/>
<path fill="none" stroke="black" d="M220.72,-533.66C259.81,-517.96 317,-495 317,-495 317,-495 327,-262 327,-262"/>
</g>
<!-- NASALib/matrices@tensor_product&#45;&gt;NASALib/reals -->
<g id="edge17" class="edge">
<title>NASALib/matrices@tensor_product&#45;&gt;NASALib/reals</title>
<path fill="none" stroke="black" d="M327,-260C327,-260 327,-118 327,-118"/>
<path fill="none" stroke="black" d="M327,-116C327,-116 291,-83 291,-83 291,-83 283.1,-72.46 274.7,-61.26"/>
<polygon fill="black" stroke="black" points="277.7,-59.44 268.9,-53.54 272.1,-63.64 277.7,-59.44"/>
</g>
</g>
</svg>
