<?xml version="1.0" encoding="UTF-8" standalone="no"?>
<!DOCTYPE svg PUBLIC "-//W3C//DTD SVG 1.1//EN"
 "http://www.w3.org/Graphics/SVG/1.1/DTD/svg11.dtd">
<!-- Generated by graphviz version 8.0.4 (20230421.1958)
 -->
<!-- Title: matrices Pages: 1 -->
<svg width="252pt" height="329pt"
 viewBox="0.00 0.00 252.00 329.00" xmlns="http://www.w3.org/2000/svg" xmlns:xlink="http://www.w3.org/1999/xlink">
<g id="graph0" class="graph" transform="scale(1 1) rotate(0) translate(4 325)">
<title>matrices</title>
<polygon fill="white" stroke="none" points="-4,4 -4,-325 248,-325 248,4 -4,4"/>
<g id="clust1" class="cluster">
<title>cluster_NASALib</title>
<polygon fill="none" stroke="black" points="8,-8 8,-228.5 236,-228.5 236,-8 8,-8"/>
<text text-anchor="middle" x="122" y="-211.2" font-family="Times,serif" font-size="14.00">NASALib</text>
</g>
<g id="clust2" class="cluster">
<title>cluster_dL</title>
<polygon fill="none" stroke="black" points="55,-236.5 55,-313 215,-313 215,-236.5 55,-236.5"/>
<text text-anchor="middle" x="135" y="-295.7" font-family="Times,serif" font-size="14.00">dL</text>
</g>
<!-- NASALib/ints -->
<g id="node1" class="node">
<title>NASALib/ints</title>
<polygon fill="#fcfcd7" stroke="black" points="142,-52 88,-52 88,-16 142,-16 142,-52"/>
<text text-anchor="middle" x="115" y="-28.95" font-family="Times,serif" font-size="14.00">ints</text>
</g>
<!-- NASALib/matrices -->
<g id="node2" class="node">
<title>NASALib/matrices</title>
<polygon fill="#f7e28d" stroke="black" points="146.25,-124 83.75,-124 83.75,-88 146.25,-88 146.25,-124"/>
<text text-anchor="middle" x="115" y="-100.95" font-family="Times,serif" font-size="14.00">matrices</text>
</g>
<!-- NASALib/matrices&#45;&gt;NASALib/ints -->
<g id="edge1" class="edge">
<title>NASALib/matrices&#45;&gt;NASALib/ints</title>
<path fill="none" stroke="black" d="M115,-87.7C115,-80.24 115,-71.32 115,-62.97"/>
<polygon fill="black" stroke="black" points="118.5,-63.1 115,-53.1 111.5,-63.1 118.5,-63.1"/>
</g>
<!-- NASALib/reals -->
<g id="node4" class="node">
<title>NASALib/reals</title>
<polygon fill="#fcfcd7" stroke="black" points="70,-52 16,-52 16,-16 70,-16 70,-52"/>
<text text-anchor="middle" x="43" y="-28.95" font-family="Times,serif" font-size="14.00">reals</text>
</g>
<!-- NASALib/matrices&#45;&gt;NASALib/reals -->
<g id="edge2" class="edge">
<title>NASALib/matrices&#45;&gt;NASALib/reals</title>
<path fill="none" stroke="black" d="M97.2,-87.7C88.55,-79.28 77.99,-69.02 68.5,-59.79"/>
<polygon fill="black" stroke="black" points="71.45,-57.81 61.84,-53.35 66.57,-62.83 71.45,-57.81"/>
</g>
<!-- NASALib/structures -->
<g id="node5" class="node">
<title>NASALib/structures</title>
<polygon fill="#fcfcd7" stroke="black" points="228.25,-52 159.75,-52 159.75,-16 228.25,-16 228.25,-52"/>
<text text-anchor="middle" x="194" y="-28.95" font-family="Times,serif" font-size="14.00">structures</text>
</g>
<!-- NASALib/matrices&#45;&gt;NASALib/structures -->
<g id="edge3" class="edge">
<title>NASALib/matrices&#45;&gt;NASALib/structures</title>
<path fill="none" stroke="black" d="M134.53,-87.7C144.12,-79.2 155.84,-68.81 166.33,-59.51"/>
<polygon fill="black" stroke="black" points="168.26,-62.6 173.42,-53.35 163.62,-57.36 168.26,-62.6"/>
</g>
<!-- NASALib/mult_poly -->
<g id="node3" class="node">
<title>NASALib/mult_poly</title>
<polygon fill="#fcfcd7" stroke="black" points="151.12,-196 78.88,-196 78.88,-160 151.12,-160 151.12,-196"/>
<text text-anchor="middle" x="115" y="-172.95" font-family="Times,serif" font-size="14.00">mult_poly</text>
</g>
<!-- NASALib/mult_poly&#45;&gt;NASALib/matrices -->
<g id="edge4" class="edge">
<title>NASALib/mult_poly&#45;&gt;NASALib/matrices</title>
<path fill="none" stroke="black" d="M115,-159.7C115,-152.24 115,-143.32 115,-134.97"/>
<polygon fill="black" stroke="black" points="118.5,-135.1 115,-125.1 111.5,-135.1 118.5,-135.1"/>
</g>
<!-- NASALib/mult_poly&#45;&gt;NASALib/reals -->
<g id="edge5" class="edge">
<title>NASALib/mult_poly&#45;&gt;NASALib/reals</title>
<path fill="none" stroke="black" d="M101.9,-159.65C90.24,-144.19 75,-124 75,-124 75,-124 62.23,-88.48 52.82,-62.32"/>
<polygon fill="black" stroke="black" points="55.85,-61.39 49.17,-53.16 49.26,-63.75 55.85,-61.39"/>
</g>
<!-- NASALib/mult_poly&#45;&gt;NASALib/structures -->
<g id="edge6" class="edge">
<title>NASALib/mult_poly&#45;&gt;NASALib/structures</title>
<path fill="none" stroke="black" d="M128.1,-159.65C139.76,-144.19 155,-124 155,-124 155,-124 170.7,-88.17 182.18,-61.97"/>
<polygon fill="black" stroke="black" points="185.67,-63.72 186.48,-53.16 179.26,-60.91 185.67,-63.72"/>
</g>
<!-- dL/dL_Liveness_examples -->
<g id="node6" class="node">
<title>dL/dL_Liveness_examples</title>
<polygon fill="#fcfcd7" stroke="black" points="207.12,-280.5 62.88,-280.5 62.88,-244.5 207.12,-244.5 207.12,-280.5"/>
<text text-anchor="middle" x="135" y="-257.45" font-family="Times,serif" font-size="14.00">dL_Liveness_examples</text>
</g>
<!-- dL/dL_Liveness_examples&#45;&gt;NASALib/mult_poly -->
<g id="edge7" class="edge">
<title>dL/dL_Liveness_examples&#45;&gt;NASALib/mult_poly</title>
<path fill="none" stroke="black" d="M130.76,-244C128.16,-233.28 124.77,-219.32 121.81,-207.08"/>
<polygon fill="black" stroke="black" points="124.99,-206.36 119.24,-197.47 118.19,-208.01 124.99,-206.36"/>
</g>
<!-- dL/dL_Liveness_examples&#45;&gt;NASALib/reals -->
<g id="edge8" class="edge">
<title>dL/dL_Liveness_examples&#45;&gt;NASALib/reals</title>
<path fill="none" stroke="black" d="M148.09,-244.23C154.13,-236.24 160,-228.5 160,-228.5 160,-228.5 194,-107 194,-107"/>
<path fill="none" stroke="black" d="M194,-105C194,-105 109.84,-66.21 80.06,-52.43"/>
<polygon fill="black" stroke="black" points="81.83,-48.92 71.29,-47.88 78.88,-55.27 81.83,-48.92"/>
</g>
<!-- dL/dL_Liveness_examples&#45;&gt;NASALib/structures -->
<g id="edge9" class="edge">
<title>dL/dL_Liveness_examples&#45;&gt;NASALib/structures</title>
<path fill="none" stroke="black" d="M194,-105C194,-105 194,-82.66 194,-63.22"/>
<polygon fill="black" stroke="black" points="197.5,-63.3 194,-53.3 190.5,-63.3 197.5,-63.3"/>
</g>
</g>
</svg>
