<?xml version="1.0" encoding="UTF-8" standalone="no"?>
<!DOCTYPE svg PUBLIC "-//W3C//DTD SVG 1.1//EN"
 "http://www.w3.org/Graphics/SVG/1.1/DTD/svg11.dtd">
<!-- Generated by graphviz version 8.1.0 (20230707.0739)
 -->
<!-- Title: all&#45;libraries Pages: 1 -->
<svg width="351pt" height="255pt"
 viewBox="0.00 0.00 351.25 255.00" xmlns="http://www.w3.org/2000/svg" xmlns:xlink="http://www.w3.org/1999/xlink">
<g id="graph0" class="graph" transform="scale(1 1) rotate(0) translate(4 251)">
<title>all&#45;libraries</title>
<polygon fill="white" stroke="none" points="-4,4 -4,-251 347.25,-251 347.25,4 -4,4"/>
<g id="clust1" class="cluster">
<title>cluster_nasalib</title>
<polygon fill="none" stroke="black" points="244,-8 244,-193 335.25,-193 335.25,-8 244,-8"/>
<text text-anchor="middle" x="289.62" y="-175.7" font-family="Times,serif" font-size="14.00">nasalib</text>
</g>
<g id="clust2" class="cluster">
<title>cluster_pvsio_utils</title>
<polygon fill="none" stroke="black" points="8,-54 8,-239 224,-239 224,-54 8,-54"/>
<text text-anchor="middle" x="116" y="-221.7" font-family="Times,serif" font-size="14.00">pvsio_utils</text>
</g>
<!-- nasalib/pvsio_utils -->
<g id="node1" class="node">
<title>nasalib/pvsio_utils</title>
<polygon fill="#fcfcd7" stroke="black" points="327.25,-106 252,-106 252,-70 327.25,-70 327.25,-106"/>
<text text-anchor="middle" x="289.62" y="-82.95" font-family="Times,serif" font-size="14.00">pvsio_utils</text>
</g>
<!-- nasalib/reals -->
<g id="node2" class="node">
<title>nasalib/reals</title>
<polygon fill="#fcfcd7" stroke="black" points="316.62,-52 262.62,-52 262.62,-16 316.62,-16 316.62,-52"/>
<text text-anchor="middle" x="289.62" y="-28.95" font-family="Times,serif" font-size="14.00">reals</text>
</g>
<!-- nasalib/structures -->
<g id="node3" class="node">
<title>nasalib/structures</title>
<polygon fill="#fcfcd7" stroke="black" points="323.88,-160 255.38,-160 255.38,-124 323.88,-124 323.88,-160"/>
<text text-anchor="middle" x="289.62" y="-136.95" font-family="Times,serif" font-size="14.00">structures</text>
</g>
<!-- pvsio_utils/PVSioCSV -->
<g id="node4" class="node">
<title>pvsio_utils/PVSioCSV</title>
<polygon fill="#fcfcd7" stroke="black" points="206.62,-206 129.12,-206 129.12,-170 206.62,-170 206.62,-206"/>
<text text-anchor="middle" x="167.88" y="-182.95" font-family="Times,serif" font-size="14.00">PVSioCSV</text>
</g>
<!-- pvsio_utils/PVSioCSV&#45;&gt;nasalib/pvsio_utils -->
<g id="edge1" class="edge">
<title>pvsio_utils/PVSioCSV&#45;&gt;nasalib/pvsio_utils</title>
<path fill="none" stroke="black" d="M206.87,-173.86C213.12,-170.34 219.14,-166.08 224,-161 239.4,-144.88 229.33,-131.78 244,-115 244.43,-114.51 244.87,-114.03 245.32,-113.55"/>
<polygon fill="black" stroke="black" points="247.22,-116.65 252.34,-107.37 242.55,-111.43 247.22,-116.65"/>
</g>
<!-- pvsio_utils/PVSioCSV&#45;&gt;nasalib/structures -->
<g id="edge2" class="edge">
<title>pvsio_utils/PVSioCSV&#45;&gt;nasalib/structures</title>
<path fill="none" stroke="black" d="M207.09,-173.32C219.18,-168.68 232.63,-163.51 245.06,-158.74"/>
<polygon fill="black" stroke="black" points="246.13,-161.69 254.21,-154.84 243.62,-155.16 246.13,-161.69"/>
</g>
<!-- pvsio_utils/PVSioChecker -->
<g id="node5" class="node">
<title>pvsio_utils/PVSioChecker</title>
<polygon fill="#fcfcd7" stroke="black" points="216,-98 119.75,-98 119.75,-62 216,-62 216,-98"/>
<text text-anchor="middle" x="167.88" y="-74.95" font-family="Times,serif" font-size="14.00">PVSioChecker</text>
</g>
<!-- pvsio_utils/PVSioChecker&#45;&gt;nasalib/pvsio_utils -->
<g id="edge3" class="edge">
<title>pvsio_utils/PVSioChecker&#45;&gt;nasalib/pvsio_utils</title>
<path fill="none" stroke="black" d="M216.2,-83.16C224.29,-83.7 232.7,-84.26 240.81,-84.81"/>
<polygon fill="black" stroke="black" points="240.4,-88.35 250.61,-85.53 240.86,-81.37 240.4,-88.35"/>
</g>
<!-- pvsio_utils/PVSioChecker&#45;&gt;nasalib/reals -->
<g id="edge4" class="edge">
<title>pvsio_utils/PVSioChecker&#45;&gt;nasalib/reals</title>
<path fill="none" stroke="black" d="M216.2,-61.82C228.22,-57.21 240.93,-52.32 252.3,-47.95"/>
<polygon fill="black" stroke="black" points="253.23,-50.96 261.31,-44.11 250.72,-44.43 253.23,-50.96"/>
</g>
<!-- pvsio_utils/PVSioKeyVal -->
<g id="node6" class="node">
<title>pvsio_utils/PVSioKeyVal</title>
<polygon fill="#fcfcd7" stroke="black" points="213.75,-152 122,-152 122,-116 213.75,-116 213.75,-152"/>
<text text-anchor="middle" x="167.88" y="-128.95" font-family="Times,serif" font-size="14.00">PVSioKeyVal</text>
</g>
<!-- pvsio_utils/PVSioKeyVal&#45;&gt;nasalib/pvsio_utils -->
<g id="edge5" class="edge">
<title>pvsio_utils/PVSioKeyVal&#45;&gt;nasalib/pvsio_utils</title>
<path fill="none" stroke="black" d="M214.15,-116.61C223.19,-113.13 232.71,-109.48 241.81,-105.98"/>
<polygon fill="black" stroke="black" points="242.78,-108.98 250.86,-102.12 240.27,-102.44 242.78,-108.98"/>
</g>
<!-- pvsio_utils/PVSioKeyVal&#45;&gt;nasalib/structures -->
<g id="edge6" class="edge">
<title>pvsio_utils/PVSioKeyVal&#45;&gt;nasalib/structures</title>
<path fill="none" stroke="black" d="M214.15,-137.02C224.06,-137.69 234.54,-138.39 244.41,-139.05"/>
<polygon fill="black" stroke="black" points="244.02,-142.59 254.24,-139.77 244.49,-135.61 244.02,-142.59"/>
</g>
<!-- pvsio_utils/examples -->
<g id="node7" class="node">
<title>pvsio_utils/examples</title>
<polygon fill="#fcfcd7" stroke="black" points="83.75,-152 16,-152 16,-116 83.75,-116 83.75,-152"/>
<text text-anchor="middle" x="49.88" y="-128.95" font-family="Times,serif" font-size="14.00">examples</text>
</g>
<!-- pvsio_utils/examples&#45;&gt;nasalib/pvsio_utils -->
<g id="edge7" class="edge">
<title>pvsio_utils/examples&#45;&gt;nasalib/pvsio_utils</title>
<path fill="none" stroke="black" d="M168.88,-34C194.03,-27.78 200.28,-42.57 224,-53 231.8,-56.43 239.93,-60.45 247.69,-64.53"/>
<polygon fill="black" stroke="black" points="245.8,-68.02 256.26,-69.67 249.11,-61.85 245.8,-68.02"/>
</g>
<!-- pvsio_utils/examples&#45;&gt;nasalib/reals -->
<g id="edge8" class="edge">
<title>pvsio_utils/examples&#45;&gt;nasalib/reals</title>
<path fill="none" stroke="black" d="M62.56,-115.66C74.88,-97.6 95.79,-70.27 119.75,-53 138.07,-39.79 144.95,-39.42 166.88,-34"/>
<path fill="none" stroke="black" d="M168.88,-34C196.05,-27.28 227.78,-27.63 251.74,-29.47"/>
<polygon fill="black" stroke="black" points="251.22,-33.03 261.5,-30.44 251.85,-26.06 251.22,-33.03"/>
</g>
<!-- pvsio_utils/examples&#45;&gt;pvsio_utils/PVSioCSV -->
<g id="edge9" class="edge">
<title>pvsio_utils/examples&#45;&gt;pvsio_utils/PVSioCSV</title>
<path fill="none" stroke="black" d="M84.12,-149.47C95,-154.54 107.31,-160.27 119.04,-165.73"/>
<polygon fill="black" stroke="black" points="117.18,-169.19 127.72,-170.24 120.13,-162.85 117.18,-169.19"/>
</g>
<!-- pvsio_utils/examples&#45;&gt;pvsio_utils/PVSioChecker -->
<g id="edge10" class="edge">
<title>pvsio_utils/examples&#45;&gt;pvsio_utils/PVSioChecker</title>
<path fill="none" stroke="black" d="M84.12,-118.53C94.58,-113.66 106.36,-108.17 117.68,-102.9"/>
<polygon fill="black" stroke="black" points="118.88,-105.74 126.47,-98.34 115.93,-99.39 118.88,-105.74"/>
</g>
<!-- pvsio_utils/examples&#45;&gt;pvsio_utils/PVSioKeyVal -->
<g id="edge11" class="edge">
<title>pvsio_utils/examples&#45;&gt;pvsio_utils/PVSioKeyVal</title>
<path fill="none" stroke="black" d="M84.12,-134C92.4,-134 101.51,-134 110.56,-134"/>
<polygon fill="black" stroke="black" points="110.52,-137.5 120.52,-134 110.52,-130.5 110.52,-137.5"/>
</g>
</g>
</svg>
