<?xml version="1.0" encoding="UTF-8" standalone="no"?>
<!DOCTYPE svg PUBLIC "-//W3C//DTD SVG 1.1//EN"
 "http://www.w3.org/Graphics/SVG/1.1/DTD/svg11.dtd">
<!-- Generated by graphviz version 8.0.4 (20230421.1958)
 -->
<!-- Title: pvsio_utils Pages: 1 -->
<svg width="442pt" height="177pt"
 viewBox="0.00 0.00 442.00 177.00" xmlns="http://www.w3.org/2000/svg" xmlns:xlink="http://www.w3.org/1999/xlink">
<g id="graph0" class="graph" transform="scale(1 1) rotate(0) translate(4 173)">
<title>pvsio_utils</title>
<polygon fill="white" stroke="none" points="-4,4 -4,-173 438,-173 438,4 -4,4"/>
<g id="clust1" class="cluster">
<title>cluster_NASALib</title>
<polygon fill="none" stroke="black" points="8,-8 8,-161 100,-161 100,-8 8,-8"/>
<text text-anchor="middle" x="54" y="-143.7" font-family="Times,serif" font-size="14.00">NASALib</text>
</g>
<g id="clust2" class="cluster">
<title>cluster_pvsio_utils</title>
<polygon fill="none" stroke="black" points="108,-8 108,-84.5 426,-84.5 426,-8 108,-8"/>
<text text-anchor="middle" x="267" y="-67.2" font-family="Times,serif" font-size="14.00">pvsio_utils</text>
</g>
<!-- NASALib/examples -->
<g id="node1" class="node">
<title>NASALib/examples</title>
<polygon fill="#fcfcd7" stroke="black" points="87.88,-128.5 20.12,-128.5 20.12,-92.5 87.88,-92.5 87.88,-128.5"/>
<text text-anchor="middle" x="54" y="-105.45" font-family="Times,serif" font-size="14.00">examples</text>
</g>
<!-- NASALib/pvsio_utils -->
<g id="node2" class="node">
<title>NASALib/pvsio_utils</title>
<polygon fill="#f7e28d" stroke="black" points="91.62,-52 16.38,-52 16.38,-16 91.62,-16 91.62,-52"/>
<text text-anchor="middle" x="54" y="-28.95" font-family="Times,serif" font-size="14.00">pvsio_utils</text>
</g>
<!-- NASALib/examples&#45;&gt;NASALib/pvsio_utils -->
<g id="edge1" class="edge">
<title>NASALib/examples&#45;&gt;NASALib/pvsio_utils</title>
<path fill="none" stroke="black" d="M54,-92.22C54,-83.63 54,-73.03 54,-63.3"/>
<polygon fill="black" stroke="black" points="57.5,-63.44 54,-53.44 50.5,-63.44 57.5,-63.44"/>
</g>
<!-- pvsio_utils/PVSioCSV -->
<g id="node3" class="node">
<title>pvsio_utils/PVSioCSV</title>
<polygon fill="#fcfcd7" stroke="black" points="417.75,-52 340.25,-52 340.25,-16 417.75,-16 417.75,-52"/>
<text text-anchor="middle" x="379" y="-28.95" font-family="Times,serif" font-size="14.00">PVSioCSV</text>
</g>
<!-- NASALib/examples&#45;&gt;pvsio_utils/PVSioCSV -->
<g id="edge2" class="edge">
<title>NASALib/examples&#45;&gt;pvsio_utils/PVSioCSV</title>
<path fill="none" stroke="black" d="M88.24,-106.41C162.36,-99.72 331,-84.5 331,-84.5 331,-84.5 342.91,-72.22 354.87,-59.89"/>
<polygon fill="black" stroke="black" points="356.76,-62.93 361.21,-53.31 351.74,-58.06 356.76,-62.93"/>
</g>
<!-- pvsio_utils/PVSioChecker -->
<g id="node4" class="node">
<title>pvsio_utils/PVSioChecker</title>
<polygon fill="#fcfcd7" stroke="black" points="322.12,-52 225.88,-52 225.88,-16 322.12,-16 322.12,-52"/>
<text text-anchor="middle" x="274" y="-28.95" font-family="Times,serif" font-size="14.00">PVSioChecker</text>
</g>
<!-- NASALib/examples&#45;&gt;pvsio_utils/PVSioChecker -->
<g id="edge3" class="edge">
<title>NASALib/examples&#45;&gt;pvsio_utils/PVSioChecker</title>
<path fill="none" stroke="black" d="M88.17,-104.26C135.97,-96.93 217,-84.5 217,-84.5 217,-84.5 231.68,-71.75 246.15,-59.19"/>
<polygon fill="black" stroke="black" points="247.81,-61.51 253.06,-52.31 243.22,-56.23 247.81,-61.51"/>
</g>
<!-- pvsio_utils/PVSioKeyVal -->
<g id="node5" class="node">
<title>pvsio_utils/PVSioKeyVal</title>
<polygon fill="#fcfcd7" stroke="black" points="207.88,-52 116.12,-52 116.12,-16 207.88,-16 207.88,-52"/>
<text text-anchor="middle" x="162" y="-28.95" font-family="Times,serif" font-size="14.00">PVSioKeyVal</text>
</g>
<!-- NASALib/examples&#45;&gt;pvsio_utils/PVSioKeyVal -->
<g id="edge4" class="edge">
<title>NASALib/examples&#45;&gt;pvsio_utils/PVSioKeyVal</title>
<path fill="none" stroke="black" d="M88.18,-92.41C96.97,-88.02 104,-84.5 104,-84.5 104,-84.5 118.94,-71.75 133.66,-59.19"/>
<polygon fill="black" stroke="black" points="135.38,-61.47 140.71,-52.31 130.84,-56.14 135.38,-61.47"/>
</g>
<!-- pvsio_utils/PVSioCSV&#45;&gt;NASALib/pvsio_utils -->
<g id="edge5" class="edge">
<title>pvsio_utils/PVSioCSV&#45;&gt;NASALib/pvsio_utils</title>
<path fill="none" stroke="black" d="M361.67,-52.23C347.92,-66.7 331,-84.5 331,-84.5 331,-84.5 322,-88.5 322,-88.5 322,-88.5 113,-88.5 113,-88.5 113,-88.5 104,-84.5 104,-84.5 104,-84.5 91.91,-72.29 79.62,-59.88"/>
<polygon fill="black" stroke="black" points="82.57,-57.88 73.05,-53.23 77.6,-62.8 82.57,-57.88"/>
</g>
<!-- pvsio_utils/PVSioChecker&#45;&gt;NASALib/pvsio_utils -->
<g id="edge6" class="edge">
<title>pvsio_utils/PVSioChecker&#45;&gt;NASALib/pvsio_utils</title>
<path fill="none" stroke="black" d="M253.42,-52.23C237.09,-66.7 217,-84.5 217,-84.5 217,-84.5 208,-88.5 208,-88.5 208,-88.5 113,-88.5 113,-88.5 113,-88.5 104,-84.5 104,-84.5 104,-84.5 91.91,-72.29 79.62,-59.88"/>
<polygon fill="black" stroke="black" points="82.57,-57.88 73.05,-53.23 77.6,-62.8 82.57,-57.88"/>
</g>
<!-- pvsio_utils/PVSioKeyVal&#45;&gt;NASALib/pvsio_utils -->
<g id="edge7" class="edge">
<title>pvsio_utils/PVSioKeyVal&#45;&gt;NASALib/pvsio_utils</title>
<path fill="none" stroke="black" d="M115.9,-34C111.86,-34 107.15,-34 102.87,-34"/>
<polygon fill="black" stroke="black" points="102.94,-30.5 92.94,-34 102.94,-37.5 102.94,-30.5"/>
</g>
</g>
</svg>
