<?xml version="1.0" encoding="UTF-8" standalone="no"?>
<!DOCTYPE svg PUBLIC "-//W3C//DTD SVG 1.1//EN"
 "http://www.w3.org/Graphics/SVG/1.1/DTD/svg11.dtd">
<!-- Generated by graphviz version 8.1.0 (20230707.0739)
 -->
<!-- Title: pvsio_utils Pages: 1 -->
<svg width="442pt" height="173pt"
 viewBox="0.00 0.00 442.00 172.50" xmlns="http://www.w3.org/2000/svg" xmlns:xlink="http://www.w3.org/1999/xlink">
<g id="graph0" class="graph" transform="scale(1 1) rotate(0) translate(4 168.5)">
<title>pvsio_utils</title>
<polygon fill="white" stroke="none" points="-4,4 -4,-168.5 438,-168.5 438,4 -4,4"/>
<g id="clust1" class="cluster">
<title>cluster_NASALib</title>
<polygon fill="none" stroke="black" points="8,-8 8,-156.5 100,-156.5 100,-8 8,-8"/>
<text text-anchor="middle" x="54" y="-139.2" font-family="Times,serif" font-size="14.00">NASALib</text>
</g>
<g id="clust2" class="cluster">
<title>cluster_pvsio_utils</title>
<polygon fill="none" stroke="black" points="108,-8 108,-156.5 426,-156.5 426,-8 108,-8"/>
<text text-anchor="middle" x="267" y="-139.2" font-family="Times,serif" font-size="14.00">pvsio_utils</text>
</g>
<!-- nasalib/examples -->
<g id="node1" class="node">
<title>nasalib/examples</title>
<polygon fill="#fcfcd7" stroke="black" points="87.88,-124 20.12,-124 20.12,-88 87.88,-88 87.88,-124"/>
<text text-anchor="middle" x="54" y="-100.95" font-family="Times,serif" font-size="14.00">examples</text>
</g>
<!-- nasalib/pvsio_utils -->
<g id="node2" class="node">
<title>nasalib/pvsio_utils</title>
<polygon fill="#f7e28d" stroke="black" points="91.62,-52 16.38,-52 16.38,-16 91.62,-16 91.62,-52"/>
<text text-anchor="middle" x="54" y="-28.95" font-family="Times,serif" font-size="14.00">pvsio_utils</text>
</g>
<!-- nasalib/examples&#45;&gt;nasalib/pvsio_utils -->
<g id="edge1" class="edge">
<title>nasalib/examples&#45;&gt;nasalib/pvsio_utils</title>
<path fill="none" stroke="black" d="M54,-87.7C54,-80.24 54,-71.32 54,-62.97"/>
<polygon fill="black" stroke="black" points="57.5,-63.1 54,-53.1 50.5,-63.1 57.5,-63.1"/>
</g>
<!-- pvsio_utils/PVSioCSV -->
<g id="node3" class="node">
<title>pvsio_utils/PVSioCSV</title>
<polygon fill="#fcfcd7" stroke="black" points="417.75,-52 340.25,-52 340.25,-16 417.75,-16 417.75,-52"/>
<text text-anchor="middle" x="379" y="-28.95" font-family="Times,serif" font-size="14.00">PVSioCSV</text>
</g>
<!-- nasalib/examples&#45;&gt;pvsio_utils/PVSioCSV -->
<g id="edge2" class="edge">
<title>nasalib/examples&#45;&gt;pvsio_utils/PVSioCSV</title>
<path fill="none" stroke="black" d="M88.18,-93.38C96.97,-90.39 104,-88 104,-88 104,-88 282.48,-59.69 329.06,-51.11"/>
<polygon fill="black" stroke="black" points="329.72,-54.34 338.8,-48.88 328.3,-47.48 329.72,-54.34"/>
</g>
<!-- pvsio_utils/PVSioChecker -->
<g id="node4" class="node">
<title>pvsio_utils/PVSioChecker</title>
<polygon fill="#fcfcd7" stroke="black" points="212.12,-52 115.88,-52 115.88,-16 212.12,-16 212.12,-52"/>
<text text-anchor="middle" x="164" y="-28.95" font-family="Times,serif" font-size="14.00">PVSioChecker</text>
</g>
<!-- nasalib/examples&#45;&gt;pvsio_utils/PVSioChecker -->
<g id="edge3" class="edge">
<title>nasalib/examples&#45;&gt;pvsio_utils/PVSioChecker</title>
<path fill="none" stroke="black" d="M81.47,-87.52C95.49,-78.6 112.72,-67.63 127.81,-58.03"/>
<polygon fill="black" stroke="black" points="129.32,-60.58 135.88,-52.26 125.56,-54.68 129.32,-60.58"/>
</g>
<!-- pvsio_utils/PVSioKeyVal -->
<g id="node5" class="node">
<title>pvsio_utils/PVSioKeyVal</title>
<polygon fill="#fcfcd7" stroke="black" points="321.88,-52 230.12,-52 230.12,-16 321.88,-16 321.88,-52"/>
<text text-anchor="middle" x="276" y="-28.95" font-family="Times,serif" font-size="14.00">PVSioKeyVal</text>
</g>
<!-- nasalib/examples&#45;&gt;pvsio_utils/PVSioKeyVal -->
<g id="edge4" class="edge">
<title>nasalib/examples&#45;&gt;pvsio_utils/PVSioKeyVal</title>
<path fill="none" stroke="black" d="M88.18,-93.38C96.97,-90.39 104,-88 104,-88 104,-88 188.84,-61.89 219.64,-52.41"/>
<polygon fill="black" stroke="black" points="220.56,-55.48 229.08,-49.19 218.49,-48.79 220.56,-55.48"/>
</g>
<!-- pvsio_utils/PVSioCSV&#45;&gt;nasalib/pvsio_utils -->
<g id="edge5" class="edge">
<title>pvsio_utils/PVSioCSV&#45;&gt;nasalib/pvsio_utils</title>
<path fill="none" stroke="black" d="M349.83,-52.42C335.81,-61.28 322,-70 322,-70 322,-70 113,-70 113,-70 113,-70 104.28,-64.68 93.54,-58.12"/>
<polygon fill="black" stroke="black" points="95.55,-54.64 85.19,-52.42 91.9,-60.62 95.55,-54.64"/>
</g>
<!-- pvsio_utils/PVSioChecker&#45;&gt;nasalib/pvsio_utils -->
<g id="edge6" class="edge">
<title>pvsio_utils/PVSioChecker&#45;&gt;nasalib/pvsio_utils</title>
<path fill="none" stroke="black" d="M115.72,-34C111.44,-34 106.59,-34 102.31,-34"/>
<polygon fill="black" stroke="black" points="102.57,-30.5 92.57,-34 102.57,-37.5 102.57,-30.5"/>
</g>
<!-- pvsio_utils/PVSioKeyVal&#45;&gt;nasalib/pvsio_utils -->
<g id="edge7" class="edge">
<title>pvsio_utils/PVSioKeyVal&#45;&gt;nasalib/pvsio_utils</title>
<path fill="none" stroke="black" d="M243.25,-52.42C227.5,-61.28 212,-70 212,-70 212,-70 113,-70 113,-70 113,-70 104.28,-64.68 93.54,-58.12"/>
<polygon fill="black" stroke="black" points="95.55,-54.64 85.19,-52.42 91.9,-60.62 95.55,-54.64"/>
</g>
<!-- pvsio_utils/examples -->
<g id="node6" class="node">
<title>pvsio_utils/examples</title>
<polygon fill="#fcfcd7" stroke="black" points="309.88,-124 242.12,-124 242.12,-88 309.88,-88 309.88,-124"/>
<text text-anchor="middle" x="276" y="-100.95" font-family="Times,serif" font-size="14.00">examples</text>
</g>
<!-- pvsio_utils/examples&#45;&gt;nasalib/pvsio_utils -->
<g id="edge8" class="edge">
<title>pvsio_utils/examples&#45;&gt;nasalib/pvsio_utils</title>
<path fill="none" stroke="black" d="M242.02,-94.53C191.89,-79.08 104,-52 104,-52 104,-52 103.28,-51.75 102.01,-51.32"/>
<polygon fill="black" stroke="black" points="103.49,-47.79 92.9,-47.88 101.24,-54.42 103.49,-47.79"/>
</g>
<!-- pvsio_utils/examples&#45;&gt;pvsio_utils/PVSioCSV -->
<g id="edge9" class="edge">
<title>pvsio_utils/examples&#45;&gt;pvsio_utils/PVSioCSV</title>
<path fill="none" stroke="black" d="M301.73,-87.52C314.73,-78.68 330.68,-67.84 344.71,-58.3"/>
<polygon fill="black" stroke="black" points="346.3,-60.78 352.6,-52.26 342.36,-54.99 346.3,-60.78"/>
</g>
<!-- pvsio_utils/examples&#45;&gt;pvsio_utils/PVSioChecker -->
<g id="edge10" class="edge">
<title>pvsio_utils/examples&#45;&gt;pvsio_utils/PVSioChecker</title>
<path fill="none" stroke="black" d="M248.03,-87.52C233.75,-78.6 216.21,-67.63 200.85,-58.03"/>
<polygon fill="black" stroke="black" points="202.95,-54.59 192.62,-52.26 199.24,-60.53 202.95,-54.59"/>
</g>
<!-- pvsio_utils/examples&#45;&gt;pvsio_utils/PVSioKeyVal -->
<g id="edge11" class="edge">
<title>pvsio_utils/examples&#45;&gt;pvsio_utils/PVSioKeyVal</title>
<path fill="none" stroke="black" d="M276,-87.7C276,-80.24 276,-71.32 276,-62.97"/>
<polygon fill="black" stroke="black" points="279.5,-63.1 276,-53.1 272.5,-63.1 279.5,-63.1"/>
</g>
</g>
</svg>
