<?xml version="1.0" encoding="UTF-8" standalone="no"?>
<!DOCTYPE svg PUBLIC "-//W3C//DTD SVG 1.1//EN"
 "http://www.w3.org/Graphics/SVG/1.1/DTD/svg11.dtd">
<!-- Generated by graphviz version 8.0.4 (20230421.1958)
 -->
<!-- Title: probability&#45;zoomed Pages: 1 -->
<svg width="591pt" height="329pt"
 viewBox="0.00 0.00 591.00 329.00" xmlns="http://www.w3.org/2000/svg" xmlns:xlink="http://www.w3.org/1999/xlink">
<g id="graph0" class="graph" transform="scale(1 1) rotate(0) translate(4 325)">
<title>probability&#45;zoomed</title>
<polygon fill="white" stroke="none" points="-4,4 -4,-325 587,-325 587,4 -4,4"/>
<g id="clust1" class="cluster">
<title>cluster_NASALib</title>
<polygon fill="none" stroke="black" points="8,-8 8,-84.5 575,-84.5 575,-8 8,-8"/>
<text text-anchor="middle" x="291.5" y="-67.2" font-family="Times,serif" font-size="14.00">NASALib</text>
</g>
<g id="clust2" class="cluster">
<title>cluster_NASALib/probability</title>
<polygon fill="none" stroke="black" points="84,-92.5 84,-313 508,-313 508,-92.5 84,-92.5"/>
<text text-anchor="middle" x="296" y="-295.7" font-family="Times,serif" font-size="14.00">NASALib/probability</text>
</g>
<!-- NASALib/analysis -->
<g id="node1" class="node">
<title>NASALib/analysis</title>
<polygon fill="#fcfcd7" stroke="black" points="421.75,-52 362.25,-52 362.25,-16 421.75,-16 421.75,-52"/>
<text text-anchor="middle" x="392" y="-28.95" font-family="Times,serif" font-size="14.00">analysis</text>
</g>
<!-- NASALib/measure_integration -->
<g id="node2" class="node">
<title>NASALib/measure_integration</title>
<polygon fill="#fcfcd7" stroke="black" points="566.5,-52 439.5,-52 439.5,-16 566.5,-16 566.5,-52"/>
<text text-anchor="middle" x="503" y="-28.95" font-family="Times,serif" font-size="14.00">measure_integration</text>
</g>
<!-- NASALib/metric_space -->
<g id="node3" class="node">
<title>NASALib/metric_space</title>
<polygon fill="#fcfcd7" stroke="black" points="262,-52 174,-52 174,-16 262,-16 262,-52"/>
<text text-anchor="middle" x="218" y="-28.95" font-family="Times,serif" font-size="14.00">metric_space</text>
</g>
<!-- NASALib/probability@conditional -->
<g id="node4" class="node">
<title>NASALib/probability@conditional</title>
<ellipse fill="#e6f3ff" stroke="black" cx="245" cy="-190.5" rx="52.38" ry="18"/>
<text text-anchor="middle" x="245" y="-185.45" font-family="Times,serif" font-size="14.00">conditional</text>
</g>
<!-- NASALib/probability@conditional&#45;&gt;NASALib/measure_integration -->
<g id="edge1" class="edge">
<title>NASALib/probability@conditional&#45;&gt;NASALib/measure_integration</title>
<path fill="none" stroke="black" d="M284.97,-178.54C296.96,-175.25 307,-172.5 307,-172.5 307,-172.5 509,-136.5 509,-136.5 509,-136.5 528,-119.5 528,-119.5"/>
<path fill="none" stroke="black" d="M528,-117.5C528,-117.5 518.71,-86.83 511.45,-62.89"/>
<polygon fill="black" stroke="black" points="514.55,-62.05 508.3,-53.5 507.85,-64.08 514.55,-62.05"/>
</g>
<!-- NASALib/probability@probability_measure -->
<g id="node7" class="node">
<title>NASALib/probability@probability_measure</title>
<ellipse fill="#e6f3ff" stroke="black" cx="179" cy="-118.5" rx="87.18" ry="18"/>
<text text-anchor="middle" x="179" y="-113.45" font-family="Times,serif" font-size="14.00">probability_measure</text>
</g>
<!-- NASALib/probability@conditional&#45;&gt;NASALib/probability@probability_measure -->
<g id="edge2" class="edge">
<title>NASALib/probability@conditional&#45;&gt;NASALib/probability@probability_measure</title>
<path fill="none" stroke="black" d="M229.36,-172.91C221.34,-164.41 211.41,-153.87 202.49,-144.41"/>
<polygon fill="black" stroke="black" points="205.39,-142.33 195.99,-137.46 200.3,-147.13 205.39,-142.33"/>
</g>
<!-- NASALib/probability@continuous_functions_aux -->
<g id="node5" class="node">
<title>NASALib/probability@continuous_functions_aux</title>
<ellipse fill="#e6f3ff" stroke="black" cx="392" cy="-118.5" rx="108.16" ry="18"/>
<text text-anchor="middle" x="392" y="-113.45" font-family="Times,serif" font-size="14.00">continuous_functions_aux</text>
</g>
<!-- NASALib/probability@continuous_functions_aux&#45;&gt;NASALib/analysis -->
<g id="edge3" class="edge">
<title>NASALib/probability@continuous_functions_aux&#45;&gt;NASALib/analysis</title>
<path fill="none" stroke="black" d="M392,-100C392,-89.39 392,-75.6 392,-63.46"/>
<polygon fill="black" stroke="black" points="395.5,-63.47 392,-53.47 388.5,-63.47 395.5,-63.47"/>
</g>
<!-- NASALib/probability@expectation -->
<g id="node6" class="node">
<title>NASALib/probability@expectation</title>
<ellipse fill="#e6f3ff" stroke="black" cx="392" cy="-262.5" rx="53.4" ry="18"/>
<text text-anchor="middle" x="392" y="-257.45" font-family="Times,serif" font-size="14.00">expectation</text>
</g>
<!-- NASALib/probability@expectation&#45;&gt;NASALib/measure_integration -->
<g id="edge4" class="edge">
<title>NASALib/probability@expectation&#45;&gt;NASALib/measure_integration</title>
<path fill="none" stroke="black" d="M423.53,-247.57C459.08,-231.87 512,-208.5 512,-208.5 512,-208.5 528,-119.5 528,-119.5"/>
</g>
<!-- NASALib/probability@expectation&#45;&gt;NASALib/probability@probability_measure -->
<g id="edge5" class="edge">
<title>NASALib/probability@expectation&#45;&gt;NASALib/probability@probability_measure</title>
<path fill="none" stroke="black" d="M350.41,-250.9C289.71,-235.44 184,-208.5 184,-208.5 184,-208.5 182.04,-173.61 180.57,-147.52"/>
<polygon fill="black" stroke="black" points="184.02,-147.45 179.96,-137.66 177.03,-147.84 184.02,-147.45"/>
</g>
<!-- NASALib/probability@probability_space -->
<g id="node8" class="node">
<title>NASALib/probability@probability_space</title>
<ellipse fill="#e6f3ff" stroke="black" cx="392" cy="-190.5" rx="76.43" ry="18"/>
<text text-anchor="middle" x="392" y="-185.45" font-family="Times,serif" font-size="14.00">probability_space</text>
</g>
<!-- NASALib/probability@expectation&#45;&gt;NASALib/probability@probability_space -->
<g id="edge6" class="edge">
<title>NASALib/probability@expectation&#45;&gt;NASALib/probability@probability_space</title>
<path fill="none" stroke="black" d="M392,-244.2C392,-236.74 392,-227.82 392,-219.47"/>
<polygon fill="black" stroke="black" points="395.5,-219.6 392,-209.6 388.5,-219.6 395.5,-219.6"/>
</g>
<!-- NASALib/probability@probability_measure&#45;&gt;NASALib/measure_integration -->
<g id="edge7" class="edge">
<title>NASALib/probability@probability_measure&#45;&gt;NASALib/measure_integration</title>
<path fill="none" stroke="black" d="M231.77,-103.76C254.08,-97.95 275,-92.5 275,-92.5 275,-92.5 431,-84.5 431,-84.5 431,-84.5 450.24,-71.27 468.83,-58.49"/>
<polygon fill="black" stroke="black" points="470.56,-60.86 476.82,-52.31 466.59,-55.09 470.56,-60.86"/>
</g>
<!-- NASALib/probability@probability_measure&#45;&gt;NASALib/metric_space -->
<g id="edge8" class="edge">
<title>NASALib/probability@probability_measure&#45;&gt;NASALib/metric_space</title>
<path fill="none" stroke="black" d="M187.08,-100.41C192.33,-89.31 199.28,-74.61 205.26,-61.96"/>
<polygon fill="black" stroke="black" points="208.69,-63.89 209.8,-53.36 202.36,-60.9 208.69,-63.89"/>
</g>
<!-- NASALib/reals -->
<g id="node9" class="node">
<title>NASALib/reals</title>
<polygon fill="#fcfcd7" stroke="black" points="156,-52 102,-52 102,-16 156,-16 156,-52"/>
<text text-anchor="middle" x="129" y="-28.95" font-family="Times,serif" font-size="14.00">reals</text>
</g>
<!-- NASALib/probability@probability_measure&#45;&gt;NASALib/reals -->
<g id="edge9" class="edge">
<title>NASALib/probability@probability_measure&#45;&gt;NASALib/reals</title>
<path fill="none" stroke="black" d="M168.64,-100.41C161.85,-89.2 152.83,-74.32 145.11,-61.58"/>
<polygon fill="black" stroke="black" points="147.7,-60.09 139.52,-53.36 141.71,-63.72 147.7,-60.09"/>
</g>
<!-- NASALib/structures -->
<g id="node10" class="node">
<title>NASALib/structures</title>
<polygon fill="#fcfcd7" stroke="black" points="84.25,-52 15.75,-52 15.75,-16 84.25,-16 84.25,-52"/>
<text text-anchor="middle" x="50" y="-28.95" font-family="Times,serif" font-size="14.00">structures</text>
</g>
<!-- NASALib/probability@probability_measure&#45;&gt;NASALib/structures -->
<g id="edge10" class="edge">
<title>NASALib/probability@probability_measure&#45;&gt;NASALib/structures</title>
<path fill="none" stroke="black" d="M138.77,-102.06C116.39,-93.47 93,-84.5 93,-84.5 93,-84.5 82.73,-72.67 72.22,-60.58"/>
<polygon fill="black" stroke="black" points="74.24,-58.57 65.04,-53.31 68.96,-63.16 74.24,-58.57"/>
</g>
<!-- NASALib/topology -->
<g id="node11" class="node">
<title>NASALib/topology</title>
<polygon fill="#fcfcd7" stroke="black" points="344,-52 280,-52 280,-16 344,-16 344,-52"/>
<text text-anchor="middle" x="312" y="-28.95" font-family="Times,serif" font-size="14.00">topology</text>
</g>
<!-- NASALib/probability@probability_measure&#45;&gt;NASALib/topology -->
<g id="edge11" class="edge">
<title>NASALib/probability@probability_measure&#45;&gt;NASALib/topology</title>
<path fill="none" stroke="black" d="M221.23,-102.35C245.42,-93.68 271,-84.5 271,-84.5 271,-84.5 280.79,-72.67 290.81,-60.58"/>
<polygon fill="black" stroke="black" points="293.98,-63.25 297.66,-53.31 288.59,-58.78 293.98,-63.25"/>
</g>
<!-- NASALib/probability@probability_space&#45;&gt;NASALib/measure_integration -->
<g id="edge12" class="edge">
<title>NASALib/probability@probability_space&#45;&gt;NASALib/measure_integration</title>
<path fill="none" stroke="black" d="M426.16,-174.03C460.69,-158.38 509,-136.5 509,-136.5 509,-136.5 528,-119.5 528,-119.5"/>
</g>
<!-- NASALib/probability@probability_space&#45;&gt;NASALib/probability@continuous_functions_aux -->
<g id="edge13" class="edge">
<title>NASALib/probability@probability_space&#45;&gt;NASALib/probability@continuous_functions_aux</title>
<path fill="none" stroke="black" d="M392,-172.2C392,-164.74 392,-155.82 392,-147.47"/>
<polygon fill="black" stroke="black" points="395.5,-147.6 392,-137.6 388.5,-147.6 395.5,-147.6"/>
</g>
<!-- NASALib/probability@probability_space&#45;&gt;NASALib/probability@probability_measure -->
<g id="edge14" class="edge">
<title>NASALib/probability@probability_space&#45;&gt;NASALib/probability@probability_measure</title>
<path fill="none" stroke="black" d="M348.64,-175.25C315.65,-164.41 270.01,-149.41 234.37,-137.7"/>
<polygon fill="black" stroke="black" points="235.73,-134.13 225.14,-134.33 233.54,-140.78 235.73,-134.13"/>
</g>
</g>
</svg>
