<?xml version="1.0" encoding="UTF-8" standalone="no"?>
<!DOCTYPE svg PUBLIC "-//W3C//DTD SVG 1.1//EN"
 "http://www.w3.org/Graphics/SVG/1.1/DTD/svg11.dtd">
<!-- Generated by graphviz version 7.0.6 (20230106.0513)
 -->
<!-- Title: probability Pages: 1 -->
<svg width="910pt" height="894pt"
 viewBox="0.00 0.00 910.00 894.00" xmlns="http://www.w3.org/2000/svg" xmlns:xlink="http://www.w3.org/1999/xlink">
<g id="graph0" class="graph" transform="scale(1 1) rotate(0) translate(4 890)">
<title>probability</title>
<polygon fill="white" stroke="none" points="-4,4 -4,-890 906,-890 906,4 -4,4"/>
<g id="clust1" class="cluster">
<title>cluster_NASALib</title>
<polygon fill="none" stroke="black" points="8,-8 8,-878 798,-878 798,-8 8,-8"/>
<text text-anchor="middle" x="403" y="-862.8" font-family="Times,serif" font-size="14.00">NASALib</text>
</g>
<g id="clust2" class="cluster">
<title>cluster_PVS Prelude</title>
<polygon fill="none" stroke="black" points="806,-8 806,-83 894,-83 894,-8 806,-8"/>
<text text-anchor="middle" x="850" y="-67.8" font-family="Times,serif" font-size="14.00">PVS Prelude</text>
</g>
<!-- NASALib/analysis -->
<g id="node1" class="node">
<title>NASALib/analysis</title>
<polygon fill="#fcfcd7" stroke="black" points="327,-775 267,-775 267,-739 327,-739 327,-775"/>
<text text-anchor="middle" x="297" y="-753.3" font-family="Times,serif" font-size="14.00">analysis</text>
</g>
<!-- NASALib/ints -->
<g id="node3" class="node">
<title>NASALib/ints</title>
<polygon fill="#fcfcd7" stroke="black" points="482,-52 428,-52 428,-16 482,-16 482,-52"/>
<text text-anchor="middle" x="455" y="-30.3" font-family="Times,serif" font-size="14.00">ints</text>
</g>
<!-- NASALib/analysis&#45;&gt;NASALib/ints -->
<g id="edge1" class="edge">
<title>NASALib/analysis&#45;&gt;NASALib/ints</title>
<path fill="none" stroke="black" d="M57,-684C57,-684 64,-595 64,-595 64,-595 77,-542 77,-542"/>
<path fill="none" stroke="black" d="M117,-180C117,-180 241,-110 241,-110"/>
<path fill="none" stroke="black" d="M77,-540C77,-540 77,-398 77,-398 77,-398 77,-398 77,-324 77,-324 117,-182 117,-182"/>
<path fill="none" stroke="black" d="M266.6,-747.13C202.02,-728.3 57,-686 57,-686"/>
<path fill="none" stroke="black" d="M241,-108C241,-108 355.6,-68.91 417.08,-47.94"/>
<polygon fill="black" stroke="black" points="418.13,-51.28 426.46,-44.73 415.87,-44.65 418.13,-51.28"/>
</g>
<!-- NASALib/orders -->
<g id="node8" class="node">
<title>NASALib/orders</title>
<polygon fill="#fcfcd7" stroke="black" points="582,-199 528,-199 528,-163 582,-163 582,-199"/>
<text text-anchor="middle" x="555" y="-177.3" font-family="Times,serif" font-size="14.00">orders</text>
</g>
<!-- NASALib/analysis&#45;&gt;NASALib/orders -->
<g id="edge2" class="edge">
<title>NASALib/analysis&#45;&gt;NASALib/orders</title>
<path fill="none" stroke="black" d="M327.49,-751.93C420.46,-739.52 694,-703 694,-703 694,-703 769,-614 769,-614 769,-614 769,-614 769,-540 769,-540 719,-379 719,-379 719,-379 669,-326 669,-326"/>
</g>
<!-- NASALib/reals -->
<g id="node11" class="node">
<title>NASALib/reals</title>
<polygon fill="#fcfcd7" stroke="black" points="324,-703 270,-703 270,-667 324,-667 324,-703"/>
<text text-anchor="middle" x="297" y="-681.3" font-family="Times,serif" font-size="14.00">reals</text>
</g>
<!-- NASALib/analysis&#45;&gt;NASALib/reals -->
<g id="edge3" class="edge">
<title>NASALib/analysis&#45;&gt;NASALib/reals</title>
<path fill="none" stroke="black" d="M297,-738.7C297,-731.41 297,-722.73 297,-714.54"/>
<polygon fill="black" stroke="black" points="300.5,-714.62 297,-704.62 293.5,-714.62 300.5,-714.62"/>
</g>
<!-- NASALib/structures -->
<g id="node15" class="node">
<title>NASALib/structures</title>
<polygon fill="#fcfcd7" stroke="black" points="489.5,-127 420.5,-127 420.5,-91 489.5,-91 489.5,-127"/>
<text text-anchor="middle" x="455" y="-105.3" font-family="Times,serif" font-size="14.00">structures</text>
</g>
<!-- NASALib/analysis&#45;&gt;NASALib/structures -->
<g id="edge4" class="edge">
<title>NASALib/analysis&#45;&gt;NASALib/structures</title>
<path fill="none" stroke="black" d="M57,-684C57,-684 82,-559 82,-559 82,-559 97,-470 97,-470 97,-470 97,-470 97,-324 97,-324 107,-307 107,-307 107,-307 322.49,-185.01 414.33,-133.02"/>
<polygon fill="black" stroke="black" points="415.82,-136.2 422.8,-128.23 412.37,-130.11 415.82,-136.2"/>
</g>
<!-- lib/finite_sets -->
<g id="node19" class="node">
<title>lib/finite_sets</title>
<polygon fill="#fcfcd7" stroke="black" points="886,-52 814,-52 814,-16 886,-16 886,-52"/>
<text text-anchor="middle" x="850" y="-30.3" font-family="Times,serif" font-size="14.00">finite_sets</text>
</g>
<!-- NASALib/analysis&#45;&gt;lib/finite_sets -->
<g id="edge5" class="edge">
<title>NASALib/analysis&#45;&gt;lib/finite_sets</title>
<path fill="none" stroke="black" d="M327.25,-752.15C422.98,-739.95 713,-703 713,-703 713,-703 767,-631 767,-631 767,-631 802,-559 802,-559 802,-559 818,-470 818,-470"/>
</g>
<!-- NASALib/extended_nnreal -->
<g id="node2" class="node">
<title>NASALib/extended_nnreal</title>
<polygon fill="#fcfcd7" stroke="black" points="650,-487 544,-487 544,-451 650,-451 650,-487"/>
<text text-anchor="middle" x="597" y="-465.3" font-family="Times,serif" font-size="14.00">extended_nnreal</text>
</g>
<!-- NASALib/extended_nnreal&#45;&gt;NASALib/analysis -->
<g id="edge6" class="edge">
<title>NASALib/extended_nnreal&#45;&gt;NASALib/analysis</title>
<path fill="none" stroke="black" d="M622.21,-487.35C644.67,-502.81 674,-523 674,-523 674,-523 684.53,-636.03 687.95,-672.68"/>
<polygon fill="black" stroke="black" points="684.45,-672.86 688.86,-682.49 691.42,-672.21 684.45,-672.86"/>
</g>
<!-- NASALib/extended_nnreal&#45;&gt;NASALib/reals -->
<g id="edge7" class="edge">
<title>NASALib/extended_nnreal&#45;&gt;NASALib/reals</title>
<path fill="none" stroke="black" d="M669,-542C669,-542 649,-612 649,-612"/>
<path fill="none" stroke="black" d="M615.66,-487.35C632.29,-502.81 654,-523 654,-523 654,-523 657.75,-527.25 661.5,-531.5"/>
<polygon fill="black" stroke="black" points="658.76,-533.68 668,-538.87 664.01,-529.05 658.76,-533.68"/>
</g>
<!-- NASALib/series -->
<g id="node12" class="node">
<title>NASALib/series</title>
<polygon fill="#fcfcd7" stroke="black" points="436,-271 382,-271 382,-235 436,-235 436,-271"/>
<text text-anchor="middle" x="409" y="-249.3" font-family="Times,serif" font-size="14.00">series</text>
</g>
<!-- NASALib/extended_nnreal&#45;&gt;NASALib/series -->
<g id="edge8" class="edge">
<title>NASALib/extended_nnreal&#45;&gt;NASALib/series</title>
<path fill="none" stroke="black" d="M593.32,-450.59C585.31,-412.67 567,-326 567,-326"/>
<path fill="none" stroke="black" d="M567,-324C567,-324 493.27,-291.33 446.54,-270.63"/>
<polygon fill="black" stroke="black" points="448.11,-267.5 437.54,-266.65 445.27,-273.9 448.11,-267.5"/>
</g>
<!-- NASALib/sigma_set -->
<g id="node14" class="node">
<title>NASALib/sigma_set</title>
<polygon fill="#fcfcd7" stroke="black" points="704.5,-415 633.5,-415 633.5,-379 704.5,-379 704.5,-415"/>
<text text-anchor="middle" x="669" y="-393.3" font-family="Times,serif" font-size="14.00">sigma_set</text>
</g>
<!-- NASALib/extended_nnreal&#45;&gt;NASALib/sigma_set -->
<g id="edge9" class="edge">
<title>NASALib/extended_nnreal&#45;&gt;NASALib/sigma_set</title>
<path fill="none" stroke="black" d="M614.8,-450.7C623.28,-442.45 633.59,-432.43 642.93,-423.35"/>
<polygon fill="black" stroke="black" points="645.34,-425.88 650.07,-416.4 640.46,-420.86 645.34,-425.88"/>
</g>
<!-- NASALib/lebesgue -->
<g id="node4" class="node">
<title>NASALib/lebesgue</title>
<polygon fill="#fcfcd7" stroke="black" points="554,-631 490,-631 490,-595 554,-595 554,-631"/>
<text text-anchor="middle" x="522" y="-609.3" font-family="Times,serif" font-size="14.00">lebesgue</text>
</g>
<!-- NASALib/lebesgue&#45;&gt;NASALib/analysis -->
<g id="edge10" class="edge">
<title>NASALib/lebesgue&#45;&gt;NASALib/analysis</title>
<path fill="none" stroke="black" d="M554.2,-627.5C592.49,-643.55 654.28,-669.45 678.65,-679.66"/>
<polygon fill="black" stroke="black" points="677.03,-682.78 687.6,-683.41 679.73,-676.32 677.03,-682.78"/>
<path fill="none" stroke="black" d="M689,-686C689,-686 419.54,-734.12 327.43,-750.57"/>
</g>
<!-- NASALib/lebesgue&#45;&gt;NASALib/extended_nnreal -->
<g id="edge11" class="edge">
<title>NASALib/lebesgue&#45;&gt;NASALib/extended_nnreal</title>
<path fill="none" stroke="black" d="M649,-540C649,-540 631.3,-516.18 616.56,-496.33"/>
<polygon fill="black" stroke="black" points="619.53,-494.46 610.76,-488.52 613.91,-498.63 619.53,-494.46"/>
<path fill="none" stroke="black" d="M554.42,-594.65C583.29,-579.19 621,-559 621,-559 621,-559 649,-542 649,-542"/>
</g>
<!-- NASALib/measure_integration -->
<g id="node6" class="node">
<title>NASALib/measure_integration</title>
<polygon fill="#fcfcd7" stroke="black" points="612,-559 484,-559 484,-523 612,-523 612,-559"/>
<text text-anchor="middle" x="548" y="-537.3" font-family="Times,serif" font-size="14.00">measure_integration</text>
</g>
<!-- NASALib/lebesgue&#45;&gt;NASALib/measure_integration -->
<g id="edge12" class="edge">
<title>NASALib/lebesgue&#45;&gt;NASALib/measure_integration</title>
<path fill="none" stroke="black" d="M528.43,-594.7C531.23,-587.15 534.58,-578.12 537.72,-569.68"/>
<polygon fill="black" stroke="black" points="540.92,-571.12 541.12,-560.52 534.36,-568.68 540.92,-571.12"/>
</g>
<!-- NASALib/metric_space -->
<g id="node7" class="node">
<title>NASALib/metric_space</title>
<polygon fill="#fcfcd7" stroke="black" points="425.5,-487 336.5,-487 336.5,-451 425.5,-451 425.5,-487"/>
<text text-anchor="middle" x="381" y="-465.3" font-family="Times,serif" font-size="14.00">metric_space</text>
</g>
<!-- NASALib/lebesgue&#45;&gt;NASALib/metric_space -->
<g id="edge13" class="edge">
<title>NASALib/lebesgue&#45;&gt;NASALib/metric_space</title>
<path fill="none" stroke="black" d="M506.61,-594.65C492.9,-579.19 475,-559 475,-559 475,-559 465,-542 465,-542"/>
<path fill="none" stroke="black" d="M465,-540C465,-540 434.57,-514.64 410.34,-494.45"/>
<polygon fill="black" stroke="black" points="412.85,-491.99 402.93,-488.27 408.37,-497.36 412.85,-491.99"/>
</g>
<!-- NASALib/power -->
<g id="node9" class="node">
<title>NASALib/power</title>
<polygon fill="#fcfcd7" stroke="black" points="250,-415 196,-415 196,-379 250,-379 250,-415"/>
<text text-anchor="middle" x="223" y="-393.3" font-family="Times,serif" font-size="14.00">power</text>
</g>
<!-- NASALib/lebesgue&#45;&gt;NASALib/power -->
<g id="edge14" class="edge">
<title>NASALib/lebesgue&#45;&gt;NASALib/power</title>
<path fill="none" stroke="black" d="M317,-540C317,-540 268.03,-466.03 240.78,-424.87"/>
<polygon fill="black" stroke="black" points="243.8,-423.08 235.36,-416.67 237.96,-426.94 243.8,-423.08"/>
<path fill="none" stroke="black" d="M489.52,-600.91C431.71,-581.17 317,-542 317,-542"/>
</g>
<!-- NASALib/sets_aux -->
<g id="node13" class="node">
<title>NASALib/sets_aux</title>
<polygon fill="#fcfcd7" stroke="black" points="649.5,-343 586.5,-343 586.5,-307 649.5,-307 649.5,-343"/>
<text text-anchor="middle" x="618" y="-321.3" font-family="Times,serif" font-size="14.00">sets_aux</text>
</g>
<!-- NASALib/lebesgue&#45;&gt;NASALib/sets_aux -->
<g id="edge16" class="edge">
<title>NASALib/lebesgue&#45;&gt;NASALib/sets_aux</title>
<path fill="none" stroke="black" d="M465,-540C465,-540 475,-523 475,-523 475,-523 520,-451 520,-451 520,-451 568.82,-388.73 597.55,-352.09"/>
<polygon fill="black" stroke="black" points="600.02,-354.6 603.44,-344.57 594.52,-350.28 600.02,-354.6"/>
</g>
<!-- NASALib/lebesgue&#45;&gt;NASALib/sigma_set -->
<g id="edge17" class="edge">
<title>NASALib/lebesgue&#45;&gt;NASALib/sigma_set</title>
<path fill="none" stroke="black" d="M649,-540C649,-540 659,-487 659,-487 659,-487 662.88,-452.42 665.81,-426.37"/>
<polygon fill="black" stroke="black" points="669.26,-426.99 666.9,-416.66 662.31,-426.21 669.26,-426.99"/>
</g>
<!-- NASALib/lebesgue&#45;&gt;NASALib/structures -->
<g id="edge18" class="edge">
<title>NASALib/lebesgue&#45;&gt;NASALib/structures</title>
<path fill="none" stroke="black" d="M317,-540C317,-540 327,-451 327,-451 327,-451 363,-326 363,-326"/>
</g>
<!-- NASALib/topology -->
<g id="node16" class="node">
<title>NASALib/topology</title>
<polygon fill="#fcfcd7" stroke="black" points="507.5,-415 442.5,-415 442.5,-379 507.5,-379 507.5,-415"/>
<text text-anchor="middle" x="475" y="-393.3" font-family="Times,serif" font-size="14.00">topology</text>
</g>
<!-- NASALib/lebesgue&#45;&gt;NASALib/topology -->
<g id="edge19" class="edge">
<title>NASALib/lebesgue&#45;&gt;NASALib/topology</title>
<path fill="none" stroke="black" d="M465,-540C465,-540 470.06,-468.2 472.98,-426.71"/>
<polygon fill="black" stroke="black" points="476.46,-427.14 473.67,-416.92 469.47,-426.65 476.46,-427.14"/>
</g>
<!-- NASALib/lnexp -->
<g id="node5" class="node">
<title>NASALib/lnexp</title>
<polygon fill="#fcfcd7" stroke="black" points="170,-343 116,-343 116,-307 170,-307 170,-343"/>
<text text-anchor="middle" x="143" y="-321.3" font-family="Times,serif" font-size="14.00">lnexp</text>
</g>
<!-- NASALib/lnexp&#45;&gt;NASALib/analysis -->
<g id="edge20" class="edge">
<title>NASALib/lnexp&#45;&gt;NASALib/analysis</title>
<path fill="none" stroke="black" d="M177,-614C177,-614 217,-684 217,-684"/>
<path fill="none" stroke="black" d="M217,-686C217,-686 253.53,-717.97 277.22,-738.7"/>
<path fill="none" stroke="black" d="M137,-542C137,-542 177,-612 177,-612"/>
<path fill="none" stroke="black" d="M142.26,-343.41C141.02,-372.89 138.53,-431.82 137.48,-456.6"/>
<polygon fill="black" stroke="black" points="133.99,-456.35 137.06,-466.49 140.98,-456.64 133.99,-456.35"/>
<path fill="none" stroke="black" d="M137,-470C137,-470 137,-540 137,-540"/>
</g>
<!-- NASALib/lnexp&#45;&gt;NASALib/ints -->
<g id="edge21" class="edge">
<title>NASALib/lnexp&#45;&gt;NASALib/ints</title>
<path fill="none" stroke="black" d="M139.81,-306.59C132.87,-268.67 117,-182 117,-182"/>
</g>
<!-- NASALib/lnexp&#45;&gt;NASALib/reals -->
<g id="edge22" class="edge">
<title>NASALib/lnexp&#45;&gt;NASALib/reals</title>
<path fill="none" stroke="black" d="M137,-470C137,-470 185,-559 185,-559 185,-559 228,-631 228,-631 228,-631 254.28,-651.19 274.41,-666.65"/>
</g>
<!-- NASALib/lnexp&#45;&gt;NASALib/series -->
<g id="edge23" class="edge">
<title>NASALib/lnexp&#45;&gt;NASALib/series</title>
<path fill="none" stroke="black" d="M170.29,-311.12C175.31,-308.74 179,-307 179,-307 179,-307 305.18,-277.92 370.62,-262.84"/>
<polygon fill="black" stroke="black" points="371.28,-266.28 380.24,-260.63 369.71,-259.46 371.28,-266.28"/>
</g>
<!-- NASALib/measure_integration&#45;&gt;NASALib/extended_nnreal -->
<g id="edge24" class="edge">
<title>NASALib/measure_integration&#45;&gt;NASALib/extended_nnreal</title>
<path fill="none" stroke="black" d="M560.11,-522.7C565.69,-514.73 572.43,-505.1 578.62,-496.26"/>
<polygon fill="black" stroke="black" points="581.29,-498.54 584.16,-488.34 575.56,-494.53 581.29,-498.54"/>
</g>
<!-- NASALib/measure_integration&#45;&gt;NASALib/metric_space -->
<g id="edge25" class="edge">
<title>NASALib/measure_integration&#45;&gt;NASALib/metric_space</title>
<path fill="none" stroke="black" d="M506.29,-522.52C484.09,-513.21 456.58,-501.68 432.99,-491.79"/>
<polygon fill="black" stroke="black" points="434.44,-488.6 423.86,-487.97 431.73,-495.06 434.44,-488.6"/>
</g>
<!-- NASALib/measure_integration&#45;&gt;NASALib/orders -->
<g id="edge26" class="edge">
<title>NASALib/measure_integration&#45;&gt;NASALib/orders</title>
<path fill="none" stroke="black" d="M614,-396C614,-396 625,-379 625,-379 625,-379 659,-343 659,-343 659,-343 669,-326 669,-326"/>
<path fill="none" stroke="black" d="M669,-324C669,-324 659,-307 659,-307 659,-307 607.19,-244.73 576.71,-208.09"/>
<polygon fill="black" stroke="black" points="579.52,-205.99 570.43,-200.54 574.13,-210.47 579.52,-205.99"/>
</g>
<!-- NASALib/measure_integration&#45;&gt;NASALib/power -->
<g id="edge27" class="edge">
<title>NASALib/measure_integration&#45;&gt;NASALib/power</title>
<path fill="none" stroke="black" d="M483.78,-524.6C418.53,-508.95 327,-487 327,-487 327,-487 282.49,-448.91 251.71,-422.57"/>
<polygon fill="black" stroke="black" points="254.08,-419.99 244.2,-416.14 249.52,-425.31 254.08,-419.99"/>
</g>
<!-- NASALib/measure_integration&#45;&gt;NASALib/reals -->
<g id="edge28" class="edge">
<title>NASALib/measure_integration&#45;&gt;NASALib/reals</title>
<path fill="none" stroke="black" d="M649,-614C649,-614 407.03,-662.12 324.33,-678.57"/>
<path fill="none" stroke="black" d="M573.23,-559.48C594.96,-574.55 625.11,-595.44 639.98,-605.75"/>
<polygon fill="black" stroke="black" points="637.54,-608.32 647.76,-611.14 641.53,-602.56 637.54,-608.32"/>
</g>
<!-- NASALib/measure_integration&#45;&gt;NASALib/series -->
<g id="edge29" class="edge">
<title>NASALib/measure_integration&#45;&gt;NASALib/series</title>
<path fill="none" stroke="black" d="M485,-468C485,-468 403,-398 403,-398"/>
<path fill="none" stroke="black" d="M532.43,-522.7C513.77,-501.97 485,-470 485,-470"/>
</g>
<!-- NASALib/measure_integration&#45;&gt;NASALib/sets_aux -->
<g id="edge30" class="edge">
<title>NASALib/measure_integration&#45;&gt;NASALib/sets_aux</title>
<path fill="none" stroke="black" d="M525,-468C525,-468 535,-451 535,-451 535,-451 614,-398 614,-398"/>
<path fill="none" stroke="black" d="M614,-396C614,-396 615.25,-374.08 616.36,-354.77"/>
<polygon fill="black" stroke="black" points="619.85,-355 616.92,-344.81 612.86,-354.6 619.85,-355"/>
</g>
<!-- NASALib/measure_integration&#45;&gt;NASALib/sigma_set -->
<g id="edge31" class="edge">
<title>NASALib/measure_integration&#45;&gt;NASALib/sigma_set</title>
<path fill="none" stroke="black" d="M525,-468C525,-468 535,-451 535,-451 535,-451 583.79,-431.7 622.49,-416.4"/>
<polygon fill="black" stroke="black" points="623.67,-419.69 631.68,-412.76 621.1,-413.18 623.67,-419.69"/>
</g>
<!-- NASALib/measure_integration&#45;&gt;NASALib/structures -->
<g id="edge32" class="edge">
<title>NASALib/measure_integration&#45;&gt;NASALib/structures</title>
<path fill="none" stroke="black" d="M542.31,-522.7C535.5,-501.97 525,-470 525,-470"/>
<path fill="none" stroke="black" d="M525,-468C525,-468 527,-326 527,-326"/>
</g>
<!-- NASALib/measure_integration&#45;&gt;NASALib/topology -->
<g id="edge33" class="edge">
<title>NASALib/measure_integration&#45;&gt;NASALib/topology</title>
<path fill="none" stroke="black" d="M485,-468C485,-468 481.84,-445.87 479.07,-426.5"/>
<polygon fill="black" stroke="black" points="482.57,-426.21 477.69,-416.8 475.64,-427.2 482.57,-426.21"/>
</g>
<!-- NASALib/measure_integration&#45;&gt;lib/finite_sets -->
<g id="edge34" class="edge">
<title>NASALib/measure_integration&#45;&gt;lib/finite_sets</title>
<path fill="none" stroke="black" d="M612.42,-526.56C687.67,-510.86 802,-487 802,-487 802,-487 818,-470 818,-470"/>
<path fill="none" stroke="black" d="M818,-468C818,-468 818,-398 818,-398"/>
</g>
<!-- NASALib/metric_space&#45;&gt;NASALib/analysis -->
<g id="edge35" class="edge">
<title>NASALib/metric_space&#45;&gt;NASALib/analysis</title>
<path fill="none" stroke="black" d="M345.31,-487.35C313.52,-502.81 272,-523 272,-523 272,-523 237.07,-579.52 222.89,-602.48"/>
<polygon fill="black" stroke="black" points="220.08,-600.37 217.8,-610.71 226.03,-604.05 220.08,-600.37"/>
</g>
<!-- NASALib/metric_space&#45;&gt;NASALib/power -->
<g id="edge36" class="edge">
<title>NASALib/metric_space&#45;&gt;NASALib/power</title>
<path fill="none" stroke="black" d="M341.05,-450.65C313.12,-438.51 278.47,-423.46 260.65,-415.56"/>
<polygon fill="black" stroke="black" points="262.22,-412.43 251.67,-411.51 259.34,-418.81 262.22,-412.43"/>
</g>
<!-- NASALib/metric_space&#45;&gt;NASALib/series -->
<g id="edge38" class="edge">
<title>NASALib/metric_space&#45;&gt;NASALib/series</title>
<path fill="none" stroke="black" d="M386.44,-450.7C392.95,-429.97 403,-398 403,-398"/>
<path fill="none" stroke="black" d="M403,-396C403,-396 406.03,-324.2 407.79,-282.71"/>
<polygon fill="black" stroke="black" points="411.28,-283.06 408.2,-272.92 404.28,-282.77 411.28,-283.06"/>
</g>
<!-- NASALib/metric_space&#45;&gt;NASALib/sets_aux -->
<g id="edge39" class="edge">
<title>NASALib/metric_space&#45;&gt;NASALib/sets_aux</title>
<path fill="none" stroke="black" d="M391.22,-450.84C406.62,-424.98 434,-379 434,-379 434,-379 572,-343 572,-343 572,-343 573.36,-342.5 575.62,-341.66"/>
<polygon fill="black" stroke="black" points="576.47,-345.08 584.63,-338.33 574.04,-338.52 576.47,-345.08"/>
</g>
<!-- NASALib/metric_space&#45;&gt;NASALib/topology -->
<g id="edge40" class="edge">
<title>NASALib/metric_space&#45;&gt;NASALib/topology</title>
<path fill="none" stroke="black" d="M404.24,-450.7C415.87,-442.03 430.15,-431.4 442.82,-421.96"/>
<polygon fill="black" stroke="black" points="444.56,-425.03 450.49,-416.25 440.38,-419.42 444.56,-425.03"/>
</g>
<!-- NASALib/vectors -->
<g id="node18" class="node">
<title>NASALib/vectors</title>
<polygon fill="#fcfcd7" stroke="black" points="324,-415 268,-415 268,-379 324,-379 324,-415"/>
<text text-anchor="middle" x="296" y="-393.3" font-family="Times,serif" font-size="14.00">vectors</text>
</g>
<!-- NASALib/metric_space&#45;&gt;NASALib/vectors -->
<g id="edge41" class="edge">
<title>NASALib/metric_space&#45;&gt;NASALib/vectors</title>
<path fill="none" stroke="black" d="M359.99,-450.7C349.67,-442.2 337.06,-431.81 325.77,-422.51"/>
<polygon fill="black" stroke="black" points="328.18,-419.96 318.23,-416.31 323.73,-425.37 328.18,-419.96"/>
</g>
<!-- NASALib/metric_space&#45;&gt;lib/finite_sets -->
<g id="edge42" class="edge">
<title>NASALib/metric_space&#45;&gt;lib/finite_sets</title>
<path fill="none" stroke="black" d="M425.87,-460.3C452.06,-455.8 480,-451 480,-451 480,-451 714,-415 714,-415 714,-415 818,-398 818,-398"/>
<path fill="none" stroke="black" d="M818,-396C818,-396 818,-254 818,-254"/>
</g>
<!-- NASALib/orders&#45;&gt;NASALib/structures -->
<g id="edge43" class="edge">
<title>NASALib/orders&#45;&gt;NASALib/structures</title>
<path fill="none" stroke="black" d="M530.02,-162.52C517.64,-153.85 502.5,-143.25 489.07,-133.85"/>
<polygon fill="black" stroke="black" points="491.1,-131 480.9,-128.13 487.08,-136.73 491.1,-131"/>
</g>
<!-- NASALib/orders&#45;&gt;lib/finite_sets -->
<g id="edge44" class="edge">
<title>NASALib/orders&#45;&gt;lib/finite_sets</title>
<path fill="none" stroke="black" d="M818,-108C818,-108 828.84,-83.26 837.91,-62.59"/>
<polygon fill="black" stroke="black" points="841,-64.25 841.81,-53.69 834.59,-61.44 841,-64.25"/>
<path fill="none" stroke="black" d="M582.16,-172.77C649.35,-154.89 818,-110 818,-110"/>
</g>
<!-- NASALib/power&#45;&gt;NASALib/analysis -->
<g id="edge45" class="edge">
<title>NASALib/power&#45;&gt;NASALib/analysis</title>
<path fill="none" stroke="black" d="M217,-614C217,-614 217,-684 217,-684"/>
<path fill="none" stroke="black" d="M230,-470C230,-470 217,-612 217,-612"/>
<path fill="none" stroke="black" d="M224.73,-415.3C226.03,-428.26 227.76,-445.6 228.88,-456.79"/>
<polygon fill="black" stroke="black" points="225.37,-456.89 229.85,-466.49 232.34,-456.2 225.37,-456.89"/>
</g>
<!-- NASALib/power&#45;&gt;NASALib/lnexp -->
<g id="edge46" class="edge">
<title>NASALib/power&#45;&gt;NASALib/lnexp</title>
<path fill="none" stroke="black" d="M203.22,-378.7C193.61,-370.28 181.88,-360.02 171.33,-350.79"/>
<polygon fill="black" stroke="black" points="173.79,-348.29 163.96,-344.34 169.19,-353.56 173.79,-348.29"/>
</g>
<!-- NASALib/power&#45;&gt;NASALib/reals -->
<g id="edge47" class="edge">
<title>NASALib/power&#45;&gt;NASALib/reals</title>
<path fill="none" stroke="black" d="M230,-470C230,-470 277,-540 277,-540"/>
<path fill="none" stroke="black" d="M277,-542C277,-542 289.21,-628.67 294.55,-666.59"/>
</g>
<!-- NASALib/probability -->
<g id="node10" class="node">
<title>NASALib/probability</title>
<polygon fill="#f7e28d" stroke="black" points="335,-847 259,-847 259,-811 335,-811 335,-847"/>
<text text-anchor="middle" x="297" y="-825.3" font-family="Times,serif" font-size="14.00">probability</text>
</g>
<!-- NASALib/probability&#45;&gt;NASALib/analysis -->
<g id="edge48" class="edge">
<title>NASALib/probability&#45;&gt;NASALib/analysis</title>
<path fill="none" stroke="black" d="M297,-810.7C297,-803.41 297,-794.73 297,-786.54"/>
<polygon fill="black" stroke="black" points="300.5,-786.62 297,-776.62 293.5,-786.62 300.5,-786.62"/>
</g>
<!-- NASALib/probability&#45;&gt;NASALib/measure_integration -->
<g id="edge49" class="edge">
<title>NASALib/probability&#45;&gt;NASALib/measure_integration</title>
<path fill="none" stroke="black" d="M709,-756C709,-756 694,-667 694,-667 694,-667 654,-595 654,-595 654,-595 621.69,-578.85 592.75,-564.37"/>
<polygon fill="black" stroke="black" points="594.57,-561.37 584.06,-560.03 591.44,-567.63 594.57,-561.37"/>
</g>
<!-- NASALib/probability&#45;&gt;NASALib/metric_space -->
<g id="edge50" class="edge">
<title>NASALib/probability&#45;&gt;NASALib/metric_space</title>
<path fill="none" stroke="black" d="M262.93,-810.62C195.61,-776.27 52,-703 52,-703 52,-703 52,-667 52,-667 52,-667 132,-523 132,-523 132,-523 251.88,-497.48 325.28,-481.86"/>
<polygon fill="black" stroke="black" points="325.66,-485.36 334.72,-479.85 324.21,-478.51 325.66,-485.36"/>
</g>
<!-- NASALib/probability&#45;&gt;NASALib/reals -->
<g id="edge51" class="edge">
<title>NASALib/probability&#45;&gt;NASALib/reals</title>
<path fill="none" stroke="black" d="M709,-756C709,-756 437.69,-709.9 335.4,-692.52"/>
<polygon fill="black" stroke="black" points="336.29,-689.13 325.84,-690.9 335.12,-696.03 336.29,-689.13"/>
<path fill="none" stroke="black" d="M335.39,-821.48C437.67,-804.1 709,-758 709,-758"/>
</g>
<!-- NASALib/probability&#45;&gt;NASALib/structures -->
<g id="edge52" class="edge">
<title>NASALib/probability&#45;&gt;NASALib/structures</title>
<path fill="none" stroke="black" d="M789,-684C789,-684 789,-542 789,-542 789,-542 789,-542 789,-252 789,-252 591,-163 591,-163 591,-163 539.79,-143.04 500.21,-127.62"/>
<polygon fill="black" stroke="black" points="501.67,-124.43 491.08,-124.06 499.13,-130.95 501.67,-124.43"/>
</g>
<!-- NASALib/probability&#45;&gt;NASALib/topology -->
<g id="edge53" class="edge">
<title>NASALib/probability&#45;&gt;NASALib/topology</title>
<path fill="none" stroke="black" d="M709,-756C709,-756 774,-703 774,-703 774,-703 789,-686 789,-686"/>
<path fill="none" stroke="black" d="M789,-684C789,-684 659,-451 659,-451 659,-451 573.07,-426.25 518.65,-410.57"/>
<polygon fill="black" stroke="black" points="519.93,-407.3 509.35,-407.89 517.99,-414.03 519.93,-407.3"/>
</g>
<!-- NASALib/reals&#45;&gt;NASALib/ints -->
<g id="edge54" class="edge">
<title>NASALib/reals&#45;&gt;NASALib/ints</title>
<path fill="none" stroke="black" d="M269.56,-668.53C241.81,-652.88 203,-631 203,-631 203,-631 77,-542 77,-542"/>
</g>
<!-- NASALib/reals&#45;&gt;NASALib/lebesgue -->
<g id="edge55" class="edge">
<title>NASALib/reals&#45;&gt;NASALib/lebesgue</title>
<path fill="none" stroke="black" d="M335.1,-672.15C374.89,-659.77 437.19,-640.38 478.79,-627.44"/>
<polygon fill="black" stroke="black" points="334.09,-668.79 325.59,-675.11 336.17,-675.48 334.09,-668.79"/>
<polygon fill="black" stroke="black" points="479.72,-630.82 488.23,-624.51 477.64,-624.13 479.72,-630.82"/>
</g>
<!-- NASALib/reals&#45;&gt;NASALib/metric_space -->
<g id="edge56" class="edge">
<title>NASALib/reals&#45;&gt;NASALib/metric_space</title>
<path fill="none" stroke="black" d="M299.66,-655.41C303.97,-609.15 312,-523 312,-523 312,-523 331.41,-508.09 349.64,-494.09"/>
<polygon fill="black" stroke="black" points="296.19,-654.98 298.75,-665.26 303.16,-655.63 296.19,-654.98"/>
<polygon fill="black" stroke="black" points="351.41,-497.14 357.21,-488.28 347.14,-491.59 351.41,-497.14"/>
</g>
<!-- NASALib/reals&#45;&gt;NASALib/sets_aux -->
<g id="edge57" class="edge">
<title>NASALib/reals&#45;&gt;NASALib/sets_aux</title>
<path fill="none" stroke="black" d="M324.42,-679.93C408.02,-667.52 654,-631 654,-631 654,-631 714,-415 714,-415 714,-415 714,-379 714,-379 714,-379 685.25,-363.13 659.21,-348.75"/>
<polygon fill="black" stroke="black" points="661.21,-345.85 650.76,-344.09 657.82,-351.98 661.21,-345.85"/>
</g>
<!-- NASALib/reals&#45;&gt;NASALib/structures -->
<g id="edge58" class="edge">
<title>NASALib/reals&#45;&gt;NASALib/structures</title>
<path fill="none" stroke="black" d="M289.95,-666.76C265.67,-607.39 187,-415 187,-415 187,-415 187,-379 187,-379 187,-379 251,-343 251,-343 251,-343 379.37,-196.38 432.45,-135.76"/>
<polygon fill="black" stroke="black" points="435.05,-138.1 439,-128.27 429.78,-133.49 435.05,-138.1"/>
</g>
<!-- NASALib/series&#45;&gt;NASALib/analysis -->
<g id="edge59" class="edge">
<title>NASALib/series&#45;&gt;NASALib/analysis</title>
<path fill="none" stroke="black" d="M383,-326C383,-326 368,-343 368,-343 368,-343 187,-379 187,-379 187,-379 177,-612 177,-612"/>
<path fill="none" stroke="black" d="M402.57,-271.3C397.7,-284.42 391.16,-302.04 387.01,-313.21"/>
<polygon fill="black" stroke="black" points="383.73,-311.99 383.53,-322.58 390.29,-314.43 383.73,-311.99"/>
</g>
<!-- NASALib/series&#45;&gt;NASALib/ints -->
<g id="edge60" class="edge">
<title>NASALib/series&#45;&gt;NASALib/ints</title>
<path fill="none" stroke="black" d="M388.4,-234.59C343.54,-196.67 241,-110 241,-110"/>
</g>
<!-- NASALib/series&#45;&gt;NASALib/orders -->
<g id="edge61" class="edge">
<title>NASALib/series&#45;&gt;NASALib/orders</title>
<path fill="none" stroke="black" d="M436.46,-238.83C459.3,-227.88 492.04,-212.18 517.33,-200.06"/>
<polygon fill="black" stroke="black" points="518.79,-203.24 526.3,-195.76 515.77,-196.93 518.79,-203.24"/>
</g>
<!-- NASALib/series&#45;&gt;NASALib/reals -->
<g id="edge62" class="edge">
<title>NASALib/series&#45;&gt;NASALib/reals</title>
<path fill="none" stroke="black" d="M383,-326C383,-326 333,-415 333,-415 333,-415 277,-468 277,-468"/>
</g>
<!-- NASALib/sets_aux&#45;&gt;NASALib/ints -->
<g id="edge63" class="edge">
<title>NASALib/sets_aux&#45;&gt;NASALib/ints</title>
<path fill="none" stroke="black" d="M509,-180C509,-180 499,-91 499,-91 499,-91 487.07,-75.81 475.63,-61.25"/>
<polygon fill="black" stroke="black" points="478.55,-59.3 469.62,-53.6 473.04,-63.63 478.55,-59.3"/>
</g>
<!-- NASALib/sets_aux&#45;&gt;NASALib/orders -->
<g id="edge64" class="edge">
<title>NASALib/sets_aux&#45;&gt;NASALib/orders</title>
<path fill="none" stroke="black" d="M509,-252C509,-252 524.37,-228.61 537.35,-208.87"/>
<polygon fill="black" stroke="black" points="540.23,-210.85 542.8,-200.57 534.38,-207 540.23,-210.85"/>
</g>
<!-- NASALib/sets_aux&#45;&gt;NASALib/structures -->
<g id="edge65" class="edge">
<title>NASALib/sets_aux&#45;&gt;NASALib/structures</title>
<path fill="none" stroke="black" d="M509,-180C509,-180 490.62,-156.18 475.31,-136.33"/>
<polygon fill="black" stroke="black" points="478.15,-134.28 469.27,-128.5 472.61,-138.56 478.15,-134.28"/>
<path fill="none" stroke="black" d="M509,-252C509,-252 509,-182 509,-182"/>
<path fill="none" stroke="black" d="M590.78,-306.52C558.49,-285.78 509,-254 509,-254"/>
</g>
<!-- NASALib/sets_aux&#45;&gt;lib/finite_sets -->
<g id="edge66" class="edge">
<title>NASALib/sets_aux&#45;&gt;lib/finite_sets</title>
<path fill="none" stroke="black" d="M649.69,-312.91C706.09,-293.17 818,-254 818,-254"/>
<path fill="none" stroke="black" d="M818,-252C818,-252 818,-110 818,-110"/>
</g>
<!-- NASALib/sigma_set&#45;&gt;NASALib/analysis -->
<g id="edge67" class="edge">
<title>NASALib/sigma_set&#45;&gt;NASALib/analysis</title>
<path fill="none" stroke="black" d="M670.64,-415.35C672.1,-430.81 674,-451 674,-451 674,-451 680,-523 680,-523 680,-523 686.32,-636.03 688.37,-672.68"/>
<polygon fill="black" stroke="black" points="684.86,-672.7 688.92,-682.49 691.85,-672.31 684.86,-672.7"/>
</g>
<!-- NASALib/sigma_set&#45;&gt;NASALib/orders -->
<g id="edge68" class="edge">
<title>NASALib/sigma_set&#45;&gt;NASALib/orders</title>
<path fill="none" stroke="black" d="M669,-378.7C669,-357.97 669,-326 669,-326"/>
</g>
<!-- NASALib/sigma_set&#45;&gt;NASALib/reals -->
<g id="edge69" class="edge">
<title>NASALib/sigma_set&#45;&gt;NASALib/reals</title>
<path fill="none" stroke="black" d="M669,-415.41C669,-444.89 669,-503.82 669,-528.6"/>
<polygon fill="black" stroke="black" points="665.5,-528.49 669,-538.49 672.5,-528.49 665.5,-528.49"/>
</g>
<!-- NASALib/sigma_set&#45;&gt;NASALib/series -->
<g id="edge70" class="edge">
<title>NASALib/sigma_set&#45;&gt;NASALib/series</title>
<path fill="none" stroke="black" d="M639.2,-378.65C612.66,-363.19 578,-343 578,-343 578,-343 567,-326 567,-326"/>
</g>
<!-- NASALib/sigma_set&#45;&gt;NASALib/sets_aux -->
<g id="edge71" class="edge">
<title>NASALib/sigma_set&#45;&gt;NASALib/sets_aux</title>
<path fill="none" stroke="black" d="M656.39,-378.7C650.59,-370.73 643.57,-361.1 637.14,-352.26"/>
<polygon fill="black" stroke="black" points="640.07,-350.35 631.35,-344.33 634.41,-354.47 640.07,-350.35"/>
</g>
<!-- NASALib/structures&#45;&gt;NASALib/ints -->
<g id="edge72" class="edge">
<title>NASALib/structures&#45;&gt;NASALib/ints</title>
<path fill="none" stroke="black" d="M455,-90.7C455,-82.67 455,-72.9 455,-63.8"/>
<polygon fill="black" stroke="black" points="458.5,-63.94 455,-53.94 451.5,-63.94 458.5,-63.94"/>
</g>
<!-- NASALib/structures&#45;&gt;lib/finite_sets -->
<g id="edge73" class="edge">
<title>NASALib/structures&#45;&gt;lib/finite_sets</title>
<path fill="none" stroke="black" d="M489.86,-105.49C577.85,-99.15 802,-83 802,-83 802,-83 813.17,-71.83 824.73,-60.27"/>
<polygon fill="black" stroke="black" points="827,-62.95 831.6,-53.4 822.05,-58 827,-62.95"/>
</g>
<!-- NASALib/topology&#45;&gt;NASALib/reals -->
<g id="edge74" class="edge">
<title>NASALib/topology&#45;&gt;NASALib/reals</title>
<path fill="none" stroke="black" d="M467.29,-415.16C455.66,-441.02 435,-487 435,-487 435,-487 353.48,-603.37 315.75,-657.23"/>
<polygon fill="black" stroke="black" points="312.99,-655.08 310.11,-665.28 318.72,-659.1 312.99,-655.08"/>
</g>
<!-- NASALib/topology&#45;&gt;NASALib/sets_aux -->
<g id="edge75" class="edge">
<title>NASALib/topology&#45;&gt;NASALib/sets_aux</title>
<path fill="none" stroke="black" d="M507.81,-379.94C528.07,-370.02 554.28,-357.19 576.04,-346.54"/>
<polygon fill="black" stroke="black" points="577.53,-349.71 584.97,-342.17 574.45,-343.42 577.53,-349.71"/>
</g>
<!-- NASALib/topology&#45;&gt;NASALib/structures -->
<g id="edge76" class="edge">
<title>NASALib/topology&#45;&gt;NASALib/structures</title>
<path fill="none" stroke="black" d="M487.85,-378.7C503.25,-357.97 527,-326 527,-326"/>
<path fill="none" stroke="black" d="M527,-324C527,-324 455,-182 455,-182"/>
</g>
<!-- NASALib/trig -->
<g id="node17" class="node">
<title>NASALib/trig</title>
<polygon fill="#fcfcd7" stroke="black" points="242,-343 188,-343 188,-307 242,-307 242,-343"/>
<text text-anchor="middle" x="215" y="-321.3" font-family="Times,serif" font-size="14.00">trig</text>
</g>
<!-- NASALib/trig&#45;&gt;NASALib/analysis -->
<g id="edge77" class="edge">
<title>NASALib/trig&#45;&gt;NASALib/analysis</title>
<path fill="none" stroke="black" d="M194.37,-343.35C176,-358.81 152,-379 152,-379 152,-379 152,-415 152,-415 152,-415 154.47,-441.2 155.94,-456.76"/>
<polygon fill="black" stroke="black" points="152.43,-456.87 156.86,-466.49 159.4,-456.21 152.43,-456.87"/>
<path fill="none" stroke="black" d="M157,-470C157,-470 137,-540 137,-540"/>
</g>
<!-- NASALib/trig&#45;&gt;NASALib/ints -->
<g id="edge78" class="edge">
<title>NASALib/trig&#45;&gt;NASALib/ints</title>
<path fill="none" stroke="black" d="M217.08,-306.85C223.25,-256.07 241,-110 241,-110"/>
</g>
<!-- NASALib/trig&#45;&gt;NASALib/reals -->
<g id="edge79" class="edge">
<title>NASALib/trig&#45;&gt;NASALib/reals</title>
<path fill="none" stroke="black" d="M157,-470C157,-470 252,-631 252,-631 252,-631 269.14,-651.19 282.27,-666.65"/>
</g>
<!-- NASALib/trig&#45;&gt;NASALib/series -->
<g id="edge80" class="edge">
<title>NASALib/trig&#45;&gt;NASALib/series</title>
<path fill="none" stroke="black" d="M242.38,-314.12C276.04,-301.98 333.31,-281.31 371.16,-267.65"/>
<polygon fill="black" stroke="black" points="372.11,-271.03 380.33,-264.34 369.74,-264.45 372.11,-271.03"/>
</g>
<!-- NASALib/vectors&#45;&gt;NASALib/reals -->
<g id="edge81" class="edge">
<title>NASALib/vectors&#45;&gt;NASALib/reals</title>
<path fill="none" stroke="black" d="M291.3,-415.3C287.74,-428.42 282.96,-446.04 279.93,-457.21"/>
<polygon fill="black" stroke="black" points="276.64,-455.97 277.4,-466.54 283.39,-457.81 276.64,-455.97"/>
<path fill="none" stroke="black" d="M277,-470C277,-470 277,-540 277,-540"/>
</g>
<!-- NASALib/vectors&#45;&gt;NASALib/structures -->
<g id="edge82" class="edge">
<title>NASALib/vectors&#45;&gt;NASALib/structures</title>
<path fill="none" stroke="black" d="M312.56,-378.7C332.4,-357.97 363,-326 363,-326"/>
<path fill="none" stroke="black" d="M363,-324C363,-324 373,-235 373,-235 373,-235 455,-182 455,-182"/>
<path fill="none" stroke="black" d="M455,-180C455,-180 455,-158.08 455,-138.77"/>
<polygon fill="black" stroke="black" points="458.5,-138.82 455,-128.82 451.5,-138.82 458.5,-138.82"/>
</g>
<!-- NASALib/vectors&#45;&gt;NASALib/trig -->
<g id="edge83" class="edge">
<title>NASALib/vectors&#45;&gt;NASALib/trig</title>
<path fill="none" stroke="black" d="M275.98,-378.7C266.24,-370.28 254.36,-360.02 243.69,-350.79"/>
<polygon fill="black" stroke="black" points="246.07,-348.23 236.22,-344.34 241.5,-353.52 246.07,-348.23"/>
</g>
</g>
</svg>
