<?xml version="1.0" encoding="UTF-8" standalone="no"?>
<!DOCTYPE svg PUBLIC "-//W3C//DTD SVG 1.1//EN"
 "http://www.w3.org/Graphics/SVG/1.1/DTD/svg11.dtd">
<!-- Generated by graphviz version 2.44.1 (20200629.0846)
 -->
<!-- Title: probability&#45;zoomed Pages: 1 -->
<svg width="597pt" height="326pt"
 viewBox="0.00 0.00 597.00 326.00" xmlns="http://www.w3.org/2000/svg" xmlns:xlink="http://www.w3.org/1999/xlink">
<g id="graph0" class="graph" transform="scale(1 1) rotate(0) translate(4 322)">
<title>probability&#45;zoomed</title>
<polygon fill="white" stroke="transparent" points="-4,4 -4,-322 593,-322 593,4 -4,4"/>
<g id="clust1" class="cluster">
<title>cluster_NASALib</title>
<polygon fill="none" stroke="black" points="8,-8 8,-83 581,-83 581,-8 8,-8"/>
<text text-anchor="middle" x="294.5" y="-67.8" font-family="Times,serif" font-size="14.00">NASALib</text>
</g>
<g id="clust2" class="cluster">
<title>cluster_NASALib/probability</title>
<polygon fill="none" stroke="black" points="101,-91 101,-310 508,-310 508,-91 101,-91"/>
<text text-anchor="middle" x="304.5" y="-294.8" font-family="Times,serif" font-size="14.00">NASALib/probability</text>
</g>
<!-- nasalib/analysis -->
<g id="node1" class="node">
<title>nasalib/analysis</title>
<polygon fill="#fcfcd7" stroke="black" points="427,-52 367,-52 367,-16 427,-16 427,-52"/>
<text text-anchor="middle" x="397" y="-30.3" font-family="Times,serif" font-size="14.00">analysis</text>
</g>
<!-- nasalib/measure_integration -->
<g id="node2" class="node">
<title>nasalib/measure_integration</title>
<polygon fill="#fcfcd7" stroke="black" points="573,-52 445,-52 445,-16 573,-16 573,-52"/>
<text text-anchor="middle" x="509" y="-30.3" font-family="Times,serif" font-size="14.00">measure_integration</text>
</g>
<!-- nasalib/metric_space -->
<g id="node3" class="node">
<title>nasalib/metric_space</title>
<polygon fill="#fcfcd7" stroke="black" points="265.5,-52 176.5,-52 176.5,-16 265.5,-16 265.5,-52"/>
<text text-anchor="middle" x="221" y="-30.3" font-family="Times,serif" font-size="14.00">metric_space</text>
</g>
<!-- nasalib/probability@conditional -->
<g id="node4" class="node">
<title>nasalib/probability@conditional</title>
<ellipse fill="#e6f3ff" stroke="black" cx="256" cy="-189" rx="50.09" ry="18"/>
<text text-anchor="middle" x="256" y="-185.3" font-family="Times,serif" font-size="14.00">conditional</text>
</g>
<!-- nasalib/probability@conditional&#45;&gt;nasalib/measure_integration -->
<g id="edge1" class="edge">
<title>nasalib/probability@conditional&#45;&gt;nasalib/measure_integration</title>
<path fill="none" stroke="black" d="M288.58,-175.14C288.58,-146.41 288.58,-83 288.58,-83 288.58,-83 481.89,-83 481.89,-83 481.89,-83 481.89,-62.25 481.89,-62.25"/>
<polygon fill="black" stroke="black" points="485.39,-62.25 481.89,-52.25 478.39,-62.25 485.39,-62.25"/>
</g>
<!-- nasalib/probability@probability_measure -->
<g id="node7" class="node">
<title>nasalib/probability@probability_measure</title>
<ellipse fill="#e6f3ff" stroke="black" cx="192" cy="-117" rx="83.39" ry="18"/>
<text text-anchor="middle" x="192" y="-113.3" font-family="Times,serif" font-size="14.00">probability_measure</text>
</g>
<!-- nasalib/probability@conditional&#45;&gt;nasalib/probability@probability_measure -->
<g id="edge2" class="edge">
<title>nasalib/probability@conditional&#45;&gt;nasalib/probability@probability_measure</title>
<path fill="none" stroke="black" d="M229.03,-173.73C229.03,-173.73 229.03,-143.25 229.03,-143.25"/>
<polygon fill="black" stroke="black" points="232.53,-143.25 229.03,-133.25 225.53,-143.25 232.53,-143.25"/>
</g>
<!-- nasalib/probability@continuous_functions_aux -->
<g id="node5" class="node">
<title>nasalib/probability@continuous_functions_aux</title>
<ellipse fill="#e6f3ff" stroke="black" cx="397" cy="-117" rx="103.18" ry="18"/>
<text text-anchor="middle" x="397" y="-113.3" font-family="Times,serif" font-size="14.00">continuous_functions_aux</text>
</g>
<!-- nasalib/probability@continuous_functions_aux&#45;&gt;nasalib/analysis -->
<g id="edge3" class="edge">
<title>nasalib/probability@continuous_functions_aux&#45;&gt;nasalib/analysis</title>
<path fill="none" stroke="black" d="M397,-98.99C397,-98.99 397,-62.26 397,-62.26"/>
<polygon fill="black" stroke="black" points="400.5,-62.26 397,-52.26 393.5,-62.26 400.5,-62.26"/>
</g>
<!-- nasalib/probability@expectation -->
<g id="node6" class="node">
<title>nasalib/probability@expectation</title>
<ellipse fill="#e6f3ff" stroke="black" cx="397" cy="-261" rx="51.19" ry="18"/>
<text text-anchor="middle" x="397" y="-257.3" font-family="Times,serif" font-size="14.00">expectation</text>
</g>
<!-- nasalib/probability@expectation&#45;&gt;nasalib/measure_integration -->
<g id="edge4" class="edge">
<title>nasalib/probability@expectation&#45;&gt;nasalib/measure_integration</title>
<path fill="none" stroke="black" d="M448.39,-261C492.42,-261 548.78,-261 548.78,-261 548.78,-261 548.78,-62.19 548.78,-62.19"/>
<polygon fill="black" stroke="black" points="552.28,-62.19 548.78,-52.19 545.28,-62.19 552.28,-62.19"/>
</g>
<!-- nasalib/probability@expectation&#45;&gt;nasalib/probability@probability_measure -->
<g id="edge5" class="edge">
<title>nasalib/probability@expectation&#45;&gt;nasalib/probability@probability_measure</title>
<path fill="none" stroke="black" d="M345.6,-261C275.19,-261 157.38,-261 157.38,-261 157.38,-261 157.38,-143.52 157.38,-143.52"/>
<polygon fill="black" stroke="black" points="160.88,-143.52 157.38,-133.52 153.88,-143.52 160.88,-143.52"/>
</g>
<!-- nasalib/probability@probability_space -->
<g id="node8" class="node">
<title>nasalib/probability@probability_space</title>
<ellipse fill="#e6f3ff" stroke="black" cx="397" cy="-189" rx="73.39" ry="18"/>
<text text-anchor="middle" x="397" y="-185.3" font-family="Times,serif" font-size="14.00">probability_space</text>
</g>
<!-- nasalib/probability@expectation&#45;&gt;nasalib/probability@probability_space -->
<g id="edge6" class="edge">
<title>nasalib/probability@expectation&#45;&gt;nasalib/probability@probability_space</title>
<path fill="none" stroke="black" d="M397,-242.83C397,-242.83 397,-217.41 397,-217.41"/>
<polygon fill="black" stroke="black" points="400.5,-217.41 397,-207.41 393.5,-217.41 400.5,-217.41"/>
</g>
<!-- nasalib/probability@probability_measure&#45;&gt;nasalib/measure_integration -->
<g id="edge7" class="edge">
<title>nasalib/probability@probability_measure&#45;&gt;nasalib/measure_integration</title>
<path fill="none" stroke="black" d="M268.73,-109.62C268.73,-95.71 268.73,-67 268.73,-67 268.73,-67 463.45,-67 463.45,-67 463.45,-67 463.45,-62.04 463.45,-62.04"/>
<polygon fill="black" stroke="black" points="466.95,-62.04 463.45,-52.04 459.95,-62.04 466.95,-62.04"/>
</g>
<!-- nasalib/probability@probability_measure&#45;&gt;nasalib/metric_space -->
<g id="edge8" class="edge">
<title>nasalib/probability@probability_measure&#45;&gt;nasalib/metric_space</title>
<path fill="none" stroke="black" d="M221,-99.8C221,-99.8 221,-62.04 221,-62.04"/>
<polygon fill="black" stroke="black" points="224.5,-62.04 221,-52.04 217.5,-62.04 224.5,-62.04"/>
</g>
<!-- nasalib/reals -->
<g id="node9" class="node">
<title>nasalib/reals</title>
<polygon fill="#fcfcd7" stroke="black" points="158,-52 104,-52 104,-16 158,-16 158,-52"/>
<text text-anchor="middle" x="131" y="-30.3" font-family="Times,serif" font-size="14.00">reals</text>
</g>
<!-- nasalib/probability@probability_measure&#45;&gt;nasalib/reals -->
<g id="edge9" class="edge">
<title>nasalib/probability@probability_measure&#45;&gt;nasalib/reals</title>
<path fill="none" stroke="black" d="M133.4,-104.03C133.4,-104.03 133.4,-62.11 133.4,-62.11"/>
<polygon fill="black" stroke="black" points="136.9,-62.11 133.4,-52.11 129.9,-62.11 136.9,-62.11"/>
</g>
<!-- nasalib/structures -->
<g id="node10" class="node">
<title>nasalib/structures</title>
<polygon fill="#fcfcd7" stroke="black" points="85.5,-52 16.5,-52 16.5,-16 85.5,-16 85.5,-52"/>
<text text-anchor="middle" x="51" y="-30.3" font-family="Times,serif" font-size="14.00">structures</text>
</g>
<!-- nasalib/probability@probability_measure&#45;&gt;nasalib/structures -->
<g id="edge10" class="edge">
<title>nasalib/probability@probability_measure&#45;&gt;nasalib/structures</title>
<path fill="none" stroke="black" d="M108.76,-117C78.23,-117 51,-117 51,-117 51,-117 51,-62.01 51,-62.01"/>
<polygon fill="black" stroke="black" points="54.5,-62.01 51,-52.01 47.5,-62.01 54.5,-62.01"/>
</g>
<!-- nasalib/topology -->
<g id="node11" class="node">
<title>nasalib/topology</title>
<polygon fill="#fcfcd7" stroke="black" points="348.5,-52 283.5,-52 283.5,-16 348.5,-16 348.5,-52"/>
<text text-anchor="middle" x="316" y="-30.3" font-family="Times,serif" font-size="14.00">topology</text>
</g>
<!-- nasalib/probability@probability_measure&#45;&gt;nasalib/topology -->
<g id="edge11" class="edge">
<title>nasalib/probability@probability_measure&#45;&gt;nasalib/topology</title>
<path fill="none" stroke="black" d="M271.96,-111.55C271.96,-93.09 271.96,-34 271.96,-34 271.96,-34 273.07,-34 273.07,-34"/>
<polygon fill="black" stroke="black" points="273.07,-37.5 283.07,-34 273.07,-30.5 273.07,-37.5"/>
</g>
<!-- nasalib/probability@probability_space&#45;&gt;nasalib/measure_integration -->
<g id="edge12" class="edge">
<title>nasalib/probability@probability_space&#45;&gt;nasalib/measure_integration</title>
<path fill="none" stroke="black" d="M470.46,-189C498.82,-189 524.56,-189 524.56,-189 524.56,-189 524.56,-62.08 524.56,-62.08"/>
<polygon fill="black" stroke="black" points="528.06,-62.08 524.56,-52.08 521.06,-62.08 528.06,-62.08"/>
</g>
<!-- nasalib/probability@probability_space&#45;&gt;nasalib/probability@continuous_functions_aux -->
<g id="edge13" class="edge">
<title>nasalib/probability@probability_space&#45;&gt;nasalib/probability@continuous_functions_aux</title>
<path fill="none" stroke="black" d="M421.48,-171.94C421.48,-171.94 421.48,-144.69 421.48,-144.69"/>
<polygon fill="black" stroke="black" points="424.98,-144.69 421.48,-134.69 417.98,-144.69 424.98,-144.69"/>
</g>
<!-- nasalib/probability@probability_space&#45;&gt;nasalib/probability@probability_measure -->
<g id="edge14" class="edge">
<title>nasalib/probability@probability_space&#45;&gt;nasalib/probability@probability_measure</title>
<path fill="none" stroke="black" d="M372.52,-171.84C372.52,-162.57 372.52,-153 372.52,-153 372.52,-153 252.11,-153 252.11,-153 252.11,-153 252.11,-139.59 252.11,-139.59"/>
<polygon fill="black" stroke="black" points="255.61,-139.59 252.11,-129.59 248.61,-139.59 255.61,-139.59"/>
</g>
</g>
</svg>
