<?xml version="1.0" encoding="UTF-8" standalone="no"?>
<!DOCTYPE svg PUBLIC "-//W3C//DTD SVG 1.1//EN"
 "http://www.w3.org/Graphics/SVG/1.1/DTD/svg11.dtd">
<!-- Generated by graphviz version 7.0.6 (20230106.0513)
 -->
<!-- Title: probability&#45;zoomed Pages: 1 -->
<svg width="597pt" height="326pt"
 viewBox="0.00 0.00 597.00 326.00" xmlns="http://www.w3.org/2000/svg" xmlns:xlink="http://www.w3.org/1999/xlink">
<g id="graph0" class="graph" transform="scale(1 1) rotate(0) translate(4 322)">
<title>probability&#45;zoomed</title>
<polygon fill="white" stroke="none" points="-4,4 -4,-322 593,-322 593,4 -4,4"/>
<g id="clust1" class="cluster">
<title>cluster_NASALib</title>
<polygon fill="none" stroke="black" points="8,-8 8,-83 581,-83 581,-8 8,-8"/>
<text text-anchor="middle" x="294.5" y="-67.8" font-family="Times,serif" font-size="14.00">NASALib</text>
</g>
<g id="clust2" class="cluster">
<title>cluster_NASALib/probability</title>
<polygon fill="none" stroke="black" points="101,-91 101,-310 508,-310 508,-91 101,-91"/>
<text text-anchor="middle" x="304.5" y="-294.8" font-family="Times,serif" font-size="14.00">NASALib/probability</text>
</g>
<!-- NASALib/analysis -->
<g id="node1" class="node">
<title>NASALib/analysis</title>
<polygon fill="#fcfcd7" stroke="black" points="427,-52 367,-52 367,-16 427,-16 427,-52"/>
<text text-anchor="middle" x="397" y="-30.3" font-family="Times,serif" font-size="14.00">analysis</text>
</g>
<!-- NASALib/measure_integration -->
<g id="node2" class="node">
<title>NASALib/measure_integration</title>
<polygon fill="#fcfcd7" stroke="black" points="573,-52 445,-52 445,-16 573,-16 573,-52"/>
<text text-anchor="middle" x="509" y="-30.3" font-family="Times,serif" font-size="14.00">measure_integration</text>
</g>
<!-- NASALib/metric_space -->
<g id="node3" class="node">
<title>NASALib/metric_space</title>
<polygon fill="#fcfcd7" stroke="black" points="265.5,-52 176.5,-52 176.5,-16 265.5,-16 265.5,-52"/>
<text text-anchor="middle" x="221" y="-30.3" font-family="Times,serif" font-size="14.00">metric_space</text>
</g>
<!-- NASALib/probability@conditional -->
<g id="node4" class="node">
<title>NASALib/probability@conditional</title>
<ellipse fill="#e6f3ff" stroke="black" cx="256" cy="-189" rx="50.09" ry="18"/>
<text text-anchor="middle" x="256" y="-185.3" font-family="Times,serif" font-size="14.00">conditional</text>
</g>
<!-- NASALib/probability@conditional&#45;&gt;NASALib/measure_integration -->
<g id="edge1" class="edge">
<title>NASALib/probability@conditional&#45;&gt;NASALib/measure_integration</title>
<path fill="none" stroke="black" d="M294.36,-176.95C305.63,-173.7 315,-171 315,-171 315,-171 509,-135 509,-135 509,-135 528,-118 528,-118"/>
<path fill="none" stroke="black" d="M528,-116C528,-116 521.13,-86.69 515.65,-63.34"/>
<polygon fill="black" stroke="black" points="519.07,-62.59 513.38,-53.65 512.25,-64.19 519.07,-62.59"/>
</g>
<!-- NASALib/probability@probability_measure -->
<g id="node7" class="node">
<title>NASALib/probability@probability_measure</title>
<ellipse fill="#e6f3ff" stroke="black" cx="192" cy="-117" rx="83.39" ry="18"/>
<text text-anchor="middle" x="192" y="-113.3" font-family="Times,serif" font-size="14.00">probability_measure</text>
</g>
<!-- NASALib/probability@conditional&#45;&gt;NASALib/probability@probability_measure -->
<g id="edge2" class="edge">
<title>NASALib/probability@conditional&#45;&gt;NASALib/probability@probability_measure</title>
<path fill="none" stroke="black" d="M240.83,-171.41C233.14,-162.99 223.62,-152.58 215.04,-143.2"/>
<polygon fill="black" stroke="black" points="217.85,-141.09 208.52,-136.07 212.69,-145.82 217.85,-141.09"/>
</g>
<!-- NASALib/probability@continuous_functions_aux -->
<g id="node5" class="node">
<title>NASALib/probability@continuous_functions_aux</title>
<ellipse fill="#e6f3ff" stroke="black" cx="397" cy="-117" rx="103.18" ry="18"/>
<text text-anchor="middle" x="397" y="-113.3" font-family="Times,serif" font-size="14.00">continuous_functions_aux</text>
</g>
<!-- NASALib/probability@continuous_functions_aux&#45;&gt;NASALib/analysis -->
<g id="edge3" class="edge">
<title>NASALib/probability@continuous_functions_aux&#45;&gt;NASALib/analysis</title>
<path fill="none" stroke="black" d="M397,-98.82C397,-88.69 397,-75.6 397,-63.92"/>
<polygon fill="black" stroke="black" points="400.5,-63.95 397,-53.95 393.5,-63.95 400.5,-63.95"/>
</g>
<!-- NASALib/probability@expectation -->
<g id="node6" class="node">
<title>NASALib/probability@expectation</title>
<ellipse fill="#e6f3ff" stroke="black" cx="397" cy="-261" rx="51.19" ry="18"/>
<text text-anchor="middle" x="397" y="-257.3" font-family="Times,serif" font-size="14.00">expectation</text>
</g>
<!-- NASALib/probability@expectation&#45;&gt;NASALib/measure_integration -->
<g id="edge4" class="edge">
<title>NASALib/probability@expectation&#45;&gt;NASALib/measure_integration</title>
<path fill="none" stroke="black" d="M427.21,-246.07C461.29,-230.37 512,-207 512,-207 512,-207 528,-118 528,-118"/>
</g>
<!-- NASALib/probability@expectation&#45;&gt;NASALib/probability@probability_measure -->
<g id="edge5" class="edge">
<title>NASALib/probability@expectation&#45;&gt;NASALib/probability@probability_measure</title>
<path fill="none" stroke="black" d="M357.01,-249.4C298.64,-233.94 197,-207 197,-207 197,-207 195.06,-172.42 193.59,-146.37"/>
<polygon fill="black" stroke="black" points="197.1,-146.46 193.05,-136.67 190.12,-146.85 197.1,-146.46"/>
</g>
<!-- NASALib/probability@probability_space -->
<g id="node8" class="node">
<title>NASALib/probability@probability_space</title>
<ellipse fill="#e6f3ff" stroke="black" cx="397" cy="-189" rx="73.39" ry="18"/>
<text text-anchor="middle" x="397" y="-185.3" font-family="Times,serif" font-size="14.00">probability_space</text>
</g>
<!-- NASALib/probability@expectation&#45;&gt;NASALib/probability@probability_space -->
<g id="edge6" class="edge">
<title>NASALib/probability@expectation&#45;&gt;NASALib/probability@probability_space</title>
<path fill="none" stroke="black" d="M397,-242.7C397,-235.41 397,-226.73 397,-218.54"/>
<polygon fill="black" stroke="black" points="400.5,-218.62 397,-208.62 393.5,-218.62 400.5,-218.62"/>
</g>
<!-- NASALib/probability@probability_measure&#45;&gt;NASALib/measure_integration -->
<g id="edge7" class="edge">
<title>NASALib/probability@probability_measure&#45;&gt;NASALib/measure_integration</title>
<path fill="none" stroke="black" d="M242.85,-102.33C264.57,-96.49 285,-91 285,-91 285,-91 436,-83 436,-83 436,-83 454.66,-70.73 473.11,-58.6"/>
<polygon fill="black" stroke="black" points="474.95,-61.58 481.38,-53.16 471.1,-55.73 474.95,-61.58"/>
</g>
<!-- NASALib/probability@probability_measure&#45;&gt;NASALib/metric_space -->
<g id="edge8" class="edge">
<title>NASALib/probability@probability_measure&#45;&gt;NASALib/metric_space</title>
<path fill="none" stroke="black" d="M198.15,-98.82C201.85,-88.48 206.66,-75.05 210.91,-63.18"/>
<polygon fill="black" stroke="black" points="214.17,-64.45 214.25,-53.86 207.58,-62.09 214.17,-64.45"/>
</g>
<!-- NASALib/reals -->
<g id="node9" class="node">
<title>NASALib/reals</title>
<polygon fill="#fcfcd7" stroke="black" points="158,-52 104,-52 104,-16 158,-16 158,-52"/>
<text text-anchor="middle" x="131" y="-30.3" font-family="Times,serif" font-size="14.00">reals</text>
</g>
<!-- NASALib/probability@probability_measure&#45;&gt;NASALib/reals -->
<g id="edge9" class="edge">
<title>NASALib/probability@probability_measure&#45;&gt;NASALib/reals</title>
<path fill="none" stroke="black" d="M178.91,-98.73C172.87,-90.74 167,-83 167,-83 167,-83 159.1,-72.46 150.7,-61.26"/>
<polygon fill="black" stroke="black" points="153.7,-59.44 144.9,-53.54 148.1,-63.64 153.7,-59.44"/>
</g>
<!-- NASALib/structures -->
<g id="node10" class="node">
<title>NASALib/structures</title>
<polygon fill="#fcfcd7" stroke="black" points="85.5,-52 16.5,-52 16.5,-16 85.5,-16 85.5,-52"/>
<text text-anchor="middle" x="51" y="-30.3" font-family="Times,serif" font-size="14.00">structures</text>
</g>
<!-- NASALib/probability@probability_measure&#45;&gt;NASALib/structures -->
<g id="edge10" class="edge">
<title>NASALib/probability@probability_measure&#45;&gt;NASALib/structures</title>
<path fill="none" stroke="black" d="M148.61,-101.24C122.78,-92.45 95,-83 95,-83 95,-83 84.96,-72.04 74.47,-60.6"/>
<polygon fill="black" stroke="black" points="77.25,-58.45 67.91,-53.44 72.08,-63.18 77.25,-58.45"/>
</g>
<!-- NASALib/topology -->
<g id="node11" class="node">
<title>NASALib/topology</title>
<polygon fill="#fcfcd7" stroke="black" points="348.5,-52 283.5,-52 283.5,-16 348.5,-16 348.5,-52"/>
<text text-anchor="middle" x="316" y="-30.3" font-family="Times,serif" font-size="14.00">topology</text>
</g>
<!-- NASALib/probability@probability_measure&#45;&gt;NASALib/topology -->
<g id="edge11" class="edge">
<title>NASALib/probability@probability_measure&#45;&gt;NASALib/topology</title>
<path fill="none" stroke="black" d="M230.12,-100.66C251.53,-92.04 274,-83 274,-83 274,-83 283.4,-72.25 293.31,-60.93"/>
<polygon fill="black" stroke="black" points="295.89,-63.3 299.84,-53.47 290.62,-58.69 295.89,-63.3"/>
</g>
<!-- NASALib/probability@probability_space&#45;&gt;NASALib/measure_integration -->
<g id="edge12" class="edge">
<title>NASALib/probability@probability_space&#45;&gt;NASALib/measure_integration</title>
<path fill="none" stroke="black" d="M429.7,-172.53C462.75,-156.88 509,-135 509,-135 509,-135 528,-118 528,-118"/>
</g>
<!-- NASALib/probability@probability_space&#45;&gt;NASALib/probability@continuous_functions_aux -->
<g id="edge13" class="edge">
<title>NASALib/probability@probability_space&#45;&gt;NASALib/probability@continuous_functions_aux</title>
<path fill="none" stroke="black" d="M397,-170.7C397,-163.41 397,-154.73 397,-146.54"/>
<polygon fill="black" stroke="black" points="400.5,-146.62 397,-136.62 393.5,-146.62 400.5,-146.62"/>
</g>
<!-- NASALib/probability@probability_space&#45;&gt;NASALib/probability@probability_measure -->
<g id="edge14" class="edge">
<title>NASALib/probability@probability_space&#45;&gt;NASALib/probability@probability_measure</title>
<path fill="none" stroke="black" d="M355.52,-173.83C323.95,-163.06 280.25,-148.13 245.96,-136.43"/>
<polygon fill="black" stroke="black" points="247.22,-133.16 236.62,-133.24 244.95,-139.78 247.22,-133.16"/>
</g>
</g>
</svg>
