<?xml version="1.0" encoding="UTF-8" standalone="no"?>
<!DOCTYPE svg PUBLIC "-//W3C//DTD SVG 1.1//EN"
 "http://www.w3.org/Graphics/SVG/1.1/DTD/svg11.dtd">
<!-- Generated by graphviz version 2.40.1 (20161225.0304)
 -->
<!-- Title: PVS0 Pages: 1 -->
<svg width="378pt" height="468pt"
 viewBox="0.00 0.00 378.00 468.00" xmlns="http://www.w3.org/2000/svg" xmlns:xlink="http://www.w3.org/1999/xlink">
<g id="graph0" class="graph" transform="scale(1 1) rotate(0) translate(4 464)">
<title>PVS0</title>
<polygon fill="#ffffff" stroke="transparent" points="-4,4 -4,-464 374,-464 374,4 -4,4"/>
<g id="clust1" class="cluster">
<title>cluster_NASALib</title>
<polygon fill="none" stroke="#000000" points="8,-90 8,-452 362,-452 362,-90 8,-90"/>
<text text-anchor="middle" x="185" y="-436.8" font-family="Times,serif" font-size="14.00" fill="#000000">NASALib</text>
</g>
<g id="clust2" class="cluster">
<title>cluster_PVS Prelude</title>
<polygon fill="none" stroke="#000000" points="189,-8 189,-82 277,-82 277,-8 189,-8"/>
<text text-anchor="middle" x="233" y="-66.8" font-family="Times,serif" font-size="14.00" fill="#000000">PVS Prelude</text>
</g>
<!-- /Users/mmoscato/Workspace/Workbench/pvs/dependency&#45;all/Users/mmoscato/pvs/pvs/lib/finite_sets -->
<g id="node1" class="node">
<title>/Users/mmoscato/Workspace/Workbench/pvs/dependency&#45;all/Users/mmoscato/pvs/pvs/lib/finite_sets</title>
<polygon fill="#fcfcd7" stroke="#000000" points="269.2796,-52 196.7204,-52 196.7204,-16 269.2796,-16 269.2796,-52"/>
<text text-anchor="middle" x="233" y="-29.8" font-family="Times,serif" font-size="14.00" fill="#000000">finite_sets</text>
</g>
<!-- /Users/mmoscato/Workspace/Workbench/pvs/dependency&#45;all/Users/mmoscato/pvs/pvs/nasalib/CCG -->
<g id="node2" class="node">
<title>/Users/mmoscato/Workspace/Workbench/pvs/dependency&#45;all/Users/mmoscato/pvs/pvs/nasalib/CCG</title>
<polygon fill="#fcfcd7" stroke="#000000" points="227,-350 173,-350 173,-314 227,-314 227,-350"/>
<text text-anchor="middle" x="200" y="-327.8" font-family="Times,serif" font-size="14.00" fill="#000000">CCG</text>
</g>
<!-- /Users/mmoscato/Workspace/Workbench/pvs/dependency&#45;all/Users/mmoscato/pvs/pvs/nasalib/CCG&#45;&gt;/Users/mmoscato/Workspace/Workbench/pvs/dependency&#45;all/Users/mmoscato/pvs/pvs/lib/finite_sets -->
<g id="edge1" class="edge">
<title>/Users/mmoscato/Workspace/Workbench/pvs/dependency&#45;all/Users/mmoscato/pvs/pvs/nasalib/CCG&#45;&gt;/Users/mmoscato/Workspace/Workbench/pvs/dependency&#45;all/Users/mmoscato/pvs/pvs/lib/finite_sets</title>
<path fill="none" stroke="#000000" d="M227.1937,-341C270.945,-341 352.1069,-341 352.1069,-341 352.1069,-341 352.1069,-28 352.1069,-28 352.1069,-28 279.3832,-28 279.3832,-28"/>
<polygon fill="#000000" stroke="#000000" points="279.3832,-24.5001 269.3832,-28 279.3832,-31.5001 279.3832,-24.5001"/>
</g>
<!-- /Users/mmoscato/Workspace/Workbench/pvs/dependency&#45;all/Users/mmoscato/pvs/pvs/nasalib/digraphs -->
<g id="node4" class="node">
<title>/Users/mmoscato/Workspace/Workbench/pvs/dependency&#45;all/Users/mmoscato/pvs/pvs/nasalib/digraphs</title>
<polygon fill="#fcfcd7" stroke="#000000" points="232.2142,-278 167.7858,-278 167.7858,-242 232.2142,-242 232.2142,-278"/>
<text text-anchor="middle" x="200" y="-255.8" font-family="Times,serif" font-size="14.00" fill="#000000">digraphs</text>
</g>
<!-- /Users/mmoscato/Workspace/Workbench/pvs/dependency&#45;all/Users/mmoscato/pvs/pvs/nasalib/CCG&#45;&gt;/Users/mmoscato/Workspace/Workbench/pvs/dependency&#45;all/Users/mmoscato/pvs/pvs/nasalib/digraphs -->
<g id="edge2" class="edge">
<title>/Users/mmoscato/Workspace/Workbench/pvs/dependency&#45;all/Users/mmoscato/pvs/pvs/nasalib/CCG&#45;&gt;/Users/mmoscato/Workspace/Workbench/pvs/dependency&#45;all/Users/mmoscato/pvs/pvs/nasalib/digraphs</title>
<path fill="none" stroke="#000000" d="M200,-313.8314C200,-313.8314 200,-288.4133 200,-288.4133"/>
<polygon fill="#000000" stroke="#000000" points="203.5001,-288.4132 200,-278.4133 196.5001,-288.4133 203.5001,-288.4132"/>
</g>
<!-- /Users/mmoscato/Workspace/Workbench/pvs/dependency&#45;all/Users/mmoscato/pvs/pvs/nasalib/ints -->
<g id="node5" class="node">
<title>/Users/mmoscato/Workspace/Workbench/pvs/dependency&#45;all/Users/mmoscato/pvs/pvs/nasalib/ints</title>
<polygon fill="#fcfcd7" stroke="#000000" points="176,-134 122,-134 122,-98 176,-98 176,-134"/>
<text text-anchor="middle" x="149" y="-111.8" font-family="Times,serif" font-size="14.00" fill="#000000">ints</text>
</g>
<!-- /Users/mmoscato/Workspace/Workbench/pvs/dependency&#45;all/Users/mmoscato/pvs/pvs/nasalib/CCG&#45;&gt;/Users/mmoscato/Workspace/Workbench/pvs/dependency&#45;all/Users/mmoscato/pvs/pvs/nasalib/ints -->
<g id="edge3" class="edge">
<title>/Users/mmoscato/Workspace/Workbench/pvs/dependency&#45;all/Users/mmoscato/pvs/pvs/nasalib/CCG&#45;&gt;/Users/mmoscato/Workspace/Workbench/pvs/dependency&#45;all/Users/mmoscato/pvs/pvs/nasalib/ints</title>
<path fill="none" stroke="#000000" d="M172.6606,-320C167.6296,-320 163.9287,-320 163.9287,-320 163.9287,-320 163.9287,-144.1036 163.9287,-144.1036"/>
<polygon fill="#000000" stroke="#000000" points="167.4288,-144.1036 163.9287,-134.1036 160.4288,-144.1037 167.4288,-144.1036"/>
</g>
<!-- /Users/mmoscato/Workspace/Workbench/pvs/dependency&#45;all/Users/mmoscato/pvs/pvs/nasalib/orders -->
<g id="node7" class="node">
<title>/Users/mmoscato/Workspace/Workbench/pvs/dependency&#45;all/Users/mmoscato/pvs/pvs/nasalib/orders</title>
<polygon fill="#fcfcd7" stroke="#000000" points="280,-206 226,-206 226,-170 280,-170 280,-206"/>
<text text-anchor="middle" x="253" y="-183.8" font-family="Times,serif" font-size="14.00" fill="#000000">orders</text>
</g>
<!-- /Users/mmoscato/Workspace/Workbench/pvs/dependency&#45;all/Users/mmoscato/pvs/pvs/nasalib/CCG&#45;&gt;/Users/mmoscato/Workspace/Workbench/pvs/dependency&#45;all/Users/mmoscato/pvs/pvs/nasalib/orders -->
<g id="edge4" class="edge">
<title>/Users/mmoscato/Workspace/Workbench/pvs/dependency&#45;all/Users/mmoscato/pvs/pvs/nasalib/CCG&#45;&gt;/Users/mmoscato/Workspace/Workbench/pvs/dependency&#45;all/Users/mmoscato/pvs/pvs/nasalib/orders</title>
<path fill="none" stroke="#000000" d="M227.2917,-323C239.4173,-323 251,-323 251,-323 251,-323 251,-216.2067 251,-216.2067"/>
<polygon fill="#000000" stroke="#000000" points="254.5001,-216.2067 251,-206.2067 247.5001,-216.2067 254.5001,-216.2067"/>
</g>
<!-- /Users/mmoscato/Workspace/Workbench/pvs/dependency&#45;all/Users/mmoscato/pvs/pvs/nasalib/reals -->
<g id="node8" class="node">
<title>/Users/mmoscato/Workspace/Workbench/pvs/dependency&#45;all/Users/mmoscato/pvs/pvs/nasalib/reals</title>
<polygon fill="#fcfcd7" stroke="#000000" points="110,-278 56,-278 56,-242 110,-242 110,-278"/>
<text text-anchor="middle" x="83" y="-255.8" font-family="Times,serif" font-size="14.00" fill="#000000">reals</text>
</g>
<!-- /Users/mmoscato/Workspace/Workbench/pvs/dependency&#45;all/Users/mmoscato/pvs/pvs/nasalib/CCG&#45;&gt;/Users/mmoscato/Workspace/Workbench/pvs/dependency&#45;all/Users/mmoscato/pvs/pvs/nasalib/reals -->
<g id="edge5" class="edge">
<title>/Users/mmoscato/Workspace/Workbench/pvs/dependency&#45;all/Users/mmoscato/pvs/pvs/nasalib/CCG&#45;&gt;/Users/mmoscato/Workspace/Workbench/pvs/dependency&#45;all/Users/mmoscato/pvs/pvs/nasalib/reals</title>
<path fill="none" stroke="#000000" d="M172.6319,-326C165.5944,-326 159.9644,-326 159.9644,-326 159.9644,-326 159.9644,-256 159.9644,-256 159.9644,-256 120.3515,-256 120.3515,-256"/>
<polygon fill="#000000" stroke="#000000" points="120.3515,-252.5001 110.3515,-256 120.3514,-259.5001 120.3515,-252.5001"/>
</g>
<!-- /Users/mmoscato/Workspace/Workbench/pvs/dependency&#45;all/Users/mmoscato/pvs/pvs/nasalib/sets_aux -->
<g id="node9" class="node">
<title>/Users/mmoscato/Workspace/Workbench/pvs/dependency&#45;all/Users/mmoscato/pvs/pvs/nasalib/sets_aux</title>
<polygon fill="#fcfcd7" stroke="#000000" points="334.2142,-278 269.7858,-278 269.7858,-242 334.2142,-242 334.2142,-278"/>
<text text-anchor="middle" x="302" y="-255.8" font-family="Times,serif" font-size="14.00" fill="#000000">sets_aux</text>
</g>
<!-- /Users/mmoscato/Workspace/Workbench/pvs/dependency&#45;all/Users/mmoscato/pvs/pvs/nasalib/CCG&#45;&gt;/Users/mmoscato/Workspace/Workbench/pvs/dependency&#45;all/Users/mmoscato/pvs/pvs/nasalib/sets_aux -->
<g id="edge6" class="edge">
<title>/Users/mmoscato/Workspace/Workbench/pvs/dependency&#45;all/Users/mmoscato/pvs/pvs/nasalib/CCG&#45;&gt;/Users/mmoscato/Workspace/Workbench/pvs/dependency&#45;all/Users/mmoscato/pvs/pvs/nasalib/sets_aux</title>
<path fill="none" stroke="#000000" d="M227.3923,-332C254.2846,-332 291.2977,-332 291.2977,-332 291.2977,-332 291.2977,-288.1686 291.2977,-288.1686"/>
<polygon fill="#000000" stroke="#000000" points="294.7978,-288.1686 291.2977,-278.1686 287.7978,-288.1687 294.7978,-288.1686"/>
</g>
<!-- /Users/mmoscato/Workspace/Workbench/pvs/dependency&#45;all/Users/mmoscato/pvs/pvs/nasalib/structures -->
<g id="node10" class="node">
<title>/Users/mmoscato/Workspace/Workbench/pvs/dependency&#45;all/Users/mmoscato/pvs/pvs/nasalib/structures</title>
<polygon fill="#fcfcd7" stroke="#000000" points="130.429,-206 59.571,-206 59.571,-170 130.429,-170 130.429,-206"/>
<text text-anchor="middle" x="95" y="-183.8" font-family="Times,serif" font-size="14.00" fill="#000000">structures</text>
</g>
<!-- /Users/mmoscato/Workspace/Workbench/pvs/dependency&#45;all/Users/mmoscato/pvs/pvs/nasalib/CCG&#45;&gt;/Users/mmoscato/Workspace/Workbench/pvs/dependency&#45;all/Users/mmoscato/pvs/pvs/nasalib/structures -->
<g id="edge7" class="edge">
<title>/Users/mmoscato/Workspace/Workbench/pvs/dependency&#45;all/Users/mmoscato/pvs/pvs/nasalib/CCG&#45;&gt;/Users/mmoscato/Workspace/Workbench/pvs/dependency&#45;all/Users/mmoscato/pvs/pvs/nasalib/structures</title>
<path fill="none" stroke="#000000" d="M172.7792,-338C150.3356,-338 122.1711,-338 122.1711,-338 122.1711,-338 122.1711,-216.0935 122.1711,-216.0935"/>
<polygon fill="#000000" stroke="#000000" points="125.6712,-216.0935 122.1711,-206.0935 118.6712,-216.0935 125.6712,-216.0935"/>
</g>
<!-- /Users/mmoscato/Workspace/Workbench/pvs/dependency&#45;all/Users/mmoscato/pvs/pvs/nasalib/PVS0 -->
<g id="node3" class="node">
<title>/Users/mmoscato/Workspace/Workbench/pvs/dependency&#45;all/Users/mmoscato/pvs/pvs/nasalib/PVS0</title>
<polygon fill="#f7e28d" stroke="#000000" points="156,-422 102,-422 102,-386 156,-386 156,-422"/>
<text text-anchor="middle" x="129" y="-399.8" font-family="Times,serif" font-size="14.00" fill="#000000">PVS0</text>
</g>
<!-- /Users/mmoscato/Workspace/Workbench/pvs/dependency&#45;all/Users/mmoscato/pvs/pvs/nasalib/PVS0&#45;&gt;/Users/mmoscato/Workspace/Workbench/pvs/dependency&#45;all/Users/mmoscato/pvs/pvs/lib/finite_sets -->
<g id="edge8" class="edge">
<title>/Users/mmoscato/Workspace/Workbench/pvs/dependency&#45;all/Users/mmoscato/pvs/pvs/nasalib/PVS0&#45;&gt;/Users/mmoscato/Workspace/Workbench/pvs/dependency&#45;all/Users/mmoscato/pvs/pvs/lib/finite_sets</title>
<path fill="none" stroke="#000000" d="M146.3302,-385.7078C146.3302,-341.034 146.3302,-230 146.3302,-230 146.3302,-230 211.3052,-230 211.3052,-230 211.3052,-230 211.3052,-62.0879 211.3052,-62.0879"/>
<polygon fill="#000000" stroke="#000000" points="214.8053,-62.0879 211.3052,-52.0879 207.8053,-62.0879 214.8053,-62.0879"/>
</g>
<!-- /Users/mmoscato/Workspace/Workbench/pvs/dependency&#45;all/Users/mmoscato/pvs/pvs/nasalib/PVS0&#45;&gt;/Users/mmoscato/Workspace/Workbench/pvs/dependency&#45;all/Users/mmoscato/pvs/pvs/nasalib/CCG -->
<g id="edge9" class="edge">
<title>/Users/mmoscato/Workspace/Workbench/pvs/dependency&#45;all/Users/mmoscato/pvs/pvs/nasalib/PVS0&#45;&gt;/Users/mmoscato/Workspace/Workbench/pvs/dependency&#45;all/Users/mmoscato/pvs/pvs/nasalib/CCG</title>
<path fill="none" stroke="#000000" d="M152.7767,-385.998C152.7767,-368.3246 152.7767,-344 152.7767,-344 152.7767,-344 162.8036,-344 162.8036,-344"/>
<polygon fill="#000000" stroke="#000000" points="162.8037,-347.5001 172.8036,-344 162.8036,-340.5001 162.8037,-347.5001"/>
</g>
<!-- /Users/mmoscato/Workspace/Workbench/pvs/dependency&#45;all/Users/mmoscato/pvs/pvs/nasalib/PVS0&#45;&gt;/Users/mmoscato/Workspace/Workbench/pvs/dependency&#45;all/Users/mmoscato/pvs/pvs/nasalib/digraphs -->
<g id="edge10" class="edge">
<title>/Users/mmoscato/Workspace/Workbench/pvs/dependency&#45;all/Users/mmoscato/pvs/pvs/nasalib/PVS0&#45;&gt;/Users/mmoscato/Workspace/Workbench/pvs/dependency&#45;all/Users/mmoscato/pvs/pvs/nasalib/digraphs</title>
<path fill="none" stroke="#000000" d="M149.5535,-385.9282C149.5535,-349.3519 149.5535,-270 149.5535,-270 149.5535,-270 157.7658,-270 157.7658,-270"/>
<polygon fill="#000000" stroke="#000000" points="157.7659,-273.5001 167.7658,-270 157.7658,-266.5001 157.7659,-273.5001"/>
</g>
<!-- /Users/mmoscato/Workspace/Workbench/pvs/dependency&#45;all/Users/mmoscato/pvs/pvs/nasalib/PVS0&#45;&gt;/Users/mmoscato/Workspace/Workbench/pvs/dependency&#45;all/Users/mmoscato/pvs/pvs/nasalib/ints -->
<g id="edge11" class="edge">
<title>/Users/mmoscato/Workspace/Workbench/pvs/dependency&#45;all/Users/mmoscato/pvs/pvs/nasalib/PVS0&#45;&gt;/Users/mmoscato/Workspace/Workbench/pvs/dependency&#45;all/Users/mmoscato/pvs/pvs/nasalib/ints</title>
<path fill="none" stroke="#000000" d="M139.8837,-385.9843C139.8837,-385.9843 139.8837,-144.0089 139.8837,-144.0089"/>
<polygon fill="#000000" stroke="#000000" points="143.3838,-144.0088 139.8837,-134.0089 136.3838,-144.0089 143.3838,-144.0088"/>
</g>
<!-- /Users/mmoscato/Workspace/Workbench/pvs/dependency&#45;all/Users/mmoscato/pvs/pvs/nasalib/numbers -->
<g id="node6" class="node">
<title>/Users/mmoscato/Workspace/Workbench/pvs/dependency&#45;all/Users/mmoscato/pvs/pvs/nasalib/numbers</title>
<polygon fill="#fcfcd7" stroke="#000000" points="110.2142,-350 45.7858,-350 45.7858,-314 110.2142,-314 110.2142,-350"/>
<text text-anchor="middle" x="78" y="-327.8" font-family="Times,serif" font-size="14.00" fill="#000000">numbers</text>
</g>
<!-- /Users/mmoscato/Workspace/Workbench/pvs/dependency&#45;all/Users/mmoscato/pvs/pvs/nasalib/PVS0&#45;&gt;/Users/mmoscato/Workspace/Workbench/pvs/dependency&#45;all/Users/mmoscato/pvs/pvs/nasalib/numbers -->
<g id="edge12" class="edge">
<title>/Users/mmoscato/Workspace/Workbench/pvs/dependency&#45;all/Users/mmoscato/pvs/pvs/nasalib/PVS0&#45;&gt;/Users/mmoscato/Workspace/Workbench/pvs/dependency&#45;all/Users/mmoscato/pvs/pvs/nasalib/numbers</title>
<path fill="none" stroke="#000000" d="M106.0535,-385.8314C106.0535,-385.8314 106.0535,-360.4133 106.0535,-360.4133"/>
<polygon fill="#000000" stroke="#000000" points="109.5536,-360.4132 106.0535,-350.4133 102.5536,-360.4133 109.5536,-360.4132"/>
</g>
<!-- /Users/mmoscato/Workspace/Workbench/pvs/dependency&#45;all/Users/mmoscato/pvs/pvs/nasalib/PVS0&#45;&gt;/Users/mmoscato/Workspace/Workbench/pvs/dependency&#45;all/Users/mmoscato/pvs/pvs/nasalib/orders -->
<g id="edge13" class="edge">
<title>/Users/mmoscato/Workspace/Workbench/pvs/dependency&#45;all/Users/mmoscato/pvs/pvs/nasalib/PVS0&#45;&gt;/Users/mmoscato/Workspace/Workbench/pvs/dependency&#45;all/Users/mmoscato/pvs/pvs/nasalib/orders</title>
<path fill="none" stroke="#000000" d="M143.1069,-385.8397C143.1069,-334.3304 143.1069,-191 143.1069,-191 143.1069,-191 215.8354,-191 215.8354,-191"/>
<polygon fill="#000000" stroke="#000000" points="215.8355,-194.5001 225.8354,-191 215.8354,-187.5001 215.8355,-194.5001"/>
</g>
<!-- /Users/mmoscato/Workspace/Workbench/pvs/dependency&#45;all/Users/mmoscato/pvs/pvs/nasalib/PVS0&#45;&gt;/Users/mmoscato/Workspace/Workbench/pvs/dependency&#45;all/Users/mmoscato/pvs/pvs/nasalib/reals -->
<g id="edge14" class="edge">
<title>/Users/mmoscato/Workspace/Workbench/pvs/dependency&#45;all/Users/mmoscato/pvs/pvs/nasalib/PVS0&#45;&gt;/Users/mmoscato/Workspace/Workbench/pvs/dependency&#45;all/Users/mmoscato/pvs/pvs/nasalib/reals</title>
<path fill="none" stroke="#000000" d="M114.1283,-385.8554C114.1283,-347.7735 114.1283,-263 114.1283,-263 114.1283,-263 113.7214,-263 113.7214,-263"/>
<polygon fill="#000000" stroke="#000000" points="120.0589,-259.5003 110.0588,-263 120.0587,-266.5003 120.0589,-259.5003"/>
</g>
<!-- /Users/mmoscato/Workspace/Workbench/pvs/dependency&#45;all/Users/mmoscato/pvs/pvs/nasalib/PVS0&#45;&gt;/Users/mmoscato/Workspace/Workbench/pvs/dependency&#45;all/Users/mmoscato/pvs/pvs/nasalib/sets_aux -->
<g id="edge15" class="edge">
<title>/Users/mmoscato/Workspace/Workbench/pvs/dependency&#45;all/Users/mmoscato/pvs/pvs/nasalib/PVS0&#45;&gt;/Users/mmoscato/Workspace/Workbench/pvs/dependency&#45;all/Users/mmoscato/pvs/pvs/nasalib/sets_aux</title>
<path fill="none" stroke="#000000" d="M156.1059,-404C207.2058,-404 312.7023,-404 312.7023,-404 312.7023,-404 312.7023,-288.2377 312.7023,-288.2377"/>
<polygon fill="#000000" stroke="#000000" points="316.2024,-288.2377 312.7023,-278.2377 309.2024,-288.2377 316.2024,-288.2377"/>
</g>
<!-- /Users/mmoscato/Workspace/Workbench/pvs/dependency&#45;all/Users/mmoscato/pvs/pvs/nasalib/PVS0&#45;&gt;/Users/mmoscato/Workspace/Workbench/pvs/dependency&#45;all/Users/mmoscato/pvs/pvs/nasalib/structures -->
<g id="edge16" class="edge">
<title>/Users/mmoscato/Workspace/Workbench/pvs/dependency&#45;all/Users/mmoscato/pvs/pvs/nasalib/PVS0&#45;&gt;/Users/mmoscato/Workspace/Workbench/pvs/dependency&#45;all/Users/mmoscato/pvs/pvs/nasalib/structures</title>
<path fill="none" stroke="#000000" d="M118.1497,-385.9555C118.1497,-385.9555 118.1497,-216.1451 118.1497,-216.1451"/>
<polygon fill="#000000" stroke="#000000" points="121.6498,-216.145 118.1497,-206.1451 114.6498,-216.1451 121.6498,-216.145"/>
</g>
<!-- /Users/mmoscato/Workspace/Workbench/pvs/dependency&#45;all/Users/mmoscato/pvs/pvs/nasalib/digraphs&#45;&gt;/Users/mmoscato/Workspace/Workbench/pvs/dependency&#45;all/Users/mmoscato/pvs/pvs/lib/finite_sets -->
<g id="edge17" class="edge">
<title>/Users/mmoscato/Workspace/Workbench/pvs/dependency&#45;all/Users/mmoscato/pvs/pvs/nasalib/digraphs&#45;&gt;/Users/mmoscato/Workspace/Workbench/pvs/dependency&#45;all/Users/mmoscato/pvs/pvs/lib/finite_sets</title>
<path fill="none" stroke="#000000" d="M216.2035,-241.8875C216.2035,-241.8875 216.2035,-62.1988 216.2035,-62.1988"/>
<polygon fill="#000000" stroke="#000000" points="219.7036,-62.1987 216.2035,-52.1988 212.7036,-62.1988 219.7036,-62.1987"/>
</g>
<!-- /Users/mmoscato/Workspace/Workbench/pvs/dependency&#45;all/Users/mmoscato/pvs/pvs/nasalib/digraphs&#45;&gt;/Users/mmoscato/Workspace/Workbench/pvs/dependency&#45;all/Users/mmoscato/pvs/pvs/nasalib/ints -->
<g id="edge18" class="edge">
<title>/Users/mmoscato/Workspace/Workbench/pvs/dependency&#45;all/Users/mmoscato/pvs/pvs/nasalib/digraphs&#45;&gt;/Users/mmoscato/Workspace/Workbench/pvs/dependency&#45;all/Users/mmoscato/pvs/pvs/nasalib/ints</title>
<path fill="none" stroke="#000000" d="M173.2977,-241.7623C173.2977,-241.7623 173.2977,-144.0896 173.2977,-144.0896"/>
<polygon fill="#000000" stroke="#000000" points="176.7978,-144.0896 173.2977,-134.0896 169.7978,-144.0897 176.7978,-144.0896"/>
</g>
<!-- /Users/mmoscato/Workspace/Workbench/pvs/dependency&#45;all/Users/mmoscato/pvs/pvs/nasalib/digraphs&#45;&gt;/Users/mmoscato/Workspace/Workbench/pvs/dependency&#45;all/Users/mmoscato/pvs/pvs/nasalib/orders -->
<g id="edge19" class="edge">
<title>/Users/mmoscato/Workspace/Workbench/pvs/dependency&#45;all/Users/mmoscato/pvs/pvs/nasalib/digraphs&#45;&gt;/Users/mmoscato/Workspace/Workbench/pvs/dependency&#45;all/Users/mmoscato/pvs/pvs/nasalib/orders</title>
<path fill="none" stroke="#000000" d="M221.1017,-241.9902C221.1017,-217.5793 221.1017,-177 221.1017,-177 221.1017,-177 221.5724,-177 221.5724,-177"/>
<polygon fill="#000000" stroke="#000000" points="215.8085,-180.5002 225.8084,-177 215.8083,-173.5002 215.8085,-180.5002"/>
</g>
<!-- /Users/mmoscato/Workspace/Workbench/pvs/dependency&#45;all/Users/mmoscato/pvs/pvs/nasalib/digraphs&#45;&gt;/Users/mmoscato/Workspace/Workbench/pvs/dependency&#45;all/Users/mmoscato/pvs/pvs/nasalib/structures -->
<g id="edge20" class="edge">
<title>/Users/mmoscato/Workspace/Workbench/pvs/dependency&#45;all/Users/mmoscato/pvs/pvs/nasalib/digraphs&#45;&gt;/Users/mmoscato/Workspace/Workbench/pvs/dependency&#45;all/Users/mmoscato/pvs/pvs/nasalib/structures</title>
<path fill="none" stroke="#000000" d="M170.5954,-241.7333C170.5954,-223.4448 170.5954,-198 170.5954,-198 170.5954,-198 140.5841,-198 140.5841,-198"/>
<polygon fill="#000000" stroke="#000000" points="140.5841,-194.5001 130.5841,-198 140.5841,-201.5001 140.5841,-194.5001"/>
</g>
<!-- /Users/mmoscato/Workspace/Workbench/pvs/dependency&#45;all/Users/mmoscato/pvs/pvs/nasalib/ints&#45;&gt;/Users/mmoscato/Workspace/Workbench/pvs/dependency&#45;all/Users/mmoscato/pvs/pvs/lib/finite_sets -->
<g id="edge21" class="edge">
<title>/Users/mmoscato/Workspace/Workbench/pvs/dependency&#45;all/Users/mmoscato/pvs/pvs/nasalib/ints&#45;&gt;/Users/mmoscato/Workspace/Workbench/pvs/dependency&#45;all/Users/mmoscato/pvs/pvs/lib/finite_sets</title>
<path fill="none" stroke="#000000" d="M176.1771,-110C188.9896,-110 201.5086,-110 201.5086,-110 201.5086,-110 201.5086,-62.0109 201.5086,-62.0109"/>
<polygon fill="#000000" stroke="#000000" points="205.0087,-62.0109 201.5086,-52.0109 198.0087,-62.011 205.0087,-62.0109"/>
</g>
<!-- /Users/mmoscato/Workspace/Workbench/pvs/dependency&#45;all/Users/mmoscato/pvs/pvs/nasalib/numbers&#45;&gt;/Users/mmoscato/Workspace/Workbench/pvs/dependency&#45;all/Users/mmoscato/pvs/pvs/lib/finite_sets -->
<g id="edge22" class="edge">
<title>/Users/mmoscato/Workspace/Workbench/pvs/dependency&#45;all/Users/mmoscato/pvs/pvs/nasalib/numbers&#45;&gt;/Users/mmoscato/Workspace/Workbench/pvs/dependency&#45;all/Users/mmoscato/pvs/pvs/lib/finite_sets</title>
<path fill="none" stroke="#000000" d="M49.262,-313.8074C49.262,-249.1072 49.262,-34 49.262,-34 49.262,-34 186.6993,-34 186.6993,-34"/>
<polygon fill="#000000" stroke="#000000" points="186.6993,-37.5001 196.6993,-34 186.6993,-30.5001 186.6993,-37.5001"/>
</g>
<!-- /Users/mmoscato/Workspace/Workbench/pvs/dependency&#45;all/Users/mmoscato/pvs/pvs/nasalib/numbers&#45;&gt;/Users/mmoscato/Workspace/Workbench/pvs/dependency&#45;all/Users/mmoscato/pvs/pvs/nasalib/ints -->
<g id="edge23" class="edge">
<title>/Users/mmoscato/Workspace/Workbench/pvs/dependency&#45;all/Users/mmoscato/pvs/pvs/nasalib/numbers&#45;&gt;/Users/mmoscato/Workspace/Workbench/pvs/dependency&#45;all/Users/mmoscato/pvs/pvs/nasalib/ints</title>
<path fill="none" stroke="#000000" d="M110.4185,-332C123.9851,-332 136.6604,-332 136.6604,-332 136.6604,-332 136.6604,-144.0445 136.6604,-144.0445"/>
<polygon fill="#000000" stroke="#000000" points="140.1605,-144.0445 136.6604,-134.0445 133.1605,-144.0446 140.1605,-144.0445"/>
</g>
<!-- /Users/mmoscato/Workspace/Workbench/pvs/dependency&#45;all/Users/mmoscato/pvs/pvs/nasalib/numbers&#45;&gt;/Users/mmoscato/Workspace/Workbench/pvs/dependency&#45;all/Users/mmoscato/pvs/pvs/nasalib/reals -->
<g id="edge24" class="edge">
<title>/Users/mmoscato/Workspace/Workbench/pvs/dependency&#45;all/Users/mmoscato/pvs/pvs/nasalib/numbers&#45;&gt;/Users/mmoscato/Workspace/Workbench/pvs/dependency&#45;all/Users/mmoscato/pvs/pvs/nasalib/reals</title>
<path fill="none" stroke="#000000" d="M83,-313.8314C83,-313.8314 83,-288.4133 83,-288.4133"/>
<polygon fill="#000000" stroke="#000000" points="86.5001,-288.4132 83,-278.4133 79.5001,-288.4133 86.5001,-288.4132"/>
</g>
<!-- /Users/mmoscato/Workspace/Workbench/pvs/dependency&#45;all/Users/mmoscato/pvs/pvs/nasalib/numbers&#45;&gt;/Users/mmoscato/Workspace/Workbench/pvs/dependency&#45;all/Users/mmoscato/pvs/pvs/nasalib/structures -->
<g id="edge25" class="edge">
<title>/Users/mmoscato/Workspace/Workbench/pvs/dependency&#45;all/Users/mmoscato/pvs/pvs/nasalib/numbers&#45;&gt;/Users/mmoscato/Workspace/Workbench/pvs/dependency&#45;all/Users/mmoscato/pvs/pvs/nasalib/structures</title>
<path fill="none" stroke="#000000" d="M52.631,-313.7623C52.631,-275.0139 52.631,-188 52.631,-188 52.631,-188 53.3307,-188 53.3307,-188"/>
<polygon fill="#000000" stroke="#000000" points="49.6275,-191.5002 59.6274,-188 49.6273,-184.5002 49.6275,-191.5002"/>
</g>
<!-- /Users/mmoscato/Workspace/Workbench/pvs/dependency&#45;all/Users/mmoscato/pvs/pvs/nasalib/orders&#45;&gt;/Users/mmoscato/Workspace/Workbench/pvs/dependency&#45;all/Users/mmoscato/pvs/pvs/lib/finite_sets -->
<g id="edge26" class="edge">
<title>/Users/mmoscato/Workspace/Workbench/pvs/dependency&#45;all/Users/mmoscato/pvs/pvs/nasalib/orders&#45;&gt;/Users/mmoscato/Workspace/Workbench/pvs/dependency&#45;all/Users/mmoscato/pvs/pvs/lib/finite_sets</title>
<path fill="none" stroke="#000000" d="M247.6948,-169.7294C247.6948,-169.7294 247.6948,-62.2468 247.6948,-62.2468"/>
<polygon fill="#000000" stroke="#000000" points="251.1949,-62.2468 247.6948,-52.2468 244.1949,-62.2468 251.1949,-62.2468"/>
</g>
<!-- /Users/mmoscato/Workspace/Workbench/pvs/dependency&#45;all/Users/mmoscato/pvs/pvs/nasalib/reals&#45;&gt;/Users/mmoscato/Workspace/Workbench/pvs/dependency&#45;all/Users/mmoscato/pvs/pvs/nasalib/ints -->
<g id="edge27" class="edge">
<title>/Users/mmoscato/Workspace/Workbench/pvs/dependency&#45;all/Users/mmoscato/pvs/pvs/nasalib/reals&#45;&gt;/Users/mmoscato/Workspace/Workbench/pvs/dependency&#45;all/Users/mmoscato/pvs/pvs/nasalib/ints</title>
<path fill="none" stroke="#000000" d="M110.2852,-249C122.1693,-249 133.4371,-249 133.4371,-249 133.4371,-249 133.4371,-144.2142 133.4371,-144.2142"/>
<polygon fill="#000000" stroke="#000000" points="136.9372,-144.2142 133.4371,-134.2142 129.9372,-144.2142 136.9372,-144.2142"/>
</g>
<!-- /Users/mmoscato/Workspace/Workbench/pvs/dependency&#45;all/Users/mmoscato/pvs/pvs/nasalib/reals&#45;&gt;/Users/mmoscato/Workspace/Workbench/pvs/dependency&#45;all/Users/mmoscato/pvs/pvs/nasalib/structures -->
<g id="edge28" class="edge">
<title>/Users/mmoscato/Workspace/Workbench/pvs/dependency&#45;all/Users/mmoscato/pvs/pvs/nasalib/reals&#45;&gt;/Users/mmoscato/Workspace/Workbench/pvs/dependency&#45;all/Users/mmoscato/pvs/pvs/nasalib/structures</title>
<path fill="none" stroke="#000000" d="M84.8931,-241.8314C84.8931,-241.8314 84.8931,-216.4133 84.8931,-216.4133"/>
<polygon fill="#000000" stroke="#000000" points="88.3932,-216.4132 84.8931,-206.4133 81.3932,-216.4133 88.3932,-216.4132"/>
</g>
<!-- /Users/mmoscato/Workspace/Workbench/pvs/dependency&#45;all/Users/mmoscato/pvs/pvs/nasalib/sets_aux&#45;&gt;/Users/mmoscato/Workspace/Workbench/pvs/dependency&#45;all/Users/mmoscato/pvs/pvs/lib/finite_sets -->
<g id="edge29" class="edge">
<title>/Users/mmoscato/Workspace/Workbench/pvs/dependency&#45;all/Users/mmoscato/pvs/pvs/nasalib/sets_aux&#45;&gt;/Users/mmoscato/Workspace/Workbench/pvs/dependency&#45;all/Users/mmoscato/pvs/pvs/lib/finite_sets</title>
<path fill="none" stroke="#000000" d="M316.0713,-241.9965C316.0713,-189.454 316.0713,-40 316.0713,-40 316.0713,-40 279.6781,-40 279.6781,-40"/>
<polygon fill="#000000" stroke="#000000" points="279.6781,-36.5001 269.6781,-40 279.6781,-43.5001 279.6781,-36.5001"/>
</g>
<!-- /Users/mmoscato/Workspace/Workbench/pvs/dependency&#45;all/Users/mmoscato/pvs/pvs/nasalib/sets_aux&#45;&gt;/Users/mmoscato/Workspace/Workbench/pvs/dependency&#45;all/Users/mmoscato/pvs/pvs/nasalib/ints -->
<g id="edge30" class="edge">
<title>/Users/mmoscato/Workspace/Workbench/pvs/dependency&#45;all/Users/mmoscato/pvs/pvs/nasalib/sets_aux&#45;&gt;/Users/mmoscato/Workspace/Workbench/pvs/dependency&#45;all/Users/mmoscato/pvs/pvs/nasalib/ints</title>
<path fill="none" stroke="#000000" d="M298.0356,-241.9589C298.0356,-204.5524 298.0356,-122 298.0356,-122 298.0356,-122 186.3354,-122 186.3354,-122"/>
<polygon fill="#000000" stroke="#000000" points="186.3355,-118.5001 176.3354,-122 186.3354,-125.5001 186.3355,-118.5001"/>
</g>
<!-- /Users/mmoscato/Workspace/Workbench/pvs/dependency&#45;all/Users/mmoscato/pvs/pvs/nasalib/sets_aux&#45;&gt;/Users/mmoscato/Workspace/Workbench/pvs/dependency&#45;all/Users/mmoscato/pvs/pvs/nasalib/orders -->
<g id="edge31" class="edge">
<title>/Users/mmoscato/Workspace/Workbench/pvs/dependency&#45;all/Users/mmoscato/pvs/pvs/nasalib/sets_aux&#45;&gt;/Users/mmoscato/Workspace/Workbench/pvs/dependency&#45;all/Users/mmoscato/pvs/pvs/nasalib/orders</title>
<path fill="none" stroke="#000000" d="M276.631,-241.8314C276.631,-241.8314 276.631,-216.4133 276.631,-216.4133"/>
<polygon fill="#000000" stroke="#000000" points="280.1311,-216.4132 276.631,-206.4133 273.1311,-216.4133 280.1311,-216.4132"/>
</g>
<!-- /Users/mmoscato/Workspace/Workbench/pvs/dependency&#45;all/Users/mmoscato/pvs/pvs/nasalib/sets_aux&#45;&gt;/Users/mmoscato/Workspace/Workbench/pvs/dependency&#45;all/Users/mmoscato/pvs/pvs/nasalib/structures -->
<g id="edge32" class="edge">
<title>/Users/mmoscato/Workspace/Workbench/pvs/dependency&#45;all/Users/mmoscato/pvs/pvs/nasalib/sets_aux&#45;&gt;/Users/mmoscato/Workspace/Workbench/pvs/dependency&#45;all/Users/mmoscato/pvs/pvs/nasalib/structures</title>
<path fill="none" stroke="#000000" d="M273.262,-241.9445C273.262,-230.561 273.262,-218 273.262,-218 273.262,-218 126.1925,-218 126.1925,-218 126.1925,-218 126.1925,-216.1432 126.1925,-216.1432"/>
<polygon fill="#000000" stroke="#000000" points="129.6926,-216.1432 126.1925,-206.1432 122.6926,-216.1432 129.6926,-216.1432"/>
</g>
<!-- /Users/mmoscato/Workspace/Workbench/pvs/dependency&#45;all/Users/mmoscato/pvs/pvs/nasalib/structures&#45;&gt;/Users/mmoscato/Workspace/Workbench/pvs/dependency&#45;all/Users/mmoscato/pvs/pvs/lib/finite_sets -->
<g id="edge33" class="edge">
<title>/Users/mmoscato/Workspace/Workbench/pvs/dependency&#45;all/Users/mmoscato/pvs/pvs/nasalib/structures&#45;&gt;/Users/mmoscato/Workspace/Workbench/pvs/dependency&#45;all/Users/mmoscato/pvs/pvs/lib/finite_sets</title>
<path fill="none" stroke="#000000" d="M130.2498,-184C162.8886,-184 206.4069,-184 206.4069,-184 206.4069,-184 206.4069,-62.0935 206.4069,-62.0935"/>
<polygon fill="#000000" stroke="#000000" points="209.907,-62.0935 206.4069,-52.0935 202.907,-62.0935 209.907,-62.0935"/>
</g>
<!-- /Users/mmoscato/Workspace/Workbench/pvs/dependency&#45;all/Users/mmoscato/pvs/pvs/nasalib/structures&#45;&gt;/Users/mmoscato/Workspace/Workbench/pvs/dependency&#45;all/Users/mmoscato/pvs/pvs/nasalib/ints -->
<g id="edge34" class="edge">
<title>/Users/mmoscato/Workspace/Workbench/pvs/dependency&#45;all/Users/mmoscato/pvs/pvs/nasalib/structures&#45;&gt;/Users/mmoscato/Workspace/Workbench/pvs/dependency&#45;all/Users/mmoscato/pvs/pvs/nasalib/ints</title>
<path fill="none" stroke="#000000" d="M126.1069,-169.8314C126.1069,-169.8314 126.1069,-144.4133 126.1069,-144.4133"/>
<polygon fill="#000000" stroke="#000000" points="129.607,-144.4132 126.1069,-134.4133 122.607,-144.4133 129.607,-144.4132"/>
</g>
</g>
</svg>
