<?xml version="1.0" encoding="UTF-8" standalone="no"?>
<!DOCTYPE svg PUBLIC "-//W3C//DTD SVG 1.1//EN"
 "http://www.w3.org/Graphics/SVG/1.1/DTD/svg11.dtd">
<!-- Generated by graphviz version 7.0.6 (20230106.0513)
 -->
<!-- Title: PVS0 Pages: 1 -->
<svg width="972pt" height="966pt"
 viewBox="0.00 0.00 972.00 966.00" xmlns="http://www.w3.org/2000/svg" xmlns:xlink="http://www.w3.org/1999/xlink">
<g id="graph0" class="graph" transform="scale(1 1) rotate(0) translate(4 962)">
<title>PVS0</title>
<polygon fill="white" stroke="none" points="-4,4 -4,-962 968,-962 968,4 -4,4"/>
<g id="clust1" class="cluster">
<title>cluster_NASALib</title>
<polygon fill="none" stroke="black" points="8,-8 8,-950 860,-950 860,-8 8,-8"/>
<text text-anchor="middle" x="434" y="-934.8" font-family="Times,serif" font-size="14.00">NASALib</text>
</g>
<g id="clust2" class="cluster">
<title>cluster_PVS Prelude</title>
<polygon fill="none" stroke="black" points="868,-8 868,-83 956,-83 956,-8 868,-8"/>
<text text-anchor="middle" x="912" y="-67.8" font-family="Times,serif" font-size="14.00">PVS Prelude</text>
</g>
<!-- NASALib/CCG -->
<g id="node1" class="node">
<title>NASALib/CCG</title>
<polygon fill="#fcfcd7" stroke="black" points="784,-847 730,-847 730,-811 784,-811 784,-847"/>
<text text-anchor="middle" x="757" y="-825.3" font-family="Times,serif" font-size="14.00">CCG</text>
</g>
<!-- NASALib/digraphs -->
<g id="node4" class="node">
<title>NASALib/digraphs</title>
<polygon fill="#fcfcd7" stroke="black" points="811.5,-271 748.5,-271 748.5,-235 811.5,-235 811.5,-271"/>
<text text-anchor="middle" x="780" y="-249.3" font-family="Times,serif" font-size="14.00">digraphs</text>
</g>
<!-- NASALib/CCG&#45;&gt;NASALib/digraphs -->
<g id="edge1" class="edge">
<title>NASALib/CCG&#45;&gt;NASALib/digraphs</title>
<path fill="none" stroke="black" d="M791,-756C791,-756 831,-614 831,-614 831,-614 831,-614 831,-540 831,-540 796,-307 796,-307 796,-307 792.35,-294.92 788.54,-282.3"/>
<polygon fill="black" stroke="black" points="791.92,-281.36 785.68,-272.8 785.22,-283.39 791.92,-281.36"/>
</g>
<!-- NASALib/ints -->
<g id="node6" class="node">
<title>NASALib/ints</title>
<polygon fill="#fcfcd7" stroke="black" points="594,-52 540,-52 540,-16 594,-16 594,-52"/>
<text text-anchor="middle" x="567" y="-30.3" font-family="Times,serif" font-size="14.00">ints</text>
</g>
<!-- NASALib/CCG&#45;&gt;NASALib/ints -->
<g id="edge2" class="edge">
<title>NASALib/CCG&#45;&gt;NASALib/ints</title>
<path fill="none" stroke="black" d="M765.4,-810.7C775.47,-789.97 791,-758 791,-758"/>
<path fill="none" stroke="black" d="M791,-756C791,-756 791,-614 791,-614 791,-614 791,-614 791,-540 791,-540 821,-271 821,-271 821,-271 821,-235 821,-235 821,-235 621,-110 621,-110"/>
</g>
<!-- NASALib/orders -->
<g id="node12" class="node">
<title>NASALib/orders</title>
<polygon fill="#fcfcd7" stroke="black" points="594,-199 540,-199 540,-163 594,-163 594,-199"/>
<text text-anchor="middle" x="567" y="-177.3" font-family="Times,serif" font-size="14.00">orders</text>
</g>
<!-- NASALib/CCG&#45;&gt;NASALib/orders -->
<g id="edge3" class="edge">
<title>NASALib/CCG&#45;&gt;NASALib/orders</title>
<path fill="none" stroke="black" d="M751,-612C751,-612 751,-398 751,-398"/>
</g>
<!-- NASALib/reals -->
<g id="node14" class="node">
<title>NASALib/reals</title>
<polygon fill="#fcfcd7" stroke="black" points="558,-775 504,-775 504,-739 558,-739 558,-775"/>
<text text-anchor="middle" x="531" y="-753.3" font-family="Times,serif" font-size="14.00">reals</text>
</g>
<!-- NASALib/CCG&#45;&gt;NASALib/reals -->
<g id="edge4" class="edge">
<title>NASALib/CCG&#45;&gt;NASALib/reals</title>
<path fill="none" stroke="black" d="M729.88,-816.76C722.26,-813.59 716,-811 716,-811 716,-811 623.4,-784.47 569.23,-768.95"/>
<polygon fill="black" stroke="black" points="570.33,-765.63 559.75,-766.24 568.4,-772.36 570.33,-765.63"/>
</g>
<!-- NASALib/sets_aux -->
<g id="node16" class="node">
<title>NASALib/sets_aux</title>
<polygon fill="#fcfcd7" stroke="black" points="629.5,-415 566.5,-415 566.5,-379 629.5,-379 629.5,-415"/>
<text text-anchor="middle" x="598" y="-393.3" font-family="Times,serif" font-size="14.00">sets_aux</text>
</g>
<!-- NASALib/CCG&#45;&gt;NASALib/sets_aux -->
<g id="edge5" class="edge">
<title>NASALib/CCG&#45;&gt;NASALib/sets_aux</title>
<path fill="none" stroke="black" d="M751,-612C751,-612 711,-542 711,-542"/>
<path fill="none" stroke="black" d="M756.52,-810.85C755.1,-760.07 751,-614 751,-614"/>
</g>
<!-- NASALib/structures -->
<g id="node18" class="node">
<title>NASALib/structures</title>
<polygon fill="#fcfcd7" stroke="black" points="601.5,-127 532.5,-127 532.5,-91 601.5,-91 601.5,-127"/>
<text text-anchor="middle" x="567" y="-105.3" font-family="Times,serif" font-size="14.00">structures</text>
</g>
<!-- NASALib/CCG&#45;&gt;NASALib/structures -->
<g id="edge6" class="edge">
<title>NASALib/CCG&#45;&gt;NASALib/structures</title>
<path fill="none" stroke="black" d="M769.77,-810.65C781.14,-795.19 796,-775 796,-775 796,-775 851,-614 851,-614"/>
<path fill="none" stroke="black" d="M851,-612C851,-612 851,-470 851,-470 851,-470 851,-470 851,-252 851,-252 821,-235 821,-235 821,-235 685.05,-168.1 612.07,-132.18"/>
<polygon fill="black" stroke="black" points="613.66,-129.06 603.14,-127.79 610.57,-135.34 613.66,-129.06"/>
</g>
<!-- lib/finite_sets -->
<g id="node22" class="node">
<title>lib/finite_sets</title>
<polygon fill="#fcfcd7" stroke="black" points="948,-52 876,-52 876,-16 948,-16 948,-52"/>
<text text-anchor="middle" x="912" y="-30.3" font-family="Times,serif" font-size="14.00">finite_sets</text>
</g>
<!-- NASALib/CCG&#45;&gt;lib/finite_sets -->
<g id="edge7" class="edge">
<title>NASALib/CCG&#45;&gt;lib/finite_sets</title>
<path fill="none" stroke="black" d="M851,-612C851,-612 880,-542 880,-542"/>
</g>
<!-- NASALib/PVS0 -->
<g id="node2" class="node">
<title>NASALib/PVS0</title>
<polygon fill="#f7e28d" stroke="black" points="761,-919 707,-919 707,-883 761,-883 761,-919"/>
<text text-anchor="middle" x="734" y="-897.3" font-family="Times,serif" font-size="14.00">PVS0</text>
</g>
<!-- NASALib/PVS0&#45;&gt;NASALib/CCG -->
<g id="edge8" class="edge">
<title>NASALib/PVS0&#45;&gt;NASALib/CCG</title>
<path fill="none" stroke="black" d="M739.69,-882.7C742.14,-875.24 745.07,-866.32 747.81,-857.97"/>
<polygon fill="black" stroke="black" points="751.11,-859.14 750.91,-848.54 744.46,-856.95 751.11,-859.14"/>
</g>
<!-- NASALib/PVS0&#45;&gt;NASALib/digraphs -->
<g id="edge9" class="edge">
<title>NASALib/PVS0&#45;&gt;NASALib/digraphs</title>
<path fill="none" stroke="black" d="M711,-828C711,-828 771,-686 771,-686 771,-686 771,-686 771,-396 771,-396 775.55,-324.2 778.18,-282.71"/>
<polygon fill="black" stroke="black" points="781.66,-283.12 778.8,-272.92 774.68,-282.68 781.66,-283.12"/>
</g>
<!-- NASALib/numbers -->
<g id="node11" class="node">
<title>NASALib/numbers</title>
<polygon fill="#fcfcd7" stroke="black" points="563,-847 499,-847 499,-811 563,-811 563,-847"/>
<text text-anchor="middle" x="531" y="-825.3" font-family="Times,serif" font-size="14.00">numbers</text>
</g>
<!-- NASALib/PVS0&#45;&gt;NASALib/numbers -->
<g id="edge10" class="edge">
<title>NASALib/PVS0&#45;&gt;NASALib/numbers</title>
<path fill="none" stroke="black" d="M706.62,-890.56C672.59,-878.83 614.12,-858.66 574.07,-844.85"/>
<polygon fill="black" stroke="black" points="575.32,-841.58 564.72,-841.63 573.04,-848.2 575.32,-841.58"/>
</g>
<!-- NASALib/PVS0&#45;&gt;NASALib/orders -->
<g id="edge11" class="edge">
<title>NASALib/PVS0&#45;&gt;NASALib/orders</title>
<path fill="none" stroke="black" d="M753.32,-882.65C770.53,-867.19 793,-847 793,-847 793,-847 811,-830 811,-830"/>
<path fill="none" stroke="black" d="M811,-828C811,-828 811,-686 811,-686 811,-686 811,-686 811,-540 811,-540 745,-307 745,-307 745,-307 729,-254 729,-254"/>
</g>
<!-- NASALib/PVS0&#45;&gt;NASALib/sets_aux -->
<g id="edge12" class="edge">
<title>NASALib/PVS0&#45;&gt;NASALib/sets_aux</title>
<path fill="none" stroke="black" d="M711,-828C711,-828 711,-614 711,-614"/>
</g>
<!-- NASALib/PVS0&#45;&gt;NASALib/structures -->
<g id="edge13" class="edge">
<title>NASALib/PVS0&#45;&gt;NASALib/structures</title>
<path fill="none" stroke="black" d="M297,-180C297,-180 444.47,-141.77 521.44,-121.81"/>
<polygon fill="black" stroke="black" points="521.99,-125.29 530.79,-119.39 520.23,-118.51 521.99,-125.29"/>
<path fill="none" stroke="black" d="M728.31,-882.7C721.5,-861.97 711,-830 711,-830"/>
<path fill="none" stroke="black" d="M711,-828C711,-828 495,-775 495,-775 495,-775 213,-703 213,-703 213,-703 73,-631 73,-631 73,-631 57,-614 57,-614 57,-614 57,-614 57,-540 57,-540 92,-379 92,-379 92,-379 112,-307 112,-307 112,-307 152,-235 152,-235 152,-235 297,-182 297,-182"/>
</g>
<!-- NASALib/PVS0&#45;&gt;lib/finite_sets -->
<g id="edge14" class="edge">
<title>NASALib/PVS0&#45;&gt;lib/finite_sets</title>
<path fill="none" stroke="black" d="M811,-828C811,-828 864,-631 864,-631 864,-631 880,-542 880,-542"/>
</g>
<!-- NASALib/analysis -->
<g id="node3" class="node">
<title>NASALib/analysis</title>
<polygon fill="#fcfcd7" stroke="black" points="376,-271 316,-271 316,-235 376,-235 376,-271"/>
<text text-anchor="middle" x="346" y="-249.3" font-family="Times,serif" font-size="14.00">analysis</text>
</g>
<!-- NASALib/analysis&#45;&gt;NASALib/ints -->
<g id="edge15" class="edge">
<title>NASALib/analysis&#45;&gt;NASALib/ints</title>
<path fill="none" stroke="black" d="M621,-108C621,-108 611,-91 611,-91 611,-91 599.07,-75.81 587.63,-61.25"/>
<polygon fill="black" stroke="black" points="590.55,-59.3 581.62,-53.6 585.04,-63.63 590.55,-59.3"/>
<path fill="none" stroke="black" d="M376.48,-239.81C426.62,-219.75 521,-182 521,-182"/>
<path fill="none" stroke="black" d="M521,-180C521,-180 531,-163 531,-163 531,-163 611,-127 611,-127 611,-127 621,-110 621,-110"/>
</g>
<!-- NASALib/analysis&#45;&gt;NASALib/orders -->
<g id="edge16" class="edge">
<title>NASALib/analysis&#45;&gt;NASALib/orders</title>
<path fill="none" stroke="black" d="M376.13,-243.13C427.37,-228.04 526,-199 526,-199 526,-199 527.37,-198.43 529.62,-197.5"/>
<polygon fill="black" stroke="black" points="530.59,-200.89 538.48,-193.82 527.9,-194.42 530.59,-200.89"/>
</g>
<!-- NASALib/analysis&#45;&gt;NASALib/reals -->
<g id="edge17" class="edge">
<title>NASALib/analysis&#45;&gt;NASALib/reals</title>
<path fill="none" stroke="black" d="M219,-614C219,-614 360,-703 360,-703 360,-703 455.19,-732.5 503.53,-747.48"/>
<path fill="none" stroke="black" d="M321.44,-271.35C299.57,-286.81 271,-307 271,-307 271,-307 195,-379 195,-379 195,-379 140,-451 140,-451 140,-451 138.19,-504.78 137.38,-528.73"/>
<polygon fill="black" stroke="black" points="133.89,-528.38 137.05,-538.49 140.89,-528.61 133.89,-528.38"/>
<path fill="none" stroke="black" d="M137,-542C137,-542 219,-612 219,-612"/>
</g>
<!-- NASALib/analysis&#45;&gt;NASALib/structures -->
<g id="edge18" class="edge">
<title>NASALib/analysis&#45;&gt;NASALib/structures</title>
<path fill="none" stroke="black" d="M333.89,-234.7C319.38,-213.97 297,-182 297,-182"/>
</g>
<!-- NASALib/analysis&#45;&gt;lib/finite_sets -->
<g id="edge19" class="edge">
<title>NASALib/analysis&#45;&gt;lib/finite_sets</title>
<path fill="none" stroke="black" d="M376.45,-248.68C421.85,-243.73 502,-235 502,-235 502,-235 864,-199 864,-199 864,-199 880,-182 880,-182"/>
<path fill="none" stroke="black" d="M880,-180C880,-180 880,-110 880,-110"/>
</g>
<!-- NASALib/digraphs&#45;&gt;NASALib/ints -->
<g id="edge20" class="edge">
<title>NASALib/digraphs&#45;&gt;NASALib/ints</title>
<path fill="none" stroke="black" d="M621,-180C621,-180 621,-110 621,-110"/>
</g>
<!-- NASALib/digraphs&#45;&gt;NASALib/orders -->
<g id="edge21" class="edge">
<title>NASALib/digraphs&#45;&gt;NASALib/orders</title>
<path fill="none" stroke="black" d="M748.05,-240.19C740.2,-237.29 734,-235 734,-235 734,-235 616,-199 616,-199 616,-199 611.3,-197.37 604.81,-195.12"/>
<polygon fill="black" stroke="black" points="606.39,-191.96 595.8,-191.99 604.1,-198.57 606.39,-191.96"/>
</g>
<!-- NASALib/digraphs&#45;&gt;NASALib/structures -->
<g id="edge22" class="edge">
<title>NASALib/digraphs&#45;&gt;NASALib/structures</title>
<path fill="none" stroke="black" d="M621,-180C621,-180 602.62,-156.18 587.31,-136.33"/>
<polygon fill="black" stroke="black" points="590.15,-134.28 581.27,-128.5 584.61,-138.56 590.15,-134.28"/>
<path fill="none" stroke="black" d="M748.05,-240.19C740.2,-237.29 734,-235 734,-235 734,-235 636,-199 636,-199 636,-199 621,-182 621,-182"/>
</g>
<!-- NASALib/digraphs&#45;&gt;lib/finite_sets -->
<g id="edge23" class="edge">
<title>NASALib/digraphs&#45;&gt;lib/finite_sets</title>
<path fill="none" stroke="black" d="M807.5,-234.65C832,-219.19 864,-199 864,-199 864,-199 880,-182 880,-182"/>
</g>
<!-- NASALib/extended_nnreal -->
<g id="node5" class="node">
<title>NASALib/extended_nnreal</title>
<polygon fill="#fcfcd7" stroke="black" points="632,-559 526,-559 526,-523 632,-523 632,-559"/>
<text text-anchor="middle" x="579" y="-537.3" font-family="Times,serif" font-size="14.00">extended_nnreal</text>
</g>
<!-- NASALib/extended_nnreal&#45;&gt;NASALib/analysis -->
<g id="edge24" class="edge">
<title>NASALib/extended_nnreal&#45;&gt;NASALib/analysis</title>
<path fill="none" stroke="black" d="M527,-468C527,-468 509,-307 509,-307 509,-307 435.34,-283.05 387.05,-267.35"/>
<polygon fill="black" stroke="black" points="388.31,-264.08 377.72,-264.31 386.14,-270.73 388.31,-264.08"/>
</g>
<!-- NASALib/extended_nnreal&#45;&gt;NASALib/reals -->
<g id="edge25" class="edge">
<title>NASALib/extended_nnreal&#45;&gt;NASALib/reals</title>
<path fill="none" stroke="black" d="M671,-614C671,-614 556,-684 556,-684"/>
<path fill="none" stroke="black" d="M601.74,-559.3C621.11,-574.04 647.94,-594.46 661.84,-605.03"/>
<polygon fill="black" stroke="black" points="659.72,-607.81 669.8,-611.08 663.96,-602.24 659.72,-607.81"/>
</g>
<!-- NASALib/series -->
<g id="node15" class="node">
<title>NASALib/series</title>
<polygon fill="#fcfcd7" stroke="black" points="500,-343 446,-343 446,-307 500,-307 500,-343"/>
<text text-anchor="middle" x="473" y="-321.3" font-family="Times,serif" font-size="14.00">series</text>
</g>
<!-- NASALib/extended_nnreal&#45;&gt;NASALib/series -->
<g id="edge26" class="edge">
<title>NASALib/extended_nnreal&#45;&gt;NASALib/series</title>
<path fill="none" stroke="black" d="M527,-468C527,-468 507,-398 507,-398"/>
<path fill="none" stroke="black" d="M565.25,-522.65C553,-507.19 537,-487 537,-487 537,-487 527,-470 527,-470"/>
</g>
<!-- NASALib/sigma_set -->
<g id="node17" class="node">
<title>NASALib/sigma_set</title>
<polygon fill="#fcfcd7" stroke="black" points="617.5,-487 546.5,-487 546.5,-451 617.5,-451 617.5,-487"/>
<text text-anchor="middle" x="582" y="-465.3" font-family="Times,serif" font-size="14.00">sigma_set</text>
</g>
<!-- NASALib/extended_nnreal&#45;&gt;NASALib/sigma_set -->
<g id="edge27" class="edge">
<title>NASALib/extended_nnreal&#45;&gt;NASALib/sigma_set</title>
<path fill="none" stroke="black" d="M579.74,-522.7C580.05,-515.41 580.43,-506.73 580.78,-498.54"/>
<polygon fill="black" stroke="black" points="584.27,-498.76 581.2,-488.62 577.28,-498.46 584.27,-498.76"/>
</g>
<!-- NASALib/lebesgue -->
<g id="node7" class="node">
<title>NASALib/lebesgue</title>
<polygon fill="#fcfcd7" stroke="black" points="537,-703 473,-703 473,-667 537,-667 537,-703"/>
<text text-anchor="middle" x="505" y="-681.3" font-family="Times,serif" font-size="14.00">lebesgue</text>
</g>
<!-- NASALib/lebesgue&#45;&gt;NASALib/analysis -->
<g id="edge28" class="edge">
<title>NASALib/lebesgue&#45;&gt;NASALib/analysis</title>
<path fill="none" stroke="black" d="M277,-396C277,-396 312.49,-322.97 332.56,-281.65"/>
<polygon fill="black" stroke="black" points="335.66,-283.3 336.88,-272.77 329.36,-280.24 335.66,-283.3"/>
<path fill="none" stroke="black" d="M299,-612C299,-612 239,-542 239,-542"/>
<path fill="none" stroke="black" d="M239,-540C239,-540 241,-451 241,-451 241,-451 267,-415 267,-415 267,-415 277,-398 277,-398"/>
</g>
<!-- NASALib/lebesgue&#45;&gt;NASALib/extended_nnreal -->
<g id="edge29" class="edge">
<title>NASALib/lebesgue&#45;&gt;NASALib/extended_nnreal</title>
<path fill="none" stroke="black" d="M537.09,-666.65C565.67,-651.19 603,-631 603,-631 603,-631 603,-595 603,-595 603,-595 597.31,-582.43 591.47,-569.53"/>
<polygon fill="black" stroke="black" points="594.8,-568.4 587.48,-560.73 588.42,-571.29 594.8,-568.4"/>
</g>
<!-- NASALib/measure_integration -->
<g id="node9" class="node">
<title>NASALib/measure_integration</title>
<polygon fill="#fcfcd7" stroke="black" points="594,-631 466,-631 466,-595 594,-595 594,-631"/>
<text text-anchor="middle" x="530" y="-609.3" font-family="Times,serif" font-size="14.00">measure_integration</text>
</g>
<!-- NASALib/lebesgue&#45;&gt;NASALib/measure_integration -->
<g id="edge30" class="edge">
<title>NASALib/lebesgue&#45;&gt;NASALib/measure_integration</title>
<path fill="none" stroke="black" d="M511.18,-666.7C513.87,-659.15 517.1,-650.12 520.11,-641.68"/>
<polygon fill="black" stroke="black" points="523.31,-643.12 523.38,-632.53 516.72,-640.77 523.31,-643.12"/>
</g>
<!-- NASALib/metric_space -->
<g id="node10" class="node">
<title>NASALib/metric_space</title>
<polygon fill="#fcfcd7" stroke="black" points="407.5,-559 318.5,-559 318.5,-523 407.5,-523 407.5,-559"/>
<text text-anchor="middle" x="363" y="-537.3" font-family="Times,serif" font-size="14.00">metric_space</text>
</g>
<!-- NASALib/lebesgue&#45;&gt;NASALib/metric_space -->
<g id="edge31" class="edge">
<title>NASALib/lebesgue&#45;&gt;NASALib/metric_space</title>
<path fill="none" stroke="black" d="M299,-612C299,-612 321.18,-587.74 339.42,-567.79"/>
<polygon fill="black" stroke="black" points="341.99,-570.16 346.16,-560.42 336.83,-565.44 341.99,-570.16"/>
</g>
<!-- NASALib/power -->
<g id="node13" class="node">
<title>NASALib/power</title>
<polygon fill="#fcfcd7" stroke="black" points="304,-487 250,-487 250,-451 304,-451 304,-487"/>
<text text-anchor="middle" x="277" y="-465.3" font-family="Times,serif" font-size="14.00">power</text>
</g>
<!-- NASALib/lebesgue&#45;&gt;NASALib/power -->
<g id="edge32" class="edge">
<title>NASALib/lebesgue&#45;&gt;NASALib/power</title>
<path fill="none" stroke="black" d="M239,-540C239,-540 251.47,-517.03 262.12,-497.41"/>
<polygon fill="black" stroke="black" points="265.19,-499.09 266.88,-488.63 259.04,-495.75 265.19,-499.09"/>
</g>
<!-- NASALib/lebesgue&#45;&gt;NASALib/sets_aux -->
<g id="edge34" class="edge">
<title>NASALib/lebesgue&#45;&gt;NASALib/sets_aux</title>
<path fill="none" stroke="black" d="M487,-540C487,-540 487,-470 487,-470"/>
<path fill="none" stroke="black" d="M299,-612C299,-612 487,-542 487,-542"/>
</g>
<!-- NASALib/lebesgue&#45;&gt;NASALib/sigma_set -->
<g id="edge35" class="edge">
<title>NASALib/lebesgue&#45;&gt;NASALib/sigma_set</title>
<path fill="none" stroke="black" d="M487,-540C487,-540 522.02,-514.2 549.53,-493.92"/>
<polygon fill="black" stroke="black" points="551.32,-496.95 557.3,-488.2 547.17,-491.32 551.32,-496.95"/>
</g>
<!-- NASALib/lebesgue&#45;&gt;NASALib/structures -->
<g id="edge36" class="edge">
<title>NASALib/lebesgue&#45;&gt;NASALib/structures</title>
<path fill="none" stroke="black" d="M299,-612C299,-612 234,-559 234,-559 234,-559 147,-487 147,-487 147,-487 117,-326 117,-326"/>
<path fill="none" stroke="black" d="M472.81,-673.06C414.88,-653.38 299,-614 299,-614"/>
</g>
<!-- NASALib/topology -->
<g id="node19" class="node">
<title>NASALib/topology</title>
<polygon fill="#fcfcd7" stroke="black" points="387.5,-487 322.5,-487 322.5,-451 387.5,-451 387.5,-487"/>
<text text-anchor="middle" x="355" y="-465.3" font-family="Times,serif" font-size="14.00">topology</text>
</g>
<!-- NASALib/lebesgue&#45;&gt;NASALib/topology -->
<g id="edge37" class="edge">
<title>NASALib/lebesgue&#45;&gt;NASALib/topology</title>
<path fill="none" stroke="black" d="M299,-612C299,-612 309,-523 309,-523 309,-523 320.79,-509.41 332.43,-496"/>
<polygon fill="black" stroke="black" points="335.03,-498.34 338.95,-488.5 329.75,-493.76 335.03,-498.34"/>
</g>
<!-- NASALib/lnexp -->
<g id="node8" class="node">
<title>NASALib/lnexp</title>
<polygon fill="#fcfcd7" stroke="black" points="258,-415 204,-415 204,-379 258,-379 258,-415"/>
<text text-anchor="middle" x="231" y="-393.3" font-family="Times,serif" font-size="14.00">lnexp</text>
</g>
<!-- NASALib/lnexp&#45;&gt;NASALib/analysis -->
<g id="edge38" class="edge">
<title>NASALib/lnexp&#45;&gt;NASALib/analysis</title>
<path fill="none" stroke="black" d="M245.1,-378.59C265.13,-353.86 301.94,-308.41 325.13,-279.77"/>
<polygon fill="black" stroke="black" points="327.62,-282.26 331.19,-272.29 322.18,-277.86 327.62,-282.26"/>
</g>
<!-- NASALib/lnexp&#45;&gt;NASALib/ints -->
<g id="edge39" class="edge">
<title>NASALib/lnexp&#45;&gt;NASALib/ints</title>
<path fill="none" stroke="black" d="M203.7,-383.84C168.57,-368.19 112,-343 112,-343 112,-343 112,-307 112,-307 112,-307 177,-182 177,-182"/>
<path fill="none" stroke="black" d="M177,-180C177,-180 177,-110 177,-110"/>
</g>
<!-- NASALib/lnexp&#45;&gt;NASALib/reals -->
<g id="edge40" class="edge">
<title>NASALib/lnexp&#45;&gt;NASALib/reals</title>
<path fill="none" stroke="black" d="M203.96,-415.06C179.4,-430.55 147,-451 147,-451 147,-451 140.96,-504.78 138.27,-528.73"/>
<polygon fill="black" stroke="black" points="134.81,-528.17 137.17,-538.5 141.76,-528.95 134.81,-528.17"/>
</g>
<!-- NASALib/lnexp&#45;&gt;NASALib/series -->
<g id="edge41" class="edge">
<title>NASALib/lnexp&#45;&gt;NASALib/series</title>
<path fill="none" stroke="black" d="M258.29,-388.11C301.52,-375.6 385.88,-351.2 435.01,-336.99"/>
<polygon fill="black" stroke="black" points="435.72,-340.43 444.36,-334.29 433.78,-333.7 435.72,-340.43"/>
</g>
<!-- NASALib/measure_integration&#45;&gt;NASALib/extended_nnreal -->
<g id="edge42" class="edge">
<title>NASALib/measure_integration&#45;&gt;NASALib/extended_nnreal</title>
<path fill="none" stroke="black" d="M542.11,-594.7C547.69,-586.73 554.43,-577.1 560.62,-568.26"/>
<polygon fill="black" stroke="black" points="563.29,-570.54 566.16,-560.34 557.56,-566.53 563.29,-570.54"/>
</g>
<!-- NASALib/measure_integration&#45;&gt;NASALib/metric_space -->
<g id="edge43" class="edge">
<title>NASALib/measure_integration&#45;&gt;NASALib/metric_space</title>
<path fill="none" stroke="black" d="M488.29,-594.52C466.09,-585.21 438.58,-573.68 414.99,-563.79"/>
<polygon fill="black" stroke="black" points="416.44,-560.6 405.86,-559.97 413.73,-567.06 416.44,-560.6"/>
</g>
<!-- NASALib/measure_integration&#45;&gt;NASALib/orders -->
<g id="edge44" class="edge">
<title>NASALib/measure_integration&#45;&gt;NASALib/orders</title>
<path fill="none" stroke="black" d="M729,-252C729,-252 652.68,-219.02 604.81,-198.34"/>
<polygon fill="black" stroke="black" points="606.44,-195.23 595.87,-194.47 603.66,-201.65 606.44,-195.23"/>
<path fill="none" stroke="black" d="M751,-396C751,-396 729,-254 729,-254"/>
<path fill="none" stroke="black" d="M691,-540C691,-540 751,-398 751,-398"/>
</g>
<!-- NASALib/measure_integration&#45;&gt;NASALib/power -->
<g id="edge45" class="edge">
<title>NASALib/measure_integration&#45;&gt;NASALib/power</title>
<path fill="none" stroke="black" d="M465.78,-596.6C400.53,-580.95 309,-559 309,-559 309,-559 296.34,-523.8 286.95,-497.67"/>
<polygon fill="black" stroke="black" points="290.36,-496.81 283.68,-488.58 283.77,-499.18 290.36,-496.81"/>
</g>
<!-- NASALib/measure_integration&#45;&gt;NASALib/reals -->
<g id="edge46" class="edge">
<title>NASALib/measure_integration&#45;&gt;NASALib/reals</title>
<path fill="none" stroke="black" d="M536.43,-631.3C541.3,-644.42 547.84,-662.04 551.99,-673.21"/>
<polygon fill="black" stroke="black" points="548.71,-674.43 555.47,-682.58 555.27,-671.99 548.71,-674.43"/>
</g>
<!-- NASALib/measure_integration&#45;&gt;NASALib/series -->
<g id="edge47" class="edge">
<title>NASALib/measure_integration&#45;&gt;NASALib/series</title>
<path fill="none" stroke="black" d="M507,-396C507,-396 495.84,-373.03 486.31,-353.41"/>
<polygon fill="black" stroke="black" points="489.58,-352.13 482.07,-344.66 483.29,-355.19 489.58,-352.13"/>
<path fill="none" stroke="black" d="M525.74,-594.65C521.95,-579.19 517,-559 517,-559 517,-559 507,-398 507,-398"/>
</g>
<!-- NASALib/measure_integration&#45;&gt;NASALib/sets_aux -->
<g id="edge48" class="edge">
<title>NASALib/measure_integration&#45;&gt;NASALib/sets_aux</title>
<path fill="none" stroke="black" d="M691,-468C691,-468 657.02,-442.42 630.13,-422.19"/>
<polygon fill="black" stroke="black" points="632.29,-419.43 622.2,-416.21 628.08,-425.02 632.29,-419.43"/>
<path fill="none" stroke="black" d="M691,-540C691,-540 691,-470 691,-470"/>
<path fill="none" stroke="black" d="M570.21,-594.52C617.9,-573.78 691,-542 691,-542"/>
</g>
<!-- NASALib/measure_integration&#45;&gt;NASALib/sigma_set -->
<g id="edge49" class="edge">
<title>NASALib/measure_integration&#45;&gt;NASALib/sigma_set</title>
<path fill="none" stroke="black" d="M566.35,-594.65C598.72,-579.19 641,-559 641,-559 641,-559 641,-523 641,-523 641,-523 625,-508.63 609.66,-494.85"/>
<polygon fill="black" stroke="black" points="612.22,-492.44 602.44,-488.37 607.55,-497.65 612.22,-492.44"/>
</g>
<!-- NASALib/measure_integration&#45;&gt;NASALib/structures -->
<g id="edge50" class="edge">
<title>NASALib/measure_integration&#45;&gt;NASALib/structures</title>
<path fill="none" stroke="black" d="M523.39,-594.82C495.03,-521.07 385,-235 385,-235 385,-235 297,-182 297,-182"/>
</g>
<!-- NASALib/measure_integration&#45;&gt;NASALib/topology -->
<g id="edge51" class="edge">
<title>NASALib/measure_integration&#45;&gt;NASALib/topology</title>
<path fill="none" stroke="black" d="M507.73,-594.65C487.9,-579.19 462,-559 462,-559 462,-559 416.07,-520.79 384.39,-494.45"/>
<polygon fill="black" stroke="black" points="386.97,-492.04 377.05,-488.34 382.5,-497.42 386.97,-492.04"/>
</g>
<!-- NASALib/measure_integration&#45;&gt;lib/finite_sets -->
<g id="edge52" class="edge">
<title>NASALib/measure_integration&#45;&gt;lib/finite_sets</title>
<path fill="none" stroke="black" d="M880,-540C880,-540 880,-470 880,-470"/>
<path fill="none" stroke="black" d="M594.4,-601.78C691.46,-586.38 864,-559 864,-559 864,-559 880,-542 880,-542"/>
</g>
<!-- NASALib/metric_space&#45;&gt;NASALib/analysis -->
<g id="edge53" class="edge">
<title>NASALib/metric_space&#45;&gt;NASALib/analysis</title>
<path fill="none" stroke="black" d="M373.81,-522.65C383.43,-507.19 396,-487 396,-487 396,-487 396,-451 396,-451 396,-451 388,-379 388,-379 388,-379 367.78,-318.82 355.4,-281.97"/>
<polygon fill="black" stroke="black" points="358.82,-281.18 352.32,-272.82 352.19,-283.41 358.82,-281.18"/>
</g>
<!-- NASALib/metric_space&#45;&gt;NASALib/power -->
<g id="edge54" class="edge">
<title>NASALib/metric_space&#45;&gt;NASALib/power</title>
<path fill="none" stroke="black" d="M341.74,-522.7C331.3,-514.2 318.54,-503.81 307.12,-494.51"/>
<polygon fill="black" stroke="black" points="309.45,-491.9 299.49,-488.3 305.03,-497.33 309.45,-491.9"/>
</g>
<!-- NASALib/metric_space&#45;&gt;NASALib/series -->
<g id="edge56" class="edge">
<title>NASALib/metric_space&#45;&gt;NASALib/series</title>
<path fill="none" stroke="black" d="M379.04,-522.65C393.33,-507.19 412,-487 412,-487 412,-487 445.06,-399.75 462.5,-353.71"/>
<polygon fill="black" stroke="black" points="465.67,-355.24 465.94,-344.65 459.12,-352.76 465.67,-355.24"/>
</g>
<!-- NASALib/metric_space&#45;&gt;NASALib/sets_aux -->
<g id="edge57" class="edge">
<title>NASALib/metric_space&#45;&gt;NASALib/sets_aux</title>
<path fill="none" stroke="black" d="M487,-468C487,-468 528.39,-441.9 560.62,-421.57"/>
<polygon fill="black" stroke="black" points="562.4,-424.59 569,-416.29 558.67,-418.66 562.4,-424.59"/>
<path fill="none" stroke="black" d="M393.97,-522.52C430.7,-501.78 487,-470 487,-470"/>
</g>
<!-- NASALib/metric_space&#45;&gt;NASALib/topology -->
<g id="edge58" class="edge">
<title>NASALib/metric_space&#45;&gt;NASALib/topology</title>
<path fill="none" stroke="black" d="M361.02,-522.7C360.19,-515.41 359.2,-506.73 358.26,-498.54"/>
<polygon fill="black" stroke="black" points="361.74,-498.15 357.13,-488.61 354.78,-498.94 361.74,-498.15"/>
</g>
<!-- NASALib/vectors -->
<g id="node21" class="node">
<title>NASALib/vectors</title>
<polygon fill="#fcfcd7" stroke="black" points="212,-487 156,-487 156,-451 212,-451 212,-487"/>
<text text-anchor="middle" x="184" y="-465.3" font-family="Times,serif" font-size="14.00">vectors</text>
</g>
<!-- NASALib/metric_space&#45;&gt;NASALib/vectors -->
<g id="edge59" class="edge">
<title>NASALib/metric_space&#45;&gt;NASALib/vectors</title>
<path fill="none" stroke="black" d="M318.29,-522.52C288.95,-511.04 250.95,-496.18 222.86,-485.2"/>
<polygon fill="black" stroke="black" points="224.24,-481.98 213.65,-481.6 221.69,-488.5 224.24,-481.98"/>
</g>
<!-- NASALib/metric_space&#45;&gt;lib/finite_sets -->
<g id="edge60" class="edge">
<title>NASALib/metric_space&#45;&gt;lib/finite_sets</title>
<path fill="none" stroke="black" d="M880,-468C880,-468 880,-326 880,-326"/>
<path fill="none" stroke="black" d="M407.99,-533.57C441.69,-528.76 482,-523 482,-523 482,-523 880,-470 880,-470"/>
</g>
<!-- NASALib/numbers&#45;&gt;NASALib/ints -->
<g id="edge61" class="edge">
<title>NASALib/numbers&#45;&gt;NASALib/ints</title>
<path fill="none" stroke="black" d="M17,-252C17,-252 177,-110 177,-110"/>
<path fill="none" stroke="black" d="M177,-108C177,-108 429.83,-60.68 528.35,-42.23"/>
<polygon fill="black" stroke="black" points="528.9,-45.69 538.09,-40.41 527.61,-38.81 528.9,-45.69"/>
<path fill="none" stroke="black" d="M498.63,-820.85C433.12,-806.39 291,-775 291,-775 291,-775 52,-703 52,-703 52,-703 37,-686 37,-686 37,-686 37,-686 37,-468 37,-468 37,-326 37,-326"/>
<path fill="none" stroke="black" d="M37,-324C37,-324 17,-254 17,-254"/>
</g>
<!-- NASALib/numbers&#45;&gt;NASALib/reals -->
<g id="edge62" class="edge">
<title>NASALib/numbers&#45;&gt;NASALib/reals</title>
<path fill="none" stroke="black" d="M531,-810.7C531,-803.41 531,-794.73 531,-786.54"/>
<polygon fill="black" stroke="black" points="534.5,-786.62 531,-776.62 527.5,-786.62 534.5,-786.62"/>
</g>
<!-- NASALib/numbers&#45;&gt;NASALib/structures -->
<g id="edge63" class="edge">
<title>NASALib/numbers&#45;&gt;NASALib/structures</title>
<path fill="none" stroke="black" d="M37,-324C37,-324 82,-235 82,-235 82,-235 292,-163 292,-163 292,-163 442.96,-133.91 521.18,-118.83"/>
<polygon fill="black" stroke="black" points="521.53,-122.33 530.68,-117 520.2,-115.45 521.53,-122.33"/>
</g>
<!-- NASALib/orders&#45;&gt;NASALib/structures -->
<g id="edge64" class="edge">
<title>NASALib/orders&#45;&gt;NASALib/structures</title>
<path fill="none" stroke="black" d="M567,-162.7C567,-155.41 567,-146.73 567,-138.54"/>
<polygon fill="black" stroke="black" points="570.5,-138.62 567,-128.62 563.5,-138.62 570.5,-138.62"/>
</g>
<!-- NASALib/orders&#45;&gt;lib/finite_sets -->
<g id="edge65" class="edge">
<title>NASALib/orders&#45;&gt;lib/finite_sets</title>
<path fill="none" stroke="black" d="M880,-108C880,-108 890.84,-83.26 899.91,-62.59"/>
<polygon fill="black" stroke="black" points="903,-64.25 903.81,-53.69 896.59,-61.44 903,-64.25"/>
<path fill="none" stroke="black" d="M594.37,-170.51C605.59,-166.61 616,-163 616,-163 616,-163 880,-110 880,-110"/>
</g>
<!-- NASALib/power&#45;&gt;NASALib/analysis -->
<g id="edge66" class="edge">
<title>NASALib/power&#45;&gt;NASALib/analysis</title>
<path fill="none" stroke="black" d="M277,-450.7C277,-429.97 277,-398 277,-398"/>
</g>
<!-- NASALib/power&#45;&gt;NASALib/lnexp -->
<g id="edge67" class="edge">
<title>NASALib/power&#45;&gt;NASALib/lnexp</title>
<path fill="none" stroke="black" d="M265.63,-450.7C260.45,-442.81 254.2,-433.3 248.44,-424.55"/>
<polygon fill="black" stroke="black" points="251.49,-422.8 243.07,-416.37 245.64,-426.65 251.49,-422.8"/>
</g>
<!-- NASALib/power&#45;&gt;NASALib/reals -->
<g id="edge68" class="edge">
<title>NASALib/power&#45;&gt;NASALib/reals</title>
<path fill="none" stroke="black" d="M262.66,-487.3C251.12,-501.23 235.38,-520.23 226.29,-531.2"/>
<polygon fill="black" stroke="black" points="223.65,-528.9 219.97,-538.83 229.04,-533.37 223.65,-528.9"/>
</g>
<!-- NASALib/reals&#45;&gt;NASALib/ints -->
<g id="edge69" class="edge">
<title>NASALib/reals&#45;&gt;NASALib/ints</title>
<path fill="none" stroke="black" d="M503.95,-749.71C443.56,-735.67 303,-703 303,-703 303,-703 77,-614 77,-614 77,-614 77,-614 77,-540 77,-540 97,-398 97,-398"/>
<path fill="none" stroke="black" d="M97,-396C97,-396 17,-254 17,-254"/>
</g>
<!-- NASALib/reals&#45;&gt;NASALib/lebesgue -->
<g id="edge70" class="edge">
<title>NASALib/reals&#45;&gt;NASALib/lebesgue</title>
<path fill="none" stroke="black" d="M520.64,-728.1C518.87,-723.34 517.04,-718.41 515.27,-713.66"/>
<polygon fill="black" stroke="black" points="517.28,-729.12 524.05,-737.28 523.85,-726.68 517.28,-729.12"/>
<polygon fill="black" stroke="black" points="518.64,-712.68 511.88,-704.52 512.08,-715.12 518.64,-712.68"/>
</g>
<!-- NASALib/reals&#45;&gt;NASALib/metric_space -->
<g id="edge71" class="edge">
<title>NASALib/reals&#45;&gt;NASALib/metric_space</title>
<path fill="none" stroke="black" d="M493.7,-736.33C426.95,-701.12 294,-631 294,-631 294,-631 294,-595 294,-595 294,-595 313.41,-580.09 331.64,-566.09"/>
<polygon fill="black" stroke="black" points="492,-739.39 502.47,-740.95 495.26,-733.19 492,-739.39"/>
<polygon fill="black" stroke="black" points="333.41,-569.14 339.21,-560.28 329.14,-563.59 333.41,-569.14"/>
</g>
<!-- NASALib/reals&#45;&gt;NASALib/sets_aux -->
<g id="edge72" class="edge">
<title>NASALib/reals&#45;&gt;NASALib/sets_aux</title>
<path fill="none" stroke="black" d="M553.07,-738.59C601.14,-700.67 711,-614 711,-614"/>
<path fill="none" stroke="black" d="M711,-612C711,-612 711,-542 711,-542"/>
<path fill="none" stroke="black" d="M711,-540C711,-540 691,-470 691,-470"/>
</g>
<!-- NASALib/reals&#45;&gt;NASALib/structures -->
<g id="edge73" class="edge">
<title>NASALib/reals&#45;&gt;NASALib/structures</title>
<path fill="none" stroke="black" d="M97,-396C97,-396 117,-326 117,-326"/>
<path fill="none" stroke="black" d="M157,-252C157,-252 297,-182 297,-182"/>
<path fill="none" stroke="black" d="M117,-324C117,-324 157,-254 157,-254"/>
</g>
<!-- NASALib/series&#45;&gt;NASALib/analysis -->
<g id="edge74" class="edge">
<title>NASALib/series&#45;&gt;NASALib/analysis</title>
<path fill="none" stroke="black" d="M445.76,-308.98C428.46,-299.45 405.76,-286.94 386.39,-276.26"/>
<polygon fill="black" stroke="black" points="388.09,-273.2 377.64,-271.44 384.71,-279.33 388.09,-273.2"/>
</g>
<!-- NASALib/series&#45;&gt;NASALib/ints -->
<g id="edge75" class="edge">
<title>NASALib/series&#45;&gt;NASALib/ints</title>
<path fill="none" stroke="black" d="M507,-252C507,-252 521,-182 521,-182"/>
<path fill="none" stroke="black" d="M481.4,-306.7C491.47,-285.97 507,-254 507,-254"/>
</g>
<!-- NASALib/series&#45;&gt;NASALib/orders -->
<g id="edge76" class="edge">
<title>NASALib/series&#45;&gt;NASALib/orders</title>
<path fill="none" stroke="black" d="M507,-252C507,-252 527.79,-227.74 544.9,-207.79"/>
<polygon fill="black" stroke="black" points="547.33,-210.32 551.18,-200.45 542.02,-205.77 547.33,-210.32"/>
</g>
<!-- NASALib/series&#45;&gt;NASALib/reals -->
<g id="edge77" class="edge">
<title>NASALib/series&#45;&gt;NASALib/reals</title>
<path fill="none" stroke="black" d="M500.41,-334.75C547.56,-349.81 639,-379 639,-379 639,-379 731,-468 731,-468 731,-542 731,-542 731,-542 731,-542 716,-631 716,-631 716,-631 625,-703 625,-703 625,-703 594.48,-720.21 568.22,-735.01"/>
<polygon fill="black" stroke="black" points="566.75,-731.82 559.76,-739.78 570.19,-737.92 566.75,-731.82"/>
</g>
<!-- NASALib/sets_aux&#45;&gt;NASALib/ints -->
<g id="edge78" class="edge">
<title>NASALib/sets_aux&#45;&gt;NASALib/ints</title>
<path fill="none" stroke="black" d="M567,-252C567,-252 531,-199 531,-199 531,-199 521,-182 521,-182"/>
<path fill="none" stroke="black" d="M567,-324C567,-324 567,-254 567,-254"/>
</g>
<!-- NASALib/sets_aux&#45;&gt;NASALib/orders -->
<g id="edge79" class="edge">
<title>NASALib/sets_aux&#45;&gt;NASALib/orders</title>
<path fill="none" stroke="black" d="M567,-252C567,-252 567,-230.08 567,-210.77"/>
<polygon fill="black" stroke="black" points="570.5,-210.82 567,-200.82 563.5,-210.82 570.5,-210.82"/>
</g>
<!-- NASALib/sets_aux&#45;&gt;NASALib/structures -->
<g id="edge80" class="edge">
<title>NASALib/sets_aux&#45;&gt;NASALib/structures</title>
<path fill="none" stroke="black" d="M567,-324C567,-324 512,-235 512,-235 512,-235 297,-182 297,-182"/>
<path fill="none" stroke="black" d="M590.34,-378.7C581.16,-357.97 567,-326 567,-326"/>
</g>
<!-- NASALib/sets_aux&#45;&gt;lib/finite_sets -->
<g id="edge81" class="edge">
<title>NASALib/sets_aux&#45;&gt;lib/finite_sets</title>
<path fill="none" stroke="black" d="M629.8,-388.11C703.55,-369.8 880,-326 880,-326"/>
<path fill="none" stroke="black" d="M880,-324C880,-324 880,-182 880,-182"/>
</g>
<!-- NASALib/sigma_set&#45;&gt;NASALib/analysis -->
<g id="edge82" class="edge">
<title>NASALib/sigma_set&#45;&gt;NASALib/analysis</title>
<path fill="none" stroke="black" d="M547,-324C547,-324 532,-307 532,-307 532,-307 441.85,-281.31 387.07,-265.7"/>
<polygon fill="black" stroke="black" points="388.33,-262.42 377.75,-263.05 386.41,-269.15 388.33,-262.42"/>
<path fill="none" stroke="black" d="M573.81,-450.65C566.52,-435.19 557,-415 557,-415 557,-415 547,-326 547,-326"/>
</g>
<!-- NASALib/sigma_set&#45;&gt;NASALib/orders -->
<g id="edge83" class="edge">
<title>NASALib/sigma_set&#45;&gt;NASALib/orders</title>
<path fill="none" stroke="black" d="M547,-324C547,-324 557.11,-252.2 562.96,-210.71"/>
<polygon fill="black" stroke="black" points="566.41,-211.3 564.34,-200.91 559.48,-210.32 566.41,-211.3"/>
</g>
<!-- NASALib/sigma_set&#45;&gt;NASALib/reals -->
<g id="edge84" class="edge">
<title>NASALib/sigma_set&#45;&gt;NASALib/reals</title>
<path fill="none" stroke="black" d="M602.96,-487.35C621.62,-502.81 646,-523 646,-523 646,-523 661.26,-577.32 667.93,-601.09"/>
<polygon fill="black" stroke="black" points="664.52,-601.86 670.59,-610.54 671.26,-599.97 664.52,-601.86"/>
</g>
<!-- NASALib/sigma_set&#45;&gt;NASALib/series -->
<g id="edge85" class="edge">
<title>NASALib/sigma_set&#45;&gt;NASALib/series</title>
<path fill="none" stroke="black" d="M563.46,-450.7C541.25,-429.97 507,-398 507,-398"/>
</g>
<!-- NASALib/sigma_set&#45;&gt;NASALib/sets_aux -->
<g id="edge86" class="edge">
<title>NASALib/sigma_set&#45;&gt;NASALib/sets_aux</title>
<path fill="none" stroke="black" d="M585.96,-450.7C587.64,-443.32 589.65,-434.52 591.54,-426.25"/>
<polygon fill="black" stroke="black" points="594.94,-427.11 593.75,-416.58 588.11,-425.55 594.94,-427.11"/>
</g>
<!-- NASALib/structures&#45;&gt;NASALib/ints -->
<g id="edge87" class="edge">
<title>NASALib/structures&#45;&gt;NASALib/ints</title>
<path fill="none" stroke="black" d="M567,-90.7C567,-82.67 567,-72.9 567,-63.8"/>
<polygon fill="black" stroke="black" points="570.5,-63.94 567,-53.94 563.5,-63.94 570.5,-63.94"/>
</g>
<!-- NASALib/structures&#45;&gt;lib/finite_sets -->
<g id="edge88" class="edge">
<title>NASALib/structures&#45;&gt;lib/finite_sets</title>
<path fill="none" stroke="black" d="M601.94,-105.06C680.45,-98.45 864,-83 864,-83 864,-83 875.17,-71.83 886.73,-60.27"/>
<polygon fill="black" stroke="black" points="889,-62.95 893.6,-53.4 884.05,-58 889,-62.95"/>
</g>
<!-- NASALib/topology&#45;&gt;NASALib/reals -->
<g id="edge89" class="edge">
<title>NASALib/topology&#45;&gt;NASALib/reals</title>
<path fill="none" stroke="black" d="M337.65,-487.35C322.19,-502.81 302,-523 302,-523 302,-523 247.21,-581.75 226.66,-603.79"/>
<polygon fill="black" stroke="black" points="224.29,-601.19 220.03,-610.89 229.41,-605.97 224.29,-601.19"/>
</g>
<!-- NASALib/topology&#45;&gt;NASALib/sets_aux -->
<g id="edge90" class="edge">
<title>NASALib/topology&#45;&gt;NASALib/sets_aux</title>
<path fill="none" stroke="black" d="M387.77,-458.56C431.07,-446.09 507.42,-424.09 555.22,-410.32"/>
<polygon fill="black" stroke="black" points="556.04,-413.73 564.68,-407.6 554.1,-407 556.04,-413.73"/>
</g>
<!-- NASALib/topology&#45;&gt;NASALib/structures -->
<g id="edge91" class="edge">
<title>NASALib/topology&#45;&gt;NASALib/structures</title>
<path fill="none" stroke="black" d="M342.23,-450.65C330.86,-435.19 316,-415 316,-415 316,-415 297,-182 297,-182"/>
</g>
<!-- NASALib/trig -->
<g id="node20" class="node">
<title>NASALib/trig</title>
<polygon fill="#fcfcd7" stroke="black" points="379,-415 325,-415 325,-379 379,-379 379,-415"/>
<text text-anchor="middle" x="352" y="-393.3" font-family="Times,serif" font-size="14.00">trig</text>
</g>
<!-- NASALib/trig&#45;&gt;NASALib/analysis -->
<g id="edge92" class="edge">
<title>NASALib/trig&#45;&gt;NASALib/analysis</title>
<path fill="none" stroke="black" d="M337,-324C337,-324 339.85,-301.87 342.34,-282.5"/>
<polygon fill="black" stroke="black" points="345.78,-283.17 343.58,-272.8 338.84,-282.28 345.78,-283.17"/>
</g>
<!-- NASALib/trig&#45;&gt;NASALib/ints -->
<g id="edge93" class="edge">
<title>NASALib/trig&#45;&gt;NASALib/ints</title>
<path fill="none" stroke="black" d="M337,-324C337,-324 177,-182 177,-182"/>
<path fill="none" stroke="black" d="M348.29,-378.7C343.85,-357.97 337,-326 337,-326"/>
</g>
<!-- NASALib/trig&#45;&gt;NASALib/reals -->
<g id="edge94" class="edge">
<title>NASALib/trig&#45;&gt;NASALib/reals</title>
<path fill="none" stroke="black" d="M556,-686C556,-686 544.58,-717.97 537.18,-738.7"/>
<path fill="none" stroke="black" d="M366.41,-415.35C379.24,-430.81 396,-451 396,-451 396,-451 457,-631 457,-631 457,-631 546,-667 546,-667 546,-667 548.05,-670.49 550.3,-674.31"/>
<polygon fill="black" stroke="black" points="547.15,-675.85 555.23,-682.7 553.18,-672.3 547.15,-675.85"/>
</g>
<!-- NASALib/trig&#45;&gt;NASALib/series -->
<g id="edge95" class="edge">
<title>NASALib/trig&#45;&gt;NASALib/series</title>
<path fill="none" stroke="black" d="M379.46,-380.12C396.17,-370.45 417.72,-357.98 435.93,-347.44"/>
<polygon fill="black" stroke="black" points="437.44,-350.62 444.34,-342.58 433.93,-344.56 437.44,-350.62"/>
</g>
<!-- NASALib/vectors&#45;&gt;NASALib/reals -->
<g id="edge96" class="edge">
<title>NASALib/vectors&#45;&gt;NASALib/reals</title>
<path fill="none" stroke="black" d="M219,-542C219,-542 219,-612 219,-612"/>
<path fill="none" stroke="black" d="M192.65,-487.3C199.37,-500.74 208.46,-518.91 214.01,-530.02"/>
<polygon fill="black" stroke="black" points="210.72,-531.27 218.32,-538.65 216.98,-528.14 210.72,-531.27"/>
</g>
<!-- NASALib/vectors&#45;&gt;NASALib/structures -->
<g id="edge97" class="edge">
<title>NASALib/vectors&#45;&gt;NASALib/structures</title>
<path fill="none" stroke="black" d="M181.84,-450.85C175.43,-400.07 157,-254 157,-254"/>
</g>
<!-- NASALib/vectors&#45;&gt;NASALib/trig -->
<g id="edge98" class="edge">
<title>NASALib/vectors&#45;&gt;NASALib/trig</title>
<path fill="none" stroke="black" d="M212.5,-456.13C240.55,-444.44 283.56,-426.52 314.4,-413.67"/>
<polygon fill="black" stroke="black" points="315.47,-417.01 323.36,-409.93 312.78,-410.55 315.47,-417.01"/>
</g>
</g>
</svg>
