<?xml version="1.0" encoding="UTF-8" standalone="no"?>
<!DOCTYPE svg PUBLIC "-//W3C//DTD SVG 1.1//EN"
 "http://www.w3.org/Graphics/SVG/1.1/DTD/svg11.dtd">
<!-- Generated by graphviz version 2.40.1 (20161225.0304)
 -->
<!-- Title: TRS Pages: 1 -->
<svg width="185pt" height="324pt"
 viewBox="0.00 0.00 185.39 324.00" xmlns="http://www.w3.org/2000/svg" xmlns:xlink="http://www.w3.org/1999/xlink">
<g id="graph0" class="graph" transform="scale(1 1) rotate(0) translate(4 320)">
<title>TRS</title>
<polygon fill="#ffffff" stroke="transparent" points="-4,4 -4,-320 181.3896,-320 181.3896,4 -4,4"/>
<g id="clust1" class="cluster">
<title>cluster_NASALib</title>
<polygon fill="none" stroke="#000000" points="8,-90 8,-308 166,-308 166,-90 8,-90"/>
<text text-anchor="middle" x="87" y="-292.8" font-family="Times,serif" font-size="14.00" fill="#000000">NASALib</text>
</g>
<g id="clust2" class="cluster">
<title>cluster_PVS Prelude</title>
<polygon fill="none" stroke="#000000" points="79,-8 79,-82 167,-82 167,-8 79,-8"/>
<text text-anchor="middle" x="123" y="-66.8" font-family="Times,serif" font-size="14.00" fill="#000000">PVS Prelude</text>
</g>
<!-- /Users/mmoscato/Workspace/Workbench/pvs/dependency&#45;all/Users/mmoscato/pvs/pvs/lib/finite_sets -->
<g id="node1" class="node">
<title>/Users/mmoscato/Workspace/Workbench/pvs/dependency&#45;all/Users/mmoscato/pvs/pvs/lib/finite_sets</title>
<polygon fill="#fcfcd7" stroke="#000000" points="159.2796,-52 86.7204,-52 86.7204,-16 159.2796,-16 159.2796,-52"/>
<text text-anchor="middle" x="123" y="-29.8" font-family="Times,serif" font-size="14.00" fill="#000000">finite_sets</text>
</g>
<!-- /Users/mmoscato/Workspace/Workbench/pvs/dependency&#45;all/Users/mmoscato/pvs/pvs/nasalib/TRS -->
<g id="node2" class="node">
<title>/Users/mmoscato/Workspace/Workbench/pvs/dependency&#45;all/Users/mmoscato/pvs/pvs/nasalib/TRS</title>
<polygon fill="#f7e28d" stroke="#000000" points="121,-278 67,-278 67,-242 121,-242 121,-278"/>
<text text-anchor="middle" x="94" y="-255.8" font-family="Times,serif" font-size="14.00" fill="#000000">TRS</text>
</g>
<!-- /Users/mmoscato/Workspace/Workbench/pvs/dependency&#45;all/Users/mmoscato/pvs/pvs/nasalib/TRS&#45;&gt;/Users/mmoscato/Workspace/Workbench/pvs/dependency&#45;all/Users/mmoscato/pvs/pvs/lib/finite_sets -->
<g id="edge1" class="edge">
<title>/Users/mmoscato/Workspace/Workbench/pvs/dependency&#45;all/Users/mmoscato/pvs/pvs/nasalib/TRS&#45;&gt;/Users/mmoscato/Workspace/Workbench/pvs/dependency&#45;all/Users/mmoscato/pvs/pvs/lib/finite_sets</title>
<path fill="none" stroke="#000000" d="M121.3049,-266C145.6248,-266 177.3896,-266 177.3896,-266 177.3896,-266 177.3896,-34 177.3896,-34 177.3896,-34 169.5804,-34 169.5804,-34"/>
<polygon fill="#000000" stroke="#000000" points="169.5805,-30.5001 159.5804,-34 169.5804,-37.5001 169.5805,-30.5001"/>
</g>
<!-- /Users/mmoscato/Workspace/Workbench/pvs/dependency&#45;all/Users/mmoscato/pvs/pvs/nasalib/orders -->
<g id="node3" class="node">
<title>/Users/mmoscato/Workspace/Workbench/pvs/dependency&#45;all/Users/mmoscato/pvs/pvs/nasalib/orders</title>
<polygon fill="#fcfcd7" stroke="#000000" points="70,-134 16,-134 16,-98 70,-98 70,-134"/>
<text text-anchor="middle" x="43" y="-111.8" font-family="Times,serif" font-size="14.00" fill="#000000">orders</text>
</g>
<!-- /Users/mmoscato/Workspace/Workbench/pvs/dependency&#45;all/Users/mmoscato/pvs/pvs/nasalib/TRS&#45;&gt;/Users/mmoscato/Workspace/Workbench/pvs/dependency&#45;all/Users/mmoscato/pvs/pvs/nasalib/orders -->
<g id="edge2" class="edge">
<title>/Users/mmoscato/Workspace/Workbench/pvs/dependency&#45;all/Users/mmoscato/pvs/pvs/nasalib/TRS&#45;&gt;/Users/mmoscato/Workspace/Workbench/pvs/dependency&#45;all/Users/mmoscato/pvs/pvs/nasalib/orders</title>
<path fill="none" stroke="#000000" d="M66.7958,-260C52.9258,-260 38.9465,-260 38.9465,-260 38.9465,-260 38.9465,-144.2377 38.9465,-144.2377"/>
<polygon fill="#000000" stroke="#000000" points="42.4466,-144.2377 38.9465,-134.2377 35.4466,-144.2377 42.4466,-144.2377"/>
</g>
<!-- /Users/mmoscato/Workspace/Workbench/pvs/dependency&#45;all/Users/mmoscato/pvs/pvs/nasalib/sets_aux -->
<g id="node4" class="node">
<title>/Users/mmoscato/Workspace/Workbench/pvs/dependency&#45;all/Users/mmoscato/pvs/pvs/nasalib/sets_aux</title>
<polygon fill="#fcfcd7" stroke="#000000" points="126.2142,-206 61.7858,-206 61.7858,-170 126.2142,-170 126.2142,-206"/>
<text text-anchor="middle" x="94" y="-183.8" font-family="Times,serif" font-size="14.00" fill="#000000">sets_aux</text>
</g>
<!-- /Users/mmoscato/Workspace/Workbench/pvs/dependency&#45;all/Users/mmoscato/pvs/pvs/nasalib/TRS&#45;&gt;/Users/mmoscato/Workspace/Workbench/pvs/dependency&#45;all/Users/mmoscato/pvs/pvs/nasalib/sets_aux -->
<g id="edge3" class="edge">
<title>/Users/mmoscato/Workspace/Workbench/pvs/dependency&#45;all/Users/mmoscato/pvs/pvs/nasalib/TRS&#45;&gt;/Users/mmoscato/Workspace/Workbench/pvs/dependency&#45;all/Users/mmoscato/pvs/pvs/nasalib/sets_aux</title>
<path fill="none" stroke="#000000" d="M94,-241.8314C94,-241.8314 94,-216.4133 94,-216.4133"/>
<polygon fill="#000000" stroke="#000000" points="97.5001,-216.4132 94,-206.4133 90.5001,-216.4133 97.5001,-216.4132"/>
</g>
<!-- /Users/mmoscato/Workspace/Workbench/pvs/dependency&#45;all/Users/mmoscato/pvs/pvs/nasalib/structures -->
<g id="node5" class="node">
<title>/Users/mmoscato/Workspace/Workbench/pvs/dependency&#45;all/Users/mmoscato/pvs/pvs/nasalib/structures</title>
<polygon fill="#fcfcd7" stroke="#000000" points="158.429,-134 87.571,-134 87.571,-98 158.429,-98 158.429,-134"/>
<text text-anchor="middle" x="123" y="-111.8" font-family="Times,serif" font-size="14.00" fill="#000000">structures</text>
</g>
<!-- /Users/mmoscato/Workspace/Workbench/pvs/dependency&#45;all/Users/mmoscato/pvs/pvs/nasalib/TRS&#45;&gt;/Users/mmoscato/Workspace/Workbench/pvs/dependency&#45;all/Users/mmoscato/pvs/pvs/nasalib/structures -->
<g id="edge4" class="edge">
<title>/Users/mmoscato/Workspace/Workbench/pvs/dependency&#45;all/Users/mmoscato/pvs/pvs/nasalib/TRS&#45;&gt;/Users/mmoscato/Workspace/Workbench/pvs/dependency&#45;all/Users/mmoscato/pvs/pvs/nasalib/structures</title>
<path fill="none" stroke="#000000" d="M121.1766,-254C132.1008,-254 142.1604,-254 142.1604,-254 142.1604,-254 142.1604,-144.0411 142.1604,-144.0411"/>
<polygon fill="#000000" stroke="#000000" points="145.6605,-144.0411 142.1604,-134.0411 138.6605,-144.0411 145.6605,-144.0411"/>
</g>
<!-- /Users/mmoscato/Workspace/Workbench/pvs/dependency&#45;all/Users/mmoscato/pvs/pvs/nasalib/orders&#45;&gt;/Users/mmoscato/Workspace/Workbench/pvs/dependency&#45;all/Users/mmoscato/pvs/pvs/lib/finite_sets -->
<g id="edge5" class="edge">
<title>/Users/mmoscato/Workspace/Workbench/pvs/dependency&#45;all/Users/mmoscato/pvs/pvs/nasalib/orders&#45;&gt;/Users/mmoscato/Workspace/Workbench/pvs/dependency&#45;all/Users/mmoscato/pvs/pvs/lib/finite_sets</title>
<path fill="none" stroke="#000000" d="M43,-97.7663C43,-71.9906 43,-28 43,-28 43,-28 76.278,-28 76.278,-28"/>
<polygon fill="#000000" stroke="#000000" points="76.278,-31.5001 86.278,-28 76.2779,-24.5001 76.278,-31.5001"/>
</g>
<!-- /Users/mmoscato/Workspace/Workbench/pvs/dependency&#45;all/Users/mmoscato/pvs/pvs/nasalib/sets_aux&#45;&gt;/Users/mmoscato/Workspace/Workbench/pvs/dependency&#45;all/Users/mmoscato/pvs/pvs/lib/finite_sets -->
<g id="edge6" class="edge">
<title>/Users/mmoscato/Workspace/Workbench/pvs/dependency&#45;all/Users/mmoscato/pvs/pvs/nasalib/sets_aux&#45;&gt;/Users/mmoscato/Workspace/Workbench/pvs/dependency&#45;all/Users/mmoscato/pvs/pvs/lib/finite_sets</title>
<path fill="none" stroke="#000000" d="M78.3052,-169.8523C78.3052,-130.332 78.3052,-40 78.3052,-40 78.3052,-40 79.1249,-40 79.1249,-40"/>
<polygon fill="#000000" stroke="#000000" points="76.5029,-43.5001 86.5029,-40 76.5028,-36.5001 76.5029,-43.5001"/>
</g>
<!-- /Users/mmoscato/Workspace/Workbench/pvs/dependency&#45;all/Users/mmoscato/pvs/pvs/nasalib/sets_aux&#45;&gt;/Users/mmoscato/Workspace/Workbench/pvs/dependency&#45;all/Users/mmoscato/pvs/pvs/nasalib/orders -->
<g id="edge7" class="edge">
<title>/Users/mmoscato/Workspace/Workbench/pvs/dependency&#45;all/Users/mmoscato/pvs/pvs/nasalib/sets_aux&#45;&gt;/Users/mmoscato/Workspace/Workbench/pvs/dependency&#45;all/Users/mmoscato/pvs/pvs/nasalib/orders</title>
<path fill="none" stroke="#000000" d="M65.9465,-169.8314C65.9465,-169.8314 65.9465,-144.4133 65.9465,-144.4133"/>
<polygon fill="#000000" stroke="#000000" points="69.4466,-144.4132 65.9465,-134.4133 62.4466,-144.4133 69.4466,-144.4132"/>
</g>
<!-- /Users/mmoscato/Workspace/Workbench/pvs/dependency&#45;all/Users/mmoscato/pvs/pvs/nasalib/sets_aux&#45;&gt;/Users/mmoscato/Workspace/Workbench/pvs/dependency&#45;all/Users/mmoscato/pvs/pvs/nasalib/structures -->
<g id="edge8" class="edge">
<title>/Users/mmoscato/Workspace/Workbench/pvs/dependency&#45;all/Users/mmoscato/pvs/pvs/nasalib/sets_aux&#45;&gt;/Users/mmoscato/Workspace/Workbench/pvs/dependency&#45;all/Users/mmoscato/pvs/pvs/nasalib/structures</title>
<path fill="none" stroke="#000000" d="M106.9465,-169.8314C106.9465,-169.8314 106.9465,-144.4133 106.9465,-144.4133"/>
<polygon fill="#000000" stroke="#000000" points="110.4466,-144.4132 106.9465,-134.4133 103.4466,-144.4133 110.4466,-144.4132"/>
</g>
<!-- /Users/mmoscato/Workspace/Workbench/pvs/dependency&#45;all/Users/mmoscato/pvs/pvs/nasalib/structures&#45;&gt;/Users/mmoscato/Workspace/Workbench/pvs/dependency&#45;all/Users/mmoscato/pvs/pvs/lib/finite_sets -->
<g id="edge9" class="edge">
<title>/Users/mmoscato/Workspace/Workbench/pvs/dependency&#45;all/Users/mmoscato/pvs/pvs/nasalib/structures&#45;&gt;/Users/mmoscato/Workspace/Workbench/pvs/dependency&#45;all/Users/mmoscato/pvs/pvs/lib/finite_sets</title>
<path fill="none" stroke="#000000" d="M123,-97.8015C123,-97.8015 123,-62.1476 123,-62.1476"/>
<polygon fill="#000000" stroke="#000000" points="126.5001,-62.1476 123,-52.1476 119.5001,-62.1476 126.5001,-62.1476"/>
</g>
</g>
</svg>
