<?xml version="1.0" encoding="UTF-8" standalone="no"?>
<!DOCTYPE svg PUBLIC "-//W3C//DTD SVG 1.1//EN"
 "http://www.w3.org/Graphics/SVG/1.1/DTD/svg11.dtd">
<!-- Generated by graphviz version 8.0.4 (20230421.1958)
 -->
<!-- Title: pvsio_utils&#45;PVSioCSV Pages: 1 -->
<svg width="324pt" height="329pt"
 viewBox="0.00 0.00 324.00 329.00" xmlns="http://www.w3.org/2000/svg" xmlns:xlink="http://www.w3.org/1999/xlink">
<g id="graph0" class="graph" transform="scale(1 1) rotate(0) translate(4 325)">
<title>pvsio_utils&#45;PVSioCSV</title>
<polygon fill="white" stroke="none" points="-4,4 -4,-325 320,-325 320,4 -4,4"/>
<g id="clust1" class="cluster">
<title>cluster_NASALib</title>
<polygon fill="none" stroke="black" points="8,-92.5 8,-313 206,-313 206,-92.5 8,-92.5"/>
<text text-anchor="middle" x="107" y="-295.7" font-family="Times,serif" font-size="14.00">NASALib</text>
</g>
<g id="clust2" class="cluster">
<title>cluster_PVS Prelude</title>
<polygon fill="none" stroke="black" points="92,-8 92,-84.5 180,-84.5 180,-8 92,-8"/>
<text text-anchor="middle" x="136" y="-67.2" font-family="Times,serif" font-size="14.00">PVS Prelude</text>
</g>
<g id="clust3" class="cluster">
<title>cluster_pvsio_utils</title>
<polygon fill="none" stroke="black" points="214,-236.5 214,-313 308,-313 308,-236.5 214,-236.5"/>
<text text-anchor="middle" x="261" y="-295.7" font-family="Times,serif" font-size="14.00">pvsio_utils</text>
</g>
<!-- NASALib/examples -->
<g id="node1" class="node">
<title>NASALib/examples</title>
<polygon fill="#fcfcd7" stroke="black" points="107.88,-280.5 40.12,-280.5 40.12,-244.5 107.88,-244.5 107.88,-280.5"/>
<text text-anchor="middle" x="74" y="-257.45" font-family="Times,serif" font-size="14.00">examples</text>
</g>
<!-- NASALib/ints -->
<g id="node2" class="node">
<title>NASALib/ints</title>
<polygon fill="#fcfcd7" stroke="black" points="136,-136.5 82,-136.5 82,-100.5 136,-100.5 136,-136.5"/>
<text text-anchor="middle" x="109" y="-113.45" font-family="Times,serif" font-size="14.00">ints</text>
</g>
<!-- NASALib/examples&#45;&gt;NASALib/ints -->
<g id="edge1" class="edge">
<title>NASALib/examples&#45;&gt;NASALib/ints</title>
<path fill="none" stroke="black" d="M58.61,-244.15C44.9,-228.69 27,-208.5 27,-208.5 27,-208.5 27,-172.5 27,-172.5 27,-172.5 50.91,-157.04 72.91,-142.82"/>
<polygon fill="black" stroke="black" points="74.65,-145.22 81.15,-136.85 70.85,-139.34 74.65,-145.22"/>
</g>
<!-- NASALib/pvsio_utils -->
<g id="node3" class="node">
<title>NASALib/pvsio_utils</title>
<polygon fill="#fcfcd7" stroke="black" points="111.62,-208.5 36.38,-208.5 36.38,-172.5 111.62,-172.5 111.62,-208.5"/>
<text text-anchor="middle" x="74" y="-185.45" font-family="Times,serif" font-size="14.00">pvsio_utils</text>
</g>
<!-- NASALib/examples&#45;&gt;NASALib/pvsio_utils -->
<g id="edge2" class="edge">
<title>NASALib/examples&#45;&gt;NASALib/pvsio_utils</title>
<path fill="none" stroke="black" d="M74,-244.2C74,-236.74 74,-227.82 74,-219.47"/>
<polygon fill="black" stroke="black" points="77.5,-219.6 74,-209.6 70.5,-219.6 77.5,-219.6"/>
</g>
<!-- NASALib/structures -->
<g id="node4" class="node">
<title>NASALib/structures</title>
<polygon fill="#fcfcd7" stroke="black" points="198.25,-208.5 129.75,-208.5 129.75,-172.5 198.25,-172.5 198.25,-208.5"/>
<text text-anchor="middle" x="164" y="-185.45" font-family="Times,serif" font-size="14.00">structures</text>
</g>
<!-- NASALib/examples&#45;&gt;NASALib/structures -->
<g id="edge3" class="edge">
<title>NASALib/examples&#45;&gt;NASALib/structures</title>
<path fill="none" stroke="black" d="M96.25,-244.2C107.39,-235.53 121.06,-224.9 133.19,-215.46"/>
<polygon fill="black" stroke="black" points="134.95,-217.75 140.7,-208.85 130.65,-212.22 134.95,-217.75"/>
</g>
<!-- pvsio_utils/PVSioCSV -->
<g id="node6" class="node">
<title>pvsio_utils/PVSioCSV</title>
<polygon fill="#f7e28d" stroke="black" points="299.75,-280.5 222.25,-280.5 222.25,-244.5 299.75,-244.5 299.75,-280.5"/>
<text text-anchor="middle" x="261" y="-257.45" font-family="Times,serif" font-size="14.00">PVSioCSV</text>
</g>
<!-- NASALib/examples&#45;&gt;pvsio_utils/PVSioCSV -->
<g id="edge4" class="edge">
<title>NASALib/examples&#45;&gt;pvsio_utils/PVSioCSV</title>
<path fill="none" stroke="black" d="M108.08,-262.5C122.64,-262.5 136.33,-262.5 136.33,-262.5 136.33,-262.5 198.67,-262.5 198.67,-262.5 198.67,-262.5 203.72,-262.5 210.94,-262.5"/>
<polygon fill="black" stroke="black" points="210.88,-266 220.88,-262.5 210.88,-259 210.88,-266"/>
</g>
<!-- lib/finite_sets -->
<g id="node5" class="node">
<title>lib/finite_sets</title>
<polygon fill="#fcfcd7" stroke="black" points="171.75,-52 100.25,-52 100.25,-16 171.75,-16 171.75,-52"/>
<text text-anchor="middle" x="136" y="-28.95" font-family="Times,serif" font-size="14.00">finite_sets</text>
</g>
<!-- NASALib/ints&#45;&gt;lib/finite_sets -->
<g id="edge5" class="edge">
<title>NASALib/ints&#45;&gt;lib/finite_sets</title>
<path fill="none" stroke="black" d="M114.73,-100C118.27,-89.18 122.9,-75.03 126.93,-62.71"/>
<polygon fill="black" stroke="black" points="130.5,-64.06 130.28,-53.47 123.85,-61.89 130.5,-64.06"/>
</g>
<!-- NASALib/structures&#45;&gt;NASALib/ints -->
<g id="edge6" class="edge">
<title>NASALib/structures&#45;&gt;NASALib/ints</title>
<path fill="none" stroke="black" d="M150.4,-172.2C144.01,-164.06 136.26,-154.19 129.19,-145.2"/>
<polygon fill="black" stroke="black" points="131.37,-143.31 122.44,-137.6 125.87,-147.63 131.37,-143.31"/>
</g>
<!-- NASALib/structures&#45;&gt;lib/finite_sets -->
<g id="edge7" class="edge">
<title>NASALib/structures&#45;&gt;lib/finite_sets</title>
<path fill="none" stroke="black" d="M160.84,-172.08C156.03,-145.51 146.8,-94.61 141.05,-62.87"/>
<polygon fill="black" stroke="black" points="144.33,-62.34 139.1,-53.12 137.44,-63.59 144.33,-62.34"/>
</g>
<!-- pvsio_utils/PVSioCSV&#45;&gt;NASALib/pvsio_utils -->
<g id="edge8" class="edge">
<title>pvsio_utils/PVSioCSV&#45;&gt;NASALib/pvsio_utils</title>
<path fill="none" stroke="black" d="M225.3,-244C216.73,-239.8 210,-236.5 210,-236.5 210,-236.5 147.81,-216.93 122.11,-208.6"/>
<polygon fill="black" stroke="black" points="123.53,-205.05 112.94,-205.22 121.33,-211.7 123.53,-205.05"/>
</g>
<!-- pvsio_utils/PVSioCSV&#45;&gt;NASALib/structures -->
<g id="edge9" class="edge">
<title>pvsio_utils/PVSioCSV&#45;&gt;NASALib/structures</title>
<path fill="none" stroke="black" d="M237.02,-244.2C224.9,-235.45 210,-224.69 196.83,-215.19"/>
<polygon fill="black" stroke="black" points="199.2,-211.86 189.04,-208.85 195.1,-217.54 199.2,-211.86"/>
</g>
</g>
</svg>
