<?xml version="1.0" encoding="UTF-8" standalone="no"?>
<!DOCTYPE svg PUBLIC "-//W3C//DTD SVG 1.1//EN"
 "http://www.w3.org/Graphics/SVG/1.1/DTD/svg11.dtd">
<!-- Generated by graphviz version 8.1.0 (20230707.0739)
 -->
<!-- Title: PVSioCSV Pages: 1 -->
<svg width="202pt" height="257pt"
 viewBox="0.00 0.00 202.00 257.00" xmlns="http://www.w3.org/2000/svg" xmlns:xlink="http://www.w3.org/1999/xlink">
<g id="graph0" class="graph" transform="scale(1 1) rotate(0) translate(4 253)">
<title>PVSioCSV</title>
<polygon fill="white" stroke="none" points="-4,4 -4,-253 198,-253 198,4 -4,4"/>
<g id="clust1" class="cluster">
<title>cluster_NASALib</title>
<polygon fill="none" stroke="black" points="8,-8 8,-84.5 186,-84.5 186,-8 8,-8"/>
<text text-anchor="middle" x="97" y="-67.2" font-family="Times,serif" font-size="14.00">NASALib</text>
</g>
<g id="clust2" class="cluster">
<title>cluster_pvsio_utils</title>
<polygon fill="none" stroke="black" points="26,-92.5 26,-241 120,-241 120,-92.5 26,-92.5"/>
<text text-anchor="middle" x="73" y="-223.7" font-family="Times,serif" font-size="14.00">pvsio_utils</text>
</g>
<!-- nasalib/pvsio_utils -->
<g id="node1" class="node">
<title>nasalib/pvsio_utils</title>
<polygon fill="#fcfcd7" stroke="black" points="177.62,-52 102.38,-52 102.38,-16 177.62,-16 177.62,-52"/>
<text text-anchor="middle" x="140" y="-28.95" font-family="Times,serif" font-size="14.00">pvsio_utils</text>
</g>
<!-- nasalib/structures -->
<g id="node2" class="node">
<title>nasalib/structures</title>
<polygon fill="#fcfcd7" stroke="black" points="84.25,-52 15.75,-52 15.75,-16 84.25,-16 84.25,-52"/>
<text text-anchor="middle" x="50" y="-28.95" font-family="Times,serif" font-size="14.00">structures</text>
</g>
<!-- pvsio_utils/PVSioCSV -->
<g id="node3" class="node">
<title>pvsio_utils/PVSioCSV</title>
<polygon fill="#f7e28d" stroke="black" points="111.75,-136.5 34.25,-136.5 34.25,-100.5 111.75,-100.5 111.75,-136.5"/>
<text text-anchor="middle" x="73" y="-113.45" font-family="Times,serif" font-size="14.00">PVSioCSV</text>
</g>
<!-- pvsio_utils/PVSioCSV&#45;&gt;nasalib/pvsio_utils -->
<g id="edge1" class="edge">
<title>pvsio_utils/PVSioCSV&#45;&gt;nasalib/pvsio_utils</title>
<path fill="none" stroke="black" d="M87.21,-100C96.45,-88.63 108.65,-73.6 119,-60.85"/>
<polygon fill="black" stroke="black" points="122.22,-63.44 125.81,-53.47 116.79,-59.03 122.22,-63.44"/>
</g>
<!-- pvsio_utils/PVSioCSV&#45;&gt;nasalib/structures -->
<g id="edge2" class="edge">
<title>pvsio_utils/PVSioCSV&#45;&gt;nasalib/structures</title>
<path fill="none" stroke="black" d="M68.12,-100C65.1,-89.18 61.16,-75.03 57.72,-62.71"/>
<polygon fill="black" stroke="black" points="60.93,-62.16 54.87,-53.47 54.18,-64.04 60.93,-62.16"/>
</g>
<!-- pvsio_utils/examples -->
<g id="node4" class="node">
<title>pvsio_utils/examples</title>
<polygon fill="#fcfcd7" stroke="black" points="106.88,-208.5 39.12,-208.5 39.12,-172.5 106.88,-172.5 106.88,-208.5"/>
<text text-anchor="middle" x="73" y="-185.45" font-family="Times,serif" font-size="14.00">examples</text>
</g>
<!-- pvsio_utils/examples&#45;&gt;nasalib/pvsio_utils -->
<g id="edge3" class="edge">
<title>pvsio_utils/examples&#45;&gt;nasalib/pvsio_utils</title>
<path fill="none" stroke="black" d="M88.72,-172.15C102.72,-156.69 121,-136.5 121,-136.5 121,-136.5 129.14,-93 134.77,-62.96"/>
<polygon fill="black" stroke="black" points="138.38,-63.69 136.78,-53.22 131.5,-62.4 138.38,-63.69"/>
</g>
<!-- pvsio_utils/examples&#45;&gt;pvsio_utils/PVSioCSV -->
<g id="edge4" class="edge">
<title>pvsio_utils/examples&#45;&gt;pvsio_utils/PVSioCSV</title>
<path fill="none" stroke="black" d="M73,-172.2C73,-164.74 73,-155.82 73,-147.47"/>
<polygon fill="black" stroke="black" points="76.5,-147.6 73,-137.6 69.5,-147.6 76.5,-147.6"/>
</g>
</g>
</svg>
