<?xml version="1.0" encoding="UTF-8" standalone="no"?>
<!DOCTYPE svg PUBLIC "-//W3C//DTD SVG 1.1//EN"
 "http://www.w3.org/Graphics/SVG/1.1/DTD/svg11.dtd">
<!-- Generated by graphviz version 8.1.0 (20230707.0739)
 -->
<!-- Title: PVSioCSV&#45;zoomed Pages: 1 -->
<svg width="280pt" height="401pt"
 viewBox="0.00 0.00 280.00 401.00" xmlns="http://www.w3.org/2000/svg" xmlns:xlink="http://www.w3.org/1999/xlink">
<g id="graph0" class="graph" transform="scale(1 1) rotate(0) translate(4 397)">
<title>PVSioCSV&#45;zoomed</title>
<polygon fill="white" stroke="none" points="-4,4 -4,-397 276,-397 276,4 -4,4"/>
<g id="clust1" class="cluster">
<title>cluster_NASALib</title>
<polygon fill="none" stroke="black" points="71,-8 71,-84.5 249,-84.5 249,-8 71,-8"/>
<text text-anchor="middle" x="160" y="-67.2" font-family="Times,serif" font-size="14.00">NASALib</text>
</g>
<g id="clust2" class="cluster">
<title>cluster_pvsio_utils/PVSioCSV</title>
<polygon fill="none" stroke="black" points="8,-92.5 8,-385 264,-385 264,-92.5 8,-92.5"/>
<text text-anchor="middle" x="136" y="-367.7" font-family="Times,serif" font-size="14.00">pvsio_utils/PVSioCSV</text>
</g>
<!-- nasalib/pvsio_utils -->
<g id="node1" class="node">
<title>nasalib/pvsio_utils</title>
<polygon fill="#fcfcd7" stroke="black" points="154.62,-52 79.38,-52 79.38,-16 154.62,-16 154.62,-52"/>
<text text-anchor="middle" x="117" y="-28.95" font-family="Times,serif" font-size="14.00">pvsio_utils</text>
</g>
<!-- nasalib/structures -->
<g id="node2" class="node">
<title>nasalib/structures</title>
<polygon fill="#fcfcd7" stroke="black" points="241.25,-52 172.75,-52 172.75,-16 241.25,-16 241.25,-52"/>
<text text-anchor="middle" x="207" y="-28.95" font-family="Times,serif" font-size="14.00">structures</text>
</g>
<!-- pvsio_utils/PVSioCSV@csv_reader -->
<g id="node3" class="node">
<title>pvsio_utils/PVSioCSV@csv_reader</title>
<ellipse fill="#e6f3ff" stroke="black" cx="97" cy="-262.5" rx="50.84" ry="18"/>
<text text-anchor="middle" x="97" y="-257.45" font-family="Times,serif" font-size="14.00">csv_reader</text>
</g>
<!-- pvsio_utils/PVSioCSV@csv_reader&#45;&gt;nasalib/structures -->
<g id="edge1" class="edge">
<title>pvsio_utils/PVSioCSV@csv_reader&#45;&gt;nasalib/structures</title>
<path fill="none" stroke="black" d="M119.1,-245.88C141.22,-230.25 172,-208.5 172,-208.5 172,-208.5 191.51,-111.81 201.39,-62.79"/>
<polygon fill="black" stroke="black" points="204.97,-63.76 203.52,-53.27 198.11,-62.38 204.97,-63.76"/>
</g>
<!-- pvsio_utils/PVSioCSV@csv_writer_def -->
<g id="node6" class="node">
<title>pvsio_utils/PVSioCSV@csv_writer_def</title>
<ellipse fill="#e6f3ff" stroke="black" cx="97" cy="-190.5" rx="66.19" ry="18"/>
<text text-anchor="middle" x="97" y="-185.45" font-family="Times,serif" font-size="14.00">csv_writer_def</text>
</g>
<!-- pvsio_utils/PVSioCSV@csv_reader&#45;&gt;pvsio_utils/PVSioCSV@csv_writer_def -->
<g id="edge2" class="edge">
<title>pvsio_utils/PVSioCSV@csv_reader&#45;&gt;pvsio_utils/PVSioCSV@csv_writer_def</title>
<path fill="none" stroke="black" d="M97,-244.2C97,-236.74 97,-227.82 97,-219.47"/>
<polygon fill="black" stroke="black" points="100.5,-219.6 97,-209.6 93.5,-219.6 100.5,-219.6"/>
</g>
<!-- pvsio_utils/PVSioCSV@csv_utils -->
<g id="node4" class="node">
<title>pvsio_utils/PVSioCSV@csv_utils</title>
<ellipse fill="#e6f3ff" stroke="black" cx="97" cy="-118.5" rx="43.67" ry="18"/>
<text text-anchor="middle" x="97" y="-113.45" font-family="Times,serif" font-size="14.00">csv_utils</text>
</g>
<!-- pvsio_utils/PVSioCSV@csv_utils&#45;&gt;nasalib/pvsio_utils -->
<g id="edge3" class="edge">
<title>pvsio_utils/PVSioCSV@csv_utils&#45;&gt;nasalib/pvsio_utils</title>
<path fill="none" stroke="black" d="M101.14,-100.41C103.78,-89.53 107.26,-75.19 110.28,-62.71"/>
<polygon fill="black" stroke="black" points="113.84,-63.9 112.79,-53.36 107.03,-62.25 113.84,-63.9"/>
</g>
<!-- pvsio_utils/PVSioCSV@csv_writer -->
<g id="node5" class="node">
<title>pvsio_utils/PVSioCSV@csv_writer</title>
<ellipse fill="#e6f3ff" stroke="black" cx="206" cy="-334.5" rx="49.82" ry="18"/>
<text text-anchor="middle" x="206" y="-329.45" font-family="Times,serif" font-size="14.00">csv_writer</text>
</g>
<!-- pvsio_utils/PVSioCSV@csv_writer&#45;&gt;pvsio_utils/PVSioCSV@csv_reader -->
<g id="edge7" class="edge">
<title>pvsio_utils/PVSioCSV@csv_writer&#45;&gt;pvsio_utils/PVSioCSV@csv_reader</title>
<path fill="none" stroke="black" d="M182.35,-318.31C166.92,-308.4 146.58,-295.34 129.62,-284.45"/>
<polygon fill="black" stroke="black" points="131.91,-281.12 121.61,-278.66 128.13,-287.01 131.91,-281.12"/>
</g>
<!-- pvsio_utils/PVSioCSV@csv_writer_def&#45;&gt;nasalib/pvsio_utils -->
<g id="edge4" class="edge">
<title>pvsio_utils/PVSioCSV@csv_writer_def&#45;&gt;nasalib/pvsio_utils</title>
<path fill="none" stroke="black" d="M113.77,-172.73C129.3,-157.2 150,-136.5 150,-136.5 150,-136.5 150,-92.5 150,-92.5 150,-92.5 140.83,-76.51 132.15,-61.4"/>
<polygon fill="black" stroke="black" points="134.91,-60.18 126.9,-53.25 128.84,-63.67 134.91,-60.18"/>
</g>
<!-- pvsio_utils/PVSioCSV@csv_writer_def&#45;&gt;pvsio_utils/PVSioCSV@csv_utils -->
<g id="edge5" class="edge">
<title>pvsio_utils/PVSioCSV@csv_writer_def&#45;&gt;pvsio_utils/PVSioCSV@csv_utils</title>
<path fill="none" stroke="black" d="M97,-172.2C97,-164.74 97,-155.82 97,-147.47"/>
<polygon fill="black" stroke="black" points="100.5,-147.6 97,-137.6 93.5,-147.6 100.5,-147.6"/>
</g>
<!-- pvsio_utils/PVSioCSV@csv_writerow -->
<g id="node7" class="node">
<title>pvsio_utils/PVSioCSV@csv_writerow</title>
<ellipse fill="#e6f3ff" stroke="black" cx="77" cy="-334.5" rx="61.08" ry="18"/>
<text text-anchor="middle" x="77" y="-329.45" font-family="Times,serif" font-size="14.00">csv_writerow</text>
</g>
<!-- pvsio_utils/PVSioCSV@csv_writerow&#45;&gt;pvsio_utils/PVSioCSV@csv_reader -->
<g id="edge6" class="edge">
<title>pvsio_utils/PVSioCSV@csv_writerow&#45;&gt;pvsio_utils/PVSioCSV@csv_reader</title>
<path fill="none" stroke="black" d="M81.94,-316.2C84.1,-308.65 86.68,-299.62 89.09,-291.18"/>
<polygon fill="black" stroke="black" points="92.73,-292.18 92.11,-281.6 86,-290.26 92.73,-292.18"/>
</g>
</g>
</svg>
