<?xml version="1.0" encoding="UTF-8" standalone="no"?>
<!DOCTYPE svg PUBLIC "-//W3C//DTD SVG 1.1//EN"
 "http://www.w3.org/Graphics/SVG/1.1/DTD/svg11.dtd">
<!-- Generated by graphviz version 8.0.4 (20230421.1958)
 -->
<!-- Title: pvsio_utils&#45;PVSioCSV&#45;zoomed Pages: 1 -->
<svg width="159pt" height="185pt"
 viewBox="0.00 0.00 159.00 185.00" xmlns="http://www.w3.org/2000/svg" xmlns:xlink="http://www.w3.org/1999/xlink">
<g id="graph0" class="graph" transform="scale(1 1) rotate(0) translate(4 181)">
<title>pvsio_utils&#45;PVSioCSV&#45;zoomed</title>
<polygon fill="white" stroke="none" points="-4,4 -4,-181 155,-181 155,4 -4,4"/>
<g id="clust1" class="cluster">
<title>cluster_NASALib</title>
<polygon fill="none" stroke="black" points="33,-8 33,-84.5 117,-84.5 117,-8 33,-8"/>
<text text-anchor="middle" x="75" y="-67.2" font-family="Times,serif" font-size="14.00">NASALib</text>
</g>
<g id="clust2" class="cluster">
<title>cluster_NASALib&#45;pvsio_utils</title>
<polygon fill="none" stroke="black" points="8,-92.5 8,-169 143,-169 143,-92.5 8,-92.5"/>
<text text-anchor="middle" x="75.5" y="-151.7" font-family="Times,serif" font-size="14.00">NASALib&#45;pvsio_utils</text>
</g>
<!-- NASALib&#45;pvsio_utils/PVSioCSV -->
<g id="node1" class="node">
<title>NASALib&#45;pvsio_utils/PVSioCSV</title>
<polygon fill="#fcfcd7" stroke="black" points="113.75,-136.5 36.25,-136.5 36.25,-100.5 113.75,-100.5 113.75,-136.5"/>
<text text-anchor="middle" x="75" y="-113.45" font-family="Times,serif" font-size="14.00">PVSioCSV</text>
</g>
<!-- NASALib/structures -->
<g id="node2" class="node">
<title>NASALib/structures</title>
<polygon fill="#fcfcd7" stroke="black" points="109.25,-52 40.75,-52 40.75,-16 109.25,-16 109.25,-52"/>
<text text-anchor="middle" x="75" y="-28.95" font-family="Times,serif" font-size="14.00">structures</text>
</g>
<!-- NASALib&#45;pvsio_utils/PVSioCSV&#45;&gt;NASALib/structures -->
<g id="edge1" class="edge">
<title>NASALib&#45;pvsio_utils/PVSioCSV&#45;&gt;NASALib/structures</title>
<path fill="none" stroke="black" d="M75,-100C75,-89.39 75,-75.6 75,-63.46"/>
<polygon fill="black" stroke="black" points="78.5,-63.47 75,-53.47 71.5,-63.47 78.5,-63.47"/>
</g>
</g>
</svg>
