<?xml version="1.0" encoding="UTF-8" standalone="no"?>
<!DOCTYPE svg PUBLIC "-//W3C//DTD SVG 1.1//EN"
 "http://www.w3.org/Graphics/SVG/1.1/DTD/svg11.dtd">
<!-- Generated by graphviz version 2.44.1 (20200629.0846)
 -->
<!-- Title: complex_integration&#45;zoomed Pages: 1 -->
<svg width="629pt" height="830pt"
 viewBox="0.00 0.00 629.00 830.00" xmlns="http://www.w3.org/2000/svg" xmlns:xlink="http://www.w3.org/1999/xlink">
<g id="graph0" class="graph" transform="scale(1 1) rotate(0) translate(4 826)">
<title>complex_integration&#45;zoomed</title>
<polygon fill="white" stroke="transparent" points="-4,4 -4,-826 625,-826 625,4 -4,4"/>
<g id="clust1" class="cluster">
<title>cluster_NASALib</title>
<polygon fill="none" stroke="black" points="15,-8 15,-83 613,-83 613,-8 15,-8"/>
<text text-anchor="middle" x="314" y="-67.8" font-family="Times,serif" font-size="14.00">NASALib</text>
</g>
<g id="clust2" class="cluster">
<title>cluster_NASALib/complex_integration</title>
<polygon fill="none" stroke="black" points="8,-91 8,-814 574,-814 574,-91 8,-91"/>
<text text-anchor="middle" x="291" y="-798.8" font-family="Times,serif" font-size="14.00">NASALib/complex_integration</text>
</g>
<!-- nasalib/complex_alt -->
<g id="node1" class="node">
<title>nasalib/complex_alt</title>
<polygon fill="#fcfcd7" stroke="black" points="215,-52 131,-52 131,-16 215,-16 215,-52"/>
<text text-anchor="middle" x="173" y="-30.3" font-family="Times,serif" font-size="14.00">complex_alt</text>
</g>
<!-- nasalib/complex_integration@cal_L_complex -->
<g id="node2" class="node">
<title>nasalib/complex_integration@cal_L_complex</title>
<ellipse fill="#e6f3ff" stroke="black" cx="153" cy="-693" rx="65.79" ry="18"/>
<text text-anchor="middle" x="153" y="-689.3" font-family="Times,serif" font-size="14.00">cal_L_complex</text>
</g>
<!-- nasalib/complex_integration@essentially_bounded -->
<g id="node11" class="node">
<title>nasalib/complex_integration@essentially_bounded</title>
<ellipse fill="#e6f3ff" stroke="black" cx="159" cy="-477" rx="82.59" ry="18"/>
<text text-anchor="middle" x="159" y="-473.3" font-family="Times,serif" font-size="14.00">essentially_bounded</text>
</g>
<!-- nasalib/complex_integration@cal_L_complex&#45;&gt;nasalib/complex_integration@essentially_bounded -->
<g id="edge1" class="edge">
<title>nasalib/complex_integration@cal_L_complex&#45;&gt;nasalib/complex_integration@essentially_bounded</title>
<path fill="none" stroke="black" d="M90.79,-687C60.29,-687 30.03,-687 30.03,-687 30.03,-687 30.03,-477 30.03,-477 30.03,-477 66.22,-477 66.22,-477"/>
<polygon fill="black" stroke="black" points="66.22,-480.5 76.22,-477 66.22,-473.5 66.22,-480.5"/>
</g>
<!-- nasalib/complex_integration@p_integrable -->
<g id="node14" class="node">
<title>nasalib/complex_integration@p_integrable</title>
<ellipse fill="#e6f3ff" stroke="black" cx="227" cy="-621" rx="54.69" ry="18"/>
<text text-anchor="middle" x="227" y="-617.3" font-family="Times,serif" font-size="14.00">p_integrable</text>
</g>
<!-- nasalib/complex_integration@cal_L_complex&#45;&gt;nasalib/complex_integration@p_integrable -->
<g id="edge2" class="edge">
<title>nasalib/complex_integration@cal_L_complex&#45;&gt;nasalib/complex_integration@p_integrable</title>
<path fill="none" stroke="black" d="M195.52,-679.12C195.52,-679.12 195.52,-645.83 195.52,-645.83"/>
<polygon fill="black" stroke="black" points="199.02,-645.83 195.52,-635.83 192.02,-645.83 199.02,-645.83"/>
</g>
<!-- nasalib/measure_integration -->
<g id="node17" class="node">
<title>nasalib/measure_integration</title>
<polygon fill="#fcfcd7" stroke="black" points="521,-52 393,-52 393,-16 521,-16 521,-52"/>
<text text-anchor="middle" x="457" y="-30.3" font-family="Times,serif" font-size="14.00">measure_integration</text>
</g>
<!-- nasalib/complex_integration@cal_L_complex&#45;&gt;nasalib/measure_integration -->
<g id="edge3" class="edge">
<title>nasalib/complex_integration@cal_L_complex&#45;&gt;nasalib/measure_integration</title>
<path fill="none" stroke="black" d="M90.94,-699C58.36,-699 25.13,-699 25.13,-699 25.13,-699 25.13,-83 25.13,-83 25.13,-83 436,-83 436,-83 436,-83 436,-62.25 436,-62.25"/>
<polygon fill="black" stroke="black" points="439.5,-62.25 436,-52.25 432.5,-62.25 439.5,-62.25"/>
</g>
<!-- nasalib/complex_integration@cal_L_inf -->
<g id="node3" class="node">
<title>nasalib/complex_integration@cal_L_inf</title>
<ellipse fill="#e6f3ff" stroke="black" cx="365" cy="-549" rx="44.69" ry="18"/>
<text text-anchor="middle" x="365" y="-545.3" font-family="Times,serif" font-size="14.00">cal_L_inf</text>
</g>
<!-- nasalib/complex_integration@cal_L_inf&#45;&gt;nasalib/complex_alt -->
<g id="edge4" class="edge">
<title>nasalib/complex_integration@cal_L_inf&#45;&gt;nasalib/complex_alt</title>
<path fill="none" stroke="black" d="M348.1,-531.98C348.1,-456.19 348.1,-153 348.1,-153 348.1,-153 200.67,-153 200.67,-153 200.67,-153 200.67,-62.07 200.67,-62.07"/>
<polygon fill="black" stroke="black" points="204.17,-62.07 200.67,-52.07 197.17,-62.07 204.17,-62.07"/>
</g>
<!-- nasalib/complex_integration@cal_L_inf&#45;&gt;nasalib/complex_integration@essentially_bounded -->
<g id="edge5" class="edge">
<title>nasalib/complex_integration@cal_L_inf&#45;&gt;nasalib/complex_integration@essentially_bounded</title>
<path fill="none" stroke="black" d="M334.65,-535.46C334.65,-514.6 334.65,-477 334.65,-477 334.65,-477 251.68,-477 251.68,-477"/>
<polygon fill="black" stroke="black" points="251.68,-473.5 241.68,-477 251.68,-480.5 251.68,-473.5"/>
</g>
<!-- nasalib/complex_integration@p_integrable_def -->
<g id="node15" class="node">
<title>nasalib/complex_integration@p_integrable_def</title>
<ellipse fill="#e6f3ff" stroke="black" cx="251" cy="-405" rx="70.39" ry="18"/>
<text text-anchor="middle" x="251" y="-401.3" font-family="Times,serif" font-size="14.00">p_integrable_def</text>
</g>
<!-- nasalib/complex_integration@cal_L_inf&#45;&gt;nasalib/complex_integration@p_integrable_def -->
<g id="edge6" class="edge">
<title>nasalib/complex_integration@cal_L_inf&#45;&gt;nasalib/complex_integration@p_integrable_def</title>
<path fill="none" stroke="black" d="M320.01,-549C311.31,-549 304.83,-549 304.83,-549 304.83,-549 304.83,-426.78 304.83,-426.78"/>
<polygon fill="black" stroke="black" points="308.33,-426.78 304.83,-416.78 301.33,-426.78 308.33,-426.78"/>
</g>
<!-- nasalib/complex_integration@cal_L_inf&#45;&gt;nasalib/measure_integration -->
<g id="edge7" class="edge">
<title>nasalib/complex_integration@cal_L_inf&#45;&gt;nasalib/measure_integration</title>
<path fill="none" stroke="black" d="M381,-532.06C381,-443.75 381,-40 381,-40 381,-40 382.88,-40 382.88,-40"/>
<polygon fill="black" stroke="black" points="382.88,-43.5 392.88,-40 382.88,-36.5 382.88,-43.5"/>
</g>
<!-- nasalib/complex_integration@cal_L_real -->
<g id="node4" class="node">
<title>nasalib/complex_integration@cal_L_real</title>
<ellipse fill="#e6f3ff" stroke="black" cx="153" cy="-765" rx="48.19" ry="18"/>
<text text-anchor="middle" x="153" y="-761.3" font-family="Times,serif" font-size="14.00">cal_L_real</text>
</g>
<!-- nasalib/complex_integration@cal_L_real&#45;&gt;nasalib/complex_integration@cal_L_complex -->
<g id="edge8" class="edge">
<title>nasalib/complex_integration@cal_L_real&#45;&gt;nasalib/complex_integration@cal_L_complex</title>
<path fill="none" stroke="black" d="M153,-746.83C153,-746.83 153,-721.41 153,-721.41"/>
<polygon fill="black" stroke="black" points="156.5,-721.41 153,-711.41 149.5,-721.41 156.5,-721.41"/>
</g>
<!-- nasalib/complex_integration@cal_L_real&#45;&gt;nasalib/measure_integration -->
<g id="edge9" class="edge">
<title>nasalib/complex_integration@cal_L_real&#45;&gt;nasalib/measure_integration</title>
<path fill="none" stroke="black" d="M201.32,-765C314.1,-765 585.2,-765 585.2,-765 585.2,-765 585.2,-522 585.2,-522 585.2,-522 512.75,-522 512.75,-522 512.75,-522 512.75,-62.24 512.75,-62.24"/>
<polygon fill="black" stroke="black" points="516.25,-62.24 512.75,-52.24 509.25,-62.24 516.25,-62.24"/>
</g>
<!-- nasalib/complex_integration@complex_finite_measures -->
<g id="node5" class="node">
<title>nasalib/complex_integration@complex_finite_measures</title>
<ellipse fill="#e6f3ff" stroke="black" cx="338" cy="-693" rx="101.28" ry="18"/>
<text text-anchor="middle" x="338" y="-689.3" font-family="Times,serif" font-size="14.00">complex_finite_measures</text>
</g>
<!-- nasalib/complex_integration@complex_finite_measures&#45;&gt;nasalib/complex_integration@essentially_bounded -->
<g id="edge10" class="edge">
<title>nasalib/complex_integration@complex_finite_measures&#45;&gt;nasalib/complex_integration@essentially_bounded</title>
<path fill="none" stroke="black" d="M297.17,-676.41C297.17,-627.29 297.17,-486 297.17,-486 297.17,-486 240.51,-486 240.51,-486"/>
<polygon fill="black" stroke="black" points="240.51,-482.5 230.51,-486 240.51,-489.5 240.51,-482.5"/>
</g>
<!-- nasalib/complex_integration@complex_finite_measures&#45;&gt;nasalib/complex_integration@p_integrable -->
<g id="edge11" class="edge">
<title>nasalib/complex_integration@complex_finite_measures&#45;&gt;nasalib/complex_integration@p_integrable</title>
<path fill="none" stroke="black" d="M259.1,-681.43C259.1,-681.43 259.1,-645.78 259.1,-645.78"/>
<polygon fill="black" stroke="black" points="262.6,-645.78 259.1,-635.78 255.6,-645.78 262.6,-645.78"/>
</g>
<!-- nasalib/complex_integration@complex_finite_measures&#45;&gt;nasalib/measure_integration -->
<g id="edge12" class="edge">
<title>nasalib/complex_integration@complex_finite_measures&#45;&gt;nasalib/measure_integration</title>
<path fill="none" stroke="black" d="M418.98,-682.01C418.98,-642.93 418.98,-513 418.98,-513 418.98,-513 496.25,-513 496.25,-513 496.25,-513 496.25,-62.19 496.25,-62.19"/>
<polygon fill="black" stroke="black" points="499.75,-62.19 496.25,-52.19 492.75,-62.19 499.75,-62.19"/>
</g>
<!-- nasalib/complex_integration@complex_integral -->
<g id="node6" class="node">
<title>nasalib/complex_integration@complex_integral</title>
<ellipse fill="#e6f3ff" stroke="black" cx="159" cy="-333" rx="72.59" ry="18"/>
<text text-anchor="middle" x="159" y="-329.3" font-family="Times,serif" font-size="14.00">complex_integral</text>
</g>
<!-- nasalib/complex_integration@complex_integral&#45;&gt;nasalib/complex_alt -->
<g id="edge13" class="edge">
<title>nasalib/complex_integration@complex_integral&#45;&gt;nasalib/complex_alt</title>
<path fill="none" stroke="black" d="M227.75,-327C255.94,-327 282.1,-327 282.1,-327 282.1,-327 282.1,-67 282.1,-67 282.1,-67 207.84,-67 207.84,-67 207.84,-67 207.84,-62.04 207.84,-62.04"/>
<polygon fill="black" stroke="black" points="211.34,-62.04 207.84,-52.04 204.34,-62.04 211.34,-62.04"/>
</g>
<!-- nasalib/complex_integration@complex_measure_theory -->
<g id="node8" class="node">
<title>nasalib/complex_integration@complex_measure_theory</title>
<ellipse fill="#e6f3ff" stroke="black" cx="159" cy="-261" rx="102.88" ry="18"/>
<text text-anchor="middle" x="159" y="-257.3" font-family="Times,serif" font-size="14.00">complex_measure_theory</text>
</g>
<!-- nasalib/complex_integration@complex_integral&#45;&gt;nasalib/complex_integration@complex_measure_theory -->
<g id="edge14" class="edge">
<title>nasalib/complex_integration@complex_integral&#45;&gt;nasalib/complex_integration@complex_measure_theory</title>
<path fill="none" stroke="black" d="M159,-314.83C159,-314.83 159,-289.41 159,-289.41"/>
<polygon fill="black" stroke="black" points="162.5,-289.41 159,-279.41 155.5,-289.41 162.5,-289.41"/>
</g>
<!-- nasalib/complex_integration@complex_integral&#45;&gt;nasalib/measure_integration -->
<g id="edge15" class="edge">
<title>nasalib/complex_integration@complex_integral&#45;&gt;nasalib/measure_integration</title>
<path fill="none" stroke="black" d="M227.82,-339C298.09,-339 396.94,-339 396.94,-339 396.94,-339 396.94,-62.17 396.94,-62.17"/>
<polygon fill="black" stroke="black" points="400.44,-62.17 396.94,-52.17 393.44,-62.17 400.44,-62.17"/>
</g>
<!-- nasalib/complex_integration@complex_measurable -->
<g id="node7" class="node">
<title>nasalib/complex_integration@complex_measurable</title>
<ellipse fill="#e6f3ff" stroke="black" cx="153" cy="-189" rx="86.38" ry="18"/>
<text text-anchor="middle" x="153" y="-185.3" font-family="Times,serif" font-size="14.00">complex_measurable</text>
</g>
<!-- nasalib/complex_integration@complex_measurable&#45;&gt;nasalib/complex_alt -->
<g id="edge16" class="edge">
<title>nasalib/complex_integration@complex_measurable&#45;&gt;nasalib/complex_alt</title>
<path fill="none" stroke="black" d="M193.51,-173C193.51,-173 193.51,-62.06 193.51,-62.06"/>
<polygon fill="black" stroke="black" points="197.01,-62.06 193.51,-52.06 190.01,-62.06 197.01,-62.06"/>
</g>
<!-- nasalib/complex_integration@complex_topology -->
<g id="node9" class="node">
<title>nasalib/complex_integration@complex_topology</title>
<ellipse fill="#e6f3ff" stroke="black" cx="109" cy="-117" rx="77.19" ry="18"/>
<text text-anchor="middle" x="109" y="-113.3" font-family="Times,serif" font-size="14.00">complex_topology</text>
</g>
<!-- nasalib/complex_integration@complex_measurable&#45;&gt;nasalib/complex_integration@complex_topology -->
<g id="edge17" class="edge">
<title>nasalib/complex_integration@complex_measurable&#45;&gt;nasalib/complex_integration@complex_topology</title>
<path fill="none" stroke="black" d="M126.45,-171.57C126.45,-171.57 126.45,-144.77 126.45,-144.77"/>
<polygon fill="black" stroke="black" points="129.95,-144.77 126.45,-134.77 122.95,-144.77 129.95,-144.77"/>
</g>
<!-- nasalib/complex_integration@complex_measurable&#45;&gt;nasalib/measure_integration -->
<g id="edge18" class="edge">
<title>nasalib/complex_integration@complex_measurable&#45;&gt;nasalib/measure_integration</title>
<path fill="none" stroke="black" d="M239.78,-189C308.96,-189 394.31,-189 394.31,-189 394.31,-189 394.31,-62.08 394.31,-62.08"/>
<polygon fill="black" stroke="black" points="397.81,-62.08 394.31,-52.08 390.81,-62.08 397.81,-62.08"/>
</g>
<!-- nasalib/structures -->
<g id="node20" class="node">
<title>nasalib/structures</title>
<polygon fill="#fcfcd7" stroke="black" points="302.5,-52 233.5,-52 233.5,-16 302.5,-16 302.5,-52"/>
<text text-anchor="middle" x="268" y="-30.3" font-family="Times,serif" font-size="14.00">structures</text>
</g>
<!-- nasalib/complex_integration@complex_measurable&#45;&gt;nasalib/structures -->
<g id="edge19" class="edge">
<title>nasalib/complex_integration@complex_measurable&#45;&gt;nasalib/structures</title>
<path fill="none" stroke="black" d="M224.25,-178.35C224.25,-143.33 224.25,-34 224.25,-34 224.25,-34 225.14,-34 225.14,-34"/>
<polygon fill="black" stroke="black" points="223.1,-37.5 233.1,-34 223.1,-30.5 223.1,-37.5"/>
</g>
<!-- nasalib/complex_integration@complex_measure_theory&#45;&gt;nasalib/complex_integration@complex_measurable -->
<g id="edge20" class="edge">
<title>nasalib/complex_integration@complex_measure_theory&#45;&gt;nasalib/complex_integration@complex_measurable</title>
<path fill="none" stroke="black" d="M153,-242.83C153,-242.83 153,-217.41 153,-217.41"/>
<polygon fill="black" stroke="black" points="156.5,-217.41 153,-207.41 149.5,-217.41 156.5,-217.41"/>
</g>
<!-- nasalib/complex_integration@complex_measure_theory&#45;&gt;nasalib/measure_integration -->
<g id="edge21" class="edge">
<title>nasalib/complex_integration@complex_measure_theory&#45;&gt;nasalib/measure_integration</title>
<path fill="none" stroke="black" d="M261.76,-261C325.61,-261 395.63,-261 395.63,-261 395.63,-261 395.63,-62.19 395.63,-62.19"/>
<polygon fill="black" stroke="black" points="399.13,-62.19 395.63,-52.19 392.13,-62.19 399.13,-62.19"/>
</g>
<!-- nasalib/complex_integration@complex_topology&#45;&gt;nasalib/complex_alt -->
<g id="edge22" class="edge">
<title>nasalib/complex_integration@complex_topology&#45;&gt;nasalib/complex_alt</title>
<path fill="none" stroke="black" d="M158.67,-102.92C158.67,-102.92 158.67,-62.22 158.67,-62.22"/>
<polygon fill="black" stroke="black" points="162.17,-62.22 158.67,-52.22 155.17,-62.22 162.17,-62.22"/>
</g>
<!-- nasalib/metric_space -->
<g id="node18" class="node">
<title>nasalib/metric_space</title>
<polygon fill="#fcfcd7" stroke="black" points="112.5,-52 23.5,-52 23.5,-16 112.5,-16 112.5,-52"/>
<text text-anchor="middle" x="68" y="-30.3" font-family="Times,serif" font-size="14.00">metric_space</text>
</g>
<!-- nasalib/complex_integration@complex_topology&#45;&gt;nasalib/metric_space -->
<g id="edge23" class="edge">
<title>nasalib/complex_integration@complex_topology&#45;&gt;nasalib/metric_space</title>
<path fill="none" stroke="black" d="M72.08,-101C72.08,-101 72.08,-62.27 72.08,-62.27"/>
<polygon fill="black" stroke="black" points="75.58,-62.27 72.08,-52.27 68.58,-62.27 75.58,-62.27"/>
</g>
<!-- nasalib/complex_integration@essential_bound_complete_scaf -->
<g id="node10" class="node">
<title>nasalib/complex_integration@essential_bound_complete_scaf</title>
<ellipse fill="#e6f3ff" stroke="black" cx="159" cy="-549" rx="122.68" ry="18"/>
<text text-anchor="middle" x="159" y="-545.3" font-family="Times,serif" font-size="14.00">essential_bound_complete_scaf</text>
</g>
<!-- nasalib/complex_integration@essential_bound_complete_scaf&#45;&gt;nasalib/complex_integration@complex_topology -->
<g id="edge24" class="edge">
<title>nasalib/complex_integration@essential_bound_complete_scaf&#45;&gt;nasalib/complex_integration@complex_topology</title>
<path fill="none" stroke="black" d="M46.24,-541.5C46.24,-541.5 46.24,-137.65 46.24,-137.65"/>
<polygon fill="black" stroke="black" points="49.74,-137.65 46.24,-127.65 42.74,-137.65 49.74,-137.65"/>
</g>
<!-- nasalib/complex_integration@essential_bound_complete_scaf&#45;&gt;nasalib/complex_integration@essentially_bounded -->
<g id="edge25" class="edge">
<title>nasalib/complex_integration@essential_bound_complete_scaf&#45;&gt;nasalib/complex_integration@essentially_bounded</title>
<path fill="none" stroke="black" d="M159,-530.83C159,-530.83 159,-505.41 159,-505.41"/>
<polygon fill="black" stroke="black" points="162.5,-505.41 159,-495.41 155.5,-505.41 162.5,-505.41"/>
</g>
<!-- nasalib/complex_integration@essential_bound_complete_scaf&#45;&gt;nasalib/measure_integration -->
<g id="edge26" class="edge">
<title>nasalib/complex_integration@essential_bound_complete_scaf&#45;&gt;nasalib/measure_integration</title>
<path fill="none" stroke="black" d="M254.97,-537.35C254.97,-507.76 254.97,-432 254.97,-432 254.97,-432 399.56,-432 399.56,-432 399.56,-432 399.56,-62.14 399.56,-62.14"/>
<polygon fill="black" stroke="black" points="403.06,-62.14 399.56,-52.14 396.06,-62.14 403.06,-62.14"/>
</g>
<!-- nasalib/topology -->
<g id="node21" class="node">
<title>nasalib/topology</title>
<polygon fill="#fcfcd7" stroke="black" points="604.5,-52 539.5,-52 539.5,-16 604.5,-16 604.5,-52"/>
<text text-anchor="middle" x="572" y="-30.3" font-family="Times,serif" font-size="14.00">topology</text>
</g>
<!-- nasalib/complex_integration@essential_bound_complete_scaf&#45;&gt;nasalib/topology -->
<g id="edge27" class="edge">
<title>nasalib/complex_integration@essential_bound_complete_scaf&#45;&gt;nasalib/topology</title>
<path fill="none" stroke="black" d="M268.41,-540.56C268.41,-516.62 268.41,-450 268.41,-450 268.41,-450 552.7,-450 552.7,-450 552.7,-450 552.7,-62.14 552.7,-62.14"/>
<polygon fill="black" stroke="black" points="556.2,-62.14 552.7,-52.14 549.2,-62.14 556.2,-62.14"/>
</g>
<!-- nasalib/complex_integration@essentially_bounded&#45;&gt;nasalib/complex_integration@complex_measure_theory -->
<g id="edge28" class="edge">
<title>nasalib/complex_integration@essentially_bounded&#45;&gt;nasalib/complex_integration@complex_measure_theory</title>
<path fill="none" stroke="black" d="M81.33,-470.77C81.33,-470.77 81.33,-282.85 81.33,-282.85"/>
<polygon fill="black" stroke="black" points="84.83,-282.85 81.33,-272.85 77.83,-282.85 84.83,-282.85"/>
</g>
<!-- nasalib/complex_integration@essentially_bounded&#45;&gt;nasalib/complex_integration@p_integrable_def -->
<g id="edge29" class="edge">
<title>nasalib/complex_integration@essentially_bounded&#45;&gt;nasalib/complex_integration@p_integrable_def</title>
<path fill="none" stroke="black" d="M211.17,-462.78C211.17,-462.78 211.17,-429.94 211.17,-429.94"/>
<polygon fill="black" stroke="black" points="214.67,-429.94 211.17,-419.94 207.67,-429.94 214.67,-429.94"/>
</g>
<!-- nasalib/complex_integration@essentially_bounded&#45;&gt;nasalib/measure_integration -->
<g id="edge30" class="edge">
<title>nasalib/complex_integration@essentially_bounded&#45;&gt;nasalib/measure_integration</title>
<path fill="none" stroke="black" d="M230.71,-468C294.58,-468 378,-468 378,-468 378,-468 378,-28 378,-28 378,-28 382.86,-28 382.86,-28"/>
<polygon fill="black" stroke="black" points="382.86,-31.5 392.86,-28 382.86,-24.5 382.86,-31.5"/>
</g>
<!-- nasalib/complex_integration@holder_scaf -->
<g id="node12" class="node">
<title>nasalib/complex_integration@holder_scaf</title>
<ellipse fill="#e6f3ff" stroke="black" cx="436" cy="-477" rx="51.99" ry="18"/>
<text text-anchor="middle" x="436" y="-473.3" font-family="Times,serif" font-size="14.00">holder_scaf</text>
</g>
<!-- nasalib/complex_integration@holder_scaf&#45;&gt;nasalib/complex_integration@p_integrable_def -->
<g id="edge31" class="edge">
<title>nasalib/complex_integration@holder_scaf&#45;&gt;nasalib/complex_integration@p_integrable_def</title>
<path fill="none" stroke="black" d="M388.5,-469.27C388.5,-452.45 388.5,-414 388.5,-414 388.5,-414 322.11,-414 322.11,-414"/>
<polygon fill="black" stroke="black" points="322.11,-410.5 312.11,-414 322.11,-417.5 322.11,-410.5"/>
</g>
<!-- nasalib/complex_integration@young -->
<g id="node16" class="node">
<title>nasalib/complex_integration@young</title>
<ellipse fill="#e6f3ff" stroke="black" cx="436" cy="-405" rx="32.49" ry="18"/>
<text text-anchor="middle" x="436" y="-401.3" font-family="Times,serif" font-size="14.00">young</text>
</g>
<!-- nasalib/complex_integration@holder_scaf&#45;&gt;nasalib/complex_integration@young -->
<g id="edge32" class="edge">
<title>nasalib/complex_integration@holder_scaf&#45;&gt;nasalib/complex_integration@young</title>
<path fill="none" stroke="black" d="M436,-458.83C436,-458.83 436,-433.41 436,-433.41"/>
<polygon fill="black" stroke="black" points="439.5,-433.41 436,-423.41 432.5,-433.41 439.5,-433.41"/>
</g>
<!-- nasalib/complex_integration@holder_scaf&#45;&gt;nasalib/measure_integration -->
<g id="edge33" class="edge">
<title>nasalib/complex_integration@holder_scaf&#45;&gt;nasalib/measure_integration</title>
<path fill="none" stroke="black" d="M402.19,-463.26C402.19,-463.26 402.19,-62.26 402.19,-62.26"/>
<polygon fill="black" stroke="black" points="405.69,-62.26 402.19,-52.26 398.69,-62.26 405.69,-62.26"/>
</g>
<!-- nasalib/complex_integration@minkowski_scaf -->
<g id="node13" class="node">
<title>nasalib/complex_integration@minkowski_scaf</title>
<ellipse fill="#e6f3ff" stroke="black" cx="497" cy="-549" rx="68.79" ry="18"/>
<text text-anchor="middle" x="497" y="-545.3" font-family="Times,serif" font-size="14.00">minkowski_scaf</text>
</g>
<!-- nasalib/complex_integration@minkowski_scaf&#45;&gt;nasalib/complex_integration@holder_scaf -->
<g id="edge34" class="edge">
<title>nasalib/complex_integration@minkowski_scaf&#45;&gt;nasalib/complex_integration@holder_scaf</title>
<path fill="none" stroke="black" d="M468.03,-532.66C468.03,-532.66 468.03,-501.32 468.03,-501.32"/>
<polygon fill="black" stroke="black" points="471.53,-501.32 468.03,-491.32 464.53,-501.32 471.53,-501.32"/>
</g>
<!-- nasalib/complex_integration@minkowski_scaf&#45;&gt;nasalib/complex_integration@p_integrable_def -->
<g id="edge35" class="edge">
<title>nasalib/complex_integration@minkowski_scaf&#45;&gt;nasalib/complex_integration@p_integrable_def</title>
<path fill="none" stroke="black" d="M448.07,-536.23C448.07,-522.92 448.07,-504 448.07,-504 448.07,-504 312.49,-504 312.49,-504 312.49,-504 312.49,-423.79 312.49,-423.79"/>
<polygon fill="black" stroke="black" points="315.99,-423.79 312.49,-413.79 308.99,-423.79 315.99,-423.79"/>
</g>
<!-- nasalib/complex_integration@minkowski_scaf&#45;&gt;nasalib/measure_integration -->
<g id="edge36" class="edge">
<title>nasalib/complex_integration@minkowski_scaf&#45;&gt;nasalib/measure_integration</title>
<path fill="none" stroke="black" d="M504.5,-530.97C504.5,-530.97 504.5,-62.15 504.5,-62.15"/>
<polygon fill="black" stroke="black" points="508,-62.15 504.5,-52.15 501,-62.15 508,-62.15"/>
</g>
<!-- nasalib/complex_integration@p_integrable&#45;&gt;nasalib/complex_integration@complex_integral -->
<g id="edge40" class="edge">
<title>nasalib/complex_integration@p_integrable&#45;&gt;nasalib/complex_integration@complex_integral</title>
<path fill="none" stroke="black" d="M175.34,-615C116.49,-615 28.39,-615 28.39,-615 28.39,-615 28.39,-333 28.39,-333 28.39,-333 76.06,-333 76.06,-333"/>
<polygon fill="black" stroke="black" points="76.06,-336.5 86.06,-333 76.06,-329.5 76.06,-336.5"/>
</g>
<!-- nasalib/complex_integration@p_integrable&#45;&gt;nasalib/complex_integration@complex_measure_theory -->
<g id="edge41" class="edge">
<title>nasalib/complex_integration@p_integrable&#45;&gt;nasalib/complex_integration@complex_measure_theory</title>
<path fill="none" stroke="black" d="M175.43,-627C116.11,-627 26.76,-627 26.76,-627 26.76,-627 26.76,-261 26.76,-261 26.76,-261 46.11,-261 46.11,-261"/>
<polygon fill="black" stroke="black" points="46.11,-264.5 56.11,-261 46.11,-257.5 46.11,-264.5"/>
</g>
<!-- nasalib/complex_integration@p_integrable&#45;&gt;nasalib/complex_integration@minkowski_scaf -->
<g id="edge42" class="edge">
<title>nasalib/complex_integration@p_integrable&#45;&gt;nasalib/complex_integration@minkowski_scaf</title>
<path fill="none" stroke="black" d="M278.64,-627C339.88,-627 433.75,-627 433.75,-627 433.75,-627 433.75,-566.2 433.75,-566.2"/>
<polygon fill="black" stroke="black" points="437.25,-566.2 433.75,-556.2 430.25,-566.2 437.25,-566.2"/>
</g>
<!-- nasalib/complex_integration@p_integrable&#45;&gt;nasalib/measure_integration -->
<g id="edge43" class="edge">
<title>nasalib/complex_integration@p_integrable&#45;&gt;nasalib/measure_integration</title>
<path fill="none" stroke="black" d="M278.62,-615C285.09,-615 289.5,-615 289.5,-615 289.5,-615 289.5,-441 289.5,-441 289.5,-441 400.88,-441 400.88,-441 400.88,-441 400.88,-62.01 400.88,-62.01"/>
<polygon fill="black" stroke="black" points="404.38,-62.01 400.88,-52.01 397.38,-62.01 404.38,-62.01"/>
</g>
<!-- nasalib/complex_integration@p_integrable_def&#45;&gt;nasalib/complex_integration@complex_integral -->
<g id="edge37" class="edge">
<title>nasalib/complex_integration@p_integrable_def&#45;&gt;nasalib/complex_integration@complex_integral</title>
<path fill="none" stroke="black" d="M206.3,-391.12C206.3,-391.12 206.3,-356.84 206.3,-356.84"/>
<polygon fill="black" stroke="black" points="209.8,-356.84 206.3,-346.84 202.8,-356.84 209.8,-356.84"/>
</g>
<!-- nasalib/complex_integration@p_integrable_def&#45;&gt;nasalib/complex_integration@complex_measure_theory -->
<g id="edge38" class="edge">
<title>nasalib/complex_integration@p_integrable_def&#45;&gt;nasalib/complex_integration@complex_measure_theory</title>
<path fill="none" stroke="black" d="M246.74,-386.76C246.74,-386.76 246.74,-280.64 246.74,-280.64"/>
<polygon fill="black" stroke="black" points="250.24,-280.64 246.74,-270.64 243.24,-280.64 250.24,-280.64"/>
</g>
<!-- nasalib/complex_integration@p_integrable_def&#45;&gt;nasalib/measure_integration -->
<g id="edge39" class="edge">
<title>nasalib/complex_integration@p_integrable_def&#45;&gt;nasalib/measure_integration</title>
<path fill="none" stroke="black" d="M321.61,-405C359.4,-405 398.25,-405 398.25,-405 398.25,-405 398.25,-62.15 398.25,-62.15"/>
<polygon fill="black" stroke="black" points="401.75,-62.15 398.25,-52.15 394.75,-62.15 401.75,-62.15"/>
</g>
<!-- nasalib/power -->
<g id="node19" class="node">
<title>nasalib/power</title>
<polygon fill="#fcfcd7" stroke="black" points="375,-52 321,-52 321,-16 375,-16 375,-52"/>
<text text-anchor="middle" x="348" y="-30.3" font-family="Times,serif" font-size="14.00">power</text>
</g>
<!-- nasalib/complex_integration@young&#45;&gt;nasalib/power -->
<g id="edge44" class="edge">
<title>nasalib/complex_integration@young&#45;&gt;nasalib/power</title>
<path fill="none" stroke="black" d="M407.85,-396C386.77,-396 361.55,-396 361.55,-396 361.55,-396 361.55,-62.45 361.55,-62.45"/>
<polygon fill="black" stroke="black" points="365.05,-62.45 361.55,-52.45 358.05,-62.45 365.05,-62.45"/>
</g>
</g>
</svg>
