<?xml version="1.0" encoding="UTF-8" standalone="no"?>
<!DOCTYPE svg PUBLIC "-//W3C//DTD SVG 1.1//EN"
 "http://www.w3.org/Graphics/SVG/1.1/DTD/svg11.dtd">
<!-- Generated by graphviz version 7.0.6 (20230106.0513)
 -->
<!-- Title: complex_integration Pages: 1 -->
<svg width="936pt" height="894pt"
 viewBox="0.00 0.00 936.00 894.00" xmlns="http://www.w3.org/2000/svg" xmlns:xlink="http://www.w3.org/1999/xlink">
<g id="graph0" class="graph" transform="scale(1 1) rotate(0) translate(4 890)">
<title>complex_integration</title>
<polygon fill="white" stroke="none" points="-4,4 -4,-890 932,-890 932,4 -4,4"/>
<g id="clust1" class="cluster">
<title>cluster_NASALib</title>
<polygon fill="none" stroke="black" points="8,-8 8,-878 824,-878 824,-8 8,-8"/>
<text text-anchor="middle" x="416" y="-862.8" font-family="Times,serif" font-size="14.00">NASALib</text>
</g>
<g id="clust2" class="cluster">
<title>cluster_PVS Prelude</title>
<polygon fill="none" stroke="black" points="832,-8 832,-83 920,-83 920,-8 832,-8"/>
<text text-anchor="middle" x="876" y="-67.8" font-family="Times,serif" font-size="14.00">PVS Prelude</text>
</g>
<!-- NASALib/analysis -->
<g id="node1" class="node">
<title>NASALib/analysis</title>
<polygon fill="#fcfcd7" stroke="black" points="725,-775 665,-775 665,-739 725,-739 725,-775"/>
<text text-anchor="middle" x="695" y="-753.3" font-family="Times,serif" font-size="14.00">analysis</text>
</g>
<!-- NASALib/ints -->
<g id="node5" class="node">
<title>NASALib/ints</title>
<polygon fill="#fcfcd7" stroke="black" points="596,-52 542,-52 542,-16 596,-16 596,-52"/>
<text text-anchor="middle" x="569" y="-30.3" font-family="Times,serif" font-size="14.00">ints</text>
</g>
<!-- NASALib/analysis&#45;&gt;NASALib/ints -->
<g id="edge1" class="edge">
<title>NASALib/analysis&#45;&gt;NASALib/ints</title>
<path fill="none" stroke="black" d="M123,-180C123,-180 423.31,-82.37 531.08,-47.33"/>
<polygon fill="black" stroke="black" points="531.9,-50.74 540.33,-44.32 529.74,-44.08 531.9,-50.74"/>
<path fill="none" stroke="black" d="M664.79,-752.68C559.05,-741.08 212,-703 212,-703 212,-703 168,-631 168,-631 168,-631 98,-415 98,-415 98,-415 83,-343 83,-343 83,-343 83,-307 83,-307 83,-307 123,-182 123,-182"/>
</g>
<!-- NASALib/orders -->
<g id="node10" class="node">
<title>NASALib/orders</title>
<polygon fill="#fcfcd7" stroke="black" points="696,-199 642,-199 642,-163 696,-163 696,-199"/>
<text text-anchor="middle" x="669" y="-177.3" font-family="Times,serif" font-size="14.00">orders</text>
</g>
<!-- NASALib/analysis&#45;&gt;NASALib/orders -->
<g id="edge2" class="edge">
<title>NASALib/analysis&#45;&gt;NASALib/orders</title>
<path fill="none" stroke="black" d="M697.29,-738.62C706.46,-669.13 740,-415 740,-415 740,-415 740,-379 740,-379 740,-379 678,-326 678,-326"/>
</g>
<!-- NASALib/reals -->
<g id="node12" class="node">
<title>NASALib/reals</title>
<polygon fill="#fcfcd7" stroke="black" points="432,-703 378,-703 378,-667 432,-667 432,-703"/>
<text text-anchor="middle" x="405" y="-681.3" font-family="Times,serif" font-size="14.00">reals</text>
</g>
<!-- NASALib/analysis&#45;&gt;NASALib/reals -->
<g id="edge3" class="edge">
<title>NASALib/analysis&#45;&gt;NASALib/reals</title>
<path fill="none" stroke="black" d="M664.51,-748.64C611.21,-735.77 501.21,-709.22 443.02,-695.18"/>
<polygon fill="black" stroke="black" points="444.12,-691.84 433.58,-692.9 442.48,-698.65 444.12,-691.84"/>
</g>
<!-- NASALib/structures -->
<g id="node16" class="node">
<title>NASALib/structures</title>
<polygon fill="#fcfcd7" stroke="black" points="603.5,-127 534.5,-127 534.5,-91 603.5,-91 603.5,-127"/>
<text text-anchor="middle" x="569" y="-105.3" font-family="Times,serif" font-size="14.00">structures</text>
</g>
<!-- NASALib/analysis&#45;&gt;NASALib/structures -->
<g id="edge4" class="edge">
<title>NASALib/analysis&#45;&gt;NASALib/structures</title>
<path fill="none" stroke="black" d="M714.78,-738.7C738.47,-717.97 775,-686 775,-686"/>
<path fill="none" stroke="black" d="M775,-684C775,-684 815,-542 815,-542 815,-542 815,-542 815,-252 815,-252 705,-163 705,-163 705,-163 653.79,-143.04 614.21,-127.62"/>
<polygon fill="black" stroke="black" points="615.67,-124.43 605.08,-124.06 613.13,-130.95 615.67,-124.43"/>
</g>
<!-- lib/finite_sets -->
<g id="node20" class="node">
<title>lib/finite_sets</title>
<polygon fill="#fcfcd7" stroke="black" points="912,-52 840,-52 840,-16 912,-16 912,-52"/>
<text text-anchor="middle" x="876" y="-30.3" font-family="Times,serif" font-size="14.00">finite_sets</text>
</g>
<!-- NASALib/analysis&#45;&gt;lib/finite_sets -->
<g id="edge5" class="edge">
<title>NASALib/analysis&#45;&gt;lib/finite_sets</title>
<path fill="none" stroke="black" d="M722.83,-738.65C747.62,-723.19 780,-703 780,-703 780,-703 828,-559 828,-559 828,-559 844,-470 844,-470"/>
</g>
<!-- NASALib/complex_alt -->
<g id="node2" class="node">
<title>NASALib/complex_alt</title>
<polygon fill="#fcfcd7" stroke="black" points="178,-775 94,-775 94,-739 178,-739 178,-775"/>
<text text-anchor="middle" x="136" y="-753.3" font-family="Times,serif" font-size="14.00">complex_alt</text>
</g>
<!-- NASALib/lnexp -->
<g id="node7" class="node">
<title>NASALib/lnexp</title>
<polygon fill="#fcfcd7" stroke="black" points="222,-343 168,-343 168,-307 222,-307 222,-343"/>
<text text-anchor="middle" x="195" y="-321.3" font-family="Times,serif" font-size="14.00">lnexp</text>
</g>
<!-- NASALib/complex_alt&#45;&gt;NASALib/lnexp -->
<g id="edge6" class="edge">
<title>NASALib/complex_alt&#45;&gt;NASALib/lnexp</title>
<path fill="none" stroke="black" d="M77,-612C77,-612 132,-379 132,-379 132,-379 149.4,-364.36 165.91,-350.47"/>
<polygon fill="black" stroke="black" points="167.81,-353.44 173.21,-344.33 163.31,-348.09 167.81,-353.44"/>
</g>
<!-- NASALib/power -->
<g id="node11" class="node">
<title>NASALib/power</title>
<polygon fill="#fcfcd7" stroke="black" points="250,-415 196,-415 196,-379 250,-379 250,-415"/>
<text text-anchor="middle" x="223" y="-393.3" font-family="Times,serif" font-size="14.00">power</text>
</g>
<!-- NASALib/complex_alt&#45;&gt;NASALib/power -->
<g id="edge7" class="edge">
<title>NASALib/complex_alt&#45;&gt;NASALib/power</title>
<path fill="none" stroke="black" d="M77,-684C77,-684 177,-542 177,-542"/>
<path fill="none" stroke="black" d="M177,-540C177,-540 198,-451 198,-451 198,-451 203.93,-438.43 210.01,-425.53"/>
<polygon fill="black" stroke="black" points="213.07,-427.26 214.17,-416.72 206.74,-424.27 213.07,-427.26"/>
</g>
<!-- NASALib/complex_alt&#45;&gt;NASALib/reals -->
<g id="edge8" class="edge">
<title>NASALib/complex_alt&#45;&gt;NASALib/reals</title>
<path fill="none" stroke="black" d="M178.33,-744.99C230.08,-731.52 316.9,-708.93 366.73,-695.96"/>
<polygon fill="black" stroke="black" points="367.41,-699.4 376.2,-693.49 365.64,-692.62 367.41,-699.4"/>
</g>
<!-- NASALib/complex_alt&#45;&gt;NASALib/structures -->
<g id="edge9" class="edge">
<title>NASALib/complex_alt&#45;&gt;NASALib/structures</title>
<path fill="none" stroke="black" d="M77,-684C77,-684 77,-614 77,-614"/>
<path fill="none" stroke="black" d="M343,-180C343,-180 457.19,-144.63 523.24,-124.17"/>
<polygon fill="black" stroke="black" points="524.22,-127.53 532.74,-121.23 522.15,-120.85 524.22,-127.53"/>
<path fill="none" stroke="black" d="M77,-612C77,-612 57,-542 57,-542"/>
<path fill="none" stroke="black" d="M57,-540C57,-540 32,-487 32,-487 32,-487 32,-451 32,-451 32,-451 87,-307 87,-307 87,-307 343,-182 343,-182"/>
<path fill="none" stroke="black" d="M121.42,-738.7C103.94,-717.97 77,-686 77,-686"/>
</g>
<!-- NASALib/trig -->
<g id="node18" class="node">
<title>NASALib/trig</title>
<polygon fill="#fcfcd7" stroke="black" points="150,-343 96,-343 96,-307 150,-307 150,-343"/>
<text text-anchor="middle" x="123" y="-321.3" font-family="Times,serif" font-size="14.00">trig</text>
</g>
<!-- NASALib/complex_alt&#45;&gt;NASALib/trig -->
<g id="edge10" class="edge">
<title>NASALib/complex_alt&#45;&gt;NASALib/trig</title>
<path fill="none" stroke="black" d="M57,-540C57,-540 92,-379 92,-379 92,-379 99.5,-366.18 107.12,-353.15"/>
<polygon fill="black" stroke="black" points="110.06,-355.06 112.09,-344.66 104.02,-351.53 110.06,-355.06"/>
</g>
<!-- NASALib/complex_integration -->
<g id="node3" class="node">
<title>NASALib/complex_integration</title>
<polygon fill="#f7e28d" stroke="black" points="261.5,-847 132.5,-847 132.5,-811 261.5,-811 261.5,-847"/>
<text text-anchor="middle" x="197" y="-825.3" font-family="Times,serif" font-size="14.00">complex_integration</text>
</g>
<!-- NASALib/complex_integration&#45;&gt;NASALib/complex_alt -->
<g id="edge11" class="edge">
<title>NASALib/complex_integration&#45;&gt;NASALib/complex_alt</title>
<path fill="none" stroke="black" d="M181.92,-810.7C174.83,-802.56 166.23,-792.69 158.4,-783.7"/>
<polygon fill="black" stroke="black" points="161.11,-781.49 151.9,-776.25 155.83,-786.08 161.11,-781.49"/>
</g>
<!-- NASALib/measure_integration -->
<g id="node8" class="node">
<title>NASALib/measure_integration</title>
<polygon fill="#fcfcd7" stroke="black" points="618,-559 490,-559 490,-523 618,-523 618,-559"/>
<text text-anchor="middle" x="554" y="-537.3" font-family="Times,serif" font-size="14.00">measure_integration</text>
</g>
<!-- NASALib/complex_integration&#45;&gt;NASALib/measure_integration -->
<g id="edge12" class="edge">
<title>NASALib/complex_integration&#45;&gt;NASALib/measure_integration</title>
<path fill="none" stroke="black" d="M261.77,-821.61C404.6,-807.51 734,-775 734,-775 734,-775 775,-758 775,-758"/>
<path fill="none" stroke="black" d="M775,-756C775,-756 680,-595 680,-595 680,-595 640.58,-578.42 605.84,-563.81"/>
<polygon fill="black" stroke="black" points="607.23,-560.59 596.65,-559.94 604.51,-567.04 607.23,-560.59"/>
</g>
<!-- NASALib/metric_space -->
<g id="node9" class="node">
<title>NASALib/metric_space</title>
<polygon fill="#fcfcd7" stroke="black" points="411.5,-487 322.5,-487 322.5,-451 411.5,-451 411.5,-487"/>
<text text-anchor="middle" x="367" y="-465.3" font-family="Times,serif" font-size="14.00">metric_space</text>
</g>
<!-- NASALib/complex_integration&#45;&gt;NASALib/metric_space -->
<g id="edge13" class="edge">
<title>NASALib/complex_integration&#45;&gt;NASALib/metric_space</title>
<path fill="none" stroke="black" d="M197,-684C197,-684 252,-595 252,-595 252,-595 309.78,-532.2 343.42,-495.63"/>
<polygon fill="black" stroke="black" points="345.79,-498.22 349.98,-488.49 340.64,-493.48 345.79,-498.22"/>
</g>
<!-- NASALib/complex_integration&#45;&gt;NASALib/power -->
<g id="edge14" class="edge">
<title>NASALib/complex_integration&#45;&gt;NASALib/power</title>
<path fill="none" stroke="black" d="M197,-810.59C197,-772.67 197,-686 197,-686"/>
<path fill="none" stroke="black" d="M197,-684C197,-684 177,-542 177,-542"/>
</g>
<!-- NASALib/complex_integration&#45;&gt;NASALib/structures -->
<g id="edge15" class="edge">
<title>NASALib/complex_integration&#45;&gt;NASALib/structures</title>
<path fill="none" stroke="black" d="M775,-756C775,-756 775,-686 775,-686"/>
</g>
<!-- NASALib/topology -->
<g id="node17" class="node">
<title>NASALib/topology</title>
<polygon fill="#fcfcd7" stroke="black" points="583.5,-415 518.5,-415 518.5,-379 583.5,-379 583.5,-415"/>
<text text-anchor="middle" x="551" y="-393.3" font-family="Times,serif" font-size="14.00">topology</text>
</g>
<!-- NASALib/complex_integration&#45;&gt;NASALib/topology -->
<g id="edge16" class="edge">
<title>NASALib/complex_integration&#45;&gt;NASALib/topology</title>
<path fill="none" stroke="black" d="M775,-756C775,-756 665,-451 665,-451 665,-451 626.44,-433.07 594.17,-418.07"/>
<polygon fill="black" stroke="black" points="595.89,-415.01 585.35,-413.97 592.94,-421.36 595.89,-415.01"/>
</g>
<!-- NASALib/extended_nnreal -->
<g id="node4" class="node">
<title>NASALib/extended_nnreal</title>
<polygon fill="#fcfcd7" stroke="black" points="656,-487 550,-487 550,-451 656,-451 656,-487"/>
<text text-anchor="middle" x="603" y="-465.3" font-family="Times,serif" font-size="14.00">extended_nnreal</text>
</g>
<!-- NASALib/extended_nnreal&#45;&gt;NASALib/analysis -->
<g id="edge17" class="edge">
<title>NASALib/extended_nnreal&#45;&gt;NASALib/analysis</title>
<path fill="none" stroke="black" d="M675,-542C675,-542 695,-684 695,-684"/>
</g>
<!-- NASALib/extended_nnreal&#45;&gt;NASALib/reals -->
<g id="edge18" class="edge">
<title>NASALib/extended_nnreal&#45;&gt;NASALib/reals</title>
<path fill="none" stroke="black" d="M620.8,-487.3C635.62,-501.72 656.04,-521.56 667.1,-532.32"/>
<polygon fill="black" stroke="black" points="664.31,-534.48 673.91,-538.94 669.18,-529.46 664.31,-534.48"/>
<path fill="none" stroke="black" d="M675,-614C675,-614 656,-631 656,-631 656,-631 497.39,-664.49 432.34,-678.23"/>
<path fill="none" stroke="black" d="M675,-542C675,-542 675,-612 675,-612"/>
</g>
<!-- NASALib/series -->
<g id="node13" class="node">
<title>NASALib/series</title>
<polygon fill="#fcfcd7" stroke="black" points="416,-271 362,-271 362,-235 416,-235 416,-271"/>
<text text-anchor="middle" x="389" y="-249.3" font-family="Times,serif" font-size="14.00">series</text>
</g>
<!-- NASALib/extended_nnreal&#45;&gt;NASALib/series -->
<g id="edge19" class="edge">
<title>NASALib/extended_nnreal&#45;&gt;NASALib/series</title>
<path fill="none" stroke="black" d="M601.07,-450.84C598.17,-424.98 593,-379 593,-379 593,-379 504,-343 504,-343 504,-343 464,-307 464,-307 464,-307 442.71,-291.95 422.81,-277.9"/>
<polygon fill="black" stroke="black" points="424.98,-275.14 414.79,-272.23 420.94,-280.86 424.98,-275.14"/>
</g>
<!-- NASALib/sigma_set -->
<g id="node15" class="node">
<title>NASALib/sigma_set</title>
<polygon fill="#fcfcd7" stroke="black" points="713.5,-415 642.5,-415 642.5,-379 713.5,-379 713.5,-415"/>
<text text-anchor="middle" x="678" y="-393.3" font-family="Times,serif" font-size="14.00">sigma_set</text>
</g>
<!-- NASALib/extended_nnreal&#45;&gt;NASALib/sigma_set -->
<g id="edge20" class="edge">
<title>NASALib/extended_nnreal&#45;&gt;NASALib/sigma_set</title>
<path fill="none" stroke="black" d="M621.54,-450.7C630.46,-442.37 641.33,-432.22 651.14,-423.07"/>
<polygon fill="black" stroke="black" points="653.39,-425.76 658.31,-416.38 648.61,-420.64 653.39,-425.76"/>
</g>
<!-- NASALib/lebesgue -->
<g id="node6" class="node">
<title>NASALib/lebesgue</title>
<polygon fill="#fcfcd7" stroke="black" points="647,-631 583,-631 583,-595 647,-595 647,-631"/>
<text text-anchor="middle" x="615" y="-609.3" font-family="Times,serif" font-size="14.00">lebesgue</text>
</g>
<!-- NASALib/lebesgue&#45;&gt;NASALib/analysis -->
<g id="edge21" class="edge">
<title>NASALib/lebesgue&#45;&gt;NASALib/analysis</title>
<path fill="none" stroke="black" d="M634.78,-631.3C651.43,-645.88 674.44,-666.01 686.63,-676.68"/>
<polygon fill="black" stroke="black" points="684.03,-679.05 693.86,-683 688.64,-673.78 684.03,-679.05"/>
</g>
<!-- NASALib/lebesgue&#45;&gt;NASALib/extended_nnreal -->
<g id="edge22" class="edge">
<title>NASALib/lebesgue&#45;&gt;NASALib/extended_nnreal</title>
<path fill="none" stroke="black" d="M637,-540C637,-540 625.84,-517.03 616.31,-497.41"/>
<polygon fill="black" stroke="black" points="619.58,-496.13 612.07,-488.66 613.29,-499.19 619.58,-496.13"/>
</g>
<!-- NASALib/lebesgue&#45;&gt;NASALib/measure_integration -->
<g id="edge23" class="edge">
<title>NASALib/lebesgue&#45;&gt;NASALib/measure_integration</title>
<path fill="none" stroke="black" d="M599.92,-594.7C592.83,-586.56 584.23,-576.69 576.4,-567.7"/>
<polygon fill="black" stroke="black" points="579.11,-565.49 569.9,-560.25 573.83,-570.08 579.11,-565.49"/>
</g>
<!-- NASALib/lebesgue&#45;&gt;NASALib/metric_space -->
<g id="edge24" class="edge">
<title>NASALib/lebesgue&#45;&gt;NASALib/metric_space</title>
<path fill="none" stroke="black" d="M582.56,-599.17C542.9,-583.48 481,-559 481,-559 481,-559 471,-542 471,-542"/>
<path fill="none" stroke="black" d="M471,-540C471,-540 432.55,-514.12 402.41,-493.83"/>
<polygon fill="black" stroke="black" points="404.48,-491.01 394.23,-488.33 400.57,-496.82 404.48,-491.01"/>
</g>
<!-- NASALib/lebesgue&#45;&gt;NASALib/power -->
<g id="edge25" class="edge">
<title>NASALib/lebesgue&#45;&gt;NASALib/power</title>
<path fill="none" stroke="black" d="M582.67,-600.5C538.85,-584.91 466,-559 466,-559 466,-559 275,-487 275,-487 275,-487 254.06,-451.17 238.76,-424.97"/>
<polygon fill="black" stroke="black" points="241.86,-423.34 233.79,-416.47 235.81,-426.87 241.86,-423.34"/>
</g>
<!-- NASALib/sets_aux -->
<g id="node14" class="node">
<title>NASALib/sets_aux</title>
<polygon fill="#fcfcd7" stroke="black" points="654.5,-343 591.5,-343 591.5,-307 654.5,-307 654.5,-343"/>
<text text-anchor="middle" x="623" y="-321.3" font-family="Times,serif" font-size="14.00">sets_aux</text>
</g>
<!-- NASALib/lebesgue&#45;&gt;NASALib/sets_aux -->
<g id="edge27" class="edge">
<title>NASALib/lebesgue&#45;&gt;NASALib/sets_aux</title>
<path fill="none" stroke="black" d="M735,-396C735,-396 723,-379 723,-379 723,-379 692.21,-362.68 664.8,-348.15"/>
<polygon fill="black" stroke="black" points="666.73,-345.21 656.25,-343.62 663.45,-351.4 666.73,-345.21"/>
<path fill="none" stroke="black" d="M636.28,-594.65C655.24,-579.19 680,-559 680,-559 680,-559 735,-398 735,-398"/>
</g>
<!-- NASALib/lebesgue&#45;&gt;NASALib/sigma_set -->
<g id="edge28" class="edge">
<title>NASALib/lebesgue&#45;&gt;NASALib/sigma_set</title>
<path fill="none" stroke="black" d="M637,-540C637,-540 665,-487 665,-487 665,-487 670.05,-452.42 673.86,-426.37"/>
<polygon fill="black" stroke="black" points="677.29,-427.06 675.27,-416.66 670.37,-426.05 677.29,-427.06"/>
</g>
<!-- NASALib/lebesgue&#45;&gt;NASALib/structures -->
<g id="edge29" class="edge">
<title>NASALib/lebesgue&#45;&gt;NASALib/structures</title>
<path fill="none" stroke="black" d="M479,-324C479,-324 499,-254 499,-254"/>
<path fill="none" stroke="black" d="M471,-540C471,-540 474,-379 474,-379 474,-379 479,-326 479,-326"/>
<path fill="none" stroke="black" d="M499,-252C499,-252 343,-182 343,-182"/>
</g>
<!-- NASALib/lebesgue&#45;&gt;NASALib/topology -->
<g id="edge30" class="edge">
<title>NASALib/lebesgue&#45;&gt;NASALib/topology</title>
<path fill="none" stroke="black" d="M620.44,-594.7C626.95,-573.97 637,-542 637,-542"/>
<path fill="none" stroke="black" d="M637,-540C637,-540 627,-523 627,-523 627,-523 541,-487 541,-487 541,-487 541,-451 541,-451 541,-451 543.28,-438.92 545.66,-426.3"/>
<polygon fill="black" stroke="black" points="549.03,-427.32 547.44,-416.84 542.15,-426.02 549.03,-427.32"/>
</g>
<!-- NASALib/lnexp&#45;&gt;NASALib/analysis -->
<g id="edge31" class="edge">
<title>NASALib/lnexp&#45;&gt;NASALib/analysis</title>
<path fill="none" stroke="black" d="M191.07,-343.35C187.57,-358.81 183,-379 183,-379 183,-379 172,-523 172,-523 172,-523 172,-559 172,-559 172,-559 202.28,-643.11 213.16,-673.34"/>
<polygon fill="black" stroke="black" points="209.81,-674.35 216.49,-682.58 216.39,-671.98 209.81,-674.35"/>
</g>
<!-- NASALib/lnexp&#45;&gt;NASALib/ints -->
<g id="edge32" class="edge">
<title>NASALib/lnexp&#45;&gt;NASALib/ints</title>
<path fill="none" stroke="black" d="M177.2,-306.7C155.88,-285.97 123,-254 123,-254"/>
</g>
<!-- NASALib/lnexp&#45;&gt;NASALib/reals -->
<g id="edge33" class="edge">
<title>NASALib/lnexp&#45;&gt;NASALib/reals</title>
<path fill="none" stroke="black" d="M192.38,-343.35C190.05,-358.81 187,-379 187,-379 187,-379 187,-415 187,-415 187,-415 206.42,-443.58 216.73,-458.77"/>
<polygon fill="black" stroke="black" points="213.64,-460.44 222.15,-466.75 219.43,-456.51 213.64,-460.44"/>
<path fill="none" stroke="black" d="M223,-470C223,-470 257,-612 257,-612"/>
</g>
<!-- NASALib/lnexp&#45;&gt;NASALib/series -->
<g id="edge34" class="edge">
<title>NASALib/lnexp&#45;&gt;NASALib/series</title>
<path fill="none" stroke="black" d="M222.38,-314.12C256.04,-301.98 313.31,-281.31 351.16,-267.65"/>
<polygon fill="black" stroke="black" points="352.11,-271.03 360.33,-264.34 349.74,-264.45 352.11,-271.03"/>
</g>
<!-- NASALib/measure_integration&#45;&gt;NASALib/extended_nnreal -->
<g id="edge35" class="edge">
<title>NASALib/measure_integration&#45;&gt;NASALib/extended_nnreal</title>
<path fill="none" stroke="black" d="M566.11,-522.7C571.69,-514.73 578.43,-505.1 584.62,-496.26"/>
<polygon fill="black" stroke="black" points="587.29,-498.54 590.16,-488.34 581.56,-494.53 587.29,-498.54"/>
</g>
<!-- NASALib/measure_integration&#45;&gt;NASALib/metric_space -->
<g id="edge36" class="edge">
<title>NASALib/measure_integration&#45;&gt;NASALib/metric_space</title>
<path fill="none" stroke="black" d="M507.29,-522.52C481.51,-512.86 449.33,-500.82 422.29,-490.7"/>
<polygon fill="black" stroke="black" points="423.83,-487.54 413.24,-487.31 421.38,-494.09 423.83,-487.54"/>
</g>
<!-- NASALib/measure_integration&#45;&gt;NASALib/orders -->
<g id="edge37" class="edge">
<title>NASALib/measure_integration&#45;&gt;NASALib/orders</title>
<path fill="none" stroke="black" d="M623,-396C623,-396 634,-379 634,-379 634,-379 664,-343 664,-343 664,-343 678,-326 678,-326"/>
<path fill="none" stroke="black" d="M678,-324C678,-324 673.45,-252.2 670.82,-210.71"/>
<polygon fill="black" stroke="black" points="674.32,-210.68 670.2,-200.92 667.34,-211.12 674.32,-210.68"/>
</g>
<!-- NASALib/measure_integration&#45;&gt;NASALib/power -->
<g id="edge38" class="edge">
<title>NASALib/measure_integration&#45;&gt;NASALib/power</title>
<path fill="none" stroke="black" d="M489.68,-525.8C418.59,-510.1 314,-487 314,-487 314,-487 275.39,-449.24 248.47,-422.91"/>
<polygon fill="black" stroke="black" points="251.22,-420.71 241.63,-416.22 246.33,-425.71 251.22,-420.71"/>
</g>
<!-- NASALib/measure_integration&#45;&gt;NASALib/reals -->
<g id="edge39" class="edge">
<title>NASALib/measure_integration&#45;&gt;NASALib/reals</title>
<path fill="none" stroke="black" d="M536.05,-559.11C509.94,-583.99 461.36,-630.29 431.24,-658.99"/>
<polygon fill="black" stroke="black" points="429.19,-656.11 424.37,-665.54 434.02,-661.18 429.19,-656.11"/>
</g>
<!-- NASALib/measure_integration&#45;&gt;NASALib/series -->
<g id="edge40" class="edge">
<title>NASALib/measure_integration&#45;&gt;NASALib/series</title>
<path fill="none" stroke="black" d="M491,-468C491,-468 479,-398 479,-398"/>
<path fill="none" stroke="black" d="M479,-396C479,-396 444,-307 444,-307 444,-307 429.36,-292.89 415.19,-279.23"/>
<polygon fill="black" stroke="black" points="417.73,-276.82 408.1,-272.4 412.87,-281.86 417.73,-276.82"/>
<path fill="none" stroke="black" d="M538.43,-522.7C519.77,-501.97 491,-470 491,-470"/>
</g>
<!-- NASALib/measure_integration&#45;&gt;NASALib/sets_aux -->
<g id="edge41" class="edge">
<title>NASALib/measure_integration&#45;&gt;NASALib/sets_aux</title>
<path fill="none" stroke="black" d="M623,-396C623,-396 623,-374.08 623,-354.77"/>
<polygon fill="black" stroke="black" points="626.5,-354.82 623,-344.82 619.5,-354.82 626.5,-354.82"/>
<path fill="none" stroke="black" d="M531,-468C531,-468 541,-451 541,-451 541,-451 623,-398 623,-398"/>
<path fill="none" stroke="black" d="M548.31,-522.7C541.5,-501.97 531,-470 531,-470"/>
</g>
<!-- NASALib/measure_integration&#45;&gt;NASALib/sigma_set -->
<g id="edge42" class="edge">
<title>NASALib/measure_integration&#45;&gt;NASALib/sigma_set</title>
<path fill="none" stroke="black" d="M531,-468C531,-468 541,-451 541,-451 541,-451 591.69,-431.39 631.41,-416.03"/>
<polygon fill="black" stroke="black" points="632.53,-419.34 640.59,-412.47 630,-412.82 632.53,-419.34"/>
</g>
<!-- NASALib/measure_integration&#45;&gt;NASALib/structures -->
<g id="edge43" class="edge">
<title>NASALib/measure_integration&#45;&gt;NASALib/structures</title>
<path fill="none" stroke="black" d="M479,-396C479,-396 479,-326 479,-326"/>
</g>
<!-- NASALib/measure_integration&#45;&gt;NASALib/topology -->
<g id="edge44" class="edge">
<title>NASALib/measure_integration&#45;&gt;NASALib/topology</title>
<path fill="none" stroke="black" d="M491,-468C491,-468 511.79,-443.74 528.9,-423.79"/>
<polygon fill="black" stroke="black" points="531.33,-426.32 535.18,-416.45 526.02,-421.77 531.33,-426.32"/>
</g>
<!-- NASALib/measure_integration&#45;&gt;lib/finite_sets -->
<g id="edge45" class="edge">
<title>NASALib/measure_integration&#45;&gt;lib/finite_sets</title>
<path fill="none" stroke="black" d="M844,-468C844,-468 844,-398 844,-398"/>
<path fill="none" stroke="black" d="M618.41,-525.96C626.5,-524.2 632,-523 632,-523 632,-523 828,-487 828,-487 828,-487 844,-470 844,-470"/>
</g>
<!-- NASALib/metric_space&#45;&gt;NASALib/analysis -->
<g id="edge46" class="edge">
<title>NASALib/metric_space&#45;&gt;NASALib/analysis</title>
<path fill="none" stroke="black" d="M377.3,-487.41C395.17,-517.63 431.36,-578.8 445.33,-602.41"/>
<polygon fill="black" stroke="black" points="442.13,-603.87 450.23,-610.7 448.15,-600.31 442.13,-603.87"/>
<path fill="none" stroke="black" d="M695,-686C695,-686 695,-717.97 695,-738.7"/>
<path fill="none" stroke="black" d="M451,-614C451,-614 695,-684 695,-684"/>
</g>
<!-- NASALib/metric_space&#45;&gt;NASALib/power -->
<g id="edge47" class="edge">
<title>NASALib/metric_space&#45;&gt;NASALib/power</title>
<path fill="none" stroke="black" d="M331.03,-450.52C309.56,-440.08 282.32,-426.83 260.56,-416.26"/>
<polygon fill="black" stroke="black" points="262.26,-413.19 251.74,-411.97 259.2,-419.49 262.26,-413.19"/>
</g>
<!-- NASALib/metric_space&#45;&gt;NASALib/series -->
<g id="edge49" class="edge">
<title>NASALib/metric_space&#45;&gt;NASALib/series</title>
<path fill="none" stroke="black" d="M368.76,-450.85C372.54,-414.14 381.43,-327.66 386.07,-282.53"/>
<polygon fill="black" stroke="black" points="389.53,-283.04 387.07,-272.74 382.57,-282.33 389.53,-283.04"/>
</g>
<!-- NASALib/metric_space&#45;&gt;NASALib/sets_aux -->
<g id="edge50" class="edge">
<title>NASALib/metric_space&#45;&gt;NASALib/sets_aux</title>
<path fill="none" stroke="black" d="M394.91,-450.63C436.53,-424.73 510,-379 510,-379 510,-379 548.92,-360.75 581.08,-345.66"/>
<polygon fill="black" stroke="black" points="582.28,-348.96 589.85,-341.55 579.31,-342.62 582.28,-348.96"/>
</g>
<!-- NASALib/metric_space&#45;&gt;NASALib/topology -->
<g id="edge51" class="edge">
<title>NASALib/metric_space&#45;&gt;NASALib/topology</title>
<path fill="none" stroke="black" d="M411.54,-451.05C440.68,-439.97 478.57,-425.55 507.5,-414.55"/>
<polygon fill="black" stroke="black" points="508.6,-417.88 516.7,-411.05 506.11,-411.33 508.6,-417.88"/>
</g>
<!-- NASALib/vectors -->
<g id="node19" class="node">
<title>NASALib/vectors</title>
<polygon fill="#fcfcd7" stroke="black" points="324,-415 268,-415 268,-379 324,-379 324,-415"/>
<text text-anchor="middle" x="296" y="-393.3" font-family="Times,serif" font-size="14.00">vectors</text>
</g>
<!-- NASALib/metric_space&#45;&gt;NASALib/vectors -->
<g id="edge52" class="edge">
<title>NASALib/metric_space&#45;&gt;NASALib/vectors</title>
<path fill="none" stroke="black" d="M349.45,-450.7C341.02,-442.39 330.77,-432.28 321.5,-423.14"/>
<polygon fill="black" stroke="black" points="324,-420.7 314.43,-416.17 319.09,-425.68 324,-420.7"/>
</g>
<!-- NASALib/metric_space&#45;&gt;lib/finite_sets -->
<g id="edge53" class="edge">
<title>NASALib/metric_space&#45;&gt;lib/finite_sets</title>
<path fill="none" stroke="black" d="M411.99,-461.57C445.69,-456.76 486,-451 486,-451 486,-451 740,-415 740,-415 740,-415 844,-398 844,-398"/>
<path fill="none" stroke="black" d="M844,-396C844,-396 844,-254 844,-254"/>
</g>
<!-- NASALib/orders&#45;&gt;NASALib/structures -->
<g id="edge54" class="edge">
<title>NASALib/orders&#45;&gt;NASALib/structures</title>
<path fill="none" stroke="black" d="M644.02,-162.52C631.64,-153.85 616.5,-143.25 603.07,-133.85"/>
<polygon fill="black" stroke="black" points="605.1,-131 594.9,-128.13 601.08,-136.73 605.1,-131"/>
</g>
<!-- NASALib/orders&#45;&gt;lib/finite_sets -->
<g id="edge55" class="edge">
<title>NASALib/orders&#45;&gt;lib/finite_sets</title>
<path fill="none" stroke="black" d="M844,-108C844,-108 854.84,-83.26 863.91,-62.59"/>
<polygon fill="black" stroke="black" points="867,-64.25 867.81,-53.69 860.59,-61.44 867,-64.25"/>
<path fill="none" stroke="black" d="M696.34,-169.06C745.56,-149.38 844,-110 844,-110"/>
</g>
<!-- NASALib/power&#45;&gt;NASALib/analysis -->
<g id="edge56" class="edge">
<title>NASALib/power&#45;&gt;NASALib/analysis</title>
<path fill="none" stroke="black" d="M221.36,-415.35C219.9,-430.81 218,-451 218,-451 218,-451 217.25,-626.22 217.05,-672.76"/>
<polygon fill="black" stroke="black" points="213.55,-672.47 217.01,-682.49 220.55,-672.5 213.55,-672.47"/>
</g>
<!-- NASALib/power&#45;&gt;NASALib/lnexp -->
<g id="edge57" class="edge">
<title>NASALib/power&#45;&gt;NASALib/lnexp</title>
<path fill="none" stroke="black" d="M216.08,-378.7C213.06,-371.15 209.45,-362.12 206.07,-353.68"/>
<polygon fill="black" stroke="black" points="209.37,-352.49 202.4,-344.51 202.87,-355.09 209.37,-352.49"/>
</g>
<!-- NASALib/power&#45;&gt;NASALib/reals -->
<g id="edge58" class="edge">
<title>NASALib/power&#45;&gt;NASALib/reals</title>
<path fill="none" stroke="black" d="M223,-415.3C223,-428.26 223,-445.6 223,-456.79"/>
<polygon fill="black" stroke="black" points="219.5,-456.49 223,-466.49 226.5,-456.49 219.5,-456.49"/>
</g>
<!-- NASALib/reals&#45;&gt;NASALib/ints -->
<g id="edge59" class="edge">
<title>NASALib/reals&#45;&gt;NASALib/ints</title>
<path fill="none" stroke="black" d="M377.65,-674.52C333.64,-659.28 252,-631 252,-631 252,-631 172,-559 172,-559 172,-559 87,-343 87,-343 87,-343 87,-307 87,-307 87,-307 123,-254 123,-254"/>
<path fill="none" stroke="black" d="M123,-252C123,-252 123,-182 123,-182"/>
</g>
<!-- NASALib/reals&#45;&gt;NASALib/lebesgue -->
<g id="edge60" class="edge">
<title>NASALib/reals&#45;&gt;NASALib/lebesgue</title>
<path fill="none" stroke="black" d="M443.35,-671.22C479.71,-659.1 534.24,-640.92 572.05,-628.32"/>
<polygon fill="black" stroke="black" points="442.27,-667.89 433.89,-674.37 444.48,-674.53 442.27,-667.89"/>
<polygon fill="black" stroke="black" points="572.9,-631.72 581.28,-625.24 570.69,-625.08 572.9,-631.72"/>
</g>
<!-- NASALib/reals&#45;&gt;NASALib/metric_space -->
<g id="edge61" class="edge">
<title>NASALib/reals&#45;&gt;NASALib/metric_space</title>
<path fill="none" stroke="black" d="M399.95,-655.57C392.68,-614.64 379.35,-539.54 372.07,-498.55"/>
<polygon fill="black" stroke="black" points="396.5,-656.12 401.69,-665.36 403.39,-654.9 396.5,-656.12"/>
<polygon fill="black" stroke="black" points="375.52,-497.96 370.32,-488.72 368.63,-499.18 375.52,-497.96"/>
</g>
<!-- NASALib/reals&#45;&gt;NASALib/sets_aux -->
<g id="edge62" class="edge">
<title>NASALib/reals&#45;&gt;NASALib/sets_aux</title>
<path fill="none" stroke="black" d="M432.37,-678.72C501.93,-665.32 680,-631 680,-631 680,-631 735,-398 735,-398"/>
</g>
<!-- NASALib/reals&#45;&gt;NASALib/structures -->
<g id="edge63" class="edge">
<title>NASALib/reals&#45;&gt;NASALib/structures</title>
<path fill="none" stroke="black" d="M390.27,-666.65C377.14,-651.19 360,-631 360,-631 360,-631 327,-559 327,-559 327,-559 310,-487 310,-487 310,-487 310,-451 310,-451 310,-451 333,-415 333,-415 333,-415 343,-326 343,-326"/>
</g>
<!-- NASALib/series&#45;&gt;NASALib/analysis -->
<g id="edge64" class="edge">
<title>NASALib/series&#45;&gt;NASALib/analysis</title>
<path fill="none" stroke="black" d="M391.99,-271.27C402.88,-334.12 440.21,-549.7 449.09,-600.99"/>
<polygon fill="black" stroke="black" points="445.59,-601.25 450.74,-610.51 452.48,-600.06 445.59,-601.25"/>
</g>
<!-- NASALib/series&#45;&gt;NASALib/ints -->
<g id="edge65" class="edge">
<title>NASALib/series&#45;&gt;NASALib/ints</title>
<path fill="none" stroke="black" d="M361.54,-244.77C293.57,-226.89 123,-182 123,-182"/>
</g>
<!-- NASALib/series&#45;&gt;NASALib/orders -->
<g id="edge66" class="edge">
<title>NASALib/series&#45;&gt;NASALib/orders</title>
<path fill="none" stroke="black" d="M416.42,-245.92C479.19,-232 628,-199 628,-199 628,-199 629.37,-198.43 631.62,-197.5"/>
<polygon fill="black" stroke="black" points="632.59,-200.89 640.48,-193.82 629.9,-194.42 632.59,-200.89"/>
</g>
<!-- NASALib/series&#45;&gt;NASALib/reals -->
<g id="edge67" class="edge">
<title>NASALib/series&#45;&gt;NASALib/reals</title>
<path fill="none" stroke="black" d="M384.42,-271.35C380.33,-286.81 375,-307 375,-307 375,-307 348,-415 348,-415 348,-415 314,-451 314,-451 314,-451 314,-487 314,-487 314,-487 367.09,-601.92 392.17,-656.22"/>
<polygon fill="black" stroke="black" points="388.92,-657.53 396.29,-665.14 395.27,-654.6 388.92,-657.53"/>
</g>
<!-- NASALib/sets_aux&#45;&gt;NASALib/ints -->
<g id="edge68" class="edge">
<title>NASALib/sets_aux&#45;&gt;NASALib/ints</title>
<path fill="none" stroke="black" d="M623,-180C623,-180 613,-91 613,-91 613,-91 601.07,-75.81 589.63,-61.25"/>
<polygon fill="black" stroke="black" points="592.55,-59.3 583.62,-53.6 587.04,-63.63 592.55,-59.3"/>
</g>
<!-- NASALib/sets_aux&#45;&gt;NASALib/orders -->
<g id="edge69" class="edge">
<title>NASALib/sets_aux&#45;&gt;NASALib/orders</title>
<path fill="none" stroke="black" d="M623,-252C623,-252 638.37,-228.61 651.35,-208.87"/>
<polygon fill="black" stroke="black" points="654.23,-210.85 656.8,-200.57 648.38,-207 654.23,-210.85"/>
</g>
<!-- NASALib/sets_aux&#45;&gt;NASALib/structures -->
<g id="edge70" class="edge">
<title>NASALib/sets_aux&#45;&gt;NASALib/structures</title>
<path fill="none" stroke="black" d="M623,-180C623,-180 604.62,-156.18 589.31,-136.33"/>
<polygon fill="black" stroke="black" points="592.15,-134.28 583.27,-128.5 586.61,-138.56 592.15,-134.28"/>
<path fill="none" stroke="black" d="M623,-252C623,-252 623,-182 623,-182"/>
<path fill="none" stroke="black" d="M623,-306.7C623,-285.97 623,-254 623,-254"/>
</g>
<!-- NASALib/sets_aux&#45;&gt;lib/finite_sets -->
<g id="edge71" class="edge">
<title>NASALib/sets_aux&#45;&gt;lib/finite_sets</title>
<path fill="none" stroke="black" d="M654.66,-313.97C715.77,-294.62 844,-254 844,-254"/>
<path fill="none" stroke="black" d="M844,-252C844,-252 844,-110 844,-110"/>
</g>
<!-- NASALib/sigma_set&#45;&gt;NASALib/analysis -->
<g id="edge72" class="edge">
<title>NASALib/sigma_set&#45;&gt;NASALib/analysis</title>
<path fill="none" stroke="black" d="M679.96,-415.35C681.71,-430.81 684,-451 684,-451 684,-451 692.27,-626.22 694.47,-672.76"/>
<polygon fill="black" stroke="black" points="690.96,-672.66 694.93,-682.49 697.95,-672.33 690.96,-672.66"/>
</g>
<!-- NASALib/sigma_set&#45;&gt;NASALib/orders -->
<g id="edge73" class="edge">
<title>NASALib/sigma_set&#45;&gt;NASALib/orders</title>
<path fill="none" stroke="black" d="M678,-378.7C678,-357.97 678,-326 678,-326"/>
</g>
<!-- NASALib/sigma_set&#45;&gt;NASALib/reals -->
<g id="edge74" class="edge">
<title>NASALib/sigma_set&#45;&gt;NASALib/reals</title>
<path fill="none" stroke="black" d="M678.28,-415.38C678.83,-449.73 680,-523 680,-523 680,-523 680,-559 680,-559 680,-559 677.53,-585.2 676.06,-600.76"/>
<polygon fill="black" stroke="black" points="672.6,-600.21 675.14,-610.49 679.57,-600.87 672.6,-600.21"/>
</g>
<!-- NASALib/sigma_set&#45;&gt;NASALib/series -->
<g id="edge75" class="edge">
<title>NASALib/sigma_set&#45;&gt;NASALib/series</title>
<path fill="none" stroke="black" d="M644.04,-378.63C593.4,-352.73 504,-307 504,-307 504,-307 459.86,-286.66 426.28,-271.18"/>
<polygon fill="black" stroke="black" points="428.17,-268.2 417.63,-267.19 425.24,-274.56 428.17,-268.2"/>
</g>
<!-- NASALib/sigma_set&#45;&gt;NASALib/sets_aux -->
<g id="edge76" class="edge">
<title>NASALib/sigma_set&#45;&gt;NASALib/sets_aux</title>
<path fill="none" stroke="black" d="M664.4,-378.7C658.08,-370.64 650.42,-360.89 643.41,-351.98"/>
<polygon fill="black" stroke="black" points="646.3,-350 637.37,-344.29 640.8,-354.32 646.3,-350"/>
</g>
<!-- NASALib/structures&#45;&gt;NASALib/ints -->
<g id="edge77" class="edge">
<title>NASALib/structures&#45;&gt;NASALib/ints</title>
<path fill="none" stroke="black" d="M569,-90.7C569,-82.67 569,-72.9 569,-63.8"/>
<polygon fill="black" stroke="black" points="572.5,-63.94 569,-53.94 565.5,-63.94 572.5,-63.94"/>
</g>
<!-- NASALib/structures&#45;&gt;lib/finite_sets -->
<g id="edge78" class="edge">
<title>NASALib/structures&#45;&gt;lib/finite_sets</title>
<path fill="none" stroke="black" d="M603.93,-104.63C674.63,-97.8 828,-83 828,-83 828,-83 839.17,-71.83 850.73,-60.27"/>
<polygon fill="black" stroke="black" points="853,-62.95 857.6,-53.4 848.05,-58 853,-62.95"/>
</g>
<!-- NASALib/topology&#45;&gt;NASALib/reals -->
<g id="edge79" class="edge">
<title>NASALib/topology&#45;&gt;NASALib/reals</title>
<path fill="none" stroke="black" d="M529.72,-415.35C510.76,-430.81 486,-451 486,-451 486,-451 436.07,-594.62 414.61,-656.35"/>
<polygon fill="black" stroke="black" points="411.43,-654.84 411.45,-665.44 418.04,-657.14 411.43,-654.84"/>
</g>
<!-- NASALib/topology&#45;&gt;NASALib/sets_aux -->
<g id="edge80" class="edge">
<title>NASALib/topology&#45;&gt;NASALib/sets_aux</title>
<path fill="none" stroke="black" d="M568.8,-378.7C577.28,-370.45 587.59,-360.43 596.93,-351.35"/>
<polygon fill="black" stroke="black" points="599.34,-353.88 604.07,-344.4 594.46,-348.86 599.34,-353.88"/>
</g>
<!-- NASALib/topology&#45;&gt;NASALib/structures -->
<g id="edge81" class="edge">
<title>NASALib/topology&#45;&gt;NASALib/structures</title>
<path fill="none" stroke="black" d="M544.62,-378.59C530.74,-340.67 499,-254 499,-254"/>
</g>
<!-- NASALib/trig&#45;&gt;NASALib/analysis -->
<g id="edge82" class="edge">
<title>NASALib/trig&#45;&gt;NASALib/analysis</title>
<path fill="none" stroke="black" d="M217,-686C217,-686 559.66,-736.18 664.74,-751.57"/>
<path fill="none" stroke="black" d="M122.02,-343.35C121.14,-358.81 120,-379 120,-379 120,-379 120,-415 120,-415 120,-415 181,-631 181,-631 181,-631 200.42,-659.58 210.73,-674.77"/>
<polygon fill="black" stroke="black" points="207.64,-676.44 216.15,-682.75 213.43,-672.51 207.64,-676.44"/>
</g>
<!-- NASALib/trig&#45;&gt;NASALib/ints -->
<g id="edge83" class="edge">
<title>NASALib/trig&#45;&gt;NASALib/ints</title>
<path fill="none" stroke="black" d="M123,-306.7C123,-285.97 123,-254 123,-254"/>
</g>
<!-- NASALib/trig&#45;&gt;NASALib/reals -->
<g id="edge84" class="edge">
<title>NASALib/trig&#45;&gt;NASALib/reals</title>
<path fill="none" stroke="black" d="M130.94,-343.13C155.88,-396.94 231,-559 231,-559 231,-559 244.43,-586.38 251.99,-601.78"/>
<polygon fill="black" stroke="black" points="248.79,-603.2 256.33,-610.64 255.07,-600.12 248.79,-603.2"/>
<path fill="none" stroke="black" d="M257,-614C257,-614 272,-631 272,-631 272,-631 338.85,-657.64 377.76,-673.15"/>
</g>
<!-- NASALib/trig&#45;&gt;NASALib/series -->
<g id="edge85" class="edge">
<title>NASALib/trig&#45;&gt;NASALib/series</title>
<path fill="none" stroke="black" d="M150.29,-311.12C155.31,-308.74 159,-307 159,-307 159,-307 285.18,-277.92 350.62,-262.84"/>
<polygon fill="black" stroke="black" points="351.28,-266.28 360.24,-260.63 349.71,-259.46 351.28,-266.28"/>
</g>
<!-- NASALib/vectors&#45;&gt;NASALib/reals -->
<g id="edge86" class="edge">
<title>NASALib/vectors&#45;&gt;NASALib/reals</title>
<path fill="none" stroke="black" d="M277.96,-415.3C262.92,-429.72 242.23,-449.56 231.01,-460.32"/>
<polygon fill="black" stroke="black" points="228.89,-457.5 224.09,-466.95 233.73,-462.56 228.89,-457.5"/>
</g>
<!-- NASALib/vectors&#45;&gt;NASALib/structures -->
<g id="edge87" class="edge">
<title>NASALib/vectors&#45;&gt;NASALib/structures</title>
<path fill="none" stroke="black" d="M343,-324C343,-324 343,-182 343,-182"/>
<path fill="none" stroke="black" d="M307.62,-378.7C321.54,-357.97 343,-326 343,-326"/>
</g>
<!-- NASALib/vectors&#45;&gt;NASALib/trig -->
<g id="edge88" class="edge">
<title>NASALib/vectors&#45;&gt;NASALib/trig</title>
<path fill="none" stroke="black" d="M267.58,-382.94C262.61,-380.66 259,-379 259,-379 259,-379 188.47,-353.61 160.71,-343.04"/>
<polygon fill="black" stroke="black" points="162.28,-339.89 151.69,-339.44 159.69,-346.4 162.28,-339.89"/>
</g>
</g>
</svg>
