<?xml version="1.0" encoding="UTF-8" standalone="no"?>
<!DOCTYPE svg PUBLIC "-//W3C//DTD SVG 1.1//EN"
 "http://www.w3.org/Graphics/SVG/1.1/DTD/svg11.dtd">
<!-- Generated by graphviz version 8.0.4 (20230421.1958)
 -->
<!-- Title: ASP&#45;zoomed Pages: 1 -->
<svg width="240pt" height="245pt"
 viewBox="0.00 0.00 240.00 244.50" xmlns="http://www.w3.org/2000/svg" xmlns:xlink="http://www.w3.org/1999/xlink">
<g id="graph0" class="graph" transform="scale(1 1) rotate(0) translate(4 240.5)">
<title>ASP&#45;zoomed</title>
<polygon fill="white" stroke="none" points="-4,4 -4,-240.5 236,-240.5 236,4 -4,4"/>
<g id="clust1" class="cluster">
<title>cluster_NASALib/ASP</title>
<polygon fill="none" stroke="black" points="8,-8 8,-228.5 224,-228.5 224,-8 8,-8"/>
<text text-anchor="middle" x="116" y="-211.2" font-family="Times,serif" font-size="14.00">NASALib/ASP</text>
</g>
<!-- NASALib/ASP@Sig_denot -->
<g id="node1" class="node">
<title>NASALib/ASP@Sig_denot</title>
<ellipse fill="#e6f3ff" stroke="black" cx="116" cy="-178" rx="48.28" ry="18"/>
<text text-anchor="middle" x="116" y="-172.95" font-family="Times,serif" font-size="14.00">Sig_denot</text>
</g>
<!-- NASALib/ASP@Sig_int -->
<g id="node3" class="node">
<title>NASALib/ASP@Sig_int</title>
<ellipse fill="#e6f3ff" stroke="black" cx="116" cy="-106" rx="37.53" ry="18"/>
<text text-anchor="middle" x="116" y="-100.95" font-family="Times,serif" font-size="14.00">Sig_int</text>
</g>
<!-- NASALib/ASP@Sig_denot&#45;&gt;NASALib/ASP@Sig_int -->
<g id="edge1" class="edge">
<title>NASALib/ASP@Sig_denot&#45;&gt;NASALib/ASP@Sig_int</title>
<path fill="none" stroke="black" d="M116,-159.7C116,-152.24 116,-143.32 116,-134.97"/>
<polygon fill="black" stroke="black" points="119.5,-135.1 116,-125.1 112.5,-135.1 119.5,-135.1"/>
</g>
<!-- NASALib/ASP@Sig_form -->
<g id="node2" class="node">
<title>NASALib/ASP@Sig_form</title>
<ellipse fill="#e6f3ff" stroke="black" cx="62" cy="-34" rx="46.23" ry="18"/>
<text text-anchor="middle" x="62" y="-28.95" font-family="Times,serif" font-size="14.00">Sig_form</text>
</g>
<!-- NASALib/ASP@Sig_int&#45;&gt;NASALib/ASP@Sig_form -->
<g id="edge2" class="edge">
<title>NASALib/ASP@Sig_int&#45;&gt;NASALib/ASP@Sig_form</title>
<path fill="none" stroke="black" d="M103.48,-88.76C96.96,-80.32 88.85,-69.8 81.53,-60.31"/>
<polygon fill="black" stroke="black" points="83.71,-58.41 74.83,-52.63 78.17,-62.69 83.71,-58.41"/>
</g>
<!-- NASALib/ASP@Sig_prop -->
<g id="node4" class="node">
<title>NASALib/ASP@Sig_prop</title>
<ellipse fill="#e6f3ff" stroke="black" cx="171" cy="-34" rx="44.7" ry="18"/>
<text text-anchor="middle" x="171" y="-28.95" font-family="Times,serif" font-size="14.00">Sig_prop</text>
</g>
<!-- NASALib/ASP@Sig_int&#45;&gt;NASALib/ASP@Sig_prop -->
<g id="edge3" class="edge">
<title>NASALib/ASP@Sig_int&#45;&gt;NASALib/ASP@Sig_prop</title>
<path fill="none" stroke="black" d="M128.76,-88.76C135.46,-80.23 143.83,-69.58 151.34,-60.02"/>
<polygon fill="black" stroke="black" points="154.5,-62.66 157.93,-52.63 149,-58.33 154.5,-62.66"/>
</g>
</g>
</svg>
