<?xml version="1.0" encoding="UTF-8" standalone="no"?>
<!DOCTYPE svg PUBLIC "-//W3C//DTD SVG 1.1//EN"
 "http://www.w3.org/Graphics/SVG/1.1/DTD/svg11.dtd">
<!-- Generated by graphviz version 7.0.6 (20230106.0513)
 -->
<!-- Title: ASP&#45;zoomed Pages: 1 -->
<svg width="232pt" height="243pt"
 viewBox="0.00 0.00 232.00 243.00" xmlns="http://www.w3.org/2000/svg" xmlns:xlink="http://www.w3.org/1999/xlink">
<g id="graph0" class="graph" transform="scale(1 1) rotate(0) translate(4 239)">
<title>ASP&#45;zoomed</title>
<polygon fill="white" stroke="none" points="-4,4 -4,-239 228,-239 228,4 -4,4"/>
<g id="clust1" class="cluster">
<title>cluster_NASALib/ASP</title>
<polygon fill="none" stroke="black" points="8,-8 8,-227 216,-227 216,-8 8,-8"/>
<text text-anchor="middle" x="112" y="-211.8" font-family="Times,serif" font-size="14.00">NASALib/ASP</text>
</g>
<!-- NASALib/ASP@Sig_denot -->
<g id="node1" class="node">
<title>NASALib/ASP@Sig_denot</title>
<ellipse fill="#e6f3ff" stroke="black" cx="112" cy="-178" rx="46.29" ry="18"/>
<text text-anchor="middle" x="112" y="-174.3" font-family="Times,serif" font-size="14.00">Sig_denot</text>
</g>
<!-- NASALib/ASP@Sig_int -->
<g id="node3" class="node">
<title>NASALib/ASP@Sig_int</title>
<ellipse fill="#e6f3ff" stroke="black" cx="112" cy="-106" rx="36.29" ry="18"/>
<text text-anchor="middle" x="112" y="-102.3" font-family="Times,serif" font-size="14.00">Sig_int</text>
</g>
<!-- NASALib/ASP@Sig_denot&#45;&gt;NASALib/ASP@Sig_int -->
<g id="edge1" class="edge">
<title>NASALib/ASP@Sig_denot&#45;&gt;NASALib/ASP@Sig_int</title>
<path fill="none" stroke="black" d="M112,-159.7C112,-152.41 112,-143.73 112,-135.54"/>
<polygon fill="black" stroke="black" points="115.5,-135.62 112,-125.62 108.5,-135.62 115.5,-135.62"/>
</g>
<!-- NASALib/ASP@Sig_form -->
<g id="node2" class="node">
<title>NASALib/ASP@Sig_form</title>
<ellipse fill="#e6f3ff" stroke="black" cx="60" cy="-34" rx="44.39" ry="18"/>
<text text-anchor="middle" x="60" y="-30.3" font-family="Times,serif" font-size="14.00">Sig_form</text>
</g>
<!-- NASALib/ASP@Sig_int&#45;&gt;NASALib/ASP@Sig_form -->
<g id="edge2" class="edge">
<title>NASALib/ASP@Sig_int&#45;&gt;NASALib/ASP@Sig_form</title>
<path fill="none" stroke="black" d="M99.94,-88.76C93.73,-80.4 86.01,-70.02 79.02,-60.61"/>
<polygon fill="black" stroke="black" points="82.03,-58.79 73.26,-52.85 76.41,-62.96 82.03,-58.79"/>
</g>
<!-- NASALib/ASP@Sig_prop -->
<g id="node4" class="node">
<title>NASALib/ASP@Sig_prop</title>
<ellipse fill="#e6f3ff" stroke="black" cx="165" cy="-34" rx="42.79" ry="18"/>
<text text-anchor="middle" x="165" y="-30.3" font-family="Times,serif" font-size="14.00">Sig_prop</text>
</g>
<!-- NASALib/ASP@Sig_int&#45;&gt;NASALib/ASP@Sig_prop -->
<g id="edge3" class="edge">
<title>NASALib/ASP@Sig_int&#45;&gt;NASALib/ASP@Sig_prop</title>
<path fill="none" stroke="black" d="M124.29,-88.76C130.62,-80.4 138.49,-70.02 145.61,-60.61"/>
<polygon fill="black" stroke="black" points="148.25,-62.93 151.49,-52.84 142.67,-58.7 148.25,-62.93"/>
</g>
</g>
</svg>
