<?xml version="1.0" encoding="UTF-8" standalone="no"?>
<!DOCTYPE svg PUBLIC "-//W3C//DTD SVG 1.1//EN"
 "http://www.w3.org/Graphics/SVG/1.1/DTD/svg11.dtd">
<!-- Generated by graphviz version 2.43.0 (0)
 -->
<!-- Title: nominal Pages: 1 -->
<svg width="132pt" height="171pt"
 viewBox="0.00 0.00 132.00 171.00" xmlns="http://www.w3.org/2000/svg" xmlns:xlink="http://www.w3.org/1999/xlink">
<g id="graph0" class="graph" transform="scale(1 1) rotate(0) translate(4 167)">
<title>nominal</title>
<polygon fill="white" stroke="transparent" points="-4,4 -4,-167 128,-167 128,4 -4,4"/>
<g id="clust1" class="cluster">
<title>cluster_NASALib</title>
<polygon fill="none" stroke="black" points="8,-8 8,-155 116,-155 116,-8 8,-8"/>
<text text-anchor="middle" x="62" y="-139.8" font-family="Times,serif" font-size="14.00">NASALib</text>
</g>
<!-- pvslib/nominal -->
<g id="node1" class="node">
<title>pvslib/nominal</title>
<polygon fill="#f7e28d" stroke="black" points="99,-124 25,-124 25,-88 99,-88 99,-124"/>
<text text-anchor="middle" x="62" y="-102.3" font-family="Times,serif" font-size="14.00">nominal</text>
</g>
<!-- pvslib/structures -->
<g id="node2" class="node">
<title>pvslib/structures</title>
<polygon fill="#fcfcd7" stroke="black" points="107.5,-52 16.5,-52 16.5,-16 107.5,-16 107.5,-52"/>
<text text-anchor="middle" x="62" y="-30.3" font-family="Times,serif" font-size="14.00">structures</text>
</g>
<!-- pvslib/nominal&#45;&gt;pvslib/structures -->
<g id="edge1" class="edge">
<title>pvslib/nominal&#45;&gt;pvslib/structures</title>
<path fill="none" stroke="black" d="M62,-87.7C62,-79.98 62,-70.71 62,-62.11"/>
<polygon fill="black" stroke="black" points="65.5,-62.1 62,-52.1 58.5,-62.1 65.5,-62.1"/>
</g>
</g>
</svg>
