<?xml version="1.0" encoding="UTF-8" standalone="no"?>
<!DOCTYPE svg PUBLIC "-//W3C//DTD SVG 1.1//EN"
 "http://www.w3.org/Graphics/SVG/1.1/DTD/svg11.dtd">
<!-- Generated by graphviz version 8.0.4 (20230421.1958)
 -->
<!-- Title: line_segments&#45;zoomed Pages: 1 -->
<svg width="636pt" height="622pt"
 viewBox="0.00 0.00 636.00 621.50" xmlns="http://www.w3.org/2000/svg" xmlns:xlink="http://www.w3.org/1999/xlink">
<g id="graph0" class="graph" transform="scale(1 1) rotate(0) translate(4 617.5)">
<title>line_segments&#45;zoomed</title>
<polygon fill="white" stroke="none" points="-4,4 -4,-617.5 632,-617.5 632,4 -4,4"/>
<g id="clust2" class="cluster">
<title>cluster_NASALib/line_segments</title>
<polygon fill="none" stroke="black" points="8,-92.5 8,-605.5 432,-605.5 432,-92.5 8,-92.5"/>
<text text-anchor="middle" x="220" y="-588.2" font-family="Times,serif" font-size="14.00">NASALib/line_segments</text>
</g>
<g id="clust1" class="cluster">
<title>cluster_NASALib</title>
<polygon fill="none" stroke="black" points="324,-8 324,-84.5 554,-84.5 554,-8 324,-8"/>
<text text-anchor="middle" x="439" y="-67.2" font-family="Times,serif" font-size="14.00">NASALib</text>
</g>
<g id="clust3" class="cluster">
<title>cluster_PVS Prelude</title>
<polygon fill="none" stroke="black" points="532,-380.5 532,-457 620,-457 620,-380.5 532,-380.5"/>
<text text-anchor="middle" x="576" y="-439.7" font-family="Times,serif" font-size="14.00">PVS Prelude</text>
</g>
<!-- NASALib/line_segments@backward_induction -->
<g id="node1" class="node">
<title>NASALib/line_segments@backward_induction</title>
<ellipse fill="#e6f3ff" stroke="black" cx="338" cy="-555" rx="86.15" ry="18"/>
<text text-anchor="middle" x="338" y="-549.95" font-family="Times,serif" font-size="14.00">backward_induction</text>
</g>
<!-- NASALib/line_segments@between_rays -->
<g id="node2" class="node">
<title>NASALib/line_segments@between_rays</title>
<ellipse fill="#e6f3ff" stroke="black" cx="362" cy="-483" rx="61.59" ry="18"/>
<text text-anchor="middle" x="362" y="-477.95" font-family="Times,serif" font-size="14.00">between_rays</text>
</g>
<!-- NASALib/line_segments@segments_2d_props -->
<g id="node8" class="node">
<title>NASALib/line_segments@segments_2d_props</title>
<ellipse fill="#e6f3ff" stroke="black" cx="311" cy="-334.5" rx="84.62" ry="18"/>
<text text-anchor="middle" x="311" y="-329.45" font-family="Times,serif" font-size="14.00">segments_2d_props</text>
</g>
<!-- NASALib/line_segments@between_rays&#45;&gt;NASALib/line_segments@segments_2d_props -->
<g id="edge1" class="edge">
<title>NASALib/line_segments@between_rays&#45;&gt;NASALib/line_segments@segments_2d_props</title>
<path fill="none" stroke="black" d="M384.36,-466.03C391.22,-461.13 397,-457 397,-457 397,-457 397,-380.5 397,-380.5 397,-380.5 373.48,-368.19 351.04,-356.45"/>
<polygon fill="black" stroke="black" points="353.05,-353.03 342.56,-351.49 349.8,-359.23 353.05,-353.03"/>
</g>
<!-- NASALib/structures -->
<g id="node14" class="node">
<title>NASALib/structures</title>
<polygon fill="#fcfcd7" stroke="black" points="546.25,-52 477.75,-52 477.75,-16 546.25,-16 546.25,-52"/>
<text text-anchor="middle" x="512" y="-28.95" font-family="Times,serif" font-size="14.00">structures</text>
</g>
<!-- NASALib/line_segments@between_rays&#45;&gt;NASALib/structures -->
<g id="edge2" class="edge">
<title>NASALib/line_segments@between_rays&#45;&gt;NASALib/structures</title>
<path fill="none" stroke="black" d="M512,-117.5C512,-117.5 512,-87.1 512,-63.21"/>
<polygon fill="black" stroke="black" points="515.5,-63.5 512,-53.5 508.5,-63.5 515.5,-63.5"/>
</g>
<!-- NASALib/vectors -->
<g id="node15" class="node">
<title>NASALib/vectors</title>
<polygon fill="#fcfcd7" stroke="black" points="387.5,-52 332.5,-52 332.5,-16 387.5,-16 387.5,-52"/>
<text text-anchor="middle" x="360" y="-28.95" font-family="Times,serif" font-size="14.00">vectors</text>
</g>
<!-- NASALib/line_segments@between_rays&#45;&gt;NASALib/vectors -->
<g id="edge3" class="edge">
<title>NASALib/line_segments@between_rays&#45;&gt;NASALib/vectors</title>
<path fill="none" stroke="black" d="M404.97,-469.79C427.31,-463.45 450,-457 450,-457 450,-457 512,-335.5 512,-335.5 512,-335.5 512,-335.5 512,-261.5 512,-261.5 512,-119.5 512,-119.5"/>
<path fill="none" stroke="black" d="M512,-117.5C512,-117.5 397,-84.5 397,-84.5 397,-84.5 388.33,-72.9 379.38,-60.93"/>
<polygon fill="black" stroke="black" points="381.73,-59.23 372.94,-53.31 376.12,-63.42 381.73,-59.23"/>
</g>
<!-- NASALib/line_segments@miter_point_sequences -->
<g id="node3" class="node">
<title>NASALib/line_segments@miter_point_sequences</title>
<ellipse fill="#e6f3ff" stroke="black" cx="137" cy="-555" rx="96.39" ry="18"/>
<text text-anchor="middle" x="137" y="-549.95" font-family="Times,serif" font-size="14.00">miter_point_sequences</text>
</g>
<!-- NASALib/line_segments@miter_point_sequences&#45;&gt;NASALib/line_segments@between_rays -->
<g id="edge4" class="edge">
<title>NASALib/line_segments@miter_point_sequences&#45;&gt;NASALib/line_segments@between_rays</title>
<path fill="none" stroke="black" d="M185.27,-538.98C222.21,-527.49 273.05,-511.67 310.72,-499.95"/>
<polygon fill="black" stroke="black" points="311.47,-503.08 319.98,-496.76 309.39,-496.39 311.47,-503.08"/>
</g>
<!-- NASALib/line_segments@segment_endpoint_sequences -->
<g id="node6" class="node">
<title>NASALib/line_segments@segment_endpoint_sequences</title>
<ellipse fill="#e6f3ff" stroke="black" cx="137" cy="-483" rx="120.96" ry="18"/>
<text text-anchor="middle" x="137" y="-477.95" font-family="Times,serif" font-size="14.00">segment_endpoint_sequences</text>
</g>
<!-- NASALib/line_segments@miter_point_sequences&#45;&gt;NASALib/line_segments@segment_endpoint_sequences -->
<g id="edge5" class="edge">
<title>NASALib/line_segments@miter_point_sequences&#45;&gt;NASALib/line_segments@segment_endpoint_sequences</title>
<path fill="none" stroke="black" d="M137,-536.7C137,-529.24 137,-520.32 137,-511.97"/>
<polygon fill="black" stroke="black" points="140.5,-512.1 137,-502.1 133.5,-512.1 140.5,-512.1"/>
</g>
<!-- NASALib/line_segments@nearest_segment_points -->
<g id="node4" class="node">
<title>NASALib/line_segments@nearest_segment_points</title>
<ellipse fill="#e6f3ff" stroke="black" cx="116" cy="-406.5" rx="99.97" ry="18"/>
<text text-anchor="middle" x="116" y="-401.45" font-family="Times,serif" font-size="14.00">nearest_segment_points</text>
</g>
<!-- NASALib/line_segments@perp_crossings -->
<g id="node5" class="node">
<title>NASALib/line_segments@perp_crossings</title>
<ellipse fill="#e6f3ff" stroke="black" cx="129" cy="-334.5" rx="66.19" ry="18"/>
<text text-anchor="middle" x="129" y="-329.45" font-family="Times,serif" font-size="14.00">perp_crossings</text>
</g>
<!-- NASALib/line_segments@nearest_segment_points&#45;&gt;NASALib/line_segments@perp_crossings -->
<g id="edge6" class="edge">
<title>NASALib/line_segments@nearest_segment_points&#45;&gt;NASALib/line_segments@perp_crossings</title>
<path fill="none" stroke="black" d="M119.21,-388.2C120.61,-380.65 122.29,-371.62 123.86,-363.18"/>
<polygon fill="black" stroke="black" points="127.44,-364.08 125.82,-353.6 120.56,-362.8 127.44,-364.08"/>
</g>
<!-- NASALib/line_segments@segments_2d -->
<g id="node7" class="node">
<title>NASALib/line_segments@segments_2d</title>
<ellipse fill="#e6f3ff" stroke="black" cx="311" cy="-262.5" rx="59.54" ry="18"/>
<text text-anchor="middle" x="311" y="-257.45" font-family="Times,serif" font-size="14.00">segments_2d</text>
</g>
<!-- NASALib/line_segments@perp_crossings&#45;&gt;NASALib/line_segments@segments_2d -->
<g id="edge7" class="edge">
<title>NASALib/line_segments@perp_crossings&#45;&gt;NASALib/line_segments@segments_2d</title>
<path fill="none" stroke="black" d="M166.27,-319.17C194.95,-308.13 234.74,-292.83 265.33,-281.06"/>
<polygon fill="black" stroke="black" points="266.25,-284.08 274.33,-277.22 263.74,-277.54 266.25,-284.08"/>
</g>
<!-- NASALib/line_segments@segment_endpoint_sequences&#45;&gt;NASALib/line_segments@nearest_segment_points -->
<g id="edge8" class="edge">
<title>NASALib/line_segments@segment_endpoint_sequences&#45;&gt;NASALib/line_segments@nearest_segment_points</title>
<path fill="none" stroke="black" d="M132.13,-464.72C129.68,-456.04 126.66,-445.3 123.89,-435.48"/>
<polygon fill="black" stroke="black" points="127,-434.62 120.92,-425.94 120.26,-436.52 127,-434.62"/>
</g>
<!-- NASALib/line_segments@segments_2d_trig -->
<g id="node9" class="node">
<title>NASALib/line_segments@segments_2d_trig</title>
<ellipse fill="#e6f3ff" stroke="black" cx="311" cy="-406.5" rx="76.94" ry="18"/>
<text text-anchor="middle" x="311" y="-401.45" font-family="Times,serif" font-size="14.00">segments_2d_trig</text>
</g>
<!-- NASALib/line_segments@segment_endpoint_sequences&#45;&gt;NASALib/line_segments@segments_2d_trig -->
<g id="edge9" class="edge">
<title>NASALib/line_segments@segment_endpoint_sequences&#45;&gt;NASALib/line_segments@segments_2d_trig</title>
<path fill="none" stroke="black" d="M191.48,-466.52C209.48,-461.41 225,-457 225,-457 225,-457 250.31,-442.43 273.46,-429.11"/>
<polygon fill="black" stroke="black" points="274.92,-431.73 281.84,-423.71 271.43,-425.66 274.92,-431.73"/>
</g>
<!-- NASALib/orders -->
<g id="node13" class="node">
<title>NASALib/orders</title>
<polygon fill="#fcfcd7" stroke="black" points="460,-52 406,-52 406,-16 460,-16 460,-52"/>
<text text-anchor="middle" x="433" y="-28.95" font-family="Times,serif" font-size="14.00">orders</text>
</g>
<!-- NASALib/line_segments@segment_endpoint_sequences&#45;&gt;NASALib/orders -->
<g id="edge10" class="edge">
<title>NASALib/line_segments@segment_endpoint_sequences&#45;&gt;NASALib/orders</title>
<path fill="none" stroke="black" d="M231.9,-471.52C263.59,-468.03 291,-465 291,-465 291,-465 397,-457 397,-457 397,-457 436,-335.5 436,-335.5 436,-335.5 436,-335.5 436,-189.5 436,-189.5 434.42,-108.04 433.55,-63.42"/>
<polygon fill="black" stroke="black" points="437.03,-63.35 433.34,-53.42 430.03,-63.49 437.03,-63.35"/>
</g>
<!-- lib/finite_sets -->
<g id="node16" class="node">
<title>lib/finite_sets</title>
<polygon fill="#fcfcd7" stroke="black" points="611.75,-424.5 540.25,-424.5 540.25,-388.5 611.75,-388.5 611.75,-424.5"/>
<text text-anchor="middle" x="576" y="-401.45" font-family="Times,serif" font-size="14.00">finite_sets</text>
</g>
<!-- NASALib/line_segments@segment_endpoint_sequences&#45;&gt;lib/finite_sets -->
<g id="edge11" class="edge">
<title>NASALib/line_segments@segment_endpoint_sequences&#45;&gt;lib/finite_sets</title>
<path fill="none" stroke="black" d="M231.9,-471.52C263.59,-468.03 291,-465 291,-465 291,-465 450,-457 450,-457 450,-457 494,-439.71 530,-425.57"/>
<polygon fill="black" stroke="black" points="530.87,-428.6 538.89,-421.68 528.31,-422.08 530.87,-428.6"/>
</g>
<!-- NASALib/line_segments@vectors_2d_trig -->
<g id="node10" class="node">
<title>NASALib/line_segments@vectors_2d_trig</title>
<ellipse fill="#e6f3ff" stroke="black" cx="174" cy="-190.5" rx="68.75" ry="18"/>
<text text-anchor="middle" x="174" y="-185.45" font-family="Times,serif" font-size="14.00">vectors_2d_trig</text>
</g>
<!-- NASALib/line_segments@segments_2d&#45;&gt;NASALib/line_segments@vectors_2d_trig -->
<g id="edge12" class="edge">
<title>NASALib/line_segments@segments_2d&#45;&gt;NASALib/line_segments@vectors_2d_trig</title>
<path fill="none" stroke="black" d="M281.61,-246.48C261.84,-236.38 235.53,-222.94 213.87,-211.87"/>
<polygon fill="black" stroke="black" points="215.79,-208.41 205.29,-206.98 212.6,-214.64 215.79,-208.41"/>
</g>
<!-- NASALib/line_segments@vertex_list -->
<g id="node12" class="node">
<title>NASALib/line_segments@vertex_list</title>
<ellipse fill="#e6f3ff" stroke="black" cx="311" cy="-190.5" rx="49.82" ry="18"/>
<text text-anchor="middle" x="311" y="-185.45" font-family="Times,serif" font-size="14.00">vertex_list</text>
</g>
<!-- NASALib/line_segments@segments_2d&#45;&gt;NASALib/line_segments@vertex_list -->
<g id="edge13" class="edge">
<title>NASALib/line_segments@segments_2d&#45;&gt;NASALib/line_segments@vertex_list</title>
<path fill="none" stroke="black" d="M311,-244.2C311,-236.74 311,-227.82 311,-219.47"/>
<polygon fill="black" stroke="black" points="314.5,-219.6 311,-209.6 307.5,-219.6 314.5,-219.6"/>
</g>
<!-- NASALib/line_segments@segments_2d&#45;&gt;NASALib/structures -->
<g id="edge14" class="edge">
<title>NASALib/line_segments@segments_2d&#45;&gt;NASALib/structures</title>
<path fill="none" stroke="black" d="M332.9,-245.6C354.41,-229.99 384,-208.5 384,-208.5 384,-208.5 457.15,-109.35 492.85,-60.95"/>
<polygon fill="black" stroke="black" points="496.14,-63.4 499.26,-53.27 490.51,-59.24 496.14,-63.4"/>
</g>
<!-- NASALib/line_segments@segments_2d&#45;&gt;NASALib/vectors -->
<g id="edge15" class="edge">
<title>NASALib/line_segments@segments_2d&#45;&gt;NASALib/vectors</title>
<path fill="none" stroke="black" d="M329.34,-245.02C346.66,-229.46 370,-208.5 370,-208.5 370,-208.5 370,-92.5 370,-92.5 370,-92.5 367.37,-77.41 364.81,-62.68"/>
<polygon fill="black" stroke="black" points="368.16,-62.5 363,-53.25 361.27,-63.7 368.16,-62.5"/>
</g>
<!-- NASALib/line_segments@segments_2d_props&#45;&gt;NASALib/line_segments@segments_2d -->
<g id="edge16" class="edge">
<title>NASALib/line_segments@segments_2d_props&#45;&gt;NASALib/line_segments@segments_2d</title>
<path fill="none" stroke="black" d="M311,-316.2C311,-308.74 311,-299.82 311,-291.47"/>
<polygon fill="black" stroke="black" points="314.5,-291.6 311,-281.6 307.5,-291.6 314.5,-291.6"/>
</g>
<!-- NASALib/line_segments@segments_2d_trig&#45;&gt;NASALib/line_segments@segments_2d_props -->
<g id="edge17" class="edge">
<title>NASALib/line_segments@segments_2d_trig&#45;&gt;NASALib/line_segments@segments_2d_props</title>
<path fill="none" stroke="black" d="M311,-388.2C311,-380.74 311,-371.82 311,-363.47"/>
<polygon fill="black" stroke="black" points="314.5,-363.6 311,-353.6 307.5,-363.6 314.5,-363.6"/>
</g>
<!-- NASALib/line_segments@vectors_cross_2d -->
<g id="node11" class="node">
<title>NASALib/line_segments@vectors_cross_2d</title>
<ellipse fill="#e6f3ff" stroke="black" cx="286" cy="-118.5" rx="74.89" ry="18"/>
<text text-anchor="middle" x="286" y="-113.45" font-family="Times,serif" font-size="14.00">vectors_cross_2d</text>
</g>
<!-- NASALib/line_segments@vectors_2d_trig&#45;&gt;NASALib/line_segments@vectors_cross_2d -->
<g id="edge18" class="edge">
<title>NASALib/line_segments@vectors_2d_trig&#45;&gt;NASALib/line_segments@vectors_cross_2d</title>
<path fill="none" stroke="black" d="M199.7,-173.44C214.95,-163.9 234.51,-151.68 251.14,-141.29"/>
<polygon fill="black" stroke="black" points="252.41,-144 259.04,-135.73 248.7,-138.06 252.41,-144"/>
</g>
<!-- NASALib/line_segments@vectors_cross_2d&#45;&gt;NASALib/vectors -->
<g id="edge19" class="edge">
<title>NASALib/line_segments@vectors_cross_2d&#45;&gt;NASALib/vectors</title>
<path fill="none" stroke="black" d="M301.33,-100.41C311.68,-88.87 325.52,-73.44 337.16,-60.46"/>
<polygon fill="black" stroke="black" points="339.36,-63.14 343.43,-53.36 334.15,-58.46 339.36,-63.14"/>
</g>
<!-- NASALib/line_segments@vertex_list&#45;&gt;NASALib/line_segments@vectors_cross_2d -->
<g id="edge20" class="edge">
<title>NASALib/line_segments@vertex_list&#45;&gt;NASALib/line_segments@vectors_cross_2d</title>
<path fill="none" stroke="black" d="M304.82,-172.2C302.1,-164.57 298.83,-155.42 295.78,-146.9"/>
<polygon fill="black" stroke="black" points="298.77,-145.84 292.11,-137.6 292.18,-148.2 298.77,-145.84"/>
</g>
</g>
</svg>
