<?xml version="1.0" encoding="UTF-8" standalone="no"?>
<!DOCTYPE svg PUBLIC "-//W3C//DTD SVG 1.1//EN"
 "http://www.w3.org/Graphics/SVG/1.1/DTD/svg11.dtd">
<!-- Generated by graphviz version 8.1.0 (20230707.0739)
 -->
<!-- Title: fault_tolerance Pages: 1 -->
<svg width="171pt" height="401pt"
 viewBox="0.00 0.00 171.00 401.00" xmlns="http://www.w3.org/2000/svg" xmlns:xlink="http://www.w3.org/1999/xlink">
<g id="graph0" class="graph" transform="scale(1 1) rotate(0) translate(4 397)">
<title>fault_tolerance</title>
<polygon fill="white" stroke="none" points="-4,4 -4,-397 167,-397 167,4 -4,4"/>
<g id="clust1" class="cluster">
<title>cluster_NASALib</title>
<polygon fill="none" stroke="black" points="8,-92.5 8,-385 122,-385 122,-92.5 8,-92.5"/>
<text text-anchor="middle" x="65" y="-367.7" font-family="Times,serif" font-size="14.00">NASALib</text>
</g>
<g id="clust2" class="cluster">
<title>cluster_PVS Prelude</title>
<polygon fill="none" stroke="black" points="67,-8 67,-84.5 155,-84.5 155,-8 67,-8"/>
<text text-anchor="middle" x="111" y="-67.2" font-family="Times,serif" font-size="14.00">PVS Prelude</text>
</g>
<!-- lib/finite_sets -->
<g id="node1" class="node">
<title>lib/finite_sets</title>
<polygon fill="#fcfcd7" stroke="black" points="146.75,-52 75.25,-52 75.25,-16 146.75,-16 146.75,-52"/>
<text text-anchor="middle" x="111" y="-28.95" font-family="Times,serif" font-size="14.00">finite_sets</text>
</g>
<!-- nasalib/fault_tolerance -->
<g id="node2" class="node">
<title>nasalib/fault_tolerance</title>
<polygon fill="#f7e28d" stroke="black" points="113.5,-352.5 16.5,-352.5 16.5,-316.5 113.5,-316.5 113.5,-352.5"/>
<text text-anchor="middle" x="65" y="-329.45" font-family="Times,serif" font-size="14.00">fault_tolerance</text>
</g>
<!-- nasalib/fault_tolerance&#45;&gt;lib/finite_sets -->
<g id="edge1" class="edge">
<title>nasalib/fault_tolerance&#45;&gt;lib/finite_sets</title>
<path fill="none" stroke="black" d="M89,-261.5C89,-261.5 126,-208.5 126,-208.5 126,-208.5 142,-119.5 142,-119.5"/>
</g>
<!-- nasalib/reals -->
<g id="node4" class="node">
<title>nasalib/reals</title>
<polygon fill="#fcfcd7" stroke="black" points="70,-280.5 16,-280.5 16,-244.5 70,-244.5 70,-280.5"/>
<text text-anchor="middle" x="43" y="-257.45" font-family="Times,serif" font-size="14.00">reals</text>
</g>
<!-- nasalib/fault_tolerance&#45;&gt;nasalib/reals -->
<g id="edge2" class="edge">
<title>nasalib/fault_tolerance&#45;&gt;nasalib/reals</title>
<path fill="none" stroke="black" d="M59.56,-316.2C57.16,-308.57 54.29,-299.42 51.61,-290.9"/>
<polygon fill="black" stroke="black" points="54.71,-290.09 48.38,-281.6 48.03,-292.19 54.71,-290.09"/>
</g>
<!-- nasalib/structures -->
<g id="node5" class="node">
<title>nasalib/structures</title>
<polygon fill="#fcfcd7" stroke="black" points="114.25,-208.5 45.75,-208.5 45.75,-172.5 114.25,-172.5 114.25,-208.5"/>
<text text-anchor="middle" x="80" y="-185.45" font-family="Times,serif" font-size="14.00">structures</text>
</g>
<!-- nasalib/fault_tolerance&#45;&gt;nasalib/structures -->
<g id="edge3" class="edge">
<title>nasalib/fault_tolerance&#45;&gt;nasalib/structures</title>
<path fill="none" stroke="black" d="M70.93,-316.2C78.04,-295.47 89,-263.5 89,-263.5"/>
<path fill="none" stroke="black" d="M89,-261.5C89,-261.5 86.1,-238.95 83.59,-219.45"/>
<polygon fill="black" stroke="black" points="86.97,-219.28 82.22,-209.8 80.03,-220.17 86.97,-219.28"/>
</g>
<!-- nasalib/ints -->
<g id="node3" class="node">
<title>nasalib/ints</title>
<polygon fill="#fcfcd7" stroke="black" points="107,-136.5 53,-136.5 53,-100.5 107,-100.5 107,-136.5"/>
<text text-anchor="middle" x="80" y="-113.45" font-family="Times,serif" font-size="14.00">ints</text>
</g>
<!-- nasalib/ints&#45;&gt;lib/finite_sets -->
<g id="edge4" class="edge">
<title>nasalib/ints&#45;&gt;lib/finite_sets</title>
<path fill="none" stroke="black" d="M86.57,-100C90.64,-89.18 95.96,-75.03 100.59,-62.71"/>
<polygon fill="black" stroke="black" points="104.19,-64.06 104.44,-53.47 97.64,-61.6 104.19,-64.06"/>
</g>
<!-- nasalib/reals&#45;&gt;nasalib/ints -->
<g id="edge5" class="edge">
<title>nasalib/reals&#45;&gt;nasalib/ints</title>
<path fill="none" stroke="black" d="M41.04,-244.15C39.29,-228.69 37,-208.5 37,-208.5 37,-208.5 37,-172.5 37,-172.5 37,-172.5 48.23,-158.65 59.22,-145.12"/>
<polygon fill="black" stroke="black" points="62.34,-147.82 65.92,-137.85 56.9,-143.41 62.34,-147.82"/>
</g>
<!-- nasalib/reals&#45;&gt;nasalib/structures -->
<g id="edge6" class="edge">
<title>nasalib/reals&#45;&gt;nasalib/structures</title>
<path fill="none" stroke="black" d="M52.15,-244.2C56.27,-236.4 61.23,-227.01 65.82,-218.33"/>
<polygon fill="black" stroke="black" points="69.38,-220.08 70.96,-209.6 63.19,-216.81 69.38,-220.08"/>
</g>
<!-- nasalib/structures&#45;&gt;lib/finite_sets -->
<g id="edge7" class="edge">
<title>nasalib/structures&#45;&gt;lib/finite_sets</title>
<path fill="none" stroke="black" d="M142,-117.5C142,-117.5 130.37,-86.55 121.36,-62.56"/>
<polygon fill="black" stroke="black" points="124.37,-61.63 117.57,-53.5 117.82,-64.09 124.37,-61.63"/>
<path fill="none" stroke="black" d="M95.33,-172.2C113.69,-151.47 142,-119.5 142,-119.5"/>
</g>
<!-- nasalib/structures&#45;&gt;nasalib/ints -->
<g id="edge8" class="edge">
<title>nasalib/structures&#45;&gt;nasalib/ints</title>
<path fill="none" stroke="black" d="M80,-172.2C80,-164.74 80,-155.82 80,-147.47"/>
<polygon fill="black" stroke="black" points="83.5,-147.6 80,-137.6 76.5,-147.6 83.5,-147.6"/>
</g>
</g>
</svg>
