<?xml version="1.0" encoding="UTF-8" standalone="no"?>
<!DOCTYPE svg PUBLIC "-//W3C//DTD SVG 1.1//EN"
 "http://www.w3.org/Graphics/SVG/1.1/DTD/svg11.dtd">
<!-- Generated by graphviz version 7.0.6 (20230106.0513)
 -->
<!-- Title: fault_tolerance Pages: 1 -->
<svg width="824pt" height="822pt"
 viewBox="0.00 0.00 824.00 822.00" xmlns="http://www.w3.org/2000/svg" xmlns:xlink="http://www.w3.org/1999/xlink">
<g id="graph0" class="graph" transform="scale(1 1) rotate(0) translate(4 818)">
<title>fault_tolerance</title>
<polygon fill="white" stroke="none" points="-4,4 -4,-818 820,-818 820,4 -4,4"/>
<g id="clust1" class="cluster">
<title>cluster_NASALib</title>
<polygon fill="none" stroke="black" points="8,-8 8,-806 712,-806 712,-8 8,-8"/>
<text text-anchor="middle" x="360" y="-790.8" font-family="Times,serif" font-size="14.00">NASALib</text>
</g>
<g id="clust2" class="cluster">
<title>cluster_PVS Prelude</title>
<polygon fill="none" stroke="black" points="720,-8 720,-83 808,-83 808,-8 720,-8"/>
<text text-anchor="middle" x="764" y="-67.8" font-family="Times,serif" font-size="14.00">PVS Prelude</text>
</g>
<!-- NASALib/analysis -->
<g id="node1" class="node">
<title>NASALib/analysis</title>
<polygon fill="#fcfcd7" stroke="black" points="341,-775 281,-775 281,-739 341,-739 341,-775"/>
<text text-anchor="middle" x="311" y="-753.3" font-family="Times,serif" font-size="14.00">analysis</text>
</g>
<!-- NASALib/ints -->
<g id="node4" class="node">
<title>NASALib/ints</title>
<polygon fill="#fcfcd7" stroke="black" points="480,-52 426,-52 426,-16 480,-16 480,-52"/>
<text text-anchor="middle" x="453" y="-30.3" font-family="Times,serif" font-size="14.00">ints</text>
</g>
<!-- NASALib/analysis&#45;&gt;NASALib/ints -->
<g id="edge1" class="edge">
<title>NASALib/analysis&#45;&gt;NASALib/ints</title>
<path fill="none" stroke="black" d="M103,-180C103,-180 182,-110 182,-110"/>
<path fill="none" stroke="black" d="M182,-108C182,-108 339.99,-65.44 414.71,-45.31"/>
<polygon fill="black" stroke="black" points="415.32,-48.78 424.06,-42.8 413.5,-42.02 415.32,-48.78"/>
<path fill="none" stroke="black" d="M280.66,-742.77C275.62,-740.58 272,-739 272,-739 272,-739 132,-703 132,-703 132,-703 17,-470 17,-470 17,-470 17,-470 17,-396 17,-396 51,-307 51,-307 51,-307 103,-182 103,-182"/>
</g>
<!-- NASALib/orders -->
<g id="node9" class="node">
<title>NASALib/orders</title>
<polygon fill="#fcfcd7" stroke="black" points="580,-199 526,-199 526,-163 580,-163 580,-199"/>
<text text-anchor="middle" x="553" y="-177.3" font-family="Times,serif" font-size="14.00">orders</text>
</g>
<!-- NASALib/analysis&#45;&gt;NASALib/orders -->
<g id="edge2" class="edge">
<title>NASALib/analysis&#45;&gt;NASALib/orders</title>
<path fill="none" stroke="black" d="M341.43,-744.98C433.54,-711.61 703,-614 703,-614 703,-614 703,-614 703,-396 703,-396 703,-254 703,-254"/>
<path fill="none" stroke="black" d="M703,-252C703,-252 634.77,-220.16 590.34,-199.43"/>
<polygon fill="black" stroke="black" points="592.08,-196.37 581.54,-195.32 589.12,-202.72 592.08,-196.37"/>
</g>
<!-- NASALib/reals -->
<g id="node11" class="node">
<title>NASALib/reals</title>
<polygon fill="#fcfcd7" stroke="black" points="338,-703 284,-703 284,-667 338,-667 338,-703"/>
<text text-anchor="middle" x="311" y="-681.3" font-family="Times,serif" font-size="14.00">reals</text>
</g>
<!-- NASALib/analysis&#45;&gt;NASALib/reals -->
<g id="edge3" class="edge">
<title>NASALib/analysis&#45;&gt;NASALib/reals</title>
<path fill="none" stroke="black" d="M311,-738.7C311,-731.41 311,-722.73 311,-714.54"/>
<polygon fill="black" stroke="black" points="314.5,-714.62 311,-704.62 307.5,-714.62 314.5,-714.62"/>
</g>
<!-- NASALib/structures -->
<g id="node15" class="node">
<title>NASALib/structures</title>
<polygon fill="#fcfcd7" stroke="black" points="487.5,-127 418.5,-127 418.5,-91 487.5,-91 487.5,-127"/>
<text text-anchor="middle" x="453" y="-105.3" font-family="Times,serif" font-size="14.00">structures</text>
</g>
<!-- NASALib/analysis&#45;&gt;NASALib/structures -->
<g id="edge4" class="edge">
<title>NASALib/analysis&#45;&gt;NASALib/structures</title>
<path fill="none" stroke="black" d="M703,-252C703,-252 589,-163 589,-163 589,-163 537.79,-143.04 498.21,-127.62"/>
<polygon fill="black" stroke="black" points="499.67,-124.43 489.08,-124.06 497.13,-130.95 499.67,-124.43"/>
</g>
<!-- lib/finite_sets -->
<g id="node19" class="node">
<title>lib/finite_sets</title>
<polygon fill="#fcfcd7" stroke="black" points="800,-52 728,-52 728,-16 800,-16 800,-52"/>
<text text-anchor="middle" x="764" y="-30.3" font-family="Times,serif" font-size="14.00">finite_sets</text>
</g>
<!-- NASALib/analysis&#45;&gt;lib/finite_sets -->
<g id="edge5" class="edge">
<title>NASALib/analysis&#45;&gt;lib/finite_sets</title>
<path fill="none" stroke="black" d="M341.28,-750.97C437.81,-734.92 732,-686 732,-686"/>
</g>
<!-- NASALib/extended_nnreal -->
<g id="node2" class="node">
<title>NASALib/extended_nnreal</title>
<polygon fill="#fcfcd7" stroke="black" points="584,-487 478,-487 478,-451 584,-451 584,-487"/>
<text text-anchor="middle" x="531" y="-465.3" font-family="Times,serif" font-size="14.00">extended_nnreal</text>
</g>
<!-- NASALib/extended_nnreal&#45;&gt;NASALib/analysis -->
<g id="edge6" class="edge">
<title>NASALib/extended_nnreal&#45;&gt;NASALib/analysis</title>
<path fill="none" stroke="black" d="M623,-614C623,-614 588,-631 588,-631 588,-631 357,-684 357,-684"/>
<path fill="none" stroke="black" d="M542.28,-487.41C561.86,-517.63 601.49,-578.8 616.78,-602.41"/>
<polygon fill="black" stroke="black" points="613.8,-604.24 622.18,-610.73 619.68,-600.43 613.8,-604.24"/>
</g>
<!-- NASALib/extended_nnreal&#45;&gt;NASALib/reals -->
<g id="edge7" class="edge">
<title>NASALib/extended_nnreal&#45;&gt;NASALib/reals</title>
<path fill="none" stroke="black" d="M537.38,-487.41C548.28,-517.18 570.19,-577.01 579.1,-601.34"/>
<polygon fill="black" stroke="black" points="575.75,-602.39 582.48,-610.58 582.33,-599.99 575.75,-602.39"/>
<path fill="none" stroke="black" d="M583,-614C583,-614 352,-667 352,-667 352,-667 345.74,-669.59 338.12,-672.76"/>
</g>
<!-- NASALib/series -->
<g id="node12" class="node">
<title>NASALib/series</title>
<polygon fill="#fcfcd7" stroke="black" points="288,-271 234,-271 234,-235 288,-235 288,-271"/>
<text text-anchor="middle" x="261" y="-249.3" font-family="Times,serif" font-size="14.00">series</text>
</g>
<!-- NASALib/extended_nnreal&#45;&gt;NASALib/series -->
<g id="edge8" class="edge">
<title>NASALib/extended_nnreal&#45;&gt;NASALib/series</title>
<path fill="none" stroke="black" d="M433,-324C433,-324 349.46,-290 298.82,-269.39"/>
<polygon fill="black" stroke="black" points="300.24,-266.19 289.66,-265.66 297.6,-272.67 300.24,-266.19"/>
<path fill="none" stroke="black" d="M520.59,-450.84C504.9,-424.98 477,-379 477,-379 477,-379 433,-326 433,-326"/>
</g>
<!-- NASALib/sigma_set -->
<g id="node14" class="node">
<title>NASALib/sigma_set</title>
<polygon fill="#fcfcd7" stroke="black" points="617.5,-415 546.5,-415 546.5,-379 617.5,-379 617.5,-415"/>
<text text-anchor="middle" x="582" y="-393.3" font-family="Times,serif" font-size="14.00">sigma_set</text>
</g>
<!-- NASALib/extended_nnreal&#45;&gt;NASALib/sigma_set -->
<g id="edge9" class="edge">
<title>NASALib/extended_nnreal&#45;&gt;NASALib/sigma_set</title>
<path fill="none" stroke="black" d="M543.61,-450.7C549.41,-442.73 556.43,-433.1 562.86,-424.26"/>
<polygon fill="black" stroke="black" points="565.59,-426.47 568.65,-416.33 559.93,-422.35 565.59,-426.47"/>
</g>
<!-- NASALib/fault_tolerance -->
<g id="node3" class="node">
<title>NASALib/fault_tolerance</title>
<polygon fill="#f7e28d" stroke="black" points="263,-775 165,-775 165,-739 263,-739 263,-775"/>
<text text-anchor="middle" x="214" y="-753.3" font-family="Times,serif" font-size="14.00">fault_tolerance</text>
</g>
<!-- NASALib/fault_tolerance&#45;&gt;NASALib/reals -->
<g id="edge10" class="edge">
<title>NASALib/fault_tolerance&#45;&gt;NASALib/reals</title>
<path fill="none" stroke="black" d="M237.98,-738.7C249.99,-730.03 264.72,-719.4 277.79,-709.96"/>
<polygon fill="black" stroke="black" points="279.67,-712.92 285.73,-704.23 275.58,-707.25 279.67,-712.92"/>
</g>
<!-- NASALib/fault_tolerance&#45;&gt;NASALib/structures -->
<g id="edge11" class="edge">
<title>NASALib/fault_tolerance&#45;&gt;NASALib/structures</title>
<path fill="none" stroke="black" d="M187.15,-738.65C163.24,-723.19 132,-703 132,-703 132,-703 37,-470 37,-470 37,-470 37,-470 37,-396 37,-396 67,-307 67,-307 67,-307 197,-163 197,-163 197,-163 333.25,-134.79 406.95,-119.53"/>
<polygon fill="black" stroke="black" points="407.64,-122.96 416.73,-117.51 406.22,-116.11 407.64,-122.96"/>
</g>
<!-- NASALib/fault_tolerance&#45;&gt;lib/finite_sets -->
<g id="edge12" class="edge">
<title>NASALib/fault_tolerance&#45;&gt;lib/finite_sets</title>
<path fill="none" stroke="black" d="M263.44,-741.51C268.6,-740 272,-739 272,-739 272,-739 732,-686 732,-686"/>
<path fill="none" stroke="black" d="M732,-684C732,-684 732,-470 732,-470"/>
</g>
<!-- NASALib/lebesgue -->
<g id="node5" class="node">
<title>NASALib/lebesgue</title>
<polygon fill="#fcfcd7" stroke="black" points="440,-631 376,-631 376,-595 440,-595 440,-631"/>
<text text-anchor="middle" x="408" y="-609.3" font-family="Times,serif" font-size="14.00">lebesgue</text>
</g>
<!-- NASALib/lebesgue&#45;&gt;NASALib/analysis -->
<g id="edge13" class="edge">
<title>NASALib/lebesgue&#45;&gt;NASALib/analysis</title>
<path fill="none" stroke="black" d="M395.39,-631.3C385.36,-645.07 371.72,-663.79 363.69,-674.82"/>
<polygon fill="black" stroke="black" points="360.95,-672.63 357.89,-682.78 366.61,-676.76 360.95,-672.63"/>
</g>
<!-- NASALib/lebesgue&#45;&gt;NASALib/extended_nnreal -->
<g id="edge14" class="edge">
<title>NASALib/lebesgue&#45;&gt;NASALib/extended_nnreal</title>
<path fill="none" stroke="black" d="M543,-540C543,-540 539.21,-517.87 535.88,-498.5"/>
<polygon fill="black" stroke="black" points="539.36,-498.06 534.22,-488.8 532.46,-499.24 539.36,-498.06"/>
</g>
<!-- NASALib/measure_integration -->
<g id="node7" class="node">
<title>NASALib/measure_integration</title>
<polygon fill="#fcfcd7" stroke="black" points="524,-559 396,-559 396,-523 524,-523 524,-559"/>
<text text-anchor="middle" x="460" y="-537.3" font-family="Times,serif" font-size="14.00">measure_integration</text>
</g>
<!-- NASALib/lebesgue&#45;&gt;NASALib/measure_integration -->
<g id="edge15" class="edge">
<title>NASALib/lebesgue&#45;&gt;NASALib/measure_integration</title>
<path fill="none" stroke="black" d="M420.85,-594.7C426.77,-586.73 433.93,-577.1 440.49,-568.26"/>
<polygon fill="black" stroke="black" points="443.24,-570.43 446.39,-560.32 437.62,-566.26 443.24,-570.43"/>
</g>
<!-- NASALib/metric_space -->
<g id="node8" class="node">
<title>NASALib/metric_space</title>
<polygon fill="#fcfcd7" stroke="black" points="359.5,-487 270.5,-487 270.5,-451 359.5,-451 359.5,-487"/>
<text text-anchor="middle" x="315" y="-465.3" font-family="Times,serif" font-size="14.00">metric_space</text>
</g>
<!-- NASALib/lebesgue&#45;&gt;NASALib/metric_space -->
<g id="edge16" class="edge">
<title>NASALib/lebesgue&#45;&gt;NASALib/metric_space</title>
<path fill="none" stroke="black" d="M377,-540C377,-540 362,-523 362,-523 362,-523 349.72,-509.15 337.72,-495.62"/>
<polygon fill="black" stroke="black" points="340.65,-493.65 331.39,-488.49 335.41,-498.29 340.65,-493.65"/>
<path fill="none" stroke="black" d="M400.34,-594.7C391.16,-573.97 377,-542 377,-542"/>
</g>
<!-- NASALib/power -->
<g id="node10" class="node">
<title>NASALib/power</title>
<polygon fill="#fcfcd7" stroke="black" points="304,-415 250,-415 250,-379 304,-379 304,-415"/>
<text text-anchor="middle" x="277" y="-393.3" font-family="Times,serif" font-size="14.00">power</text>
</g>
<!-- NASALib/lebesgue&#45;&gt;NASALib/power -->
<g id="edge17" class="edge">
<title>NASALib/lebesgue&#45;&gt;NASALib/power</title>
<path fill="none" stroke="black" d="M387.56,-594.62C347.17,-560.27 261,-487 261,-487 261,-487 261,-451 261,-451 261,-451 264.65,-438.92 268.46,-426.3"/>
<polygon fill="black" stroke="black" points="271.78,-427.39 271.32,-416.8 265.08,-425.36 271.78,-427.39"/>
</g>
<!-- NASALib/sets_aux -->
<g id="node13" class="node">
<title>NASALib/sets_aux</title>
<polygon fill="#fcfcd7" stroke="black" points="538.5,-343 475.5,-343 475.5,-307 538.5,-307 538.5,-343"/>
<text text-anchor="middle" x="507" y="-321.3" font-family="Times,serif" font-size="14.00">sets_aux</text>
</g>
<!-- NASALib/lebesgue&#45;&gt;NASALib/sets_aux -->
<g id="edge19" class="edge">
<title>NASALib/lebesgue&#45;&gt;NASALib/sets_aux</title>
<path fill="none" stroke="black" d="M440.47,-599.71C481.83,-584.05 548,-559 548,-559 548,-559 663,-398 663,-398"/>
<path fill="none" stroke="black" d="M663,-396C663,-396 627,-379 627,-379 627,-379 583.79,-359.92 549.23,-344.65"/>
<polygon fill="black" stroke="black" points="550.79,-341.51 540.23,-340.68 547.96,-347.92 550.79,-341.51"/>
</g>
<!-- NASALib/lebesgue&#45;&gt;NASALib/sigma_set -->
<g id="edge20" class="edge">
<title>NASALib/lebesgue&#45;&gt;NASALib/sigma_set</title>
<path fill="none" stroke="black" d="M543,-540C543,-540 593,-487 593,-487 593,-487 593,-451 593,-451 593,-451 590.49,-438.92 587.87,-426.3"/>
<polygon fill="black" stroke="black" points="591.37,-425.92 585.91,-416.84 584.51,-427.34 591.37,-425.92"/>
</g>
<!-- NASALib/lebesgue&#45;&gt;NASALib/structures -->
<g id="edge21" class="edge">
<title>NASALib/lebesgue&#45;&gt;NASALib/structures</title>
<path fill="none" stroke="black" d="M383,-324C383,-324 453,-254 453,-254"/>
<path fill="none" stroke="black" d="M453,-252C453,-252 453,-180.2 453,-138.71"/>
<polygon fill="black" stroke="black" points="456.5,-138.93 453,-128.93 449.5,-138.93 456.5,-138.93"/>
<path fill="none" stroke="black" d="M377,-540C377,-540 378,-379 378,-379 378,-379 383,-326 383,-326"/>
</g>
<!-- NASALib/topology -->
<g id="node16" class="node">
<title>NASALib/topology</title>
<polygon fill="#fcfcd7" stroke="black" points="467.5,-415 402.5,-415 402.5,-379 467.5,-379 467.5,-415"/>
<text text-anchor="middle" x="435" y="-393.3" font-family="Times,serif" font-size="14.00">topology</text>
</g>
<!-- NASALib/lebesgue&#45;&gt;NASALib/topology -->
<g id="edge22" class="edge">
<title>NASALib/lebesgue&#45;&gt;NASALib/topology</title>
<path fill="none" stroke="black" d="M440.19,-598.35C477.23,-582.65 533,-559 533,-559 533,-559 543,-542 543,-542"/>
<path fill="none" stroke="black" d="M543,-540C543,-540 533,-523 533,-523 533,-523 469,-487 469,-487 469,-487 455.55,-451.8 445.57,-425.67"/>
<polygon fill="black" stroke="black" points="448.93,-424.67 442.1,-416.57 442.39,-427.16 448.93,-424.67"/>
</g>
<!-- NASALib/lnexp -->
<g id="node6" class="node">
<title>NASALib/lnexp</title>
<polygon fill="#fcfcd7" stroke="black" points="222,-343 168,-343 168,-307 222,-307 222,-343"/>
<text text-anchor="middle" x="195" y="-321.3" font-family="Times,serif" font-size="14.00">lnexp</text>
</g>
<!-- NASALib/lnexp&#45;&gt;NASALib/analysis -->
<g id="edge23" class="edge">
<title>NASALib/lnexp&#45;&gt;NASALib/analysis</title>
<path fill="none" stroke="black" d="M177.97,-343.35C162.81,-358.81 143,-379 143,-379 143,-379 138.79,-492.03 137.42,-528.68"/>
<polygon fill="black" stroke="black" points="133.93,-528.36 137.06,-538.49 140.93,-528.62 133.93,-528.36"/>
<path fill="none" stroke="black" d="M137,-542C137,-542 137,-684 137,-684"/>
</g>
<!-- NASALib/lnexp&#45;&gt;NASALib/ints -->
<g id="edge24" class="edge">
<title>NASALib/lnexp&#45;&gt;NASALib/ints</title>
<path fill="none" stroke="black" d="M193.96,-306.85C190.87,-256.07 182,-110 182,-110"/>
</g>
<!-- NASALib/lnexp&#45;&gt;NASALib/reals -->
<g id="edge25" class="edge">
<title>NASALib/lnexp&#45;&gt;NASALib/reals</title>
<path fill="none" stroke="black" d="M179.28,-343.35C165.28,-358.81 147,-379 147,-379 147,-379 147,-415 147,-415 147,-415 184.9,-446.39 202.37,-460.85"/>
<polygon fill="black" stroke="black" points="199.9,-463.35 209.83,-467.03 204.36,-457.96 199.9,-463.35"/>
<path fill="none" stroke="black" d="M211,-470C211,-470 226,-559 226,-559 226,-559 257,-631 257,-631 257,-631 277.57,-651.19 293.32,-666.65"/>
</g>
<!-- NASALib/lnexp&#45;&gt;NASALib/series -->
<g id="edge26" class="edge">
<title>NASALib/lnexp&#45;&gt;NASALib/series</title>
<path fill="none" stroke="black" d="M211.31,-306.7C219.07,-298.47 228.49,-288.48 237.03,-279.42"/>
<polygon fill="black" stroke="black" points="239.52,-281.88 243.83,-272.21 234.43,-277.08 239.52,-281.88"/>
</g>
<!-- NASALib/measure_integration&#45;&gt;NASALib/extended_nnreal -->
<g id="edge27" class="edge">
<title>NASALib/measure_integration&#45;&gt;NASALib/extended_nnreal</title>
<path fill="none" stroke="black" d="M477.55,-522.7C485.98,-514.39 496.23,-504.28 505.5,-495.14"/>
<polygon fill="black" stroke="black" points="507.91,-497.68 512.57,-488.17 503,-492.7 507.91,-497.68"/>
</g>
<!-- NASALib/measure_integration&#45;&gt;NASALib/metric_space -->
<g id="edge28" class="edge">
<title>NASALib/measure_integration&#45;&gt;NASALib/metric_space</title>
<path fill="none" stroke="black" d="M423.78,-522.52C404.86,-513.38 381.48,-502.09 361.25,-492.33"/>
<polygon fill="black" stroke="black" points="362.9,-489.24 352.37,-488.04 359.85,-495.54 362.9,-489.24"/>
</g>
<!-- NASALib/measure_integration&#45;&gt;NASALib/orders -->
<g id="edge29" class="edge">
<title>NASALib/measure_integration&#45;&gt;NASALib/orders</title>
<path fill="none" stroke="black" d="M459,-468C459,-468 469,-451 469,-451 469,-451 582,-326 582,-326"/>
<path fill="none" stroke="black" d="M459.75,-522.7C459.46,-501.97 459,-470 459,-470"/>
<path fill="none" stroke="black" d="M582,-324C582,-324 567.27,-251.9 558.81,-210.45"/>
<polygon fill="black" stroke="black" points="562.29,-209.99 556.86,-200.89 555.43,-211.39 562.29,-209.99"/>
</g>
<!-- NASALib/measure_integration&#45;&gt;NASALib/power -->
<g id="edge30" class="edge">
<title>NASALib/measure_integration&#45;&gt;NASALib/power</title>
<path fill="none" stroke="black" d="M449.87,-522.7C437.72,-501.97 419,-470 419,-470"/>
<path fill="none" stroke="black" d="M419,-468C419,-468 356.66,-437.27 314.59,-416.53"/>
<polygon fill="black" stroke="black" points="316.25,-413.45 305.74,-412.17 313.16,-419.73 316.25,-413.45"/>
</g>
<!-- NASALib/measure_integration&#45;&gt;NASALib/reals -->
<g id="edge31" class="edge">
<title>NASALib/measure_integration&#45;&gt;NASALib/reals</title>
<path fill="none" stroke="black" d="M429.28,-559.48C402.24,-574.87 364.51,-596.35 346.85,-606.4"/>
<polygon fill="black" stroke="black" points="345.28,-603.26 338.32,-611.25 348.74,-609.35 345.28,-603.26"/>
</g>
<!-- NASALib/measure_integration&#45;&gt;NASALib/series -->
<g id="edge32" class="edge">
<title>NASALib/measure_integration&#45;&gt;NASALib/series</title>
<path fill="none" stroke="black" d="M383,-396C383,-396 343,-326 343,-326"/>
<path fill="none" stroke="black" d="M419,-468C419,-468 383,-398 383,-398"/>
</g>
<!-- NASALib/measure_integration&#45;&gt;NASALib/sets_aux -->
<g id="edge33" class="edge">
<title>NASALib/measure_integration&#45;&gt;NASALib/sets_aux</title>
<path fill="none" stroke="black" d="M419,-468C419,-468 477,-415 477,-415 477,-415 488.76,-380.11 497.55,-354.02"/>
<polygon fill="black" stroke="black" points="500.85,-355.19 500.73,-344.59 494.22,-352.95 500.85,-355.19"/>
</g>
<!-- NASALib/measure_integration&#45;&gt;NASALib/sigma_set -->
<g id="edge34" class="edge">
<title>NASALib/measure_integration&#45;&gt;NASALib/sigma_set</title>
<path fill="none" stroke="black" d="M459,-468C459,-468 469,-451 469,-451 469,-451 504.63,-434.29 535.88,-419.63"/>
<polygon fill="black" stroke="black" points="537.31,-422.83 544.88,-415.41 534.34,-416.49 537.31,-422.83"/>
</g>
<!-- NASALib/measure_integration&#45;&gt;NASALib/structures -->
<g id="edge35" class="edge">
<title>NASALib/measure_integration&#45;&gt;NASALib/structures</title>
<path fill="none" stroke="black" d="M383,-396C383,-396 383,-326 383,-326"/>
</g>
<!-- NASALib/measure_integration&#45;&gt;NASALib/topology -->
<g id="edge36" class="edge">
<title>NASALib/measure_integration&#45;&gt;NASALib/topology</title>
<path fill="none" stroke="black" d="M419,-468C419,-468 424.06,-445.87 428.49,-426.5"/>
<polygon fill="black" stroke="black" points="431.89,-427.31 430.71,-416.78 425.07,-425.75 431.89,-427.31"/>
</g>
<!-- NASALib/measure_integration&#45;&gt;lib/finite_sets -->
<g id="edge37" class="edge">
<title>NASALib/measure_integration&#45;&gt;lib/finite_sets</title>
<path fill="none" stroke="black" d="M732,-468C732,-468 732,-398 732,-398"/>
<path fill="none" stroke="black" d="M524.41,-525.96C532.5,-524.2 538,-523 538,-523 538,-523 716,-487 716,-487 716,-487 732,-470 732,-470"/>
</g>
<!-- NASALib/metric_space&#45;&gt;NASALib/analysis -->
<g id="edge38" class="edge">
<title>NASALib/metric_space&#45;&gt;NASALib/analysis</title>
<path fill="none" stroke="black" d="M318.75,-487.38C326.17,-521.73 342,-595 342,-595 342,-595 351.06,-648.78 355.1,-672.73"/>
<polygon fill="black" stroke="black" points="351.64,-673.23 356.75,-682.51 358.54,-672.06 351.64,-673.23"/>
</g>
<!-- NASALib/metric_space&#45;&gt;NASALib/power -->
<g id="edge39" class="edge">
<title>NASALib/metric_space&#45;&gt;NASALib/power</title>
<path fill="none" stroke="black" d="M305.61,-450.7C301.42,-442.98 296.39,-433.71 291.72,-425.11"/>
<polygon fill="black" stroke="black" points="294.85,-423.55 287.01,-416.43 288.7,-426.89 294.85,-423.55"/>
</g>
<!-- NASALib/metric_space&#45;&gt;NASALib/series -->
<g id="edge41" class="edge">
<title>NASALib/metric_space&#45;&gt;NASALib/series</title>
<path fill="none" stroke="black" d="M318.43,-450.59C325.91,-412.67 343,-326 343,-326"/>
<path fill="none" stroke="black" d="M343,-324C343,-324 313.56,-298.86 289.96,-278.72"/>
<polygon fill="black" stroke="black" points="292.3,-276.12 282.42,-272.29 287.75,-281.44 292.3,-276.12"/>
</g>
<!-- NASALib/metric_space&#45;&gt;NASALib/sets_aux -->
<g id="edge42" class="edge">
<title>NASALib/metric_space&#45;&gt;NASALib/sets_aux</title>
<path fill="none" stroke="black" d="M327.15,-450.84C345.45,-424.98 378,-379 378,-379 378,-379 427.22,-358.78 464.86,-343.32"/>
<polygon fill="black" stroke="black" points="465.79,-346.71 473.71,-339.68 463.13,-340.24 465.79,-346.71"/>
</g>
<!-- NASALib/metric_space&#45;&gt;NASALib/topology -->
<g id="edge43" class="edge">
<title>NASALib/metric_space&#45;&gt;NASALib/topology</title>
<path fill="none" stroke="black" d="M344.97,-450.52C360.26,-441.6 379.06,-430.63 395.52,-421.03"/>
<polygon fill="black" stroke="black" points="397.23,-424.09 404.1,-416.02 393.7,-418.04 397.23,-424.09"/>
</g>
<!-- NASALib/vectors -->
<g id="node18" class="node">
<title>NASALib/vectors</title>
<polygon fill="#fcfcd7" stroke="black" points="212,-415 156,-415 156,-379 212,-379 212,-415"/>
<text text-anchor="middle" x="184" y="-393.3" font-family="Times,serif" font-size="14.00">vectors</text>
</g>
<!-- NASALib/metric_space&#45;&gt;NASALib/vectors -->
<g id="edge44" class="edge">
<title>NASALib/metric_space&#45;&gt;NASALib/vectors</title>
<path fill="none" stroke="black" d="M282.28,-450.52C264.12,-440.81 241.43,-428.69 222.43,-418.54"/>
<polygon fill="black" stroke="black" points="224.11,-415.46 213.64,-413.84 220.81,-421.64 224.11,-415.46"/>
</g>
<!-- NASALib/metric_space&#45;&gt;lib/finite_sets -->
<g id="edge45" class="edge">
<title>NASALib/metric_space&#45;&gt;lib/finite_sets</title>
<path fill="none" stroke="black" d="M732,-396C732,-396 732,-254 732,-254"/>
<path fill="none" stroke="black" d="M359.87,-460.3C386.06,-455.8 414,-451 414,-451 414,-451 668,-415 668,-415 668,-415 732,-398 732,-398"/>
</g>
<!-- NASALib/orders&#45;&gt;NASALib/structures -->
<g id="edge46" class="edge">
<title>NASALib/orders&#45;&gt;NASALib/structures</title>
<path fill="none" stroke="black" d="M528.02,-162.52C515.64,-153.85 500.5,-143.25 487.07,-133.85"/>
<polygon fill="black" stroke="black" points="489.1,-131 478.9,-128.13 485.08,-136.73 489.1,-131"/>
</g>
<!-- NASALib/orders&#45;&gt;lib/finite_sets -->
<g id="edge47" class="edge">
<title>NASALib/orders&#45;&gt;lib/finite_sets</title>
<path fill="none" stroke="black" d="M732,-108C732,-108 742.84,-83.26 751.91,-62.59"/>
<polygon fill="black" stroke="black" points="755,-64.25 755.81,-53.69 748.59,-61.44 755,-64.25"/>
<path fill="none" stroke="black" d="M580.19,-169.37C630.26,-149.79 732,-110 732,-110"/>
</g>
<!-- NASALib/power&#45;&gt;NASALib/analysis -->
<g id="edge48" class="edge">
<title>NASALib/power&#45;&gt;NASALib/analysis</title>
<path fill="none" stroke="black" d="M253.75,-415.35C233.05,-430.81 206,-451 206,-451 206,-451 161.32,-508.63 143.87,-531.14"/>
<polygon fill="black" stroke="black" points="141.29,-528.76 137.93,-538.8 146.82,-533.05 141.29,-528.76"/>
</g>
<!-- NASALib/power&#45;&gt;NASALib/lnexp -->
<g id="edge49" class="edge">
<title>NASALib/power&#45;&gt;NASALib/lnexp</title>
<path fill="none" stroke="black" d="M256.73,-378.7C246.87,-370.28 234.85,-360.02 224.04,-350.79"/>
<polygon fill="black" stroke="black" points="226.35,-348.16 216.47,-344.33 221.81,-353.48 226.35,-348.16"/>
</g>
<!-- NASALib/power&#45;&gt;NASALib/reals -->
<g id="edge50" class="edge">
<title>NASALib/power&#45;&gt;NASALib/reals</title>
<path fill="none" stroke="black" d="M260.69,-415.3C247.25,-429.55 228.8,-449.12 218.59,-459.95"/>
<polygon fill="black" stroke="black" points="216.35,-457.22 212.04,-466.9 221.45,-462.02 216.35,-457.22"/>
</g>
<!-- NASALib/reals&#45;&gt;NASALib/ints -->
<g id="edge51" class="edge">
<title>NASALib/reals&#45;&gt;NASALib/ints</title>
<path fill="none" stroke="black" d="M283.81,-675.95C233.74,-661.12 132,-631 132,-631 132,-631 98,-559 98,-559 98,-559 72,-487 72,-487 72,-487 67,-343 67,-343 67,-343 67,-307 67,-307 67,-307 103,-254 103,-254"/>
<path fill="none" stroke="black" d="M103,-252C103,-252 103,-182 103,-182"/>
</g>
<!-- NASALib/reals&#45;&gt;NASALib/lebesgue -->
<g id="edge52" class="edge">
<title>NASALib/reals&#45;&gt;NASALib/lebesgue</title>
<path fill="none" stroke="black" d="M344.14,-660.08C354.05,-652.94 364.91,-645.1 374.82,-637.95"/>
<polygon fill="black" stroke="black" points="342.27,-657.12 336.2,-665.81 346.36,-662.8 342.27,-657.12"/>
<polygon fill="black" stroke="black" points="376.67,-640.92 382.73,-632.23 372.58,-635.25 376.67,-640.92"/>
</g>
<!-- NASALib/reals&#45;&gt;NASALib/metric_space -->
<g id="edge53" class="edge">
<title>NASALib/reals&#45;&gt;NASALib/metric_space</title>
<path fill="none" stroke="black" d="M311.53,-655.57C312.3,-614.64 313.7,-539.54 314.47,-498.55"/>
<polygon fill="black" stroke="black" points="308.04,-655.27 311.35,-665.34 315.04,-655.4 308.04,-655.27"/>
<polygon fill="black" stroke="black" points="317.96,-498.81 314.65,-488.75 310.96,-498.68 317.96,-498.81"/>
</g>
<!-- NASALib/reals&#45;&gt;NASALib/sets_aux -->
<g id="edge54" class="edge">
<title>NASALib/reals&#45;&gt;NASALib/sets_aux</title>
<path fill="none" stroke="black" d="M338.12,-672.76C345.74,-669.59 352,-667 352,-667 352,-667 588,-631 588,-631 588,-631 668,-487 668,-487 668,-487 668,-451 668,-451 668,-451 663,-398 663,-398"/>
</g>
<!-- NASALib/reals&#45;&gt;NASALib/structures -->
<g id="edge55" class="edge">
<title>NASALib/reals&#45;&gt;NASALib/structures</title>
<path fill="none" stroke="black" d="M202,-180C202,-180 334.57,-143.03 407.02,-122.82"/>
<polygon fill="black" stroke="black" points="407.95,-126.2 416.64,-120.14 406.07,-119.45 407.95,-126.2"/>
<path fill="none" stroke="black" d="M287.1,-666.65C265.81,-651.19 238,-631 238,-631 238,-631 143,-415 143,-415 143,-415 143,-379 143,-379 143,-379 159,-307 159,-307 159,-307 202,-182 202,-182"/>
</g>
<!-- NASALib/series&#45;&gt;NASALib/analysis -->
<g id="edge56" class="edge">
<title>NASALib/series&#45;&gt;NASALib/analysis</title>
<path fill="none" stroke="black" d="M357,-686C357,-686 347,-703 347,-703 347,-703 333.29,-723.19 322.79,-738.65"/>
<path fill="none" stroke="black" d="M231,-398C231,-398 257,-487 257,-487 257,-487 357,-684 357,-684"/>
</g>
<!-- NASALib/series&#45;&gt;NASALib/ints -->
<g id="edge57" class="edge">
<title>NASALib/series&#45;&gt;NASALib/ints</title>
<path fill="none" stroke="black" d="M251.31,-234.59C230.22,-196.67 182,-110 182,-110"/>
</g>
<!-- NASALib/series&#45;&gt;NASALib/orders -->
<g id="edge58" class="edge">
<title>NASALib/series&#45;&gt;NASALib/orders</title>
<path fill="none" stroke="black" d="M288.34,-246.23C353.39,-232.49 512,-199 512,-199 512,-199 513.37,-198.43 515.62,-197.5"/>
<polygon fill="black" stroke="black" points="516.59,-200.89 524.48,-193.82 513.9,-194.42 516.59,-200.89"/>
</g>
<!-- NASALib/series&#45;&gt;NASALib/reals -->
<g id="edge59" class="edge">
<title>NASALib/series&#45;&gt;NASALib/reals</title>
<path fill="none" stroke="black" d="M257.32,-271.41C251.06,-301.04 238.52,-360.41 233.33,-384.98"/>
<polygon fill="black" stroke="black" points="229.96,-384.01 231.31,-394.52 236.8,-385.46 229.96,-384.01"/>
<path fill="none" stroke="black" d="M231,-398C231,-398 211,-468 211,-468"/>
</g>
<!-- NASALib/sets_aux&#45;&gt;NASALib/ints -->
<g id="edge60" class="edge">
<title>NASALib/sets_aux&#45;&gt;NASALib/ints</title>
<path fill="none" stroke="black" d="M507,-180C507,-180 497,-91 497,-91 497,-91 485.07,-75.81 473.63,-61.25"/>
<polygon fill="black" stroke="black" points="476.55,-59.3 467.62,-53.6 471.04,-63.63 476.55,-59.3"/>
</g>
<!-- NASALib/sets_aux&#45;&gt;NASALib/orders -->
<g id="edge61" class="edge">
<title>NASALib/sets_aux&#45;&gt;NASALib/orders</title>
<path fill="none" stroke="black" d="M507,-252C507,-252 522.37,-228.61 535.35,-208.87"/>
<polygon fill="black" stroke="black" points="538.23,-210.85 540.8,-200.57 532.38,-207 538.23,-210.85"/>
</g>
<!-- NASALib/sets_aux&#45;&gt;NASALib/structures -->
<g id="edge62" class="edge">
<title>NASALib/sets_aux&#45;&gt;NASALib/structures</title>
<path fill="none" stroke="black" d="M507,-180C507,-180 488.62,-156.18 473.31,-136.33"/>
<polygon fill="black" stroke="black" points="476.15,-134.28 467.27,-128.5 470.61,-138.56 476.15,-134.28"/>
<path fill="none" stroke="black" d="M507,-252C507,-252 507,-182 507,-182"/>
<path fill="none" stroke="black" d="M507,-306.7C507,-285.97 507,-254 507,-254"/>
</g>
<!-- NASALib/sets_aux&#45;&gt;lib/finite_sets -->
<g id="edge63" class="edge">
<title>NASALib/sets_aux&#45;&gt;lib/finite_sets</title>
<path fill="none" stroke="black" d="M732,-252C732,-252 732,-110 732,-110"/>
<path fill="none" stroke="black" d="M538.76,-314.12C600.78,-294.82 732,-254 732,-254"/>
</g>
<!-- NASALib/sigma_set&#45;&gt;NASALib/analysis -->
<g id="edge64" class="edge">
<title>NASALib/sigma_set&#45;&gt;NASALib/analysis</title>
<path fill="none" stroke="black" d="M588.88,-415.35C595,-430.81 603,-451 603,-451 603,-451 617.04,-564.03 621.59,-600.68"/>
<polygon fill="black" stroke="black" points="618.11,-601.01 622.81,-610.5 625.05,-600.14 618.11,-601.01"/>
</g>
<!-- NASALib/sigma_set&#45;&gt;NASALib/orders -->
<g id="edge65" class="edge">
<title>NASALib/sigma_set&#45;&gt;NASALib/orders</title>
<path fill="none" stroke="black" d="M582,-378.7C582,-357.97 582,-326 582,-326"/>
</g>
<!-- NASALib/sigma_set&#45;&gt;NASALib/reals -->
<g id="edge66" class="edge">
<title>NASALib/sigma_set&#45;&gt;NASALib/reals</title>
<path fill="none" stroke="black" d="M587.24,-415.35C591.91,-430.81 598,-451 598,-451 598,-451 598,-487 598,-487 598,-487 588,-570.31 584.33,-600.91"/>
<polygon fill="black" stroke="black" points="580.9,-600.15 583.18,-610.5 587.85,-600.99 580.9,-600.15"/>
</g>
<!-- NASALib/sigma_set&#45;&gt;NASALib/series -->
<g id="edge67" class="edge">
<title>NASALib/sigma_set&#45;&gt;NASALib/series</title>
<path fill="none" stroke="black" d="M546.24,-379.52C512.49,-363.96 467,-343 467,-343 467,-343 433,-326 433,-326"/>
</g>
<!-- NASALib/sigma_set&#45;&gt;NASALib/sets_aux -->
<g id="edge68" class="edge">
<title>NASALib/sigma_set&#45;&gt;NASALib/sets_aux</title>
<path fill="none" stroke="black" d="M563.46,-378.7C554.54,-370.37 543.67,-360.22 533.86,-351.07"/>
<polygon fill="black" stroke="black" points="536.39,-348.64 526.69,-344.38 531.61,-353.76 536.39,-348.64"/>
</g>
<!-- NASALib/structures&#45;&gt;NASALib/ints -->
<g id="edge69" class="edge">
<title>NASALib/structures&#45;&gt;NASALib/ints</title>
<path fill="none" stroke="black" d="M453,-90.7C453,-82.67 453,-72.9 453,-63.8"/>
<polygon fill="black" stroke="black" points="456.5,-63.94 453,-53.94 449.5,-63.94 456.5,-63.94"/>
</g>
<!-- NASALib/structures&#45;&gt;lib/finite_sets -->
<g id="edge70" class="edge">
<title>NASALib/structures&#45;&gt;lib/finite_sets</title>
<path fill="none" stroke="black" d="M487.92,-104.68C559.47,-97.88 716,-83 716,-83 716,-83 727.17,-71.83 738.73,-60.27"/>
<polygon fill="black" stroke="black" points="741,-62.95 745.6,-53.4 736.05,-58 741,-62.95"/>
</g>
<!-- NASALib/topology&#45;&gt;NASALib/reals -->
<g id="edge71" class="edge">
<title>NASALib/topology&#45;&gt;NASALib/reals</title>
<path fill="none" stroke="black" d="M426.24,-415.38C408.93,-449.73 372,-523 372,-523 372,-523 350.42,-577.87 341.15,-601.44"/>
<polygon fill="black" stroke="black" points="337.96,-600 337.55,-610.59 344.47,-602.57 337.96,-600"/>
<path fill="none" stroke="black" d="M337,-614C337,-614 325.13,-645.97 317.43,-666.7"/>
</g>
<!-- NASALib/topology&#45;&gt;NASALib/sets_aux -->
<g id="edge72" class="edge">
<title>NASALib/topology&#45;&gt;NASALib/sets_aux</title>
<path fill="none" stroke="black" d="M452.8,-378.7C461.28,-370.45 471.59,-360.43 480.93,-351.35"/>
<polygon fill="black" stroke="black" points="483.34,-353.88 488.07,-344.4 478.46,-348.86 483.34,-353.88"/>
</g>
<!-- NASALib/topology&#45;&gt;NASALib/structures -->
<g id="edge73" class="edge">
<title>NASALib/topology&#45;&gt;NASALib/structures</title>
<path fill="none" stroke="black" d="M437.21,-378.59C442.01,-340.67 453,-254 453,-254"/>
</g>
<!-- NASALib/trig -->
<g id="node17" class="node">
<title>NASALib/trig</title>
<polygon fill="#fcfcd7" stroke="black" points="130,-343 76,-343 76,-307 130,-307 130,-343"/>
<text text-anchor="middle" x="103" y="-321.3" font-family="Times,serif" font-size="14.00">trig</text>
</g>
<!-- NASALib/trig&#45;&gt;NASALib/analysis -->
<g id="edge74" class="edge">
<title>NASALib/trig&#45;&gt;NASALib/analysis</title>
<path fill="none" stroke="black" d="M137,-686C137,-686 272,-739 272,-739 272,-739 275.62,-740.58 280.66,-742.77"/>
<path fill="none" stroke="black" d="M99.81,-343.41C94.39,-373.04 83.52,-432.41 79.02,-456.98"/>
<polygon fill="black" stroke="black" points="75.63,-456.04 77.27,-466.51 82.52,-457.31 75.63,-456.04"/>
<path fill="none" stroke="black" d="M77,-470C77,-470 98,-559 98,-559 98,-559 137,-684 137,-684"/>
</g>
<!-- NASALib/trig&#45;&gt;NASALib/ints -->
<g id="edge75" class="edge">
<title>NASALib/trig&#45;&gt;NASALib/ints</title>
<path fill="none" stroke="black" d="M103,-306.7C103,-285.97 103,-254 103,-254"/>
</g>
<!-- NASALib/trig&#45;&gt;NASALib/reals -->
<g id="edge76" class="edge">
<title>NASALib/trig&#45;&gt;NASALib/reals</title>
<path fill="none" stroke="black" d="M77,-470C77,-470 152,-631 152,-631 152,-631 238.21,-659.74 283.67,-674.89"/>
</g>
<!-- NASALib/trig&#45;&gt;NASALib/series -->
<g id="edge77" class="edge">
<title>NASALib/trig&#45;&gt;NASALib/series</title>
<path fill="none" stroke="black" d="M130.16,-311.97C155.82,-300.6 194.55,-283.44 223.22,-270.74"/>
<polygon fill="black" stroke="black" points="224.56,-273.97 232.28,-266.72 221.72,-267.57 224.56,-273.97"/>
</g>
<!-- NASALib/vectors&#45;&gt;NASALib/reals -->
<g id="edge78" class="edge">
<title>NASALib/vectors&#45;&gt;NASALib/reals</title>
<path fill="none" stroke="black" d="M190.67,-415.3C195.8,-428.58 202.7,-446.47 207,-457.62"/>
<polygon fill="black" stroke="black" points="203.59,-458.52 210.46,-466.59 210.12,-456 203.59,-458.52"/>
</g>
<!-- NASALib/vectors&#45;&gt;NASALib/structures -->
<g id="edge79" class="edge">
<title>NASALib/vectors&#45;&gt;NASALib/structures</title>
<path fill="none" stroke="black" d="M199.39,-378.65C213.1,-363.19 231,-343 231,-343 231,-343 231,-307 231,-307 231,-307 202,-182 202,-182"/>
</g>
<!-- NASALib/vectors&#45;&gt;NASALib/trig -->
<g id="edge80" class="edge">
<title>NASALib/vectors&#45;&gt;NASALib/trig</title>
<path fill="none" stroke="black" d="M163.98,-378.7C154.24,-370.28 142.36,-360.02 131.69,-350.79"/>
<polygon fill="black" stroke="black" points="134.07,-348.23 124.22,-344.34 129.5,-353.52 134.07,-348.23"/>
</g>
</g>
</svg>
