<?xml version="1.0" encoding="UTF-8" standalone="no"?>
<!DOCTYPE svg PUBLIC "-//W3C//DTD SVG 1.1//EN"
 "http://www.w3.org/Graphics/SVG/1.1/DTD/svg11.dtd">
<!-- Generated by graphviz version 8.0.4 (20230421.1958)
 -->
<!-- Title: float&#45;float_unbounded Pages: 1 -->
<svg width="392pt" height="774pt"
 viewBox="0.00 0.00 392.00 773.50" xmlns="http://www.w3.org/2000/svg" xmlns:xlink="http://www.w3.org/1999/xlink">
<g id="graph0" class="graph" transform="scale(1 1) rotate(0) translate(4 769.5)">
<title>float&#45;float_unbounded</title>
<polygon fill="white" stroke="none" points="-4,4 -4,-769.5 388,-769.5 388,4 -4,4"/>
<g id="clust1" class="cluster">
<title>cluster_NASALib</title>
<polygon fill="none" stroke="black" points="108,-92.5 108,-601 376,-601 376,-92.5 108,-92.5"/>
<text text-anchor="middle" x="242" y="-583.7" font-family="Times,serif" font-size="14.00">NASALib</text>
</g>
<g id="clust2" class="cluster">
<title>cluster_PVS Prelude</title>
<polygon fill="none" stroke="black" points="273,-8 273,-84.5 361,-84.5 361,-8 273,-8"/>
<text text-anchor="middle" x="317" y="-67.2" font-family="Times,serif" font-size="14.00">PVS Prelude</text>
</g>
<g id="clust3" class="cluster">
<title>cluster_float</title>
<polygon fill="none" stroke="black" points="58,-609 58,-757.5 276,-757.5 276,-609 58,-609"/>
<text text-anchor="middle" x="167" y="-740.2" font-family="Times,serif" font-size="14.00">float</text>
</g>
<!-- NASALib/analysis -->
<g id="node1" class="node">
<title>NASALib/analysis</title>
<polygon fill="#fcfcd7" stroke="black" points="327.75,-352.5 268.25,-352.5 268.25,-316.5 327.75,-316.5 327.75,-352.5"/>
<text text-anchor="middle" x="298" y="-329.45" font-family="Times,serif" font-size="14.00">analysis</text>
</g>
<!-- NASALib/ints -->
<g id="node3" class="node">
<title>NASALib/ints</title>
<polygon fill="#fcfcd7" stroke="black" points="316,-136.5 262,-136.5 262,-100.5 316,-100.5 316,-136.5"/>
<text text-anchor="middle" x="289" y="-113.45" font-family="Times,serif" font-size="14.00">ints</text>
</g>
<!-- NASALib/analysis&#45;&gt;NASALib/ints -->
<g id="edge1" class="edge">
<title>NASALib/analysis&#45;&gt;NASALib/ints</title>
<path fill="none" stroke="black" d="M327,-261.5C327,-261.5 328,-191.5 328,-191.5"/>
<path fill="none" stroke="black" d="M328,-189.5C328,-189.5 314.97,-166.11 303.97,-146.37"/>
<polygon fill="black" stroke="black" points="306.57,-144.84 298.64,-137.8 300.45,-148.24 306.57,-144.84"/>
</g>
<!-- NASALib/orders -->
<g id="node5" class="node">
<title>NASALib/orders</title>
<polygon fill="#fcfcd7" stroke="black" points="302,-280.5 248,-280.5 248,-244.5 302,-244.5 302,-280.5"/>
<text text-anchor="middle" x="275" y="-257.45" font-family="Times,serif" font-size="14.00">orders</text>
</g>
<!-- NASALib/analysis&#45;&gt;NASALib/orders -->
<g id="edge2" class="edge">
<title>NASALib/analysis&#45;&gt;NASALib/orders</title>
<path fill="none" stroke="black" d="M292.31,-316.2C289.81,-308.57 286.8,-299.42 284,-290.9"/>
<polygon fill="black" stroke="black" points="287.07,-290.01 280.62,-281.6 280.42,-292.2 287.07,-290.01"/>
</g>
<!-- NASALib/reals -->
<g id="node6" class="node">
<title>NASALib/reals</title>
<polygon fill="#fcfcd7" stroke="black" points="190,-280.5 136,-280.5 136,-244.5 190,-244.5 190,-280.5"/>
<text text-anchor="middle" x="163" y="-257.45" font-family="Times,serif" font-size="14.00">reals</text>
</g>
<!-- NASALib/analysis&#45;&gt;NASALib/reals -->
<g id="edge3" class="edge">
<title>NASALib/analysis&#45;&gt;NASALib/reals</title>
<path fill="none" stroke="black" d="M268.04,-317.96C247.92,-307.53 221.28,-293.72 199.86,-282.61"/>
<polygon fill="black" stroke="black" points="201.62,-279.06 191.13,-277.57 198.39,-285.28 201.62,-279.06"/>
</g>
<!-- NASALib/structures -->
<g id="node8" class="node">
<title>NASALib/structures</title>
<polygon fill="#fcfcd7" stroke="black" points="309.25,-208.5 240.75,-208.5 240.75,-172.5 309.25,-172.5 309.25,-208.5"/>
<text text-anchor="middle" x="275" y="-185.45" font-family="Times,serif" font-size="14.00">structures</text>
</g>
<!-- NASALib/analysis&#45;&gt;NASALib/structures -->
<g id="edge4" class="edge">
<title>NASALib/analysis&#45;&gt;NASALib/structures</title>
<path fill="none" stroke="black" d="M305.17,-316.2C313.76,-295.47 327,-263.5 327,-263.5"/>
<path fill="none" stroke="black" d="M327,-261.5C327,-261.5 309.14,-237.46 294.36,-217.56"/>
<polygon fill="black" stroke="black" points="296.63,-215.74 287.85,-209.8 291.01,-219.92 296.63,-215.74"/>
</g>
<!-- lib/finite_sets -->
<g id="node13" class="node">
<title>lib/finite_sets</title>
<polygon fill="#fcfcd7" stroke="black" points="352.75,-52 281.25,-52 281.25,-16 352.75,-16 352.75,-52"/>
<text text-anchor="middle" x="317" y="-28.95" font-family="Times,serif" font-size="14.00">finite_sets</text>
</g>
<!-- NASALib/analysis&#45;&gt;lib/finite_sets -->
<g id="edge5" class="edge">
<title>NASALib/analysis&#45;&gt;lib/finite_sets</title>
<path fill="none" stroke="black" d="M318.96,-316.15C337.62,-300.69 362,-280.5 362,-280.5 362,-280.5 376,-191.5 376,-191.5"/>
</g>
<!-- NASALib/interval_arith -->
<g id="node2" class="node">
<title>NASALib/interval_arith</title>
<polygon fill="#fcfcd7" stroke="black" points="293.38,-568.5 204.62,-568.5 204.62,-532.5 293.38,-532.5 293.38,-568.5"/>
<text text-anchor="middle" x="249" y="-545.45" font-family="Times,serif" font-size="14.00">interval_arith</text>
</g>
<!-- NASALib/interval_arith&#45;&gt;NASALib/analysis -->
<g id="edge6" class="edge">
<title>NASALib/interval_arith&#45;&gt;NASALib/analysis</title>
<path fill="none" stroke="black" d="M260.79,-532.15C271.29,-516.69 285,-496.5 285,-496.5 285,-496.5 295,-407.5 295,-407.5"/>
</g>
<!-- NASALib/interval_arith&#45;&gt;NASALib/ints -->
<g id="edge7" class="edge">
<title>NASALib/interval_arith&#45;&gt;NASALib/ints</title>
<path fill="none" stroke="black" d="M117,-261.5C117,-261.5 127,-244.5 127,-244.5 127,-244.5 163,-191.5 163,-191.5"/>
<path fill="none" stroke="black" d="M143,-333.5C143,-333.5 117,-263.5 117,-263.5"/>
<path fill="none" stroke="black" d="M237.21,-532.15C226.71,-516.69 213,-496.5 213,-496.5 213,-496.5 203,-479.5 203,-479.5"/>
<path fill="none" stroke="black" d="M203,-477.5C203,-477.5 180,-424.5 180,-424.5 180,-424.5 143,-335.5 143,-335.5"/>
</g>
<!-- NASALib/lnexp -->
<g id="node4" class="node">
<title>NASALib/lnexp</title>
<polygon fill="#fcfcd7" stroke="black" points="368,-496.5 314,-496.5 314,-460.5 368,-460.5 368,-496.5"/>
<text text-anchor="middle" x="341" y="-473.45" font-family="Times,serif" font-size="14.00">lnexp</text>
</g>
<!-- NASALib/interval_arith&#45;&gt;NASALib/lnexp -->
<g id="edge8" class="edge">
<title>NASALib/interval_arith&#45;&gt;NASALib/lnexp</title>
<path fill="none" stroke="black" d="M271.74,-532.2C283.13,-523.53 297.1,-512.9 309.51,-503.46"/>
<polygon fill="black" stroke="black" points="311.36,-505.69 317.2,-496.85 307.12,-500.12 311.36,-505.69"/>
</g>
<!-- NASALib/interval_arith&#45;&gt;NASALib/reals -->
<g id="edge9" class="edge">
<title>NASALib/interval_arith&#45;&gt;NASALib/reals</title>
<path fill="none" stroke="black" d="M143,-333.5C143,-333.5 149.5,-310.74 155.09,-291.18"/>
<polygon fill="black" stroke="black" points="158.67,-292.38 158.06,-281.8 151.94,-290.46 158.67,-292.38"/>
</g>
<!-- NASALib/interval_arith&#45;&gt;NASALib/structures -->
<g id="edge10" class="edge">
<title>NASALib/interval_arith&#45;&gt;NASALib/structures</title>
<path fill="none" stroke="black" d="M203,-477.5C203,-477.5 213,-388.5 213,-388.5 213,-388.5 239,-244.5 239,-244.5 239,-244.5 248.05,-231.17 257.08,-217.88"/>
<polygon fill="black" stroke="black" points="260.49,-220.09 263.21,-209.85 254.7,-216.16 260.49,-220.09"/>
</g>
<!-- NASALib/trig -->
<g id="node9" class="node">
<title>NASALib/trig</title>
<polygon fill="#fcfcd7" stroke="black" points="276,-496.5 222,-496.5 222,-460.5 276,-460.5 276,-496.5"/>
<text text-anchor="middle" x="249" y="-473.45" font-family="Times,serif" font-size="14.00">trig</text>
</g>
<!-- NASALib/interval_arith&#45;&gt;NASALib/trig -->
<g id="edge11" class="edge">
<title>NASALib/interval_arith&#45;&gt;NASALib/trig</title>
<path fill="none" stroke="black" d="M249,-532.2C249,-524.74 249,-515.82 249,-507.47"/>
<polygon fill="black" stroke="black" points="252.5,-507.6 249,-497.6 245.5,-507.6 252.5,-507.6"/>
</g>
<!-- NASALib/ints&#45;&gt;lib/finite_sets -->
<g id="edge12" class="edge">
<title>NASALib/ints&#45;&gt;lib/finite_sets</title>
<path fill="none" stroke="black" d="M294.94,-100C298.61,-89.18 303.41,-75.03 307.6,-62.71"/>
<polygon fill="black" stroke="black" points="311.17,-64.07 311.07,-53.47 304.54,-61.82 311.17,-64.07"/>
</g>
<!-- NASALib/lnexp&#45;&gt;NASALib/analysis -->
<g id="edge13" class="edge">
<title>NASALib/lnexp&#45;&gt;NASALib/analysis</title>
<path fill="none" stroke="black" d="M342.48,-460.2C344.26,-439.47 347,-407.5 347,-407.5"/>
<path fill="none" stroke="black" d="M347,-405.5C347,-405.5 330.17,-381.46 316.24,-361.56"/>
<polygon fill="black" stroke="black" points="318.71,-359.99 310.11,-353.8 312.98,-364 318.71,-359.99"/>
</g>
<!-- NASALib/lnexp&#45;&gt;NASALib/ints -->
<g id="edge14" class="edge">
<title>NASALib/lnexp&#45;&gt;NASALib/ints</title>
<path fill="none" stroke="black" d="M347,-405.5C347,-405.5 328,-191.5 328,-191.5"/>
</g>
<!-- NASALib/lnexp&#45;&gt;NASALib/reals -->
<g id="edge15" class="edge">
<title>NASALib/lnexp&#45;&gt;NASALib/reals</title>
<path fill="none" stroke="black" d="M313.54,-466.13C275.93,-450.56 213,-424.5 213,-424.5 213,-424.5 185.9,-337.25 171.6,-291.21"/>
<polygon fill="black" stroke="black" points="174.66,-290.24 168.35,-281.73 167.97,-292.32 174.66,-290.24"/>
</g>
<!-- NASALib/series -->
<g id="node7" class="node">
<title>NASALib/series</title>
<polygon fill="#fcfcd7" stroke="black" points="276,-424.5 222,-424.5 222,-388.5 276,-388.5 276,-424.5"/>
<text text-anchor="middle" x="249" y="-401.45" font-family="Times,serif" font-size="14.00">series</text>
</g>
<!-- NASALib/lnexp&#45;&gt;NASALib/series -->
<g id="edge16" class="edge">
<title>NASALib/lnexp&#45;&gt;NASALib/series</title>
<path fill="none" stroke="black" d="M318.26,-460.2C306.87,-451.53 292.9,-440.9 280.49,-431.46"/>
<polygon fill="black" stroke="black" points="282.88,-428.12 272.8,-424.85 278.64,-433.69 282.88,-428.12"/>
</g>
<!-- NASALib/orders&#45;&gt;NASALib/structures -->
<g id="edge17" class="edge">
<title>NASALib/orders&#45;&gt;NASALib/structures</title>
<path fill="none" stroke="black" d="M275,-244.2C275,-236.74 275,-227.82 275,-219.47"/>
<polygon fill="black" stroke="black" points="278.5,-219.6 275,-209.6 271.5,-219.6 278.5,-219.6"/>
</g>
<!-- NASALib/orders&#45;&gt;lib/finite_sets -->
<g id="edge18" class="edge">
<title>NASALib/orders&#45;&gt;lib/finite_sets</title>
<path fill="none" stroke="black" d="M302.05,-245.02C327.59,-229.46 362,-208.5 362,-208.5 362,-208.5 376,-191.5 376,-191.5"/>
<path fill="none" stroke="black" d="M376,-189.5C376,-189.5 376,-119.5 376,-119.5"/>
</g>
<!-- NASALib/reals&#45;&gt;NASALib/ints -->
<g id="edge19" class="edge">
<title>NASALib/reals&#45;&gt;NASALib/ints</title>
<path fill="none" stroke="black" d="M163,-244.2C163,-223.47 163,-191.5 163,-191.5"/>
</g>
<!-- NASALib/reals&#45;&gt;NASALib/structures -->
<g id="edge20" class="edge">
<title>NASALib/reals&#45;&gt;NASALib/structures</title>
<path fill="none" stroke="black" d="M190.4,-244.38C204.66,-235.46 222.31,-224.43 237.8,-214.75"/>
<polygon fill="black" stroke="black" points="239.48,-217.2 246.11,-208.93 235.77,-211.27 239.48,-217.2"/>
</g>
<!-- NASALib/series&#45;&gt;NASALib/analysis -->
<g id="edge21" class="edge">
<title>NASALib/series&#45;&gt;NASALib/analysis</title>
<path fill="none" stroke="black" d="M261.11,-388.2C266.75,-380.14 273.57,-370.39 279.81,-361.48"/>
<polygon fill="black" stroke="black" points="283.16,-363.8 286.03,-353.6 277.42,-359.79 283.16,-363.8"/>
</g>
<!-- NASALib/series&#45;&gt;NASALib/ints -->
<g id="edge22" class="edge">
<title>NASALib/series&#45;&gt;NASALib/ints</title>
<path fill="none" stroke="black" d="M209,-333.5C209,-333.5 199,-244.5 199,-244.5 199,-244.5 163,-191.5 163,-191.5"/>
</g>
<!-- NASALib/series&#45;&gt;NASALib/orders -->
<g id="edge23" class="edge">
<title>NASALib/series&#45;&gt;NASALib/orders</title>
<path fill="none" stroke="black" d="M250.93,-388.34C253.83,-362.48 259,-316.5 259,-316.5 259,-316.5 262.79,-303.93 266.69,-291.03"/>
<polygon fill="black" stroke="black" points="270.22,-292.44 269.76,-281.85 263.52,-290.42 270.22,-292.44"/>
</g>
<!-- NASALib/series&#45;&gt;NASALib/reals -->
<g id="edge24" class="edge">
<title>NASALib/series&#45;&gt;NASALib/reals</title>
<path fill="none" stroke="black" d="M239.11,-388.2C227.27,-367.47 209,-335.5 209,-335.5"/>
<path fill="none" stroke="black" d="M209,-333.5C209,-333.5 193.34,-309.68 180.3,-289.83"/>
<polygon fill="black" stroke="black" points="182.79,-288.24 174.37,-281.8 176.94,-292.08 182.79,-288.24"/>
</g>
<!-- NASALib/structures&#45;&gt;NASALib/ints -->
<g id="edge25" class="edge">
<title>NASALib/structures&#45;&gt;NASALib/ints</title>
<path fill="none" stroke="black" d="M278.46,-172.2C279.97,-164.65 281.78,-155.62 283.46,-147.18"/>
<polygon fill="black" stroke="black" points="287.05,-148.1 285.58,-137.6 280.19,-146.72 287.05,-148.1"/>
</g>
<!-- NASALib/structures&#45;&gt;lib/finite_sets -->
<g id="edge26" class="edge">
<title>NASALib/structures&#45;&gt;lib/finite_sets</title>
<path fill="none" stroke="black" d="M376,-117.5C376,-117.5 353.07,-85.43 335.79,-61.28"/>
<polygon fill="black" stroke="black" points="338.18,-59.59 329.51,-53.5 332.48,-63.67 338.18,-59.59"/>
<path fill="none" stroke="black" d="M300.23,-172.02C330.14,-151.28 376,-119.5 376,-119.5"/>
</g>
<!-- NASALib/trig&#45;&gt;NASALib/analysis -->
<g id="edge27" class="edge">
<title>NASALib/trig&#45;&gt;NASALib/analysis</title>
<path fill="none" stroke="black" d="M260.79,-460.15C271.29,-444.69 285,-424.5 285,-424.5 285,-424.5 295,-407.5 295,-407.5"/>
<path fill="none" stroke="black" d="M295,-405.5C295,-405.5 295.96,-383.16 296.79,-363.72"/>
<polygon fill="black" stroke="black" points="300.33,-363.94 297.26,-353.8 293.33,-363.64 300.33,-363.94"/>
</g>
<!-- NASALib/trig&#45;&gt;NASALib/ints -->
<g id="edge28" class="edge">
<title>NASALib/trig&#45;&gt;NASALib/ints</title>
<path fill="none" stroke="black" d="M163,-333.5C163,-333.5 127,-280.5 127,-280.5 127,-280.5 117,-263.5 117,-263.5"/>
<path fill="none" stroke="black" d="M232.3,-460.15C217.43,-444.69 198,-424.5 198,-424.5 198,-424.5 163,-335.5 163,-335.5"/>
</g>
<!-- NASALib/trig&#45;&gt;NASALib/reals -->
<g id="edge29" class="edge">
<title>NASALib/trig&#45;&gt;NASALib/reals</title>
<path fill="none" stroke="black" d="M163,-333.5C163,-333.5 163,-311.16 163,-291.72"/>
<polygon fill="black" stroke="black" points="166.5,-291.8 163,-281.8 159.5,-291.8 166.5,-291.8"/>
</g>
<!-- NASALib/trig&#45;&gt;NASALib/series -->
<g id="edge30" class="edge">
<title>NASALib/trig&#45;&gt;NASALib/series</title>
<path fill="none" stroke="black" d="M249,-460.2C249,-452.74 249,-443.82 249,-435.47"/>
<polygon fill="black" stroke="black" points="252.5,-435.6 249,-425.6 245.5,-435.6 252.5,-435.6"/>
</g>
<!-- float/float_bounded -->
<g id="node10" class="node">
<title>float/float_bounded</title>
<polygon fill="#fcfcd7" stroke="black" points="268,-725 174,-725 174,-689 268,-689 268,-725"/>
<text text-anchor="middle" x="221" y="-701.95" font-family="Times,serif" font-size="14.00">float_bounded</text>
</g>
<!-- float/float_bounded&#45;&gt;NASALib/reals -->
<g id="edge31" class="edge">
<title>float/float_bounded&#45;&gt;NASALib/reals</title>
<path fill="none" stroke="black" d="M198.08,-688.65C177.66,-673.19 151,-653 151,-653 151,-653 38,-551.5 38,-551.5 38,-551.5 38,-551.5 38,-405.5 38,-405.5 100,-316.5 100,-316.5 100,-316.5 117.72,-301.59 134.37,-287.59"/>
<polygon fill="black" stroke="black" points="135.97,-289.97 141.37,-280.85 131.47,-284.61 135.97,-289.97"/>
</g>
<!-- float/float_bounded&#45;&gt;NASALib/trig -->
<g id="edge32" class="edge">
<title>float/float_bounded&#45;&gt;NASALib/trig</title>
<path fill="none" stroke="black" d="M239.34,-688.65C255.67,-673.19 277,-653 277,-653 277,-653 302,-601 302,-601 302,-601 302,-532.5 302,-532.5 302,-532.5 287.63,-518.13 273.85,-504.35"/>
<polygon fill="black" stroke="black" points="276.9,-502.45 267.35,-497.85 271.95,-507.4 276.9,-502.45"/>
</g>
<!-- float/float_unbounded -->
<g id="node12" class="node">
<title>float/float_unbounded</title>
<polygon fill="#f7e28d" stroke="black" points="267.75,-653 160.25,-653 160.25,-617 267.75,-617 267.75,-653"/>
<text text-anchor="middle" x="214" y="-629.95" font-family="Times,serif" font-size="14.00">float_unbounded</text>
</g>
<!-- float/float_bounded&#45;&gt;float/float_unbounded -->
<g id="edge33" class="edge">
<title>float/float_bounded&#45;&gt;float/float_unbounded</title>
<path fill="none" stroke="black" d="M219.27,-688.7C218.52,-681.24 217.63,-672.32 216.8,-663.97"/>
<polygon fill="black" stroke="black" points="220.19,-663.71 215.71,-654.1 213.22,-664.4 220.19,-663.71"/>
</g>
<!-- float/float_ieee854 -->
<g id="node11" class="node">
<title>float/float_ieee854</title>
<polygon fill="#fcfcd7" stroke="black" points="155.75,-725 66.25,-725 66.25,-689 155.75,-689 155.75,-725"/>
<text text-anchor="middle" x="111" y="-701.95" font-family="Times,serif" font-size="14.00">float_ieee854</text>
</g>
<!-- float/float_ieee854&#45;&gt;NASALib/ints -->
<g id="edge34" class="edge">
<title>float/float_ieee854&#45;&gt;NASALib/ints</title>
<path fill="none" stroke="black" d="M98.29,-688.66C76.41,-658.84 34,-601 34,-601 34,-601 0,-551.5 0,-551.5 0,-551.5 0,-551.5 0,-405.5 0,-405.5 109,-244.5 109,-244.5 109,-244.5 163,-191.5 163,-191.5"/>
<path fill="none" stroke="black" d="M163,-189.5C163,-189.5 214.91,-160.66 252.09,-140"/>
<polygon fill="black" stroke="black" points="253.62,-142.6 260.66,-134.69 250.22,-136.49 253.62,-142.6"/>
</g>
<!-- float/float_ieee854&#45;&gt;NASALib/reals -->
<g id="edge35" class="edge">
<title>float/float_ieee854&#45;&gt;NASALib/reals</title>
<path fill="none" stroke="black" d="M107.05,-688.58C97.9,-648.17 76,-551.5 76,-551.5 76,-551.5 76,-551.5 76,-477.5 76,-477.5 114,-335.5 114,-335.5"/>
<path fill="none" stroke="black" d="M114,-333.5C114,-333.5 130.83,-309.46 144.76,-289.56"/>
<polygon fill="black" stroke="black" points="148.02,-292 150.89,-281.8 142.29,-287.99 148.02,-292"/>
</g>
<!-- float/float_ieee854&#45;&gt;float/float_unbounded -->
<g id="edge36" class="edge">
<title>float/float_ieee854&#45;&gt;float/float_unbounded</title>
<path fill="none" stroke="black" d="M136.73,-688.52C149.73,-679.68 165.68,-668.84 179.71,-659.3"/>
<polygon fill="black" stroke="black" points="181.3,-661.78 187.6,-653.26 177.36,-655.99 181.3,-661.78"/>
</g>
<!-- float/float_unbounded&#45;&gt;NASALib/analysis -->
<g id="edge37" class="edge">
<title>float/float_unbounded&#45;&gt;NASALib/analysis</title>
<path fill="none" stroke="black" d="M268.03,-618.08C296.67,-609.64 326,-601 326,-601 326,-601 377,-496.5 377,-496.5 377,-496.5 377,-460.5 377,-460.5 377,-460.5 352,-388.5 352,-388.5 352,-388.5 337.36,-374.13 323.32,-360.35"/>
<polygon fill="black" stroke="black" points="326.27,-358.36 316.68,-353.85 321.37,-363.36 326.27,-358.36"/>
</g>
<!-- float/float_unbounded&#45;&gt;NASALib/interval_arith -->
<g id="edge38" class="edge">
<title>float/float_unbounded&#45;&gt;NASALib/interval_arith</title>
<path fill="none" stroke="black" d="M221.42,-616.5C226.06,-605.57 232.14,-591.25 237.4,-578.83"/>
<polygon fill="black" stroke="black" points="240.9,-580.54 241.59,-569.97 234.46,-577.81 240.9,-580.54"/>
</g>
<!-- float/float_unbounded&#45;&gt;NASALib/lnexp -->
<g id="edge39" class="edge">
<title>float/float_unbounded&#45;&gt;NASALib/lnexp</title>
<path fill="none" stroke="black" d="M260.58,-616.53C281.69,-608.62 302,-601 302,-601 302,-601 320.58,-543.1 332.1,-507.24"/>
<polygon fill="black" stroke="black" points="335.69,-508.5 335.41,-497.91 329.02,-506.36 335.69,-508.5"/>
</g>
<!-- float/float_unbounded&#45;&gt;NASALib/reals -->
<g id="edge40" class="edge">
<title>float/float_unbounded&#45;&gt;NASALib/reals</title>
<path fill="none" stroke="black" d="M114,-405.5C114,-405.5 114,-335.5 114,-335.5"/>
</g>
<!-- float/float_unbounded&#45;&gt;NASALib/structures -->
<g id="edge41" class="edge">
<title>float/float_unbounded&#45;&gt;NASALib/structures</title>
<path fill="none" stroke="black" d="M192.79,-616.5C163.44,-592.29 114,-551.5 114,-551.5"/>
<path fill="none" stroke="black" d="M114,-549.5C114,-549.5 114,-407.5 114,-407.5"/>
<path fill="none" stroke="black" d="M114,-405.5C114,-405.5 100,-352.5 100,-352.5 100,-352.5 100,-316.5 100,-316.5 100,-316.5 127,-244.5 127,-244.5 127,-244.5 186.61,-223.15 230.17,-207.55"/>
<polygon fill="black" stroke="black" points="231.07,-210.59 239.3,-203.93 228.71,-204 231.07,-210.59"/>
</g>
<!-- float/float_unbounded&#45;&gt;NASALib/trig -->
<g id="edge42" class="edge">
<title>float/float_unbounded&#45;&gt;NASALib/trig</title>
<path fill="none" stroke="black" d="M114,-549.5C114,-549.5 171.99,-519.43 211.95,-498.71"/>
<polygon fill="black" stroke="black" points="213.41,-501.38 220.68,-493.67 210.19,-495.16 213.41,-501.38"/>
</g>
</g>
</svg>
