<?xml version="1.0" encoding="UTF-8" standalone="no"?>
<!DOCTYPE svg PUBLIC "-//W3C//DTD SVG 1.1//EN"
 "http://www.w3.org/Graphics/SVG/1.1/DTD/svg11.dtd">
<!-- Generated by graphviz version 2.44.1 (20200629.0846)
 -->
<!-- Title: TU_Games&#45;zoomed Pages: 1 -->
<svg width="282pt" height="318pt"
 viewBox="0.00 0.00 282.00 318.00" xmlns="http://www.w3.org/2000/svg" xmlns:xlink="http://www.w3.org/1999/xlink">
<g id="graph0" class="graph" transform="scale(1 1) rotate(0) translate(4 314)">
<title>TU_Games&#45;zoomed</title>
<polygon fill="white" stroke="transparent" points="-4,4 -4,-314 278,-314 278,4 -4,4"/>
<g id="clust1" class="cluster">
<title>cluster_NASALib/TU_Games</title>
<polygon fill="none" stroke="black" points="8,-8 8,-302 170,-302 170,-8 8,-8"/>
<text text-anchor="middle" x="89" y="-286.8" font-family="Times,serif" font-size="14.00">NASALib/TU_Games</text>
</g>
<g id="clust2" class="cluster">
<title>cluster_PVS Prelude</title>
<polygon fill="none" stroke="black" points="178,-8 178,-83 266,-83 266,-8 178,-8"/>
<text text-anchor="middle" x="222" y="-67.8" font-family="Times,serif" font-size="14.00">PVS Prelude</text>
</g>
<!-- lib/finite_sets -->
<g id="node1" class="node">
<title>lib/finite_sets</title>
<polygon fill="#fcfcd7" stroke="black" points="257.5,-52 186.5,-52 186.5,-16 257.5,-16 257.5,-52"/>
<text text-anchor="middle" x="222" y="-30.3" font-family="Times,serif" font-size="14.00">finite_sets</text>
</g>
<!-- nasalib/TU_Games@coalition_fun -->
<g id="node2" class="node">
<title>nasalib/TU_Games@coalition_fun</title>
<ellipse fill="#e6f3ff" stroke="black" cx="94" cy="-109" rx="57.69" ry="18"/>
<text text-anchor="middle" x="94" y="-105.3" font-family="Times,serif" font-size="14.00">coalition_fun</text>
</g>
<!-- nasalib/TU_Games@coalition_fun&#45;&gt;lib/finite_sets -->
<g id="edge1" class="edge">
<title>nasalib/TU_Games@coalition_fun&#45;&gt;lib/finite_sets</title>
<path fill="none" stroke="black" d="M140.95,-98.25C140.95,-77.52 140.95,-34 140.95,-34 140.95,-34 176.21,-34 176.21,-34"/>
<polygon fill="black" stroke="black" points="176.21,-37.5 186.21,-34 176.21,-30.5 176.21,-37.5"/>
</g>
<!-- nasalib/TU_Games@players_set -->
<g id="node4" class="node">
<title>nasalib/TU_Games@players_set</title>
<ellipse fill="#e6f3ff" stroke="black" cx="80" cy="-34" rx="50.09" ry="18"/>
<text text-anchor="middle" x="80" y="-30.3" font-family="Times,serif" font-size="14.00">players_set</text>
</g>
<!-- nasalib/TU_Games@coalition_fun&#45;&gt;nasalib/TU_Games@players_set -->
<g id="edge2" class="edge">
<title>nasalib/TU_Games@coalition_fun&#45;&gt;nasalib/TU_Games@players_set</title>
<path fill="none" stroke="black" d="M83.1,-91.23C83.1,-91.23 83.1,-62.17 83.1,-62.17"/>
<polygon fill="black" stroke="black" points="86.6,-62.17 83.1,-52.17 79.6,-62.17 86.6,-62.17"/>
</g>
<!-- nasalib/TU_Games@imputations -->
<g id="node3" class="node">
<title>nasalib/TU_Games@imputations</title>
<ellipse fill="#e6f3ff" stroke="black" cx="89" cy="-181" rx="52.79" ry="18"/>
<text text-anchor="middle" x="89" y="-177.3" font-family="Times,serif" font-size="14.00">imputations</text>
</g>
<!-- nasalib/TU_Games@imputations&#45;&gt;nasalib/TU_Games@coalition_fun -->
<g id="edge3" class="edge">
<title>nasalib/TU_Games@imputations&#45;&gt;nasalib/TU_Games@coalition_fun</title>
<path fill="none" stroke="black" d="M89,-162.83C89,-162.83 89,-137.41 89,-137.41"/>
<polygon fill="black" stroke="black" points="92.5,-137.41 89,-127.41 85.5,-137.41 92.5,-137.41"/>
</g>
<!-- nasalib/TU_Games@imputations&#45;&gt;nasalib/TU_Games@players_set -->
<g id="edge4" class="edge">
<title>nasalib/TU_Games@imputations&#45;&gt;nasalib/TU_Games@players_set</title>
<path fill="none" stroke="black" d="M36.25,-181C25.79,-181 17.95,-181 17.95,-181 17.95,-181 17.95,-40 17.95,-40 17.95,-40 22.66,-40 22.66,-40"/>
<polygon fill="black" stroke="black" points="22.66,-43.5 32.66,-40 22.66,-36.5 22.66,-43.5"/>
</g>
<!-- nasalib/TU_Games@tu_game -->
<g id="node5" class="node">
<title>nasalib/TU_Games@tu_game</title>
<ellipse fill="#e6f3ff" stroke="black" cx="89" cy="-253" rx="41.69" ry="18"/>
<text text-anchor="middle" x="89" y="-249.3" font-family="Times,serif" font-size="14.00">tu_game</text>
</g>
<!-- nasalib/TU_Games@tu_game&#45;&gt;nasalib/TU_Games@coalition_fun -->
<g id="edge5" class="edge">
<title>nasalib/TU_Games@tu_game&#45;&gt;nasalib/TU_Games@coalition_fun</title>
<path fill="none" stroke="black" d="M130.66,-253C139.77,-253 146.75,-253 146.75,-253 146.75,-253 146.75,-126.74 146.75,-126.74"/>
<polygon fill="black" stroke="black" points="150.25,-126.74 146.75,-116.74 143.25,-126.74 150.25,-126.74"/>
</g>
<!-- nasalib/TU_Games@tu_game&#45;&gt;nasalib/TU_Games@imputations -->
<g id="edge6" class="edge">
<title>nasalib/TU_Games@tu_game&#45;&gt;nasalib/TU_Games@imputations</title>
<path fill="none" stroke="black" d="M89,-234.83C89,-234.83 89,-209.41 89,-209.41"/>
<polygon fill="black" stroke="black" points="92.5,-209.41 89,-199.41 85.5,-209.41 92.5,-209.41"/>
</g>
<!-- nasalib/TU_Games@tu_game&#45;&gt;nasalib/TU_Games@players_set -->
<g id="edge7" class="edge">
<title>nasalib/TU_Games@tu_game&#45;&gt;nasalib/TU_Games@players_set</title>
<path fill="none" stroke="black" d="M46.99,-253C26.39,-253 5.95,-253 5.95,-253 5.95,-253 5.95,-28 5.95,-28 5.95,-28 22.69,-28 22.69,-28"/>
<polygon fill="black" stroke="black" points="22.69,-31.5 32.69,-28 22.69,-24.5 22.69,-31.5"/>
</g>
</g>
</svg>
