<?xml version="1.0" encoding="UTF-8" standalone="no"?>
<!DOCTYPE svg PUBLIC "-//W3C//DTD SVG 1.1//EN"
 "http://www.w3.org/Graphics/SVG/1.1/DTD/svg11.dtd">
<!-- Generated by graphviz version 7.0.6 (20230106.0513)
 -->
<!-- Title: TU_Games&#45;zoomed Pages: 1 -->
<svg width="282pt" height="318pt"
 viewBox="0.00 0.00 282.00 318.00" xmlns="http://www.w3.org/2000/svg" xmlns:xlink="http://www.w3.org/1999/xlink">
<g id="graph0" class="graph" transform="scale(1 1) rotate(0) translate(4 314)">
<title>TU_Games&#45;zoomed</title>
<polygon fill="white" stroke="none" points="-4,4 -4,-314 278,-314 278,4 -4,4"/>
<g id="clust1" class="cluster">
<title>cluster_NASALib/TU_Games</title>
<polygon fill="none" stroke="black" points="8,-8 8,-302 170,-302 170,-8 8,-8"/>
<text text-anchor="middle" x="89" y="-286.8" font-family="Times,serif" font-size="14.00">NASALib/TU_Games</text>
</g>
<g id="clust2" class="cluster">
<title>cluster_PVS Prelude</title>
<polygon fill="none" stroke="black" points="178,-8 178,-83 266,-83 266,-8 178,-8"/>
<text text-anchor="middle" x="222" y="-67.8" font-family="Times,serif" font-size="14.00">PVS Prelude</text>
</g>
<!-- NASALib/TU_Games@coalition_fun -->
<g id="node1" class="node">
<title>NASALib/TU_Games@coalition_fun</title>
<ellipse fill="#e6f3ff" stroke="black" cx="94" cy="-109" rx="57.69" ry="18"/>
<text text-anchor="middle" x="94" y="-105.3" font-family="Times,serif" font-size="14.00">coalition_fun</text>
</g>
<!-- NASALib/TU_Games@players_set -->
<g id="node3" class="node">
<title>NASALib/TU_Games@players_set</title>
<ellipse fill="#e6f3ff" stroke="black" cx="80" cy="-34" rx="50.09" ry="18"/>
<text text-anchor="middle" x="80" y="-30.3" font-family="Times,serif" font-size="14.00">players_set</text>
</g>
<!-- NASALib/TU_Games@coalition_fun&#45;&gt;NASALib/TU_Games@players_set -->
<g id="edge1" class="edge">
<title>NASALib/TU_Games@coalition_fun&#45;&gt;NASALib/TU_Games@players_set</title>
<path fill="none" stroke="black" d="M90.68,-90.7C89.12,-82.58 87.23,-72.68 85.46,-63.5"/>
<polygon fill="black" stroke="black" points="88.95,-63.08 83.63,-53.92 82.07,-64.4 88.95,-63.08"/>
</g>
<!-- lib/finite_sets -->
<g id="node5" class="node">
<title>lib/finite_sets</title>
<polygon fill="#fcfcd7" stroke="black" points="258,-52 186,-52 186,-16 258,-16 258,-52"/>
<text text-anchor="middle" x="222" y="-30.3" font-family="Times,serif" font-size="14.00">finite_sets</text>
</g>
<!-- NASALib/TU_Games@coalition_fun&#45;&gt;lib/finite_sets -->
<g id="edge2" class="edge">
<title>NASALib/TU_Games@coalition_fun&#45;&gt;lib/finite_sets</title>
<path fill="none" stroke="black" d="M133.53,-95.65C153.69,-89.35 174,-83 174,-83 174,-83 185.17,-71.83 196.73,-60.27"/>
<polygon fill="black" stroke="black" points="199,-62.95 203.6,-53.4 194.05,-58 199,-62.95"/>
</g>
<!-- NASALib/TU_Games@imputations -->
<g id="node2" class="node">
<title>NASALib/TU_Games@imputations</title>
<ellipse fill="#e6f3ff" stroke="black" cx="89" cy="-181" rx="52.79" ry="18"/>
<text text-anchor="middle" x="89" y="-177.3" font-family="Times,serif" font-size="14.00">imputations</text>
</g>
<!-- NASALib/TU_Games@imputations&#45;&gt;NASALib/TU_Games@coalition_fun -->
<g id="edge3" class="edge">
<title>NASALib/TU_Games@imputations&#45;&gt;NASALib/TU_Games@coalition_fun</title>
<path fill="none" stroke="black" d="M90.24,-162.7C90.76,-155.41 91.38,-146.73 91.96,-138.54"/>
<polygon fill="black" stroke="black" points="95.45,-138.84 92.67,-128.61 88.47,-138.34 95.45,-138.84"/>
</g>
<!-- NASALib/TU_Games@imputations&#45;&gt;NASALib/TU_Games@players_set -->
<g id="edge4" class="edge">
<title>NASALib/TU_Games@imputations&#45;&gt;NASALib/TU_Games@players_set</title>
<path fill="none" stroke="black" d="M70.06,-163.81C51.83,-148.22 27,-127 27,-127 27,-127 17,-110 17,-110"/>
</g>
<!-- NASALib/TU_Games@tu_game -->
<g id="node4" class="node">
<title>NASALib/TU_Games@tu_game</title>
<ellipse fill="#e6f3ff" stroke="black" cx="89" cy="-253" rx="41.69" ry="18"/>
<text text-anchor="middle" x="89" y="-249.3" font-family="Times,serif" font-size="14.00">tu_game</text>
</g>
<!-- NASALib/TU_Games@tu_game&#45;&gt;NASALib/TU_Games@coalition_fun -->
<g id="edge5" class="edge">
<title>NASALib/TU_Games@tu_game&#45;&gt;NASALib/TU_Games@coalition_fun</title>
<path fill="none" stroke="black" d="M107.27,-236.38C125.56,-220.75 151,-199 151,-199 151,-199 151,-163 151,-163 151,-163 134.95,-148.08 119.88,-134.07"/>
<polygon fill="black" stroke="black" points="122.54,-131.76 112.83,-127.51 117.77,-136.88 122.54,-131.76"/>
</g>
<!-- NASALib/TU_Games@tu_game&#45;&gt;NASALib/TU_Games@imputations -->
<g id="edge6" class="edge">
<title>NASALib/TU_Games@tu_game&#45;&gt;NASALib/TU_Games@imputations</title>
<path fill="none" stroke="black" d="M89,-234.7C89,-227.41 89,-218.73 89,-210.54"/>
<polygon fill="black" stroke="black" points="92.5,-210.62 89,-200.62 85.5,-210.62 92.5,-210.62"/>
</g>
<!-- NASALib/TU_Games@tu_game&#45;&gt;NASALib/TU_Games@players_set -->
<g id="edge7" class="edge">
<title>NASALib/TU_Games@tu_game&#45;&gt;NASALib/TU_Games@players_set</title>
<path fill="none" stroke="black" d="M17,-108C17,-108 27,-91 27,-91 27,-91 42.48,-74.64 56.71,-59.6"/>
<polygon fill="black" stroke="black" points="59.01,-62.27 63.34,-52.6 53.93,-57.46 59.01,-62.27"/>
<path fill="none" stroke="black" d="M70.73,-236.38C52.44,-220.75 27,-199 27,-199 27,-199 17,-110 17,-110"/>
</g>
</g>
</svg>
