<?xml version="1.0" encoding="UTF-8" standalone="no"?>
<!DOCTYPE svg PUBLIC "-//W3C//DTD SVG 1.1//EN"
 "http://www.w3.org/Graphics/SVG/1.1/DTD/svg11.dtd">
<!-- Generated by graphviz version 7.0.6 (20230106.0513)
 -->
<!-- Title: TU_Games Pages: 1 -->
<svg width="120pt" height="182pt"
 viewBox="0.00 0.00 120.00 182.00" xmlns="http://www.w3.org/2000/svg" xmlns:xlink="http://www.w3.org/1999/xlink">
<g id="graph0" class="graph" transform="scale(1 1) rotate(0) translate(4 178)">
<title>TU_Games</title>
<polygon fill="white" stroke="none" points="-4,4 -4,-178 116,-178 116,4 -4,4"/>
<g id="clust1" class="cluster">
<title>cluster_NASALib</title>
<polygon fill="none" stroke="black" points="8,-91 8,-166 104,-166 104,-91 8,-91"/>
<text text-anchor="middle" x="56" y="-150.8" font-family="Times,serif" font-size="14.00">NASALib</text>
</g>
<g id="clust2" class="cluster">
<title>cluster_PVS Prelude</title>
<polygon fill="none" stroke="black" points="12,-8 12,-83 100,-83 100,-8 12,-8"/>
<text text-anchor="middle" x="56" y="-67.8" font-family="Times,serif" font-size="14.00">PVS Prelude</text>
</g>
<!-- NASALib/TU_Games -->
<g id="node1" class="node">
<title>NASALib/TU_Games</title>
<polygon fill="#f7e28d" stroke="black" points="96,-135 16,-135 16,-99 96,-99 96,-135"/>
<text text-anchor="middle" x="56" y="-113.3" font-family="Times,serif" font-size="14.00">TU_Games</text>
</g>
<!-- lib/finite_sets -->
<g id="node2" class="node">
<title>lib/finite_sets</title>
<polygon fill="#fcfcd7" stroke="black" points="92,-52 20,-52 20,-16 92,-16 92,-52"/>
<text text-anchor="middle" x="56" y="-30.3" font-family="Times,serif" font-size="14.00">finite_sets</text>
</g>
<!-- NASALib/TU_Games&#45;&gt;lib/finite_sets -->
<g id="edge1" class="edge">
<title>NASALib/TU_Games&#45;&gt;lib/finite_sets</title>
<path fill="none" stroke="black" d="M56,-98.82C56,-88.69 56,-75.6 56,-63.92"/>
<polygon fill="black" stroke="black" points="59.5,-63.95 56,-53.95 52.5,-63.95 59.5,-63.95"/>
</g>
</g>
</svg>
