<?xml version="1.0" encoding="UTF-8" standalone="no"?>
<!DOCTYPE svg PUBLIC "-//W3C//DTD SVG 1.1//EN"
 "http://www.w3.org/Graphics/SVG/1.1/DTD/svg11.dtd">
<!-- Generated by graphviz version 8.0.4 (20230421.1958)
 -->
<!-- Title: TU_Games&#45;zoomed Pages: 1 -->
<svg width="286pt" height="321pt"
 viewBox="0.00 0.00 286.00 321.00" xmlns="http://www.w3.org/2000/svg" xmlns:xlink="http://www.w3.org/1999/xlink">
<g id="graph0" class="graph" transform="scale(1 1) rotate(0) translate(4 317)">
<title>TU_Games&#45;zoomed</title>
<polygon fill="white" stroke="none" points="-4,4 -4,-317 282,-317 282,4 -4,4"/>
<g id="clust1" class="cluster">
<title>cluster_NASALib/TU_Games</title>
<polygon fill="none" stroke="black" points="8,-8 8,-305 174,-305 174,-8 8,-8"/>
<text text-anchor="middle" x="91" y="-287.7" font-family="Times,serif" font-size="14.00">NASALib/TU_Games</text>
</g>
<g id="clust2" class="cluster">
<title>cluster_PVS Prelude</title>
<polygon fill="none" stroke="black" points="182,-8 182,-84.5 270,-84.5 270,-8 182,-8"/>
<text text-anchor="middle" x="226" y="-67.2" font-family="Times,serif" font-size="14.00">PVS Prelude</text>
</g>
<!-- NASALib/TU_Games@coalition_fun -->
<g id="node1" class="node">
<title>NASALib/TU_Games@coalition_fun</title>
<ellipse fill="#e6f3ff" stroke="black" cx="96" cy="-110.5" rx="60.05" ry="18"/>
<text text-anchor="middle" x="96" y="-105.45" font-family="Times,serif" font-size="14.00">coalition_fun</text>
</g>
<!-- NASALib/TU_Games@players_set -->
<g id="node3" class="node">
<title>NASALib/TU_Games@players_set</title>
<ellipse fill="#e6f3ff" stroke="black" cx="82" cy="-34" rx="52.38" ry="18"/>
<text text-anchor="middle" x="82" y="-28.95" font-family="Times,serif" font-size="14.00">players_set</text>
</g>
<!-- NASALib/TU_Games@coalition_fun&#45;&gt;NASALib/TU_Games@players_set -->
<g id="edge1" class="edge">
<title>NASALib/TU_Games@coalition_fun&#45;&gt;NASALib/TU_Games@players_set</title>
<path fill="none" stroke="black" d="M92.75,-92.22C91.12,-83.54 89.1,-72.8 87.26,-62.98"/>
<polygon fill="black" stroke="black" points="90.56,-62.62 85.28,-53.44 83.69,-63.92 90.56,-62.62"/>
</g>
<!-- lib/finite_sets -->
<g id="node5" class="node">
<title>lib/finite_sets</title>
<polygon fill="#fcfcd7" stroke="black" points="261.75,-52 190.25,-52 190.25,-16 261.75,-16 261.75,-52"/>
<text text-anchor="middle" x="226" y="-28.95" font-family="Times,serif" font-size="14.00">finite_sets</text>
</g>
<!-- NASALib/TU_Games@coalition_fun&#45;&gt;lib/finite_sets -->
<g id="edge2" class="edge">
<title>NASALib/TU_Games@coalition_fun&#45;&gt;lib/finite_sets</title>
<path fill="none" stroke="black" d="M137,-97C157.5,-90.75 178,-84.5 178,-84.5 178,-84.5 189.91,-72.22 201.87,-59.89"/>
<polygon fill="black" stroke="black" points="203.76,-62.93 208.21,-53.31 198.74,-58.06 203.76,-62.93"/>
</g>
<!-- NASALib/TU_Games@imputations -->
<g id="node2" class="node">
<title>NASALib/TU_Games@imputations</title>
<ellipse fill="#e6f3ff" stroke="black" cx="91" cy="-182.5" rx="54.93" ry="18"/>
<text text-anchor="middle" x="91" y="-177.45" font-family="Times,serif" font-size="14.00">imputations</text>
</g>
<!-- NASALib/TU_Games@imputations&#45;&gt;NASALib/TU_Games@coalition_fun -->
<g id="edge3" class="edge">
<title>NASALib/TU_Games@imputations&#45;&gt;NASALib/TU_Games@coalition_fun</title>
<path fill="none" stroke="black" d="M92.24,-164.2C92.77,-156.74 93.41,-147.82 94,-139.47"/>
<polygon fill="black" stroke="black" points="97.56,-139.83 94.78,-129.6 90.57,-139.33 97.56,-139.83"/>
</g>
<!-- NASALib/TU_Games@imputations&#45;&gt;NASALib/TU_Games@players_set -->
<g id="edge4" class="edge">
<title>NASALib/TU_Games@imputations&#45;&gt;NASALib/TU_Games@players_set</title>
<path fill="none" stroke="black" d="M71.45,-165.31C52.63,-149.72 27,-128.5 27,-128.5 27,-128.5 17,-111.5 17,-111.5"/>
</g>
<!-- NASALib/TU_Games@tu_game -->
<g id="node4" class="node">
<title>NASALib/TU_Games@tu_game</title>
<ellipse fill="#e6f3ff" stroke="black" cx="91" cy="-254.5" rx="43.16" ry="18"/>
<text text-anchor="middle" x="91" y="-249.45" font-family="Times,serif" font-size="14.00">tu_game</text>
</g>
<!-- NASALib/TU_Games@tu_game&#45;&gt;NASALib/TU_Games@coalition_fun -->
<g id="edge5" class="edge">
<title>NASALib/TU_Games@tu_game&#45;&gt;NASALib/TU_Games@coalition_fun</title>
<path fill="none" stroke="black" d="M109.86,-237.88C128.73,-222.25 155,-200.5 155,-200.5 155,-200.5 155,-164.5 155,-164.5 155,-164.5 138.08,-149.3 122.36,-135.18"/>
<polygon fill="black" stroke="black" points="125.12,-133.06 115.34,-128.98 120.44,-138.27 125.12,-133.06"/>
</g>
<!-- NASALib/TU_Games@tu_game&#45;&gt;NASALib/TU_Games@imputations -->
<g id="edge6" class="edge">
<title>NASALib/TU_Games@tu_game&#45;&gt;NASALib/TU_Games@imputations</title>
<path fill="none" stroke="black" d="M91,-236.2C91,-228.74 91,-219.82 91,-211.47"/>
<polygon fill="black" stroke="black" points="94.5,-211.6 91,-201.6 87.5,-211.6 94.5,-211.6"/>
</g>
<!-- NASALib/TU_Games@tu_game&#45;&gt;NASALib/TU_Games@players_set -->
<g id="edge7" class="edge">
<title>NASALib/TU_Games@tu_game&#45;&gt;NASALib/TU_Games@players_set</title>
<path fill="none" stroke="black" d="M17,-109.5C17,-109.5 27,-92.5 27,-92.5 27,-92.5 43.57,-75.18 58.52,-59.55"/>
<polygon fill="black" stroke="black" points="60.71,-62.28 65.09,-52.63 55.65,-57.44 60.71,-62.28"/>
<path fill="none" stroke="black" d="M72.14,-237.88C53.27,-222.25 27,-200.5 27,-200.5 27,-200.5 17,-111.5 17,-111.5"/>
</g>
</g>
</svg>
