<?xml version="1.0" encoding="UTF-8" standalone="no"?>
<!DOCTYPE svg PUBLIC "-//W3C//DTD SVG 1.1//EN"
 "http://www.w3.org/Graphics/SVG/1.1/DTD/svg11.dtd">
<!-- Generated by graphviz version 2.40.1 (20161225.0304)
 -->
<!-- Title: TU_Games Pages: 1 -->
<svg width="120pt" height="180pt"
 viewBox="0.00 0.00 120.00 180.00" xmlns="http://www.w3.org/2000/svg" xmlns:xlink="http://www.w3.org/1999/xlink">
<g id="graph0" class="graph" transform="scale(1 1) rotate(0) translate(4 176)">
<title>TU_Games</title>
<polygon fill="#ffffff" stroke="transparent" points="-4,4 -4,-176 116,-176 116,4 -4,4"/>
<g id="clust1" class="cluster">
<title>cluster_NASALib</title>
<polygon fill="none" stroke="#000000" points="8,-90 8,-164 104,-164 104,-90 8,-90"/>
<text text-anchor="middle" x="56" y="-148.8" font-family="Times,serif" font-size="14.00" fill="#000000">NASALib</text>
</g>
<g id="clust2" class="cluster">
<title>cluster_PVS Prelude</title>
<polygon fill="none" stroke="#000000" points="12,-8 12,-82 100,-82 100,-8 12,-8"/>
<text text-anchor="middle" x="56" y="-66.8" font-family="Times,serif" font-size="14.00" fill="#000000">PVS Prelude</text>
</g>
<!-- /Users/mmoscato/Workspace/Workbench/pvs/dependency&#45;all/Users/mmoscato/pvs/pvs/lib/finite_sets -->
<g id="node1" class="node">
<title>/Users/mmoscato/Workspace/Workbench/pvs/dependency&#45;all/Users/mmoscato/pvs/pvs/lib/finite_sets</title>
<polygon fill="#fcfcd7" stroke="#000000" points="92.2796,-52 19.7204,-52 19.7204,-16 92.2796,-16 92.2796,-52"/>
<text text-anchor="middle" x="56" y="-29.8" font-family="Times,serif" font-size="14.00" fill="#000000">finite_sets</text>
</g>
<!-- /Users/mmoscato/Workspace/Workbench/pvs/dependency&#45;all/Users/mmoscato/pvs/pvs/nasalib/TU_Games -->
<g id="node2" class="node">
<title>/Users/mmoscato/Workspace/Workbench/pvs/dependency&#45;all/Users/mmoscato/pvs/pvs/nasalib/TU_Games</title>
<polygon fill="#f7e28d" stroke="#000000" points="96.0394,-134 15.9606,-134 15.9606,-98 96.0394,-98 96.0394,-134"/>
<text text-anchor="middle" x="56" y="-111.8" font-family="Times,serif" font-size="14.00" fill="#000000">TU_Games</text>
</g>
<!-- /Users/mmoscato/Workspace/Workbench/pvs/dependency&#45;all/Users/mmoscato/pvs/pvs/nasalib/TU_Games&#45;&gt;/Users/mmoscato/Workspace/Workbench/pvs/dependency&#45;all/Users/mmoscato/pvs/pvs/lib/finite_sets -->
<g id="edge1" class="edge">
<title>/Users/mmoscato/Workspace/Workbench/pvs/dependency&#45;all/Users/mmoscato/pvs/pvs/nasalib/TU_Games&#45;&gt;/Users/mmoscato/Workspace/Workbench/pvs/dependency&#45;all/Users/mmoscato/pvs/pvs/lib/finite_sets</title>
<path fill="none" stroke="#000000" d="M56,-97.8015C56,-97.8015 56,-62.1476 56,-62.1476"/>
<polygon fill="#000000" stroke="#000000" points="59.5001,-62.1476 56,-52.1476 52.5001,-62.1476 59.5001,-62.1476"/>
</g>
</g>
</svg>
