<?xml version="1.0" encoding="UTF-8" standalone="no"?>
<!DOCTYPE svg PUBLIC "-//W3C//DTD SVG 1.1//EN"
 "http://www.w3.org/Graphics/SVG/1.1/DTD/svg11.dtd">
<!-- Generated by graphviz version 8.0.4 (20230421.1958)
 -->
<!-- Title: TU_Games Pages: 1 -->
<svg width="120pt" height="185pt"
 viewBox="0.00 0.00 120.00 185.00" xmlns="http://www.w3.org/2000/svg" xmlns:xlink="http://www.w3.org/1999/xlink">
<g id="graph0" class="graph" transform="scale(1 1) rotate(0) translate(4 181)">
<title>TU_Games</title>
<polygon fill="white" stroke="none" points="-4,4 -4,-181 116,-181 116,4 -4,4"/>
<g id="clust1" class="cluster">
<title>cluster_NASALib</title>
<polygon fill="none" stroke="black" points="8,-92.5 8,-169 104,-169 104,-92.5 8,-92.5"/>
<text text-anchor="middle" x="56" y="-151.7" font-family="Times,serif" font-size="14.00">NASALib</text>
</g>
<g id="clust2" class="cluster">
<title>cluster_PVS Prelude</title>
<polygon fill="none" stroke="black" points="12,-8 12,-84.5 100,-84.5 100,-8 12,-8"/>
<text text-anchor="middle" x="56" y="-67.2" font-family="Times,serif" font-size="14.00">PVS Prelude</text>
</g>
<!-- NASALib/TU_Games -->
<g id="node1" class="node">
<title>NASALib/TU_Games</title>
<polygon fill="#f7e28d" stroke="black" points="95.5,-136.5 16.5,-136.5 16.5,-100.5 95.5,-100.5 95.5,-136.5"/>
<text text-anchor="middle" x="56" y="-113.45" font-family="Times,serif" font-size="14.00">TU_Games</text>
</g>
<!-- lib/finite_sets -->
<g id="node2" class="node">
<title>lib/finite_sets</title>
<polygon fill="#fcfcd7" stroke="black" points="91.75,-52 20.25,-52 20.25,-16 91.75,-16 91.75,-52"/>
<text text-anchor="middle" x="56" y="-28.95" font-family="Times,serif" font-size="14.00">finite_sets</text>
</g>
<!-- NASALib/TU_Games&#45;&gt;lib/finite_sets -->
<g id="edge1" class="edge">
<title>NASALib/TU_Games&#45;&gt;lib/finite_sets</title>
<path fill="none" stroke="black" d="M56,-100C56,-89.39 56,-75.6 56,-63.46"/>
<polygon fill="black" stroke="black" points="59.5,-63.47 56,-53.47 52.5,-63.47 59.5,-63.47"/>
</g>
</g>
</svg>
