<?xml version="1.0" encoding="UTF-8" standalone="no"?>
<!DOCTYPE svg PUBLIC "-//W3C//DTD SVG 1.1//EN"
 "http://www.w3.org/Graphics/SVG/1.1/DTD/svg11.dtd">
<!-- Generated by graphviz version 12.2.1 (20241206.2353)
 -->
<!-- Title: algebra&#45;algebra_examples&#45;zoomed Pages: 1 -->
<svg width="1216pt" height="401pt"
 viewBox="0.00 0.00 1216.00 401.00" xmlns="http://www.w3.org/2000/svg" xmlns:xlink="http://www.w3.org/1999/xlink">
<g id="graph0" class="graph" transform="scale(1 1) rotate(0) translate(4 397)">
<title>algebra&#45;algebra_examples&#45;zoomed</title>
<polygon fill="white" stroke="none" points="-4,4 -4,-397 1212,-397 1212,4 -4,4"/>
<g id="clust1" class="cluster">
<title>cluster_NASALib</title>
<polygon fill="none" stroke="black" points="656,-8 656,-84.5 1139,-84.5 1139,-8 656,-8"/>
<text text-anchor="middle" x="897.5" y="-67.2" font-family="Times,serif" font-size="14.00">NASALib</text>
</g>
<g id="clust2" class="cluster">
<title>cluster_algebra/algebra_examples</title>
<polygon fill="none" stroke="black" points="8,-92.5 8,-385 1174,-385 1174,-92.5 8,-92.5"/>
<text text-anchor="middle" x="591" y="-367.7" font-family="Times,serif" font-size="14.00">algebra/algebra_examples</text>
</g>
<!-- algebra/algebra_examples@boolean_ring_w_one_homomorphisms -->
<g id="node1" class="node">
<title>algebra/algebra_examples@boolean_ring_w_one_homomorphisms</title>
<ellipse fill="#e6f3ff" stroke="black" cx="173" cy="-262.5" rx="156.78" ry="18"/>
<text text-anchor="middle" x="173" y="-257.45" font-family="Times,serif" font-size="14.00">boolean_ring_w_one_homomorphisms</text>
</g>
<!-- algebra/algebra_examples@ring_zn -->
<g id="node7" class="node">
<title>algebra/algebra_examples@ring_zn</title>
<ellipse fill="#e6f3ff" stroke="black" cx="586" cy="-190.5" rx="39.07" ry="18"/>
<text text-anchor="middle" x="586" y="-185.45" font-family="Times,serif" font-size="14.00">ring_zn</text>
</g>
<!-- algebra/algebra_examples@boolean_ring_w_one_homomorphisms&#45;&gt;algebra/algebra_examples@ring_zn -->
<g id="edge1" class="edge">
<title>algebra/algebra_examples@boolean_ring_w_one_homomorphisms&#45;&gt;algebra/algebra_examples@ring_zn</title>
<path fill="none" stroke="black" d="M258.57,-247C343.33,-232.63 470.06,-211.15 538.34,-199.58"/>
<polygon fill="black" stroke="black" points="538.81,-203.05 548.09,-197.93 537.64,-196.15 538.81,-203.05"/>
</g>
<!-- pvslib/algebra -->
<g id="node10" class="node">
<title>pvslib/algebra</title>
<polygon fill="#fcfcd7" stroke="black" points="949.88,-52 894.12,-52 894.12,-16 949.88,-16 949.88,-52"/>
<text text-anchor="middle" x="922" y="-28.95" font-family="Times,serif" font-size="14.00">algebra</text>
</g>
<!-- algebra/algebra_examples@boolean_ring_w_one_homomorphisms&#45;&gt;pvslib/algebra -->
<g id="edge2" class="edge">
<title>algebra/algebra_examples@boolean_ring_w_one_homomorphisms&#45;&gt;pvslib/algebra</title>
<path fill="none" stroke="black" d="M282.06,-249.19C459.96,-229.1 793,-191.5 793,-191.5"/>
<path fill="none" stroke="black" d="M793,-189.5C793,-189.5 885,-84.5 885,-84.5 885,-84.5 893.5,-73.13 902.36,-61.28"/>
<polygon fill="black" stroke="black" points="904.97,-63.63 908.15,-53.52 899.36,-59.44 904.97,-63.63"/>
</g>
<!-- algebra/algebra_examples@chinese_remainder_theorem_Z -->
<g id="node2" class="node">
<title>algebra/algebra_examples@chinese_remainder_theorem_Z</title>
<ellipse fill="#e6f3ff" stroke="black" cx="793" cy="-262.5" rx="126.59" ry="18"/>
<text text-anchor="middle" x="793" y="-257.45" font-family="Times,serif" font-size="14.00">chinese_remainder_theorem_Z</text>
</g>
<!-- algebra/algebra_examples@chinese_remainder_theorem_Z&#45;&gt;algebra/algebra_examples@ring_zn -->
<g id="edge3" class="edge">
<title>algebra/algebra_examples@chinese_remainder_theorem_Z&#45;&gt;algebra/algebra_examples@ring_zn</title>
<path fill="none" stroke="black" d="M745.51,-245.44C709.86,-233.38 661.52,-217.04 627.43,-205.51"/>
<polygon fill="black" stroke="black" points="628.92,-202.32 618.33,-202.43 626.68,-208.95 628.92,-202.32"/>
</g>
<!-- algebra/algebra_examples@chinese_remainder_theorem_Z&#45;&gt;pvslib/algebra -->
<g id="edge4" class="edge">
<title>algebra/algebra_examples@chinese_remainder_theorem_Z&#45;&gt;pvslib/algebra</title>
<path fill="none" stroke="black" d="M793,-244.2C793,-223.47 793,-191.5 793,-191.5"/>
</g>
<!-- pvslib/sets_aux -->
<g id="node14" class="node">
<title>pvslib/sets_aux</title>
<polygon fill="#fcfcd7" stroke="black" points="1030.25,-52 967.75,-52 967.75,-16 1030.25,-16 1030.25,-52"/>
<text text-anchor="middle" x="999" y="-28.95" font-family="Times,serif" font-size="14.00">sets_aux</text>
</g>
<!-- algebra/algebra_examples@chinese_remainder_theorem_Z&#45;&gt;pvslib/sets_aux -->
<g id="edge5" class="edge">
<title>algebra/algebra_examples@chinese_remainder_theorem_Z&#45;&gt;pvslib/sets_aux</title>
<path fill="none" stroke="black" d="M850.16,-246.05C926.43,-225.44 1052,-191.5 1052,-191.5"/>
<path fill="none" stroke="black" d="M1052,-189.5C1052,-189.5 1023.94,-107.69 1008.65,-63.13"/>
<polygon fill="black" stroke="black" points="1012.02,-62.18 1005.47,-53.85 1005.4,-64.45 1012.02,-62.18"/>
</g>
<!-- algebra/algebra_examples@euclidean_domain -->
<g id="node3" class="node">
<title>algebra/algebra_examples@euclidean_domain</title>
<ellipse fill="#e6f3ff" stroke="black" cx="427" cy="-262.5" rx="78.99" ry="18"/>
<text text-anchor="middle" x="427" y="-257.45" font-family="Times,serif" font-size="14.00">euclidean_domain</text>
</g>
<!-- algebra/algebra_examples@euclidean_domain&#45;&gt;algebra/algebra_examples@ring_zn -->
<g id="edge6" class="edge">
<title>algebra/algebra_examples@euclidean_domain&#45;&gt;algebra/algebra_examples@ring_zn</title>
<path fill="none" stroke="black" d="M462.29,-245.96C487.78,-234.74 522.16,-219.61 548.21,-208.14"/>
<polygon fill="black" stroke="black" points="549.33,-211.47 557.07,-204.24 546.51,-205.06 549.33,-211.47"/>
</g>
<!-- algebra/algebra_examples@euclidean_domain&#45;&gt;pvslib/algebra -->
<g id="edge7" class="edge">
<title>algebra/algebra_examples@euclidean_domain&#45;&gt;pvslib/algebra</title>
<path fill="none" stroke="black" d="M485.7,-250.16C501.84,-247.04 515,-244.5 515,-244.5 515,-244.5 793,-191.5 793,-191.5"/>
</g>
<!-- algebra/algebra_examples@finseq_rel_prime -->
<g id="node4" class="node">
<title>algebra/algebra_examples@finseq_rel_prime</title>
<ellipse fill="#e6f3ff" stroke="black" cx="586" cy="-118.5" rx="74.38" ry="18"/>
<text text-anchor="middle" x="586" y="-113.45" font-family="Times,serif" font-size="14.00">finseq_rel_prime</text>
</g>
<!-- pvslib/ints -->
<g id="node12" class="node">
<title>pvslib/ints</title>
<polygon fill="#fcfcd7" stroke="black" points="876,-52 822,-52 822,-16 876,-16 876,-52"/>
<text text-anchor="middle" x="849" y="-28.95" font-family="Times,serif" font-size="14.00">ints</text>
</g>
<!-- algebra/algebra_examples@finseq_rel_prime&#45;&gt;pvslib/ints -->
<g id="edge8" class="edge">
<title>algebra/algebra_examples@finseq_rel_prime&#45;&gt;pvslib/ints</title>
<path fill="none" stroke="black" d="M646.37,-107.76C689.89,-100.74 741,-92.5 741,-92.5 741,-92.5 813,-84.5 813,-84.5 813,-84.5 821.27,-73.13 829.89,-61.28"/>
<polygon fill="black" stroke="black" points="832.47,-63.68 835.52,-53.54 826.81,-59.57 832.47,-63.68"/>
</g>
<!-- pvslib/reals -->
<g id="node13" class="node">
<title>pvslib/reals</title>
<polygon fill="#fcfcd7" stroke="black" points="718,-52 664,-52 664,-16 718,-16 718,-52"/>
<text text-anchor="middle" x="691" y="-28.95" font-family="Times,serif" font-size="14.00">reals</text>
</g>
<!-- algebra/algebra_examples@finseq_rel_prime&#45;&gt;pvslib/reals -->
<g id="edge9" class="edge">
<title>algebra/algebra_examples@finseq_rel_prime&#45;&gt;pvslib/reals</title>
<path fill="none" stroke="black" d="M607.25,-100.8C622.42,-88.89 643.06,-72.67 660.05,-59.32"/>
<polygon fill="black" stroke="black" points="662.17,-62.1 667.87,-53.17 657.84,-56.6 662.17,-62.1"/>
</g>
<!-- pvslib/structures -->
<g id="node15" class="node">
<title>pvslib/structures</title>
<polygon fill="#fcfcd7" stroke="black" points="804.25,-52 735.75,-52 735.75,-16 804.25,-16 804.25,-52"/>
<text text-anchor="middle" x="770" y="-28.95" font-family="Times,serif" font-size="14.00">structures</text>
</g>
<!-- algebra/algebra_examples@finseq_rel_prime&#45;&gt;pvslib/structures -->
<g id="edge10" class="edge">
<title>algebra/algebra_examples@finseq_rel_prime&#45;&gt;pvslib/structures</title>
<path fill="none" stroke="black" d="M638.1,-105.31C678.27,-95.91 727,-84.5 727,-84.5 727,-84.5 737.08,-72.9 747.47,-60.93"/>
<polygon fill="black" stroke="black" points="750.05,-63.3 753.97,-53.46 744.77,-58.71 750.05,-63.3"/>
</g>
<!-- algebra/algebra_examples@ring_euclidean_gcd_algorithm_Z -->
<g id="node5" class="node">
<title>algebra/algebra_examples@ring_euclidean_gcd_algorithm_Z</title>
<ellipse fill="#e6f3ff" stroke="black" cx="427" cy="-334.5" rx="134.78" ry="18"/>
<text text-anchor="middle" x="427" y="-329.45" font-family="Times,serif" font-size="14.00">ring_euclidean_gcd_algorithm_Z</text>
</g>
<!-- algebra/algebra_examples@ring_euclidean_gcd_algorithm_Z&#45;&gt;algebra/algebra_examples@euclidean_domain -->
<g id="edge11" class="edge">
<title>algebra/algebra_examples@ring_euclidean_gcd_algorithm_Z&#45;&gt;algebra/algebra_examples@euclidean_domain</title>
<path fill="none" stroke="black" d="M427,-316.2C427,-308.91 427,-300.23 427,-292.04"/>
<polygon fill="black" stroke="black" points="430.5,-292.12 427,-282.12 423.5,-292.12 430.5,-292.12"/>
</g>
<!-- algebra/algebra_examples@ring_euclidean_gcd_algorithm_Z&#45;&gt;pvslib/algebra -->
<g id="edge14" class="edge">
<title>algebra/algebra_examples@ring_euclidean_gcd_algorithm_Z&#45;&gt;pvslib/algebra</title>
<path fill="none" stroke="black" d="M543.93,-325.25C755.01,-310.35 1178,-280.5 1178,-280.5 1178,-280.5 1178,-244.5 1178,-244.5 1178,-244.5 793,-191.5 793,-191.5"/>
</g>
<!-- algebra/algebra_examples@ring_euclidean_gcd_algorithm_Zi -->
<g id="node6" class="node">
<title>algebra/algebra_examples@ring_euclidean_gcd_algorithm_Zi</title>
<ellipse fill="#e6f3ff" stroke="black" cx="1029" cy="-334.5" rx="137.34" ry="18"/>
<text text-anchor="middle" x="1029" y="-329.45" font-family="Times,serif" font-size="14.00">ring_euclidean_gcd_algorithm_Zi</text>
</g>
<!-- algebra/algebra_examples@ring_euclidean_gcd_algorithm_Zi&#45;&gt;pvslib/algebra -->
<g id="edge12" class="edge">
<title>algebra/algebra_examples@ring_euclidean_gcd_algorithm_Zi&#45;&gt;pvslib/algebra</title>
<path fill="none" stroke="black" d="M1082.71,-317.6C1135.43,-301.99 1208,-280.5 1208,-280.5 1208,-280.5 1208,-244.5 1208,-244.5 1208,-244.5 1090,-119.5 1090,-119.5"/>
<path fill="none" stroke="black" d="M1090,-117.5C1090,-117.5 959,-84.5 959,-84.5 959,-84.5 950.5,-73.13 941.64,-61.28"/>
<polygon fill="black" stroke="black" points="944.64,-59.44 935.85,-53.52 939.03,-63.63 944.64,-59.44"/>
</g>
<!-- pvslib/complex_ax -->
<g id="node11" class="node">
<title>pvslib/complex_ax</title>
<polygon fill="#fcfcd7" stroke="black" points="1131.38,-52 1048.62,-52 1048.62,-16 1131.38,-16 1131.38,-52"/>
<text text-anchor="middle" x="1090" y="-28.95" font-family="Times,serif" font-size="14.00">complex_ax</text>
</g>
<!-- algebra/algebra_examples@ring_euclidean_gcd_algorithm_Zi&#45;&gt;pvslib/complex_ax -->
<g id="edge13" class="edge">
<title>algebra/algebra_examples@ring_euclidean_gcd_algorithm_Zi&#45;&gt;pvslib/complex_ax</title>
<path fill="none" stroke="black" d="M1090,-117.5C1090,-117.5 1090,-87.65 1090,-63.86"/>
<polygon fill="black" stroke="black" points="1093.5,-64.01 1090,-54.01 1086.5,-64.01 1093.5,-64.01"/>
</g>
<!-- algebra/algebra_examples@ring_zn&#45;&gt;algebra/algebra_examples@finseq_rel_prime -->
<g id="edge17" class="edge">
<title>algebra/algebra_examples@ring_zn&#45;&gt;algebra/algebra_examples@finseq_rel_prime</title>
<path fill="none" stroke="black" d="M586,-172.2C586,-164.91 586,-156.23 586,-148.04"/>
<polygon fill="black" stroke="black" points="589.5,-148.12 586,-138.12 582.5,-148.12 589.5,-148.12"/>
</g>
<!-- algebra/algebra_examples@ring_zn&#45;&gt;pvslib/algebra -->
<g id="edge18" class="edge">
<title>algebra/algebra_examples@ring_zn&#45;&gt;pvslib/algebra</title>
<path fill="none" stroke="black" d="M755,-117.5C755,-117.5 779,-92.5 779,-92.5 779,-92.5 885,-84.5 885,-84.5 885,-84.5 893.5,-73.13 902.36,-61.28"/>
<polygon fill="black" stroke="black" points="904.97,-63.63 908.15,-53.52 899.36,-59.44 904.97,-63.63"/>
</g>
<!-- algebra/algebra_examples@ring_zn&#45;&gt;pvslib/ints -->
<g id="edge19" class="edge">
<title>algebra/algebra_examples@ring_zn&#45;&gt;pvslib/ints</title>
<path fill="none" stroke="black" d="M755,-117.5C755,-117.5 779,-92.5 779,-92.5 779,-92.5 813,-84.5 813,-84.5 813,-84.5 821.27,-73.13 829.89,-61.28"/>
<polygon fill="black" stroke="black" points="832.47,-63.68 835.52,-53.54 826.81,-59.57 832.47,-63.68"/>
<path fill="none" stroke="black" d="M614.29,-177.78C662.4,-157.86 755,-119.5 755,-119.5"/>
</g>
<!-- algebra/algebra_examples@ring_zn_extra -->
<g id="node8" class="node">
<title>algebra/algebra_examples@ring_zn_extra</title>
<ellipse fill="#e6f3ff" stroke="black" cx="586" cy="-262.5" rx="62.1" ry="18"/>
<text text-anchor="middle" x="586" y="-257.45" font-family="Times,serif" font-size="14.00">ring_zn_extra</text>
</g>
<!-- algebra/algebra_examples@ring_zn_extra&#45;&gt;algebra/algebra_examples@ring_zn -->
<g id="edge15" class="edge">
<title>algebra/algebra_examples@ring_zn_extra&#45;&gt;algebra/algebra_examples@ring_zn</title>
<path fill="none" stroke="black" d="M586,-244.2C586,-236.91 586,-228.23 586,-220.04"/>
<polygon fill="black" stroke="black" points="589.5,-220.12 586,-210.12 582.5,-220.12 589.5,-220.12"/>
</g>
<!-- algebra/algebra_examples@ring_zn_extra&#45;&gt;pvslib/algebra -->
<g id="edge16" class="edge">
<title>algebra/algebra_examples@ring_zn_extra&#45;&gt;pvslib/algebra</title>
<path fill="none" stroke="black" d="M625.42,-248.17C685.48,-227.86 793,-191.5 793,-191.5"/>
</g>
<!-- algebra/algebra_examples@zn_example_2isomorphism -->
<g id="node9" class="node">
<title>algebra/algebra_examples@zn_example_2isomorphism</title>
<ellipse fill="#e6f3ff" stroke="black" cx="1052" cy="-262.5" rx="114.3" ry="18"/>
<text text-anchor="middle" x="1052" y="-257.45" font-family="Times,serif" font-size="14.00">zn_example_2isomorphism</text>
</g>
<!-- algebra/algebra_examples@zn_example_2isomorphism&#45;&gt;algebra/algebra_examples@ring_zn -->
<g id="edge20" class="edge">
<title>algebra/algebra_examples@zn_example_2isomorphism&#45;&gt;algebra/algebra_examples@ring_zn</title>
<path fill="none" stroke="black" d="M971.36,-249.39C874.03,-234.77 713.54,-210.66 633.9,-198.7"/>
<polygon fill="black" stroke="black" points="634.66,-195.27 624.25,-197.25 633.62,-202.19 634.66,-195.27"/>
</g>
<!-- algebra/algebra_examples@zn_example_2isomorphism&#45;&gt;pvslib/algebra -->
<g id="edge21" class="edge">
<title>algebra/algebra_examples@zn_example_2isomorphism&#45;&gt;pvslib/algebra</title>
<path fill="none" stroke="black" d="M996.12,-246.4C919.98,-225.82 793,-191.5 793,-191.5"/>
</g>
<!-- algebra/algebra_examples@zn_example_2isomorphism&#45;&gt;pvslib/sets_aux -->
<g id="edge22" class="edge">
<title>algebra/algebra_examples@zn_example_2isomorphism&#45;&gt;pvslib/sets_aux</title>
<path fill="none" stroke="black" d="M1052,-244.2C1052,-223.47 1052,-191.5 1052,-191.5"/>
</g>
</g>
</svg>
