<?xml version="1.0" encoding="UTF-8" standalone="no"?>
<!DOCTYPE svg PUBLIC "-//W3C//DTD SVG 1.1//EN"
 "http://www.w3.org/Graphics/SVG/1.1/DTD/svg11.dtd">
<!-- Generated by graphviz version 12.2.1 (20241206.2353)
 -->
<!-- Title: algebra&#45;algebra_examples Pages: 1 -->
<svg width="542pt" height="498pt"
 viewBox="0.00 0.00 542.00 498.00" xmlns="http://www.w3.org/2000/svg" xmlns:xlink="http://www.w3.org/1999/xlink">
<g id="graph0" class="graph" transform="scale(1 1) rotate(0) translate(4 494)">
<title>algebra&#45;algebra_examples</title>
<polygon fill="white" stroke="none" points="-4,4 -4,-494 538,-494 538,4 -4,4"/>
<g id="clust1" class="cluster">
<title>cluster_NASALib</title>
<polygon fill="none" stroke="black" points="20,-92.5 20,-313 476,-313 476,-92.5 20,-92.5"/>
<text text-anchor="middle" x="248" y="-295.7" font-family="Times,serif" font-size="14.00">NASALib</text>
</g>
<g id="clust2" class="cluster">
<title>cluster_PVS Prelude</title>
<polygon fill="none" stroke="black" points="191,-8 191,-84.5 279,-84.5 279,-8 191,-8"/>
<text text-anchor="middle" x="235" y="-67.2" font-family="Times,serif" font-size="14.00">PVS Prelude</text>
</g>
<g id="clust3" class="cluster">
<title>cluster_algebra</title>
<polygon fill="none" stroke="black" points="344,-321 344,-397.5 474,-397.5 474,-321 344,-321"/>
<text text-anchor="middle" x="409" y="-380.2" font-family="Times,serif" font-size="14.00">algebra</text>
</g>
<g id="clust4" class="cluster">
<title>cluster_ints</title>
<polygon fill="none" stroke="black" points="363,-405.5 363,-482 455,-482 455,-405.5 363,-405.5"/>
<text text-anchor="middle" x="409" y="-464.7" font-family="Times,serif" font-size="14.00">ints</text>
</g>
<!-- algebra/algebra_examples -->
<g id="node1" class="node">
<title>algebra/algebra_examples</title>
<polygon fill="#f7e28d" stroke="black" points="466.12,-365 351.88,-365 351.88,-329 466.12,-329 466.12,-365"/>
<text text-anchor="middle" x="409" y="-341.95" font-family="Times,serif" font-size="14.00">algebra_examples</text>
</g>
<!-- pvslib/algebra -->
<g id="node4" class="node">
<title>pvslib/algebra</title>
<polygon fill="#fcfcd7" stroke="black" points="339.88,-280.5 284.12,-280.5 284.12,-244.5 339.88,-244.5 339.88,-280.5"/>
<text text-anchor="middle" x="312" y="-257.45" font-family="Times,serif" font-size="14.00">algebra</text>
</g>
<!-- algebra/algebra_examples&#45;&gt;pvslib/algebra -->
<g id="edge1" class="edge">
<title>algebra/algebra_examples&#45;&gt;pvslib/algebra</title>
<path fill="none" stroke="black" d="M382.54,-328.53C370.54,-320.62 359,-313 359,-313 359,-313 347.77,-301.17 336.29,-289.08"/>
<polygon fill="black" stroke="black" points="338.9,-286.75 329.48,-281.91 333.83,-291.57 338.9,-286.75"/>
</g>
<!-- pvslib/complex_ax -->
<g id="node5" class="node">
<title>pvslib/complex_ax</title>
<polygon fill="#fcfcd7" stroke="black" points="450.38,-280.5 367.62,-280.5 367.62,-244.5 450.38,-244.5 450.38,-280.5"/>
<text text-anchor="middle" x="409" y="-257.45" font-family="Times,serif" font-size="14.00">complex_ax</text>
</g>
<!-- algebra/algebra_examples&#45;&gt;pvslib/complex_ax -->
<g id="edge2" class="edge">
<title>algebra/algebra_examples&#45;&gt;pvslib/complex_ax</title>
<path fill="none" stroke="black" d="M409,-328.5C409,-318 409,-304.39 409,-292.33"/>
<polygon fill="black" stroke="black" points="412.5,-292.48 409,-282.48 405.5,-292.48 412.5,-292.48"/>
</g>
<!-- pvslib/ints -->
<g id="node6" class="node">
<title>pvslib/ints</title>
<polygon fill="#fcfcd7" stroke="black" points="262,-136.5 208,-136.5 208,-100.5 262,-100.5 262,-136.5"/>
<text text-anchor="middle" x="235" y="-113.45" font-family="Times,serif" font-size="14.00">ints</text>
</g>
<!-- algebra/algebra_examples&#45;&gt;pvslib/ints -->
<g id="edge3" class="edge">
<title>algebra/algebra_examples&#45;&gt;pvslib/ints</title>
<path fill="none" stroke="black" d="M496,-189.5C496,-189.5 457,-172.5 457,-172.5 457,-172.5 336.92,-143.83 273.38,-128.66"/>
<polygon fill="black" stroke="black" points="274.23,-125.27 263.69,-126.35 272.61,-132.08 274.23,-125.27"/>
</g>
<!-- pvslib/reals -->
<g id="node9" class="node">
<title>pvslib/reals</title>
<polygon fill="#fcfcd7" stroke="black" points="168,-136.5 114,-136.5 114,-100.5 168,-100.5 168,-136.5"/>
<text text-anchor="middle" x="141" y="-113.45" font-family="Times,serif" font-size="14.00">reals</text>
</g>
<!-- algebra/algebra_examples&#45;&gt;pvslib/reals -->
<g id="edge4" class="edge">
<title>algebra/algebra_examples&#45;&gt;pvslib/reals</title>
<path fill="none" stroke="black" d="M496,-189.5C496,-189.5 457,-172.5 457,-172.5 457,-172.5 199,-136.5 199,-136.5 199,-136.5 190.01,-133.86 179.11,-130.67"/>
<polygon fill="black" stroke="black" points="180.33,-127.38 169.75,-127.93 178.37,-134.1 180.33,-127.38"/>
<path fill="none" stroke="black" d="M496,-261.5C496,-261.5 496,-191.5 496,-191.5"/>
</g>
<!-- pvslib/sets_aux -->
<g id="node10" class="node">
<title>pvslib/sets_aux</title>
<polygon fill="#fcfcd7" stroke="black" points="266.25,-208.5 203.75,-208.5 203.75,-172.5 266.25,-172.5 266.25,-208.5"/>
<text text-anchor="middle" x="235" y="-185.45" font-family="Times,serif" font-size="14.00">sets_aux</text>
</g>
<!-- algebra/algebra_examples&#45;&gt;pvslib/sets_aux -->
<g id="edge5" class="edge">
<title>algebra/algebra_examples&#45;&gt;pvslib/sets_aux</title>
<path fill="none" stroke="black" d="M496,-261.5C496,-261.5 459,-244.5 459,-244.5 459,-244.5 318.89,-216.94 277.49,-207.41"/>
<polygon fill="black" stroke="black" points="278.51,-204.05 267.96,-204.94 276.76,-210.83 278.51,-204.05"/>
<path fill="none" stroke="black" d="M435.46,-328.53C447.46,-320.62 459,-313 459,-313 459,-313 496,-263.5 496,-263.5"/>
</g>
<!-- pvslib/structures -->
<g id="node12" class="node">
<title>pvslib/structures</title>
<polygon fill="#fcfcd7" stroke="black" points="96.25,-136.5 27.75,-136.5 27.75,-100.5 96.25,-100.5 96.25,-136.5"/>
<text text-anchor="middle" x="62" y="-113.45" font-family="Times,serif" font-size="14.00">structures</text>
</g>
<!-- algebra/algebra_examples&#45;&gt;pvslib/structures -->
<g id="edge6" class="edge">
<title>algebra/algebra_examples&#45;&gt;pvslib/structures</title>
<path fill="none" stroke="black" d="M496,-189.5C496,-189.5 457,-172.5 457,-172.5 457,-172.5 169.15,-143.06 107.92,-135"/>
<polygon fill="black" stroke="black" points="108.63,-131.57 98.2,-133.46 107.53,-138.48 108.63,-131.57"/>
</g>
<!-- ints/inf_primes -->
<g id="node2" class="node">
<title>ints/inf_primes</title>
<polygon fill="#fcfcd7" stroke="black" points="446.62,-449.5 371.38,-449.5 371.38,-413.5 446.62,-413.5 446.62,-449.5"/>
<text text-anchor="middle" x="409" y="-426.45" font-family="Times,serif" font-size="14.00">inf_primes</text>
</g>
<!-- ints/inf_primes&#45;&gt;algebra/algebra_examples -->
<g id="edge7" class="edge">
<title>ints/inf_primes&#45;&gt;algebra/algebra_examples</title>
<path fill="none" stroke="black" d="M409,-413C409,-402.5 409,-388.89 409,-376.83"/>
<polygon fill="black" stroke="black" points="412.5,-376.98 409,-366.98 405.5,-376.98 412.5,-376.98"/>
</g>
<!-- lib/finite_sets -->
<g id="node3" class="node">
<title>lib/finite_sets</title>
<polygon fill="#fcfcd7" stroke="black" points="270.75,-52 199.25,-52 199.25,-16 270.75,-16 270.75,-52"/>
<text text-anchor="middle" x="235" y="-28.95" font-family="Times,serif" font-size="14.00">finite_sets</text>
</g>
<!-- ints/inf_primes&#45;&gt;lib/finite_sets -->
<g id="edge8" class="edge">
<title>ints/inf_primes&#45;&gt;lib/finite_sets</title>
<path fill="none" stroke="black" d="M534,-189.5C534,-189.5 480,-92.5 480,-92.5 480,-92.5 353.23,-62.75 282.07,-46.05"/>
<polygon fill="black" stroke="black" points="283.16,-42.71 272.62,-43.83 281.56,-49.52 283.16,-42.71"/>
</g>
<!-- ints/inf_primes&#45;&gt;pvslib/algebra -->
<g id="edge9" class="edge">
<title>ints/inf_primes&#45;&gt;pvslib/algebra</title>
<path fill="none" stroke="black" d="M235,-346C235,-346 265.46,-313.36 288.07,-289.14"/>
<polygon fill="black" stroke="black" points="290.37,-291.8 294.64,-282.1 285.26,-287.03 290.37,-291.8"/>
</g>
<!-- ints/inf_primes&#45;&gt;pvslib/ints -->
<g id="edge10" class="edge">
<title>ints/inf_primes&#45;&gt;pvslib/ints</title>
<path fill="none" stroke="black" d="M445.52,-413.03C462.07,-405.12 478,-397.5 478,-397.5 478,-397.5 510,-313 510,-313 510,-313 534,-191.5 534,-191.5"/>
<path fill="none" stroke="black" d="M534,-189.5C534,-189.5 510,-172.5 510,-172.5 510,-172.5 348.9,-141.45 273.31,-126.88"/>
<polygon fill="black" stroke="black" points="274.34,-123.52 263.86,-125.06 273.02,-130.39 274.34,-123.52"/>
</g>
<!-- pvslib/numbers -->
<g id="node7" class="node">
<title>pvslib/numbers</title>
<polygon fill="#fcfcd7" stroke="black" points="93.62,-208.5 30.38,-208.5 30.38,-172.5 93.62,-172.5 93.62,-208.5"/>
<text text-anchor="middle" x="62" y="-185.45" font-family="Times,serif" font-size="14.00">numbers</text>
</g>
<!-- ints/inf_primes&#45;&gt;pvslib/numbers -->
<g id="edge11" class="edge">
<title>ints/inf_primes&#45;&gt;pvslib/numbers</title>
<path fill="none" stroke="black" d="M235,-346C235,-346 235,-263.5 235,-263.5"/>
<path fill="none" stroke="black" d="M372.1,-413C321.02,-388.79 235,-348 235,-348"/>
<path fill="none" stroke="black" d="M235,-261.5C235,-261.5 155.4,-229.29 104.19,-208.57"/>
<polygon fill="black" stroke="black" points="105.72,-205.41 95.13,-204.91 103.09,-211.9 105.72,-205.41"/>
</g>
<!-- ints/inf_primes&#45;&gt;pvslib/reals -->
<g id="edge12" class="edge">
<title>ints/inf_primes&#45;&gt;pvslib/reals</title>
<path fill="none" stroke="black" d="M534,-189.5C534,-189.5 510,-172.5 510,-172.5 510,-172.5 199,-136.5 199,-136.5 199,-136.5 190.01,-133.86 179.11,-130.67"/>
<polygon fill="black" stroke="black" points="180.33,-127.38 169.75,-127.93 178.37,-134.1 180.33,-127.38"/>
</g>
<!-- ints/inf_primes&#45;&gt;pvslib/sets_aux -->
<g id="edge13" class="edge">
<title>ints/inf_primes&#45;&gt;pvslib/sets_aux</title>
<path fill="none" stroke="black" d="M235,-261.5C235,-261.5 235,-239.58 235,-220.27"/>
<polygon fill="black" stroke="black" points="238.5,-220.32 235,-210.32 231.5,-220.32 238.5,-220.32"/>
</g>
<!-- pvslib/algebra&#45;&gt;lib/finite_sets -->
<g id="edge14" class="edge">
<title>pvslib/algebra&#45;&gt;lib/finite_sets</title>
<path fill="none" stroke="black" d="M2,-189.5C2,-189.5 0,-119.5 0,-119.5"/>
<path fill="none" stroke="black" d="M0,-117.5C0,-117.5 19,-92.5 19,-92.5 19,-92.5 124.33,-64.46 187.88,-47.54"/>
<polygon fill="black" stroke="black" points="188.62,-50.97 197.38,-45.01 186.82,-44.2 188.62,-50.97"/>
<path fill="none" stroke="black" d="M283.82,-253.9C267.04,-249.37 249,-244.5 249,-244.5 249,-244.5 21,-208.5 21,-208.5 21,-208.5 2,-191.5 2,-191.5"/>
</g>
<!-- pvslib/algebra&#45;&gt;pvslib/ints -->
<g id="edge15" class="edge">
<title>pvslib/algebra&#45;&gt;pvslib/ints</title>
<path fill="none" stroke="black" d="M324.12,-244.15C334.91,-228.69 349,-208.5 349,-208.5 349,-208.5 349,-172.5 349,-172.5 349,-172.5 305.87,-152.45 272.67,-137.01"/>
<polygon fill="black" stroke="black" points="274.22,-133.87 263.68,-132.83 271.27,-140.22 274.22,-133.87"/>
</g>
<!-- pvslib/algebra&#45;&gt;pvslib/numbers -->
<g id="edge16" class="edge">
<title>pvslib/algebra&#45;&gt;pvslib/numbers</title>
<path fill="none" stroke="black" d="M283.82,-253.9C267.04,-249.37 249,-244.5 249,-244.5 249,-244.5 108,-208.5 108,-208.5 108,-208.5 106.64,-208 104.38,-207.16"/>
<polygon fill="black" stroke="black" points="105.96,-204.02 95.37,-203.83 103.53,-210.58 105.96,-204.02"/>
</g>
<!-- pvslib/orders -->
<g id="node8" class="node">
<title>pvslib/orders</title>
<polygon fill="#fcfcd7" stroke="black" points="401,-136.5 347,-136.5 347,-100.5 401,-100.5 401,-136.5"/>
<text text-anchor="middle" x="374" y="-113.45" font-family="Times,serif" font-size="14.00">orders</text>
</g>
<!-- pvslib/algebra&#45;&gt;pvslib/orders -->
<g id="edge17" class="edge">
<title>pvslib/algebra&#45;&gt;pvslib/orders</title>
<path fill="none" stroke="black" d="M340.3,-251.16C382.5,-235.73 457,-208.5 457,-208.5 457,-208.5 457,-172.5 457,-172.5 457,-172.5 433.01,-157.18 410.82,-143.01"/>
<polygon fill="black" stroke="black" points="412.76,-140.1 402.45,-137.67 409,-146 412.76,-140.1"/>
</g>
<!-- pvslib/algebra&#45;&gt;pvslib/reals -->
<g id="edge18" class="edge">
<title>pvslib/algebra&#45;&gt;pvslib/reals</title>
<path fill="none" stroke="black" d="M283.7,-253.57C230.98,-238.78 123,-208.5 123,-208.5 123,-208.5 123,-172.5 123,-172.5 123,-172.5 127.18,-160.18 131.52,-147.42"/>
<polygon fill="black" stroke="black" points="134.72,-148.88 134.62,-138.29 128.09,-146.63 134.72,-148.88"/>
</g>
<!-- pvslib/sigma_set -->
<g id="node11" class="node">
<title>pvslib/sigma_set</title>
<polygon fill="#fcfcd7" stroke="black" points="448.38,-208.5 377.62,-208.5 377.62,-172.5 448.38,-172.5 448.38,-208.5"/>
<text text-anchor="middle" x="413" y="-185.45" font-family="Times,serif" font-size="14.00">sigma_set</text>
</g>
<!-- pvslib/algebra&#45;&gt;pvslib/sigma_set -->
<g id="edge19" class="edge">
<title>pvslib/algebra&#45;&gt;pvslib/sigma_set</title>
<path fill="none" stroke="black" d="M337.23,-244.02C349.85,-235.26 365.32,-224.54 378.98,-215.08"/>
<polygon fill="black" stroke="black" points="380.63,-218.2 386.85,-209.62 376.64,-212.44 380.63,-218.2"/>
</g>
<!-- pvslib/algebra&#45;&gt;pvslib/structures -->
<g id="edge20" class="edge">
<title>pvslib/algebra&#45;&gt;pvslib/structures</title>
<path fill="none" stroke="black" d="M2,-189.5C2,-189.5 22.79,-165.24 39.9,-145.29"/>
<polygon fill="black" stroke="black" points="42.33,-147.82 46.18,-137.95 37.02,-143.27 42.33,-147.82"/>
</g>
<!-- pvslib/trig -->
<g id="node13" class="node">
<title>pvslib/trig</title>
<polygon fill="#fcfcd7" stroke="black" points="186,-208.5 132,-208.5 132,-172.5 186,-172.5 186,-208.5"/>
<text text-anchor="middle" x="159" y="-185.45" font-family="Times,serif" font-size="14.00">trig</text>
</g>
<!-- pvslib/algebra&#45;&gt;pvslib/trig -->
<g id="edge21" class="edge">
<title>pvslib/algebra&#45;&gt;pvslib/trig</title>
<path fill="none" stroke="black" d="M283.68,-248.67C256.08,-236.17 216.16,-218.08 196.66,-209.17"/>
<polygon fill="black" stroke="black" points="198.21,-206.03 187.66,-205.02 195.28,-212.38 198.21,-206.03"/>
</g>
<!-- pvslib/vectors -->
<g id="node14" class="node">
<title>pvslib/vectors</title>
<polygon fill="#fcfcd7" stroke="black" points="339.5,-208.5 284.5,-208.5 284.5,-172.5 339.5,-172.5 339.5,-208.5"/>
<text text-anchor="middle" x="312" y="-185.45" font-family="Times,serif" font-size="14.00">vectors</text>
</g>
<!-- pvslib/algebra&#45;&gt;pvslib/vectors -->
<g id="edge22" class="edge">
<title>pvslib/algebra&#45;&gt;pvslib/vectors</title>
<path fill="none" stroke="black" d="M312,-244.2C312,-236.91 312,-228.23 312,-220.04"/>
<polygon fill="black" stroke="black" points="315.5,-220.12 312,-210.12 308.5,-220.12 315.5,-220.12"/>
</g>
<!-- pvslib/ints&#45;&gt;lib/finite_sets -->
<g id="edge23" class="edge">
<title>pvslib/ints&#45;&gt;lib/finite_sets</title>
<path fill="none" stroke="black" d="M235,-100C235,-89.5 235,-75.89 235,-63.83"/>
<polygon fill="black" stroke="black" points="238.5,-63.98 235,-53.98 231.5,-63.98 238.5,-63.98"/>
</g>
<!-- pvslib/numbers&#45;&gt;pvslib/ints -->
<g id="edge24" class="edge">
<title>pvslib/numbers&#45;&gt;pvslib/ints</title>
<path fill="none" stroke="black" d="M93.73,-176.66C122.96,-164.83 166.37,-147.27 197.35,-134.74"/>
<polygon fill="black" stroke="black" points="198.38,-138.09 206.34,-131.1 195.75,-131.6 198.38,-138.09"/>
</g>
<!-- pvslib/numbers&#45;&gt;pvslib/reals -->
<g id="edge25" class="edge">
<title>pvslib/numbers&#45;&gt;pvslib/reals</title>
<path fill="none" stroke="black" d="M81.53,-172.2C91.02,-163.78 102.61,-153.52 113.02,-144.29"/>
<polygon fill="black" stroke="black" points="115.13,-147.1 120.29,-137.85 110.48,-141.86 115.13,-147.1"/>
</g>
<!-- pvslib/numbers&#45;&gt;pvslib/structures -->
<g id="edge26" class="edge">
<title>pvslib/numbers&#45;&gt;pvslib/structures</title>
<path fill="none" stroke="black" d="M62,-172.2C62,-164.91 62,-156.23 62,-148.04"/>
<polygon fill="black" stroke="black" points="65.5,-148.12 62,-138.12 58.5,-148.12 65.5,-148.12"/>
</g>
<!-- pvslib/sets_aux&#45;&gt;lib/finite_sets -->
<g id="edge27" class="edge">
<title>pvslib/sets_aux&#45;&gt;lib/finite_sets</title>
<path fill="none" stroke="black" d="M203.48,-176.11C198.53,-174 195,-172.5 195,-172.5 195,-172.5 19,-136.5 19,-136.5 19,-136.5 0,-119.5 0,-119.5"/>
</g>
<!-- pvslib/sets_aux&#45;&gt;pvslib/ints -->
<g id="edge28" class="edge">
<title>pvslib/sets_aux&#45;&gt;pvslib/ints</title>
<path fill="none" stroke="black" d="M235,-172.2C235,-164.91 235,-156.23 235,-148.04"/>
<polygon fill="black" stroke="black" points="238.5,-148.12 235,-138.12 231.5,-148.12 238.5,-148.12"/>
</g>
<!-- pvslib/sets_aux&#45;&gt;pvslib/orders -->
<g id="edge29" class="edge">
<title>pvslib/sets_aux&#45;&gt;pvslib/orders</title>
<path fill="none" stroke="black" d="M266.54,-173.62C287.33,-163.15 314.65,-149.39 336.55,-138.36"/>
<polygon fill="black" stroke="black" points="338.1,-141.5 345.45,-133.88 334.95,-135.25 338.1,-141.5"/>
</g>
<!-- pvslib/sets_aux&#45;&gt;pvslib/reals -->
<g id="edge30" class="edge">
<title>pvslib/sets_aux&#45;&gt;pvslib/reals</title>
<path fill="none" stroke="black" d="M211.76,-172.2C200.13,-163.53 185.85,-152.9 173.18,-143.46"/>
<polygon fill="black" stroke="black" points="175.62,-140.92 165.51,-137.75 171.44,-146.53 175.62,-140.92"/>
</g>
<!-- pvslib/sets_aux&#45;&gt;pvslib/structures -->
<g id="edge31" class="edge">
<title>pvslib/sets_aux&#45;&gt;pvslib/structures</title>
<path fill="none" stroke="black" d="M203.48,-176.11C198.53,-174 195,-172.5 195,-172.5 195,-172.5 145.71,-152.86 107.14,-137.49"/>
<polygon fill="black" stroke="black" points="108.59,-134.3 98,-133.85 106,-140.8 108.59,-134.3"/>
</g>
</g>
</svg>
