<?xml version="1.0" encoding="UTF-8" standalone="no"?>
<!DOCTYPE svg PUBLIC "-//W3C//DTD SVG 1.1//EN"
 "http://www.w3.org/Graphics/SVG/1.1/DTD/svg11.dtd">
<!-- Generated by graphviz version 2.44.1 (20200629.0846)
 -->
<!-- Title: power&#45;zoomed Pages: 1 -->
<svg width="562pt" height="534pt"
 viewBox="0.00 0.00 562.00 534.00" xmlns="http://www.w3.org/2000/svg" xmlns:xlink="http://www.w3.org/1999/xlink">
<g id="graph0" class="graph" transform="scale(1 1) rotate(0) translate(4 530)">
<title>power&#45;zoomed</title>
<polygon fill="white" stroke="transparent" points="-4,4 -4,-530 558,-530 558,4 -4,4"/>
<g id="clust1" class="cluster">
<title>cluster_NASALib</title>
<polygon fill="none" stroke="black" points="326,-80 326,-155 546,-155 546,-80 326,-80"/>
<text text-anchor="middle" x="436" y="-139.8" font-family="Times,serif" font-size="14.00">NASALib</text>
</g>
<g id="clust2" class="cluster">
<title>cluster_NASALib/power</title>
<polygon fill="none" stroke="black" points="8,-8 8,-518 318,-518 318,-8 8,-8"/>
<text text-anchor="middle" x="163" y="-502.8" font-family="Times,serif" font-size="14.00">NASALib/power</text>
</g>
<!-- nasalib/analysis -->
<g id="node1" class="node">
<title>nasalib/analysis</title>
<polygon fill="#fcfcd7" stroke="black" points="538,-124 478,-124 478,-88 538,-88 538,-124"/>
<text text-anchor="middle" x="508" y="-102.3" font-family="Times,serif" font-size="14.00">analysis</text>
</g>
<!-- nasalib/lnexp -->
<g id="node2" class="node">
<title>nasalib/lnexp</title>
<polygon fill="#fcfcd7" stroke="black" points="460,-124 406,-124 406,-88 460,-88 460,-124"/>
<text text-anchor="middle" x="433" y="-102.3" font-family="Times,serif" font-size="14.00">lnexp</text>
</g>
<!-- nasalib/power@exponentiation_aux -->
<g id="node3" class="node">
<title>nasalib/power@exponentiation_aux</title>
<ellipse fill="#e6f3ff" stroke="black" cx="230" cy="-34" rx="79.89" ry="18"/>
<text text-anchor="middle" x="230" y="-30.3" font-family="Times,serif" font-size="14.00">exponentiation_aux</text>
</g>
<!-- nasalib/power@ln_exp_def -->
<g id="node4" class="node">
<title>nasalib/power@ln_exp_def</title>
<ellipse fill="#e6f3ff" stroke="black" cx="159" cy="-469" rx="50.09" ry="18"/>
<text text-anchor="middle" x="159" y="-465.3" font-family="Times,serif" font-size="14.00">ln_exp_def</text>
</g>
<!-- nasalib/power@ln_exp_def&#45;&gt;nasalib/analysis -->
<g id="edge1" class="edge">
<title>nasalib/power@ln_exp_def&#45;&gt;nasalib/analysis</title>
<path fill="none" stroke="black" d="M206.43,-475C301.85,-475 508,-475 508,-475 508,-475 508,-134.05 508,-134.05"/>
<polygon fill="black" stroke="black" points="511.5,-134.05 508,-124.05 504.5,-134.05 511.5,-134.05"/>
</g>
<!-- nasalib/power@ln_exp_def&#45;&gt;nasalib/lnexp -->
<g id="edge2" class="edge">
<title>nasalib/power@ln_exp_def&#45;&gt;nasalib/lnexp</title>
<path fill="none" stroke="black" d="M206.37,-463C286.93,-463 442,-463 442,-463 442,-463 442,-134.19 442,-134.19"/>
<polygon fill="black" stroke="black" points="445.5,-134.19 442,-124.19 438.5,-134.19 445.5,-134.19"/>
</g>
<!-- nasalib/power@log -->
<g id="node5" class="node">
<title>nasalib/power@log</title>
<ellipse fill="#e6f3ff" stroke="black" cx="113" cy="-397" rx="27" ry="18"/>
<text text-anchor="middle" x="113" y="-393.3" font-family="Times,serif" font-size="14.00">log</text>
</g>
<!-- nasalib/power@ln_exp_def&#45;&gt;nasalib/power@log -->
<g id="edge3" class="edge">
<title>nasalib/power@ln_exp_def&#45;&gt;nasalib/power@log</title>
<path fill="none" stroke="black" d="M124.48,-455.79C124.48,-455.79 124.48,-423.41 124.48,-423.41"/>
<polygon fill="black" stroke="black" points="127.98,-423.41 124.48,-413.41 120.98,-423.41 127.98,-423.41"/>
</g>
<!-- nasalib/power@real_expt -->
<g id="node11" class="node">
<title>nasalib/power@real_expt</title>
<ellipse fill="#e6f3ff" stroke="black" cx="210" cy="-325" rx="43.59" ry="18"/>
<text text-anchor="middle" x="210" y="-321.3" font-family="Times,serif" font-size="14.00">real_expt</text>
</g>
<!-- nasalib/power@ln_exp_def&#45;&gt;nasalib/power@real_expt -->
<g id="edge4" class="edge">
<title>nasalib/power@ln_exp_def&#45;&gt;nasalib/power@real_expt</title>
<path fill="none" stroke="black" d="M173.96,-451.63C173.96,-451.63 173.96,-345.13 173.96,-345.13"/>
<polygon fill="black" stroke="black" points="177.46,-345.13 173.96,-335.13 170.46,-345.13 177.46,-345.13"/>
</g>
<!-- nasalib/power@nn_log -->
<g id="node6" class="node">
<title>nasalib/power@nn_log</title>
<ellipse fill="#e6f3ff" stroke="black" cx="113" cy="-325" rx="35.19" ry="18"/>
<text text-anchor="middle" x="113" y="-321.3" font-family="Times,serif" font-size="14.00">nn_log</text>
</g>
<!-- nasalib/power@log&#45;&gt;nasalib/power@nn_log -->
<g id="edge5" class="edge">
<title>nasalib/power@log&#45;&gt;nasalib/power@nn_log</title>
<path fill="none" stroke="black" d="M113,-378.83C113,-378.83 113,-353.41 113,-353.41"/>
<polygon fill="black" stroke="black" points="116.5,-353.41 113,-343.41 109.5,-353.41 116.5,-353.41"/>
</g>
<!-- nasalib/power@log&#45;&gt;nasalib/power@real_expt -->
<g id="edge6" class="edge">
<title>nasalib/power@log&#45;&gt;nasalib/power@real_expt</title>
<path fill="none" stroke="black" d="M140.26,-397C155,-397 170.2,-397 170.2,-397 170.2,-397 170.2,-342.43 170.2,-342.43"/>
<polygon fill="black" stroke="black" points="173.7,-342.43 170.2,-332.43 166.7,-342.43 173.7,-342.43"/>
</g>
<!-- nasalib/power@nn_rational_expt -->
<g id="node7" class="node">
<title>nasalib/power@nn_rational_expt</title>
<ellipse fill="#e6f3ff" stroke="black" cx="141" cy="-181" rx="70.39" ry="18"/>
<text text-anchor="middle" x="141" y="-177.3" font-family="Times,serif" font-size="14.00">nn_rational_expt</text>
</g>
<!-- nasalib/power@nn_log&#45;&gt;nasalib/power@nn_rational_expt -->
<g id="edge7" class="edge">
<title>nasalib/power@nn_log&#45;&gt;nasalib/power@nn_rational_expt</title>
<path fill="none" stroke="black" d="M79.73,-319C76.48,-319 74.35,-319 74.35,-319 74.35,-319 74.35,-196.93 74.35,-196.93"/>
<polygon fill="black" stroke="black" points="77.85,-196.93 74.35,-186.93 70.85,-196.93 77.85,-196.93"/>
</g>
<!-- nasalib/power@nn_root -->
<g id="node8" class="node">
<title>nasalib/power@nn_root</title>
<ellipse fill="#e6f3ff" stroke="black" cx="230" cy="-106" rx="38.19" ry="18"/>
<text text-anchor="middle" x="230" y="-102.3" font-family="Times,serif" font-size="14.00">nn_root</text>
</g>
<!-- nasalib/power@nn_log&#45;&gt;nasalib/power@nn_root -->
<g id="edge8" class="edge">
<title>nasalib/power@nn_log&#45;&gt;nasalib/power@nn_root</title>
<path fill="none" stroke="black" d="M125.4,-307.84C125.4,-298.57 125.4,-289 125.4,-289 125.4,-289 230.1,-289 230.1,-289 230.1,-289 230.1,-134.22 230.1,-134.22"/>
<polygon fill="black" stroke="black" points="233.6,-134.22 230.1,-124.22 226.6,-134.22 233.6,-134.22"/>
</g>
<!-- nasalib/power@nnreal_expt -->
<g id="node9" class="node">
<title>nasalib/power@nnreal_expt</title>
<ellipse fill="#e6f3ff" stroke="black" cx="132" cy="-253" rx="51.99" ry="18"/>
<text text-anchor="middle" x="132" y="-249.3" font-family="Times,serif" font-size="14.00">nnreal_expt</text>
</g>
<!-- nasalib/power@nn_log&#45;&gt;nasalib/power@nnreal_expt -->
<g id="edge9" class="edge">
<title>nasalib/power@nn_log&#45;&gt;nasalib/power@nnreal_expt</title>
<path fill="none" stroke="black" d="M102.7,-307.57C102.7,-307.57 102.7,-278.31 102.7,-278.31"/>
<polygon fill="black" stroke="black" points="106.2,-278.31 102.7,-268.31 99.2,-278.31 106.2,-278.31"/>
</g>
<!-- nasalib/power@rational_props_aux -->
<g id="node10" class="node">
<title>nasalib/power@rational_props_aux</title>
<ellipse fill="#e6f3ff" stroke="black" cx="95" cy="-106" rx="78.79" ry="18"/>
<text text-anchor="middle" x="95" y="-102.3" font-family="Times,serif" font-size="14.00">rational_props_aux</text>
</g>
<!-- nasalib/power@nn_log&#45;&gt;nasalib/power@rational_props_aux -->
<g id="edge10" class="edge">
<title>nasalib/power@nn_log&#45;&gt;nasalib/power@rational_props_aux</title>
<path fill="none" stroke="black" d="M79.71,-331C58.32,-331 34.51,-331 34.51,-331 34.51,-331 34.51,-127.78 34.51,-127.78"/>
<polygon fill="black" stroke="black" points="38.01,-127.78 34.51,-117.78 31.01,-127.78 38.01,-127.78"/>
</g>
<!-- nasalib/power@nn_rational_expt&#45;&gt;nasalib/power@nn_root -->
<g id="edge11" class="edge">
<title>nasalib/power@nn_rational_expt&#45;&gt;nasalib/power@nn_root</title>
<path fill="none" stroke="black" d="M201.42,-171.8C201.42,-171.8 201.42,-128.26 201.42,-128.26"/>
<polygon fill="black" stroke="black" points="204.92,-128.26 201.42,-118.26 197.92,-128.26 204.92,-128.26"/>
</g>
<!-- nasalib/power@nn_rational_expt&#45;&gt;nasalib/power@rational_props_aux -->
<g id="edge12" class="edge">
<title>nasalib/power@nn_rational_expt&#45;&gt;nasalib/power@rational_props_aux</title>
<path fill="none" stroke="black" d="M122.22,-163.6C122.22,-163.6 122.22,-133.04 122.22,-133.04"/>
<polygon fill="black" stroke="black" points="125.72,-133.04 122.22,-123.04 118.72,-133.04 125.72,-133.04"/>
</g>
<!-- nasalib/power@nn_root&#45;&gt;nasalib/power@exponentiation_aux -->
<g id="edge13" class="edge">
<title>nasalib/power@nn_root&#45;&gt;nasalib/power@exponentiation_aux</title>
<path fill="none" stroke="black" d="M230,-87.83C230,-87.83 230,-62.41 230,-62.41"/>
<polygon fill="black" stroke="black" points="233.5,-62.41 230,-52.41 226.5,-62.41 233.5,-62.41"/>
</g>
<!-- nasalib/power@nnreal_expt&#45;&gt;nasalib/power@nn_rational_expt -->
<g id="edge14" class="edge">
<title>nasalib/power@nnreal_expt&#45;&gt;nasalib/power@nn_rational_expt</title>
<path fill="none" stroke="black" d="M132,-234.83C132,-234.83 132,-208.91 132,-208.91"/>
<polygon fill="black" stroke="black" points="135.5,-208.91 132,-198.91 128.5,-208.91 135.5,-208.91"/>
</g>
<!-- nasalib/power@nnreal_expt&#45;&gt;nasalib/power@nn_root -->
<g id="edge15" class="edge">
<title>nasalib/power@nnreal_expt&#45;&gt;nasalib/power@nn_root</title>
<path fill="none" stroke="black" d="M184.08,-253C203.37,-253 220.65,-253 220.65,-253 220.65,-253 220.65,-133.73 220.65,-133.73"/>
<polygon fill="black" stroke="black" points="224.15,-133.73 220.65,-123.73 217.15,-133.73 224.15,-133.73"/>
</g>
<!-- nasalib/power@nnreal_expt&#45;&gt;nasalib/power@rational_props_aux -->
<g id="edge16" class="edge">
<title>nasalib/power@nnreal_expt&#45;&gt;nasalib/power@rational_props_aux</title>
<path fill="none" stroke="black" d="M79.96,-253C65.01,-253 52.66,-253 52.66,-253 52.66,-253 52.66,-131.18 52.66,-131.18"/>
<polygon fill="black" stroke="black" points="56.16,-131.18 52.66,-121.18 49.16,-131.18 56.16,-131.18"/>
</g>
<!-- nasalib/power@real_expt&#45;&gt;nasalib/power@nnreal_expt -->
<g id="edge17" class="edge">
<title>nasalib/power@real_expt&#45;&gt;nasalib/power@nnreal_expt</title>
<path fill="none" stroke="black" d="M175.22,-314.06C175.22,-314.06 175.22,-273.11 175.22,-273.11"/>
<polygon fill="black" stroke="black" points="178.72,-273.11 175.22,-263.11 171.72,-273.11 178.72,-273.11"/>
</g>
<!-- nasalib/power@root -->
<g id="node13" class="node">
<title>nasalib/power@root</title>
<ellipse fill="#e6f3ff" stroke="black" cx="276" cy="-181" rx="27" ry="18"/>
<text text-anchor="middle" x="276" y="-177.3" font-family="Times,serif" font-size="14.00">root</text>
</g>
<!-- nasalib/power@real_expt&#45;&gt;nasalib/power@root -->
<g id="edge18" class="edge">
<title>nasalib/power@real_expt&#45;&gt;nasalib/power@root</title>
<path fill="none" stroke="black" d="M239.55,-311.71C239.55,-276.06 239.55,-181 239.55,-181 239.55,-181 240.47,-181 240.47,-181"/>
<polygon fill="black" stroke="black" points="238.75,-184.5 248.75,-181 238.75,-177.5 238.75,-184.5"/>
</g>
<!-- nasalib/power@real_fun_power -->
<g id="node12" class="node">
<title>nasalib/power@real_fun_power</title>
<ellipse fill="#e6f3ff" stroke="black" cx="244" cy="-397" rx="66.09" ry="18"/>
<text text-anchor="middle" x="244" y="-393.3" font-family="Times,serif" font-size="14.00">real_fun_power</text>
</g>
<!-- nasalib/power@real_fun_power&#45;&gt;nasalib/power@real_expt -->
<g id="edge19" class="edge">
<title>nasalib/power@real_fun_power&#45;&gt;nasalib/power@real_expt</title>
<path fill="none" stroke="black" d="M215.63,-380.66C215.63,-380.66 215.63,-353.04 215.63,-353.04"/>
<polygon fill="black" stroke="black" points="219.13,-353.04 215.63,-343.04 212.13,-353.04 219.13,-353.04"/>
</g>
<!-- nasalib/reals -->
<g id="node14" class="node">
<title>nasalib/reals</title>
<polygon fill="#fcfcd7" stroke="black" points="388,-124 334,-124 334,-88 388,-88 388,-124"/>
<text text-anchor="middle" x="361" y="-102.3" font-family="Times,serif" font-size="14.00">reals</text>
</g>
<!-- nasalib/power@real_fun_power&#45;&gt;nasalib/reals -->
<g id="edge20" class="edge">
<title>nasalib/power@real_fun_power&#45;&gt;nasalib/reals</title>
<path fill="none" stroke="black" d="M310.36,-397C336.77,-397 361,-397 361,-397 361,-397 361,-134.2 361,-134.2"/>
<polygon fill="black" stroke="black" points="364.5,-134.2 361,-124.2 357.5,-134.2 364.5,-134.2"/>
</g>
<!-- nasalib/power@root&#45;&gt;nasalib/lnexp -->
<g id="edge21" class="edge">
<title>nasalib/power@root&#45;&gt;nasalib/lnexp</title>
<path fill="none" stroke="black" d="M303.15,-181C345.87,-181 424,-181 424,-181 424,-181 424,-134.16 424,-134.16"/>
<polygon fill="black" stroke="black" points="427.5,-134.16 424,-124.16 420.5,-134.16 427.5,-134.16"/>
</g>
<!-- nasalib/power@root&#45;&gt;nasalib/power@nn_root -->
<g id="edge22" class="edge">
<title>nasalib/power@root&#45;&gt;nasalib/power@nn_root</title>
<path fill="none" stroke="black" d="M258.67,-166.89C258.67,-166.89 258.67,-128.06 258.67,-128.06"/>
<polygon fill="black" stroke="black" points="262.17,-128.06 258.67,-118.06 255.17,-128.06 262.17,-128.06"/>
</g>
<!-- nasalib/power@root&#45;&gt;nasalib/reals -->
<g id="edge23" class="edge">
<title>nasalib/power@root&#45;&gt;nasalib/reals</title>
<path fill="none" stroke="black" d="M285.67,-163.98C285.67,-141.85 285.67,-106 285.67,-106 285.67,-106 323.81,-106 323.81,-106"/>
<polygon fill="black" stroke="black" points="323.81,-109.5 333.81,-106 323.81,-102.5 323.81,-109.5"/>
</g>
</g>
</svg>
