<?xml version="1.0" encoding="UTF-8" standalone="no"?>
<!DOCTYPE svg PUBLIC "-//W3C//DTD SVG 1.1//EN"
 "http://www.w3.org/Graphics/SVG/1.1/DTD/svg11.dtd">
<!-- Generated by graphviz version 8.0.4 (20230421.1958)
 -->
<!-- Title: float&#45;float_ieee854 Pages: 1 -->
<svg width="341pt" height="774pt"
 viewBox="0.00 0.00 341.00 773.50" xmlns="http://www.w3.org/2000/svg" xmlns:xlink="http://www.w3.org/1999/xlink">
<g id="graph0" class="graph" transform="scale(1 1) rotate(0) translate(4 769.5)">
<title>float&#45;float_ieee854</title>
<polygon fill="white" stroke="none" points="-4,4 -4,-769.5 337,-769.5 337,4 -4,4"/>
<g id="clust1" class="cluster">
<title>cluster_NASALib</title>
<polygon fill="none" stroke="black" points="20,-92.5 20,-601 275,-601 275,-92.5 20,-92.5"/>
<text text-anchor="middle" x="147.5" y="-583.7" font-family="Times,serif" font-size="14.00">NASALib</text>
</g>
<g id="clust2" class="cluster">
<title>cluster_PVS Prelude</title>
<polygon fill="none" stroke="black" points="29,-8 29,-84.5 117,-84.5 117,-8 29,-8"/>
<text text-anchor="middle" x="73" y="-67.2" font-family="Times,serif" font-size="14.00">PVS Prelude</text>
</g>
<g id="clust3" class="cluster">
<title>cluster_float</title>
<polygon fill="none" stroke="black" points="124,-609 124,-757.5 248,-757.5 248,-609 124,-609"/>
<text text-anchor="middle" x="186" y="-740.2" font-family="Times,serif" font-size="14.00">float</text>
</g>
<!-- NASALib/analysis -->
<g id="node1" class="node">
<title>NASALib/analysis</title>
<polygon fill="#fcfcd7" stroke="black" points="143.75,-352.5 84.25,-352.5 84.25,-316.5 143.75,-316.5 143.75,-352.5"/>
<text text-anchor="middle" x="114" y="-329.45" font-family="Times,serif" font-size="14.00">analysis</text>
</g>
<!-- NASALib/ints -->
<g id="node3" class="node">
<title>NASALib/ints</title>
<polygon fill="#fcfcd7" stroke="black" points="109,-136.5 55,-136.5 55,-100.5 109,-100.5 109,-136.5"/>
<text text-anchor="middle" x="82" y="-113.45" font-family="Times,serif" font-size="14.00">ints</text>
</g>
<!-- NASALib/analysis&#45;&gt;NASALib/ints -->
<g id="edge1" class="edge">
<title>NASALib/analysis&#45;&gt;NASALib/ints</title>
<path fill="none" stroke="black" d="M82,-261.5C82,-261.5 39,-208.5 39,-208.5 39,-208.5 29,-191.5 29,-191.5"/>
<path fill="none" stroke="black" d="M106.09,-316.2C96.61,-295.47 82,-263.5 82,-263.5"/>
</g>
<!-- NASALib/orders -->
<g id="node5" class="node">
<title>NASALib/orders</title>
<polygon fill="#fcfcd7" stroke="black" points="155,-280.5 101,-280.5 101,-244.5 155,-244.5 155,-280.5"/>
<text text-anchor="middle" x="128" y="-257.45" font-family="Times,serif" font-size="14.00">orders</text>
</g>
<!-- NASALib/analysis&#45;&gt;NASALib/orders -->
<g id="edge2" class="edge">
<title>NASALib/analysis&#45;&gt;NASALib/orders</title>
<path fill="none" stroke="black" d="M117.46,-316.2C118.97,-308.65 120.78,-299.62 122.46,-291.18"/>
<polygon fill="black" stroke="black" points="126.05,-292.1 124.58,-281.6 119.19,-290.72 126.05,-292.1"/>
</g>
<!-- NASALib/reals -->
<g id="node6" class="node">
<title>NASALib/reals</title>
<polygon fill="#fcfcd7" stroke="black" points="247,-280.5 193,-280.5 193,-244.5 247,-244.5 247,-280.5"/>
<text text-anchor="middle" x="220" y="-257.45" font-family="Times,serif" font-size="14.00">reals</text>
</g>
<!-- NASALib/analysis&#45;&gt;NASALib/reals -->
<g id="edge3" class="edge">
<title>NASALib/analysis&#45;&gt;NASALib/reals</title>
<path fill="none" stroke="black" d="M140.47,-316.02C153.86,-307.18 170.27,-296.34 184.71,-286.8"/>
<polygon fill="black" stroke="black" points="186.45,-289.19 192.86,-280.76 182.59,-283.35 186.45,-289.19"/>
</g>
<!-- NASALib/structures -->
<g id="node8" class="node">
<title>NASALib/structures</title>
<polygon fill="#fcfcd7" stroke="black" points="116.25,-208.5 47.75,-208.5 47.75,-172.5 116.25,-172.5 116.25,-208.5"/>
<text text-anchor="middle" x="82" y="-185.45" font-family="Times,serif" font-size="14.00">structures</text>
</g>
<!-- NASALib/analysis&#45;&gt;NASALib/structures -->
<g id="edge4" class="edge">
<title>NASALib/analysis&#45;&gt;NASALib/structures</title>
<path fill="none" stroke="black" d="M82,-261.5C82,-261.5 82,-239.16 82,-219.72"/>
<polygon fill="black" stroke="black" points="85.5,-219.8 82,-209.8 78.5,-219.8 85.5,-219.8"/>
</g>
<!-- lib/finite_sets -->
<g id="node12" class="node">
<title>lib/finite_sets</title>
<polygon fill="#fcfcd7" stroke="black" points="108.75,-52 37.25,-52 37.25,-16 108.75,-16 108.75,-52"/>
<text text-anchor="middle" x="73" y="-28.95" font-family="Times,serif" font-size="14.00">finite_sets</text>
</g>
<!-- NASALib/analysis&#45;&gt;lib/finite_sets -->
<g id="edge5" class="edge">
<title>NASALib/analysis&#45;&gt;lib/finite_sets</title>
<path fill="none" stroke="black" d="M0,-189.5C0,-189.5 0,-119.5 0,-119.5"/>
<path fill="none" stroke="black" d="M0,-117.5C0,-117.5 28.88,-84.86 50.31,-60.64"/>
<polygon fill="black" stroke="black" points="52.51,-63.3 56.52,-53.5 47.27,-58.67 52.51,-63.3"/>
<path fill="none" stroke="black" d="M100.02,-316.09C69.58,-278.17 0,-191.5 0,-191.5"/>
</g>
<!-- NASALib/interval_arith -->
<g id="node2" class="node">
<title>NASALib/interval_arith</title>
<polygon fill="#fcfcd7" stroke="black" points="204.38,-568.5 115.62,-568.5 115.62,-532.5 204.38,-532.5 204.38,-568.5"/>
<text text-anchor="middle" x="160" y="-545.45" font-family="Times,serif" font-size="14.00">interval_arith</text>
</g>
<!-- NASALib/interval_arith&#45;&gt;NASALib/analysis -->
<g id="edge6" class="edge">
<title>NASALib/interval_arith&#45;&gt;NASALib/analysis</title>
<path fill="none" stroke="black" d="M114,-405.5C114,-405.5 114,-383.16 114,-363.72"/>
<polygon fill="black" stroke="black" points="117.5,-363.8 114,-353.8 110.5,-363.8 117.5,-363.8"/>
</g>
<!-- NASALib/interval_arith&#45;&gt;NASALib/ints -->
<g id="edge7" class="edge">
<title>NASALib/interval_arith&#45;&gt;NASALib/ints</title>
<path fill="none" stroke="black" d="M114,-405.5C114,-405.5 75,-352.5 75,-352.5 75,-352.5 65,-335.5 65,-335.5"/>
<path fill="none" stroke="black" d="M29,-189.5C29,-189.5 39,-172.5 39,-172.5 39,-172.5 50.23,-158.65 61.22,-145.12"/>
<polygon fill="black" stroke="black" points="64.34,-147.82 67.92,-137.85 58.9,-143.41 64.34,-147.82"/>
<path fill="none" stroke="black" d="M148.21,-532.15C137.71,-516.69 124,-496.5 124,-496.5 124,-496.5 114,-407.5 114,-407.5"/>
<path fill="none" stroke="black" d="M65,-333.5C65,-333.5 62,-263.5 62,-263.5"/>
<path fill="none" stroke="black" d="M62,-261.5C62,-261.5 57,-244.5 57,-244.5 57,-244.5 29,-191.5 29,-191.5"/>
</g>
<!-- NASALib/lnexp -->
<g id="node4" class="node">
<title>NASALib/lnexp</title>
<polygon fill="#fcfcd7" stroke="black" points="187,-496.5 133,-496.5 133,-460.5 187,-460.5 187,-496.5"/>
<text text-anchor="middle" x="160" y="-473.45" font-family="Times,serif" font-size="14.00">lnexp</text>
</g>
<!-- NASALib/interval_arith&#45;&gt;NASALib/lnexp -->
<g id="edge8" class="edge">
<title>NASALib/interval_arith&#45;&gt;NASALib/lnexp</title>
<path fill="none" stroke="black" d="M160,-532.2C160,-524.74 160,-515.82 160,-507.47"/>
<polygon fill="black" stroke="black" points="163.5,-507.6 160,-497.6 156.5,-507.6 163.5,-507.6"/>
</g>
<!-- NASALib/interval_arith&#45;&gt;NASALib/reals -->
<g id="edge9" class="edge">
<title>NASALib/interval_arith&#45;&gt;NASALib/reals</title>
<path fill="none" stroke="black" d="M65,-333.5C65,-333.5 75,-316.5 75,-316.5 75,-316.5 139.63,-292.88 182.59,-277.17"/>
<polygon fill="black" stroke="black" points="183.54,-280.19 191.73,-273.47 181.13,-273.61 183.54,-280.19"/>
</g>
<!-- NASALib/interval_arith&#45;&gt;NASALib/structures -->
<g id="edge10" class="edge">
<title>NASALib/interval_arith&#45;&gt;NASALib/structures</title>
<path fill="none" stroke="black" d="M62,-261.5C62,-261.5 68.5,-238.74 74.09,-219.18"/>
<polygon fill="black" stroke="black" points="77.67,-220.38 77.06,-209.8 70.94,-218.46 77.67,-220.38"/>
</g>
<!-- NASALib/trig -->
<g id="node9" class="node">
<title>NASALib/trig</title>
<polygon fill="#fcfcd7" stroke="black" points="259,-496.5 205,-496.5 205,-460.5 259,-460.5 259,-496.5"/>
<text text-anchor="middle" x="232" y="-473.45" font-family="Times,serif" font-size="14.00">trig</text>
</g>
<!-- NASALib/interval_arith&#45;&gt;NASALib/trig -->
<g id="edge11" class="edge">
<title>NASALib/interval_arith&#45;&gt;NASALib/trig</title>
<path fill="none" stroke="black" d="M177.8,-532.2C186.45,-523.78 197.01,-513.52 206.5,-504.29"/>
<polygon fill="black" stroke="black" points="208.43,-507.33 213.16,-497.85 203.55,-502.31 208.43,-507.33"/>
</g>
<!-- NASALib/ints&#45;&gt;lib/finite_sets -->
<g id="edge12" class="edge">
<title>NASALib/ints&#45;&gt;lib/finite_sets</title>
<path fill="none" stroke="black" d="M80.09,-100C78.92,-89.28 77.4,-75.32 76.06,-63.08"/>
<polygon fill="black" stroke="black" points="79.47,-63.03 74.91,-53.47 72.51,-63.79 79.47,-63.03"/>
</g>
<!-- NASALib/lnexp&#45;&gt;NASALib/analysis -->
<g id="edge13" class="edge">
<title>NASALib/lnexp&#45;&gt;NASALib/analysis</title>
<path fill="none" stroke="black" d="M153.57,-460.2C145.87,-439.47 134,-407.5 134,-407.5"/>
<path fill="none" stroke="black" d="M134,-405.5C134,-405.5 127.5,-382.74 121.91,-363.18"/>
<polygon fill="black" stroke="black" points="125.06,-362.46 118.94,-353.8 118.33,-364.38 125.06,-362.46"/>
</g>
<!-- NASALib/lnexp&#45;&gt;NASALib/ints -->
<g id="edge14" class="edge">
<title>NASALib/lnexp&#45;&gt;NASALib/ints</title>
<path fill="none" stroke="black" d="M134,-405.5C134,-405.5 153,-352.5 153,-352.5 153,-352.5 184,-244.5 184,-244.5 184,-244.5 220,-191.5 220,-191.5"/>
<path fill="none" stroke="black" d="M220,-189.5C220,-189.5 159.82,-158.97 118.94,-138.24"/>
<polygon fill="black" stroke="black" points="120.77,-134.73 110.26,-133.33 117.6,-140.97 120.77,-134.73"/>
</g>
<!-- NASALib/lnexp&#45;&gt;NASALib/reals -->
<g id="edge15" class="edge">
<title>NASALib/lnexp&#45;&gt;NASALib/reals</title>
<path fill="none" stroke="black" d="M220,-333.5C220,-333.5 220,-311.16 220,-291.72"/>
<polygon fill="black" stroke="black" points="223.5,-291.8 220,-281.8 216.5,-291.8 223.5,-291.8"/>
<path fill="none" stroke="black" d="M164.63,-460.34C171.6,-434.48 184,-388.5 184,-388.5 184,-388.5 220,-335.5 220,-335.5"/>
</g>
<!-- NASALib/series -->
<g id="node7" class="node">
<title>NASALib/series</title>
<polygon fill="#fcfcd7" stroke="black" points="247,-424.5 193,-424.5 193,-388.5 247,-388.5 247,-424.5"/>
<text text-anchor="middle" x="220" y="-401.45" font-family="Times,serif" font-size="14.00">series</text>
</g>
<!-- NASALib/lnexp&#45;&gt;NASALib/series -->
<g id="edge16" class="edge">
<title>NASALib/lnexp&#45;&gt;NASALib/series</title>
<path fill="none" stroke="black" d="M174.83,-460.2C181.88,-451.97 190.44,-441.98 198.21,-432.92"/>
<polygon fill="black" stroke="black" points="201.49,-435.47 205.34,-425.6 196.17,-430.92 201.49,-435.47"/>
</g>
<!-- NASALib/orders&#45;&gt;NASALib/structures -->
<g id="edge17" class="edge">
<title>NASALib/orders&#45;&gt;NASALib/structures</title>
<path fill="none" stroke="black" d="M116.63,-244.2C111.39,-236.23 105.07,-226.6 99.26,-217.76"/>
<polygon fill="black" stroke="black" points="101.66,-216.04 93.24,-209.6 95.81,-219.88 101.66,-216.04"/>
</g>
<!-- NASALib/orders&#45;&gt;lib/finite_sets -->
<g id="edge18" class="edge">
<title>NASALib/orders&#45;&gt;lib/finite_sets</title>
<path fill="none" stroke="black" d="M100.68,-247.57C69.86,-231.87 24,-208.5 24,-208.5 24,-208.5 0,-191.5 0,-191.5"/>
</g>
<!-- NASALib/reals&#45;&gt;NASALib/ints -->
<g id="edge19" class="edge">
<title>NASALib/reals&#45;&gt;NASALib/ints</title>
<path fill="none" stroke="black" d="M220,-244.2C220,-223.47 220,-191.5 220,-191.5"/>
</g>
<!-- NASALib/reals&#45;&gt;NASALib/structures -->
<g id="edge20" class="edge">
<title>NASALib/reals&#45;&gt;NASALib/structures</title>
<path fill="none" stroke="black" d="M192.74,-247.67C173.73,-238.03 147.96,-224.96 126.06,-213.85"/>
<polygon fill="black" stroke="black" points="127.81,-210.31 117.31,-208.9 124.65,-216.55 127.81,-210.31"/>
</g>
<!-- NASALib/series&#45;&gt;NASALib/analysis -->
<g id="edge21" class="edge">
<title>NASALib/series&#45;&gt;NASALib/analysis</title>
<path fill="none" stroke="black" d="M193.53,-388.02C180.14,-379.18 163.73,-368.34 149.29,-358.8"/>
<polygon fill="black" stroke="black" points="151.41,-355.35 141.14,-352.76 147.55,-361.19 151.41,-355.35"/>
</g>
<!-- NASALib/series&#45;&gt;NASALib/ints -->
<g id="edge22" class="edge">
<title>NASALib/series&#45;&gt;NASALib/ints</title>
<path fill="none" stroke="black" d="M266,-333.5C266,-333.5 256,-244.5 256,-244.5 256,-244.5 220,-191.5 220,-191.5"/>
<path fill="none" stroke="black" d="M231.37,-388.2C244.99,-367.47 266,-335.5 266,-335.5"/>
</g>
<!-- NASALib/series&#45;&gt;NASALib/orders -->
<g id="edge23" class="edge">
<title>NASALib/series&#45;&gt;NASALib/orders</title>
<path fill="none" stroke="black" d="M208.72,-388.09C192.77,-363.47 163.5,-318.3 144.94,-289.64"/>
<polygon fill="black" stroke="black" points="147.46,-288.1 139.09,-281.61 141.59,-291.91 147.46,-288.1"/>
</g>
<!-- NASALib/series&#45;&gt;NASALib/reals -->
<g id="edge24" class="edge">
<title>NASALib/series&#45;&gt;NASALib/reals</title>
<path fill="none" stroke="black" d="M220,-388.2C220,-367.47 220,-335.5 220,-335.5"/>
</g>
<!-- NASALib/structures&#45;&gt;NASALib/ints -->
<g id="edge25" class="edge">
<title>NASALib/structures&#45;&gt;NASALib/ints</title>
<path fill="none" stroke="black" d="M82,-172.2C82,-164.74 82,-155.82 82,-147.47"/>
<polygon fill="black" stroke="black" points="85.5,-147.6 82,-137.6 78.5,-147.6 85.5,-147.6"/>
</g>
<!-- NASALib/structures&#45;&gt;lib/finite_sets -->
<g id="edge26" class="edge">
<title>NASALib/structures&#45;&gt;lib/finite_sets</title>
<path fill="none" stroke="black" d="M61.73,-172.2C37.45,-151.47 0,-119.5 0,-119.5"/>
</g>
<!-- NASALib/trig&#45;&gt;NASALib/analysis -->
<g id="edge27" class="edge">
<title>NASALib/trig&#45;&gt;NASALib/analysis</title>
<path fill="none" stroke="black" d="M216.28,-460.15C202.28,-444.69 184,-424.5 184,-424.5 184,-424.5 154.81,-387.39 134.13,-361.09"/>
<polygon fill="black" stroke="black" points="136.43,-359.36 127.5,-353.66 130.93,-363.68 136.43,-359.36"/>
</g>
<!-- NASALib/trig&#45;&gt;NASALib/ints -->
<g id="edge28" class="edge">
<title>NASALib/trig&#45;&gt;NASALib/ints</title>
<path fill="none" stroke="black" d="M266,-405.5C266,-405.5 266,-335.5 266,-335.5"/>
</g>
<!-- NASALib/trig&#45;&gt;NASALib/reals -->
<g id="edge29" class="edge">
<title>NASALib/trig&#45;&gt;NASALib/reals</title>
<path fill="none" stroke="black" d="M240.4,-460.2C250.47,-439.47 266,-407.5 266,-407.5"/>
<path fill="none" stroke="black" d="M266,-405.5C266,-405.5 256,-388.5 256,-388.5 256,-388.5 220,-335.5 220,-335.5"/>
</g>
<!-- NASALib/trig&#45;&gt;NASALib/series -->
<g id="edge30" class="edge">
<title>NASALib/trig&#45;&gt;NASALib/series</title>
<path fill="none" stroke="black" d="M229.03,-460.2C227.74,-452.65 226.19,-443.62 224.75,-435.18"/>
<polygon fill="black" stroke="black" points="228.07,-434.87 222.93,-425.6 221.17,-436.05 228.07,-434.87"/>
</g>
<!-- float/float_ieee854 -->
<g id="node10" class="node">
<title>float/float_ieee854</title>
<polygon fill="#f7e28d" stroke="black" points="230.75,-725 141.25,-725 141.25,-689 230.75,-689 230.75,-725"/>
<text text-anchor="middle" x="186" y="-701.95" font-family="Times,serif" font-size="14.00">float_ieee854</text>
</g>
<!-- float/float_ieee854&#45;&gt;NASALib/ints -->
<g id="edge31" class="edge">
<title>float/float_ieee854&#45;&gt;NASALib/ints</title>
<path fill="none" stroke="black" d="M333,-333.5C333,-333.5 279,-244.5 279,-244.5 279,-244.5 220,-191.5 220,-191.5"/>
</g>
<!-- float/float_ieee854&#45;&gt;NASALib/reals -->
<g id="edge32" class="edge">
<title>float/float_ieee854&#45;&gt;NASALib/reals</title>
<path fill="none" stroke="black" d="M206.63,-688.65C225,-673.19 249,-653 249,-653 249,-653 305,-601 305,-601 305,-601 333,-551.5 333,-551.5 333,-551.5 333,-551.5 333,-477.5 333,-477.5 333,-335.5 333,-335.5"/>
<path fill="none" stroke="black" d="M333,-333.5C333,-333.5 309,-316.5 309,-316.5 309,-316.5 280.98,-299.81 256.38,-285.16"/>
<polygon fill="black" stroke="black" points="258.57,-281.8 248.19,-279.69 254.99,-287.81 258.57,-281.8"/>
</g>
<!-- float/float_unbounded -->
<g id="node11" class="node">
<title>float/float_unbounded</title>
<polygon fill="#fcfcd7" stroke="black" points="239.75,-653 132.25,-653 132.25,-617 239.75,-617 239.75,-653"/>
<text text-anchor="middle" x="186" y="-629.95" font-family="Times,serif" font-size="14.00">float_unbounded</text>
</g>
<!-- float/float_ieee854&#45;&gt;float/float_unbounded -->
<g id="edge33" class="edge">
<title>float/float_ieee854&#45;&gt;float/float_unbounded</title>
<path fill="none" stroke="black" d="M186,-688.7C186,-681.24 186,-672.32 186,-663.97"/>
<polygon fill="black" stroke="black" points="189.5,-664.1 186,-654.1 182.5,-664.1 189.5,-664.1"/>
</g>
<!-- float/float_unbounded&#45;&gt;NASALib/analysis -->
<g id="edge34" class="edge">
<title>float/float_unbounded&#45;&gt;NASALib/analysis</title>
<path fill="none" stroke="black" d="M144.19,-616.53C125.24,-608.62 107,-601 107,-601 107,-601 107,-532.5 107,-532.5 107,-532.5 109,-388.5 109,-388.5 109,-388.5 110.14,-376.42 111.33,-363.8"/>
<polygon fill="black" stroke="black" points="114.91,-364.14 112.36,-353.85 107.94,-363.48 114.91,-364.14"/>
</g>
<!-- float/float_unbounded&#45;&gt;NASALib/interval_arith -->
<g id="edge35" class="edge">
<title>float/float_unbounded&#45;&gt;NASALib/interval_arith</title>
<path fill="none" stroke="black" d="M180.49,-616.5C177.07,-605.68 172.62,-591.53 168.73,-579.21"/>
<polygon fill="black" stroke="black" points="171.85,-578.46 165.51,-569.97 165.17,-580.56 171.85,-578.46"/>
</g>
<!-- float/float_unbounded&#45;&gt;NASALib/lnexp -->
<g id="edge36" class="edge">
<title>float/float_unbounded&#45;&gt;NASALib/lnexp</title>
<path fill="none" stroke="black" d="M291,-549.5C291,-549.5 235.65,-519.93 196.91,-499.22"/>
<polygon fill="black" stroke="black" points="198.93,-495.8 188.46,-494.17 195.63,-501.97 198.93,-495.8"/>
<path fill="none" stroke="black" d="M208.27,-616.5C239.09,-592.29 291,-551.5 291,-551.5"/>
</g>
<!-- float/float_unbounded&#45;&gt;NASALib/reals -->
<g id="edge37" class="edge">
<title>float/float_unbounded&#45;&gt;NASALib/reals</title>
<path fill="none" stroke="black" d="M295,-333.5C295,-333.5 268.07,-308.36 246.48,-288.22"/>
<polygon fill="black" stroke="black" points="249.24,-286.07 239.54,-281.8 244.46,-291.19 249.24,-286.07"/>
<path fill="none" stroke="black" d="M291,-549.5C291,-549.5 295,-335.5 295,-335.5"/>
</g>
<!-- float/float_unbounded&#45;&gt;NASALib/structures -->
<g id="edge38" class="edge">
<title>float/float_unbounded&#45;&gt;NASALib/structures</title>
<path fill="none" stroke="black" d="M295,-333.5C295,-333.5 256,-244.5 256,-244.5 256,-244.5 178.18,-220.8 126.62,-205.09"/>
<polygon fill="black" stroke="black" points="127.96,-201.54 117.38,-201.97 125.92,-208.23 127.96,-201.54"/>
</g>
<!-- float/float_unbounded&#45;&gt;NASALib/trig -->
<g id="edge39" class="edge">
<title>float/float_unbounded&#45;&gt;NASALib/trig</title>
<path fill="none" stroke="black" d="M291,-549.5C291,-549.5 270.37,-525.02 253.51,-505.02"/>
<polygon fill="black" stroke="black" points="255.71,-503.19 246.58,-497.8 250.35,-507.71 255.71,-503.19"/>
</g>
</g>
</svg>
