<?xml version="1.0" encoding="UTF-8" standalone="no"?>
<!DOCTYPE svg PUBLIC "-//W3C//DTD SVG 1.1//EN"
 "http://www.w3.org/Graphics/SVG/1.1/DTD/svg11.dtd">
<!-- Generated by graphviz version 8.0.4 (20230421.1958)
 -->
<!-- Title: float&#45;float_ieee854 Pages: 1 -->
<svg width="590pt" height="342pt"
 viewBox="0.00 0.00 590.00 341.50" xmlns="http://www.w3.org/2000/svg" xmlns:xlink="http://www.w3.org/1999/xlink">
<g id="graph0" class="graph" transform="scale(1 1) rotate(0) translate(4 337.5)">
<title>float&#45;float_ieee854</title>
<polygon fill="white" stroke="none" points="-4,4 -4,-337.5 586,-337.5 586,4 -4,4"/>
<g id="clust1" class="cluster">
<title>cluster_NASALib</title>
<polygon fill="none" stroke="black" points="8,-92.5 8,-169 565,-169 565,-92.5 8,-92.5"/>
<text text-anchor="middle" x="286.5" y="-151.7" font-family="Times,serif" font-size="14.00">NASALib</text>
</g>
<g id="clust2" class="cluster">
<title>cluster_PVS Prelude</title>
<polygon fill="none" stroke="black" points="486,-8 486,-84.5 574,-84.5 574,-8 486,-8"/>
<text text-anchor="middle" x="530" y="-67.2" font-family="Times,serif" font-size="14.00">PVS Prelude</text>
</g>
<g id="clust3" class="cluster">
<title>cluster_float</title>
<polygon fill="none" stroke="black" points="249,-177 249,-325.5 373,-325.5 373,-177 249,-177"/>
<text text-anchor="middle" x="311" y="-308.2" font-family="Times,serif" font-size="14.00">float</text>
</g>
<!-- float/float_ieee854 -->
<g id="node1" class="node">
<title>float/float_ieee854</title>
<polygon fill="#f7e28d" stroke="black" points="355.75,-293 266.25,-293 266.25,-257 355.75,-257 355.75,-293"/>
<text text-anchor="middle" x="311" y="-269.95" font-family="Times,serif" font-size="14.00">float_ieee854</text>
</g>
<!-- float/float_unbounded -->
<g id="node2" class="node">
<title>float/float_unbounded</title>
<polygon fill="#fcfcd7" stroke="black" points="364.75,-221 257.25,-221 257.25,-185 364.75,-185 364.75,-221"/>
<text text-anchor="middle" x="311" y="-197.95" font-family="Times,serif" font-size="14.00">float_unbounded</text>
</g>
<!-- float/float_ieee854&#45;&gt;float/float_unbounded -->
<g id="edge1" class="edge">
<title>float/float_ieee854&#45;&gt;float/float_unbounded</title>
<path fill="none" stroke="black" d="M311,-256.7C311,-249.24 311,-240.32 311,-231.97"/>
<polygon fill="black" stroke="black" points="314.5,-232.1 311,-222.1 307.5,-232.1 314.5,-232.1"/>
</g>
<!-- pvslib&#45;gitlab&#45;pvs&#45;8.0&#45;fixes/ints -->
<g id="node6" class="node">
<title>pvslib&#45;gitlab&#45;pvs&#45;8.0&#45;fixes/ints</title>
<polygon fill="#fcfcd7" stroke="black" points="557,-136.5 503,-136.5 503,-100.5 557,-100.5 557,-136.5"/>
<text text-anchor="middle" x="530" y="-113.45" font-family="Times,serif" font-size="14.00">ints</text>
</g>
<!-- float/float_ieee854&#45;&gt;pvslib&#45;gitlab&#45;pvs&#45;8.0&#45;fixes/ints -->
<g id="edge2" class="edge">
<title>float/float_ieee854&#45;&gt;pvslib&#45;gitlab&#45;pvs&#45;8.0&#45;fixes/ints</title>
<path fill="none" stroke="black" d="M494,-202C494,-202 507.51,-171.05 517.97,-147.06"/>
<polygon fill="black" stroke="black" points="521.57,-148.56 522.37,-138 515.16,-145.76 521.57,-148.56"/>
</g>
<!-- pvslib&#45;gitlab&#45;pvs&#45;8.0&#45;fixes/reals -->
<g id="node8" class="node">
<title>pvslib&#45;gitlab&#45;pvs&#45;8.0&#45;fixes/reals</title>
<polygon fill="#fcfcd7" stroke="black" points="485,-136.5 431,-136.5 431,-100.5 485,-100.5 485,-136.5"/>
<text text-anchor="middle" x="458" y="-113.45" font-family="Times,serif" font-size="14.00">reals</text>
</g>
<!-- float/float_ieee854&#45;&gt;pvslib&#45;gitlab&#45;pvs&#45;8.0&#45;fixes/reals -->
<g id="edge3" class="edge">
<title>float/float_ieee854&#45;&gt;pvslib&#45;gitlab&#45;pvs&#45;8.0&#45;fixes/reals</title>
<path fill="none" stroke="black" d="M494,-202C494,-202 480.49,-171.05 470.03,-147.06"/>
<polygon fill="black" stroke="black" points="472.84,-145.76 465.63,-138 466.43,-148.56 472.84,-145.76"/>
<path fill="none" stroke="black" d="M356.24,-256.7C410.43,-235.97 494,-204 494,-204"/>
</g>
<!-- pvslib&#45;gitlab&#45;pvs&#45;8.0&#45;fixes/analysis -->
<g id="node4" class="node">
<title>pvslib&#45;gitlab&#45;pvs&#45;8.0&#45;fixes/analysis</title>
<polygon fill="#fcfcd7" stroke="black" points="340.75,-136.5 281.25,-136.5 281.25,-100.5 340.75,-100.5 340.75,-136.5"/>
<text text-anchor="middle" x="311" y="-113.45" font-family="Times,serif" font-size="14.00">analysis</text>
</g>
<!-- float/float_unbounded&#45;&gt;pvslib&#45;gitlab&#45;pvs&#45;8.0&#45;fixes/analysis -->
<g id="edge4" class="edge">
<title>float/float_unbounded&#45;&gt;pvslib&#45;gitlab&#45;pvs&#45;8.0&#45;fixes/analysis</title>
<path fill="none" stroke="black" d="M311,-184.5C311,-173.89 311,-160.1 311,-147.96"/>
<polygon fill="black" stroke="black" points="314.5,-147.97 311,-137.97 307.5,-147.97 314.5,-147.97"/>
</g>
<!-- pvslib&#45;gitlab&#45;pvs&#45;8.0&#45;fixes/interval_arith -->
<g id="node5" class="node">
<title>pvslib&#45;gitlab&#45;pvs&#45;8.0&#45;fixes/interval_arith</title>
<polygon fill="#fcfcd7" stroke="black" points="263.38,-136.5 174.62,-136.5 174.62,-100.5 263.38,-100.5 263.38,-136.5"/>
<text text-anchor="middle" x="219" y="-113.45" font-family="Times,serif" font-size="14.00">interval_arith</text>
</g>
<!-- float/float_unbounded&#45;&gt;pvslib&#45;gitlab&#45;pvs&#45;8.0&#45;fixes/interval_arith -->
<g id="edge5" class="edge">
<title>float/float_unbounded&#45;&gt;pvslib&#45;gitlab&#45;pvs&#45;8.0&#45;fixes/interval_arith</title>
<path fill="none" stroke="black" d="M290.59,-184.73C281.15,-176.74 272,-169 272,-169 272,-169 258.6,-156.48 245.27,-144.04"/>
<polygon fill="black" stroke="black" points="248.23,-142.08 238.54,-137.81 243.46,-147.2 248.23,-142.08"/>
</g>
<!-- pvslib&#45;gitlab&#45;pvs&#45;8.0&#45;fixes/lnexp -->
<g id="node7" class="node">
<title>pvslib&#45;gitlab&#45;pvs&#45;8.0&#45;fixes/lnexp</title>
<polygon fill="#fcfcd7" stroke="black" points="70,-136.5 16,-136.5 16,-100.5 70,-100.5 70,-136.5"/>
<text text-anchor="middle" x="43" y="-113.45" font-family="Times,serif" font-size="14.00">lnexp</text>
</g>
<!-- float/float_unbounded&#45;&gt;pvslib&#45;gitlab&#45;pvs&#45;8.0&#45;fixes/lnexp -->
<g id="edge6" class="edge">
<title>float/float_unbounded&#45;&gt;pvslib&#45;gitlab&#45;pvs&#45;8.0&#45;fixes/lnexp</title>
<path fill="none" stroke="black" d="M256.9,-194.3C188.34,-184.55 79,-169 79,-169 79,-169 70.56,-157.4 61.86,-145.43"/>
<polygon fill="black" stroke="black" points="64.3,-143.84 55.59,-137.81 58.64,-147.96 64.3,-143.84"/>
</g>
<!-- float/float_unbounded&#45;&gt;pvslib&#45;gitlab&#45;pvs&#45;8.0&#45;fixes/reals -->
<g id="edge7" class="edge">
<title>float/float_unbounded&#45;&gt;pvslib&#45;gitlab&#45;pvs&#45;8.0&#45;fixes/reals</title>
<path fill="none" stroke="black" d="M365.2,-185.89C393.38,-177.51 422,-169 422,-169 422,-169 430.44,-157.4 439.14,-145.43"/>
<polygon fill="black" stroke="black" points="442.36,-147.96 445.41,-137.81 436.7,-143.84 442.36,-147.96"/>
</g>
<!-- pvslib&#45;gitlab&#45;pvs&#45;8.0&#45;fixes/structures -->
<g id="node9" class="node">
<title>pvslib&#45;gitlab&#45;pvs&#45;8.0&#45;fixes/structures</title>
<polygon fill="#fcfcd7" stroke="black" points="156.25,-136.5 87.75,-136.5 87.75,-100.5 156.25,-100.5 156.25,-136.5"/>
<text text-anchor="middle" x="122" y="-113.45" font-family="Times,serif" font-size="14.00">structures</text>
</g>
<!-- float/float_unbounded&#45;&gt;pvslib&#45;gitlab&#45;pvs&#45;8.0&#45;fixes/structures -->
<g id="edge8" class="edge">
<title>float/float_unbounded&#45;&gt;pvslib&#45;gitlab&#45;pvs&#45;8.0&#45;fixes/structures</title>
<path fill="none" stroke="black" d="M257.01,-189.71C215.78,-180.33 166,-169 166,-169 166,-169 155.29,-156.95 144.43,-144.73"/>
<polygon fill="black" stroke="black" points="147.65,-142.96 138.39,-137.81 142.42,-147.61 147.65,-142.96"/>
</g>
<!-- pvslib&#45;gitlab&#45;pvs&#45;8.0&#45;fixes/trig -->
<g id="node10" class="node">
<title>pvslib&#45;gitlab&#45;pvs&#45;8.0&#45;fixes/trig</title>
<polygon fill="#fcfcd7" stroke="black" points="413,-136.5 359,-136.5 359,-100.5 413,-100.5 413,-136.5"/>
<text text-anchor="middle" x="386" y="-113.45" font-family="Times,serif" font-size="14.00">trig</text>
</g>
<!-- float/float_unbounded&#45;&gt;pvslib&#45;gitlab&#45;pvs&#45;8.0&#45;fixes/trig -->
<g id="edge9" class="edge">
<title>float/float_unbounded&#45;&gt;pvslib&#45;gitlab&#45;pvs&#45;8.0&#45;fixes/trig</title>
<path fill="none" stroke="black" d="M331.41,-184.73C340.85,-176.74 350,-169 350,-169 350,-169 358.44,-157.4 367.14,-145.43"/>
<polygon fill="black" stroke="black" points="370.36,-147.96 373.41,-137.81 364.7,-143.84 370.36,-147.96"/>
</g>
<!-- lib/finite_sets -->
<g id="node3" class="node">
<title>lib/finite_sets</title>
<polygon fill="#fcfcd7" stroke="black" points="565.75,-52 494.25,-52 494.25,-16 565.75,-16 565.75,-52"/>
<text text-anchor="middle" x="530" y="-28.95" font-family="Times,serif" font-size="14.00">finite_sets</text>
</g>
<!-- pvslib&#45;gitlab&#45;pvs&#45;8.0&#45;fixes/ints&#45;&gt;lib/finite_sets -->
<g id="edge10" class="edge">
<title>pvslib&#45;gitlab&#45;pvs&#45;8.0&#45;fixes/ints&#45;&gt;lib/finite_sets</title>
<path fill="none" stroke="black" d="M530,-100C530,-89.39 530,-75.6 530,-63.46"/>
<polygon fill="black" stroke="black" points="533.5,-63.47 530,-53.47 526.5,-63.47 533.5,-63.47"/>
</g>
</g>
</svg>
