<?xml version="1.0" encoding="UTF-8" standalone="no"?>
<!DOCTYPE svg PUBLIC "-//W3C//DTD SVG 1.1//EN"
 "http://www.w3.org/Graphics/SVG/1.1/DTD/svg11.dtd">
<!-- Generated by graphviz version 12.2.1 (20241206.2353)
 -->
<!-- Title: ints&#45;inf_primes Pages: 1 -->
<svg width="666pt" height="498pt"
 viewBox="0.00 0.00 666.00 498.00" xmlns="http://www.w3.org/2000/svg" xmlns:xlink="http://www.w3.org/1999/xlink">
<g id="graph0" class="graph" transform="scale(1 1) rotate(0) translate(4 494)">
<title>ints&#45;inf_primes</title>
<polygon fill="white" stroke="none" points="-4,4 -4,-494 662,-494 662,4 -4,4"/>
<g id="clust1" class="cluster">
<title>cluster_NASALib</title>
<polygon fill="none" stroke="black" points="58,-92.5 58,-313 638,-313 638,-92.5 58,-92.5"/>
<text text-anchor="middle" x="348" y="-295.7" font-family="Times,serif" font-size="14.00">NASALib</text>
</g>
<g id="clust2" class="cluster">
<title>cluster_PVS Prelude</title>
<polygon fill="none" stroke="black" points="337,-8 337,-84.5 425,-84.5 425,-8 337,-8"/>
<text text-anchor="middle" x="381" y="-67.2" font-family="Times,serif" font-size="14.00">PVS Prelude</text>
</g>
<g id="clust3" class="cluster">
<title>cluster_algebra</title>
<polygon fill="none" stroke="black" points="66,-321 66,-397.5 196,-397.5 196,-321 66,-321"/>
<text text-anchor="middle" x="131" y="-380.2" font-family="Times,serif" font-size="14.00">algebra</text>
</g>
<g id="clust4" class="cluster">
<title>cluster_ints</title>
<polygon fill="none" stroke="black" points="85,-405.5 85,-482 177,-482 177,-405.5 85,-405.5"/>
<text text-anchor="middle" x="131" y="-464.7" font-family="Times,serif" font-size="14.00">ints</text>
</g>
<!-- algebra/algebra_examples -->
<g id="node1" class="node">
<title>algebra/algebra_examples</title>
<polygon fill="#fcfcd7" stroke="black" points="188.12,-365 73.88,-365 73.88,-329 188.12,-329 188.12,-365"/>
<text text-anchor="middle" x="131" y="-341.95" font-family="Times,serif" font-size="14.00">algebra_examples</text>
</g>
<!-- pvslib/algebra -->
<g id="node4" class="node">
<title>pvslib/algebra</title>
<polygon fill="#fcfcd7" stroke="black" points="301.88,-280.5 246.12,-280.5 246.12,-244.5 301.88,-244.5 301.88,-280.5"/>
<text text-anchor="middle" x="274" y="-257.45" font-family="Times,serif" font-size="14.00">algebra</text>
</g>
<!-- algebra/algebra_examples&#45;&gt;pvslib/algebra -->
<g id="edge1" class="edge">
<title>algebra/algebra_examples&#45;&gt;pvslib/algebra</title>
<path fill="none" stroke="black" d="M161.33,-328.5C183.04,-315.98 212.43,-299.02 235.75,-285.57"/>
<polygon fill="black" stroke="black" points="237.44,-288.63 244.35,-280.6 233.94,-282.57 237.44,-288.63"/>
</g>
<!-- pvslib/complex_ax -->
<g id="node6" class="node">
<title>pvslib/complex_ax</title>
<polygon fill="#fcfcd7" stroke="black" points="172.38,-280.5 89.62,-280.5 89.62,-244.5 172.38,-244.5 172.38,-280.5"/>
<text text-anchor="middle" x="131" y="-257.45" font-family="Times,serif" font-size="14.00">complex_ax</text>
</g>
<!-- algebra/algebra_examples&#45;&gt;pvslib/complex_ax -->
<g id="edge2" class="edge">
<title>algebra/algebra_examples&#45;&gt;pvslib/complex_ax</title>
<path fill="none" stroke="black" d="M131,-328.5C131,-318 131,-304.39 131,-292.33"/>
<polygon fill="black" stroke="black" points="134.5,-292.48 131,-282.48 127.5,-292.48 134.5,-292.48"/>
</g>
<!-- pvslib/ints -->
<g id="node7" class="node">
<title>pvslib/ints</title>
<polygon fill="#fcfcd7" stroke="black" points="408,-136.5 354,-136.5 354,-100.5 408,-100.5 408,-136.5"/>
<text text-anchor="middle" x="381" y="-113.45" font-family="Times,serif" font-size="14.00">ints</text>
</g>
<!-- algebra/algebra_examples&#45;&gt;pvslib/ints -->
<g id="edge3" class="edge">
<title>algebra/algebra_examples&#45;&gt;pvslib/ints</title>
<path fill="none" stroke="black" d="M38,-189.5C38,-189.5 57,-172.5 57,-172.5 57,-172.5 288.46,-143.57 342.66,-134.61"/>
<polygon fill="black" stroke="black" points="343.12,-138.09 352.23,-132.68 341.74,-131.23 343.12,-138.09"/>
</g>
<!-- pvslib/reals -->
<g id="node11" class="node">
<title>pvslib/reals</title>
<polygon fill="#fcfcd7" stroke="black" points="480,-136.5 426,-136.5 426,-100.5 480,-100.5 480,-136.5"/>
<text text-anchor="middle" x="453" y="-113.45" font-family="Times,serif" font-size="14.00">reals</text>
</g>
<!-- algebra/algebra_examples&#45;&gt;pvslib/reals -->
<g id="edge4" class="edge">
<title>algebra/algebra_examples&#45;&gt;pvslib/reals</title>
<path fill="none" stroke="black" d="M38,-189.5C38,-189.5 57,-172.5 57,-172.5 57,-172.5 352.66,-142.93 414.59,-134.33"/>
<polygon fill="black" stroke="black" points="414.97,-137.81 424.22,-132.65 413.77,-130.92 414.97,-137.81"/>
</g>
<!-- pvslib/sets_aux -->
<g id="node13" class="node">
<title>pvslib/sets_aux</title>
<polygon fill="#fcfcd7" stroke="black" points="484.25,-208.5 421.75,-208.5 421.75,-172.5 484.25,-172.5 484.25,-208.5"/>
<text text-anchor="middle" x="453" y="-185.45" font-family="Times,serif" font-size="14.00">sets_aux</text>
</g>
<!-- algebra/algebra_examples&#45;&gt;pvslib/sets_aux -->
<g id="edge5" class="edge">
<title>algebra/algebra_examples&#45;&gt;pvslib/sets_aux</title>
<path fill="none" stroke="black" d="M38,-261.5C38,-261.5 81,-244.5 81,-244.5 81,-244.5 351.32,-215.19 410.35,-206.81"/>
<polygon fill="black" stroke="black" points="410.73,-210.3 419.99,-205.15 409.54,-203.4 410.73,-210.3"/>
</g>
<!-- pvslib/structures -->
<g id="node15" class="node">
<title>pvslib/structures</title>
<polygon fill="#fcfcd7" stroke="black" points="336.25,-136.5 267.75,-136.5 267.75,-100.5 336.25,-100.5 336.25,-136.5"/>
<text text-anchor="middle" x="302" y="-113.45" font-family="Times,serif" font-size="14.00">structures</text>
</g>
<!-- algebra/algebra_examples&#45;&gt;pvslib/structures -->
<g id="edge6" class="edge">
<title>algebra/algebra_examples&#45;&gt;pvslib/structures</title>
<path fill="none" stroke="black" d="M38,-261.5C38,-261.5 38,-191.5 38,-191.5"/>
<path fill="none" stroke="black" d="M104.54,-328.53C92.54,-320.62 81,-313 81,-313 81,-313 38,-263.5 38,-263.5"/>
<path fill="none" stroke="black" d="M38,-189.5C38,-189.5 57,-172.5 57,-172.5 57,-172.5 185.74,-144.65 256.57,-129.33"/>
<polygon fill="black" stroke="black" points="256.9,-132.84 265.94,-127.3 255.42,-125.99 256.9,-132.84"/>
</g>
<!-- ints/inf_primes -->
<g id="node2" class="node">
<title>ints/inf_primes</title>
<polygon fill="#f7e28d" stroke="black" points="168.62,-449.5 93.38,-449.5 93.38,-413.5 168.62,-413.5 168.62,-449.5"/>
<text text-anchor="middle" x="131" y="-426.45" font-family="Times,serif" font-size="14.00">inf_primes</text>
</g>
<!-- ints/inf_primes&#45;&gt;algebra/algebra_examples -->
<g id="edge7" class="edge">
<title>ints/inf_primes&#45;&gt;algebra/algebra_examples</title>
<path fill="none" stroke="black" d="M131,-413C131,-402.5 131,-388.89 131,-376.83"/>
<polygon fill="black" stroke="black" points="134.5,-376.98 131,-366.98 127.5,-376.98 134.5,-376.98"/>
</g>
<!-- lib/finite_sets -->
<g id="node3" class="node">
<title>lib/finite_sets</title>
<polygon fill="#fcfcd7" stroke="black" points="416.75,-52 345.25,-52 345.25,-16 416.75,-16 416.75,-52"/>
<text text-anchor="middle" x="381" y="-28.95" font-family="Times,serif" font-size="14.00">finite_sets</text>
</g>
<!-- ints/inf_primes&#45;&gt;lib/finite_sets -->
<g id="edge8" class="edge">
<title>ints/inf_primes&#45;&gt;lib/finite_sets</title>
<path fill="none" stroke="black" d="M0,-189.5C0,-189.5 54,-92.5 54,-92.5 54,-92.5 242.71,-59.32 333.42,-43.37"/>
<polygon fill="black" stroke="black" points="334.02,-46.81 343.27,-41.64 332.81,-39.92 334.02,-46.81"/>
<path fill="none" stroke="black" d="M94.48,-413.03C77.93,-405.12 62,-397.5 62,-397.5 62,-397.5 24,-313 24,-313 24,-313 0,-191.5 0,-191.5"/>
</g>
<!-- ints/inf_primes&#45;&gt;pvslib/algebra -->
<g id="edge9" class="edge">
<title>ints/inf_primes&#45;&gt;pvslib/algebra</title>
<path fill="none" stroke="black" d="M424,-346C424,-346 311,-313 311,-313 311,-313 302.5,-301.63 293.64,-289.78"/>
<polygon fill="black" stroke="black" points="296.64,-287.94 287.85,-282.02 291.03,-292.13 296.64,-287.94"/>
<path fill="none" stroke="black" d="M169,-419.8C248.28,-397.48 424,-348 424,-348"/>
</g>
<!-- ints/inf_primes&#45;&gt;pvslib/ints -->
<g id="edge10" class="edge">
<title>ints/inf_primes&#45;&gt;pvslib/ints</title>
<path fill="none" stroke="black" d="M0,-189.5C0,-189.5 24,-172.5 24,-172.5 24,-172.5 284.24,-143.31 342.44,-134.5"/>
<polygon fill="black" stroke="black" points="343.04,-137.94 352.23,-132.66 341.75,-131.06 343.04,-137.94"/>
</g>
<!-- pvslib/lnexp -->
<g id="node8" class="node">
<title>pvslib/lnexp</title>
<polygon fill="#fcfcd7" stroke="black" points="374,-280.5 320,-280.5 320,-244.5 374,-244.5 374,-280.5"/>
<text text-anchor="middle" x="347" y="-257.45" font-family="Times,serif" font-size="14.00">lnexp</text>
</g>
<!-- ints/inf_primes&#45;&gt;pvslib/lnexp -->
<g id="edge11" class="edge">
<title>ints/inf_primes&#45;&gt;pvslib/lnexp</title>
<path fill="none" stroke="black" d="M424,-346C424,-346 383,-313 383,-313 383,-313 374.73,-301.63 366.11,-289.78"/>
<polygon fill="black" stroke="black" points="369.19,-288.07 360.48,-282.04 363.53,-292.18 369.19,-288.07"/>
</g>
<!-- pvslib/numbers -->
<g id="node9" class="node">
<title>pvslib/numbers</title>
<polygon fill="#fcfcd7" stroke="black" points="403.62,-208.5 340.38,-208.5 340.38,-172.5 403.62,-172.5 403.62,-208.5"/>
<text text-anchor="middle" x="372" y="-185.45" font-family="Times,serif" font-size="14.00">numbers</text>
</g>
<!-- ints/inf_primes&#45;&gt;pvslib/numbers -->
<g id="edge12" class="edge">
<title>ints/inf_primes&#45;&gt;pvslib/numbers</title>
<path fill="none" stroke="black" d="M484,-261.5C484,-261.5 465,-244.5 465,-244.5 465,-244.5 437.39,-228.77 412.26,-214.44"/>
<polygon fill="black" stroke="black" points="414.19,-211.51 403.77,-209.6 410.72,-217.6 414.19,-211.51"/>
</g>
<!-- ints/inf_primes&#45;&gt;pvslib/reals -->
<g id="edge13" class="edge">
<title>ints/inf_primes&#45;&gt;pvslib/reals</title>
<path fill="none" stroke="black" d="M0,-189.5C0,-189.5 24,-172.5 24,-172.5 24,-172.5 349.56,-142.68 414.62,-134.22"/>
<polygon fill="black" stroke="black" points="414.93,-137.71 424.22,-132.63 413.78,-130.81 414.93,-137.71"/>
</g>
<!-- pvslib/series -->
<g id="node12" class="node">
<title>pvslib/series</title>
<polygon fill="#fcfcd7" stroke="black" points="576,-208.5 522,-208.5 522,-172.5 576,-172.5 576,-208.5"/>
<text text-anchor="middle" x="549" y="-185.45" font-family="Times,serif" font-size="14.00">series</text>
</g>
<!-- ints/inf_primes&#45;&gt;pvslib/series -->
<g id="edge14" class="edge">
<title>ints/inf_primes&#45;&gt;pvslib/series</title>
<path fill="none" stroke="black" d="M484,-261.5C484,-261.5 506.73,-237.02 525.3,-217.02"/>
<polygon fill="black" stroke="black" points="527.66,-219.62 531.9,-209.91 522.53,-214.86 527.66,-219.62"/>
</g>
<!-- ints/inf_primes&#45;&gt;pvslib/sets_aux -->
<g id="edge15" class="edge">
<title>ints/inf_primes&#45;&gt;pvslib/sets_aux</title>
<path fill="none" stroke="black" d="M424,-346C424,-346 465,-313 465,-313 465,-313 484,-263.5 484,-263.5"/>
<path fill="none" stroke="black" d="M484,-261.5C484,-261.5 473.92,-238.74 465.26,-219.18"/>
<polygon fill="black" stroke="black" points="468.53,-217.91 461.28,-210.19 462.12,-220.75 468.53,-217.91"/>
</g>
<!-- pvslib/topology -->
<g id="node16" class="node">
<title>pvslib/topology</title>
<polygon fill="#fcfcd7" stroke="black" points="456,-280.5 392,-280.5 392,-244.5 456,-244.5 456,-280.5"/>
<text text-anchor="middle" x="424" y="-257.45" font-family="Times,serif" font-size="14.00">topology</text>
</g>
<!-- ints/inf_primes&#45;&gt;pvslib/topology -->
<g id="edge16" class="edge">
<title>ints/inf_primes&#45;&gt;pvslib/topology</title>
<path fill="none" stroke="black" d="M424,-346C424,-346 424,-316.15 424,-292.36"/>
<polygon fill="black" stroke="black" points="427.5,-292.51 424,-282.51 420.5,-292.51 427.5,-292.51"/>
</g>
<!-- pvslib/algebra&#45;&gt;lib/finite_sets -->
<g id="edge17" class="edge">
<title>pvslib/algebra&#45;&gt;lib/finite_sets</title>
<path fill="none" stroke="black" d="M595,-189.5C595,-189.5 658,-119.5 658,-119.5"/>
</g>
<!-- pvslib/algebra&#45;&gt;pvslib/ints -->
<g id="edge18" class="edge">
<title>pvslib/algebra&#45;&gt;pvslib/ints</title>
<path fill="none" stroke="black" d="M286.12,-244.15C296.91,-228.69 311,-208.5 311,-208.5 311,-208.5 331,-172.5 331,-172.5 331,-172.5 344.06,-158.65 356.83,-145.12"/>
<polygon fill="black" stroke="black" points="359.27,-147.63 363.59,-137.96 354.18,-142.83 359.27,-147.63"/>
</g>
<!-- pvslib/algebra&#45;&gt;pvslib/numbers -->
<g id="edge19" class="edge">
<title>pvslib/algebra&#45;&gt;pvslib/numbers</title>
<path fill="none" stroke="black" d="M298.48,-244.02C310.61,-235.35 325.45,-224.75 338.61,-215.35"/>
<polygon fill="black" stroke="black" points="340.5,-218.3 346.6,-209.64 336.43,-212.6 340.5,-218.3"/>
</g>
<!-- pvslib/orders -->
<g id="node10" class="node">
<title>pvslib/orders</title>
<polygon fill="#fcfcd7" stroke="black" points="552,-136.5 498,-136.5 498,-100.5 552,-100.5 552,-136.5"/>
<text text-anchor="middle" x="525" y="-113.45" font-family="Times,serif" font-size="14.00">orders</text>
</g>
<!-- pvslib/algebra&#45;&gt;pvslib/orders -->
<g id="edge20" class="edge">
<title>pvslib/algebra&#45;&gt;pvslib/orders</title>
<path fill="none" stroke="black" d="M595,-189.5C595,-189.5 585,-172.5 585,-172.5 585,-172.5 568.73,-158.13 553.13,-144.35"/>
<polygon fill="black" stroke="black" points="555.59,-141.85 545.78,-137.86 550.96,-147.1 555.59,-141.85"/>
<path fill="none" stroke="black" d="M302.04,-248.62C307.2,-246.24 311,-244.5 311,-244.5 311,-244.5 585,-208.5 585,-208.5 585,-208.5 595,-191.5 595,-191.5"/>
</g>
<!-- pvslib/algebra&#45;&gt;pvslib/reals -->
<g id="edge21" class="edge">
<title>pvslib/algebra&#45;&gt;pvslib/reals</title>
<path fill="none" stroke="black" d="M302.04,-248.62C307.2,-246.24 311,-244.5 311,-244.5 311,-244.5 493,-208.5 493,-208.5 493,-208.5 493,-172.5 493,-172.5 493,-172.5 482.94,-159.17 472.91,-145.88"/>
<polygon fill="black" stroke="black" points="475.83,-143.94 467.01,-138.06 470.24,-148.15 475.83,-143.94"/>
</g>
<!-- pvslib/sigma_set -->
<g id="node14" class="node">
<title>pvslib/sigma_set</title>
<polygon fill="#fcfcd7" stroke="black" points="136.38,-208.5 65.62,-208.5 65.62,-172.5 136.38,-172.5 136.38,-208.5"/>
<text text-anchor="middle" x="101" y="-185.45" font-family="Times,serif" font-size="14.00">sigma_set</text>
</g>
<!-- pvslib/algebra&#45;&gt;pvslib/sigma_set -->
<g id="edge22" class="edge">
<title>pvslib/algebra&#45;&gt;pvslib/sigma_set</title>
<path fill="none" stroke="black" d="M245.82,-250.1C219.07,-239.27 178.38,-222.81 146.94,-210.09"/>
<polygon fill="black" stroke="black" points="148.65,-207.01 138.07,-206.5 146.03,-213.49 148.65,-207.01"/>
</g>
<!-- pvslib/algebra&#45;&gt;pvslib/structures -->
<g id="edge23" class="edge">
<title>pvslib/algebra&#45;&gt;pvslib/structures</title>
<path fill="none" stroke="black" d="M245.65,-247.71C213.35,-232.01 165,-208.5 165,-208.5 165,-208.5 165,-172.5 165,-172.5 165,-172.5 216.89,-152.42 256.8,-136.98"/>
<polygon fill="black" stroke="black" points="257.95,-140.29 266.02,-133.42 255.43,-133.76 257.95,-140.29"/>
</g>
<!-- pvslib/trig -->
<g id="node17" class="node">
<title>pvslib/trig</title>
<polygon fill="#fcfcd7" stroke="black" points="228,-208.5 174,-208.5 174,-172.5 228,-172.5 228,-208.5"/>
<text text-anchor="middle" x="201" y="-185.45" font-family="Times,serif" font-size="14.00">trig</text>
</g>
<!-- pvslib/algebra&#45;&gt;pvslib/trig -->
<g id="edge24" class="edge">
<title>pvslib/algebra&#45;&gt;pvslib/trig</title>
<path fill="none" stroke="black" d="M255.96,-244.2C247.27,-235.87 236.69,-225.72 227.14,-216.57"/>
<polygon fill="black" stroke="black" points="229.82,-214.29 220.18,-209.89 224.98,-219.34 229.82,-214.29"/>
</g>
<!-- pvslib/vectors -->
<g id="node18" class="node">
<title>pvslib/vectors</title>
<polygon fill="#fcfcd7" stroke="black" points="301.5,-208.5 246.5,-208.5 246.5,-172.5 301.5,-172.5 301.5,-208.5"/>
<text text-anchor="middle" x="274" y="-185.45" font-family="Times,serif" font-size="14.00">vectors</text>
</g>
<!-- pvslib/algebra&#45;&gt;pvslib/vectors -->
<g id="edge25" class="edge">
<title>pvslib/algebra&#45;&gt;pvslib/vectors</title>
<path fill="none" stroke="black" d="M274,-244.2C274,-236.91 274,-228.23 274,-220.04"/>
<polygon fill="black" stroke="black" points="277.5,-220.12 274,-210.12 270.5,-220.12 277.5,-220.12"/>
</g>
<!-- pvslib/analysis -->
<g id="node5" class="node">
<title>pvslib/analysis</title>
<polygon fill="#fcfcd7" stroke="black" points="629.75,-136.5 570.25,-136.5 570.25,-100.5 629.75,-100.5 629.75,-136.5"/>
<text text-anchor="middle" x="600" y="-113.45" font-family="Times,serif" font-size="14.00">analysis</text>
</g>
<!-- pvslib/ints&#45;&gt;lib/finite_sets -->
<g id="edge26" class="edge">
<title>pvslib/ints&#45;&gt;lib/finite_sets</title>
<path fill="none" stroke="black" d="M381,-100C381,-89.5 381,-75.89 381,-63.83"/>
<polygon fill="black" stroke="black" points="384.5,-63.98 381,-53.98 377.5,-63.98 384.5,-63.98"/>
</g>
<!-- pvslib/numbers&#45;&gt;pvslib/ints -->
<g id="edge27" class="edge">
<title>pvslib/numbers&#45;&gt;pvslib/ints</title>
<path fill="none" stroke="black" d="M374.22,-172.2C375.17,-164.82 376.3,-156.02 377.37,-147.75"/>
<polygon fill="black" stroke="black" points="380.8,-148.47 378.61,-138.11 373.86,-147.58 380.8,-148.47"/>
</g>
<!-- pvslib/numbers&#45;&gt;pvslib/reals -->
<g id="edge28" class="edge">
<title>pvslib/numbers&#45;&gt;pvslib/reals</title>
<path fill="none" stroke="black" d="M392.02,-172.2C401.76,-163.78 413.64,-153.52 424.31,-144.29"/>
<polygon fill="black" stroke="black" points="426.5,-147.02 431.78,-137.84 421.93,-141.73 426.5,-147.02"/>
</g>
<!-- pvslib/numbers&#45;&gt;pvslib/structures -->
<g id="edge29" class="edge">
<title>pvslib/numbers&#45;&gt;pvslib/structures</title>
<path fill="none" stroke="black" d="M354.7,-172.2C346.39,-163.89 336.28,-153.78 327.14,-144.64"/>
<polygon fill="black" stroke="black" points="329.72,-142.27 320.17,-137.67 324.77,-147.22 329.72,-142.27"/>
</g>
<!-- pvslib/series&#45;&gt;pvslib/analysis -->
<g id="edge30" class="edge">
<title>pvslib/series&#45;&gt;pvslib/analysis</title>
<path fill="none" stroke="black" d="M561.61,-172.2C567.41,-164.23 574.43,-154.6 580.86,-145.76"/>
<polygon fill="black" stroke="black" points="583.59,-147.97 586.65,-137.83 577.93,-143.85 583.59,-147.97"/>
</g>
<!-- pvslib/series&#45;&gt;pvslib/ints -->
<g id="edge31" class="edge">
<title>pvslib/series&#45;&gt;pvslib/ints</title>
<path fill="none" stroke="black" d="M521.65,-178.52C490.24,-165.91 440.78,-146.05 418.67,-136.84"/>
<polygon fill="black" stroke="black" points="420.25,-133.71 409.68,-132.98 417.49,-140.14 420.25,-133.71"/>
</g>
<!-- pvslib/series&#45;&gt;pvslib/orders -->
<g id="edge32" class="edge">
<title>pvslib/series&#45;&gt;pvslib/orders</title>
<path fill="none" stroke="black" d="M543.07,-172.2C540.51,-164.74 537.45,-155.82 534.59,-147.47"/>
<polygon fill="black" stroke="black" points="537.91,-146.36 531.36,-138.04 531.29,-148.63 537.91,-146.36"/>
</g>
<!-- pvslib/series&#45;&gt;pvslib/reals -->
<g id="edge33" class="edge">
<title>pvslib/series&#45;&gt;pvslib/reals</title>
<path fill="none" stroke="black" d="M525.27,-172.2C513.38,-163.53 498.81,-152.9 485.86,-143.46"/>
<polygon fill="black" stroke="black" points="488.16,-140.8 478.01,-137.74 484.03,-146.46 488.16,-140.8"/>
</g>
<!-- pvslib/sets_aux&#45;&gt;lib/finite_sets -->
<g id="edge34" class="edge">
<title>pvslib/sets_aux&#45;&gt;lib/finite_sets</title>
<path fill="none" stroke="black" d="M484.55,-180.51C537.62,-165.39 639,-136.5 639,-136.5 639,-136.5 658,-119.5 658,-119.5"/>
<path fill="none" stroke="black" d="M658,-117.5C658,-117.5 639,-92.5 639,-92.5 639,-92.5 502.52,-62.08 428.09,-45.5"/>
<polygon fill="black" stroke="black" points="429.14,-42.14 418.62,-43.38 427.62,-48.98 429.14,-42.14"/>
</g>
<!-- pvslib/sets_aux&#45;&gt;pvslib/ints -->
<g id="edge35" class="edge">
<title>pvslib/sets_aux&#45;&gt;pvslib/ints</title>
<path fill="none" stroke="black" d="M435.2,-172.2C426.72,-163.95 416.41,-153.93 407.07,-144.85"/>
<polygon fill="black" stroke="black" points="409.54,-142.36 399.93,-137.9 404.66,-147.38 409.54,-142.36"/>
</g>
<!-- pvslib/sets_aux&#45;&gt;pvslib/orders -->
<g id="edge36" class="edge">
<title>pvslib/sets_aux&#45;&gt;pvslib/orders</title>
<path fill="none" stroke="black" d="M470.8,-172.2C479.28,-163.95 489.59,-153.93 498.93,-144.85"/>
<polygon fill="black" stroke="black" points="501.34,-147.38 506.07,-137.9 496.46,-142.36 501.34,-147.38"/>
</g>
<!-- pvslib/sets_aux&#45;&gt;pvslib/reals -->
<g id="edge37" class="edge">
<title>pvslib/sets_aux&#45;&gt;pvslib/reals</title>
<path fill="none" stroke="black" d="M453,-172.2C453,-164.91 453,-156.23 453,-148.04"/>
<polygon fill="black" stroke="black" points="456.5,-148.12 453,-138.12 449.5,-148.12 456.5,-148.12"/>
</g>
<!-- pvslib/sets_aux&#45;&gt;pvslib/structures -->
<g id="edge38" class="edge">
<title>pvslib/sets_aux&#45;&gt;pvslib/structures</title>
<path fill="none" stroke="black" d="M421.35,-174.83C399.72,-164.8 370.76,-151.38 346.78,-140.26"/>
<polygon fill="black" stroke="black" points="348.42,-137.16 337.88,-136.13 345.48,-143.51 348.42,-137.16"/>
</g>
</g>
</svg>
