<?xml version="1.0" encoding="UTF-8" standalone="no"?>
<!DOCTYPE svg PUBLIC "-//W3C//DTD SVG 1.1//EN"
 "http://www.w3.org/Graphics/SVG/1.1/DTD/svg11.dtd">
<!-- Generated by graphviz version 8.0.4 (20230421.1958)
 -->
<!-- Title: pvsio_utils&#45;PVSioKeyVal Pages: 1 -->
<svg width="159pt" height="257pt"
 viewBox="0.00 0.00 159.00 257.00" xmlns="http://www.w3.org/2000/svg" xmlns:xlink="http://www.w3.org/1999/xlink">
<g id="graph0" class="graph" transform="scale(1 1) rotate(0) translate(4 253)">
<title>pvsio_utils&#45;PVSioKeyVal</title>
<polygon fill="white" stroke="none" points="-4,4 -4,-253 155,-253 155,4 -4,4"/>
<g id="clust2" class="cluster">
<title>cluster_NASALib&#45;pvsio_utils</title>
<polygon fill="none" stroke="black" points="8,-92.5 8,-241 143,-241 143,-92.5 8,-92.5"/>
<text text-anchor="middle" x="75.5" y="-223.7" font-family="Times,serif" font-size="14.00">NASALib&#45;pvsio_utils</text>
</g>
<g id="clust1" class="cluster">
<title>cluster_NASALib</title>
<polygon fill="none" stroke="black" points="33,-8 33,-84.5 117,-84.5 117,-8 33,-8"/>
<text text-anchor="middle" x="75" y="-67.2" font-family="Times,serif" font-size="14.00">NASALib</text>
</g>
<!-- NASALib&#45;pvsio_utils/PVSioKeyVal -->
<g id="node1" class="node">
<title>NASALib&#45;pvsio_utils/PVSioKeyVal</title>
<polygon fill="#f7e28d" stroke="black" points="120.88,-136.5 29.12,-136.5 29.12,-100.5 120.88,-100.5 120.88,-136.5"/>
<text text-anchor="middle" x="75" y="-113.45" font-family="Times,serif" font-size="14.00">PVSioKeyVal</text>
</g>
<!-- NASALib/structures -->
<g id="node3" class="node">
<title>NASALib/structures</title>
<polygon fill="#fcfcd7" stroke="black" points="109.25,-52 40.75,-52 40.75,-16 109.25,-16 109.25,-52"/>
<text text-anchor="middle" x="75" y="-28.95" font-family="Times,serif" font-size="14.00">structures</text>
</g>
<!-- NASALib&#45;pvsio_utils/PVSioKeyVal&#45;&gt;NASALib/structures -->
<g id="edge1" class="edge">
<title>NASALib&#45;pvsio_utils/PVSioKeyVal&#45;&gt;NASALib/structures</title>
<path fill="none" stroke="black" d="M75,-100C75,-89.39 75,-75.6 75,-63.46"/>
<polygon fill="black" stroke="black" points="78.5,-63.47 75,-53.47 71.5,-63.47 78.5,-63.47"/>
</g>
<!-- NASALib&#45;pvsio_utils/pvsio_examples -->
<g id="node2" class="node">
<title>NASALib&#45;pvsio_utils/pvsio_examples</title>
<polygon fill="#fcfcd7" stroke="black" points="126.88,-208.5 23.12,-208.5 23.12,-172.5 126.88,-172.5 126.88,-208.5"/>
<text text-anchor="middle" x="75" y="-185.45" font-family="Times,serif" font-size="14.00">pvsio_examples</text>
</g>
<!-- NASALib&#45;pvsio_utils/pvsio_examples&#45;&gt;NASALib&#45;pvsio_utils/PVSioKeyVal -->
<g id="edge2" class="edge">
<title>NASALib&#45;pvsio_utils/pvsio_examples&#45;&gt;NASALib&#45;pvsio_utils/PVSioKeyVal</title>
<path fill="none" stroke="black" d="M75,-172.2C75,-164.74 75,-155.82 75,-147.47"/>
<polygon fill="black" stroke="black" points="78.5,-147.6 75,-137.6 71.5,-147.6 78.5,-147.6"/>
</g>
</g>
</svg>
