<?xml version="1.0" encoding="UTF-8" standalone="no"?>
<!DOCTYPE svg PUBLIC "-//W3C//DTD SVG 1.1//EN"
 "http://www.w3.org/Graphics/SVG/1.1/DTD/svg11.dtd">
<!-- Generated by graphviz version 8.1.0 (20230707.0739)
 -->
<!-- Title: PVSioKeyVal&#45;zoomed Pages: 1 -->
<svg width="258pt" height="329pt"
 viewBox="0.00 0.00 258.00 329.00" xmlns="http://www.w3.org/2000/svg" xmlns:xlink="http://www.w3.org/1999/xlink">
<g id="graph0" class="graph" transform="scale(1 1) rotate(0) translate(4 325)">
<title>PVSioKeyVal&#45;zoomed</title>
<polygon fill="white" stroke="none" points="-4,4 -4,-325 254,-325 254,4 -4,4"/>
<g id="clust2" class="cluster">
<title>cluster_pvsio_utils/PVSioKeyVal</title>
<polygon fill="none" stroke="black" points="8,-92.5 8,-313 162,-313 162,-92.5 8,-92.5"/>
<text text-anchor="middle" x="85" y="-295.7" font-family="Times,serif" font-size="14.00">pvsio_utils/PVSioKeyVal</text>
</g>
<g id="clust1" class="cluster">
<title>cluster_NASALib</title>
<polygon fill="none" stroke="black" points="64,-8 64,-84.5 242,-84.5 242,-8 64,-8"/>
<text text-anchor="middle" x="153" y="-67.2" font-family="Times,serif" font-size="14.00">NASALib</text>
</g>
<!-- nasalib/pvsio_utils -->
<g id="node1" class="node">
<title>nasalib/pvsio_utils</title>
<polygon fill="#fcfcd7" stroke="black" points="233.62,-52 158.38,-52 158.38,-16 233.62,-16 233.62,-52"/>
<text text-anchor="middle" x="196" y="-28.95" font-family="Times,serif" font-size="14.00">pvsio_utils</text>
</g>
<!-- nasalib/structures -->
<g id="node2" class="node">
<title>nasalib/structures</title>
<polygon fill="#fcfcd7" stroke="black" points="140.25,-52 71.75,-52 71.75,-16 140.25,-16 140.25,-52"/>
<text text-anchor="middle" x="106" y="-28.95" font-family="Times,serif" font-size="14.00">structures</text>
</g>
<!-- pvsio_utils/PVSioKeyVal@kv_index -->
<g id="node3" class="node">
<title>pvsio_utils/PVSioKeyVal@kv_index</title>
<ellipse fill="#e6f3ff" stroke="black" cx="85" cy="-118.5" rx="45.21" ry="18"/>
<text text-anchor="middle" x="85" y="-113.45" font-family="Times,serif" font-size="14.00">kv_index</text>
</g>
<!-- pvsio_utils/PVSioKeyVal@kv_index&#45;&gt;nasalib/structures -->
<g id="edge1" class="edge">
<title>pvsio_utils/PVSioKeyVal@kv_index&#45;&gt;nasalib/structures</title>
<path fill="none" stroke="black" d="M89.35,-100.41C92.12,-89.53 95.77,-75.19 98.95,-62.71"/>
<polygon fill="black" stroke="black" points="102.51,-63.91 101.58,-53.36 95.72,-62.18 102.51,-63.91"/>
</g>
<!-- pvsio_utils/PVSioKeyVal@kv_io -->
<g id="node4" class="node">
<title>pvsio_utils/PVSioKeyVal@kv_io</title>
<ellipse fill="#e6f3ff" stroke="black" cx="85" cy="-262.5" rx="31.9" ry="18"/>
<text text-anchor="middle" x="85" y="-257.45" font-family="Times,serif" font-size="14.00">kv_io</text>
</g>
<!-- pvsio_utils/PVSioKeyVal@kv_io&#45;&gt;nasalib/pvsio_utils -->
<g id="edge2" class="edge">
<title>pvsio_utils/PVSioKeyVal@kv_io&#45;&gt;nasalib/pvsio_utils</title>
<path fill="none" stroke="black" d="M196,-117.5C196,-117.5 196,-87.1 196,-63.21"/>
<polygon fill="black" stroke="black" points="199.5,-63.5 196,-53.5 192.5,-63.5 199.5,-63.5"/>
</g>
<!-- pvsio_utils/PVSioKeyVal@kv_io&#45;&gt;nasalib/structures -->
<g id="edge3" class="edge">
<title>pvsio_utils/PVSioKeyVal@kv_io&#45;&gt;nasalib/structures</title>
<path fill="none" stroke="black" d="M100.04,-246.17C115.4,-230.52 137,-208.5 137,-208.5 137,-208.5 196,-119.5 196,-119.5"/>
<path fill="none" stroke="black" d="M196,-117.5C196,-117.5 149,-84.5 149,-84.5 149,-84.5 138.73,-72.67 128.22,-60.58"/>
<polygon fill="black" stroke="black" points="130.24,-58.57 121.04,-53.31 124.96,-63.16 130.24,-58.57"/>
</g>
<!-- pvsio_utils/PVSioKeyVal@kv_store -->
<g id="node5" class="node">
<title>pvsio_utils/PVSioKeyVal@kv_store</title>
<ellipse fill="#e6f3ff" stroke="black" cx="85" cy="-190.5" rx="42.65" ry="18"/>
<text text-anchor="middle" x="85" y="-185.45" font-family="Times,serif" font-size="14.00">kv_store</text>
</g>
<!-- pvsio_utils/PVSioKeyVal@kv_io&#45;&gt;pvsio_utils/PVSioKeyVal@kv_store -->
<g id="edge4" class="edge">
<title>pvsio_utils/PVSioKeyVal@kv_io&#45;&gt;pvsio_utils/PVSioKeyVal@kv_store</title>
<path fill="none" stroke="black" d="M85,-244.2C85,-236.74 85,-227.82 85,-219.47"/>
<polygon fill="black" stroke="black" points="88.5,-219.6 85,-209.6 81.5,-219.6 88.5,-219.6"/>
</g>
<!-- pvsio_utils/PVSioKeyVal@kv_store&#45;&gt;nasalib/pvsio_utils -->
<g id="edge5" class="edge">
<title>pvsio_utils/PVSioKeyVal@kv_store&#45;&gt;nasalib/pvsio_utils</title>
<path fill="none" stroke="black" d="M101.2,-173.6C117.11,-157.99 139,-136.5 139,-136.5 139,-136.5 164.08,-91.84 180.97,-61.77"/>
<polygon fill="black" stroke="black" points="184.49,-63.65 186.33,-53.22 178.38,-60.22 184.49,-63.65"/>
</g>
<!-- pvsio_utils/PVSioKeyVal@kv_store&#45;&gt;pvsio_utils/PVSioKeyVal@kv_index -->
<g id="edge6" class="edge">
<title>pvsio_utils/PVSioKeyVal@kv_store&#45;&gt;pvsio_utils/PVSioKeyVal@kv_index</title>
<path fill="none" stroke="black" d="M85,-172.2C85,-164.74 85,-155.82 85,-147.47"/>
<polygon fill="black" stroke="black" points="88.5,-147.6 85,-137.6 81.5,-147.6 88.5,-147.6"/>
</g>
</g>
</svg>
