<?xml version="1.0" encoding="UTF-8" standalone="no"?>
<!DOCTYPE svg PUBLIC "-//W3C//DTD SVG 1.1//EN"
 "http://www.w3.org/Graphics/SVG/1.1/DTD/svg11.dtd">
<!-- Generated by graphviz version 2.44.1 (20200629.0846)
 -->
<!-- Title: complex_alt&#45;zoomed Pages: 1 -->
<svg width="856pt" height="390pt"
 viewBox="0.00 0.00 856.00 390.00" xmlns="http://www.w3.org/2000/svg" xmlns:xlink="http://www.w3.org/1999/xlink">
<g id="graph0" class="graph" transform="scale(1 1) rotate(0) translate(4 386)">
<title>complex_alt&#45;zoomed</title>
<polygon fill="white" stroke="transparent" points="-4,4 -4,-386 852,-386 852,4 -4,4"/>
<g id="clust1" class="cluster">
<title>cluster_NASALib</title>
<polygon fill="none" stroke="black" points="466,-8 466,-83 840,-83 840,-8 466,-8"/>
<text text-anchor="middle" x="653" y="-67.8" font-family="Times,serif" font-size="14.00">NASALib</text>
</g>
<g id="clust2" class="cluster">
<title>cluster_NASALib/complex_alt</title>
<polygon fill="none" stroke="black" points="8,-8 8,-374 458,-374 458,-8 8,-8"/>
<text text-anchor="middle" x="233" y="-358.8" font-family="Times,serif" font-size="14.00">NASALib/complex_alt</text>
</g>
<!-- nasalib/complex_alt@complex_fun_ops -->
<g id="node1" class="node">
<title>nasalib/complex_alt@complex_fun_ops</title>
<ellipse fill="#e6f3ff" stroke="black" cx="226" cy="-181" rx="74.19" ry="18"/>
<text text-anchor="middle" x="226" y="-177.3" font-family="Times,serif" font-size="14.00">complex_fun_ops</text>
</g>
<!-- nasalib/complex_alt@polar -->
<g id="node7" class="node">
<title>nasalib/complex_alt@polar</title>
<ellipse fill="#e6f3ff" stroke="black" cx="226" cy="-109" rx="28.7" ry="18"/>
<text text-anchor="middle" x="226" y="-105.3" font-family="Times,serif" font-size="14.00">polar</text>
</g>
<!-- nasalib/complex_alt@complex_fun_ops&#45;&gt;nasalib/complex_alt@polar -->
<g id="edge1" class="edge">
<title>nasalib/complex_alt@complex_fun_ops&#45;&gt;nasalib/complex_alt@polar</title>
<path fill="none" stroke="black" d="M235.53,-162.83C235.53,-162.83 235.53,-136.42 235.53,-136.42"/>
<polygon fill="black" stroke="black" points="239.03,-136.42 235.53,-126.42 232.03,-136.42 239.03,-136.42"/>
</g>
<!-- nasalib/reals -->
<g id="node11" class="node">
<title>nasalib/reals</title>
<polygon fill="#fcfcd7" stroke="black" points="528,-52 474,-52 474,-16 528,-16 528,-52"/>
<text text-anchor="middle" x="501" y="-30.3" font-family="Times,serif" font-size="14.00">reals</text>
</g>
<!-- nasalib/complex_alt@complex_fun_ops&#45;&gt;nasalib/reals -->
<g id="edge2" class="edge">
<title>nasalib/complex_alt@complex_fun_ops&#45;&gt;nasalib/reals</title>
<path fill="none" stroke="black" d="M296.84,-175.64C296.84,-149.89 296.84,-40 296.84,-40 296.84,-40 463.89,-40 463.89,-40"/>
<polygon fill="black" stroke="black" points="463.89,-43.5 473.89,-40 463.89,-36.5 463.89,-43.5"/>
</g>
<!-- nasalib/structures -->
<g id="node12" class="node">
<title>nasalib/structures</title>
<polygon fill="#fcfcd7" stroke="black" points="615.5,-52 546.5,-52 546.5,-16 615.5,-16 615.5,-52"/>
<text text-anchor="middle" x="581" y="-30.3" font-family="Times,serif" font-size="14.00">structures</text>
</g>
<!-- nasalib/complex_alt@complex_fun_ops&#45;&gt;nasalib/structures -->
<g id="edge3" class="edge">
<title>nasalib/complex_alt@complex_fun_ops&#45;&gt;nasalib/structures</title>
<path fill="none" stroke="black" d="M293.59,-173.37C293.59,-162.8 293.59,-145 293.59,-145 293.59,-145 592.5,-145 592.5,-145 592.5,-145 592.5,-62.33 592.5,-62.33"/>
<polygon fill="black" stroke="black" points="596,-62.33 592.5,-52.33 589,-62.33 596,-62.33"/>
</g>
<!-- nasalib/complex_alt@complex_lnexp -->
<g id="node2" class="node">
<title>nasalib/complex_alt@complex_lnexp</title>
<ellipse fill="#e6f3ff" stroke="black" cx="384" cy="-181" rx="65.79" ry="18"/>
<text text-anchor="middle" x="384" y="-177.3" font-family="Times,serif" font-size="14.00">complex_lnexp</text>
</g>
<!-- nasalib/complex_alt@complex_lnexp&#45;&gt;nasalib/complex_alt@polar -->
<g id="edge4" class="edge">
<title>nasalib/complex_alt@complex_lnexp&#45;&gt;nasalib/complex_alt@polar</title>
<path fill="none" stroke="black" d="M384,-162.78C384,-144.17 384,-118 384,-118 384,-118 261.04,-118 261.04,-118"/>
<polygon fill="black" stroke="black" points="261.04,-114.5 251.04,-118 261.04,-121.5 261.04,-114.5"/>
</g>
<!-- nasalib/lnexp -->
<g id="node9" class="node">
<title>nasalib/lnexp</title>
<polygon fill="#fcfcd7" stroke="black" points="760,-52 706,-52 706,-16 760,-16 760,-52"/>
<text text-anchor="middle" x="733" y="-30.3" font-family="Times,serif" font-size="14.00">lnexp</text>
</g>
<!-- nasalib/complex_alt@complex_lnexp&#45;&gt;nasalib/lnexp -->
<g id="edge5" class="edge">
<title>nasalib/complex_alt@complex_lnexp&#45;&gt;nasalib/lnexp</title>
<path fill="none" stroke="black" d="M445.99,-187C546.28,-187 733,-187 733,-187 733,-187 733,-62.15 733,-62.15"/>
<polygon fill="black" stroke="black" points="736.5,-62.15 733,-52.15 729.5,-62.15 736.5,-62.15"/>
</g>
<!-- nasalib/trig -->
<g id="node13" class="node">
<title>nasalib/trig</title>
<polygon fill="#fcfcd7" stroke="black" points="688,-52 634,-52 634,-16 688,-16 688,-52"/>
<text text-anchor="middle" x="661" y="-30.3" font-family="Times,serif" font-size="14.00">trig</text>
</g>
<!-- nasalib/complex_alt@complex_lnexp&#45;&gt;nasalib/trig -->
<g id="edge6" class="edge">
<title>nasalib/complex_alt@complex_lnexp&#45;&gt;nasalib/trig</title>
<path fill="none" stroke="black" d="M445.97,-175C529.1,-175 666.4,-175 666.4,-175 666.4,-175 666.4,-62.14 666.4,-62.14"/>
<polygon fill="black" stroke="black" points="669.9,-62.14 666.4,-52.14 662.9,-62.14 669.9,-62.14"/>
</g>
<!-- nasalib/complex_alt@complex_root -->
<g id="node3" class="node">
<title>nasalib/complex_alt@complex_root</title>
<ellipse fill="#e6f3ff" stroke="black" cx="365" cy="-325" rx="59.59" ry="18"/>
<text text-anchor="middle" x="365" y="-321.3" font-family="Times,serif" font-size="14.00">complex_root</text>
</g>
<!-- nasalib/complex_alt@fundamental_algebra -->
<g id="node6" class="node">
<title>nasalib/complex_alt@fundamental_algebra</title>
<ellipse fill="#e6f3ff" stroke="black" cx="365" cy="-253" rx="85.29" ry="18"/>
<text text-anchor="middle" x="365" y="-249.3" font-family="Times,serif" font-size="14.00">fundamental_algebra</text>
</g>
<!-- nasalib/complex_alt@complex_root&#45;&gt;nasalib/complex_alt@fundamental_algebra -->
<g id="edge7" class="edge">
<title>nasalib/complex_alt@complex_root&#45;&gt;nasalib/complex_alt@fundamental_algebra</title>
<path fill="none" stroke="black" d="M365,-306.83C365,-306.83 365,-281.41 365,-281.41"/>
<polygon fill="black" stroke="black" points="368.5,-281.41 365,-271.41 361.5,-281.41 368.5,-281.41"/>
</g>
<!-- nasalib/power -->
<g id="node10" class="node">
<title>nasalib/power</title>
<polygon fill="#fcfcd7" stroke="black" points="832,-52 778,-52 778,-16 832,-16 832,-52"/>
<text text-anchor="middle" x="805" y="-30.3" font-family="Times,serif" font-size="14.00">power</text>
</g>
<!-- nasalib/complex_alt@complex_root&#45;&gt;nasalib/power -->
<g id="edge8" class="edge">
<title>nasalib/complex_alt@complex_root&#45;&gt;nasalib/power</title>
<path fill="none" stroke="black" d="M425.09,-325C547.44,-325 814,-325 814,-325 814,-325 814,-62.2 814,-62.2"/>
<polygon fill="black" stroke="black" points="817.5,-62.2 814,-52.2 810.5,-62.2 817.5,-62.2"/>
</g>
<!-- nasalib/complex_alt@complex_sqrt -->
<g id="node4" class="node">
<title>nasalib/complex_alt@complex_sqrt</title>
<ellipse fill="#e6f3ff" stroke="black" cx="75" cy="-181" rx="59.29" ry="18"/>
<text text-anchor="middle" x="75" y="-177.3" font-family="Times,serif" font-size="14.00">complex_sqrt</text>
</g>
<!-- nasalib/complex_alt@complex_sqrt&#45;&gt;nasalib/complex_alt@polar -->
<g id="edge9" class="edge">
<title>nasalib/complex_alt@complex_sqrt&#45;&gt;nasalib/complex_alt@polar</title>
<path fill="none" stroke="black" d="M106.35,-165.51C106.35,-152.5 106.35,-136 106.35,-136 106.35,-136 216.47,-136 216.47,-136 216.47,-136 216.47,-135.03 216.47,-135.03"/>
<polygon fill="black" stroke="black" points="219.97,-136.25 216.47,-126.25 212.97,-136.25 219.97,-136.25"/>
</g>
<!-- nasalib/complex_alt@complex_sqrt&#45;&gt;nasalib/trig -->
<g id="edge10" class="edge">
<title>nasalib/complex_alt@complex_sqrt&#45;&gt;nasalib/trig</title>
<path fill="none" stroke="black" d="M120.25,-169.39C120.25,-162.07 120.25,-154 120.25,-154 120.25,-154 655.6,-154 655.6,-154 655.6,-154 655.6,-62.23 655.6,-62.23"/>
<polygon fill="black" stroke="black" points="659.1,-62.23 655.6,-52.23 652.1,-62.23 659.1,-62.23"/>
</g>
<!-- nasalib/complex_alt@complex_types -->
<g id="node5" class="node">
<title>nasalib/complex_alt@complex_types</title>
<ellipse fill="#e6f3ff" stroke="black" cx="226" cy="-34" rx="64.19" ry="18"/>
<text text-anchor="middle" x="226" y="-30.3" font-family="Times,serif" font-size="14.00">complex_types</text>
</g>
<!-- nasalib/complex_alt@complex_types&#45;&gt;nasalib/reals -->
<g id="edge11" class="edge">
<title>nasalib/complex_alt@complex_types&#45;&gt;nasalib/reals</title>
<path fill="none" stroke="black" d="M286.69,-28C286.69,-28 463.84,-28 463.84,-28"/>
<polygon fill="black" stroke="black" points="463.84,-31.5 473.84,-28 463.84,-24.5 463.84,-31.5"/>
</g>
<!-- nasalib/complex_alt@fundamental_algebra&#45;&gt;nasalib/complex_alt@complex_lnexp -->
<g id="edge12" class="edge">
<title>nasalib/complex_alt@fundamental_algebra&#45;&gt;nasalib/complex_alt@complex_lnexp</title>
<path fill="none" stroke="black" d="M384,-235.2C384,-235.2 384,-209.09 384,-209.09"/>
<polygon fill="black" stroke="black" points="387.5,-209.09 384,-199.09 380.5,-209.09 387.5,-209.09"/>
</g>
<!-- nasalib/complex_alt@fundamental_algebra&#45;&gt;nasalib/power -->
<g id="edge13" class="edge">
<title>nasalib/complex_alt@fundamental_algebra&#45;&gt;nasalib/power</title>
<path fill="none" stroke="black" d="M445.31,-259C570,-259 796,-259 796,-259 796,-259 796,-62.03 796,-62.03"/>
<polygon fill="black" stroke="black" points="799.5,-62.03 796,-52.03 792.5,-62.03 799.5,-62.03"/>
</g>
<!-- nasalib/complex_alt@fundamental_algebra&#45;&gt;nasalib/trig -->
<g id="edge14" class="edge">
<title>nasalib/complex_alt@fundamental_algebra&#45;&gt;nasalib/trig</title>
<path fill="none" stroke="black" d="M445.4,-247C537.9,-247 677.2,-247 677.2,-247 677.2,-247 677.2,-62.16 677.2,-62.16"/>
<polygon fill="black" stroke="black" points="680.7,-62.16 677.2,-52.16 673.7,-62.16 680.7,-62.16"/>
</g>
<!-- nasalib/complex_alt@polar&#45;&gt;nasalib/complex_alt@complex_types -->
<g id="edge15" class="edge">
<title>nasalib/complex_alt@polar&#45;&gt;nasalib/complex_alt@complex_types</title>
<path fill="none" stroke="black" d="M226,-90.84C226,-90.84 226,-62.25 226,-62.25"/>
<polygon fill="black" stroke="black" points="229.5,-62.25 226,-52.25 222.5,-62.25 229.5,-62.25"/>
</g>
<!-- nasalib/complex_alt@polar&#45;&gt;nasalib/reals -->
<g id="edge16" class="edge">
<title>nasalib/complex_alt@polar&#45;&gt;nasalib/reals</title>
<path fill="none" stroke="black" d="M251.2,-100C320.71,-100 510,-100 510,-100 510,-100 510,-62.03 510,-62.03"/>
<polygon fill="black" stroke="black" points="513.5,-62.03 510,-52.03 506.5,-62.03 513.5,-62.03"/>
</g>
<!-- nasalib/complex_alt@polar&#45;&gt;nasalib/trig -->
<g id="edge17" class="edge">
<title>nasalib/complex_alt@polar&#45;&gt;nasalib/trig</title>
<path fill="none" stroke="black" d="M254.79,-109C349.4,-109 644.8,-109 644.8,-109 644.8,-109 644.8,-62.16 644.8,-62.16"/>
<polygon fill="black" stroke="black" points="648.3,-62.16 644.8,-52.16 641.3,-62.16 648.3,-62.16"/>
</g>
<!-- nasalib/complex_alt@quadratic -->
<g id="node8" class="node">
<title>nasalib/complex_alt@quadratic</title>
<ellipse fill="#e6f3ff" stroke="black" cx="136" cy="-109" rx="43.59" ry="18"/>
<text text-anchor="middle" x="136" y="-105.3" font-family="Times,serif" font-size="14.00">quadratic</text>
</g>
<!-- nasalib/complex_alt@quadratic&#45;&gt;nasalib/complex_alt@complex_types -->
<g id="edge18" class="edge">
<title>nasalib/complex_alt@quadratic&#45;&gt;nasalib/complex_alt@complex_types</title>
<path fill="none" stroke="black" d="M166.13,-95.94C166.13,-95.94 166.13,-50.66 166.13,-50.66"/>
<polygon fill="black" stroke="black" points="169.63,-50.66 166.13,-40.66 162.63,-50.66 169.63,-50.66"/>
</g>
<!-- nasalib/complex_alt@quadratic&#45;&gt;nasalib/reals -->
<g id="edge19" class="edge">
<title>nasalib/complex_alt@quadratic&#45;&gt;nasalib/reals</title>
<path fill="none" stroke="black" d="M170.6,-97.9C170.6,-84.86 170.6,-65 170.6,-65 170.6,-65 492,-65 492,-65 492,-65 492,-62.03 492,-62.03"/>
<polygon fill="black" stroke="black" points="495.5,-62.03 492,-52.03 488.5,-62.03 495.5,-62.03"/>
</g>
<!-- nasalib/complex_alt@quadratic&#45;&gt;nasalib/structures -->
<g id="edge20" class="edge">
<title>nasalib/complex_alt@quadratic&#45;&gt;nasalib/structures</title>
<path fill="none" stroke="black" d="M175.07,-100.86C175.07,-91.67 175.07,-78 175.07,-78 175.07,-78 569.5,-78 569.5,-78 569.5,-78 569.5,-62.15 569.5,-62.15"/>
<polygon fill="black" stroke="black" points="573,-62.15 569.5,-52.15 566,-62.15 573,-62.15"/>
</g>
</g>
</svg>
