<?xml version="1.0" encoding="UTF-8" standalone="no"?>
<!DOCTYPE svg PUBLIC "-//W3C//DTD SVG 1.1//EN"
 "http://www.w3.org/Graphics/SVG/1.1/DTD/svg11.dtd">
<!-- Generated by graphviz version 7.0.6 (20230106.0513)
 -->
<!-- Title: mult_poly Pages: 1 -->
<svg width="630pt" height="171pt"
 viewBox="0.00 0.00 630.00 171.00" xmlns="http://www.w3.org/2000/svg" xmlns:xlink="http://www.w3.org/1999/xlink">
<g id="graph0" class="graph" transform="scale(1 1) rotate(0) translate(4 167)">
<title>mult_poly</title>
<polygon fill="white" stroke="none" points="-4,4 -4,-167 626,-167 626,4 -4,4"/>
<g id="clust1" class="cluster">
<title>cluster_pvslib</title>
<polygon fill="none" stroke="black" points="8,-8 8,-155 614,-155 614,-8 8,-8"/>
<text text-anchor="middle" x="311" y="-139.8" font-family="Times,serif" font-size="14.00">pvslib</text>
</g>
<!-- pvslib/analysis -->
<g id="node1" class="node">
<title>pvslib/analysis</title>
<polygon fill="#fcfcd7" stroke="black" points="76,-52 16,-52 16,-16 76,-16 76,-52"/>
<text text-anchor="middle" x="46" y="-30.3" font-family="Times,serif" font-size="14.00">analysis</text>
</g>
<!-- pvslib/lnexp -->
<g id="node2" class="node">
<title>pvslib/lnexp</title>
<polygon fill="#fcfcd7" stroke="black" points="148,-52 94,-52 94,-16 148,-16 148,-52"/>
<text text-anchor="middle" x="121" y="-30.3" font-family="Times,serif" font-size="14.00">lnexp</text>
</g>
<!-- pvslib/matrices -->
<g id="node3" class="node">
<title>pvslib/matrices</title>
<polygon fill="#fcfcd7" stroke="black" points="229.5,-52 166.5,-52 166.5,-16 229.5,-16 229.5,-52"/>
<text text-anchor="middle" x="198" y="-30.3" font-family="Times,serif" font-size="14.00">matrices</text>
</g>
<!-- pvslib/mult_poly -->
<g id="node4" class="node">
<title>pvslib/mult_poly</title>
<polygon fill="#f7e28d" stroke="black" points="347.5,-124 274.5,-124 274.5,-88 347.5,-88 347.5,-124"/>
<text text-anchor="middle" x="311" y="-102.3" font-family="Times,serif" font-size="14.00">mult_poly</text>
</g>
<!-- pvslib/mult_poly&#45;&gt;pvslib/analysis -->
<g id="edge1" class="edge">
<title>pvslib/mult_poly&#45;&gt;pvslib/analysis</title>
<path fill="none" stroke="black" d="M274.19,-96.37C219.65,-83.58 120.81,-60.4 87.32,-51.47"/>
<polygon fill="black" stroke="black" points="88.38,-48.13 77.8,-48.66 86.4,-54.84 88.38,-48.13"/>
</g>
<!-- pvslib/mult_poly&#45;&gt;pvslib/lnexp -->
<g id="edge2" class="edge">
<title>pvslib/mult_poly&#45;&gt;pvslib/lnexp</title>
<path fill="none" stroke="black" d="M274.35,-92.31C237.22,-79.44 182.71,-60.56 158.96,-51.73"/>
<polygon fill="black" stroke="black" points="160.28,-48.48 149.69,-48.09 157.72,-55 160.28,-48.48"/>
</g>
<!-- pvslib/mult_poly&#45;&gt;pvslib/matrices -->
<g id="edge3" class="edge">
<title>pvslib/mult_poly&#45;&gt;pvslib/matrices</title>
<path fill="none" stroke="black" d="M282.78,-87.52C268.51,-78.68 251.01,-67.84 235.62,-58.3"/>
<polygon fill="black" stroke="black" points="237.49,-55.35 227.15,-53.06 233.81,-61.3 237.49,-55.35"/>
</g>
<!-- pvslib/reals -->
<g id="node5" class="node">
<title>pvslib/reals</title>
<polygon fill="#fcfcd7" stroke="black" points="302,-52 248,-52 248,-16 302,-16 302,-52"/>
<text text-anchor="middle" x="275" y="-30.3" font-family="Times,serif" font-size="14.00">reals</text>
</g>
<!-- pvslib/mult_poly&#45;&gt;pvslib/reals -->
<g id="edge4" class="edge">
<title>pvslib/mult_poly&#45;&gt;pvslib/reals</title>
<path fill="none" stroke="black" d="M302.1,-87.7C298.13,-79.98 293.37,-70.71 288.94,-62.11"/>
<polygon fill="black" stroke="black" points="292.17,-60.74 284.49,-53.45 285.95,-63.94 292.17,-60.74"/>
</g>
<!-- pvslib/series -->
<g id="node6" class="node">
<title>pvslib/series</title>
<polygon fill="#fcfcd7" stroke="black" points="374,-52 320,-52 320,-16 374,-16 374,-52"/>
<text text-anchor="middle" x="347" y="-30.3" font-family="Times,serif" font-size="14.00">series</text>
</g>
<!-- pvslib/mult_poly&#45;&gt;pvslib/series -->
<g id="edge5" class="edge">
<title>pvslib/mult_poly&#45;&gt;pvslib/series</title>
<path fill="none" stroke="black" d="M319.9,-87.7C323.87,-79.98 328.63,-70.71 333.06,-62.11"/>
<polygon fill="black" stroke="black" points="336.05,-63.94 337.51,-53.45 329.83,-60.74 336.05,-63.94"/>
</g>
<!-- pvslib/sorting -->
<g id="node7" class="node">
<title>pvslib/sorting</title>
<polygon fill="#fcfcd7" stroke="black" points="446,-52 392,-52 392,-16 446,-16 446,-52"/>
<text text-anchor="middle" x="419" y="-30.3" font-family="Times,serif" font-size="14.00">sorting</text>
</g>
<!-- pvslib/mult_poly&#45;&gt;pvslib/sorting -->
<g id="edge6" class="edge">
<title>pvslib/mult_poly&#45;&gt;pvslib/sorting</title>
<path fill="none" stroke="black" d="M337.97,-87.52C351.61,-78.68 368.34,-67.84 383.05,-58.3"/>
<polygon fill="black" stroke="black" points="384.61,-61.46 391.1,-53.08 380.8,-55.59 384.61,-61.46"/>
</g>
<!-- pvslib/structures -->
<g id="node8" class="node">
<title>pvslib/structures</title>
<polygon fill="#fcfcd7" stroke="black" points="533.5,-52 464.5,-52 464.5,-16 533.5,-16 533.5,-52"/>
<text text-anchor="middle" x="499" y="-30.3" font-family="Times,serif" font-size="14.00">structures</text>
</g>
<!-- pvslib/mult_poly&#45;&gt;pvslib/structures -->
<g id="edge7" class="edge">
<title>pvslib/mult_poly&#45;&gt;pvslib/structures</title>
<path fill="none" stroke="black" d="M347.71,-91.49C382.37,-78.73 431.54,-60.64 453.76,-52.36"/>
<polygon fill="black" stroke="black" points="454.78,-55.72 462.91,-48.93 452.32,-49.17 454.78,-55.72"/>
</g>
<!-- pvslib/trig -->
<g id="node9" class="node">
<title>pvslib/trig</title>
<polygon fill="#fcfcd7" stroke="black" points="606,-52 552,-52 552,-16 606,-16 606,-52"/>
<text text-anchor="middle" x="579" y="-30.3" font-family="Times,serif" font-size="14.00">trig</text>
</g>
<!-- pvslib/mult_poly&#45;&gt;pvslib/trig -->
<g id="edge8" class="edge">
<title>pvslib/mult_poly&#45;&gt;pvslib/trig</title>
<path fill="none" stroke="black" d="M347.76,-96.6C403.72,-83.82 506.82,-60.27 540.91,-51.15"/>
<polygon fill="black" stroke="black" points="541.7,-54.56 550.27,-48.32 539.68,-47.86 541.7,-54.56"/>
</g>
</g>
</svg>
