<?xml version="1.0" encoding="UTF-8" standalone="no"?>
<!DOCTYPE svg PUBLIC "-//W3C//DTD SVG 1.1//EN"
 "http://www.w3.org/Graphics/SVG/1.1/DTD/svg11.dtd">
<!-- Generated by graphviz version 7.0.6 (20230106.0513)
 -->
<!-- Title: all&#45;libraries&#45;mult_poly&#45;zoom_mult_poly Pages: 1 -->
<svg width="1787pt" height="668pt"
 viewBox="0.00 0.00 1786.58 668.00" xmlns="http://www.w3.org/2000/svg" xmlns:xlink="http://www.w3.org/1999/xlink">
<g id="graph0" class="graph" transform="scale(1 1) rotate(0) translate(4 664)">
<title>all&#45;libraries&#45;mult_poly&#45;zoom_mult_poly</title>
<polygon fill="white" stroke="none" points="-4,4 -4,-664 1782.58,-664 1782.58,4 -4,4"/>
<g id="clust2" class="cluster">
<title>cluster_NASALib/mult_poly</title>
<polygon fill="none" stroke="black" points="8,-301 8,-652 1665.58,-652 1665.58,-301 8,-301"/>
<text text-anchor="middle" x="836.79" y="-636.8" font-family="Times,serif" font-size="14.00">NASALib/mult_poly</text>
</g>
<g id="clust1" class="cluster">
<title>cluster_NASALib</title>
<polygon fill="none" stroke="black" points="1685.58,-8 1685.58,-461 1770.58,-461 1770.58,-8 1685.58,-8"/>
<text text-anchor="middle" x="1728.08" y="-445.8" font-family="Times,serif" font-size="14.00">NASALib</text>
</g>
<!-- pvslib/analysis -->
<g id="node1" class="node">
<title>pvslib/analysis</title>
<polygon fill="#fcfcd7" stroke="black" points="1758.08,-214 1698.08,-214 1698.08,-178 1758.08,-178 1758.08,-214"/>
<text text-anchor="middle" x="1728.08" y="-192.3" font-family="Times,serif" font-size="14.00">analysis</text>
</g>
<!-- pvslib/lnexp -->
<g id="node2" class="node">
<title>pvslib/lnexp</title>
<polygon fill="#fcfcd7" stroke="black" points="1755.08,-106 1701.08,-106 1701.08,-70 1755.08,-70 1755.08,-106"/>
<text text-anchor="middle" x="1728.08" y="-84.3" font-family="Times,serif" font-size="14.00">lnexp</text>
</g>
<!-- pvslib/matrices -->
<g id="node3" class="node">
<title>pvslib/matrices</title>
<polygon fill="#fcfcd7" stroke="black" points="1759.58,-268 1696.58,-268 1696.58,-232 1759.58,-232 1759.58,-268"/>
<text text-anchor="middle" x="1728.08" y="-246.3" font-family="Times,serif" font-size="14.00">matrices</text>
</g>
<!-- pvslib/mult_poly@analytic_def -->
<g id="node4" class="node">
<title>pvslib/mult_poly@analytic_def</title>
<ellipse fill="#e6f3ff" stroke="black" cx="533.21" cy="-381" rx="53.89" ry="18"/>
<text text-anchor="middle" x="533.21" y="-377.3" font-family="Times,serif" font-size="14.00">analytic_def</text>
</g>
<!-- pvslib/mult_poly@analytic_def&#45;&gt;pvslib/matrices -->
<g id="edge1" class="edge">
<title>pvslib/mult_poly@analytic_def&#45;&gt;pvslib/matrices</title>
<path fill="none" stroke="black" d="M944.83,-219C1086.37,-181.57 1543.7,-229.09 1685.06,-245.09"/>
<polygon fill="black" stroke="black" points="1684.38,-248.54 1694.71,-246.19 1685.17,-241.58 1684.38,-248.54"/>
</g>
<!-- pvslib/mult_poly@continuous_ball_props -->
<g id="node7" class="node">
<title>pvslib/mult_poly@continuous_ball_props</title>
<ellipse fill="#e6f3ff" stroke="black" cx="753.14" cy="-381" rx="90.98" ry="18"/>
<text text-anchor="middle" x="753.14" y="-377.3" font-family="Times,serif" font-size="14.00">continuous_ball_props</text>
</g>
<!-- pvslib/mult_poly@analytic_def&#45;&gt;pvslib/mult_poly@continuous_ball_props -->
<g id="edge2" class="edge">
<title>pvslib/mult_poly@analytic_def&#45;&gt;pvslib/mult_poly@continuous_ball_props</title>
<path fill="none" stroke="black" d="M587.52,-381C606.62,-381 628.84,-381 650.66,-381"/>
<polygon fill="black" stroke="black" points="650.5,-384.5 660.5,-381 650.5,-377.5 650.5,-384.5"/>
</g>
<!-- pvslib/mult_poly@derivatives_subtype -->
<g id="node8" class="node">
<title>pvslib/mult_poly@derivatives_subtype</title>
<ellipse fill="#e6f3ff" stroke="black" cx="753.14" cy="-327" rx="81.49" ry="18"/>
<text text-anchor="middle" x="753.14" y="-323.3" font-family="Times,serif" font-size="14.00">derivatives_subtype</text>
</g>
<!-- pvslib/mult_poly@analytic_def&#45;&gt;pvslib/mult_poly@derivatives_subtype -->
<g id="edge3" class="edge">
<title>pvslib/mult_poly@analytic_def&#45;&gt;pvslib/mult_poly@derivatives_subtype</title>
<path fill="none" stroke="black" d="M577.27,-370.33C608.52,-362.59 651.36,-351.97 686.81,-343.19"/>
<polygon fill="black" stroke="black" points="687.23,-346.69 696.09,-340.89 685.54,-339.9 687.23,-346.69"/>
</g>
<!-- pvslib/reals -->
<g id="node25" class="node">
<title>pvslib/reals</title>
<polygon fill="#fcfcd7" stroke="black" points="1755.08,-376 1701.08,-376 1701.08,-340 1755.08,-340 1755.08,-376"/>
<text text-anchor="middle" x="1728.08" y="-354.3" font-family="Times,serif" font-size="14.00">reals</text>
</g>
<!-- pvslib/mult_poly@analytic_def&#45;&gt;pvslib/reals -->
<g id="edge4" class="edge">
<title>pvslib/mult_poly@analytic_def&#45;&gt;pvslib/reals</title>
<path fill="none" stroke="black" d="M754.14,-281C1107.05,-181.06 1558.78,-305.19 1689.88,-345.91"/>
<polygon fill="black" stroke="black" points="1688.83,-349.25 1699.42,-348.91 1690.93,-342.57 1688.83,-349.25"/>
</g>
<!-- pvslib/series -->
<g id="node26" class="node">
<title>pvslib/series</title>
<polygon fill="#fcfcd7" stroke="black" points="1755.08,-160 1701.08,-160 1701.08,-124 1755.08,-124 1755.08,-160"/>
<text text-anchor="middle" x="1728.08" y="-138.3" font-family="Times,serif" font-size="14.00">series</text>
</g>
<!-- pvslib/mult_poly@analytic_def&#45;&gt;pvslib/series -->
<g id="edge5" class="edge">
<title>pvslib/mult_poly@analytic_def&#45;&gt;pvslib/series</title>
<path fill="none" stroke="black" d="M754.14,-281C793.84,-267.22 804.21,-265.11 844.14,-252 888.08,-237.57 898.34,-231.63 942.83,-219"/>
<path fill="none" stroke="black" d="M944.83,-219C1222.5,-140.18 1575.34,-139.04 1689.58,-141.03"/>
<polygon fill="black" stroke="black" points="1689.22,-144.52 1699.28,-141.22 1689.35,-137.52 1689.22,-144.52"/>
<path fill="none" stroke="black" d="M582.46,-373.51C597.48,-369.5 613.42,-363.36 626.15,-354 649.39,-336.91 638.27,-316.18 662.15,-300 696,-277.07 713.53,-294.41 752.14,-281"/>
</g>
<!-- pvslib/mult_poly@arithmetic_MultPoly -->
<g id="node5" class="node">
<title>pvslib/mult_poly@arithmetic_MultPoly</title>
<ellipse fill="#e6f3ff" stroke="black" cx="1128.67" cy="-455" rx="85.29" ry="18"/>
<text text-anchor="middle" x="1128.67" y="-451.3" font-family="Times,serif" font-size="14.00">arithmetic_MultPoly</text>
</g>
<!-- pvslib/mult_poly@standard_form_mult_poly -->
<g id="node22" class="node">
<title>pvslib/mult_poly@standard_form_mult_poly</title>
<ellipse fill="#e6f3ff" stroke="black" cx="1353.15" cy="-529" rx="103.18" ry="18"/>
<text text-anchor="middle" x="1353.15" y="-525.3" font-family="Times,serif" font-size="14.00">standard_form_mult_poly</text>
</g>
<!-- pvslib/mult_poly@arithmetic_MultPoly&#45;&gt;pvslib/mult_poly@standard_form_mult_poly -->
<g id="edge6" class="edge">
<title>pvslib/mult_poly@arithmetic_MultPoly&#45;&gt;pvslib/mult_poly@standard_form_mult_poly</title>
<path fill="none" stroke="black" d="M1176.04,-470.42C1210,-481.72 1256.36,-497.14 1292.99,-509.32"/>
<polygon fill="black" stroke="black" points="1291.5,-512.52 1302.1,-512.35 1293.71,-505.87 1291.5,-512.52"/>
</g>
<!-- pvslib/mult_poly@arithmetic_poly -->
<g id="node6" class="node">
<title>pvslib/mult_poly@arithmetic_poly</title>
<ellipse fill="#e6f3ff" stroke="black" cx="753.14" cy="-603" rx="66.89" ry="18"/>
<text text-anchor="middle" x="753.14" y="-599.3" font-family="Times,serif" font-size="14.00">arithmetic_poly</text>
</g>
<!-- pvslib/mult_poly@eval_poly -->
<g id="node11" class="node">
<title>pvslib/mult_poly@eval_poly</title>
<ellipse fill="#e6f3ff" stroke="black" cx="1128.67" cy="-603" rx="45.49" ry="18"/>
<text text-anchor="middle" x="1128.67" y="-599.3" font-family="Times,serif" font-size="14.00">eval_poly</text>
</g>
<!-- pvslib/mult_poly@arithmetic_poly&#45;&gt;pvslib/mult_poly@eval_poly -->
<g id="edge7" class="edge">
<title>pvslib/mult_poly@arithmetic_poly&#45;&gt;pvslib/mult_poly@eval_poly</title>
<path fill="none" stroke="black" d="M820.49,-603C891.93,-603 1004.36,-603 1071.56,-603"/>
<polygon fill="black" stroke="black" points="1071.24,-606.5 1081.24,-603 1071.24,-599.5 1071.24,-606.5"/>
</g>
<!-- pvslib/mult_poly@continuous_ball_props&#45;&gt;pvslib/analysis -->
<g id="edge8" class="edge">
<title>pvslib/mult_poly@continuous_ball_props&#45;&gt;pvslib/analysis</title>
<path fill="none" stroke="black" d="M804.72,-365.8C958.41,-320.08 1418.83,-186.58 1574.03,-181"/>
</g>
<!-- pvslib/mult_poly@derivatives_subtype&#45;&gt;pvslib/analysis -->
<g id="edge9" class="edge">
<title>pvslib/mult_poly@derivatives_subtype&#45;&gt;pvslib/analysis</title>
<path fill="none" stroke="black" d="M801.96,-312.2C923.48,-275.08 1242.34,-181 1352.15,-181"/>
</g>
<!-- pvslib/mult_poly@dimension_induction -->
<g id="node9" class="node">
<title>pvslib/mult_poly@dimension_induction</title>
<ellipse fill="#e6f3ff" stroke="black" cx="319.13" cy="-529" rx="85.29" ry="18"/>
<text text-anchor="middle" x="319.13" y="-525.3" font-family="Times,serif" font-size="14.00">dimension_induction</text>
</g>
<!-- pvslib/mult_poly@polyplus_props -->
<g id="node18" class="node">
<title>pvslib/mult_poly@polyplus_props</title>
<ellipse fill="#e6f3ff" stroke="black" cx="533.21" cy="-593" rx="64.99" ry="18"/>
<text text-anchor="middle" x="533.21" y="-589.3" font-family="Times,serif" font-size="14.00">polyplus_props</text>
</g>
<!-- pvslib/mult_poly@dimension_induction&#45;&gt;pvslib/mult_poly@polyplus_props -->
<g id="edge10" class="edge">
<title>pvslib/mult_poly@dimension_induction&#45;&gt;pvslib/mult_poly@polyplus_props</title>
<path fill="none" stroke="black" d="M369.58,-543.92C401.8,-553.65 443.88,-566.35 477.16,-576.39"/>
<polygon fill="black" stroke="black" points="476.05,-579.71 486.64,-579.25 478.08,-573.01 476.05,-579.71"/>
</g>
<!-- pvslib/mult_poly@standard_form_extras -->
<g id="node21" class="node">
<title>pvslib/mult_poly@standard_form_extras</title>
<ellipse fill="#e6f3ff" stroke="black" cx="533.21" cy="-529" rx="87.99" ry="18"/>
<text text-anchor="middle" x="533.21" y="-525.3" font-family="Times,serif" font-size="14.00">standard_form_extras</text>
</g>
<!-- pvslib/mult_poly@dimension_induction&#45;&gt;pvslib/mult_poly@standard_form_extras -->
<g id="edge11" class="edge">
<title>pvslib/mult_poly@dimension_induction&#45;&gt;pvslib/mult_poly@standard_form_extras</title>
<path fill="none" stroke="black" d="M404.86,-529C414.32,-529 424.01,-529 433.61,-529"/>
<polygon fill="black" stroke="black" points="433.32,-532.5 443.32,-529 433.32,-525.5 433.32,-532.5"/>
</g>
<!-- pvslib/mult_poly@eval_MultPoly -->
<g id="node10" class="node">
<title>pvslib/mult_poly@eval_MultPoly</title>
<ellipse fill="#e6f3ff" stroke="black" cx="943.83" cy="-455" rx="63.89" ry="18"/>
<text text-anchor="middle" x="943.83" y="-451.3" font-family="Times,serif" font-size="14.00">eval_MultPoly</text>
</g>
<!-- pvslib/mult_poly@eval_MultPoly&#45;&gt;pvslib/matrices -->
<g id="edge12" class="edge">
<title>pvslib/mult_poly@eval_MultPoly&#45;&gt;pvslib/matrices</title>
<path fill="none" stroke="black" d="M967.59,-438.09C986.87,-424.53 1015.75,-406.02 1043.52,-395 1163.39,-347.46 1555.54,-278.89 1685.11,-256.99"/>
<polygon fill="black" stroke="black" points="1685.33,-260.51 1694.61,-255.39 1684.17,-253.6 1685.33,-260.51"/>
</g>
<!-- pvslib/mult_poly@eval_MultPoly&#45;&gt;pvslib/mult_poly@arithmetic_MultPoly -->
<g id="edge13" class="edge">
<title>pvslib/mult_poly@eval_MultPoly&#45;&gt;pvslib/mult_poly@arithmetic_MultPoly</title>
<path fill="none" stroke="black" d="M1008.01,-455C1015.73,-455 1023.74,-455 1031.8,-455"/>
<polygon fill="black" stroke="black" points="1031.69,-458.5 1041.69,-455 1031.69,-451.5 1031.69,-458.5"/>
</g>
<!-- pvslib/mult_poly@standard_form_poly -->
<g id="node23" class="node">
<title>pvslib/mult_poly@standard_form_poly</title>
<ellipse fill="#e6f3ff" stroke="black" cx="1575.03" cy="-549" rx="82.59" ry="18"/>
<text text-anchor="middle" x="1575.03" y="-545.3" font-family="Times,serif" font-size="14.00">standard_form_poly</text>
</g>
<!-- pvslib/mult_poly@eval_poly&#45;&gt;pvslib/mult_poly@standard_form_poly -->
<g id="edge14" class="edge">
<title>pvslib/mult_poly@eval_poly&#45;&gt;pvslib/mult_poly@standard_form_poly</title>
<path fill="none" stroke="black" d="M1172.68,-597.77C1246.04,-588.86 1396.56,-570.57 1490.99,-559.09"/>
<polygon fill="black" stroke="black" points="1491.21,-562.59 1500.71,-557.91 1490.36,-555.64 1491.21,-562.59"/>
</g>
<!-- pvslib/mult_poly@eval_properties -->
<g id="node12" class="node">
<title>pvslib/mult_poly@eval_properties</title>
<ellipse fill="#e6f3ff" stroke="black" cx="753.14" cy="-455" rx="64.99" ry="18"/>
<text text-anchor="middle" x="753.14" y="-451.3" font-family="Times,serif" font-size="14.00">eval_properties</text>
</g>
<!-- pvslib/mult_poly@eval_properties&#45;&gt;pvslib/mult_poly@eval_MultPoly -->
<g id="edge15" class="edge">
<title>pvslib/mult_poly@eval_properties&#45;&gt;pvslib/mult_poly@eval_MultPoly</title>
<path fill="none" stroke="black" d="M818.55,-455C834.6,-455 851.94,-455 868.42,-455"/>
<polygon fill="black" stroke="black" points="868.16,-458.5 878.16,-455 868.16,-451.5 868.16,-458.5"/>
</g>
<!-- pvslib/mult_poly@list_lemmas -->
<g id="node13" class="node">
<title>pvslib/mult_poly@list_lemmas</title>
<ellipse fill="#e6f3ff" stroke="black" cx="1575.03" cy="-495" rx="53.89" ry="18"/>
<text text-anchor="middle" x="1575.03" y="-491.3" font-family="Times,serif" font-size="14.00">list_lemmas</text>
</g>
<!-- pvslib/mult_poly@eval_properties&#45;&gt;pvslib/mult_poly@list_lemmas -->
<g id="edge16" class="edge">
<title>pvslib/mult_poly@eval_properties&#45;&gt;pvslib/mult_poly@list_lemmas</title>
<path fill="none" stroke="black" d="M801.35,-467.37C824.85,-472.95 853.8,-478.96 880.14,-482 1110.6,-508.6 1386.91,-502.54 1509.74,-497.9"/>
<polygon fill="black" stroke="black" points="1509.77,-501.41 1519.63,-497.52 1509.5,-494.41 1509.77,-501.41"/>
</g>
<!-- pvslib/structures -->
<g id="node28" class="node">
<title>pvslib/structures</title>
<polygon fill="#fcfcd7" stroke="black" points="1762.58,-430 1693.58,-430 1693.58,-394 1762.58,-394 1762.58,-430"/>
<text text-anchor="middle" x="1728.08" y="-408.3" font-family="Times,serif" font-size="14.00">structures</text>
</g>
<!-- pvslib/mult_poly@list_lemmas&#45;&gt;pvslib/structures -->
<g id="edge17" class="edge">
<title>pvslib/mult_poly@list_lemmas&#45;&gt;pvslib/structures</title>
<path fill="none" stroke="black" d="M1617.47,-483.54C1633.08,-478.37 1650.66,-471.5 1665.58,-463 1677.7,-456.1 1689.78,-446.75 1699.99,-437.94"/>
<polygon fill="black" stroke="black" points="1702.17,-440.69 1707.3,-431.42 1697.51,-435.46 1702.17,-440.69"/>
</g>
<!-- pvslib/mult_poly@map_perm -->
<g id="node14" class="node">
<title>pvslib/mult_poly@map_perm</title>
<ellipse fill="#e6f3ff" stroke="black" cx="753.14" cy="-529" rx="49.29" ry="18"/>
<text text-anchor="middle" x="753.14" y="-525.3" font-family="Times,serif" font-size="14.00">map_perm</text>
</g>
<!-- pvslib/mult_poly@perm_props -->
<g id="node16" class="node">
<title>pvslib/mult_poly@perm_props</title>
<ellipse fill="#e6f3ff" stroke="black" cx="943.83" cy="-529" rx="53.09" ry="18"/>
<text text-anchor="middle" x="943.83" y="-525.3" font-family="Times,serif" font-size="14.00">perm_props</text>
</g>
<!-- pvslib/mult_poly@map_perm&#45;&gt;pvslib/mult_poly@perm_props -->
<g id="edge18" class="edge">
<title>pvslib/mult_poly@map_perm&#45;&gt;pvslib/mult_poly@perm_props</title>
<path fill="none" stroke="black" d="M802.74,-529C826.03,-529 854.23,-529 879.21,-529"/>
<polygon fill="black" stroke="black" points="878.92,-532.5 888.92,-529 878.92,-525.5 878.92,-532.5"/>
</g>
<!-- pvslib/mult_poly@nth_derivative_subtype -->
<g id="node15" class="node">
<title>pvslib/mult_poly@nth_derivative_subtype</title>
<ellipse fill="#e6f3ff" stroke="black" cx="533.21" cy="-327" rx="92.88" ry="18"/>
<text text-anchor="middle" x="533.21" y="-323.3" font-family="Times,serif" font-size="14.00">nth_derivative_subtype</text>
</g>
<!-- pvslib/mult_poly@nth_derivative_subtype&#45;&gt;pvslib/analysis -->
<g id="edge19" class="edge">
<title>pvslib/mult_poly@nth_derivative_subtype&#45;&gt;pvslib/analysis</title>
<path fill="none" stroke="black" d="M566.98,-309.83C592.46,-296.93 628.95,-279.42 662.15,-267 951.62,-158.77 1043.22,-172.98 1352.15,-181"/>
</g>
<!-- pvslib/sorting -->
<g id="node27" class="node">
<title>pvslib/sorting</title>
<polygon fill="#fcfcd7" stroke="black" points="1755.08,-322 1701.08,-322 1701.08,-286 1755.08,-286 1755.08,-322"/>
<text text-anchor="middle" x="1728.08" y="-300.3" font-family="Times,serif" font-size="14.00">sorting</text>
</g>
<!-- pvslib/mult_poly@perm_props&#45;&gt;pvslib/sorting -->
<g id="edge20" class="edge">
<title>pvslib/mult_poly@perm_props&#45;&gt;pvslib/sorting</title>
<path fill="none" stroke="black" d="M970.23,-512.92C982.31,-504.56 996.49,-493.66 1007.52,-482 1027.35,-461.05 1018.31,-442.02 1043.52,-428 1146.61,-370.69 1457.67,-430.31 1574.03,-411"/>
<path fill="none" stroke="black" d="M1576.03,-411C1635.55,-401.4 1635.95,-365.23 1685.58,-331 1687.38,-329.76 1689.24,-328.49 1691.12,-327.22"/>
<polygon fill="black" stroke="black" points="1692.94,-330.22 1699.33,-321.77 1689.06,-324.39 1692.94,-330.22"/>
</g>
<!-- pvslib/mult_poly@perm_props&#45;&gt;pvslib/structures -->
<g id="edge21" class="edge">
<title>pvslib/mult_poly@perm_props&#45;&gt;pvslib/structures</title>
<path fill="none" stroke="black" d="M1576.03,-411C1611.2,-405.16 1651.62,-405.81 1681.79,-407.7"/>
<polygon fill="black" stroke="black" points="1681.49,-411.18 1691.71,-408.4 1681.98,-404.2 1681.49,-411.18"/>
</g>
<!-- pvslib/mult_poly@poly_comp_analytic -->
<g id="node17" class="node">
<title>pvslib/mult_poly@poly_comp_analytic</title>
<ellipse fill="#e6f3ff" stroke="black" cx="319.13" cy="-455" rx="83.39" ry="18"/>
<text text-anchor="middle" x="319.13" y="-451.3" font-family="Times,serif" font-size="14.00">poly_comp_analytic</text>
</g>
<!-- pvslib/mult_poly@poly_comp_analytic&#45;&gt;pvslib/mult_poly@analytic_def -->
<g id="edge22" class="edge">
<title>pvslib/mult_poly@poly_comp_analytic&#45;&gt;pvslib/mult_poly@analytic_def</title>
<path fill="none" stroke="black" d="M364.59,-439.49C399.59,-427.27 448.3,-410.28 484.19,-397.76"/>
<polygon fill="black" stroke="black" points="485.17,-401.12 493.46,-394.52 482.86,-394.51 485.17,-401.12"/>
</g>
<!-- pvslib/mult_poly@poly_comp_analytic&#45;&gt;pvslib/mult_poly@eval_properties -->
<g id="edge23" class="edge">
<title>pvslib/mult_poly@poly_comp_analytic&#45;&gt;pvslib/mult_poly@eval_properties</title>
<path fill="none" stroke="black" d="M369.43,-469.71C412.16,-480.99 475.82,-494.27 532.21,-492"/>
<path fill="none" stroke="black" d="M534.21,-492C588.36,-489.82 649.08,-478.79 692.65,-469.33"/>
<polygon fill="black" stroke="black" points="693.13,-472.81 702.14,-467.23 691.62,-465.97 693.13,-472.81"/>
</g>
<!-- pvslib/mult_poly@semi_algebraic -->
<g id="node19" class="node">
<title>pvslib/mult_poly@semi_algebraic</title>
<ellipse fill="#e6f3ff" stroke="black" cx="533.21" cy="-455" rx="64.19" ry="18"/>
<text text-anchor="middle" x="533.21" y="-451.3" font-family="Times,serif" font-size="14.00">semi_algebraic</text>
</g>
<!-- pvslib/mult_poly@poly_comp_analytic&#45;&gt;pvslib/mult_poly@semi_algebraic -->
<g id="edge24" class="edge">
<title>pvslib/mult_poly@poly_comp_analytic&#45;&gt;pvslib/mult_poly@semi_algebraic</title>
<path fill="none" stroke="black" d="M402.73,-455C420.67,-455 439.55,-455 457.17,-455"/>
<polygon fill="black" stroke="black" points="457.04,-458.5 467.04,-455 457.04,-451.5 457.04,-458.5"/>
</g>
<!-- pvslib/mult_poly@polyplus_props&#45;&gt;pvslib/mult_poly@arithmetic_poly -->
<g id="edge25" class="edge">
<title>pvslib/mult_poly@polyplus_props&#45;&gt;pvslib/mult_poly@arithmetic_poly</title>
<path fill="none" stroke="black" d="M597.83,-595.92C622.13,-597.03 650.08,-598.32 675.47,-599.48"/>
<polygon fill="black" stroke="black" points="675.27,-602.98 685.42,-599.94 675.59,-595.98 675.27,-602.98"/>
</g>
<!-- pvslib/mult_poly@semi_algebraic&#45;&gt;pvslib/mult_poly@eval_MultPoly -->
<g id="edge26" class="edge">
<title>pvslib/mult_poly@semi_algebraic&#45;&gt;pvslib/mult_poly@eval_MultPoly</title>
<path fill="none" stroke="black" d="M577.71,-441.79C621.46,-429.88 691.02,-414.7 752.14,-418"/>
</g>
<!-- pvslib/mult_poly@semi_algebraic&#45;&gt;pvslib/mult_poly@eval_properties -->
<g id="edge27" class="edge">
<title>pvslib/mult_poly@semi_algebraic&#45;&gt;pvslib/mult_poly@eval_properties</title>
<path fill="none" stroke="black" d="M597.83,-455C622.46,-455 650.84,-455 676.5,-455"/>
<polygon fill="black" stroke="black" points="676.18,-458.5 686.18,-455 676.18,-451.5 676.18,-458.5"/>
</g>
<!-- pvslib/mult_poly@smooth_not_analytic -->
<g id="node20" class="node">
<title>pvslib/mult_poly@smooth_not_analytic</title>
<ellipse fill="#e6f3ff" stroke="black" cx="319.13" cy="-381" rx="85.29" ry="18"/>
<text text-anchor="middle" x="319.13" y="-377.3" font-family="Times,serif" font-size="14.00">smooth_not_analytic</text>
</g>
<!-- pvslib/mult_poly@smooth_not_analytic&#45;&gt;pvslib/analysis -->
<g id="edge28" class="edge">
<title>pvslib/mult_poly@smooth_not_analytic&#45;&gt;pvslib/analysis</title>
<path fill="none" stroke="black" d="M1354.15,-181C1451.83,-183.9 1476.31,-180.51 1574.03,-181"/>
<path fill="none" stroke="black" d="M1576.03,-181C1613.49,-181.19 1655.91,-185.79 1686.24,-189.85"/>
<polygon fill="black" stroke="black" points="1685.76,-193.31 1696.14,-191.22 1686.72,-186.38 1685.76,-193.31"/>
<path fill="none" stroke="black" d="M1129.67,-105C1233.86,-112.85 1247.7,-177.9 1352.15,-181"/>
</g>
<!-- pvslib/mult_poly@smooth_not_analytic&#45;&gt;pvslib/lnexp -->
<g id="edge29" class="edge">
<title>pvslib/mult_poly@smooth_not_analytic&#45;&gt;pvslib/lnexp</title>
<path fill="none" stroke="black" d="M1576.03,-88C1614.47,-83.85 1658.73,-84.48 1689.36,-85.76"/>
<polygon fill="black" stroke="black" points="1689.13,-89.25 1699.28,-86.22 1689.45,-82.26 1689.13,-89.25"/>
</g>
<!-- pvslib/mult_poly@smooth_not_analytic&#45;&gt;pvslib/mult_poly@analytic_def -->
<g id="edge30" class="edge">
<title>pvslib/mult_poly@smooth_not_analytic&#45;&gt;pvslib/mult_poly@analytic_def</title>
<path fill="none" stroke="black" d="M404.86,-381C425.79,-381 447.88,-381 467.67,-381"/>
<polygon fill="black" stroke="black" points="467.52,-384.5 477.52,-381 467.52,-377.5 467.52,-384.5"/>
</g>
<!-- pvslib/mult_poly@smooth_not_analytic&#45;&gt;pvslib/mult_poly@nth_derivative_subtype -->
<g id="edge31" class="edge">
<title>pvslib/mult_poly@smooth_not_analytic&#45;&gt;pvslib/mult_poly@nth_derivative_subtype</title>
<path fill="none" stroke="black" d="M375.02,-367.02C402.34,-360.07 435.61,-351.6 464.49,-344.24"/>
<polygon fill="black" stroke="black" points="465.03,-347.72 473.86,-341.86 463.31,-340.93 465.03,-347.72"/>
</g>
<!-- pvslib/mult_poly@smooth_not_analytic&#45;&gt;pvslib/mult_poly@semi_algebraic -->
<g id="edge32" class="edge">
<title>pvslib/mult_poly@smooth_not_analytic&#45;&gt;pvslib/mult_poly@semi_algebraic</title>
<path fill="none" stroke="black" d="M364.84,-396.6C398.88,-408.48 445.75,-424.83 481.23,-437.21"/>
<polygon fill="black" stroke="black" points="479.83,-440.43 490.42,-440.42 482.14,-433.82 479.83,-440.43"/>
</g>
<!-- pvslib/trig -->
<g id="node29" class="node">
<title>pvslib/trig</title>
<polygon fill="#fcfcd7" stroke="black" points="1755.08,-52 1701.08,-52 1701.08,-16 1755.08,-16 1755.08,-52"/>
<text text-anchor="middle" x="1728.08" y="-30.3" font-family="Times,serif" font-size="14.00">trig</text>
</g>
<!-- pvslib/mult_poly@smooth_not_analytic&#45;&gt;pvslib/trig -->
<g id="edge33" class="edge">
<title>pvslib/mult_poly@smooth_not_analytic&#45;&gt;pvslib/trig</title>
<path fill="none" stroke="black" d="M1129.67,-105C1326.75,-119.84 1377.54,-109.22 1574.03,-88"/>
<path fill="none" stroke="black" d="M343.23,-363.49C366.83,-346.08 404.92,-319.26 440.27,-300 719.13,-148.07 811.28,-77.72 1127.67,-105"/>
<path fill="none" stroke="black" d="M1576.03,-88C1616.61,-82.69 1660.37,-65.69 1690.29,-52.16"/>
<polygon fill="black" stroke="black" points="1691.68,-55.37 1699.29,-48 1688.74,-49.02 1691.68,-55.37"/>
</g>
<!-- pvslib/mult_poly@standard_form_extras&#45;&gt;pvslib/mult_poly@eval_MultPoly -->
<g id="edge34" class="edge">
<title>pvslib/mult_poly@standard_form_extras&#45;&gt;pvslib/mult_poly@eval_MultPoly</title>
<path fill="none" stroke="black" d="M592.9,-515.35C614.58,-510.64 639.4,-505.64 662.15,-502 742.5,-489.14 764.2,-497.23 844.14,-482 858.88,-479.19 874.63,-475.3 889.13,-471.34"/>
<polygon fill="black" stroke="black" points="889.79,-474.79 898.48,-468.72 887.91,-468.05 889.79,-474.79"/>
</g>
<!-- pvslib/mult_poly@standard_form_extras&#45;&gt;pvslib/mult_poly@eval_properties -->
<g id="edge35" class="edge">
<title>pvslib/mult_poly@standard_form_extras&#45;&gt;pvslib/mult_poly@eval_properties</title>
<path fill="none" stroke="black" d="M580.16,-513.4C615.28,-501.47 663.71,-485.03 700.23,-472.63"/>
<polygon fill="black" stroke="black" points="700.9,-476.1 709.24,-469.57 698.65,-469.47 700.9,-476.1"/>
</g>
<!-- pvslib/mult_poly@standard_form_extras&#45;&gt;pvslib/mult_poly@map_perm -->
<g id="edge36" class="edge">
<title>pvslib/mult_poly@standard_form_extras&#45;&gt;pvslib/mult_poly@map_perm</title>
<path fill="none" stroke="black" d="M621.6,-529C645.29,-529 670.39,-529 692.19,-529"/>
<polygon fill="black" stroke="black" points="692.09,-532.5 702.09,-529 692.09,-525.5 692.09,-532.5"/>
</g>
<!-- pvslib/mult_poly@standard_form_extras&#45;&gt;pvslib/mult_poly@standard_form_mult_poly -->
<g id="edge37" class="edge">
<title>pvslib/mult_poly@standard_form_extras&#45;&gt;pvslib/mult_poly@standard_form_mult_poly</title>
<path fill="none" stroke="black" d="M589.23,-543.23C611.68,-548.35 637.99,-553.48 662.15,-556 874.32,-578.14 1124.9,-556.46 1257.99,-541.18"/>
<polygon fill="black" stroke="black" points="1258.29,-544.67 1267.82,-540.03 1257.48,-537.71 1258.29,-544.67"/>
</g>
<!-- pvslib/mult_poly@standard_form_mult_poly&#45;&gt;pvslib/mult_poly@list_lemmas -->
<g id="edge38" class="edge">
<title>pvslib/mult_poly@standard_form_mult_poly&#45;&gt;pvslib/mult_poly@list_lemmas</title>
<path fill="none" stroke="black" d="M1431.67,-517.01C1458.8,-512.82 1488.82,-508.18 1514.27,-504.24"/>
<polygon fill="black" stroke="black" points="1514.77,-507.7 1524.12,-502.72 1513.7,-500.79 1514.77,-507.7"/>
</g>
<!-- pvslib/mult_poly@standard_form_mult_poly&#45;&gt;pvslib/mult_poly@standard_form_poly -->
<g id="edge39" class="edge">
<title>pvslib/mult_poly@standard_form_mult_poly&#45;&gt;pvslib/mult_poly@standard_form_poly</title>
<path fill="none" stroke="black" d="M1445.49,-537.31C1459.13,-538.55 1473.17,-539.83 1486.73,-541.06"/>
<polygon fill="black" stroke="black" points="1486.2,-544.53 1496.48,-541.95 1486.83,-537.55 1486.2,-544.53"/>
</g>
<!-- pvslib/mult_poly@standard_form_mult_poly&#45;&gt;pvslib/sorting -->
<g id="edge40" class="edge">
<title>pvslib/mult_poly@standard_form_mult_poly&#45;&gt;pvslib/sorting</title>
<path fill="none" stroke="black" d="M1388.41,-511.75C1415.98,-498.39 1456.01,-480.17 1492.49,-468 1527.79,-456.22 1540.39,-464.89 1574.03,-449"/>
<path fill="none" stroke="black" d="M1576.03,-449C1613.29,-431.4 1637.21,-454.88 1665.58,-425 1694.98,-394.02 1661.4,-366.21 1685.58,-331 1687.4,-328.34 1689.58,-325.89 1691.98,-323.62"/>
<polygon fill="black" stroke="black" points="1693.87,-326.59 1699.54,-317.64 1689.52,-321.1 1693.87,-326.59"/>
</g>
<!-- pvslib/mult_poly@standard_form_mult_poly&#45;&gt;pvslib/structures -->
<g id="edge41" class="edge">
<title>pvslib/mult_poly@standard_form_mult_poly&#45;&gt;pvslib/structures</title>
<path fill="none" stroke="black" d="M1576.03,-449C1585.71,-444.43 1641.37,-431.32 1682.32,-422.01"/>
<polygon fill="black" stroke="black" points="1682.97,-425.45 1691.95,-419.83 1681.42,-418.62 1682.97,-425.45"/>
</g>
<!-- pvslib/mult_poly@standard_form_poly&#45;&gt;pvslib/reals -->
<g id="edge42" class="edge">
<title>pvslib/mult_poly@standard_form_poly&#45;&gt;pvslib/reals</title>
<path fill="none" stroke="black" d="M1642.84,-538.33C1651.47,-534.42 1659.43,-529.13 1665.58,-522 1705.75,-475.39 1652.4,-436.82 1685.58,-385 1687.36,-382.22 1689.54,-379.66 1691.96,-377.33"/>
<polygon fill="black" stroke="black" points="1694.05,-380.14 1699.7,-371.18 1689.7,-374.66 1694.05,-380.14"/>
</g>
<!-- pvslib/mult_poly@standard_form_poly&#45;&gt;pvslib/structures -->
<g id="edge43" class="edge">
<title>pvslib/mult_poly@standard_form_poly&#45;&gt;pvslib/structures</title>
<path fill="none" stroke="black" d="M1637.92,-537.2C1647.83,-533.45 1657.48,-528.51 1665.58,-522 1691.61,-501.08 1708.46,-466.01 1717.82,-441.09"/>
<polygon fill="black" stroke="black" points="1721.05,-442.47 1721.1,-431.87 1714.45,-440.12 1721.05,-442.47"/>
</g>
<!-- pvslib/mult_poly@standard_form_unique -->
<g id="node24" class="node">
<title>pvslib/mult_poly@standard_form_unique</title>
<ellipse fill="#e6f3ff" stroke="black" cx="106.99" cy="-492" rx="90.98" ry="18"/>
<text text-anchor="middle" x="106.99" y="-488.3" font-family="Times,serif" font-size="14.00">standard_form_unique</text>
</g>
<!-- pvslib/mult_poly@standard_form_unique&#45;&gt;pvslib/mult_poly@dimension_induction -->
<g id="edge44" class="edge">
<title>pvslib/mult_poly@standard_form_unique&#45;&gt;pvslib/mult_poly@dimension_induction</title>
<path fill="none" stroke="black" d="M176.22,-504.01C196.94,-507.66 219.85,-511.7 241.11,-515.44"/>
<polygon fill="black" stroke="black" points="240.44,-518.88 250.9,-517.16 241.66,-511.98 240.44,-518.88"/>
</g>
<!-- pvslib/mult_poly@standard_form_unique&#45;&gt;pvslib/mult_poly@eval_MultPoly -->
<g id="edge45" class="edge">
<title>pvslib/mult_poly@standard_form_unique&#45;&gt;pvslib/mult_poly@eval_MultPoly</title>
<path fill="none" stroke="black" d="M754.14,-418C794.33,-420.17 804.61,-420.45 844.14,-428 858.87,-430.82 874.63,-434.71 889.13,-438.67"/>
<polygon fill="black" stroke="black" points="887.9,-441.96 898.48,-441.29 889.79,-435.22 887.9,-441.96"/>
<path fill="none" stroke="black" d="M133.65,-474.58C158.19,-459.01 196.85,-437.27 233.98,-428 345.72,-400.1 637.14,-411.8 752.14,-418"/>
</g>
<!-- pvslib/mult_poly@standard_form_unique&#45;&gt;pvslib/mult_poly@eval_properties -->
<g id="edge46" class="edge">
<title>pvslib/mult_poly@standard_form_unique&#45;&gt;pvslib/mult_poly@eval_properties</title>
<path fill="none" stroke="black" d="M198.01,-490.3C235.21,-490.04 278.76,-490.3 318.13,-492"/>
<path fill="none" stroke="black" d="M320.13,-492C414.3,-496.06 438.03,-495.79 532.21,-492"/>
</g>
<!-- pvslib/mult_poly@standard_form_unique&#45;&gt;pvslib/mult_poly@standard_form_extras -->
<g id="edge47" class="edge">
<title>pvslib/mult_poly@standard_form_unique&#45;&gt;pvslib/mult_poly@standard_form_extras</title>
<path fill="none" stroke="black" d="M320.13,-492C368.87,-494.1 423.04,-503.68 464.44,-512.56"/>
<polygon fill="black" stroke="black" points="463.49,-515.94 474.01,-514.66 464.99,-509.1 463.49,-515.94"/>
</g>
</g>
</svg>
