<?xml version="1.0" encoding="UTF-8" standalone="no"?>
<!DOCTYPE svg PUBLIC "-//W3C//DTD SVG 1.1//EN"
 "http://www.w3.org/Graphics/SVG/1.1/DTD/svg11.dtd">
<!-- Generated by graphviz version 7.0.6 (20230106.0513)
 -->
<!-- Title: mult_poly&#45;zoomed Pages: 1 -->
<svg width="1085pt" height="686pt"
 viewBox="0.00 0.00 1085.00 686.00" xmlns="http://www.w3.org/2000/svg" xmlns:xlink="http://www.w3.org/1999/xlink">
<g id="graph0" class="graph" transform="scale(1 1) rotate(0) translate(4 682)">
<title>mult_poly&#45;zoomed</title>
<polygon fill="white" stroke="none" points="-4,4 -4,-682 1081,-682 1081,4 -4,4"/>
<g id="clust1" class="cluster">
<title>cluster_NASALib</title>
<polygon fill="none" stroke="black" points="463,-8 463,-83 1069,-83 1069,-8 463,-8"/>
<text text-anchor="middle" x="766" y="-67.8" font-family="Times,serif" font-size="14.00">NASALib</text>
</g>
<g id="clust2" class="cluster">
<title>cluster_NASALib/mult_poly</title>
<polygon fill="none" stroke="black" points="8,-91 8,-670 866,-670 866,-91 8,-91"/>
<text text-anchor="middle" x="437" y="-654.8" font-family="Times,serif" font-size="14.00">NASALib/mult_poly</text>
</g>
<!-- NASALib/analysis -->
<g id="node1" class="node">
<title>NASALib/analysis</title>
<polygon fill="#fcfcd7" stroke="black" points="845,-52 785,-52 785,-16 845,-16 845,-52"/>
<text text-anchor="middle" x="815" y="-30.3" font-family="Times,serif" font-size="14.00">analysis</text>
</g>
<!-- NASALib/lnexp -->
<g id="node2" class="node">
<title>NASALib/lnexp</title>
<polygon fill="#fcfcd7" stroke="black" points="1061,-52 1007,-52 1007,-16 1061,-16 1061,-52"/>
<text text-anchor="middle" x="1034" y="-30.3" font-family="Times,serif" font-size="14.00">lnexp</text>
</g>
<!-- NASALib/matrices -->
<g id="node3" class="node">
<title>NASALib/matrices</title>
<polygon fill="#fcfcd7" stroke="black" points="766.5,-52 703.5,-52 703.5,-16 766.5,-16 766.5,-52"/>
<text text-anchor="middle" x="735" y="-30.3" font-family="Times,serif" font-size="14.00">matrices</text>
</g>
<!-- NASALib/mult_poly@analytic_def -->
<g id="node4" class="node">
<title>NASALib/mult_poly@analytic_def</title>
<ellipse fill="#e6f3ff" stroke="black" cx="580" cy="-477" rx="53.89" ry="18"/>
<text text-anchor="middle" x="580" y="-473.3" font-family="Times,serif" font-size="14.00">analytic_def</text>
</g>
<!-- NASALib/mult_poly@analytic_def&#45;&gt;NASALib/analysis -->
<g id="edge1" class="edge">
<title>NASALib/mult_poly@analytic_def&#45;&gt;NASALib/analysis</title>
<path fill="none" stroke="black" d="M607.86,-461.24C637.44,-445.55 680,-423 680,-423 680,-423 735,-118 735,-118"/>
<path fill="none" stroke="black" d="M735,-116C735,-116 776,-83 776,-83 776,-83 784.56,-72.46 793.66,-61.26"/>
<polygon fill="black" stroke="black" points="796.38,-63.47 799.97,-53.5 790.94,-59.06 796.38,-63.47"/>
</g>
<!-- NASALib/mult_poly@analytic_def&#45;&gt;NASALib/matrices -->
<g id="edge2" class="edge">
<title>NASALib/mult_poly@analytic_def&#45;&gt;NASALib/matrices</title>
<path fill="none" stroke="black" d="M735,-116C735,-116 735,-86.96 735,-63.66"/>
<polygon fill="black" stroke="black" points="738.5,-63.69 735,-53.69 731.5,-63.69 738.5,-63.69"/>
</g>
<!-- NASALib/mult_poly@continuous_ball_props -->
<g id="node7" class="node">
<title>NASALib/mult_poly@continuous_ball_props</title>
<ellipse fill="#e6f3ff" stroke="black" cx="580" cy="-405" rx="90.98" ry="18"/>
<text text-anchor="middle" x="580" y="-401.3" font-family="Times,serif" font-size="14.00">continuous_ball_props</text>
</g>
<!-- NASALib/mult_poly@analytic_def&#45;&gt;NASALib/mult_poly@continuous_ball_props -->
<g id="edge3" class="edge">
<title>NASALib/mult_poly@analytic_def&#45;&gt;NASALib/mult_poly@continuous_ball_props</title>
<path fill="none" stroke="black" d="M580,-458.7C580,-451.41 580,-442.73 580,-434.54"/>
<polygon fill="black" stroke="black" points="583.5,-434.62 580,-424.62 576.5,-434.62 583.5,-434.62"/>
</g>
<!-- NASALib/reals -->
<g id="node24" class="node">
<title>NASALib/reals</title>
<polygon fill="#fcfcd7" stroke="black" points="685,-52 631,-52 631,-16 685,-16 685,-52"/>
<text text-anchor="middle" x="658" y="-30.3" font-family="Times,serif" font-size="14.00">reals</text>
</g>
<!-- NASALib/mult_poly@analytic_def&#45;&gt;NASALib/reals -->
<g id="edge4" class="edge">
<title>NASALib/mult_poly@analytic_def&#45;&gt;NASALib/reals</title>
<path fill="none" stroke="black" d="M735,-116C735,-116 694,-83 694,-83 694,-83 686.1,-72.46 677.7,-61.26"/>
<polygon fill="black" stroke="black" points="680.7,-59.44 671.9,-53.54 675.1,-63.64 680.7,-59.44"/>
</g>
<!-- NASALib/series -->
<g id="node25" class="node">
<title>NASALib/series</title>
<polygon fill="#fcfcd7" stroke="black" points="917,-52 863,-52 863,-16 917,-16 917,-52"/>
<text text-anchor="middle" x="890" y="-30.3" font-family="Times,serif" font-size="14.00">series</text>
</g>
<!-- NASALib/mult_poly@analytic_def&#45;&gt;NASALib/series -->
<g id="edge5" class="edge">
<title>NASALib/mult_poly@analytic_def&#45;&gt;NASALib/series</title>
<path fill="none" stroke="black" d="M735,-116C735,-116 854,-83 854,-83 854,-83 861.9,-72.46 870.3,-61.26"/>
<polygon fill="black" stroke="black" points="872.9,-63.64 876.1,-53.54 867.3,-59.44 872.9,-63.64"/>
</g>
<!-- NASALib/mult_poly@arithmetic_MultPoly -->
<g id="node5" class="node">
<title>NASALib/mult_poly@arithmetic_MultPoly</title>
<ellipse fill="#e6f3ff" stroke="black" cx="473" cy="-261" rx="85.29" ry="18"/>
<text text-anchor="middle" x="473" y="-257.3" font-family="Times,serif" font-size="14.00">arithmetic_MultPoly</text>
</g>
<!-- NASALib/mult_poly@standard_form_mult_poly -->
<g id="node21" class="node">
<title>NASALib/mult_poly@standard_form_mult_poly</title>
<ellipse fill="#e6f3ff" stroke="black" cx="247" cy="-189" rx="103.18" ry="18"/>
<text text-anchor="middle" x="247" y="-185.3" font-family="Times,serif" font-size="14.00">standard_form_mult_poly</text>
</g>
<!-- NASALib/mult_poly@arithmetic_MultPoly&#45;&gt;NASALib/mult_poly@standard_form_mult_poly -->
<g id="edge6" class="edge">
<title>NASALib/mult_poly@arithmetic_MultPoly&#45;&gt;NASALib/mult_poly@standard_form_mult_poly</title>
<path fill="none" stroke="black" d="M426.45,-245.58C391.87,-234.87 344.42,-220.17 307,-208.58"/>
<polygon fill="black" stroke="black" points="308.26,-205.31 297.68,-205.7 306.19,-212 308.26,-205.31"/>
</g>
<!-- NASALib/mult_poly@arithmetic_poly -->
<g id="node6" class="node">
<title>NASALib/mult_poly@arithmetic_poly</title>
<ellipse fill="#e6f3ff" stroke="black" cx="83" cy="-405" rx="66.89" ry="18"/>
<text text-anchor="middle" x="83" y="-401.3" font-family="Times,serif" font-size="14.00">arithmetic_poly</text>
</g>
<!-- NASALib/mult_poly@eval_poly -->
<g id="node10" class="node">
<title>NASALib/mult_poly@eval_poly</title>
<ellipse fill="#e6f3ff" stroke="black" cx="98" cy="-261" rx="45.49" ry="18"/>
<text text-anchor="middle" x="98" y="-257.3" font-family="Times,serif" font-size="14.00">eval_poly</text>
</g>
<!-- NASALib/mult_poly@arithmetic_poly&#45;&gt;NASALib/mult_poly@eval_poly -->
<g id="edge7" class="edge">
<title>NASALib/mult_poly@arithmetic_poly&#45;&gt;NASALib/mult_poly@eval_poly</title>
<path fill="none" stroke="black" d="M84.84,-386.59C87.37,-362.61 91.96,-319.14 95,-290.42"/>
<polygon fill="black" stroke="black" points="98.46,-290.93 96.03,-280.62 91.5,-290.19 98.46,-290.93"/>
</g>
<!-- NASALib/mult_poly@continuous_ball_props&#45;&gt;NASALib/analysis -->
<g id="edge8" class="edge">
<title>NASALib/mult_poly@continuous_ball_props&#45;&gt;NASALib/analysis</title>
<path fill="none" stroke="black" d="M593.03,-386.87C621.75,-349.1 688,-262 688,-262 688,-262 688,-262 688,-188 688,-188 721,-91 721,-91 721,-91 776,-83 776,-83 776,-83 784.56,-72.46 793.66,-61.26"/>
<polygon fill="black" stroke="black" points="796.38,-63.47 799.97,-53.5 790.94,-59.06 796.38,-63.47"/>
</g>
<!-- NASALib/mult_poly@dimension_induction -->
<g id="node8" class="node">
<title>NASALib/mult_poly@dimension_induction</title>
<ellipse fill="#e6f3ff" stroke="black" cx="254" cy="-549" rx="85.29" ry="18"/>
<text text-anchor="middle" x="254" y="-545.3" font-family="Times,serif" font-size="14.00">dimension_induction</text>
</g>
<!-- NASALib/mult_poly@polyplus_props -->
<g id="node17" class="node">
<title>NASALib/mult_poly@polyplus_props</title>
<ellipse fill="#e6f3ff" stroke="black" cx="83" cy="-477" rx="64.99" ry="18"/>
<text text-anchor="middle" x="83" y="-473.3" font-family="Times,serif" font-size="14.00">polyplus_props</text>
</g>
<!-- NASALib/mult_poly@dimension_induction&#45;&gt;NASALib/mult_poly@polyplus_props -->
<g id="edge9" class="edge">
<title>NASALib/mult_poly@dimension_induction&#45;&gt;NASALib/mult_poly@polyplus_props</title>
<path fill="none" stroke="black" d="M216.05,-532.46C190.34,-521.94 156.21,-507.97 128.96,-496.82"/>
<polygon fill="black" stroke="black" points="130.49,-493.66 119.91,-493.11 127.84,-500.14 130.49,-493.66"/>
</g>
<!-- NASALib/mult_poly@standard_form_extras -->
<g id="node20" class="node">
<title>NASALib/mult_poly@standard_form_extras</title>
<ellipse fill="#e6f3ff" stroke="black" cx="254" cy="-477" rx="87.99" ry="18"/>
<text text-anchor="middle" x="254" y="-473.3" font-family="Times,serif" font-size="14.00">standard_form_extras</text>
</g>
<!-- NASALib/mult_poly@dimension_induction&#45;&gt;NASALib/mult_poly@standard_form_extras -->
<g id="edge10" class="edge">
<title>NASALib/mult_poly@dimension_induction&#45;&gt;NASALib/mult_poly@standard_form_extras</title>
<path fill="none" stroke="black" d="M254,-530.7C254,-523.41 254,-514.73 254,-506.54"/>
<polygon fill="black" stroke="black" points="257.5,-506.62 254,-496.62 250.5,-506.62 257.5,-506.62"/>
</g>
<!-- NASALib/mult_poly@eval_MultPoly -->
<g id="node9" class="node">
<title>NASALib/mult_poly@eval_MultPoly</title>
<ellipse fill="#e6f3ff" stroke="black" cx="453" cy="-333" rx="63.89" ry="18"/>
<text text-anchor="middle" x="453" y="-329.3" font-family="Times,serif" font-size="14.00">eval_MultPoly</text>
</g>
<!-- NASALib/mult_poly@eval_MultPoly&#45;&gt;NASALib/matrices -->
<g id="edge11" class="edge">
<title>NASALib/mult_poly@eval_MultPoly&#45;&gt;NASALib/matrices</title>
<path fill="none" stroke="black" d="M491.24,-318.21C534.79,-302.51 600,-279 600,-279 600,-279 674,-91 674,-91 674,-91 694,-83 694,-83 694,-83 703.18,-72.25 712.85,-60.93"/>
<polygon fill="black" stroke="black" points="715.38,-63.36 719.22,-53.48 710.06,-58.81 715.38,-63.36"/>
</g>
<!-- NASALib/mult_poly@eval_MultPoly&#45;&gt;NASALib/mult_poly@arithmetic_MultPoly -->
<g id="edge12" class="edge">
<title>NASALib/mult_poly@eval_MultPoly&#45;&gt;NASALib/mult_poly@arithmetic_MultPoly</title>
<path fill="none" stroke="black" d="M457.94,-314.7C460.08,-307.24 462.62,-298.32 465.01,-289.97"/>
<polygon fill="black" stroke="black" points="468.32,-291.14 467.7,-280.56 461.58,-289.21 468.32,-291.14"/>
</g>
<!-- NASALib/mult_poly@standard_form_poly -->
<g id="node22" class="node">
<title>NASALib/mult_poly@standard_form_poly</title>
<ellipse fill="#e6f3ff" stroke="black" cx="215" cy="-117" rx="82.59" ry="18"/>
<text text-anchor="middle" x="215" y="-113.3" font-family="Times,serif" font-size="14.00">standard_form_poly</text>
</g>
<!-- NASALib/mult_poly@eval_poly&#45;&gt;NASALib/mult_poly@standard_form_poly -->
<g id="edge13" class="edge">
<title>NASALib/mult_poly@eval_poly&#45;&gt;NASALib/mult_poly@standard_form_poly</title>
<path fill="none" stroke="black" d="M105.13,-242.84C115.89,-216.98 135,-171 135,-171 135,-171 159.01,-155.09 180.72,-140.71"/>
<polygon fill="black" stroke="black" points="182.46,-143.76 188.86,-135.31 178.59,-137.92 182.46,-143.76"/>
</g>
<!-- NASALib/mult_poly@eval_properties -->
<g id="node11" class="node">
<title>NASALib/mult_poly@eval_properties</title>
<ellipse fill="#e6f3ff" stroke="black" cx="369" cy="-405" rx="64.99" ry="18"/>
<text text-anchor="middle" x="369" y="-401.3" font-family="Times,serif" font-size="14.00">eval_properties</text>
</g>
<!-- NASALib/mult_poly@eval_properties&#45;&gt;NASALib/mult_poly@eval_MultPoly -->
<g id="edge14" class="edge">
<title>NASALib/mult_poly@eval_properties&#45;&gt;NASALib/mult_poly@eval_MultPoly</title>
<path fill="none" stroke="black" d="M388.91,-387.41C399.58,-378.52 412.91,-367.41 424.64,-357.63"/>
<polygon fill="black" stroke="black" points="426.63,-360.53 432.07,-351.44 422.15,-355.15 426.63,-360.53"/>
</g>
<!-- NASALib/mult_poly@list_lemmas -->
<g id="node12" class="node">
<title>NASALib/mult_poly@list_lemmas</title>
<ellipse fill="#e6f3ff" stroke="black" cx="369" cy="-117" rx="53.89" ry="18"/>
<text text-anchor="middle" x="369" y="-113.3" font-family="Times,serif" font-size="14.00">list_lemmas</text>
</g>
<!-- NASALib/mult_poly@eval_properties&#45;&gt;NASALib/mult_poly@list_lemmas -->
<g id="edge15" class="edge">
<title>NASALib/mult_poly@eval_properties&#45;&gt;NASALib/mult_poly@list_lemmas</title>
<path fill="none" stroke="black" d="M369,-386.54C369,-338.76 369,-205.51 369,-146.61"/>
<polygon fill="black" stroke="black" points="372.5,-146.75 369,-136.75 365.5,-146.75 372.5,-146.75"/>
</g>
<!-- NASALib/structures -->
<g id="node27" class="node">
<title>NASALib/structures</title>
<polygon fill="#fcfcd7" stroke="black" points="540.5,-52 471.5,-52 471.5,-16 540.5,-16 540.5,-52"/>
<text text-anchor="middle" x="506" y="-30.3" font-family="Times,serif" font-size="14.00">structures</text>
</g>
<!-- NASALib/mult_poly@list_lemmas&#45;&gt;NASALib/structures -->
<g id="edge16" class="edge">
<title>NASALib/mult_poly@list_lemmas&#45;&gt;NASALib/structures</title>
<path fill="none" stroke="black" d="M394.77,-100.76C415.02,-88.79 443.58,-71.91 466.69,-58.24"/>
<polygon fill="black" stroke="black" points="468.41,-61.29 475.24,-53.19 464.85,-55.26 468.41,-61.29"/>
</g>
<!-- NASALib/mult_poly@map_perm -->
<g id="node13" class="node">
<title>NASALib/mult_poly@map_perm</title>
<ellipse fill="#e6f3ff" stroke="black" cx="217" cy="-405" rx="49.29" ry="18"/>
<text text-anchor="middle" x="217" y="-401.3" font-family="Times,serif" font-size="14.00">map_perm</text>
</g>
<!-- NASALib/mult_poly@perm_props -->
<g id="node15" class="node">
<title>NASALib/mult_poly@perm_props</title>
<ellipse fill="#e6f3ff" stroke="black" cx="213" cy="-333" rx="53.09" ry="18"/>
<text text-anchor="middle" x="213" y="-329.3" font-family="Times,serif" font-size="14.00">perm_props</text>
</g>
<!-- NASALib/mult_poly@map_perm&#45;&gt;NASALib/mult_poly@perm_props -->
<g id="edge17" class="edge">
<title>NASALib/mult_poly@map_perm&#45;&gt;NASALib/mult_poly@perm_props</title>
<path fill="none" stroke="black" d="M216.01,-386.7C215.59,-379.41 215.1,-370.73 214.63,-362.54"/>
<polygon fill="black" stroke="black" points="218.13,-362.4 214.06,-352.62 211.14,-362.8 218.13,-362.4"/>
</g>
<!-- NASALib/mult_poly@nth_derivative_subtype -->
<g id="node14" class="node">
<title>NASALib/mult_poly@nth_derivative_subtype</title>
<ellipse fill="#e6f3ff" stroke="black" cx="745" cy="-477" rx="92.88" ry="18"/>
<text text-anchor="middle" x="745" y="-473.3" font-family="Times,serif" font-size="14.00">nth_derivative_subtype</text>
</g>
<!-- NASALib/mult_poly@nth_derivative_subtype&#45;&gt;NASALib/analysis -->
<g id="edge18" class="edge">
<title>NASALib/mult_poly@nth_derivative_subtype&#45;&gt;NASALib/analysis</title>
<path fill="none" stroke="black" d="M789.42,-460.81C835.22,-445.15 900,-423 900,-423 900,-423 924,-334 924,-334 924,-334 924,-334 924,-188 924,-188 865.05,-105.26 833.86,-61.47"/>
<polygon fill="black" stroke="black" points="836.82,-59.6 828.17,-53.49 831.12,-63.66 836.82,-59.6"/>
</g>
<!-- NASALib/sorting -->
<g id="node26" class="node">
<title>NASALib/sorting</title>
<polygon fill="#fcfcd7" stroke="black" points="613,-52 559,-52 559,-16 613,-16 613,-52"/>
<text text-anchor="middle" x="586" y="-30.3" font-family="Times,serif" font-size="14.00">sorting</text>
</g>
<!-- NASALib/mult_poly@perm_props&#45;&gt;NASALib/sorting -->
<g id="edge19" class="edge">
<title>NASALib/mult_poly@perm_props&#45;&gt;NASALib/sorting</title>
<path fill="none" stroke="black" d="M586,-116C586,-116 586,-86.96 586,-63.66"/>
<polygon fill="black" stroke="black" points="589.5,-63.69 586,-53.69 582.5,-63.69 589.5,-63.69"/>
</g>
<!-- NASALib/mult_poly@perm_props&#45;&gt;NASALib/structures -->
<g id="edge20" class="edge">
<title>NASALib/mult_poly@perm_props&#45;&gt;NASALib/structures</title>
<path fill="none" stroke="black" d="M586,-116C586,-116 550,-83 550,-83 550,-83 539.96,-72.04 529.47,-60.6"/>
<polygon fill="black" stroke="black" points="532.25,-58.45 522.91,-53.44 527.08,-63.18 532.25,-58.45"/>
<path fill="none" stroke="black" d="M260.74,-324.85C357.37,-310.39 567,-279 567,-279 567,-279 586,-118 586,-118"/>
</g>
<!-- NASALib/mult_poly@poly_comp_analytic -->
<g id="node16" class="node">
<title>NASALib/mult_poly@poly_comp_analytic</title>
<ellipse fill="#e6f3ff" stroke="black" cx="463" cy="-549" rx="83.39" ry="18"/>
<text text-anchor="middle" x="463" y="-545.3" font-family="Times,serif" font-size="14.00">poly_comp_analytic</text>
</g>
<!-- NASALib/mult_poly@poly_comp_analytic&#45;&gt;NASALib/mult_poly@analytic_def -->
<g id="edge21" class="edge">
<title>NASALib/mult_poly@poly_comp_analytic&#45;&gt;NASALib/mult_poly@analytic_def</title>
<path fill="none" stroke="black" d="M490.43,-531.59C506.69,-521.86 527.46,-509.43 544.91,-498.99"/>
<polygon fill="black" stroke="black" points="546.66,-502.03 553.44,-493.89 543.06,-496.02 546.66,-502.03"/>
</g>
<!-- NASALib/mult_poly@poly_comp_analytic&#45;&gt;NASALib/mult_poly@eval_properties -->
<g id="edge22" class="edge">
<title>NASALib/mult_poly@poly_comp_analytic&#45;&gt;NASALib/mult_poly@eval_properties</title>
<path fill="none" stroke="black" d="M434.65,-531.67C407.61,-516.09 371,-495 371,-495 371,-495 361,-478 361,-478"/>
</g>
<!-- NASALib/mult_poly@semi_algebraic -->
<g id="node18" class="node">
<title>NASALib/mult_poly@semi_algebraic</title>
<ellipse fill="#e6f3ff" stroke="black" cx="444" cy="-477" rx="64.19" ry="18"/>
<text text-anchor="middle" x="444" y="-473.3" font-family="Times,serif" font-size="14.00">semi_algebraic</text>
</g>
<!-- NASALib/mult_poly@poly_comp_analytic&#45;&gt;NASALib/mult_poly@semi_algebraic -->
<g id="edge23" class="edge">
<title>NASALib/mult_poly@poly_comp_analytic&#45;&gt;NASALib/mult_poly@semi_algebraic</title>
<path fill="none" stroke="black" d="M458.3,-530.7C456.28,-523.24 453.86,-514.32 451.59,-505.97"/>
<polygon fill="black" stroke="black" points="455.04,-505.3 449.04,-496.57 448.28,-507.13 455.04,-505.3"/>
</g>
<!-- NASALib/mult_poly@polyplus_props&#45;&gt;NASALib/mult_poly@arithmetic_poly -->
<g id="edge24" class="edge">
<title>NASALib/mult_poly@polyplus_props&#45;&gt;NASALib/mult_poly@arithmetic_poly</title>
<path fill="none" stroke="black" d="M83,-458.7C83,-451.41 83,-442.73 83,-434.54"/>
<polygon fill="black" stroke="black" points="86.5,-434.62 83,-424.62 79.5,-434.62 86.5,-434.62"/>
</g>
<!-- NASALib/mult_poly@semi_algebraic&#45;&gt;NASALib/mult_poly@eval_MultPoly -->
<g id="edge25" class="edge">
<title>NASALib/mult_poly@semi_algebraic&#45;&gt;NASALib/mult_poly@eval_MultPoly</title>
<path fill="none" stroke="black" d="M445.1,-458.59C446.62,-434.61 449.38,-391.14 451.2,-362.42"/>
<polygon fill="black" stroke="black" points="454.68,-362.82 451.82,-352.62 447.69,-362.38 454.68,-362.82"/>
</g>
<!-- NASALib/mult_poly@semi_algebraic&#45;&gt;NASALib/mult_poly@eval_properties -->
<g id="edge26" class="edge">
<title>NASALib/mult_poly@semi_algebraic&#45;&gt;NASALib/mult_poly@eval_properties</title>
<path fill="none" stroke="black" d="M426.23,-459.41C416.95,-450.76 405.43,-440 395.16,-430.42"/>
<polygon fill="black" stroke="black" points="397.71,-428.01 388.01,-423.75 392.94,-433.13 397.71,-428.01"/>
</g>
<!-- NASALib/mult_poly@smooth_not_analytic -->
<g id="node19" class="node">
<title>NASALib/mult_poly@smooth_not_analytic</title>
<ellipse fill="#e6f3ff" stroke="black" cx="649" cy="-549" rx="85.29" ry="18"/>
<text text-anchor="middle" x="649" y="-545.3" font-family="Times,serif" font-size="14.00">smooth_not_analytic</text>
</g>
<!-- NASALib/mult_poly@smooth_not_analytic&#45;&gt;NASALib/analysis -->
<g id="edge27" class="edge">
<title>NASALib/mult_poly@smooth_not_analytic&#45;&gt;NASALib/analysis</title>
<path fill="none" stroke="black" d="M962,-116C962,-116 885,-91 885,-91 885,-91 854,-83 854,-83 854,-83 845.44,-72.46 836.34,-61.26"/>
<polygon fill="black" stroke="black" points="839.06,-59.06 830.03,-53.5 833.62,-63.47 839.06,-59.06"/>
</g>
<!-- NASALib/mult_poly@smooth_not_analytic&#45;&gt;NASALib/lnexp -->
<g id="edge28" class="edge">
<title>NASALib/mult_poly@smooth_not_analytic&#45;&gt;NASALib/lnexp</title>
<path fill="none" stroke="black" d="M962,-116C962,-116 998,-83 998,-83 998,-83 1005.9,-72.46 1014.3,-61.26"/>
<polygon fill="black" stroke="black" points="1016.9,-63.64 1020.1,-53.54 1011.3,-59.44 1016.9,-63.64"/>
</g>
<!-- NASALib/mult_poly@smooth_not_analytic&#45;&gt;NASALib/mult_poly@analytic_def -->
<g id="edge29" class="edge">
<title>NASALib/mult_poly@smooth_not_analytic&#45;&gt;NASALib/mult_poly@analytic_def</title>
<path fill="none" stroke="black" d="M632.3,-531.05C623.78,-522.42 613.28,-511.76 603.92,-502.27"/>
<polygon fill="black" stroke="black" points="606.65,-500.05 597.14,-495.38 601.66,-504.96 606.65,-500.05"/>
</g>
<!-- NASALib/mult_poly@smooth_not_analytic&#45;&gt;NASALib/mult_poly@nth_derivative_subtype -->
<g id="edge30" class="edge">
<title>NASALib/mult_poly@smooth_not_analytic&#45;&gt;NASALib/mult_poly@nth_derivative_subtype</title>
<path fill="none" stroke="black" d="M671.75,-531.41C684.09,-522.41 699.55,-511.14 713.08,-501.27"/>
<polygon fill="black" stroke="black" points="714.84,-504.32 720.86,-495.6 710.71,-498.67 714.84,-504.32"/>
</g>
<!-- NASALib/mult_poly@smooth_not_analytic&#45;&gt;NASALib/mult_poly@semi_algebraic -->
<g id="edge31" class="edge">
<title>NASALib/mult_poly@smooth_not_analytic&#45;&gt;NASALib/mult_poly@semi_algebraic</title>
<path fill="none" stroke="black" d="M605.52,-533.15C572.97,-522.04 528.36,-506.8 494.26,-495.16"/>
<polygon fill="black" stroke="black" points="495.62,-491.93 485.03,-492.01 493.36,-498.55 495.62,-491.93"/>
</g>
<!-- NASALib/trig -->
<g id="node28" class="node">
<title>NASALib/trig</title>
<polygon fill="#fcfcd7" stroke="black" points="989,-52 935,-52 935,-16 989,-16 989,-52"/>
<text text-anchor="middle" x="962" y="-30.3" font-family="Times,serif" font-size="14.00">trig</text>
</g>
<!-- NASALib/mult_poly@smooth_not_analytic&#45;&gt;NASALib/trig -->
<g id="edge32" class="edge">
<title>NASALib/mult_poly@smooth_not_analytic&#45;&gt;NASALib/trig</title>
<path fill="none" stroke="black" d="M700.51,-534.21C759.17,-518.51 847,-495 847,-495 847,-495 962,-406 962,-406 962,-406 962,-406 962,-260 962,-260 962,-118 962,-118"/>
<path fill="none" stroke="black" d="M962,-116C962,-116 962,-86.96 962,-63.66"/>
<polygon fill="black" stroke="black" points="965.5,-63.69 962,-53.69 958.5,-63.69 965.5,-63.69"/>
</g>
<!-- NASALib/mult_poly@standard_form_extras&#45;&gt;NASALib/mult_poly@eval_MultPoly -->
<g id="edge33" class="edge">
<title>NASALib/mult_poly@standard_form_extras&#45;&gt;NASALib/mult_poly@eval_MultPoly</title>
<path fill="none" stroke="black" d="M285,-404C285,-404 295,-387 295,-387 295,-387 356.13,-366.49 402.34,-350.99"/>
<polygon fill="black" stroke="black" points="403.33,-354.35 411.69,-347.86 401.1,-347.72 403.33,-354.35"/>
</g>
<!-- NASALib/mult_poly@standard_form_extras&#45;&gt;NASALib/mult_poly@eval_properties -->
<g id="edge34" class="edge">
<title>NASALib/mult_poly@standard_form_extras&#45;&gt;NASALib/mult_poly@eval_properties</title>
<path fill="none" stroke="black" d="M281.25,-459.41C296.91,-449.88 316.75,-437.8 333.6,-427.55"/>
<polygon fill="black" stroke="black" points="335.11,-430.73 341.83,-422.54 331.47,-424.75 335.11,-430.73"/>
</g>
<!-- NASALib/mult_poly@standard_form_extras&#45;&gt;NASALib/mult_poly@map_perm -->
<g id="edge35" class="edge">
<title>NASALib/mult_poly@standard_form_extras&#45;&gt;NASALib/mult_poly@map_perm</title>
<path fill="none" stroke="black" d="M244.85,-458.7C240.78,-450.98 235.88,-441.71 231.33,-433.11"/>
<polygon fill="black" stroke="black" points="234.52,-431.65 226.75,-424.44 228.33,-434.92 234.52,-431.65"/>
</g>
<!-- NASALib/mult_poly@standard_form_extras&#45;&gt;NASALib/mult_poly@standard_form_mult_poly -->
<g id="edge36" class="edge">
<title>NASALib/mult_poly@standard_form_extras&#45;&gt;NASALib/mult_poly@standard_form_mult_poly</title>
<path fill="none" stroke="black" d="M261.66,-458.7C270.84,-437.97 285,-406 285,-406"/>
<path fill="none" stroke="black" d="M285,-404C285,-404 275,-315 275,-315 275,-315 261.64,-255.34 253.37,-218.45"/>
<polygon fill="black" stroke="black" points="256.83,-217.85 251.22,-208.86 249.99,-219.38 256.83,-217.85"/>
</g>
<!-- NASALib/mult_poly@standard_form_mult_poly&#45;&gt;NASALib/mult_poly@list_lemmas -->
<g id="edge37" class="edge">
<title>NASALib/mult_poly@standard_form_mult_poly&#45;&gt;NASALib/mult_poly@list_lemmas</title>
<path fill="none" stroke="black" d="M275.91,-171.41C292.96,-161.63 314.67,-149.17 332.84,-138.75"/>
<polygon fill="black" stroke="black" points="334.55,-141.8 341.48,-133.79 331.06,-135.73 334.55,-141.8"/>
</g>
<!-- NASALib/mult_poly@standard_form_mult_poly&#45;&gt;NASALib/mult_poly@standard_form_poly -->
<g id="edge38" class="edge">
<title>NASALib/mult_poly@standard_form_mult_poly&#45;&gt;NASALib/mult_poly@standard_form_poly</title>
<path fill="none" stroke="black" d="M239.09,-170.7C235.6,-163.07 231.42,-153.92 227.52,-145.4"/>
<polygon fill="black" stroke="black" points="230.79,-144.12 223.45,-136.48 224.42,-147.03 230.79,-144.12"/>
</g>
<!-- NASALib/mult_poly@standard_form_mult_poly&#45;&gt;NASALib/sorting -->
<g id="edge39" class="edge">
<title>NASALib/mult_poly@standard_form_mult_poly&#45;&gt;NASALib/sorting</title>
<path fill="none" stroke="black" d="M527,-116C527,-116 549.53,-85.07 566.75,-61.43"/>
<polygon fill="black" stroke="black" points="569.54,-63.55 572.6,-53.4 563.88,-59.42 569.54,-63.55"/>
</g>
<!-- NASALib/mult_poly@standard_form_mult_poly&#45;&gt;NASALib/structures -->
<g id="edge40" class="edge">
<title>NASALib/mult_poly@standard_form_mult_poly&#45;&gt;NASALib/structures</title>
<path fill="none" stroke="black" d="M527,-116C527,-116 519.33,-86.43 513.26,-63.02"/>
<polygon fill="black" stroke="black" points="516.73,-62.44 510.83,-53.64 509.96,-64.2 516.73,-62.44"/>
<path fill="none" stroke="black" d="M304.34,-173.67C386.26,-153.19 527,-118 527,-118"/>
</g>
<!-- NASALib/mult_poly@standard_form_poly&#45;&gt;NASALib/reals -->
<g id="edge41" class="edge">
<title>NASALib/mult_poly@standard_form_poly&#45;&gt;NASALib/reals</title>
<path fill="none" stroke="black" d="M265.03,-102.26C286.17,-96.45 306,-91 306,-91 306,-91 622,-83 622,-83 622,-83 629.9,-72.46 638.3,-61.26"/>
<polygon fill="black" stroke="black" points="640.9,-63.64 644.1,-53.54 635.3,-59.44 640.9,-63.64"/>
</g>
<!-- NASALib/mult_poly@standard_form_poly&#45;&gt;NASALib/structures -->
<g id="edge42" class="edge">
<title>NASALib/mult_poly@standard_form_poly&#45;&gt;NASALib/structures</title>
<path fill="none" stroke="black" d="M264.36,-102.26C319.17,-87.01 406.9,-62.58 460.22,-47.74"/>
<polygon fill="black" stroke="black" points="460.89,-51.19 469.59,-45.13 459.02,-44.44 460.89,-51.19"/>
</g>
<!-- NASALib/mult_poly@standard_form_unique -->
<g id="node23" class="node">
<title>NASALib/mult_poly@standard_form_unique</title>
<ellipse fill="#e6f3ff" stroke="black" cx="361" cy="-621" rx="90.98" ry="18"/>
<text text-anchor="middle" x="361" y="-617.3" font-family="Times,serif" font-size="14.00">standard_form_unique</text>
</g>
<!-- NASALib/mult_poly@standard_form_unique&#45;&gt;NASALib/mult_poly@dimension_induction -->
<g id="edge43" class="edge">
<title>NASALib/mult_poly@standard_form_unique&#45;&gt;NASALib/mult_poly@dimension_induction</title>
<path fill="none" stroke="black" d="M335.64,-603.41C321.65,-594.26 304.07,-582.76 288.81,-572.77"/>
<polygon fill="black" stroke="black" points="290.73,-569.84 280.44,-567.3 286.89,-575.7 290.73,-569.84"/>
</g>
<!-- NASALib/mult_poly@standard_form_unique&#45;&gt;NASALib/mult_poly@eval_MultPoly -->
<g id="edge44" class="edge">
<title>NASALib/mult_poly@standard_form_unique&#45;&gt;NASALib/mult_poly@eval_MultPoly</title>
<path fill="none" stroke="black" d="M433.75,-609.91C544.58,-594.53 743,-567 743,-567 743,-567 847,-495 847,-495 847,-495 847,-459 847,-459 847,-459 680,-387 680,-387 680,-387 579.3,-363.49 512.04,-347.78"/>
<polygon fill="black" stroke="black" points="513.15,-344.45 502.61,-345.58 511.56,-351.27 513.15,-344.45"/>
</g>
<!-- NASALib/mult_poly@standard_form_unique&#45;&gt;NASALib/mult_poly@eval_properties -->
<g id="edge45" class="edge">
<title>NASALib/mult_poly@standard_form_unique&#45;&gt;NASALib/mult_poly@eval_properties</title>
<path fill="none" stroke="black" d="M361,-476C361,-476 363.53,-453.87 365.74,-434.5"/>
<polygon fill="black" stroke="black" points="369.19,-435.14 366.85,-424.81 362.24,-434.35 369.19,-435.14"/>
<path fill="none" stroke="black" d="M361,-548C361,-548 361,-478 361,-478"/>
</g>
<!-- NASALib/mult_poly@standard_form_unique&#45;&gt;NASALib/mult_poly@standard_form_extras -->
<g id="edge46" class="edge">
<title>NASALib/mult_poly@standard_form_unique&#45;&gt;NASALib/mult_poly@standard_form_extras</title>
<path fill="none" stroke="black" d="M361,-548C361,-548 348,-531 348,-531 348,-531 318.59,-514.42 292.66,-499.8"/>
<polygon fill="black" stroke="black" points="294.72,-496.94 284.29,-495.08 291.28,-503.04 294.72,-496.94"/>
<path fill="none" stroke="black" d="M361,-602.7C361,-581.97 361,-550 361,-550"/>
</g>
</g>
</svg>
