<?xml version="1.0" encoding="UTF-8" standalone="no"?>
<!DOCTYPE svg PUBLIC "-//W3C//DTD SVG 1.1//EN"
 "http://www.w3.org/Graphics/SVG/1.1/DTD/svg11.dtd">
<!-- Generated by graphviz version 7.0.6 (20230106.0513)
 -->
<!-- Title: mult_poly Pages: 1 -->
<svg width="963pt" height="894pt"
 viewBox="0.00 0.00 963.00 894.00" xmlns="http://www.w3.org/2000/svg" xmlns:xlink="http://www.w3.org/1999/xlink">
<g id="graph0" class="graph" transform="scale(1 1) rotate(0) translate(4 890)">
<title>mult_poly</title>
<polygon fill="white" stroke="none" points="-4,4 -4,-890 959,-890 959,4 -4,4"/>
<g id="clust1" class="cluster">
<title>cluster_NASALib</title>
<polygon fill="none" stroke="black" points="8,-8 8,-878 851,-878 851,-8 8,-8"/>
<text text-anchor="middle" x="429.5" y="-862.8" font-family="Times,serif" font-size="14.00">NASALib</text>
</g>
<g id="clust2" class="cluster">
<title>cluster_PVS Prelude</title>
<polygon fill="none" stroke="black" points="859,-8 859,-83 947,-83 947,-8 859,-8"/>
<text text-anchor="middle" x="903" y="-67.8" font-family="Times,serif" font-size="14.00">PVS Prelude</text>
</g>
<!-- NASALib/analysis -->
<g id="node1" class="node">
<title>NASALib/analysis</title>
<polygon fill="#fcfcd7" stroke="black" points="340,-775 280,-775 280,-739 340,-739 340,-775"/>
<text text-anchor="middle" x="310" y="-753.3" font-family="Times,serif" font-size="14.00">analysis</text>
</g>
<!-- NASALib/ints -->
<g id="node3" class="node">
<title>NASALib/ints</title>
<polygon fill="#fcfcd7" stroke="black" points="602,-52 548,-52 548,-16 602,-16 602,-52"/>
<text text-anchor="middle" x="575" y="-30.3" font-family="Times,serif" font-size="14.00">ints</text>
</g>
<!-- NASALib/analysis&#45;&gt;NASALib/ints -->
<g id="edge1" class="edge">
<title>NASALib/analysis&#45;&gt;NASALib/ints</title>
<path fill="none" stroke="black" d="M295.45,-738.52C255.31,-690.3 146,-559 146,-559 146,-559 97,-326 97,-326"/>
</g>
<!-- NASALib/orders -->
<g id="node10" class="node">
<title>NASALib/orders</title>
<polygon fill="#fcfcd7" stroke="black" points="702,-199 648,-199 648,-163 702,-163 702,-199"/>
<text text-anchor="middle" x="675" y="-177.3" font-family="Times,serif" font-size="14.00">orders</text>
</g>
<!-- NASALib/analysis&#45;&gt;NASALib/orders -->
<g id="edge2" class="edge">
<title>NASALib/analysis&#45;&gt;NASALib/orders</title>
<path fill="none" stroke="black" d="M842,-252C842,-252 762.07,-218.5 712.81,-197.85"/>
<polygon fill="black" stroke="black" points="714.17,-194.63 703.6,-193.99 711.47,-201.08 714.17,-194.63"/>
<path fill="none" stroke="black" d="M340.34,-750.68C416.92,-737.24 612,-703 612,-703 612,-703 759,-631 759,-631 759,-631 842,-542 842,-542"/>
<path fill="none" stroke="black" d="M842,-540C842,-540 842,-254 842,-254"/>
</g>
<!-- NASALib/reals -->
<g id="node12" class="node">
<title>NASALib/reals</title>
<polygon fill="#fcfcd7" stroke="black" points="350,-703 296,-703 296,-667 350,-667 350,-703"/>
<text text-anchor="middle" x="323" y="-681.3" font-family="Times,serif" font-size="14.00">reals</text>
</g>
<!-- NASALib/analysis&#45;&gt;NASALib/reals -->
<g id="edge3" class="edge">
<title>NASALib/analysis&#45;&gt;NASALib/reals</title>
<path fill="none" stroke="black" d="M313.21,-738.7C314.58,-731.32 316.22,-722.52 317.75,-714.25"/>
<polygon fill="black" stroke="black" points="321.16,-715.06 319.55,-704.59 314.28,-713.79 321.16,-715.06"/>
</g>
<!-- NASALib/structures -->
<g id="node17" class="node">
<title>NASALib/structures</title>
<polygon fill="#fcfcd7" stroke="black" points="609.5,-127 540.5,-127 540.5,-91 609.5,-91 609.5,-127"/>
<text text-anchor="middle" x="575" y="-105.3" font-family="Times,serif" font-size="14.00">structures</text>
</g>
<!-- NASALib/analysis&#45;&gt;NASALib/structures -->
<g id="edge4" class="edge">
<title>NASALib/analysis&#45;&gt;NASALib/structures</title>
<path fill="none" stroke="black" d="M842,-252C842,-252 711,-163 711,-163 711,-163 659.79,-143.04 620.21,-127.62"/>
<polygon fill="black" stroke="black" points="621.67,-124.43 611.08,-124.06 619.13,-130.95 621.67,-124.43"/>
</g>
<!-- lib/finite_sets -->
<g id="node21" class="node">
<title>lib/finite_sets</title>
<polygon fill="#fcfcd7" stroke="black" points="939,-52 867,-52 867,-16 939,-16 939,-52"/>
<text text-anchor="middle" x="903" y="-30.3" font-family="Times,serif" font-size="14.00">finite_sets</text>
</g>
<!-- NASALib/analysis&#45;&gt;lib/finite_sets -->
<g id="edge5" class="edge">
<title>NASALib/analysis&#45;&gt;lib/finite_sets</title>
<path fill="none" stroke="black" d="M842,-540C842,-540 871,-470 871,-470"/>
</g>
<!-- NASALib/extended_nnreal -->
<g id="node2" class="node">
<title>NASALib/extended_nnreal</title>
<polygon fill="#fcfcd7" stroke="black" points="723,-487 617,-487 617,-451 723,-451 723,-487"/>
<text text-anchor="middle" x="670" y="-465.3" font-family="Times,serif" font-size="14.00">extended_nnreal</text>
</g>
<!-- NASALib/extended_nnreal&#45;&gt;NASALib/analysis -->
<g id="edge6" class="edge">
<title>NASALib/extended_nnreal&#45;&gt;NASALib/analysis</title>
<path fill="none" stroke="black" d="M762,-614C762,-614 747,-631 747,-631 747,-631 607,-684 607,-684"/>
<path fill="none" stroke="black" d="M742,-542C742,-542 762,-612 762,-612"/>
</g>
<!-- NASALib/extended_nnreal&#45;&gt;NASALib/reals -->
<g id="edge7" class="edge">
<title>NASALib/extended_nnreal&#45;&gt;NASALib/reals</title>
<path fill="none" stroke="black" d="M742,-614C742,-614 648,-631 648,-631 648,-631 428.78,-666.75 350.43,-679.53"/>
<path fill="none" stroke="black" d="M742,-542C742,-542 742,-612 742,-612"/>
<path fill="none" stroke="black" d="M688.66,-487.35C705.29,-502.81 727,-523 727,-523 727,-523 730.75,-527.25 734.5,-531.5"/>
<polygon fill="black" stroke="black" points="731.76,-533.68 741,-538.87 737.01,-529.05 731.76,-533.68"/>
</g>
<!-- NASALib/series -->
<g id="node13" class="node">
<title>NASALib/series</title>
<polygon fill="#fcfcd7" stroke="black" points="401,-271 347,-271 347,-235 401,-235 401,-271"/>
<text text-anchor="middle" x="374" y="-249.3" font-family="Times,serif" font-size="14.00">series</text>
</g>
<!-- NASALib/extended_nnreal&#45;&gt;NASALib/series -->
<g id="edge8" class="edge">
<title>NASALib/extended_nnreal&#45;&gt;NASALib/series</title>
<path fill="none" stroke="black" d="M670.65,-450.65C671.24,-435.19 672,-415 672,-415 672,-415 672,-379 672,-379 672,-379 610,-343 610,-343 610,-343 595,-326 595,-326"/>
</g>
<!-- NASALib/sigma_set -->
<g id="node15" class="node">
<title>NASALib/sigma_set</title>
<polygon fill="#fcfcd7" stroke="black" points="797.5,-415 726.5,-415 726.5,-379 797.5,-379 797.5,-415"/>
<text text-anchor="middle" x="762" y="-393.3" font-family="Times,serif" font-size="14.00">sigma_set</text>
</g>
<!-- NASALib/extended_nnreal&#45;&gt;NASALib/sigma_set -->
<g id="edge9" class="edge">
<title>NASALib/extended_nnreal&#45;&gt;NASALib/sigma_set</title>
<path fill="none" stroke="black" d="M692.74,-450.7C704.02,-442.11 717.83,-431.61 730.14,-422.24"/>
<polygon fill="black" stroke="black" points="732.16,-425.1 738,-416.26 727.92,-419.53 732.16,-425.1"/>
</g>
<!-- NASALib/lebesgue -->
<g id="node4" class="node">
<title>NASALib/lebesgue</title>
<polygon fill="#fcfcd7" stroke="black" points="639,-631 575,-631 575,-595 639,-595 639,-631"/>
<text text-anchor="middle" x="607" y="-609.3" font-family="Times,serif" font-size="14.00">lebesgue</text>
</g>
<!-- NASALib/lebesgue&#45;&gt;NASALib/analysis -->
<g id="edge10" class="edge">
<title>NASALib/lebesgue&#45;&gt;NASALib/analysis</title>
<path fill="none" stroke="black" d="M607,-631.3C607,-644.26 607,-661.6 607,-672.79"/>
<polygon fill="black" stroke="black" points="603.5,-672.49 607,-682.49 610.5,-672.49 603.5,-672.49"/>
</g>
<!-- NASALib/lebesgue&#45;&gt;NASALib/extended_nnreal -->
<g id="edge11" class="edge">
<title>NASALib/lebesgue&#45;&gt;NASALib/extended_nnreal</title>
<path fill="none" stroke="black" d="M722,-540C722,-540 712,-523 712,-523 712,-523 701.23,-509.41 690.6,-496"/>
<polygon fill="black" stroke="black" points="693.65,-494.2 684.69,-488.54 688.16,-498.55 693.65,-494.2"/>
</g>
<!-- NASALib/measure_integration -->
<g id="node7" class="node">
<title>NASALib/measure_integration</title>
<polygon fill="#fcfcd7" stroke="black" points="703,-559 575,-559 575,-523 703,-523 703,-559"/>
<text text-anchor="middle" x="639" y="-537.3" font-family="Times,serif" font-size="14.00">measure_integration</text>
</g>
<!-- NASALib/lebesgue&#45;&gt;NASALib/measure_integration -->
<g id="edge12" class="edge">
<title>NASALib/lebesgue&#45;&gt;NASALib/measure_integration</title>
<path fill="none" stroke="black" d="M614.91,-594.7C618.4,-587.07 622.58,-577.92 626.48,-569.4"/>
<polygon fill="black" stroke="black" points="629.58,-571.03 630.55,-560.48 623.21,-568.12 629.58,-571.03"/>
</g>
<!-- NASALib/metric_space -->
<g id="node8" class="node">
<title>NASALib/metric_space</title>
<polygon fill="#fcfcd7" stroke="black" points="538.5,-487 449.5,-487 449.5,-451 538.5,-451 538.5,-487"/>
<text text-anchor="middle" x="494" y="-465.3" font-family="Times,serif" font-size="14.00">metric_space</text>
</g>
<!-- NASALib/lebesgue&#45;&gt;NASALib/metric_space -->
<g id="edge13" class="edge">
<title>NASALib/lebesgue&#45;&gt;NASALib/metric_space</title>
<path fill="none" stroke="black" d="M593.14,-594.59C573.47,-569.86 537.3,-524.41 514.51,-495.77"/>
<polygon fill="black" stroke="black" points="517.52,-493.94 508.56,-488.3 512.05,-498.3 517.52,-493.94"/>
</g>
<!-- NASALib/power -->
<g id="node11" class="node">
<title>NASALib/power</title>
<polygon fill="#fcfcd7" stroke="black" points="410,-415 356,-415 356,-379 410,-379 410,-415"/>
<text text-anchor="middle" x="383" y="-393.3" font-family="Times,serif" font-size="14.00">power</text>
</g>
<!-- NASALib/lebesgue&#45;&gt;NASALib/power -->
<g id="edge14" class="edge">
<title>NASALib/lebesgue&#45;&gt;NASALib/power</title>
<path fill="none" stroke="black" d="M580.16,-594.62C527.13,-560.27 414,-487 414,-487 414,-487 401.85,-452.11 392.76,-426.02"/>
<polygon fill="black" stroke="black" points="396.07,-424.88 389.47,-416.59 389.46,-427.18 396.07,-424.88"/>
</g>
<!-- NASALib/sets_aux -->
<g id="node14" class="node">
<title>NASALib/sets_aux</title>
<polygon fill="#fcfcd7" stroke="black" points="737.5,-343 674.5,-343 674.5,-307 737.5,-307 737.5,-343"/>
<text text-anchor="middle" x="706" y="-321.3" font-family="Times,serif" font-size="14.00">sets_aux</text>
</g>
<!-- NASALib/lebesgue&#45;&gt;NASALib/sets_aux -->
<g id="edge16" class="edge">
<title>NASALib/lebesgue&#45;&gt;NASALib/sets_aux</title>
<path fill="none" stroke="black" d="M820,-396C820,-396 807,-379 807,-379 807,-379 775.71,-362.58 747.96,-348.02"/>
<polygon fill="black" stroke="black" points="749.78,-345.02 739.3,-343.47 746.53,-351.22 749.78,-345.02"/>
<path fill="none" stroke="black" d="M722,-540C722,-540 820,-398 820,-398"/>
</g>
<!-- NASALib/lebesgue&#45;&gt;NASALib/sigma_set -->
<g id="edge17" class="edge">
<title>NASALib/lebesgue&#45;&gt;NASALib/sigma_set</title>
<path fill="none" stroke="black" d="M722,-540C722,-540 742.31,-467.9 753.99,-426.45"/>
<polygon fill="black" stroke="black" points="757.34,-427.44 756.68,-416.87 750.6,-425.55 757.34,-427.44"/>
</g>
<!-- NASALib/lebesgue&#45;&gt;NASALib/structures -->
<g id="edge18" class="edge">
<title>NASALib/lebesgue&#45;&gt;NASALib/structures</title>
<path fill="none" stroke="black" d="M598,-468C598,-468 608,-451 608,-451 608,-451 672,-415 672,-415 672,-415 672,-379 672,-379 672,-379 620,-343 620,-343 620,-343 615,-326 615,-326"/>
</g>
<!-- NASALib/topology -->
<g id="node18" class="node">
<title>NASALib/topology</title>
<polygon fill="#fcfcd7" stroke="black" points="647.5,-415 582.5,-415 582.5,-379 647.5,-379 647.5,-415"/>
<text text-anchor="middle" x="615" y="-393.3" font-family="Times,serif" font-size="14.00">topology</text>
</g>
<!-- NASALib/lebesgue&#45;&gt;NASALib/topology -->
<g id="edge19" class="edge">
<title>NASALib/lebesgue&#45;&gt;NASALib/topology</title>
<path fill="none" stroke="black" d="M639.36,-595.67C670.21,-580.09 712,-559 712,-559 712,-559 722,-542 722,-542"/>
<path fill="none" stroke="black" d="M598,-468C598,-468 603.43,-445.66 608.15,-426.22"/>
<polygon fill="black" stroke="black" points="611.48,-427.32 610.44,-416.77 604.68,-425.67 611.48,-427.32"/>
<path fill="none" stroke="black" d="M722,-540C722,-540 712,-523 712,-523 712,-523 608,-487 608,-487 608,-487 598,-470 598,-470"/>
</g>
<!-- NASALib/lnexp -->
<g id="node5" class="node">
<title>NASALib/lnexp</title>
<polygon fill="#fcfcd7" stroke="black" points="322,-343 268,-343 268,-307 322,-307 322,-343"/>
<text text-anchor="middle" x="295" y="-321.3" font-family="Times,serif" font-size="14.00">lnexp</text>
</g>
<!-- NASALib/lnexp&#45;&gt;NASALib/analysis -->
<g id="edge20" class="edge">
<title>NASALib/lnexp&#45;&gt;NASALib/analysis</title>
<path fill="none" stroke="black" d="M287.47,-343.35C280.76,-358.81 272,-379 272,-379 272,-379 230.45,-555.01 219.58,-601.07"/>
<polygon fill="black" stroke="black" points="216.24,-599.99 217.35,-610.53 223.05,-601.6 216.24,-599.99"/>
</g>
<!-- NASALib/lnexp&#45;&gt;NASALib/ints -->
<g id="edge21" class="edge">
<title>NASALib/lnexp&#45;&gt;NASALib/ints</title>
<path fill="none" stroke="black" d="M295,-306.59C295,-268.67 295,-182 295,-182"/>
</g>
<!-- NASALib/lnexp&#45;&gt;NASALib/reals -->
<g id="edge22" class="edge">
<title>NASALib/lnexp&#45;&gt;NASALib/reals</title>
<path fill="none" stroke="black" d="M295.25,-343.41C295.78,-381.33 297,-468 297,-468 297,-542 297,-542 297,-542 297,-542 312,-631 312,-631 312,-631 314.51,-643.08 317.13,-655.7"/>
<polygon fill="black" stroke="black" points="313.63,-656.08 319.09,-665.16 320.49,-654.66 313.63,-656.08"/>
</g>
<!-- NASALib/lnexp&#45;&gt;NASALib/series -->
<g id="edge23" class="edge">
<title>NASALib/lnexp&#45;&gt;NASALib/series</title>
<path fill="none" stroke="black" d="M314.53,-306.7C324.02,-298.28 335.61,-288.02 346.02,-278.79"/>
<polygon fill="black" stroke="black" points="348.13,-281.6 353.29,-272.35 343.48,-276.36 348.13,-281.6"/>
</g>
<!-- NASALib/matrices -->
<g id="node6" class="node">
<title>NASALib/matrices</title>
<polygon fill="#fcfcd7" stroke="black" points="137.5,-775 74.5,-775 74.5,-739 137.5,-739 137.5,-775"/>
<text text-anchor="middle" x="106" y="-753.3" font-family="Times,serif" font-size="14.00">matrices</text>
</g>
<!-- NASALib/matrices&#45;&gt;NASALib/ints -->
<g id="edge24" class="edge">
<title>NASALib/matrices&#45;&gt;NASALib/ints</title>
<path fill="none" stroke="black" d="M102.44,-738.59C94.7,-700.67 77,-614 77,-614"/>
<path fill="none" stroke="black" d="M77,-612C77,-612 37,-470 37,-470 37,-470 37,-470 37,-252 37,-252 157,-110 157,-110"/>
<path fill="none" stroke="black" d="M157,-108C157,-108 432.9,-59.82 536.4,-41.74"/>
<polygon fill="black" stroke="black" points="536.83,-45.22 546.08,-40.05 535.63,-38.32 536.83,-45.22"/>
</g>
<!-- NASALib/matrices&#45;&gt;NASALib/reals -->
<g id="edge25" class="edge">
<title>NASALib/matrices&#45;&gt;NASALib/reals</title>
<path fill="none" stroke="black" d="M137.87,-746.4C188.59,-731.13 282,-703 282,-703 282,-703 283.37,-702.43 285.62,-701.5"/>
<polygon fill="black" stroke="black" points="286.59,-704.89 294.48,-697.82 283.9,-698.42 286.59,-704.89"/>
</g>
<!-- NASALib/matrices&#45;&gt;NASALib/structures -->
<g id="edge26" class="edge">
<title>NASALib/matrices&#45;&gt;NASALib/structures</title>
<path fill="none" stroke="black" d="M77,-612C77,-612 92,-523 92,-523 92,-523 152,-307 152,-307 152,-307 210,-235 210,-235 210,-235 323,-163 323,-163 323,-163 456.44,-134.94 529.11,-119.65"/>
<polygon fill="black" stroke="black" points="529.68,-123.11 538.74,-117.63 528.24,-116.26 529.68,-123.11"/>
</g>
<!-- NASALib/measure_integration&#45;&gt;NASALib/extended_nnreal -->
<g id="edge27" class="edge">
<title>NASALib/measure_integration&#45;&gt;NASALib/extended_nnreal</title>
<path fill="none" stroke="black" d="M646.66,-522.7C650.04,-515.07 654.09,-505.92 657.87,-497.4"/>
<polygon fill="black" stroke="black" points="660.96,-499.05 661.81,-488.49 654.56,-496.21 660.96,-499.05"/>
</g>
<!-- NASALib/measure_integration&#45;&gt;NASALib/metric_space -->
<g id="edge28" class="edge">
<title>NASALib/measure_integration&#45;&gt;NASALib/metric_space</title>
<path fill="none" stroke="black" d="M602.78,-522.52C583.86,-513.38 560.48,-502.09 540.25,-492.33"/>
<polygon fill="black" stroke="black" points="541.9,-489.24 531.37,-488.04 538.85,-495.54 541.9,-489.24"/>
</g>
<!-- NASALib/measure_integration&#45;&gt;NASALib/orders -->
<g id="edge29" class="edge">
<title>NASALib/measure_integration&#45;&gt;NASALib/orders</title>
<path fill="none" stroke="black" d="M667,-396C667,-396 666,-343 666,-343 666,-343 666,-307 666,-307 666,-307 670,-235 670,-235 670,-235 671.12,-223.17 672.29,-210.68"/>
<polygon fill="black" stroke="black" points="675.77,-211.15 673.22,-200.86 668.8,-210.49 675.77,-211.15"/>
<path fill="none" stroke="black" d="M578,-468C578,-468 593,-451 593,-451 593,-451 657,-415 657,-415 657,-415 667,-398 667,-398"/>
</g>
<!-- NASALib/measure_integration&#45;&gt;NASALib/power -->
<g id="edge30" class="edge">
<title>NASALib/measure_integration&#45;&gt;NASALib/power</title>
<path fill="none" stroke="black" d="M574.72,-522.79C516.9,-507.32 441,-487 441,-487 441,-487 417.44,-450.85 400.35,-424.63"/>
<polygon fill="black" stroke="black" points="403.4,-422.9 395.01,-416.43 397.54,-426.72 403.4,-422.9"/>
</g>
<!-- NASALib/measure_integration&#45;&gt;NASALib/reals -->
<g id="edge31" class="edge">
<title>NASALib/measure_integration&#45;&gt;NASALib/reals</title>
<path fill="none" stroke="black" d="M615.1,-559.35C593.81,-574.81 566,-595 566,-595 566,-595 563.95,-598.49 561.7,-602.31"/>
<polygon fill="black" stroke="black" points="558.82,-600.3 556.77,-610.7 564.85,-603.85 558.82,-600.3"/>
</g>
<!-- NASALib/measure_integration&#45;&gt;NASALib/series -->
<g id="edge32" class="edge">
<title>NASALib/measure_integration&#45;&gt;NASALib/series</title>
<path fill="none" stroke="black" d="M623.92,-522.7C605.86,-501.97 578,-470 578,-470"/>
<path fill="none" stroke="black" d="M578,-468C578,-468 558,-415 558,-415 558,-415 558,-379 558,-379 558,-379 595,-326 595,-326"/>
<path fill="none" stroke="black" d="M595,-324C595,-324 474.96,-285.98 411.82,-265.98"/>
<polygon fill="black" stroke="black" points="413.13,-262.72 402.54,-263.04 411.02,-269.4 413.13,-262.72"/>
</g>
<!-- NASALib/measure_integration&#45;&gt;NASALib/sets_aux -->
<g id="edge33" class="edge">
<title>NASALib/measure_integration&#45;&gt;NASALib/sets_aux</title>
<path fill="none" stroke="black" d="M667,-396C667,-396 679.92,-372.82 690.88,-353.14"/>
<polygon fill="black" stroke="black" points="693.81,-355.06 695.62,-344.63 687.7,-351.66 693.81,-355.06"/>
</g>
<!-- NASALib/measure_integration&#45;&gt;NASALib/sigma_set -->
<g id="edge34" class="edge">
<title>NASALib/measure_integration&#45;&gt;NASALib/sigma_set</title>
<path fill="none" stroke="black" d="M578,-468C578,-468 593,-451 593,-451 593,-451 665.21,-428.35 715.23,-412.67"/>
<polygon fill="black" stroke="black" points="716.22,-416.02 724.72,-409.69 714.13,-409.35 716.22,-416.02"/>
</g>
<!-- NASALib/measure_integration&#45;&gt;NASALib/structures -->
<g id="edge35" class="edge">
<title>NASALib/measure_integration&#45;&gt;NASALib/structures</title>
<path fill="none" stroke="black" d="M578,-468C578,-468 574,-415 574,-415 574,-415 574,-379 574,-379 574,-379 615,-326 615,-326"/>
<path fill="none" stroke="black" d="M615,-324C615,-324 595,-254 595,-254"/>
</g>
<!-- NASALib/measure_integration&#45;&gt;NASALib/topology -->
<g id="edge36" class="edge">
<title>NASALib/measure_integration&#45;&gt;NASALib/topology</title>
<path fill="none" stroke="black" d="M578,-468C578,-468 590.14,-445.03 600.51,-425.41"/>
<polygon fill="black" stroke="black" points="603.57,-427.12 605.15,-416.64 597.38,-423.85 603.57,-427.12"/>
</g>
<!-- NASALib/measure_integration&#45;&gt;lib/finite_sets -->
<g id="edge37" class="edge">
<title>NASALib/measure_integration&#45;&gt;lib/finite_sets</title>
<path fill="none" stroke="black" d="M703.22,-524.24C766.89,-508.62 855,-487 855,-487 855,-487 871,-470 871,-470"/>
<path fill="none" stroke="black" d="M871,-468C871,-468 871,-398 871,-398"/>
</g>
<!-- NASALib/metric_space&#45;&gt;NASALib/analysis -->
<g id="edge38" class="edge">
<title>NASALib/metric_space&#45;&gt;NASALib/analysis</title>
<path fill="none" stroke="black" d="M607,-686C607,-686 416.08,-731 340.39,-748.84"/>
<path fill="none" stroke="black" d="M501.52,-487.16C512.85,-513.02 533,-559 533,-559 533,-559 566,-631 566,-631 566,-631 588.58,-660.19 600.23,-675.25"/>
<polygon fill="black" stroke="black" points="597.19,-677.03 606.07,-682.8 602.72,-672.75 597.19,-677.03"/>
</g>
<!-- NASALib/metric_space&#45;&gt;NASALib/power -->
<g id="edge39" class="edge">
<title>NASALib/metric_space&#45;&gt;NASALib/power</title>
<path fill="none" stroke="black" d="M466.28,-450.52C452.26,-441.68 435.07,-430.84 419.95,-421.3"/>
<polygon fill="black" stroke="black" points="421.98,-418.44 411.65,-416.07 418.24,-424.36 421.98,-418.44"/>
</g>
<!-- NASALib/metric_space&#45;&gt;NASALib/series -->
<g id="edge41" class="edge">
<title>NASALib/metric_space&#45;&gt;NASALib/series</title>
<path fill="none" stroke="black" d="M493.81,-450.84C493.52,-424.98 493,-379 493,-379 493,-379 433.21,-316.2 398.4,-279.63"/>
<polygon fill="black" stroke="black" points="401.02,-277.31 391.59,-272.48 395.95,-282.13 401.02,-277.31"/>
</g>
<!-- NASALib/metric_space&#45;&gt;NASALib/sets_aux -->
<g id="edge42" class="edge">
<title>NASALib/metric_space&#45;&gt;NASALib/sets_aux</title>
<path fill="none" stroke="black" d="M509.42,-450.84C532.67,-424.98 574,-379 574,-379 574,-379 624.95,-358.54 663.54,-343.05"/>
<polygon fill="black" stroke="black" points="664.67,-346.37 672.64,-339.39 662.06,-339.87 664.67,-346.37"/>
</g>
<!-- NASALib/metric_space&#45;&gt;NASALib/topology -->
<g id="edge43" class="edge">
<title>NASALib/metric_space&#45;&gt;NASALib/topology</title>
<path fill="none" stroke="black" d="M524.22,-450.52C539.79,-441.51 558.95,-430.42 575.66,-420.76"/>
<polygon fill="black" stroke="black" points="576.95,-424.06 583.85,-416.02 573.45,-418 576.95,-424.06"/>
</g>
<!-- NASALib/vectors -->
<g id="node20" class="node">
<title>NASALib/vectors</title>
<polygon fill="#fcfcd7" stroke="black" points="484,-415 428,-415 428,-379 484,-379 484,-415"/>
<text text-anchor="middle" x="456" y="-393.3" font-family="Times,serif" font-size="14.00">vectors</text>
</g>
<!-- NASALib/metric_space&#45;&gt;NASALib/vectors -->
<g id="edge44" class="edge">
<title>NASALib/metric_space&#45;&gt;NASALib/vectors</title>
<path fill="none" stroke="black" d="M484.61,-450.7C480.42,-442.98 475.39,-433.71 470.72,-425.11"/>
<polygon fill="black" stroke="black" points="473.85,-423.55 466.01,-416.43 467.7,-426.89 473.85,-423.55"/>
</g>
<!-- NASALib/metric_space&#45;&gt;lib/finite_sets -->
<g id="edge45" class="edge">
<title>NASALib/metric_space&#45;&gt;lib/finite_sets</title>
<path fill="none" stroke="black" d="M871,-396C871,-396 871,-254 871,-254"/>
<path fill="none" stroke="black" d="M538.58,-458.41C556.5,-454.55 573,-451 573,-451 573,-451 825,-415 825,-415 825,-415 871,-398 871,-398"/>
</g>
<!-- NASALib/mult_poly -->
<g id="node9" class="node">
<title>NASALib/mult_poly</title>
<polygon fill="#f7e28d" stroke="black" points="216.5,-847 143.5,-847 143.5,-811 216.5,-811 216.5,-847"/>
<text text-anchor="middle" x="180" y="-825.3" font-family="Times,serif" font-size="14.00">mult_poly</text>
</g>
<!-- NASALib/mult_poly&#45;&gt;NASALib/analysis -->
<g id="edge46" class="edge">
<title>NASALib/mult_poly&#45;&gt;NASALib/analysis</title>
<path fill="none" stroke="black" d="M212.47,-810.52C229.78,-801.2 251.23,-789.65 269.6,-779.75"/>
<polygon fill="black" stroke="black" points="271.25,-782.84 278.39,-775.02 267.93,-776.68 271.25,-782.84"/>
</g>
<!-- NASALib/mult_poly&#45;&gt;NASALib/lnexp -->
<g id="edge47" class="edge">
<title>NASALib/mult_poly&#45;&gt;NASALib/lnexp</title>
<path fill="none" stroke="black" d="M175.74,-810.65C171.95,-795.19 167,-775 167,-775 167,-775 157,-686 157,-686 157,-686 157,-686 157,-540 157,-540 260,-379 260,-379 260,-379 268.63,-365.93 277.32,-352.77"/>
<polygon fill="black" stroke="black" points="280.12,-354.89 282.71,-344.62 274.27,-351.03 280.12,-354.89"/>
</g>
<!-- NASALib/mult_poly&#45;&gt;NASALib/matrices -->
<g id="edge48" class="edge">
<title>NASALib/mult_poly&#45;&gt;NASALib/matrices</title>
<path fill="none" stroke="black" d="M161.71,-810.7C152.9,-802.37 142.18,-792.22 132.5,-783.07"/>
<polygon fill="black" stroke="black" points="135.11,-780.72 125.44,-776.39 130.3,-785.8 135.11,-780.72"/>
</g>
<!-- NASALib/mult_poly&#45;&gt;NASALib/reals -->
<g id="edge49" class="edge">
<title>NASALib/mult_poly&#45;&gt;NASALib/reals</title>
<path fill="none" stroke="black" d="M249,-756C249,-756 275.34,-731.09 296.59,-710.98"/>
<polygon fill="black" stroke="black" points="298.75,-713.76 303.61,-704.34 293.94,-708.67 298.75,-713.76"/>
</g>
<!-- NASALib/mult_poly&#45;&gt;NASALib/series -->
<g id="edge50" class="edge">
<title>NASALib/mult_poly&#45;&gt;NASALib/series</title>
<path fill="none" stroke="black" d="M249,-756C249,-756 212,-631 212,-631 212,-631 212,-595 212,-595 212,-595 259,-307 259,-307 259,-307 303.14,-286.66 336.72,-271.18"/>
<polygon fill="black" stroke="black" points="337.76,-274.56 345.37,-267.19 334.83,-268.2 337.76,-274.56"/>
<path fill="none" stroke="black" d="M199.32,-810.65C216.53,-795.19 239,-775 239,-775 239,-775 249,-758 249,-758"/>
</g>
<!-- NASALib/sorting -->
<g id="node16" class="node">
<title>NASALib/sorting</title>
<polygon fill="#fcfcd7" stroke="black" points="230,-775 176,-775 176,-739 230,-739 230,-775"/>
<text text-anchor="middle" x="203" y="-753.3" font-family="Times,serif" font-size="14.00">sorting</text>
</g>
<!-- NASALib/mult_poly&#45;&gt;NASALib/sorting -->
<g id="edge51" class="edge">
<title>NASALib/mult_poly&#45;&gt;NASALib/sorting</title>
<path fill="none" stroke="black" d="M185.69,-810.7C188.14,-803.24 191.07,-794.32 193.81,-785.97"/>
<polygon fill="black" stroke="black" points="197.11,-787.14 196.91,-776.54 190.46,-784.95 197.11,-787.14"/>
</g>
<!-- NASALib/mult_poly&#45;&gt;NASALib/structures -->
<g id="edge52" class="edge">
<title>NASALib/mult_poly&#45;&gt;NASALib/structures</title>
<path fill="none" stroke="black" d="M57,-612C57,-612 32,-559 32,-559 32,-559 32,-523 32,-523 32,-523 92,-307 92,-307 92,-307 177,-235 177,-235 177,-235 263,-163 263,-163 263,-163 442.25,-132.55 529.01,-117.81"/>
<polygon fill="black" stroke="black" points="529.35,-121.3 538.63,-116.18 528.18,-114.4 529.35,-121.3"/>
<path fill="none" stroke="black" d="M143.3,-811.08C109.64,-795.57 65,-775 65,-775 65,-775 57,-614 57,-614"/>
</g>
<!-- NASALib/trig -->
<g id="node19" class="node">
<title>NASALib/trig</title>
<polygon fill="#fcfcd7" stroke="black" points="230,-343 176,-343 176,-307 230,-307 230,-343"/>
<text text-anchor="middle" x="203" y="-321.3" font-family="Times,serif" font-size="14.00">trig</text>
</g>
<!-- NASALib/mult_poly&#45;&gt;NASALib/trig -->
<g id="edge53" class="edge">
<title>NASALib/mult_poly&#45;&gt;NASALib/trig</title>
<path fill="none" stroke="black" d="M57,-612C57,-612 152.35,-425.22 188.94,-353.55"/>
<polygon fill="black" stroke="black" points="191.97,-355.31 193.4,-344.81 185.73,-352.12 191.97,-355.31"/>
</g>
<!-- NASALib/orders&#45;&gt;NASALib/structures -->
<g id="edge54" class="edge">
<title>NASALib/orders&#45;&gt;NASALib/structures</title>
<path fill="none" stroke="black" d="M650.02,-162.52C637.64,-153.85 622.5,-143.25 609.07,-133.85"/>
<polygon fill="black" stroke="black" points="611.1,-131 600.9,-128.13 607.08,-136.73 611.1,-131"/>
</g>
<!-- NASALib/orders&#45;&gt;lib/finite_sets -->
<g id="edge55" class="edge">
<title>NASALib/orders&#45;&gt;lib/finite_sets</title>
<path fill="none" stroke="black" d="M871,-108C871,-108 881.84,-83.26 890.91,-62.59"/>
<polygon fill="black" stroke="black" points="894,-64.25 894.81,-53.69 887.59,-61.44 894,-64.25"/>
<path fill="none" stroke="black" d="M702.25,-170.27C756.11,-151.03 871,-110 871,-110"/>
</g>
<!-- NASALib/power&#45;&gt;NASALib/analysis -->
<g id="edge56" class="edge">
<title>NASALib/power&#45;&gt;NASALib/analysis</title>
<path fill="none" stroke="black" d="M357,-470C357,-470 277,-684 277,-684"/>
<path fill="none" stroke="black" d="M376.57,-415.3C371.7,-428.42 365.16,-446.04 361.01,-457.21"/>
<polygon fill="black" stroke="black" points="357.73,-455.99 357.53,-466.58 364.29,-458.43 357.73,-455.99"/>
</g>
<!-- NASALib/power&#45;&gt;NASALib/lnexp -->
<g id="edge57" class="edge">
<title>NASALib/power&#45;&gt;NASALib/lnexp</title>
<path fill="none" stroke="black" d="M361.25,-378.7C350.56,-370.2 337.51,-359.81 325.82,-350.51"/>
<polygon fill="black" stroke="black" points="328,-347.78 317.99,-344.29 323.64,-353.25 328,-347.78"/>
</g>
<!-- NASALib/power&#45;&gt;NASALib/reals -->
<g id="edge58" class="edge">
<title>NASALib/power&#45;&gt;NASALib/reals</title>
<path fill="none" stroke="black" d="M357,-470C357,-470 377,-540 377,-540"/>
<path fill="none" stroke="black" d="M377,-542C377,-542 367,-612 367,-612"/>
</g>
<!-- NASALib/reals&#45;&gt;NASALib/ints -->
<g id="edge59" class="edge">
<title>NASALib/reals&#45;&gt;NASALib/ints</title>
<path fill="none" stroke="black" d="M310.56,-666.65C299.47,-651.19 285,-631 285,-631 285,-631 167,-343 167,-343 167,-343 157,-254 157,-254"/>
</g>
<!-- NASALib/reals&#45;&gt;NASALib/lebesgue -->
<g id="edge60" class="edge">
<title>NASALib/reals&#45;&gt;NASALib/lebesgue</title>
<path fill="none" stroke="black" d="M361.29,-675.47C428.58,-660.49 561,-631 561,-631 561,-631 562.14,-630.58 564.05,-629.87"/>
<polygon fill="black" stroke="black" points="360.78,-672 351.78,-677.59 362.3,-678.83 360.78,-672"/>
<polygon fill="black" stroke="black" points="564.97,-633.27 573.13,-626.52 562.54,-626.7 564.97,-633.27"/>
</g>
<!-- NASALib/reals&#45;&gt;NASALib/metric_space -->
<g id="edge61" class="edge">
<title>NASALib/reals&#45;&gt;NASALib/metric_space</title>
<path fill="none" stroke="black" d="M346.68,-658.38C359.2,-644.85 372,-631 372,-631 372,-631 439.52,-541.89 474.1,-496.26"/>
<polygon fill="black" stroke="black" points="344.29,-655.82 340.07,-665.53 349.43,-660.57 344.29,-655.82"/>
<polygon fill="black" stroke="black" points="476.78,-498.52 480.03,-488.44 471.2,-494.29 476.78,-498.52"/>
</g>
<!-- NASALib/reals&#45;&gt;NASALib/sets_aux -->
<g id="edge62" class="edge">
<title>NASALib/reals&#45;&gt;NASALib/sets_aux</title>
<path fill="none" stroke="black" d="M350.49,-680.56C444.45,-668.82 747,-631 747,-631 747,-631 807,-487 807,-487 807,-487 820,-398 820,-398"/>
</g>
<!-- NASALib/reals&#45;&gt;NASALib/structures -->
<g id="edge63" class="edge">
<title>NASALib/reals&#45;&gt;NASALib/structures</title>
<path fill="none" stroke="black" d="M322.26,-666.59C320.66,-628.67 317,-542 317,-542 317,-542 317,-542 317,-468 317,-468 331,-343 331,-343 331,-343 331,-307 331,-307 331,-307 328,-182 328,-182"/>
</g>
<!-- NASALib/series&#45;&gt;NASALib/analysis -->
<g id="edge64" class="edge">
<title>NASALib/series&#45;&gt;NASALib/analysis</title>
<path fill="none" stroke="black" d="M361,-326C361,-326 277,-468 277,-468 277,-542 277,-542 277,-542 277,-542 277,-684 277,-684"/>
<path fill="none" stroke="black" d="M370.79,-271.3C368.38,-284.26 365.16,-301.6 363.08,-312.79"/>
<polygon fill="black" stroke="black" points="359.66,-312.04 361.28,-322.51 366.54,-313.32 359.66,-312.04"/>
</g>
<!-- NASALib/series&#45;&gt;NASALib/ints -->
<g id="edge65" class="edge">
<title>NASALib/series&#45;&gt;NASALib/ints</title>
<path fill="none" stroke="black" d="M354.47,-234.7C331.08,-213.97 295,-182 295,-182"/>
</g>
<!-- NASALib/series&#45;&gt;NASALib/orders -->
<g id="edge66" class="edge">
<title>NASALib/series&#45;&gt;NASALib/orders</title>
<path fill="none" stroke="black" d="M401.33,-246.43C468.09,-232.82 634,-199 634,-199 634,-199 635.37,-198.43 637.62,-197.5"/>
<polygon fill="black" stroke="black" points="638.59,-200.89 646.48,-193.82 635.9,-194.42 638.59,-200.89"/>
</g>
<!-- NASALib/series&#45;&gt;NASALib/reals -->
<g id="edge67" class="edge">
<title>NASALib/series&#45;&gt;NASALib/reals</title>
<path fill="none" stroke="black" d="M361,-326C361,-326 347,-379 347,-379 347,-379 347,-415 347,-415 347,-415 352,-487 352,-487 352,-487 367,-612 367,-612"/>
<path fill="none" stroke="black" d="M367,-614C367,-614 346.91,-645.97 333.88,-666.7"/>
</g>
<!-- NASALib/sets_aux&#45;&gt;NASALib/ints -->
<g id="edge68" class="edge">
<title>NASALib/sets_aux&#45;&gt;NASALib/ints</title>
<path fill="none" stroke="black" d="M629,-180C629,-180 619,-91 619,-91 619,-91 607.07,-75.81 595.63,-61.25"/>
<polygon fill="black" stroke="black" points="598.55,-59.3 589.62,-53.6 593.04,-63.63 598.55,-59.3"/>
</g>
<!-- NASALib/sets_aux&#45;&gt;NASALib/orders -->
<g id="edge69" class="edge">
<title>NASALib/sets_aux&#45;&gt;NASALib/orders</title>
<path fill="none" stroke="black" d="M675,-252C675,-252 675,-230.08 675,-210.77"/>
<polygon fill="black" stroke="black" points="678.5,-210.82 675,-200.82 671.5,-210.82 678.5,-210.82"/>
</g>
<!-- NASALib/sets_aux&#45;&gt;NASALib/structures -->
<g id="edge70" class="edge">
<title>NASALib/sets_aux&#45;&gt;NASALib/structures</title>
<path fill="none" stroke="black" d="M629,-180C629,-180 610.62,-156.18 595.31,-136.33"/>
<polygon fill="black" stroke="black" points="598.15,-134.28 589.27,-128.5 592.61,-138.56 598.15,-134.28"/>
<path fill="none" stroke="black" d="M698.34,-306.7C689.16,-285.97 675,-254 675,-254"/>
<path fill="none" stroke="black" d="M675,-252C675,-252 639,-199 639,-199 639,-199 629,-182 629,-182"/>
</g>
<!-- NASALib/sets_aux&#45;&gt;lib/finite_sets -->
<g id="edge71" class="edge">
<title>NASALib/sets_aux&#45;&gt;lib/finite_sets</title>
<path fill="none" stroke="black" d="M871,-252C871,-252 871,-110 871,-110"/>
<path fill="none" stroke="black" d="M737.81,-310.5C785.76,-290.16 871,-254 871,-254"/>
</g>
<!-- NASALib/sigma_set&#45;&gt;NASALib/analysis -->
<g id="edge72" class="edge">
<title>NASALib/sigma_set&#45;&gt;NASALib/analysis</title>
<path fill="none" stroke="black" d="M762,-415.15C762,-457.4 762,-565.62 762,-600.78"/>
<polygon fill="black" stroke="black" points="758.5,-600.49 762,-610.49 765.5,-600.49 758.5,-600.49"/>
</g>
<!-- NASALib/sigma_set&#45;&gt;NASALib/orders -->
<g id="edge73" class="edge">
<title>NASALib/sigma_set&#45;&gt;NASALib/orders</title>
<path fill="none" stroke="black" d="M759.11,-378.84C754.75,-352.98 747,-307 747,-307 747,-307 711.74,-245.78 690.57,-209.03"/>
<polygon fill="black" stroke="black" points="693.79,-207.61 685.77,-200.69 687.73,-211.1 693.79,-207.61"/>
</g>
<!-- NASALib/sigma_set&#45;&gt;NASALib/reals -->
<g id="edge74" class="edge">
<title>NASALib/sigma_set&#45;&gt;NASALib/reals</title>
<path fill="none" stroke="black" d="M760.39,-415.23C756.53,-456.76 747,-559 747,-559 747,-559 744.53,-585.2 743.06,-600.76"/>
<polygon fill="black" stroke="black" points="739.6,-600.21 742.14,-610.49 746.57,-600.87 739.6,-600.21"/>
</g>
<!-- NASALib/sigma_set&#45;&gt;NASALib/series -->
<g id="edge75" class="edge">
<title>NASALib/sigma_set&#45;&gt;NASALib/series</title>
<path fill="none" stroke="black" d="M730.38,-378.63C683.24,-352.73 600,-307 600,-307 600,-307 476.63,-278.07 412.19,-262.96"/>
<polygon fill="black" stroke="black" points="413.27,-259.61 402.73,-260.74 411.67,-266.43 413.27,-259.61"/>
</g>
<!-- NASALib/sigma_set&#45;&gt;NASALib/sets_aux -->
<g id="edge76" class="edge">
<title>NASALib/sigma_set&#45;&gt;NASALib/sets_aux</title>
<path fill="none" stroke="black" d="M748.16,-378.7C741.71,-370.64 733.92,-360.89 726.79,-351.98"/>
<polygon fill="black" stroke="black" points="729.61,-349.91 720.63,-344.29 724.14,-354.28 729.61,-349.91"/>
</g>
<!-- NASALib/sorting&#45;&gt;NASALib/ints -->
<g id="edge77" class="edge">
<title>NASALib/sorting&#45;&gt;NASALib/ints</title>
<path fill="none" stroke="black" d="M97,-324C97,-324 157,-254 157,-254"/>
<path fill="none" stroke="black" d="M196.97,-738.52C180.32,-690.3 135,-559 135,-559 135,-559 120,-487 120,-487 120,-487 97,-326 97,-326"/>
<path fill="none" stroke="black" d="M157,-252C157,-252 157,-110 157,-110"/>
</g>
<!-- NASALib/sorting&#45;&gt;NASALib/reals -->
<g id="edge78" class="edge">
<title>NASALib/sorting&#45;&gt;NASALib/reals</title>
<path fill="none" stroke="black" d="M230.23,-740.12C246.72,-730.49 267.98,-718.09 285.99,-707.59"/>
<polygon fill="black" stroke="black" points="287.7,-710.65 294.57,-702.58 284.17,-704.6 287.7,-710.65"/>
</g>
<!-- NASALib/sorting&#45;&gt;NASALib/structures -->
<g id="edge79" class="edge">
<title>NASALib/sorting&#45;&gt;NASALib/structures</title>
<path fill="none" stroke="black" d="M328,-180C328,-180 457.79,-143.22 529.2,-122.98"/>
<polygon fill="black" stroke="black" points="530.01,-126.39 538.68,-120.29 528.1,-119.65 530.01,-126.39"/>
<path fill="none" stroke="black" d="M198.97,-738.54C184.64,-676.45 137,-470 137,-470 137,-470 137,-470 137,-396 137,-396 167,-307 167,-307 167,-307 328,-182 328,-182"/>
</g>
<!-- NASALib/structures&#45;&gt;NASALib/ints -->
<g id="edge80" class="edge">
<title>NASALib/structures&#45;&gt;NASALib/ints</title>
<path fill="none" stroke="black" d="M575,-90.7C575,-82.67 575,-72.9 575,-63.8"/>
<polygon fill="black" stroke="black" points="578.5,-63.94 575,-53.94 571.5,-63.94 578.5,-63.94"/>
</g>
<!-- NASALib/structures&#45;&gt;lib/finite_sets -->
<g id="edge81" class="edge">
<title>NASALib/structures&#45;&gt;lib/finite_sets</title>
<path fill="none" stroke="black" d="M609.9,-104.88C684.95,-98.18 855,-83 855,-83 855,-83 866.17,-71.83 877.73,-60.27"/>
<polygon fill="black" stroke="black" points="880,-62.95 884.6,-53.4 875.05,-58 880,-62.95"/>
</g>
<!-- NASALib/topology&#45;&gt;NASALib/reals -->
<g id="edge82" class="edge">
<title>NASALib/topology&#45;&gt;NASALib/reals</title>
<path fill="none" stroke="black" d="M556,-614C556,-614 411.65,-657.37 350.18,-675.83"/>
<path fill="none" stroke="black" d="M601.25,-415.35C589,-430.81 573,-451 573,-451 573,-451 561.06,-564.03 557.2,-600.68"/>
<polygon fill="black" stroke="black" points="553.73,-600.18 556.16,-610.49 560.69,-600.92 553.73,-600.18"/>
</g>
<!-- NASALib/topology&#45;&gt;NASALib/sets_aux -->
<g id="edge83" class="edge">
<title>NASALib/topology&#45;&gt;NASALib/sets_aux</title>
<path fill="none" stroke="black" d="M637.49,-378.7C648.65,-370.11 662.31,-359.61 674.49,-350.24"/>
<polygon fill="black" stroke="black" points="676.46,-353.14 682.25,-344.27 672.19,-347.59 676.46,-353.14"/>
</g>
<!-- NASALib/topology&#45;&gt;NASALib/structures -->
<g id="edge84" class="edge">
<title>NASALib/topology&#45;&gt;NASALib/structures</title>
<path fill="none" stroke="black" d="M615,-378.7C615,-357.97 615,-326 615,-326"/>
</g>
<!-- NASALib/trig&#45;&gt;NASALib/analysis -->
<g id="edge85" class="edge">
<title>NASALib/trig&#45;&gt;NASALib/analysis</title>
<path fill="none" stroke="black" d="M217,-614C217,-614 277,-684 277,-684"/>
<path fill="none" stroke="black" d="M217,-398C217,-398 217,-612 217,-612"/>
<path fill="none" stroke="black" d="M277,-686C277,-686 292.07,-717.97 301.84,-738.7"/>
<path fill="none" stroke="black" d="M206.46,-343.3C209.05,-356.26 212.52,-373.6 214.76,-384.79"/>
<polygon fill="black" stroke="black" points="211.31,-385.4 216.7,-394.52 218.17,-384.02 211.31,-385.4"/>
</g>
<!-- NASALib/trig&#45;&gt;NASALib/ints -->
<g id="edge86" class="edge">
<title>NASALib/trig&#45;&gt;NASALib/ints</title>
<path fill="none" stroke="black" d="M214.28,-306.59C238.85,-268.67 295,-182 295,-182"/>
<path fill="none" stroke="black" d="M295,-180C295,-180 157,-110 157,-110"/>
</g>
<!-- NASALib/trig&#45;&gt;NASALib/reals -->
<g id="edge87" class="edge">
<title>NASALib/trig&#45;&gt;NASALib/reals</title>
<path fill="none" stroke="black" d="M217,-398C217,-398 302,-631 302,-631 302,-631 310,-651.19 316.12,-666.65"/>
</g>
<!-- NASALib/trig&#45;&gt;NASALib/series -->
<g id="edge88" class="edge">
<title>NASALib/trig&#45;&gt;NASALib/series</title>
<path fill="none" stroke="black" d="M230.12,-312.76C237.74,-309.59 244,-307 244,-307 244,-307 298,-284.99 336.39,-269.33"/>
<polygon fill="black" stroke="black" points="337.41,-272.7 345.35,-265.68 334.76,-266.22 337.41,-272.7"/>
</g>
<!-- NASALib/vectors&#45;&gt;NASALib/reals -->
<g id="edge89" class="edge">
<title>NASALib/vectors&#45;&gt;NASALib/reals</title>
<path fill="none" stroke="black" d="M446.31,-415.41C429.59,-445.48 395.8,-506.2 382.53,-530.06"/>
<polygon fill="black" stroke="black" points="379.54,-528.24 377.74,-538.68 385.66,-531.64 379.54,-528.24"/>
</g>
<!-- NASALib/vectors&#45;&gt;NASALib/structures -->
<g id="edge90" class="edge">
<title>NASALib/vectors&#45;&gt;NASALib/structures</title>
<path fill="none" stroke="black" d="M473.04,-378.59C510.16,-340.67 595,-254 595,-254"/>
<path fill="none" stroke="black" d="M595,-252C595,-252 328,-182 328,-182"/>
</g>
<!-- NASALib/vectors&#45;&gt;NASALib/trig -->
<g id="edge91" class="edge">
<title>NASALib/vectors&#45;&gt;NASALib/trig</title>
<path fill="none" stroke="black" d="M427.58,-382.94C422.61,-380.66 419,-379 419,-379 419,-379 259,-343 259,-343 259,-343 251.05,-340.59 241.13,-337.58"/>
<polygon fill="black" stroke="black" points="242.38,-334.3 231.79,-334.74 240.34,-340.99 242.38,-334.3"/>
</g>
</g>
</svg>
