<?xml version="1.0" encoding="UTF-8" standalone="no"?>
<!DOCTYPE svg PUBLIC "-//W3C//DTD SVG 1.1//EN"
 "http://www.w3.org/Graphics/SVG/1.1/DTD/svg11.dtd">
<!-- Generated by graphviz version 8.1.0 (20230707.0739)
 -->
<!-- Title: Tarski Pages: 1 -->
<svg width="392pt" height="833pt"
 viewBox="0.00 0.00 392.00 833.00" xmlns="http://www.w3.org/2000/svg" xmlns:xlink="http://www.w3.org/1999/xlink">
<g id="graph0" class="graph" transform="scale(1 1) rotate(0) translate(4 829)">
<title>Tarski</title>
<polygon fill="white" stroke="none" points="-4,4 -4,-829 388,-829 388,4 -4,4"/>
<g id="clust1" class="cluster">
<title>cluster_NASALib</title>
<polygon fill="none" stroke="black" points="8,-92.5 8,-817 364,-817 364,-92.5 8,-92.5"/>
<text text-anchor="middle" x="186" y="-799.7" font-family="Times,serif" font-size="14.00">NASALib</text>
</g>
<g id="clust2" class="cluster">
<title>cluster_PVS Prelude</title>
<polygon fill="none" stroke="black" points="194,-8 194,-84.5 282,-84.5 282,-8 194,-8"/>
<text text-anchor="middle" x="238" y="-67.2" font-family="Times,serif" font-size="14.00">PVS Prelude</text>
</g>
<!-- lib/finite_sets -->
<g id="node1" class="node">
<title>lib/finite_sets</title>
<polygon fill="#fcfcd7" stroke="black" points="273.75,-52 202.25,-52 202.25,-16 273.75,-16 273.75,-52"/>
<text text-anchor="middle" x="238" y="-28.95" font-family="Times,serif" font-size="14.00">finite_sets</text>
</g>
<!-- nasalib/Sturm -->
<g id="node2" class="node">
<title>nasalib/Sturm</title>
<polygon fill="#fcfcd7" stroke="black" points="239,-640.5 185,-640.5 185,-604.5 239,-604.5 239,-640.5"/>
<text text-anchor="middle" x="212" y="-617.45" font-family="Times,serif" font-size="14.00">Sturm</text>
</g>
<!-- nasalib/interval_arith -->
<g id="node6" class="node">
<title>nasalib/interval_arith</title>
<polygon fill="#fcfcd7" stroke="black" points="326.38,-568.5 237.62,-568.5 237.62,-532.5 326.38,-532.5 326.38,-568.5"/>
<text text-anchor="middle" x="282" y="-545.45" font-family="Times,serif" font-size="14.00">interval_arith</text>
</g>
<!-- nasalib/Sturm&#45;&gt;nasalib/interval_arith -->
<g id="edge1" class="edge">
<title>nasalib/Sturm&#45;&gt;nasalib/interval_arith</title>
<path fill="none" stroke="black" d="M229.3,-604.2C237.7,-595.8 247.93,-585.57 257.14,-576.36"/>
<polygon fill="black" stroke="black" points="259.3,-579.15 263.9,-569.6 254.35,-574.2 259.3,-579.15"/>
</g>
<!-- nasalib/ints -->
<g id="node7" class="node">
<title>nasalib/ints</title>
<polygon fill="#fcfcd7" stroke="black" points="184,-136.5 130,-136.5 130,-100.5 184,-100.5 184,-136.5"/>
<text text-anchor="middle" x="157" y="-113.45" font-family="Times,serif" font-size="14.00">ints</text>
</g>
<!-- nasalib/Sturm&#45;&gt;nasalib/ints -->
<g id="edge2" class="edge">
<title>nasalib/Sturm&#45;&gt;nasalib/ints</title>
<path fill="none" stroke="black" d="M198.4,-604.2C182.12,-583.47 157,-551.5 157,-551.5"/>
<path fill="none" stroke="black" d="M157,-549.5C157,-549.5 117,-407.5 117,-407.5"/>
<path fill="none" stroke="black" d="M117,-405.5C117,-405.5 27,-352.5 27,-352.5 27,-352.5 17,-335.5 17,-335.5"/>
</g>
<!-- nasalib/reals -->
<g id="node11" class="node">
<title>nasalib/reals</title>
<polygon fill="#fcfcd7" stroke="black" points="184,-280.5 130,-280.5 130,-244.5 184,-244.5 184,-280.5"/>
<text text-anchor="middle" x="157" y="-257.45" font-family="Times,serif" font-size="14.00">reals</text>
</g>
<!-- nasalib/Sturm&#45;&gt;nasalib/reals -->
<g id="edge3" class="edge">
<title>nasalib/Sturm&#45;&gt;nasalib/reals</title>
<path fill="none" stroke="black" d="M157,-333.5C157,-333.5 157,-311.16 157,-291.72"/>
<polygon fill="black" stroke="black" points="160.5,-291.8 157,-281.8 153.5,-291.8 160.5,-291.8"/>
</g>
<!-- nasalib/structures -->
<g id="node13" class="node">
<title>nasalib/structures</title>
<polygon fill="#fcfcd7" stroke="black" points="191.25,-208.5 122.75,-208.5 122.75,-172.5 191.25,-172.5 191.25,-208.5"/>
<text text-anchor="middle" x="157" y="-185.45" font-family="Times,serif" font-size="14.00">structures</text>
</g>
<!-- nasalib/Sturm&#45;&gt;nasalib/structures -->
<g id="edge4" class="edge">
<title>nasalib/Sturm&#45;&gt;nasalib/structures</title>
<path fill="none" stroke="black" d="M157,-549.5C157,-549.5 157,-335.5 157,-335.5"/>
<path fill="none" stroke="black" d="M157,-333.5C157,-333.5 121,-280.5 121,-280.5 121,-280.5 111,-263.5 111,-263.5"/>
</g>
<!-- nasalib/Tarski -->
<g id="node3" class="node">
<title>nasalib/Tarski</title>
<polygon fill="#f7e28d" stroke="black" points="164,-712.5 110,-712.5 110,-676.5 164,-676.5 164,-712.5"/>
<text text-anchor="middle" x="137" y="-689.45" font-family="Times,serif" font-size="14.00">Tarski</text>
</g>
<!-- nasalib/Tarski&#45;&gt;nasalib/Sturm -->
<g id="edge5" class="edge">
<title>nasalib/Tarski&#45;&gt;nasalib/Sturm</title>
<path fill="none" stroke="black" d="M155.54,-676.2C164.55,-667.78 175.55,-657.52 185.44,-648.29"/>
<polygon fill="black" stroke="black" points="187.49,-651.23 192.41,-641.85 182.72,-646.11 187.49,-651.23"/>
</g>
<!-- nasalib/Tarski&#45;&gt;nasalib/ints -->
<g id="edge6" class="edge">
<title>nasalib/Tarski&#45;&gt;nasalib/ints</title>
<path fill="none" stroke="black" d="M79,-189.5C79,-189.5 107.26,-164.14 129.75,-143.95"/>
<polygon fill="black" stroke="black" points="131.61,-147.09 136.72,-137.8 126.94,-141.88 131.61,-147.09"/>
<path fill="none" stroke="black" d="M122.29,-676.09C90.24,-638.17 17,-551.5 17,-551.5 17,-551.5 17,-551.5 17,-477.5 17,-477.5 17,-335.5 17,-335.5"/>
<path fill="none" stroke="black" d="M17,-333.5C17,-333.5 79,-191.5 79,-191.5"/>
</g>
<!-- nasalib/matrices -->
<g id="node9" class="node">
<title>nasalib/matrices</title>
<polygon fill="#fcfcd7" stroke="black" points="98.25,-352.5 35.75,-352.5 35.75,-316.5 98.25,-316.5 98.25,-352.5"/>
<text text-anchor="middle" x="67" y="-329.45" font-family="Times,serif" font-size="14.00">matrices</text>
</g>
<!-- nasalib/Tarski&#45;&gt;nasalib/matrices -->
<g id="edge7" class="edge">
<title>nasalib/Tarski&#45;&gt;nasalib/matrices</title>
<path fill="none" stroke="black" d="M137,-621.5C137,-621.5 92,-496.5 92,-496.5 92,-496.5 72,-424.5 72,-424.5 72,-424.5 70.04,-389.61 68.57,-363.52"/>
<polygon fill="black" stroke="black" points="72.02,-363.45 67.96,-353.66 65.03,-363.84 72.02,-363.45"/>
<path fill="none" stroke="black" d="M137,-676.2C137,-655.47 137,-623.5 137,-623.5"/>
</g>
<!-- nasalib/Tarski&#45;&gt;nasalib/reals -->
<g id="edge8" class="edge">
<title>nasalib/Tarski&#45;&gt;nasalib/reals</title>
<path fill="none" stroke="black" d="M137,-549.5C137,-549.5 137,-335.5 137,-335.5"/>
</g>
<!-- nasalib/Tarski&#45;&gt;nasalib/structures -->
<g id="edge9" class="edge">
<title>nasalib/Tarski&#45;&gt;nasalib/structures</title>
<path fill="none" stroke="black" d="M111,-261.5C111,-261.5 121,-244.5 121,-244.5 121,-244.5 130.05,-231.17 139.08,-217.88"/>
<polygon fill="black" stroke="black" points="142.49,-220.09 145.21,-209.85 136.7,-216.16 142.49,-220.09"/>
<path fill="none" stroke="black" d="M137,-549.5C137,-549.5 111,-263.5 111,-263.5"/>
<path fill="none" stroke="black" d="M137,-621.5C137,-621.5 137,-551.5 137,-551.5"/>
</g>
<!-- nasalib/analysis -->
<g id="node4" class="node">
<title>nasalib/analysis</title>
<polygon fill="#fcfcd7" stroke="black" points="335.75,-352.5 276.25,-352.5 276.25,-316.5 335.75,-316.5 335.75,-352.5"/>
<text text-anchor="middle" x="306" y="-329.45" font-family="Times,serif" font-size="14.00">analysis</text>
</g>
<!-- nasalib/analysis&#45;&gt;lib/finite_sets -->
<g id="edge10" class="edge">
<title>nasalib/analysis&#45;&gt;lib/finite_sets</title>
<path fill="none" stroke="black" d="M326.3,-316.15C344.38,-300.69 368,-280.5 368,-280.5 368,-280.5 384,-191.5 384,-191.5"/>
</g>
<!-- nasalib/analysis&#45;&gt;nasalib/ints -->
<g id="edge11" class="edge">
<title>nasalib/analysis&#45;&gt;nasalib/ints</title>
<path fill="none" stroke="black" d="M335,-261.5C335,-261.5 335,-191.5 335,-191.5"/>
</g>
<!-- nasalib/orders -->
<g id="node10" class="node">
<title>nasalib/orders</title>
<polygon fill="#fcfcd7" stroke="black" points="316,-280.5 262,-280.5 262,-244.5 316,-244.5 316,-280.5"/>
<text text-anchor="middle" x="289" y="-257.45" font-family="Times,serif" font-size="14.00">orders</text>
</g>
<!-- nasalib/analysis&#45;&gt;nasalib/orders -->
<g id="edge12" class="edge">
<title>nasalib/analysis&#45;&gt;nasalib/orders</title>
<path fill="none" stroke="black" d="M301.8,-316.2C299.97,-308.65 297.77,-299.62 295.72,-291.18"/>
<polygon fill="black" stroke="black" points="298.92,-290.5 293.15,-281.6 292.11,-292.15 298.92,-290.5"/>
</g>
<!-- nasalib/analysis&#45;&gt;nasalib/reals -->
<g id="edge13" class="edge">
<title>nasalib/analysis&#45;&gt;nasalib/reals</title>
<path fill="none" stroke="black" d="M275.85,-319.33C252.23,-308.24 219.26,-292.75 194.04,-280.9"/>
<polygon fill="black" stroke="black" points="195.64,-277.32 185.1,-276.23 192.66,-283.65 195.64,-277.32"/>
</g>
<!-- nasalib/analysis&#45;&gt;nasalib/structures -->
<g id="edge14" class="edge">
<title>nasalib/analysis&#45;&gt;nasalib/structures</title>
<path fill="none" stroke="black" d="M313.17,-316.2C321.76,-295.47 335,-263.5 335,-263.5"/>
<path fill="none" stroke="black" d="M335,-261.5C335,-261.5 325,-244.5 325,-244.5 325,-244.5 251.4,-221.28 201.63,-205.58"/>
<polygon fill="black" stroke="black" points="202.99,-202.02 192.4,-202.35 200.89,-208.7 202.99,-202.02"/>
</g>
<!-- nasalib/examples -->
<g id="node5" class="node">
<title>nasalib/examples</title>
<polygon fill="#fcfcd7" stroke="black" points="170.88,-784.5 103.12,-784.5 103.12,-748.5 170.88,-748.5 170.88,-784.5"/>
<text text-anchor="middle" x="137" y="-761.45" font-family="Times,serif" font-size="14.00">examples</text>
</g>
<!-- nasalib/examples&#45;&gt;nasalib/Sturm -->
<g id="edge15" class="edge">
<title>nasalib/examples&#45;&gt;nasalib/Sturm</title>
<path fill="none" stroke="black" d="M171.36,-748.91C214.24,-728.21 282,-695.5 282,-695.5"/>
<path fill="none" stroke="black" d="M282,-693.5C282,-693.5 257.09,-668.59 236.98,-648.48"/>
<polygon fill="black" stroke="black" points="239.85,-646.4 230.3,-641.8 234.9,-651.35 239.85,-646.4"/>
</g>
<!-- nasalib/examples&#45;&gt;nasalib/Tarski -->
<g id="edge16" class="edge">
<title>nasalib/examples&#45;&gt;nasalib/Tarski</title>
<path fill="none" stroke="black" d="M137,-748.2C137,-740.74 137,-731.82 137,-723.47"/>
<polygon fill="black" stroke="black" points="140.5,-723.6 137,-713.6 133.5,-723.6 140.5,-723.6"/>
</g>
<!-- nasalib/examples&#45;&gt;nasalib/analysis -->
<g id="edge17" class="edge">
<title>nasalib/examples&#45;&gt;nasalib/analysis</title>
<path fill="none" stroke="black" d="M345,-549.5C345,-549.5 334,-388.5 334,-388.5 334,-388.5 327.09,-375.43 320.14,-362.27"/>
<polygon fill="black" stroke="black" points="322.93,-361.06 315.17,-353.85 316.74,-364.33 322.93,-361.06"/>
</g>
<!-- nasalib/examples&#45;&gt;nasalib/interval_arith -->
<g id="edge18" class="edge">
<title>nasalib/examples&#45;&gt;nasalib/interval_arith</title>
<path fill="none" stroke="black" d="M282,-621.5C282,-621.5 282,-599.16 282,-579.72"/>
<polygon fill="black" stroke="black" points="285.5,-579.8 282,-569.8 278.5,-579.8 285.5,-579.8"/>
</g>
<!-- nasalib/lnexp -->
<g id="node8" class="node">
<title>nasalib/lnexp</title>
<polygon fill="#fcfcd7" stroke="black" points="230,-496.5 176,-496.5 176,-460.5 230,-460.5 230,-496.5"/>
<text text-anchor="middle" x="203" y="-473.45" font-family="Times,serif" font-size="14.00">lnexp</text>
</g>
<!-- nasalib/examples&#45;&gt;nasalib/lnexp -->
<g id="edge19" class="edge">
<title>nasalib/examples&#45;&gt;nasalib/lnexp</title>
<path fill="none" stroke="black" d="M282,-693.5C282,-693.5 282,-623.5 282,-623.5"/>
<path fill="none" stroke="black" d="M282,-621.5C282,-621.5 229,-568.5 229,-568.5 229,-568.5 218.72,-533.3 211.08,-507.17"/>
<polygon fill="black" stroke="black" points="214.18,-506.28 208.01,-497.66 207.46,-508.24 214.18,-506.28"/>
</g>
<!-- nasalib/examples&#45;&gt;nasalib/reals -->
<g id="edge20" class="edge">
<title>nasalib/examples&#45;&gt;nasalib/reals</title>
<path fill="none" stroke="black" d="M125.21,-748.15C114.71,-732.69 101,-712.5 101,-712.5 101,-712.5 77,-623.5 77,-623.5 77,-623.5 77,-623.5 77,-549.5 77,-549.5 137,-335.5 137,-335.5"/>
<path fill="none" stroke="black" d="M137,-333.5C137,-333.5 143.5,-310.74 149.09,-291.18"/>
<polygon fill="black" stroke="black" points="152.67,-292.38 152.06,-281.8 145.94,-290.46 152.67,-292.38"/>
</g>
<!-- nasalib/trig -->
<g id="node14" class="node">
<title>nasalib/trig</title>
<polygon fill="#fcfcd7" stroke="black" points="326,-496.5 272,-496.5 272,-460.5 326,-460.5 326,-496.5"/>
<text text-anchor="middle" x="299" y="-473.45" font-family="Times,serif" font-size="14.00">trig</text>
</g>
<!-- nasalib/examples&#45;&gt;nasalib/trig -->
<g id="edge21" class="edge">
<title>nasalib/examples&#45;&gt;nasalib/trig</title>
<path fill="none" stroke="black" d="M282,-621.5C282,-621.5 335,-568.5 335,-568.5 335,-568.5 345,-551.5 345,-551.5"/>
<path fill="none" stroke="black" d="M345,-549.5C345,-549.5 335,-532.5 335,-532.5 335,-532.5 325.95,-519.17 316.92,-505.88"/>
<polygon fill="black" stroke="black" points="319.3,-504.16 310.79,-497.85 313.51,-508.09 319.3,-504.16"/>
</g>
<!-- nasalib/interval_arith&#45;&gt;nasalib/analysis -->
<g id="edge22" class="edge">
<title>nasalib/interval_arith&#45;&gt;nasalib/analysis</title>
<path fill="none" stroke="black" d="M253,-477.5C253,-477.5 263,-460.5 263,-460.5 263,-460.5 299,-424.5 299,-424.5 299,-424.5 309,-407.5 309,-407.5"/>
</g>
<!-- nasalib/interval_arith&#45;&gt;nasalib/ints -->
<g id="edge23" class="edge">
<title>nasalib/interval_arith&#45;&gt;nasalib/ints</title>
<path fill="none" stroke="black" d="M197,-405.5C197,-405.5 222,-352.5 222,-352.5 222,-352.5 243,-263.5 243,-263.5"/>
<path fill="none" stroke="black" d="M335,-189.5C335,-189.5 246.54,-154.71 194.34,-134.18"/>
<polygon fill="black" stroke="black" points="196.01,-130.69 185.42,-130.28 193.45,-137.2 196.01,-130.69"/>
<path fill="none" stroke="black" d="M243,-261.5C243,-261.5 253,-244.5 253,-244.5 253,-244.5 335,-191.5 335,-191.5"/>
</g>
<!-- nasalib/interval_arith&#45;&gt;nasalib/lnexp -->
<g id="edge24" class="edge">
<title>nasalib/interval_arith&#45;&gt;nasalib/lnexp</title>
<path fill="none" stroke="black" d="M262.47,-532.2C252.88,-523.7 241.16,-513.31 230.67,-504.01"/>
<polygon fill="black" stroke="black" points="233.38,-501.86 223.58,-497.85 228.74,-507.1 233.38,-501.86"/>
</g>
<!-- nasalib/interval_arith&#45;&gt;nasalib/reals -->
<g id="edge25" class="edge">
<title>nasalib/interval_arith&#45;&gt;nasalib/reals</title>
<path fill="none" stroke="black" d="M253,-477.5C253,-477.5 197,-407.5 197,-407.5"/>
<path fill="none" stroke="black" d="M274.83,-532.2C266.24,-511.47 253,-479.5 253,-479.5"/>
<path fill="none" stroke="black" d="M197,-405.5C197,-405.5 197,-335.5 197,-335.5"/>
<path fill="none" stroke="black" d="M197,-333.5C197,-333.5 183.51,-309.89 172.2,-290.1"/>
<polygon fill="black" stroke="black" points="174.89,-288.75 166.89,-281.8 168.81,-292.22 174.89,-288.75"/>
</g>
<!-- nasalib/interval_arith&#45;&gt;nasalib/structures -->
<g id="edge26" class="edge">
<title>nasalib/interval_arith&#45;&gt;nasalib/structures</title>
<path fill="none" stroke="black" d="M197,-333.5C197,-333.5 193,-244.5 193,-244.5 193,-244.5 183.95,-231.17 174.92,-217.88"/>
<polygon fill="black" stroke="black" points="177.3,-216.16 168.79,-209.85 171.51,-220.09 177.3,-216.16"/>
</g>
<!-- nasalib/interval_arith&#45;&gt;nasalib/trig -->
<g id="edge27" class="edge">
<title>nasalib/interval_arith&#45;&gt;nasalib/trig</title>
<path fill="none" stroke="black" d="M286.2,-532.2C288.03,-524.65 290.23,-515.62 292.28,-507.18"/>
<polygon fill="black" stroke="black" points="295.89,-508.15 294.85,-497.6 289.08,-506.5 295.89,-508.15"/>
</g>
<!-- nasalib/ints&#45;&gt;lib/finite_sets -->
<g id="edge28" class="edge">
<title>nasalib/ints&#45;&gt;lib/finite_sets</title>
<path fill="none" stroke="black" d="M174.18,-100C185.56,-88.41 200.67,-73.02 213.34,-60.12"/>
<polygon fill="black" stroke="black" points="215.34,-63.06 219.85,-53.47 210.34,-58.15 215.34,-63.06"/>
</g>
<!-- nasalib/lnexp&#45;&gt;nasalib/analysis -->
<g id="edge29" class="edge">
<title>nasalib/lnexp&#45;&gt;nasalib/analysis</title>
<path fill="none" stroke="black" d="M309,-405.5C309,-405.5 308.04,-383.16 307.21,-363.72"/>
<polygon fill="black" stroke="black" points="310.67,-363.64 306.74,-353.8 303.67,-363.94 310.67,-363.64"/>
<path fill="none" stroke="black" d="M230.25,-462.45C258.63,-446.78 299,-424.5 299,-424.5 299,-424.5 309,-407.5 309,-407.5"/>
</g>
<!-- nasalib/lnexp&#45;&gt;nasalib/ints -->
<g id="edge30" class="edge">
<title>nasalib/lnexp&#45;&gt;nasalib/ints</title>
<path fill="none" stroke="black" d="M181.74,-460.2C156.27,-439.47 117,-407.5 117,-407.5"/>
</g>
<!-- nasalib/lnexp&#45;&gt;nasalib/reals -->
<g id="edge31" class="edge">
<title>nasalib/lnexp&#45;&gt;nasalib/reals</title>
<path fill="none" stroke="black" d="M199.31,-460.35C191.39,-423.49 172.67,-336.42 163.01,-291.46"/>
<polygon fill="black" stroke="black" points="166.23,-290.77 160.7,-281.73 159.38,-292.24 166.23,-290.77"/>
</g>
<!-- nasalib/series -->
<g id="node12" class="node">
<title>nasalib/series</title>
<polygon fill="#fcfcd7" stroke="black" points="290,-424.5 236,-424.5 236,-388.5 290,-388.5 290,-424.5"/>
<text text-anchor="middle" x="263" y="-401.45" font-family="Times,serif" font-size="14.00">series</text>
</g>
<!-- nasalib/lnexp&#45;&gt;nasalib/series -->
<g id="edge32" class="edge">
<title>nasalib/lnexp&#45;&gt;nasalib/series</title>
<path fill="none" stroke="black" d="M217.83,-460.2C224.88,-451.97 233.44,-441.98 241.21,-432.92"/>
<polygon fill="black" stroke="black" points="244.49,-435.47 248.34,-425.6 239.17,-430.92 244.49,-435.47"/>
</g>
<!-- nasalib/matrices&#45;&gt;nasalib/ints -->
<g id="edge33" class="edge">
<title>nasalib/matrices&#45;&gt;nasalib/ints</title>
<path fill="none" stroke="black" d="M69.97,-316.2C73.52,-295.47 79,-263.5 79,-263.5"/>
<path fill="none" stroke="black" d="M79,-261.5C79,-261.5 79,-191.5 79,-191.5"/>
</g>
<!-- nasalib/matrices&#45;&gt;nasalib/reals -->
<g id="edge34" class="edge">
<title>nasalib/matrices&#45;&gt;nasalib/reals</title>
<path fill="none" stroke="black" d="M89.25,-316.2C100.39,-307.53 114.06,-296.9 126.19,-287.46"/>
<polygon fill="black" stroke="black" points="127.95,-289.75 133.7,-280.85 123.65,-284.22 127.95,-289.75"/>
</g>
<!-- nasalib/matrices&#45;&gt;nasalib/structures -->
<g id="edge35" class="edge">
<title>nasalib/matrices&#45;&gt;nasalib/structures</title>
<path fill="none" stroke="black" d="M79,-261.5C79,-261.5 107.26,-236.14 129.75,-215.95"/>
<polygon fill="black" stroke="black" points="131.61,-219.09 136.72,-209.8 126.94,-213.88 131.61,-219.09"/>
</g>
<!-- nasalib/orders&#45;&gt;lib/finite_sets -->
<g id="edge36" class="edge">
<title>nasalib/orders&#45;&gt;lib/finite_sets</title>
<path fill="none" stroke="black" d="M384,-189.5C384,-189.5 384,-119.5 384,-119.5"/>
<path fill="none" stroke="black" d="M314.87,-244.15C337.91,-228.69 368,-208.5 368,-208.5 368,-208.5 384,-191.5 384,-191.5"/>
</g>
<!-- nasalib/orders&#45;&gt;nasalib/structures -->
<g id="edge37" class="edge">
<title>nasalib/orders&#45;&gt;nasalib/structures</title>
<path fill="none" stroke="black" d="M261.65,-247C243.74,-237.5 219.96,-224.89 199.6,-214.09"/>
<polygon fill="black" stroke="black" points="201.4,-210.55 190.92,-208.96 198.12,-216.74 201.4,-210.55"/>
</g>
<!-- nasalib/reals&#45;&gt;nasalib/ints -->
<g id="edge38" class="edge">
<title>nasalib/reals&#45;&gt;nasalib/ints</title>
<path fill="none" stroke="black" d="M137.72,-244.2C114.62,-223.47 79,-191.5 79,-191.5"/>
</g>
<!-- nasalib/reals&#45;&gt;nasalib/structures -->
<g id="edge39" class="edge">
<title>nasalib/reals&#45;&gt;nasalib/structures</title>
<path fill="none" stroke="black" d="M157,-244.2C157,-236.74 157,-227.82 157,-219.47"/>
<polygon fill="black" stroke="black" points="160.5,-219.6 157,-209.6 153.5,-219.6 160.5,-219.6"/>
</g>
<!-- nasalib/series&#45;&gt;nasalib/analysis -->
<g id="edge40" class="edge">
<title>nasalib/series&#45;&gt;nasalib/analysis</title>
<path fill="none" stroke="black" d="M273.63,-388.2C278.52,-380.23 284.44,-370.6 289.87,-361.76"/>
<polygon fill="black" stroke="black" points="293.24,-363.96 295.49,-353.6 287.28,-360.29 293.24,-363.96"/>
</g>
<!-- nasalib/series&#45;&gt;nasalib/ints -->
<g id="edge41" class="edge">
<title>nasalib/series&#45;&gt;nasalib/ints</title>
<path fill="none" stroke="black" d="M261.52,-388.2C259.74,-367.47 257,-335.5 257,-335.5"/>
<path fill="none" stroke="black" d="M257,-333.5C257,-333.5 243,-263.5 243,-263.5"/>
</g>
<!-- nasalib/series&#45;&gt;nasalib/orders -->
<g id="edge42" class="edge">
<title>nasalib/series&#45;&gt;nasalib/orders</title>
<path fill="none" stroke="black" d="M257,-333.5C257,-333.5 267.6,-310.32 276.6,-290.64"/>
<polygon fill="black" stroke="black" points="280.12,-292.35 281.09,-281.8 273.75,-289.44 280.12,-292.35"/>
</g>
<!-- nasalib/series&#45;&gt;nasalib/reals -->
<g id="edge43" class="edge">
<title>nasalib/series&#45;&gt;nasalib/reals</title>
<path fill="none" stroke="black" d="M251.63,-388.2C238.01,-367.47 217,-335.5 217,-335.5"/>
</g>
<!-- nasalib/structures&#45;&gt;lib/finite_sets -->
<g id="edge44" class="edge">
<title>nasalib/structures&#45;&gt;lib/finite_sets</title>
<path fill="none" stroke="black" d="M384,-117.5C384,-117.5 321.61,-82.25 278.4,-57.83"/>
<polygon fill="black" stroke="black" points="280.39,-54.37 269.96,-52.5 276.95,-60.46 280.39,-54.37"/>
<path fill="none" stroke="black" d="M191.48,-178.87C254.98,-159.29 384,-119.5 384,-119.5"/>
</g>
<!-- nasalib/structures&#45;&gt;nasalib/ints -->
<g id="edge45" class="edge">
<title>nasalib/structures&#45;&gt;nasalib/ints</title>
<path fill="none" stroke="black" d="M157,-172.2C157,-164.74 157,-155.82 157,-147.47"/>
<polygon fill="black" stroke="black" points="160.5,-147.6 157,-137.6 153.5,-147.6 160.5,-147.6"/>
</g>
<!-- nasalib/trig&#45;&gt;nasalib/analysis -->
<g id="edge46" class="edge">
<title>nasalib/trig&#45;&gt;nasalib/analysis</title>
<path fill="none" stroke="black" d="M329,-405.5C329,-405.5 321.52,-382.74 315.09,-363.18"/>
<polygon fill="black" stroke="black" points="318.13,-362.21 311.69,-353.8 311.48,-364.4 318.13,-362.21"/>
<path fill="none" stroke="black" d="M306.42,-460.2C315.3,-439.47 329,-407.5 329,-407.5"/>
</g>
<!-- nasalib/trig&#45;&gt;nasalib/ints -->
<g id="edge47" class="edge">
<title>nasalib/trig&#45;&gt;nasalib/ints</title>
<path fill="none" stroke="black" d="M329,-405.5C329,-405.5 345,-352.5 345,-352.5 345,-352.5 345,-316.5 345,-316.5 345,-316.5 340,-244.5 340,-244.5 340,-244.5 335,-191.5 335,-191.5"/>
</g>
<!-- nasalib/trig&#45;&gt;nasalib/reals -->
<g id="edge48" class="edge">
<title>nasalib/trig&#45;&gt;nasalib/reals</title>
<path fill="none" stroke="black" d="M275.42,-460.15C254.43,-444.69 227,-424.5 227,-424.5 227,-424.5 217,-335.5 217,-335.5"/>
<path fill="none" stroke="black" d="M217,-333.5C217,-333.5 196.02,-309.02 178.87,-289.02"/>
<polygon fill="black" stroke="black" points="181,-287.12 171.83,-281.8 175.68,-291.67 181,-287.12"/>
</g>
<!-- nasalib/trig&#45;&gt;nasalib/series -->
<g id="edge49" class="edge">
<title>nasalib/trig&#45;&gt;nasalib/series</title>
<path fill="none" stroke="black" d="M290.1,-460.2C286.09,-452.4 281.26,-443.01 276.8,-434.33"/>
<polygon fill="black" stroke="black" points="279.48,-432.9 271.8,-425.6 273.26,-436.1 279.48,-432.9"/>
</g>
</g>
</svg>
