<?xml version="1.0" encoding="UTF-8" standalone="no"?>
<!DOCTYPE svg PUBLIC "-//W3C//DTD SVG 1.1//EN"
 "http://www.w3.org/Graphics/SVG/1.1/DTD/svg11.dtd">
<!-- Generated by graphviz version 7.0.6 (20230106.0513)
 -->
<!-- Title: Tarski&#45;zoomed Pages: 1 -->
<svg width="574pt" height="1046pt"
 viewBox="0.00 0.00 574.00 1046.00" xmlns="http://www.w3.org/2000/svg" xmlns:xlink="http://www.w3.org/1999/xlink">
<g id="graph0" class="graph" transform="scale(1 1) rotate(0) translate(4 1042)">
<title>Tarski&#45;zoomed</title>
<polygon fill="white" stroke="none" points="-4,4 -4,-1042 570,-1042 570,4 -4,4"/>
<g id="clust1" class="cluster">
<title>cluster_NASALib</title>
<polygon fill="none" stroke="black" points="149,-8 149,-83 533,-83 533,-8 149,-8"/>
<text text-anchor="middle" x="341" y="-67.8" font-family="Times,serif" font-size="14.00">NASALib</text>
</g>
<g id="clust2" class="cluster">
<title>cluster_NASALib/Tarski</title>
<polygon fill="none" stroke="black" points="8,-91 8,-1030 265,-1030 265,-91 8,-91"/>
<text text-anchor="middle" x="136.5" y="-1014.8" font-family="Times,serif" font-size="14.00">NASALib/Tarski</text>
</g>
<!-- NASALib/Sturm -->
<g id="node1" class="node">
<title>NASALib/Sturm</title>
<polygon fill="#fcfcd7" stroke="black" points="437,-52 383,-52 383,-16 437,-16 437,-52"/>
<text text-anchor="middle" x="410" y="-30.3" font-family="Times,serif" font-size="14.00">Sturm</text>
</g>
<!-- NASALib/Tarski@PolyRelExpr -->
<g id="node2" class="node">
<title>NASALib/Tarski@PolyRelExpr</title>
<ellipse fill="#e6f3ff" stroke="black" cx="114" cy="-765" rx="55.79" ry="18"/>
<text text-anchor="middle" x="114" y="-761.3" font-family="Times,serif" font-size="14.00">PolyRelExpr</text>
</g>
<!-- NASALib/Tarski@poly_system_strategy -->
<g id="node8" class="node">
<title>NASALib/Tarski@poly_system_strategy</title>
<ellipse fill="#e6f3ff" stroke="black" cx="128" cy="-693" rx="87.99" ry="18"/>
<text text-anchor="middle" x="128" y="-689.3" font-family="Times,serif" font-size="14.00">poly_system_strategy</text>
</g>
<!-- NASALib/Tarski@PolyRelExpr&#45;&gt;NASALib/Tarski@poly_system_strategy -->
<g id="edge1" class="edge">
<title>NASALib/Tarski@PolyRelExpr&#45;&gt;NASALib/Tarski@poly_system_strategy</title>
<path fill="none" stroke="black" d="M117.46,-746.7C118.94,-739.32 120.7,-730.52 122.35,-722.25"/>
<polygon fill="black" stroke="black" points="125.75,-723.08 124.28,-712.59 118.89,-721.71 125.75,-723.08"/>
</g>
<!-- NASALib/Tarski@compute_sturm_tarski -->
<g id="node3" class="node">
<title>NASALib/Tarski@compute_sturm_tarski</title>
<ellipse fill="#e6f3ff" stroke="black" cx="126" cy="-189" rx="90.18" ry="18"/>
<text text-anchor="middle" x="126" y="-185.3" font-family="Times,serif" font-size="14.00">compute_sturm_tarski</text>
</g>
<!-- NASALib/Tarski@compute_sturm_tarski&#45;&gt;NASALib/Sturm -->
<g id="edge2" class="edge">
<title>NASALib/Tarski@compute_sturm_tarski&#45;&gt;NASALib/Sturm</title>
<path fill="none" stroke="black" d="M163.25,-172.17C232.25,-142.83 373,-83 373,-83 373,-83 381.12,-72.46 389.75,-61.26"/>
<polygon fill="black" stroke="black" points="392.39,-63.58 395.72,-53.53 386.84,-59.31 392.39,-63.58"/>
</g>
<!-- NASALib/Tarski@sturmtarski -->
<g id="node12" class="node">
<title>NASALib/Tarski@sturmtarski</title>
<ellipse fill="#e6f3ff" stroke="black" cx="107" cy="-117" rx="50.89" ry="18"/>
<text text-anchor="middle" x="107" y="-113.3" font-family="Times,serif" font-size="14.00">sturmtarski</text>
</g>
<!-- NASALib/Tarski@compute_sturm_tarski&#45;&gt;NASALib/Tarski@sturmtarski -->
<g id="edge3" class="edge">
<title>NASALib/Tarski@compute_sturm_tarski&#45;&gt;NASALib/Tarski@sturmtarski</title>
<path fill="none" stroke="black" d="M121.3,-170.7C119.28,-163.24 116.86,-154.32 114.59,-145.97"/>
<polygon fill="black" stroke="black" points="118.04,-145.3 112.04,-136.57 111.28,-147.13 118.04,-145.3"/>
</g>
<!-- NASALib/reals -->
<g id="node18" class="node">
<title>NASALib/reals</title>
<polygon fill="#fcfcd7" stroke="black" points="283,-52 229,-52 229,-16 283,-16 283,-52"/>
<text text-anchor="middle" x="256" y="-30.3" font-family="Times,serif" font-size="14.00">reals</text>
</g>
<!-- NASALib/Tarski@compute_sturm_tarski&#45;&gt;NASALib/reals -->
<g id="edge4" class="edge">
<title>NASALib/Tarski@compute_sturm_tarski&#45;&gt;NASALib/reals</title>
<path fill="none" stroke="black" d="M140.52,-171.05C158.28,-150.34 186,-118 186,-118"/>
<path fill="none" stroke="black" d="M186,-116C186,-116 210,-91 210,-91 210,-91 220,-83 220,-83 220,-83 227.9,-72.46 236.3,-61.26"/>
<polygon fill="black" stroke="black" points="238.9,-63.64 242.1,-53.54 233.3,-59.44 238.9,-63.64"/>
</g>
<!-- NASALib/Tarski@dnf_polynomials -->
<g id="node4" class="node">
<title>NASALib/Tarski@dnf_polynomials</title>
<ellipse fill="#e6f3ff" stroke="black" cx="107" cy="-837" rx="70.69" ry="18"/>
<text text-anchor="middle" x="107" y="-833.3" font-family="Times,serif" font-size="14.00">dnf_polynomials</text>
</g>
<!-- NASALib/Tarski@dnf_polynomials&#45;&gt;NASALib/Tarski@PolyRelExpr -->
<g id="edge5" class="edge">
<title>NASALib/Tarski@dnf_polynomials&#45;&gt;NASALib/Tarski@PolyRelExpr</title>
<path fill="none" stroke="black" d="M108.73,-818.7C109.46,-811.41 110.33,-802.73 111.15,-794.54"/>
<polygon fill="black" stroke="black" points="114.63,-794.91 112.14,-784.61 107.66,-794.21 114.63,-794.91"/>
</g>
<!-- NASALib/structures -->
<g id="node19" class="node">
<title>NASALib/structures</title>
<polygon fill="#fcfcd7" stroke="black" points="524.5,-52 455.5,-52 455.5,-16 524.5,-16 524.5,-52"/>
<text text-anchor="middle" x="490" y="-30.3" font-family="Times,serif" font-size="14.00">structures</text>
</g>
<!-- NASALib/Tarski@dnf_polynomials&#45;&gt;NASALib/structures -->
<g id="edge6" class="edge">
<title>NASALib/Tarski@dnf_polynomials&#45;&gt;NASALib/structures</title>
<path fill="none" stroke="black" d="M142.94,-821.21C231.31,-784.84 452,-694 452,-694 452,-694 452,-694 452,-548 452,-548 452,-406 452,-406"/>
</g>
<!-- NASALib/Tarski@dnf_strategy -->
<g id="node5" class="node">
<title>NASALib/Tarski@dnf_strategy</title>
<ellipse fill="#e6f3ff" stroke="black" cx="107" cy="-909" rx="54.69" ry="18"/>
<text text-anchor="middle" x="107" y="-905.3" font-family="Times,serif" font-size="14.00">dnf_strategy</text>
</g>
<!-- NASALib/Tarski@dnf_strategy&#45;&gt;NASALib/Tarski@dnf_polynomials -->
<g id="edge7" class="edge">
<title>NASALib/Tarski@dnf_strategy&#45;&gt;NASALib/Tarski@dnf_polynomials</title>
<path fill="none" stroke="black" d="M107,-890.7C107,-883.41 107,-874.73 107,-866.54"/>
<polygon fill="black" stroke="black" points="110.5,-866.62 107,-856.62 103.5,-866.62 110.5,-866.62"/>
</g>
<!-- NASALib/Tarski@dnf_strategy&#45;&gt;NASALib/Tarski@poly_system_strategy -->
<g id="edge8" class="edge">
<title>NASALib/Tarski@dnf_strategy&#45;&gt;NASALib/Tarski@poly_system_strategy</title>
<path fill="none" stroke="black" d="M83.43,-892.38C59.83,-876.75 27,-855 27,-855 27,-855 27,-819 27,-819 27,-819 49,-747 49,-747 49,-747 72.71,-731.09 94.15,-716.71"/>
<polygon fill="black" stroke="black" points="95.83,-719.8 102.18,-711.32 91.93,-713.99 95.83,-719.8"/>
</g>
<!-- NASALib/Tarski@dnf_strategy&#45;&gt;NASALib/structures -->
<g id="edge9" class="edge">
<title>NASALib/Tarski@dnf_strategy&#45;&gt;NASALib/structures</title>
<path fill="none" stroke="black" d="M566,-116C566,-116 536.2,-84.24 513.92,-60.49"/>
<polygon fill="black" stroke="black" points="516.55,-58.18 507.15,-53.28 511.44,-62.97 516.55,-58.18"/>
<path fill="none" stroke="black" d="M144.53,-895.56C239.88,-863.94 484,-783 484,-783 484,-783 528,-766 528,-766 528,-766 528,-766 528,-260 528,-260 566,-118 566,-118"/>
</g>
<!-- NASALib/Tarski@hutch -->
<g id="node6" class="node">
<title>NASALib/Tarski@hutch</title>
<ellipse fill="#e6f3ff" stroke="black" cx="226" cy="-837" rx="30.59" ry="18"/>
<text text-anchor="middle" x="226" y="-833.3" font-family="Times,serif" font-size="14.00">hutch</text>
</g>
<!-- NASALib/Tarski@hutch&#45;&gt;NASALib/Sturm -->
<g id="edge10" class="edge">
<title>NASALib/Tarski@hutch&#45;&gt;NASALib/Sturm</title>
<path fill="none" stroke="black" d="M490,-116C490,-116 447,-83 447,-83 447,-83 438.88,-72.46 430.25,-61.26"/>
<polygon fill="black" stroke="black" points="433.16,-59.31 424.28,-53.53 427.61,-63.58 433.16,-59.31"/>
<path fill="none" stroke="black" d="M254.47,-829.71C318.05,-815.67 466,-783 466,-783 466,-783 490,-694 490,-694 490,-694 490,-694 490,-260 490,-260 490,-118 490,-118"/>
</g>
<!-- NASALib/Tarski@hutch&#45;&gt;NASALib/Tarski@poly_system_strategy -->
<g id="edge11" class="edge">
<title>NASALib/Tarski@hutch&#45;&gt;NASALib/Tarski@poly_system_strategy</title>
<path fill="none" stroke="black" d="M217.38,-819.68C203.81,-793.98 179,-747 179,-747 179,-747 165.25,-732.71 152.03,-718.97"/>
<polygon fill="black" stroke="black" points="154.92,-716.93 145.47,-712.15 149.88,-721.78 154.92,-716.93"/>
</g>
<!-- NASALib/Tarski@hutch&#45;&gt;NASALib/structures -->
<g id="edge12" class="edge">
<title>NASALib/Tarski@hutch&#45;&gt;NASALib/structures</title>
<path fill="none" stroke="black" d="M490,-116C490,-116 490,-86.96 490,-63.66"/>
<polygon fill="black" stroke="black" points="493.5,-63.69 490,-53.69 486.5,-63.69 493.5,-63.69"/>
</g>
<!-- NASALib/Tarski@poly_families -->
<g id="node7" class="node">
<title>NASALib/Tarski@poly_families</title>
<ellipse fill="#e6f3ff" stroke="black" cx="126" cy="-261" rx="59.59" ry="18"/>
<text text-anchor="middle" x="126" y="-257.3" font-family="Times,serif" font-size="14.00">poly_families</text>
</g>
<!-- NASALib/Tarski@poly_families&#45;&gt;NASALib/Tarski@compute_sturm_tarski -->
<g id="edge13" class="edge">
<title>NASALib/Tarski@poly_families&#45;&gt;NASALib/Tarski@compute_sturm_tarski</title>
<path fill="none" stroke="black" d="M126,-242.7C126,-235.41 126,-226.73 126,-218.54"/>
<polygon fill="black" stroke="black" points="129.5,-218.62 126,-208.62 122.5,-218.62 129.5,-218.62"/>
</g>
<!-- NASALib/Tarski@poly_families&#45;&gt;NASALib/Tarski@sturmtarski -->
<g id="edge14" class="edge">
<title>NASALib/Tarski@poly_families&#45;&gt;NASALib/Tarski@sturmtarski</title>
<path fill="none" stroke="black" d="M97.63,-244.81C68.38,-229.15 27,-207 27,-207 27,-207 27,-171 27,-171 27,-171 52.22,-154.29 74.34,-139.64"/>
<polygon fill="black" stroke="black" points="76.2,-142.61 82.6,-134.17 72.33,-136.77 76.2,-142.61"/>
</g>
<!-- NASALib/Tarski@poly_families&#45;&gt;NASALib/reals -->
<g id="edge15" class="edge">
<title>NASALib/Tarski@poly_families&#45;&gt;NASALib/reals</title>
<path fill="none" stroke="black" d="M155.52,-244.95C186.27,-229.28 230,-207 230,-207 230,-207 230,-171 230,-171 230,-171 186,-118 186,-118"/>
</g>
<!-- NASALib/Tarski@poly_systems -->
<g id="node9" class="node">
<title>NASALib/Tarski@poly_systems</title>
<ellipse fill="#e6f3ff" stroke="black" cx="126" cy="-477" rx="59.29" ry="18"/>
<text text-anchor="middle" x="126" y="-473.3" font-family="Times,serif" font-size="14.00">poly_systems</text>
</g>
<!-- NASALib/Tarski@poly_system_strategy&#45;&gt;NASALib/Tarski@poly_systems -->
<g id="edge16" class="edge">
<title>NASALib/Tarski@poly_system_strategy&#45;&gt;NASALib/Tarski@poly_systems</title>
<path fill="none" stroke="black" d="M97.15,-675.81C67.45,-660.22 27,-639 27,-639 27,-639 17,-550 17,-550"/>
<path fill="none" stroke="black" d="M17,-548C17,-548 60.04,-520.36 92.03,-499.82"/>
<polygon fill="black" stroke="black" points="93.74,-502.88 100.26,-494.53 89.96,-496.99 93.74,-502.88"/>
</g>
<!-- NASALib/Tarski@preprocessing_univariate -->
<g id="node10" class="node">
<title>NASALib/Tarski@preprocessing_univariate</title>
<ellipse fill="#e6f3ff" stroke="black" cx="135" cy="-621" rx="98.58" ry="18"/>
<text text-anchor="middle" x="135" y="-617.3" font-family="Times,serif" font-size="14.00">preprocessing_univariate</text>
</g>
<!-- NASALib/Tarski@poly_system_strategy&#45;&gt;NASALib/Tarski@preprocessing_univariate -->
<g id="edge17" class="edge">
<title>NASALib/Tarski@poly_system_strategy&#45;&gt;NASALib/Tarski@preprocessing_univariate</title>
<path fill="none" stroke="black" d="M129.73,-674.7C130.46,-667.41 131.33,-658.73 132.15,-650.54"/>
<polygon fill="black" stroke="black" points="135.63,-650.91 133.14,-640.61 128.66,-650.21 135.63,-650.91"/>
</g>
<!-- NASALib/Tarski@system_solvers -->
<g id="node13" class="node">
<title>NASALib/Tarski@system_solvers</title>
<ellipse fill="#e6f3ff" stroke="black" cx="135" cy="-549" rx="64.99" ry="18"/>
<text text-anchor="middle" x="135" y="-545.3" font-family="Times,serif" font-size="14.00">system_solvers</text>
</g>
<!-- NASALib/Tarski@poly_system_strategy&#45;&gt;NASALib/Tarski@system_solvers -->
<g id="edge18" class="edge">
<title>NASALib/Tarski@poly_system_strategy&#45;&gt;NASALib/Tarski@system_solvers</title>
<path fill="none" stroke="black" d="M162.5,-676.1C196.38,-660.49 243,-639 243,-639 243,-639 243,-603 243,-603 243,-603 206.57,-585.12 176.02,-570.13"/>
<polygon fill="black" stroke="black" points="177.83,-567.12 167.31,-565.85 174.74,-573.4 177.83,-567.12"/>
</g>
<!-- NASALib/Tarski@tarski_query_matrix -->
<g id="node15" class="node">
<title>NASALib/Tarski@tarski_query_matrix</title>
<ellipse fill="#e6f3ff" stroke="black" cx="126" cy="-405" rx="82.59" ry="18"/>
<text text-anchor="middle" x="126" y="-401.3" font-family="Times,serif" font-size="14.00">tarski_query_matrix</text>
</g>
<!-- NASALib/Tarski@poly_systems&#45;&gt;NASALib/Tarski@tarski_query_matrix -->
<g id="edge19" class="edge">
<title>NASALib/Tarski@poly_systems&#45;&gt;NASALib/Tarski@tarski_query_matrix</title>
<path fill="none" stroke="black" d="M126,-458.7C126,-451.41 126,-442.73 126,-434.54"/>
<polygon fill="black" stroke="black" points="129.5,-434.62 126,-424.62 122.5,-434.62 129.5,-434.62"/>
</g>
<!-- NASALib/Tarski@poly_systems&#45;&gt;NASALib/reals -->
<g id="edge20" class="edge">
<title>NASALib/Tarski@poly_systems&#45;&gt;NASALib/reals</title>
<path fill="none" stroke="black" d="M152.61,-460.67C179.78,-445.02 218,-423 218,-423 218,-423 320,-334 320,-334 320,-334 320,-334 320,-260 320,-260 281.24,-123.74 264.05,-63.3"/>
<polygon fill="black" stroke="black" points="267.43,-62.4 261.33,-53.74 260.7,-64.31 267.43,-62.4"/>
</g>
<!-- NASALib/Tarski@poly_systems&#45;&gt;NASALib/structures -->
<g id="edge21" class="edge">
<title>NASALib/Tarski@poly_systems&#45;&gt;NASALib/structures</title>
<path fill="none" stroke="black" d="M173.4,-465.82C263.82,-446.41 452,-406 452,-406"/>
<path fill="none" stroke="black" d="M452,-404C452,-404 452,-262 452,-262 452,-262 452,-262 452,-188 452,-188 476,-91 476,-91 476,-91 479.45,-77.21 482.92,-63.32"/>
<polygon fill="black" stroke="black" points="486.25,-64.43 485.28,-53.88 479.46,-62.73 486.25,-64.43"/>
</g>
<!-- NASALib/Tarski@preprocessing_univariate&#45;&gt;NASALib/Sturm -->
<g id="edge22" class="edge">
<title>NASALib/Tarski@preprocessing_univariate&#45;&gt;NASALib/Sturm</title>
<path fill="none" stroke="black" d="M414,-188C414,-188 411.91,-108.01 410.75,-63.71"/>
<polygon fill="black" stroke="black" points="414.25,-63.67 410.49,-53.77 407.25,-63.85 414.25,-63.67"/>
</g>
<!-- NASALib/Tarski@preprocessing_univariate&#45;&gt;NASALib/Tarski@poly_systems -->
<g id="edge23" class="edge">
<title>NASALib/Tarski@preprocessing_univariate&#45;&gt;NASALib/Tarski@poly_systems</title>
<path fill="none" stroke="black" d="M107.04,-603.41C72.14,-582.71 17,-550 17,-550"/>
</g>
<!-- NASALib/Tarski@preprocessing_univariate&#45;&gt;NASALib/Tarski@system_solvers -->
<g id="edge24" class="edge">
<title>NASALib/Tarski@preprocessing_univariate&#45;&gt;NASALib/Tarski@system_solvers</title>
<path fill="none" stroke="black" d="M135,-602.7C135,-595.41 135,-586.73 135,-578.54"/>
<polygon fill="black" stroke="black" points="138.5,-578.62 135,-568.62 131.5,-578.62 138.5,-578.62"/>
</g>
<!-- NASALib/Tarski@preprocessing_univariate&#45;&gt;NASALib/reals -->
<g id="edge25" class="edge">
<title>NASALib/Tarski@preprocessing_univariate&#45;&gt;NASALib/reals</title>
<path fill="none" stroke="black" d="M167.28,-603.57C240.72,-566.19 414,-478 414,-478 414,-478 414,-478 414,-332 414,-332 414,-190 414,-190"/>
<path fill="none" stroke="black" d="M414,-188C414,-188 292,-83 292,-83 292,-83 284.1,-72.46 275.7,-61.26"/>
<polygon fill="black" stroke="black" points="278.7,-59.44 269.9,-53.54 273.1,-63.64 278.7,-59.44"/>
</g>
<!-- NASALib/Tarski@strategies -->
<g id="node11" class="node">
<title>NASALib/Tarski@strategies</title>
<ellipse fill="#e6f3ff" stroke="black" cx="160" cy="-981" rx="44.39" ry="18"/>
<text text-anchor="middle" x="160" y="-977.3" font-family="Times,serif" font-size="14.00">strategies</text>
</g>
<!-- NASALib/Tarski@strategies&#45;&gt;NASALib/Sturm -->
<g id="edge26" class="edge">
<title>NASALib/Tarski@strategies&#45;&gt;NASALib/Sturm</title>
<path fill="none" stroke="black" d="M226,-908C226,-908 566,-766 566,-766 566,-766 566,-766 566,-332 566,-332 566,-190 566,-190"/>
<path fill="none" stroke="black" d="M566,-188C566,-188 504,-91 504,-91 504,-91 447,-83 447,-83 447,-83 438.88,-72.46 430.25,-61.26"/>
<polygon fill="black" stroke="black" points="433.16,-59.31 424.28,-53.53 427.61,-63.58 433.16,-59.31"/>
</g>
<!-- NASALib/Tarski@strategies&#45;&gt;NASALib/Tarski@dnf_strategy -->
<g id="edge27" class="edge">
<title>NASALib/Tarski@strategies&#45;&gt;NASALib/Tarski@dnf_strategy</title>
<path fill="none" stroke="black" d="M147.44,-963.41C141.26,-955.25 133.67,-945.22 126.74,-936.07"/>
<polygon fill="black" stroke="black" points="129.58,-934.02 120.75,-928.16 124,-938.25 129.58,-934.02"/>
</g>
<!-- NASALib/Tarski@strategies&#45;&gt;NASALib/Tarski@hutch -->
<g id="edge28" class="edge">
<title>NASALib/Tarski@strategies&#45;&gt;NASALib/Tarski@hutch</title>
<path fill="none" stroke="black" d="M175.31,-963.76C194.8,-943.09 226,-910 226,-910"/>
<path fill="none" stroke="black" d="M226,-908C226,-908 226,-886.08 226,-866.77"/>
<polygon fill="black" stroke="black" points="229.5,-866.82 226,-856.82 222.5,-866.82 229.5,-866.82"/>
</g>
<!-- NASALib/Tarski@strategies&#45;&gt;NASALib/structures -->
<g id="edge29" class="edge">
<title>NASALib/Tarski@strategies&#45;&gt;NASALib/structures</title>
<path fill="none" stroke="black" d="M566,-188C566,-188 566,-118 566,-118"/>
</g>
<!-- NASALib/Tarski@sturmtarski&#45;&gt;NASALib/Sturm -->
<g id="edge30" class="edge">
<title>NASALib/Tarski@sturmtarski&#45;&gt;NASALib/Sturm</title>
<path fill="none" stroke="black" d="M148,-106.05C176.73,-99.08 210,-91 210,-91 210,-91 373,-83 373,-83 373,-83 381.12,-72.46 389.75,-61.26"/>
<polygon fill="black" stroke="black" points="392.39,-63.58 395.72,-53.53 386.84,-59.31 392.39,-63.58"/>
</g>
<!-- NASALib/ints -->
<g id="node16" class="node">
<title>NASALib/ints</title>
<polygon fill="#fcfcd7" stroke="black" points="211,-52 157,-52 157,-16 211,-16 211,-52"/>
<text text-anchor="middle" x="184" y="-30.3" font-family="Times,serif" font-size="14.00">ints</text>
</g>
<!-- NASALib/Tarski@sturmtarski&#45;&gt;NASALib/ints -->
<g id="edge31" class="edge">
<title>NASALib/Tarski@sturmtarski&#45;&gt;NASALib/ints</title>
<path fill="none" stroke="black" d="M122.58,-99.61C133.25,-88.38 147.62,-73.27 159.77,-60.49"/>
<polygon fill="black" stroke="black" points="161.98,-63.24 166.33,-53.59 156.91,-58.42 161.98,-63.24"/>
</g>
<!-- NASALib/Tarski@sturmtarski&#45;&gt;NASALib/reals -->
<g id="edge32" class="edge">
<title>NASALib/Tarski@sturmtarski&#45;&gt;NASALib/reals</title>
<path fill="none" stroke="black" d="M140.64,-103.06C156.5,-96.96 172,-91 172,-91 172,-91 220,-83 220,-83 220,-83 227.9,-72.46 236.3,-61.26"/>
<polygon fill="black" stroke="black" points="238.9,-63.64 242.1,-53.54 233.3,-59.44 238.9,-63.64"/>
</g>
<!-- NASALib/Tarski@sturmtarski&#45;&gt;NASALib/structures -->
<g id="edge33" class="edge">
<title>NASALib/Tarski@sturmtarski&#45;&gt;NASALib/structures</title>
<path fill="none" stroke="black" d="M148,-106.05C176.73,-99.08 210,-91 210,-91 210,-91 446,-83 446,-83 446,-83 456.04,-72.04 466.53,-60.6"/>
<polygon fill="black" stroke="black" points="468.92,-63.18 473.09,-53.44 463.75,-58.45 468.92,-63.18"/>
</g>
<!-- NASALib/Tarski@system_solvers&#45;&gt;NASALib/Tarski@poly_systems -->
<g id="edge34" class="edge">
<title>NASALib/Tarski@system_solvers&#45;&gt;NASALib/Tarski@poly_systems</title>
<path fill="none" stroke="black" d="M132.78,-530.7C131.83,-523.32 130.7,-514.52 129.63,-506.25"/>
<polygon fill="black" stroke="black" points="133.14,-506.08 128.39,-496.61 126.2,-506.97 133.14,-506.08"/>
</g>
<!-- NASALib/matrices -->
<g id="node17" class="node">
<title>NASALib/matrices</title>
<polygon fill="#fcfcd7" stroke="black" points="364.5,-52 301.5,-52 301.5,-16 364.5,-16 364.5,-52"/>
<text text-anchor="middle" x="333" y="-30.3" font-family="Times,serif" font-size="14.00">matrices</text>
</g>
<!-- NASALib/Tarski@system_solvers&#45;&gt;NASALib/matrices -->
<g id="edge35" class="edge">
<title>NASALib/Tarski@system_solvers&#45;&gt;NASALib/matrices</title>
<path fill="none" stroke="black" d="M161.71,-532.26C224.46,-495.29 376,-406 376,-406 376,-406 376,-406 376,-188 376,-188 353.33,-107.33 340.91,-63.14"/>
<polygon fill="black" stroke="black" points="344.33,-62.39 338.26,-53.71 337.59,-64.28 344.33,-62.39"/>
</g>
<!-- NASALib/Tarski@tarski_query -->
<g id="node14" class="node">
<title>NASALib/Tarski@tarski_query</title>
<ellipse fill="#e6f3ff" stroke="black" cx="126" cy="-333" rx="54.69" ry="18"/>
<text text-anchor="middle" x="126" y="-329.3" font-family="Times,serif" font-size="14.00">tarski_query</text>
</g>
<!-- NASALib/Tarski@tarski_query&#45;&gt;NASALib/Tarski@poly_families -->
<g id="edge36" class="edge">
<title>NASALib/Tarski@tarski_query&#45;&gt;NASALib/Tarski@poly_families</title>
<path fill="none" stroke="black" d="M126,-314.7C126,-307.41 126,-298.73 126,-290.54"/>
<polygon fill="black" stroke="black" points="129.5,-290.62 126,-280.62 122.5,-290.62 129.5,-290.62"/>
</g>
<!-- NASALib/Tarski@tarski_query&#45;&gt;NASALib/matrices -->
<g id="edge37" class="edge">
<title>NASALib/Tarski@tarski_query&#45;&gt;NASALib/matrices</title>
<path fill="none" stroke="black" d="M224,-116C224,-116 253,-91 253,-91 253,-91 292,-83 292,-83 292,-83 301.18,-72.25 310.85,-60.93"/>
<polygon fill="black" stroke="black" points="313.38,-63.36 317.22,-53.48 308.06,-58.81 313.38,-63.36"/>
</g>
<!-- NASALib/Tarski@tarski_query&#45;&gt;NASALib/reals -->
<g id="edge38" class="edge">
<title>NASALib/Tarski@tarski_query&#45;&gt;NASALib/reals</title>
<path fill="none" stroke="black" d="M224,-116C224,-116 235.79,-86.16 245.06,-62.7"/>
<polygon fill="black" stroke="black" points="248.24,-64.17 248.66,-53.59 241.73,-61.6 248.24,-64.17"/>
<path fill="none" stroke="black" d="M146.7,-316.1C167.03,-300.49 195,-279 195,-279 195,-279 244,-207 244,-207 244,-207 244,-171 244,-171 244,-171 224,-118 224,-118"/>
</g>
<!-- NASALib/Tarski@tarski_query_matrix&#45;&gt;NASALib/Tarski@tarski_query -->
<g id="edge39" class="edge">
<title>NASALib/Tarski@tarski_query_matrix&#45;&gt;NASALib/Tarski@tarski_query</title>
<path fill="none" stroke="black" d="M126,-386.7C126,-379.41 126,-370.73 126,-362.54"/>
<polygon fill="black" stroke="black" points="129.5,-362.62 126,-352.62 122.5,-362.62 129.5,-362.62"/>
</g>
</g>
</svg>
