<?xml version="1.0" encoding="UTF-8" standalone="no"?>
<!DOCTYPE svg PUBLIC "-//W3C//DTD SVG 1.1//EN"
 "http://www.w3.org/Graphics/SVG/1.1/DTD/svg11.dtd">
<!-- Generated by graphviz version 7.0.6 (20230106.0513)
 -->
<!-- Title: Tarski Pages: 1 -->
<svg width="996pt" height="1110pt"
 viewBox="0.00 0.00 996.00 1110.00" xmlns="http://www.w3.org/2000/svg" xmlns:xlink="http://www.w3.org/1999/xlink">
<g id="graph0" class="graph" transform="scale(1 1) rotate(0) translate(4 1106)">
<title>Tarski</title>
<polygon fill="white" stroke="none" points="-4,4 -4,-1106 992,-1106 992,4 -4,4"/>
<g id="clust1" class="cluster">
<title>cluster_NASALib</title>
<polygon fill="none" stroke="black" points="8,-8 8,-1094 884,-1094 884,-8 8,-8"/>
<text text-anchor="middle" x="446" y="-1078.8" font-family="Times,serif" font-size="14.00">NASALib</text>
</g>
<g id="clust2" class="cluster">
<title>cluster_PVS Prelude</title>
<polygon fill="none" stroke="black" points="892,-8 892,-83 980,-83 980,-8 892,-8"/>
<text text-anchor="middle" x="936" y="-67.8" font-family="Times,serif" font-size="14.00">PVS Prelude</text>
</g>
<!-- NASALib/Sturm -->
<g id="node1" class="node">
<title>NASALib/Sturm</title>
<polygon fill="#fcfcd7" stroke="black" points="227,-919 173,-919 173,-883 227,-883 227,-919"/>
<text text-anchor="middle" x="200" y="-897.3" font-family="Times,serif" font-size="14.00">Sturm</text>
</g>
<!-- NASALib/interval_arith -->
<g id="node6" class="node">
<title>NASALib/interval_arith</title>
<polygon fill="#fcfcd7" stroke="black" points="225.5,-847 136.5,-847 136.5,-811 225.5,-811 225.5,-847"/>
<text text-anchor="middle" x="181" y="-825.3" font-family="Times,serif" font-size="14.00">interval_arith</text>
</g>
<!-- NASALib/Sturm&#45;&gt;NASALib/interval_arith -->
<g id="edge1" class="edge">
<title>NASALib/Sturm&#45;&gt;NASALib/interval_arith</title>
<path fill="none" stroke="black" d="M195.3,-882.7C193.28,-875.24 190.86,-866.32 188.59,-857.97"/>
<polygon fill="black" stroke="black" points="192.04,-857.3 186.04,-848.57 185.28,-859.13 192.04,-857.3"/>
</g>
<!-- NASALib/ints -->
<g id="node7" class="node">
<title>NASALib/ints</title>
<polygon fill="#fcfcd7" stroke="black" points="642,-52 588,-52 588,-16 642,-16 642,-52"/>
<text text-anchor="middle" x="615" y="-30.3" font-family="Times,serif" font-size="14.00">ints</text>
</g>
<!-- NASALib/Sturm&#45;&gt;NASALib/ints -->
<g id="edge2" class="edge">
<title>NASALib/Sturm&#45;&gt;NASALib/ints</title>
<path fill="none" stroke="black" d="M174.79,-882.65C152.33,-867.19 123,-847 123,-847 123,-847 67,-775 67,-775 67,-775 57,-758 57,-758"/>
</g>
<!-- NASALib/reals -->
<g id="node15" class="node">
<title>NASALib/reals</title>
<polygon fill="#fcfcd7" stroke="black" points="421,-703 367,-703 367,-667 421,-667 421,-703"/>
<text text-anchor="middle" x="394" y="-681.3" font-family="Times,serif" font-size="14.00">reals</text>
</g>
<!-- NASALib/Sturm&#45;&gt;NASALib/reals -->
<g id="edge3" class="edge">
<title>NASALib/Sturm&#45;&gt;NASALib/reals</title>
<path fill="none" stroke="black" d="M285,-756C285,-756 295,-739 295,-739 295,-739 328.62,-721 356.67,-705.98"/>
<polygon fill="black" stroke="black" points="358.19,-709.14 365.35,-701.34 354.88,-702.97 358.19,-709.14"/>
<path fill="none" stroke="black" d="M211.13,-882.65C221.05,-867.19 234,-847 234,-847 234,-847 285,-758 285,-758"/>
</g>
<!-- NASALib/structures -->
<g id="node19" class="node">
<title>NASALib/structures</title>
<polygon fill="#fcfcd7" stroke="black" points="649.5,-127 580.5,-127 580.5,-91 649.5,-91 649.5,-127"/>
<text text-anchor="middle" x="615" y="-105.3" font-family="Times,serif" font-size="14.00">structures</text>
</g>
<!-- NASALib/Sturm&#45;&gt;NASALib/structures -->
<g id="edge4" class="edge">
<title>NASALib/Sturm&#45;&gt;NASALib/structures</title>
<path fill="none" stroke="black" d="M176.1,-882.65C154.81,-867.19 127,-847 127,-847 127,-847 127,-811 127,-811 127,-811 173,-775 173,-775 173,-775 184,-703 184,-703 184,-703 184,-667 184,-667 184,-667 177,-326 177,-326"/>
</g>
<!-- NASALib/Tarski -->
<g id="node2" class="node">
<title>NASALib/Tarski</title>
<polygon fill="#f7e28d" stroke="black" points="227,-991 173,-991 173,-955 227,-955 227,-991"/>
<text text-anchor="middle" x="200" y="-969.3" font-family="Times,serif" font-size="14.00">Tarski</text>
</g>
<!-- NASALib/Tarski&#45;&gt;NASALib/Sturm -->
<g id="edge5" class="edge">
<title>NASALib/Tarski&#45;&gt;NASALib/Sturm</title>
<path fill="none" stroke="black" d="M200,-954.7C200,-947.41 200,-938.73 200,-930.54"/>
<polygon fill="black" stroke="black" points="203.5,-930.62 200,-920.62 196.5,-930.62 203.5,-930.62"/>
</g>
<!-- NASALib/Tarski&#45;&gt;NASALib/ints -->
<g id="edge6" class="edge">
<title>NASALib/Tarski&#45;&gt;NASALib/ints</title>
<path fill="none" stroke="black" d="M355,-108C355,-108 504.49,-66.03 576.76,-45.74"/>
<polygon fill="black" stroke="black" points="577.53,-49.16 586.21,-43.08 575.64,-42.42 577.53,-49.16"/>
<path fill="none" stroke="black" d="M57,-756C57,-756 57,-614 57,-614 57,-614 57,-614 57,-540 57,-540 77,-398 77,-398"/>
<path fill="none" stroke="black" d="M172.7,-956.46C136.47,-935.84 77,-902 77,-902"/>
<path fill="none" stroke="black" d="M77,-900C77,-900 37,-830 37,-830"/>
<path fill="none" stroke="black" d="M37,-828C37,-828 57,-758 57,-758"/>
<path fill="none" stroke="black" d="M77,-396C77,-396 137,-254 137,-254"/>
<path fill="none" stroke="black" d="M315,-180C315,-180 320,-163 320,-163 320,-163 355,-110 355,-110"/>
<path fill="none" stroke="black" d="M137,-252C137,-252 315,-182 315,-182"/>
</g>
<!-- NASALib/matrices -->
<g id="node10" class="node">
<title>NASALib/matrices</title>
<polygon fill="#fcfcd7" stroke="black" points="139.5,-775 76.5,-775 76.5,-739 139.5,-739 139.5,-775"/>
<text text-anchor="middle" x="108" y="-753.3" font-family="Times,serif" font-size="14.00">matrices</text>
</g>
<!-- NASALib/Tarski&#45;&gt;NASALib/matrices -->
<g id="edge7" class="edge">
<title>NASALib/Tarski&#45;&gt;NASALib/matrices</title>
<path fill="none" stroke="black" d="M37,-828C37,-828 62.05,-803.31 82.39,-783.25"/>
<polygon fill="black" stroke="black" points="84.71,-785.88 89.37,-776.37 79.79,-780.89 84.71,-785.88"/>
</g>
<!-- NASALib/Tarski&#45;&gt;NASALib/reals -->
<g id="edge8" class="edge">
<title>NASALib/Tarski&#45;&gt;NASALib/reals</title>
<path fill="none" stroke="black" d="M211.79,-954.65C222.29,-939.19 236,-919 236,-919 236,-919 285,-758 285,-758"/>
</g>
<!-- NASALib/Tarski&#45;&gt;NASALib/structures -->
<g id="edge9" class="edge">
<title>NASALib/Tarski&#45;&gt;NASALib/structures</title>
<path fill="none" stroke="black" d="M77,-900C77,-900 108,-811 108,-811 108,-811 148,-775 148,-775 148,-775 150,-523 150,-523 150,-523 177,-326 177,-326"/>
<path fill="none" stroke="black" d="M386,-180C386,-180 502.79,-144.3 569.56,-123.89"/>
<polygon fill="black" stroke="black" points="570.23,-127.34 578.77,-121.07 568.19,-120.65 570.23,-127.34"/>
<path fill="none" stroke="black" d="M177,-324C177,-324 187,-307 187,-307 187,-307 386,-182 386,-182"/>
</g>
<!-- NASALib/analysis -->
<g id="node3" class="node">
<title>NASALib/analysis</title>
<polygon fill="#fcfcd7" stroke="black" points="364,-775 304,-775 304,-739 364,-739 364,-775"/>
<text text-anchor="middle" x="334" y="-753.3" font-family="Times,serif" font-size="14.00">analysis</text>
</g>
<!-- NASALib/analysis&#45;&gt;NASALib/ints -->
<g id="edge10" class="edge">
<title>NASALib/analysis&#45;&gt;NASALib/ints</title>
<path fill="none" stroke="black" d="M319.92,-738.65C307.38,-723.19 291,-703 291,-703 291,-703 77,-398 77,-398"/>
</g>
<!-- NASALib/orders -->
<g id="node13" class="node">
<title>NASALib/orders</title>
<polygon fill="#fcfcd7" stroke="black" points="742,-199 688,-199 688,-163 742,-163 742,-199"/>
<text text-anchor="middle" x="715" y="-177.3" font-family="Times,serif" font-size="14.00">orders</text>
</g>
<!-- NASALib/analysis&#45;&gt;NASALib/orders -->
<g id="edge11" class="edge">
<title>NASALib/analysis&#45;&gt;NASALib/orders</title>
<path fill="none" stroke="black" d="M364.36,-751.11C445.81,-737.99 663,-703 663,-703 663,-703 875,-542 875,-542"/>
<path fill="none" stroke="black" d="M875,-252C875,-252 799.94,-219.16 752.64,-198.47"/>
<polygon fill="black" stroke="black" points="754.09,-195.28 743.53,-194.48 751.29,-201.7 754.09,-195.28"/>
<path fill="none" stroke="black" d="M875,-540C875,-540 875,-254 875,-254"/>
</g>
<!-- NASALib/analysis&#45;&gt;NASALib/reals -->
<g id="edge12" class="edge">
<title>NASALib/analysis&#45;&gt;NASALib/reals</title>
<path fill="none" stroke="black" d="M348.83,-738.7C355.81,-730.56 364.27,-720.69 371.97,-711.7"/>
<polygon fill="black" stroke="black" points="374.5,-714.12 378.35,-704.25 369.19,-709.57 374.5,-714.12"/>
</g>
<!-- NASALib/analysis&#45;&gt;NASALib/structures -->
<g id="edge13" class="edge">
<title>NASALib/analysis&#45;&gt;NASALib/structures</title>
<path fill="none" stroke="black" d="M875,-252C875,-252 751,-163 751,-163 751,-163 699.79,-143.04 660.21,-127.62"/>
<polygon fill="black" stroke="black" points="661.67,-124.43 651.08,-124.06 659.13,-130.95 661.67,-124.43"/>
</g>
<!-- lib/finite_sets -->
<g id="node23" class="node">
<title>lib/finite_sets</title>
<polygon fill="#fcfcd7" stroke="black" points="972,-52 900,-52 900,-16 972,-16 972,-52"/>
<text text-anchor="middle" x="936" y="-30.3" font-family="Times,serif" font-size="14.00">finite_sets</text>
</g>
<!-- NASALib/analysis&#45;&gt;lib/finite_sets -->
<g id="edge14" class="edge">
<title>NASALib/analysis&#45;&gt;lib/finite_sets</title>
<path fill="none" stroke="black" d="M875,-540C875,-540 904,-470 904,-470"/>
</g>
<!-- NASALib/examples -->
<g id="node4" class="node">
<title>NASALib/examples</title>
<polygon fill="#fcfcd7" stroke="black" points="234,-1063 166,-1063 166,-1027 234,-1027 234,-1063"/>
<text text-anchor="middle" x="200" y="-1041.3" font-family="Times,serif" font-size="14.00">examples</text>
</g>
<!-- NASALib/examples&#45;&gt;NASALib/Sturm -->
<g id="edge15" class="edge">
<title>NASALib/examples&#45;&gt;NASALib/Sturm</title>
<path fill="none" stroke="black" d="M265,-972C265,-972 242.27,-947.52 223.7,-927.52"/>
<polygon fill="black" stroke="black" points="226.47,-925.36 217.1,-920.41 221.34,-930.12 226.47,-925.36"/>
</g>
<!-- NASALib/examples&#45;&gt;NASALib/Tarski -->
<g id="edge16" class="edge">
<title>NASALib/examples&#45;&gt;NASALib/Tarski</title>
<path fill="none" stroke="black" d="M200,-1026.7C200,-1019.41 200,-1010.73 200,-1002.54"/>
<polygon fill="black" stroke="black" points="203.5,-1002.62 200,-992.62 196.5,-1002.62 203.5,-1002.62"/>
</g>
<!-- NASALib/examples&#45;&gt;NASALib/analysis -->
<g id="edge17" class="edge">
<title>NASALib/examples&#45;&gt;NASALib/analysis</title>
<path fill="none" stroke="black" d="M334,-828C334,-828 334,-806.08 334,-786.77"/>
<polygon fill="black" stroke="black" points="337.5,-786.82 334,-776.82 330.5,-786.82 337.5,-786.82"/>
</g>
<!-- NASALib/examples&#45;&gt;NASALib/interval_arith -->
<g id="edge18" class="edge">
<title>NASALib/examples&#45;&gt;NASALib/interval_arith</title>
<path fill="none" stroke="black" d="M265,-900C265,-900 234.57,-874.64 210.34,-854.45"/>
<polygon fill="black" stroke="black" points="212.85,-851.99 202.93,-848.27 208.37,-857.36 212.85,-851.99"/>
<path fill="none" stroke="black" d="M265,-972C265,-972 265,-902 265,-902"/>
</g>
<!-- NASALib/lnexp -->
<g id="node9" class="node">
<title>NASALib/lnexp</title>
<polygon fill="#fcfcd7" stroke="black" points="342,-343 288,-343 288,-307 342,-307 342,-343"/>
<text text-anchor="middle" x="315" y="-321.3" font-family="Times,serif" font-size="14.00">lnexp</text>
</g>
<!-- NASALib/examples&#45;&gt;NASALib/lnexp -->
<g id="edge19" class="edge">
<title>NASALib/examples&#45;&gt;NASALib/lnexp</title>
<path fill="none" stroke="black" d="M216.07,-1026.7C235.32,-1005.97 265,-974 265,-974"/>
<path fill="none" stroke="black" d="M239,-468C239,-468 278.26,-394.66 300.34,-353.39"/>
<polygon fill="black" stroke="black" points="303.33,-355.21 304.97,-344.75 297.16,-351.91 303.33,-355.21"/>
<path fill="none" stroke="black" d="M265,-972C265,-972 236,-955 236,-955 236,-955 164,-919 164,-919 164,-919 112,-847 112,-847 112,-847 112,-811 112,-811 112,-811 164,-775 164,-775 164,-775 184,-667 184,-667 184,-667 239,-470 239,-470"/>
</g>
<!-- NASALib/examples&#45;&gt;NASALib/reals -->
<g id="edge20" class="edge">
<title>NASALib/examples&#45;&gt;NASALib/reals</title>
<path fill="none" stroke="black" d="M334,-828C334,-828 295,-775 295,-775 295,-775 285,-758 285,-758"/>
<path fill="none" stroke="black" d="M265,-972C265,-972 334,-830 334,-830"/>
</g>
<!-- NASALib/trig -->
<g id="node21" class="node">
<title>NASALib/trig</title>
<polygon fill="#fcfcd7" stroke="black" points="250,-343 196,-343 196,-307 250,-307 250,-343"/>
<text text-anchor="middle" x="223" y="-321.3" font-family="Times,serif" font-size="14.00">trig</text>
</g>
<!-- NASALib/examples&#45;&gt;NASALib/trig -->
<g id="edge21" class="edge">
<title>NASALib/examples&#45;&gt;NASALib/trig</title>
<path fill="none" stroke="black" d="M182.2,-1026.62C147.03,-992.27 72,-919 72,-919 72,-919 32,-847 32,-847 32,-847 32,-811 32,-811 32,-811 189,-379 189,-379 189,-379 197.39,-365.93 205.83,-352.77"/>
<polygon fill="black" stroke="black" points="208.6,-354.93 211.05,-344.63 202.7,-351.16 208.6,-354.93"/>
</g>
<!-- NASALib/vectors -->
<g id="node22" class="node">
<title>NASALib/vectors</title>
<polygon fill="#fcfcd7" stroke="black" points="414,-415 358,-415 358,-379 414,-379 414,-415"/>
<text text-anchor="middle" x="386" y="-393.3" font-family="Times,serif" font-size="14.00">vectors</text>
</g>
<!-- NASALib/examples&#45;&gt;NASALib/vectors -->
<g id="edge22" class="edge">
<title>NASALib/examples&#45;&gt;NASALib/vectors</title>
<path fill="none" stroke="black" d="M265,-900C265,-900 280,-739 280,-739 280,-739 351.76,-508.13 377.2,-426.32"/>
<polygon fill="black" stroke="black" points="380.52,-427.41 380.15,-416.82 373.84,-425.33 380.52,-427.41"/>
</g>
<!-- NASALib/extended_nnreal -->
<g id="node5" class="node">
<title>NASALib/extended_nnreal</title>
<polygon fill="#fcfcd7" stroke="black" points="774,-487 668,-487 668,-451 774,-451 774,-487"/>
<text text-anchor="middle" x="721" y="-465.3" font-family="Times,serif" font-size="14.00">extended_nnreal</text>
</g>
<!-- NASALib/extended_nnreal&#45;&gt;NASALib/analysis -->
<g id="edge23" class="edge">
<title>NASALib/extended_nnreal&#45;&gt;NASALib/analysis</title>
<path fill="none" stroke="black" d="M720.61,-487.16C720.03,-513.02 719,-559 719,-559 719,-559 707,-631 707,-631 707,-631 679.44,-660.81 665.66,-675.72"/>
<polygon fill="black" stroke="black" points="663.25,-673.17 659.03,-682.89 668.39,-677.92 663.25,-673.17"/>
</g>
<!-- NASALib/extended_nnreal&#45;&gt;NASALib/reals -->
<g id="edge24" class="edge">
<title>NASALib/extended_nnreal&#45;&gt;NASALib/reals</title>
<path fill="none" stroke="black" d="M719.46,-487.16C717.13,-513.02 713,-559 713,-559 713,-559 699,-631 699,-631 699,-631 514.76,-663.01 432.67,-677.28"/>
<polygon fill="black" stroke="black" points="432.08,-673.83 422.83,-678.99 433.28,-680.73 432.08,-673.83"/>
</g>
<!-- NASALib/series -->
<g id="node16" class="node">
<title>NASALib/series</title>
<polygon fill="#fcfcd7" stroke="black" points="506,-271 452,-271 452,-235 506,-235 506,-271"/>
<text text-anchor="middle" x="479" y="-249.3" font-family="Times,serif" font-size="14.00">series</text>
</g>
<!-- NASALib/extended_nnreal&#45;&gt;NASALib/series -->
<g id="edge25" class="edge">
<title>NASALib/extended_nnreal&#45;&gt;NASALib/series</title>
<path fill="none" stroke="black" d="M708.08,-450.84C688.61,-424.98 654,-379 654,-379 654,-379 563.46,-314.33 512.63,-278.02"/>
<polygon fill="black" stroke="black" points="514.74,-275.22 504.56,-272.26 510.67,-280.92 514.74,-275.22"/>
</g>
<!-- NASALib/sigma_set -->
<g id="node18" class="node">
<title>NASALib/sigma_set</title>
<polygon fill="#fcfcd7" stroke="black" points="779.5,-415 708.5,-415 708.5,-379 779.5,-379 779.5,-415"/>
<text text-anchor="middle" x="744" y="-393.3" font-family="Times,serif" font-size="14.00">sigma_set</text>
</g>
<!-- NASALib/extended_nnreal&#45;&gt;NASALib/sigma_set -->
<g id="edge26" class="edge">
<title>NASALib/extended_nnreal&#45;&gt;NASALib/sigma_set</title>
<path fill="none" stroke="black" d="M726.69,-450.7C729.14,-443.24 732.07,-434.32 734.81,-425.97"/>
<polygon fill="black" stroke="black" points="738.11,-427.14 737.91,-416.54 731.46,-424.95 738.11,-427.14"/>
</g>
<!-- NASALib/interval_arith&#45;&gt;NASALib/analysis -->
<g id="edge27" class="edge">
<title>NASALib/interval_arith&#45;&gt;NASALib/analysis</title>
<path fill="none" stroke="black" d="M219.21,-810.52C241.83,-800.17 270.46,-787.07 293.47,-776.54"/>
<polygon fill="black" stroke="black" points="294.92,-779.73 302.56,-772.38 292.01,-773.36 294.92,-779.73"/>
</g>
<!-- NASALib/interval_arith&#45;&gt;NASALib/ints -->
<g id="edge28" class="edge">
<title>NASALib/interval_arith&#45;&gt;NASALib/ints</title>
<path fill="none" stroke="black" d="M143.67,-810.65C110.42,-795.19 67,-775 67,-775 67,-775 57,-758 57,-758"/>
</g>
<!-- NASALib/interval_arith&#45;&gt;NASALib/lnexp -->
<g id="edge29" class="edge">
<title>NASALib/interval_arith&#45;&gt;NASALib/lnexp</title>
<path fill="none" stroke="black" d="M219,-756C219,-756 219,-686 219,-686"/>
<path fill="none" stroke="black" d="M219,-684C219,-684 239,-470 239,-470"/>
</g>
<!-- NASALib/interval_arith&#45;&gt;NASALib/reals -->
<g id="edge30" class="edge">
<title>NASALib/interval_arith&#45;&gt;NASALib/reals</title>
<path fill="none" stroke="black" d="M219,-756C219,-756 304.8,-721.68 356.24,-701.1"/>
<polygon fill="black" stroke="black" points="357.27,-704.46 365.25,-697.5 354.67,-697.96 357.27,-704.46"/>
</g>
<!-- NASALib/interval_arith&#45;&gt;NASALib/structures -->
<g id="edge31" class="edge">
<title>NASALib/interval_arith&#45;&gt;NASALib/structures</title>
<path fill="none" stroke="black" d="M386,-252C386,-252 386,-182 386,-182"/>
<path fill="none" stroke="black" d="M219,-684C219,-684 231,-631 231,-631 231,-631 279,-307 279,-307 279,-307 386,-254 386,-254"/>
</g>
<!-- NASALib/interval_arith&#45;&gt;NASALib/trig -->
<g id="edge32" class="edge">
<title>NASALib/interval_arith&#45;&gt;NASALib/trig</title>
<path fill="none" stroke="black" d="M190.39,-810.7C201.65,-789.97 219,-758 219,-758"/>
<path fill="none" stroke="black" d="M219,-756C219,-756 154,-559 154,-559 154,-559 154,-523 154,-523 154,-523 194.08,-408.56 213.15,-354.12"/>
<polygon fill="black" stroke="black" points="216.37,-355.51 216.38,-344.91 209.77,-353.19 216.37,-355.51"/>
</g>
<!-- NASALib/lebesgue -->
<g id="node8" class="node">
<title>NASALib/lebesgue</title>
<polygon fill="#fcfcd7" stroke="black" points="690,-631 626,-631 626,-595 690,-595 690,-631"/>
<text text-anchor="middle" x="658" y="-609.3" font-family="Times,serif" font-size="14.00">lebesgue</text>
</g>
<!-- NASALib/lebesgue&#45;&gt;NASALib/analysis -->
<g id="edge33" class="edge">
<title>NASALib/lebesgue&#45;&gt;NASALib/analysis</title>
<path fill="none" stroke="black" d="M658,-631.3C658,-644.26 658,-661.6 658,-672.79"/>
<polygon fill="black" stroke="black" points="654.5,-672.49 658,-682.49 661.5,-672.49 654.5,-672.49"/>
</g>
<!-- NASALib/lebesgue&#45;&gt;NASALib/extended_nnreal -->
<g id="edge34" class="edge">
<title>NASALib/lebesgue&#45;&gt;NASALib/extended_nnreal</title>
<path fill="none" stroke="black" d="M673.39,-594.65C687.1,-579.19 705,-559 705,-559 705,-559 711.22,-524.42 715.9,-498.37"/>
<polygon fill="black" stroke="black" points="719.32,-499.11 717.65,-488.65 712.43,-497.87 719.32,-499.11"/>
</g>
<!-- NASALib/measure_integration -->
<g id="node11" class="node">
<title>NASALib/measure_integration</title>
<polygon fill="#fcfcd7" stroke="black" points="696,-559 568,-559 568,-523 696,-523 696,-559"/>
<text text-anchor="middle" x="632" y="-537.3" font-family="Times,serif" font-size="14.00">measure_integration</text>
</g>
<!-- NASALib/lebesgue&#45;&gt;NASALib/measure_integration -->
<g id="edge35" class="edge">
<title>NASALib/lebesgue&#45;&gt;NASALib/measure_integration</title>
<path fill="none" stroke="black" d="M651.57,-594.7C648.77,-587.15 645.42,-578.12 642.28,-569.68"/>
<polygon fill="black" stroke="black" points="645.64,-568.68 638.88,-560.52 639.08,-571.12 645.64,-568.68"/>
</g>
<!-- NASALib/metric_space -->
<g id="node12" class="node">
<title>NASALib/metric_space</title>
<polygon fill="#fcfcd7" stroke="black" points="577.5,-487 488.5,-487 488.5,-451 577.5,-451 577.5,-487"/>
<text text-anchor="middle" x="533" y="-465.3" font-family="Times,serif" font-size="14.00">metric_space</text>
</g>
<!-- NASALib/lebesgue&#45;&gt;NASALib/metric_space -->
<g id="edge36" class="edge">
<title>NASALib/lebesgue&#45;&gt;NASALib/metric_space</title>
<path fill="none" stroke="black" d="M509,-540C509,-540 516.73,-517.45 523.42,-497.95"/>
<polygon fill="black" stroke="black" points="526.64,-499.33 526.58,-488.74 520.02,-497.06 526.64,-499.33"/>
</g>
<!-- NASALib/power -->
<g id="node14" class="node">
<title>NASALib/power</title>
<polygon fill="#fcfcd7" stroke="black" points="506,-415 452,-415 452,-379 506,-379 506,-415"/>
<text text-anchor="middle" x="479" y="-393.3" font-family="Times,serif" font-size="14.00">power</text>
</g>
<!-- NASALib/lebesgue&#45;&gt;NASALib/power -->
<g id="edge37" class="edge">
<title>NASALib/lebesgue&#45;&gt;NASALib/power</title>
<path fill="none" stroke="black" d="M509,-540C509,-540 480,-487 480,-487 480,-487 479.61,-452.42 479.32,-426.37"/>
<polygon fill="black" stroke="black" points="482.82,-426.63 479.21,-416.67 475.82,-426.71 482.82,-426.63"/>
<path fill="none" stroke="black" d="M625.64,-596.95C591.93,-581.28 544,-559 544,-559 544,-559 509,-542 509,-542"/>
</g>
<!-- NASALib/sets_aux -->
<g id="node17" class="node">
<title>NASALib/sets_aux</title>
<polygon fill="#fcfcd7" stroke="black" points="731.5,-343 668.5,-343 668.5,-307 731.5,-307 731.5,-343"/>
<text text-anchor="middle" x="700" y="-321.3" font-family="Times,serif" font-size="14.00">sets_aux</text>
</g>
<!-- NASALib/lebesgue&#45;&gt;NASALib/sets_aux -->
<g id="edge39" class="edge">
<title>NASALib/lebesgue&#45;&gt;NASALib/sets_aux</title>
<path fill="none" stroke="black" d="M683.21,-594.65C705.67,-579.19 735,-559 735,-559 735,-559 835,-470 835,-470"/>
<path fill="none" stroke="black" d="M835,-468C835,-468 789,-379 789,-379 789,-379 762.81,-363.4 738.85,-349.13"/>
<polygon fill="black" stroke="black" points="740.83,-346.24 730.44,-344.13 737.24,-352.25 740.83,-346.24"/>
</g>
<!-- NASALib/lebesgue&#45;&gt;NASALib/sigma_set -->
<g id="edge40" class="edge">
<title>NASALib/lebesgue&#45;&gt;NASALib/sigma_set</title>
<path fill="none" stroke="black" d="M676.01,-594.65C692.05,-579.19 713,-559 713,-559 713,-559 783,-487 783,-487 783,-487 783,-451 783,-451 783,-451 773.19,-437.67 763.41,-424.38"/>
<polygon fill="black" stroke="black" points="766.41,-422.55 757.67,-416.57 760.77,-426.7 766.41,-422.55"/>
</g>
<!-- NASALib/lebesgue&#45;&gt;NASALib/structures -->
<g id="edge41" class="edge">
<title>NASALib/lebesgue&#45;&gt;NASALib/structures</title>
<path fill="none" stroke="black" d="M617,-468C617,-468 556,-415 556,-415 556,-415 556,-379 556,-379 556,-379 609,-254 609,-254"/>
<path fill="none" stroke="black" d="M625.58,-594.65C596.71,-579.19 559,-559 559,-559 559,-559 559,-523 559,-523 559,-523 617,-470 617,-470"/>
<path fill="none" stroke="black" d="M609,-252C609,-252 386,-182 386,-182"/>
</g>
<!-- NASALib/topology -->
<g id="node20" class="node">
<title>NASALib/topology</title>
<polygon fill="#fcfcd7" stroke="black" points="629.5,-415 564.5,-415 564.5,-379 629.5,-379 629.5,-415"/>
<text text-anchor="middle" x="597" y="-393.3" font-family="Times,serif" font-size="14.00">topology</text>
</g>
<!-- NASALib/lebesgue&#45;&gt;NASALib/topology -->
<g id="edge42" class="edge">
<title>NASALib/lebesgue&#45;&gt;NASALib/topology</title>
<path fill="none" stroke="black" d="M617,-468C617,-468 610.62,-445.66 605.06,-426.22"/>
<polygon fill="black" stroke="black" points="608.47,-425.41 602.36,-416.76 601.74,-427.34 608.47,-425.41"/>
</g>
<!-- NASALib/lnexp&#45;&gt;NASALib/analysis -->
<g id="edge43" class="edge">
<title>NASALib/lnexp&#45;&gt;NASALib/analysis</title>
<path fill="none" stroke="black" d="M310.59,-343.41C300.97,-381.33 279,-468 279,-468 279,-542 279,-542 279,-542 279,-542 311.86,-669.85 326.78,-727.91"/>
<polygon fill="black" stroke="black" points="323.34,-728.57 329.22,-737.38 330.12,-726.83 323.34,-728.57"/>
</g>
<!-- NASALib/lnexp&#45;&gt;NASALib/ints -->
<g id="edge44" class="edge">
<title>NASALib/lnexp&#45;&gt;NASALib/ints</title>
<path fill="none" stroke="black" d="M315,-306.7C315,-285.97 315,-254 315,-254"/>
</g>
<!-- NASALib/lnexp&#45;&gt;NASALib/reals -->
<g id="edge45" class="edge">
<title>NASALib/lnexp&#45;&gt;NASALib/reals</title>
<path fill="none" stroke="black" d="M317.69,-343.46C325.9,-396.82 350.51,-556.79 357.27,-600.73"/>
<polygon fill="black" stroke="black" points="353.79,-601.15 358.77,-610.5 360.71,-600.09 353.79,-601.15"/>
</g>
<!-- NASALib/lnexp&#45;&gt;NASALib/series -->
<g id="edge46" class="edge">
<title>NASALib/lnexp&#45;&gt;NASALib/series</title>
<path fill="none" stroke="black" d="M342.45,-312.28C369.49,-300.74 411.02,-283.01 441.18,-270.14"/>
<polygon fill="black" stroke="black" points="442.52,-273.38 450.34,-266.23 439.77,-266.94 442.52,-273.38"/>
</g>
<!-- NASALib/matrices&#45;&gt;NASALib/ints -->
<g id="edge47" class="edge">
<title>NASALib/matrices&#45;&gt;NASALib/ints</title>
<path fill="none" stroke="black" d="M106.11,-738.54C99.38,-676.45 77,-470 77,-470"/>
<path fill="none" stroke="black" d="M77,-468C77,-468 77,-398 77,-398"/>
</g>
<!-- NASALib/matrices&#45;&gt;NASALib/reals -->
<g id="edge48" class="edge">
<title>NASALib/matrices&#45;&gt;NASALib/reals</title>
<path fill="none" stroke="black" d="M139.98,-748.17C193.02,-735.19 299,-709.25 355.86,-695.33"/>
<polygon fill="black" stroke="black" points="356.53,-698.77 365.41,-693 354.86,-691.98 356.53,-698.77"/>
</g>
<!-- NASALib/matrices&#45;&gt;NASALib/structures -->
<g id="edge49" class="edge">
<title>NASALib/matrices&#45;&gt;NASALib/structures</title>
<path fill="none" stroke="black" d="M77,-468C77,-468 112,-379 112,-379 112,-379 231,-235 231,-235 231,-235 320,-199 320,-199 320,-199 381,-163 381,-163 381,-163 501.27,-135.76 569.36,-120.34"/>
<polygon fill="black" stroke="black" points="569.76,-123.83 578.74,-118.21 568.22,-117.01 569.76,-123.83"/>
</g>
<!-- NASALib/measure_integration&#45;&gt;NASALib/extended_nnreal -->
<g id="edge50" class="edge">
<title>NASALib/measure_integration&#45;&gt;NASALib/extended_nnreal</title>
<path fill="none" stroke="black" d="M654,-522.7C664.91,-514.11 678.27,-503.61 690.18,-494.24"/>
<polygon fill="black" stroke="black" points="692.06,-497.22 697.75,-488.28 687.73,-491.71 692.06,-497.22"/>
</g>
<!-- NASALib/measure_integration&#45;&gt;NASALib/metric_space -->
<g id="edge51" class="edge">
<title>NASALib/measure_integration&#45;&gt;NASALib/metric_space</title>
<path fill="none" stroke="black" d="M607.27,-522.52C595.01,-513.85 580.02,-503.25 566.73,-493.85"/>
<polygon fill="black" stroke="black" points="568.83,-491.05 558.65,-488.13 564.79,-496.77 568.83,-491.05"/>
</g>
<!-- NASALib/measure_integration&#45;&gt;NASALib/orders -->
<g id="edge52" class="edge">
<title>NASALib/measure_integration&#45;&gt;NASALib/orders</title>
<path fill="none" stroke="black" d="M649,-396C649,-396 664,-235 664,-235 664,-235 677.32,-221.15 690.35,-207.62"/>
<polygon fill="black" stroke="black" points="692.84,-210.08 697.25,-200.44 687.8,-205.22 692.84,-210.08"/>
</g>
<!-- NASALib/measure_integration&#45;&gt;NASALib/power -->
<g id="edge53" class="edge">
<title>NASALib/measure_integration&#45;&gt;NASALib/power</title>
<path fill="none" stroke="black" d="M649,-468C649,-468 622,-451 622,-451 622,-451 559.14,-427.7 516.78,-412"/>
<polygon fill="black" stroke="black" points="518.25,-408.81 507.65,-408.62 515.81,-415.38 518.25,-408.81"/>
<path fill="none" stroke="black" d="M636.2,-522.7C641.24,-501.97 649,-470 649,-470"/>
</g>
<!-- NASALib/measure_integration&#45;&gt;NASALib/reals -->
<g id="edge54" class="edge">
<title>NASALib/measure_integration&#45;&gt;NASALib/reals</title>
<path fill="none" stroke="black" d="M613.1,-559.16C584.63,-585.02 534,-631 534,-631 534,-631 473.39,-653.95 431.92,-669.64"/>
<polygon fill="black" stroke="black" points="430.85,-666.31 422.74,-673.12 433.33,-672.85 430.85,-666.31"/>
</g>
<!-- NASALib/measure_integration&#45;&gt;NASALib/series -->
<g id="edge55" class="edge">
<title>NASALib/measure_integration&#45;&gt;NASALib/series</title>
<path fill="none" stroke="black" d="M649,-396C649,-396 639,-379 639,-379 639,-379 551,-343 551,-343 551,-343 531,-326 531,-326"/>
<path fill="none" stroke="black" d="M649,-468C649,-468 649,-398 649,-398"/>
</g>
<!-- NASALib/measure_integration&#45;&gt;NASALib/sets_aux -->
<g id="edge56" class="edge">
<title>NASALib/measure_integration&#45;&gt;NASALib/sets_aux</title>
<path fill="none" stroke="black" d="M649,-468C649,-468 675.01,-395.59 689.88,-354.18"/>
<polygon fill="black" stroke="black" points="693.15,-355.43 693.23,-344.84 686.56,-353.06 693.15,-355.43"/>
</g>
<!-- NASALib/measure_integration&#45;&gt;NASALib/sigma_set -->
<g id="edge57" class="edge">
<title>NASALib/measure_integration&#45;&gt;NASALib/sigma_set</title>
<path fill="none" stroke="black" d="M649,-468C649,-468 659,-451 659,-451 659,-451 683.79,-435.54 706.59,-421.32"/>
<polygon fill="black" stroke="black" points="708.25,-424.42 714.88,-416.16 704.55,-418.48 708.25,-424.42"/>
</g>
<!-- NASALib/measure_integration&#45;&gt;NASALib/structures -->
<g id="edge58" class="edge">
<title>NASALib/measure_integration&#45;&gt;NASALib/structures</title>
<path fill="none" stroke="black" d="M649,-396C649,-396 639,-379 639,-379 639,-379 614,-343 614,-343 614,-343 609,-326 609,-326"/>
</g>
<!-- NASALib/measure_integration&#45;&gt;NASALib/topology -->
<g id="edge59" class="edge">
<title>NASALib/measure_integration&#45;&gt;NASALib/topology</title>
<path fill="none" stroke="black" d="M649,-468C649,-468 631.3,-444.18 616.56,-424.33"/>
<polygon fill="black" stroke="black" points="619.53,-422.46 610.76,-416.52 613.91,-426.63 619.53,-422.46"/>
</g>
<!-- NASALib/measure_integration&#45;&gt;lib/finite_sets -->
<g id="edge60" class="edge">
<title>NASALib/measure_integration&#45;&gt;lib/finite_sets</title>
<path fill="none" stroke="black" d="M696.27,-526.69C772.1,-510.99 888,-487 888,-487 888,-487 904,-470 904,-470"/>
<path fill="none" stroke="black" d="M904,-468C904,-468 904,-398 904,-398"/>
</g>
<!-- NASALib/metric_space&#45;&gt;NASALib/analysis -->
<g id="edge61" class="edge">
<title>NASALib/metric_space&#45;&gt;NASALib/analysis</title>
<path fill="none" stroke="black" d="M523.5,-487.35C515.05,-502.81 504,-523 504,-523 504,-523 504,-559 504,-559 504,-559 616.7,-650.48 649.28,-676.92"/>
<polygon fill="black" stroke="black" points="646.85,-679.46 656.82,-683.05 651.27,-674.03 646.85,-679.46"/>
</g>
<!-- NASALib/metric_space&#45;&gt;NASALib/power -->
<g id="edge62" class="edge">
<title>NASALib/metric_space&#45;&gt;NASALib/power</title>
<path fill="none" stroke="black" d="M519.65,-450.7C513.44,-442.64 505.92,-432.89 499.04,-423.98"/>
<polygon fill="black" stroke="black" points="502,-422.08 493.12,-416.3 496.46,-426.36 502,-422.08"/>
</g>
<!-- NASALib/metric_space&#45;&gt;NASALib/series -->
<g id="edge64" class="edge">
<title>NASALib/metric_space&#45;&gt;NASALib/series</title>
<path fill="none" stroke="black" d="M531.02,-450.7C528.65,-429.97 525,-398 525,-398"/>
<path fill="none" stroke="black" d="M525,-396C525,-396 531,-326 531,-326"/>
<path fill="none" stroke="black" d="M531,-324C531,-324 513.3,-300.18 498.56,-280.33"/>
<polygon fill="black" stroke="black" points="501.53,-278.46 492.76,-272.52 495.91,-282.63 501.53,-278.46"/>
</g>
<!-- NASALib/metric_space&#45;&gt;NASALib/sets_aux -->
<g id="edge65" class="edge">
<title>NASALib/metric_space&#45;&gt;NASALib/sets_aux</title>
<path fill="none" stroke="black" d="M525,-396C525,-396 556,-379 556,-379 556,-379 614.91,-357.32 657.38,-341.69"/>
<polygon fill="black" stroke="black" points="658.45,-345.02 666.62,-338.29 656.03,-338.45 658.45,-345.02"/>
</g>
<!-- NASALib/metric_space&#45;&gt;NASALib/topology -->
<g id="edge66" class="edge">
<title>NASALib/metric_space&#45;&gt;NASALib/topology</title>
<path fill="none" stroke="black" d="M548.82,-450.7C556.34,-442.47 565.47,-432.48 573.76,-423.42"/>
<polygon fill="black" stroke="black" points="576.18,-425.96 580.34,-416.22 571.01,-421.24 576.18,-425.96"/>
</g>
<!-- NASALib/metric_space&#45;&gt;NASALib/vectors -->
<g id="edge67" class="edge">
<title>NASALib/metric_space&#45;&gt;NASALib/vectors</title>
<path fill="none" stroke="black" d="M496.28,-450.52C474.51,-440.15 446.92,-427.01 424.79,-416.47"/>
<polygon fill="black" stroke="black" points="426.31,-413.32 415.78,-412.18 423.3,-419.64 426.31,-413.32"/>
</g>
<!-- NASALib/metric_space&#45;&gt;lib/finite_sets -->
<g id="edge68" class="edge">
<title>NASALib/metric_space&#45;&gt;lib/finite_sets</title>
<path fill="none" stroke="black" d="M904,-396C904,-396 904,-254 904,-254"/>
<path fill="none" stroke="black" d="M577.58,-458.41C595.5,-454.55 612,-451 612,-451 612,-451 904,-398 904,-398"/>
</g>
<!-- NASALib/orders&#45;&gt;NASALib/structures -->
<g id="edge69" class="edge">
<title>NASALib/orders&#45;&gt;NASALib/structures</title>
<path fill="none" stroke="black" d="M690.02,-162.52C677.64,-153.85 662.5,-143.25 649.07,-133.85"/>
<polygon fill="black" stroke="black" points="651.1,-131 640.9,-128.13 647.08,-136.73 651.1,-131"/>
</g>
<!-- NASALib/orders&#45;&gt;lib/finite_sets -->
<g id="edge70" class="edge">
<title>NASALib/orders&#45;&gt;lib/finite_sets</title>
<path fill="none" stroke="black" d="M904,-108C904,-108 914.84,-83.26 923.91,-62.59"/>
<polygon fill="black" stroke="black" points="927,-64.25 927.81,-53.69 920.59,-61.44 927,-64.25"/>
<path fill="none" stroke="black" d="M742.48,-169.82C794.9,-150.41 904,-110 904,-110"/>
</g>
<!-- NASALib/power&#45;&gt;NASALib/analysis -->
<g id="edge71" class="edge">
<title>NASALib/power&#45;&gt;NASALib/analysis</title>
<path fill="none" stroke="black" d="M658,-686C658,-686 445.14,-731.99 364.48,-749.41"/>
<path fill="none" stroke="black" d="M449,-614C449,-614 658,-684 658,-684"/>
<path fill="none" stroke="black" d="M449,-542C449,-542 449,-612 449,-612"/>
</g>
<!-- NASALib/power&#45;&gt;NASALib/lnexp -->
<g id="edge72" class="edge">
<title>NASALib/power&#45;&gt;NASALib/lnexp</title>
<path fill="none" stroke="black" d="M451.55,-384.28C424.51,-372.74 382.98,-355.01 352.82,-342.14"/>
<polygon fill="black" stroke="black" points="354.23,-338.94 343.66,-338.23 351.48,-345.38 354.23,-338.94"/>
</g>
<!-- NASALib/power&#45;&gt;NASALib/reals -->
<g id="edge73" class="edge">
<title>NASALib/power&#45;&gt;NASALib/reals</title>
<path fill="none" stroke="black" d="M475.32,-415.41C469.06,-445.04 456.52,-504.41 451.33,-528.98"/>
<polygon fill="black" stroke="black" points="447.96,-528.01 449.31,-538.52 454.8,-529.46 447.96,-528.01"/>
<path fill="none" stroke="black" d="M449,-542C449,-542 409,-612 409,-612"/>
</g>
<!-- NASALib/reals&#45;&gt;NASALib/ints -->
<g id="edge74" class="edge">
<title>NASALib/reals&#45;&gt;NASALib/ints</title>
<path fill="none" stroke="black" d="M379.8,-666.52C340.64,-618.3 234,-487 234,-487 234,-487 172,-343 172,-343 172,-343 137,-254 137,-254"/>
</g>
<!-- NASALib/reals&#45;&gt;NASALib/lebesgue -->
<g id="edge75" class="edge">
<title>NASALib/reals&#45;&gt;NASALib/lebesgue</title>
<path fill="none" stroke="black" d="M432.16,-674.72C494.67,-659.53 612,-631 612,-631 612,-631 613.14,-630.58 615.05,-629.87"/>
<polygon fill="black" stroke="black" points="431.53,-671.27 422.64,-677.04 433.18,-678.08 431.53,-671.27"/>
<polygon fill="black" stroke="black" points="615.97,-633.27 624.13,-626.52 613.54,-626.7 615.97,-633.27"/>
</g>
<!-- NASALib/reals&#45;&gt;NASALib/metric_space -->
<g id="edge76" class="edge">
<title>NASALib/reals&#45;&gt;NASALib/metric_space</title>
<path fill="none" stroke="black" d="M409.16,-656.88C434.81,-610.99 484,-523 484,-523 484,-523 496.8,-509.15 509.32,-495.62"/>
<polygon fill="black" stroke="black" points="406.19,-655.01 404.37,-665.45 412.3,-658.43 406.19,-655.01"/>
<polygon fill="black" stroke="black" points="511.71,-498.18 515.93,-488.47 506.57,-493.43 511.71,-498.18"/>
</g>
<!-- NASALib/reals&#45;&gt;NASALib/sets_aux -->
<g id="edge77" class="edge">
<title>NASALib/reals&#45;&gt;NASALib/sets_aux</title>
<path fill="none" stroke="black" d="M421.32,-679.57C499.91,-666.83 721,-631 721,-631 721,-631 835,-470 835,-470"/>
</g>
<!-- NASALib/reals&#45;&gt;NASALib/structures -->
<g id="edge78" class="edge">
<title>NASALib/reals&#45;&gt;NASALib/structures</title>
<path fill="none" stroke="black" d="M391.12,-666.76C381.18,-607.39 349,-415 349,-415 349,-415 349,-379 349,-379 349,-379 386,-326 386,-326"/>
<path fill="none" stroke="black" d="M386,-324C386,-324 386,-254 386,-254"/>
</g>
<!-- NASALib/series&#45;&gt;NASALib/analysis -->
<g id="edge79" class="edge">
<title>NASALib/series&#45;&gt;NASALib/analysis</title>
<path fill="none" stroke="black" d="M433,-398C433,-398 444,-559 444,-559 444,-559 449,-612 449,-612"/>
</g>
<!-- NASALib/series&#45;&gt;NASALib/ints -->
<g id="edge80" class="edge">
<title>NASALib/series&#45;&gt;NASALib/ints</title>
<path fill="none" stroke="black" d="M451.7,-237.24C422.7,-221.55 381,-199 381,-199 381,-199 355,-110 355,-110"/>
</g>
<!-- NASALib/series&#45;&gt;NASALib/orders -->
<g id="edge81" class="edge">
<title>NASALib/series&#45;&gt;NASALib/orders</title>
<path fill="none" stroke="black" d="M506.07,-243.97C547.99,-231.54 628.76,-207.58 676.67,-193.37"/>
<polygon fill="black" stroke="black" points="677.47,-196.78 686.07,-190.58 675.48,-190.07 677.47,-196.78"/>
</g>
<!-- NASALib/series&#45;&gt;NASALib/reals -->
<g id="edge82" class="edge">
<title>NASALib/series&#45;&gt;NASALib/reals</title>
<path fill="none" stroke="black" d="M473.36,-271.41C463.72,-301.18 444.34,-361.01 436.45,-385.34"/>
<polygon fill="black" stroke="black" points="433.22,-383.97 433.47,-394.56 439.88,-386.13 433.22,-383.97"/>
<path fill="none" stroke="black" d="M433,-398C433,-398 409,-468 409,-468"/>
</g>
<!-- NASALib/sets_aux&#45;&gt;NASALib/ints -->
<g id="edge83" class="edge">
<title>NASALib/sets_aux&#45;&gt;NASALib/ints</title>
<path fill="none" stroke="black" d="M692.34,-306.7C683.16,-285.97 669,-254 669,-254"/>
<path fill="none" stroke="black" d="M669,-252C669,-252 659,-91 659,-91 659,-91 647.07,-75.81 635.63,-61.25"/>
<polygon fill="black" stroke="black" points="638.55,-59.3 629.62,-53.6 633.04,-63.63 638.55,-59.3"/>
</g>
<!-- NASALib/sets_aux&#45;&gt;NASALib/orders -->
<g id="edge84" class="edge">
<title>NASALib/sets_aux&#45;&gt;NASALib/orders</title>
<path fill="none" stroke="black" d="M669,-252C669,-252 684.37,-228.61 697.35,-208.87"/>
<polygon fill="black" stroke="black" points="700.23,-210.85 702.8,-200.57 694.38,-207 700.23,-210.85"/>
</g>
<!-- NASALib/sets_aux&#45;&gt;NASALib/structures -->
<g id="edge85" class="edge">
<title>NASALib/sets_aux&#45;&gt;NASALib/structures</title>
<path fill="none" stroke="black" d="M677.51,-306.7C650.56,-285.97 609,-254 609,-254"/>
</g>
<!-- NASALib/sets_aux&#45;&gt;lib/finite_sets -->
<g id="edge86" class="edge">
<title>NASALib/sets_aux&#45;&gt;lib/finite_sets</title>
<path fill="none" stroke="black" d="M731.88,-313.06C789.25,-293.38 904,-254 904,-254"/>
<path fill="none" stroke="black" d="M904,-252C904,-252 904,-110 904,-110"/>
</g>
<!-- NASALib/sigma_set&#45;&gt;NASALib/analysis -->
<g id="edge87" class="edge">
<title>NASALib/sigma_set&#45;&gt;NASALib/analysis</title>
<path fill="none" stroke="black" d="M760.04,-415.35C774.33,-430.81 793,-451 793,-451 793,-451 793,-487 793,-487 793,-487 738,-631 738,-631 738,-631 688.68,-663.67 667.49,-677.71"/>
<polygon fill="black" stroke="black" points="665.67,-674.72 659.26,-683.16 669.53,-680.56 665.67,-674.72"/>
</g>
<!-- NASALib/sigma_set&#45;&gt;NASALib/orders -->
<g id="edge88" class="edge">
<title>NASALib/sigma_set&#45;&gt;NASALib/orders</title>
<path fill="none" stroke="black" d="M743.42,-378.84C742.55,-352.98 741,-307 741,-307 741,-307 728.59,-247.34 720.92,-210.45"/>
<polygon fill="black" stroke="black" points="724.39,-209.94 718.92,-200.86 717.53,-211.37 724.39,-209.94"/>
</g>
<!-- NASALib/sigma_set&#45;&gt;NASALib/reals -->
<g id="edge89" class="edge">
<title>NASALib/sigma_set&#45;&gt;NASALib/reals</title>
<path fill="none" stroke="black" d="M758.41,-415.35C771.24,-430.81 788,-451 788,-451 788,-451 788,-487 788,-487 788,-487 707,-631 707,-631 707,-631 516.18,-663.31 432.53,-677.48"/>
<polygon fill="black" stroke="black" points="432,-674.02 422.72,-679.14 433.17,-680.92 432,-674.02"/>
</g>
<!-- NASALib/sigma_set&#45;&gt;NASALib/series -->
<g id="edge90" class="edge">
<title>NASALib/sigma_set&#45;&gt;NASALib/series</title>
<path fill="none" stroke="black" d="M714.72,-378.63C671.07,-352.73 594,-307 594,-307 594,-307 549.86,-286.66 516.28,-271.18"/>
<polygon fill="black" stroke="black" points="518.17,-268.2 507.63,-267.19 515.24,-274.56 518.17,-268.2"/>
</g>
<!-- NASALib/sigma_set&#45;&gt;NASALib/sets_aux -->
<g id="edge91" class="edge">
<title>NASALib/sigma_set&#45;&gt;NASALib/sets_aux</title>
<path fill="none" stroke="black" d="M733.12,-378.7C728.22,-370.9 722.32,-361.51 716.86,-352.83"/>
<polygon fill="black" stroke="black" points="719.84,-350.99 711.56,-344.39 713.92,-354.71 719.84,-350.99"/>
</g>
<!-- NASALib/structures&#45;&gt;NASALib/ints -->
<g id="edge92" class="edge">
<title>NASALib/structures&#45;&gt;NASALib/ints</title>
<path fill="none" stroke="black" d="M615,-90.7C615,-82.67 615,-72.9 615,-63.8"/>
<polygon fill="black" stroke="black" points="618.5,-63.94 615,-53.94 611.5,-63.94 618.5,-63.94"/>
</g>
<!-- NASALib/structures&#45;&gt;lib/finite_sets -->
<g id="edge93" class="edge">
<title>NASALib/structures&#45;&gt;lib/finite_sets</title>
<path fill="none" stroke="black" d="M649.85,-104.81C723.45,-98.07 888,-83 888,-83 888,-83 899.17,-71.83 910.73,-60.27"/>
<polygon fill="black" stroke="black" points="913,-62.95 917.6,-53.4 908.05,-58 913,-62.95"/>
</g>
<!-- NASALib/topology&#45;&gt;NASALib/reals -->
<g id="edge94" class="edge">
<title>NASALib/topology&#45;&gt;NASALib/reals</title>
<path fill="none" stroke="black" d="M595.07,-415.16C592.17,-441.02 587,-487 587,-487 587,-487 544,-523 544,-523 544,-523 459.93,-613.23 417.67,-658.59"/>
<polygon fill="black" stroke="black" points="415.34,-655.96 411.08,-665.66 420.46,-660.73 415.34,-655.96"/>
</g>
<!-- NASALib/topology&#45;&gt;NASALib/sets_aux -->
<g id="edge95" class="edge">
<title>NASALib/topology&#45;&gt;NASALib/sets_aux</title>
<path fill="none" stroke="black" d="M622.73,-378.52C635.6,-369.76 651.38,-359.04 665.31,-349.58"/>
<polygon fill="black" stroke="black" points="667.05,-352.63 673.35,-344.11 663.11,-346.84 667.05,-352.63"/>
</g>
<!-- NASALib/topology&#45;&gt;NASALib/structures -->
<g id="edge96" class="edge">
<title>NASALib/topology&#45;&gt;NASALib/structures</title>
<path fill="none" stroke="black" d="M609,-324C609,-324 609,-254 609,-254"/>
<path fill="none" stroke="black" d="M599.97,-378.7C603.52,-357.97 609,-326 609,-326"/>
</g>
<!-- NASALib/trig&#45;&gt;NASALib/analysis -->
<g id="edge97" class="edge">
<title>NASALib/trig&#45;&gt;NASALib/analysis</title>
<path fill="none" stroke="black" d="M224.18,-343.23C227.01,-384.76 234,-487 234,-487 234,-487 307,-703 307,-703 307,-703 313.4,-715.57 319.97,-728.47"/>
<polygon fill="black" stroke="black" points="316.81,-729.98 324.47,-737.3 323.05,-726.8 316.81,-729.98"/>
</g>
<!-- NASALib/trig&#45;&gt;NASALib/ints -->
<g id="edge98" class="edge">
<title>NASALib/trig&#45;&gt;NASALib/ints</title>
<path fill="none" stroke="black" d="M315,-252C315,-252 315,-182 315,-182"/>
<path fill="none" stroke="black" d="M245.74,-306.7C272.99,-285.97 315,-254 315,-254"/>
</g>
<!-- NASALib/trig&#45;&gt;NASALib/reals -->
<g id="edge99" class="edge">
<title>NASALib/trig&#45;&gt;NASALib/reals</title>
<path fill="none" stroke="black" d="M231.3,-343.46C256.85,-397.19 333.79,-558.98 354.06,-601.61"/>
<polygon fill="black" stroke="black" points="350.89,-603.11 358.35,-610.63 357.22,-600.1 350.89,-603.11"/>
<path fill="none" stroke="black" d="M359,-614C359,-614 374.98,-645.97 385.35,-666.7"/>
</g>
<!-- NASALib/trig&#45;&gt;NASALib/series -->
<g id="edge100" class="edge">
<title>NASALib/trig&#45;&gt;NASALib/series</title>
<path fill="none" stroke="black" d="M250.34,-315.7C264.56,-311.38 279,-307 279,-307 279,-307 382.57,-279.55 440.65,-264.16"/>
<polygon fill="black" stroke="black" points="441.38,-267.59 450.15,-261.65 439.58,-260.82 441.38,-267.59"/>
</g>
<!-- NASALib/vectors&#45;&gt;NASALib/reals -->
<g id="edge101" class="edge">
<title>NASALib/vectors&#45;&gt;NASALib/reals</title>
<path fill="none" stroke="black" d="M391.69,-415.3C396,-428.42 401.78,-446.04 405.45,-457.21"/>
<polygon fill="black" stroke="black" points="402.08,-458.15 408.53,-466.56 408.73,-455.97 402.08,-458.15"/>
<path fill="none" stroke="black" d="M409,-614C409,-614 402.15,-645.97 397.71,-666.7"/>
<path fill="none" stroke="black" d="M409,-470C409,-470 409,-612 409,-612"/>
</g>
<!-- NASALib/vectors&#45;&gt;NASALib/structures -->
<g id="edge102" class="edge">
<title>NASALib/vectors&#45;&gt;NASALib/structures</title>
<path fill="none" stroke="black" d="M386,-378.7C386,-357.97 386,-326 386,-326"/>
</g>
<!-- NASALib/vectors&#45;&gt;NASALib/trig -->
<g id="edge103" class="edge">
<title>NASALib/vectors&#45;&gt;NASALib/trig</title>
<path fill="none" stroke="black" d="M357.61,-383.81C330.72,-372.26 290.17,-354.85 260.6,-342.15"/>
<polygon fill="black" stroke="black" points="262.21,-339.03 251.64,-338.3 259.45,-345.46 262.21,-339.03"/>
</g>
</g>
</svg>
