<?xml version="1.0" encoding="UTF-8" standalone="no"?>
<!DOCTYPE svg PUBLIC "-//W3C//DTD SVG 1.1//EN"
 "http://www.w3.org/Graphics/SVG/1.1/DTD/svg11.dtd">
<!-- Generated by graphviz version 7.0.6 (20230106.0513)
 -->
<!-- Title: float Pages: 1 -->
<svg width="930pt" height="966pt"
 viewBox="0.00 0.00 930.00 966.00" xmlns="http://www.w3.org/2000/svg" xmlns:xlink="http://www.w3.org/1999/xlink">
<g id="graph0" class="graph" transform="scale(1 1) rotate(0) translate(4 962)">
<title>float</title>
<polygon fill="white" stroke="none" points="-4,4 -4,-962 926,-962 926,4 -4,4"/>
<g id="clust1" class="cluster">
<title>cluster_NASALib</title>
<polygon fill="none" stroke="black" points="8,-8 8,-950 818,-950 818,-8 8,-8"/>
<text text-anchor="middle" x="413" y="-934.8" font-family="Times,serif" font-size="14.00">NASALib</text>
</g>
<g id="clust2" class="cluster">
<title>cluster_PVS Prelude</title>
<polygon fill="none" stroke="black" points="826,-8 826,-83 914,-83 914,-8 826,-8"/>
<text text-anchor="middle" x="870" y="-67.8" font-family="Times,serif" font-size="14.00">PVS Prelude</text>
</g>
<!-- NASALib/analysis -->
<g id="node1" class="node">
<title>NASALib/analysis</title>
<polygon fill="#fcfcd7" stroke="black" points="279,-775 219,-775 219,-739 279,-739 279,-775"/>
<text text-anchor="middle" x="249" y="-753.3" font-family="Times,serif" font-size="14.00">analysis</text>
</g>
<!-- NASALib/ints -->
<g id="node5" class="node">
<title>NASALib/ints</title>
<polygon fill="#fcfcd7" stroke="black" points="538,-52 484,-52 484,-16 538,-16 538,-52"/>
<text text-anchor="middle" x="511" y="-30.3" font-family="Times,serif" font-size="14.00">ints</text>
</g>
<!-- NASALib/analysis&#45;&gt;NASALib/ints -->
<g id="edge1" class="edge">
<title>NASALib/analysis&#45;&gt;NASALib/ints</title>
<path fill="none" stroke="black" d="M238.62,-738.52C209.98,-690.3 132,-559 132,-559 132,-559 78,-415 78,-415 78,-415 73,-343 73,-343 73,-343 73,-307 73,-307 73,-307 127,-254 127,-254"/>
</g>
<!-- NASALib/orders -->
<g id="node10" class="node">
<title>NASALib/orders</title>
<polygon fill="#fcfcd7" stroke="black" points="638,-199 584,-199 584,-163 638,-163 638,-199"/>
<text text-anchor="middle" x="611" y="-177.3" font-family="Times,serif" font-size="14.00">orders</text>
</g>
<!-- NASALib/analysis&#45;&gt;NASALib/orders -->
<g id="edge2" class="edge">
<title>NASALib/analysis&#45;&gt;NASALib/orders</title>
<path fill="none" stroke="black" d="M279.47,-753.04C394.24,-741.88 794,-703 794,-703 794,-703 809,-542 809,-542"/>
<path fill="none" stroke="black" d="M809,-540C809,-540 789,-254 789,-254"/>
<path fill="none" stroke="black" d="M789,-252C789,-252 701.28,-217.5 649,-196.94"/>
<polygon fill="black" stroke="black" points="650.42,-193.74 639.83,-193.34 647.86,-200.26 650.42,-193.74"/>
</g>
<!-- NASALib/reals -->
<g id="node12" class="node">
<title>NASALib/reals</title>
<polygon fill="#fcfcd7" stroke="black" points="324,-703 270,-703 270,-667 324,-667 324,-703"/>
<text text-anchor="middle" x="297" y="-681.3" font-family="Times,serif" font-size="14.00">reals</text>
</g>
<!-- NASALib/analysis&#45;&gt;NASALib/reals -->
<g id="edge3" class="edge">
<title>NASALib/analysis&#45;&gt;NASALib/reals</title>
<path fill="none" stroke="black" d="M260.87,-738.7C266.27,-730.81 272.79,-721.3 278.8,-712.55"/>
<polygon fill="black" stroke="black" points="281.65,-714.58 284.42,-704.35 275.87,-710.62 281.65,-714.58"/>
</g>
<!-- NASALib/structures -->
<g id="node16" class="node">
<title>NASALib/structures</title>
<polygon fill="#fcfcd7" stroke="black" points="545.5,-127 476.5,-127 476.5,-91 545.5,-91 545.5,-127"/>
<text text-anchor="middle" x="511" y="-105.3" font-family="Times,serif" font-size="14.00">structures</text>
</g>
<!-- NASALib/analysis&#45;&gt;NASALib/structures -->
<g id="edge4" class="edge">
<title>NASALib/analysis&#45;&gt;NASALib/structures</title>
<path fill="none" stroke="black" d="M789,-252C789,-252 789,-182 789,-182"/>
</g>
<!-- lib/finite_sets -->
<g id="node20" class="node">
<title>lib/finite_sets</title>
<polygon fill="#fcfcd7" stroke="black" points="906,-52 834,-52 834,-16 906,-16 906,-52"/>
<text text-anchor="middle" x="870" y="-30.3" font-family="Times,serif" font-size="14.00">finite_sets</text>
</g>
<!-- NASALib/analysis&#45;&gt;lib/finite_sets -->
<g id="edge5" class="edge">
<title>NASALib/analysis&#45;&gt;lib/finite_sets</title>
<path fill="none" stroke="black" d="M809,-540C809,-540 838,-470 838,-470"/>
</g>
<!-- NASALib/extended_nnreal -->
<g id="node2" class="node">
<title>NASALib/extended_nnreal</title>
<polygon fill="#fcfcd7" stroke="black" points="690,-487 584,-487 584,-451 690,-451 690,-487"/>
<text text-anchor="middle" x="637" y="-465.3" font-family="Times,serif" font-size="14.00">extended_nnreal</text>
</g>
<!-- NASALib/extended_nnreal&#45;&gt;NASALib/analysis -->
<g id="edge6" class="edge">
<title>NASALib/extended_nnreal&#45;&gt;NASALib/analysis</title>
<path fill="none" stroke="black" d="M655.64,-487.41C688.93,-518.52 757.34,-582.43 780.85,-604.39"/>
<polygon fill="black" stroke="black" points="778.2,-606.7 787.89,-610.97 782.98,-601.58 778.2,-606.7"/>
<path fill="none" stroke="black" d="M789,-614C789,-614 789,-684 789,-684"/>
</g>
<!-- NASALib/extended_nnreal&#45;&gt;NASALib/reals -->
<g id="edge7" class="edge">
<title>NASALib/extended_nnreal&#45;&gt;NASALib/reals</title>
<path fill="none" stroke="black" d="M628.32,-487.16C615.25,-513.02 592,-559 592,-559 592,-559 545,-631 545,-631 545,-631 405.07,-660.9 335.43,-675.79"/>
<polygon fill="black" stroke="black" points="335.02,-672.3 325.97,-677.81 336.48,-679.14 335.02,-672.3"/>
</g>
<!-- NASALib/series -->
<g id="node13" class="node">
<title>NASALib/series</title>
<polygon fill="#fcfcd7" stroke="black" points="248,-271 194,-271 194,-235 248,-235 248,-271"/>
<text text-anchor="middle" x="221" y="-249.3" font-family="Times,serif" font-size="14.00">series</text>
</g>
<!-- NASALib/extended_nnreal&#45;&gt;NASALib/series -->
<g id="edge8" class="edge">
<title>NASALib/extended_nnreal&#45;&gt;NASALib/series</title>
<path fill="none" stroke="black" d="M621.19,-450.84C597.36,-424.98 555,-379 555,-379 555,-379 456,-343 456,-343 456,-343 441,-326 441,-326"/>
</g>
<!-- NASALib/sigma_set -->
<g id="node15" class="node">
<title>NASALib/sigma_set</title>
<polygon fill="#fcfcd7" stroke="black" points="715.5,-415 644.5,-415 644.5,-379 715.5,-379 715.5,-415"/>
<text text-anchor="middle" x="680" y="-393.3" font-family="Times,serif" font-size="14.00">sigma_set</text>
</g>
<!-- NASALib/extended_nnreal&#45;&gt;NASALib/sigma_set -->
<g id="edge9" class="edge">
<title>NASALib/extended_nnreal&#45;&gt;NASALib/sigma_set</title>
<path fill="none" stroke="black" d="M647.63,-450.7C652.42,-442.9 658.19,-433.51 663.52,-424.83"/>
<polygon fill="black" stroke="black" points="666.45,-426.75 668.7,-416.39 660.48,-423.08 666.45,-426.75"/>
</g>
<!-- NASALib/float -->
<g id="node3" class="node">
<title>NASALib/float</title>
<polygon fill="#f7e28d" stroke="black" points="224,-919 170,-919 170,-883 224,-883 224,-919"/>
<text text-anchor="middle" x="197" y="-897.3" font-family="Times,serif" font-size="14.00">float</text>
</g>
<!-- NASALib/float&#45;&gt;NASALib/analysis -->
<g id="edge10" class="edge">
<title>NASALib/float&#45;&gt;NASALib/analysis</title>
<path fill="none" stroke="black" d="M298,-828C298,-828 281.47,-804.39 267.62,-784.6"/>
<polygon fill="black" stroke="black" points="270.58,-782.73 261.98,-776.54 264.85,-786.74 270.58,-782.73"/>
<path fill="none" stroke="black" d="M222.23,-882.52C252.14,-861.78 298,-830 298,-830"/>
</g>
<!-- NASALib/interval_arith -->
<g id="node4" class="node">
<title>NASALib/interval_arith</title>
<polygon fill="#fcfcd7" stroke="black" points="241.5,-847 152.5,-847 152.5,-811 241.5,-811 241.5,-847"/>
<text text-anchor="middle" x="197" y="-825.3" font-family="Times,serif" font-size="14.00">interval_arith</text>
</g>
<!-- NASALib/float&#45;&gt;NASALib/interval_arith -->
<g id="edge11" class="edge">
<title>NASALib/float&#45;&gt;NASALib/interval_arith</title>
<path fill="none" stroke="black" d="M197,-882.7C197,-875.41 197,-866.73 197,-858.54"/>
<polygon fill="black" stroke="black" points="200.5,-858.62 197,-848.62 193.5,-858.62 200.5,-858.62"/>
</g>
<!-- NASALib/float&#45;&gt;NASALib/ints -->
<g id="edge12" class="edge">
<title>NASALib/float&#45;&gt;NASALib/ints</title>
<path fill="none" stroke="black" d="M172.02,-882.52C142.4,-861.78 97,-830 97,-830"/>
<path fill="none" stroke="black" d="M127,-252C127,-252 221,-182 221,-182"/>
<path fill="none" stroke="black" d="M221,-180C221,-180 395.5,-92.75 473.78,-53.61"/>
<polygon fill="black" stroke="black" points="474.98,-56.92 482.36,-49.32 471.85,-50.66 474.98,-56.92"/>
<path fill="none" stroke="black" d="M17,-612C17,-612 37,-542 37,-542"/>
<path fill="none" stroke="black" d="M97,-828C97,-828 17,-614 17,-614"/>
<path fill="none" stroke="black" d="M37,-540C37,-540 66,-307 66,-307 66,-307 127,-254 127,-254"/>
</g>
<!-- NASALib/lnexp -->
<g id="node7" class="node">
<title>NASALib/lnexp</title>
<polygon fill="#fcfcd7" stroke="black" points="136,-343 82,-343 82,-307 136,-307 136,-343"/>
<text text-anchor="middle" x="109" y="-321.3" font-family="Times,serif" font-size="14.00">lnexp</text>
</g>
<!-- NASALib/float&#45;&gt;NASALib/lnexp -->
<g id="edge13" class="edge">
<title>NASALib/float&#45;&gt;NASALib/lnexp</title>
<path fill="none" stroke="black" d="M83,-396C83,-396 91.37,-373.45 98.62,-353.95"/>
<polygon fill="black" stroke="black" points="101.85,-355.32 102.05,-344.72 95.28,-352.88 101.85,-355.32"/>
<path fill="none" stroke="black" d="M57,-468C57,-468 83,-398 83,-398"/>
</g>
<!-- NASALib/float&#45;&gt;NASALib/reals -->
<g id="edge14" class="edge">
<title>NASALib/float&#45;&gt;NASALib/reals</title>
<path fill="none" stroke="black" d="M298,-828C298,-828 297.49,-756.2 297.2,-714.71"/>
<polygon fill="black" stroke="black" points="300.7,-714.9 297.13,-704.93 293.7,-714.95 300.7,-714.9"/>
</g>
<!-- NASALib/float&#45;&gt;NASALib/structures -->
<g id="edge15" class="edge">
<title>NASALib/float&#45;&gt;NASALib/structures</title>
<path fill="none" stroke="black" d="M57,-468C57,-468 73,-307 73,-307 73,-307 165,-254 165,-254"/>
<path fill="none" stroke="black" d="M165,-252C165,-252 185,-235 185,-235 185,-235 461,-182 461,-182"/>
<path fill="none" stroke="black" d="M461,-180C461,-180 477.86,-156.39 492,-136.6"/>
<polygon fill="black" stroke="black" points="494.8,-138.71 497.76,-128.53 489.1,-134.64 494.8,-138.71"/>
<path fill="none" stroke="black" d="M17,-612C17,-612 42,-559 42,-559 42,-559 57,-470 57,-470"/>
</g>
<!-- NASALib/trig -->
<g id="node18" class="node">
<title>NASALib/trig</title>
<polygon fill="#fcfcd7" stroke="black" points="248,-343 194,-343 194,-307 248,-307 248,-343"/>
<text text-anchor="middle" x="221" y="-321.3" font-family="Times,serif" font-size="14.00">trig</text>
</g>
<!-- NASALib/float&#45;&gt;NASALib/trig -->
<g id="edge16" class="edge">
<title>NASALib/float&#45;&gt;NASALib/trig</title>
<path fill="none" stroke="black" d="M97,-828C97,-828 207,-379 207,-379 207,-379 210.19,-366.92 213.52,-354.3"/>
<polygon fill="black" stroke="black" points="216.86,-355.38 216.03,-344.82 210.09,-353.59 216.86,-355.38"/>
</g>
<!-- NASALib/interval_arith&#45;&gt;NASALib/analysis -->
<g id="edge17" class="edge">
<title>NASALib/interval_arith&#45;&gt;NASALib/analysis</title>
<path fill="none" stroke="black" d="M209.85,-810.7C215.77,-802.73 222.93,-793.1 229.49,-784.26"/>
<polygon fill="black" stroke="black" points="232.24,-786.43 235.39,-776.32 226.62,-782.26 232.24,-786.43"/>
</g>
<!-- NASALib/interval_arith&#45;&gt;NASALib/ints -->
<g id="edge18" class="edge">
<title>NASALib/interval_arith&#45;&gt;NASALib/ints</title>
<path fill="none" stroke="black" d="M184.21,-810.62C158.93,-776.27 105,-703 105,-703 105,-703 37,-542 37,-542"/>
</g>
<!-- NASALib/interval_arith&#45;&gt;NASALib/lnexp -->
<g id="edge19" class="edge">
<title>NASALib/interval_arith&#45;&gt;NASALib/lnexp</title>
<path fill="none" stroke="black" d="M197,-756C197,-756 112,-703 112,-703 112,-703 83,-398 83,-398"/>
<path fill="none" stroke="black" d="M197,-810.7C197,-789.97 197,-758 197,-758"/>
</g>
<!-- NASALib/interval_arith&#45;&gt;NASALib/reals -->
<g id="edge20" class="edge">
<title>NASALib/interval_arith&#45;&gt;NASALib/reals</title>
<path fill="none" stroke="black" d="M197,-756C197,-756 210,-739 210,-739 210,-739 236.58,-722.81 260.36,-708.32"/>
<polygon fill="black" stroke="black" points="261.94,-711.46 268.66,-703.27 258.3,-705.48 261.94,-711.46"/>
</g>
<!-- NASALib/interval_arith&#45;&gt;NASALib/structures -->
<g id="edge21" class="edge">
<title>NASALib/interval_arith&#45;&gt;NASALib/structures</title>
<path fill="none" stroke="black" d="M197,-612C197,-612 165,-254 165,-254"/>
<path fill="none" stroke="black" d="M197,-756C197,-756 197,-614 197,-614"/>
</g>
<!-- NASALib/interval_arith&#45;&gt;NASALib/trig -->
<g id="edge22" class="edge">
<title>NASALib/interval_arith&#45;&gt;NASALib/trig</title>
<path fill="none" stroke="black" d="M197,-612C197,-612 214,-379 214,-379 214,-379 215.56,-367.17 217.21,-354.68"/>
<polygon fill="black" stroke="black" points="220.67,-355.23 218.51,-344.85 213.73,-354.31 220.67,-355.23"/>
</g>
<!-- NASALib/lebesgue -->
<g id="node6" class="node">
<title>NASALib/lebesgue</title>
<polygon fill="#fcfcd7" stroke="black" points="536,-631 472,-631 472,-595 536,-595 536,-631"/>
<text text-anchor="middle" x="504" y="-609.3" font-family="Times,serif" font-size="14.00">lebesgue</text>
</g>
<!-- NASALib/lebesgue&#45;&gt;NASALib/analysis -->
<g id="edge23" class="edge">
<title>NASALib/lebesgue&#45;&gt;NASALib/analysis</title>
<path fill="none" stroke="black" d="M789,-686C789,-686 392.91,-737.34 279.19,-752.09"/>
<path fill="none" stroke="black" d="M536.42,-621.96C599.88,-637.55 737.83,-671.43 777.89,-681.27"/>
<polygon fill="black" stroke="black" points="776.98,-684.65 787.53,-683.64 778.65,-677.85 776.98,-684.65"/>
</g>
<!-- NASALib/lebesgue&#45;&gt;NASALib/extended_nnreal -->
<g id="edge24" class="edge">
<title>NASALib/lebesgue&#45;&gt;NASALib/extended_nnreal</title>
<path fill="none" stroke="black" d="M587,-540C587,-540 603.86,-516.39 618,-496.6"/>
<polygon fill="black" stroke="black" points="620.8,-498.71 623.76,-488.53 615.1,-494.64 620.8,-498.71"/>
</g>
<!-- NASALib/measure_integration -->
<g id="node8" class="node">
<title>NASALib/measure_integration</title>
<polygon fill="#fcfcd7" stroke="black" points="568,-559 440,-559 440,-523 568,-523 568,-559"/>
<text text-anchor="middle" x="504" y="-537.3" font-family="Times,serif" font-size="14.00">measure_integration</text>
</g>
<!-- NASALib/lebesgue&#45;&gt;NASALib/measure_integration -->
<g id="edge25" class="edge">
<title>NASALib/lebesgue&#45;&gt;NASALib/measure_integration</title>
<path fill="none" stroke="black" d="M504,-594.7C504,-587.41 504,-578.73 504,-570.54"/>
<polygon fill="black" stroke="black" points="507.5,-570.62 504,-560.62 500.5,-570.62 507.5,-570.62"/>
</g>
<!-- NASALib/metric_space -->
<g id="node9" class="node">
<title>NASALib/metric_space</title>
<polygon fill="#fcfcd7" stroke="black" points="445.5,-487 356.5,-487 356.5,-451 445.5,-451 445.5,-487"/>
<text text-anchor="middle" x="401" y="-465.3" font-family="Times,serif" font-size="14.00">metric_space</text>
</g>
<!-- NASALib/lebesgue&#45;&gt;NASALib/metric_space -->
<g id="edge26" class="edge">
<title>NASALib/lebesgue&#45;&gt;NASALib/metric_space</title>
<path fill="none" stroke="black" d="M401,-540C401,-540 401,-518.08 401,-498.77"/>
<polygon fill="black" stroke="black" points="404.5,-498.82 401,-488.82 397.5,-498.82 404.5,-498.82"/>
</g>
<!-- NASALib/power -->
<g id="node11" class="node">
<title>NASALib/power</title>
<polygon fill="#fcfcd7" stroke="black" points="308,-415 254,-415 254,-379 308,-379 308,-415"/>
<text text-anchor="middle" x="281" y="-393.3" font-family="Times,serif" font-size="14.00">power</text>
</g>
<!-- NASALib/lebesgue&#45;&gt;NASALib/power -->
<g id="edge27" class="edge">
<title>NASALib/lebesgue&#45;&gt;NASALib/power</title>
<path fill="none" stroke="black" d="M478.27,-594.52C447.77,-573.78 401,-542 401,-542"/>
<path fill="none" stroke="black" d="M401,-540C401,-540 318,-487 318,-487 318,-487 303.37,-451.8 292.5,-425.67"/>
<polygon fill="black" stroke="black" points="295.79,-424.45 288.71,-416.56 289.32,-427.14 295.79,-424.45"/>
</g>
<!-- NASALib/sets_aux -->
<g id="node14" class="node">
<title>NASALib/sets_aux</title>
<polygon fill="#fcfcd7" stroke="black" points="596.5,-343 533.5,-343 533.5,-307 596.5,-307 596.5,-343"/>
<text text-anchor="middle" x="565" y="-321.3" font-family="Times,serif" font-size="14.00">sets_aux</text>
</g>
<!-- NASALib/lebesgue&#45;&gt;NASALib/sets_aux -->
<g id="edge29" class="edge">
<title>NASALib/lebesgue&#45;&gt;NASALib/sets_aux</title>
<path fill="none" stroke="black" d="M587,-540C587,-540 575,-487 575,-487 575,-487 565,-398 565,-398"/>
</g>
<!-- NASALib/lebesgue&#45;&gt;NASALib/sigma_set -->
<g id="edge30" class="edge">
<title>NASALib/lebesgue&#45;&gt;NASALib/sigma_set</title>
<path fill="none" stroke="black" d="M587,-540C587,-540 699,-487 699,-487 699,-487 699,-451 699,-451 699,-451 694.58,-438.68 690.01,-425.92"/>
<polygon fill="black" stroke="black" points="693.4,-425.01 686.73,-416.78 686.81,-427.37 693.4,-425.01"/>
</g>
<!-- NASALib/lebesgue&#45;&gt;NASALib/structures -->
<g id="edge31" class="edge">
<title>NASALib/lebesgue&#45;&gt;NASALib/structures</title>
<path fill="none" stroke="black" d="M461,-324C461,-324 461,-182 461,-182"/>
<path fill="none" stroke="black" d="M401,-540C401,-540 455,-487 455,-487 455,-487 456,-379 456,-379 456,-379 461,-326 461,-326"/>
</g>
<!-- NASALib/topology -->
<g id="node17" class="node">
<title>NASALib/topology</title>
<polygon fill="#fcfcd7" stroke="black" points="545.5,-415 480.5,-415 480.5,-379 545.5,-379 545.5,-415"/>
<text text-anchor="middle" x="513" y="-393.3" font-family="Times,serif" font-size="14.00">topology</text>
</g>
<!-- NASALib/lebesgue&#45;&gt;NASALib/topology -->
<g id="edge32" class="edge">
<title>NASALib/lebesgue&#45;&gt;NASALib/topology</title>
<path fill="none" stroke="black" d="M587,-540C587,-540 577,-523 577,-523 577,-523 525,-470 525,-470"/>
<path fill="none" stroke="black" d="M527.9,-594.65C549.19,-579.19 577,-559 577,-559 577,-559 587,-542 587,-542"/>
</g>
<!-- NASALib/lnexp&#45;&gt;NASALib/analysis -->
<g id="edge33" class="edge">
<title>NASALib/lnexp&#45;&gt;NASALib/analysis</title>
<path fill="none" stroke="black" d="M257,-614C257,-614 251,-684 251,-684"/>
<path fill="none" stroke="black" d="M251,-686C251,-686 250.09,-717.97 249.49,-738.7"/>
<path fill="none" stroke="black" d="M113.63,-343.13C128.18,-396.94 172,-559 172,-559 172,-559 224.92,-592 247.25,-605.92"/>
<polygon fill="black" stroke="black" points="245.38,-608.88 255.72,-611.2 249.08,-602.94 245.38,-608.88"/>
</g>
<!-- NASALib/lnexp&#45;&gt;NASALib/ints -->
<g id="edge34" class="edge">
<title>NASALib/lnexp&#45;&gt;NASALib/ints</title>
<path fill="none" stroke="black" d="M113.45,-306.7C118.78,-285.97 127,-254 127,-254"/>
</g>
<!-- NASALib/lnexp&#45;&gt;NASALib/reals -->
<g id="edge35" class="edge">
<title>NASALib/lnexp&#45;&gt;NASALib/reals</title>
<path fill="none" stroke="black" d="M257,-614C257,-614 275.27,-645.97 287.11,-666.7"/>
</g>
<!-- NASALib/lnexp&#45;&gt;NASALib/series -->
<g id="edge36" class="edge">
<title>NASALib/lnexp&#45;&gt;NASALib/series</title>
<path fill="none" stroke="black" d="M136.4,-306.88C150.88,-297.83 168.85,-286.6 184.49,-276.82"/>
<polygon fill="black" stroke="black" points="185.98,-280.02 192.6,-271.75 182.27,-274.08 185.98,-280.02"/>
</g>
<!-- NASALib/measure_integration&#45;&gt;NASALib/extended_nnreal -->
<g id="edge37" class="edge">
<title>NASALib/measure_integration&#45;&gt;NASALib/extended_nnreal</title>
<path fill="none" stroke="black" d="M537.22,-522.52C554.49,-513.43 575.79,-502.22 594.27,-492.49"/>
<polygon fill="black" stroke="black" points="595.65,-495.72 602.87,-487.97 592.39,-489.53 595.65,-495.72"/>
</g>
<!-- NASALib/measure_integration&#45;&gt;NASALib/metric_space -->
<g id="edge38" class="edge">
<title>NASALib/measure_integration&#45;&gt;NASALib/metric_space</title>
<path fill="none" stroke="black" d="M478.27,-522.52C465.4,-513.76 449.62,-503.04 435.69,-493.58"/>
<polygon fill="black" stroke="black" points="437.89,-490.84 427.65,-488.11 433.95,-496.63 437.89,-490.84"/>
</g>
<!-- NASALib/measure_integration&#45;&gt;NASALib/orders -->
<g id="edge39" class="edge">
<title>NASALib/measure_integration&#45;&gt;NASALib/orders</title>
<path fill="none" stroke="black" d="M680,-324C680,-324 644.51,-250.97 624.44,-209.65"/>
<polygon fill="black" stroke="black" points="627.64,-208.24 620.12,-200.77 621.34,-211.3 627.64,-208.24"/>
<path fill="none" stroke="black" d="M545,-468C545,-468 680,-326 680,-326"/>
</g>
<!-- NASALib/measure_integration&#45;&gt;NASALib/power -->
<g id="edge40" class="edge">
<title>NASALib/measure_integration&#45;&gt;NASALib/power</title>
<path fill="none" stroke="black" d="M452.92,-522.65C407.42,-507.19 348,-487 348,-487 348,-487 320.55,-450.53 300.79,-424.28"/>
<polygon fill="black" stroke="black" points="303.64,-422.25 294.83,-416.37 298.05,-426.46 303.64,-422.25"/>
</g>
<!-- NASALib/measure_integration&#45;&gt;NASALib/reals -->
<g id="edge41" class="edge">
<title>NASALib/measure_integration&#45;&gt;NASALib/reals</title>
<path fill="none" stroke="black" d="M483.48,-559.3C466.2,-573.88 442.33,-594.01 429.68,-604.68"/>
<polygon fill="black" stroke="black" points="427.54,-601.9 422.16,-611.02 432.06,-607.25 427.54,-601.9"/>
</g>
<!-- NASALib/measure_integration&#45;&gt;NASALib/series -->
<g id="edge42" class="edge">
<title>NASALib/measure_integration&#45;&gt;NASALib/series</title>
<path fill="none" stroke="black" d="M498.73,-522.59C487.25,-484.67 461,-398 461,-398"/>
<path fill="none" stroke="black" d="M461,-396C461,-396 441,-326 441,-326"/>
</g>
<!-- NASALib/measure_integration&#45;&gt;NASALib/sets_aux -->
<g id="edge43" class="edge">
<title>NASALib/measure_integration&#45;&gt;NASALib/sets_aux</title>
<path fill="none" stroke="black" d="M565,-396C565,-396 565,-374.08 565,-354.77"/>
<polygon fill="black" stroke="black" points="568.5,-354.82 565,-344.82 561.5,-354.82 568.5,-354.82"/>
<path fill="none" stroke="black" d="M545,-468C545,-468 565,-398 565,-398"/>
<path fill="none" stroke="black" d="M514.13,-522.7C526.28,-501.97 545,-470 545,-470"/>
</g>
<!-- NASALib/measure_integration&#45;&gt;NASALib/sigma_set -->
<g id="edge44" class="edge">
<title>NASALib/measure_integration&#45;&gt;NASALib/sigma_set</title>
<path fill="none" stroke="black" d="M545,-468C545,-468 575,-451 575,-451 575,-451 607,-434.85 635.68,-420.37"/>
<polygon fill="black" stroke="black" points="636.92,-423.67 644.27,-416.04 633.76,-417.42 636.92,-423.67"/>
</g>
<!-- NASALib/measure_integration&#45;&gt;NASALib/structures -->
<g id="edge45" class="edge">
<title>NASALib/measure_integration&#45;&gt;NASALib/structures</title>
<path fill="none" stroke="black" d="M461,-396C461,-396 461,-326 461,-326"/>
</g>
<!-- NASALib/measure_integration&#45;&gt;NASALib/topology -->
<g id="edge46" class="edge">
<title>NASALib/measure_integration&#45;&gt;NASALib/topology</title>
<path fill="none" stroke="black" d="M509.19,-522.7C515.41,-501.97 525,-470 525,-470"/>
<path fill="none" stroke="black" d="M525,-468C525,-468 521.21,-445.87 517.88,-426.5"/>
<polygon fill="black" stroke="black" points="521.36,-426.06 516.22,-416.8 514.46,-427.24 521.36,-426.06"/>
</g>
<!-- NASALib/measure_integration&#45;&gt;lib/finite_sets -->
<g id="edge47" class="edge">
<title>NASALib/measure_integration&#45;&gt;lib/finite_sets</title>
<path fill="none" stroke="black" d="M568.41,-525.96C576.5,-524.2 582,-523 582,-523 582,-523 822,-487 822,-487 822,-487 838,-470 838,-470"/>
<path fill="none" stroke="black" d="M838,-468C838,-468 838,-398 838,-398"/>
</g>
<!-- NASALib/metric_space&#45;&gt;NASALib/analysis -->
<g id="edge48" class="edge">
<title>NASALib/metric_space&#45;&gt;NASALib/analysis</title>
<path fill="none" stroke="black" d="M371.86,-487.35C345.9,-502.81 312,-523 312,-523 312,-523 290.42,-577.87 281.15,-601.44"/>
<polygon fill="black" stroke="black" points="277.96,-600 277.55,-610.59 284.47,-602.57 277.96,-600"/>
</g>
<!-- NASALib/metric_space&#45;&gt;NASALib/power -->
<g id="edge49" class="edge">
<title>NASALib/metric_space&#45;&gt;NASALib/power</title>
<path fill="none" stroke="black" d="M371.03,-450.52C354.9,-441.11 334.86,-429.42 317.79,-419.46"/>
<polygon fill="black" stroke="black" points="319.84,-416.61 309.44,-414.59 316.31,-422.65 319.84,-416.61"/>
</g>
<!-- NASALib/metric_space&#45;&gt;NASALib/series -->
<g id="edge51" class="edge">
<title>NASALib/metric_space&#45;&gt;NASALib/series</title>
<path fill="none" stroke="black" d="M405.94,-450.7C411.87,-429.97 421,-398 421,-398"/>
<path fill="none" stroke="black" d="M441,-324C441,-324 322.1,-286.17 259.12,-266.13"/>
<polygon fill="black" stroke="black" points="260.45,-262.88 249.86,-263.18 258.33,-269.55 260.45,-262.88"/>
<path fill="none" stroke="black" d="M421,-396C421,-396 441,-326 441,-326"/>
</g>
<!-- NASALib/metric_space&#45;&gt;NASALib/sets_aux -->
<g id="edge52" class="edge">
<title>NASALib/metric_space&#45;&gt;NASALib/sets_aux</title>
<path fill="none" stroke="black" d="M421,-396C421,-396 480.42,-367.12 522.92,-346.46"/>
<polygon fill="black" stroke="black" points="524.22,-349.72 531.68,-342.2 521.16,-343.42 524.22,-349.72"/>
</g>
<!-- NASALib/metric_space&#45;&gt;NASALib/topology -->
<g id="edge53" class="edge">
<title>NASALib/metric_space&#45;&gt;NASALib/topology</title>
<path fill="none" stroke="black" d="M428.97,-450.52C443.11,-441.68 460.46,-430.84 475.72,-421.3"/>
<polygon fill="black" stroke="black" points="477.47,-424.33 484.1,-416.06 473.76,-418.39 477.47,-424.33"/>
</g>
<!-- NASALib/vectors -->
<g id="node19" class="node">
<title>NASALib/vectors</title>
<polygon fill="#fcfcd7" stroke="black" points="382,-415 326,-415 326,-379 382,-379 382,-415"/>
<text text-anchor="middle" x="354" y="-393.3" font-family="Times,serif" font-size="14.00">vectors</text>
</g>
<!-- NASALib/metric_space&#45;&gt;NASALib/vectors -->
<g id="edge54" class="edge">
<title>NASALib/metric_space&#45;&gt;NASALib/vectors</title>
<path fill="none" stroke="black" d="M389.38,-450.7C384.09,-442.81 377.7,-433.3 371.82,-424.55"/>
<polygon fill="black" stroke="black" points="374.81,-422.71 366.33,-416.36 369,-426.61 374.81,-422.71"/>
</g>
<!-- NASALib/metric_space&#45;&gt;lib/finite_sets -->
<g id="edge55" class="edge">
<title>NASALib/metric_space&#45;&gt;lib/finite_sets</title>
<path fill="none" stroke="black" d="M838,-396C838,-396 838,-254 838,-254"/>
<path fill="none" stroke="black" d="M445.71,-460.84C557.09,-443 838,-398 838,-398"/>
</g>
<!-- NASALib/orders&#45;&gt;NASALib/structures -->
<g id="edge56" class="edge">
<title>NASALib/orders&#45;&gt;NASALib/structures</title>
<path fill="none" stroke="black" d="M586.02,-162.52C573.64,-153.85 558.5,-143.25 545.07,-133.85"/>
<polygon fill="black" stroke="black" points="547.1,-131 536.9,-128.13 543.08,-136.73 547.1,-131"/>
</g>
<!-- NASALib/orders&#45;&gt;lib/finite_sets -->
<g id="edge57" class="edge">
<title>NASALib/orders&#45;&gt;lib/finite_sets</title>
<path fill="none" stroke="black" d="M838,-108C838,-108 848.84,-83.26 857.91,-62.59"/>
<polygon fill="black" stroke="black" points="861,-64.25 861.81,-53.69 854.59,-61.44 861,-64.25"/>
<path fill="none" stroke="black" d="M638.38,-171.56C698.76,-152.94 838,-110 838,-110"/>
</g>
<!-- NASALib/power&#45;&gt;NASALib/analysis -->
<g id="edge58" class="edge">
<title>NASALib/power&#45;&gt;NASALib/analysis</title>
<path fill="none" stroke="black" d="M270.12,-415.3C261.57,-428.91 249.98,-447.35 243.02,-458.42"/>
<polygon fill="black" stroke="black" points="240.16,-456.39 237.81,-466.72 246.09,-460.11 240.16,-456.39"/>
</g>
<!-- NASALib/power&#45;&gt;NASALib/lnexp -->
<g id="edge59" class="edge">
<title>NASALib/power&#45;&gt;NASALib/lnexp</title>
<path fill="none" stroke="black" d="M253.75,-384.91C224.9,-373.17 179.15,-354.55 146.82,-341.39"/>
<polygon fill="black" stroke="black" points="148.39,-338.25 137.81,-337.73 145.76,-344.74 148.39,-338.25"/>
</g>
<!-- NASALib/power&#45;&gt;NASALib/reals -->
<g id="edge60" class="edge">
<title>NASALib/power&#45;&gt;NASALib/reals</title>
<path fill="none" stroke="black" d="M278.05,-415.35C275.43,-430.81 272,-451 272,-451 272,-451 262.94,-504.78 258.9,-528.73"/>
<polygon fill="black" stroke="black" points="255.46,-528.06 257.25,-538.51 262.36,-529.23 255.46,-528.06"/>
</g>
<!-- NASALib/reals&#45;&gt;NASALib/ints -->
<g id="edge61" class="edge">
<title>NASALib/reals&#45;&gt;NASALib/ints</title>
<path fill="none" stroke="black" d="M294.11,-666.84C289.75,-640.98 282,-595 282,-595 282,-595 252,-559 252,-559 252,-559 212,-487 212,-487 212,-487 127,-254 127,-254"/>
</g>
<!-- NASALib/reals&#45;&gt;NASALib/lebesgue -->
<g id="edge62" class="edge">
<title>NASALib/reals&#45;&gt;NASALib/lebesgue</title>
<path fill="none" stroke="black" d="M335.19,-671.09C370.86,-659.02 424.03,-641.04 461.14,-628.49"/>
<polygon fill="black" stroke="black" points="334.27,-667.7 325.92,-674.22 336.52,-674.33 334.27,-667.7"/>
<polygon fill="black" stroke="black" points="461.84,-631.95 470.19,-625.43 459.6,-625.32 461.84,-631.95"/>
</g>
<!-- NASALib/reals&#45;&gt;NASALib/metric_space -->
<g id="edge63" class="edge">
<title>NASALib/reals&#45;&gt;NASALib/metric_space</title>
<path fill="none" stroke="black" d="M310.26,-656.71C330.22,-615.65 367.75,-538.42 387.72,-497.33"/>
<polygon fill="black" stroke="black" points="307.22,-654.96 306,-665.49 313.52,-658.02 307.22,-654.96"/>
<polygon fill="black" stroke="black" points="390.74,-499.12 391.96,-488.59 384.44,-496.06 390.74,-499.12"/>
</g>
<!-- NASALib/reals&#45;&gt;NASALib/sets_aux -->
<g id="edge64" class="edge">
<title>NASALib/reals&#45;&gt;NASALib/sets_aux</title>
<path fill="none" stroke="black" d="M324.26,-678.53C391.71,-664.99 561,-631 561,-631 561,-631 699,-487 699,-487 699,-487 699,-451 699,-451 699,-451 636,-415 636,-415 636,-415 606.65,-378.21 585.69,-351.94"/>
<polygon fill="black" stroke="black" points="588.61,-349.98 579.63,-344.34 583.13,-354.34 588.61,-349.98"/>
</g>
<!-- NASALib/reals&#45;&gt;NASALib/structures -->
<g id="edge65" class="edge">
<title>NASALib/reals&#45;&gt;NASALib/structures</title>
<path fill="none" stroke="black" d="M789,-180C789,-180 636.01,-141.48 557.02,-121.59"/>
<polygon fill="black" stroke="black" points="557.95,-118.21 547.4,-119.16 556.24,-125 557.95,-118.21"/>
<path fill="none" stroke="black" d="M324.49,-680.56C418.45,-668.82 721,-631 721,-631 721,-631 769,-542 769,-542 769,-542 769,-542 769,-324 769,-324 789,-182 789,-182"/>
</g>
<!-- NASALib/series&#45;&gt;NASALib/analysis -->
<g id="edge66" class="edge">
<title>NASALib/series&#45;&gt;NASALib/analysis</title>
<path fill="none" stroke="black" d="M237,-470C237,-470 237,-540 237,-540"/>
<path fill="none" stroke="black" d="M344,-326C344,-326 245,-379 245,-379 245,-379 237,-468 237,-468"/>
<path fill="none" stroke="black" d="M248.3,-269.54C275.48,-285 315.72,-307.91 334.14,-318.39"/>
<polygon fill="black" stroke="black" points="332.26,-321.35 342.68,-323.25 335.72,-315.26 332.26,-321.35"/>
</g>
<!-- NASALib/series&#45;&gt;NASALib/ints -->
<g id="edge67" class="edge">
<title>NASALib/series&#45;&gt;NASALib/ints</title>
<path fill="none" stroke="black" d="M221,-234.7C221,-213.97 221,-182 221,-182"/>
</g>
<!-- NASALib/series&#45;&gt;NASALib/orders -->
<g id="edge68" class="edge">
<title>NASALib/series&#45;&gt;NASALib/orders</title>
<path fill="none" stroke="black" d="M248.39,-247.84C330.66,-235.35 570,-199 570,-199 570,-199 571.37,-198.43 573.62,-197.5"/>
<polygon fill="black" stroke="black" points="574.59,-200.89 582.48,-193.82 571.9,-194.42 574.59,-200.89"/>
</g>
<!-- NASALib/series&#45;&gt;NASALib/reals -->
<g id="edge69" class="edge">
<title>NASALib/series&#45;&gt;NASALib/reals</title>
<path fill="none" stroke="black" d="M344,-326C344,-326 391,-379 391,-379 391,-379 391,-415 391,-415 391,-415 348,-451 348,-451 348,-451 317,-540 317,-540"/>
</g>
<!-- NASALib/sets_aux&#45;&gt;NASALib/ints -->
<g id="edge70" class="edge">
<title>NASALib/sets_aux&#45;&gt;NASALib/ints</title>
<path fill="none" stroke="black" d="M565,-180C565,-180 555,-91 555,-91 555,-91 543.07,-75.81 531.63,-61.25"/>
<polygon fill="black" stroke="black" points="534.55,-59.3 525.62,-53.6 529.04,-63.63 534.55,-59.3"/>
</g>
<!-- NASALib/sets_aux&#45;&gt;NASALib/orders -->
<g id="edge71" class="edge">
<title>NASALib/sets_aux&#45;&gt;NASALib/orders</title>
<path fill="none" stroke="black" d="M565,-252C565,-252 580.37,-228.61 593.35,-208.87"/>
<polygon fill="black" stroke="black" points="596.23,-210.85 598.8,-200.57 590.38,-207 596.23,-210.85"/>
</g>
<!-- NASALib/sets_aux&#45;&gt;NASALib/structures -->
<g id="edge72" class="edge">
<title>NASALib/sets_aux&#45;&gt;NASALib/structures</title>
<path fill="none" stroke="black" d="M565,-252C565,-252 565,-182 565,-182"/>
<path fill="none" stroke="black" d="M565,-180C565,-180 546.62,-156.18 531.31,-136.33"/>
<polygon fill="black" stroke="black" points="534.15,-134.28 525.27,-128.5 528.61,-138.56 534.15,-134.28"/>
<path fill="none" stroke="black" d="M565,-306.7C565,-285.97 565,-254 565,-254"/>
</g>
<!-- NASALib/sets_aux&#45;&gt;lib/finite_sets -->
<g id="edge73" class="edge">
<title>NASALib/sets_aux&#45;&gt;lib/finite_sets</title>
<path fill="none" stroke="black" d="M596.85,-315.83C668.87,-297.37 838,-254 838,-254"/>
<path fill="none" stroke="black" d="M838,-252C838,-252 838,-110 838,-110"/>
</g>
<!-- NASALib/sigma_set&#45;&gt;NASALib/analysis -->
<g id="edge74" class="edge">
<title>NASALib/sigma_set&#45;&gt;NASALib/analysis</title>
<path fill="none" stroke="black" d="M699.32,-415.35C716.53,-430.81 739,-451 739,-451 739,-451 774.43,-565.09 785.64,-601.19"/>
<polygon fill="black" stroke="black" points="782.24,-602.04 788.55,-610.55 788.93,-599.97 782.24,-602.04"/>
</g>
<!-- NASALib/sigma_set&#45;&gt;NASALib/orders -->
<g id="edge75" class="edge">
<title>NASALib/sigma_set&#45;&gt;NASALib/orders</title>
<path fill="none" stroke="black" d="M680,-378.7C680,-357.97 680,-326 680,-326"/>
</g>
<!-- NASALib/sigma_set&#45;&gt;NASALib/reals -->
<g id="edge76" class="edge">
<title>NASALib/sigma_set&#45;&gt;NASALib/reals</title>
<path fill="none" stroke="black" d="M697.68,-415.35C713.43,-430.81 734,-451 734,-451 734,-451 734,-487 734,-487 734,-487 714,-631 714,-631 714,-631 438.76,-665.98 335.51,-679.11"/>
<polygon fill="black" stroke="black" points="335.34,-675.6 325.86,-680.33 336.22,-682.54 335.34,-675.6"/>
</g>
<!-- NASALib/sigma_set&#45;&gt;NASALib/series -->
<g id="edge77" class="edge">
<title>NASALib/sigma_set&#45;&gt;NASALib/series</title>
<path fill="none" stroke="black" d="M665.73,-378.84C644.23,-352.98 606,-307 606,-307 606,-307 356.99,-272.72 259.49,-259.3"/>
<polygon fill="black" stroke="black" points="260.26,-255.87 249.88,-257.98 259.31,-262.81 260.26,-255.87"/>
</g>
<!-- NASALib/sigma_set&#45;&gt;NASALib/sets_aux -->
<g id="edge78" class="edge">
<title>NASALib/sigma_set&#45;&gt;NASALib/sets_aux</title>
<path fill="none" stroke="black" d="M651.28,-378.52C636.62,-369.6 618.61,-358.63 602.84,-349.03"/>
<polygon fill="black" stroke="black" points="605.01,-346.26 594.65,-344.05 601.37,-352.24 605.01,-346.26"/>
</g>
<!-- NASALib/structures&#45;&gt;NASALib/ints -->
<g id="edge79" class="edge">
<title>NASALib/structures&#45;&gt;NASALib/ints</title>
<path fill="none" stroke="black" d="M511,-90.7C511,-82.67 511,-72.9 511,-63.8"/>
<polygon fill="black" stroke="black" points="514.5,-63.94 511,-53.94 507.5,-63.94 514.5,-63.94"/>
</g>
<!-- NASALib/structures&#45;&gt;lib/finite_sets -->
<g id="edge80" class="edge">
<title>NASALib/structures&#45;&gt;lib/finite_sets</title>
<path fill="none" stroke="black" d="M545.77,-105.2C626.92,-98.68 822,-83 822,-83 822,-83 833.17,-71.83 844.73,-60.27"/>
<polygon fill="black" stroke="black" points="847,-62.95 851.6,-53.4 842.05,-58 847,-62.95"/>
</g>
<!-- NASALib/topology&#45;&gt;NASALib/reals -->
<g id="edge81" class="edge">
<title>NASALib/topology&#45;&gt;NASALib/reals</title>
<path fill="none" stroke="black" d="M421,-614C421,-614 360.71,-648.03 324.21,-668.64"/>
<path fill="none" stroke="black" d="M501.82,-415.16C484.96,-441.02 455,-487 455,-487 455,-487 431,-523 431,-523 431,-523 424.96,-576.78 422.27,-600.73"/>
<polygon fill="black" stroke="black" points="418.81,-600.17 421.17,-610.5 425.76,-600.95 418.81,-600.17"/>
</g>
<!-- NASALib/topology&#45;&gt;NASALib/sets_aux -->
<g id="edge82" class="edge">
<title>NASALib/topology&#45;&gt;NASALib/sets_aux</title>
<path fill="none" stroke="black" d="M525.85,-378.7C531.77,-370.73 538.93,-361.1 545.49,-352.26"/>
<polygon fill="black" stroke="black" points="548.24,-354.43 551.39,-344.32 542.62,-350.26 548.24,-354.43"/>
</g>
<!-- NASALib/topology&#45;&gt;NASALib/structures -->
<g id="edge83" class="edge">
<title>NASALib/topology&#45;&gt;NASALib/structures</title>
<path fill="none" stroke="black" d="M500.15,-378.7C484.75,-357.97 461,-326 461,-326"/>
</g>
<!-- NASALib/trig&#45;&gt;NASALib/analysis -->
<g id="edge84" class="edge">
<title>NASALib/trig&#45;&gt;NASALib/analysis</title>
<path fill="none" stroke="black" d="M277,-614C277,-614 251,-684 251,-684"/>
<path fill="none" stroke="black" d="M220.51,-343.41C219.68,-372.89 218.02,-431.82 217.32,-456.6"/>
<polygon fill="black" stroke="black" points="213.83,-456.39 217.04,-466.49 220.82,-456.59 213.83,-456.39"/>
<path fill="none" stroke="black" d="M217,-470C217,-470 237,-540 237,-540"/>
<path fill="none" stroke="black" d="M237,-542C237,-542 277,-612 277,-612"/>
</g>
<!-- NASALib/trig&#45;&gt;NASALib/ints -->
<g id="edge85" class="edge">
<title>NASALib/trig&#45;&gt;NASALib/ints</title>
<path fill="none" stroke="black" d="M197.76,-306.7C169.93,-285.97 127,-254 127,-254"/>
</g>
<!-- NASALib/trig&#45;&gt;NASALib/reals -->
<g id="edge86" class="edge">
<title>NASALib/trig&#45;&gt;NASALib/reals</title>
<path fill="none" stroke="black" d="M257,-542C257,-542 317,-612 317,-612"/>
<path fill="none" stroke="black" d="M317,-614C317,-614 307.87,-645.97 301.94,-666.7"/>
<path fill="none" stroke="black" d="M217,-470C217,-470 257,-540 257,-540"/>
</g>
<!-- NASALib/trig&#45;&gt;NASALib/series -->
<g id="edge87" class="edge">
<title>NASALib/trig&#45;&gt;NASALib/series</title>
<path fill="none" stroke="black" d="M221,-306.7C221,-299.41 221,-290.73 221,-282.54"/>
<polygon fill="black" stroke="black" points="224.5,-282.62 221,-272.62 217.5,-282.62 224.5,-282.62"/>
</g>
<!-- NASALib/vectors&#45;&gt;NASALib/reals -->
<g id="edge88" class="edge">
<title>NASALib/vectors&#45;&gt;NASALib/reals</title>
<path fill="none" stroke="black" d="M317,-542C317,-542 317,-612 317,-612"/>
<path fill="none" stroke="black" d="M340.25,-415.35C328,-430.81 312,-451 312,-451 312,-451 312,-487 312,-487 312,-487 314.47,-513.2 315.94,-528.76"/>
<polygon fill="black" stroke="black" points="312.43,-528.87 316.86,-538.49 319.4,-528.21 312.43,-528.87"/>
</g>
<!-- NASALib/vectors&#45;&gt;NASALib/structures -->
<g id="edge89" class="edge">
<title>NASALib/vectors&#45;&gt;NASALib/structures</title>
<path fill="none" stroke="black" d="M335.3,-378.84C307.11,-352.98 257,-307 257,-307 257,-307 185,-271 185,-271 185,-271 165,-254 165,-254"/>
</g>
<!-- NASALib/vectors&#45;&gt;NASALib/trig -->
<g id="edge90" class="edge">
<title>NASALib/vectors&#45;&gt;NASALib/trig</title>
<path fill="none" stroke="black" d="M325.79,-381.15C306.14,-370.81 279.7,-356.9 258.3,-345.63"/>
<polygon fill="black" stroke="black" points="260.07,-342.61 249.59,-341.05 256.81,-348.8 260.07,-342.61"/>
</g>
</g>
</svg>
