<?xml version="1.0" encoding="UTF-8" standalone="no"?>
<!DOCTYPE svg PUBLIC "-//W3C//DTD SVG 1.1//EN"
 "http://www.w3.org/Graphics/SVG/1.1/DTD/svg11.dtd">
<!-- Generated by graphviz version 8.1.0 (20230707.0739)
 -->
<!-- Title: fnd_bnd Pages: 1 -->
<svg width="392pt" height="774pt"
 viewBox="0.00 0.00 392.00 773.50" xmlns="http://www.w3.org/2000/svg" xmlns:xlink="http://www.w3.org/1999/xlink">
<g id="graph0" class="graph" transform="scale(1 1) rotate(0) translate(4 769.5)">
<title>fnd_bnd</title>
<polygon fill="white" stroke="none" points="-4,4 -4,-769.5 388,-769.5 388,4 -4,4"/>
<g id="clust1" class="cluster">
<title>cluster_NASALib</title>
<polygon fill="none" stroke="black" points="8,-92.5 8,-601 250,-601 250,-92.5 8,-92.5"/>
<text text-anchor="middle" x="129" y="-583.7" font-family="Times,serif" font-size="14.00">NASALib</text>
</g>
<g id="clust2" class="cluster">
<title>cluster_PVS Prelude</title>
<polygon fill="none" stroke="black" points="59,-8 59,-84.5 147,-84.5 147,-8 59,-8"/>
<text text-anchor="middle" x="103" y="-67.2" font-family="Times,serif" font-size="14.00">PVS Prelude</text>
</g>
<g id="clust3" class="cluster">
<title>cluster_float</title>
<polygon fill="none" stroke="black" points="146,-609 146,-757.5 309,-757.5 309,-609 146,-609"/>
<text text-anchor="middle" x="227.5" y="-740.2" font-family="Times,serif" font-size="14.00">float</text>
</g>
<!-- float/axm_bnd -->
<g id="node1" class="node">
<title>float/axm_bnd</title>
<polygon fill="#fcfcd7" stroke="black" points="221.5,-653 154.5,-653 154.5,-617 221.5,-617 221.5,-653"/>
<text text-anchor="middle" x="188" y="-629.95" font-family="Times,serif" font-size="14.00">axm_bnd</text>
</g>
<!-- nasalib/power -->
<g id="node10" class="node">
<title>nasalib/power</title>
<polygon fill="#fcfcd7" stroke="black" points="110,-568.5 56,-568.5 56,-532.5 110,-532.5 110,-568.5"/>
<text text-anchor="middle" x="83" y="-545.45" font-family="Times,serif" font-size="14.00">power</text>
</g>
<!-- float/axm_bnd&#45;&gt;nasalib/power -->
<g id="edge1" class="edge">
<title>float/axm_bnd&#45;&gt;nasalib/power</title>
<path fill="none" stroke="black" d="M163.65,-616.53C152.62,-608.62 142,-601 142,-601 142,-601 126.8,-588.25 111.83,-575.69"/>
<polygon fill="black" stroke="black" points="114.55,-572.56 104.64,-568.81 110.05,-577.92 114.55,-572.56"/>
</g>
<!-- nasalib/reals -->
<g id="node11" class="node">
<title>nasalib/reals</title>
<polygon fill="#fcfcd7" stroke="black" points="202,-280.5 148,-280.5 148,-244.5 202,-244.5 202,-280.5"/>
<text text-anchor="middle" x="175" y="-257.45" font-family="Times,serif" font-size="14.00">reals</text>
</g>
<!-- float/axm_bnd&#45;&gt;nasalib/reals -->
<g id="edge2" class="edge">
<title>float/axm_bnd&#45;&gt;nasalib/reals</title>
<path fill="none" stroke="black" d="M217.86,-616.64C225.2,-612.37 231,-609 231,-609 231,-609 248,-601 248,-601 248,-601 284,-424.5 284,-424.5 284,-424.5 284,-388.5 284,-388.5 284,-388.5 270,-335.5 270,-335.5"/>
</g>
<!-- float/fnd_bnd -->
<g id="node2" class="node">
<title>float/fnd_bnd</title>
<polygon fill="#f7e28d" stroke="black" points="259.5,-725 198.5,-725 198.5,-689 259.5,-689 259.5,-725"/>
<text text-anchor="middle" x="229" y="-701.95" font-family="Times,serif" font-size="14.00">fnd_bnd</text>
</g>
<!-- float/fnd_bnd&#45;&gt;float/axm_bnd -->
<g id="edge3" class="edge">
<title>float/fnd_bnd&#45;&gt;float/axm_bnd</title>
<path fill="none" stroke="black" d="M218.87,-688.7C214.25,-680.81 208.68,-671.3 203.55,-662.55"/>
<polygon fill="black" stroke="black" points="206.09,-660.96 198.02,-654.1 200.05,-664.5 206.09,-660.96"/>
</g>
<!-- float/fnd_unb -->
<g id="node3" class="node">
<title>float/fnd_unb</title>
<polygon fill="#fcfcd7" stroke="black" points="300.5,-653 239.5,-653 239.5,-617 300.5,-617 300.5,-653"/>
<text text-anchor="middle" x="270" y="-629.95" font-family="Times,serif" font-size="14.00">fnd_unb</text>
</g>
<!-- float/fnd_bnd&#45;&gt;float/fnd_unb -->
<g id="edge4" class="edge">
<title>float/fnd_bnd&#45;&gt;float/fnd_unb</title>
<path fill="none" stroke="black" d="M239.13,-688.7C243.75,-680.81 249.32,-671.3 254.45,-662.55"/>
<polygon fill="black" stroke="black" points="257.95,-664.5 259.98,-654.1 251.91,-660.96 257.95,-664.5"/>
</g>
<!-- float/fnd_bnd&#45;&gt;nasalib/power -->
<g id="edge5" class="edge">
<title>float/fnd_bnd&#45;&gt;nasalib/power</title>
<path fill="none" stroke="black" d="M28,-634C28,-634 49.19,-602.21 65.27,-578.1"/>
<polygon fill="black" stroke="black" points="68.7,-580.26 71.34,-570 62.88,-576.38 68.7,-580.26"/>
</g>
<!-- float/fnd_bnd&#45;&gt;nasalib/reals -->
<g id="edge6" class="edge">
<title>float/fnd_bnd&#45;&gt;nasalib/reals</title>
<path fill="none" stroke="black" d="M255.52,-688.65C279.15,-673.19 310,-653 310,-653 310,-653 360,-601 360,-601 360,-601 384,-551.5 384,-551.5 384,-551.5 384,-551.5 384,-405.5 384,-405.5 284,-316.5 284,-316.5 284,-316.5 243.7,-296.91 212.11,-281.55"/>
<polygon fill="black" stroke="black" points="213.75,-277.96 203.22,-276.74 210.69,-284.26 213.75,-277.96"/>
</g>
<!-- nasalib/trig -->
<g id="node14" class="node">
<title>nasalib/trig</title>
<polygon fill="#fcfcd7" stroke="black" points="222,-496.5 168,-496.5 168,-460.5 222,-460.5 222,-496.5"/>
<text text-anchor="middle" x="195" y="-473.45" font-family="Times,serif" font-size="14.00">trig</text>
</g>
<!-- float/fnd_bnd&#45;&gt;nasalib/trig -->
<g id="edge7" class="edge">
<title>float/fnd_bnd&#45;&gt;nasalib/trig</title>
<path fill="none" stroke="black" d="M198.03,-695.22C141.65,-675.58 28,-636 28,-636"/>
<path fill="none" stroke="black" d="M28,-634C28,-634 47,-532.5 47,-532.5 47,-532.5 113.32,-508.75 157.17,-493.05"/>
<polygon fill="black" stroke="black" points="158.27,-496.01 166.51,-489.34 155.91,-489.42 158.27,-496.01"/>
</g>
<!-- nasalib/analysis -->
<g id="node5" class="node">
<title>nasalib/analysis</title>
<polygon fill="#fcfcd7" stroke="black" points="95.75,-352.5 36.25,-352.5 36.25,-316.5 95.75,-316.5 95.75,-352.5"/>
<text text-anchor="middle" x="66" y="-329.45" font-family="Times,serif" font-size="14.00">analysis</text>
</g>
<!-- float/fnd_unb&#45;&gt;nasalib/analysis -->
<g id="edge8" class="edge">
<title>float/fnd_unb&#45;&gt;nasalib/analysis</title>
<path fill="none" stroke="black" d="M270,-405.5C270,-405.5 110,-352.5 110,-352.5 110,-352.5 108.45,-351.9 105.94,-350.93"/>
<polygon fill="black" stroke="black" points="107.67,-347.46 97.08,-347.12 105.14,-353.99 107.67,-347.46"/>
<path fill="none" stroke="black" d="M270,-549.5C270,-549.5 270,-407.5 270,-407.5"/>
</g>
<!-- nasalib/interval_arith -->
<g id="node6" class="node">
<title>nasalib/interval_arith</title>
<polygon fill="#fcfcd7" stroke="black" points="239.38,-568.5 150.62,-568.5 150.62,-532.5 239.38,-532.5 239.38,-568.5"/>
<text text-anchor="middle" x="195" y="-545.45" font-family="Times,serif" font-size="14.00">interval_arith</text>
</g>
<!-- float/fnd_unb&#45;&gt;nasalib/interval_arith -->
<g id="edge9" class="edge">
<title>float/fnd_unb&#45;&gt;nasalib/interval_arith</title>
<path fill="none" stroke="black" d="M254.09,-616.5C243.65,-605.02 229.83,-589.81 218.17,-576.99"/>
<polygon fill="black" stroke="black" points="221.2,-575.02 211.88,-569.97 216.02,-579.72 221.2,-575.02"/>
</g>
<!-- nasalib/lnexp -->
<g id="node8" class="node">
<title>nasalib/lnexp</title>
<polygon fill="#fcfcd7" stroke="black" points="110,-496.5 56,-496.5 56,-460.5 110,-460.5 110,-496.5"/>
<text text-anchor="middle" x="83" y="-473.45" font-family="Times,serif" font-size="14.00">lnexp</text>
</g>
<!-- float/fnd_unb&#45;&gt;nasalib/lnexp -->
<g id="edge10" class="edge">
<title>float/fnd_unb&#45;&gt;nasalib/lnexp</title>
<path fill="none" stroke="black" d="M270,-549.5C270,-549.5 248,-532.5 248,-532.5 248,-532.5 169.11,-507.16 120.43,-491.52"/>
<polygon fill="black" stroke="black" points="121.84,-487.98 111.25,-488.25 119.7,-494.64 121.84,-487.98"/>
<path fill="none" stroke="black" d="M270,-616.5C270,-592.29 270,-551.5 270,-551.5"/>
</g>
<!-- float/fnd_unb&#45;&gt;nasalib/reals -->
<g id="edge11" class="edge">
<title>float/fnd_unb&#45;&gt;nasalib/reals</title>
<path fill="none" stroke="black" d="M270,-405.5C270,-405.5 270,-335.5 270,-335.5"/>
<path fill="none" stroke="black" d="M270,-333.5C270,-333.5 234.68,-307.47 207.11,-287.16"/>
<polygon fill="black" stroke="black" points="209.61,-283.92 199.48,-280.8 205.46,-289.55 209.61,-283.92"/>
</g>
<!-- nasalib/structures -->
<g id="node13" class="node">
<title>nasalib/structures</title>
<polygon fill="#fcfcd7" stroke="black" points="137.25,-208.5 68.75,-208.5 68.75,-172.5 137.25,-172.5 137.25,-208.5"/>
<text text-anchor="middle" x="103" y="-185.45" font-family="Times,serif" font-size="14.00">structures</text>
</g>
<!-- float/fnd_unb&#45;&gt;nasalib/structures -->
<g id="edge12" class="edge">
<title>float/fnd_unb&#45;&gt;nasalib/structures</title>
<path fill="none" stroke="black" d="M278.57,-616.58C298.45,-576.17 346,-479.5 346,-479.5 346,-479.5 346,-479.5 346,-333.5 346,-333.5 246,-244.5 246,-244.5 246,-244.5 189.86,-223.69 147.93,-208.15"/>
<polygon fill="black" stroke="black" points="149.21,-204.52 138.62,-204.33 146.78,-211.09 149.21,-204.52"/>
</g>
<!-- float/fnd_unb&#45;&gt;nasalib/trig -->
<g id="edge13" class="edge">
<title>float/fnd_unb&#45;&gt;nasalib/trig</title>
<path fill="none" stroke="black" d="M270,-549.5C270,-549.5 243.07,-524.36 221.48,-504.22"/>
<polygon fill="black" stroke="black" points="224.24,-502.07 214.54,-497.8 219.46,-507.19 224.24,-502.07"/>
</g>
<!-- lib/finite_sets -->
<g id="node4" class="node">
<title>lib/finite_sets</title>
<polygon fill="#fcfcd7" stroke="black" points="138.75,-52 67.25,-52 67.25,-16 138.75,-16 138.75,-52"/>
<text text-anchor="middle" x="103" y="-28.95" font-family="Times,serif" font-size="14.00">finite_sets</text>
</g>
<!-- nasalib/analysis&#45;&gt;lib/finite_sets -->
<g id="edge14" class="edge">
<title>nasalib/analysis&#45;&gt;lib/finite_sets</title>
<path fill="none" stroke="black" d="M54.87,-316.15C44.95,-300.69 32,-280.5 32,-280.5 32,-280.5 8,-191.5 8,-191.5"/>
<path fill="none" stroke="black" d="M8,-189.5C8,-189.5 67,-92.5 67,-92.5 67,-92.5 77.01,-76.51 86.47,-61.4"/>
<polygon fill="black" stroke="black" points="89.86,-63.59 92.2,-53.25 83.93,-59.87 89.86,-63.59"/>
</g>
<!-- nasalib/ints -->
<g id="node7" class="node">
<title>nasalib/ints</title>
<polygon fill="#fcfcd7" stroke="black" points="130,-136.5 76,-136.5 76,-100.5 130,-100.5 130,-136.5"/>
<text text-anchor="middle" x="103" y="-113.45" font-family="Times,serif" font-size="14.00">ints</text>
</g>
<!-- nasalib/analysis&#45;&gt;nasalib/ints -->
<g id="edge15" class="edge">
<title>nasalib/analysis&#45;&gt;nasalib/ints</title>
<path fill="none" stroke="black" d="M58.83,-316.2C50.24,-295.47 37,-263.5 37,-263.5"/>
<path fill="none" stroke="black" d="M37,-261.5C37,-261.5 37,-191.5 37,-191.5"/>
</g>
<!-- nasalib/orders -->
<g id="node9" class="node">
<title>nasalib/orders</title>
<polygon fill="#fcfcd7" stroke="black" points="130,-280.5 76,-280.5 76,-244.5 130,-244.5 130,-280.5"/>
<text text-anchor="middle" x="103" y="-257.45" font-family="Times,serif" font-size="14.00">orders</text>
</g>
<!-- nasalib/analysis&#45;&gt;nasalib/orders -->
<g id="edge16" class="edge">
<title>nasalib/analysis&#45;&gt;nasalib/orders</title>
<path fill="none" stroke="black" d="M75.15,-316.2C79.27,-308.4 84.23,-299.01 88.82,-290.33"/>
<polygon fill="black" stroke="black" points="92.38,-292.08 93.96,-281.6 86.19,-288.81 92.38,-292.08"/>
</g>
<!-- nasalib/analysis&#45;&gt;nasalib/reals -->
<g id="edge17" class="edge">
<title>nasalib/analysis&#45;&gt;nasalib/reals</title>
<path fill="none" stroke="black" d="M93.22,-316.02C107.11,-307.1 124.19,-296.13 139.14,-286.53"/>
<polygon fill="black" stroke="black" points="140.6,-289.11 147.12,-280.76 136.82,-283.22 140.6,-289.11"/>
</g>
<!-- nasalib/analysis&#45;&gt;nasalib/structures -->
<g id="edge18" class="edge">
<title>nasalib/analysis&#45;&gt;nasalib/structures</title>
<path fill="none" stroke="black" d="M37,-261.5C37,-261.5 60.28,-236.81 79.19,-216.75"/>
<polygon fill="black" stroke="black" points="81.37,-219.48 85.69,-209.8 76.28,-214.68 81.37,-219.48"/>
</g>
<!-- nasalib/interval_arith&#45;&gt;nasalib/analysis -->
<g id="edge19" class="edge">
<title>nasalib/interval_arith&#45;&gt;nasalib/analysis</title>
<path fill="none" stroke="black" d="M180.35,-532.34C158.26,-506.48 119,-460.5 119,-460.5 119,-460.5 67,-424.5 67,-424.5 67,-424.5 57,-407.5 57,-407.5"/>
<path fill="none" stroke="black" d="M57,-405.5C57,-405.5 59.9,-382.95 62.41,-363.45"/>
<polygon fill="black" stroke="black" points="65.97,-364.17 63.78,-353.8 59.03,-363.28 65.97,-364.17"/>
</g>
<!-- nasalib/interval_arith&#45;&gt;nasalib/ints -->
<g id="edge20" class="edge">
<title>nasalib/interval_arith&#45;&gt;nasalib/ints</title>
<path fill="none" stroke="black" d="M241,-261.5C241,-261.5 241,-191.5 241,-191.5"/>
</g>
<!-- nasalib/interval_arith&#45;&gt;nasalib/lnexp -->
<g id="edge21" class="edge">
<title>nasalib/interval_arith&#45;&gt;nasalib/lnexp</title>
<path fill="none" stroke="black" d="M167.03,-532.02C152.65,-523.03 134.95,-511.97 119.5,-502.31"/>
<polygon fill="black" stroke="black" points="121.57,-498.85 111.23,-496.52 117.86,-504.79 121.57,-498.85"/>
</g>
<!-- nasalib/interval_arith&#45;&gt;nasalib/reals -->
<g id="edge22" class="edge">
<title>nasalib/interval_arith&#45;&gt;nasalib/reals</title>
<path fill="none" stroke="black" d="M241,-333.5C241,-333.5 226,-316.5 226,-316.5 226,-316.5 212.42,-302.39 199.28,-288.73"/>
<polygon fill="black" stroke="black" points="202.16,-286.63 192.7,-281.85 197.11,-291.49 202.16,-286.63"/>
<path fill="none" stroke="black" d="M206.79,-532.15C217.29,-516.69 231,-496.5 231,-496.5 231,-496.5 241,-335.5 241,-335.5"/>
</g>
<!-- nasalib/interval_arith&#45;&gt;nasalib/structures -->
<g id="edge23" class="edge">
<title>nasalib/interval_arith&#45;&gt;nasalib/structures</title>
<path fill="none" stroke="black" d="M241,-333.5C241,-333.5 241,-263.5 241,-263.5"/>
<path fill="none" stroke="black" d="M241,-261.5C241,-261.5 211,-244.5 211,-244.5 211,-244.5 176.86,-227.75 146.98,-213.08"/>
<polygon fill="black" stroke="black" points="148.99,-209.68 138.47,-208.42 145.9,-215.96 148.99,-209.68"/>
</g>
<!-- nasalib/interval_arith&#45;&gt;nasalib/trig -->
<g id="edge24" class="edge">
<title>nasalib/interval_arith&#45;&gt;nasalib/trig</title>
<path fill="none" stroke="black" d="M195,-532.2C195,-524.74 195,-515.82 195,-507.47"/>
<polygon fill="black" stroke="black" points="198.5,-507.6 195,-497.6 191.5,-507.6 198.5,-507.6"/>
</g>
<!-- nasalib/ints&#45;&gt;lib/finite_sets -->
<g id="edge25" class="edge">
<title>nasalib/ints&#45;&gt;lib/finite_sets</title>
<path fill="none" stroke="black" d="M103,-100C103,-89.39 103,-75.6 103,-63.46"/>
<polygon fill="black" stroke="black" points="106.5,-63.47 103,-53.47 99.5,-63.47 106.5,-63.47"/>
</g>
<!-- nasalib/lnexp&#45;&gt;nasalib/analysis -->
<g id="edge26" class="edge">
<title>nasalib/lnexp&#45;&gt;nasalib/analysis</title>
<path fill="none" stroke="black" d="M37,-405.5C37,-405.5 46.52,-382.53 54.65,-362.91"/>
<polygon fill="black" stroke="black" points="58.24,-364.38 58.83,-353.8 51.77,-361.7 58.24,-364.38"/>
</g>
<!-- nasalib/lnexp&#45;&gt;nasalib/ints -->
<g id="edge27" class="edge">
<title>nasalib/lnexp&#45;&gt;nasalib/ints</title>
<path fill="none" stroke="black" d="M71.63,-460.2C58.01,-439.47 37,-407.5 37,-407.5"/>
<path fill="none" stroke="black" d="M37,-405.5C37,-405.5 27,-352.5 27,-352.5 27,-352.5 27,-316.5 27,-316.5 27,-316.5 32,-244.5 32,-244.5 32,-244.5 37,-191.5 37,-191.5"/>
<path fill="none" stroke="black" d="M37,-189.5C37,-189.5 60.28,-164.81 79.19,-144.75"/>
<polygon fill="black" stroke="black" points="81.37,-147.48 85.69,-137.8 76.28,-142.68 81.37,-147.48"/>
</g>
<!-- nasalib/lnexp&#45;&gt;nasalib/reals -->
<g id="edge28" class="edge">
<title>nasalib/lnexp&#45;&gt;nasalib/reals</title>
<path fill="none" stroke="black" d="M149,-405.5C149,-405.5 162.26,-333.09 169.84,-291.68"/>
<polygon fill="black" stroke="black" points="173.45,-292.38 171.81,-281.91 166.57,-291.12 173.45,-292.38"/>
<path fill="none" stroke="black" d="M101.34,-460.15C117.67,-444.69 139,-424.5 139,-424.5 139,-424.5 149,-407.5 149,-407.5"/>
</g>
<!-- nasalib/series -->
<g id="node12" class="node">
<title>nasalib/series</title>
<polygon fill="#fcfcd7" stroke="black" points="130,-424.5 76,-424.5 76,-388.5 130,-388.5 130,-424.5"/>
<text text-anchor="middle" x="103" y="-401.45" font-family="Times,serif" font-size="14.00">series</text>
</g>
<!-- nasalib/lnexp&#45;&gt;nasalib/series -->
<g id="edge29" class="edge">
<title>nasalib/lnexp&#45;&gt;nasalib/series</title>
<path fill="none" stroke="black" d="M87.94,-460.2C90.1,-452.65 92.68,-443.62 95.09,-435.18"/>
<polygon fill="black" stroke="black" points="98.73,-436.18 98.11,-425.6 92,-434.26 98.73,-436.18"/>
</g>
<!-- nasalib/orders&#45;&gt;lib/finite_sets -->
<g id="edge30" class="edge">
<title>nasalib/orders&#45;&gt;lib/finite_sets</title>
<path fill="none" stroke="black" d="M79.52,-244.2C51.38,-223.47 8,-191.5 8,-191.5"/>
</g>
<!-- nasalib/orders&#45;&gt;nasalib/structures -->
<g id="edge31" class="edge">
<title>nasalib/orders&#45;&gt;nasalib/structures</title>
<path fill="none" stroke="black" d="M103,-244.2C103,-236.74 103,-227.82 103,-219.47"/>
<polygon fill="black" stroke="black" points="106.5,-219.6 103,-209.6 99.5,-219.6 106.5,-219.6"/>
</g>
<!-- nasalib/power&#45;&gt;nasalib/analysis -->
<g id="edge32" class="edge">
<title>nasalib/power&#45;&gt;nasalib/analysis</title>
<path fill="none" stroke="black" d="M71.21,-532.15C60.71,-516.69 47,-496.5 47,-496.5 47,-496.5 32,-424.5 32,-424.5 32,-424.5 32,-388.5 32,-388.5 32,-388.5 40.55,-375.17 49.07,-361.88"/>
<polygon fill="black" stroke="black" points="52.41,-364.16 54.87,-353.85 46.52,-360.38 52.41,-364.16"/>
</g>
<!-- nasalib/power&#45;&gt;nasalib/lnexp -->
<g id="edge33" class="edge">
<title>nasalib/power&#45;&gt;nasalib/lnexp</title>
<path fill="none" stroke="black" d="M83,-532.2C83,-524.74 83,-515.82 83,-507.47"/>
<polygon fill="black" stroke="black" points="86.5,-507.6 83,-497.6 79.5,-507.6 86.5,-507.6"/>
</g>
<!-- nasalib/power&#45;&gt;nasalib/reals -->
<g id="edge34" class="edge">
<title>nasalib/power&#45;&gt;nasalib/reals</title>
<path fill="none" stroke="black" d="M94.79,-532.15C105.29,-516.69 119,-496.5 119,-496.5 119,-496.5 149,-407.5 149,-407.5"/>
</g>
<!-- nasalib/reals&#45;&gt;nasalib/ints -->
<g id="edge35" class="edge">
<title>nasalib/reals&#45;&gt;nasalib/ints</title>
<path fill="none" stroke="black" d="M241,-189.5C241,-189.5 180.82,-158.97 139.94,-138.24"/>
<polygon fill="black" stroke="black" points="141.77,-134.73 131.26,-133.33 138.6,-140.97 141.77,-134.73"/>
<path fill="none" stroke="black" d="M191.31,-244.2C210.86,-223.47 241,-191.5 241,-191.5"/>
</g>
<!-- nasalib/reals&#45;&gt;nasalib/structures -->
<g id="edge36" class="edge">
<title>nasalib/reals&#45;&gt;nasalib/structures</title>
<path fill="none" stroke="black" d="M157.2,-244.2C148.55,-235.78 137.99,-225.52 128.5,-216.29"/>
<polygon fill="black" stroke="black" points="131.45,-214.31 121.84,-209.85 126.57,-219.33 131.45,-214.31"/>
</g>
<!-- nasalib/series&#45;&gt;nasalib/analysis -->
<g id="edge37" class="edge">
<title>nasalib/series&#45;&gt;nasalib/analysis</title>
<path fill="none" stroke="black" d="M93.85,-388.2C89.73,-380.4 84.77,-371.01 80.18,-362.33"/>
<polygon fill="black" stroke="black" points="82.81,-360.81 75.04,-353.6 76.62,-364.08 82.81,-360.81"/>
</g>
<!-- nasalib/series&#45;&gt;nasalib/ints -->
<g id="edge38" class="edge">
<title>nasalib/series&#45;&gt;nasalib/ints</title>
<path fill="none" stroke="black" d="M115,-333.5C115,-333.5 105,-316.5 105,-316.5 105,-316.5 67,-280.5 67,-280.5 67,-280.5 37,-191.5 37,-191.5"/>
<path fill="none" stroke="black" d="M105.97,-388.2C109.52,-367.47 115,-335.5 115,-335.5"/>
</g>
<!-- nasalib/series&#45;&gt;nasalib/orders -->
<g id="edge39" class="edge">
<title>nasalib/series&#45;&gt;nasalib/orders</title>
<path fill="none" stroke="black" d="M115,-333.5C115,-333.5 111.13,-310.95 107.79,-291.45"/>
<polygon fill="black" stroke="black" points="111.11,-291.07 105.97,-281.8 104.21,-292.25 111.11,-291.07"/>
</g>
<!-- nasalib/series&#45;&gt;nasalib/reals -->
<g id="edge40" class="edge">
<title>nasalib/series&#45;&gt;nasalib/reals</title>
<path fill="none" stroke="black" d="M115,-333.5C115,-333.5 135.98,-309.02 153.13,-289.02"/>
<polygon fill="black" stroke="black" points="156.32,-291.67 160.17,-281.8 151,-287.12 156.32,-291.67"/>
</g>
<!-- nasalib/structures&#45;&gt;lib/finite_sets -->
<g id="edge41" class="edge">
<title>nasalib/structures&#45;&gt;lib/finite_sets</title>
<path fill="none" stroke="black" d="M114.79,-172.15C125.29,-156.69 139,-136.5 139,-136.5 139,-136.5 139,-92.5 139,-92.5 139,-92.5 128.99,-76.51 119.53,-61.4"/>
<polygon fill="black" stroke="black" points="122.07,-59.87 113.8,-53.25 116.14,-63.59 122.07,-59.87"/>
</g>
<!-- nasalib/structures&#45;&gt;nasalib/ints -->
<g id="edge42" class="edge">
<title>nasalib/structures&#45;&gt;nasalib/ints</title>
<path fill="none" stroke="black" d="M103,-172.2C103,-164.74 103,-155.82 103,-147.47"/>
<polygon fill="black" stroke="black" points="106.5,-147.6 103,-137.6 99.5,-147.6 106.5,-147.6"/>
</g>
<!-- nasalib/trig&#45;&gt;nasalib/analysis -->
<g id="edge43" class="edge">
<title>nasalib/trig&#45;&gt;nasalib/analysis</title>
<path fill="none" stroke="black" d="M167.88,-466.26C160.26,-463.09 154,-460.5 154,-460.5 154,-460.5 67,-424.5 67,-424.5 67,-424.5 57,-407.5 57,-407.5"/>
</g>
<!-- nasalib/trig&#45;&gt;nasalib/ints -->
<g id="edge44" class="edge">
<title>nasalib/trig&#45;&gt;nasalib/ints</title>
<path fill="none" stroke="black" d="M221,-333.5C221,-333.5 241,-191.5 241,-191.5"/>
</g>
<!-- nasalib/trig&#45;&gt;nasalib/reals -->
<g id="edge45" class="edge">
<title>nasalib/trig&#45;&gt;nasalib/reals</title>
<path fill="none" stroke="black" d="M198.19,-460.09C205.13,-422.17 221,-335.5 221,-335.5"/>
<path fill="none" stroke="black" d="M221,-333.5C221,-333.5 205.34,-309.68 192.3,-289.83"/>
<polygon fill="black" stroke="black" points="194.79,-288.24 186.37,-281.8 188.94,-292.08 194.79,-288.24"/>
</g>
<!-- nasalib/trig&#45;&gt;nasalib/series -->
<g id="edge46" class="edge">
<title>nasalib/trig&#45;&gt;nasalib/series</title>
<path fill="none" stroke="black" d="M172.26,-460.2C160.87,-451.53 146.9,-440.9 134.49,-431.46"/>
<polygon fill="black" stroke="black" points="136.88,-428.12 126.8,-424.85 132.64,-433.69 136.88,-428.12"/>
</g>
</g>
</svg>
