<?xml version="1.0" encoding="UTF-8" standalone="no"?>
<!DOCTYPE svg PUBLIC "-//W3C//DTD SVG 1.1//EN"
 "http://www.w3.org/Graphics/SVG/1.1/DTD/svg11.dtd">
<!-- Generated by graphviz version 8.0.4 (20230421.1958)
 -->
<!-- Title: ODEs&#45;zoomed Pages: 1 -->
<svg width="1191pt" height="761pt"
 viewBox="0.00 0.00 1191.00 761.00" xmlns="http://www.w3.org/2000/svg" xmlns:xlink="http://www.w3.org/1999/xlink">
<g id="graph0" class="graph" transform="scale(1 1) rotate(0) translate(4 757)">
<title>ODEs&#45;zoomed</title>
<polygon fill="white" stroke="none" points="-4,4 -4,-757 1187,-757 1187,4 -4,4"/>
<g id="clust1" class="cluster">
<title>cluster_NASALib</title>
<polygon fill="none" stroke="black" points="611,-8 611,-84.5 1134,-84.5 1134,-8 611,-8"/>
<text text-anchor="middle" x="872.5" y="-67.2" font-family="Times,serif" font-size="14.00">NASALib</text>
</g>
<g id="clust2" class="cluster">
<title>cluster_NASALib/ODEs</title>
<polygon fill="none" stroke="black" points="8,-92.5 8,-745 937,-745 937,-92.5 8,-92.5"/>
<text text-anchor="middle" x="472.5" y="-727.7" font-family="Times,serif" font-size="14.00">NASALib/ODEs</text>
</g>
<!-- NASALib/ODEs@ODE_Lipschitz_def -->
<g id="node1" class="node">
<title>NASALib/ODEs@ODE_Lipschitz_def</title>
<ellipse fill="#e6f3ff" stroke="black" cx="766" cy="-334.5" rx="85.13" ry="18"/>
<text text-anchor="middle" x="766" y="-329.45" font-family="Times,serif" font-size="14.00">ODE_Lipschitz_def</text>
</g>
<!-- NASALib/ODEs@ODE_def -->
<g id="node3" class="node">
<title>NASALib/ODEs@ODE_def</title>
<ellipse fill="#e6f3ff" stroke="black" cx="662" cy="-262.5" rx="46.23" ry="18"/>
<text text-anchor="middle" x="662" y="-257.45" font-family="Times,serif" font-size="14.00">ODE_def</text>
</g>
<!-- NASALib/ODEs@ODE_Lipschitz_def&#45;&gt;NASALib/ODEs@ODE_def -->
<g id="edge1" class="edge">
<title>NASALib/ODEs@ODE_Lipschitz_def&#45;&gt;NASALib/ODEs@ODE_def</title>
<path fill="none" stroke="black" d="M741.35,-316.91C726.89,-307.18 708.49,-294.79 693.04,-284.39"/>
<polygon fill="black" stroke="black" points="695.59,-281.22 685.34,-278.54 691.68,-287.03 695.59,-281.22"/>
</g>
<!-- NASALib/analysis -->
<g id="node20" class="node">
<title>NASALib/analysis</title>
<polygon fill="#fcfcd7" stroke="black" points="947.75,-52 888.25,-52 888.25,-16 947.75,-16 947.75,-52"/>
<text text-anchor="middle" x="918" y="-28.95" font-family="Times,serif" font-size="14.00">analysis</text>
</g>
<!-- NASALib/ODEs@ODE_Lipschitz_def&#45;&gt;NASALib/analysis -->
<g id="edge2" class="edge">
<title>NASALib/ODEs@ODE_Lipschitz_def&#45;&gt;NASALib/analysis</title>
<path fill="none" stroke="black" d="M769.45,-316.17C780.46,-260.91 814,-92.5 814,-92.5 814,-92.5 879,-84.5 879,-84.5 879,-84.5 888.14,-72.9 897.57,-60.93"/>
<polygon fill="black" stroke="black" points="900.92,-63.33 904.36,-53.31 895.42,-59 900.92,-63.33"/>
</g>
<!-- NASALib/ODEs@ODE_continuous_def -->
<g id="node2" class="node">
<title>NASALib/ODEs@ODE_continuous_def</title>
<ellipse fill="#e6f3ff" stroke="black" cx="833" cy="-406.5" rx="91.27" ry="18"/>
<text text-anchor="middle" x="833" y="-401.45" font-family="Times,serif" font-size="14.00">ODE_continuous_def</text>
</g>
<!-- NASALib/ODEs@ODE_continuous_def&#45;&gt;NASALib/ODEs@ODE_Lipschitz_def -->
<g id="edge3" class="edge">
<title>NASALib/ODEs@ODE_continuous_def&#45;&gt;NASALib/ODEs@ODE_Lipschitz_def</title>
<path fill="none" stroke="black" d="M816.78,-388.55C808.63,-380.04 798.61,-369.57 789.62,-360.18"/>
<polygon fill="black" stroke="black" points="792.51,-358.09 783.07,-353.29 787.46,-362.93 792.51,-358.09"/>
</g>
<!-- NASALib/ODEs@ODE_continuous_def&#45;&gt;NASALib/analysis -->
<g id="edge4" class="edge">
<title>NASALib/ODEs@ODE_continuous_def&#45;&gt;NASALib/analysis</title>
<path fill="none" stroke="black" d="M866,-117.5C866,-117.5 886.04,-85.71 901.23,-61.6"/>
<polygon fill="black" stroke="black" points="904.6,-63.82 906.97,-53.5 898.68,-60.09 904.6,-63.82"/>
<path fill="none" stroke="black" d="M841.84,-388.15C849.72,-372.69 860,-352.5 860,-352.5 860,-352.5 866,-119.5 866,-119.5"/>
</g>
<!-- NASALib/mv_analysis -->
<g id="node24" class="node">
<title>NASALib/mv_analysis</title>
<polygon fill="#fcfcd7" stroke="black" points="870.12,-52 785.88,-52 785.88,-16 870.12,-16 870.12,-52"/>
<text text-anchor="middle" x="828" y="-28.95" font-family="Times,serif" font-size="14.00">mv_analysis</text>
</g>
<!-- NASALib/ODEs@ODE_continuous_def&#45;&gt;NASALib/mv_analysis -->
<g id="edge5" class="edge">
<title>NASALib/ODEs@ODE_continuous_def&#45;&gt;NASALib/mv_analysis</title>
<path fill="none" stroke="black" d="M866,-117.5C866,-117.5 851.62,-86.27 840.55,-62.24"/>
<polygon fill="black" stroke="black" points="843.42,-61.11 836.06,-53.5 837.06,-64.04 843.42,-61.11"/>
</g>
<!-- NASALib/ODEs@r2v_analysis -->
<g id="node14" class="node">
<title>NASALib/ODEs@r2v_analysis</title>
<ellipse fill="#e6f3ff" stroke="black" cx="444" cy="-190.5" rx="57.49" ry="18"/>
<text text-anchor="middle" x="444" y="-185.45" font-family="Times,serif" font-size="14.00">r2v_analysis</text>
</g>
<!-- NASALib/ODEs@ODE_def&#45;&gt;NASALib/ODEs@r2v_analysis -->
<g id="edge6" class="edge">
<title>NASALib/ODEs@ODE_def&#45;&gt;NASALib/ODEs@r2v_analysis</title>
<path fill="none" stroke="black" d="M626.97,-250.25C590.77,-238.63 533.95,-220.38 493.23,-207.31"/>
<polygon fill="black" stroke="black" points="494.58,-203.74 483.99,-204.02 492.44,-210.41 494.58,-203.74"/>
</g>
<!-- NASALib/ODEs@ODE_def&#45;&gt;NASALib/analysis -->
<g id="edge7" class="edge">
<title>NASALib/ODEs@ODE_def&#45;&gt;NASALib/analysis</title>
<path fill="none" stroke="black" d="M673.35,-244.68C702.18,-201.93 776,-92.5 776,-92.5 776,-92.5 879,-84.5 879,-84.5 879,-84.5 888.14,-72.9 897.57,-60.93"/>
<polygon fill="black" stroke="black" points="900.92,-63.33 904.36,-53.31 895.42,-59 900.92,-63.33"/>
</g>
<!-- NASALib/ODEs@ODE_psi_contraction -->
<g id="node4" class="node">
<title>NASALib/ODEs@ODE_psi_contraction</title>
<ellipse fill="#e6f3ff" stroke="black" cx="652" cy="-550.5" rx="91.27" ry="18"/>
<text text-anchor="middle" x="652" y="-545.45" font-family="Times,serif" font-size="14.00">ODE_psi_contraction</text>
</g>
<!-- NASALib/ODEs@ODE_psi_def -->
<g id="node5" class="node">
<title>NASALib/ODEs@ODE_psi_def</title>
<ellipse fill="#e6f3ff" stroke="black" cx="662" cy="-406.5" rx="61.59" ry="18"/>
<text text-anchor="middle" x="662" y="-401.45" font-family="Times,serif" font-size="14.00">ODE_psi_def</text>
</g>
<!-- NASALib/ODEs@ODE_psi_contraction&#45;&gt;NASALib/ODEs@ODE_psi_def -->
<g id="edge8" class="edge">
<title>NASALib/ODEs@ODE_psi_contraction&#45;&gt;NASALib/ODEs@ODE_psi_def</title>
<path fill="none" stroke="black" d="M652,-477.5C652,-477.5 655.22,-454.95 658.01,-435.45"/>
<polygon fill="black" stroke="black" points="661.58,-436.2 659.53,-425.8 654.65,-435.21 661.58,-436.2"/>
</g>
<!-- NASALib/ODEs@exp_analysis -->
<g id="node8" class="node">
<title>NASALib/ODEs@exp_analysis</title>
<ellipse fill="#e6f3ff" stroke="black" cx="850" cy="-478.5" rx="58.52" ry="18"/>
<text text-anchor="middle" x="850" y="-473.45" font-family="Times,serif" font-size="14.00">exp_analysis</text>
</g>
<!-- NASALib/ODEs@ODE_psi_contraction&#45;&gt;NASALib/ODEs@exp_analysis -->
<g id="edge9" class="edge">
<title>NASALib/ODEs@ODE_psi_contraction&#45;&gt;NASALib/ODEs@exp_analysis</title>
<path fill="none" stroke="black" d="M694.96,-534.31C726.57,-523.14 769.55,-507.94 802.24,-496.39"/>
<polygon fill="black" stroke="black" points="803.2,-499.41 811.46,-492.77 800.86,-492.81 803.2,-499.41"/>
</g>
<!-- NASALib/ODEs@interval_def -->
<g id="node9" class="node">
<title>NASALib/ODEs@interval_def</title>
<ellipse fill="#e6f3ff" stroke="black" cx="232" cy="-334.5" rx="55.45" ry="18"/>
<text text-anchor="middle" x="232" y="-329.45" font-family="Times,serif" font-size="14.00">interval_def</text>
</g>
<!-- NASALib/ODEs@ODE_psi_contraction&#45;&gt;NASALib/ODEs@interval_def -->
<g id="edge10" class="edge">
<title>NASALib/ODEs@ODE_psi_contraction&#45;&gt;NASALib/ODEs@interval_def</title>
<path fill="none" stroke="black" d="M652,-477.5C652,-477.5 642,-460.5 642,-460.5 642,-460.5 591,-424.5 591,-424.5 591,-424.5 581,-407.5 581,-407.5"/>
<path fill="none" stroke="black" d="M652,-532.2C652,-511.47 652,-479.5 652,-479.5"/>
</g>
<!-- NASALib/ODEs@metric_rho -->
<g id="node11" class="node">
<title>NASALib/ODEs@metric_rho</title>
<ellipse fill="#e6f3ff" stroke="black" cx="581" cy="-478.5" rx="51.86" ry="18"/>
<text text-anchor="middle" x="581" y="-473.45" font-family="Times,serif" font-size="14.00">metric_rho</text>
</g>
<!-- NASALib/ODEs@ODE_psi_contraction&#45;&gt;NASALib/ODEs@metric_rho -->
<g id="edge11" class="edge">
<title>NASALib/ODEs@ODE_psi_contraction&#45;&gt;NASALib/ODEs@metric_rho</title>
<path fill="none" stroke="black" d="M634.81,-532.55C625.96,-523.83 615.02,-513.04 605.32,-503.48"/>
<polygon fill="black" stroke="black" points="608.12,-501.34 598.54,-496.81 603.2,-506.32 608.12,-501.34"/>
</g>
<!-- NASALib/ODEs@norm_ineq -->
<g id="node13" class="node">
<title>NASALib/ODEs@norm_ineq</title>
<ellipse fill="#e6f3ff" stroke="black" cx="722" cy="-478.5" rx="51.35" ry="18"/>
<text text-anchor="middle" x="722" y="-473.45" font-family="Times,serif" font-size="14.00">norm_ineq</text>
</g>
<!-- NASALib/ODEs@ODE_psi_contraction&#45;&gt;NASALib/ODEs@norm_ineq -->
<g id="edge12" class="edge">
<title>NASALib/ODEs@ODE_psi_contraction&#45;&gt;NASALib/ODEs@norm_ineq</title>
<path fill="none" stroke="black" d="M668.95,-532.55C677.67,-523.83 688.46,-513.04 698.02,-503.48"/>
<polygon fill="black" stroke="black" points="700.1,-506.35 704.69,-496.81 695.15,-501.4 700.1,-506.35"/>
</g>
<!-- NASALib/ODEs@ODE_psi_def&#45;&gt;NASALib/ODEs@ODE_def -->
<g id="edge13" class="edge">
<title>NASALib/ODEs@ODE_psi_def&#45;&gt;NASALib/ODEs@ODE_def</title>
<path fill="none" stroke="black" d="M662,-388.09C662,-364 662,-320.25 662,-291.53"/>
<polygon fill="black" stroke="black" points="665.5,-291.61 662,-281.61 658.5,-291.61 665.5,-291.61"/>
</g>
<!-- NASALib/ODEs@ODE_psi_def&#45;&gt;NASALib/analysis -->
<g id="edge14" class="edge">
<title>NASALib/ODEs@ODE_psi_def&#45;&gt;NASALib/analysis</title>
<path fill="none" stroke="black" d="M706.44,-393.61C764.81,-377.98 860,-352.5 860,-352.5 860,-352.5 917,-263.5 917,-263.5 917,-263.5 917,-263.5 917,-189.5 917,-189.5 917.53,-108.04 917.82,-63.42"/>
<polygon fill="black" stroke="black" points="921.32,-63.45 917.89,-53.42 914.32,-63.4 921.32,-63.45"/>
</g>
<!-- NASALib/ODEs@ODE_solution_existence_uniqueness -->
<g id="node6" class="node">
<title>NASALib/ODEs@ODE_solution_existence_uniqueness</title>
<ellipse fill="#e6f3ff" stroke="black" cx="652" cy="-622.5" rx="148.59" ry="18"/>
<text text-anchor="middle" x="652" y="-617.45" font-family="Times,serif" font-size="14.00">ODE_solution_existence_uniqueness</text>
</g>
<!-- NASALib/ODEs@ODE_solution_existence_uniqueness&#45;&gt;NASALib/ODEs@ODE_psi_contraction -->
<g id="edge15" class="edge">
<title>NASALib/ODEs@ODE_solution_existence_uniqueness&#45;&gt;NASALib/ODEs@ODE_psi_contraction</title>
<path fill="none" stroke="black" d="M652,-604.2C652,-596.74 652,-587.82 652,-579.47"/>
<polygon fill="black" stroke="black" points="655.5,-579.6 652,-569.6 648.5,-579.6 655.5,-579.6"/>
</g>
<!-- NASALib/ODEs@continuous_function_complete_rho -->
<g id="node7" class="node">
<title>NASALib/ODEs@continuous_function_complete_rho</title>
<ellipse fill="#e6f3ff" stroke="black" cx="158" cy="-550.5" rx="142.45" ry="18"/>
<text text-anchor="middle" x="158" y="-545.45" font-family="Times,serif" font-size="14.00">continuous_function_complete_rho</text>
</g>
<!-- NASALib/ODEs@ODE_solution_existence_uniqueness&#45;&gt;NASALib/ODEs@continuous_function_complete_rho -->
<g id="edge16" class="edge">
<title>NASALib/ODEs@ODE_solution_existence_uniqueness&#45;&gt;NASALib/ODEs@continuous_function_complete_rho</title>
<path fill="none" stroke="black" d="M557.92,-608.17C473.13,-596.15 348.72,-578.52 261.22,-566.13"/>
<polygon fill="black" stroke="black" points="261.87,-562.54 251.47,-564.6 260.88,-569.47 261.87,-562.54"/>
</g>
<!-- NASALib/ODEs@ODE_solution_existence_uniqueness&#45;&gt;NASALib/ODEs@interval_def -->
<g id="edge17" class="edge">
<title>NASALib/ODEs@ODE_solution_existence_uniqueness&#45;&gt;NASALib/ODEs@interval_def</title>
<path fill="none" stroke="black" d="M178,-405.5C178,-405.5 196.93,-380.96 212.37,-360.94"/>
<polygon fill="black" stroke="black" points="215.59,-363.5 218.93,-353.45 210.05,-359.23 215.59,-363.5"/>
<path fill="none" stroke="black" d="M592.76,-605.54C467.67,-571.84 188,-496.5 188,-496.5 188,-496.5 178,-407.5 178,-407.5"/>
</g>
<!-- NASALib/ODEs@restrict_ode -->
<g id="node19" class="node">
<title>NASALib/ODEs@restrict_ode</title>
<ellipse fill="#e6f3ff" stroke="black" cx="875" cy="-550.5" rx="54.42" ry="18"/>
<text text-anchor="middle" x="875" y="-545.45" font-family="Times,serif" font-size="14.00">restrict_ode</text>
</g>
<!-- NASALib/ODEs@ODE_solution_existence_uniqueness&#45;&gt;NASALib/ODEs@restrict_ode -->
<g id="edge18" class="edge">
<title>NASALib/ODEs@ODE_solution_existence_uniqueness&#45;&gt;NASALib/ODEs@restrict_ode</title>
<path fill="none" stroke="black" d="M704,-605.18C740.9,-593.59 790.09,-578.15 826.24,-566.81"/>
<polygon fill="black" stroke="black" points="827.05,-569.91 835.54,-563.57 824.95,-563.23 827.05,-569.91"/>
</g>
<!-- NASALib/ODEs@ODE_solution_existence_uniqueness&#45;&gt;NASALib/analysis -->
<g id="edge19" class="edge">
<title>NASALib/ODEs@ODE_solution_existence_uniqueness&#45;&gt;NASALib/analysis</title>
<path fill="none" stroke="black" d="M731.74,-606.88C817.28,-591.19 941,-568.5 941,-568.5 941,-568.5 1145,-479.5 1145,-479.5"/>
</g>
<!-- NASALib/ODEs@continuous_function_complete_rho&#45;&gt;NASALib/ODEs@interval_def -->
<g id="edge20" class="edge">
<title>NASALib/ODEs@continuous_function_complete_rho&#45;&gt;NASALib/ODEs@interval_def</title>
<path fill="none" stroke="black" d="M158,-405.5C158,-405.5 173,-388.5 173,-388.5 173,-388.5 190.13,-373.11 205.93,-358.92"/>
<polygon fill="black" stroke="black" points="207.88,-361.98 212.98,-352.69 203.2,-356.77 207.88,-361.98"/>
</g>
<!-- NASALib/ODEs@continuous_function_complete_rho&#45;&gt;NASALib/ODEs@metric_rho -->
<g id="edge21" class="edge">
<title>NASALib/ODEs@continuous_function_complete_rho&#45;&gt;NASALib/ODEs@metric_rho</title>
<path fill="none" stroke="black" d="M248.41,-536.26C355.64,-520.56 520,-496.5 520,-496.5 520,-496.5 524.37,-495.28 530.77,-493.5"/>
<polygon fill="black" stroke="black" points="531.64,-496.61 540.33,-490.55 529.76,-489.87 531.64,-496.61"/>
</g>
<!-- NASALib/ODEs@r2v_sequence_convergence -->
<g id="node18" class="node">
<title>NASALib/ODEs@r2v_sequence_convergence</title>
<ellipse fill="#e6f3ff" stroke="black" cx="312" cy="-262.5" rx="112.77" ry="18"/>
<text text-anchor="middle" x="312" y="-257.45" font-family="Times,serif" font-size="14.00">r2v_sequence_convergence</text>
</g>
<!-- NASALib/ODEs@continuous_function_complete_rho&#45;&gt;NASALib/ODEs@r2v_sequence_convergence -->
<g id="edge22" class="edge">
<title>NASALib/ODEs@continuous_function_complete_rho&#45;&gt;NASALib/ODEs@r2v_sequence_convergence</title>
<path fill="none" stroke="black" d="M158,-532.09C158,-494.17 158,-407.5 158,-407.5"/>
<path fill="none" stroke="black" d="M158,-405.5C158,-405.5 168,-316.5 168,-316.5 168,-316.5 217.31,-298.35 258.22,-283.29"/>
<polygon fill="black" stroke="black" points="259.23,-286.28 267.4,-279.55 256.81,-279.72 259.23,-286.28"/>
</g>
<!-- NASALib/metric_space -->
<g id="node23" class="node">
<title>NASALib/metric_space</title>
<polygon fill="#fcfcd7" stroke="black" points="1126,-52 1038,-52 1038,-16 1126,-16 1126,-52"/>
<text text-anchor="middle" x="1082" y="-28.95" font-family="Times,serif" font-size="14.00">metric_space</text>
</g>
<!-- NASALib/ODEs@continuous_function_complete_rho&#45;&gt;NASALib/metric_space -->
<g id="edge23" class="edge">
<title>NASALib/ODEs@continuous_function_complete_rho&#45;&gt;NASALib/metric_space</title>
<path fill="none" stroke="black" d="M280.11,-540.98C494.94,-526 918,-496.5 918,-496.5 918,-496.5 1107,-407.5 1107,-407.5 1107,-407.5 1107,-407.5 1107,-189.5 1107,-189.5 1093.76,-107.69 1086.55,-63.13"/>
<polygon fill="black" stroke="black" points="1089.87,-62.74 1084.82,-53.42 1082.96,-63.85 1089.87,-62.74"/>
</g>
<!-- NASALib/ODEs@exp_analysis&#45;&gt;NASALib/analysis -->
<g id="edge24" class="edge">
<title>NASALib/ODEs@exp_analysis&#45;&gt;NASALib/analysis</title>
<path fill="none" stroke="black" d="M993,-117.5C993,-117.5 957,-84.5 957,-84.5 957,-84.5 947.86,-72.9 938.43,-60.93"/>
<polygon fill="black" stroke="black" points="940.58,-59 931.64,-53.31 935.08,-63.33 940.58,-59"/>
<path fill="none" stroke="black" d="M874.45,-461.88C898.94,-446.25 933,-424.5 933,-424.5 933,-424.5 993,-335.5 993,-335.5 993,-335.5 993,-335.5 993,-261.5 993,-261.5 993,-119.5 993,-119.5"/>
</g>
<!-- NASALib/lnexp -->
<g id="node21" class="node">
<title>NASALib/lnexp</title>
<polygon fill="#fcfcd7" stroke="black" points="1020,-52 966,-52 966,-16 1020,-16 1020,-52"/>
<text text-anchor="middle" x="993" y="-28.95" font-family="Times,serif" font-size="14.00">lnexp</text>
</g>
<!-- NASALib/ODEs@exp_analysis&#45;&gt;NASALib/lnexp -->
<g id="edge25" class="edge">
<title>NASALib/ODEs@exp_analysis&#45;&gt;NASALib/lnexp</title>
<path fill="none" stroke="black" d="M993,-117.5C993,-117.5 993,-87.1 993,-63.21"/>
<polygon fill="black" stroke="black" points="996.5,-63.5 993,-53.5 989.5,-63.5 996.5,-63.5"/>
</g>
<!-- NASALib/ODEs@interval_def&#45;&gt;NASALib/analysis -->
<g id="edge26" class="edge">
<title>NASALib/ODEs@interval_def&#45;&gt;NASALib/analysis</title>
<path fill="none" stroke="black" d="M828,-117.5C828,-117.5 852,-92.5 852,-92.5 852,-92.5 879,-84.5 879,-84.5 879,-84.5 888.14,-72.9 897.57,-60.93"/>
<polygon fill="black" stroke="black" points="900.92,-63.33 904.36,-53.31 895.42,-59 900.92,-63.33"/>
<path fill="none" stroke="black" d="M283.9,-327.83C409.02,-314.16 717,-280.5 717,-280.5 717,-280.5 828,-119.5 828,-119.5"/>
</g>
<!-- NASALib/ODEs@interval_def&#45;&gt;NASALib/mv_analysis -->
<g id="edge27" class="edge">
<title>NASALib/ODEs@interval_def&#45;&gt;NASALib/mv_analysis</title>
<path fill="none" stroke="black" d="M828,-117.5C828,-117.5 828,-87.1 828,-63.21"/>
<polygon fill="black" stroke="black" points="831.5,-63.5 828,-53.5 824.5,-63.5 831.5,-63.5"/>
</g>
<!-- NASALib/ODEs@linear_ode_1D -->
<g id="node10" class="node">
<title>NASALib/ODEs@linear_ode_1D</title>
<ellipse fill="#e6f3ff" stroke="black" cx="652" cy="-694.5" rx="65.68" ry="18"/>
<text text-anchor="middle" x="652" y="-689.45" font-family="Times,serif" font-size="14.00">linear_ode_1D</text>
</g>
<!-- NASALib/ODEs@linear_ode_1D&#45;&gt;NASALib/ODEs@ODE_solution_existence_uniqueness -->
<g id="edge28" class="edge">
<title>NASALib/ODEs@linear_ode_1D&#45;&gt;NASALib/ODEs@ODE_solution_existence_uniqueness</title>
<path fill="none" stroke="black" d="M652,-676.2C652,-668.74 652,-659.82 652,-651.47"/>
<polygon fill="black" stroke="black" points="655.5,-651.6 652,-641.6 648.5,-651.6 655.5,-651.6"/>
</g>
<!-- NASALib/ODEs@linear_ode_1D&#45;&gt;NASALib/mv_analysis -->
<g id="edge29" class="edge">
<title>NASALib/ODEs@linear_ode_1D&#45;&gt;NASALib/mv_analysis</title>
<path fill="none" stroke="black" d="M697.73,-681.27C826.53,-646.83 1183,-551.5 1183,-551.5 1183,-551.5 1183,-551.5 1183,-189.5 1183,-189.5 1045,-92.5 1045,-92.5 1045,-92.5 879,-84.5 879,-84.5 879,-84.5 866.34,-72.22 853.64,-59.89"/>
<polygon fill="black" stroke="black" points="856.45,-57.77 846.84,-53.31 851.58,-62.79 856.45,-57.77"/>
</g>
<!-- NASALib/ODEs@metric_rho&#45;&gt;NASALib/ODEs@interval_def -->
<g id="edge30" class="edge">
<title>NASALib/ODEs@metric_rho&#45;&gt;NASALib/ODEs@interval_def</title>
<path fill="none" stroke="black" d="M581,-460.2C581,-439.47 581,-407.5 581,-407.5"/>
<path fill="none" stroke="black" d="M581,-405.5C581,-405.5 561,-388.5 561,-388.5 561,-388.5 386.28,-360.35 291.49,-345.08"/>
<polygon fill="black" stroke="black" points="292.33,-341.51 281.9,-343.38 291.22,-348.42 292.33,-341.51"/>
</g>
<!-- NASALib/ODEs@r2v_continuous_extension -->
<g id="node15" class="node">
<title>NASALib/ODEs@r2v_continuous_extension</title>
<ellipse fill="#e6f3ff" stroke="black" cx="444" cy="-406.5" rx="108.16" ry="18"/>
<text text-anchor="middle" x="444" y="-401.45" font-family="Times,serif" font-size="14.00">r2v_continuous_extension</text>
</g>
<!-- NASALib/ODEs@metric_rho&#45;&gt;NASALib/ODEs@r2v_continuous_extension -->
<g id="edge31" class="edge">
<title>NASALib/ODEs@metric_rho&#45;&gt;NASALib/ODEs@r2v_continuous_extension</title>
<path fill="none" stroke="black" d="M552.61,-463C533.31,-453.13 507.45,-439.92 485.8,-428.86"/>
<polygon fill="black" stroke="black" points="487.69,-425.38 477.19,-423.95 484.5,-431.61 487.69,-425.38"/>
</g>
<!-- NASALib/ODEs@metric_rho&#45;&gt;NASALib/metric_space -->
<g id="edge32" class="edge">
<title>NASALib/ODEs@metric_rho&#45;&gt;NASALib/metric_space</title>
<path fill="none" stroke="black" d="M1031,-117.5C1031,-117.5 1050.65,-85.71 1065.56,-61.6"/>
<polygon fill="black" stroke="black" points="1068.9,-63.84 1071.18,-53.5 1062.95,-60.16 1068.9,-63.84"/>
<path fill="none" stroke="black" d="M621.67,-467.02C635.25,-463.53 647,-460.5 647,-460.5 647,-460.5 933,-424.5 933,-424.5 933,-424.5 1031,-335.5 1031,-335.5 1031,-335.5 1031,-335.5 1031,-261.5 1031,-261.5 1031,-119.5 1031,-119.5"/>
</g>
<!-- NASALib/ODEs@metric_rho&#45;&gt;NASALib/mv_analysis -->
<g id="edge33" class="edge">
<title>NASALib/ODEs@metric_rho&#45;&gt;NASALib/mv_analysis</title>
<path fill="none" stroke="black" d="M1031,-117.5C1031,-117.5 1007,-92.5 1007,-92.5 1007,-92.5 879,-84.5 879,-84.5 879,-84.5 866.34,-72.22 853.64,-59.89"/>
<polygon fill="black" stroke="black" points="856.45,-57.77 846.84,-53.31 851.58,-62.79 856.45,-57.77"/>
</g>
<!-- NASALib/ODEs@more_ci_props -->
<g id="node12" class="node">
<title>NASALib/ODEs@more_ci_props</title>
<ellipse fill="#e6f3ff" stroke="black" cx="444" cy="-478.5" rx="66.71" ry="18"/>
<text text-anchor="middle" x="444" y="-473.45" font-family="Times,serif" font-size="14.00">more_ci_props</text>
</g>
<!-- NASALib/ODEs@more_ci_props&#45;&gt;NASALib/ODEs@r2v_continuous_extension -->
<g id="edge34" class="edge">
<title>NASALib/ODEs@more_ci_props&#45;&gt;NASALib/ODEs@r2v_continuous_extension</title>
<path fill="none" stroke="black" d="M444,-460.2C444,-452.74 444,-443.82 444,-435.47"/>
<polygon fill="black" stroke="black" points="447.5,-435.6 444,-425.6 440.5,-435.6 447.5,-435.6"/>
</g>
<!-- NASALib/ODEs@norm_ineq&#45;&gt;NASALib/ODEs@ODE_continuous_def -->
<g id="edge35" class="edge">
<title>NASALib/ODEs@norm_ineq&#45;&gt;NASALib/ODEs@ODE_continuous_def</title>
<path fill="none" stroke="black" d="M746.09,-462.31C761.15,-452.81 780.82,-440.41 797.63,-429.8"/>
<polygon fill="black" stroke="black" points="799.04,-432.42 805.63,-424.13 795.31,-426.5 799.04,-432.42"/>
</g>
<!-- NASALib/ODEs@norm_ineq&#45;&gt;NASALib/analysis -->
<g id="edge36" class="edge">
<title>NASALib/ODEs@norm_ineq&#45;&gt;NASALib/analysis</title>
<path fill="none" stroke="black" d="M761.01,-466.45C772.47,-463.2 782,-460.5 782,-460.5 782,-460.5 1045,-424.5 1045,-424.5 1045,-424.5 1069,-335.5 1069,-335.5 1069,-335.5 1069,-335.5 1069,-189.5 1069,-189.5 1045,-92.5 1045,-92.5 1045,-92.5 957,-84.5 957,-84.5 957,-84.5 947.86,-72.9 938.43,-60.93"/>
<polygon fill="black" stroke="black" points="940.58,-59 931.64,-53.31 935.08,-63.33 940.58,-59"/>
</g>
<!-- NASALib/ODEs@r2v_def -->
<g id="node16" class="node">
<title>NASALib/ODEs@r2v_def</title>
<ellipse fill="#e6f3ff" stroke="black" cx="444" cy="-118.5" rx="39.58" ry="18"/>
<text text-anchor="middle" x="444" y="-113.45" font-family="Times,serif" font-size="14.00">r2v_def</text>
</g>
<!-- NASALib/ODEs@r2v_analysis&#45;&gt;NASALib/ODEs@r2v_def -->
<g id="edge37" class="edge">
<title>NASALib/ODEs@r2v_analysis&#45;&gt;NASALib/ODEs@r2v_def</title>
<path fill="none" stroke="black" d="M444,-172.2C444,-164.74 444,-155.82 444,-147.47"/>
<polygon fill="black" stroke="black" points="447.5,-147.6 444,-137.6 440.5,-147.6 447.5,-147.6"/>
</g>
<!-- NASALib/ODEs@r2v_analysis&#45;&gt;NASALib/analysis -->
<g id="edge38" class="edge">
<title>NASALib/ODEs@r2v_analysis&#45;&gt;NASALib/analysis</title>
<path fill="none" stroke="black" d="M676,-117.5C676,-117.5 700,-92.5 700,-92.5 700,-92.5 879,-84.5 879,-84.5 879,-84.5 888.14,-72.9 897.57,-60.93"/>
<polygon fill="black" stroke="black" points="900.92,-63.33 904.36,-53.31 895.42,-59 900.92,-63.33"/>
</g>
<!-- NASALib/ODEs@r2v_analysis&#45;&gt;NASALib/mv_analysis -->
<g id="edge39" class="edge">
<title>NASALib/ODEs@r2v_analysis&#45;&gt;NASALib/mv_analysis</title>
<path fill="none" stroke="black" d="M676,-117.5C676,-117.5 700,-92.5 700,-92.5 700,-92.5 777,-84.5 777,-84.5 777,-84.5 789.66,-72.22 802.36,-59.89"/>
<polygon fill="black" stroke="black" points="804.42,-62.79 809.16,-53.31 799.55,-57.77 804.42,-62.79"/>
<path fill="none" stroke="black" d="M484.41,-177.31C550.88,-157.25 676,-119.5 676,-119.5"/>
</g>
<!-- NASALib/ODEs@r2v_continuous_extension&#45;&gt;NASALib/ODEs@interval_def -->
<g id="edge40" class="edge">
<title>NASALib/ODEs@r2v_continuous_extension&#45;&gt;NASALib/ODEs@interval_def</title>
<path fill="none" stroke="black" d="M396.69,-389.88C362.07,-378.45 315.26,-362.99 280.4,-351.48"/>
<polygon fill="black" stroke="black" points="281.58,-347.85 270.99,-348.04 279.38,-354.5 281.58,-347.85"/>
</g>
<!-- NASALib/ODEs@r2v_continuous_extension&#45;&gt;NASALib/ODEs@r2v_analysis -->
<g id="edge41" class="edge">
<title>NASALib/ODEs@r2v_continuous_extension&#45;&gt;NASALib/ODEs@r2v_analysis</title>
<path fill="none" stroke="black" d="M444,-388.35C444,-351.49 444,-264.42 444,-219.46"/>
<polygon fill="black" stroke="black" points="447.5,-219.73 444,-209.73 440.5,-219.73 447.5,-219.73"/>
</g>
<!-- NASALib/ODEs@r2v_continuous_extension&#45;&gt;NASALib/lnexp -->
<g id="edge42" class="edge">
<title>NASALib/ODEs@r2v_continuous_extension&#45;&gt;NASALib/lnexp</title>
<path fill="none" stroke="black" d="M527.68,-394.84C649.16,-379.36 860,-352.5 860,-352.5 860,-352.5 955,-263.5 955,-263.5 955,-263.5 955,-263.5 955,-189.5 955,-189.5 975.21,-107.34 986.15,-62.85"/>
<polygon fill="black" stroke="black" points="989.73,-63.97 988.71,-53.42 982.93,-62.3 989.73,-63.97"/>
</g>
<!-- NASALib/matrices -->
<g id="node22" class="node">
<title>NASALib/matrices</title>
<polygon fill="#fcfcd7" stroke="black" points="768.25,-52 705.75,-52 705.75,-16 768.25,-16 768.25,-52"/>
<text text-anchor="middle" x="737" y="-28.95" font-family="Times,serif" font-size="14.00">matrices</text>
</g>
<!-- NASALib/ODEs@r2v_def&#45;&gt;NASALib/matrices -->
<g id="edge43" class="edge">
<title>NASALib/ODEs@r2v_def&#45;&gt;NASALib/matrices</title>
<path fill="none" stroke="black" d="M481.73,-112.56C552.03,-103.35 696,-84.5 696,-84.5 696,-84.5 705.79,-72.67 715.81,-60.58"/>
<polygon fill="black" stroke="black" points="718.98,-63.25 722.66,-53.31 713.59,-58.78 718.98,-63.25"/>
</g>
<!-- NASALib/ODEs@r2v_def&#45;&gt;NASALib/mv_analysis -->
<g id="edge44" class="edge">
<title>NASALib/ODEs@r2v_def&#45;&gt;NASALib/mv_analysis</title>
<path fill="none" stroke="black" d="M482.22,-113.12C544.74,-105.95 662,-92.5 662,-92.5 662,-92.5 777,-84.5 777,-84.5 777,-84.5 789.66,-72.22 802.36,-59.89"/>
<polygon fill="black" stroke="black" points="804.42,-62.79 809.16,-53.31 799.55,-57.77 804.42,-62.79"/>
</g>
<!-- NASALib/structures -->
<g id="node25" class="node">
<title>NASALib/structures</title>
<polygon fill="#fcfcd7" stroke="black" points="687.25,-52 618.75,-52 618.75,-16 687.25,-16 687.25,-52"/>
<text text-anchor="middle" x="653" y="-28.95" font-family="Times,serif" font-size="14.00">structures</text>
</g>
<!-- NASALib/ODEs@r2v_def&#45;&gt;NASALib/structures -->
<g id="edge45" class="edge">
<title>NASALib/ODEs@r2v_def&#45;&gt;NASALib/structures</title>
<path fill="none" stroke="black" d="M473.06,-106.03C508.11,-92.19 567.41,-68.78 608.3,-52.64"/>
<polygon fill="black" stroke="black" points="609.26,-55.63 617.28,-48.71 606.69,-49.12 609.26,-55.63"/>
</g>
<!-- NASALib/ODEs@r2v_diff_extension -->
<g id="node17" class="node">
<title>NASALib/ODEs@r2v_diff_extension</title>
<ellipse fill="#e6f3ff" stroke="black" cx="278" cy="-478.5" rx="81.04" ry="18"/>
<text text-anchor="middle" x="278" y="-473.45" font-family="Times,serif" font-size="14.00">r2v_diff_extension</text>
</g>
<!-- NASALib/ODEs@r2v_diff_extension&#45;&gt;NASALib/ODEs@interval_def -->
<g id="edge46" class="edge">
<title>NASALib/ODEs@r2v_diff_extension&#45;&gt;NASALib/ODEs@interval_def</title>
<path fill="none" stroke="black" d="M254.3,-460.91C224.73,-440.21 178,-407.5 178,-407.5"/>
</g>
<!-- NASALib/ODEs@r2v_diff_extension&#45;&gt;NASALib/ODEs@r2v_continuous_extension -->
<g id="edge47" class="edge">
<title>NASALib/ODEs@r2v_diff_extension&#45;&gt;NASALib/ODEs@r2v_continuous_extension</title>
<path fill="none" stroke="black" d="M314.43,-462.14C338.27,-452.08 369.7,-438.83 395.63,-427.9"/>
<polygon fill="black" stroke="black" points="396.78,-430.79 404.64,-423.68 394.06,-424.34 396.78,-430.79"/>
</g>
<!-- NASALib/ODEs@r2v_sequence_convergence&#45;&gt;NASALib/ODEs@r2v_analysis -->
<g id="edge48" class="edge">
<title>NASALib/ODEs@r2v_sequence_convergence&#45;&gt;NASALib/ODEs@r2v_analysis</title>
<path fill="none" stroke="black" d="M343.28,-244.91C362.07,-234.95 386.09,-222.21 405.97,-211.67"/>
<polygon fill="black" stroke="black" points="407.45,-214.32 414.64,-206.54 404.17,-208.13 407.45,-214.32"/>
</g>
<!-- NASALib/ODEs@r2v_sequence_convergence&#45;&gt;NASALib/analysis -->
<g id="edge49" class="edge">
<title>NASALib/ODEs@r2v_sequence_convergence&#45;&gt;NASALib/analysis</title>
<path fill="none" stroke="black" d="M368.21,-246.45C426.75,-230.78 510,-208.5 510,-208.5 510,-208.5 752,-119.5 752,-119.5"/>
<path fill="none" stroke="black" d="M752,-117.5C752,-117.5 776,-92.5 776,-92.5 776,-92.5 879,-84.5 879,-84.5 879,-84.5 888.14,-72.9 897.57,-60.93"/>
<polygon fill="black" stroke="black" points="900.92,-63.33 904.36,-53.31 895.42,-59 900.92,-63.33"/>
</g>
<!-- NASALib/ODEs@r2v_sequence_convergence&#45;&gt;NASALib/mv_analysis -->
<g id="edge50" class="edge">
<title>NASALib/ODEs@r2v_sequence_convergence&#45;&gt;NASALib/mv_analysis</title>
<path fill="none" stroke="black" d="M752,-117.5C752,-117.5 782.33,-84.58 804.67,-60.33"/>
<polygon fill="black" stroke="black" points="806.68,-63.22 810.88,-53.5 801.53,-58.48 806.68,-63.22"/>
</g>
<!-- NASALib/ODEs@restrict_ode&#45;&gt;NASALib/ODEs@ODE_continuous_def -->
<g id="edge51" class="edge">
<title>NASALib/ODEs@restrict_ode&#45;&gt;NASALib/ODEs@ODE_continuous_def</title>
<path fill="none" stroke="black" d="M888.61,-532.73C901.2,-517.2 918,-496.5 918,-496.5 918,-496.5 918,-460.5 918,-460.5 918,-460.5 891.8,-444.16 868.49,-429.63"/>
<polygon fill="black" stroke="black" points="870.77,-426.3 860.43,-423.98 867.06,-432.24 870.77,-426.3"/>
</g>
<!-- NASALib/ODEs@restrict_ode&#45;&gt;NASALib/analysis -->
<g id="edge52" class="edge">
<title>NASALib/ODEs@restrict_ode&#45;&gt;NASALib/analysis</title>
<path fill="none" stroke="black" d="M919.83,-539.84C990.79,-524.55 1121,-496.5 1121,-496.5 1121,-496.5 1145,-479.5 1145,-479.5"/>
<path fill="none" stroke="black" d="M1145,-477.5C1145,-477.5 1145,-335.5 1145,-335.5 1145,-335.5 1145,-335.5 1145,-189.5 1145,-189.5 1064,-92.5 1064,-92.5 1064,-92.5 957,-84.5 957,-84.5 957,-84.5 947.86,-72.9 938.43,-60.93"/>
<polygon fill="black" stroke="black" points="940.58,-59 931.64,-53.31 935.08,-63.33 940.58,-59"/>
</g>
</g>
</svg>
