<?xml version="1.0" encoding="UTF-8" standalone="no"?>
<!DOCTYPE svg PUBLIC "-//W3C//DTD SVG 1.1//EN"
 "http://www.w3.org/Graphics/SVG/1.1/DTD/svg11.dtd">
<!-- Generated by graphviz version 3.0.0 (20220226.1711)
 -->
<!-- Title: all&#45;libraries&#45;ODEs&#45;zoom_ODEs Pages: 1 -->
<svg width="2061pt" height="682pt"
 viewBox="0.00 0.00 2060.96 682.00" xmlns="http://www.w3.org/2000/svg" xmlns:xlink="http://www.w3.org/1999/xlink">
<g id="graph0" class="graph" transform="scale(1 1) rotate(0) translate(4 678)">
<title>all&#45;libraries&#45;ODEs&#45;zoom_ODEs</title>
<polygon fill="white" stroke="transparent" points="-4,4 -4,-678 2056.96,-678 2056.96,4 -4,4"/>
<g id="clust2" class="cluster">
<title>cluster_pvs&#45;experimental/ODEs</title>
<polygon fill="none" stroke="black" points="8,-349 8,-666 1919.96,-666 1919.96,-349 8,-349"/>
<text text-anchor="middle" x="963.98" y="-650.8" font-family="Times,serif" font-size="14.00">pvs&#45;experimental/ODEs</text>
</g>
<g id="clust1" class="cluster">
<title>cluster_nasalib</title>
<polygon fill="none" stroke="black" points="1939.96,-126 1939.96,-471 2044.96,-471 2044.96,-126 1939.96,-126"/>
<text text-anchor="middle" x="1992.46" y="-455.8" font-family="Times,serif" font-size="14.00">nasalib</text>
</g>
<!-- nasalib/analysis -->
<g id="node1" class="node">
<title>nasalib/analysis</title>
<polygon fill="#fcfcd7" stroke="black" points="2022.46,-278 1962.46,-278 1962.46,-242 2022.46,-242 2022.46,-278"/>
<text text-anchor="middle" x="1992.46" y="-256.3" font-family="Times,serif" font-size="14.00">analysis</text>
</g>
<!-- nasalib/lnexp -->
<g id="node2" class="node">
<title>nasalib/lnexp</title>
<polygon fill="#fcfcd7" stroke="black" points="2019.46,-224 1965.46,-224 1965.46,-188 2019.46,-188 2019.46,-224"/>
<text text-anchor="middle" x="1992.46" y="-202.3" font-family="Times,serif" font-size="14.00">lnexp</text>
</g>
<!-- nasalib/matrices -->
<g id="node3" class="node">
<title>nasalib/matrices</title>
<polygon fill="#fcfcd7" stroke="black" points="2023.96,-440 1960.96,-440 1960.96,-404 2023.96,-404 2023.96,-440"/>
<text text-anchor="middle" x="1992.46" y="-418.3" font-family="Times,serif" font-size="14.00">matrices</text>
</g>
<!-- nasalib/metric_space -->
<g id="node4" class="node">
<title>nasalib/metric_space</title>
<polygon fill="#fcfcd7" stroke="black" points="2036.96,-170 1947.96,-170 1947.96,-134 2036.96,-134 2036.96,-170"/>
<text text-anchor="middle" x="1992.46" y="-148.3" font-family="Times,serif" font-size="14.00">metric_space</text>
</g>
<!-- nasalib/mv_analysis -->
<g id="node5" class="node">
<title>nasalib/mv_analysis</title>
<polygon fill="#fcfcd7" stroke="black" points="2034.96,-332 1949.96,-332 1949.96,-296 2034.96,-296 2034.96,-332"/>
<text text-anchor="middle" x="1992.46" y="-310.3" font-family="Times,serif" font-size="14.00">mv_analysis</text>
</g>
<!-- nasalib/structures -->
<g id="node6" class="node">
<title>nasalib/structures</title>
<polygon fill="#fcfcd7" stroke="black" points="2026.96,-386 1957.96,-386 1957.96,-350 2026.96,-350 2026.96,-386"/>
<text text-anchor="middle" x="1992.46" y="-364.3" font-family="Times,serif" font-size="14.00">structures</text>
</g>
<!-- pvs&#45;experimental/ODEs@ODE_Lipschitz_def -->
<g id="node7" class="node">
<title>pvs&#45;experimental/ODEs@ODE_Lipschitz_def</title>
<ellipse fill="#e6f3ff" stroke="black" cx="1319.75" cy="-395" rx="81.49" ry="18"/>
<text text-anchor="middle" x="1319.75" y="-391.3" font-family="Times,serif" font-size="14.00">ODE_Lipschitz_def</text>
</g>
<!-- pvs&#45;experimental/ODEs@ODE_Lipschitz_def&#45;&gt;nasalib/analysis -->
<g id="edge1" class="edge">
<title>pvs&#45;experimental/ODEs@ODE_Lipschitz_def&#45;&gt;nasalib/analysis</title>
<path fill="none" stroke="black" d="M1397.23,-400.51C1540.39,-409.17 1841.48,-419.05 1919.96,-356 1944.85,-336 1919.76,-311.73 1939.96,-287 1943.72,-282.39 1948.48,-278.48 1953.58,-275.17"/>
<polygon fill="black" stroke="black" points="1955.4,-278.17 1962.37,-270.19 1951.94,-272.08 1955.4,-278.17"/>
</g>
<!-- pvs&#45;experimental/ODEs@ODE_def -->
<g id="node9" class="node">
<title>pvs&#45;experimental/ODEs@ODE_def</title>
<ellipse fill="#e6f3ff" stroke="black" cx="1544.88" cy="-449" rx="44.39" ry="18"/>
<text text-anchor="middle" x="1544.88" y="-445.3" font-family="Times,serif" font-size="14.00">ODE_def</text>
</g>
<!-- pvs&#45;experimental/ODEs@ODE_Lipschitz_def&#45;&gt;pvs&#45;experimental/ODEs@ODE_def -->
<g id="edge2" class="edge">
<title>pvs&#45;experimental/ODEs@ODE_Lipschitz_def&#45;&gt;pvs&#45;experimental/ODEs@ODE_def</title>
<path fill="none" stroke="black" d="M1375.33,-408.21C1412.44,-417.19 1461.05,-428.95 1496.52,-437.54"/>
<polygon fill="black" stroke="black" points="1496.08,-441.03 1506.62,-439.98 1497.72,-434.23 1496.08,-441.03"/>
</g>
<!-- pvs&#45;experimental/ODEs@ODE_continuous_def -->
<g id="node8" class="node">
<title>pvs&#45;experimental/ODEs@ODE_continuous_def</title>
<ellipse fill="#e6f3ff" stroke="black" cx="1099.17" cy="-395" rx="87.18" ry="18"/>
<text text-anchor="middle" x="1099.17" y="-391.3" font-family="Times,serif" font-size="14.00">ODE_continuous_def</text>
</g>
<!-- pvs&#45;experimental/ODEs@ODE_continuous_def&#45;&gt;nasalib/analysis -->
<g id="edge3" class="edge">
<title>pvs&#45;experimental/ODEs@ODE_continuous_def&#45;&gt;nasalib/analysis</title>
<path fill="none" stroke="black" d="M1874.61,-304C1901.96,-301.1 1930.9,-290.27 1953.14,-280.08"/>
<polygon fill="black" stroke="black" points="1954.69,-283.21 1962.23,-275.77 1951.7,-276.88 1954.69,-283.21"/>
</g>
<!-- pvs&#45;experimental/ODEs@ODE_continuous_def&#45;&gt;nasalib/mv_analysis -->
<g id="edge4" class="edge">
<title>pvs&#45;experimental/ODEs@ODE_continuous_def&#45;&gt;nasalib/mv_analysis</title>
<path fill="none" stroke="black" d="M1874.61,-304C1895.98,-302.48 1919.52,-303.9 1939.84,-306.1"/>
<polygon fill="black" stroke="black" points="1939.5,-309.58 1949.84,-307.27 1940.31,-302.63 1939.5,-309.58"/>
<path fill="none" stroke="black" d="M1160.22,-382.03C1184.45,-377.12 1212.73,-371.81 1238.51,-368 1518.72,-326.6 1590.07,-324.11 1872.61,-304"/>
</g>
<!-- pvs&#45;experimental/ODEs@ODE_continuous_def&#45;&gt;pvs&#45;experimental/ODEs@ODE_Lipschitz_def -->
<g id="edge5" class="edge">
<title>pvs&#45;experimental/ODEs@ODE_continuous_def&#45;&gt;pvs&#45;experimental/ODEs@ODE_Lipschitz_def</title>
<path fill="none" stroke="black" d="M1186.56,-395C1200.15,-395 1214.25,-395 1227.94,-395"/>
<polygon fill="black" stroke="black" points="1228.32,-398.5 1238.32,-395 1228.32,-391.5 1228.32,-398.5"/>
</g>
<!-- pvs&#45;experimental/ODEs@ODE_def&#45;&gt;nasalib/analysis -->
<g id="edge6" class="edge">
<title>pvs&#45;experimental/ODEs@ODE_def&#45;&gt;nasalib/analysis</title>
<path fill="none" stroke="black" d="M1585.22,-456.47C1661.11,-468.38 1828.3,-482.17 1919.96,-394 1954.82,-360.46 1911.21,-325.91 1939.96,-287 1943.53,-282.16 1948.23,-278.11 1953.34,-274.75"/>
<polygon fill="black" stroke="black" points="1955.23,-277.7 1962.19,-269.72 1951.77,-271.62 1955.23,-277.7"/>
</g>
<!-- pvs&#45;experimental/ODEs@r2v_analysis -->
<g id="node19" class="node">
<title>pvs&#45;experimental/ODEs@r2v_analysis</title>
<ellipse fill="#e6f3ff" stroke="black" cx="1744.02" cy="-540" rx="55.49" ry="18"/>
<text text-anchor="middle" x="1744.02" y="-536.3" font-family="Times,serif" font-size="14.00">r2v_analysis</text>
</g>
<!-- pvs&#45;experimental/ODEs@ODE_def&#45;&gt;pvs&#45;experimental/ODEs@r2v_analysis -->
<g id="edge7" class="edge">
<title>pvs&#45;experimental/ODEs@ODE_def&#45;&gt;pvs&#45;experimental/ODEs@r2v_analysis</title>
<path fill="none" stroke="black" d="M1574.97,-462.43C1608.54,-477.92 1663.99,-503.52 1701.95,-521.04"/>
<polygon fill="black" stroke="black" points="1700.65,-524.3 1711.2,-525.31 1703.58,-517.94 1700.65,-524.3"/>
</g>
<!-- pvs&#45;experimental/ODEs@ODE_psi_contraction -->
<g id="node10" class="node">
<title>pvs&#45;experimental/ODEs@ODE_psi_contraction</title>
<ellipse fill="#e6f3ff" stroke="black" cx="633.3" cy="-469" rx="87.18" ry="18"/>
<text text-anchor="middle" x="633.3" y="-465.3" font-family="Times,serif" font-size="14.00">ODE_psi_contraction</text>
</g>
<!-- pvs&#45;experimental/ODEs@ODE_psi_def -->
<g id="node11" class="node">
<title>pvs&#45;experimental/ODEs@ODE_psi_def</title>
<ellipse fill="#e6f3ff" stroke="black" cx="1099.17" cy="-449" rx="59.29" ry="18"/>
<text text-anchor="middle" x="1099.17" y="-445.3" font-family="Times,serif" font-size="14.00">ODE_psi_def</text>
</g>
<!-- pvs&#45;experimental/ODEs@ODE_psi_contraction&#45;&gt;pvs&#45;experimental/ODEs@ODE_psi_def -->
<g id="edge8" class="edge">
<title>pvs&#45;experimental/ODEs@ODE_psi_contraction&#45;&gt;pvs&#45;experimental/ODEs@ODE_psi_def</title>
<path fill="none" stroke="black" d="M710.76,-477.31C759.55,-481.86 824.17,-486.49 881.48,-486"/>
<path fill="none" stroke="black" d="M883.48,-486C938.92,-485.53 1001.26,-473.47 1044.42,-463.24"/>
<polygon fill="black" stroke="black" points="1045.24,-466.64 1054.14,-460.89 1043.6,-459.84 1045.24,-466.64"/>
</g>
<!-- pvs&#45;experimental/ODEs@exp_analysis -->
<g id="node14" class="node">
<title>pvs&#45;experimental/ODEs@exp_analysis</title>
<ellipse fill="#e6f3ff" stroke="black" cx="882.48" cy="-395" rx="55.79" ry="18"/>
<text text-anchor="middle" x="882.48" y="-391.3" font-family="Times,serif" font-size="14.00">exp_analysis</text>
</g>
<!-- pvs&#45;experimental/ODEs@ODE_psi_contraction&#45;&gt;pvs&#45;experimental/ODEs@exp_analysis -->
<g id="edge9" class="edge">
<title>pvs&#45;experimental/ODEs@ODE_psi_contraction&#45;&gt;pvs&#45;experimental/ODEs@exp_analysis</title>
<path fill="none" stroke="black" d="M683.73,-454.2C726.47,-441.41 787.99,-422.99 831.03,-410.11"/>
<polygon fill="black" stroke="black" points="832.15,-413.42 840.73,-407.2 830.15,-406.72 832.15,-413.42"/>
</g>
<!-- pvs&#45;experimental/ODEs@interval_def -->
<g id="node15" class="node">
<title>pvs&#45;experimental/ODEs@interval_def</title>
<ellipse fill="#e6f3ff" stroke="black" cx="1319.75" cy="-577" rx="53.09" ry="18"/>
<text text-anchor="middle" x="1319.75" y="-573.3" font-family="Times,serif" font-size="14.00">interval_def</text>
</g>
<!-- pvs&#45;experimental/ODEs@ODE_psi_contraction&#45;&gt;pvs&#45;experimental/ODEs@interval_def -->
<g id="edge10" class="edge">
<title>pvs&#45;experimental/ODEs@ODE_psi_contraction&#45;&gt;pvs&#45;experimental/ODEs@interval_def</title>
<path fill="none" stroke="black" d="M883.48,-486C1025.77,-484.79 1066.31,-471.78 1202.51,-513 1233.26,-522.31 1265.01,-540.47 1287.54,-555.08"/>
<polygon fill="black" stroke="black" points="1285.73,-558.08 1296,-560.68 1289.6,-552.24 1285.73,-558.08"/>
</g>
<!-- pvs&#45;experimental/ODEs@metric_rho -->
<g id="node17" class="node">
<title>pvs&#45;experimental/ODEs@metric_rho</title>
<ellipse fill="#e6f3ff" stroke="black" cx="882.48" cy="-523" rx="50.09" ry="18"/>
<text text-anchor="middle" x="882.48" y="-519.3" font-family="Times,serif" font-size="14.00">metric_rho</text>
</g>
<!-- pvs&#45;experimental/ODEs@ODE_psi_contraction&#45;&gt;pvs&#45;experimental/ODEs@metric_rho -->
<g id="edge11" class="edge">
<title>pvs&#45;experimental/ODEs@ODE_psi_contraction&#45;&gt;pvs&#45;experimental/ODEs@metric_rho</title>
<path fill="none" stroke="black" d="M697.86,-481.21C720.41,-485.68 745.94,-490.89 769.14,-496 789.49,-500.48 811.83,-505.77 831.18,-510.48"/>
<polygon fill="black" stroke="black" points="830.46,-513.9 841.01,-512.88 832.13,-507.1 830.46,-513.9"/>
</g>
<!-- pvs&#45;experimental/ODEs@norm_ineq -->
<g id="node18" class="node">
<title>pvs&#45;experimental/ODEs@norm_ineq</title>
<ellipse fill="#e6f3ff" stroke="black" cx="882.48" cy="-449" rx="49.29" ry="18"/>
<text text-anchor="middle" x="882.48" y="-445.3" font-family="Times,serif" font-size="14.00">norm_ineq</text>
</g>
<!-- pvs&#45;experimental/ODEs@ODE_psi_contraction&#45;&gt;pvs&#45;experimental/ODEs@norm_ineq -->
<g id="edge12" class="edge">
<title>pvs&#45;experimental/ODEs@ODE_psi_contraction&#45;&gt;pvs&#45;experimental/ODEs@norm_ineq</title>
<path fill="none" stroke="black" d="M714.55,-462.51C750.17,-459.62 791.28,-456.3 823.8,-453.67"/>
<polygon fill="black" stroke="black" points="824.35,-457.13 834.03,-452.84 823.78,-450.16 824.35,-457.13"/>
</g>
<!-- pvs&#45;experimental/ODEs@ODE_psi_def&#45;&gt;nasalib/analysis -->
<g id="edge13" class="edge">
<title>pvs&#45;experimental/ODEs@ODE_psi_def&#45;&gt;nasalib/analysis</title>
<path fill="none" stroke="black" d="M1154.36,-442.31C1170.92,-438.35 1188.45,-432.04 1202.51,-422 1225.98,-405.23 1215.59,-385.52 1238.51,-368 1352.2,-281.11 1400.79,-266 1543.88,-266 1543.88,-266 1543.88,-266 1745.02,-266 1818.18,-266 1903.53,-263.32 1952.16,-261.55"/>
<polygon fill="black" stroke="black" points="1952.39,-265.04 1962.25,-261.17 1952.13,-258.05 1952.39,-265.04"/>
</g>
<!-- pvs&#45;experimental/ODEs@ODE_psi_def&#45;&gt;pvs&#45;experimental/ODEs@ODE_def -->
<g id="edge14" class="edge">
<title>pvs&#45;experimental/ODEs@ODE_psi_def&#45;&gt;pvs&#45;experimental/ODEs@ODE_def</title>
<path fill="none" stroke="black" d="M1158.63,-449C1245.38,-449 1406.91,-449 1490.58,-449"/>
<polygon fill="black" stroke="black" points="1490.63,-452.5 1500.63,-449 1490.63,-445.5 1490.63,-452.5"/>
</g>
<!-- pvs&#45;experimental/ODEs@ODE_solution_existence_uniqueness -->
<g id="node12" class="node">
<title>pvs&#45;experimental/ODEs@ODE_solution_existence_uniqueness</title>
<ellipse fill="#e6f3ff" stroke="black" cx="319.78" cy="-469" rx="141.88" ry="18"/>
<text text-anchor="middle" x="319.78" y="-465.3" font-family="Times,serif" font-size="14.00">ODE_solution_existence_uniqueness</text>
</g>
<!-- pvs&#45;experimental/ODEs@ODE_solution_existence_uniqueness&#45;&gt;nasalib/analysis -->
<g id="edge15" class="edge">
<title>pvs&#45;experimental/ODEs@ODE_solution_existence_uniqueness&#45;&gt;nasalib/analysis</title>
<path fill="none" stroke="black" d="M883.48,-291C980.08,-236.36 904.13,-130.51 995.83,-68 1114.92,13.19 1174.61,-38 1318.75,-38 1318.75,-38 1318.75,-38 1745.02,-38 1827.66,-38 1867.5,-37.15 1919.96,-101 1957.62,-146.85 1905.52,-184.68 1939.96,-233 1943.49,-237.95 1948.2,-242.07 1953.36,-245.47"/>
<polygon fill="black" stroke="black" points="1951.88,-248.65 1962.3,-250.53 1955.33,-242.56 1951.88,-248.65"/>
<path fill="none" stroke="black" d="M340.23,-451.16C371.05,-424 434.13,-372.85 497.46,-348 517.54,-340.12 862.63,-301.47 881.48,-291"/>
</g>
<!-- pvs&#45;experimental/ODEs@ODE_solution_existence_uniqueness&#45;&gt;pvs&#45;experimental/ODEs@ODE_psi_contraction -->
<g id="edge16" class="edge">
<title>pvs&#45;experimental/ODEs@ODE_solution_existence_uniqueness&#45;&gt;pvs&#45;experimental/ODEs@ODE_psi_contraction</title>
<path fill="none" stroke="black" d="M461.5,-469C486.64,-469 512.31,-469 535.86,-469"/>
<polygon fill="black" stroke="black" points="536.16,-472.5 546.16,-469 536.16,-465.5 536.16,-472.5"/>
</g>
<!-- pvs&#45;experimental/ODEs@continuous_function_complete_rho -->
<g id="node13" class="node">
<title>pvs&#45;experimental/ODEs@continuous_function_complete_rho</title>
<ellipse fill="#e6f3ff" stroke="black" cx="633.3" cy="-523" rx="135.68" ry="18"/>
<text text-anchor="middle" x="633.3" y="-519.3" font-family="Times,serif" font-size="14.00">continuous_function_complete_rho</text>
</g>
<!-- pvs&#45;experimental/ODEs@ODE_solution_existence_uniqueness&#45;&gt;pvs&#45;experimental/ODEs@continuous_function_complete_rho -->
<g id="edge17" class="edge">
<title>pvs&#45;experimental/ODEs@ODE_solution_existence_uniqueness&#45;&gt;pvs&#45;experimental/ODEs@continuous_function_complete_rho</title>
<path fill="none" stroke="black" d="M404.26,-483.47C446.14,-490.73 496.99,-499.54 540.03,-507.01"/>
<polygon fill="black" stroke="black" points="539.49,-510.46 549.94,-508.72 540.68,-503.57 539.49,-510.46"/>
</g>
<!-- pvs&#45;experimental/ODEs@ODE_solution_existence_uniqueness&#45;&gt;pvs&#45;experimental/ODEs@interval_def -->
<g id="edge18" class="edge">
<title>pvs&#45;experimental/ODEs@ODE_solution_existence_uniqueness&#45;&gt;pvs&#45;experimental/ODEs@interval_def</title>
<path fill="none" stroke="black" d="M353.46,-486.54C388.3,-504.62 445.48,-532.56 497.46,-550 795.96,-650.14 892.38,-673.31 1202.51,-619 1228.47,-614.45 1256.28,-604.6 1278.18,-595.58"/>
<polygon fill="black" stroke="black" points="1279.64,-598.76 1287.49,-591.65 1276.92,-592.32 1279.64,-598.76"/>
</g>
<!-- pvs&#45;experimental/ODEs@restrict_ode -->
<g id="node24" class="node">
<title>pvs&#45;experimental/ODEs@restrict_ode</title>
<ellipse fill="#e6f3ff" stroke="black" cx="633.3" cy="-375" rx="51.99" ry="18"/>
<text text-anchor="middle" x="633.3" y="-371.3" font-family="Times,serif" font-size="14.00">restrict_ode</text>
</g>
<!-- pvs&#45;experimental/ODEs@ODE_solution_existence_uniqueness&#45;&gt;pvs&#45;experimental/ODEs@restrict_ode -->
<g id="edge19" class="edge">
<title>pvs&#45;experimental/ODEs@ODE_solution_existence_uniqueness&#45;&gt;pvs&#45;experimental/ODEs@restrict_ode</title>
<path fill="none" stroke="black" d="M375.75,-452.41C434.74,-434.61 527.53,-406.61 583.87,-389.61"/>
<polygon fill="black" stroke="black" points="585.04,-392.92 593.61,-386.68 583.02,-386.21 585.04,-392.92"/>
</g>
<!-- pvs&#45;experimental/ODEs@continuous_function_complete_rho&#45;&gt;nasalib/metric_space -->
<g id="edge20" class="edge">
<title>pvs&#45;experimental/ODEs@continuous_function_complete_rho&#45;&gt;nasalib/metric_space</title>
<path fill="none" stroke="black" d="M743.69,-512.37C753.01,-508.24 761.7,-502.89 769.14,-496 812.5,-455.84 765.77,-412.07 805.14,-368 854.59,-312.64 913.14,-362.71 959.83,-305 1017.18,-234.1 928.42,-164.42 995.83,-103 1049.06,-54.5 1246.74,-76 1318.75,-76 1318.75,-76 1318.75,-76 1745.02,-76 1823.56,-76 1847.04,-71.81 1919.96,-101 1935.75,-107.32 1951.36,-117.82 1963.94,-127.65"/>
<polygon fill="black" stroke="black" points="1961.77,-130.4 1971.74,-133.97 1966.17,-124.96 1961.77,-130.4"/>
</g>
<!-- pvs&#45;experimental/ODEs@continuous_function_complete_rho&#45;&gt;pvs&#45;experimental/ODEs@interval_def -->
<g id="edge21" class="edge">
<title>pvs&#45;experimental/ODEs@continuous_function_complete_rho&#45;&gt;pvs&#45;experimental/ODEs@interval_def</title>
<path fill="none" stroke="black" d="M1100.17,-614C1157.43,-611.6 1222.03,-599.48 1266.05,-589.75"/>
<polygon fill="black" stroke="black" points="1266.97,-593.13 1275.96,-587.53 1265.43,-586.3 1266.97,-593.13"/>
<path fill="none" stroke="black" d="M662.28,-540.69C695.06,-560.35 751.71,-591.01 805.14,-604 931.76,-634.78 967.97,-619.45 1098.17,-614"/>
</g>
<!-- pvs&#45;experimental/ODEs@continuous_function_complete_rho&#45;&gt;pvs&#45;experimental/ODEs@metric_rho -->
<g id="edge22" class="edge">
<title>pvs&#45;experimental/ODEs@continuous_function_complete_rho&#45;&gt;pvs&#45;experimental/ODEs@metric_rho</title>
<path fill="none" stroke="black" d="M769.46,-523C787.86,-523 805.92,-523 821.97,-523"/>
<polygon fill="black" stroke="black" points="822.22,-526.5 832.22,-523 822.22,-519.5 822.22,-526.5"/>
</g>
<!-- pvs&#45;experimental/ODEs@r2v_sequence_convergence -->
<g id="node23" class="node">
<title>pvs&#45;experimental/ODEs@r2v_sequence_convergence</title>
<ellipse fill="#e6f3ff" stroke="black" cx="1544.88" cy="-577" rx="107.78" ry="18"/>
<text text-anchor="middle" x="1544.88" y="-573.3" font-family="Times,serif" font-size="14.00">r2v_sequence_convergence</text>
</g>
<!-- pvs&#45;experimental/ODEs@continuous_function_complete_rho&#45;&gt;pvs&#45;experimental/ODEs@r2v_sequence_convergence -->
<g id="edge23" class="edge">
<title>pvs&#45;experimental/ODEs@continuous_function_complete_rho&#45;&gt;pvs&#45;experimental/ODEs@r2v_sequence_convergence</title>
<path fill="none" stroke="black" d="M1100.17,-614C1233.84,-608.71 1268.03,-618.68 1400.99,-604 1423.41,-601.52 1447.58,-597.49 1469.54,-593.28"/>
<polygon fill="black" stroke="black" points="1470.33,-596.7 1479.47,-591.35 1468.98,-589.83 1470.33,-596.7"/>
</g>
<!-- pvs&#45;experimental/ODEs@exp_analysis&#45;&gt;nasalib/analysis -->
<g id="edge24" class="edge">
<title>pvs&#45;experimental/ODEs@exp_analysis&#45;&gt;nasalib/analysis</title>
<path fill="none" stroke="black" d="M1874.61,-190C1908.86,-196 1910,-215.35 1939.96,-233 1944.19,-235.5 1948.68,-238.02 1953.17,-240.47"/>
<polygon fill="black" stroke="black" points="1951.84,-243.73 1962.31,-245.36 1955.14,-237.55 1951.84,-243.73"/>
</g>
<!-- pvs&#45;experimental/ODEs@exp_analysis&#45;&gt;nasalib/lnexp -->
<g id="edge25" class="edge">
<title>pvs&#45;experimental/ODEs@exp_analysis&#45;&gt;nasalib/lnexp</title>
<path fill="none" stroke="black" d="M909.51,-379.08C989.24,-330.92 1230.11,-190 1318.75,-190 1318.75,-190 1318.75,-190 1545.88,-190 1691.1,-190 1729.58,-164.92 1872.61,-190"/>
<path fill="none" stroke="black" d="M1874.61,-190C1901.34,-195.76 1931.98,-199.86 1955.18,-202.47"/>
<polygon fill="black" stroke="black" points="1954.95,-205.97 1965.27,-203.57 1955.71,-199.01 1954.95,-205.97"/>
</g>
<!-- pvs&#45;experimental/ODEs@interval_def&#45;&gt;nasalib/analysis -->
<g id="edge26" class="edge">
<title>pvs&#45;experimental/ODEs@interval_def&#45;&gt;nasalib/analysis</title>
<path fill="none" stroke="black" d="M1874.61,-342C1896.58,-335.91 1903.15,-333.41 1919.96,-318 1932.04,-306.92 1927.85,-298.06 1939.96,-287 1944.01,-283.3 1948.66,-279.95 1953.48,-276.97"/>
<polygon fill="black" stroke="black" points="1955.26,-279.99 1962.24,-272.02 1951.81,-273.9 1955.26,-279.99"/>
</g>
<!-- pvs&#45;experimental/ODEs@interval_def&#45;&gt;nasalib/mv_analysis -->
<g id="edge27" class="edge">
<title>pvs&#45;experimental/ODEs@interval_def&#45;&gt;nasalib/mv_analysis</title>
<path fill="none" stroke="black" d="M1328.62,-559.16C1344.15,-526.19 1382.09,-456 1436.99,-422 1604.35,-318.36 1680.37,-384.33 1872.61,-342"/>
<path fill="none" stroke="black" d="M1874.61,-342C1895.95,-336.08 1919.67,-330.26 1940.14,-325.47"/>
<polygon fill="black" stroke="black" points="1940.96,-328.87 1949.91,-323.21 1939.37,-322.06 1940.96,-328.87"/>
</g>
<!-- pvs&#45;experimental/ODEs@linear_ode_1D -->
<g id="node16" class="node">
<title>pvs&#45;experimental/ODEs@linear_ode_1D</title>
<ellipse fill="#e6f3ff" stroke="black" cx="79.04" cy="-469" rx="63.09" ry="18"/>
<text text-anchor="middle" x="79.04" y="-465.3" font-family="Times,serif" font-size="14.00">linear_ode_1D</text>
</g>
<!-- pvs&#45;experimental/ODEs@linear_ode_1D&#45;&gt;nasalib/mv_analysis -->
<g id="edge28" class="edge">
<title>pvs&#45;experimental/ODEs@linear_ode_1D&#45;&gt;nasalib/mv_analysis</title>
<path fill="none" stroke="black" d="M89.31,-451.19C135.27,-365.52 348.02,0 632.3,0 632.3,0 632.3,0 1745.02,0 1844.05,0 1870.91,-51.97 1919.96,-138 1953.05,-196.05 1901.64,-232.26 1939.96,-287 1940.71,-288.07 1941.51,-289.1 1942.36,-290.09"/>
<polygon fill="black" stroke="black" points="1940.03,-292.7 1949.72,-296.98 1944.81,-287.59 1940.03,-292.7"/>
</g>
<!-- pvs&#45;experimental/ODEs@linear_ode_1D&#45;&gt;pvs&#45;experimental/ODEs@ODE_solution_existence_uniqueness -->
<g id="edge29" class="edge">
<title>pvs&#45;experimental/ODEs@linear_ode_1D&#45;&gt;pvs&#45;experimental/ODEs@ODE_solution_existence_uniqueness</title>
<path fill="none" stroke="black" d="M142.15,-469C150.28,-469 158.87,-469 167.72,-469"/>
<polygon fill="black" stroke="black" points="167.8,-472.5 177.8,-469 167.8,-465.5 167.8,-472.5"/>
</g>
<!-- pvs&#45;experimental/ODEs@metric_rho&#45;&gt;nasalib/metric_space -->
<g id="edge30" class="edge">
<title>pvs&#45;experimental/ODEs@metric_rho&#45;&gt;nasalib/metric_space</title>
<path fill="none" stroke="black" d="M1874.61,-152C1894.39,-159.54 1917.47,-160.94 1937.86,-159.94"/>
<polygon fill="black" stroke="black" points="1938.2,-163.43 1947.94,-159.25 1937.72,-156.44 1938.2,-163.43"/>
</g>
<!-- pvs&#45;experimental/ODEs@metric_rho&#45;&gt;nasalib/mv_analysis -->
<g id="edge31" class="edge">
<title>pvs&#45;experimental/ODEs@metric_rho&#45;&gt;nasalib/mv_analysis</title>
<path fill="none" stroke="black" d="M1874.61,-152C1896.4,-158.72 1906.5,-157.59 1919.96,-176 1949.54,-216.47 1910.3,-246.59 1939.96,-287 1940.73,-288.05 1941.56,-289.07 1942.43,-290.05"/>
<polygon fill="black" stroke="black" points="1940.15,-292.71 1949.89,-296.86 1944.87,-287.53 1940.15,-292.71"/>
<path fill="none" stroke="black" d="M924.9,-513.18C937.6,-508.36 950.63,-501.29 959.83,-491 997.78,-448.53 962.13,-413.92 995.83,-368 1097.97,-228.78 1146.08,-152 1318.75,-152 1318.75,-152 1318.75,-152 1545.88,-152 1691.1,-152 1733.85,-109.21 1872.61,-152"/>
</g>
<!-- pvs&#45;experimental/ODEs@metric_rho&#45;&gt;pvs&#45;experimental/ODEs@interval_def -->
<g id="edge32" class="edge">
<title>pvs&#45;experimental/ODEs@metric_rho&#45;&gt;pvs&#45;experimental/ODEs@interval_def</title>
<path fill="none" stroke="black" d="M919.88,-535.03C932.62,-539.46 946.96,-544.7 959.83,-550 976.19,-556.74 978.77,-562.29 995.83,-567 1039.88,-579.16 1052.55,-574.17 1098.17,-577"/>
<path fill="none" stroke="black" d="M1100.17,-577C1152.76,-580.26 1212.62,-579.99 1256.38,-579.05"/>
<polygon fill="black" stroke="black" points="1256.66,-582.54 1266.58,-578.81 1256.5,-575.55 1256.66,-582.54"/>
</g>
<!-- pvs&#45;experimental/ODEs@r2v_continuous_extension -->
<g id="node20" class="node">
<title>pvs&#45;experimental/ODEs@r2v_continuous_extension</title>
<ellipse fill="#e6f3ff" stroke="black" cx="1099.17" cy="-540" rx="103.18" ry="18"/>
<text text-anchor="middle" x="1099.17" y="-536.3" font-family="Times,serif" font-size="14.00">r2v_continuous_extension</text>
</g>
<!-- pvs&#45;experimental/ODEs@metric_rho&#45;&gt;pvs&#45;experimental/ODEs@r2v_continuous_extension -->
<g id="edge33" class="edge">
<title>pvs&#45;experimental/ODEs@metric_rho&#45;&gt;pvs&#45;experimental/ODEs@r2v_continuous_extension</title>
<path fill="none" stroke="black" d="M931.66,-526.82C950.42,-528.3 972.69,-530.06 994.74,-531.81"/>
<polygon fill="black" stroke="black" points="994.59,-535.31 1004.84,-532.61 995.15,-528.33 994.59,-535.31"/>
</g>
<!-- pvs&#45;experimental/ODEs@norm_ineq&#45;&gt;nasalib/analysis -->
<g id="edge34" class="edge">
<title>pvs&#45;experimental/ODEs@norm_ineq&#45;&gt;nasalib/analysis</title>
<path fill="none" stroke="black" d="M928.14,-442.09C940.09,-438.11 951.88,-431.85 959.83,-422 1039.68,-322.95 903.55,-225.6 995.83,-138 1048.01,-88.45 1246.79,-114 1318.75,-114 1318.75,-114 1318.75,-114 1745.02,-114 1823.5,-114 1862.53,-84.52 1919.96,-138 1951.53,-167.41 1913.92,-198.59 1939.96,-233 1943.59,-237.8 1948.32,-241.82 1953.44,-245.18"/>
<polygon fill="black" stroke="black" points="1951.87,-248.32 1962.3,-250.21 1955.33,-242.23 1951.87,-248.32"/>
</g>
<!-- pvs&#45;experimental/ODEs@norm_ineq&#45;&gt;pvs&#45;experimental/ODEs@ODE_continuous_def -->
<g id="edge35" class="edge">
<title>pvs&#45;experimental/ODEs@norm_ineq&#45;&gt;pvs&#45;experimental/ODEs@ODE_continuous_def</title>
<path fill="none" stroke="black" d="M923.61,-438.91C954.45,-431.15 997.67,-420.28 1033.39,-411.29"/>
<polygon fill="black" stroke="black" points="1034.41,-414.65 1043.25,-408.81 1032.7,-407.86 1034.41,-414.65"/>
</g>
<!-- pvs&#45;experimental/ODEs@r2v_analysis&#45;&gt;nasalib/analysis -->
<g id="edge36" class="edge">
<title>pvs&#45;experimental/ODEs@r2v_analysis&#45;&gt;nasalib/analysis</title>
<path fill="none" stroke="black" d="M1874.61,-494C1892.12,-479.39 1907.15,-488.87 1919.96,-470 1965.91,-402.31 1893.87,-354.6 1939.96,-287 1943.42,-281.92 1948.14,-277.73 1953.34,-274.3"/>
<polygon fill="black" stroke="black" points="1955.39,-277.16 1962.38,-269.2 1951.95,-271.06 1955.39,-277.16"/>
<path fill="none" stroke="black" d="M1786.52,-528.4C1818.4,-518.89 1859.19,-505.2 1872.61,-494"/>
</g>
<!-- pvs&#45;experimental/ODEs@r2v_analysis&#45;&gt;nasalib/mv_analysis -->
<g id="edge37" class="edge">
<title>pvs&#45;experimental/ODEs@r2v_analysis&#45;&gt;nasalib/mv_analysis</title>
<path fill="none" stroke="black" d="M1874.61,-494C1892.12,-479.39 1906.73,-488.57 1919.96,-470 1953.62,-422.74 1906.21,-388.19 1939.96,-341 1940.72,-339.94 1941.53,-338.91 1942.39,-337.93"/>
<polygon fill="black" stroke="black" points="1944.84,-340.43 1949.8,-331.07 1940.08,-335.3 1944.84,-340.43"/>
</g>
<!-- pvs&#45;experimental/ODEs@r2v_def -->
<g id="node21" class="node">
<title>pvs&#45;experimental/ODEs@r2v_def</title>
<ellipse fill="#e6f3ff" stroke="black" cx="1873.61" cy="-540" rx="38.19" ry="18"/>
<text text-anchor="middle" x="1873.61" y="-536.3" font-family="Times,serif" font-size="14.00">r2v_def</text>
</g>
<!-- pvs&#45;experimental/ODEs@r2v_analysis&#45;&gt;pvs&#45;experimental/ODEs@r2v_def -->
<g id="edge38" class="edge">
<title>pvs&#45;experimental/ODEs@r2v_analysis&#45;&gt;pvs&#45;experimental/ODEs@r2v_def</title>
<path fill="none" stroke="black" d="M1799.5,-540C1807.98,-540 1816.68,-540 1824.99,-540"/>
<polygon fill="black" stroke="black" points="1825.26,-543.5 1835.26,-540 1825.26,-536.5 1825.26,-543.5"/>
</g>
<!-- pvs&#45;experimental/ODEs@r2v_continuous_extension&#45;&gt;nasalib/lnexp -->
<g id="edge39" class="edge">
<title>pvs&#45;experimental/ODEs@r2v_continuous_extension&#45;&gt;nasalib/lnexp</title>
<path fill="none" stroke="black" d="M1139.65,-523.43C1160.93,-512.7 1186.11,-496.83 1202.51,-476 1233.8,-436.24 1204.72,-405.66 1238.51,-368 1338.22,-256.87 1394.58,-228 1543.88,-228 1543.88,-228 1543.88,-228 1745.02,-228 1819.9,-228 1907.06,-217.8 1955.07,-211.29"/>
<polygon fill="black" stroke="black" points="1955.84,-214.72 1965.27,-209.88 1954.88,-207.78 1955.84,-214.72"/>
</g>
<!-- pvs&#45;experimental/ODEs@r2v_continuous_extension&#45;&gt;pvs&#45;experimental/ODEs@interval_def -->
<g id="edge40" class="edge">
<title>pvs&#45;experimental/ODEs@r2v_continuous_extension&#45;&gt;pvs&#45;experimental/ODEs@interval_def</title>
<path fill="none" stroke="black" d="M1173.86,-552.47C1202.55,-557.33 1234.9,-562.81 1261.75,-567.35"/>
<polygon fill="black" stroke="black" points="1261.31,-570.83 1271.75,-569.04 1262.48,-563.92 1261.31,-570.83"/>
</g>
<!-- pvs&#45;experimental/ODEs@r2v_continuous_extension&#45;&gt;pvs&#45;experimental/ODEs@r2v_analysis -->
<g id="edge41" class="edge">
<title>pvs&#45;experimental/ODEs@r2v_continuous_extension&#45;&gt;pvs&#45;experimental/ODEs@r2v_analysis</title>
<path fill="none" stroke="black" d="M1202.74,-540C1336.63,-540 1567.01,-540 1678.64,-540"/>
<polygon fill="black" stroke="black" points="1678.75,-543.5 1688.75,-540 1678.75,-536.5 1678.75,-543.5"/>
</g>
<!-- pvs&#45;experimental/ODEs@r2v_def&#45;&gt;nasalib/matrices -->
<g id="edge42" class="edge">
<title>pvs&#45;experimental/ODEs@r2v_def&#45;&gt;nasalib/matrices</title>
<path fill="none" stroke="black" d="M1897.18,-525.8C1904.75,-520.6 1913.02,-514.41 1919.96,-508 1939.57,-489.88 1958.74,-466.42 1972.29,-448.58"/>
<polygon fill="black" stroke="black" points="1975.28,-450.42 1978.46,-440.32 1969.67,-446.23 1975.28,-450.42"/>
</g>
<!-- pvs&#45;experimental/ODEs@r2v_def&#45;&gt;nasalib/mv_analysis -->
<g id="edge43" class="edge">
<title>pvs&#45;experimental/ODEs@r2v_def&#45;&gt;nasalib/mv_analysis</title>
<path fill="none" stroke="black" d="M1900.53,-527.12C1907.97,-522.16 1915.32,-515.78 1919.96,-508 1958.24,-443.8 1897.53,-402.55 1939.96,-341 1940.7,-339.92 1941.5,-338.89 1942.34,-337.89"/>
<polygon fill="black" stroke="black" points="1944.8,-340.39 1949.67,-330.98 1939.99,-335.3 1944.8,-340.39"/>
</g>
<!-- pvs&#45;experimental/ODEs@r2v_def&#45;&gt;nasalib/structures -->
<g id="edge44" class="edge">
<title>pvs&#45;experimental/ODEs@r2v_def&#45;&gt;nasalib/structures</title>
<path fill="none" stroke="black" d="M1900.27,-526.96C1907.7,-521.99 1915.1,-515.65 1919.96,-508 1947.3,-464.94 1909.85,-436.17 1939.96,-395 1942.54,-391.47 1945.72,-388.36 1949.23,-385.64"/>
<polygon fill="black" stroke="black" points="1951.44,-388.37 1957.86,-379.94 1947.59,-382.52 1951.44,-388.37"/>
</g>
<!-- pvs&#45;experimental/ODEs@r2v_diff_extension -->
<g id="node22" class="node">
<title>pvs&#45;experimental/ODEs@r2v_diff_extension</title>
<ellipse fill="#e6f3ff" stroke="black" cx="882.48" cy="-577" rx="77.19" ry="18"/>
<text text-anchor="middle" x="882.48" y="-573.3" font-family="Times,serif" font-size="14.00">r2v_diff_extension</text>
</g>
<!-- pvs&#45;experimental/ODEs@r2v_diff_extension&#45;&gt;pvs&#45;experimental/ODEs@interval_def -->
<g id="edge45" class="edge">
<title>pvs&#45;experimental/ODEs@r2v_diff_extension&#45;&gt;pvs&#45;experimental/ODEs@interval_def</title>
<path fill="none" stroke="black" d="M959.56,-574.71C1000.65,-574.05 1052.22,-574.15 1098.17,-577"/>
</g>
<!-- pvs&#45;experimental/ODEs@r2v_diff_extension&#45;&gt;pvs&#45;experimental/ODEs@r2v_continuous_extension -->
<g id="edge46" class="edge">
<title>pvs&#45;experimental/ODEs@r2v_diff_extension&#45;&gt;pvs&#45;experimental/ODEs@r2v_continuous_extension</title>
<path fill="none" stroke="black" d="M945,-566.4C966.79,-562.64 991.69,-558.35 1014.98,-554.34"/>
<polygon fill="black" stroke="black" points="1015.59,-557.78 1024.85,-552.64 1014.4,-550.89 1015.59,-557.78"/>
</g>
<!-- pvs&#45;experimental/ODEs@r2v_sequence_convergence&#45;&gt;nasalib/analysis -->
<g id="edge47" class="edge">
<title>pvs&#45;experimental/ODEs@r2v_sequence_convergence&#45;&gt;nasalib/analysis</title>
<path fill="none" stroke="black" d="M1874.61,-418C1892.98,-404.5 1906.44,-412.37 1919.96,-394 1948.63,-355.03 1911.21,-325.91 1939.96,-287 1943.53,-282.16 1948.23,-278.11 1953.34,-274.75"/>
<polygon fill="black" stroke="black" points="1955.23,-277.7 1962.19,-269.72 1951.77,-271.62 1955.23,-277.7"/>
</g>
<!-- pvs&#45;experimental/ODEs@r2v_sequence_convergence&#45;&gt;nasalib/mv_analysis -->
<g id="edge48" class="edge">
<title>pvs&#45;experimental/ODEs@r2v_sequence_convergence&#45;&gt;nasalib/mv_analysis</title>
<path fill="none" stroke="black" d="M1579.37,-559.71C1638.13,-529.6 1763.89,-466.16 1872.61,-418"/>
<path fill="none" stroke="black" d="M1874.61,-418C1892.98,-404.5 1904.88,-411.11 1919.96,-394 1936.6,-375.11 1923.27,-359.86 1939.96,-341 1940.69,-340.17 1941.46,-339.36 1942.26,-338.57"/>
<polygon fill="black" stroke="black" points="1944.64,-341.14 1950.05,-332.04 1940.14,-335.78 1944.64,-341.14"/>
</g>
<!-- pvs&#45;experimental/ODEs@r2v_sequence_convergence&#45;&gt;pvs&#45;experimental/ODEs@r2v_analysis -->
<g id="edge49" class="edge">
<title>pvs&#45;experimental/ODEs@r2v_sequence_convergence&#45;&gt;pvs&#45;experimental/ODEs@r2v_analysis</title>
<path fill="none" stroke="black" d="M1617.33,-563.59C1639.88,-559.36 1664.47,-554.74 1685.88,-550.72"/>
<polygon fill="black" stroke="black" points="1686.61,-554.15 1695.79,-548.86 1685.32,-547.27 1686.61,-554.15"/>
</g>
<!-- pvs&#45;experimental/ODEs@restrict_ode&#45;&gt;nasalib/analysis -->
<g id="edge50" class="edge">
<title>pvs&#45;experimental/ODEs@restrict_ode&#45;&gt;nasalib/analysis</title>
<path fill="none" stroke="black" d="M669.85,-362.13C704.32,-349.74 758.16,-330.63 805.14,-315 838.89,-303.77 850.52,-308.51 881.48,-291"/>
</g>
<!-- pvs&#45;experimental/ODEs@restrict_ode&#45;&gt;pvs&#45;experimental/ODEs@ODE_continuous_def -->
<g id="edge51" class="edge">
<title>pvs&#45;experimental/ODEs@restrict_ode&#45;&gt;pvs&#45;experimental/ODEs@ODE_continuous_def</title>
<path fill="none" stroke="black" d="M683.8,-370.32C747.72,-365.11 862.35,-358.58 959.83,-368 983.48,-370.29 1009.1,-374.73 1031.79,-379.35"/>
<polygon fill="black" stroke="black" points="1031.15,-382.79 1041.65,-381.41 1032.58,-375.94 1031.15,-382.79"/>
</g>
</g>
</svg>
