<?xml version="1.0" encoding="UTF-8" standalone="no"?>
<!DOCTYPE svg PUBLIC "-//W3C//DTD SVG 1.1//EN"
 "http://www.w3.org/Graphics/SVG/1.1/DTD/svg11.dtd">
<!-- Generated by graphviz version 8.1.0 (20230707.0739)
 -->
<!-- Title: ODEs&#45;zoomed Pages: 1 -->
<svg width="1023pt" height="761pt"
 viewBox="0.00 0.00 1023.00 761.00" xmlns="http://www.w3.org/2000/svg" xmlns:xlink="http://www.w3.org/1999/xlink">
<g id="graph0" class="graph" transform="scale(1 1) rotate(0) translate(4 757)">
<title>ODEs&#45;zoomed</title>
<polygon fill="white" stroke="none" points="-4,4 -4,-757 1019,-757 1019,4 -4,4"/>
<g id="clust1" class="cluster">
<title>cluster_NASALib</title>
<polygon fill="none" stroke="black" points="443,-8 443,-84.5 966,-84.5 966,-8 443,-8"/>
<text text-anchor="middle" x="704.5" y="-67.2" font-family="Times,serif" font-size="14.00">NASALib</text>
</g>
<g id="clust2" class="cluster">
<title>cluster_NASALib/ODEs</title>
<polygon fill="none" stroke="black" points="8,-92.5 8,-745 785,-745 785,-92.5 8,-92.5"/>
<text text-anchor="middle" x="396.5" y="-727.7" font-family="Times,serif" font-size="14.00">NASALib/ODEs</text>
</g>
<!-- nasalib/ODEs@ODE_Lipschitz_def -->
<g id="node1" class="node">
<title>nasalib/ODEs@ODE_Lipschitz_def</title>
<ellipse fill="#e6f3ff" stroke="black" cx="598" cy="-334.5" rx="85.13" ry="18"/>
<text text-anchor="middle" x="598" y="-329.45" font-family="Times,serif" font-size="14.00">ODE_Lipschitz_def</text>
</g>
<!-- nasalib/ODEs@ODE_def -->
<g id="node3" class="node">
<title>nasalib/ODEs@ODE_def</title>
<ellipse fill="#e6f3ff" stroke="black" cx="494" cy="-262.5" rx="46.23" ry="18"/>
<text text-anchor="middle" x="494" y="-257.45" font-family="Times,serif" font-size="14.00">ODE_def</text>
</g>
<!-- nasalib/ODEs@ODE_Lipschitz_def&#45;&gt;nasalib/ODEs@ODE_def -->
<g id="edge1" class="edge">
<title>nasalib/ODEs@ODE_Lipschitz_def&#45;&gt;nasalib/ODEs@ODE_def</title>
<path fill="none" stroke="black" d="M573.35,-316.91C558.89,-307.18 540.49,-294.79 525.04,-284.39"/>
<polygon fill="black" stroke="black" points="527.59,-281.22 517.34,-278.54 523.68,-287.03 527.59,-281.22"/>
</g>
<!-- nasalib/analysis -->
<g id="node19" class="node">
<title>nasalib/analysis</title>
<polygon fill="#fcfcd7" stroke="black" points="779.75,-52 720.25,-52 720.25,-16 779.75,-16 779.75,-52"/>
<text text-anchor="middle" x="750" y="-28.95" font-family="Times,serif" font-size="14.00">analysis</text>
</g>
<!-- nasalib/ODEs@ODE_Lipschitz_def&#45;&gt;nasalib/analysis -->
<g id="edge2" class="edge">
<title>nasalib/ODEs@ODE_Lipschitz_def&#45;&gt;nasalib/analysis</title>
<path fill="none" stroke="black" d="M601.45,-316.17C612.46,-260.91 646,-92.5 646,-92.5 646,-92.5 711,-84.5 711,-84.5 711,-84.5 720.14,-72.9 729.57,-60.93"/>
<polygon fill="black" stroke="black" points="732.92,-63.33 736.36,-53.31 727.42,-59 732.92,-63.33"/>
</g>
<!-- nasalib/ODEs@ODE_continuous_def -->
<g id="node2" class="node">
<title>nasalib/ODEs@ODE_continuous_def</title>
<ellipse fill="#e6f3ff" stroke="black" cx="665" cy="-406.5" rx="91.27" ry="18"/>
<text text-anchor="middle" x="665" y="-401.45" font-family="Times,serif" font-size="14.00">ODE_continuous_def</text>
</g>
<!-- nasalib/ODEs@ODE_continuous_def&#45;&gt;nasalib/ODEs@ODE_Lipschitz_def -->
<g id="edge3" class="edge">
<title>nasalib/ODEs@ODE_continuous_def&#45;&gt;nasalib/ODEs@ODE_Lipschitz_def</title>
<path fill="none" stroke="black" d="M648.78,-388.55C640.63,-380.04 630.61,-369.57 621.62,-360.18"/>
<polygon fill="black" stroke="black" points="624.51,-358.09 615.07,-353.29 619.46,-362.93 624.51,-358.09"/>
</g>
<!-- nasalib/ODEs@ODE_continuous_def&#45;&gt;nasalib/analysis -->
<g id="edge4" class="edge">
<title>nasalib/ODEs@ODE_continuous_def&#45;&gt;nasalib/analysis</title>
<path fill="none" stroke="black" d="M673.84,-388.15C681.72,-372.69 692,-352.5 692,-352.5 692,-352.5 698,-119.5 698,-119.5"/>
<path fill="none" stroke="black" d="M698,-117.5C698,-117.5 718.04,-85.71 733.23,-61.6"/>
<polygon fill="black" stroke="black" points="736.6,-63.82 738.97,-53.5 730.68,-60.09 736.6,-63.82"/>
</g>
<!-- nasalib/mv_analysis -->
<g id="node23" class="node">
<title>nasalib/mv_analysis</title>
<polygon fill="#fcfcd7" stroke="black" points="702.12,-52 617.88,-52 617.88,-16 702.12,-16 702.12,-52"/>
<text text-anchor="middle" x="660" y="-28.95" font-family="Times,serif" font-size="14.00">mv_analysis</text>
</g>
<!-- nasalib/ODEs@ODE_continuous_def&#45;&gt;nasalib/mv_analysis -->
<g id="edge5" class="edge">
<title>nasalib/ODEs@ODE_continuous_def&#45;&gt;nasalib/mv_analysis</title>
<path fill="none" stroke="black" d="M698,-117.5C698,-117.5 683.62,-86.27 672.55,-62.24"/>
<polygon fill="black" stroke="black" points="675.42,-61.11 668.06,-53.5 669.06,-64.04 675.42,-61.11"/>
</g>
<!-- nasalib/ODEs@r2v_analysis -->
<g id="node13" class="node">
<title>nasalib/ODEs@r2v_analysis</title>
<ellipse fill="#e6f3ff" stroke="black" cx="306" cy="-190.5" rx="57.49" ry="18"/>
<text text-anchor="middle" x="306" y="-185.45" font-family="Times,serif" font-size="14.00">r2v_analysis</text>
</g>
<!-- nasalib/ODEs@ODE_def&#45;&gt;nasalib/ODEs@r2v_analysis -->
<g id="edge6" class="edge">
<title>nasalib/ODEs@ODE_def&#45;&gt;nasalib/ODEs@r2v_analysis</title>
<path fill="none" stroke="black" d="M461.25,-249.31C431.03,-238.05 385.85,-221.23 352,-208.63"/>
<polygon fill="black" stroke="black" points="353.49,-205.07 342.89,-204.86 351.04,-211.63 353.49,-205.07"/>
</g>
<!-- nasalib/ODEs@ODE_def&#45;&gt;nasalib/analysis -->
<g id="edge7" class="edge">
<title>nasalib/ODEs@ODE_def&#45;&gt;nasalib/analysis</title>
<path fill="none" stroke="black" d="M505.35,-244.68C534.18,-201.93 608,-92.5 608,-92.5 608,-92.5 711,-84.5 711,-84.5 711,-84.5 720.14,-72.9 729.57,-60.93"/>
<polygon fill="black" stroke="black" points="732.92,-63.33 736.36,-53.31 727.42,-59 732.92,-63.33"/>
</g>
<!-- nasalib/ODEs@ODE_psi_contraction -->
<g id="node4" class="node">
<title>nasalib/ODEs@ODE_psi_contraction</title>
<ellipse fill="#e6f3ff" stroke="black" cx="430" cy="-550.5" rx="91.27" ry="18"/>
<text text-anchor="middle" x="430" y="-545.45" font-family="Times,serif" font-size="14.00">ODE_psi_contraction</text>
</g>
<!-- nasalib/ODEs@ODE_psi_def -->
<g id="node5" class="node">
<title>nasalib/ODEs@ODE_psi_def</title>
<ellipse fill="#e6f3ff" stroke="black" cx="494" cy="-406.5" rx="61.59" ry="18"/>
<text text-anchor="middle" x="494" y="-401.45" font-family="Times,serif" font-size="14.00">ODE_psi_def</text>
</g>
<!-- nasalib/ODEs@ODE_psi_contraction&#45;&gt;nasalib/ODEs@ODE_psi_def -->
<g id="edge8" class="edge">
<title>nasalib/ODEs@ODE_psi_contraction&#45;&gt;nasalib/ODEs@ODE_psi_def</title>
<path fill="none" stroke="black" d="M449.31,-532.44C466.85,-516.95 490,-496.5 490,-496.5 490,-496.5 491.57,-461.61 492.74,-435.52"/>
<polygon fill="black" stroke="black" points="496.28,-435.81 493.23,-425.66 489.28,-435.49 496.28,-435.81"/>
</g>
<!-- nasalib/ODEs@exp_analysis -->
<g id="node8" class="node">
<title>nasalib/ODEs@exp_analysis</title>
<ellipse fill="#e6f3ff" stroke="black" cx="698" cy="-478.5" rx="58.52" ry="18"/>
<text text-anchor="middle" x="698" y="-473.45" font-family="Times,serif" font-size="14.00">exp_analysis</text>
</g>
<!-- nasalib/ODEs@ODE_psi_contraction&#45;&gt;nasalib/ODEs@exp_analysis -->
<g id="edge9" class="edge">
<title>nasalib/ODEs@ODE_psi_contraction&#45;&gt;nasalib/ODEs@exp_analysis</title>
<path fill="none" stroke="black" d="M483.59,-535.5C530.21,-523.32 597.45,-505.76 644.15,-493.57"/>
<polygon fill="black" stroke="black" points="644.88,-496.73 653.67,-490.82 643.11,-489.96 644.88,-496.73"/>
</g>
<!-- nasalib/ODEs@interval_def -->
<g id="node9" class="node">
<title>nasalib/ODEs@interval_def</title>
<ellipse fill="#e6f3ff" stroke="black" cx="232" cy="-334.5" rx="55.45" ry="18"/>
<text text-anchor="middle" x="232" y="-329.45" font-family="Times,serif" font-size="14.00">interval_def</text>
</g>
<!-- nasalib/ODEs@ODE_psi_contraction&#45;&gt;nasalib/ODEs@interval_def -->
<g id="edge10" class="edge">
<title>nasalib/ODEs@ODE_psi_contraction&#45;&gt;nasalib/ODEs@interval_def</title>
<path fill="none" stroke="black" d="M370.49,-536.47C298.84,-520.77 188,-496.5 188,-496.5 188,-496.5 178,-479.5 178,-479.5"/>
</g>
<!-- nasalib/ODEs@metric_rho -->
<g id="node11" class="node">
<title>nasalib/ODEs@metric_rho</title>
<ellipse fill="#e6f3ff" stroke="black" cx="429" cy="-478.5" rx="51.86" ry="18"/>
<text text-anchor="middle" x="429" y="-473.45" font-family="Times,serif" font-size="14.00">metric_rho</text>
</g>
<!-- nasalib/ODEs@ODE_psi_contraction&#45;&gt;nasalib/ODEs@metric_rho -->
<g id="edge11" class="edge">
<title>nasalib/ODEs@ODE_psi_contraction&#45;&gt;nasalib/ODEs@metric_rho</title>
<path fill="none" stroke="black" d="M429.75,-532.2C429.65,-524.74 429.52,-515.82 429.4,-507.47"/>
<polygon fill="black" stroke="black" points="432.89,-507.55 429.24,-497.6 425.89,-507.65 432.89,-507.55"/>
</g>
<!-- nasalib/ODEs@norm_ineq -->
<g id="node12" class="node">
<title>nasalib/ODEs@norm_ineq</title>
<ellipse fill="#e6f3ff" stroke="black" cx="570" cy="-478.5" rx="51.35" ry="18"/>
<text text-anchor="middle" x="570" y="-473.45" font-family="Times,serif" font-size="14.00">norm_ineq</text>
</g>
<!-- nasalib/ODEs@ODE_psi_contraction&#45;&gt;nasalib/ODEs@norm_ineq -->
<g id="edge12" class="edge">
<title>nasalib/ODEs@ODE_psi_contraction&#45;&gt;nasalib/ODEs@norm_ineq</title>
<path fill="none" stroke="black" d="M462.47,-533.26C483.2,-522.9 510.18,-509.41 531.92,-498.54"/>
<polygon fill="black" stroke="black" points="533.12,-501.35 540.5,-493.75 529.99,-495.09 533.12,-501.35"/>
</g>
<!-- nasalib/ODEs@ODE_psi_def&#45;&gt;nasalib/ODEs@ODE_def -->
<g id="edge13" class="edge">
<title>nasalib/ODEs@ODE_psi_def&#45;&gt;nasalib/ODEs@ODE_def</title>
<path fill="none" stroke="black" d="M494,-388.09C494,-364 494,-320.25 494,-291.53"/>
<polygon fill="black" stroke="black" points="497.5,-291.61 494,-281.61 490.5,-291.61 497.5,-291.61"/>
</g>
<!-- nasalib/ODEs@ODE_psi_def&#45;&gt;nasalib/analysis -->
<g id="edge14" class="edge">
<title>nasalib/ODEs@ODE_psi_def&#45;&gt;nasalib/analysis</title>
<path fill="none" stroke="black" d="M538.44,-393.61C596.81,-377.98 692,-352.5 692,-352.5 692,-352.5 749,-263.5 749,-263.5 749,-263.5 749,-263.5 749,-189.5 749,-189.5 749.53,-108.04 749.82,-63.42"/>
<polygon fill="black" stroke="black" points="753.32,-63.45 749.89,-53.42 746.32,-63.4 753.32,-63.45"/>
</g>
<!-- nasalib/ODEs@ODE_solution_existence_uniqueness -->
<g id="node6" class="node">
<title>nasalib/ODEs@ODE_solution_existence_uniqueness</title>
<ellipse fill="#e6f3ff" stroke="black" cx="430" cy="-622.5" rx="148.59" ry="18"/>
<text text-anchor="middle" x="430" y="-617.45" font-family="Times,serif" font-size="14.00">ODE_solution_existence_uniqueness</text>
</g>
<!-- nasalib/ODEs@ODE_solution_existence_uniqueness&#45;&gt;nasalib/ODEs@ODE_psi_contraction -->
<g id="edge15" class="edge">
<title>nasalib/ODEs@ODE_solution_existence_uniqueness&#45;&gt;nasalib/ODEs@ODE_psi_contraction</title>
<path fill="none" stroke="black" d="M430,-604.2C430,-596.74 430,-587.82 430,-579.47"/>
<polygon fill="black" stroke="black" points="433.5,-579.6 430,-569.6 426.5,-579.6 433.5,-579.6"/>
</g>
<!-- nasalib/ODEs@continuous_function_complete_rho -->
<g id="node7" class="node">
<title>nasalib/ODEs@continuous_function_complete_rho</title>
<ellipse fill="#e6f3ff" stroke="black" cx="178" cy="-550.5" rx="142.45" ry="18"/>
<text text-anchor="middle" x="178" y="-545.45" font-family="Times,serif" font-size="14.00">continuous_function_complete_rho</text>
</g>
<!-- nasalib/ODEs@ODE_solution_existence_uniqueness&#45;&gt;nasalib/ODEs@continuous_function_complete_rho -->
<g id="edge16" class="edge">
<title>nasalib/ODEs@ODE_solution_existence_uniqueness&#45;&gt;nasalib/ODEs@continuous_function_complete_rho</title>
<path fill="none" stroke="black" d="M372.5,-605.53C334.76,-595.05 285.25,-581.29 245.62,-570.28"/>
<polygon fill="black" stroke="black" points="246.82,-566.71 236.25,-567.4 244.95,-573.45 246.82,-566.71"/>
</g>
<!-- nasalib/ODEs@ODE_solution_existence_uniqueness&#45;&gt;nasalib/ODEs@interval_def -->
<g id="edge17" class="edge">
<title>nasalib/ODEs@ODE_solution_existence_uniqueness&#45;&gt;nasalib/ODEs@interval_def</title>
<path fill="none" stroke="black" d="M331.93,-608.6C212.64,-592.91 27,-568.5 27,-568.5 27,-568.5 27,-532.5 27,-532.5 27,-532.5 178,-479.5 178,-479.5"/>
<path fill="none" stroke="black" d="M179,-405.5C179,-405.5 189,-388.5 189,-388.5 189,-388.5 200.52,-374.3 211.63,-360.6"/>
<polygon fill="black" stroke="black" points="214.81,-363.24 218.39,-353.27 209.38,-358.83 214.81,-363.24"/>
<path fill="none" stroke="black" d="M178,-477.5C178,-477.5 179,-407.5 179,-407.5"/>
</g>
<!-- nasalib/ODEs@restrict_ode -->
<g id="node18" class="node">
<title>nasalib/ODEs@restrict_ode</title>
<ellipse fill="#e6f3ff" stroke="black" cx="723" cy="-550.5" rx="54.42" ry="18"/>
<text text-anchor="middle" x="723" y="-545.45" font-family="Times,serif" font-size="14.00">restrict_ode</text>
</g>
<!-- nasalib/ODEs@ODE_solution_existence_uniqueness&#45;&gt;nasalib/ODEs@restrict_ode -->
<g id="edge18" class="edge">
<title>nasalib/ODEs@ODE_solution_existence_uniqueness&#45;&gt;nasalib/ODEs@restrict_ode</title>
<path fill="none" stroke="black" d="M495.39,-605.88C547.76,-593.37 620.33,-576.03 669.33,-564.32"/>
<polygon fill="black" stroke="black" points="670.11,-567.5 679.02,-561.77 668.48,-560.69 670.11,-567.5"/>
</g>
<!-- nasalib/ODEs@ODE_solution_existence_uniqueness&#45;&gt;nasalib/analysis -->
<g id="edge19" class="edge">
<title>nasalib/ODEs@ODE_solution_existence_uniqueness&#45;&gt;nasalib/analysis</title>
<path fill="none" stroke="black" d="M521.52,-607.99C627.88,-592.29 789,-568.5 789,-568.5 789,-568.5 977,-479.5 977,-479.5"/>
</g>
<!-- nasalib/ODEs@continuous_function_complete_rho&#45;&gt;nasalib/ODEs@interval_def -->
<g id="edge20" class="edge">
<title>nasalib/ODEs@continuous_function_complete_rho&#45;&gt;nasalib/ODEs@interval_def</title>
<path fill="none" stroke="black" d="M178,-532.2C178,-511.47 178,-479.5 178,-479.5"/>
</g>
<!-- nasalib/ODEs@continuous_function_complete_rho&#45;&gt;nasalib/ODEs@metric_rho -->
<g id="edge21" class="edge">
<title>nasalib/ODEs@continuous_function_complete_rho&#45;&gt;nasalib/ODEs@metric_rho</title>
<path fill="none" stroke="black" d="M234.96,-533.62C278.33,-521.52 337.47,-505.03 379.02,-493.44"/>
<polygon fill="black" stroke="black" points="379.76,-496.59 388.45,-490.53 377.88,-489.85 379.76,-496.59"/>
</g>
<!-- nasalib/ODEs@r2v_sequence_convergence -->
<g id="node17" class="node">
<title>nasalib/ODEs@r2v_sequence_convergence</title>
<ellipse fill="#e6f3ff" stroke="black" cx="174" cy="-262.5" rx="112.77" ry="18"/>
<text text-anchor="middle" x="174" y="-257.45" font-family="Times,serif" font-size="14.00">r2v_sequence_convergence</text>
</g>
<!-- nasalib/ODEs@continuous_function_complete_rho&#45;&gt;nasalib/ODEs@r2v_sequence_convergence -->
<g id="edge22" class="edge">
<title>nasalib/ODEs@continuous_function_complete_rho&#45;&gt;nasalib/ODEs@r2v_sequence_convergence</title>
<path fill="none" stroke="black" d="M176.36,-532.15C174.9,-516.69 173,-496.5 173,-496.5 173,-496.5 168,-352.5 168,-352.5 168,-352.5 168,-316.5 168,-316.5 168,-316.5 169.39,-304.18 170.84,-291.42"/>
<polygon fill="black" stroke="black" points="174.39,-292.18 172.04,-281.85 167.43,-291.4 174.39,-292.18"/>
</g>
<!-- nasalib/metric_space -->
<g id="node22" class="node">
<title>nasalib/metric_space</title>
<polygon fill="#fcfcd7" stroke="black" points="958,-52 870,-52 870,-16 958,-16 958,-52"/>
<text text-anchor="middle" x="914" y="-28.95" font-family="Times,serif" font-size="14.00">metric_space</text>
</g>
<!-- nasalib/ODEs@continuous_function_complete_rho&#45;&gt;nasalib/metric_space -->
<g id="edge23" class="edge">
<title>nasalib/ODEs@continuous_function_complete_rho&#45;&gt;nasalib/metric_space</title>
<path fill="none" stroke="black" d="M281.91,-537.88C308.62,-534.89 330,-532.5 330,-532.5 330,-532.5 766,-496.5 766,-496.5 766,-496.5 939,-407.5 939,-407.5 939,-407.5 939,-407.5 939,-189.5 939,-189.5 925.76,-107.69 918.55,-63.13"/>
<polygon fill="black" stroke="black" points="921.87,-62.74 916.82,-53.42 914.96,-63.85 921.87,-62.74"/>
</g>
<!-- nasalib/ODEs@exp_analysis&#45;&gt;nasalib/analysis -->
<g id="edge24" class="edge">
<title>nasalib/ODEs@exp_analysis&#45;&gt;nasalib/analysis</title>
<path fill="none" stroke="black" d="M718.47,-461.31C738.17,-445.72 765,-424.5 765,-424.5 765,-424.5 825,-335.5 825,-335.5 825,-335.5 825,-335.5 825,-261.5 825,-261.5 825,-119.5 825,-119.5"/>
<path fill="none" stroke="black" d="M825,-117.5C825,-117.5 789,-84.5 789,-84.5 789,-84.5 779.86,-72.9 770.43,-60.93"/>
<polygon fill="black" stroke="black" points="772.58,-59 763.64,-53.31 767.08,-63.33 772.58,-59"/>
</g>
<!-- nasalib/lnexp -->
<g id="node20" class="node">
<title>nasalib/lnexp</title>
<polygon fill="#fcfcd7" stroke="black" points="852,-52 798,-52 798,-16 852,-16 852,-52"/>
<text text-anchor="middle" x="825" y="-28.95" font-family="Times,serif" font-size="14.00">lnexp</text>
</g>
<!-- nasalib/ODEs@exp_analysis&#45;&gt;nasalib/lnexp -->
<g id="edge25" class="edge">
<title>nasalib/ODEs@exp_analysis&#45;&gt;nasalib/lnexp</title>
<path fill="none" stroke="black" d="M825,-117.5C825,-117.5 825,-87.1 825,-63.21"/>
<polygon fill="black" stroke="black" points="828.5,-63.5 825,-53.5 821.5,-63.5 828.5,-63.5"/>
</g>
<!-- nasalib/ODEs@interval_def&#45;&gt;nasalib/analysis -->
<g id="edge26" class="edge">
<title>nasalib/ODEs@interval_def&#45;&gt;nasalib/analysis</title>
<path fill="none" stroke="black" d="M280.49,-325.39C369.29,-310.55 549,-280.5 549,-280.5 549,-280.5 660,-119.5 660,-119.5"/>
<path fill="none" stroke="black" d="M660,-117.5C660,-117.5 684,-92.5 684,-92.5 684,-92.5 711,-84.5 711,-84.5 711,-84.5 720.14,-72.9 729.57,-60.93"/>
<polygon fill="black" stroke="black" points="732.92,-63.33 736.36,-53.31 727.42,-59 732.92,-63.33"/>
</g>
<!-- nasalib/ODEs@interval_def&#45;&gt;nasalib/mv_analysis -->
<g id="edge27" class="edge">
<title>nasalib/ODEs@interval_def&#45;&gt;nasalib/mv_analysis</title>
<path fill="none" stroke="black" d="M660,-117.5C660,-117.5 660,-87.1 660,-63.21"/>
<polygon fill="black" stroke="black" points="663.5,-63.5 660,-53.5 656.5,-63.5 663.5,-63.5"/>
</g>
<!-- nasalib/ODEs@linear_ode_1D -->
<g id="node10" class="node">
<title>nasalib/ODEs@linear_ode_1D</title>
<ellipse fill="#e6f3ff" stroke="black" cx="430" cy="-694.5" rx="65.68" ry="18"/>
<text text-anchor="middle" x="430" y="-689.45" font-family="Times,serif" font-size="14.00">linear_ode_1D</text>
</g>
<!-- nasalib/ODEs@linear_ode_1D&#45;&gt;nasalib/ODEs@ODE_solution_existence_uniqueness -->
<g id="edge28" class="edge">
<title>nasalib/ODEs@linear_ode_1D&#45;&gt;nasalib/ODEs@ODE_solution_existence_uniqueness</title>
<path fill="none" stroke="black" d="M430,-676.2C430,-668.74 430,-659.82 430,-651.47"/>
<polygon fill="black" stroke="black" points="433.5,-651.6 430,-641.6 426.5,-651.6 433.5,-651.6"/>
</g>
<!-- nasalib/ODEs@linear_ode_1D&#45;&gt;nasalib/mv_analysis -->
<g id="edge29" class="edge">
<title>nasalib/ODEs@linear_ode_1D&#45;&gt;nasalib/mv_analysis</title>
<path fill="none" stroke="black" d="M477.87,-681.88C617.59,-647.97 1015,-551.5 1015,-551.5 1015,-551.5 1015,-551.5 1015,-189.5 1015,-189.5 877,-92.5 877,-92.5 877,-92.5 711,-84.5 711,-84.5 711,-84.5 698.34,-72.22 685.64,-59.89"/>
<polygon fill="black" stroke="black" points="688.45,-57.77 678.84,-53.31 683.58,-62.79 688.45,-57.77"/>
</g>
<!-- nasalib/ODEs@metric_rho&#45;&gt;nasalib/ODEs@interval_def -->
<g id="edge30" class="edge">
<title>nasalib/ODEs@metric_rho&#45;&gt;nasalib/ODEs@interval_def</title>
<path fill="none" stroke="black" d="M389.33,-466.45C377.68,-463.2 368,-460.5 368,-460.5 368,-460.5 189,-424.5 189,-424.5 189,-424.5 179,-407.5 179,-407.5"/>
</g>
<!-- nasalib/ODEs@r2v_continuous_extension -->
<g id="node14" class="node">
<title>nasalib/ODEs@r2v_continuous_extension</title>
<ellipse fill="#e6f3ff" stroke="black" cx="306" cy="-406.5" rx="108.16" ry="18"/>
<text text-anchor="middle" x="306" y="-401.45" font-family="Times,serif" font-size="14.00">r2v_continuous_extension</text>
</g>
<!-- nasalib/ODEs@metric_rho&#45;&gt;nasalib/ODEs@r2v_continuous_extension -->
<g id="edge31" class="edge">
<title>nasalib/ODEs@metric_rho&#45;&gt;nasalib/ODEs@r2v_continuous_extension</title>
<path fill="none" stroke="black" d="M402.91,-462.65C386.1,-453.09 363.93,-440.47 345.04,-429.72"/>
<polygon fill="black" stroke="black" points="346.92,-426.19 336.5,-424.29 343.46,-432.28 346.92,-426.19"/>
</g>
<!-- nasalib/ODEs@metric_rho&#45;&gt;nasalib/metric_space -->
<g id="edge32" class="edge">
<title>nasalib/ODEs@metric_rho&#45;&gt;nasalib/metric_space</title>
<path fill="none" stroke="black" d="M472.35,-468.4C491.6,-464.36 510,-460.5 510,-460.5 510,-460.5 765,-424.5 765,-424.5 765,-424.5 863,-335.5 863,-335.5 863,-335.5 863,-335.5 863,-261.5 863,-261.5 863,-119.5 863,-119.5"/>
<path fill="none" stroke="black" d="M863,-117.5C863,-117.5 882.65,-85.71 897.56,-61.6"/>
<polygon fill="black" stroke="black" points="900.9,-63.84 903.18,-53.5 894.95,-60.16 900.9,-63.84"/>
</g>
<!-- nasalib/ODEs@metric_rho&#45;&gt;nasalib/mv_analysis -->
<g id="edge33" class="edge">
<title>nasalib/ODEs@metric_rho&#45;&gt;nasalib/mv_analysis</title>
<path fill="none" stroke="black" d="M863,-117.5C863,-117.5 839,-92.5 839,-92.5 839,-92.5 711,-84.5 711,-84.5 711,-84.5 698.34,-72.22 685.64,-59.89"/>
<polygon fill="black" stroke="black" points="688.45,-57.77 678.84,-53.31 683.58,-62.79 688.45,-57.77"/>
</g>
<!-- nasalib/ODEs@norm_ineq&#45;&gt;nasalib/ODEs@ODE_continuous_def -->
<g id="edge34" class="edge">
<title>nasalib/ODEs@norm_ineq&#45;&gt;nasalib/ODEs@ODE_continuous_def</title>
<path fill="none" stroke="black" d="M591.08,-461.96C603.55,-452.78 619.57,-440.97 633.52,-430.7"/>
<polygon fill="black" stroke="black" points="635.34,-432.96 641.32,-424.21 631.19,-427.33 635.34,-432.96"/>
</g>
<!-- nasalib/ODEs@norm_ineq&#45;&gt;nasalib/analysis -->
<g id="edge35" class="edge">
<title>nasalib/ODEs@norm_ineq&#45;&gt;nasalib/analysis</title>
<path fill="none" stroke="black" d="M609.01,-466.45C620.47,-463.2 630,-460.5 630,-460.5 630,-460.5 877,-424.5 877,-424.5 877,-424.5 901,-335.5 901,-335.5 901,-335.5 901,-335.5 901,-189.5 901,-189.5 877,-92.5 877,-92.5 877,-92.5 789,-84.5 789,-84.5 789,-84.5 779.86,-72.9 770.43,-60.93"/>
<polygon fill="black" stroke="black" points="772.58,-59 763.64,-53.31 767.08,-63.33 772.58,-59"/>
</g>
<!-- nasalib/ODEs@r2v_def -->
<g id="node15" class="node">
<title>nasalib/ODEs@r2v_def</title>
<ellipse fill="#e6f3ff" stroke="black" cx="306" cy="-118.5" rx="39.58" ry="18"/>
<text text-anchor="middle" x="306" y="-113.45" font-family="Times,serif" font-size="14.00">r2v_def</text>
</g>
<!-- nasalib/ODEs@r2v_analysis&#45;&gt;nasalib/ODEs@r2v_def -->
<g id="edge36" class="edge">
<title>nasalib/ODEs@r2v_analysis&#45;&gt;nasalib/ODEs@r2v_def</title>
<path fill="none" stroke="black" d="M306,-172.2C306,-164.74 306,-155.82 306,-147.47"/>
<polygon fill="black" stroke="black" points="309.5,-147.6 306,-137.6 302.5,-147.6 309.5,-147.6"/>
</g>
<!-- nasalib/ODEs@r2v_analysis&#45;&gt;nasalib/analysis -->
<g id="edge37" class="edge">
<title>nasalib/ODEs@r2v_analysis&#45;&gt;nasalib/analysis</title>
<path fill="none" stroke="black" d="M508,-117.5C508,-117.5 532,-92.5 532,-92.5 532,-92.5 711,-84.5 711,-84.5 711,-84.5 720.14,-72.9 729.57,-60.93"/>
<polygon fill="black" stroke="black" points="732.92,-63.33 736.36,-53.31 727.42,-59 732.92,-63.33"/>
</g>
<!-- nasalib/ODEs@r2v_analysis&#45;&gt;nasalib/mv_analysis -->
<g id="edge38" class="edge">
<title>nasalib/ODEs@r2v_analysis&#45;&gt;nasalib/mv_analysis</title>
<path fill="none" stroke="black" d="M508,-117.5C508,-117.5 532,-92.5 532,-92.5 532,-92.5 609,-84.5 609,-84.5 609,-84.5 621.66,-72.22 634.36,-59.89"/>
<polygon fill="black" stroke="black" points="636.42,-62.79 641.16,-53.31 631.55,-57.77 636.42,-62.79"/>
<path fill="none" stroke="black" d="M343.52,-176.5C401.94,-156.25 508,-119.5 508,-119.5"/>
</g>
<!-- nasalib/ODEs@r2v_continuous_extension&#45;&gt;nasalib/ODEs@interval_def -->
<g id="edge39" class="edge">
<title>nasalib/ODEs@r2v_continuous_extension&#45;&gt;nasalib/ODEs@interval_def</title>
<path fill="none" stroke="black" d="M288.09,-388.55C278.84,-379.81 267.4,-368.99 257.27,-359.4"/>
<polygon fill="black" stroke="black" points="260.16,-357.38 250.49,-353.05 255.35,-362.46 260.16,-357.38"/>
</g>
<!-- nasalib/ODEs@r2v_continuous_extension&#45;&gt;nasalib/ODEs@r2v_analysis -->
<g id="edge40" class="edge">
<title>nasalib/ODEs@r2v_continuous_extension&#45;&gt;nasalib/ODEs@r2v_analysis</title>
<path fill="none" stroke="black" d="M306,-388.35C306,-351.49 306,-264.42 306,-219.46"/>
<polygon fill="black" stroke="black" points="309.5,-219.73 306,-209.73 302.5,-219.73 309.5,-219.73"/>
</g>
<!-- nasalib/ODEs@r2v_continuous_extension&#45;&gt;nasalib/lnexp -->
<g id="edge41" class="edge">
<title>nasalib/ODEs@r2v_continuous_extension&#45;&gt;nasalib/lnexp</title>
<path fill="none" stroke="black" d="M385.66,-393.93C406.38,-390.92 423,-388.5 423,-388.5 423,-388.5 692,-352.5 692,-352.5 692,-352.5 787,-263.5 787,-263.5 787,-263.5 787,-263.5 787,-189.5 787,-189.5 807.21,-107.34 818.15,-62.85"/>
<polygon fill="black" stroke="black" points="821.73,-63.97 820.71,-53.42 814.93,-62.3 821.73,-63.97"/>
</g>
<!-- nasalib/matrices -->
<g id="node21" class="node">
<title>nasalib/matrices</title>
<polygon fill="#fcfcd7" stroke="black" points="600.25,-52 537.75,-52 537.75,-16 600.25,-16 600.25,-52"/>
<text text-anchor="middle" x="569" y="-28.95" font-family="Times,serif" font-size="14.00">matrices</text>
</g>
<!-- nasalib/ODEs@r2v_def&#45;&gt;nasalib/matrices -->
<g id="edge42" class="edge">
<title>nasalib/ODEs@r2v_def&#45;&gt;nasalib/matrices</title>
<path fill="none" stroke="black" d="M343.41,-111.94C406.68,-102.53 528,-84.5 528,-84.5 528,-84.5 537.79,-72.67 547.81,-60.58"/>
<polygon fill="black" stroke="black" points="550.98,-63.25 554.66,-53.31 545.59,-58.78 550.98,-63.25"/>
</g>
<!-- nasalib/ODEs@r2v_def&#45;&gt;nasalib/mv_analysis -->
<g id="edge43" class="edge">
<title>nasalib/ODEs@r2v_def&#45;&gt;nasalib/mv_analysis</title>
<path fill="none" stroke="black" d="M343.59,-112.5C398.46,-105.21 494,-92.5 494,-92.5 494,-92.5 609,-84.5 609,-84.5 609,-84.5 621.66,-72.22 634.36,-59.89"/>
<polygon fill="black" stroke="black" points="636.42,-62.79 641.16,-53.31 631.55,-57.77 636.42,-62.79"/>
</g>
<!-- nasalib/structures -->
<g id="node24" class="node">
<title>nasalib/structures</title>
<polygon fill="#fcfcd7" stroke="black" points="519.25,-52 450.75,-52 450.75,-16 519.25,-16 519.25,-52"/>
<text text-anchor="middle" x="485" y="-28.95" font-family="Times,serif" font-size="14.00">structures</text>
</g>
<!-- nasalib/ODEs@r2v_def&#45;&gt;nasalib/structures -->
<g id="edge44" class="edge">
<title>nasalib/ODEs@r2v_def&#45;&gt;nasalib/structures</title>
<path fill="none" stroke="black" d="M333.19,-104.97C361.76,-91.8 407.16,-70.88 440.87,-55.34"/>
<polygon fill="black" stroke="black" points="441.87,-58.27 449.49,-50.91 438.94,-51.91 441.87,-58.27"/>
</g>
<!-- nasalib/ODEs@r2v_diff_extension -->
<g id="node16" class="node">
<title>nasalib/ODEs@r2v_diff_extension</title>
<ellipse fill="#e6f3ff" stroke="black" cx="278" cy="-478.5" rx="81.04" ry="18"/>
<text text-anchor="middle" x="278" y="-473.45" font-family="Times,serif" font-size="14.00">r2v_diff_extension</text>
</g>
<!-- nasalib/ODEs@r2v_diff_extension&#45;&gt;nasalib/ODEs@interval_def -->
<g id="edge45" class="edge">
<title>nasalib/ODEs@r2v_diff_extension&#45;&gt;nasalib/ODEs@interval_def</title>
<path fill="none" stroke="black" d="M250.81,-461.31C224.64,-445.72 189,-424.5 189,-424.5 189,-424.5 179,-407.5 179,-407.5"/>
</g>
<!-- nasalib/ODEs@r2v_diff_extension&#45;&gt;nasalib/ODEs@r2v_continuous_extension -->
<g id="edge46" class="edge">
<title>nasalib/ODEs@r2v_diff_extension&#45;&gt;nasalib/ODEs@r2v_continuous_extension</title>
<path fill="none" stroke="black" d="M284.92,-460.2C288.01,-452.48 291.72,-443.21 295.16,-434.61"/>
<polygon fill="black" stroke="black" points="298.69,-436.19 299.16,-425.6 292.19,-433.59 298.69,-436.19"/>
</g>
<!-- nasalib/ODEs@r2v_sequence_convergence&#45;&gt;nasalib/ODEs@r2v_analysis -->
<g id="edge47" class="edge">
<title>nasalib/ODEs@r2v_sequence_convergence&#45;&gt;nasalib/ODEs@r2v_analysis</title>
<path fill="none" stroke="black" d="M205.28,-244.91C224.07,-234.95 248.09,-222.21 267.97,-211.67"/>
<polygon fill="black" stroke="black" points="269.45,-214.32 276.64,-206.54 266.17,-208.13 269.45,-214.32"/>
</g>
<!-- nasalib/ODEs@r2v_sequence_convergence&#45;&gt;nasalib/analysis -->
<g id="edge48" class="edge">
<title>nasalib/ODEs@r2v_sequence_convergence&#45;&gt;nasalib/analysis</title>
<path fill="none" stroke="black" d="M230.21,-246.45C288.75,-230.78 372,-208.5 372,-208.5 372,-208.5 584,-119.5 584,-119.5"/>
<path fill="none" stroke="black" d="M584,-117.5C584,-117.5 608,-92.5 608,-92.5 608,-92.5 711,-84.5 711,-84.5 711,-84.5 720.14,-72.9 729.57,-60.93"/>
<polygon fill="black" stroke="black" points="732.92,-63.33 736.36,-53.31 727.42,-59 732.92,-63.33"/>
</g>
<!-- nasalib/ODEs@r2v_sequence_convergence&#45;&gt;nasalib/mv_analysis -->
<g id="edge49" class="edge">
<title>nasalib/ODEs@r2v_sequence_convergence&#45;&gt;nasalib/mv_analysis</title>
<path fill="none" stroke="black" d="M584,-117.5C584,-117.5 614.33,-84.58 636.67,-60.33"/>
<polygon fill="black" stroke="black" points="638.68,-63.22 642.88,-53.5 633.53,-58.48 638.68,-63.22"/>
</g>
<!-- nasalib/ODEs@restrict_ode&#45;&gt;nasalib/ODEs@ODE_continuous_def -->
<g id="edge50" class="edge">
<title>nasalib/ODEs@restrict_ode&#45;&gt;nasalib/ODEs@ODE_continuous_def</title>
<path fill="none" stroke="black" d="M736.61,-532.73C749.2,-517.2 766,-496.5 766,-496.5 766,-496.5 766,-460.5 766,-460.5 766,-460.5 733.84,-443.62 705.81,-428.91"/>
<polygon fill="black" stroke="black" points="707.61,-425.38 697.13,-423.83 704.36,-431.58 707.61,-425.38"/>
</g>
<!-- nasalib/ODEs@restrict_ode&#45;&gt;nasalib/analysis -->
<g id="edge51" class="edge">
<title>nasalib/ODEs@restrict_ode&#45;&gt;nasalib/analysis</title>
<path fill="none" stroke="black" d="M766.8,-539.41C833.54,-524.03 953,-496.5 953,-496.5 953,-496.5 977,-479.5 977,-479.5"/>
<path fill="none" stroke="black" d="M977,-477.5C977,-477.5 977,-335.5 977,-335.5 977,-335.5 977,-335.5 977,-189.5 977,-189.5 896,-92.5 896,-92.5 896,-92.5 789,-84.5 789,-84.5 789,-84.5 779.86,-72.9 770.43,-60.93"/>
<polygon fill="black" stroke="black" points="772.58,-59 763.64,-53.31 767.08,-63.33 772.58,-59"/>
</g>
</g>
</svg>
