<?xml version="1.0" encoding="UTF-8" standalone="no"?>
<!DOCTYPE svg PUBLIC "-//W3C//DTD SVG 1.1//EN"
 "http://www.w3.org/Graphics/SVG/1.1/DTD/svg11.dtd">
<!-- Generated by graphviz version 7.0.6 (20230106.0513)
 -->
<!-- Title: ODEs&#45;zoomed Pages: 1 -->
<svg width="997pt" height="758pt"
 viewBox="0.00 0.00 997.00 758.00" xmlns="http://www.w3.org/2000/svg" xmlns:xlink="http://www.w3.org/1999/xlink">
<g id="graph0" class="graph" transform="scale(1 1) rotate(0) translate(4 754)">
<title>ODEs&#45;zoomed</title>
<polygon fill="white" stroke="none" points="-4,4 -4,-754 993,-754 993,4 -4,4"/>
<g id="clust1" class="cluster">
<title>cluster_NASALib</title>
<polygon fill="none" stroke="black" points="414,-8 414,-83 942,-83 942,-8 414,-8"/>
<text text-anchor="middle" x="678" y="-67.8" font-family="Times,serif" font-size="14.00">NASALib</text>
</g>
<g id="clust2" class="cluster">
<title>cluster_NASALib/ODEs</title>
<polygon fill="none" stroke="black" points="8,-91 8,-742 757,-742 757,-91 8,-91"/>
<text text-anchor="middle" x="382.5" y="-726.8" font-family="Times,serif" font-size="14.00">NASALib/ODEs</text>
</g>
<!-- NASALib/ODEs@ODE_Lipschitz_def -->
<g id="node1" class="node">
<title>NASALib/ODEs@ODE_Lipschitz_def</title>
<ellipse fill="#e6f3ff" stroke="black" cx="576" cy="-333" rx="81.49" ry="18"/>
<text text-anchor="middle" x="576" y="-329.3" font-family="Times,serif" font-size="14.00">ODE_Lipschitz_def</text>
</g>
<!-- NASALib/ODEs@ODE_def -->
<g id="node3" class="node">
<title>NASALib/ODEs@ODE_def</title>
<ellipse fill="#e6f3ff" stroke="black" cx="476" cy="-261" rx="44.39" ry="18"/>
<text text-anchor="middle" x="476" y="-257.3" font-family="Times,serif" font-size="14.00">ODE_def</text>
</g>
<!-- NASALib/ODEs@ODE_Lipschitz_def&#45;&gt;NASALib/ODEs@ODE_def -->
<g id="edge1" class="edge">
<title>NASALib/ODEs@ODE_Lipschitz_def&#45;&gt;NASALib/ODEs@ODE_def</title>
<path fill="none" stroke="black" d="M552.3,-315.41C538.66,-305.86 521.36,-293.75 506.68,-283.48"/>
<polygon fill="black" stroke="black" points="508.92,-280.77 498.72,-277.91 504.91,-286.51 508.92,-280.77"/>
</g>
<!-- NASALib/analysis -->
<g id="node19" class="node">
<title>NASALib/analysis</title>
<polygon fill="#fcfcd7" stroke="black" points="754,-52 694,-52 694,-16 754,-16 754,-52"/>
<text text-anchor="middle" x="724" y="-30.3" font-family="Times,serif" font-size="14.00">analysis</text>
</g>
<!-- NASALib/ODEs@ODE_Lipschitz_def&#45;&gt;NASALib/analysis -->
<g id="edge2" class="edge">
<title>NASALib/ODEs@ODE_Lipschitz_def&#45;&gt;NASALib/analysis</title>
<path fill="none" stroke="black" d="M579.09,-314.67C588.95,-259.41 619,-91 619,-91 619,-91 685,-83 685,-83 685,-83 693.56,-72.46 702.66,-61.26"/>
<polygon fill="black" stroke="black" points="705.38,-63.47 708.97,-53.5 699.94,-59.06 705.38,-63.47"/>
</g>
<!-- NASALib/ODEs@ODE_continuous_def -->
<g id="node2" class="node">
<title>NASALib/ODEs@ODE_continuous_def</title>
<ellipse fill="#e6f3ff" stroke="black" cx="640" cy="-405" rx="87.18" ry="18"/>
<text text-anchor="middle" x="640" y="-401.3" font-family="Times,serif" font-size="14.00">ODE_continuous_def</text>
</g>
<!-- NASALib/ODEs@ODE_continuous_def&#45;&gt;NASALib/ODEs@ODE_Lipschitz_def -->
<g id="edge3" class="edge">
<title>NASALib/ODEs@ODE_continuous_def&#45;&gt;NASALib/ODEs@ODE_Lipschitz_def</title>
<path fill="none" stroke="black" d="M624.51,-387.05C616.88,-378.71 607.53,-368.49 599.09,-359.25"/>
<polygon fill="black" stroke="black" points="601.7,-356.92 592.37,-351.91 596.54,-361.65 601.7,-356.92"/>
</g>
<!-- NASALib/ODEs@ODE_continuous_def&#45;&gt;NASALib/analysis -->
<g id="edge4" class="edge">
<title>NASALib/ODEs@ODE_continuous_def&#45;&gt;NASALib/analysis</title>
<path fill="none" stroke="black" d="M648.51,-386.65C656.1,-371.19 666,-351 666,-351 666,-351 671,-118 671,-118"/>
<path fill="none" stroke="black" d="M671,-116C671,-116 691.06,-85.34 706.5,-61.75"/>
<polygon fill="black" stroke="black" points="709.38,-63.73 711.93,-53.44 703.53,-59.9 709.38,-63.73"/>
</g>
<!-- NASALib/mv_analysis -->
<g id="node23" class="node">
<title>NASALib/mv_analysis</title>
<polygon fill="#fcfcd7" stroke="black" points="675.5,-52 590.5,-52 590.5,-16 675.5,-16 675.5,-52"/>
<text text-anchor="middle" x="633" y="-30.3" font-family="Times,serif" font-size="14.00">mv_analysis</text>
</g>
<!-- NASALib/ODEs@ODE_continuous_def&#45;&gt;NASALib/mv_analysis -->
<g id="edge5" class="edge">
<title>NASALib/ODEs@ODE_continuous_def&#45;&gt;NASALib/mv_analysis</title>
<path fill="none" stroke="black" d="M671,-116C671,-116 656.87,-85.89 645.85,-62.38"/>
<polygon fill="black" stroke="black" points="649.12,-61.11 641.7,-53.55 642.78,-64.09 649.12,-61.11"/>
</g>
<!-- NASALib/ODEs@r2v_analysis -->
<g id="node13" class="node">
<title>NASALib/ODEs@r2v_analysis</title>
<ellipse fill="#e6f3ff" stroke="black" cx="296" cy="-189" rx="55.49" ry="18"/>
<text text-anchor="middle" x="296" y="-185.3" font-family="Times,serif" font-size="14.00">r2v_analysis</text>
</g>
<!-- NASALib/ODEs@ODE_def&#45;&gt;NASALib/ODEs@r2v_analysis -->
<g id="edge6" class="edge">
<title>NASALib/ODEs@ODE_def&#45;&gt;NASALib/ODEs@r2v_analysis</title>
<path fill="none" stroke="black" d="M444.65,-247.81C416.05,-236.69 373.46,-220.12 341.19,-207.57"/>
<polygon fill="black" stroke="black" points="342.68,-204.4 332.09,-204.03 340.14,-210.92 342.68,-204.4"/>
</g>
<!-- NASALib/ODEs@ODE_def&#45;&gt;NASALib/analysis -->
<g id="edge7" class="edge">
<title>NASALib/ODEs@ODE_def&#45;&gt;NASALib/analysis</title>
<path fill="none" stroke="black" d="M486.45,-243.18C513.01,-200.43 581,-91 581,-91 581,-91 685,-83 685,-83 685,-83 693.56,-72.46 702.66,-61.26"/>
<polygon fill="black" stroke="black" points="705.38,-63.47 708.97,-53.5 699.94,-59.06 705.38,-63.47"/>
</g>
<!-- NASALib/ODEs@ODE_psi_contraction -->
<g id="node4" class="node">
<title>NASALib/ODEs@ODE_psi_contraction</title>
<ellipse fill="#e6f3ff" stroke="black" cx="413" cy="-549" rx="87.18" ry="18"/>
<text text-anchor="middle" x="413" y="-545.3" font-family="Times,serif" font-size="14.00">ODE_psi_contraction</text>
</g>
<!-- NASALib/ODEs@ODE_psi_def -->
<g id="node5" class="node">
<title>NASALib/ODEs@ODE_psi_def</title>
<ellipse fill="#e6f3ff" stroke="black" cx="476" cy="-405" rx="59.29" ry="18"/>
<text text-anchor="middle" x="476" y="-401.3" font-family="Times,serif" font-size="14.00">ODE_psi_def</text>
</g>
<!-- NASALib/ODEs@ODE_psi_contraction&#45;&gt;NASALib/ODEs@ODE_psi_def -->
<g id="edge8" class="edge">
<title>NASALib/ODEs@ODE_psi_contraction&#45;&gt;NASALib/ODEs@ODE_psi_def</title>
<path fill="none" stroke="black" d="M431.67,-531.23C448.95,-515.7 472,-495 472,-495 472,-495 473.55,-460.42 474.72,-434.37"/>
<polygon fill="black" stroke="black" points="478.21,-434.82 475.16,-424.67 471.22,-434.5 478.21,-434.82"/>
</g>
<!-- NASALib/ODEs@exp_analysis -->
<g id="node8" class="node">
<title>NASALib/ODEs@exp_analysis</title>
<ellipse fill="#e6f3ff" stroke="black" cx="673" cy="-477" rx="55.79" ry="18"/>
<text text-anchor="middle" x="673" y="-473.3" font-family="Times,serif" font-size="14.00">exp_analysis</text>
</g>
<!-- NASALib/ODEs@ODE_psi_contraction&#45;&gt;NASALib/ODEs@exp_analysis -->
<g id="edge9" class="edge">
<title>NASALib/ODEs@ODE_psi_contraction&#45;&gt;NASALib/ODEs@exp_analysis</title>
<path fill="none" stroke="black" d="M464.68,-534.09C509.73,-521.96 574.79,-504.44 620.18,-492.22"/>
<polygon fill="black" stroke="black" points="621.06,-495.61 629.81,-489.63 619.24,-488.85 621.06,-495.61"/>
</g>
<!-- NASALib/ODEs@interval_def -->
<g id="node9" class="node">
<title>NASALib/ODEs@interval_def</title>
<ellipse fill="#e6f3ff" stroke="black" cx="224" cy="-333" rx="53.09" ry="18"/>
<text text-anchor="middle" x="224" y="-329.3" font-family="Times,serif" font-size="14.00">interval_def</text>
</g>
<!-- NASALib/ODEs@ODE_psi_contraction&#45;&gt;NASALib/ODEs@interval_def -->
<g id="edge10" class="edge">
<title>NASALib/ODEs@ODE_psi_contraction&#45;&gt;NASALib/ODEs@interval_def</title>
<path fill="none" stroke="black" d="M356.2,-534.97C287.8,-519.27 182,-495 182,-495 182,-495 172,-478 172,-478"/>
</g>
<!-- NASALib/ODEs@metric_rho -->
<g id="node11" class="node">
<title>NASALib/ODEs@metric_rho</title>
<ellipse fill="#e6f3ff" stroke="black" cx="413" cy="-477" rx="50.09" ry="18"/>
<text text-anchor="middle" x="413" y="-473.3" font-family="Times,serif" font-size="14.00">metric_rho</text>
</g>
<!-- NASALib/ODEs@ODE_psi_contraction&#45;&gt;NASALib/ODEs@metric_rho -->
<g id="edge11" class="edge">
<title>NASALib/ODEs@ODE_psi_contraction&#45;&gt;NASALib/ODEs@metric_rho</title>
<path fill="none" stroke="black" d="M413,-530.7C413,-523.41 413,-514.73 413,-506.54"/>
<polygon fill="black" stroke="black" points="416.5,-506.62 413,-496.62 409.5,-506.62 416.5,-506.62"/>
</g>
<!-- NASALib/ODEs@norm_ineq -->
<g id="node12" class="node">
<title>NASALib/ODEs@norm_ineq</title>
<ellipse fill="#e6f3ff" stroke="black" cx="550" cy="-477" rx="49.29" ry="18"/>
<text text-anchor="middle" x="550" y="-473.3" font-family="Times,serif" font-size="14.00">norm_ineq</text>
</g>
<!-- NASALib/ODEs@ODE_psi_contraction&#45;&gt;NASALib/ODEs@norm_ineq -->
<g id="edge12" class="edge">
<title>NASALib/ODEs@ODE_psi_contraction&#45;&gt;NASALib/ODEs@norm_ineq</title>
<path fill="none" stroke="black" d="M444.77,-531.76C464.79,-521.54 490.75,-508.28 511.87,-497.48"/>
<polygon fill="black" stroke="black" points="513.45,-500.61 520.76,-492.94 510.27,-494.37 513.45,-500.61"/>
</g>
<!-- NASALib/ODEs@ODE_psi_def&#45;&gt;NASALib/ODEs@ODE_def -->
<g id="edge13" class="edge">
<title>NASALib/ODEs@ODE_psi_def&#45;&gt;NASALib/ODEs@ODE_def</title>
<path fill="none" stroke="black" d="M476,-386.59C476,-362.61 476,-319.14 476,-290.42"/>
<polygon fill="black" stroke="black" points="479.5,-290.62 476,-280.62 472.5,-290.62 479.5,-290.62"/>
</g>
<!-- NASALib/ODEs@ODE_psi_def&#45;&gt;NASALib/analysis -->
<g id="edge14" class="edge">
<title>NASALib/ODEs@ODE_psi_def&#45;&gt;NASALib/analysis</title>
<path fill="none" stroke="black" d="M518.64,-392.11C574.66,-376.48 666,-351 666,-351 666,-351 723,-262 723,-262 723,-262 723,-262 723,-188 723,-188 723.52,-108.01 723.81,-63.71"/>
<polygon fill="black" stroke="black" points="727.31,-63.79 723.88,-53.77 720.31,-63.74 727.31,-63.79"/>
</g>
<!-- NASALib/ODEs@ODE_solution_existence_uniqueness -->
<g id="node6" class="node">
<title>NASALib/ODEs@ODE_solution_existence_uniqueness</title>
<ellipse fill="#e6f3ff" stroke="black" cx="413" cy="-621" rx="141.88" ry="18"/>
<text text-anchor="middle" x="413" y="-617.3" font-family="Times,serif" font-size="14.00">ODE_solution_existence_uniqueness</text>
</g>
<!-- NASALib/ODEs@ODE_solution_existence_uniqueness&#45;&gt;NASALib/ODEs@ODE_psi_contraction -->
<g id="edge15" class="edge">
<title>NASALib/ODEs@ODE_solution_existence_uniqueness&#45;&gt;NASALib/ODEs@ODE_psi_contraction</title>
<path fill="none" stroke="black" d="M413,-602.7C413,-595.41 413,-586.73 413,-578.54"/>
<polygon fill="black" stroke="black" points="416.5,-578.62 413,-568.62 409.5,-578.62 416.5,-578.62"/>
</g>
<!-- NASALib/ODEs@continuous_function_complete_rho -->
<g id="node7" class="node">
<title>NASALib/ODEs@continuous_function_complete_rho</title>
<ellipse fill="#e6f3ff" stroke="black" cx="172" cy="-549" rx="135.68" ry="18"/>
<text text-anchor="middle" x="172" y="-545.3" font-family="Times,serif" font-size="14.00">continuous_function_complete_rho</text>
</g>
<!-- NASALib/ODEs@ODE_solution_existence_uniqueness&#45;&gt;NASALib/ODEs@continuous_function_complete_rho -->
<g id="edge16" class="edge">
<title>NASALib/ODEs@ODE_solution_existence_uniqueness&#45;&gt;NASALib/ODEs@continuous_function_complete_rho</title>
<path fill="none" stroke="black" d="M358.01,-604.03C322.23,-593.63 275.37,-580.03 237.64,-569.07"/>
<polygon fill="black" stroke="black" points="238.78,-565.75 228.21,-566.33 236.83,-572.48 238.78,-565.75"/>
</g>
<!-- NASALib/ODEs@ODE_solution_existence_uniqueness&#45;&gt;NASALib/ODEs@interval_def -->
<g id="edge17" class="edge">
<title>NASALib/ODEs@ODE_solution_existence_uniqueness&#45;&gt;NASALib/ODEs@interval_def</title>
<path fill="none" stroke="black" d="M319.07,-607.1C204.81,-591.41 27,-567 27,-567 27,-567 27,-531 27,-531 27,-531 172,-478 172,-478"/>
<path fill="none" stroke="black" d="M174,-404C174,-404 184,-387 184,-387 184,-387 194.31,-373.33 204.47,-359.88"/>
<polygon fill="black" stroke="black" points="207.2,-362.07 210.43,-351.98 201.61,-357.85 207.2,-362.07"/>
<path fill="none" stroke="black" d="M172,-476C172,-476 174,-406 174,-406"/>
</g>
<!-- NASALib/ODEs@restrict_ode -->
<g id="node18" class="node">
<title>NASALib/ODEs@restrict_ode</title>
<ellipse fill="#e6f3ff" stroke="black" cx="697" cy="-549" rx="51.99" ry="18"/>
<text text-anchor="middle" x="697" y="-545.3" font-family="Times,serif" font-size="14.00">restrict_ode</text>
</g>
<!-- NASALib/ODEs@ODE_solution_existence_uniqueness&#45;&gt;NASALib/ODEs@restrict_ode -->
<g id="edge18" class="edge">
<title>NASALib/ODEs@ODE_solution_existence_uniqueness&#45;&gt;NASALib/ODEs@restrict_ode</title>
<path fill="none" stroke="black" d="M476.03,-604.46C526.71,-591.97 597.07,-574.63 644.67,-562.9"/>
<polygon fill="black" stroke="black" points="645.32,-566.34 654.19,-560.55 643.64,-559.55 645.32,-566.34"/>
</g>
<!-- NASALib/ODEs@ODE_solution_existence_uniqueness&#45;&gt;NASALib/analysis -->
<g id="edge19" class="edge">
<title>NASALib/ODEs@ODE_solution_existence_uniqueness&#45;&gt;NASALib/analysis</title>
<path fill="none" stroke="black" d="M501.26,-606.56C604.36,-590.86 761,-567 761,-567 761,-567 951,-478 951,-478"/>
</g>
<!-- NASALib/ODEs@continuous_function_complete_rho&#45;&gt;NASALib/ODEs@interval_def -->
<g id="edge20" class="edge">
<title>NASALib/ODEs@continuous_function_complete_rho&#45;&gt;NASALib/ODEs@interval_def</title>
<path fill="none" stroke="black" d="M172,-530.7C172,-509.97 172,-478 172,-478"/>
</g>
<!-- NASALib/ODEs@continuous_function_complete_rho&#45;&gt;NASALib/ODEs@metric_rho -->
<g id="edge21" class="edge">
<title>NASALib/ODEs@continuous_function_complete_rho&#45;&gt;NASALib/ODEs@metric_rho</title>
<path fill="none" stroke="black" d="M226.69,-532.12C267.98,-520.12 324.15,-503.81 363.99,-492.24"/>
<polygon fill="black" stroke="black" points="364.94,-495.6 373.57,-489.45 362.99,-488.88 364.94,-495.6"/>
</g>
<!-- NASALib/ODEs@r2v_sequence_convergence -->
<g id="node17" class="node">
<title>NASALib/ODEs@r2v_sequence_convergence</title>
<ellipse fill="#e6f3ff" stroke="black" cx="169" cy="-261" rx="107.78" ry="18"/>
<text text-anchor="middle" x="169" y="-257.3" font-family="Times,serif" font-size="14.00">r2v_sequence_convergence</text>
</g>
<!-- NASALib/ODEs@continuous_function_complete_rho&#45;&gt;NASALib/ODEs@r2v_sequence_convergence -->
<g id="edge22" class="edge">
<title>NASALib/ODEs@continuous_function_complete_rho&#45;&gt;NASALib/ODEs@r2v_sequence_convergence</title>
<path fill="none" stroke="black" d="M170.36,-530.65C168.9,-515.19 167,-495 167,-495 167,-495 162,-351 162,-351 162,-351 162,-315 162,-315 162,-315 163.56,-303.17 165.21,-290.68"/>
<polygon fill="black" stroke="black" points="168.67,-291.23 166.51,-280.85 161.73,-290.31 168.67,-291.23"/>
</g>
<!-- NASALib/metric_space -->
<g id="node22" class="node">
<title>NASALib/metric_space</title>
<polygon fill="#fcfcd7" stroke="black" points="933.5,-52 844.5,-52 844.5,-16 933.5,-16 933.5,-52"/>
<text text-anchor="middle" x="889" y="-30.3" font-family="Times,serif" font-size="14.00">metric_space</text>
</g>
<!-- NASALib/ODEs@continuous_function_complete_rho&#45;&gt;NASALib/metric_space -->
<g id="edge23" class="edge">
<title>NASALib/ODEs@continuous_function_complete_rho&#45;&gt;NASALib/metric_space</title>
<path fill="none" stroke="black" d="M271.12,-536.38C296.61,-533.39 317,-531 317,-531 317,-531 738,-495 738,-495 738,-495 913,-406 913,-406 913,-406 913,-406 913,-188 913,-188 900.4,-107.67 893.46,-63.42"/>
<polygon fill="black" stroke="black" points="896.95,-63.09 891.94,-53.75 890.03,-64.17 896.95,-63.09"/>
</g>
<!-- NASALib/ODEs@exp_analysis&#45;&gt;NASALib/analysis -->
<g id="edge24" class="edge">
<title>NASALib/ODEs@exp_analysis&#45;&gt;NASALib/analysis</title>
<path fill="none" stroke="black" d="M692.24,-459.81C710.77,-444.22 736,-423 736,-423 736,-423 799,-334 799,-334 799,-334 799,-334 799,-260 799,-260 799,-118 799,-118"/>
<path fill="none" stroke="black" d="M799,-116C799,-116 763,-83 763,-83 763,-83 754.44,-72.46 745.34,-61.26"/>
<polygon fill="black" stroke="black" points="748.06,-59.06 739.03,-53.5 742.62,-63.47 748.06,-59.06"/>
</g>
<!-- NASALib/lnexp -->
<g id="node20" class="node">
<title>NASALib/lnexp</title>
<polygon fill="#fcfcd7" stroke="black" points="826,-52 772,-52 772,-16 826,-16 826,-52"/>
<text text-anchor="middle" x="799" y="-30.3" font-family="Times,serif" font-size="14.00">lnexp</text>
</g>
<!-- NASALib/ODEs@exp_analysis&#45;&gt;NASALib/lnexp -->
<g id="edge25" class="edge">
<title>NASALib/ODEs@exp_analysis&#45;&gt;NASALib/lnexp</title>
<path fill="none" stroke="black" d="M799,-116C799,-116 799,-86.96 799,-63.66"/>
<polygon fill="black" stroke="black" points="802.5,-63.69 799,-53.69 795.5,-63.69 802.5,-63.69"/>
</g>
<!-- NASALib/ODEs@interval_def&#45;&gt;NASALib/analysis -->
<g id="edge26" class="edge">
<title>NASALib/ODEs@interval_def&#45;&gt;NASALib/analysis</title>
<path fill="none" stroke="black" d="M270.32,-323.95C355.65,-309.12 529,-279 529,-279 529,-279 633,-118 633,-118"/>
<path fill="none" stroke="black" d="M633,-116C633,-116 657,-91 657,-91 657,-91 685,-83 685,-83 685,-83 693.56,-72.46 702.66,-61.26"/>
<polygon fill="black" stroke="black" points="705.38,-63.47 708.97,-53.5 699.94,-59.06 705.38,-63.47"/>
</g>
<!-- NASALib/ODEs@interval_def&#45;&gt;NASALib/mv_analysis -->
<g id="edge27" class="edge">
<title>NASALib/ODEs@interval_def&#45;&gt;NASALib/mv_analysis</title>
<path fill="none" stroke="black" d="M633,-116C633,-116 633,-86.96 633,-63.66"/>
<polygon fill="black" stroke="black" points="636.5,-63.69 633,-53.69 629.5,-63.69 636.5,-63.69"/>
</g>
<!-- NASALib/ODEs@linear_ode_1D -->
<g id="node10" class="node">
<title>NASALib/ODEs@linear_ode_1D</title>
<ellipse fill="#e6f3ff" stroke="black" cx="413" cy="-693" rx="63.09" ry="18"/>
<text text-anchor="middle" x="413" y="-689.3" font-family="Times,serif" font-size="14.00">linear_ode_1D</text>
</g>
<!-- NASALib/ODEs@linear_ode_1D&#45;&gt;NASALib/ODEs@ODE_solution_existence_uniqueness -->
<g id="edge28" class="edge">
<title>NASALib/ODEs@linear_ode_1D&#45;&gt;NASALib/ODEs@ODE_solution_existence_uniqueness</title>
<path fill="none" stroke="black" d="M413,-674.7C413,-667.41 413,-658.73 413,-650.54"/>
<polygon fill="black" stroke="black" points="416.5,-650.62 413,-640.62 409.5,-650.62 416.5,-650.62"/>
</g>
<!-- NASALib/ODEs@linear_ode_1D&#45;&gt;NASALib/mv_analysis -->
<g id="edge29" class="edge">
<title>NASALib/ODEs@linear_ode_1D&#45;&gt;NASALib/mv_analysis</title>
<path fill="none" stroke="black" d="M459.65,-680.5C596.77,-646.69 989,-550 989,-550 989,-550 989,-550 989,-188 989,-188 851,-91 851,-91 851,-91 685,-83 685,-83 685,-83 672.66,-71.61 660.01,-59.93"/>
<polygon fill="black" stroke="black" points="662.61,-57.57 652.89,-53.36 657.86,-62.71 662.61,-57.57"/>
</g>
<!-- NASALib/ODEs@metric_rho&#45;&gt;NASALib/ODEs@interval_def -->
<g id="edge30" class="edge">
<title>NASALib/ODEs@metric_rho&#45;&gt;NASALib/ODEs@interval_def</title>
<path fill="none" stroke="black" d="M374.64,-464.95C363.37,-461.7 354,-459 354,-459 354,-459 184,-423 184,-423 184,-423 174,-406 174,-406"/>
</g>
<!-- NASALib/ODEs@r2v_continuous_extension -->
<g id="node14" class="node">
<title>NASALib/ODEs@r2v_continuous_extension</title>
<ellipse fill="#e6f3ff" stroke="black" cx="296" cy="-405" rx="103.18" ry="18"/>
<text text-anchor="middle" x="296" y="-401.3" font-family="Times,serif" font-size="14.00">r2v_continuous_extension</text>
</g>
<!-- NASALib/ODEs@metric_rho&#45;&gt;NASALib/ODEs@r2v_continuous_extension -->
<g id="edge31" class="edge">
<title>NASALib/ODEs@metric_rho&#45;&gt;NASALib/ODEs@r2v_continuous_extension</title>
<path fill="none" stroke="black" d="M387.9,-460.98C372.04,-451.49 351.25,-439.05 333.45,-428.41"/>
<polygon fill="black" stroke="black" points="335.6,-425.62 325.23,-423.49 332.01,-431.62 335.6,-425.62"/>
</g>
<!-- NASALib/ODEs@metric_rho&#45;&gt;NASALib/metric_space -->
<g id="edge32" class="edge">
<title>NASALib/ODEs@metric_rho&#45;&gt;NASALib/metric_space</title>
<path fill="none" stroke="black" d="M455.28,-466.9C474.06,-462.86 492,-459 492,-459 492,-459 736,-423 736,-423 736,-423 837,-334 837,-334 837,-334 837,-334 837,-260 837,-260 837,-118 837,-118"/>
<path fill="none" stroke="black" d="M837,-116C837,-116 856.68,-85.34 871.83,-61.75"/>
<polygon fill="black" stroke="black" points="874.7,-63.76 877.15,-53.45 868.81,-59.98 874.7,-63.76"/>
</g>
<!-- NASALib/ODEs@metric_rho&#45;&gt;NASALib/mv_analysis -->
<g id="edge33" class="edge">
<title>NASALib/ODEs@metric_rho&#45;&gt;NASALib/mv_analysis</title>
<path fill="none" stroke="black" d="M837,-116C837,-116 813,-91 813,-91 813,-91 685,-83 685,-83 685,-83 672.66,-71.61 660.01,-59.93"/>
<polygon fill="black" stroke="black" points="662.61,-57.57 652.89,-53.36 657.86,-62.71 662.61,-57.57"/>
</g>
<!-- NASALib/ODEs@norm_ineq&#45;&gt;NASALib/ODEs@ODE_continuous_def -->
<g id="edge34" class="edge">
<title>NASALib/ODEs@norm_ineq&#45;&gt;NASALib/ODEs@ODE_continuous_def</title>
<path fill="none" stroke="black" d="M569.97,-460.46C581.67,-451.37 596.68,-439.7 609.79,-429.49"/>
<polygon fill="black" stroke="black" points="611.57,-432.55 617.32,-423.64 607.27,-427.02 611.57,-432.55"/>
</g>
<!-- NASALib/ODEs@norm_ineq&#45;&gt;NASALib/analysis -->
<g id="edge35" class="edge">
<title>NASALib/ODEs@norm_ineq&#45;&gt;NASALib/analysis</title>
<path fill="none" stroke="black" d="M587.71,-464.95C598.79,-461.7 608,-459 608,-459 608,-459 851,-423 851,-423 851,-423 875,-334 875,-334 875,-334 875,-334 875,-188 875,-188 851,-91 851,-91 851,-91 763,-83 763,-83 763,-83 754.44,-72.46 745.34,-61.26"/>
<polygon fill="black" stroke="black" points="748.06,-59.06 739.03,-53.5 742.62,-63.47 748.06,-59.06"/>
</g>
<!-- NASALib/ODEs@r2v_def -->
<g id="node15" class="node">
<title>NASALib/ODEs@r2v_def</title>
<ellipse fill="#e6f3ff" stroke="black" cx="296" cy="-117" rx="38.19" ry="18"/>
<text text-anchor="middle" x="296" y="-113.3" font-family="Times,serif" font-size="14.00">r2v_def</text>
</g>
<!-- NASALib/ODEs@r2v_analysis&#45;&gt;NASALib/ODEs@r2v_def -->
<g id="edge36" class="edge">
<title>NASALib/ODEs@r2v_analysis&#45;&gt;NASALib/ODEs@r2v_def</title>
<path fill="none" stroke="black" d="M296,-170.7C296,-163.41 296,-154.73 296,-146.54"/>
<polygon fill="black" stroke="black" points="299.5,-146.62 296,-136.62 292.5,-146.62 299.5,-146.62"/>
</g>
<!-- NASALib/ODEs@r2v_analysis&#45;&gt;NASALib/analysis -->
<g id="edge37" class="edge">
<title>NASALib/ODEs@r2v_analysis&#45;&gt;NASALib/analysis</title>
<path fill="none" stroke="black" d="M481,-116C481,-116 505,-91 505,-91 505,-91 685,-83 685,-83 685,-83 693.56,-72.46 702.66,-61.26"/>
<polygon fill="black" stroke="black" points="705.38,-63.47 708.97,-53.5 699.94,-59.06 705.38,-63.47"/>
</g>
<!-- NASALib/ODEs@r2v_analysis&#45;&gt;NASALib/mv_analysis -->
<g id="edge38" class="edge">
<title>NASALib/ODEs@r2v_analysis&#45;&gt;NASALib/mv_analysis</title>
<path fill="none" stroke="black" d="M481,-116C481,-116 505,-91 505,-91 505,-91 582,-83 582,-83 582,-83 594.1,-71.61 606.51,-59.93"/>
<polygon fill="black" stroke="black" points="608.6,-62.77 613.49,-53.37 603.8,-57.67 608.6,-62.77"/>
<path fill="none" stroke="black" d="M331.23,-174.67C384.91,-154.36 481,-118 481,-118"/>
</g>
<!-- NASALib/ODEs@r2v_continuous_extension&#45;&gt;NASALib/ODEs@interval_def -->
<g id="edge39" class="edge">
<title>NASALib/ODEs@r2v_continuous_extension&#45;&gt;NASALib/ODEs@interval_def</title>
<path fill="none" stroke="black" d="M278.57,-387.05C269.69,-378.42 258.72,-367.76 248.96,-358.27"/>
<polygon fill="black" stroke="black" points="251.47,-355.82 241.86,-351.36 246.59,-360.84 251.47,-355.82"/>
</g>
<!-- NASALib/ODEs@r2v_continuous_extension&#45;&gt;NASALib/ODEs@r2v_analysis -->
<g id="edge40" class="edge">
<title>NASALib/ODEs@r2v_continuous_extension&#45;&gt;NASALib/ODEs@r2v_analysis</title>
<path fill="none" stroke="black" d="M296,-386.85C296,-350.14 296,-263.66 296,-218.53"/>
<polygon fill="black" stroke="black" points="299.5,-218.75 296,-208.75 292.5,-218.75 299.5,-218.75"/>
</g>
<!-- NASALib/ODEs@r2v_continuous_extension&#45;&gt;NASALib/lnexp -->
<g id="edge41" class="edge">
<title>NASALib/ODEs@r2v_continuous_extension&#45;&gt;NASALib/lnexp</title>
<path fill="none" stroke="black" d="M371.95,-392.47C391.92,-389.44 408,-387 408,-387 408,-387 666,-351 666,-351 666,-351 761,-262 761,-262 761,-262 761,-262 761,-188 761,-188 785,-91 785,-91 785,-91 788.45,-77.21 791.92,-63.32"/>
<polygon fill="black" stroke="black" points="795.25,-64.43 794.28,-53.88 788.46,-62.73 795.25,-64.43"/>
</g>
<!-- NASALib/matrices -->
<g id="node21" class="node">
<title>NASALib/matrices</title>
<polygon fill="#fcfcd7" stroke="black" points="572.5,-52 509.5,-52 509.5,-16 572.5,-16 572.5,-52"/>
<text text-anchor="middle" x="541" y="-30.3" font-family="Times,serif" font-size="14.00">matrices</text>
</g>
<!-- NASALib/ODEs@r2v_def&#45;&gt;NASALib/matrices -->
<g id="edge42" class="edge">
<title>NASALib/ODEs@r2v_def&#45;&gt;NASALib/matrices</title>
<path fill="none" stroke="black" d="M331.53,-110.25C389.98,-100.8 500,-83 500,-83 500,-83 509.18,-72.25 518.85,-60.93"/>
<polygon fill="black" stroke="black" points="521.38,-63.36 525.22,-53.48 516.06,-58.81 521.38,-63.36"/>
</g>
<!-- NASALib/ODEs@r2v_def&#45;&gt;NASALib/mv_analysis -->
<g id="edge43" class="edge">
<title>NASALib/ODEs@r2v_def&#45;&gt;NASALib/mv_analysis</title>
<path fill="none" stroke="black" d="M332.26,-110.7C382.46,-103.36 467,-91 467,-91 467,-91 582,-83 582,-83 582,-83 594.1,-71.61 606.51,-59.93"/>
<polygon fill="black" stroke="black" points="608.6,-62.77 613.49,-53.37 603.8,-57.67 608.6,-62.77"/>
</g>
<!-- NASALib/structures -->
<g id="node24" class="node">
<title>NASALib/structures</title>
<polygon fill="#fcfcd7" stroke="black" points="491.5,-52 422.5,-52 422.5,-16 491.5,-16 491.5,-52"/>
<text text-anchor="middle" x="457" y="-30.3" font-family="Times,serif" font-size="14.00">structures</text>
</g>
<!-- NASALib/ODEs@r2v_def&#45;&gt;NASALib/structures -->
<g id="edge44" class="edge">
<title>NASALib/ODEs@r2v_def&#45;&gt;NASALib/structures</title>
<path fill="none" stroke="black" d="M321.51,-103.17C345.86,-90.91 383.07,-72.2 412.34,-57.47"/>
<polygon fill="black" stroke="black" points="413.61,-60.75 420.97,-53.13 410.46,-54.49 413.61,-60.75"/>
</g>
<!-- NASALib/ODEs@r2v_diff_extension -->
<g id="node16" class="node">
<title>NASALib/ODEs@r2v_diff_extension</title>
<ellipse fill="#e6f3ff" stroke="black" cx="268" cy="-477" rx="77.19" ry="18"/>
<text text-anchor="middle" x="268" y="-473.3" font-family="Times,serif" font-size="14.00">r2v_diff_extension</text>
</g>
<!-- NASALib/ODEs@r2v_diff_extension&#45;&gt;NASALib/ODEs@interval_def -->
<g id="edge45" class="edge">
<title>NASALib/ODEs@r2v_diff_extension&#45;&gt;NASALib/ODEs@interval_def</title>
<path fill="none" stroke="black" d="M242.34,-459.81C217.64,-444.22 184,-423 184,-423 184,-423 174,-406 174,-406"/>
</g>
<!-- NASALib/ODEs@r2v_diff_extension&#45;&gt;NASALib/ODEs@r2v_continuous_extension -->
<g id="edge46" class="edge">
<title>NASALib/ODEs@r2v_diff_extension&#45;&gt;NASALib/ODEs@r2v_continuous_extension</title>
<path fill="none" stroke="black" d="M274.92,-458.7C277.94,-451.15 281.55,-442.12 284.93,-433.68"/>
<polygon fill="black" stroke="black" points="288.13,-435.09 288.6,-424.51 281.63,-432.49 288.13,-435.09"/>
</g>
<!-- NASALib/ODEs@r2v_sequence_convergence&#45;&gt;NASALib/ODEs@r2v_analysis -->
<g id="edge47" class="edge">
<title>NASALib/ODEs@r2v_sequence_convergence&#45;&gt;NASALib/ODEs@r2v_analysis</title>
<path fill="none" stroke="black" d="M199.1,-243.41C217,-233.54 239.86,-220.94 258.88,-210.46"/>
<polygon fill="black" stroke="black" points="260.32,-213.66 267.39,-205.77 256.94,-207.53 260.32,-213.66"/>
</g>
<!-- NASALib/ODEs@r2v_sequence_convergence&#45;&gt;NASALib/analysis -->
<g id="edge48" class="edge">
<title>NASALib/ODEs@r2v_sequence_convergence&#45;&gt;NASALib/analysis</title>
<path fill="none" stroke="black" d="M222.97,-245.02C279.45,-229.35 360,-207 360,-207 360,-207 557,-118 557,-118"/>
<path fill="none" stroke="black" d="M557,-116C557,-116 581,-91 581,-91 581,-91 685,-83 685,-83 685,-83 693.56,-72.46 702.66,-61.26"/>
<polygon fill="black" stroke="black" points="705.38,-63.47 708.97,-53.5 699.94,-59.06 705.38,-63.47"/>
</g>
<!-- NASALib/ODEs@r2v_sequence_convergence&#45;&gt;NASALib/mv_analysis -->
<g id="edge49" class="edge">
<title>NASALib/ODEs@r2v_sequence_convergence&#45;&gt;NASALib/mv_analysis</title>
<path fill="none" stroke="black" d="M557,-116C557,-116 586.8,-84.24 609.08,-60.49"/>
<polygon fill="black" stroke="black" points="611.56,-62.97 615.85,-53.28 606.45,-58.18 611.56,-62.97"/>
</g>
<!-- NASALib/ODEs@restrict_ode&#45;&gt;NASALib/ODEs@ODE_continuous_def -->
<g id="edge50" class="edge">
<title>NASALib/ODEs@restrict_ode&#45;&gt;NASALib/ODEs@ODE_continuous_def</title>
<path fill="none" stroke="black" d="M709.97,-531.23C721.98,-515.7 738,-495 738,-495 738,-495 738,-459 738,-459 738,-459 707.33,-442.42 680.31,-427.8"/>
<polygon fill="black" stroke="black" points="682,-424.73 671.53,-423.05 678.67,-430.89 682,-424.73"/>
</g>
<!-- NASALib/ODEs@restrict_ode&#45;&gt;NASALib/analysis -->
<g id="edge51" class="edge">
<title>NASALib/ODEs@restrict_ode&#45;&gt;NASALib/analysis</title>
<path fill="none" stroke="black" d="M739.45,-538.22C805.91,-522.9 927,-495 927,-495 927,-495 951,-478 951,-478"/>
<path fill="none" stroke="black" d="M951,-476C951,-476 951,-334 951,-334 951,-334 951,-334 951,-188 951,-188 870,-91 870,-91 870,-91 763,-83 763,-83 763,-83 754.44,-72.46 745.34,-61.26"/>
<polygon fill="black" stroke="black" points="748.06,-59.06 739.03,-53.5 742.62,-63.47 748.06,-59.06"/>
</g>
</g>
</svg>
