<?xml version="1.0" encoding="UTF-8" standalone="no"?>
<!DOCTYPE svg PUBLIC "-//W3C//DTD SVG 1.1//EN"
 "http://www.w3.org/Graphics/SVG/1.1/DTD/svg11.dtd">
<!-- Generated by graphviz version 8.0.4 (20230421.1958)
 -->
<!-- Title: extended_nnreal&#45;zoomed Pages: 1 -->
<svg width="407pt" height="401pt"
 viewBox="0.00 0.00 407.00 401.00" xmlns="http://www.w3.org/2000/svg" xmlns:xlink="http://www.w3.org/1999/xlink">
<g id="graph0" class="graph" transform="scale(1 1) rotate(0) translate(4 397)">
<title>extended_nnreal&#45;zoomed</title>
<polygon fill="white" stroke="none" points="-4,4 -4,-397 403,-397 403,4 -4,4"/>
<g id="clust1" class="cluster">
<title>cluster_NASALib</title>
<polygon fill="none" stroke="black" points="83,-8 83,-84.5 391,-84.5 391,-8 83,-8"/>
<text text-anchor="middle" x="237" y="-67.2" font-family="Times,serif" font-size="14.00">NASALib</text>
</g>
<g id="clust2" class="cluster">
<title>cluster_NASALib/extended_nnreal</title>
<polygon fill="none" stroke="black" points="8,-92.5 8,-385 220,-385 220,-92.5 8,-92.5"/>
<text text-anchor="middle" x="114" y="-367.7" font-family="Times,serif" font-size="14.00">NASALib/extended_nnreal</text>
</g>
<!-- NASALib/analysis -->
<g id="node1" class="node">
<title>NASALib/analysis</title>
<polygon fill="#fcfcd7" stroke="black" points="222.75,-52 163.25,-52 163.25,-16 222.75,-16 222.75,-52"/>
<text text-anchor="middle" x="193" y="-28.95" font-family="Times,serif" font-size="14.00">analysis</text>
</g>
<!-- NASALib/extended_nnreal@code_product -->
<g id="node2" class="node">
<title>NASALib/extended_nnreal@code_product</title>
<ellipse fill="#e6f3ff" stroke="black" cx="77" cy="-118.5" rx="61.08" ry="18"/>
<text text-anchor="middle" x="77" y="-113.45" font-family="Times,serif" font-size="14.00">code_product</text>
</g>
<!-- NASALib/reals -->
<g id="node6" class="node">
<title>NASALib/reals</title>
<polygon fill="#fcfcd7" stroke="black" points="145,-52 91,-52 91,-16 145,-16 145,-52"/>
<text text-anchor="middle" x="118" y="-28.95" font-family="Times,serif" font-size="14.00">reals</text>
</g>
<!-- NASALib/extended_nnreal@code_product&#45;&gt;NASALib/reals -->
<g id="edge1" class="edge">
<title>NASALib/extended_nnreal@code_product&#45;&gt;NASALib/reals</title>
<path fill="none" stroke="black" d="M85.5,-100.41C91.01,-89.31 98.32,-74.61 104.6,-61.96"/>
<polygon fill="black" stroke="black" points="108.06,-63.87 109.37,-53.36 101.79,-60.75 108.06,-63.87"/>
</g>
<!-- NASALib/extended_nnreal@double_index -->
<g id="node3" class="node">
<title>NASALib/extended_nnreal@double_index</title>
<ellipse fill="#e6f3ff" stroke="black" cx="77" cy="-190.5" rx="61.08" ry="18"/>
<text text-anchor="middle" x="77" y="-185.45" font-family="Times,serif" font-size="14.00">double_index</text>
</g>
<!-- NASALib/extended_nnreal@double_index&#45;&gt;NASALib/extended_nnreal@code_product -->
<g id="edge2" class="edge">
<title>NASALib/extended_nnreal@double_index&#45;&gt;NASALib/extended_nnreal@code_product</title>
<path fill="none" stroke="black" d="M77,-172.2C77,-164.74 77,-155.82 77,-147.47"/>
<polygon fill="black" stroke="black" points="80.5,-147.6 77,-137.6 73.5,-147.6 80.5,-147.6"/>
</g>
<!-- NASALib/extended_nnreal@double_nn_sequence -->
<g id="node4" class="node">
<title>NASALib/extended_nnreal@double_nn_sequence</title>
<ellipse fill="#e6f3ff" stroke="black" cx="124" cy="-262.5" rx="88.2" ry="18"/>
<text text-anchor="middle" x="124" y="-257.45" font-family="Times,serif" font-size="14.00">double_nn_sequence</text>
</g>
<!-- NASALib/extended_nnreal@double_nn_sequence&#45;&gt;NASALib/analysis -->
<g id="edge3" class="edge">
<title>NASALib/extended_nnreal@double_nn_sequence&#45;&gt;NASALib/analysis</title>
<path fill="none" stroke="black" d="M131.53,-244.15C138.24,-228.69 147,-208.5 147,-208.5 147,-208.5 172.64,-111.81 185.63,-62.79"/>
<polygon fill="black" stroke="black" points="189.24,-63.83 188.42,-53.27 182.48,-62.04 189.24,-63.83"/>
</g>
<!-- NASALib/extended_nnreal@double_nn_sequence&#45;&gt;NASALib/extended_nnreal@double_index -->
<g id="edge4" class="edge">
<title>NASALib/extended_nnreal@double_nn_sequence&#45;&gt;NASALib/extended_nnreal@double_index</title>
<path fill="none" stroke="black" d="M112.38,-244.2C106.98,-236.14 100.43,-226.39 94.45,-217.48"/>
<polygon fill="black" stroke="black" points="96.96,-215.96 88.48,-209.6 91.15,-219.86 96.96,-215.96"/>
</g>
<!-- NASALib/series -->
<g id="node7" class="node">
<title>NASALib/series</title>
<polygon fill="#fcfcd7" stroke="black" points="383,-52 329,-52 329,-16 383,-16 383,-52"/>
<text text-anchor="middle" x="356" y="-28.95" font-family="Times,serif" font-size="14.00">series</text>
</g>
<!-- NASALib/extended_nnreal@double_nn_sequence&#45;&gt;NASALib/series -->
<g id="edge5" class="edge">
<title>NASALib/extended_nnreal@double_nn_sequence&#45;&gt;NASALib/series</title>
<path fill="none" stroke="black" d="M145.2,-244.73C164.83,-229.2 191,-208.5 191,-208.5 191,-208.5 320,-84.5 320,-84.5 320,-84.5 328.44,-72.9 337.14,-60.93"/>
<polygon fill="black" stroke="black" points="340.36,-63.46 343.41,-53.31 334.7,-59.34 340.36,-63.46"/>
</g>
<!-- NASALib/sigma_set -->
<g id="node8" class="node">
<title>NASALib/sigma_set</title>
<polygon fill="#fcfcd7" stroke="black" points="311.38,-52 240.62,-52 240.62,-16 311.38,-16 311.38,-52"/>
<text text-anchor="middle" x="276" y="-28.95" font-family="Times,serif" font-size="14.00">sigma_set</text>
</g>
<!-- NASALib/extended_nnreal@double_nn_sequence&#45;&gt;NASALib/sigma_set -->
<g id="edge6" class="edge">
<title>NASALib/extended_nnreal@double_nn_sequence&#45;&gt;NASALib/sigma_set</title>
<path fill="none" stroke="black" d="M137.52,-244.44C149.8,-228.95 166,-208.5 166,-208.5 166,-208.5 228.6,-109.76 259.35,-61.26"/>
<polygon fill="black" stroke="black" points="262.65,-63.59 265.05,-53.27 256.74,-59.84 262.65,-63.59"/>
</g>
<!-- NASALib/extended_nnreal@extended_nnreal -->
<g id="node5" class="node">
<title>NASALib/extended_nnreal@extended_nnreal</title>
<ellipse fill="#e6f3ff" stroke="black" cx="124" cy="-334.5" rx="71.82" ry="18"/>
<text text-anchor="middle" x="124" y="-329.45" font-family="Times,serif" font-size="14.00">extended_nnreal</text>
</g>
<!-- NASALib/extended_nnreal@extended_nnreal&#45;&gt;NASALib/analysis -->
<g id="edge7" class="edge">
<title>NASALib/extended_nnreal@extended_nnreal&#45;&gt;NASALib/analysis</title>
<path fill="none" stroke="black" d="M280,-261.5C280,-261.5 226.65,-122.61 203.51,-62.35"/>
<polygon fill="black" stroke="black" points="206.54,-61.48 199.68,-53.4 200,-63.99 206.54,-61.48"/>
</g>
<!-- NASALib/extended_nnreal@extended_nnreal&#45;&gt;NASALib/extended_nnreal@double_index -->
<g id="edge8" class="edge">
<title>NASALib/extended_nnreal@extended_nnreal&#45;&gt;NASALib/extended_nnreal@double_index</title>
<path fill="none" stroke="black" d="M94.9,-317.6C66.32,-301.99 27,-280.5 27,-280.5 27,-280.5 27,-244.5 27,-244.5 27,-244.5 40.65,-230.03 53.68,-216.22"/>
<polygon fill="black" stroke="black" points="55.86,-218.95 60.18,-209.27 50.77,-214.14 55.86,-218.95"/>
</g>
<!-- NASALib/extended_nnreal@extended_nnreal&#45;&gt;NASALib/extended_nnreal@double_nn_sequence -->
<g id="edge9" class="edge">
<title>NASALib/extended_nnreal@extended_nnreal&#45;&gt;NASALib/extended_nnreal@double_nn_sequence</title>
<path fill="none" stroke="black" d="M124,-316.2C124,-308.74 124,-299.82 124,-291.47"/>
<polygon fill="black" stroke="black" points="127.5,-291.6 124,-281.6 120.5,-291.6 127.5,-291.6"/>
</g>
<!-- NASALib/extended_nnreal@extended_nnreal&#45;&gt;NASALib/reals -->
<g id="edge10" class="edge">
<title>NASALib/extended_nnreal@extended_nnreal&#45;&gt;NASALib/reals</title>
<path fill="none" stroke="black" d="M280,-261.5C280,-261.5 179.43,-120.88 136.77,-61.24"/>
<polygon fill="black" stroke="black" points="139.11,-59.49 130.44,-53.4 133.41,-63.57 139.11,-59.49"/>
<path fill="none" stroke="black" d="M157.85,-318.31C203.73,-297.72 280,-263.5 280,-263.5"/>
</g>
<!-- NASALib/extended_nnreal@extended_nnreal&#45;&gt;NASALib/series -->
<g id="edge11" class="edge">
<title>NASALib/extended_nnreal@extended_nnreal&#45;&gt;NASALib/series</title>
<path fill="none" stroke="black" d="M356,-117.5C356,-117.5 356,-87.1 356,-63.21"/>
<polygon fill="black" stroke="black" points="359.5,-63.5 356,-53.5 352.5,-63.5 359.5,-63.5"/>
</g>
<!-- NASALib/extended_nnreal@extended_nnreal&#45;&gt;NASALib/sigma_set -->
<g id="edge12" class="edge">
<title>NASALib/extended_nnreal@extended_nnreal&#45;&gt;NASALib/sigma_set</title>
<path fill="none" stroke="black" d="M280,-261.5C280,-261.5 356,-119.5 356,-119.5"/>
<path fill="none" stroke="black" d="M356,-117.5C356,-117.5 320,-84.5 320,-84.5 320,-84.5 309.29,-72.45 298.43,-60.23"/>
<polygon fill="black" stroke="black" points="301.65,-58.46 292.39,-53.31 296.42,-63.11 301.65,-58.46"/>
</g>
</g>
</svg>
