<?xml version="1.0" encoding="UTF-8" standalone="no"?>
<!DOCTYPE svg PUBLIC "-//W3C//DTD SVG 1.1//EN"
 "http://www.w3.org/Graphics/SVG/1.1/DTD/svg11.dtd">
<!-- Generated by graphviz version 7.0.6 (20230106.0513)
 -->
<!-- Title: extended_nnreal&#45;zoomed Pages: 1 -->
<svg width="401pt" height="398pt"
 viewBox="0.00 0.00 401.00 398.00" xmlns="http://www.w3.org/2000/svg" xmlns:xlink="http://www.w3.org/1999/xlink">
<g id="graph0" class="graph" transform="scale(1 1) rotate(0) translate(4 394)">
<title>extended_nnreal&#45;zoomed</title>
<polygon fill="white" stroke="none" points="-4,4 -4,-394 397,-394 397,4 -4,4"/>
<g id="clust1" class="cluster">
<title>cluster_NASALib</title>
<polygon fill="none" stroke="black" points="75,-8 75,-83 385,-83 385,-8 75,-8"/>
<text text-anchor="middle" x="230" y="-67.8" font-family="Times,serif" font-size="14.00">NASALib</text>
</g>
<g id="clust2" class="cluster">
<title>cluster_NASALib/extended_nnreal</title>
<polygon fill="none" stroke="black" points="8,-91 8,-382 212,-382 212,-91 8,-91"/>
<text text-anchor="middle" x="110" y="-366.8" font-family="Times,serif" font-size="14.00">NASALib/extended_nnreal</text>
</g>
<!-- NASALib/analysis -->
<g id="node1" class="node">
<title>NASALib/analysis</title>
<polygon fill="#fcfcd7" stroke="black" points="215,-52 155,-52 155,-16 215,-16 215,-52"/>
<text text-anchor="middle" x="185" y="-30.3" font-family="Times,serif" font-size="14.00">analysis</text>
</g>
<!-- NASALib/extended_nnreal@code_product -->
<g id="node2" class="node">
<title>NASALib/extended_nnreal@code_product</title>
<ellipse fill="#e6f3ff" stroke="black" cx="74" cy="-117" rx="58.49" ry="18"/>
<text text-anchor="middle" x="74" y="-113.3" font-family="Times,serif" font-size="14.00">code_product</text>
</g>
<!-- NASALib/reals -->
<g id="node6" class="node">
<title>NASALib/reals</title>
<polygon fill="#fcfcd7" stroke="black" points="137,-52 83,-52 83,-16 137,-16 137,-52"/>
<text text-anchor="middle" x="110" y="-30.3" font-family="Times,serif" font-size="14.00">reals</text>
</g>
<!-- NASALib/extended_nnreal@code_product&#45;&gt;NASALib/reals -->
<g id="edge1" class="edge">
<title>NASALib/extended_nnreal@code_product&#45;&gt;NASALib/reals</title>
<path fill="none" stroke="black" d="M81.63,-98.82C86.28,-88.37 92.32,-74.77 97.64,-62.81"/>
<polygon fill="black" stroke="black" points="100.77,-64.38 101.64,-53.82 94.38,-61.53 100.77,-64.38"/>
</g>
<!-- NASALib/extended_nnreal@double_index -->
<g id="node3" class="node">
<title>NASALib/extended_nnreal@double_index</title>
<ellipse fill="#e6f3ff" stroke="black" cx="74" cy="-189" rx="58.49" ry="18"/>
<text text-anchor="middle" x="74" y="-185.3" font-family="Times,serif" font-size="14.00">double_index</text>
</g>
<!-- NASALib/extended_nnreal@double_index&#45;&gt;NASALib/extended_nnreal@code_product -->
<g id="edge2" class="edge">
<title>NASALib/extended_nnreal@double_index&#45;&gt;NASALib/extended_nnreal@code_product</title>
<path fill="none" stroke="black" d="M74,-170.7C74,-163.41 74,-154.73 74,-146.54"/>
<polygon fill="black" stroke="black" points="77.5,-146.62 74,-136.62 70.5,-146.62 77.5,-146.62"/>
</g>
<!-- NASALib/extended_nnreal@double_nn_sequence -->
<g id="node4" class="node">
<title>NASALib/extended_nnreal@double_nn_sequence</title>
<ellipse fill="#e6f3ff" stroke="black" cx="120" cy="-261" rx="84.49" ry="18"/>
<text text-anchor="middle" x="120" y="-257.3" font-family="Times,serif" font-size="14.00">double_nn_sequence</text>
</g>
<!-- NASALib/extended_nnreal@double_nn_sequence&#45;&gt;NASALib/analysis -->
<g id="edge3" class="edge">
<title>NASALib/extended_nnreal@double_nn_sequence&#45;&gt;NASALib/analysis</title>
<path fill="none" stroke="black" d="M126.88,-242.65C133,-227.19 141,-207 141,-207 141,-207 165.2,-112.41 177.7,-63.52"/>
<polygon fill="black" stroke="black" points="181.08,-64.46 180.16,-53.91 174.29,-62.73 181.08,-64.46"/>
</g>
<!-- NASALib/extended_nnreal@double_nn_sequence&#45;&gt;NASALib/extended_nnreal@double_index -->
<g id="edge4" class="edge">
<title>NASALib/extended_nnreal@double_nn_sequence&#45;&gt;NASALib/extended_nnreal@double_index</title>
<path fill="none" stroke="black" d="M108.63,-242.7C103.45,-234.81 97.2,-225.3 91.44,-216.55"/>
<polygon fill="black" stroke="black" points="94.49,-214.8 86.07,-208.37 88.64,-218.65 94.49,-214.8"/>
</g>
<!-- NASALib/series -->
<g id="node7" class="node">
<title>NASALib/series</title>
<polygon fill="#fcfcd7" stroke="black" points="377,-52 323,-52 323,-16 377,-16 377,-52"/>
<text text-anchor="middle" x="350" y="-30.3" font-family="Times,serif" font-size="14.00">series</text>
</g>
<!-- NASALib/extended_nnreal@double_nn_sequence&#45;&gt;NASALib/series -->
<g id="edge5" class="edge">
<title>NASALib/extended_nnreal@double_nn_sequence&#45;&gt;NASALib/series</title>
<path fill="none" stroke="black" d="M140.57,-243.23C159.61,-227.7 185,-207 185,-207 185,-207 313,-83 313,-83 313,-83 321.12,-72.46 329.75,-61.26"/>
<polygon fill="black" stroke="black" points="332.39,-63.58 335.72,-53.53 326.84,-59.31 332.39,-63.58"/>
</g>
<!-- NASALib/sigma_set -->
<g id="node8" class="node">
<title>NASALib/sigma_set</title>
<polygon fill="#fcfcd7" stroke="black" points="304.5,-52 233.5,-52 233.5,-16 304.5,-16 304.5,-52"/>
<text text-anchor="middle" x="269" y="-30.3" font-family="Times,serif" font-size="14.00">sigma_set</text>
</g>
<!-- NASALib/extended_nnreal@double_nn_sequence&#45;&gt;NASALib/sigma_set -->
<g id="edge6" class="edge">
<title>NASALib/extended_nnreal@double_nn_sequence&#45;&gt;NASALib/sigma_set</title>
<path fill="none" stroke="black" d="M132.88,-242.94C144.57,-227.45 160,-207 160,-207 160,-207 221.22,-110.4 251.9,-61.99"/>
<polygon fill="black" stroke="black" points="254.74,-64.04 257.14,-53.72 248.83,-60.29 254.74,-64.04"/>
</g>
<!-- NASALib/extended_nnreal@extended_nnreal -->
<g id="node5" class="node">
<title>NASALib/extended_nnreal@extended_nnreal</title>
<ellipse fill="#e6f3ff" stroke="black" cx="120" cy="-333" rx="68.79" ry="18"/>
<text text-anchor="middle" x="120" y="-329.3" font-family="Times,serif" font-size="14.00">extended_nnreal</text>
</g>
<!-- NASALib/extended_nnreal@extended_nnreal&#45;&gt;NASALib/analysis -->
<g id="edge7" class="edge">
<title>NASALib/extended_nnreal@extended_nnreal&#45;&gt;NASALib/analysis</title>
<path fill="none" stroke="black" d="M274,-260C274,-260 219.88,-123.17 196.04,-62.92"/>
<polygon fill="black" stroke="black" points="199.33,-61.7 192.39,-53.69 192.82,-64.28 199.33,-61.7"/>
</g>
<!-- NASALib/extended_nnreal@extended_nnreal&#45;&gt;NASALib/extended_nnreal@double_index -->
<g id="edge8" class="edge">
<title>NASALib/extended_nnreal@extended_nnreal&#45;&gt;NASALib/extended_nnreal@double_index</title>
<path fill="none" stroke="black" d="M92.1,-316.1C64.7,-300.49 27,-279 27,-279 27,-279 27,-243 27,-243 27,-243 39.59,-228.8 51.74,-215.1"/>
<polygon fill="black" stroke="black" points="54.11,-217.71 58.12,-207.9 48.87,-213.06 54.11,-217.71"/>
</g>
<!-- NASALib/extended_nnreal@extended_nnreal&#45;&gt;NASALib/extended_nnreal@double_nn_sequence -->
<g id="edge9" class="edge">
<title>NASALib/extended_nnreal@extended_nnreal&#45;&gt;NASALib/extended_nnreal@double_nn_sequence</title>
<path fill="none" stroke="black" d="M120,-314.7C120,-307.41 120,-298.73 120,-290.54"/>
<polygon fill="black" stroke="black" points="123.5,-290.62 120,-280.62 116.5,-290.62 123.5,-290.62"/>
</g>
<!-- NASALib/extended_nnreal@extended_nnreal&#45;&gt;NASALib/reals -->
<g id="edge10" class="edge">
<title>NASALib/extended_nnreal@extended_nnreal&#45;&gt;NASALib/reals</title>
<path fill="none" stroke="black" d="M274,-260C274,-260 172.6,-120.89 129.27,-61.43"/>
<polygon fill="black" stroke="black" points="132.21,-59.52 123.49,-53.5 126.55,-63.65 132.21,-59.52"/>
<path fill="none" stroke="black" d="M153.42,-316.81C198.71,-296.22 274,-262 274,-262"/>
</g>
<!-- NASALib/extended_nnreal@extended_nnreal&#45;&gt;NASALib/series -->
<g id="edge11" class="edge">
<title>NASALib/extended_nnreal@extended_nnreal&#45;&gt;NASALib/series</title>
<path fill="none" stroke="black" d="M350,-116C350,-116 350,-86.96 350,-63.66"/>
<polygon fill="black" stroke="black" points="353.5,-63.69 350,-53.69 346.5,-63.69 353.5,-63.69"/>
</g>
<!-- NASALib/extended_nnreal@extended_nnreal&#45;&gt;NASALib/sigma_set -->
<g id="edge12" class="edge">
<title>NASALib/extended_nnreal@extended_nnreal&#45;&gt;NASALib/sigma_set</title>
<path fill="none" stroke="black" d="M274,-260C274,-260 350,-118 350,-118"/>
<path fill="none" stroke="black" d="M350,-116C350,-116 314,-83 314,-83 314,-83 303.73,-72.04 293,-60.6"/>
<polygon fill="black" stroke="black" points="295.67,-58.33 286.28,-53.43 290.57,-63.12 295.67,-58.33"/>
</g>
</g>
</svg>
