<?xml version="1.0" encoding="UTF-8" standalone="no"?>
<!DOCTYPE svg PUBLIC "-//W3C//DTD SVG 1.1//EN"
 "http://www.w3.org/Graphics/SVG/1.1/DTD/svg11.dtd">
<!-- Generated by graphviz version 2.44.1 (20200629.0846)
 -->
<!-- Title: extended_nnreal&#45;zoomed Pages: 1 -->
<svg width="403pt" height="398pt"
 viewBox="0.00 0.00 403.49 398.00" xmlns="http://www.w3.org/2000/svg" xmlns:xlink="http://www.w3.org/1999/xlink">
<g id="graph0" class="graph" transform="scale(1 1) rotate(0) translate(4 394)">
<title>extended_nnreal&#45;zoomed</title>
<polygon fill="white" stroke="transparent" points="-4,4 -4,-394 399.49,-394 399.49,4 -4,4"/>
<g id="clust1" class="cluster">
<title>cluster_NASALib</title>
<polygon fill="none" stroke="black" points="77.49,-8 77.49,-83 387.49,-83 387.49,-8 77.49,-8"/>
<text text-anchor="middle" x="232.49" y="-67.8" font-family="Times,serif" font-size="14.00">NASALib</text>
</g>
<g id="clust2" class="cluster">
<title>cluster_NASALib/extended_nnreal</title>
<polygon fill="none" stroke="black" points="10.49,-91 10.49,-382 214.49,-382 214.49,-91 10.49,-91"/>
<text text-anchor="middle" x="112.49" y="-366.8" font-family="Times,serif" font-size="14.00">NASALib/extended_nnreal</text>
</g>
<!-- nasalib/analysis -->
<g id="node1" class="node">
<title>nasalib/analysis</title>
<polygon fill="#fcfcd7" stroke="black" points="217.49,-52 157.49,-52 157.49,-16 217.49,-16 217.49,-52"/>
<text text-anchor="middle" x="187.49" y="-30.3" font-family="Times,serif" font-size="14.00">analysis</text>
</g>
<!-- nasalib/extended_nnreal@code_product -->
<g id="node2" class="node">
<title>nasalib/extended_nnreal@code_product</title>
<ellipse fill="#e6f3ff" stroke="black" cx="76.49" cy="-117" rx="58.49" ry="18"/>
<text text-anchor="middle" x="76.49" y="-113.3" font-family="Times,serif" font-size="14.00">code_product</text>
</g>
<!-- nasalib/reals -->
<g id="node6" class="node">
<title>nasalib/reals</title>
<polygon fill="#fcfcd7" stroke="black" points="139.49,-52 85.49,-52 85.49,-16 139.49,-16 139.49,-52"/>
<text text-anchor="middle" x="112.49" y="-30.3" font-family="Times,serif" font-size="14.00">reals</text>
</g>
<!-- nasalib/extended_nnreal@code_product&#45;&gt;nasalib/reals -->
<g id="edge1" class="edge">
<title>nasalib/extended_nnreal@code_product&#45;&gt;nasalib/reals</title>
<path fill="none" stroke="black" d="M110.24,-102.16C110.24,-102.16 110.24,-62.19 110.24,-62.19"/>
<polygon fill="black" stroke="black" points="113.74,-62.19 110.24,-52.19 106.74,-62.19 113.74,-62.19"/>
</g>
<!-- nasalib/extended_nnreal@double_index -->
<g id="node3" class="node">
<title>nasalib/extended_nnreal@double_index</title>
<ellipse fill="#e6f3ff" stroke="black" cx="76.49" cy="-189" rx="58.49" ry="18"/>
<text text-anchor="middle" x="76.49" y="-185.3" font-family="Times,serif" font-size="14.00">double_index</text>
</g>
<!-- nasalib/extended_nnreal@double_index&#45;&gt;nasalib/extended_nnreal@code_product -->
<g id="edge2" class="edge">
<title>nasalib/extended_nnreal@double_index&#45;&gt;nasalib/extended_nnreal@code_product</title>
<path fill="none" stroke="black" d="M76.49,-170.83C76.49,-170.83 76.49,-145.41 76.49,-145.41"/>
<polygon fill="black" stroke="black" points="79.99,-145.41 76.49,-135.41 72.99,-145.41 79.99,-145.41"/>
</g>
<!-- nasalib/extended_nnreal@double_nn_sequence -->
<g id="node4" class="node">
<title>nasalib/extended_nnreal@double_nn_sequence</title>
<ellipse fill="#e6f3ff" stroke="black" cx="122.49" cy="-261" rx="84.49" ry="18"/>
<text text-anchor="middle" x="122.49" y="-257.3" font-family="Times,serif" font-size="14.00">double_nn_sequence</text>
</g>
<!-- nasalib/extended_nnreal@double_nn_sequence&#45;&gt;nasalib/analysis -->
<g id="edge3" class="edge">
<title>nasalib/extended_nnreal@double_nn_sequence&#45;&gt;nasalib/analysis</title>
<path fill="none" stroke="black" d="M182.24,-248.15C182.24,-248.15 182.24,-62.18 182.24,-62.18"/>
<polygon fill="black" stroke="black" points="185.74,-62.18 182.24,-52.18 178.74,-62.18 185.74,-62.18"/>
</g>
<!-- nasalib/extended_nnreal@double_nn_sequence&#45;&gt;nasalib/extended_nnreal@double_index -->
<g id="edge4" class="edge">
<title>nasalib/extended_nnreal@double_nn_sequence&#45;&gt;nasalib/extended_nnreal@double_index</title>
<path fill="none" stroke="black" d="M86.5,-244.66C86.5,-244.66 86.5,-216.79 86.5,-216.79"/>
<polygon fill="black" stroke="black" points="90,-216.79 86.5,-206.79 83,-216.79 90,-216.79"/>
</g>
<!-- nasalib/series -->
<g id="node7" class="node">
<title>nasalib/series</title>
<polygon fill="#fcfcd7" stroke="black" points="379.49,-52 325.49,-52 325.49,-16 379.49,-16 379.49,-52"/>
<text text-anchor="middle" x="352.49" y="-30.3" font-family="Times,serif" font-size="14.00">series</text>
</g>
<!-- nasalib/extended_nnreal@double_nn_sequence&#45;&gt;nasalib/series -->
<g id="edge5" class="edge">
<title>nasalib/extended_nnreal@double_nn_sequence&#45;&gt;nasalib/series</title>
<path fill="none" stroke="black" d="M202.28,-267C265.58,-267 343.49,-267 343.49,-267 343.49,-267 343.49,-62.28 343.49,-62.28"/>
<polygon fill="black" stroke="black" points="346.99,-62.28 343.49,-52.28 339.99,-62.28 346.99,-62.28"/>
</g>
<!-- nasalib/sigma_set -->
<g id="node8" class="node">
<title>nasalib/sigma_set</title>
<polygon fill="#fcfcd7" stroke="black" points="306.99,-52 235.99,-52 235.99,-16 306.99,-16 306.99,-52"/>
<text text-anchor="middle" x="271.49" y="-30.3" font-family="Times,serif" font-size="14.00">sigma_set</text>
</g>
<!-- nasalib/extended_nnreal@double_nn_sequence&#45;&gt;nasalib/sigma_set -->
<g id="edge6" class="edge">
<title>nasalib/extended_nnreal@double_nn_sequence&#45;&gt;nasalib/sigma_set</title>
<path fill="none" stroke="black" d="M202.29,-255C232.46,-255 259.66,-255 259.66,-255 259.66,-255 259.66,-62.09 259.66,-62.09"/>
<polygon fill="black" stroke="black" points="263.16,-62.09 259.66,-52.09 256.16,-62.09 263.16,-62.09"/>
</g>
<!-- nasalib/extended_nnreal@extended_nnreal -->
<g id="node5" class="node">
<title>nasalib/extended_nnreal@extended_nnreal</title>
<ellipse fill="#e6f3ff" stroke="black" cx="122.49" cy="-333" rx="68.79" ry="18"/>
<text text-anchor="middle" x="122.49" y="-329.3" font-family="Times,serif" font-size="14.00">extended_nnreal</text>
</g>
<!-- nasalib/extended_nnreal@extended_nnreal&#45;&gt;nasalib/analysis -->
<g id="edge7" class="edge">
<title>nasalib/extended_nnreal@extended_nnreal&#45;&gt;nasalib/analysis</title>
<path fill="none" stroke="black" d="M182.36,-324C198.82,-324 212.24,-324 212.24,-324 212.24,-324 212.24,-62.14 212.24,-62.14"/>
<polygon fill="black" stroke="black" points="215.74,-62.14 212.24,-52.14 208.74,-62.14 215.74,-62.14"/>
</g>
<!-- nasalib/extended_nnreal@extended_nnreal&#45;&gt;nasalib/extended_nnreal@double_index -->
<g id="edge8" class="edge">
<title>nasalib/extended_nnreal@extended_nnreal&#45;&gt;nasalib/extended_nnreal@double_index</title>
<path fill="none" stroke="black" d="M57.38,-327C41.01,-327 28,-327 28,-327 28,-327 28,-209.37 28,-209.37"/>
<polygon fill="black" stroke="black" points="31.5,-209.37 28,-199.37 24.5,-209.37 31.5,-209.37"/>
</g>
<!-- nasalib/extended_nnreal@extended_nnreal&#45;&gt;nasalib/extended_nnreal@double_nn_sequence -->
<g id="edge9" class="edge">
<title>nasalib/extended_nnreal@extended_nnreal&#45;&gt;nasalib/extended_nnreal@double_nn_sequence</title>
<path fill="none" stroke="black" d="M122.49,-314.83C122.49,-314.83 122.49,-289.41 122.49,-289.41"/>
<polygon fill="black" stroke="black" points="125.99,-289.41 122.49,-279.41 118.99,-289.41 125.99,-289.41"/>
</g>
<!-- nasalib/extended_nnreal@extended_nnreal&#45;&gt;nasalib/reals -->
<g id="edge10" class="edge">
<title>nasalib/extended_nnreal@extended_nnreal&#45;&gt;nasalib/reals</title>
<path fill="none" stroke="black" d="M57.3,-339C28.05,-339 0,-339 0,-339 0,-339 0,-34 0,-34 0,-34 75.26,-34 75.26,-34"/>
<polygon fill="black" stroke="black" points="75.26,-37.5 85.26,-34 75.26,-30.5 75.26,-37.5"/>
</g>
<!-- nasalib/extended_nnreal@extended_nnreal&#45;&gt;nasalib/series -->
<g id="edge11" class="edge">
<title>nasalib/extended_nnreal@extended_nnreal&#45;&gt;nasalib/series</title>
<path fill="none" stroke="black" d="M182.19,-342C252.98,-342 361.49,-342 361.49,-342 361.49,-342 361.49,-62.34 361.49,-62.34"/>
<polygon fill="black" stroke="black" points="364.99,-62.34 361.49,-52.34 357.99,-62.34 364.99,-62.34"/>
</g>
<!-- nasalib/extended_nnreal@extended_nnreal&#45;&gt;nasalib/sigma_set -->
<g id="edge12" class="edge">
<title>nasalib/extended_nnreal@extended_nnreal&#45;&gt;nasalib/sigma_set</title>
<path fill="none" stroke="black" d="M191.64,-333C235.23,-333 283.33,-333 283.33,-333 283.33,-333 283.33,-62.25 283.33,-62.25"/>
<polygon fill="black" stroke="black" points="286.83,-62.25 283.33,-52.25 279.83,-62.25 286.83,-62.25"/>
</g>
</g>
</svg>
