<?xml version="1.0" encoding="UTF-8" standalone="no"?>
<!DOCTYPE svg PUBLIC "-//W3C//DTD SVG 1.1//EN"
 "http://www.w3.org/Graphics/SVG/1.1/DTD/svg11.dtd">
<!-- Generated by graphviz version 5.0.0 (20220707.1540)
 -->
<!-- Title: dL&#45;zoomed Pages: 1 -->
<svg width="1921pt" height="748pt"
 viewBox="0.00 0.00 1920.98 748.00" xmlns="http://www.w3.org/2000/svg" xmlns:xlink="http://www.w3.org/1999/xlink">
<g id="graph0" class="graph" transform="scale(1 1) rotate(0) translate(4 744)">
<title>dL&#45;zoomed</title>
<polygon fill="white" stroke="transparent" points="-4,4 -4,-744 1916.98,-744 1916.98,4 -4,4"/>
<g id="clust1" class="cluster">
<title>cluster_NASALib</title>
<polygon fill="none" stroke="black" points="1697.78,-8 1697.78,-407 1798.78,-407 1798.78,-8 1697.78,-8"/>
<text text-anchor="middle" x="1748.28" y="-391.8" font-family="Times,serif" font-size="14.00">NASALib</text>
</g>
<g id="clust2" class="cluster">
<title>cluster_NASALib/dL</title>
<polygon fill="none" stroke="black" points="8,-415 8,-732 1904.98,-732 1904.98,-415 8,-415"/>
<text text-anchor="middle" x="956.49" y="-716.8" font-family="Times,serif" font-size="14.00">NASALib/dL</text>
</g>
<!-- pvslib&#45;gitlab__master_/ODEs -->
<g id="node1" class="node">
<title>pvslib&#45;gitlab__master_/ODEs</title>
<polygon fill="#fcfcd7" stroke="black" points="1775.28,-322 1721.28,-322 1721.28,-286 1775.28,-286 1775.28,-322"/>
<text text-anchor="middle" x="1748.28" y="-300.3" font-family="Times,serif" font-size="14.00">ODEs</text>
</g>
<!-- pvslib&#45;gitlab__master_/analysis -->
<g id="node2" class="node">
<title>pvslib&#45;gitlab__master_/analysis</title>
<polygon fill="#fcfcd7" stroke="black" points="1778.28,-214 1718.28,-214 1718.28,-178 1778.28,-178 1778.28,-214"/>
<text text-anchor="middle" x="1748.28" y="-192.3" font-family="Times,serif" font-size="14.00">analysis</text>
</g>
<!-- pvslib&#45;gitlab__master_/dL@HP -->
<g id="node3" class="node">
<title>pvslib&#45;gitlab__master_/dL@HP</title>
<ellipse fill="#e6f3ff" stroke="black" cx="1748.28" cy="-481" rx="27" ry="18"/>
<text text-anchor="middle" x="1748.28" y="-477.3" font-family="Times,serif" font-size="14.00">HP</text>
</g>
<!-- pvslib&#45;gitlab__master_/dL@hp_def -->
<g id="node18" class="node">
<title>pvslib&#45;gitlab__master_/dL@hp_def</title>
<ellipse fill="#e6f3ff" stroke="black" cx="1861.88" cy="-481" rx="35.19" ry="18"/>
<text text-anchor="middle" x="1861.88" y="-477.3" font-family="Times,serif" font-size="14.00">hp_def</text>
</g>
<!-- pvslib&#45;gitlab__master_/dL@HP&#45;&gt;pvslib&#45;gitlab__master_/dL@hp_def -->
<g id="edge1" class="edge">
<title>pvslib&#45;gitlab__master_/dL@HP&#45;&gt;pvslib&#45;gitlab__master_/dL@hp_def</title>
<path fill="none" stroke="black" d="M1775.45,-481C1787.56,-481 1802.3,-481 1816.11,-481"/>
<polygon fill="black" stroke="black" points="1816.42,-484.5 1826.42,-481 1816.42,-477.5 1816.42,-484.5"/>
</g>
<!-- pvslib&#45;gitlab__master_/dL@NQBool -->
<g id="node4" class="node">
<title>pvslib&#45;gitlab__master_/dL@NQBool</title>
<ellipse fill="#e6f3ff" stroke="black" cx="1748.28" cy="-535" rx="40.09" ry="18"/>
<text text-anchor="middle" x="1748.28" y="-531.3" font-family="Times,serif" font-size="14.00">NQBool</text>
</g>
<!-- pvslib&#45;gitlab__master_/dL@NQBool&#45;&gt;pvslib&#45;gitlab__master_/dL@hp_def -->
<g id="edge2" class="edge">
<title>pvslib&#45;gitlab__master_/dL@NQBool&#45;&gt;pvslib&#45;gitlab__master_/dL@hp_def</title>
<path fill="none" stroke="black" d="M1776.3,-521.93C1791.4,-514.62 1810.37,-505.44 1826.51,-497.63"/>
<polygon fill="black" stroke="black" points="1828.17,-500.72 1835.64,-493.21 1825.12,-494.42 1828.17,-500.72"/>
</g>
<!-- pvslib&#45;gitlab__master_/dL@ODEs_equiv -->
<g id="node5" class="node">
<title>pvslib&#45;gitlab__master_/dL@ODEs_equiv</title>
<ellipse fill="#e6f3ff" stroke="black" cx="934.33" cy="-478" rx="55.79" ry="18"/>
<text text-anchor="middle" x="934.33" y="-474.3" font-family="Times,serif" font-size="14.00">ODEs_equiv</text>
</g>
<!-- pvslib&#45;gitlab__master_/dL@ODEs_equiv&#45;&gt;pvslib&#45;gitlab__master_/ODEs -->
<g id="edge3" class="edge">
<title>pvslib&#45;gitlab__master_/dL@ODEs_equiv&#45;&gt;pvslib&#45;gitlab__master_/ODEs</title>
<path fill="none" stroke="black" d="M1631.14,-354C1631.14,-354 1677.79,-333.92 1711.96,-319.21"/>
<polygon fill="black" stroke="black" points="1713.42,-322.39 1721.22,-315.22 1710.65,-315.96 1713.42,-322.39"/>
</g>
<!-- pvslib&#45;gitlab__master_/dL@ODEs_equiv&#45;&gt;pvslib&#45;gitlab__master_/analysis -->
<g id="edge4" class="edge">
<title>pvslib&#45;gitlab__master_/dL@ODEs_equiv&#45;&gt;pvslib&#45;gitlab__master_/analysis</title>
<path fill="none" stroke="black" d="M983.57,-469.38C1140.91,-441.26 1629.14,-354 1629.14,-354"/>
<path fill="none" stroke="black" d="M1631.14,-354C1631.14,-354 1669.78,-330 1669.78,-330 1669.78,-330 1697.78,-223 1697.78,-223 1697.78,-223 1702.55,-220.4 1709.13,-216.81"/>
<polygon fill="black" stroke="black" points="1711.1,-219.72 1718.2,-211.86 1707.75,-213.58 1711.1,-219.72"/>
</g>
<!-- pvslib&#45;gitlab__master_/dL@hp_expr -->
<g id="node19" class="node">
<title>pvslib&#45;gitlab__master_/dL@hp_expr</title>
<ellipse fill="#e6f3ff" stroke="black" cx="1630.14" cy="-481" rx="39.79" ry="18"/>
<text text-anchor="middle" x="1630.14" y="-477.3" font-family="Times,serif" font-size="14.00">hp_expr</text>
</g>
<!-- pvslib&#45;gitlab__master_/dL@ODEs_equiv&#45;&gt;pvslib&#45;gitlab__master_/dL@hp_expr -->
<g id="edge5" class="edge">
<title>pvslib&#45;gitlab__master_/dL@ODEs_equiv&#45;&gt;pvslib&#45;gitlab__master_/dL@hp_expr</title>
<path fill="none" stroke="black" d="M1509.34,-481C1509.34,-481 1547.06,-481 1580.16,-481"/>
<polygon fill="black" stroke="black" points="1580.24,-484.5 1590.24,-481 1580.24,-477.5 1580.24,-484.5"/>
<path fill="none" stroke="black" d="M990.44,-478.29C1133.8,-479.04 1507.34,-481 1507.34,-481"/>
</g>
<!-- pvslib&#45;gitlab__master_/dL@bool_expr -->
<g id="node6" class="node">
<title>pvslib&#45;gitlab__master_/dL@bool_expr</title>
<ellipse fill="#e6f3ff" stroke="black" cx="1508.34" cy="-535" rx="46.29" ry="18"/>
<text text-anchor="middle" x="1508.34" y="-531.3" font-family="Times,serif" font-size="14.00">bool_expr</text>
</g>
<!-- pvslib&#45;gitlab__master_/dL@bool_expr&#45;&gt;pvslib&#45;gitlab__master_/dL@NQBool -->
<g id="edge6" class="edge">
<title>pvslib&#45;gitlab__master_/dL@bool_expr&#45;&gt;pvslib&#45;gitlab__master_/dL@NQBool</title>
<path fill="none" stroke="black" d="M1554.66,-535C1595.51,-535 1655.48,-535 1697.62,-535"/>
<polygon fill="black" stroke="black" points="1697.67,-538.5 1707.67,-535 1697.67,-531.5 1697.67,-538.5"/>
</g>
<!-- pvslib&#45;gitlab__master_/dL@bool_expr&#45;&gt;pvslib&#45;gitlab__master_/dL@hp_expr -->
<g id="edge7" class="edge">
<title>pvslib&#45;gitlab__master_/dL@bool_expr&#45;&gt;pvslib&#45;gitlab__master_/dL@hp_expr</title>
<path fill="none" stroke="black" d="M1539.26,-521.51C1555.14,-514.36 1574.79,-505.5 1591.67,-497.89"/>
<polygon fill="black" stroke="black" points="1593.56,-500.88 1601.24,-493.57 1590.68,-494.49 1593.56,-500.88"/>
</g>
<!-- pvslib&#45;gitlab__master_/dL@bound_variables_def -->
<g id="node7" class="node">
<title>pvslib&#45;gitlab__master_/dL@bound_variables_def</title>
<ellipse fill="#e6f3ff" stroke="black" cx="1110.72" cy="-646" rx="84.49" ry="18"/>
<text text-anchor="middle" x="1110.72" y="-642.3" font-family="Times,serif" font-size="14.00">bound_variables_def</text>
</g>
<!-- pvslib&#45;gitlab__master_/dL@bounded_star_semantics -->
<g id="node8" class="node">
<title>pvslib&#45;gitlab__master_/dL@bounded_star_semantics</title>
<ellipse fill="#e6f3ff" stroke="black" cx="1328.71" cy="-518" rx="97.48" ry="18"/>
<text text-anchor="middle" x="1328.71" y="-514.3" font-family="Times,serif" font-size="14.00">bounded_star_semantics</text>
</g>
<!-- pvslib&#45;gitlab__master_/dL@bound_variables_def&#45;&gt;pvslib&#45;gitlab__master_/dL@bounded_star_semantics -->
<g id="edge8" class="edge">
<title>pvslib&#45;gitlab__master_/dL@bound_variables_def&#45;&gt;pvslib&#45;gitlab__master_/dL@bounded_star_semantics</title>
<path fill="none" stroke="black" d="M1132.54,-628.41C1166.77,-599.47 1231.21,-545 1231.21,-545 1231.21,-545 1246.21,-540.8 1264.37,-535.72"/>
<polygon fill="black" stroke="black" points="1265.41,-539.07 1274.1,-533 1263.53,-532.32 1265.41,-539.07"/>
</g>
<!-- pvslib&#45;gitlab__master_/dL@bounded_star_semantics&#45;&gt;pvslib&#45;gitlab__master_/dL@bool_expr -->
<g id="edge9" class="edge">
<title>pvslib&#45;gitlab__master_/dL@bounded_star_semantics&#45;&gt;pvslib&#45;gitlab__master_/dL@bool_expr</title>
<path fill="none" stroke="black" d="M1415.66,-526.23C1428.4,-527.45 1441.22,-528.67 1453.07,-529.81"/>
<polygon fill="black" stroke="black" points="1452.92,-533.31 1463.2,-530.78 1453.58,-526.34 1452.92,-533.31"/>
</g>
<!-- pvslib&#45;gitlab__master_/dL@bounded_star_semantics&#45;&gt;pvslib&#45;gitlab__master_/dL@hp_expr -->
<g id="edge10" class="edge">
<title>pvslib&#45;gitlab__master_/dL@bounded_star_semantics&#45;&gt;pvslib&#45;gitlab__master_/dL@hp_expr</title>
<path fill="none" stroke="black" d="M1394.09,-504.59C1444.92,-494 1507.34,-481 1507.34,-481"/>
</g>
<!-- pvslib&#45;gitlab__master_/orders -->
<g id="node25" class="node">
<title>pvslib&#45;gitlab__master_/orders</title>
<polygon fill="#fcfcd7" stroke="black" points="1775.28,-376 1721.28,-376 1721.28,-340 1775.28,-340 1775.28,-376"/>
<text text-anchor="middle" x="1748.28" y="-354.3" font-family="Times,serif" font-size="14.00">orders</text>
</g>
<!-- pvslib&#45;gitlab__master_/dL@bounded_star_semantics&#45;&gt;pvslib&#45;gitlab__master_/orders -->
<g id="edge11" class="edge">
<title>pvslib&#45;gitlab__master_/dL@bounded_star_semantics&#45;&gt;pvslib&#45;gitlab__master_/orders</title>
<path fill="none" stroke="black" d="M1372.04,-501.78C1454.39,-470.22 1634.78,-401.11 1711.55,-371.69"/>
<polygon fill="black" stroke="black" points="1713.16,-374.82 1721.25,-367.98 1710.66,-368.29 1713.16,-374.82"/>
</g>
<!-- pvslib&#45;gitlab__master_/dL@chain_rule_re -->
<g id="node9" class="node">
<title>pvslib&#45;gitlab__master_/dL@chain_rule_re</title>
<ellipse fill="#e6f3ff" stroke="black" cx="408.42" cy="-683" rx="59.29" ry="18"/>
<text text-anchor="middle" x="408.42" y="-679.3" font-family="Times,serif" font-size="14.00">chain_rule_re</text>
</g>
<!-- pvslib&#45;gitlab__master_/dL@differentiation -->
<g id="node14" class="node">
<title>pvslib&#45;gitlab__master_/dL@differentiation</title>
<ellipse fill="#e6f3ff" stroke="black" cx="781.34" cy="-555" rx="61.19" ry="18"/>
<text text-anchor="middle" x="781.34" y="-551.3" font-family="Times,serif" font-size="14.00">differentiation</text>
</g>
<!-- pvslib&#45;gitlab__master_/dL@chain_rule_re&#45;&gt;pvslib&#45;gitlab__master_/dL@differentiation -->
<g id="edge12" class="edge">
<title>pvslib&#45;gitlab__master_/dL@chain_rule_re&#45;&gt;pvslib&#45;gitlab__master_/dL@differentiation</title>
<path fill="none" stroke="black" d="M460.47,-674.27C539.95,-660.68 684.25,-636 684.25,-636 684.25,-636 723.94,-602.54 752.31,-578.63"/>
<polygon fill="black" stroke="black" points="754.58,-581.3 759.97,-572.18 750.06,-575.95 754.58,-581.3"/>
</g>
<!-- pvslib&#45;gitlab__master_/mv_analysis -->
<g id="node24" class="node">
<title>pvslib&#45;gitlab__master_/mv_analysis</title>
<polygon fill="#fcfcd7" stroke="black" points="1790.78,-52 1705.78,-52 1705.78,-16 1790.78,-16 1790.78,-52"/>
<text text-anchor="middle" x="1748.28" y="-30.3" font-family="Times,serif" font-size="14.00">mv_analysis</text>
</g>
<!-- pvslib&#45;gitlab__master_/dL@chain_rule_re&#45;&gt;pvslib&#45;gitlab__master_/mv_analysis -->
<g id="edge13" class="edge">
<title>pvslib&#45;gitlab__master_/dL@chain_rule_re&#45;&gt;pvslib&#45;gitlab__master_/mv_analysis</title>
<path fill="none" stroke="black" d="M439.53,-667.61C466.34,-653.9 501.36,-636 501.36,-636 501.36,-636 537.36,-508 537.36,-508 537.36,-508 684.25,-425 684.25,-425 684.25,-425 720.25,-323 720.25,-323 720.25,-323 933.33,-202 933.33,-202 933.33,-202 933.33,-202 1509.34,-202 1509.34,-202 1669.78,-140 1669.78,-140 1669.78,-140 1697.78,-61 1697.78,-61 1697.78,-61 1700.82,-59.34 1705.39,-56.85"/>
<polygon fill="black" stroke="black" points="1707.16,-59.87 1714.26,-52.01 1703.81,-53.73 1707.16,-59.87"/>
</g>
<!-- pvslib&#45;gitlab__master_/dL@continuity_props -->
<g id="node10" class="node">
<title>pvslib&#45;gitlab__master_/dL@continuity_props</title>
<ellipse fill="#e6f3ff" stroke="black" cx="408.42" cy="-535" rx="70.39" ry="18"/>
<text text-anchor="middle" x="408.42" y="-531.3" font-family="Times,serif" font-size="14.00">continuity_props</text>
</g>
<!-- pvslib&#45;gitlab__master_/dL@continuity_props&#45;&gt;pvslib&#45;gitlab__master_/analysis -->
<g id="edge14" class="edge">
<title>pvslib&#45;gitlab__master_/dL@continuity_props&#45;&gt;pvslib&#45;gitlab__master_/analysis</title>
<path fill="none" stroke="black" d="M432.62,-518.09C459.86,-498.24 501.36,-468 501.36,-468 501.36,-468 537.36,-435 537.36,-435 537.36,-435 609.81,-411 609.81,-411"/>
</g>
<!-- pvslib&#45;gitlab__master_/dL@continuity_props&#45;&gt;pvslib&#45;gitlab__master_/dL@ODEs_equiv -->
<g id="edge15" class="edge">
<title>pvslib&#45;gitlab__master_/dL@continuity_props&#45;&gt;pvslib&#45;gitlab__master_/dL@ODEs_equiv</title>
<path fill="none" stroke="black" d="M463.31,-523.63C498.28,-516.25 537.36,-508 537.36,-508 537.36,-508 757.31,-491.34 869.35,-482.85"/>
<polygon fill="black" stroke="black" points="869.81,-486.32 879.52,-482.08 869.28,-479.34 869.81,-486.32"/>
</g>
<!-- pvslib&#45;gitlab__master_/dL@continuity_re_def -->
<g id="node11" class="node">
<title>pvslib&#45;gitlab__master_/dL@continuity_re_def</title>
<ellipse fill="#e6f3ff" stroke="black" cx="610.81" cy="-609" rx="73.39" ry="18"/>
<text text-anchor="middle" x="610.81" y="-605.3" font-family="Times,serif" font-size="14.00">continuity_re_def</text>
</g>
<!-- pvslib&#45;gitlab__master_/dL@continuity_props&#45;&gt;pvslib&#45;gitlab__master_/dL@continuity_re_def -->
<g id="edge16" class="edge">
<title>pvslib&#45;gitlab__master_/dL@continuity_props&#45;&gt;pvslib&#45;gitlab__master_/dL@continuity_re_def</title>
<path fill="none" stroke="black" d="M450.82,-549.41C475.22,-557.9 501.36,-567 501.36,-567 501.36,-567 532.22,-578.95 561.02,-590.1"/>
<polygon fill="black" stroke="black" points="560.07,-593.49 570.66,-593.84 562.6,-586.96 560.07,-593.49"/>
</g>
<!-- pvslib&#45;gitlab__master_/dL@continuity_re_def&#45;&gt;pvslib&#45;gitlab__master_/dL@bool_expr -->
<g id="edge17" class="edge">
<title>pvslib&#45;gitlab__master_/dL@continuity_re_def&#45;&gt;pvslib&#45;gitlab__master_/dL@bool_expr</title>
<path fill="none" stroke="black" d="M1111.72,-609C1111.72,-609 1426.2,-599 1426.2,-599 1426.2,-599 1455.51,-575.88 1478.9,-557.43"/>
<polygon fill="black" stroke="black" points="1481.18,-560.09 1486.87,-551.15 1476.85,-554.59 1481.18,-560.09"/>
<path fill="none" stroke="black" d="M679.09,-602.19C758.08,-594.19 878.44,-582 878.44,-582 878.44,-582 990.23,-582 990.23,-582 990.23,-582 1109.72,-609 1109.72,-609"/>
</g>
<!-- pvslib&#45;gitlab__master_/dL@continuity_re_def&#45;&gt;pvslib&#45;gitlab__master_/dL@differentiation -->
<g id="edge18" class="edge">
<title>pvslib&#45;gitlab__master_/dL@continuity_re_def&#45;&gt;pvslib&#45;gitlab__master_/dL@differentiation</title>
<path fill="none" stroke="black" d="M656.09,-594.81C678.62,-587.59 706.11,-578.78 729.5,-571.29"/>
<polygon fill="black" stroke="black" points="730.8,-574.55 739.25,-568.17 728.66,-567.88 730.8,-574.55"/>
</g>
<!-- pvslib&#45;gitlab__master_/dL@continuity_re_props -->
<g id="node12" class="node">
<title>pvslib&#45;gitlab__master_/dL@continuity_re_props</title>
<ellipse fill="#e6f3ff" stroke="black" cx="408.42" cy="-609" rx="81.49" ry="18"/>
<text text-anchor="middle" x="408.42" y="-605.3" font-family="Times,serif" font-size="14.00">continuity_re_props</text>
</g>
<!-- pvslib&#45;gitlab__master_/dL@continuity_re_props&#45;&gt;pvslib&#45;gitlab__master_/dL@continuity_re_def -->
<g id="edge19" class="edge">
<title>pvslib&#45;gitlab__master_/dL@continuity_re_props&#45;&gt;pvslib&#45;gitlab__master_/dL@continuity_re_def</title>
<path fill="none" stroke="black" d="M489.77,-609C502.02,-609 514.68,-609 526.98,-609"/>
<polygon fill="black" stroke="black" points="527.22,-612.5 537.22,-609 527.22,-605.5 527.22,-612.5"/>
</g>
<!-- pvslib&#45;gitlab__master_/dL@diff_re_props -->
<g id="node13" class="node">
<title>pvslib&#45;gitlab__master_/dL@diff_re_props</title>
<ellipse fill="#e6f3ff" stroke="black" cx="215.79" cy="-683" rx="58.49" ry="18"/>
<text text-anchor="middle" x="215.79" y="-679.3" font-family="Times,serif" font-size="14.00">diff_re_props</text>
</g>
<!-- pvslib&#45;gitlab__master_/dL@diff_re_props&#45;&gt;pvslib&#45;gitlab__master_/dL@chain_rule_re -->
<g id="edge20" class="edge">
<title>pvslib&#45;gitlab__master_/dL@diff_re_props&#45;&gt;pvslib&#45;gitlab__master_/dL@chain_rule_re</title>
<path fill="none" stroke="black" d="M274.5,-683C294.84,-683 317.91,-683 339.04,-683"/>
<polygon fill="black" stroke="black" points="339.25,-686.5 349.25,-683 339.25,-679.5 339.25,-686.5"/>
</g>
<!-- pvslib&#45;gitlab__master_/dL@diff_re_props&#45;&gt;pvslib&#45;gitlab__master_/mv_analysis -->
<g id="edge21" class="edge">
<title>pvslib&#45;gitlab__master_/dL@diff_re_props&#45;&gt;pvslib&#45;gitlab__master_/mv_analysis</title>
<path fill="none" stroke="black" d="M226.04,-665.15C243.48,-631.49 279.48,-562 279.48,-562 279.48,-562 315.48,-414 315.48,-414 315.48,-414 609.81,-126 609.81,-126 609.81,-126 609.81,-126 1509.34,-126 1509.34,-126 1669.78,-102 1669.78,-102 1669.78,-102 1697.78,-61 1697.78,-61 1697.78,-61 1700.82,-59.34 1705.39,-56.85"/>
<polygon fill="black" stroke="black" points="1707.16,-59.87 1714.26,-52.01 1703.81,-53.73 1707.16,-59.87"/>
</g>
<!-- pvslib&#45;gitlab__master_/dL@differentiation&#45;&gt;pvslib&#45;gitlab__master_/ODEs -->
<g id="edge22" class="edge">
<title>pvslib&#45;gitlab__master_/dL@differentiation&#45;&gt;pvslib&#45;gitlab__master_/ODEs</title>
<path fill="none" stroke="black" d="M1631.14,-278C1631.14,-278 1676.99,-288.27 1711.08,-295.9"/>
<polygon fill="black" stroke="black" points="1710.69,-299.4 1721.22,-298.17 1712.22,-292.57 1710.69,-299.4"/>
</g>
<!-- pvslib&#45;gitlab__master_/dL@differentiation&#45;&gt;pvslib&#45;gitlab__master_/analysis -->
<g id="edge23" class="edge">
<title>pvslib&#45;gitlab__master_/dL@differentiation&#45;&gt;pvslib&#45;gitlab__master_/analysis</title>
<path fill="none" stroke="black" d="M1631.14,-278C1631.14,-278 1697.78,-223 1697.78,-223 1697.78,-223 1702.55,-220.4 1709.13,-216.81"/>
<polygon fill="black" stroke="black" points="1711.1,-219.72 1718.2,-211.86 1707.75,-213.58 1711.1,-219.72"/>
</g>
<!-- pvslib&#45;gitlab__master_/dL@differentiation&#45;&gt;pvslib&#45;gitlab__master_/dL@ODEs_equiv -->
<g id="edge24" class="edge">
<title>pvslib&#45;gitlab__master_/dL@differentiation&#45;&gt;pvslib&#45;gitlab__master_/dL@ODEs_equiv</title>
<path fill="none" stroke="black" d="M812.9,-539.42C836.46,-527.4 869.2,-510.7 894.6,-497.75"/>
<polygon fill="black" stroke="black" points="896.28,-500.83 903.6,-493.17 893.1,-494.59 896.28,-500.83"/>
</g>
<!-- pvslib&#45;gitlab__master_/dL@substitution -->
<g id="node22" class="node">
<title>pvslib&#45;gitlab__master_/dL@substitution</title>
<ellipse fill="#e6f3ff" stroke="black" cx="934.33" cy="-609" rx="51.99" ry="18"/>
<text text-anchor="middle" x="934.33" y="-605.3" font-family="Times,serif" font-size="14.00">substitution</text>
</g>
<!-- pvslib&#45;gitlab__master_/dL@differentiation&#45;&gt;pvslib&#45;gitlab__master_/dL@substitution -->
<g id="edge25" class="edge">
<title>pvslib&#45;gitlab__master_/dL@differentiation&#45;&gt;pvslib&#45;gitlab__master_/dL@substitution</title>
<path fill="none" stroke="black" d="M820.84,-568.77C841.29,-576.08 866.57,-585.12 887.97,-592.78"/>
<polygon fill="black" stroke="black" points="886.91,-596.11 897.51,-596.19 889.27,-589.52 886.91,-596.11"/>
</g>
<!-- pvslib&#45;gitlab__master_/lnexp -->
<g id="node23" class="node">
<title>pvslib&#45;gitlab__master_/lnexp</title>
<polygon fill="#fcfcd7" stroke="black" points="1775.28,-268 1721.28,-268 1721.28,-232 1775.28,-232 1775.28,-268"/>
<text text-anchor="middle" x="1748.28" y="-246.3" font-family="Times,serif" font-size="14.00">lnexp</text>
</g>
<!-- pvslib&#45;gitlab__master_/dL@differentiation&#45;&gt;pvslib&#45;gitlab__master_/lnexp -->
<g id="edge26" class="edge">
<title>pvslib&#45;gitlab__master_/dL@differentiation&#45;&gt;pvslib&#45;gitlab__master_/lnexp</title>
<path fill="none" stroke="black" d="M1631.14,-278C1631.14,-278 1676.99,-266.94 1711.08,-258.73"/>
<polygon fill="black" stroke="black" points="1712.32,-262.03 1721.22,-256.28 1710.67,-255.22 1712.32,-262.03"/>
</g>
<!-- pvslib&#45;gitlab__master_/reals -->
<g id="node26" class="node">
<title>pvslib&#45;gitlab__master_/reals</title>
<polygon fill="#fcfcd7" stroke="black" points="1775.28,-106 1721.28,-106 1721.28,-70 1775.28,-70 1775.28,-106"/>
<text text-anchor="middle" x="1748.28" y="-84.3" font-family="Times,serif" font-size="14.00">reals</text>
</g>
<!-- pvslib&#45;gitlab__master_/dL@differentiation&#45;&gt;pvslib&#45;gitlab__master_/reals -->
<g id="edge27" class="edge">
<title>pvslib&#45;gitlab__master_/dL@differentiation&#45;&gt;pvslib&#45;gitlab__master_/reals</title>
<path fill="none" stroke="black" d="M1631.14,-278C1631.14,-278 1669.78,-216 1669.78,-216 1669.78,-216 1697.78,-115 1697.78,-115 1697.78,-115 1704.08,-111.57 1712.18,-107.15"/>
<polygon fill="black" stroke="black" points="1713.98,-110.15 1721.08,-102.29 1710.63,-104.01 1713.98,-110.15"/>
</g>
<!-- pvslib&#45;gitlab__master_/structures -->
<g id="node27" class="node">
<title>pvslib&#45;gitlab__master_/structures</title>
<polygon fill="#fcfcd7" stroke="black" points="1782.78,-160 1713.78,-160 1713.78,-124 1782.78,-124 1782.78,-160"/>
<text text-anchor="middle" x="1748.28" y="-138.3" font-family="Times,serif" font-size="14.00">structures</text>
</g>
<!-- pvslib&#45;gitlab__master_/dL@differentiation&#45;&gt;pvslib&#45;gitlab__master_/structures -->
<g id="edge28" class="edge">
<title>pvslib&#45;gitlab__master_/dL@differentiation&#45;&gt;pvslib&#45;gitlab__master_/structures</title>
<path fill="none" stroke="black" d="M798.65,-537.36C826.06,-507.69 878.44,-451 878.44,-451 878.44,-451 1109.72,-278 1109.72,-278 1109.72,-278 1109.72,-278 1329.71,-278 1329.71,-278 1629.14,-278 1629.14,-278"/>
<path fill="none" stroke="black" d="M1631.14,-278C1631.14,-278 1669.78,-216 1669.78,-216 1669.78,-216 1697.78,-169 1697.78,-169 1697.78,-169 1700.82,-167.34 1705.39,-164.85"/>
<polygon fill="black" stroke="black" points="1707.16,-167.87 1714.26,-160.01 1703.81,-161.73 1707.16,-167.87"/>
</g>
<!-- pvslib&#45;gitlab__master_/dL@dl_solution -->
<g id="node15" class="node">
<title>pvslib&#45;gitlab__master_/dL@dl_solution</title>
<ellipse fill="#e6f3ff" stroke="black" cx="66.05" cy="-535" rx="50.09" ry="18"/>
<text text-anchor="middle" x="66.05" y="-531.3" font-family="Times,serif" font-size="14.00">dl_solution</text>
</g>
<!-- pvslib&#45;gitlab__master_/dL@dl_solution&#45;&gt;pvslib&#45;gitlab__master_/analysis -->
<g id="edge29" class="edge">
<title>pvslib&#45;gitlab__master_/dL@dl_solution&#45;&gt;pvslib&#45;gitlab__master_/analysis</title>
<path fill="none" stroke="black" d="M76.94,-517.4C123.14,-435.19 315.48,-93 315.48,-93 315.48,-93 407.42,-50 407.42,-50 407.42,-50 407.42,-50 1509.34,-50 1509.34,-50 1669.78,-74 1669.78,-74 1669.78,-74 1697.78,-169 1697.78,-169 1697.78,-169 1702.55,-171.6 1709.13,-175.19"/>
<polygon fill="black" stroke="black" points="1707.75,-178.42 1718.2,-180.14 1711.1,-172.28 1707.75,-178.42"/>
</g>
<!-- pvslib&#45;gitlab__master_/dL@dynamic_logic -->
<g id="node16" class="node">
<title>pvslib&#45;gitlab__master_/dL@dynamic_logic</title>
<ellipse fill="#e6f3ff" stroke="black" cx="215.79" cy="-535" rx="63.89" ry="18"/>
<text text-anchor="middle" x="215.79" y="-531.3" font-family="Times,serif" font-size="14.00">dynamic_logic</text>
</g>
<!-- pvslib&#45;gitlab__master_/dL@dl_solution&#45;&gt;pvslib&#45;gitlab__master_/dL@dynamic_logic -->
<g id="edge30" class="edge">
<title>pvslib&#45;gitlab__master_/dL@dl_solution&#45;&gt;pvslib&#45;gitlab__master_/dL@dynamic_logic</title>
<path fill="none" stroke="black" d="M116.24,-535C124.45,-535 133.11,-535 141.76,-535"/>
<polygon fill="black" stroke="black" points="141.88,-538.5 151.88,-535 141.88,-531.5 141.88,-538.5"/>
</g>
<!-- pvslib&#45;gitlab__master_/dL@dynamic_logic&#45;&gt;pvslib&#45;gitlab__master_/ODEs -->
<g id="edge31" class="edge">
<title>pvslib&#45;gitlab__master_/dL@dynamic_logic&#45;&gt;pvslib&#45;gitlab__master_/ODEs</title>
<path fill="none" stroke="black" d="M1631.14,-88C1631.14,-88 1697.78,-277 1697.78,-277 1697.78,-277 1704.08,-280.43 1712.18,-284.85"/>
<polygon fill="black" stroke="black" points="1710.63,-287.99 1721.08,-289.71 1713.98,-281.85 1710.63,-287.99"/>
</g>
<!-- pvslib&#45;gitlab__master_/dL@dynamic_logic&#45;&gt;pvslib&#45;gitlab__master_/dL@ODEs_equiv -->
<g id="edge32" class="edge">
<title>pvslib&#45;gitlab__master_/dL@dynamic_logic&#45;&gt;pvslib&#45;gitlab__master_/dL@ODEs_equiv</title>
<path fill="none" stroke="black" d="M782.34,-478C782.34,-478 827.48,-478 868.39,-478"/>
<polygon fill="black" stroke="black" points="868.4,-481.5 878.4,-478 868.4,-474.5 868.4,-481.5"/>
</g>
<!-- pvslib&#45;gitlab__master_/dL@dynamic_logic&#45;&gt;pvslib&#45;gitlab__master_/dL@bound_variables_def -->
<g id="edge33" class="edge">
<title>pvslib&#45;gitlab__master_/dL@dynamic_logic&#45;&gt;pvslib&#45;gitlab__master_/dL@bound_variables_def</title>
<path fill="none" stroke="black" d="M782.34,-646C782.34,-646 919,-646 1015.73,-646"/>
<polygon fill="black" stroke="black" points="1015.84,-649.5 1025.84,-646 1015.84,-642.5 1015.84,-649.5"/>
</g>
<!-- pvslib&#45;gitlab__master_/dL@dynamic_logic&#45;&gt;pvslib&#45;gitlab__master_/dL@bounded_star_semantics -->
<g id="edge34" class="edge">
<title>pvslib&#45;gitlab__master_/dL@dynamic_logic&#45;&gt;pvslib&#45;gitlab__master_/dL@bounded_star_semantics</title>
<path fill="none" stroke="black" d="M262.09,-522.61C288.03,-515.51 315.48,-508 315.48,-508 315.48,-508 537.36,-493 537.36,-493 537.36,-493 780.34,-478 780.34,-478"/>
<path fill="none" stroke="black" d="M782.34,-478C782.34,-478 878.44,-451 878.44,-451 878.44,-451 990.23,-451 990.23,-451 990.23,-451 1151.86,-483.09 1251.41,-502.85"/>
<polygon fill="black" stroke="black" points="1250.94,-506.33 1261.43,-504.84 1252.31,-499.46 1250.94,-506.33"/>
</g>
<!-- pvslib&#45;gitlab__master_/dL@dynamic_logic&#45;&gt;pvslib&#45;gitlab__master_/dL@chain_rule_re -->
<g id="edge35" class="edge">
<title>pvslib&#45;gitlab__master_/dL@dynamic_logic&#45;&gt;pvslib&#45;gitlab__master_/dL@chain_rule_re</title>
<path fill="none" stroke="black" d="M231.78,-552.62C259.38,-585.07 315.48,-651 315.48,-651 315.48,-651 336.99,-658.49 359.2,-666.22"/>
<polygon fill="black" stroke="black" points="358.1,-669.54 368.7,-669.52 360.4,-662.93 358.1,-669.54"/>
</g>
<!-- pvslib&#45;gitlab__master_/dL@dynamic_logic&#45;&gt;pvslib&#45;gitlab__master_/dL@continuity_props -->
<g id="edge36" class="edge">
<title>pvslib&#45;gitlab__master_/dL@dynamic_logic&#45;&gt;pvslib&#45;gitlab__master_/dL@continuity_props</title>
<path fill="none" stroke="black" d="M279.74,-535C295.04,-535 311.6,-535 327.57,-535"/>
<polygon fill="black" stroke="black" points="327.96,-538.5 337.96,-535 327.96,-531.5 327.96,-538.5"/>
</g>
<!-- pvslib&#45;gitlab__master_/dL@dynamic_logic&#45;&gt;pvslib&#45;gitlab__master_/dL@differentiation -->
<g id="edge37" class="edge">
<title>pvslib&#45;gitlab__master_/dL@dynamic_logic&#45;&gt;pvslib&#45;gitlab__master_/dL@differentiation</title>
<path fill="none" stroke="black" d="M409.42,-572C409.42,-572 684.25,-562 684.25,-562 684.25,-562 696.31,-561.12 711.88,-559.99"/>
<polygon fill="black" stroke="black" points="712.23,-563.47 721.95,-559.25 711.73,-556.49 712.23,-563.47"/>
</g>
<!-- pvslib&#45;gitlab__master_/dL@fresh_props -->
<g id="node17" class="node">
<title>pvslib&#45;gitlab__master_/dL@fresh_props</title>
<ellipse fill="#e6f3ff" stroke="black" cx="610.81" cy="-535" rx="51.99" ry="18"/>
<text text-anchor="middle" x="610.81" y="-531.3" font-family="Times,serif" font-size="14.00">fresh_props</text>
</g>
<!-- pvslib&#45;gitlab__master_/dL@dynamic_logic&#45;&gt;pvslib&#45;gitlab__master_/dL@fresh_props -->
<g id="edge38" class="edge">
<title>pvslib&#45;gitlab__master_/dL@dynamic_logic&#45;&gt;pvslib&#45;gitlab__master_/dL@fresh_props</title>
<path fill="none" stroke="black" d="M409.42,-572C409.42,-572 501.36,-562 501.36,-562 501.36,-562 530.37,-554.78 558.37,-547.81"/>
<polygon fill="black" stroke="black" points="559.33,-551.17 568.19,-545.36 557.64,-544.38 559.33,-551.17"/>
<path fill="none" stroke="black" d="M262.09,-547.39C288.03,-554.49 315.48,-562 315.48,-562 315.48,-562 407.42,-572 407.42,-572"/>
</g>
<!-- pvslib&#45;gitlab__master_/dL@more_derivative_props -->
<g id="node21" class="node">
<title>pvslib&#45;gitlab__master_/dL@more_derivative_props</title>
<ellipse fill="#e6f3ff" stroke="black" cx="408.42" cy="-441" rx="92.88" ry="18"/>
<text text-anchor="middle" x="408.42" y="-437.3" font-family="Times,serif" font-size="14.00">more_derivative_props</text>
</g>
<!-- pvslib&#45;gitlab__master_/dL@dynamic_logic&#45;&gt;pvslib&#45;gitlab__master_/dL@more_derivative_props -->
<g id="edge39" class="edge">
<title>pvslib&#45;gitlab__master_/dL@dynamic_logic&#45;&gt;pvslib&#45;gitlab__master_/dL@more_derivative_props</title>
<path fill="none" stroke="black" d="M242.97,-518.55C272.21,-500.18 315.48,-473 315.48,-473 315.48,-473 333.01,-466.9 352.77,-460.02"/>
<polygon fill="black" stroke="black" points="353.96,-463.31 362.26,-456.72 351.66,-456.7 353.96,-463.31"/>
</g>
<!-- pvslib&#45;gitlab__master_/dL@dynamic_logic&#45;&gt;pvslib&#45;gitlab__master_/dL@substitution -->
<g id="edge40" class="edge">
<title>pvslib&#45;gitlab__master_/dL@dynamic_logic&#45;&gt;pvslib&#45;gitlab__master_/dL@substitution</title>
<path fill="none" stroke="black" d="M233.98,-552.59C262.25,-581.53 315.48,-636 315.48,-636 315.48,-636 780.34,-646 780.34,-646"/>
<path fill="none" stroke="black" d="M782.34,-646C782.34,-646 837.65,-632.45 881.31,-621.75"/>
<polygon fill="black" stroke="black" points="882.4,-625.09 891.28,-619.31 880.73,-618.29 882.4,-625.09"/>
</g>
<!-- pvslib&#45;gitlab__master_/dL@dynamic_logic&#45;&gt;pvslib&#45;gitlab__master_/reals -->
<g id="edge41" class="edge">
<title>pvslib&#45;gitlab__master_/dL@dynamic_logic&#45;&gt;pvslib&#45;gitlab__master_/reals</title>
<path fill="none" stroke="black" d="M1631.14,-88C1631.14,-88 1676.99,-88 1711.08,-88"/>
<polygon fill="black" stroke="black" points="1711.22,-91.5 1721.22,-88 1711.22,-84.5 1711.22,-91.5"/>
</g>
<!-- pvslib&#45;gitlab__master_/dL@dynamic_logic&#45;&gt;pvslib&#45;gitlab__master_/structures -->
<g id="edge42" class="edge">
<title>pvslib&#45;gitlab__master_/dL@dynamic_logic&#45;&gt;pvslib&#45;gitlab__master_/structures</title>
<path fill="none" stroke="black" d="M1631.14,-88C1631.14,-88 1671.45,-106.74 1704.57,-122.14"/>
<polygon fill="black" stroke="black" points="1703.14,-125.34 1713.69,-126.38 1706.1,-118.99 1703.14,-125.34"/>
<path fill="none" stroke="black" d="M221.03,-516.82C239.92,-435.86 315.48,-112 315.48,-112 315.48,-112 609.81,-88 609.81,-88 609.81,-88 609.81,-88 1329.71,-88 1329.71,-88 1629.14,-88 1629.14,-88"/>
</g>
<!-- pvslib&#45;gitlab__master_/dL@fresh_props&#45;&gt;pvslib&#45;gitlab__master_/dL@bounded_star_semantics -->
<g id="edge43" class="edge">
<title>pvslib&#45;gitlab__master_/dL@fresh_props&#45;&gt;pvslib&#45;gitlab__master_/dL@bounded_star_semantics</title>
<path fill="none" stroke="black" d="M662.22,-531.75C690.54,-529.92 720.25,-528 720.25,-528 720.25,-528 1047.02,-522.62 1221.23,-519.75"/>
<polygon fill="black" stroke="black" points="1221.51,-523.25 1231.45,-519.58 1221.4,-516.25 1221.51,-523.25"/>
</g>
<!-- pvslib&#45;gitlab__master_/dL@fresh_props&#45;&gt;pvslib&#45;gitlab__master_/dL@differentiation -->
<g id="edge44" class="edge">
<title>pvslib&#45;gitlab__master_/dL@fresh_props&#45;&gt;pvslib&#45;gitlab__master_/dL@differentiation</title>
<path fill="none" stroke="black" d="M660.1,-540.73C676.93,-542.73 696.12,-545 714.14,-547.14"/>
<polygon fill="black" stroke="black" points="713.96,-550.65 724.31,-548.35 714.79,-543.7 713.96,-550.65"/>
</g>
<!-- pvslib&#45;gitlab__master_/dL@fresh_props&#45;&gt;pvslib&#45;gitlab__master_/lnexp -->
<g id="edge45" class="edge">
<title>pvslib&#45;gitlab__master_/dL@fresh_props&#45;&gt;pvslib&#45;gitlab__master_/lnexp</title>
<path fill="none" stroke="black" d="M630.48,-517.86C699.11,-454.9 933.33,-240 933.33,-240 933.33,-240 933.33,-240 1509.34,-240 1509.34,-240 1644.15,-245.67 1710.82,-248.47"/>
<polygon fill="black" stroke="black" points="1710.77,-251.97 1720.91,-248.89 1711.07,-244.97 1710.77,-251.97"/>
</g>
<!-- pvslib&#45;gitlab__master_/dL@hp_def&#45;&gt;pvslib&#45;gitlab__master_/structures -->
<g id="edge46" class="edge">
<title>pvslib&#45;gitlab__master_/dL@hp_def&#45;&gt;pvslib&#45;gitlab__master_/structures</title>
<path fill="none" stroke="black" d="M1857.27,-462.88C1844.02,-396.29 1798.78,-169 1798.78,-169 1798.78,-169 1795.74,-167.34 1791.17,-164.85"/>
<polygon fill="black" stroke="black" points="1792.75,-161.73 1782.3,-160.01 1789.4,-167.87 1792.75,-161.73"/>
</g>
<!-- pvslib&#45;gitlab__master_/dL@hp_expr&#45;&gt;pvslib&#45;gitlab__master_/ODEs -->
<g id="edge47" class="edge">
<title>pvslib&#45;gitlab__master_/dL@hp_expr&#45;&gt;pvslib&#45;gitlab__master_/ODEs</title>
<path fill="none" stroke="black" d="M1639.04,-463.2C1656.7,-423.47 1697.78,-331 1697.78,-331 1697.78,-331 1704.08,-327.57 1712.18,-323.15"/>
<polygon fill="black" stroke="black" points="1713.98,-326.15 1721.08,-318.29 1710.63,-320.01 1713.98,-326.15"/>
</g>
<!-- pvslib&#45;gitlab__master_/dL@hp_expr&#45;&gt;pvslib&#45;gitlab__master_/analysis -->
<g id="edge48" class="edge">
<title>pvslib&#45;gitlab__master_/dL@hp_expr&#45;&gt;pvslib&#45;gitlab__master_/analysis</title>
<path fill="none" stroke="black" d="M1637.26,-463.09C1648.16,-431.23 1669.78,-368 1669.78,-368 1669.78,-368 1697.78,-223 1697.78,-223 1697.78,-223 1702.55,-220.4 1709.13,-216.81"/>
<polygon fill="black" stroke="black" points="1711.1,-219.72 1718.2,-211.86 1707.75,-213.58 1711.1,-219.72"/>
</g>
<!-- pvslib&#45;gitlab__master_/dL@hp_expr&#45;&gt;pvslib&#45;gitlab__master_/dL@HP -->
<g id="edge49" class="edge">
<title>pvslib&#45;gitlab__master_/dL@hp_expr&#45;&gt;pvslib&#45;gitlab__master_/dL@HP</title>
<path fill="none" stroke="black" d="M1669.81,-481C1683.14,-481 1698.01,-481 1711.13,-481"/>
<polygon fill="black" stroke="black" points="1711.22,-484.5 1721.22,-481 1711.22,-477.5 1711.22,-484.5"/>
</g>
<!-- pvslib&#45;gitlab__master_/dL@hp_props -->
<g id="node20" class="node">
<title>pvslib&#45;gitlab__master_/dL@hp_props</title>
<ellipse fill="#e6f3ff" stroke="black" cx="1328.71" cy="-572" rx="43.59" ry="18"/>
<text text-anchor="middle" x="1328.71" y="-568.3" font-family="Times,serif" font-size="14.00">hp_props</text>
</g>
<!-- pvslib&#45;gitlab__master_/dL@hp_props&#45;&gt;pvslib&#45;gitlab__master_/dL@bool_expr -->
<g id="edge50" class="edge">
<title>pvslib&#45;gitlab__master_/dL@hp_props&#45;&gt;pvslib&#45;gitlab__master_/dL@bool_expr</title>
<path fill="none" stroke="black" d="M1367.81,-564.06C1393.87,-558.63 1428.69,-551.38 1457.02,-545.48"/>
<polygon fill="black" stroke="black" points="1458.06,-548.84 1467.14,-543.37 1456.64,-541.99 1458.06,-548.84"/>
</g>
<!-- pvslib&#45;gitlab__master_/dL@more_derivative_props&#45;&gt;pvslib&#45;gitlab__master_/analysis -->
<g id="edge51" class="edge">
<title>pvslib&#45;gitlab__master_/dL@more_derivative_props&#45;&gt;pvslib&#45;gitlab__master_/analysis</title>
<path fill="none" stroke="black" d="M482.33,-430.08C539.63,-421.51 609.81,-411 609.81,-411"/>
<path fill="none" stroke="black" d="M611.81,-411C611.81,-411 720.25,-188 720.25,-188 720.25,-188 933.33,-164 933.33,-164 933.33,-164 933.33,-164 1509.34,-164 1509.34,-164 1640.19,-181.6 1707.82,-190.69"/>
<polygon fill="black" stroke="black" points="1707.73,-194.21 1718.11,-192.08 1708.66,-187.27 1707.73,-194.21"/>
</g>
<!-- pvslib&#45;gitlab__master_/dL@substitution&#45;&gt;pvslib&#45;gitlab__master_/dL@bool_expr -->
<g id="edge52" class="edge">
<title>pvslib&#45;gitlab__master_/dL@substitution&#45;&gt;pvslib&#45;gitlab__master_/dL@bool_expr</title>
<path fill="none" stroke="black" d="M986.71,-609C1038.15,-609 1109.72,-609 1109.72,-609"/>
</g>
<!-- pvslib&#45;gitlab__master_/dL@substitution&#45;&gt;pvslib&#45;gitlab__master_/dL@bound_variables_def -->
<g id="edge53" class="edge">
<title>pvslib&#45;gitlab__master_/dL@substitution&#45;&gt;pvslib&#45;gitlab__master_/dL@bound_variables_def</title>
<path fill="none" stroke="black" d="M979.34,-618.34C997.81,-622.26 1019.74,-626.91 1040.29,-631.27"/>
<polygon fill="black" stroke="black" points="1039.74,-634.73 1050.25,-633.38 1041.19,-627.88 1039.74,-634.73"/>
</g>
<!-- pvslib&#45;gitlab__master_/dL@substitution&#45;&gt;pvslib&#45;gitlab__master_/structures -->
<g id="edge54" class="edge">
<title>pvslib&#45;gitlab__master_/dL@substitution&#45;&gt;pvslib&#45;gitlab__master_/structures</title>
<path fill="none" stroke="black" d="M957.27,-592.62C1039.9,-530.92 1327.71,-316 1327.71,-316 1327.71,-316 1327.71,-316 1509.34,-316 1509.34,-316 1669.78,-292 1669.78,-292 1669.78,-292 1697.78,-169 1697.78,-169 1697.78,-169 1700.82,-167.34 1705.39,-164.85"/>
<polygon fill="black" stroke="black" points="1707.16,-167.87 1714.26,-160.01 1703.81,-161.73 1707.16,-167.87"/>
</g>
</g>
</svg>
