<?xml version="1.0" encoding="UTF-8" standalone="no"?>
<!DOCTYPE svg PUBLIC "-//W3C//DTD SVG 1.1//EN"
 "http://www.w3.org/Graphics/SVG/1.1/DTD/svg11.dtd">
<!-- Generated by graphviz version 7.0.6 (20230106.0513)
 -->
<!-- Title: dL&#45;zoomed Pages: 1 -->
<svg width="1307pt" height="894pt"
 viewBox="0.00 0.00 1307.00 894.00" xmlns="http://www.w3.org/2000/svg" xmlns:xlink="http://www.w3.org/1999/xlink">
<g id="graph0" class="graph" transform="scale(1 1) rotate(0) translate(4 890)">
<title>dL&#45;zoomed</title>
<polygon fill="white" stroke="none" points="-4,4 -4,-890 1303,-890 1303,4 -4,4"/>
<g id="clust1" class="cluster">
<title>cluster_NASALib</title>
<polygon fill="none" stroke="black" points="732,-80 732,-155 1288,-155 1288,-80 732,-80"/>
<text text-anchor="middle" x="1010" y="-139.8" font-family="Times,serif" font-size="14.00">NASALib</text>
</g>
<g id="clust2" class="cluster">
<title>cluster_NASALib/dL</title>
<polygon fill="none" stroke="black" points="8,-8 8,-878 724,-878 724,-8 8,-8"/>
<text text-anchor="middle" x="366" y="-862.8" font-family="Times,serif" font-size="14.00">NASALib/dL</text>
</g>
<!-- NASALib/ODEs -->
<g id="node1" class="node">
<title>NASALib/ODEs</title>
<polygon fill="#fcfcd7" stroke="black" points="866,-124 812,-124 812,-88 866,-88 866,-124"/>
<text text-anchor="middle" x="839" y="-102.3" font-family="Times,serif" font-size="14.00">ODEs</text>
</g>
<!-- NASALib/analysis -->
<g id="node2" class="node">
<title>NASALib/analysis</title>
<polygon fill="#fcfcd7" stroke="black" points="1104,-124 1044,-124 1044,-88 1104,-88 1104,-124"/>
<text text-anchor="middle" x="1074" y="-102.3" font-family="Times,serif" font-size="14.00">analysis</text>
</g>
<!-- NASALib/dL@HP -->
<g id="node3" class="node">
<title>NASALib/dL@HP</title>
<ellipse fill="#e6f3ff" stroke="black" cx="376" cy="-106" rx="27" ry="18"/>
<text text-anchor="middle" x="376" y="-102.3" font-family="Times,serif" font-size="14.00">HP</text>
</g>
<!-- NASALib/dL@hp_def -->
<g id="node18" class="node">
<title>NASALib/dL@hp_def</title>
<ellipse fill="#e6f3ff" stroke="black" cx="376" cy="-34" rx="35.19" ry="18"/>
<text text-anchor="middle" x="376" y="-30.3" font-family="Times,serif" font-size="14.00">hp_def</text>
</g>
<!-- NASALib/dL@HP&#45;&gt;NASALib/dL@hp_def -->
<g id="edge1" class="edge">
<title>NASALib/dL@HP&#45;&gt;NASALib/dL@hp_def</title>
<path fill="none" stroke="black" d="M376,-87.7C376,-80.41 376,-71.73 376,-63.54"/>
<polygon fill="black" stroke="black" points="379.5,-63.62 376,-53.62 372.5,-63.62 379.5,-63.62"/>
</g>
<!-- NASALib/dL@NQBool -->
<g id="node4" class="node">
<title>NASALib/dL@NQBool</title>
<ellipse fill="#e6f3ff" stroke="black" cx="291" cy="-106" rx="40.09" ry="18"/>
<text text-anchor="middle" x="291" y="-102.3" font-family="Times,serif" font-size="14.00">NQBool</text>
</g>
<!-- NASALib/dL@NQBool&#45;&gt;NASALib/dL@hp_def -->
<g id="edge2" class="edge">
<title>NASALib/dL@NQBool&#45;&gt;NASALib/dL@hp_def</title>
<path fill="none" stroke="black" d="M309.44,-89.81C321.11,-80.21 336.37,-67.63 349.34,-56.95"/>
<polygon fill="black" stroke="black" points="351.22,-59.94 356.72,-50.88 346.77,-54.54 351.22,-59.94"/>
</g>
<!-- NASALib/dL@ODEs_equiv -->
<g id="node5" class="node">
<title>NASALib/dL@ODEs_equiv</title>
<ellipse fill="#e6f3ff" stroke="black" cx="286" cy="-469" rx="55.79" ry="18"/>
<text text-anchor="middle" x="286" y="-465.3" font-family="Times,serif" font-size="14.00">ODEs_equiv</text>
</g>
<!-- NASALib/dL@ODEs_equiv&#45;&gt;NASALib/ODEs -->
<g id="edge3" class="edge">
<title>NASALib/dL@ODEs_equiv&#45;&gt;NASALib/ODEs</title>
<path fill="none" stroke="black" d="M335.05,-460.12C426.98,-445.36 616,-415 616,-415 616,-415 799,-326 799,-326 799,-326 799,-326 799,-252 799,-252 819.5,-177.69 831.15,-135.46"/>
<polygon fill="black" stroke="black" points="834.49,-136.52 833.77,-125.95 827.74,-134.66 834.49,-136.52"/>
</g>
<!-- NASALib/dL@ODEs_equiv&#45;&gt;NASALib/analysis -->
<g id="edge4" class="edge">
<title>NASALib/dL@ODEs_equiv&#45;&gt;NASALib/analysis</title>
<path fill="none" stroke="black" d="M338.34,-462.21C490,-445.44 919,-398 919,-398"/>
<path fill="none" stroke="black" d="M919,-396C919,-396 995,-182 995,-182"/>
<path fill="none" stroke="black" d="M995,-180C995,-180 1035,-155 1035,-155 1035,-155 1043.56,-144.46 1052.66,-133.26"/>
<polygon fill="black" stroke="black" points="1055.38,-135.47 1058.97,-125.5 1049.94,-131.06 1055.38,-135.47"/>
</g>
<!-- NASALib/dL@hp_expr -->
<g id="node19" class="node">
<title>NASALib/dL@hp_expr</title>
<ellipse fill="#e6f3ff" stroke="black" cx="376" cy="-181" rx="39.79" ry="18"/>
<text text-anchor="middle" x="376" y="-177.3" font-family="Times,serif" font-size="14.00">hp_expr</text>
</g>
<!-- NASALib/dL@ODEs_equiv&#45;&gt;NASALib/dL@hp_expr -->
<g id="edge5" class="edge">
<title>NASALib/dL@ODEs_equiv&#45;&gt;NASALib/dL@hp_expr</title>
<path fill="none" stroke="black" d="M300.74,-451.4C330.93,-417.4 397,-343 397,-343 397,-343 407,-254 407,-254"/>
</g>
<!-- NASALib/dL@bool_expr -->
<g id="node6" class="node">
<title>NASALib/dL@bool_expr</title>
<ellipse fill="#e6f3ff" stroke="black" cx="291" cy="-253" rx="46.29" ry="18"/>
<text text-anchor="middle" x="291" y="-249.3" font-family="Times,serif" font-size="14.00">bool_expr</text>
</g>
<!-- NASALib/dL@bool_expr&#45;&gt;NASALib/dL@NQBool -->
<g id="edge6" class="edge">
<title>NASALib/dL@bool_expr&#45;&gt;NASALib/dL@NQBool</title>
<path fill="none" stroke="black" d="M291,-234.51C291,-209.88 291,-164.71 291,-135.28"/>
<polygon fill="black" stroke="black" points="294.5,-135.62 291,-125.62 287.5,-135.62 294.5,-135.62"/>
</g>
<!-- NASALib/dL@bool_expr&#45;&gt;NASALib/dL@hp_expr -->
<g id="edge7" class="edge">
<title>NASALib/dL@bool_expr&#45;&gt;NASALib/dL@hp_expr</title>
<path fill="none" stroke="black" d="M309.86,-236.46C321.28,-227.07 336.03,-214.92 348.7,-204.48"/>
<polygon fill="black" stroke="black" points="350.82,-207.27 356.31,-198.21 346.37,-201.87 350.82,-207.27"/>
</g>
<!-- NASALib/dL@bound_variables_def -->
<g id="node7" class="node">
<title>NASALib/dL@bound_variables_def</title>
<ellipse fill="#e6f3ff" stroke="black" cx="192" cy="-397" rx="84.49" ry="18"/>
<text text-anchor="middle" x="192" y="-393.3" font-family="Times,serif" font-size="14.00">bound_variables_def</text>
</g>
<!-- NASALib/dL@bounded_star_semantics -->
<g id="node8" class="node">
<title>NASALib/dL@bounded_star_semantics</title>
<ellipse fill="#e6f3ff" stroke="black" cx="291" cy="-325" rx="97.48" ry="18"/>
<text text-anchor="middle" x="291" y="-321.3" font-family="Times,serif" font-size="14.00">bounded_star_semantics</text>
</g>
<!-- NASALib/dL@bound_variables_def&#45;&gt;NASALib/dL@bounded_star_semantics -->
<g id="edge8" class="edge">
<title>NASALib/dL@bound_variables_def&#45;&gt;NASALib/dL@bounded_star_semantics</title>
<path fill="none" stroke="black" d="M215.46,-379.41C228.19,-370.41 244.13,-359.14 258.09,-349.27"/>
<polygon fill="black" stroke="black" points="259.98,-352.22 266.13,-343.59 255.94,-346.5 259.98,-352.22"/>
</g>
<!-- NASALib/dL@bounded_star_semantics&#45;&gt;NASALib/dL@bool_expr -->
<g id="edge9" class="edge">
<title>NASALib/dL@bounded_star_semantics&#45;&gt;NASALib/dL@bool_expr</title>
<path fill="none" stroke="black" d="M291,-306.7C291,-299.41 291,-290.73 291,-282.54"/>
<polygon fill="black" stroke="black" points="294.5,-282.62 291,-272.62 287.5,-282.62 294.5,-282.62"/>
</g>
<!-- NASALib/dL@bounded_star_semantics&#45;&gt;NASALib/dL@hp_expr -->
<g id="edge10" class="edge">
<title>NASALib/dL@bounded_star_semantics&#45;&gt;NASALib/dL@hp_expr</title>
<path fill="none" stroke="black" d="M407,-252C407,-252 396.8,-228.98 388.11,-209.34"/>
<polygon fill="black" stroke="black" points="391.37,-208.06 384.12,-200.33 384.97,-210.89 391.37,-208.06"/>
<path fill="none" stroke="black" d="M318.49,-307.41C352.79,-286.71 407,-254 407,-254"/>
</g>
<!-- NASALib/orders -->
<g id="node25" class="node">
<title>NASALib/orders</title>
<polygon fill="#fcfcd7" stroke="black" points="794,-124 740,-124 740,-88 794,-88 794,-124"/>
<text text-anchor="middle" x="767" y="-102.3" font-family="Times,serif" font-size="14.00">orders</text>
</g>
<!-- NASALib/dL@bounded_star_semantics&#45;&gt;NASALib/orders -->
<g id="edge11" class="edge">
<title>NASALib/dL@bounded_star_semantics&#45;&gt;NASALib/orders</title>
<path fill="none" stroke="black" d="M327.63,-307.95C363.25,-292.36 412,-271 412,-271 412,-271 588,-163 588,-163 588,-163 728,-155 728,-155 728,-155 736.56,-144.46 745.66,-133.26"/>
<polygon fill="black" stroke="black" points="748.38,-135.47 751.97,-125.5 742.94,-131.06 748.38,-135.47"/>
</g>
<!-- NASALib/dL@chain_rule_re -->
<g id="node9" class="node">
<title>NASALib/dL@chain_rule_re</title>
<ellipse fill="#e6f3ff" stroke="black" cx="657" cy="-685" rx="59.29" ry="18"/>
<text text-anchor="middle" x="657" y="-681.3" font-family="Times,serif" font-size="14.00">chain_rule_re</text>
</g>
<!-- NASALib/dL@differentiation -->
<g id="node14" class="node">
<title>NASALib/dL@differentiation</title>
<ellipse fill="#e6f3ff" stroke="black" cx="366" cy="-541" rx="61.19" ry="18"/>
<text text-anchor="middle" x="366" y="-537.3" font-family="Times,serif" font-size="14.00">differentiation</text>
</g>
<!-- NASALib/dL@chain_rule_re&#45;&gt;NASALib/dL@differentiation -->
<g id="edge12" class="edge">
<title>NASALib/dL@chain_rule_re&#45;&gt;NASALib/dL@differentiation</title>
<path fill="none" stroke="black" d="M612.4,-672.85C599.58,-669.65 589,-667 589,-667 589,-667 385,-631 385,-631 385,-631 375,-614 375,-614"/>
</g>
<!-- NASALib/mv_analysis -->
<g id="node24" class="node">
<title>NASALib/mv_analysis</title>
<polygon fill="#fcfcd7" stroke="black" points="1279.5,-124 1194.5,-124 1194.5,-88 1279.5,-88 1279.5,-124"/>
<text text-anchor="middle" x="1237" y="-102.3" font-family="Times,serif" font-size="14.00">mv_analysis</text>
</g>
<!-- NASALib/dL@chain_rule_re&#45;&gt;NASALib/mv_analysis -->
<g id="edge13" class="edge">
<title>NASALib/dL@chain_rule_re&#45;&gt;NASALib/mv_analysis</title>
<path fill="none" stroke="black" d="M1299,-180C1299,-180 1276.82,-153.88 1258.99,-132.89"/>
<polygon fill="black" stroke="black" points="1261.81,-130.81 1252.67,-125.45 1256.48,-135.34 1261.81,-130.81"/>
<path fill="none" stroke="black" d="M711.21,-677.29C826.38,-663.03 1085,-631 1085,-631 1085,-631 1185,-542 1185,-542 1185,-542 1185,-542 1185,-324 1185,-324 1299,-182 1299,-182"/>
</g>
<!-- NASALib/dL@continuity_props -->
<g id="node10" class="node">
<title>NASALib/dL@continuity_props</title>
<ellipse fill="#e6f3ff" stroke="black" cx="286" cy="-685" rx="70.39" ry="18"/>
<text text-anchor="middle" x="286" y="-681.3" font-family="Times,serif" font-size="14.00">continuity_props</text>
</g>
<!-- NASALib/dL@continuity_props&#45;&gt;NASALib/analysis -->
<g id="edge14" class="edge">
<title>NASALib/dL@continuity_props&#45;&gt;NASALib/analysis</title>
<path fill="none" stroke="black" d="M339.67,-673.14C356.14,-669.81 370,-667 370,-667 370,-667 995,-542 995,-542 995,-542 995,-542 995,-324 995,-324 995,-182 995,-182"/>
</g>
<!-- NASALib/dL@continuity_props&#45;&gt;NASALib/dL@ODEs_equiv -->
<g id="edge15" class="edge">
<title>NASALib/dL@continuity_props&#45;&gt;NASALib/dL@ODEs_equiv</title>
<path fill="none" stroke="black" d="M286,-666.85C286,-630.14 286,-543.66 286,-498.53"/>
<polygon fill="black" stroke="black" points="289.5,-498.75 286,-488.75 282.5,-498.75 289.5,-498.75"/>
</g>
<!-- NASALib/dL@continuity_re_def -->
<g id="node11" class="node">
<title>NASALib/dL@continuity_re_def</title>
<ellipse fill="#e6f3ff" stroke="black" cx="194" cy="-613" rx="73.39" ry="18"/>
<text text-anchor="middle" x="194" y="-609.3" font-family="Times,serif" font-size="14.00">continuity_re_def</text>
</g>
<!-- NASALib/dL@continuity_props&#45;&gt;NASALib/dL@continuity_re_def -->
<g id="edge16" class="edge">
<title>NASALib/dL@continuity_props&#45;&gt;NASALib/dL@continuity_re_def</title>
<path fill="none" stroke="black" d="M264.2,-667.41C252.4,-658.43 237.62,-647.19 224.68,-637.34"/>
<polygon fill="black" stroke="black" points="226.93,-634.66 216.85,-631.39 222.69,-640.23 226.93,-634.66"/>
</g>
<!-- NASALib/dL@continuity_re_def&#45;&gt;NASALib/dL@bool_expr -->
<g id="edge17" class="edge">
<title>NASALib/dL@continuity_re_def&#45;&gt;NASALib/dL@bool_expr</title>
<path fill="none" stroke="black" d="M180.99,-594.88C154.97,-560.65 99,-487 99,-487 99,-487 69,-398 69,-398"/>
<path fill="none" stroke="black" d="M69,-396C69,-396 79,-307 79,-307 79,-307 179.67,-281.83 242.27,-266.18"/>
<polygon fill="black" stroke="black" points="242.78,-269.66 251.63,-263.84 241.08,-262.87 242.78,-269.66"/>
</g>
<!-- NASALib/dL@continuity_re_def&#45;&gt;NASALib/dL@differentiation -->
<g id="edge18" class="edge">
<title>NASALib/dL@continuity_re_def&#45;&gt;NASALib/dL@differentiation</title>
<path fill="none" stroke="black" d="M230.9,-596.98C257.24,-586.26 292.84,-571.78 320.87,-560.37"/>
<polygon fill="black" stroke="black" points="321.87,-563.74 329.81,-556.73 319.23,-557.25 321.87,-563.74"/>
</g>
<!-- NASALib/dL@continuity_re_props -->
<g id="node12" class="node">
<title>NASALib/dL@continuity_re_props</title>
<ellipse fill="#e6f3ff" stroke="black" cx="117" cy="-685" rx="81.49" ry="18"/>
<text text-anchor="middle" x="117" y="-681.3" font-family="Times,serif" font-size="14.00">continuity_re_props</text>
</g>
<!-- NASALib/dL@continuity_re_props&#45;&gt;NASALib/dL@continuity_re_def -->
<g id="edge19" class="edge">
<title>NASALib/dL@continuity_re_props&#45;&gt;NASALib/dL@continuity_re_def</title>
<path fill="none" stroke="black" d="M135.64,-667.05C145.1,-658.46 156.76,-647.86 167.16,-638.4"/>
<polygon fill="black" stroke="black" points="169.37,-641.12 174.41,-631.81 164.66,-635.94 169.37,-641.12"/>
</g>
<!-- NASALib/dL@diff_re_props -->
<g id="node13" class="node">
<title>NASALib/dL@diff_re_props</title>
<ellipse fill="#e6f3ff" stroke="black" cx="657" cy="-757" rx="58.49" ry="18"/>
<text text-anchor="middle" x="657" y="-753.3" font-family="Times,serif" font-size="14.00">diff_re_props</text>
</g>
<!-- NASALib/dL@diff_re_props&#45;&gt;NASALib/dL@chain_rule_re -->
<g id="edge20" class="edge">
<title>NASALib/dL@diff_re_props&#45;&gt;NASALib/dL@chain_rule_re</title>
<path fill="none" stroke="black" d="M657,-738.7C657,-731.41 657,-722.73 657,-714.54"/>
<polygon fill="black" stroke="black" points="660.5,-714.62 657,-704.62 653.5,-714.62 660.5,-714.62"/>
</g>
<!-- NASALib/dL@diff_re_props&#45;&gt;NASALib/mv_analysis -->
<g id="edge21" class="edge">
<title>NASALib/dL@diff_re_props&#45;&gt;NASALib/mv_analysis</title>
<path fill="none" stroke="black" d="M712.2,-750.6C850.17,-737.11 1199,-703 1199,-703 1199,-703 1261,-614 1261,-614 1261,-614 1261,-614 1261,-396 1261,-396 1299,-182 1299,-182"/>
</g>
<!-- NASALib/dL@differentiation&#45;&gt;NASALib/ODEs -->
<g id="edge22" class="edge">
<title>NASALib/dL@differentiation&#45;&gt;NASALib/ODEs</title>
<path fill="none" stroke="black" d="M919,-180C919,-180 876,-155 876,-155 876,-155 867.88,-144.46 859.25,-133.26"/>
<polygon fill="black" stroke="black" points="862.16,-131.31 853.28,-125.53 856.61,-135.58 862.16,-131.31"/>
<path fill="none" stroke="black" d="M413.5,-529.23C428.38,-525.86 441,-523 441,-523 441,-523 919,-470 919,-470"/>
<path fill="none" stroke="black" d="M919,-468C919,-468 905,-415 905,-415 905,-415 905,-379 905,-379 905,-379 919,-182 919,-182"/>
</g>
<!-- NASALib/dL@differentiation&#45;&gt;NASALib/analysis -->
<g id="edge23" class="edge">
<title>NASALib/dL@differentiation&#45;&gt;NASALib/analysis</title>
<path fill="none" stroke="black" d="M919,-468C919,-468 919,-398 919,-398"/>
</g>
<!-- NASALib/dL@differentiation&#45;&gt;NASALib/dL@ODEs_equiv -->
<g id="edge24" class="edge">
<title>NASALib/dL@differentiation&#45;&gt;NASALib/dL@ODEs_equiv</title>
<path fill="none" stroke="black" d="M347.04,-523.41C336.91,-514.54 324.25,-503.47 313.09,-493.71"/>
<polygon fill="black" stroke="black" points="315.52,-491.18 305.69,-487.23 310.91,-496.44 315.52,-491.18"/>
</g>
<!-- NASALib/dL@substitution -->
<g id="node22" class="node">
<title>NASALib/dL@substitution</title>
<ellipse fill="#e6f3ff" stroke="black" cx="160" cy="-469" rx="51.99" ry="18"/>
<text text-anchor="middle" x="160" y="-465.3" font-family="Times,serif" font-size="14.00">substitution</text>
</g>
<!-- NASALib/dL@differentiation&#45;&gt;NASALib/dL@substitution -->
<g id="edge25" class="edge">
<title>NASALib/dL@differentiation&#45;&gt;NASALib/dL@substitution</title>
<path fill="none" stroke="black" d="M327.25,-526.83C293.14,-515.24 243.36,-498.33 206.98,-485.97"/>
<polygon fill="black" stroke="black" points="208.18,-482.68 197.59,-482.77 205.93,-489.3 208.18,-482.68"/>
</g>
<!-- NASALib/lnexp -->
<g id="node23" class="node">
<title>NASALib/lnexp</title>
<polygon fill="#fcfcd7" stroke="black" points="1026,-124 972,-124 972,-88 1026,-88 1026,-124"/>
<text text-anchor="middle" x="999" y="-102.3" font-family="Times,serif" font-size="14.00">lnexp</text>
</g>
<!-- NASALib/dL@differentiation&#45;&gt;NASALib/lnexp -->
<g id="edge26" class="edge">
<title>NASALib/dL@differentiation&#45;&gt;NASALib/lnexp</title>
<path fill="none" stroke="black" d="M919,-180C919,-180 943,-163 943,-163 943,-163 963,-155 963,-155 963,-155 970.9,-144.46 979.3,-133.26"/>
<polygon fill="black" stroke="black" points="981.9,-135.64 985.1,-125.54 976.3,-131.44 981.9,-135.64"/>
</g>
<!-- NASALib/reals -->
<g id="node26" class="node">
<title>NASALib/reals</title>
<polygon fill="#fcfcd7" stroke="black" points="1176,-124 1122,-124 1122,-88 1176,-88 1176,-124"/>
<text text-anchor="middle" x="1149" y="-102.3" font-family="Times,serif" font-size="14.00">reals</text>
</g>
<!-- NASALib/dL@differentiation&#45;&gt;NASALib/reals -->
<g id="edge27" class="edge">
<title>NASALib/dL@differentiation&#45;&gt;NASALib/reals</title>
<path fill="none" stroke="black" d="M413.5,-529.23C428.38,-525.86 441,-523 441,-523 441,-523 933,-487 933,-487 933,-487 1085,-343 1085,-343 1085,-343 1186,-182 1186,-182"/>
<path fill="none" stroke="black" d="M1186,-180C1186,-180 1173.35,-155.04 1162.84,-134.3"/>
<polygon fill="black" stroke="black" points="1166.1,-132.99 1158.45,-125.65 1159.85,-136.15 1166.1,-132.99"/>
</g>
<!-- NASALib/structures -->
<g id="node27" class="node">
<title>NASALib/structures</title>
<polygon fill="#fcfcd7" stroke="black" points="953.5,-124 884.5,-124 884.5,-88 953.5,-88 953.5,-124"/>
<text text-anchor="middle" x="919" y="-102.3" font-family="Times,serif" font-size="14.00">structures</text>
</g>
<!-- NASALib/dL@differentiation&#45;&gt;NASALib/structures -->
<g id="edge28" class="edge">
<title>NASALib/dL@differentiation&#45;&gt;NASALib/structures</title>
<path fill="none" stroke="black" d="M919,-180C919,-180 919,-156.16 919,-135.73"/>
<polygon fill="black" stroke="black" points="922.5,-135.81 919,-125.81 915.5,-135.81 922.5,-135.81"/>
</g>
<!-- NASALib/dL@dl_solution -->
<g id="node15" class="node">
<title>NASALib/dL@dl_solution</title>
<ellipse fill="#e6f3ff" stroke="black" cx="375" cy="-829" rx="50.09" ry="18"/>
<text text-anchor="middle" x="375" y="-825.3" font-family="Times,serif" font-size="14.00">dl_solution</text>
</g>
<!-- NASALib/dL@dl_solution&#45;&gt;NASALib/analysis -->
<g id="edge29" class="edge">
<title>NASALib/dL@dl_solution&#45;&gt;NASALib/analysis</title>
<path fill="none" stroke="black" d="M420.65,-821.28C596.99,-795.32 1224,-703 1224,-703 1224,-703 1299,-686 1299,-686 1299,-686 1299,-686 1299,-396 1299,-396 1237,-307 1237,-307 1237,-307 1113,-155 1113,-155 1113,-155 1104.44,-144.46 1095.34,-133.26"/>
<polygon fill="black" stroke="black" points="1098.06,-131.06 1089.03,-125.5 1092.62,-135.47 1098.06,-131.06"/>
</g>
<!-- NASALib/dL@dynamic_logic -->
<g id="node16" class="node">
<title>NASALib/dL@dynamic_logic</title>
<ellipse fill="#e6f3ff" stroke="black" cx="375" cy="-757" rx="63.89" ry="18"/>
<text text-anchor="middle" x="375" y="-753.3" font-family="Times,serif" font-size="14.00">dynamic_logic</text>
</g>
<!-- NASALib/dL@dl_solution&#45;&gt;NASALib/dL@dynamic_logic -->
<g id="edge30" class="edge">
<title>NASALib/dL@dl_solution&#45;&gt;NASALib/dL@dynamic_logic</title>
<path fill="none" stroke="black" d="M375,-810.7C375,-803.41 375,-794.73 375,-786.54"/>
<polygon fill="black" stroke="black" points="378.5,-786.62 375,-776.62 371.5,-786.62 378.5,-786.62"/>
</g>
<!-- NASALib/dL@dynamic_logic&#45;&gt;NASALib/ODEs -->
<g id="edge31" class="edge">
<title>NASALib/dL@dynamic_logic&#45;&gt;NASALib/ODEs</title>
<path fill="none" stroke="black" d="M435.55,-750.77C623.6,-734.52 1185,-686 1185,-686"/>
<path fill="none" stroke="black" d="M1185,-684C1185,-684 1147,-542 1147,-542 1147,-542 1147,-542 1147,-396 1147,-396 933,-163 933,-163 933,-163 876,-155 876,-155 876,-155 867.88,-144.46 859.25,-133.26"/>
<polygon fill="black" stroke="black" points="862.16,-131.31 853.28,-125.53 856.61,-135.58 862.16,-131.31"/>
</g>
<!-- NASALib/dL@dynamic_logic&#45;&gt;NASALib/dL@ODEs_equiv -->
<g id="edge32" class="edge">
<title>NASALib/dL@dynamic_logic&#45;&gt;NASALib/dL@ODEs_equiv</title>
<path fill="none" stroke="black" d="M160,-540C160,-540 211.76,-511.25 248.93,-490.6"/>
<polygon fill="black" stroke="black" points="250.6,-493.67 257.65,-485.75 247.21,-487.55 250.6,-493.67"/>
</g>
<!-- NASALib/dL@dynamic_logic&#45;&gt;NASALib/dL@bound_variables_def -->
<g id="edge33" class="edge">
<title>NASALib/dL@dynamic_logic&#45;&gt;NASALib/dL@bound_variables_def</title>
<path fill="none" stroke="black" d="M102,-612C102,-612 112,-595 112,-595 112,-595 160,-542 160,-542"/>
<path fill="none" stroke="black" d="M160,-540C160,-540 145,-523 145,-523 145,-523 99,-487 99,-487 99,-487 99,-451 99,-451 99,-451 127.85,-434.56 153.41,-419.99"/>
<polygon fill="black" stroke="black" points="155.07,-423.08 162.02,-415.08 151.6,-416.99 155.07,-423.08"/>
</g>
<!-- NASALib/dL@dynamic_logic&#45;&gt;NASALib/dL@bounded_star_semantics -->
<g id="edge34" class="edge">
<title>NASALib/dL@dynamic_logic&#45;&gt;NASALib/dL@bounded_star_semantics</title>
<path fill="none" stroke="black" d="M102,-612C102,-612 95,-487 95,-487 95,-487 95,-451 95,-451 95,-451 99,-379 99,-379 99,-379 171.46,-359 227.35,-343.57"/>
<polygon fill="black" stroke="black" points="228.11,-346.99 236.82,-340.96 226.25,-340.24 228.11,-346.99"/>
<path fill="none" stroke="black" d="M319.86,-747.6C221.73,-732.66 27,-703 27,-703 27,-703 27,-667 27,-667 27,-667 102,-614 102,-614"/>
</g>
<!-- NASALib/dL@dynamic_logic&#45;&gt;NASALib/dL@chain_rule_re -->
<g id="edge35" class="edge">
<title>NASALib/dL@dynamic_logic&#45;&gt;NASALib/dL@chain_rule_re</title>
<path fill="none" stroke="black" d="M421.96,-744.37C484.96,-728.77 589,-703 589,-703 589,-703 594,-701.75 601.29,-699.93"/>
<polygon fill="black" stroke="black" points="602.08,-703.34 610.93,-697.52 600.38,-696.55 602.08,-703.34"/>
</g>
<!-- NASALib/dL@dynamic_logic&#45;&gt;NASALib/dL@continuity_props -->
<g id="edge36" class="edge">
<title>NASALib/dL@dynamic_logic&#45;&gt;NASALib/dL@continuity_props</title>
<path fill="none" stroke="black" d="M354.36,-739.76C342.95,-730.79 328.58,-719.49 315.96,-709.56"/>
<polygon fill="black" stroke="black" points="318.36,-707 308.34,-703.57 314.03,-712.5 318.36,-707"/>
</g>
<!-- NASALib/dL@dynamic_logic&#45;&gt;NASALib/dL@differentiation -->
<g id="edge37" class="edge">
<title>NASALib/dL@dynamic_logic&#45;&gt;NASALib/dL@differentiation</title>
<path fill="none" stroke="black" d="M375,-612C375,-612 372.15,-589.87 369.66,-570.5"/>
<polygon fill="black" stroke="black" points="373.16,-570.28 368.42,-560.8 366.22,-571.17 373.16,-570.28"/>
<path fill="none" stroke="black" d="M375,-684C375,-684 375,-614 375,-614"/>
<path fill="none" stroke="black" d="M375,-738.7C375,-717.97 375,-686 375,-686"/>
</g>
<!-- NASALib/dL@fresh_props -->
<g id="node17" class="node">
<title>NASALib/dL@fresh_props</title>
<ellipse fill="#e6f3ff" stroke="black" cx="446" cy="-613" rx="51.99" ry="18"/>
<text text-anchor="middle" x="446" y="-609.3" font-family="Times,serif" font-size="14.00">fresh_props</text>
</g>
<!-- NASALib/dL@dynamic_logic&#45;&gt;NASALib/dL@fresh_props -->
<g id="edge38" class="edge">
<title>NASALib/dL@dynamic_logic&#45;&gt;NASALib/dL@fresh_props</title>
<path fill="none" stroke="black" d="M375,-684C375,-684 385,-667 385,-667 385,-667 402.71,-651.61 419.05,-637.42"/>
<polygon fill="black" stroke="black" points="420.97,-640.38 426.22,-631.18 416.38,-635.1 420.97,-640.38"/>
</g>
<!-- NASALib/dL@more_derivative_props -->
<g id="node21" class="node">
<title>NASALib/dL@more_derivative_props</title>
<ellipse fill="#e6f3ff" stroke="black" cx="487" cy="-685" rx="92.88" ry="18"/>
<text text-anchor="middle" x="487" y="-681.3" font-family="Times,serif" font-size="14.00">more_derivative_props</text>
</g>
<!-- NASALib/dL@dynamic_logic&#45;&gt;NASALib/dL@more_derivative_props -->
<g id="edge39" class="edge">
<title>NASALib/dL@dynamic_logic&#45;&gt;NASALib/dL@more_derivative_props</title>
<path fill="none" stroke="black" d="M400.41,-740.12C415.41,-730.74 434.63,-718.73 451.15,-708.4"/>
<polygon fill="black" stroke="black" points="452.61,-711.62 459.23,-703.35 448.9,-705.69 452.61,-711.62"/>
</g>
<!-- NASALib/dL@dynamic_logic&#45;&gt;NASALib/dL@substitution -->
<g id="edge40" class="edge">
<title>NASALib/dL@dynamic_logic&#45;&gt;NASALib/dL@substitution</title>
<path fill="none" stroke="black" d="M160,-540C160,-540 160,-518.08 160,-498.77"/>
<polygon fill="black" stroke="black" points="163.5,-498.82 160,-488.82 156.5,-498.82 163.5,-498.82"/>
</g>
<!-- NASALib/dL@dynamic_logic&#45;&gt;NASALib/reals -->
<g id="edge41" class="edge">
<title>NASALib/dL@dynamic_logic&#45;&gt;NASALib/reals</title>
<path fill="none" stroke="black" d="M1223,-324C1223,-324 1186,-182 1186,-182"/>
</g>
<!-- NASALib/dL@dynamic_logic&#45;&gt;NASALib/structures -->
<g id="edge42" class="edge">
<title>NASALib/dL@dynamic_logic&#45;&gt;NASALib/structures</title>
<path fill="none" stroke="black" d="M1185,-684C1185,-684 1223,-542 1223,-542 1223,-542 1223,-542 1223,-468 1223,-468 1223,-326 1223,-326"/>
<path fill="none" stroke="black" d="M1223,-324C1223,-324 963,-155 963,-155 963,-155 952.96,-144.04 942.47,-132.6"/>
<polygon fill="black" stroke="black" points="945.25,-130.45 935.91,-125.44 940.08,-135.18 945.25,-130.45"/>
</g>
<!-- NASALib/dL@fresh_props&#45;&gt;NASALib/dL@bounded_star_semantics -->
<g id="edge43" class="edge">
<title>NASALib/dL@fresh_props&#45;&gt;NASALib/dL@bounded_star_semantics</title>
<path fill="none" stroke="black" d="M446,-540C446,-540 436,-523 436,-523 436,-523 349.94,-406.07 310.42,-352.38"/>
<polygon fill="black" stroke="black" points="313.26,-350.34 304.51,-344.36 307.62,-354.49 313.26,-350.34"/>
<path fill="none" stroke="black" d="M446,-594.7C446,-573.97 446,-542 446,-542"/>
</g>
<!-- NASALib/dL@fresh_props&#45;&gt;NASALib/dL@differentiation -->
<g id="edge44" class="edge">
<title>NASALib/dL@fresh_props&#45;&gt;NASALib/dL@differentiation</title>
<path fill="none" stroke="black" d="M427.45,-595.76C417.32,-586.91 404.59,-575.77 393.35,-565.93"/>
<polygon fill="black" stroke="black" points="395.7,-563.34 385.87,-559.39 391.09,-568.61 395.7,-563.34"/>
</g>
<!-- NASALib/dL@fresh_props&#45;&gt;NASALib/lnexp -->
<g id="edge45" class="edge">
<title>NASALib/dL@fresh_props&#45;&gt;NASALib/lnexp</title>
<path fill="none" stroke="black" d="M446,-540C446,-540 933,-487 933,-487 933,-487 957,-398 957,-398 957,-398 957,-398 957,-252 957,-252 981,-163 981,-163 981,-163 985.43,-149.21 989.9,-135.32"/>
<polygon fill="black" stroke="black" points="993.21,-136.44 992.94,-125.85 986.55,-134.3 993.21,-136.44"/>
</g>
<!-- NASALib/dL@hp_def&#45;&gt;NASALib/structures -->
<g id="edge46" class="edge">
<title>NASALib/dL@hp_def&#45;&gt;NASALib/structures</title>
<path fill="none" stroke="black" d="M410.69,-38.13C523.85,-48.33 875,-80 875,-80 875,-80 876.3,-80.74 878.46,-81.97"/>
<polygon fill="black" stroke="black" points="876.7,-84.99 887.12,-86.89 880.16,-78.91 876.7,-84.99"/>
</g>
<!-- NASALib/dL@hp_expr&#45;&gt;NASALib/ODEs -->
<g id="edge47" class="edge">
<title>NASALib/dL@hp_expr&#45;&gt;NASALib/ODEs</title>
<path fill="none" stroke="black" d="M414.88,-176.88C476.09,-171.97 588,-163 588,-163 588,-163 803,-155 803,-155 803,-155 810.9,-144.46 819.3,-133.26"/>
<polygon fill="black" stroke="black" points="821.9,-135.64 825.1,-125.54 816.3,-131.44 821.9,-135.64"/>
</g>
<!-- NASALib/dL@hp_expr&#45;&gt;NASALib/analysis -->
<g id="edge48" class="edge">
<title>NASALib/dL@hp_expr&#45;&gt;NASALib/analysis</title>
<path fill="none" stroke="black" d="M415.74,-178.49C558.22,-173.09 1035,-155 1035,-155 1035,-155 1043.56,-144.46 1052.66,-133.26"/>
<polygon fill="black" stroke="black" points="1055.38,-135.47 1058.97,-125.5 1049.94,-131.06 1055.38,-135.47"/>
</g>
<!-- NASALib/dL@hp_expr&#45;&gt;NASALib/dL@HP -->
<g id="edge49" class="edge">
<title>NASALib/dL@hp_expr&#45;&gt;NASALib/dL@HP</title>
<path fill="none" stroke="black" d="M376,-162.7C376,-154.67 376,-144.9 376,-135.8"/>
<polygon fill="black" stroke="black" points="379.5,-135.94 376,-125.94 372.5,-135.94 379.5,-135.94"/>
</g>
<!-- NASALib/dL@hp_props -->
<g id="node20" class="node">
<title>NASALib/dL@hp_props</title>
<ellipse fill="#e6f3ff" stroke="black" cx="132" cy="-325" rx="43.59" ry="18"/>
<text text-anchor="middle" x="132" y="-321.3" font-family="Times,serif" font-size="14.00">hp_props</text>
</g>
<!-- NASALib/dL@hp_props&#45;&gt;NASALib/dL@bool_expr -->
<g id="edge50" class="edge">
<title>NASALib/dL@hp_props&#45;&gt;NASALib/dL@bool_expr</title>
<path fill="none" stroke="black" d="M161.16,-311.16C186.36,-300.07 223.03,-283.93 250.97,-271.62"/>
<polygon fill="black" stroke="black" points="252.09,-274.96 259.83,-267.72 249.27,-268.55 252.09,-274.96"/>
</g>
<!-- NASALib/dL@more_derivative_props&#45;&gt;NASALib/analysis -->
<g id="edge51" class="edge">
<title>NASALib/dL@more_derivative_props&#45;&gt;NASALib/analysis</title>
<path fill="none" stroke="black" d="M555.88,-672.52C574.2,-669.47 589,-667 589,-667 589,-667 1009,-631 1009,-631 1009,-631 1071,-542 1071,-542 1071,-542 1071,-542 1071,-252 1071,-252 1072.53,-178 1073.41,-135.73"/>
<polygon fill="black" stroke="black" points="1076.9,-136.07 1073.61,-126 1069.9,-135.93 1076.9,-136.07"/>
</g>
<!-- NASALib/dL@substitution&#45;&gt;NASALib/dL@bool_expr -->
<g id="edge52" class="edge">
<title>NASALib/dL@substitution&#45;&gt;NASALib/dL@bool_expr</title>
<path fill="none" stroke="black" d="M139.35,-452.12C112.5,-431.46 69,-398 69,-398"/>
</g>
<!-- NASALib/dL@substitution&#45;&gt;NASALib/dL@bound_variables_def -->
<g id="edge53" class="edge">
<title>NASALib/dL@substitution&#45;&gt;NASALib/dL@bound_variables_def</title>
<path fill="none" stroke="black" d="M167.75,-451.05C171.23,-443.43 175.44,-434.23 179.36,-425.65"/>
<polygon fill="black" stroke="black" points="182.5,-427.2 183.47,-416.65 176.13,-424.29 182.5,-427.2"/>
</g>
<!-- NASALib/dL@substitution&#45;&gt;NASALib/structures -->
<g id="edge54" class="edge">
<title>NASALib/dL@substitution&#45;&gt;NASALib/structures</title>
<path fill="none" stroke="black" d="M197.3,-456.02C303.86,-421.78 602,-326 602,-326 602,-326 602,-326 602,-252 602,-252 875,-155 875,-155 875,-155 885.04,-144.04 895.53,-132.6"/>
<polygon fill="black" stroke="black" points="897.92,-135.18 902.09,-125.44 892.75,-130.45 897.92,-135.18"/>
</g>
</g>
</svg>
