<?xml version="1.0" encoding="UTF-8" standalone="no"?>
<!DOCTYPE svg PUBLIC "-//W3C//DTD SVG 1.1//EN"
 "http://www.w3.org/Graphics/SVG/1.1/DTD/svg11.dtd">
<!-- Generated by graphviz version 7.0.2 (20221119.0110)
 -->
<!-- Title: all&#45;libraries&#45;Liveness&#45;zoom_Liveness Pages: 1 -->
<svg width="839pt" height="315pt"
 viewBox="0.00 0.00 839.35 315.00" xmlns="http://www.w3.org/2000/svg" xmlns:xlink="http://www.w3.org/1999/xlink">
<g id="graph0" class="graph" transform="scale(1 1) rotate(0) translate(4 311)">
<title>all&#45;libraries&#45;Liveness&#45;zoom_Liveness</title>
<polygon fill="white" stroke="none" points="-4,4 -4,-311 835.35,-311 835.35,4 -4,4"/>
<g id="clust1" class="cluster">
<title>cluster_dL/Liveness</title>
<polygon fill="none" stroke="black" points="8,-168 8,-297 714.35,-297 714.35,-168 8,-168"/>
<text text-anchor="middle" x="361.17" y="-281.8" font-family="Times,serif" font-size="14.00">dL/Liveness</text>
</g>
<g id="clust2" class="cluster">
<title>cluster_pvslib</title>
<polygon fill="none" stroke="black" points="734.35,-8 734.35,-299 823.35,-299 823.35,-8 734.35,-8"/>
<text text-anchor="middle" x="778.85" y="-283.8" font-family="Times,serif" font-size="14.00">pvslib</text>
</g>
<!-- dL/Liveness@analytic_equiv -->
<g id="node1" class="node">
<title>dL/Liveness@analytic_equiv</title>
<ellipse fill="#e6f3ff" stroke="black" cx="424.67" cy="-194" rx="62.29" ry="18"/>
<text text-anchor="middle" x="424.67" y="-190.3" font-family="Times,serif" font-size="14.00">analytic_equiv</text>
</g>
<!-- dL/Liveness@semi_algebraic_def -->
<g id="node5" class="node">
<title>dL/Liveness@semi_algebraic_def</title>
<ellipse fill="#e6f3ff" stroke="black" cx="626.41" cy="-248" rx="79.89" ry="18"/>
<text text-anchor="middle" x="626.41" y="-244.3" font-family="Times,serif" font-size="14.00">semi_algebraic_def</text>
</g>
<!-- dL/Liveness@analytic_equiv&#45;&gt;dL/Liveness@semi_algebraic_def -->
<g id="edge1" class="edge">
<title>dL/Liveness@analytic_equiv&#45;&gt;dL/Liveness@semi_algebraic_def</title>
<path fill="none" stroke="black" d="M471.24,-206.32C498.4,-213.66 533.25,-223.09 562.95,-231.11"/>
<polygon fill="black" stroke="black" points="562.02,-234.49 572.59,-233.72 563.85,-227.73 562.02,-234.49"/>
</g>
<!-- pvslib/dL -->
<g id="node6" class="node">
<title>pvslib/dL</title>
<polygon fill="#fcfcd7" stroke="black" points="805.85,-106 751.85,-106 751.85,-70 805.85,-70 805.85,-106"/>
<text text-anchor="middle" x="778.85" y="-84.3" font-family="Times,serif" font-size="14.00">dL</text>
</g>
<!-- dL/Liveness@analytic_equiv&#45;&gt;pvslib/dL -->
<g id="edge2" class="edge">
<title>dL/Liveness@analytic_equiv&#45;&gt;pvslib/dL</title>
<path fill="none" stroke="black" d="M627.41,-164C667.07,-158.19 680.88,-162.06 714.35,-140 726.23,-132.17 723.71,-124.44 734.35,-115 736.78,-112.84 739.4,-110.75 742.12,-108.75"/>
<polygon fill="black" stroke="black" points="743.98,-111.71 750.27,-103.19 740.04,-105.93 743.98,-111.71"/>
<path fill="none" stroke="black" d="M480.33,-185.68C520.47,-179.6 576.31,-171.19 625.41,-164"/>
</g>
<!-- pvslib/mult_poly -->
<g id="node7" class="node">
<title>pvslib/mult_poly</title>
<polygon fill="#fcfcd7" stroke="black" points="815.35,-214 742.35,-214 742.35,-178 815.35,-178 815.35,-214"/>
<text text-anchor="middle" x="778.85" y="-192.3" font-family="Times,serif" font-size="14.00">mult_poly</text>
</g>
<!-- dL/Liveness@analytic_equiv&#45;&gt;pvslib/mult_poly -->
<g id="edge3" class="edge">
<title>dL/Liveness@analytic_equiv&#45;&gt;pvslib/mult_poly</title>
<path fill="none" stroke="black" d="M627.41,-164C662.43,-158.87 701.52,-167.63 731.08,-177.28"/>
<polygon fill="black" stroke="black" points="729.88,-180.57 740.48,-180.5 732.15,-173.94 729.88,-180.57"/>
</g>
<!-- pvslib/reals -->
<g id="node8" class="node">
<title>pvslib/reals</title>
<polygon fill="#fcfcd7" stroke="black" points="805.85,-160 751.85,-160 751.85,-124 805.85,-124 805.85,-160"/>
<text text-anchor="middle" x="778.85" y="-138.3" font-family="Times,serif" font-size="14.00">reals</text>
</g>
<!-- dL/Liveness@analytic_equiv&#45;&gt;pvslib/reals -->
<g id="edge4" class="edge">
<title>dL/Liveness@analytic_equiv&#45;&gt;pvslib/reals</title>
<path fill="none" stroke="black" d="M627.41,-164C665.8,-158.38 709.7,-151.96 740.13,-147.51"/>
<polygon fill="black" stroke="black" points="740.6,-150.98 749.99,-146.07 739.59,-144.05 740.6,-150.98"/>
</g>
<!-- dL/Liveness@bool_expr_SA_props -->
<g id="node2" class="node">
<title>dL/Liveness@bool_expr_SA_props</title>
<ellipse fill="#e6f3ff" stroke="black" cx="424.67" cy="-248" rx="85.59" ry="18"/>
<text text-anchor="middle" x="424.67" y="-244.3" font-family="Times,serif" font-size="14.00">bool_expr_SA_props</text>
</g>
<!-- dL/Liveness@bool_expr_SA_props&#45;&gt;dL/Liveness@semi_algebraic_def -->
<g id="edge5" class="edge">
<title>dL/Liveness@bool_expr_SA_props&#45;&gt;dL/Liveness@semi_algebraic_def</title>
<path fill="none" stroke="black" d="M510.67,-248C518.68,-248 526.82,-248 534.88,-248"/>
<polygon fill="black" stroke="black" points="534.68,-251.5 544.68,-248 534.68,-244.5 534.68,-251.5"/>
</g>
<!-- dL/Liveness@bool_expr_SA_props&#45;&gt;pvslib/mult_poly -->
<g id="edge6" class="edge">
<title>dL/Liveness@bool_expr_SA_props&#45;&gt;pvslib/mult_poly</title>
<path fill="none" stroke="black" d="M481.34,-234.18C501.73,-229.49 525.05,-224.54 546.46,-221 609.86,-210.52 683.78,-203.42 730.68,-199.53"/>
<polygon fill="black" stroke="black" points="730.81,-203.04 740.5,-198.74 730.25,-196.06 730.81,-203.04"/>
</g>
<!-- dL/Liveness@differential_variant -->
<g id="node3" class="node">
<title>dL/Liveness@differential_variant</title>
<ellipse fill="#e6f3ff" stroke="black" cx="224.23" cy="-194" rx="78.79" ry="18"/>
<text text-anchor="middle" x="224.23" y="-190.3" font-family="Times,serif" font-size="14.00">differential_variant</text>
</g>
<!-- dL/Liveness@differential_variant&#45;&gt;dL/Liveness@analytic_equiv -->
<g id="edge7" class="edge">
<title>dL/Liveness@differential_variant&#45;&gt;dL/Liveness@analytic_equiv</title>
<path fill="none" stroke="black" d="M303.38,-194C319.09,-194 335.53,-194 351.05,-194"/>
<polygon fill="black" stroke="black" points="350.64,-197.5 360.64,-194 350.64,-190.5 350.64,-197.5"/>
</g>
<!-- dL/Liveness@differential_variant&#45;&gt;pvslib/dL -->
<g id="edge8" class="edge">
<title>dL/Liveness@differential_variant&#45;&gt;pvslib/dL</title>
<path fill="none" stroke="black" d="M278.56,-180.61C297.54,-176.04 319.11,-171.05 338.88,-167 504.78,-132.97 548.17,-134.68 714.35,-102 722.8,-100.34 731.86,-98.42 740.41,-96.55"/>
<polygon fill="black" stroke="black" points="741.16,-99.97 750.17,-94.39 739.65,-93.14 741.16,-99.97"/>
</g>
<!-- dL/Liveness@dubins_ex -->
<g id="node4" class="node">
<title>dL/Liveness@dubins_ex</title>
<ellipse fill="#e6f3ff" stroke="black" cx="62.8" cy="-194" rx="46.59" ry="18"/>
<text text-anchor="middle" x="62.8" y="-190.3" font-family="Times,serif" font-size="14.00">dubins_ex</text>
</g>
<!-- dL/Liveness@dubins_ex&#45;&gt;dL/Liveness@bool_expr_SA_props -->
<g id="edge9" class="edge">
<title>dL/Liveness@dubins_ex&#45;&gt;dL/Liveness@bool_expr_SA_props</title>
<path fill="none" stroke="black" d="M96.77,-206.74C111.5,-211.94 129.2,-217.54 145.59,-221 205.85,-233.71 274.74,-240.45 328.88,-244.02"/>
<polygon fill="black" stroke="black" points="328.49,-247.5 338.69,-244.64 328.93,-240.52 328.49,-247.5"/>
</g>
<!-- dL/Liveness@dubins_ex&#45;&gt;dL/Liveness@differential_variant -->
<g id="edge10" class="edge">
<title>dL/Liveness@dubins_ex&#45;&gt;dL/Liveness@differential_variant</title>
<path fill="none" stroke="black" d="M109.48,-194C117.14,-194 125.31,-194 133.63,-194"/>
<polygon fill="black" stroke="black" points="133.51,-197.5 143.51,-194 133.51,-190.5 133.51,-197.5"/>
</g>
<!-- dL/Liveness@dubins_ex&#45;&gt;pvslib/dL -->
<g id="edge11" class="edge">
<title>dL/Liveness@dubins_ex&#45;&gt;pvslib/dL</title>
<path fill="none" stroke="black" d="M627.41,-88C665.65,-84.64 709.57,-85.14 740.05,-86.17"/>
<polygon fill="black" stroke="black" points="739.79,-89.66 749.91,-86.55 740.05,-82.67 739.79,-89.66"/>
</g>
<!-- pvslib/trig -->
<g id="node10" class="node">
<title>pvslib/trig</title>
<polygon fill="#fcfcd7" stroke="black" points="805.85,-52 751.85,-52 751.85,-16 805.85,-16 805.85,-52"/>
<text text-anchor="middle" x="778.85" y="-30.3" font-family="Times,serif" font-size="14.00">trig</text>
</g>
<!-- dL/Liveness@dubins_ex&#45;&gt;pvslib/trig -->
<g id="edge12" class="edge">
<title>dL/Liveness@dubins_ex&#45;&gt;pvslib/trig</title>
<path fill="none" stroke="black" d="M627.41,-88C667.91,-84.44 711.32,-67.27 741.05,-53.23"/>
<polygon fill="black" stroke="black" points="742.53,-56.41 750,-48.89 739.47,-50.11 742.53,-56.41"/>
<path fill="none" stroke="black" d="M97.71,-181.63C112.31,-176.61 129.65,-171.05 145.59,-167 355.05,-113.74 410.11,-106.92 625.41,-88"/>
</g>
<!-- dL/Liveness@semi_algebraic_def&#45;&gt;pvslib/dL -->
<g id="edge13" class="edge">
<title>dL/Liveness@semi_algebraic_def&#45;&gt;pvslib/dL</title>
<path fill="none" stroke="black" d="M656.58,-230.89C675.51,-218.42 699.35,-199.91 714.35,-178 730.94,-153.76 716.31,-138.18 734.35,-115 736.64,-112.05 739.35,-109.35 742.28,-106.88"/>
<polygon fill="black" stroke="black" points="744.25,-109.78 750.31,-101.09 740.15,-104.11 744.25,-109.78"/>
</g>
<!-- dL/Liveness@semi_algebraic_def&#45;&gt;pvslib/mult_poly -->
<g id="edge14" class="edge">
<title>dL/Liveness@semi_algebraic_def&#45;&gt;pvslib/mult_poly</title>
<path fill="none" stroke="black" d="M671.32,-232.82C690.17,-226.3 712.22,-218.69 731.34,-212.07"/>
<polygon fill="black" stroke="black" points="732.48,-215.38 740.79,-208.81 730.2,-208.77 732.48,-215.38"/>
</g>
<!-- pvslib/structures -->
<g id="node9" class="node">
<title>pvslib/structures</title>
<polygon fill="#fcfcd7" stroke="black" points="813.35,-268 744.35,-268 744.35,-232 813.35,-232 813.35,-268"/>
<text text-anchor="middle" x="778.85" y="-246.3" font-family="Times,serif" font-size="14.00">structures</text>
</g>
<!-- dL/Liveness@semi_algebraic_def&#45;&gt;pvslib/structures -->
<g id="edge15" class="edge">
<title>dL/Liveness@semi_algebraic_def&#45;&gt;pvslib/structures</title>
<path fill="none" stroke="black" d="M706.59,-249.05C715.54,-249.17 724.42,-249.29 732.71,-249.4"/>
<polygon fill="black" stroke="black" points="732.43,-252.9 742.47,-249.53 732.52,-245.9 732.43,-252.9"/>
</g>
</g>
</svg>
