<?xml version="1.0" encoding="UTF-8" standalone="no"?>
<!DOCTYPE svg PUBLIC "-//W3C//DTD SVG 1.1//EN"
 "http://www.w3.org/Graphics/SVG/1.1/DTD/svg11.dtd">
<!-- Generated by graphviz version 8.1.0 (20230707.0739)
 -->
<!-- Title: interval_arith Pages: 1 -->
<svg width="744pt" height="838pt"
 viewBox="0.00 0.00 744.00 837.50" xmlns="http://www.w3.org/2000/svg" xmlns:xlink="http://www.w3.org/1999/xlink">
<g id="graph0" class="graph" transform="scale(1 1) rotate(0) translate(4 833.5)">
<title>interval_arith</title>
<polygon fill="white" stroke="none" points="-4,4 -4,-833.5 740,-833.5 740,4 -4,4"/>
<g id="clust1" class="cluster">
<title>cluster_NASALib</title>
<polygon fill="none" stroke="black" points="202,-92.5 202,-821.5 728,-821.5 728,-92.5 202,-92.5"/>
<text text-anchor="middle" x="465" y="-804.2" font-family="Times,serif" font-size="14.00">NASALib</text>
</g>
<g id="clust2" class="cluster">
<title>cluster_PVS Prelude</title>
<polygon fill="none" stroke="black" points="605,-8 605,-84.5 693,-84.5 693,-8 605,-8"/>
<text text-anchor="middle" x="649" y="-67.2" font-family="Times,serif" font-size="14.00">PVS Prelude</text>
</g>
<g id="clust3" class="cluster">
<title>cluster_float</title>
<polygon fill="none" stroke="black" points="8,-596.5 8,-745 162,-745 162,-596.5 8,-596.5"/>
<text text-anchor="middle" x="85" y="-727.7" font-family="Times,serif" font-size="14.00">float</text>
</g>
<!-- float/fnd_bnd -->
<g id="node1" class="node">
<title>float/fnd_bnd</title>
<polygon fill="#fcfcd7" stroke="black" points="153.5,-712.5 92.5,-712.5 92.5,-676.5 153.5,-676.5 153.5,-712.5"/>
<text text-anchor="middle" x="123" y="-689.45" font-family="Times,serif" font-size="14.00">fnd_bnd</text>
</g>
<!-- float/fnd_unb -->
<g id="node2" class="node">
<title>float/fnd_unb</title>
<polygon fill="#fcfcd7" stroke="black" points="153.5,-640.5 92.5,-640.5 92.5,-604.5 153.5,-604.5 153.5,-640.5"/>
<text text-anchor="middle" x="123" y="-617.45" font-family="Times,serif" font-size="14.00">fnd_unb</text>
</g>
<!-- float/fnd_bnd&#45;&gt;float/fnd_unb -->
<g id="edge1" class="edge">
<title>float/fnd_bnd&#45;&gt;float/fnd_unb</title>
<path fill="none" stroke="black" d="M123,-676.2C123,-668.74 123,-659.82 123,-651.47"/>
<polygon fill="black" stroke="black" points="126.5,-651.6 123,-641.6 119.5,-651.6 126.5,-651.6"/>
</g>
<!-- nasalib/reals -->
<g id="node18" class="node">
<title>nasalib/reals</title>
<polygon fill="#fcfcd7" stroke="black" points="404,-280.5 350,-280.5 350,-244.5 404,-244.5 404,-280.5"/>
<text text-anchor="middle" x="377" y="-257.45" font-family="Times,serif" font-size="14.00">reals</text>
</g>
<!-- float/fnd_bnd&#45;&gt;nasalib/reals -->
<g id="edge2" class="edge">
<title>float/fnd_bnd&#45;&gt;nasalib/reals</title>
<path fill="none" stroke="black" d="M202,-333.5C202,-333.5 336,-280.5 336,-280.5 336,-280.5 337.56,-279.85 340.08,-278.81"/>
<polygon fill="black" stroke="black" points="340.98,-281.81 348.88,-274.74 338.3,-275.34 340.98,-281.81"/>
<path fill="none" stroke="black" d="M110.23,-676.15C98.86,-660.69 84,-640.5 84,-640.5 84,-640.5 84,-596.5 84,-596.5 84,-596.5 168,-388.5 168,-388.5 168,-388.5 202,-335.5 202,-335.5"/>
</g>
<!-- nasalib/trig -->
<g id="node21" class="node">
<title>nasalib/trig</title>
<polygon fill="#fcfcd7" stroke="black" points="396,-496.5 342,-496.5 342,-460.5 396,-460.5 396,-496.5"/>
<text text-anchor="middle" x="369" y="-473.45" font-family="Times,serif" font-size="14.00">trig</text>
</g>
<!-- float/fnd_bnd&#45;&gt;nasalib/trig -->
<g id="edge3" class="edge">
<title>float/fnd_bnd&#45;&gt;nasalib/trig</title>
<path fill="none" stroke="black" d="M141.41,-676.16C171.04,-648.26 226,-596.5 226,-596.5 226,-596.5 297.58,-537.94 339.45,-503.68"/>
<polygon fill="black" stroke="black" points="341.38,-505.81 346.9,-496.76 336.94,-500.39 341.38,-505.81"/>
</g>
<!-- nasalib/analysis -->
<g id="node11" class="node">
<title>nasalib/analysis</title>
<polygon fill="#fcfcd7" stroke="black" points="573.75,-352.5 514.25,-352.5 514.25,-316.5 573.75,-316.5 573.75,-352.5"/>
<text text-anchor="middle" x="544" y="-329.45" font-family="Times,serif" font-size="14.00">analysis</text>
</g>
<!-- float/fnd_unb&#45;&gt;nasalib/analysis -->
<g id="edge4" class="edge">
<title>float/fnd_unb&#45;&gt;nasalib/analysis</title>
<path fill="none" stroke="black" d="M182,-405.5C182,-405.5 408.47,-361.71 503.15,-343.4"/>
<polygon fill="black" stroke="black" points="503.61,-346.68 512.76,-341.35 502.28,-339.81 503.61,-346.68"/>
</g>
<!-- nasalib/interval_arith -->
<g id="node14" class="node">
<title>nasalib/interval_arith</title>
<polygon fill="#f7e28d" stroke="black" points="521.38,-568.5 432.62,-568.5 432.62,-532.5 521.38,-532.5 521.38,-568.5"/>
<text text-anchor="middle" x="477" y="-545.45" font-family="Times,serif" font-size="14.00">interval_arith</text>
</g>
<!-- float/fnd_unb&#45;&gt;nasalib/interval_arith -->
<g id="edge5" class="edge">
<title>float/fnd_unb&#45;&gt;nasalib/interval_arith</title>
<path fill="none" stroke="black" d="M153.94,-611.19C174.6,-604.3 198,-596.5 198,-596.5 198,-596.5 379,-568.5 379,-568.5 379,-568.5 399.46,-564.95 421.68,-561.1"/>
<polygon fill="black" stroke="black" points="422.05,-564.41 431.3,-559.25 420.85,-557.51 422.05,-564.41"/>
</g>
<!-- nasalib/lnexp -->
<g id="node16" class="node">
<title>nasalib/lnexp</title>
<polygon fill="#fcfcd7" stroke="black" points="488,-496.5 434,-496.5 434,-460.5 488,-460.5 488,-496.5"/>
<text text-anchor="middle" x="461" y="-473.45" font-family="Times,serif" font-size="14.00">lnexp</text>
</g>
<!-- float/fnd_unb&#45;&gt;nasalib/lnexp -->
<g id="edge6" class="edge">
<title>float/fnd_unb&#45;&gt;nasalib/lnexp</title>
<path fill="none" stroke="black" d="M144,-549.5C144,-549.5 420,-496.5 420,-496.5 420,-496.5 421.56,-495.85 424.08,-494.81"/>
<polygon fill="black" stroke="black" points="424.98,-497.81 432.88,-490.74 422.3,-491.34 424.98,-497.81"/>
</g>
<!-- float/fnd_unb&#45;&gt;nasalib/reals -->
<g id="edge7" class="edge">
<title>float/fnd_unb&#45;&gt;nasalib/reals</title>
<path fill="none" stroke="black" d="M182,-405.5C182,-405.5 202,-335.5 202,-335.5"/>
</g>
<!-- nasalib/structures -->
<g id="node20" class="node">
<title>nasalib/structures</title>
<polygon fill="#fcfcd7" stroke="black" points="578.25,-208.5 509.75,-208.5 509.75,-172.5 578.25,-172.5 578.25,-208.5"/>
<text text-anchor="middle" x="544" y="-185.45" font-family="Times,serif" font-size="14.00">structures</text>
</g>
<!-- float/fnd_unb&#45;&gt;nasalib/structures -->
<g id="edge8" class="edge">
<title>float/fnd_unb&#45;&gt;nasalib/structures</title>
<path fill="none" stroke="black" d="M128.19,-604.2C134.41,-583.47 144,-551.5 144,-551.5"/>
<path fill="none" stroke="black" d="M144,-549.5C144,-549.5 182,-407.5 182,-407.5"/>
<path fill="none" stroke="black" d="M182,-405.5C182,-405.5 188,-316.5 188,-316.5 188,-316.5 246,-244.5 246,-244.5 246,-244.5 415.52,-214.35 498.85,-199.53"/>
<polygon fill="black" stroke="black" points="499.29,-202.83 508.52,-197.63 498.07,-195.94 499.29,-202.83"/>
</g>
<!-- float/fnd_unb&#45;&gt;nasalib/trig -->
<g id="edge9" class="edge">
<title>float/fnd_unb&#45;&gt;nasalib/trig</title>
<path fill="none" stroke="black" d="M144,-549.5C144,-549.5 168,-532.5 168,-532.5 168,-532.5 273.05,-504.8 331.26,-489.45"/>
<polygon fill="black" stroke="black" points="332.12,-492.58 340.89,-486.65 330.33,-485.81 332.12,-492.58"/>
</g>
<!-- float/ieee854 -->
<g id="node3" class="node">
<title>float/ieee854</title>
<polygon fill="#fcfcd7" stroke="black" points="74,-712.5 16,-712.5 16,-676.5 74,-676.5 74,-712.5"/>
<text text-anchor="middle" x="45" y="-689.45" font-family="Times,serif" font-size="14.00">ieee854</text>
</g>
<!-- float/ieee854&#45;&gt;float/fnd_unb -->
<g id="edge10" class="edge">
<title>float/ieee854&#45;&gt;float/fnd_unb</title>
<path fill="none" stroke="black" d="M64.28,-676.2C73.75,-667.7 85.32,-657.31 95.68,-648.01"/>
<polygon fill="black" stroke="black" points="97.57,-651.13 102.67,-641.85 92.89,-645.92 97.57,-651.13"/>
</g>
<!-- nasalib/ints -->
<g id="node15" class="node">
<title>nasalib/ints</title>
<polygon fill="#fcfcd7" stroke="black" points="606,-136.5 552,-136.5 552,-100.5 606,-100.5 606,-136.5"/>
<text text-anchor="middle" x="579" y="-113.45" font-family="Times,serif" font-size="14.00">ints</text>
</g>
<!-- float/ieee854&#45;&gt;nasalib/ints -->
<g id="edge11" class="edge">
<title>float/ieee854&#45;&gt;nasalib/ints</title>
<path fill="none" stroke="black" d="M48.91,-676.23C65.09,-604.72 126,-335.5 126,-335.5"/>
<path fill="none" stroke="black" d="M126,-333.5C126,-333.5 213,-244.5 213,-244.5 213,-244.5 271,-191.5 271,-191.5"/>
<path fill="none" stroke="black" d="M271,-189.5C271,-189.5 458.64,-146.85 541.01,-128.14"/>
<polygon fill="black" stroke="black" points="541.69,-131.34 550.67,-125.71 540.14,-124.52 541.69,-131.34"/>
</g>
<!-- float/ieee854&#45;&gt;nasalib/reals -->
<g id="edge12" class="edge">
<title>float/ieee854&#45;&gt;nasalib/reals</title>
<path fill="none" stroke="black" d="M126,-333.5C126,-333.5 188,-316.5 188,-316.5 188,-316.5 336,-280.5 336,-280.5 336,-280.5 337.56,-279.85 340.08,-278.81"/>
<polygon fill="black" stroke="black" points="340.98,-281.81 348.88,-274.74 338.3,-275.34 340.98,-281.81"/>
</g>
<!-- lib/finite_sets -->
<g id="node4" class="node">
<title>lib/finite_sets</title>
<polygon fill="#fcfcd7" stroke="black" points="684.75,-52 613.25,-52 613.25,-16 684.75,-16 684.75,-52"/>
<text text-anchor="middle" x="649" y="-28.95" font-family="Times,serif" font-size="14.00">finite_sets</text>
</g>
<!-- nasalib/Bernstein -->
<g id="node5" class="node">
<title>nasalib/Bernstein</title>
<polygon fill="#fcfcd7" stroke="black" points="615.88,-712.5 548.12,-712.5 548.12,-676.5 615.88,-676.5 615.88,-712.5"/>
<text text-anchor="middle" x="582" y="-689.45" font-family="Times,serif" font-size="14.00">Bernstein</text>
</g>
<!-- nasalib/Bernstein&#45;&gt;nasalib/interval_arith -->
<g id="edge13" class="edge">
<title>nasalib/Bernstein&#45;&gt;nasalib/interval_arith</title>
<path fill="none" stroke="black" d="M550.89,-676.15C523.19,-660.69 487,-640.5 487,-640.5 487,-640.5 477,-623.5 477,-623.5"/>
</g>
<!-- nasalib/Bernstein&#45;&gt;nasalib/reals -->
<g id="edge14" class="edge">
<title>nasalib/Bernstein&#45;&gt;nasalib/reals</title>
<path fill="none" stroke="black" d="M719,-621.5C719,-621.5 591,-316.5 591,-316.5 591,-316.5 430,-280.5 430,-280.5 430,-280.5 423.33,-278.36 414.72,-275.6"/>
<polygon fill="black" stroke="black" points="416.02,-272.02 405.43,-272.3 413.88,-278.69 416.02,-272.02"/>
<path fill="none" stroke="black" d="M616.31,-678.6C652.39,-662.92 704,-640.5 704,-640.5 704,-640.5 719,-623.5 719,-623.5"/>
</g>
<!-- nasalib/Bernstein&#45;&gt;nasalib/structures -->
<g id="edge15" class="edge">
<title>nasalib/Bernstein&#45;&gt;nasalib/structures</title>
<path fill="none" stroke="black" d="M719,-621.5C719,-621.5 719,-551.5 719,-551.5"/>
</g>
<!-- nasalib/MetiTarski -->
<g id="node6" class="node">
<title>nasalib/MetiTarski</title>
<polygon fill="#fcfcd7" stroke="black" points="438.38,-640.5 361.62,-640.5 361.62,-604.5 438.38,-604.5 438.38,-640.5"/>
<text text-anchor="middle" x="400" y="-617.45" font-family="Times,serif" font-size="14.00">MetiTarski</text>
</g>
<!-- nasalib/MetiTarski&#45;&gt;nasalib/interval_arith -->
<g id="edge16" class="edge">
<title>nasalib/MetiTarski&#45;&gt;nasalib/interval_arith</title>
<path fill="none" stroke="black" d="M419.03,-604.2C428.38,-595.7 439.81,-585.31 450.03,-576.01"/>
<polygon fill="black" stroke="black" points="451.87,-579.16 456.92,-569.85 447.16,-573.98 451.87,-579.16"/>
</g>
<!-- nasalib/MetiTarski&#45;&gt;nasalib/lnexp -->
<g id="edge17" class="edge">
<title>nasalib/MetiTarski&#45;&gt;nasalib/lnexp</title>
<path fill="none" stroke="black" d="M374,-549.5C374,-549.5 405.79,-523.92 430.94,-503.69"/>
<polygon fill="black" stroke="black" points="432.9,-505.8 438.49,-496.8 428.51,-500.35 432.9,-505.8"/>
</g>
<!-- nasalib/MetiTarski&#45;&gt;nasalib/reals -->
<g id="edge18" class="edge">
<title>nasalib/MetiTarski&#45;&gt;nasalib/reals</title>
<path fill="none" stroke="black" d="M415,-477.5C415,-477.5 415,-407.5 415,-407.5"/>
<path fill="none" stroke="black" d="M374,-549.5C374,-549.5 415,-479.5 415,-479.5"/>
</g>
<!-- nasalib/MetiTarski&#45;&gt;nasalib/trig -->
<g id="edge19" class="edge">
<title>nasalib/MetiTarski&#45;&gt;nasalib/trig</title>
<path fill="none" stroke="black" d="M393.57,-604.2C385.87,-583.47 374,-551.5 374,-551.5"/>
<path fill="none" stroke="black" d="M374,-549.5C374,-549.5 372.4,-527.16 371.02,-507.72"/>
<polygon fill="black" stroke="black" points="374.44,-507.53 370.24,-497.8 367.46,-508.03 374.44,-507.53"/>
</g>
<!-- nasalib/Riemann -->
<g id="node7" class="node">
<title>nasalib/Riemann</title>
<polygon fill="#fcfcd7" stroke="black" points="561.75,-640.5 496.25,-640.5 496.25,-604.5 561.75,-604.5 561.75,-640.5"/>
<text text-anchor="middle" x="529" y="-617.45" font-family="Times,serif" font-size="14.00">Riemann</text>
</g>
<!-- nasalib/Riemann&#45;&gt;nasalib/analysis -->
<g id="edge20" class="edge">
<title>nasalib/Riemann&#45;&gt;nasalib/analysis</title>
<path fill="none" stroke="black" d="M587,-477.5C587,-477.5 569,-407.5 569,-407.5"/>
<path fill="none" stroke="black" d="M603,-549.5C603,-549.5 587,-479.5 587,-479.5"/>
<path fill="none" stroke="black" d="M547.29,-604.2C569.21,-583.47 603,-551.5 603,-551.5"/>
</g>
<!-- nasalib/Riemann&#45;&gt;nasalib/interval_arith -->
<g id="edge21" class="edge">
<title>nasalib/Riemann&#45;&gt;nasalib/interval_arith</title>
<path fill="none" stroke="black" d="M516.15,-604.2C510.1,-596.06 502.77,-586.19 496.09,-577.2"/>
<polygon fill="black" stroke="black" points="498.48,-575.54 489.71,-569.6 492.86,-579.72 498.48,-575.54"/>
</g>
<!-- nasalib/Riemann&#45;&gt;nasalib/lnexp -->
<g id="edge22" class="edge">
<title>nasalib/Riemann&#45;&gt;nasalib/lnexp</title>
<path fill="none" stroke="black" d="M533.45,-604.2C538.78,-583.47 547,-551.5 547,-551.5"/>
<path fill="none" stroke="black" d="M547,-549.5C547,-549.5 530,-532.5 530,-532.5 530,-532.5 510.23,-517.32 491.86,-503.2"/>
<polygon fill="black" stroke="black" points="494.66,-500.17 484.59,-496.85 490.39,-505.72 494.66,-500.17"/>
</g>
<!-- nasalib/Riemann&#45;&gt;nasalib/reals -->
<g id="edge23" class="edge">
<title>nasalib/Riemann&#45;&gt;nasalib/reals</title>
<path fill="none" stroke="black" d="M547,-549.5C547,-549.5 532,-388.5 532,-388.5 532,-388.5 452.14,-324.1 407.07,-287.75"/>
<polygon fill="black" stroke="black" points="409.53,-284.43 399.55,-280.88 405.14,-289.88 409.53,-284.43"/>
</g>
<!-- nasalib/Riemann&#45;&gt;nasalib/structures -->
<g id="edge24" class="edge">
<title>nasalib/Riemann&#45;&gt;nasalib/structures</title>
<path fill="none" stroke="black" d="M603,-549.5C603,-549.5 593,-263.5 593,-263.5"/>
</g>
<!-- nasalib/Riemann&#45;&gt;nasalib/trig -->
<g id="edge25" class="edge">
<title>nasalib/Riemann&#45;&gt;nasalib/trig</title>
<path fill="none" stroke="black" d="M495.78,-604.73C465.02,-589.2 424,-568.5 424,-568.5 424,-568.5 401.46,-532.03 385.24,-505.78"/>
<polygon fill="black" stroke="black" points="387.84,-504.33 379.6,-497.66 381.88,-508.01 387.84,-504.33"/>
</g>
<!-- nasalib/Sturm -->
<g id="node8" class="node">
<title>nasalib/Sturm</title>
<polygon fill="#fcfcd7" stroke="black" points="304,-640.5 250,-640.5 250,-604.5 304,-604.5 304,-640.5"/>
<text text-anchor="middle" x="277" y="-617.45" font-family="Times,serif" font-size="14.00">Sturm</text>
</g>
<!-- nasalib/Sturm&#45;&gt;nasalib/interval_arith -->
<g id="edge26" class="edge">
<title>nasalib/Sturm&#45;&gt;nasalib/interval_arith</title>
<path fill="none" stroke="black" d="M304.39,-611.91C334.64,-601.33 384.11,-584.01 422.36,-570.62"/>
<polygon fill="black" stroke="black" points="423.04,-573.74 431.32,-567.14 420.73,-567.14 423.04,-573.74"/>
</g>
<!-- nasalib/Sturm&#45;&gt;nasalib/ints -->
<g id="edge27" class="edge">
<title>nasalib/Sturm&#45;&gt;nasalib/ints</title>
<path fill="none" stroke="black" d="M273.31,-604.35C262.4,-553.57 231,-407.5 231,-407.5"/>
</g>
<!-- nasalib/Sturm&#45;&gt;nasalib/reals -->
<g id="edge28" class="edge">
<title>nasalib/Sturm&#45;&gt;nasalib/reals</title>
<path fill="none" stroke="black" d="M311,-405.5C311,-405.5 311,-335.5 311,-335.5"/>
</g>
<!-- nasalib/Sturm&#45;&gt;nasalib/structures -->
<g id="edge29" class="edge">
<title>nasalib/Sturm&#45;&gt;nasalib/structures</title>
<path fill="none" stroke="black" d="M279.72,-604.35C287.79,-553.57 311,-407.5 311,-407.5"/>
<path fill="none" stroke="black" d="M311,-405.5C311,-405.5 306,-352.5 306,-352.5 306,-352.5 306,-316.5 306,-316.5 306,-316.5 331,-263.5 331,-263.5"/>
<path fill="none" stroke="black" d="M331,-261.5C331,-261.5 341,-244.5 341,-244.5 341,-244.5 439.47,-218.79 499.24,-203.18"/>
<polygon fill="black" stroke="black" points="499.77,-206.4 508.56,-200.49 498,-199.63 499.77,-206.4"/>
</g>
<!-- nasalib/Tarski -->
<g id="node9" class="node">
<title>nasalib/Tarski</title>
<polygon fill="#fcfcd7" stroke="black" points="284,-712.5 230,-712.5 230,-676.5 284,-676.5 284,-712.5"/>
<text text-anchor="middle" x="257" y="-689.45" font-family="Times,serif" font-size="14.00">Tarski</text>
</g>
<!-- nasalib/Tarski&#45;&gt;nasalib/Sturm -->
<g id="edge30" class="edge">
<title>nasalib/Tarski&#45;&gt;nasalib/Sturm</title>
<path fill="none" stroke="black" d="M261.94,-676.2C264.1,-668.65 266.68,-659.62 269.09,-651.18"/>
<polygon fill="black" stroke="black" points="272.73,-652.18 272.11,-641.6 266,-650.26 272.73,-652.18"/>
</g>
<!-- nasalib/Tarski&#45;&gt;nasalib/ints -->
<g id="edge31" class="edge">
<title>nasalib/Tarski&#45;&gt;nasalib/ints</title>
<path fill="none" stroke="black" d="M231,-405.5C231,-405.5 271,-191.5 271,-191.5"/>
<path fill="none" stroke="black" d="M250.57,-676.2C242.87,-655.47 231,-623.5 231,-623.5"/>
<path fill="none" stroke="black" d="M231,-477.5C231,-477.5 231,-407.5 231,-407.5"/>
<path fill="none" stroke="black" d="M231,-621.5C231,-621.5 231,-479.5 231,-479.5"/>
</g>
<!-- nasalib/Tarski&#45;&gt;nasalib/reals -->
<g id="edge32" class="edge">
<title>nasalib/Tarski&#45;&gt;nasalib/reals</title>
<path fill="none" stroke="black" d="M231,-621.5C231,-621.5 311,-335.5 311,-335.5"/>
</g>
<!-- nasalib/Tarski&#45;&gt;nasalib/structures -->
<g id="edge33" class="edge">
<title>nasalib/Tarski&#45;&gt;nasalib/structures</title>
<path fill="none" stroke="black" d="M231,-477.5C231,-477.5 326,-244.5 326,-244.5 326,-244.5 435.01,-218 498.86,-202.47"/>
<polygon fill="black" stroke="black" points="499.57,-205.66 508.46,-199.9 497.91,-198.86 499.57,-205.66"/>
</g>
<!-- nasalib/affine_arith -->
<g id="node10" class="node">
<title>nasalib/affine_arith</title>
<polygon fill="#fcfcd7" stroke="black" points="679.5,-640.5 600.5,-640.5 600.5,-604.5 679.5,-604.5 679.5,-640.5"/>
<text text-anchor="middle" x="640" y="-617.45" font-family="Times,serif" font-size="14.00">affine_arith</text>
</g>
<!-- nasalib/affine_arith&#45;&gt;nasalib/interval_arith -->
<g id="edge34" class="edge">
<title>nasalib/affine_arith&#45;&gt;nasalib/interval_arith</title>
<path fill="none" stroke="black" d="M600.13,-604.38C578.29,-595 551,-583.28 527.66,-573.26"/>
<polygon fill="black" stroke="black" points="529.16,-569.66 518.59,-568.93 526.4,-576.1 529.16,-569.66"/>
</g>
<!-- nasalib/affine_arith&#45;&gt;nasalib/reals -->
<g id="edge35" class="edge">
<title>nasalib/affine_arith&#45;&gt;nasalib/reals</title>
<path fill="none" stroke="black" d="M636.77,-604.23C624.71,-539.71 583,-316.5 583,-316.5 583,-316.5 430,-280.5 430,-280.5 430,-280.5 423.33,-278.36 414.72,-275.6"/>
<polygon fill="black" stroke="black" points="416.02,-272.02 405.43,-272.3 413.88,-278.69 416.02,-272.02"/>
</g>
<!-- nasalib/affine_arith&#45;&gt;nasalib/structures -->
<g id="edge36" class="edge">
<title>nasalib/affine_arith&#45;&gt;nasalib/structures</title>
<path fill="none" stroke="black" d="M659.53,-604.2C682.92,-583.47 719,-551.5 719,-551.5"/>
<path fill="none" stroke="black" d="M719,-549.5C719,-549.5 694,-388.5 694,-388.5 694,-388.5 672,-316.5 672,-316.5 672,-316.5 606.6,-252.64 569.3,-216.21"/>
<polygon fill="black" stroke="black" points="572.4,-214.36 562.8,-209.88 567.51,-219.37 572.4,-214.36"/>
</g>
<!-- nasalib/analysis&#45;&gt;lib/finite_sets -->
<g id="edge37" class="edge">
<title>nasalib/analysis&#45;&gt;lib/finite_sets</title>
<path fill="none" stroke="black" d="M574.2,-324.51C624.98,-309.39 722,-280.5 722,-280.5 722,-280.5 736,-191.5 736,-191.5"/>
</g>
<!-- nasalib/analysis&#45;&gt;nasalib/ints -->
<g id="edge38" class="edge">
<title>nasalib/analysis&#45;&gt;nasalib/ints</title>
<path fill="none" stroke="black" d="M561.68,-316.15C577.43,-300.69 598,-280.5 598,-280.5 598,-280.5 687,-191.5 687,-191.5"/>
<path fill="none" stroke="black" d="M687,-189.5C687,-189.5 646.38,-163.17 614.96,-142.81"/>
<polygon fill="black" stroke="black" points="617.27,-139.49 606.97,-136.98 613.46,-145.36 617.27,-139.49"/>
</g>
<!-- nasalib/orders -->
<g id="node17" class="node">
<title>nasalib/orders</title>
<polygon fill="#fcfcd7" stroke="black" points="571,-280.5 517,-280.5 517,-244.5 571,-244.5 571,-280.5"/>
<text text-anchor="middle" x="544" y="-257.45" font-family="Times,serif" font-size="14.00">orders</text>
</g>
<!-- nasalib/analysis&#45;&gt;nasalib/orders -->
<g id="edge39" class="edge">
<title>nasalib/analysis&#45;&gt;nasalib/orders</title>
<path fill="none" stroke="black" d="M544,-316.2C544,-308.74 544,-299.82 544,-291.47"/>
<polygon fill="black" stroke="black" points="547.5,-291.6 544,-281.6 540.5,-291.6 547.5,-291.6"/>
</g>
<!-- nasalib/analysis&#45;&gt;nasalib/reals -->
<g id="edge40" class="edge">
<title>nasalib/analysis&#45;&gt;nasalib/reals</title>
<path fill="none" stroke="black" d="M513.76,-320.82C485.84,-309.12 444.3,-291.71 414.33,-279.15"/>
<polygon fill="black" stroke="black" points="415.83,-275.56 405.25,-274.92 413.12,-282.02 415.83,-275.56"/>
</g>
<!-- nasalib/analysis&#45;&gt;nasalib/structures -->
<g id="edge41" class="edge">
<title>nasalib/analysis&#45;&gt;nasalib/structures</title>
<path fill="none" stroke="black" d="M556.11,-316.2C570.62,-295.47 593,-263.5 593,-263.5"/>
<path fill="none" stroke="black" d="M593,-261.5C593,-261.5 576.17,-237.46 562.24,-217.56"/>
<polygon fill="black" stroke="black" points="564.71,-215.99 556.11,-209.8 558.98,-220 564.71,-215.99"/>
</g>
<!-- nasalib/exact_real_arith -->
<g id="node12" class="node">
<title>nasalib/exact_real_arith</title>
<polygon fill="#fcfcd7" stroke="black" points="425.5,-712.5 322.5,-712.5 322.5,-676.5 425.5,-676.5 425.5,-712.5"/>
<text text-anchor="middle" x="374" y="-689.45" font-family="Times,serif" font-size="14.00">exact_real_arith</text>
</g>
<!-- nasalib/exact_real_arith&#45;&gt;nasalib/Sturm -->
<g id="edge42" class="edge">
<title>nasalib/exact_real_arith&#45;&gt;nasalib/Sturm</title>
<path fill="none" stroke="black" d="M350.02,-676.2C337.9,-667.45 323,-656.69 309.83,-647.19"/>
<polygon fill="black" stroke="black" points="312.2,-643.86 302.04,-640.85 308.1,-649.54 312.2,-643.86"/>
</g>
<!-- nasalib/exact_real_arith&#45;&gt;nasalib/interval_arith -->
<g id="edge43" class="edge">
<title>nasalib/exact_real_arith&#45;&gt;nasalib/interval_arith</title>
<path fill="none" stroke="black" d="M457,-621.5C457,-621.5 463.5,-598.74 469.09,-579.18"/>
<polygon fill="black" stroke="black" points="472.67,-580.38 472.06,-569.8 465.94,-578.46 472.67,-580.38"/>
</g>
<!-- nasalib/exact_real_arith&#45;&gt;nasalib/lnexp -->
<g id="edge44" class="edge">
<title>nasalib/exact_real_arith&#45;&gt;nasalib/lnexp</title>
<path fill="none" stroke="black" d="M397.9,-676.15C419.19,-660.69 447,-640.5 447,-640.5 447,-640.5 457,-623.5 457,-623.5"/>
<path fill="none" stroke="black" d="M457,-621.5C457,-621.5 447,-596.5 447,-596.5 447,-596.5 424,-568.5 424,-568.5 424,-568.5 424,-532.5 424,-532.5 424,-532.5 433.48,-518.91 442.85,-505.5"/>
<polygon fill="black" stroke="black" points="446.03,-508.06 448.88,-497.85 440.29,-504.05 446.03,-508.06"/>
</g>
<!-- nasalib/exact_real_arith&#45;&gt;nasalib/reals -->
<g id="edge45" class="edge">
<title>nasalib/exact_real_arith&#45;&gt;nasalib/reals</title>
<path fill="none" stroke="black" d="M331,-333.5C331,-333.5 346.66,-309.68 359.7,-289.83"/>
<polygon fill="black" stroke="black" points="363.06,-292.08 365.63,-281.8 357.21,-288.24 363.06,-292.08"/>
<path fill="none" stroke="black" d="M323,-549.5C323,-549.5 331,-335.5 331,-335.5"/>
<path fill="none" stroke="black" d="M365.81,-676.15C358.52,-660.69 349,-640.5 349,-640.5 349,-640.5 323,-551.5 323,-551.5"/>
</g>
<!-- nasalib/exact_real_arith&#45;&gt;nasalib/structures -->
<g id="edge46" class="edge">
<title>nasalib/exact_real_arith&#45;&gt;nasalib/structures</title>
<path fill="none" stroke="black" d="M331,-333.5C331,-333.5 331,-263.5 331,-263.5"/>
</g>
<!-- nasalib/exact_real_arith&#45;&gt;nasalib/trig -->
<g id="edge47" class="edge">
<title>nasalib/exact_real_arith&#45;&gt;nasalib/trig</title>
<path fill="none" stroke="black" d="M323,-549.5C323,-549.5 338.66,-525.68 351.7,-505.83"/>
<polygon fill="black" stroke="black" points="355.06,-508.08 357.63,-497.8 349.21,-504.24 355.06,-508.08"/>
</g>
<!-- nasalib/examples -->
<g id="node13" class="node">
<title>nasalib/examples</title>
<polygon fill="#fcfcd7" stroke="black" points="371.88,-789 304.12,-789 304.12,-753 371.88,-753 371.88,-789"/>
<text text-anchor="middle" x="338" y="-765.95" font-family="Times,serif" font-size="14.00">examples</text>
</g>
<!-- nasalib/examples&#45;&gt;nasalib/Bernstein -->
<g id="edge48" class="edge">
<title>nasalib/examples&#45;&gt;nasalib/Bernstein</title>
<path fill="none" stroke="black" d="M372.14,-765.65C428.3,-758.48 534,-745 534,-745 534,-745 545.91,-732.72 557.87,-720.39"/>
<polygon fill="black" stroke="black" points="559.76,-723.43 564.21,-713.81 554.74,-718.56 559.76,-723.43"/>
</g>
<!-- nasalib/examples&#45;&gt;nasalib/Riemann -->
<g id="edge49" class="edge">
<title>nasalib/examples&#45;&gt;nasalib/Riemann</title>
<path fill="none" stroke="black" d="M529,-693.5C529,-693.5 529,-671.16 529,-651.72"/>
<polygon fill="black" stroke="black" points="532.5,-651.8 529,-641.8 525.5,-651.8 532.5,-651.8"/>
</g>
<!-- nasalib/examples&#45;&gt;nasalib/Sturm -->
<g id="edge50" class="edge">
<title>nasalib/examples&#45;&gt;nasalib/Sturm</title>
<path fill="none" stroke="black" d="M321.33,-752.64C317.24,-748.37 314,-745 314,-745 314,-745 296.37,-687.1 285.45,-651.24"/>
<polygon fill="black" stroke="black" points="288.56,-650.45 282.3,-641.91 281.87,-652.49 288.56,-650.45"/>
</g>
<!-- nasalib/examples&#45;&gt;nasalib/Tarski -->
<g id="edge51" class="edge">
<title>nasalib/examples&#45;&gt;nasalib/Tarski</title>
<path fill="none" stroke="black" d="M310.22,-752.64C303.39,-748.37 298,-745 298,-745 298,-745 288.21,-733.17 278.19,-721.08"/>
<polygon fill="black" stroke="black" points="280.41,-719.28 271.34,-713.81 275.02,-723.75 280.41,-719.28"/>
</g>
<!-- nasalib/examples&#45;&gt;nasalib/affine_arith -->
<g id="edge52" class="edge">
<title>nasalib/examples&#45;&gt;nasalib/affine_arith</title>
<path fill="none" stroke="black" d="M529,-693.5C529,-693.5 539,-676.5 539,-676.5 539,-676.5 569.79,-660.35 597.36,-645.87"/>
<polygon fill="black" stroke="black" points="598.7,-648.6 605.93,-640.85 595.45,-642.4 598.7,-648.6"/>
</g>
<!-- nasalib/examples&#45;&gt;nasalib/analysis -->
<g id="edge53" class="edge">
<title>nasalib/examples&#45;&gt;nasalib/analysis</title>
<path fill="none" stroke="black" d="M529,-693.5C529,-693.5 539,-676.5 539,-676.5 539,-676.5 689,-640.5 689,-640.5 689,-640.5 689,-596.5 689,-596.5 689,-596.5 587,-479.5 587,-479.5"/>
</g>
<!-- nasalib/examples&#45;&gt;nasalib/exact_real_arith -->
<g id="edge54" class="edge">
<title>nasalib/examples&#45;&gt;nasalib/exact_real_arith</title>
<path fill="none" stroke="black" d="M346.35,-752.72C350.68,-743.76 356.07,-732.61 360.94,-722.53"/>
<polygon fill="black" stroke="black" points="364.37,-724.47 365.57,-713.94 358.07,-721.42 364.37,-724.47"/>
</g>
<!-- nasalib/examples&#45;&gt;nasalib/interval_arith -->
<g id="edge55" class="edge">
<title>nasalib/examples&#45;&gt;nasalib/interval_arith</title>
<path fill="none" stroke="black" d="M477,-621.5C477,-621.5 477,-599.16 477,-579.72"/>
<polygon fill="black" stroke="black" points="480.5,-579.8 477,-569.8 473.5,-579.8 480.5,-579.8"/>
<path fill="none" stroke="black" d="M529,-693.5C529,-693.5 487,-640.5 487,-640.5 487,-640.5 477,-623.5 477,-623.5"/>
</g>
<!-- nasalib/examples&#45;&gt;nasalib/lnexp -->
<g id="edge56" class="edge">
<title>nasalib/examples&#45;&gt;nasalib/lnexp</title>
<path fill="none" stroke="black" d="M529,-693.5C529,-693.5 539,-676.5 539,-676.5 539,-676.5 571,-640.5 571,-640.5 571,-640.5 571,-596.5 571,-596.5 571,-596.5 552,-532.5 552,-532.5 552,-532.5 522.99,-515.61 497.73,-500.89"/>
<polygon fill="black" stroke="black" points="499.71,-497.41 489.3,-495.4 496.18,-503.46 499.71,-497.41"/>
</g>
<!-- nasalib/examples&#45;&gt;nasalib/reals -->
<g id="edge57" class="edge">
<title>nasalib/examples&#45;&gt;nasalib/reals</title>
<path fill="none" stroke="black" d="M311,-333.5C311,-333.5 326,-316.5 326,-316.5 326,-316.5 339.58,-302.39 352.72,-288.73"/>
<polygon fill="black" stroke="black" points="354.89,-291.49 359.3,-281.85 349.84,-286.63 354.89,-291.49"/>
<path fill="none" stroke="black" d="M303.84,-762.7C269.31,-755.32 221,-745 221,-745 221,-745 211,-623.5 211,-623.5 211,-623.5 211,-623.5 211,-477.5 211,-477.5 311,-335.5 311,-335.5"/>
</g>
<!-- nasalib/examples&#45;&gt;nasalib/trig -->
<g id="edge58" class="edge">
<title>nasalib/examples&#45;&gt;nasalib/trig</title>
<path fill="none" stroke="black" d="M529,-693.5C529,-693.5 353,-640.5 353,-640.5 353,-640.5 353,-596.5 353,-596.5 353,-596.5 360.42,-542.26 365.15,-507.65"/>
<polygon fill="black" stroke="black" points="368.75,-508.15 366.64,-497.76 361.82,-507.2 368.75,-508.15"/>
<path fill="none" stroke="black" d="M372.2,-761.19C400.13,-753.99 435,-745 435,-745 435,-745 529,-695.5 529,-695.5"/>
</g>
<!-- nasalib/interval_arith&#45;&gt;nasalib/analysis -->
<g id="edge59" class="edge">
<title>nasalib/interval_arith&#45;&gt;nasalib/analysis</title>
<path fill="none" stroke="black" d="M488.28,-532.09C512.85,-494.17 569,-407.5 569,-407.5"/>
<path fill="none" stroke="black" d="M569,-405.5C569,-405.5 560.8,-382.53 553.79,-362.91"/>
<polygon fill="black" stroke="black" points="556.84,-362.04 550.18,-353.8 550.25,-364.4 556.84,-362.04"/>
</g>
<!-- nasalib/interval_arith&#45;&gt;nasalib/ints -->
<g id="edge60" class="edge">
<title>nasalib/interval_arith&#45;&gt;nasalib/ints</title>
<path fill="none" stroke="black" d="M514.66,-532.15C548.19,-516.69 592,-496.5 592,-496.5 592,-496.5 687,-191.5 687,-191.5"/>
</g>
<!-- nasalib/interval_arith&#45;&gt;nasalib/lnexp -->
<g id="edge61" class="edge">
<title>nasalib/interval_arith&#45;&gt;nasalib/lnexp</title>
<path fill="none" stroke="black" d="M473.04,-532.2C471.32,-524.65 469.26,-515.62 467.33,-507.18"/>
<polygon fill="black" stroke="black" points="470.55,-506.57 464.91,-497.6 463.73,-508.13 470.55,-506.57"/>
</g>
<!-- nasalib/interval_arith&#45;&gt;nasalib/reals -->
<g id="edge62" class="edge">
<title>nasalib/interval_arith&#45;&gt;nasalib/reals</title>
<path fill="none" stroke="black" d="M459.97,-532.15C444.81,-516.69 425,-496.5 425,-496.5 425,-496.5 415,-479.5 415,-479.5"/>
</g>
<!-- nasalib/interval_arith&#45;&gt;nasalib/structures -->
<g id="edge63" class="edge">
<title>nasalib/interval_arith&#45;&gt;nasalib/structures</title>
<path fill="none" stroke="black" d="M493.7,-532.15C508.57,-516.69 528,-496.5 528,-496.5 528,-496.5 574,-424.5 574,-424.5 574,-424.5 583,-352.5 583,-352.5 583,-352.5 593,-263.5 593,-263.5"/>
</g>
<!-- nasalib/interval_arith&#45;&gt;nasalib/trig -->
<g id="edge64" class="edge">
<title>nasalib/interval_arith&#45;&gt;nasalib/trig</title>
<path fill="none" stroke="black" d="M450.03,-532.02C436.26,-523.1 419.34,-512.13 404.53,-502.53"/>
<polygon fill="black" stroke="black" points="406.93,-499.26 396.63,-496.76 403.12,-505.14 406.93,-499.26"/>
</g>
<!-- nasalib/ints&#45;&gt;lib/finite_sets -->
<g id="edge65" class="edge">
<title>nasalib/ints&#45;&gt;lib/finite_sets</title>
<path fill="none" stroke="black" d="M593.85,-100C603.5,-88.63 616.25,-73.6 627.06,-60.85"/>
<polygon fill="black" stroke="black" points="630.38,-63.36 634.18,-53.47 625.04,-58.83 630.38,-63.36"/>
</g>
<!-- nasalib/lnexp&#45;&gt;nasalib/analysis -->
<g id="edge66" class="edge">
<title>nasalib/lnexp&#45;&gt;nasalib/analysis</title>
<path fill="none" stroke="black" d="M527,-405.5C527,-405.5 532.48,-382.95 537.21,-363.45"/>
<polygon fill="black" stroke="black" points="540.84,-364.35 539.8,-353.8 534.04,-362.69 540.84,-364.35"/>
</g>
<!-- nasalib/lnexp&#45;&gt;nasalib/ints -->
<g id="edge67" class="edge">
<title>nasalib/lnexp&#45;&gt;nasalib/ints</title>
<path fill="none" stroke="black" d="M527,-405.5C527,-405.5 435,-263.5 435,-263.5"/>
<path fill="none" stroke="black" d="M477.31,-460.2C496.86,-439.47 527,-407.5 527,-407.5"/>
</g>
<!-- nasalib/lnexp&#45;&gt;nasalib/reals -->
<g id="edge68" class="edge">
<title>nasalib/lnexp&#45;&gt;nasalib/reals</title>
<path fill="none" stroke="black" d="M449.21,-460.15C438.71,-444.69 425,-424.5 425,-424.5 425,-424.5 415,-407.5 415,-407.5"/>
</g>
<!-- nasalib/series -->
<g id="node19" class="node">
<title>nasalib/series</title>
<polygon fill="#fcfcd7" stroke="black" points="488,-424.5 434,-424.5 434,-388.5 488,-388.5 488,-424.5"/>
<text text-anchor="middle" x="461" y="-401.45" font-family="Times,serif" font-size="14.00">series</text>
</g>
<!-- nasalib/lnexp&#45;&gt;nasalib/series -->
<g id="edge69" class="edge">
<title>nasalib/lnexp&#45;&gt;nasalib/series</title>
<path fill="none" stroke="black" d="M461,-460.2C461,-452.74 461,-443.82 461,-435.47"/>
<polygon fill="black" stroke="black" points="464.5,-435.6 461,-425.6 457.5,-435.6 464.5,-435.6"/>
</g>
<!-- nasalib/orders&#45;&gt;lib/finite_sets -->
<g id="edge70" class="edge">
<title>nasalib/orders&#45;&gt;lib/finite_sets</title>
<path fill="none" stroke="black" d="M571.42,-253.33C621.35,-238.47 722,-208.5 722,-208.5 722,-208.5 736,-191.5 736,-191.5"/>
<path fill="none" stroke="black" d="M736,-189.5C736,-189.5 736,-119.5 736,-119.5"/>
</g>
<!-- nasalib/orders&#45;&gt;nasalib/structures -->
<g id="edge71" class="edge">
<title>nasalib/orders&#45;&gt;nasalib/structures</title>
<path fill="none" stroke="black" d="M544,-244.2C544,-236.74 544,-227.82 544,-219.47"/>
<polygon fill="black" stroke="black" points="547.5,-219.6 544,-209.6 540.5,-219.6 547.5,-219.6"/>
</g>
<!-- nasalib/reals&#45;&gt;nasalib/ints -->
<g id="edge72" class="edge">
<title>nasalib/reals&#45;&gt;nasalib/ints</title>
<path fill="none" stroke="black" d="M350.53,-244.02C319.13,-223.28 271,-191.5 271,-191.5"/>
</g>
<!-- nasalib/reals&#45;&gt;nasalib/structures -->
<g id="edge73" class="edge">
<title>nasalib/reals&#45;&gt;nasalib/structures</title>
<path fill="none" stroke="black" d="M404.2,-250.1C429.94,-239.31 469.05,-222.92 499.36,-210.21"/>
<polygon fill="black" stroke="black" points="500.4,-213.15 508.27,-206.06 497.69,-206.7 500.4,-213.15"/>
</g>
<!-- nasalib/series&#45;&gt;nasalib/analysis -->
<g id="edge74" class="edge">
<title>nasalib/series&#45;&gt;nasalib/analysis</title>
<path fill="none" stroke="black" d="M481.52,-388.2C491.69,-379.61 504.15,-369.11 515.26,-359.74"/>
<polygon fill="black" stroke="black" points="517.04,-361.97 522.43,-352.85 512.53,-356.62 517.04,-361.97"/>
</g>
<!-- nasalib/series&#45;&gt;nasalib/ints -->
<g id="edge75" class="edge">
<title>nasalib/series&#45;&gt;nasalib/ints</title>
<path fill="none" stroke="black" d="M435,-333.5C435,-333.5 435,-263.5 435,-263.5"/>
<path fill="none" stroke="black" d="M435,-261.5C435,-261.5 413,-244.5 413,-244.5 413,-244.5 271,-191.5 271,-191.5"/>
</g>
<!-- nasalib/series&#45;&gt;nasalib/orders -->
<g id="edge76" class="edge">
<title>nasalib/series&#45;&gt;nasalib/orders</title>
<path fill="none" stroke="black" d="M469.48,-388.34C482.27,-362.48 505,-316.5 505,-316.5 505,-316.5 515,-302.91 524.87,-289.5"/>
<polygon fill="black" stroke="black" points="528.12,-291.98 531.23,-281.85 522.48,-287.83 528.12,-291.98"/>
</g>
<!-- nasalib/series&#45;&gt;nasalib/reals -->
<g id="edge77" class="edge">
<title>nasalib/series&#45;&gt;nasalib/reals</title>
<path fill="none" stroke="black" d="M454.57,-388.2C446.87,-367.47 435,-335.5 435,-335.5"/>
<path fill="none" stroke="black" d="M435,-333.5C435,-333.5 414.72,-309.02 398.14,-289.02"/>
<polygon fill="black" stroke="black" points="400.41,-287.27 391.34,-281.8 395.02,-291.74 400.41,-287.27"/>
</g>
<!-- nasalib/structures&#45;&gt;lib/finite_sets -->
<g id="edge78" class="edge">
<title>nasalib/structures&#45;&gt;lib/finite_sets</title>
<path fill="none" stroke="black" d="M736,-117.5C736,-117.5 700.98,-84.29 675.38,-60.01"/>
<polygon fill="black" stroke="black" points="678.12,-57.84 668.45,-53.5 673.3,-62.92 678.12,-57.84"/>
<path fill="none" stroke="black" d="M578.33,-176.99C633.55,-156.85 736,-119.5 736,-119.5"/>
</g>
<!-- nasalib/structures&#45;&gt;nasalib/ints -->
<g id="edge79" class="edge">
<title>nasalib/structures&#45;&gt;nasalib/ints</title>
<path fill="none" stroke="black" d="M552.65,-172.2C556.55,-164.4 561.25,-155.01 565.59,-146.33"/>
<polygon fill="black" stroke="black" points="569.11,-148.11 570.45,-137.6 562.85,-144.98 569.11,-148.11"/>
</g>
<!-- nasalib/trig&#45;&gt;nasalib/analysis -->
<g id="edge80" class="edge">
<title>nasalib/trig&#45;&gt;nasalib/analysis</title>
<path fill="none" stroke="black" d="M396.46,-466.13C434.07,-450.56 497,-424.5 497,-424.5 497,-424.5 516.09,-388.35 529.94,-362.13"/>
<polygon fill="black" stroke="black" points="533.36,-364.14 534.94,-353.66 527.17,-360.87 533.36,-364.14"/>
</g>
<!-- nasalib/trig&#45;&gt;nasalib/ints -->
<g id="edge81" class="edge">
<title>nasalib/trig&#45;&gt;nasalib/ints</title>
<path fill="none" stroke="black" d="M360.24,-460.12C342.93,-425.77 306,-352.5 306,-352.5 306,-352.5 271,-191.5 271,-191.5"/>
</g>
<!-- nasalib/trig&#45;&gt;nasalib/reals -->
<g id="edge82" class="edge">
<title>nasalib/trig&#45;&gt;nasalib/reals</title>
<path fill="none" stroke="black" d="M380.37,-460.2C393.99,-439.47 415,-407.5 415,-407.5"/>
<path fill="none" stroke="black" d="M415,-405.5C415,-405.5 395.54,-332.78 384.47,-291.42"/>
<polygon fill="black" stroke="black" points="387.63,-290.67 381.66,-281.91 380.86,-292.48 387.63,-290.67"/>
</g>
<!-- nasalib/trig&#45;&gt;nasalib/series -->
<g id="edge83" class="edge">
<title>nasalib/trig&#45;&gt;nasalib/series</title>
<path fill="none" stroke="black" d="M391.74,-460.2C403.13,-451.53 417.1,-440.9 429.51,-431.46"/>
<polygon fill="black" stroke="black" points="431.36,-433.69 437.2,-424.85 427.12,-428.12 431.36,-433.69"/>
</g>
</g>
</svg>
