<?xml version="1.0" encoding="UTF-8" standalone="no"?>
<!DOCTYPE svg PUBLIC "-//W3C//DTD SVG 1.1//EN"
 "http://www.w3.org/Graphics/SVG/1.1/DTD/svg11.dtd">
<!-- Generated by graphviz version 8.0.4 (20230421.1958)
 -->
<!-- Title: float&#45;ieee854 Pages: 1 -->
<svg width="316pt" height="774pt"
 viewBox="0.00 0.00 316.00 773.50" xmlns="http://www.w3.org/2000/svg" xmlns:xlink="http://www.w3.org/1999/xlink">
<g id="graph0" class="graph" transform="scale(1 1) rotate(0) translate(4 769.5)">
<title>float&#45;ieee854</title>
<polygon fill="white" stroke="none" points="-4,4 -4,-769.5 312,-769.5 312,4 -4,4"/>
<g id="clust1" class="cluster">
<title>cluster_NASALib</title>
<polygon fill="none" stroke="black" points="8,-92.5 8,-601 250,-601 250,-92.5 8,-92.5"/>
<text text-anchor="middle" x="129" y="-583.7" font-family="Times,serif" font-size="14.00">NASALib</text>
</g>
<g id="clust2" class="cluster">
<title>cluster_PVS Prelude</title>
<polygon fill="none" stroke="black" points="27,-8 27,-84.5 115,-84.5 115,-8 27,-8"/>
<text text-anchor="middle" x="71" y="-67.2" font-family="Times,serif" font-size="14.00">PVS Prelude</text>
</g>
<g id="clust3" class="cluster">
<title>cluster_float</title>
<polygon fill="none" stroke="black" points="164,-609 164,-757.5 242,-757.5 242,-609 164,-609"/>
<text text-anchor="middle" x="203" y="-740.2" font-family="Times,serif" font-size="14.00">float</text>
</g>
<!-- NASALib/analysis -->
<g id="node1" class="node">
<title>NASALib/analysis</title>
<polygon fill="#fcfcd7" stroke="black" points="106.75,-352.5 47.25,-352.5 47.25,-316.5 106.75,-316.5 106.75,-352.5"/>
<text text-anchor="middle" x="77" y="-329.45" font-family="Times,serif" font-size="14.00">analysis</text>
</g>
<!-- NASALib/ints -->
<g id="node3" class="node">
<title>NASALib/ints</title>
<polygon fill="#fcfcd7" stroke="black" points="117,-136.5 63,-136.5 63,-100.5 117,-100.5 117,-136.5"/>
<text text-anchor="middle" x="90" y="-113.45" font-family="Times,serif" font-size="14.00">ints</text>
</g>
<!-- NASALib/analysis&#45;&gt;NASALib/ints -->
<g id="edge1" class="edge">
<title>NASALib/analysis&#45;&gt;NASALib/ints</title>
<path fill="none" stroke="black" d="M67.11,-316.2C55.27,-295.47 37,-263.5 37,-263.5"/>
<path fill="none" stroke="black" d="M37,-261.5C37,-261.5 37,-191.5 37,-191.5"/>
</g>
<!-- NASALib/orders -->
<g id="node5" class="node">
<title>NASALib/orders</title>
<polygon fill="#fcfcd7" stroke="black" points="110,-280.5 56,-280.5 56,-244.5 110,-244.5 110,-280.5"/>
<text text-anchor="middle" x="83" y="-257.45" font-family="Times,serif" font-size="14.00">orders</text>
</g>
<!-- NASALib/analysis&#45;&gt;NASALib/orders -->
<g id="edge2" class="edge">
<title>NASALib/analysis&#45;&gt;NASALib/orders</title>
<path fill="none" stroke="black" d="M78.48,-316.2C79.12,-308.74 79.89,-299.82 80.6,-291.47"/>
<polygon fill="black" stroke="black" points="84.17,-291.87 81.53,-281.6 77.19,-291.27 84.17,-291.87"/>
</g>
<!-- NASALib/reals -->
<g id="node6" class="node">
<title>NASALib/reals</title>
<polygon fill="#fcfcd7" stroke="black" points="202,-280.5 148,-280.5 148,-244.5 202,-244.5 202,-280.5"/>
<text text-anchor="middle" x="175" y="-257.45" font-family="Times,serif" font-size="14.00">reals</text>
</g>
<!-- NASALib/analysis&#45;&gt;NASALib/reals -->
<g id="edge3" class="edge">
<title>NASALib/analysis&#45;&gt;NASALib/reals</title>
<path fill="none" stroke="black" d="M101.48,-316.02C113.73,-307.26 128.74,-296.54 141.99,-287.08"/>
<polygon fill="black" stroke="black" points="143.73,-289.42 149.84,-280.76 139.66,-283.72 143.73,-289.42"/>
</g>
<!-- NASALib/structures -->
<g id="node8" class="node">
<title>NASALib/structures</title>
<polygon fill="#fcfcd7" stroke="black" points="124.25,-208.5 55.75,-208.5 55.75,-172.5 124.25,-172.5 124.25,-208.5"/>
<text text-anchor="middle" x="90" y="-185.45" font-family="Times,serif" font-size="14.00">structures</text>
</g>
<!-- NASALib/analysis&#45;&gt;NASALib/structures -->
<g id="edge4" class="edge">
<title>NASALib/analysis&#45;&gt;NASALib/structures</title>
<path fill="none" stroke="black" d="M37,-261.5C37,-261.5 47,-244.5 47,-244.5 47,-244.5 58.23,-230.65 69.22,-217.12"/>
<polygon fill="black" stroke="black" points="72.34,-219.82 75.92,-209.85 66.9,-215.41 72.34,-219.82"/>
</g>
<!-- lib/finite_sets -->
<g id="node12" class="node">
<title>lib/finite_sets</title>
<polygon fill="#fcfcd7" stroke="black" points="106.75,-52 35.25,-52 35.25,-16 106.75,-16 106.75,-52"/>
<text text-anchor="middle" x="71" y="-28.95" font-family="Times,serif" font-size="14.00">finite_sets</text>
</g>
<!-- NASALib/analysis&#45;&gt;lib/finite_sets -->
<g id="edge5" class="edge">
<title>NASALib/analysis&#45;&gt;lib/finite_sets</title>
<path fill="none" stroke="black" d="M8,-117.5C8,-117.5 32.71,-85.15 51.17,-60.96"/>
<polygon fill="black" stroke="black" points="54.35,-63.57 57.64,-53.5 48.79,-59.32 54.35,-63.57"/>
<path fill="none" stroke="black" d="M62.27,-316.15C49.14,-300.69 32,-280.5 32,-280.5 32,-280.5 8,-191.5 8,-191.5"/>
<path fill="none" stroke="black" d="M8,-189.5C8,-189.5 8,-119.5 8,-119.5"/>
</g>
<!-- NASALib/interval_arith -->
<g id="node2" class="node">
<title>NASALib/interval_arith</title>
<polygon fill="#fcfcd7" stroke="black" points="239.38,-568.5 150.62,-568.5 150.62,-532.5 239.38,-532.5 239.38,-568.5"/>
<text text-anchor="middle" x="195" y="-545.45" font-family="Times,serif" font-size="14.00">interval_arith</text>
</g>
<!-- NASALib/interval_arith&#45;&gt;NASALib/analysis -->
<g id="edge6" class="edge">
<title>NASALib/interval_arith&#45;&gt;NASALib/analysis</title>
<path fill="none" stroke="black" d="M159.64,-532.15C128.14,-516.69 87,-496.5 87,-496.5 87,-496.5 58,-424.5 58,-424.5 58,-424.5 58,-388.5 58,-388.5 58,-388.5 62.51,-375.93 67.13,-363.03"/>
<polygon fill="black" stroke="black" points="70.7,-364.45 70.78,-353.85 64.11,-362.09 70.7,-364.45"/>
</g>
<!-- NASALib/interval_arith&#45;&gt;NASALib/ints -->
<g id="edge7" class="edge">
<title>NASALib/interval_arith&#45;&gt;NASALib/ints</title>
<path fill="none" stroke="black" d="M241,-333.5C241,-333.5 241,-263.5 241,-263.5"/>
</g>
<!-- NASALib/lnexp -->
<g id="node4" class="node">
<title>NASALib/lnexp</title>
<polygon fill="#fcfcd7" stroke="black" points="150,-496.5 96,-496.5 96,-460.5 150,-460.5 150,-496.5"/>
<text text-anchor="middle" x="123" y="-473.45" font-family="Times,serif" font-size="14.00">lnexp</text>
</g>
<!-- NASALib/interval_arith&#45;&gt;NASALib/lnexp -->
<g id="edge8" class="edge">
<title>NASALib/interval_arith&#45;&gt;NASALib/lnexp</title>
<path fill="none" stroke="black" d="M177.2,-532.2C168.55,-523.78 157.99,-513.52 148.5,-504.29"/>
<polygon fill="black" stroke="black" points="151.45,-502.31 141.84,-497.85 146.57,-507.33 151.45,-502.31"/>
</g>
<!-- NASALib/interval_arith&#45;&gt;NASALib/reals -->
<g id="edge9" class="edge">
<title>NASALib/interval_arith&#45;&gt;NASALib/reals</title>
<path fill="none" stroke="black" d="M241,-477.5C241,-477.5 201,-407.5 201,-407.5"/>
<path fill="none" stroke="black" d="M206.79,-532.15C217.29,-516.69 231,-496.5 231,-496.5 231,-496.5 241,-479.5 241,-479.5"/>
</g>
<!-- NASALib/interval_arith&#45;&gt;NASALib/structures -->
<g id="edge10" class="edge">
<title>NASALib/interval_arith&#45;&gt;NASALib/structures</title>
<path fill="none" stroke="black" d="M241,-333.5C241,-333.5 211,-244.5 211,-244.5 211,-244.5 169.11,-226.15 134.62,-211.05"/>
<polygon fill="black" stroke="black" points="136.24,-207.49 125.67,-206.69 133.43,-213.91 136.24,-207.49"/>
<path fill="none" stroke="black" d="M241,-477.5C241,-477.5 241,-335.5 241,-335.5"/>
</g>
<!-- NASALib/trig -->
<g id="node9" class="node">
<title>NASALib/trig</title>
<polygon fill="#fcfcd7" stroke="black" points="222,-496.5 168,-496.5 168,-460.5 222,-460.5 222,-496.5"/>
<text text-anchor="middle" x="195" y="-473.45" font-family="Times,serif" font-size="14.00">trig</text>
</g>
<!-- NASALib/interval_arith&#45;&gt;NASALib/trig -->
<g id="edge11" class="edge">
<title>NASALib/interval_arith&#45;&gt;NASALib/trig</title>
<path fill="none" stroke="black" d="M195,-532.2C195,-524.74 195,-515.82 195,-507.47"/>
<polygon fill="black" stroke="black" points="198.5,-507.6 195,-497.6 191.5,-507.6 198.5,-507.6"/>
</g>
<!-- NASALib/ints&#45;&gt;lib/finite_sets -->
<g id="edge12" class="edge">
<title>NASALib/ints&#45;&gt;lib/finite_sets</title>
<path fill="none" stroke="black" d="M85.97,-100C83.5,-89.28 80.29,-75.32 77.47,-63.08"/>
<polygon fill="black" stroke="black" points="80.68,-62.43 75.02,-53.47 73.86,-64 80.68,-62.43"/>
</g>
<!-- NASALib/lnexp&#45;&gt;NASALib/analysis -->
<g id="edge13" class="edge">
<title>NASALib/lnexp&#45;&gt;NASALib/analysis</title>
<path fill="none" stroke="black" d="M63,-405.5C63,-405.5 67.51,-382.95 71.41,-363.45"/>
<polygon fill="black" stroke="black" points="75.01,-364.3 73.54,-353.8 68.15,-362.92 75.01,-364.3"/>
</g>
<!-- NASALib/lnexp&#45;&gt;NASALib/ints -->
<g id="edge14" class="edge">
<title>NASALib/lnexp&#45;&gt;NASALib/ints</title>
<path fill="none" stroke="black" d="M63,-405.5C63,-405.5 38,-352.5 38,-352.5 38,-352.5 32,-280.5 32,-280.5 32,-280.5 32,-244.5 32,-244.5 32,-244.5 37,-191.5 37,-191.5"/>
<path fill="none" stroke="black" d="M108.17,-460.2C90.4,-439.47 63,-407.5 63,-407.5"/>
<path fill="none" stroke="black" d="M37,-189.5C37,-189.5 47,-172.5 47,-172.5 47,-172.5 58.23,-158.65 69.22,-145.12"/>
<polygon fill="black" stroke="black" points="72.34,-147.82 75.92,-137.85 66.9,-143.41 72.34,-147.82"/>
</g>
<!-- NASALib/lnexp&#45;&gt;NASALib/reals -->
<g id="edge15" class="edge">
<title>NASALib/lnexp&#45;&gt;NASALib/reals</title>
<path fill="none" stroke="black" d="M201,-405.5C201,-405.5 187.74,-333.09 180.16,-291.68"/>
<polygon fill="black" stroke="black" points="183.43,-291.12 178.19,-281.91 176.55,-292.38 183.43,-291.12"/>
<path fill="none" stroke="black" d="M142.28,-460.2C165.38,-439.47 201,-407.5 201,-407.5"/>
</g>
<!-- NASALib/series -->
<g id="node7" class="node">
<title>NASALib/series</title>
<polygon fill="#fcfcd7" stroke="black" points="156,-424.5 102,-424.5 102,-388.5 156,-388.5 156,-424.5"/>
<text text-anchor="middle" x="129" y="-401.45" font-family="Times,serif" font-size="14.00">series</text>
</g>
<!-- NASALib/lnexp&#45;&gt;NASALib/series -->
<g id="edge16" class="edge">
<title>NASALib/lnexp&#45;&gt;NASALib/series</title>
<path fill="none" stroke="black" d="M124.48,-460.2C125.12,-452.74 125.89,-443.82 126.6,-435.47"/>
<polygon fill="black" stroke="black" points="130.17,-435.87 127.53,-425.6 123.19,-435.27 130.17,-435.87"/>
</g>
<!-- NASALib/orders&#45;&gt;NASALib/structures -->
<g id="edge17" class="edge">
<title>NASALib/orders&#45;&gt;NASALib/structures</title>
<path fill="none" stroke="black" d="M84.73,-244.2C85.48,-236.74 86.37,-227.82 87.2,-219.47"/>
<polygon fill="black" stroke="black" points="90.78,-219.9 88.29,-209.6 83.81,-219.21 90.78,-219.9"/>
</g>
<!-- NASALib/orders&#45;&gt;lib/finite_sets -->
<g id="edge18" class="edge">
<title>NASALib/orders&#45;&gt;lib/finite_sets</title>
<path fill="none" stroke="black" d="M64.46,-244.2C42.25,-223.47 8,-191.5 8,-191.5"/>
</g>
<!-- NASALib/reals&#45;&gt;NASALib/ints -->
<g id="edge19" class="edge">
<title>NASALib/reals&#45;&gt;NASALib/ints</title>
<path fill="none" stroke="black" d="M175,-244.2C175,-223.47 175,-191.5 175,-191.5"/>
</g>
<!-- NASALib/reals&#45;&gt;NASALib/structures -->
<g id="edge20" class="edge">
<title>NASALib/reals&#45;&gt;NASALib/structures</title>
<path fill="none" stroke="black" d="M153.99,-244.2C143.57,-235.61 130.81,-225.11 119.43,-215.74"/>
<polygon fill="black" stroke="black" points="122.01,-212.5 112.06,-208.85 117.56,-217.91 122.01,-212.5"/>
</g>
<!-- NASALib/series&#45;&gt;NASALib/analysis -->
<g id="edge21" class="edge">
<title>NASALib/series&#45;&gt;NASALib/analysis</title>
<path fill="none" stroke="black" d="M116.15,-388.2C110.1,-380.06 102.77,-370.19 96.09,-361.2"/>
<polygon fill="black" stroke="black" points="98.48,-359.54 89.71,-353.6 92.86,-363.72 98.48,-359.54"/>
</g>
<!-- NASALib/series&#45;&gt;NASALib/ints -->
<g id="edge22" class="edge">
<title>NASALib/series&#45;&gt;NASALib/ints</title>
<path fill="none" stroke="black" d="M175,-189.5C175,-189.5 143.94,-163.92 119.37,-143.69"/>
<polygon fill="black" stroke="black" points="121.96,-140.46 112.01,-136.8 117.51,-145.86 121.96,-140.46"/>
<path fill="none" stroke="black" d="M129,-333.5C129,-333.5 139,-244.5 139,-244.5 139,-244.5 175,-191.5 175,-191.5"/>
</g>
<!-- NASALib/series&#45;&gt;NASALib/orders -->
<g id="edge23" class="edge">
<title>NASALib/series&#45;&gt;NASALib/orders</title>
<path fill="none" stroke="black" d="M129,-333.5C129,-333.5 113.34,-309.68 100.3,-289.83"/>
<polygon fill="black" stroke="black" points="102.79,-288.24 94.37,-281.8 96.94,-292.08 102.79,-288.24"/>
<path fill="none" stroke="black" d="M129,-388.2C129,-367.47 129,-335.5 129,-335.5"/>
</g>
<!-- NASALib/series&#45;&gt;NASALib/reals -->
<g id="edge24" class="edge">
<title>NASALib/series&#45;&gt;NASALib/reals</title>
<path fill="none" stroke="black" d="M129,-333.5C129,-333.5 144.66,-309.68 157.7,-289.83"/>
<polygon fill="black" stroke="black" points="161.06,-292.08 163.63,-281.8 155.21,-288.24 161.06,-292.08"/>
</g>
<!-- NASALib/structures&#45;&gt;NASALib/ints -->
<g id="edge25" class="edge">
<title>NASALib/structures&#45;&gt;NASALib/ints</title>
<path fill="none" stroke="black" d="M90,-172.2C90,-164.74 90,-155.82 90,-147.47"/>
<polygon fill="black" stroke="black" points="93.5,-147.6 90,-137.6 86.5,-147.6 93.5,-147.6"/>
</g>
<!-- NASALib/structures&#45;&gt;lib/finite_sets -->
<g id="edge26" class="edge">
<title>NASALib/structures&#45;&gt;lib/finite_sets</title>
<path fill="none" stroke="black" d="M69.73,-172.2C45.45,-151.47 8,-119.5 8,-119.5"/>
</g>
<!-- NASALib/trig&#45;&gt;NASALib/analysis -->
<g id="edge27" class="edge">
<title>NASALib/trig&#45;&gt;NASALib/analysis</title>
<path fill="none" stroke="black" d="M167.67,-463.3C137.45,-447.6 93,-424.5 93,-424.5 93,-424.5 86.67,-389.3 81.97,-363.17"/>
<polygon fill="black" stroke="black" points="85.3,-362.88 80.08,-353.66 78.41,-364.12 85.3,-362.88"/>
</g>
<!-- NASALib/trig&#45;&gt;NASALib/ints -->
<g id="edge28" class="edge">
<title>NASALib/trig&#45;&gt;NASALib/ints</title>
<path fill="none" stroke="black" d="M198.69,-460.35C209.6,-409.57 241,-263.5 241,-263.5"/>
<path fill="none" stroke="black" d="M241,-261.5C241,-261.5 175,-191.5 175,-191.5"/>
</g>
<!-- NASALib/trig&#45;&gt;NASALib/reals -->
<g id="edge29" class="edge">
<title>NASALib/trig&#45;&gt;NASALib/reals</title>
<path fill="none" stroke="black" d="M196.48,-460.2C198.26,-439.47 201,-407.5 201,-407.5"/>
</g>
<!-- NASALib/trig&#45;&gt;NASALib/series -->
<g id="edge30" class="edge">
<title>NASALib/trig&#45;&gt;NASALib/series</title>
<path fill="none" stroke="black" d="M178.69,-460.2C170.77,-451.8 161.12,-441.57 152.44,-432.36"/>
<polygon fill="black" stroke="black" points="155.53,-430.48 146.13,-425.6 150.44,-435.28 155.53,-430.48"/>
</g>
<!-- float/fnd_unb -->
<g id="node10" class="node">
<title>float/fnd_unb</title>
<polygon fill="#fcfcd7" stroke="black" points="233.5,-653 172.5,-653 172.5,-617 233.5,-617 233.5,-653"/>
<text text-anchor="middle" x="203" y="-629.95" font-family="Times,serif" font-size="14.00">fnd_unb</text>
</g>
<!-- float/fnd_unb&#45;&gt;NASALib/analysis -->
<g id="edge31" class="edge">
<title>float/fnd_unb&#45;&gt;NASALib/analysis</title>
<path fill="none" stroke="black" d="M226.82,-616.53C237.61,-608.62 248,-601 248,-601 248,-601 270,-407.5 270,-407.5"/>
<path fill="none" stroke="black" d="M270,-405.5C270,-405.5 173.79,-370.6 117.22,-350.09"/>
<polygon fill="black" stroke="black" points="118.75,-346.56 108.16,-346.44 116.36,-353.14 118.75,-346.56"/>
</g>
<!-- float/fnd_unb&#45;&gt;NASALib/interval_arith -->
<g id="edge32" class="edge">
<title>float/fnd_unb&#45;&gt;NASALib/interval_arith</title>
<path fill="none" stroke="black" d="M201.3,-616.5C200.26,-605.78 198.91,-591.82 197.72,-579.58"/>
<polygon fill="black" stroke="black" points="201.14,-579.59 196.69,-569.97 194.18,-580.26 201.14,-579.59"/>
</g>
<!-- float/fnd_unb&#45;&gt;NASALib/lnexp -->
<g id="edge33" class="edge">
<title>float/fnd_unb&#45;&gt;NASALib/lnexp</title>
<path fill="none" stroke="black" d="M172.14,-617.31C157.01,-609.12 142,-601 142,-601 142,-601 123,-551.5 123,-551.5"/>
<path fill="none" stroke="black" d="M123,-549.5C123,-549.5 123,-527.16 123,-507.72"/>
<polygon fill="black" stroke="black" points="126.5,-507.8 123,-497.8 119.5,-507.8 126.5,-507.8"/>
</g>
<!-- float/fnd_unb&#45;&gt;NASALib/reals -->
<g id="edge34" class="edge">
<title>float/fnd_unb&#45;&gt;NASALib/reals</title>
<path fill="none" stroke="black" d="M270,-333.5C270,-333.5 234.68,-307.47 207.11,-287.16"/>
<polygon fill="black" stroke="black" points="209.61,-283.92 199.48,-280.8 205.46,-289.55 209.61,-283.92"/>
<path fill="none" stroke="black" d="M270,-405.5C270,-405.5 270,-335.5 270,-335.5"/>
</g>
<!-- float/fnd_unb&#45;&gt;NASALib/structures -->
<g id="edge35" class="edge">
<title>float/fnd_unb&#45;&gt;NASALib/structures</title>
<path fill="none" stroke="black" d="M270,-333.5C270,-333.5 221,-244.5 221,-244.5 221,-244.5 172.32,-224.81 134.31,-209.43"/>
<polygon fill="black" stroke="black" points="136,-205.93 125.42,-205.43 133.38,-212.42 136,-205.93"/>
</g>
<!-- float/fnd_unb&#45;&gt;NASALib/trig -->
<g id="edge36" class="edge">
<title>float/fnd_unb&#45;&gt;NASALib/trig</title>
<path fill="none" stroke="black" d="M123,-549.5C123,-549.5 148.85,-524.36 169.58,-504.22"/>
<polygon fill="black" stroke="black" points="171.47,-507.28 176.2,-497.8 166.59,-502.26 171.47,-507.28"/>
</g>
<!-- float/ieee854 -->
<g id="node11" class="node">
<title>float/ieee854</title>
<polygon fill="#f7e28d" stroke="black" points="232,-725 174,-725 174,-689 232,-689 232,-725"/>
<text text-anchor="middle" x="203" y="-701.95" font-family="Times,serif" font-size="14.00">ieee854</text>
</g>
<!-- float/ieee854&#45;&gt;NASALib/ints -->
<g id="edge37" class="edge">
<title>float/ieee854&#45;&gt;NASALib/ints</title>
<path fill="none" stroke="black" d="M308,-333.5C308,-333.5 254,-244.5 254,-244.5 254,-244.5 175,-191.5 175,-191.5"/>
</g>
<!-- float/ieee854&#45;&gt;NASALib/reals -->
<g id="edge38" class="edge">
<title>float/ieee854&#45;&gt;NASALib/reals</title>
<path fill="none" stroke="black" d="M308,-333.5C308,-333.5 284,-316.5 284,-316.5 284,-316.5 243.7,-296.91 212.11,-281.55"/>
<polygon fill="black" stroke="black" points="213.75,-277.96 203.22,-276.74 210.69,-284.26 213.75,-277.96"/>
<path fill="none" stroke="black" d="M216.1,-688.65C227.76,-673.19 243,-653 243,-653 243,-653 308,-551.5 308,-551.5 308,-551.5 308,-551.5 308,-477.5 308,-477.5 308,-335.5 308,-335.5"/>
</g>
<!-- float/ieee854&#45;&gt;float/fnd_unb -->
<g id="edge39" class="edge">
<title>float/ieee854&#45;&gt;float/fnd_unb</title>
<path fill="none" stroke="black" d="M203,-688.7C203,-681.24 203,-672.32 203,-663.97"/>
<polygon fill="black" stroke="black" points="206.5,-664.1 203,-654.1 199.5,-664.1 206.5,-664.1"/>
</g>
</g>
</svg>
