<?xml version="1.0" encoding="UTF-8" standalone="no"?>
<!DOCTYPE svg PUBLIC "-//W3C//DTD SVG 1.1//EN"
 "http://www.w3.org/Graphics/SVG/1.1/DTD/svg11.dtd">
<!-- Generated by graphviz version 7.0.6 (20230106.0513)
 -->
<!-- Title: complex Pages: 1 -->
<svg width="904pt" height="1038pt"
 viewBox="0.00 0.00 904.00 1038.00" xmlns="http://www.w3.org/2000/svg" xmlns:xlink="http://www.w3.org/1999/xlink">
<g id="graph0" class="graph" transform="scale(1 1) rotate(0) translate(4 1034)">
<title>complex</title>
<polygon fill="white" stroke="none" points="-4,4 -4,-1034 900,-1034 900,4 -4,4"/>
<g id="clust1" class="cluster">
<title>cluster_NASALib</title>
<polygon fill="none" stroke="black" points="8,-8 8,-1022 792,-1022 792,-8 8,-8"/>
<text text-anchor="middle" x="400" y="-1006.8" font-family="Times,serif" font-size="14.00">NASALib</text>
</g>
<g id="clust2" class="cluster">
<title>cluster_PVS Prelude</title>
<polygon fill="none" stroke="black" points="800,-8 800,-83 888,-83 888,-8 800,-8"/>
<text text-anchor="middle" x="844" y="-67.8" font-family="Times,serif" font-size="14.00">PVS Prelude</text>
</g>
<!-- NASALib/algebra -->
<g id="node1" class="node">
<title>NASALib/algebra</title>
<polygon fill="#fcfcd7" stroke="black" points="147,-919 91,-919 91,-883 147,-883 147,-919"/>
<text text-anchor="middle" x="119" y="-897.3" font-family="Times,serif" font-size="14.00">algebra</text>
</g>
<!-- NASALib/ints -->
<g id="node5" class="node">
<title>NASALib/ints</title>
<polygon fill="#fcfcd7" stroke="black" points="590,-52 536,-52 536,-16 590,-16 590,-52"/>
<text text-anchor="middle" x="563" y="-30.3" font-family="Times,serif" font-size="14.00">ints</text>
</g>
<!-- NASALib/algebra&#45;&gt;NASALib/ints -->
<g id="edge1" class="edge">
<title>NASALib/algebra&#45;&gt;NASALib/ints</title>
<path fill="none" stroke="black" d="M90.65,-883.67C63.61,-868.09 27,-847 27,-847 27,-847 17,-758 17,-758 17,-758 17,-758 17,-540 17,-540 117,-182 117,-182"/>
<path fill="none" stroke="black" d="M117,-180C117,-180 132,-163 132,-163 132,-163 419.63,-77.58 524.95,-46.3"/>
<polygon fill="black" stroke="black" points="525.67,-49.74 534.26,-43.53 523.68,-43.03 525.67,-49.74"/>
</g>
<!-- NASALib/numbers -->
<g id="node10" class="node">
<title>NASALib/numbers</title>
<polygon fill="#fcfcd7" stroke="black" points="100,-847 36,-847 36,-811 100,-811 100,-847"/>
<text text-anchor="middle" x="68" y="-825.3" font-family="Times,serif" font-size="14.00">numbers</text>
</g>
<!-- NASALib/algebra&#45;&gt;NASALib/numbers -->
<g id="edge2" class="edge">
<title>NASALib/algebra&#45;&gt;NASALib/numbers</title>
<path fill="none" stroke="black" d="M106.39,-882.7C100.59,-874.73 93.57,-865.1 87.14,-856.26"/>
<polygon fill="black" stroke="black" points="90.07,-854.35 81.35,-848.33 84.41,-858.47 90.07,-854.35"/>
</g>
<!-- NASALib/reals -->
<g id="node13" class="node">
<title>NASALib/reals</title>
<polygon fill="#fcfcd7" stroke="black" points="318,-775 264,-775 264,-739 318,-739 318,-775"/>
<text text-anchor="middle" x="291" y="-753.3" font-family="Times,serif" font-size="14.00">reals</text>
</g>
<!-- NASALib/algebra&#45;&gt;NASALib/reals -->
<g id="edge3" class="edge">
<title>NASALib/algebra&#45;&gt;NASALib/reals</title>
<path fill="none" stroke="black" d="M530,-828C530,-828 479,-811 479,-811 479,-811 384.02,-784.22 329.08,-768.73"/>
<polygon fill="black" stroke="black" points="330.37,-765.46 319.79,-766.12 328.47,-772.2 330.37,-765.46"/>
<path fill="none" stroke="black" d="M147.25,-895.19C240.11,-879.37 530,-830 530,-830"/>
</g>
<!-- NASALib/sigma_set -->
<g id="node16" class="node">
<title>NASALib/sigma_set</title>
<polygon fill="#fcfcd7" stroke="black" points="723.5,-487 652.5,-487 652.5,-451 723.5,-451 723.5,-487"/>
<text text-anchor="middle" x="688" y="-465.3" font-family="Times,serif" font-size="14.00">sigma_set</text>
</g>
<!-- NASALib/algebra&#45;&gt;NASALib/sigma_set -->
<g id="edge4" class="edge">
<title>NASALib/algebra&#45;&gt;NASALib/sigma_set</title>
<path fill="none" stroke="black" d="M530,-828C530,-828 545,-739 545,-739 545,-739 708,-703 708,-703 708,-703 708,-523 708,-523 708,-523 703.35,-510.68 698.53,-497.92"/>
<polygon fill="black" stroke="black" points="701.89,-496.89 695.08,-488.77 695.34,-499.36 701.89,-496.89"/>
</g>
<!-- NASALib/structures -->
<g id="node17" class="node">
<title>NASALib/structures</title>
<polygon fill="#fcfcd7" stroke="black" points="597.5,-127 528.5,-127 528.5,-91 597.5,-91 597.5,-127"/>
<text text-anchor="middle" x="563" y="-105.3" font-family="Times,serif" font-size="14.00">structures</text>
</g>
<!-- NASALib/algebra&#45;&gt;NASALib/structures -->
<g id="edge5" class="edge">
<title>NASALib/algebra&#45;&gt;NASALib/structures</title>
<path fill="none" stroke="black" d="M117.07,-882.84C114.17,-856.98 109,-811 109,-811 109,-811 57,-614 57,-614 57,-614 57,-614 57,-540 57,-540 122,-271 122,-271 122,-271 137,-182 137,-182"/>
</g>
<!-- lib/finite_sets -->
<g id="node21" class="node">
<title>lib/finite_sets</title>
<polygon fill="#fcfcd7" stroke="black" points="880,-52 808,-52 808,-16 880,-16 880,-52"/>
<text text-anchor="middle" x="844" y="-30.3" font-family="Times,serif" font-size="14.00">finite_sets</text>
</g>
<!-- NASALib/algebra&#45;&gt;lib/finite_sets -->
<g id="edge6" class="edge">
<title>NASALib/algebra&#45;&gt;lib/finite_sets</title>
<path fill="none" stroke="black" d="M147.27,-896.4C240.9,-884.47 535,-847 535,-847 535,-847 812,-758 812,-758 812,-758 812,-758 812,-684 812,-684 812,-542 812,-542"/>
</g>
<!-- NASALib/analysis -->
<g id="node2" class="node">
<title>NASALib/analysis</title>
<polygon fill="#fcfcd7" stroke="black" points="598,-271 538,-271 538,-235 598,-235 598,-271"/>
<text text-anchor="middle" x="568" y="-249.3" font-family="Times,serif" font-size="14.00">analysis</text>
</g>
<!-- NASALib/analysis&#45;&gt;NASALib/ints -->
<g id="edge7" class="edge">
<title>NASALib/analysis&#45;&gt;NASALib/ints</title>
<path fill="none" stroke="black" d="M617,-108C617,-108 607,-91 607,-91 607,-91 595.07,-75.81 583.63,-61.25"/>
<polygon fill="black" stroke="black" points="586.55,-59.3 577.62,-53.6 581.04,-63.63 586.55,-59.3"/>
<path fill="none" stroke="black" d="M597,-180C597,-180 617,-110 617,-110"/>
</g>
<!-- NASALib/orders -->
<g id="node11" class="node">
<title>NASALib/orders</title>
<polygon fill="#fcfcd7" stroke="black" points="690,-199 636,-199 636,-163 690,-163 690,-199"/>
<text text-anchor="middle" x="663" y="-177.3" font-family="Times,serif" font-size="14.00">orders</text>
</g>
<!-- NASALib/analysis&#45;&gt;NASALib/orders -->
<g id="edge8" class="edge">
<title>NASALib/analysis&#45;&gt;NASALib/orders</title>
<path fill="none" stroke="black" d="M591.48,-234.7C603.24,-226.03 617.67,-215.4 630.48,-205.96"/>
<polygon fill="black" stroke="black" points="632.26,-208.99 638.24,-200.24 628.11,-203.36 632.26,-208.99"/>
</g>
<!-- NASALib/analysis&#45;&gt;NASALib/reals -->
<g id="edge9" class="edge">
<title>NASALib/analysis&#45;&gt;NASALib/reals</title>
<path fill="none" stroke="black" d="M251,-686C251,-686 269.27,-717.97 281.11,-738.7"/>
<path fill="none" stroke="black" d="M537.62,-262.75C485.35,-277.81 384,-307 384,-307 384,-307 201,-379 201,-379 201,-379 157,-468 157,-468 157,-542 157,-542 157,-542 157,-542 223.92,-643.09 244.83,-674.68"/>
<polygon fill="black" stroke="black" points="241.73,-676.33 250.16,-682.74 247.56,-672.47 241.73,-676.33"/>
</g>
<!-- NASALib/analysis&#45;&gt;NASALib/structures -->
<g id="edge10" class="edge">
<title>NASALib/analysis&#45;&gt;NASALib/structures</title>
<path fill="none" stroke="black" d="M575.17,-234.7C583.76,-213.97 597,-182 597,-182"/>
<path fill="none" stroke="black" d="M597,-180C597,-180 585.84,-157.03 576.31,-137.41"/>
<polygon fill="black" stroke="black" points="579.58,-136.13 572.07,-128.66 573.29,-139.19 579.58,-136.13"/>
</g>
<!-- NASALib/analysis&#45;&gt;lib/finite_sets -->
<g id="edge11" class="edge">
<title>NASALib/analysis&#45;&gt;lib/finite_sets</title>
<path fill="none" stroke="black" d="M598.28,-244.96C660.3,-230.54 796,-199 796,-199 796,-199 812,-182 812,-182"/>
<path fill="none" stroke="black" d="M812,-180C812,-180 812,-110 812,-110"/>
</g>
<!-- NASALib/complex -->
<g id="node3" class="node">
<title>NASALib/complex</title>
<polygon fill="#f7e28d" stroke="black" points="250,-991 186,-991 186,-955 250,-955 250,-991"/>
<text text-anchor="middle" x="218" y="-969.3" font-family="Times,serif" font-size="14.00">complex</text>
</g>
<!-- NASALib/complex&#45;&gt;NASALib/algebra -->
<g id="edge12" class="edge">
<title>NASALib/complex&#45;&gt;NASALib/algebra</title>
<path fill="none" stroke="black" d="M193.27,-954.52C181.01,-945.85 166.02,-935.25 152.73,-925.85"/>
<polygon fill="black" stroke="black" points="154.83,-923.05 144.65,-920.13 150.79,-928.77 154.83,-923.05"/>
</g>
<!-- NASALib/lnexp -->
<g id="node7" class="node">
<title>NASALib/lnexp</title>
<polygon fill="#fcfcd7" stroke="black" points="724,-415 670,-415 670,-379 724,-379 724,-415"/>
<text text-anchor="middle" x="697" y="-393.3" font-family="Times,serif" font-size="14.00">lnexp</text>
</g>
<!-- NASALib/complex&#45;&gt;NASALib/lnexp -->
<g id="edge13" class="edge">
<title>NASALib/complex&#45;&gt;NASALib/lnexp</title>
<path fill="none" stroke="black" d="M550,-828C550,-828 713,-703 713,-703 713,-703 738,-487 738,-487 738,-487 738,-451 738,-451 738,-451 727.69,-437.67 717.41,-424.38"/>
<polygon fill="black" stroke="black" points="720.24,-422.32 711.35,-416.55 714.7,-426.6 720.24,-422.32"/>
</g>
<!-- NASALib/complex&#45;&gt;NASALib/reals -->
<g id="edge14" class="edge">
<title>NASALib/complex&#45;&gt;NASALib/reals</title>
<path fill="none" stroke="black" d="M512,-900C512,-900 550,-830 550,-830"/>
<path fill="none" stroke="black" d="M550,-828C550,-828 535,-811 535,-811 535,-811 397.9,-781.22 329.23,-766.3"/>
<polygon fill="black" stroke="black" points="330.04,-762.9 319.52,-764.2 328.55,-769.74 330.04,-762.9"/>
</g>
<!-- NASALib/trig -->
<g id="node19" class="node">
<title>NASALib/trig</title>
<polygon fill="#fcfcd7" stroke="black" points="264,-415 210,-415 210,-379 264,-379 264,-415"/>
<text text-anchor="middle" x="237" y="-393.3" font-family="Times,serif" font-size="14.00">trig</text>
</g>
<!-- NASALib/complex&#45;&gt;NASALib/trig -->
<g id="edge15" class="edge">
<title>NASALib/complex&#45;&gt;NASALib/trig</title>
<path fill="none" stroke="black" d="M512,-900C512,-900 255,-775 255,-775 255,-775 117,-614 117,-614 117,-614 117,-614 117,-540 117,-540 167,-451 167,-451 167,-451 186.51,-436.23 204.94,-422.28"/>
<polygon fill="black" stroke="black" points="207.01,-425.09 212.87,-416.27 202.79,-419.51 207.01,-425.09"/>
<path fill="none" stroke="black" d="M250.3,-964.31C326.68,-946.12 512,-902 512,-902"/>
</g>
<!-- NASALib/extended_nnreal -->
<g id="node4" class="node">
<title>NASALib/extended_nnreal</title>
<polygon fill="#fcfcd7" stroke="black" points="664,-559 558,-559 558,-523 664,-523 664,-559"/>
<text text-anchor="middle" x="611" y="-537.3" font-family="Times,serif" font-size="14.00">extended_nnreal</text>
</g>
<!-- NASALib/extended_nnreal&#45;&gt;NASALib/analysis -->
<g id="edge16" class="edge">
<title>NASALib/extended_nnreal&#45;&gt;NASALib/analysis</title>
<path fill="none" stroke="black" d="M591,-468C591,-468 577.32,-340.69 571.06,-282.46"/>
<polygon fill="black" stroke="black" points="574.55,-282.22 570.01,-272.66 567.59,-282.97 574.55,-282.22"/>
<path fill="none" stroke="black" d="M606.06,-522.7C600.13,-501.97 591,-470 591,-470"/>
</g>
<!-- NASALib/extended_nnreal&#45;&gt;NASALib/reals -->
<g id="edge17" class="edge">
<title>NASALib/extended_nnreal&#45;&gt;NASALib/reals</title>
<path fill="none" stroke="black" d="M703,-614C703,-614 703,-684 703,-684"/>
<path fill="none" stroke="black" d="M633.74,-559.3C653.11,-574.04 679.94,-594.46 693.84,-605.03"/>
<polygon fill="black" stroke="black" points="691.72,-607.81 701.8,-611.08 695.96,-602.24 691.72,-607.81"/>
</g>
<!-- NASALib/series -->
<g id="node14" class="node">
<title>NASALib/series</title>
<polygon fill="#fcfcd7" stroke="black" points="644,-343 590,-343 590,-307 644,-307 644,-343"/>
<text text-anchor="middle" x="617" y="-321.3" font-family="Times,serif" font-size="14.00">series</text>
</g>
<!-- NASALib/extended_nnreal&#45;&gt;NASALib/series -->
<g id="edge18" class="edge">
<title>NASALib/extended_nnreal&#45;&gt;NASALib/series</title>
<path fill="none" stroke="black" d="M591,-468C591,-468 591,-398 591,-398"/>
</g>
<!-- NASALib/extended_nnreal&#45;&gt;NASALib/sigma_set -->
<g id="edge19" class="edge">
<title>NASALib/extended_nnreal&#45;&gt;NASALib/sigma_set</title>
<path fill="none" stroke="black" d="M630.03,-522.7C639.2,-514.37 650.35,-504.22 660.43,-495.07"/>
<polygon fill="black" stroke="black" points="662.75,-497.68 667.8,-488.37 658.04,-492.5 662.75,-497.68"/>
</g>
<!-- NASALib/lebesgue -->
<g id="node6" class="node">
<title>NASALib/lebesgue</title>
<polygon fill="#fcfcd7" stroke="black" points="491,-703 427,-703 427,-667 491,-667 491,-703"/>
<text text-anchor="middle" x="459" y="-681.3" font-family="Times,serif" font-size="14.00">lebesgue</text>
</g>
<!-- NASALib/lebesgue&#45;&gt;NASALib/analysis -->
<g id="edge20" class="edge">
<title>NASALib/lebesgue&#45;&gt;NASALib/analysis</title>
<path fill="none" stroke="black" d="M440.51,-666.62C403.96,-632.27 326,-559 326,-559 326,-559 311,-542 311,-542"/>
<path fill="none" stroke="black" d="M311,-540C311,-540 301,-487 301,-487 301,-487 301,-451 301,-451 301,-451 374,-415 374,-415 374,-415 389,-326 389,-326"/>
</g>
<!-- NASALib/lebesgue&#45;&gt;NASALib/extended_nnreal -->
<g id="edge21" class="edge">
<title>NASALib/lebesgue&#45;&gt;NASALib/extended_nnreal</title>
<path fill="none" stroke="black" d="M491.32,-673.02C537.02,-657.49 615,-631 615,-631 615,-631 615,-595 615,-595 615,-595 614.11,-583.17 613.16,-570.68"/>
<polygon fill="black" stroke="black" points="616.67,-570.57 612.42,-560.86 609.69,-571.1 616.67,-570.57"/>
</g>
<!-- NASALib/measure_integration -->
<g id="node8" class="node">
<title>NASALib/measure_integration</title>
<polygon fill="#fcfcd7" stroke="black" points="606,-631 478,-631 478,-595 606,-595 606,-631"/>
<text text-anchor="middle" x="542" y="-609.3" font-family="Times,serif" font-size="14.00">measure_integration</text>
</g>
<!-- NASALib/lebesgue&#45;&gt;NASALib/measure_integration -->
<g id="edge22" class="edge">
<title>NASALib/lebesgue&#45;&gt;NASALib/measure_integration</title>
<path fill="none" stroke="black" d="M479.52,-666.7C489.59,-658.2 501.91,-647.81 512.93,-638.51"/>
<polygon fill="black" stroke="black" points="514.89,-641.45 520.27,-632.32 510.37,-636.09 514.89,-641.45"/>
</g>
<!-- NASALib/metric_space -->
<g id="node9" class="node">
<title>NASALib/metric_space</title>
<polygon fill="#fcfcd7" stroke="black" points="439.5,-559 350.5,-559 350.5,-523 439.5,-523 439.5,-559"/>
<text text-anchor="middle" x="395" y="-537.3" font-family="Times,serif" font-size="14.00">metric_space</text>
</g>
<!-- NASALib/lebesgue&#45;&gt;NASALib/metric_space -->
<g id="edge23" class="edge">
<title>NASALib/lebesgue&#45;&gt;NASALib/metric_space</title>
<path fill="none" stroke="black" d="M459,-612C459,-612 436.82,-587.74 418.58,-567.79"/>
<polygon fill="black" stroke="black" points="421.17,-565.44 411.84,-560.42 416.01,-570.16 421.17,-565.44"/>
<path fill="none" stroke="black" d="M459,-666.7C459,-645.97 459,-614 459,-614"/>
</g>
<!-- NASALib/power -->
<g id="node12" class="node">
<title>NASALib/power</title>
<polygon fill="#fcfcd7" stroke="black" points="552,-487 498,-487 498,-451 552,-451 552,-487"/>
<text text-anchor="middle" x="525" y="-465.3" font-family="Times,serif" font-size="14.00">power</text>
</g>
<!-- NASALib/lebesgue&#45;&gt;NASALib/power -->
<g id="edge24" class="edge">
<title>NASALib/lebesgue&#45;&gt;NASALib/power</title>
<path fill="none" stroke="black" d="M459,-612C459,-612 492.95,-538.97 512.15,-497.65"/>
<polygon fill="black" stroke="black" points="515.23,-499.33 516.27,-488.78 508.88,-496.38 515.23,-499.33"/>
</g>
<!-- NASALib/sets_aux -->
<g id="node15" class="node">
<title>NASALib/sets_aux</title>
<polygon fill="#fcfcd7" stroke="black" points="491.5,-415 428.5,-415 428.5,-379 491.5,-379 491.5,-415"/>
<text text-anchor="middle" x="460" y="-393.3" font-family="Times,serif" font-size="14.00">sets_aux</text>
</g>
<!-- NASALib/lebesgue&#45;&gt;NASALib/sets_aux -->
<g id="edge26" class="edge">
<title>NASALib/lebesgue&#45;&gt;NASALib/sets_aux</title>
<path fill="none" stroke="black" d="M459,-612C459,-612 459.59,-484.69 459.87,-426.46"/>
<polygon fill="black" stroke="black" points="463.37,-426.68 459.91,-416.66 456.37,-426.65 463.37,-426.68"/>
</g>
<!-- NASALib/lebesgue&#45;&gt;NASALib/sigma_set -->
<g id="edge27" class="edge">
<title>NASALib/lebesgue&#45;&gt;NASALib/sigma_set</title>
<path fill="none" stroke="black" d="M491.19,-673.4C538.18,-657.94 620,-631 620,-631 620,-631 673,-559 673,-559 673,-559 678.83,-524.42 683.22,-498.37"/>
<polygon fill="black" stroke="black" points="686.65,-499.1 684.86,-488.65 679.74,-497.93 686.65,-499.1"/>
</g>
<!-- NASALib/lebesgue&#45;&gt;NASALib/structures -->
<g id="edge28" class="edge">
<title>NASALib/lebesgue&#45;&gt;NASALib/structures</title>
<path fill="none" stroke="black" d="M369,-252C369,-252 137,-182 137,-182"/>
<path fill="none" stroke="black" d="M426.91,-666.65C398.33,-651.19 361,-631 361,-631 361,-631 167,-487 167,-487 167,-487 137,-326 137,-326"/>
<path fill="none" stroke="black" d="M137,-324C137,-324 369,-254 369,-254"/>
</g>
<!-- NASALib/topology -->
<g id="node18" class="node">
<title>NASALib/topology</title>
<polygon fill="#fcfcd7" stroke="black" points="375.5,-487 310.5,-487 310.5,-451 375.5,-451 375.5,-487"/>
<text text-anchor="middle" x="343" y="-465.3" font-family="Times,serif" font-size="14.00">topology</text>
</g>
<!-- NASALib/lebesgue&#45;&gt;NASALib/topology -->
<g id="edge29" class="edge">
<title>NASALib/lebesgue&#45;&gt;NASALib/topology</title>
<path fill="none" stroke="black" d="M311,-540C311,-540 321.4,-517.24 330.35,-497.68"/>
<polygon fill="black" stroke="black" points="333.49,-499.23 334.46,-488.68 327.12,-496.32 333.49,-499.23"/>
</g>
<!-- NASALib/lnexp&#45;&gt;NASALib/analysis -->
<g id="edge30" class="edge">
<title>NASALib/lnexp&#45;&gt;NASALib/analysis</title>
<path fill="none" stroke="black" d="M688.6,-378.7C678.53,-357.97 663,-326 663,-326"/>
</g>
<!-- NASALib/lnexp&#45;&gt;NASALib/ints -->
<g id="edge31" class="edge">
<title>NASALib/lnexp&#45;&gt;NASALib/ints</title>
<path fill="none" stroke="black" d="M697.18,-378.52C697.67,-330.3 699,-199 699,-199 699,-199 699,-163 699,-163 699,-163 617,-110 617,-110"/>
</g>
<!-- NASALib/lnexp&#45;&gt;NASALib/reals -->
<g id="edge32" class="edge">
<title>NASALib/lnexp&#45;&gt;NASALib/reals</title>
<path fill="none" stroke="black" d="M708.79,-415.35C719.29,-430.81 733,-451 733,-451 733,-451 733,-487 733,-487 733,-487 711.05,-631.17 704.7,-672.84"/>
<polygon fill="black" stroke="black" points="701.27,-672.09 703.23,-682.5 708.19,-673.14 701.27,-672.09"/>
</g>
<!-- NASALib/lnexp&#45;&gt;NASALib/series -->
<g id="edge33" class="edge">
<title>NASALib/lnexp&#45;&gt;NASALib/series</title>
<path fill="none" stroke="black" d="M677.22,-378.7C667.61,-370.28 655.88,-360.02 645.33,-350.79"/>
<polygon fill="black" stroke="black" points="647.79,-348.29 637.96,-344.34 643.19,-353.56 647.79,-348.29"/>
</g>
<!-- NASALib/measure_integration&#45;&gt;NASALib/extended_nnreal -->
<g id="edge34" class="edge">
<title>NASALib/measure_integration&#45;&gt;NASALib/extended_nnreal</title>
<path fill="none" stroke="black" d="M559.06,-594.7C567.24,-586.39 577.21,-576.28 586.22,-567.14"/>
<polygon fill="black" stroke="black" points="588.55,-569.76 593.08,-560.18 583.56,-564.85 588.55,-569.76"/>
</g>
<!-- NASALib/measure_integration&#45;&gt;NASALib/metric_space -->
<g id="edge35" class="edge">
<title>NASALib/measure_integration&#45;&gt;NASALib/metric_space</title>
<path fill="none" stroke="black" d="M505.28,-594.52C486.09,-585.38 462.4,-574.09 441.89,-564.33"/>
<polygon fill="black" stroke="black" points="443.4,-561.17 432.87,-560.03 440.39,-567.49 443.4,-561.17"/>
</g>
<!-- NASALib/measure_integration&#45;&gt;NASALib/orders -->
<g id="edge36" class="edge">
<title>NASALib/measure_integration&#45;&gt;NASALib/orders</title>
<path fill="none" stroke="black" d="M584.89,-594.65C623.1,-579.19 673,-559 673,-559 673,-559 733,-487 733,-487 733,-487 738,-415 738,-415 738,-415 738,-379 738,-379 738,-379 719,-307 719,-307 719,-307 689,-254 689,-254"/>
</g>
<!-- NASALib/measure_integration&#45;&gt;NASALib/power -->
<g id="edge37" class="edge">
<title>NASALib/measure_integration&#45;&gt;NASALib/power</title>
<path fill="none" stroke="black" d="M536.31,-594.7C529.5,-573.97 519,-542 519,-542"/>
<path fill="none" stroke="black" d="M519,-540C519,-540 520.88,-518.08 522.53,-498.77"/>
<polygon fill="black" stroke="black" points="526.02,-499.07 523.39,-488.81 519.05,-498.48 526.02,-499.07"/>
</g>
<!-- NASALib/measure_integration&#45;&gt;NASALib/reals -->
<g id="edge38" class="edge">
<title>NASALib/measure_integration&#45;&gt;NASALib/reals</title>
<path fill="none" stroke="black" d="M703,-686C703,-686 410.37,-735.72 318.35,-751.35"/>
<path fill="none" stroke="black" d="M582.21,-631.48C618.91,-647.44 670.65,-669.94 692.56,-679.46"/>
<polygon fill="black" stroke="black" points="691.05,-682.62 701.61,-683.4 693.84,-676.2 691.05,-682.62"/>
</g>
<!-- NASALib/measure_integration&#45;&gt;NASALib/series -->
<g id="edge39" class="edge">
<title>NASALib/measure_integration&#45;&gt;NASALib/series</title>
<path fill="none" stroke="black" d="M591,-396C591,-396 599.37,-373.45 606.62,-353.95"/>
<polygon fill="black" stroke="black" points="609.85,-355.32 610.05,-344.72 603.28,-352.88 609.85,-355.32"/>
<path fill="none" stroke="black" d="M519,-540C519,-540 561,-487 561,-487 561,-487 591,-398 591,-398"/>
</g>
<!-- NASALib/measure_integration&#45;&gt;NASALib/sets_aux -->
<g id="edge40" class="edge">
<title>NASALib/measure_integration&#45;&gt;NASALib/sets_aux</title>
<path fill="none" stroke="black" d="M532.83,-594.65C524.67,-579.19 514,-559 514,-559 514,-559 489,-487 489,-487 489,-487 477.63,-452.11 469.13,-426.02"/>
<polygon fill="black" stroke="black" points="472.49,-425.02 466.06,-416.6 465.83,-427.19 472.49,-425.02"/>
</g>
<!-- NASALib/measure_integration&#45;&gt;NASALib/sigma_set -->
<g id="edge41" class="edge">
<title>NASALib/measure_integration&#45;&gt;NASALib/sigma_set</title>
<path fill="none" stroke="black" d="M519,-540C519,-540 549,-523 549,-523 549,-523 601.26,-503.07 641.69,-487.66"/>
<polygon fill="black" stroke="black" points="642.69,-491.02 650.79,-484.19 640.2,-484.48 642.69,-491.02"/>
</g>
<!-- NASALib/measure_integration&#45;&gt;NASALib/structures -->
<g id="edge42" class="edge">
<title>NASALib/measure_integration&#45;&gt;NASALib/structures</title>
<path fill="none" stroke="black" d="M331,-540C331,-540 342,-523 342,-523 342,-523 385,-487 385,-487 385,-487 385,-451 385,-451 385,-451 369,-398 369,-398"/>
</g>
<!-- NASALib/measure_integration&#45;&gt;NASALib/topology -->
<g id="edge43" class="edge">
<title>NASALib/measure_integration&#45;&gt;NASALib/topology</title>
<path fill="none" stroke="black" d="M477.62,-594.94C419.15,-579.45 342,-559 342,-559 342,-559 331,-542 331,-542"/>
<path fill="none" stroke="black" d="M331,-540C331,-540 334.79,-517.87 338.12,-498.5"/>
<polygon fill="black" stroke="black" points="341.54,-499.24 339.78,-488.8 334.64,-498.06 341.54,-499.24"/>
</g>
<!-- NASALib/measure_integration&#45;&gt;lib/finite_sets -->
<g id="edge44" class="edge">
<title>NASALib/measure_integration&#45;&gt;lib/finite_sets</title>
<path fill="none" stroke="black" d="M812,-540C812,-540 812,-470 812,-470"/>
<path fill="none" stroke="black" d="M606.42,-598.56C681.67,-582.86 796,-559 796,-559 796,-559 812,-542 812,-542"/>
</g>
<!-- NASALib/metric_space&#45;&gt;NASALib/analysis -->
<g id="edge45" class="edge">
<title>NASALib/metric_space&#45;&gt;NASALib/analysis</title>
<path fill="none" stroke="black" d="M415,-468C415,-468 420,-379 420,-379 420,-379 531,-326 531,-326"/>
<path fill="none" stroke="black" d="M531,-324C531,-324 536,-307 536,-307 536,-307 543.74,-294.18 551.61,-281.15"/>
<polygon fill="black" stroke="black" points="554.57,-283.02 556.74,-272.65 548.57,-279.4 554.57,-283.02"/>
<path fill="none" stroke="black" d="M399.94,-522.7C405.87,-501.97 415,-470 415,-470"/>
</g>
<!-- NASALib/metric_space&#45;&gt;NASALib/power -->
<g id="edge46" class="edge">
<title>NASALib/metric_space&#45;&gt;NASALib/power</title>
<path fill="none" stroke="black" d="M427.47,-522.52C445.74,-512.68 468.64,-500.35 487.66,-490.11"/>
<polygon fill="black" stroke="black" points="489.29,-493.2 496.43,-485.38 485.97,-487.04 489.29,-493.2"/>
</g>
<!-- NASALib/metric_space&#45;&gt;NASALib/series -->
<g id="edge48" class="edge">
<title>NASALib/metric_space&#45;&gt;NASALib/series</title>
<path fill="none" stroke="black" d="M412.79,-522.85C451.84,-485.21 545.21,-395.2 590.91,-351.15"/>
<polygon fill="black" stroke="black" points="593.26,-353.74 598.03,-344.28 588.4,-348.7 593.26,-353.74"/>
</g>
<!-- NASALib/metric_space&#45;&gt;NASALib/sets_aux -->
<g id="edge49" class="edge">
<title>NASALib/metric_space&#45;&gt;NASALib/sets_aux</title>
<path fill="none" stroke="black" d="M415,-468C415,-468 430.04,-444.61 442.73,-424.87"/>
<polygon fill="black" stroke="black" points="445.59,-426.88 448.06,-416.58 439.71,-423.1 445.59,-426.88"/>
</g>
<!-- NASALib/metric_space&#45;&gt;NASALib/topology -->
<g id="edge50" class="edge">
<title>NASALib/metric_space&#45;&gt;NASALib/topology</title>
<path fill="none" stroke="black" d="M382.15,-522.7C376.23,-514.73 369.07,-505.1 362.51,-496.26"/>
<polygon fill="black" stroke="black" points="365.38,-494.26 356.61,-488.32 359.76,-498.43 365.38,-494.26"/>
</g>
<!-- NASALib/vectors -->
<g id="node20" class="node">
<title>NASALib/vectors</title>
<polygon fill="#fcfcd7" stroke="black" points="232,-487 176,-487 176,-451 232,-451 232,-487"/>
<text text-anchor="middle" x="204" y="-465.3" font-family="Times,serif" font-size="14.00">vectors</text>
</g>
<!-- NASALib/metric_space&#45;&gt;NASALib/vectors -->
<g id="edge51" class="edge">
<title>NASALib/metric_space&#45;&gt;NASALib/vectors</title>
<path fill="none" stroke="black" d="M350.22,-523.59C317.67,-511.66 274.05,-495.67 242.94,-484.27"/>
<polygon fill="black" stroke="black" points="244.51,-481.12 233.92,-480.97 242.11,-487.69 244.51,-481.12"/>
</g>
<!-- NASALib/metric_space&#45;&gt;lib/finite_sets -->
<g id="edge52" class="edge">
<title>NASALib/metric_space&#45;&gt;lib/finite_sets</title>
<path fill="none" stroke="black" d="M812,-468C812,-468 812,-326 812,-326"/>
<path fill="none" stroke="black" d="M439.88,-532.96C531.83,-518.54 733,-487 733,-487 733,-487 812,-470 812,-470"/>
</g>
<!-- NASALib/numbers&#45;&gt;NASALib/ints -->
<g id="edge53" class="edge">
<title>NASALib/numbers&#45;&gt;NASALib/ints</title>
<path fill="none" stroke="black" d="M117,-252C117,-252 117,-182 117,-182"/>
<path fill="none" stroke="black" d="M64.2,-810.59C55.92,-772.67 37,-686 37,-686 37,-686 37,-686 37,-540 37,-540 101,-307 101,-307 101,-307 117,-254 117,-254"/>
</g>
<!-- NASALib/numbers&#45;&gt;NASALib/reals -->
<g id="edge54" class="edge">
<title>NASALib/numbers&#45;&gt;NASALib/reals</title>
<path fill="none" stroke="black" d="M100.43,-817.82C140.9,-805.12 210.02,-783.42 252.95,-769.94"/>
<polygon fill="black" stroke="black" points="253.86,-773.33 262.35,-766.99 251.76,-766.65 253.86,-773.33"/>
</g>
<!-- NASALib/numbers&#45;&gt;NASALib/structures -->
<g id="edge55" class="edge">
<title>NASALib/numbers&#45;&gt;NASALib/structures</title>
<path fill="none" stroke="black" d="M137,-180C137,-180 406.95,-135.64 517.07,-117.55"/>
<polygon fill="black" stroke="black" points="517.34,-121.05 526.65,-115.97 516.21,-114.14 517.34,-121.05"/>
<path fill="none" stroke="black" d="M117,-252C117,-252 137,-182 137,-182"/>
</g>
<!-- NASALib/orders&#45;&gt;NASALib/structures -->
<g id="edge56" class="edge">
<title>NASALib/orders&#45;&gt;NASALib/structures</title>
<path fill="none" stroke="black" d="M638.02,-162.52C625.64,-153.85 610.5,-143.25 597.07,-133.85"/>
<polygon fill="black" stroke="black" points="599.1,-131 588.9,-128.13 595.08,-136.73 599.1,-131"/>
</g>
<!-- NASALib/orders&#45;&gt;lib/finite_sets -->
<g id="edge57" class="edge">
<title>NASALib/orders&#45;&gt;lib/finite_sets</title>
<path fill="none" stroke="black" d="M690.33,-167.16C733.34,-146.95 812,-110 812,-110"/>
<path fill="none" stroke="black" d="M812,-108C812,-108 822.84,-83.26 831.91,-62.59"/>
<polygon fill="black" stroke="black" points="835,-64.25 835.81,-53.69 828.59,-61.44 835,-64.25"/>
</g>
<!-- NASALib/power&#45;&gt;NASALib/analysis -->
<g id="edge58" class="edge">
<title>NASALib/power&#45;&gt;NASALib/analysis</title>
<path fill="none" stroke="black" d="M525.74,-450.59C527.34,-412.67 531,-326 531,-326"/>
</g>
<!-- NASALib/power&#45;&gt;NASALib/lnexp -->
<g id="edge59" class="edge">
<title>NASALib/power&#45;&gt;NASALib/lnexp</title>
<path fill="none" stroke="black" d="M552.46,-456.89C590.88,-441.35 656,-415 656,-415 656,-415 657.37,-414.43 659.62,-413.5"/>
<polygon fill="black" stroke="black" points="660.59,-416.89 668.48,-409.82 657.9,-410.42 660.59,-416.89"/>
</g>
<!-- NASALib/power&#45;&gt;NASALib/reals -->
<g id="edge60" class="edge">
<title>NASALib/power&#45;&gt;NASALib/reals</title>
<path fill="none" stroke="black" d="M529.63,-487.16C536.6,-513.02 549,-559 549,-559 549,-559 615,-595 615,-595 615,-595 673.65,-654.32 695.19,-676.1"/>
<polygon fill="black" stroke="black" points="692.42,-678.27 701.94,-682.92 697.39,-673.35 692.42,-678.27"/>
</g>
<!-- NASALib/reals&#45;&gt;NASALib/ints -->
<g id="edge61" class="edge">
<title>NASALib/reals&#45;&gt;NASALib/ints</title>
<path fill="none" stroke="black" d="M157,-252C157,-252 117,-182 117,-182"/>
<path fill="none" stroke="black" d="M264.76,-738.59C207.62,-700.67 77,-614 77,-614 77,-614 77,-614 77,-540 77,-540 128,-307 128,-307 128,-307 157,-254 157,-254"/>
</g>
<!-- NASALib/reals&#45;&gt;NASALib/lebesgue -->
<g id="edge62" class="edge">
<title>NASALib/reals&#45;&gt;NASALib/lebesgue</title>
<path fill="none" stroke="black" d="M328.69,-740.3C354.73,-729.45 389.4,-715 416.44,-703.74"/>
<polygon fill="black" stroke="black" points="327.65,-736.94 319.76,-744.02 330.34,-743.4 327.65,-736.94"/>
<polygon fill="black" stroke="black" points="417.48,-707.09 425.36,-700.02 414.79,-700.63 417.48,-707.09"/>
</g>
<!-- NASALib/reals&#45;&gt;NASALib/metric_space -->
<g id="edge63" class="edge">
<title>NASALib/reals&#45;&gt;NASALib/metric_space</title>
<path fill="none" stroke="black" d="M304.26,-728.71C324.22,-687.65 361.75,-610.42 381.72,-569.33"/>
<polygon fill="black" stroke="black" points="301.22,-726.96 300,-737.49 307.52,-730.02 301.22,-726.96"/>
<polygon fill="black" stroke="black" points="384.74,-571.12 385.96,-560.59 378.44,-568.06 384.74,-571.12"/>
</g>
<!-- NASALib/reals&#45;&gt;NASALib/sets_aux -->
<g id="edge64" class="edge">
<title>NASALib/reals&#45;&gt;NASALib/sets_aux</title>
<path fill="none" stroke="black" d="M288.55,-738.59C283.21,-700.67 271,-614 271,-614 271,-614 271,-614 271,-540 271,-540 301,-451 301,-451 301,-451 370.26,-427.91 417.35,-412.22"/>
<polygon fill="black" stroke="black" points="418.39,-415.56 426.77,-409.08 416.18,-408.92 418.39,-415.56"/>
</g>
<!-- NASALib/reals&#45;&gt;NASALib/structures -->
<g id="edge65" class="edge">
<title>NASALib/reals&#45;&gt;NASALib/structures</title>
<path fill="none" stroke="black" d="M276.27,-738.65C263.14,-723.19 246,-703 246,-703 246,-703 189,-631 189,-631 189,-631 153,-559 153,-559 153,-559 144,-487 144,-487 144,-487 132,-343 132,-343 132,-343 132,-307 132,-307 132,-307 162,-271 162,-271 162,-271 162,-235 162,-235 162,-235 137,-182 137,-182"/>
</g>
<!-- NASALib/series&#45;&gt;NASALib/analysis -->
<g id="edge66" class="edge">
<title>NASALib/series&#45;&gt;NASALib/analysis</title>
<path fill="none" stroke="black" d="M604.89,-306.7C599.31,-298.73 592.57,-289.1 586.38,-280.26"/>
<polygon fill="black" stroke="black" points="589.44,-278.53 580.84,-272.34 583.71,-282.54 589.44,-278.53"/>
</g>
<!-- NASALib/series&#45;&gt;NASALib/ints -->
<g id="edge67" class="edge">
<title>NASALib/series&#45;&gt;NASALib/ints</title>
<path fill="none" stroke="black" d="M617,-306.85C617,-256.07 617,-110 617,-110"/>
</g>
<!-- NASALib/series&#45;&gt;NASALib/orders -->
<g id="edge68" class="edge">
<title>NASALib/series&#45;&gt;NASALib/orders</title>
<path fill="none" stroke="black" d="M634.8,-306.7C656.12,-285.97 689,-254 689,-254"/>
</g>
<!-- NASALib/series&#45;&gt;NASALib/reals -->
<g id="edge69" class="edge">
<title>NASALib/series&#45;&gt;NASALib/reals</title>
<path fill="none" stroke="black" d="M619.89,-343.23C626.85,-384.76 644,-487 644,-487 644,-487 678.23,-517.75 694.55,-532.41"/>
<polygon fill="black" stroke="black" points="692.1,-534.91 701.87,-538.99 696.77,-529.7 692.1,-534.91"/>
<path fill="none" stroke="black" d="M703,-542C703,-542 703,-612 703,-612"/>
</g>
<!-- NASALib/sets_aux&#45;&gt;NASALib/ints -->
<g id="edge70" class="edge">
<title>NASALib/sets_aux&#45;&gt;NASALib/ints</title>
<path fill="none" stroke="black" d="M430.89,-378.52C350.62,-330.3 132,-199 132,-199 132,-199 117,-182 117,-182"/>
</g>
<!-- NASALib/sets_aux&#45;&gt;NASALib/orders -->
<g id="edge71" class="edge">
<title>NASALib/sets_aux&#45;&gt;NASALib/orders</title>
<path fill="none" stroke="black" d="M484.89,-378.65C507.05,-363.19 536,-343 536,-343 536,-343 581,-307 581,-307 581,-307 689,-254 689,-254"/>
<path fill="none" stroke="black" d="M689,-252C689,-252 680.63,-229.45 673.38,-209.95"/>
<polygon fill="black" stroke="black" points="676.72,-208.88 669.95,-200.72 670.15,-211.32 676.72,-208.88"/>
</g>
<!-- NASALib/sets_aux&#45;&gt;NASALib/structures -->
<g id="edge72" class="edge">
<title>NASALib/sets_aux&#45;&gt;NASALib/structures</title>
<path fill="none" stroke="black" d="M448.84,-378.59C424.54,-340.67 369,-254 369,-254"/>
</g>
<!-- NASALib/sets_aux&#45;&gt;lib/finite_sets -->
<g id="edge73" class="edge">
<title>NASALib/sets_aux&#45;&gt;lib/finite_sets</title>
<path fill="none" stroke="black" d="M491.86,-389.66C578.51,-372.43 812,-326 812,-326"/>
<path fill="none" stroke="black" d="M812,-324C812,-324 812,-182 812,-182"/>
</g>
<!-- NASALib/sigma_set&#45;&gt;NASALib/analysis -->
<g id="edge74" class="edge">
<title>NASALib/sigma_set&#45;&gt;NASALib/analysis</title>
<path fill="none" stroke="black" d="M651,-396C651,-396 663,-326 663,-326"/>
<path fill="none" stroke="black" d="M663,-324C663,-324 653,-307 653,-307 653,-307 628.21,-291.54 605.41,-277.32"/>
<polygon fill="black" stroke="black" points="607.45,-274.48 597.12,-272.16 603.75,-280.42 607.45,-274.48"/>
</g>
<!-- NASALib/sigma_set&#45;&gt;NASALib/orders -->
<g id="edge75" class="edge">
<title>NASALib/sigma_set&#45;&gt;NASALib/orders</title>
<path fill="none" stroke="black" d="M702.73,-450.65C715.86,-435.19 733,-415 733,-415 733,-415 733,-379 733,-379 733,-379 689,-254 689,-254"/>
</g>
<!-- NASALib/sigma_set&#45;&gt;NASALib/reals -->
<g id="edge76" class="edge">
<title>NASALib/sigma_set&#45;&gt;NASALib/reals</title>
<path fill="none" stroke="black" d="M691.71,-487.3C694.48,-500.26 698.2,-517.6 700.6,-528.79"/>
<polygon fill="black" stroke="black" points="697.17,-529.48 702.68,-538.52 704.01,-528.01 697.17,-529.48"/>
</g>
<!-- NASALib/sigma_set&#45;&gt;NASALib/series -->
<g id="edge77" class="edge">
<title>NASALib/sigma_set&#45;&gt;NASALib/series</title>
<path fill="none" stroke="black" d="M651,-396C651,-396 639.84,-373.03 630.31,-353.41"/>
<polygon fill="black" stroke="black" points="633.58,-352.13 626.07,-344.66 627.29,-355.19 633.58,-352.13"/>
<path fill="none" stroke="black" d="M678.85,-450.7C667.9,-429.97 651,-398 651,-398"/>
</g>
<!-- NASALib/sigma_set&#45;&gt;NASALib/sets_aux -->
<g id="edge78" class="edge">
<title>NASALib/sigma_set&#45;&gt;NASALib/sets_aux</title>
<path fill="none" stroke="black" d="M652.12,-456.99C611.72,-444.58 546.08,-424.43 502.97,-411.19"/>
<polygon fill="black" stroke="black" points="504.02,-407.85 493.43,-408.26 501.97,-414.55 504.02,-407.85"/>
</g>
<!-- NASALib/structures&#45;&gt;NASALib/ints -->
<g id="edge79" class="edge">
<title>NASALib/structures&#45;&gt;NASALib/ints</title>
<path fill="none" stroke="black" d="M563,-90.7C563,-82.67 563,-72.9 563,-63.8"/>
<polygon fill="black" stroke="black" points="566.5,-63.94 563,-53.94 559.5,-63.94 566.5,-63.94"/>
</g>
<!-- NASALib/structures&#45;&gt;lib/finite_sets -->
<g id="edge80" class="edge">
<title>NASALib/structures&#45;&gt;lib/finite_sets</title>
<path fill="none" stroke="black" d="M597.88,-104.26C662.88,-97.28 796,-83 796,-83 796,-83 807.17,-71.83 818.73,-60.27"/>
<polygon fill="black" stroke="black" points="821,-62.95 825.6,-53.4 816.05,-58 821,-62.95"/>
</g>
<!-- NASALib/topology&#45;&gt;NASALib/reals -->
<g id="edge81" class="edge">
<title>NASALib/topology&#45;&gt;NASALib/reals</title>
<path fill="none" stroke="black" d="M330.88,-487.35C320.09,-502.81 306,-523 306,-523 306,-523 296.83,-665.43 292.83,-727.58"/>
<polygon fill="black" stroke="black" points="289.35,-727.15 292.2,-737.36 296.34,-727.6 289.35,-727.15"/>
</g>
<!-- NASALib/topology&#45;&gt;NASALib/sets_aux -->
<g id="edge82" class="edge">
<title>NASALib/topology&#45;&gt;NASALib/sets_aux</title>
<path fill="none" stroke="black" d="M372.22,-450.52C387.13,-441.6 405.46,-430.63 421.51,-421.03"/>
<polygon fill="black" stroke="black" points="423.07,-424.18 429.85,-416.04 419.47,-418.17 423.07,-424.18"/>
</g>
<!-- NASALib/topology&#45;&gt;NASALib/structures -->
<g id="edge83" class="edge">
<title>NASALib/topology&#45;&gt;NASALib/structures</title>
<path fill="none" stroke="black" d="M349.43,-450.7C357.13,-429.97 369,-398 369,-398"/>
<path fill="none" stroke="black" d="M369,-396C369,-396 369,-254 369,-254"/>
</g>
<!-- NASALib/trig&#45;&gt;NASALib/analysis -->
<g id="edge84" class="edge">
<title>NASALib/trig&#45;&gt;NASALib/analysis</title>
<path fill="none" stroke="black" d="M264.17,-383.49C307.9,-363.35 389,-326 389,-326"/>
<path fill="none" stroke="black" d="M389,-324C389,-324 474.39,-290.61 527.22,-269.95"/>
<polygon fill="black" stroke="black" points="528.19,-273.33 536.23,-266.43 525.64,-266.81 528.19,-273.33"/>
</g>
<!-- NASALib/trig&#45;&gt;NASALib/ints -->
<g id="edge85" class="edge">
<title>NASALib/trig&#45;&gt;NASALib/ints</title>
<path fill="none" stroke="black" d="M227.19,-378.59C205.83,-340.67 157,-254 157,-254"/>
</g>
<!-- NASALib/trig&#45;&gt;NASALib/reals -->
<g id="edge86" class="edge">
<title>NASALib/trig&#45;&gt;NASALib/reals</title>
<path fill="none" stroke="black" d="M238.72,-415.41C241.62,-444.89 247.43,-503.82 249.88,-528.6"/>
<polygon fill="black" stroke="black" points="246.39,-528.89 250.85,-538.49 253.35,-528.2 246.39,-528.89"/>
</g>
<!-- NASALib/trig&#45;&gt;NASALib/series -->
<g id="edge87" class="edge">
<title>NASALib/trig&#45;&gt;NASALib/series</title>
<path fill="none" stroke="black" d="M264.33,-391.16C338.14,-378.07 536,-343 536,-343 536,-343 557.61,-338.46 578.51,-334.08"/>
<polygon fill="black" stroke="black" points="579.03,-337.55 588.1,-332.07 577.59,-330.7 579.03,-337.55"/>
</g>
<!-- NASALib/vectors&#45;&gt;NASALib/reals -->
<g id="edge88" class="edge">
<title>NASALib/vectors&#45;&gt;NASALib/reals</title>
<path fill="none" stroke="black" d="M251,-542C251,-542 251,-684 251,-684"/>
<path fill="none" stroke="black" d="M215.62,-487.3C224.86,-501.07 237.43,-519.79 244.83,-530.82"/>
<polygon fill="black" stroke="black" points="241.68,-532.39 250.16,-538.74 247.49,-528.49 241.68,-532.39"/>
</g>
<!-- NASALib/vectors&#45;&gt;NASALib/structures -->
<g id="edge89" class="edge">
<title>NASALib/vectors&#45;&gt;NASALib/structures</title>
<path fill="none" stroke="black" d="M195.78,-450.59C177.89,-412.67 137,-326 137,-326"/>
</g>
<!-- NASALib/vectors&#45;&gt;NASALib/trig -->
<g id="edge90" class="edge">
<title>NASALib/vectors&#45;&gt;NASALib/trig</title>
<path fill="none" stroke="black" d="M212.16,-450.7C215.75,-443.07 220.07,-433.92 224.08,-425.4"/>
<polygon fill="black" stroke="black" points="227.19,-427.01 228.29,-416.47 220.86,-424.03 227.19,-427.01"/>
</g>
</g>
</svg>
