<?xml version="1.0" encoding="UTF-8" standalone="no"?>
<!DOCTYPE svg PUBLIC "-//W3C//DTD SVG 1.1//EN"
 "http://www.w3.org/Graphics/SVG/1.1/DTD/svg11.dtd">
<!-- Generated by graphviz version 7.0.6 (20230106.0513)
 -->
<!-- Title: complex&#45;zoomed Pages: 1 -->
<svg width="738pt" height="462pt"
 viewBox="0.00 0.00 738.00 462.00" xmlns="http://www.w3.org/2000/svg" xmlns:xlink="http://www.w3.org/1999/xlink">
<g id="graph0" class="graph" transform="scale(1 1) rotate(0) translate(4 458)">
<title>complex&#45;zoomed</title>
<polygon fill="white" stroke="none" points="-4,4 -4,-458 734,-458 734,4 -4,4"/>
<g id="clust1" class="cluster">
<title>cluster_NASALib</title>
<polygon fill="none" stroke="black" points="434,-80 434,-155 722,-155 722,-80 434,-80"/>
<text text-anchor="middle" x="578" y="-139.8" font-family="Times,serif" font-size="14.00">NASALib</text>
</g>
<g id="clust2" class="cluster">
<title>cluster_NASALib/complex</title>
<polygon fill="none" stroke="black" points="8,-8 8,-446 426,-446 426,-8 8,-8"/>
<text text-anchor="middle" x="217" y="-430.8" font-family="Times,serif" font-size="14.00">NASALib/complex</text>
</g>
<!-- NASALib/algebra -->
<g id="node1" class="node">
<title>NASALib/algebra</title>
<polygon fill="#fcfcd7" stroke="black" points="498,-124 442,-124 442,-88 498,-88 498,-124"/>
<text text-anchor="middle" x="470" y="-102.3" font-family="Times,serif" font-size="14.00">algebra</text>
</g>
<!-- NASALib/complex@arithmetic -->
<g id="node2" class="node">
<title>NASALib/complex@arithmetic</title>
<ellipse fill="#e6f3ff" stroke="black" cx="229" cy="-181" rx="46.59" ry="18"/>
<text text-anchor="middle" x="229" y="-177.3" font-family="Times,serif" font-size="14.00">arithmetic</text>
</g>
<!-- NASALib/complex@complex_types -->
<g id="node6" class="node">
<title>NASALib/complex@complex_types</title>
<ellipse fill="#e6f3ff" stroke="black" cx="229" cy="-106" rx="64.19" ry="18"/>
<text text-anchor="middle" x="229" y="-102.3" font-family="Times,serif" font-size="14.00">complex_types</text>
</g>
<!-- NASALib/complex@arithmetic&#45;&gt;NASALib/complex@complex_types -->
<g id="edge1" class="edge">
<title>NASALib/complex@arithmetic&#45;&gt;NASALib/complex@complex_types</title>
<path fill="none" stroke="black" d="M229,-162.7C229,-154.67 229,-144.9 229,-135.8"/>
<polygon fill="black" stroke="black" points="232.5,-135.94 229,-125.94 225.5,-135.94 232.5,-135.94"/>
</g>
<!-- NASALib/complex@complex_field -->
<g id="node3" class="node">
<title>NASALib/complex@complex_field</title>
<ellipse fill="#e6f3ff" stroke="black" cx="356" cy="-181" rx="61.99" ry="18"/>
<text text-anchor="middle" x="356" y="-177.3" font-family="Times,serif" font-size="14.00">complex_field</text>
</g>
<!-- NASALib/complex@complex_field&#45;&gt;NASALib/algebra -->
<g id="edge2" class="edge">
<title>NASALib/complex@complex_field&#45;&gt;NASALib/algebra</title>
<path fill="none" stroke="black" d="M395.17,-166.77C412.92,-160.77 430,-155 430,-155 430,-155 438.95,-144.25 448.39,-132.93"/>
<polygon fill="black" stroke="black" points="450.88,-135.41 454.59,-125.49 445.5,-130.93 450.88,-135.41"/>
</g>
<!-- NASALib/complex@complex_field&#45;&gt;NASALib/complex@complex_types -->
<g id="edge3" class="edge">
<title>NASALib/complex@complex_field&#45;&gt;NASALib/complex@complex_types</title>
<path fill="none" stroke="black" d="M329.07,-164.52C310.75,-153.99 286.29,-139.93 266.13,-128.34"/>
<polygon fill="black" stroke="black" points="268.06,-125.41 257.64,-123.47 264.57,-131.48 268.06,-125.41"/>
</g>
<!-- NASALib/complex@complex_sets -->
<g id="node4" class="node">
<title>NASALib/complex@complex_sets</title>
<ellipse fill="#e6f3ff" stroke="black" cx="309" cy="-397" rx="59.29" ry="18"/>
<text text-anchor="middle" x="309" y="-393.3" font-family="Times,serif" font-size="14.00">complex_sets</text>
</g>
<!-- NASALib/complex@exp -->
<g id="node7" class="node">
<title>NASALib/complex@exp</title>
<ellipse fill="#e6f3ff" stroke="black" cx="194" cy="-325" rx="27" ry="18"/>
<text text-anchor="middle" x="194" y="-321.3" font-family="Times,serif" font-size="14.00">exp</text>
</g>
<!-- NASALib/complex@complex_sets&#45;&gt;NASALib/complex@exp -->
<g id="edge4" class="edge">
<title>NASALib/complex@complex_sets&#45;&gt;NASALib/complex@exp</title>
<path fill="none" stroke="black" d="M283.48,-380.46C265.61,-369.59 241.71,-355.04 223.1,-343.71"/>
<polygon fill="black" stroke="black" points="225.03,-340.79 214.67,-338.58 221.39,-346.77 225.03,-340.79"/>
</g>
<!-- NASALib/complex@complex_sqrt -->
<g id="node5" class="node">
<title>NASALib/complex@complex_sqrt</title>
<ellipse fill="#e6f3ff" stroke="black" cx="90" cy="-325" rx="59.29" ry="18"/>
<text text-anchor="middle" x="90" y="-321.3" font-family="Times,serif" font-size="14.00">complex_sqrt</text>
</g>
<!-- NASALib/complex@number_fields_sq -->
<g id="node10" class="node">
<title>NASALib/complex@number_fields_sq</title>
<ellipse fill="#e6f3ff" stroke="black" cx="90" cy="-181" rx="74.19" ry="18"/>
<text text-anchor="middle" x="90" y="-177.3" font-family="Times,serif" font-size="14.00">number_fields_sq</text>
</g>
<!-- NASALib/complex@complex_sqrt&#45;&gt;NASALib/complex@number_fields_sq -->
<g id="edge5" class="edge">
<title>NASALib/complex@complex_sqrt&#45;&gt;NASALib/complex@number_fields_sq</title>
<path fill="none" stroke="black" d="M90,-306.59C90,-282.61 90,-239.14 90,-210.42"/>
<polygon fill="black" stroke="black" points="93.5,-210.62 90,-200.62 86.5,-210.62 93.5,-210.62"/>
</g>
<!-- NASALib/complex@polar -->
<g id="node11" class="node">
<title>NASALib/complex@polar</title>
<ellipse fill="#e6f3ff" stroke="black" cx="194" cy="-253" rx="28.7" ry="18"/>
<text text-anchor="middle" x="194" y="-249.3" font-family="Times,serif" font-size="14.00">polar</text>
</g>
<!-- NASALib/complex@complex_sqrt&#45;&gt;NASALib/complex@polar -->
<g id="edge6" class="edge">
<title>NASALib/complex@complex_sqrt&#45;&gt;NASALib/complex@polar</title>
<path fill="none" stroke="black" d="M113.6,-308.12C129.13,-297.66 149.54,-283.93 165.9,-272.91"/>
<polygon fill="black" stroke="black" points="167.41,-276.12 173.75,-267.63 163.5,-270.31 167.41,-276.12"/>
</g>
<!-- NASALib/trig -->
<g id="node14" class="node">
<title>NASALib/trig</title>
<polygon fill="#fcfcd7" stroke="black" points="642,-124 588,-124 588,-88 642,-88 642,-124"/>
<text text-anchor="middle" x="615" y="-102.3" font-family="Times,serif" font-size="14.00">trig</text>
</g>
<!-- NASALib/complex@complex_sqrt&#45;&gt;NASALib/trig -->
<g id="edge7" class="edge">
<title>NASALib/complex@complex_sqrt&#45;&gt;NASALib/trig</title>
<path fill="none" stroke="black" d="M133.84,-312.46C251.43,-281.52 565,-199 565,-199 565,-199 585.53,-161.22 600.28,-134.08"/>
<polygon fill="black" stroke="black" points="603.17,-136.09 604.87,-125.63 597.02,-132.75 603.17,-136.09"/>
</g>
<!-- NASALib/complex@number_fields_bis -->
<g id="node9" class="node">
<title>NASALib/complex@number_fields_bis</title>
<ellipse fill="#e6f3ff" stroke="black" cx="161" cy="-34" rx="76.89" ry="18"/>
<text text-anchor="middle" x="161" y="-30.3" font-family="Times,serif" font-size="14.00">number_fields_bis</text>
</g>
<!-- NASALib/complex@complex_types&#45;&gt;NASALib/complex@number_fields_bis -->
<g id="edge8" class="edge">
<title>NASALib/complex@complex_types&#45;&gt;NASALib/complex@number_fields_bis</title>
<path fill="none" stroke="black" d="M212.88,-88.41C204.71,-79.99 194.6,-69.58 185.48,-60.2"/>
<polygon fill="black" stroke="black" points="188,-57.78 178.53,-53.04 182.98,-62.65 188,-57.78"/>
</g>
<!-- NASALib/complex@exp&#45;&gt;NASALib/complex@polar -->
<g id="edge9" class="edge">
<title>NASALib/complex@exp&#45;&gt;NASALib/complex@polar</title>
<path fill="none" stroke="black" d="M194,-306.7C194,-299.41 194,-290.73 194,-282.54"/>
<polygon fill="black" stroke="black" points="197.5,-282.62 194,-272.62 190.5,-282.62 197.5,-282.62"/>
</g>
<!-- NASALib/lnexp -->
<g id="node12" class="node">
<title>NASALib/lnexp</title>
<polygon fill="#fcfcd7" stroke="black" points="714,-124 660,-124 660,-88 714,-88 714,-124"/>
<text text-anchor="middle" x="687" y="-102.3" font-family="Times,serif" font-size="14.00">lnexp</text>
</g>
<!-- NASALib/complex@exp&#45;&gt;NASALib/lnexp -->
<g id="edge10" class="edge">
<title>NASALib/complex@exp&#45;&gt;NASALib/lnexp</title>
<path fill="none" stroke="black" d="M687,-180C687,-180 687,-156.16 687,-135.73"/>
<polygon fill="black" stroke="black" points="690.5,-135.81 687,-125.81 683.5,-135.81 690.5,-135.81"/>
</g>
<!-- NASALib/complex@exp&#45;&gt;NASALib/trig -->
<g id="edge11" class="edge">
<title>NASALib/complex@exp&#45;&gt;NASALib/trig</title>
<path fill="none" stroke="black" d="M687,-180C687,-180 651,-155 651,-155 651,-155 643.1,-144.46 634.7,-133.26"/>
<polygon fill="black" stroke="black" points="637.7,-131.44 628.9,-125.54 632.1,-135.64 637.7,-131.44"/>
<path fill="none" stroke="black" d="M220.65,-320.68C313.91,-309.08 620,-271 620,-271 620,-271 687,-182 687,-182"/>
</g>
<!-- NASALib/complex@fundamental_algebra -->
<g id="node8" class="node">
<title>NASALib/complex@fundamental_algebra</title>
<ellipse fill="#e6f3ff" stroke="black" cx="147" cy="-397" rx="85.29" ry="18"/>
<text text-anchor="middle" x="147" y="-393.3" font-family="Times,serif" font-size="14.00">fundamental_algebra</text>
</g>
<!-- NASALib/complex@fundamental_algebra&#45;&gt;NASALib/complex@exp -->
<g id="edge12" class="edge">
<title>NASALib/complex@fundamental_algebra&#45;&gt;NASALib/complex@exp</title>
<path fill="none" stroke="black" d="M158.62,-378.7C164.21,-370.37 171.01,-360.23 177.16,-351.08"/>
<polygon fill="black" stroke="black" points="179.97,-353.18 182.63,-342.93 174.15,-349.28 179.97,-353.18"/>
</g>
<!-- NASALib/complex@number_fields_sq&#45;&gt;NASALib/complex@number_fields_bis -->
<g id="edge13" class="edge">
<title>NASALib/complex@number_fields_sq&#45;&gt;NASALib/complex@number_fields_bis</title>
<path fill="none" stroke="black" d="M98.42,-162.8C110.59,-137.94 133.22,-91.74 147.67,-62.23"/>
<polygon fill="black" stroke="black" points="150.67,-64.06 151.92,-53.54 144.38,-60.98 150.67,-64.06"/>
</g>
<!-- NASALib/complex@polar&#45;&gt;NASALib/complex@arithmetic -->
<g id="edge14" class="edge">
<title>NASALib/complex@polar&#45;&gt;NASALib/complex@arithmetic</title>
<path fill="none" stroke="black" d="M202.29,-235.41C206.2,-227.59 210.97,-218.06 215.39,-209.23"/>
<polygon fill="black" stroke="black" points="218.5,-210.82 219.85,-200.31 212.24,-207.69 218.5,-210.82"/>
</g>
<!-- NASALib/complex@polar&#45;&gt;NASALib/complex@number_fields_sq -->
<g id="edge15" class="edge">
<title>NASALib/complex@polar&#45;&gt;NASALib/complex@number_fields_sq</title>
<path fill="none" stroke="black" d="M174.92,-239.16C160.58,-229.5 140.55,-216.02 123.54,-204.58"/>
<polygon fill="black" stroke="black" points="125.97,-201.99 115.72,-199.31 122.06,-207.8 125.97,-201.99"/>
</g>
<!-- NASALib/reals -->
<g id="node13" class="node">
<title>NASALib/reals</title>
<polygon fill="#fcfcd7" stroke="black" points="570,-124 516,-124 516,-88 570,-88 570,-124"/>
<text text-anchor="middle" x="543" y="-102.3" font-family="Times,serif" font-size="14.00">reals</text>
</g>
<!-- NASALib/complex@polar&#45;&gt;NASALib/reals -->
<g id="edge16" class="edge">
<title>NASALib/complex@polar&#45;&gt;NASALib/reals</title>
<path fill="none" stroke="black" d="M551,-180C551,-180 548.39,-156.16 546.15,-135.73"/>
<polygon fill="black" stroke="black" points="549.63,-135.36 545.06,-125.8 542.67,-136.13 549.63,-135.36"/>
<path fill="none" stroke="black" d="M221.13,-246.68C304.44,-230.35 551,-182 551,-182"/>
</g>
<!-- NASALib/complex@polar&#45;&gt;NASALib/trig -->
<g id="edge17" class="edge">
<title>NASALib/complex@polar&#45;&gt;NASALib/trig</title>
<path fill="none" stroke="black" d="M551,-180C551,-180 579,-155 579,-155 579,-155 586.9,-144.46 595.3,-133.26"/>
<polygon fill="black" stroke="black" points="597.9,-135.64 601.1,-125.54 592.3,-131.44 597.9,-135.64"/>
</g>
</g>
</svg>
