<?xml version="1.0" encoding="UTF-8" standalone="no"?>
<!DOCTYPE svg PUBLIC "-//W3C//DTD SVG 1.1//EN"
 "http://www.w3.org/Graphics/SVG/1.1/DTD/svg11.dtd">
<!-- Generated by graphviz version 7.0.2 (20221119.0110)
 -->
<!-- Title: all&#45;libraries&#45;Liveness Pages: 1 -->
<svg width="214pt" height="315pt"
 viewBox="0.00 0.00 214.00 315.00" xmlns="http://www.w3.org/2000/svg" xmlns:xlink="http://www.w3.org/1999/xlink">
<g id="graph0" class="graph" transform="scale(1 1) rotate(0) translate(4 311)">
<title>all&#45;libraries&#45;Liveness</title>
<polygon fill="white" stroke="none" points="-4,4 -4,-311 210,-311 210,4 -4,4"/>
<g id="clust1" class="cluster">
<title>cluster_dL</title>
<polygon fill="none" stroke="black" points="8,-116 8,-191 89,-191 89,-116 8,-116"/>
<text text-anchor="middle" x="48.5" y="-175.8" font-family="Times,serif" font-size="14.00">dL</text>
</g>
<g id="clust2" class="cluster">
<title>cluster_pvslib</title>
<polygon fill="none" stroke="black" points="109,-8 109,-299 198,-299 198,-8 109,-8"/>
<text text-anchor="middle" x="153.5" y="-283.8" font-family="Times,serif" font-size="14.00">pvslib</text>
</g>
<!-- dL/Liveness -->
<g id="node1" class="node">
<title>dL/Liveness</title>
<polygon fill="#fcfcd7" stroke="black" points="81,-160 16,-160 16,-124 81,-124 81,-160"/>
<text text-anchor="middle" x="48.5" y="-138.3" font-family="Times,serif" font-size="14.00">Liveness</text>
</g>
<!-- pvslib/dL -->
<g id="node2" class="node">
<title>pvslib/dL</title>
<polygon fill="#fcfcd7" stroke="black" points="180.5,-268 126.5,-268 126.5,-232 180.5,-232 180.5,-268"/>
<text text-anchor="middle" x="153.5" y="-246.3" font-family="Times,serif" font-size="14.00">dL</text>
</g>
<!-- dL/Liveness&#45;&gt;pvslib/dL -->
<g id="edge1" class="edge">
<title>dL/Liveness&#45;&gt;pvslib/dL</title>
<path fill="none" stroke="black" d="M60.08,-160.29C70.84,-177.81 88.76,-204.28 109,-223 111.39,-225.21 113.98,-227.33 116.67,-229.36"/>
<polygon fill="black" stroke="black" points="114.57,-232.16 124.79,-234.96 118.55,-226.4 114.57,-232.16"/>
</g>
<!-- pvslib/mult_poly -->
<g id="node3" class="node">
<title>pvslib/mult_poly</title>
<polygon fill="#fcfcd7" stroke="black" points="190,-214 117,-214 117,-178 190,-178 190,-214"/>
<text text-anchor="middle" x="153.5" y="-192.3" font-family="Times,serif" font-size="14.00">mult_poly</text>
</g>
<!-- dL/Liveness&#45;&gt;pvslib/mult_poly -->
<g id="edge2" class="edge">
<title>dL/Liveness&#45;&gt;pvslib/mult_poly</title>
<path fill="none" stroke="black" d="M81.24,-158.64C89.49,-162.96 98.52,-167.7 107.31,-172.31"/>
<polygon fill="black" stroke="black" points="105.63,-175.38 116.11,-176.92 108.88,-169.18 105.63,-175.38"/>
</g>
<!-- pvslib/reals -->
<g id="node4" class="node">
<title>pvslib/reals</title>
<polygon fill="#fcfcd7" stroke="black" points="180.5,-160 126.5,-160 126.5,-124 180.5,-124 180.5,-160"/>
<text text-anchor="middle" x="153.5" y="-138.3" font-family="Times,serif" font-size="14.00">reals</text>
</g>
<!-- dL/Liveness&#45;&gt;pvslib/reals -->
<g id="edge3" class="edge">
<title>dL/Liveness&#45;&gt;pvslib/reals</title>
<path fill="none" stroke="black" d="M81.24,-142C91.84,-142 103.74,-142 114.74,-142"/>
<polygon fill="black" stroke="black" points="114.71,-145.5 124.71,-142 114.71,-138.5 114.71,-145.5"/>
</g>
<!-- pvslib/structures -->
<g id="node5" class="node">
<title>pvslib/structures</title>
<polygon fill="#fcfcd7" stroke="black" points="188,-106 119,-106 119,-70 188,-70 188,-106"/>
<text text-anchor="middle" x="153.5" y="-84.3" font-family="Times,serif" font-size="14.00">structures</text>
</g>
<!-- dL/Liveness&#45;&gt;pvslib/structures -->
<g id="edge4" class="edge">
<title>dL/Liveness&#45;&gt;pvslib/structures</title>
<path fill="none" stroke="black" d="M81.24,-125.36C89.83,-120.85 99.29,-115.9 108.42,-111.11"/>
<polygon fill="black" stroke="black" points="109.97,-114.25 117.2,-106.51 106.72,-108.05 109.97,-114.25"/>
</g>
<!-- pvslib/trig -->
<g id="node6" class="node">
<title>pvslib/trig</title>
<polygon fill="#fcfcd7" stroke="black" points="180.5,-52 126.5,-52 126.5,-16 180.5,-16 180.5,-52"/>
<text text-anchor="middle" x="153.5" y="-30.3" font-family="Times,serif" font-size="14.00">trig</text>
</g>
<!-- dL/Liveness&#45;&gt;pvslib/trig -->
<g id="edge5" class="edge">
<title>dL/Liveness&#45;&gt;pvslib/trig</title>
<path fill="none" stroke="black" d="M60.08,-123.71C70.84,-106.19 88.76,-79.72 109,-61 111.39,-58.79 113.98,-56.67 116.67,-54.64"/>
<polygon fill="black" stroke="black" points="118.55,-57.6 124.79,-49.04 114.57,-51.84 118.55,-57.6"/>
</g>
</g>
</svg>
