<?xml version="1.0" encoding="UTF-8" standalone="no"?>
<!DOCTYPE svg PUBLIC "-//W3C//DTD SVG 1.1//EN"
 "http://www.w3.org/Graphics/SVG/1.1/DTD/svg11.dtd">
<!-- Generated by graphviz version 2.44.1 (20200629.0846)
 -->
<!-- Title: algebra Pages: 1 -->
<svg width="574pt" height="678pt"
 viewBox="0.00 0.00 574.00 678.00" xmlns="http://www.w3.org/2000/svg" xmlns:xlink="http://www.w3.org/1999/xlink">
<g id="graph0" class="graph" transform="scale(1 1) rotate(0) translate(4 674)">
<title>algebra</title>
<polygon fill="white" stroke="transparent" points="-4,4 -4,-674 570,-674 570,4 -4,4"/>
<g id="clust1" class="cluster">
<title>cluster_NASALib</title>
<polygon fill="none" stroke="black" points="8,-8 8,-662 462,-662 462,-8 8,-8"/>
<text text-anchor="middle" x="235" y="-646.8" font-family="Times,serif" font-size="14.00">NASALib</text>
</g>
<g id="clust2" class="cluster">
<title>cluster_PVS Prelude</title>
<polygon fill="none" stroke="black" points="470,-8 470,-83 558,-83 558,-8 470,-8"/>
<text text-anchor="middle" x="514" y="-67.8" font-family="Times,serif" font-size="14.00">PVS Prelude</text>
</g>
<!-- /Users/mmoscato/nasa/pvslib/pvslib&#45;gitlab__pvs7.0/algebra -->
<g id="node1" class="node">
<title>/Users/mmoscato/nasa/pvslib/pvslib&#45;gitlab__pvs7.0/algebra</title>
<polygon fill="#f7e28d" stroke="black" points="249,-487 193,-487 193,-451 249,-451 249,-487"/>
<text text-anchor="middle" x="221" y="-465.3" font-family="Times,serif" font-size="14.00">algebra</text>
</g>
<!-- /Users/mmoscato/nasa/pvslib/pvslib&#45;gitlab__pvs7.0/analysis -->
<g id="node2" class="node">
<title>/Users/mmoscato/nasa/pvslib/pvslib&#45;gitlab__pvs7.0/analysis</title>
<polygon fill="#fcfcd7" stroke="black" points="318,-271 258,-271 258,-235 318,-235 318,-271"/>
<text text-anchor="middle" x="288" y="-249.3" font-family="Times,serif" font-size="14.00">analysis</text>
</g>
<!-- /Users/mmoscato/nasa/pvslib/pvslib&#45;gitlab__pvs7.0/algebra&#45;&gt;/Users/mmoscato/nasa/pvslib/pvslib&#45;gitlab__pvs7.0/analysis -->
<g id="edge1" class="edge">
<title>/Users/mmoscato/nasa/pvslib/pvslib&#45;gitlab__pvs7.0/algebra&#45;&gt;/Users/mmoscato/nasa/pvslib/pvslib&#45;gitlab__pvs7.0/analysis</title>
<path fill="none" stroke="black" d="M226.33,-450.68C226.33,-419.87 226.33,-361 226.33,-361 226.33,-361 275.83,-361 275.83,-361 275.83,-361 275.83,-281.32 275.83,-281.32"/>
<polygon fill="black" stroke="black" points="279.33,-281.32 275.83,-271.32 272.33,-281.32 279.33,-281.32"/>
</g>
<!-- /Users/mmoscato/nasa/pvslib/pvslib&#45;gitlab__pvs7.0/ints -->
<g id="node4" class="node">
<title>/Users/mmoscato/nasa/pvslib/pvslib&#45;gitlab__pvs7.0/ints</title>
<polygon fill="#fcfcd7" stroke="black" points="246,-52 192,-52 192,-16 246,-16 246,-52"/>
<text text-anchor="middle" x="219" y="-30.3" font-family="Times,serif" font-size="14.00">ints</text>
</g>
<!-- /Users/mmoscato/nasa/pvslib/pvslib&#45;gitlab__pvs7.0/algebra&#45;&gt;/Users/mmoscato/nasa/pvslib/pvslib&#45;gitlab__pvs7.0/ints -->
<g id="edge2" class="edge">
<title>/Users/mmoscato/nasa/pvslib/pvslib&#45;gitlab__pvs7.0/algebra&#45;&gt;/Users/mmoscato/nasa/pvslib/pvslib&#45;gitlab__pvs7.0/ints</title>
<path fill="none" stroke="black" d="M249.25,-460C282.4,-460 332.93,-460 332.93,-460 332.93,-460 332.93,-38 332.93,-38 332.93,-38 256,-38 256,-38"/>
<polygon fill="black" stroke="black" points="256,-34.5 246,-38 256,-41.5 256,-34.5"/>
</g>
<!-- /Users/mmoscato/nasa/pvslib/pvslib&#45;gitlab__pvs7.0/numbers -->
<g id="node5" class="node">
<title>/Users/mmoscato/nasa/pvslib/pvslib&#45;gitlab__pvs7.0/numbers</title>
<polygon fill="#fcfcd7" stroke="black" points="160,-271 96,-271 96,-235 160,-235 160,-271"/>
<text text-anchor="middle" x="128" y="-249.3" font-family="Times,serif" font-size="14.00">numbers</text>
</g>
<!-- /Users/mmoscato/nasa/pvslib/pvslib&#45;gitlab__pvs7.0/algebra&#45;&gt;/Users/mmoscato/nasa/pvslib/pvslib&#45;gitlab__pvs7.0/numbers -->
<g id="edge3" class="edge">
<title>/Users/mmoscato/nasa/pvslib/pvslib&#45;gitlab__pvs7.0/algebra&#45;&gt;/Users/mmoscato/nasa/pvslib/pvslib&#45;gitlab__pvs7.0/numbers</title>
<path fill="none" stroke="black" d="M192.84,-475C165.47,-475 128,-475 128,-475 128,-475 128,-281.17 128,-281.17"/>
<polygon fill="black" stroke="black" points="131.5,-281.17 128,-271.17 124.5,-281.17 131.5,-281.17"/>
</g>
<!-- /Users/mmoscato/nasa/pvslib/pvslib&#45;gitlab__pvs7.0/orders -->
<g id="node6" class="node">
<title>/Users/mmoscato/nasa/pvslib/pvslib&#45;gitlab__pvs7.0/orders</title>
<polygon fill="#fcfcd7" stroke="black" points="404,-199 350,-199 350,-163 404,-163 404,-199"/>
<text text-anchor="middle" x="377" y="-177.3" font-family="Times,serif" font-size="14.00">orders</text>
</g>
<!-- /Users/mmoscato/nasa/pvslib/pvslib&#45;gitlab__pvs7.0/algebra&#45;&gt;/Users/mmoscato/nasa/pvslib/pvslib&#45;gitlab__pvs7.0/orders -->
<g id="edge4" class="edge">
<title>/Users/mmoscato/nasa/pvslib/pvslib&#45;gitlab__pvs7.0/algebra&#45;&gt;/Users/mmoscato/nasa/pvslib/pvslib&#45;gitlab__pvs7.0/orders</title>
<path fill="none" stroke="black" d="M249.13,-464C285.32,-464 343.6,-464 343.6,-464 343.6,-464 343.6,-181 343.6,-181 343.6,-181 344.21,-181 344.21,-181"/>
<polygon fill="black" stroke="black" points="339.73,-184.5 349.73,-181 339.73,-177.5 339.73,-184.5"/>
</g>
<!-- /Users/mmoscato/nasa/pvslib/pvslib&#45;gitlab__pvs7.0/reals -->
<g id="node7" class="node">
<title>/Users/mmoscato/nasa/pvslib/pvslib&#45;gitlab__pvs7.0/reals</title>
<polygon fill="#fcfcd7" stroke="black" points="200,-199 146,-199 146,-163 200,-163 200,-199"/>
<text text-anchor="middle" x="173" y="-177.3" font-family="Times,serif" font-size="14.00">reals</text>
</g>
<!-- /Users/mmoscato/nasa/pvslib/pvslib&#45;gitlab__pvs7.0/algebra&#45;&gt;/Users/mmoscato/nasa/pvslib/pvslib&#45;gitlab__pvs7.0/reals -->
<g id="edge5" class="edge">
<title>/Users/mmoscato/nasa/pvslib/pvslib&#45;gitlab__pvs7.0/algebra&#45;&gt;/Users/mmoscato/nasa/pvslib/pvslib&#45;gitlab__pvs7.0/reals</title>
<path fill="none" stroke="black" d="M192.79,-463C180.26,-463 168.29,-463 168.29,-463 168.29,-463 168.29,-209.07 168.29,-209.07"/>
<polygon fill="black" stroke="black" points="171.79,-209.07 168.29,-199.07 164.79,-209.07 171.79,-209.07"/>
</g>
<!-- /Users/mmoscato/nasa/pvslib/pvslib&#45;gitlab__pvs7.0/series -->
<g id="node9" class="node">
<title>/Users/mmoscato/nasa/pvslib/pvslib&#45;gitlab__pvs7.0/series</title>
<polygon fill="#fcfcd7" stroke="black" points="252,-343 198,-343 198,-307 252,-307 252,-343"/>
<text text-anchor="middle" x="225" y="-321.3" font-family="Times,serif" font-size="14.00">series</text>
</g>
<!-- /Users/mmoscato/nasa/pvslib/pvslib&#45;gitlab__pvs7.0/algebra&#45;&gt;/Users/mmoscato/nasa/pvslib/pvslib&#45;gitlab__pvs7.0/series -->
<g id="edge6" class="edge">
<title>/Users/mmoscato/nasa/pvslib/pvslib&#45;gitlab__pvs7.0/algebra&#45;&gt;/Users/mmoscato/nasa/pvslib/pvslib&#45;gitlab__pvs7.0/series</title>
<path fill="none" stroke="black" d="M212.17,-450.76C212.17,-450.76 212.17,-353.09 212.17,-353.09"/>
<polygon fill="black" stroke="black" points="215.67,-353.09 212.17,-343.09 208.67,-353.09 215.67,-353.09"/>
</g>
<!-- /Users/mmoscato/nasa/pvslib/pvslib&#45;gitlab__pvs7.0/sets_aux -->
<g id="node10" class="node">
<title>/Users/mmoscato/nasa/pvslib/pvslib&#45;gitlab__pvs7.0/sets_aux</title>
<polygon fill="#fcfcd7" stroke="black" points="413.5,-343 350.5,-343 350.5,-307 413.5,-307 413.5,-343"/>
<text text-anchor="middle" x="382" y="-321.3" font-family="Times,serif" font-size="14.00">sets_aux</text>
</g>
<!-- /Users/mmoscato/nasa/pvslib/pvslib&#45;gitlab__pvs7.0/algebra&#45;&gt;/Users/mmoscato/nasa/pvslib/pvslib&#45;gitlab__pvs7.0/sets_aux -->
<g id="edge7" class="edge">
<title>/Users/mmoscato/nasa/pvslib/pvslib&#45;gitlab__pvs7.0/algebra&#45;&gt;/Users/mmoscato/nasa/pvslib/pvslib&#45;gitlab__pvs7.0/sets_aux</title>
<path fill="none" stroke="black" d="M249.18,-469C292.57,-469 370.8,-469 370.8,-469 370.8,-469 370.8,-353.24 370.8,-353.24"/>
<polygon fill="black" stroke="black" points="374.3,-353.24 370.8,-343.24 367.3,-353.24 374.3,-353.24"/>
</g>
<!-- /Users/mmoscato/nasa/pvslib/pvslib&#45;gitlab__pvs7.0/sigma_set -->
<g id="node11" class="node">
<title>/Users/mmoscato/nasa/pvslib/pvslib&#45;gitlab__pvs7.0/sigma_set</title>
<polygon fill="#fcfcd7" stroke="black" points="311.5,-415 240.5,-415 240.5,-379 311.5,-379 311.5,-415"/>
<text text-anchor="middle" x="276" y="-393.3" font-family="Times,serif" font-size="14.00">sigma_set</text>
</g>
<!-- /Users/mmoscato/nasa/pvslib/pvslib&#45;gitlab__pvs7.0/algebra&#45;&gt;/Users/mmoscato/nasa/pvslib/pvslib&#45;gitlab__pvs7.0/sigma_set -->
<g id="edge8" class="edge">
<title>/Users/mmoscato/nasa/pvslib/pvslib&#45;gitlab__pvs7.0/algebra&#45;&gt;/Users/mmoscato/nasa/pvslib/pvslib&#45;gitlab__pvs7.0/sigma_set</title>
<path fill="none" stroke="black" d="M244.75,-450.83C244.75,-450.83 244.75,-425.41 244.75,-425.41"/>
<polygon fill="black" stroke="black" points="248.25,-425.41 244.75,-415.41 241.25,-425.41 248.25,-425.41"/>
</g>
<!-- /Users/mmoscato/nasa/pvslib/pvslib&#45;gitlab__pvs7.0/structures -->
<g id="node12" class="node">
<title>/Users/mmoscato/nasa/pvslib/pvslib&#45;gitlab__pvs7.0/structures</title>
<polygon fill="#fcfcd7" stroke="black" points="253.5,-127 184.5,-127 184.5,-91 253.5,-91 253.5,-127"/>
<text text-anchor="middle" x="219" y="-105.3" font-family="Times,serif" font-size="14.00">structures</text>
</g>
<!-- /Users/mmoscato/nasa/pvslib/pvslib&#45;gitlab__pvs7.0/algebra&#45;&gt;/Users/mmoscato/nasa/pvslib/pvslib&#45;gitlab__pvs7.0/structures -->
<g id="edge9" class="edge">
<title>/Users/mmoscato/nasa/pvslib/pvslib&#45;gitlab__pvs7.0/algebra&#45;&gt;/Users/mmoscato/nasa/pvslib/pvslib&#45;gitlab__pvs7.0/structures</title>
<path fill="none" stroke="black" d="M249.14,-455C278.45,-455 320.13,-455 320.13,-455 320.13,-455 320.13,-121 320.13,-121 320.13,-121 263.52,-121 263.52,-121"/>
<polygon fill="black" stroke="black" points="263.52,-117.5 253.52,-121 263.52,-124.5 263.52,-117.5"/>
</g>
<!-- /Users/mmoscato/pvs/7.1&#45;0&#45;g44ead9db&#45;ix86&#45;MacOSX&#45;allegro/lib/finite_sets -->
<g id="node14" class="node">
<title>/Users/mmoscato/pvs/7.1&#45;0&#45;g44ead9db&#45;ix86&#45;MacOSX&#45;allegro/lib/finite_sets</title>
<polygon fill="#fcfcd7" stroke="black" points="549.5,-52 478.5,-52 478.5,-16 549.5,-16 549.5,-52"/>
<text text-anchor="middle" x="514" y="-30.3" font-family="Times,serif" font-size="14.00">finite_sets</text>
</g>
<!-- /Users/mmoscato/nasa/pvslib/pvslib&#45;gitlab__pvs7.0/algebra&#45;&gt;/Users/mmoscato/pvs/7.1&#45;0&#45;g44ead9db&#45;ix86&#45;MacOSX&#45;allegro/lib/finite_sets -->
<g id="edge10" class="edge">
<title>/Users/mmoscato/nasa/pvslib/pvslib&#45;gitlab__pvs7.0/algebra&#45;&gt;/Users/mmoscato/pvs/7.1&#45;0&#45;g44ead9db&#45;ix86&#45;MacOSX&#45;allegro/lib/finite_sets</title>
<path fill="none" stroke="black" d="M249.13,-473C324.6,-473 525.83,-473 525.83,-473 525.83,-473 525.83,-62.03 525.83,-62.03"/>
<polygon fill="black" stroke="black" points="529.33,-62.03 525.83,-52.03 522.33,-62.03 529.33,-62.03"/>
</g>
<!-- /Users/mmoscato/nasa/pvslib/pvslib&#45;gitlab__pvs7.0/analysis&#45;&gt;/Users/mmoscato/nasa/pvslib/pvslib&#45;gitlab__pvs7.0/ints -->
<g id="edge11" class="edge">
<title>/Users/mmoscato/nasa/pvslib/pvslib&#45;gitlab__pvs7.0/analysis&#45;&gt;/Users/mmoscato/nasa/pvslib/pvslib&#45;gitlab__pvs7.0/ints</title>
<path fill="none" stroke="black" d="M278,-234.73C278,-183.64 278,-43 278,-43 278,-43 256.08,-43 256.08,-43"/>
<polygon fill="black" stroke="black" points="256.08,-39.5 246.08,-43 256.08,-46.5 256.08,-39.5"/>
</g>
<!-- /Users/mmoscato/nasa/pvslib/pvslib&#45;gitlab__pvs7.0/analysis&#45;&gt;/Users/mmoscato/nasa/pvslib/pvslib&#45;gitlab__pvs7.0/orders -->
<g id="edge12" class="edge">
<title>/Users/mmoscato/nasa/pvslib/pvslib&#45;gitlab__pvs7.0/analysis&#45;&gt;/Users/mmoscato/nasa/pvslib/pvslib&#45;gitlab__pvs7.0/orders</title>
<path fill="none" stroke="black" d="M318.37,-247C341.12,-247 368.33,-247 368.33,-247 368.33,-247 368.33,-209.03 368.33,-209.03"/>
<polygon fill="black" stroke="black" points="371.83,-209.03 368.33,-199.03 364.83,-209.03 371.83,-209.03"/>
</g>
<!-- /Users/mmoscato/nasa/pvslib/pvslib&#45;gitlab__pvs7.0/analysis&#45;&gt;/Users/mmoscato/nasa/pvslib/pvslib&#45;gitlab__pvs7.0/reals -->
<g id="edge13" class="edge">
<title>/Users/mmoscato/nasa/pvslib/pvslib&#45;gitlab__pvs7.0/analysis&#45;&gt;/Users/mmoscato/nasa/pvslib/pvslib&#45;gitlab__pvs7.0/reals</title>
<path fill="none" stroke="black" d="M257.89,-253C227.45,-253 184.86,-253 184.86,-253 184.86,-253 184.86,-209.17 184.86,-209.17"/>
<polygon fill="black" stroke="black" points="188.36,-209.17 184.86,-199.17 181.36,-209.17 188.36,-209.17"/>
</g>
<!-- /Users/mmoscato/nasa/pvslib/pvslib&#45;gitlab__pvs7.0/analysis&#45;&gt;/Users/mmoscato/nasa/pvslib/pvslib&#45;gitlab__pvs7.0/structures -->
<g id="edge14" class="edge">
<title>/Users/mmoscato/nasa/pvslib/pvslib&#45;gitlab__pvs7.0/analysis&#45;&gt;/Users/mmoscato/nasa/pvslib/pvslib&#45;gitlab__pvs7.0/structures</title>
<path fill="none" stroke="black" d="M257.94,-244C244.31,-244 231.2,-244 231.2,-244 231.2,-244 231.2,-137.21 231.2,-137.21"/>
<polygon fill="black" stroke="black" points="234.7,-137.21 231.2,-127.21 227.7,-137.21 234.7,-137.21"/>
</g>
<!-- /Users/mmoscato/nasa/pvslib/pvslib&#45;gitlab__pvs7.0/analysis&#45;&gt;/Users/mmoscato/pvs/7.1&#45;0&#45;g44ead9db&#45;ix86&#45;MacOSX&#45;allegro/lib/finite_sets -->
<g id="edge15" class="edge">
<title>/Users/mmoscato/nasa/pvslib/pvslib&#45;gitlab__pvs7.0/analysis&#45;&gt;/Users/mmoscato/pvs/7.1&#45;0&#45;g44ead9db&#45;ix86&#45;MacOSX&#45;allegro/lib/finite_sets</title>
<path fill="none" stroke="black" d="M298,-234.8C298,-180.1 298,-21 298,-21 298,-21 468.33,-21 468.33,-21"/>
<polygon fill="black" stroke="black" points="468.33,-24.5 478.33,-21 468.33,-17.5 468.33,-24.5"/>
</g>
<!-- /Users/mmoscato/nasa/pvslib/pvslib&#45;gitlab__pvs7.0/complex -->
<g id="node3" class="node">
<title>/Users/mmoscato/nasa/pvslib/pvslib&#45;gitlab__pvs7.0/complex</title>
<polygon fill="#fcfcd7" stroke="black" points="253,-559 189,-559 189,-523 253,-523 253,-559"/>
<text text-anchor="middle" x="221" y="-537.3" font-family="Times,serif" font-size="14.00">complex</text>
</g>
<!-- /Users/mmoscato/nasa/pvslib/pvslib&#45;gitlab__pvs7.0/complex&#45;&gt;/Users/mmoscato/nasa/pvslib/pvslib&#45;gitlab__pvs7.0/algebra -->
<g id="edge16" class="edge">
<title>/Users/mmoscato/nasa/pvslib/pvslib&#45;gitlab__pvs7.0/complex&#45;&gt;/Users/mmoscato/nasa/pvslib/pvslib&#45;gitlab__pvs7.0/algebra</title>
<path fill="none" stroke="black" d="M221,-522.83C221,-522.83 221,-497.41 221,-497.41"/>
<polygon fill="black" stroke="black" points="224.5,-497.41 221,-487.41 217.5,-497.41 224.5,-497.41"/>
</g>
<!-- /Users/mmoscato/nasa/pvslib/pvslib&#45;gitlab__pvs7.0/complex&#45;&gt;/Users/mmoscato/nasa/pvslib/pvslib&#45;gitlab__pvs7.0/analysis -->
<g id="edge17" class="edge">
<title>/Users/mmoscato/nasa/pvslib/pvslib&#45;gitlab__pvs7.0/complex&#45;&gt;/Users/mmoscato/nasa/pvslib/pvslib&#45;gitlab__pvs7.0/analysis</title>
<path fill="none" stroke="black" d="M253.04,-529C282.71,-529 322.27,-529 322.27,-529 322.27,-529 322.27,-259 322.27,-259 322.27,-259 321.85,-259 321.85,-259"/>
<polygon fill="black" stroke="black" points="328.06,-255.5 318.06,-259 328.06,-262.5 328.06,-255.5"/>
</g>
<!-- /Users/mmoscato/nasa/pvslib/pvslib&#45;gitlab__pvs7.0/complex&#45;&gt;/Users/mmoscato/nasa/pvslib/pvslib&#45;gitlab__pvs7.0/ints -->
<g id="edge18" class="edge">
<title>/Users/mmoscato/nasa/pvslib/pvslib&#45;gitlab__pvs7.0/complex&#45;&gt;/Users/mmoscato/nasa/pvslib/pvslib&#45;gitlab__pvs7.0/ints</title>
<path fill="none" stroke="black" d="M253.08,-541C286.82,-541 335.07,-541 335.07,-541 335.07,-541 335.07,-35 335.07,-35 335.07,-35 256.21,-35 256.21,-35"/>
<polygon fill="black" stroke="black" points="256.21,-31.5 246.21,-35 256.21,-38.5 256.21,-31.5"/>
</g>
<!-- /Users/mmoscato/nasa/pvslib/pvslib&#45;gitlab__pvs7.0/complex&#45;&gt;/Users/mmoscato/nasa/pvslib/pvslib&#45;gitlab__pvs7.0/orders -->
<g id="edge19" class="edge">
<title>/Users/mmoscato/nasa/pvslib/pvslib&#45;gitlab__pvs7.0/complex&#45;&gt;/Users/mmoscato/nasa/pvslib/pvslib&#45;gitlab__pvs7.0/orders</title>
<path fill="none" stroke="black" d="M253.12,-553C290.08,-553 345.73,-553 345.73,-553 345.73,-553 345.73,-187 345.73,-187 345.73,-187 346.14,-187 346.14,-187"/>
<polygon fill="black" stroke="black" points="339.82,-190.5 349.82,-187 339.82,-183.5 339.82,-190.5"/>
</g>
<!-- /Users/mmoscato/nasa/pvslib/pvslib&#45;gitlab__pvs7.0/complex&#45;&gt;/Users/mmoscato/nasa/pvslib/pvslib&#45;gitlab__pvs7.0/reals -->
<g id="edge20" class="edge">
<title>/Users/mmoscato/nasa/pvslib/pvslib&#45;gitlab__pvs7.0/complex&#45;&gt;/Users/mmoscato/nasa/pvslib/pvslib&#45;gitlab__pvs7.0/reals</title>
<path fill="none" stroke="black" d="M188.92,-547C176.02,-547 164.14,-547 164.14,-547 164.14,-547 164.14,-209.15 164.14,-209.15"/>
<polygon fill="black" stroke="black" points="167.64,-209.15 164.14,-199.15 160.64,-209.15 167.64,-209.15"/>
</g>
<!-- /Users/mmoscato/nasa/pvslib/pvslib&#45;gitlab__pvs7.0/complex&#45;&gt;/Users/mmoscato/nasa/pvslib/pvslib&#45;gitlab__pvs7.0/series -->
<g id="edge21" class="edge">
<title>/Users/mmoscato/nasa/pvslib/pvslib&#45;gitlab__pvs7.0/complex&#45;&gt;/Users/mmoscato/nasa/pvslib/pvslib&#45;gitlab__pvs7.0/series</title>
<path fill="none" stroke="black" d="M188.71,-535C181.82,-535 176.57,-535 176.57,-535 176.57,-535 176.57,-331 176.57,-331 176.57,-331 187.95,-331 187.95,-331"/>
<polygon fill="black" stroke="black" points="187.95,-334.5 197.95,-331 187.95,-327.5 187.95,-334.5"/>
</g>
<!-- /Users/mmoscato/nasa/pvslib/pvslib&#45;gitlab__pvs7.0/complex&#45;&gt;/Users/mmoscato/nasa/pvslib/pvslib&#45;gitlab__pvs7.0/structures -->
<g id="edge22" class="edge">
<title>/Users/mmoscato/nasa/pvslib/pvslib&#45;gitlab__pvs7.0/complex&#45;&gt;/Users/mmoscato/nasa/pvslib/pvslib&#45;gitlab__pvs7.0/structures</title>
<path fill="none" stroke="black" d="M253.15,-535C283.5,-535 324.4,-535 324.4,-535 324.4,-535 324.4,-116 324.4,-116 324.4,-116 263.51,-116 263.51,-116"/>
<polygon fill="black" stroke="black" points="263.51,-112.5 253.51,-116 263.51,-119.5 263.51,-112.5"/>
</g>
<!-- /Users/mmoscato/nasa/pvslib/pvslib&#45;gitlab__pvs7.0/complex&#45;&gt;/Users/mmoscato/pvs/7.1&#45;0&#45;g44ead9db&#45;ix86&#45;MacOSX&#45;allegro/lib/finite_sets -->
<g id="edge23" class="edge">
<title>/Users/mmoscato/nasa/pvslib/pvslib&#45;gitlab__pvs7.0/complex&#45;&gt;/Users/mmoscato/pvs/7.1&#45;0&#45;g44ead9db&#45;ix86&#45;MacOSX&#45;allegro/lib/finite_sets</title>
<path fill="none" stroke="black" d="M253.06,-547C287.45,-547 337.2,-547 337.2,-547 337.2,-547 337.2,-27 337.2,-27 337.2,-27 468.22,-27 468.22,-27"/>
<polygon fill="black" stroke="black" points="468.22,-30.5 478.22,-27 468.22,-23.5 468.22,-30.5"/>
</g>
<!-- /Users/mmoscato/nasa/pvslib/pvslib&#45;gitlab__pvs7.0/ints&#45;&gt;/Users/mmoscato/pvs/7.1&#45;0&#45;g44ead9db&#45;ix86&#45;MacOSX&#45;allegro/lib/finite_sets -->
<g id="edge24" class="edge">
<title>/Users/mmoscato/nasa/pvslib/pvslib&#45;gitlab__pvs7.0/ints&#45;&gt;/Users/mmoscato/pvs/7.1&#45;0&#45;g44ead9db&#45;ix86&#45;MacOSX&#45;allegro/lib/finite_sets</title>
<path fill="none" stroke="black" d="M246.22,-18C246.22,-18 468.23,-18 468.23,-18"/>
<polygon fill="black" stroke="black" points="468.23,-21.5 478.23,-18 468.23,-14.5 468.23,-21.5"/>
</g>
<!-- /Users/mmoscato/nasa/pvslib/pvslib&#45;gitlab__pvs7.0/numbers&#45;&gt;/Users/mmoscato/nasa/pvslib/pvslib&#45;gitlab__pvs7.0/ints -->
<g id="edge25" class="edge">
<title>/Users/mmoscato/nasa/pvslib/pvslib&#45;gitlab__pvs7.0/numbers&#45;&gt;/Users/mmoscato/nasa/pvslib/pvslib&#45;gitlab__pvs7.0/ints</title>
<path fill="none" stroke="black" d="M112.67,-234.97C112.67,-181.58 112.67,-28 112.67,-28 112.67,-28 181.89,-28 181.89,-28"/>
<polygon fill="black" stroke="black" points="181.89,-31.5 191.89,-28 181.89,-24.5 181.89,-31.5"/>
</g>
<!-- /Users/mmoscato/nasa/pvslib/pvslib&#45;gitlab__pvs7.0/numbers&#45;&gt;/Users/mmoscato/nasa/pvslib/pvslib&#45;gitlab__pvs7.0/reals -->
<g id="edge26" class="edge">
<title>/Users/mmoscato/nasa/pvslib/pvslib&#45;gitlab__pvs7.0/numbers&#45;&gt;/Users/mmoscato/nasa/pvslib/pvslib&#45;gitlab__pvs7.0/reals</title>
<path fill="none" stroke="black" d="M150.67,-234.83C150.67,-234.83 150.67,-209.41 150.67,-209.41"/>
<polygon fill="black" stroke="black" points="154.17,-209.41 150.67,-199.41 147.17,-209.41 154.17,-209.41"/>
</g>
<!-- /Users/mmoscato/nasa/pvslib/pvslib&#45;gitlab__pvs7.0/numbers&#45;&gt;/Users/mmoscato/nasa/pvslib/pvslib&#45;gitlab__pvs7.0/structures -->
<g id="edge27" class="edge">
<title>/Users/mmoscato/nasa/pvslib/pvslib&#45;gitlab__pvs7.0/numbers&#45;&gt;/Users/mmoscato/nasa/pvslib/pvslib&#45;gitlab__pvs7.0/structures</title>
<path fill="none" stroke="black" d="M129.33,-234.76C129.33,-196.01 129.33,-109 129.33,-109 129.33,-109 174.33,-109 174.33,-109"/>
<polygon fill="black" stroke="black" points="174.33,-112.5 184.33,-109 174.33,-105.5 174.33,-112.5"/>
</g>
<!-- /Users/mmoscato/nasa/pvslib/pvslib&#45;gitlab__pvs7.0/numbers&#45;&gt;/Users/mmoscato/pvs/7.1&#45;0&#45;g44ead9db&#45;ix86&#45;MacOSX&#45;allegro/lib/finite_sets -->
<g id="edge28" class="edge">
<title>/Users/mmoscato/nasa/pvslib/pvslib&#45;gitlab__pvs7.0/numbers&#45;&gt;/Users/mmoscato/pvs/7.1&#45;0&#45;g44ead9db&#45;ix86&#45;MacOSX&#45;allegro/lib/finite_sets</title>
<path fill="none" stroke="black" d="M155.33,-234.58C155.33,-225.72 155.33,-217 155.33,-217 155.33,-217 502.17,-217 502.17,-217 502.17,-217 502.17,-62.22 502.17,-62.22"/>
<polygon fill="black" stroke="black" points="505.67,-62.22 502.17,-52.22 498.67,-62.22 505.67,-62.22"/>
</g>
<!-- /Users/mmoscato/nasa/pvslib/pvslib&#45;gitlab__pvs7.0/orders&#45;&gt;/Users/mmoscato/pvs/7.1&#45;0&#45;g44ead9db&#45;ix86&#45;MacOSX&#45;allegro/lib/finite_sets -->
<g id="edge29" class="edge">
<title>/Users/mmoscato/nasa/pvslib/pvslib&#45;gitlab__pvs7.0/orders&#45;&gt;/Users/mmoscato/pvs/7.1&#45;0&#45;g44ead9db&#45;ix86&#45;MacOSX&#45;allegro/lib/finite_sets</title>
<path fill="none" stroke="black" d="M377,-162.97C377,-122.7 377,-29 377,-29 377,-29 468.36,-29 468.36,-29"/>
<polygon fill="black" stroke="black" points="468.36,-32.5 478.36,-29 468.36,-25.5 468.36,-32.5"/>
</g>
<!-- /Users/mmoscato/nasa/pvslib/pvslib&#45;gitlab__pvs7.0/reals&#45;&gt;/Users/mmoscato/nasa/pvslib/pvslib&#45;gitlab__pvs7.0/ints -->
<g id="edge30" class="edge">
<title>/Users/mmoscato/nasa/pvslib/pvslib&#45;gitlab__pvs7.0/reals&#45;&gt;/Users/mmoscato/nasa/pvslib/pvslib&#45;gitlab__pvs7.0/ints</title>
<path fill="none" stroke="black" d="M165.25,-162.86C165.25,-124.77 165.25,-40 165.25,-40 165.25,-40 181.81,-40 181.81,-40"/>
<polygon fill="black" stroke="black" points="181.81,-43.5 191.81,-40 181.81,-36.5 181.81,-43.5"/>
</g>
<!-- /Users/mmoscato/nasa/pvslib/pvslib&#45;gitlab__pvs7.0/reals&#45;&gt;/Users/mmoscato/nasa/pvslib/pvslib&#45;gitlab__pvs7.0/structures -->
<g id="edge31" class="edge">
<title>/Users/mmoscato/nasa/pvslib/pvslib&#45;gitlab__pvs7.0/reals&#45;&gt;/Users/mmoscato/nasa/pvslib/pvslib&#45;gitlab__pvs7.0/structures</title>
<path fill="none" stroke="black" d="M192.25,-162.83C192.25,-162.83 192.25,-137.41 192.25,-137.41"/>
<polygon fill="black" stroke="black" points="195.75,-137.41 192.25,-127.41 188.75,-137.41 195.75,-137.41"/>
</g>
<!-- /Users/mmoscato/nasa/pvslib/pvslib&#45;gitlab__pvs7.0/scott -->
<g id="node8" class="node">
<title>/Users/mmoscato/nasa/pvslib/pvslib&#45;gitlab__pvs7.0/scott</title>
<polygon fill="#fcfcd7" stroke="black" points="434,-559 380,-559 380,-523 434,-523 434,-559"/>
<text text-anchor="middle" x="407" y="-537.3" font-family="Times,serif" font-size="14.00">scott</text>
</g>
<!-- /Users/mmoscato/nasa/pvslib/pvslib&#45;gitlab__pvs7.0/scott&#45;&gt;/Users/mmoscato/nasa/pvslib/pvslib&#45;gitlab__pvs7.0/algebra -->
<g id="edge32" class="edge">
<title>/Users/mmoscato/nasa/pvslib/pvslib&#45;gitlab__pvs7.0/scott&#45;&gt;/Users/mmoscato/nasa/pvslib/pvslib&#45;gitlab__pvs7.0/algebra</title>
<path fill="none" stroke="black" d="M391.17,-522.78C391.17,-504.17 391.17,-478 391.17,-478 391.17,-478 259.1,-478 259.1,-478"/>
<polygon fill="black" stroke="black" points="259.1,-474.5 249.1,-478 259.1,-481.5 259.1,-474.5"/>
</g>
<!-- /Users/mmoscato/nasa/pvslib/pvslib&#45;gitlab__pvs7.0/scott&#45;&gt;/Users/mmoscato/nasa/pvslib/pvslib&#45;gitlab__pvs7.0/orders -->
<g id="edge33" class="edge">
<title>/Users/mmoscato/nasa/pvslib/pvslib&#45;gitlab__pvs7.0/scott&#45;&gt;/Users/mmoscato/nasa/pvslib/pvslib&#45;gitlab__pvs7.0/orders</title>
<path fill="none" stroke="black" d="M418.62,-522.65C418.62,-449.29 418.62,-181 418.62,-181 418.62,-181 414.07,-181 414.07,-181"/>
<polygon fill="black" stroke="black" points="414.07,-177.5 404.07,-181 414.07,-184.5 414.07,-177.5"/>
</g>
<!-- /Users/mmoscato/nasa/pvslib/pvslib&#45;gitlab__pvs7.0/scott&#45;&gt;/Users/mmoscato/nasa/pvslib/pvslib&#45;gitlab__pvs7.0/sets_aux -->
<g id="edge34" class="edge">
<title>/Users/mmoscato/nasa/pvslib/pvslib&#45;gitlab__pvs7.0/scott&#45;&gt;/Users/mmoscato/nasa/pvslib/pvslib&#45;gitlab__pvs7.0/sets_aux</title>
<path fill="none" stroke="black" d="M402.33,-522.96C402.33,-522.96 402.33,-353.15 402.33,-353.15"/>
<polygon fill="black" stroke="black" points="405.83,-353.15 402.33,-343.15 398.83,-353.15 405.83,-353.15"/>
</g>
<!-- /Users/mmoscato/nasa/pvslib/pvslib&#45;gitlab__pvs7.0/scott&#45;&gt;/Users/mmoscato/nasa/pvslib/pvslib&#45;gitlab__pvs7.0/structures -->
<g id="edge35" class="edge">
<title>/Users/mmoscato/nasa/pvslib/pvslib&#45;gitlab__pvs7.0/scott&#45;&gt;/Users/mmoscato/nasa/pvslib/pvslib&#45;gitlab__pvs7.0/structures</title>
<path fill="none" stroke="black" d="M423.75,-522.93C423.75,-440.13 423.75,-101 423.75,-101 423.75,-101 263.73,-101 263.73,-101"/>
<polygon fill="black" stroke="black" points="263.73,-97.5 253.73,-101 263.73,-104.5 263.73,-97.5"/>
</g>
<!-- /Users/mmoscato/nasa/pvslib/pvslib&#45;gitlab__pvs7.0/scott&#45;&gt;/Users/mmoscato/pvs/7.1&#45;0&#45;g44ead9db&#45;ix86&#45;MacOSX&#45;allegro/lib/finite_sets -->
<g id="edge36" class="edge">
<title>/Users/mmoscato/nasa/pvslib/pvslib&#45;gitlab__pvs7.0/scott&#45;&gt;/Users/mmoscato/pvs/7.1&#45;0&#45;g44ead9db&#45;ix86&#45;MacOSX&#45;allegro/lib/finite_sets</title>
<path fill="none" stroke="black" d="M428.88,-522.91C428.88,-434.14 428.88,-49 428.88,-49 428.88,-49 468.39,-49 468.39,-49"/>
<polygon fill="black" stroke="black" points="468.39,-52.5 478.39,-49 468.39,-45.5 468.39,-52.5"/>
</g>
<!-- /Users/mmoscato/nasa/pvslib/pvslib&#45;gitlab__pvs7.0/series&#45;&gt;/Users/mmoscato/nasa/pvslib/pvslib&#45;gitlab__pvs7.0/analysis -->
<g id="edge37" class="edge">
<title>/Users/mmoscato/nasa/pvslib/pvslib&#45;gitlab__pvs7.0/series&#45;&gt;/Users/mmoscato/nasa/pvslib/pvslib&#45;gitlab__pvs7.0/analysis</title>
<path fill="none" stroke="black" d="M241.6,-306.78C241.6,-288.17 241.6,-262 241.6,-262 241.6,-262 247.83,-262 247.83,-262"/>
<polygon fill="black" stroke="black" points="247.83,-265.5 257.83,-262 247.83,-258.5 247.83,-265.5"/>
</g>
<!-- /Users/mmoscato/nasa/pvslib/pvslib&#45;gitlab__pvs7.0/series&#45;&gt;/Users/mmoscato/nasa/pvslib/pvslib&#45;gitlab__pvs7.0/ints -->
<g id="edge38" class="edge">
<title>/Users/mmoscato/nasa/pvslib/pvslib&#45;gitlab__pvs7.0/series&#45;&gt;/Users/mmoscato/nasa/pvslib/pvslib&#45;gitlab__pvs7.0/ints</title>
<path fill="none" stroke="black" d="M252.24,-316C282.95,-316 328.67,-316 328.67,-316 328.67,-316 328.67,-40 328.67,-40 328.67,-40 256.11,-40 256.11,-40"/>
<polygon fill="black" stroke="black" points="256.11,-36.5 246.11,-40 256.11,-43.5 256.11,-36.5"/>
</g>
<!-- /Users/mmoscato/nasa/pvslib/pvslib&#45;gitlab__pvs7.0/series&#45;&gt;/Users/mmoscato/nasa/pvslib/pvslib&#45;gitlab__pvs7.0/orders -->
<g id="edge39" class="edge">
<title>/Users/mmoscato/nasa/pvslib/pvslib&#45;gitlab__pvs7.0/series&#45;&gt;/Users/mmoscato/nasa/pvslib/pvslib&#45;gitlab__pvs7.0/orders</title>
<path fill="none" stroke="black" d="M220.8,-306.8C220.8,-265.65 220.8,-169 220.8,-169 220.8,-169 339.79,-169 339.79,-169"/>
<polygon fill="black" stroke="black" points="339.79,-172.5 349.79,-169 339.79,-165.5 339.79,-172.5"/>
</g>
<!-- /Users/mmoscato/nasa/pvslib/pvslib&#45;gitlab__pvs7.0/series&#45;&gt;/Users/mmoscato/nasa/pvslib/pvslib&#45;gitlab__pvs7.0/reals -->
<g id="edge40" class="edge">
<title>/Users/mmoscato/nasa/pvslib/pvslib&#45;gitlab__pvs7.0/series&#45;&gt;/Users/mmoscato/nasa/pvslib/pvslib&#45;gitlab__pvs7.0/reals</title>
<path fill="none" stroke="black" d="M197.96,-319C188.74,-319 180.71,-319 180.71,-319 180.71,-319 180.71,-209.04 180.71,-209.04"/>
<polygon fill="black" stroke="black" points="184.21,-209.04 180.71,-199.04 177.21,-209.04 184.21,-209.04"/>
</g>
<!-- /Users/mmoscato/nasa/pvslib/pvslib&#45;gitlab__pvs7.0/series&#45;&gt;/Users/mmoscato/nasa/pvslib/pvslib&#45;gitlab__pvs7.0/structures -->
<g id="edge41" class="edge">
<title>/Users/mmoscato/nasa/pvslib/pvslib&#45;gitlab__pvs7.0/series&#45;&gt;/Users/mmoscato/nasa/pvslib/pvslib&#45;gitlab__pvs7.0/structures</title>
<path fill="none" stroke="black" d="M210.4,-306.96C210.4,-306.96 210.4,-137.15 210.4,-137.15"/>
<polygon fill="black" stroke="black" points="213.9,-137.15 210.4,-127.15 206.9,-137.15 213.9,-137.15"/>
</g>
<!-- /Users/mmoscato/nasa/pvslib/pvslib&#45;gitlab__pvs7.0/series&#45;&gt;/Users/mmoscato/pvs/7.1&#45;0&#45;g44ead9db&#45;ix86&#45;MacOSX&#45;allegro/lib/finite_sets -->
<g id="edge42" class="edge">
<title>/Users/mmoscato/nasa/pvslib/pvslib&#45;gitlab__pvs7.0/series&#45;&gt;/Users/mmoscato/pvs/7.1&#45;0&#45;g44ead9db&#45;ix86&#45;MacOSX&#45;allegro/lib/finite_sets</title>
<path fill="none" stroke="black" d="M252.25,-334C283.59,-334 330.8,-334 330.8,-334 330.8,-334 330.8,-24 330.8,-24 330.8,-24 468.24,-24 468.24,-24"/>
<polygon fill="black" stroke="black" points="468.24,-27.5 478.24,-24 468.24,-20.5 468.24,-27.5"/>
</g>
<!-- /Users/mmoscato/nasa/pvslib/pvslib&#45;gitlab__pvs7.0/sets_aux&#45;&gt;/Users/mmoscato/nasa/pvslib/pvslib&#45;gitlab__pvs7.0/ints -->
<g id="edge43" class="edge">
<title>/Users/mmoscato/nasa/pvslib/pvslib&#45;gitlab__pvs7.0/sets_aux&#45;&gt;/Users/mmoscato/nasa/pvslib/pvslib&#45;gitlab__pvs7.0/ints</title>
<path fill="none" stroke="black" d="M350.1,-325C343.93,-325 339.33,-325 339.33,-325 339.33,-325 339.33,-32 339.33,-32 339.33,-32 256.01,-32 256.01,-32"/>
<polygon fill="black" stroke="black" points="256.01,-28.5 246.01,-32 256.01,-35.5 256.01,-28.5"/>
</g>
<!-- /Users/mmoscato/nasa/pvslib/pvslib&#45;gitlab__pvs7.0/sets_aux&#45;&gt;/Users/mmoscato/nasa/pvslib/pvslib&#45;gitlab__pvs7.0/orders -->
<g id="edge44" class="edge">
<title>/Users/mmoscato/nasa/pvslib/pvslib&#45;gitlab__pvs7.0/sets_aux&#45;&gt;/Users/mmoscato/nasa/pvslib/pvslib&#45;gitlab__pvs7.0/orders</title>
<path fill="none" stroke="black" d="M386.17,-306.76C386.17,-306.76 386.17,-209.09 386.17,-209.09"/>
<polygon fill="black" stroke="black" points="389.67,-209.09 386.17,-199.09 382.67,-209.09 389.67,-209.09"/>
</g>
<!-- /Users/mmoscato/nasa/pvslib/pvslib&#45;gitlab__pvs7.0/sets_aux&#45;&gt;/Users/mmoscato/nasa/pvslib/pvslib&#45;gitlab__pvs7.0/structures -->
<g id="edge45" class="edge">
<title>/Users/mmoscato/nasa/pvslib/pvslib&#45;gitlab__pvs7.0/sets_aux&#45;&gt;/Users/mmoscato/nasa/pvslib/pvslib&#45;gitlab__pvs7.0/structures</title>
<path fill="none" stroke="black" d="M407.17,-306.7C407.17,-254.07 407.17,-106 407.17,-106 407.17,-106 263.51,-106 263.51,-106"/>
<polygon fill="black" stroke="black" points="263.51,-102.5 253.51,-106 263.51,-109.5 263.51,-102.5"/>
</g>
<!-- /Users/mmoscato/nasa/pvslib/pvslib&#45;gitlab__pvs7.0/sets_aux&#45;&gt;/Users/mmoscato/pvs/7.1&#45;0&#45;g44ead9db&#45;ix86&#45;MacOSX&#45;allegro/lib/finite_sets -->
<g id="edge46" class="edge">
<title>/Users/mmoscato/nasa/pvslib/pvslib&#45;gitlab__pvs7.0/sets_aux&#45;&gt;/Users/mmoscato/pvs/7.1&#45;0&#45;g44ead9db&#45;ix86&#45;MacOSX&#45;allegro/lib/finite_sets</title>
<path fill="none" stroke="black" d="M410.33,-306.69C410.33,-244.62 410.33,-46 410.33,-46 410.33,-46 468.32,-46 468.32,-46"/>
<polygon fill="black" stroke="black" points="468.32,-49.5 478.32,-46 468.32,-42.5 468.32,-49.5"/>
</g>
<!-- /Users/mmoscato/nasa/pvslib/pvslib&#45;gitlab__pvs7.0/sigma_set&#45;&gt;/Users/mmoscato/nasa/pvslib/pvslib&#45;gitlab__pvs7.0/analysis -->
<g id="edge47" class="edge">
<title>/Users/mmoscato/nasa/pvslib/pvslib&#45;gitlab__pvs7.0/sigma_set&#45;&gt;/Users/mmoscato/nasa/pvslib/pvslib&#45;gitlab__pvs7.0/analysis</title>
<path fill="none" stroke="black" d="M293.67,-378.76C293.67,-378.76 293.67,-281.09 293.67,-281.09"/>
<polygon fill="black" stroke="black" points="297.17,-281.09 293.67,-271.09 290.17,-281.09 297.17,-281.09"/>
</g>
<!-- /Users/mmoscato/nasa/pvslib/pvslib&#45;gitlab__pvs7.0/sigma_set&#45;&gt;/Users/mmoscato/nasa/pvslib/pvslib&#45;gitlab__pvs7.0/orders -->
<g id="edge48" class="edge">
<title>/Users/mmoscato/nasa/pvslib/pvslib&#45;gitlab__pvs7.0/sigma_set&#45;&gt;/Users/mmoscato/nasa/pvslib/pvslib&#45;gitlab__pvs7.0/orders</title>
<path fill="none" stroke="black" d="M311.8,-388C327.08,-388 341.47,-388 341.47,-388 341.47,-388 341.47,-175 341.47,-175 341.47,-175 342.29,-175 342.29,-175"/>
<polygon fill="black" stroke="black" points="339.71,-178.5 349.71,-175 339.71,-171.5 339.71,-178.5"/>
</g>
<!-- /Users/mmoscato/nasa/pvslib/pvslib&#45;gitlab__pvs7.0/sigma_set&#45;&gt;/Users/mmoscato/nasa/pvslib/pvslib&#45;gitlab__pvs7.0/reals -->
<g id="edge49" class="edge">
<title>/Users/mmoscato/nasa/pvslib/pvslib&#45;gitlab__pvs7.0/sigma_set&#45;&gt;/Users/mmoscato/nasa/pvslib/pvslib&#45;gitlab__pvs7.0/reals</title>
<path fill="none" stroke="black" d="M240.36,-397C210.4,-397 172.43,-397 172.43,-397 172.43,-397 172.43,-209.04 172.43,-209.04"/>
<polygon fill="black" stroke="black" points="175.93,-209.04 172.43,-199.04 168.93,-209.04 175.93,-209.04"/>
</g>
<!-- /Users/mmoscato/nasa/pvslib/pvslib&#45;gitlab__pvs7.0/sigma_set&#45;&gt;/Users/mmoscato/nasa/pvslib/pvslib&#45;gitlab__pvs7.0/series -->
<g id="edge50" class="edge">
<title>/Users/mmoscato/nasa/pvslib/pvslib&#45;gitlab__pvs7.0/sigma_set&#45;&gt;/Users/mmoscato/nasa/pvslib/pvslib&#45;gitlab__pvs7.0/series</title>
<path fill="none" stroke="black" d="M246.25,-378.83C246.25,-378.83 246.25,-353.41 246.25,-353.41"/>
<polygon fill="black" stroke="black" points="249.75,-353.41 246.25,-343.41 242.75,-353.41 249.75,-353.41"/>
</g>
<!-- /Users/mmoscato/nasa/pvslib/pvslib&#45;gitlab__pvs7.0/sigma_set&#45;&gt;/Users/mmoscato/nasa/pvslib/pvslib&#45;gitlab__pvs7.0/sets_aux -->
<g id="edge51" class="edge">
<title>/Users/mmoscato/nasa/pvslib/pvslib&#45;gitlab__pvs7.0/sigma_set&#45;&gt;/Users/mmoscato/nasa/pvslib/pvslib&#45;gitlab__pvs7.0/sets_aux</title>
<path fill="none" stroke="black" d="M311.65,-397C336.86,-397 366.2,-397 366.2,-397 366.2,-397 366.2,-353.17 366.2,-353.17"/>
<polygon fill="black" stroke="black" points="369.7,-353.17 366.2,-343.17 362.7,-353.17 369.7,-353.17"/>
</g>
<!-- /Users/mmoscato/nasa/pvslib/pvslib&#45;gitlab__pvs7.0/sigma_set&#45;&gt;/Users/mmoscato/pvs/7.1&#45;0&#45;g44ead9db&#45;ix86&#45;MacOSX&#45;allegro/lib/finite_sets -->
<g id="edge52" class="edge">
<title>/Users/mmoscato/nasa/pvslib/pvslib&#45;gitlab__pvs7.0/sigma_set&#45;&gt;/Users/mmoscato/pvs/7.1&#45;0&#45;g44ead9db&#45;ix86&#45;MacOSX&#45;allegro/lib/finite_sets</title>
<path fill="none" stroke="black" d="M311.63,-406C378.03,-406 514,-406 514,-406 514,-406 514,-62.19 514,-62.19"/>
<polygon fill="black" stroke="black" points="517.5,-62.19 514,-52.19 510.5,-62.19 517.5,-62.19"/>
</g>
<!-- /Users/mmoscato/nasa/pvslib/pvslib&#45;gitlab__pvs7.0/structures&#45;&gt;/Users/mmoscato/nasa/pvslib/pvslib&#45;gitlab__pvs7.0/ints -->
<g id="edge53" class="edge">
<title>/Users/mmoscato/nasa/pvslib/pvslib&#45;gitlab__pvs7.0/structures&#45;&gt;/Users/mmoscato/nasa/pvslib/pvslib&#45;gitlab__pvs7.0/ints</title>
<path fill="none" stroke="black" d="M219,-90.84C219,-90.84 219,-62.25 219,-62.25"/>
<polygon fill="black" stroke="black" points="222.5,-62.25 219,-52.25 215.5,-62.25 222.5,-62.25"/>
</g>
<!-- /Users/mmoscato/nasa/pvslib/pvslib&#45;gitlab__pvs7.0/structures&#45;&gt;/Users/mmoscato/pvs/7.1&#45;0&#45;g44ead9db&#45;ix86&#45;MacOSX&#45;allegro/lib/finite_sets -->
<g id="edge54" class="edge">
<title>/Users/mmoscato/nasa/pvslib/pvslib&#45;gitlab__pvs7.0/structures&#45;&gt;/Users/mmoscato/pvs/7.1&#45;0&#45;g44ead9db&#45;ix86&#45;MacOSX&#45;allegro/lib/finite_sets</title>
<path fill="none" stroke="black" d="M253.64,-96C326.79,-96 490.33,-96 490.33,-96 490.33,-96 490.33,-62.27 490.33,-62.27"/>
<polygon fill="black" stroke="black" points="493.83,-62.27 490.33,-52.27 486.83,-62.27 493.83,-62.27"/>
</g>
<!-- /Users/mmoscato/nasa/pvslib/pvslib&#45;gitlab__pvs7.0/while -->
<g id="node13" class="node">
<title>/Users/mmoscato/nasa/pvslib/pvslib&#45;gitlab__pvs7.0/while</title>
<polygon fill="#fcfcd7" stroke="black" points="411,-631 357,-631 357,-595 411,-595 411,-631"/>
<text text-anchor="middle" x="384" y="-609.3" font-family="Times,serif" font-size="14.00">while</text>
</g>
<!-- /Users/mmoscato/nasa/pvslib/pvslib&#45;gitlab__pvs7.0/while&#45;&gt;/Users/mmoscato/nasa/pvslib/pvslib&#45;gitlab__pvs7.0/algebra -->
<g id="edge55" class="edge">
<title>/Users/mmoscato/nasa/pvslib/pvslib&#45;gitlab__pvs7.0/while&#45;&gt;/Users/mmoscato/nasa/pvslib/pvslib&#45;gitlab__pvs7.0/algebra</title>
<path fill="none" stroke="black" d="M361.6,-594.79C361.6,-558.79 361.6,-482 361.6,-482 361.6,-482 259.11,-482 259.11,-482"/>
<polygon fill="black" stroke="black" points="259.11,-478.5 249.11,-482 259.11,-485.5 259.11,-478.5"/>
</g>
<!-- /Users/mmoscato/nasa/pvslib/pvslib&#45;gitlab__pvs7.0/while&#45;&gt;/Users/mmoscato/nasa/pvslib/pvslib&#45;gitlab__pvs7.0/orders -->
<g id="edge56" class="edge">
<title>/Users/mmoscato/nasa/pvslib/pvslib&#45;gitlab__pvs7.0/while&#45;&gt;/Users/mmoscato/nasa/pvslib/pvslib&#45;gitlab__pvs7.0/orders</title>
<path fill="none" stroke="black" d="M356.98,-607C351.76,-607 347.87,-607 347.87,-607 347.87,-607 347.87,-193 347.87,-193 347.87,-193 348.06,-193 348.06,-193"/>
<polygon fill="black" stroke="black" points="339.78,-196.5 349.78,-193 339.78,-189.5 339.78,-196.5"/>
</g>
<!-- /Users/mmoscato/nasa/pvslib/pvslib&#45;gitlab__pvs7.0/while&#45;&gt;/Users/mmoscato/nasa/pvslib/pvslib&#45;gitlab__pvs7.0/scott -->
<g id="edge57" class="edge">
<title>/Users/mmoscato/nasa/pvslib/pvslib&#45;gitlab__pvs7.0/while&#45;&gt;/Users/mmoscato/nasa/pvslib/pvslib&#45;gitlab__pvs7.0/scott</title>
<path fill="none" stroke="black" d="M395.5,-594.83C395.5,-594.83 395.5,-569.41 395.5,-569.41"/>
<polygon fill="black" stroke="black" points="399,-569.41 395.5,-559.41 392,-569.41 399,-569.41"/>
</g>
<!-- /Users/mmoscato/nasa/pvslib/pvslib&#45;gitlab__pvs7.0/while&#45;&gt;/Users/mmoscato/nasa/pvslib/pvslib&#45;gitlab__pvs7.0/sets_aux -->
<g id="edge58" class="edge">
<title>/Users/mmoscato/nasa/pvslib/pvslib&#45;gitlab__pvs7.0/while&#45;&gt;/Users/mmoscato/nasa/pvslib/pvslib&#45;gitlab__pvs7.0/sets_aux</title>
<path fill="none" stroke="black" d="M375.4,-594.98C375.4,-594.98 375.4,-353.01 375.4,-353.01"/>
<polygon fill="black" stroke="black" points="378.9,-353.01 375.4,-343.01 371.9,-353.01 378.9,-353.01"/>
</g>
<!-- /Users/mmoscato/nasa/pvslib/pvslib&#45;gitlab__pvs7.0/while&#45;&gt;/Users/mmoscato/nasa/pvslib/pvslib&#45;gitlab__pvs7.0/structures -->
<g id="edge59" class="edge">
<title>/Users/mmoscato/nasa/pvslib/pvslib&#45;gitlab__pvs7.0/while&#45;&gt;/Users/mmoscato/nasa/pvslib/pvslib&#45;gitlab__pvs7.0/structures</title>
<path fill="none" stroke="black" d="M356.95,-619C342.04,-619 326.53,-619 326.53,-619 326.53,-619 326.53,-111 326.53,-111 326.53,-111 263.62,-111 263.62,-111"/>
<polygon fill="black" stroke="black" points="263.62,-107.5 253.62,-111 263.62,-114.5 263.62,-107.5"/>
</g>
<!-- /Users/mmoscato/nasa/pvslib/pvslib&#45;gitlab__pvs7.0/while&#45;&gt;/Users/mmoscato/pvs/7.1&#45;0&#45;g44ead9db&#45;ix86&#45;MacOSX&#45;allegro/lib/finite_sets -->
<g id="edge60" class="edge">
<title>/Users/mmoscato/nasa/pvslib/pvslib&#45;gitlab__pvs7.0/while&#45;&gt;/Users/mmoscato/pvs/7.1&#45;0&#45;g44ead9db&#45;ix86&#45;MacOSX&#45;allegro/lib/finite_sets</title>
<path fill="none" stroke="black" d="M411.12,-613C455.23,-613 537.67,-613 537.67,-613 537.67,-613 537.67,-62.28 537.67,-62.28"/>
<polygon fill="black" stroke="black" points="541.17,-62.28 537.67,-52.28 534.17,-62.28 541.17,-62.28"/>
</g>
</g>
</svg>
