<?xml version="1.0" encoding="UTF-8" standalone="no"?>
<!DOCTYPE svg PUBLIC "-//W3C//DTD SVG 1.1//EN"
 "http://www.w3.org/Graphics/SVG/1.1/DTD/svg11.dtd">
<!-- Generated by graphviz version 2.44.1 (20200629.0846)
 -->
<!-- Title: CCG&#45;zoomed Pages: 1 -->
<svg width="1113pt" height="393pt"
 viewBox="0.00 0.00 1113.00 393.00" xmlns="http://www.w3.org/2000/svg" xmlns:xlink="http://www.w3.org/1999/xlink">
<g id="graph0" class="graph" transform="scale(1 1) rotate(0) translate(4 389)">
<title>CCG&#45;zoomed</title>
<polygon fill="white" stroke="transparent" points="-4,4 -4,-389 1109,-389 1109,4 -4,4"/>
<g id="clust1" class="cluster">
<title>cluster_NASALib</title>
<polygon fill="none" stroke="black" points="632,-8 632,-83 1097,-83 1097,-8 632,-8"/>
<text text-anchor="middle" x="864.5" y="-67.8" font-family="Times,serif" font-size="14.00">NASALib</text>
</g>
<g id="clust2" class="cluster">
<title>cluster_NASALib/CCG</title>
<polygon fill="none" stroke="black" points="8,-8 8,-377 624,-377 624,-8 8,-8"/>
<text text-anchor="middle" x="316" y="-361.8" font-family="Times,serif" font-size="14.00">NASALib/CCG</text>
</g>
<g id="clust3" class="cluster">
<title>cluster_PVS Prelude</title>
<polygon fill="none" stroke="black" points="872,-155 872,-230 960,-230 960,-155 872,-155"/>
<text text-anchor="middle" x="916" y="-214.8" font-family="Times,serif" font-size="14.00">PVS Prelude</text>
</g>
<!-- lib/finite_sets -->
<g id="node1" class="node">
<title>lib/finite_sets</title>
<polygon fill="#fcfcd7" stroke="black" points="951.5,-199 880.5,-199 880.5,-163 951.5,-163 951.5,-199"/>
<text text-anchor="middle" x="916" y="-177.3" font-family="Times,serif" font-size="14.00">finite_sets</text>
</g>
<!-- nasalib/CCG@bounding_circuits -->
<g id="node2" class="node">
<title>nasalib/CCG@bounding_circuits</title>
<ellipse fill="#e6f3ff" stroke="black" cx="522" cy="-328" rx="74.19" ry="18"/>
<text text-anchor="middle" x="522" y="-324.3" font-family="Times,serif" font-size="14.00">bounding_circuits</text>
</g>
<!-- nasalib/CCG@bounding_circuits_defs -->
<g id="node3" class="node">
<title>nasalib/CCG@bounding_circuits_defs</title>
<ellipse fill="#e6f3ff" stroke="black" cx="503" cy="-256" rx="92.88" ry="18"/>
<text text-anchor="middle" x="503" y="-252.3" font-family="Times,serif" font-size="14.00">bounding_circuits_defs</text>
</g>
<!-- nasalib/CCG@bounding_circuits&#45;&gt;nasalib/CCG@bounding_circuits_defs -->
<g id="edge2" class="edge">
<title>nasalib/CCG@bounding_circuits&#45;&gt;nasalib/CCG@bounding_circuits_defs</title>
<path fill="none" stroke="black" d="M521.92,-309.83C521.92,-309.83 521.92,-283.91 521.92,-283.91"/>
<polygon fill="black" stroke="black" points="525.42,-283.91 521.92,-273.91 518.42,-283.91 525.42,-283.91"/>
</g>
<!-- nasalib/CCG@matrix_wdg -->
<g id="node8" class="node">
<title>nasalib/CCG@matrix_wdg</title>
<ellipse fill="#e6f3ff" stroke="black" cx="503" cy="-181" rx="53.89" ry="18"/>
<text text-anchor="middle" x="503" y="-177.3" font-family="Times,serif" font-size="14.00">matrix_wdg</text>
</g>
<!-- nasalib/CCG@bounding_circuits&#45;&gt;nasalib/CCG@matrix_wdg -->
<g id="edge3" class="edge">
<title>nasalib/CCG@bounding_circuits&#45;&gt;nasalib/CCG@matrix_wdg</title>
<path fill="none" stroke="black" d="M592.06,-322C606.83,-322 618.05,-322 618.05,-322 618.05,-322 618.05,-181 618.05,-181 618.05,-181 567.15,-181 567.15,-181"/>
<polygon fill="black" stroke="black" points="567.15,-177.5 557.15,-181 567.15,-184.5 567.15,-177.5"/>
</g>
<!-- nasalib/digraphs -->
<g id="node13" class="node">
<title>nasalib/digraphs</title>
<polygon fill="#fcfcd7" stroke="black" points="1088.5,-52 1025.5,-52 1025.5,-16 1088.5,-16 1088.5,-52"/>
<text text-anchor="middle" x="1057" y="-30.3" font-family="Times,serif" font-size="14.00">digraphs</text>
</g>
<!-- nasalib/CCG@bounding_circuits&#45;&gt;nasalib/digraphs -->
<g id="edge4" class="edge">
<title>nasalib/CCG@bounding_circuits&#45;&gt;nasalib/digraphs</title>
<path fill="none" stroke="black" d="M592.14,-334C741.61,-334 1078,-334 1078,-334 1078,-334 1078,-62.31 1078,-62.31"/>
<polygon fill="black" stroke="black" points="1081.5,-62.31 1078,-52.31 1074.5,-62.31 1081.5,-62.31"/>
</g>
<!-- nasalib/CCG@bounding_circuits_defs&#45;&gt;nasalib/CCG@matrix_wdg -->
<g id="edge1" class="edge">
<title>nasalib/CCG@bounding_circuits_defs&#45;&gt;nasalib/CCG@matrix_wdg</title>
<path fill="none" stroke="black" d="M503,-237.84C503,-237.84 503,-209.25 503,-209.25"/>
<polygon fill="black" stroke="black" points="506.5,-209.25 503,-199.25 499.5,-209.25 506.5,-209.25"/>
</g>
<!-- nasalib/CCG@cc_def -->
<g id="node4" class="node">
<title>nasalib/CCG@cc_def</title>
<ellipse fill="#e6f3ff" stroke="black" cx="202" cy="-34" rx="34.39" ry="18"/>
<text text-anchor="middle" x="202" y="-30.3" font-family="Times,serif" font-size="14.00">cc_def</text>
</g>
<!-- nasalib/CCG@ccg -->
<g id="node5" class="node">
<title>nasalib/CCG@ccg</title>
<ellipse fill="#e6f3ff" stroke="black" cx="202" cy="-181" rx="27" ry="18"/>
<text text-anchor="middle" x="202" y="-177.3" font-family="Times,serif" font-size="14.00">ccg</text>
</g>
<!-- nasalib/CCG@ccg&#45;&gt;nasalib/CCG@cc_def -->
<g id="edge13" class="edge">
<title>nasalib/CCG@ccg&#45;&gt;nasalib/CCG@cc_def</title>
<path fill="none" stroke="black" d="M195.55,-163.27C195.55,-163.27 195.55,-61.79 195.55,-61.79"/>
<polygon fill="black" stroke="black" points="199.05,-61.79 195.55,-51.79 192.05,-61.79 199.05,-61.79"/>
</g>
<!-- nasalib/CCG@ccg_def -->
<g id="node6" class="node">
<title>nasalib/CCG@ccg_def</title>
<ellipse fill="#e6f3ff" stroke="black" cx="259" cy="-109" rx="38.19" ry="18"/>
<text text-anchor="middle" x="259" y="-105.3" font-family="Times,serif" font-size="14.00">ccg_def</text>
</g>
<!-- nasalib/CCG@ccg&#45;&gt;nasalib/CCG@ccg_def -->
<g id="edge14" class="edge">
<title>nasalib/CCG@ccg&#45;&gt;nasalib/CCG@ccg_def</title>
<path fill="none" stroke="black" d="M223.44,-169.75C223.44,-169.75 223.44,-126.03 223.44,-126.03"/>
<polygon fill="black" stroke="black" points="226.94,-126.03 223.44,-116.03 219.94,-126.03 226.94,-126.03"/>
</g>
<!-- nasalib/CCG@scp -->
<g id="node10" class="node">
<title>nasalib/CCG@scp</title>
<ellipse fill="#e6f3ff" stroke="black" cx="156" cy="-109" rx="27" ry="18"/>
<text text-anchor="middle" x="156" y="-105.3" font-family="Times,serif" font-size="14.00">scp</text>
</g>
<!-- nasalib/CCG@ccg&#45;&gt;nasalib/CCG@scp -->
<g id="edge15" class="edge">
<title>nasalib/CCG@ccg&#45;&gt;nasalib/CCG@scp</title>
<path fill="none" stroke="black" d="M179,-171.29C179,-171.29 179,-128.56 179,-128.56"/>
<polygon fill="black" stroke="black" points="182.5,-128.56 179,-118.56 175.5,-128.56 182.5,-128.56"/>
</g>
<!-- nasalib/ints -->
<g id="node14" class="node">
<title>nasalib/ints</title>
<polygon fill="#fcfcd7" stroke="black" points="935,-52 881,-52 881,-16 935,-16 935,-52"/>
<text text-anchor="middle" x="908" y="-30.3" font-family="Times,serif" font-size="14.00">ints</text>
</g>
<!-- nasalib/CCG@ccg&#45;&gt;nasalib/ints -->
<g id="edge16" class="edge">
<title>nasalib/CCG@ccg&#45;&gt;nasalib/ints</title>
<path fill="none" stroke="black" d="M226.22,-172.7C226.22,-160.72 226.22,-140 226.22,-140 226.22,-140 908,-140 908,-140 908,-140 908,-62.46 908,-62.46"/>
<polygon fill="black" stroke="black" points="911.5,-62.46 908,-52.46 904.5,-62.46 911.5,-62.46"/>
</g>
<!-- nasalib/CCG@ccg_def&#45;&gt;nasalib/CCG@cc_def -->
<g id="edge5" class="edge">
<title>nasalib/CCG@ccg_def&#45;&gt;nasalib/CCG@cc_def</title>
<path fill="none" stroke="black" d="M228.55,-97.93C228.55,-97.93 228.55,-55.61 228.55,-55.61"/>
<polygon fill="black" stroke="black" points="232.05,-55.61 228.55,-45.61 225.05,-55.61 232.05,-55.61"/>
</g>
<!-- nasalib/CCG@ccg_def&#45;&gt;nasalib/digraphs -->
<g id="edge6" class="edge">
<title>nasalib/CCG@ccg_def&#45;&gt;nasalib/digraphs</title>
<path fill="none" stroke="black" d="M277.05,-93.04C277.05,-86.75 277.05,-81 277.05,-81 277.05,-81 1036,-81 1036,-81 1036,-81 1036,-62.04 1036,-62.04"/>
<polygon fill="black" stroke="black" points="1039.5,-62.04 1036,-52.04 1032.5,-62.04 1039.5,-62.04"/>
</g>
<!-- nasalib/structures -->
<g id="node18" class="node">
<title>nasalib/structures</title>
<polygon fill="#fcfcd7" stroke="black" points="781.5,-52 712.5,-52 712.5,-16 781.5,-16 781.5,-52"/>
<text text-anchor="middle" x="747" y="-30.3" font-family="Times,serif" font-size="14.00">structures</text>
</g>
<!-- nasalib/CCG@ccg_def&#45;&gt;nasalib/structures -->
<g id="edge7" class="edge">
<title>nasalib/CCG@ccg_def&#45;&gt;nasalib/structures</title>
<path fill="none" stroke="black" d="M256.75,-90.85C256.75,-77.26 256.75,-61 256.75,-61 256.75,-61 729.75,-61 729.75,-61 729.75,-61 729.75,-60.12 729.75,-60.12"/>
<polygon fill="black" stroke="black" points="733.25,-62.16 729.75,-52.16 726.25,-62.16 733.25,-62.16"/>
</g>
<!-- nasalib/CCG@ccg_to_mwg -->
<g id="node7" class="node">
<title>nasalib/CCG@ccg_to_mwg</title>
<ellipse fill="#e6f3ff" stroke="black" cx="336" cy="-256" rx="56.59" ry="18"/>
<text text-anchor="middle" x="336" y="-252.3" font-family="Times,serif" font-size="14.00">ccg_to_mwg</text>
</g>
<!-- nasalib/CCG@ccg_to_mwg&#45;&gt;nasalib/CCG@cc_def -->
<g id="edge8" class="edge">
<title>nasalib/CCG@ccg_to_mwg&#45;&gt;nasalib/CCG@cc_def</title>
<path fill="none" stroke="black" d="M316.08,-238.95C316.08,-186.96 316.08,-34 316.08,-34 316.08,-34 246.54,-34 246.54,-34"/>
<polygon fill="black" stroke="black" points="246.54,-30.5 236.54,-34 246.54,-37.5 246.54,-30.5"/>
</g>
<!-- nasalib/CCG@ccg_to_mwg&#45;&gt;nasalib/CCG@ccg -->
<g id="edge9" class="edge">
<title>nasalib/CCG@ccg_to_mwg&#45;&gt;nasalib/CCG@ccg</title>
<path fill="none" stroke="black" d="M288.4,-246.2C288.4,-225.87 288.4,-181 288.4,-181 288.4,-181 239.34,-181 239.34,-181"/>
<polygon fill="black" stroke="black" points="239.34,-177.5 229.34,-181 239.34,-184.5 239.34,-177.5"/>
</g>
<!-- nasalib/CCG@ccg_to_mwg&#45;&gt;nasalib/CCG@matrix_wdg -->
<g id="edge10" class="edge">
<title>nasalib/CCG@ccg_to_mwg&#45;&gt;nasalib/CCG@matrix_wdg</title>
<path fill="none" stroke="black" d="M378.11,-243.89C378.11,-224.84 378.11,-190 378.11,-190 378.11,-190 446.14,-190 446.14,-190"/>
<polygon fill="black" stroke="black" points="446.14,-193.5 456.14,-190 446.14,-186.5 446.14,-193.5"/>
</g>
<!-- nasalib/CCG@measures -->
<g id="node9" class="node">
<title>nasalib/CCG@measures</title>
<ellipse fill="#e6f3ff" stroke="black" cx="379" cy="-109" rx="44.39" ry="18"/>
<text text-anchor="middle" x="379" y="-105.3" font-family="Times,serif" font-size="14.00">measures</text>
</g>
<!-- nasalib/CCG@ccg_to_mwg&#45;&gt;nasalib/CCG@measures -->
<g id="edge11" class="edge">
<title>nasalib/CCG@ccg_to_mwg&#45;&gt;nasalib/CCG@measures</title>
<path fill="none" stroke="black" d="M349.24,-238.27C349.24,-238.27 349.24,-132.45 349.24,-132.45"/>
<polygon fill="black" stroke="black" points="352.74,-132.45 349.24,-122.45 345.74,-132.45 352.74,-132.45"/>
</g>
<!-- nasalib/CCG@ccg_to_mwg&#45;&gt;nasalib/structures -->
<g id="edge12" class="edge">
<title>nasalib/CCG@ccg_to_mwg&#45;&gt;nasalib/structures</title>
<path fill="none" stroke="black" d="M363.67,-239.82C363.67,-207.06 363.67,-136 363.67,-136 363.67,-136 764.25,-136 764.25,-136 764.25,-136 764.25,-62.24 764.25,-62.24"/>
<polygon fill="black" stroke="black" points="767.75,-62.24 764.25,-52.24 760.75,-62.24 767.75,-62.24"/>
</g>
<!-- nasalib/CCG@matrix_wdg&#45;&gt;nasalib/CCG@measures -->
<g id="edge17" class="edge">
<title>nasalib/CCG@matrix_wdg&#45;&gt;nasalib/CCG@measures</title>
<path fill="none" stroke="black" d="M456.27,-172C435.92,-172 416.63,-172 416.63,-172 416.63,-172 416.63,-128.57 416.63,-128.57"/>
<polygon fill="black" stroke="black" points="420.13,-128.57 416.63,-118.57 413.13,-128.57 420.13,-128.57"/>
</g>
<!-- nasalib/CCG@matrix_wdg&#45;&gt;nasalib/digraphs -->
<g id="edge18" class="edge">
<title>nasalib/CCG@matrix_wdg&#45;&gt;nasalib/digraphs</title>
<path fill="none" stroke="black" d="M503,-162.88C503,-160.03 503,-158 503,-158 503,-158 1067.5,-158 1067.5,-158 1067.5,-158 1067.5,-62.03 1067.5,-62.03"/>
<polygon fill="black" stroke="black" points="1071,-62.03 1067.5,-52.03 1064,-62.03 1071,-62.03"/>
</g>
<!-- nasalib/reals -->
<g id="node16" class="node">
<title>nasalib/reals</title>
<polygon fill="#fcfcd7" stroke="black" points="694,-52 640,-52 640,-16 694,-16 694,-52"/>
<text text-anchor="middle" x="667" y="-30.3" font-family="Times,serif" font-size="14.00">reals</text>
</g>
<!-- nasalib/CCG@measures&#45;&gt;nasalib/reals -->
<g id="edge19" class="edge">
<title>nasalib/CCG@measures&#45;&gt;nasalib/reals</title>
<path fill="none" stroke="black" d="M417.54,-100C496.02,-100 667,-100 667,-100 667,-100 667,-62.03 667,-62.03"/>
<polygon fill="black" stroke="black" points="670.5,-62.03 667,-52.03 663.5,-62.03 670.5,-62.03"/>
</g>
<!-- nasalib/sets_aux -->
<g id="node17" class="node">
<title>nasalib/sets_aux</title>
<polygon fill="#fcfcd7" stroke="black" points="862.5,-52 799.5,-52 799.5,-16 862.5,-16 862.5,-52"/>
<text text-anchor="middle" x="831" y="-30.3" font-family="Times,serif" font-size="14.00">sets_aux</text>
</g>
<!-- nasalib/CCG@measures&#45;&gt;nasalib/sets_aux -->
<g id="edge20" class="edge">
<title>nasalib/CCG@measures&#45;&gt;nasalib/sets_aux</title>
<path fill="none" stroke="black" d="M417.54,-118C526.84,-118 831,-118 831,-118 831,-118 831,-62.23 831,-62.23"/>
<polygon fill="black" stroke="black" points="834.5,-62.23 831,-52.23 827.5,-62.23 834.5,-62.23"/>
</g>
<!-- nasalib/CCG@measures&#45;&gt;nasalib/structures -->
<g id="edge21" class="edge">
<title>nasalib/CCG@measures&#45;&gt;nasalib/structures</title>
<path fill="none" stroke="black" d="M423.39,-109C521.27,-109 747,-109 747,-109 747,-109 747,-62.16 747,-62.16"/>
<polygon fill="black" stroke="black" points="750.5,-62.16 747,-52.16 743.5,-62.16 750.5,-62.16"/>
</g>
<!-- nasalib/CCG@scp&#45;&gt;nasalib/CCG@cc_def -->
<g id="edge33" class="edge">
<title>nasalib/CCG@scp&#45;&gt;nasalib/CCG@cc_def</title>
<path fill="none" stroke="black" d="M172.7,-94.54C172.7,-94.54 172.7,-53.65 172.7,-53.65"/>
<polygon fill="black" stroke="black" points="176.2,-53.65 172.7,-43.65 169.2,-53.65 176.2,-53.65"/>
</g>
<!-- nasalib/orders -->
<g id="node15" class="node">
<title>nasalib/orders</title>
<polygon fill="#fcfcd7" stroke="black" points="1007,-52 953,-52 953,-16 1007,-16 1007,-52"/>
<text text-anchor="middle" x="980" y="-30.3" font-family="Times,serif" font-size="14.00">orders</text>
</g>
<!-- nasalib/CCG@scp&#45;&gt;nasalib/orders -->
<g id="edge34" class="edge">
<title>nasalib/CCG@scp&#45;&gt;nasalib/orders</title>
<path fill="none" stroke="black" d="M177.85,-98.21C177.85,-86.98 177.85,-71 177.85,-71 177.85,-71 966.5,-71 966.5,-71 966.5,-71 966.5,-62.07 966.5,-62.07"/>
<polygon fill="black" stroke="black" points="970,-62.07 966.5,-52.07 963,-62.07 970,-62.07"/>
</g>
<!-- nasalib/CCG@scp_to_ccg -->
<g id="node11" class="node">
<title>nasalib/CCG@scp_to_ccg</title>
<ellipse fill="#e6f3ff" stroke="black" cx="66" cy="-256" rx="50.09" ry="18"/>
<text text-anchor="middle" x="66" y="-252.3" font-family="Times,serif" font-size="14.00">scp_to_ccg</text>
</g>
<!-- nasalib/CCG@scp_to_ccg&#45;&gt;nasalib/CCG@cc_def -->
<g id="edge28" class="edge">
<title>nasalib/CCG@scp_to_ccg&#45;&gt;nasalib/CCG@cc_def</title>
<path fill="none" stroke="black" d="M32.64,-242.45C32.64,-194.25 32.64,-34 32.64,-34 32.64,-34 157.32,-34 157.32,-34"/>
<polygon fill="black" stroke="black" points="157.32,-37.5 167.32,-34 157.32,-30.5 157.32,-37.5"/>
</g>
<!-- nasalib/CCG@scp_to_ccg&#45;&gt;nasalib/CCG@ccg -->
<g id="edge29" class="edge">
<title>nasalib/CCG@scp_to_ccg&#45;&gt;nasalib/CCG@ccg</title>
<path fill="none" stroke="black" d="M99.36,-242.24C99.36,-220.59 99.36,-181 99.36,-181 99.36,-181 164.76,-181 164.76,-181"/>
<polygon fill="black" stroke="black" points="164.76,-184.5 174.76,-181 164.76,-177.5 164.76,-184.5"/>
</g>
<!-- nasalib/CCG@scp_to_ccg&#45;&gt;nasalib/CCG@scp -->
<g id="edge30" class="edge">
<title>nasalib/CCG@scp_to_ccg&#45;&gt;nasalib/CCG@scp</title>
<path fill="none" stroke="black" d="M49.32,-238.85C49.32,-200.07 49.32,-109 49.32,-109 49.32,-109 118.8,-109 118.8,-109"/>
<polygon fill="black" stroke="black" points="118.8,-112.5 128.8,-109 118.8,-105.5 118.8,-112.5"/>
</g>
<!-- nasalib/CCG@scp_to_ccg&#45;&gt;nasalib/digraphs -->
<g id="edge31" class="edge">
<title>nasalib/CCG@scp_to_ccg&#45;&gt;nasalib/digraphs</title>
<path fill="none" stroke="black" d="M82.68,-238.81C82.68,-208.56 82.68,-149 82.68,-149 82.68,-149 1046.5,-149 1046.5,-149 1046.5,-149 1046.5,-62.22 1046.5,-62.22"/>
<polygon fill="black" stroke="black" points="1050,-62.22 1046.5,-52.22 1043,-62.22 1050,-62.22"/>
</g>
<!-- nasalib/CCG@scp_to_ccg&#45;&gt;nasalib/orders -->
<g id="edge32" class="edge">
<title>nasalib/CCG@scp_to_ccg&#45;&gt;nasalib/orders</title>
<path fill="none" stroke="black" d="M66,-237.67C66,-206.14 66,-145 66,-145 66,-145 980,-145 980,-145 980,-145 980,-62.33 980,-62.33"/>
<polygon fill="black" stroke="black" points="983.5,-62.33 980,-52.33 976.5,-62.33 983.5,-62.33"/>
</g>
<!-- nasalib/CCG@scp_to_ccg_alt -->
<g id="node12" class="node">
<title>nasalib/CCG@scp_to_ccg_alt</title>
<ellipse fill="#e6f3ff" stroke="black" cx="198" cy="-256" rx="63.89" ry="18"/>
<text text-anchor="middle" x="198" y="-252.3" font-family="Times,serif" font-size="14.00">scp_to_ccg_alt</text>
</g>
<!-- nasalib/CCG@scp_to_ccg_alt&#45;&gt;lib/finite_sets -->
<g id="edge22" class="edge">
<title>nasalib/CCG@scp_to_ccg_alt&#45;&gt;lib/finite_sets</title>
<path fill="none" stroke="black" d="M248.62,-244.9C248.62,-231.86 248.62,-212 248.62,-212 248.62,-212 916,-212 916,-212 916,-212 916,-209.03 916,-209.03"/>
<polygon fill="black" stroke="black" points="919.5,-209.03 916,-199.03 912.5,-209.03 919.5,-209.03"/>
</g>
<!-- nasalib/CCG@scp_to_ccg_alt&#45;&gt;nasalib/CCG@cc_def -->
<g id="edge23" class="edge">
<title>nasalib/CCG@scp_to_ccg_alt&#45;&gt;nasalib/CCG@cc_def</title>
<path fill="none" stroke="black" d="M235.54,-241.17C235.54,-208.06 235.54,-131 235.54,-131 235.54,-131 208.1,-131 208.1,-131 208.1,-131 208.1,-61.79 208.1,-61.79"/>
<polygon fill="black" stroke="black" points="211.6,-61.79 208.1,-51.79 204.6,-61.79 211.6,-61.79"/>
</g>
<!-- nasalib/CCG@scp_to_ccg_alt&#45;&gt;nasalib/CCG@ccg -->
<g id="edge24" class="edge">
<title>nasalib/CCG@scp_to_ccg_alt&#45;&gt;nasalib/CCG@ccg</title>
<path fill="none" stroke="black" d="M202,-237.84C202,-237.84 202,-209.25 202,-209.25"/>
<polygon fill="black" stroke="black" points="205.5,-209.25 202,-199.25 198.5,-209.25 205.5,-209.25"/>
</g>
<!-- nasalib/CCG@scp_to_ccg_alt&#45;&gt;nasalib/CCG@scp -->
<g id="edge25" class="edge">
<title>nasalib/CCG@scp_to_ccg_alt&#45;&gt;nasalib/CCG@scp</title>
<path fill="none" stroke="black" d="M154.65,-242.7C154.65,-242.7 154.65,-137.14 154.65,-137.14"/>
<polygon fill="black" stroke="black" points="158.15,-137.14 154.65,-127.14 151.15,-137.14 158.15,-137.14"/>
</g>
<!-- nasalib/CCG@scp_to_ccg_alt&#45;&gt;nasalib/digraphs -->
<g id="edge26" class="edge">
<title>nasalib/CCG@scp_to_ccg_alt&#45;&gt;nasalib/digraphs</title>
<path fill="none" stroke="black" d="M242.08,-242.67C242.08,-215.02 242.08,-154 242.08,-154 242.08,-154 1057,-154 1057,-154 1057,-154 1057,-62.23 1057,-62.23"/>
<polygon fill="black" stroke="black" points="1060.5,-62.23 1057,-52.23 1053.5,-62.23 1060.5,-62.23"/>
</g>
<!-- nasalib/CCG@scp_to_ccg_alt&#45;&gt;nasalib/orders -->
<g id="edge27" class="edge">
<title>nasalib/CCG@scp_to_ccg_alt&#45;&gt;nasalib/orders</title>
<path fill="none" stroke="black" d="M255.16,-247.86C255.16,-238.67 255.16,-225 255.16,-225 255.16,-225 993.5,-225 993.5,-225 993.5,-225 993.5,-62.31 993.5,-62.31"/>
<polygon fill="black" stroke="black" points="997,-62.31 993.5,-52.31 990,-62.31 997,-62.31"/>
</g>
</g>
</svg>
