<?xml version="1.0" encoding="UTF-8" standalone="no"?>
<!DOCTYPE svg PUBLIC "-//W3C//DTD SVG 1.1//EN"
 "http://www.w3.org/Graphics/SVG/1.1/DTD/svg11.dtd">
<!-- Generated by graphviz version 8.0.4 (20230421.1958)
 -->
<!-- Title: CCG Pages: 1 -->
<svg width="258pt" height="545pt"
 viewBox="0.00 0.00 258.00 545.00" xmlns="http://www.w3.org/2000/svg" xmlns:xlink="http://www.w3.org/1999/xlink">
<g id="graph0" class="graph" transform="scale(1 1) rotate(0) translate(4 541)">
<title>CCG</title>
<polygon fill="white" stroke="none" points="-4,4 -4,-541 254,-541 254,4 -4,4"/>
<g id="clust1" class="cluster">
<title>cluster_NASALib</title>
<polygon fill="none" stroke="black" points="8,-92.5 8,-529 230,-529 230,-92.5 8,-92.5"/>
<text text-anchor="middle" x="119" y="-511.7" font-family="Times,serif" font-size="14.00">NASALib</text>
</g>
<g id="clust2" class="cluster">
<title>cluster_PVS Prelude</title>
<polygon fill="none" stroke="black" points="103,-8 103,-84.5 191,-84.5 191,-8 103,-8"/>
<text text-anchor="middle" x="147" y="-67.2" font-family="Times,serif" font-size="14.00">PVS Prelude</text>
</g>
<!-- NASALib/CCG -->
<g id="node1" class="node">
<title>NASALib/CCG</title>
<polygon fill="#f7e28d" stroke="black" points="148,-424.5 94,-424.5 94,-388.5 148,-388.5 148,-424.5"/>
<text text-anchor="middle" x="121" y="-401.45" font-family="Times,serif" font-size="14.00">CCG</text>
</g>
<!-- NASALib/digraphs -->
<g id="node3" class="node">
<title>NASALib/digraphs</title>
<polygon fill="#fcfcd7" stroke="black" points="102.25,-352.5 39.75,-352.5 39.75,-316.5 102.25,-316.5 102.25,-352.5"/>
<text text-anchor="middle" x="71" y="-329.45" font-family="Times,serif" font-size="14.00">digraphs</text>
</g>
<!-- NASALib/CCG&#45;&gt;NASALib/digraphs -->
<g id="edge1" class="edge">
<title>NASALib/CCG&#45;&gt;NASALib/digraphs</title>
<path fill="none" stroke="black" d="M108.64,-388.2C102.89,-380.14 95.92,-370.39 89.56,-361.48"/>
<polygon fill="black" stroke="black" points="91.88,-359.71 83.22,-353.6 86.18,-363.78 91.88,-359.71"/>
</g>
<!-- NASALib/ints -->
<g id="node4" class="node">
<title>NASALib/ints</title>
<polygon fill="#fcfcd7" stroke="black" points="136,-136.5 82,-136.5 82,-100.5 136,-100.5 136,-136.5"/>
<text text-anchor="middle" x="109" y="-113.45" font-family="Times,serif" font-size="14.00">ints</text>
</g>
<!-- NASALib/CCG&#45;&gt;NASALib/ints -->
<g id="edge2" class="edge">
<title>NASALib/CCG&#45;&gt;NASALib/ints</title>
<path fill="none" stroke="black" d="M93.51,-389.31C67.04,-373.72 31,-352.5 31,-352.5 31,-352.5 17,-335.5 17,-335.5"/>
<path fill="none" stroke="black" d="M17,-333.5C17,-333.5 17,-263.5 17,-263.5"/>
<path fill="none" stroke="black" d="M17,-261.5C17,-261.5 56,-191.5 56,-191.5"/>
<path fill="none" stroke="black" d="M56,-189.5C56,-189.5 66,-172.5 66,-172.5 66,-172.5 77.23,-158.65 88.22,-145.12"/>
<polygon fill="black" stroke="black" points="91.34,-147.82 94.92,-137.85 85.9,-143.41 91.34,-147.82"/>
</g>
<!-- NASALib/orders -->
<g id="node5" class="node">
<title>NASALib/orders</title>
<polygon fill="#fcfcd7" stroke="black" points="182,-280.5 128,-280.5 128,-244.5 182,-244.5 182,-280.5"/>
<text text-anchor="middle" x="155" y="-257.45" font-family="Times,serif" font-size="14.00">orders</text>
</g>
<!-- NASALib/CCG&#45;&gt;NASALib/orders -->
<g id="edge3" class="edge">
<title>NASALib/CCG&#45;&gt;NASALib/orders</title>
<path fill="none" stroke="black" d="M121,-388.2C121,-367.47 121,-335.5 121,-335.5"/>
<path fill="none" stroke="black" d="M121,-333.5C121,-333.5 132.26,-310.32 141.82,-290.64"/>
<polygon fill="black" stroke="black" points="145.37,-292.33 146.6,-281.8 139.08,-289.27 145.37,-292.33"/>
</g>
<!-- NASALib/reals -->
<g id="node6" class="node">
<title>NASALib/reals</title>
<polygon fill="#fcfcd7" stroke="black" points="90,-280.5 36,-280.5 36,-244.5 90,-244.5 90,-280.5"/>
<text text-anchor="middle" x="63" y="-257.45" font-family="Times,serif" font-size="14.00">reals</text>
</g>
<!-- NASALib/CCG&#45;&gt;NASALib/reals -->
<g id="edge4" class="edge">
<title>NASALib/CCG&#45;&gt;NASALib/reals</title>
<path fill="none" stroke="black" d="M17,-333.5C17,-333.5 32.66,-309.68 45.7,-289.83"/>
<polygon fill="black" stroke="black" points="49.06,-292.08 51.63,-281.8 43.21,-288.24 49.06,-292.08"/>
</g>
<!-- NASALib/sets_aux -->
<g id="node7" class="node">
<title>NASALib/sets_aux</title>
<polygon fill="#fcfcd7" stroke="black" points="202.25,-352.5 139.75,-352.5 139.75,-316.5 202.25,-316.5 202.25,-352.5"/>
<text text-anchor="middle" x="171" y="-329.45" font-family="Times,serif" font-size="14.00">sets_aux</text>
</g>
<!-- NASALib/CCG&#45;&gt;NASALib/sets_aux -->
<g id="edge5" class="edge">
<title>NASALib/CCG&#45;&gt;NASALib/sets_aux</title>
<path fill="none" stroke="black" d="M133.36,-388.2C139.11,-380.14 146.08,-370.39 152.44,-361.48"/>
<polygon fill="black" stroke="black" points="155.82,-363.78 158.78,-353.6 150.12,-359.71 155.82,-363.78"/>
</g>
<!-- NASALib/structures -->
<g id="node8" class="node">
<title>NASALib/structures</title>
<polygon fill="#fcfcd7" stroke="black" points="143.25,-208.5 74.75,-208.5 74.75,-172.5 143.25,-172.5 143.25,-208.5"/>
<text text-anchor="middle" x="109" y="-185.45" font-family="Times,serif" font-size="14.00">structures</text>
</g>
<!-- NASALib/CCG&#45;&gt;NASALib/structures -->
<g id="edge6" class="edge">
<title>NASALib/CCG&#45;&gt;NASALib/structures</title>
<path fill="none" stroke="black" d="M17,-261.5C17,-261.5 27,-244.5 27,-244.5 27,-244.5 50.91,-229.04 72.91,-214.82"/>
<polygon fill="black" stroke="black" points="74.65,-217.22 81.15,-208.85 70.85,-211.34 74.65,-217.22"/>
</g>
<!-- lib/finite_sets -->
<g id="node9" class="node">
<title>lib/finite_sets</title>
<polygon fill="#fcfcd7" stroke="black" points="182.75,-52 111.25,-52 111.25,-16 182.75,-16 182.75,-52"/>
<text text-anchor="middle" x="147" y="-28.95" font-family="Times,serif" font-size="14.00">finite_sets</text>
</g>
<!-- NASALib/CCG&#45;&gt;lib/finite_sets -->
<g id="edge7" class="edge">
<title>NASALib/CCG&#45;&gt;lib/finite_sets</title>
<path fill="none" stroke="black" d="M148.35,-392.67C181.8,-376.98 234,-352.5 234,-352.5 234,-352.5 250,-335.5 250,-335.5"/>
<path fill="none" stroke="black" d="M250,-333.5C250,-333.5 250,-263.5 250,-263.5"/>
</g>
<!-- NASALib/PVS0 -->
<g id="node2" class="node">
<title>NASALib/PVS0</title>
<polygon fill="#fcfcd7" stroke="black" points="171,-496.5 117,-496.5 117,-460.5 171,-460.5 171,-496.5"/>
<text text-anchor="middle" x="144" y="-473.45" font-family="Times,serif" font-size="14.00">PVS0</text>
</g>
<!-- NASALib/PVS0&#45;&gt;NASALib/CCG -->
<g id="edge8" class="edge">
<title>NASALib/PVS0&#45;&gt;NASALib/CCG</title>
<path fill="none" stroke="black" d="M138.31,-460.2C135.81,-452.57 132.8,-443.42 130,-434.9"/>
<polygon fill="black" stroke="black" points="133.07,-434.01 126.62,-425.6 126.42,-436.2 133.07,-434.01"/>
</g>
<!-- NASALib/PVS0&#45;&gt;NASALib/digraphs -->
<g id="edge9" class="edge">
<title>NASALib/PVS0&#45;&gt;NASALib/digraphs</title>
<path fill="none" stroke="black" d="M149.69,-460.2C156.5,-439.47 167,-407.5 167,-407.5"/>
<path fill="none" stroke="black" d="M167,-405.5C167,-405.5 157,-388.5 157,-388.5 157,-388.5 131.47,-372.77 108.23,-358.44"/>
<polygon fill="black" stroke="black" points="110.51,-355.12 100.16,-352.85 106.84,-361.08 110.51,-355.12"/>
</g>
<!-- NASALib/PVS0&#45;&gt;NASALib/orders -->
<g id="edge10" class="edge">
<title>NASALib/PVS0&#45;&gt;NASALib/orders</title>
<path fill="none" stroke="black" d="M167,-405.5C167,-405.5 157,-388.5 157,-388.5 157,-388.5 131,-352.5 131,-352.5 131,-352.5 121,-335.5 121,-335.5"/>
</g>
<!-- NASALib/PVS0&#45;&gt;NASALib/sets_aux -->
<g id="edge11" class="edge">
<title>NASALib/PVS0&#45;&gt;NASALib/sets_aux</title>
<path fill="none" stroke="black" d="M167,-405.5C167,-405.5 168.28,-383.16 169.39,-363.72"/>
<polygon fill="black" stroke="black" points="172.93,-363.99 170.01,-353.8 165.95,-363.59 172.93,-363.99"/>
</g>
<!-- NASALib/PVS0&#45;&gt;NASALib/structures -->
<g id="edge12" class="edge">
<title>NASALib/PVS0&#45;&gt;NASALib/structures</title>
<path fill="none" stroke="black" d="M167,-405.5C167,-405.5 211,-352.5 211,-352.5 211,-352.5 211,-316.5 211,-316.5 211,-316.5 206,-244.5 206,-244.5 206,-244.5 176.69,-228.49 150.29,-214.06"/>
<polygon fill="black" stroke="black" points="152.22,-210.58 141.76,-208.85 148.86,-216.72 152.22,-210.58"/>
</g>
<!-- NASALib/PVS0&#45;&gt;lib/finite_sets -->
<g id="edge13" class="edge">
<title>NASALib/PVS0&#45;&gt;lib/finite_sets</title>
<path fill="none" stroke="black" d="M167,-405.5C167,-405.5 234,-352.5 234,-352.5 234,-352.5 250,-335.5 250,-335.5"/>
</g>
<!-- NASALib/digraphs&#45;&gt;NASALib/ints -->
<g id="edge14" class="edge">
<title>NASALib/digraphs&#45;&gt;NASALib/ints</title>
<path fill="none" stroke="black" d="M80.39,-316.2C91.65,-295.47 109,-263.5 109,-263.5"/>
<path fill="none" stroke="black" d="M109,-261.5C109,-261.5 99,-244.5 99,-244.5 99,-244.5 66,-208.5 66,-208.5 66,-208.5 56,-191.5 56,-191.5"/>
</g>
<!-- NASALib/digraphs&#45;&gt;NASALib/orders -->
<g id="edge15" class="edge">
<title>NASALib/digraphs&#45;&gt;NASALib/orders</title>
<path fill="none" stroke="black" d="M91.76,-316.2C102.06,-307.61 114.67,-297.11 125.91,-287.74"/>
<polygon fill="black" stroke="black" points="127.74,-289.94 133.18,-280.85 123.26,-284.56 127.74,-289.94"/>
</g>
<!-- NASALib/digraphs&#45;&gt;NASALib/structures -->
<g id="edge16" class="edge">
<title>NASALib/digraphs&#45;&gt;NASALib/structures</title>
<path fill="none" stroke="black" d="M109,-261.5C109,-261.5 109,-239.16 109,-219.72"/>
<polygon fill="black" stroke="black" points="112.5,-219.8 109,-209.8 105.5,-219.8 112.5,-219.8"/>
</g>
<!-- NASALib/digraphs&#45;&gt;lib/finite_sets -->
<g id="edge17" class="edge">
<title>NASALib/digraphs&#45;&gt;lib/finite_sets</title>
<path fill="none" stroke="black" d="M250,-261.5C250,-261.5 250,-191.5 250,-191.5"/>
<path fill="none" stroke="black" d="M102.43,-323.28C149.79,-307.88 234,-280.5 234,-280.5 234,-280.5 250,-263.5 250,-263.5"/>
</g>
<!-- NASALib/ints&#45;&gt;lib/finite_sets -->
<g id="edge18" class="edge">
<title>NASALib/ints&#45;&gt;lib/finite_sets</title>
<path fill="none" stroke="black" d="M117.06,-100C122.1,-89.07 128.69,-74.75 134.41,-62.33"/>
<polygon fill="black" stroke="black" points="137.95,-64.02 138.95,-53.47 131.59,-61.09 137.95,-64.02"/>
</g>
<!-- NASALib/orders&#45;&gt;NASALib/structures -->
<g id="edge19" class="edge">
<title>NASALib/orders&#45;&gt;NASALib/structures</title>
<path fill="none" stroke="black" d="M143.63,-244.2C138.39,-236.23 132.07,-226.6 126.26,-217.76"/>
<polygon fill="black" stroke="black" points="128.66,-216.04 120.24,-209.6 122.81,-219.88 128.66,-216.04"/>
</g>
<!-- NASALib/orders&#45;&gt;lib/finite_sets -->
<g id="edge20" class="edge">
<title>NASALib/orders&#45;&gt;lib/finite_sets</title>
<path fill="none" stroke="black" d="M180.87,-244.15C203.91,-228.69 234,-208.5 234,-208.5 234,-208.5 250,-191.5 250,-191.5"/>
<path fill="none" stroke="black" d="M250,-189.5C250,-189.5 250,-119.5 250,-119.5"/>
</g>
<!-- NASALib/reals&#45;&gt;NASALib/ints -->
<g id="edge21" class="edge">
<title>NASALib/reals&#45;&gt;NASALib/ints</title>
<path fill="none" stroke="black" d="M61.27,-244.2C59.2,-223.47 56,-191.5 56,-191.5"/>
</g>
<!-- NASALib/reals&#45;&gt;NASALib/structures -->
<g id="edge22" class="edge">
<title>NASALib/reals&#45;&gt;NASALib/structures</title>
<path fill="none" stroke="black" d="M74.37,-244.2C79.61,-236.23 85.93,-226.6 91.74,-217.76"/>
<polygon fill="black" stroke="black" points="95.19,-219.88 97.76,-209.6 89.34,-216.04 95.19,-219.88"/>
</g>
<!-- NASALib/sets_aux&#45;&gt;NASALib/ints -->
<g id="edge23" class="edge">
<title>NASALib/sets_aux&#45;&gt;NASALib/ints</title>
<path fill="none" stroke="black" d="M201,-261.5C201,-261.5 152,-172.5 152,-172.5 152,-172.5 140.77,-158.65 129.78,-145.12"/>
<polygon fill="black" stroke="black" points="132.1,-143.41 123.08,-137.85 126.66,-147.82 132.1,-143.41"/>
</g>
<!-- NASALib/sets_aux&#45;&gt;NASALib/orders -->
<g id="edge24" class="edge">
<title>NASALib/sets_aux&#45;&gt;NASALib/orders</title>
<path fill="none" stroke="black" d="M167.04,-316.2C165.32,-308.65 163.26,-299.62 161.33,-291.18"/>
<polygon fill="black" stroke="black" points="164.55,-290.57 158.91,-281.6 157.73,-292.13 164.55,-290.57"/>
</g>
<!-- NASALib/sets_aux&#45;&gt;NASALib/structures -->
<g id="edge25" class="edge">
<title>NASALib/sets_aux&#45;&gt;NASALib/structures</title>
<path fill="none" stroke="black" d="M178.42,-316.2C187.3,-295.47 201,-263.5 201,-263.5"/>
<path fill="none" stroke="black" d="M201,-261.5C201,-261.5 191,-244.5 191,-244.5 191,-244.5 167.09,-229.04 145.09,-214.82"/>
<polygon fill="black" stroke="black" points="147.15,-211.34 136.85,-208.85 143.35,-217.22 147.15,-211.34"/>
</g>
<!-- NASALib/sets_aux&#45;&gt;lib/finite_sets -->
<g id="edge26" class="edge">
<title>NASALib/sets_aux&#45;&gt;lib/finite_sets</title>
<path fill="none" stroke="black" d="M191.63,-316.15C210,-300.69 234,-280.5 234,-280.5 234,-280.5 250,-263.5 250,-263.5"/>
</g>
<!-- NASALib/structures&#45;&gt;NASALib/ints -->
<g id="edge27" class="edge">
<title>NASALib/structures&#45;&gt;NASALib/ints</title>
<path fill="none" stroke="black" d="M109,-172.2C109,-164.74 109,-155.82 109,-147.47"/>
<polygon fill="black" stroke="black" points="112.5,-147.6 109,-137.6 105.5,-147.6 112.5,-147.6"/>
</g>
<!-- NASALib/structures&#45;&gt;lib/finite_sets -->
<g id="edge28" class="edge">
<title>NASALib/structures&#45;&gt;lib/finite_sets</title>
<path fill="none" stroke="black" d="M250,-117.5C250,-117.5 207.45,-83.42 177.05,-59.07"/>
<polygon fill="black" stroke="black" points="179.84,-56.02 169.84,-52.5 175.46,-61.48 179.84,-56.02"/>
<path fill="none" stroke="black" d="M143.49,-172.38C185.24,-151.65 250,-119.5 250,-119.5"/>
</g>
</g>
</svg>
