<?xml version="1.0" encoding="UTF-8" standalone="no"?>
<!DOCTYPE svg PUBLIC "-//W3C//DTD SVG 1.1//EN"
 "http://www.w3.org/Graphics/SVG/1.1/DTD/svg11.dtd">
<!-- Generated by graphviz version 2.40.1 (20161225.0304)
 -->
<!-- Title: CCG Pages: 1 -->
<svg width="338pt" height="468pt"
 viewBox="0.00 0.00 338.00 468.00" xmlns="http://www.w3.org/2000/svg" xmlns:xlink="http://www.w3.org/1999/xlink">
<g id="graph0" class="graph" transform="scale(1 1) rotate(0) translate(4 464)">
<title>CCG</title>
<polygon fill="#ffffff" stroke="transparent" points="-4,4 -4,-464 334,-464 334,4 -4,4"/>
<g id="clust1" class="cluster">
<title>cluster_NASALib</title>
<polygon fill="none" stroke="#000000" points="8,-90 8,-452 322,-452 322,-90 8,-90"/>
<text text-anchor="middle" x="165" y="-436.8" font-family="Times,serif" font-size="14.00" fill="#000000">NASALib</text>
</g>
<g id="clust2" class="cluster">
<title>cluster_PVS Prelude</title>
<polygon fill="none" stroke="#000000" points="159,-8 159,-82 247,-82 247,-8 159,-8"/>
<text text-anchor="middle" x="203" y="-66.8" font-family="Times,serif" font-size="14.00" fill="#000000">PVS Prelude</text>
</g>
<!-- /Users/mmoscato/Workspace/Workbench/pvs/dependency&#45;all/Users/mmoscato/pvs/pvs/lib/finite_sets -->
<g id="node1" class="node">
<title>/Users/mmoscato/Workspace/Workbench/pvs/dependency&#45;all/Users/mmoscato/pvs/pvs/lib/finite_sets</title>
<polygon fill="#fcfcd7" stroke="#000000" points="239.2796,-52 166.7204,-52 166.7204,-16 239.2796,-16 239.2796,-52"/>
<text text-anchor="middle" x="203" y="-29.8" font-family="Times,serif" font-size="14.00" fill="#000000">finite_sets</text>
</g>
<!-- /Users/mmoscato/Workspace/Workbench/pvs/dependency&#45;all/Users/mmoscato/pvs/pvs/nasalib/CCG -->
<g id="node2" class="node">
<title>/Users/mmoscato/Workspace/Workbench/pvs/dependency&#45;all/Users/mmoscato/pvs/pvs/nasalib/CCG</title>
<polygon fill="#f7e28d" stroke="#000000" points="207,-350 153,-350 153,-314 207,-314 207,-350"/>
<text text-anchor="middle" x="180" y="-327.8" font-family="Times,serif" font-size="14.00" fill="#000000">CCG</text>
</g>
<!-- /Users/mmoscato/Workspace/Workbench/pvs/dependency&#45;all/Users/mmoscato/pvs/pvs/nasalib/CCG&#45;&gt;/Users/mmoscato/Workspace/Workbench/pvs/dependency&#45;all/Users/mmoscato/pvs/pvs/lib/finite_sets -->
<g id="edge1" class="edge">
<title>/Users/mmoscato/Workspace/Workbench/pvs/dependency&#45;all/Users/mmoscato/pvs/pvs/nasalib/CCG&#45;&gt;/Users/mmoscato/Workspace/Workbench/pvs/dependency&#45;all/Users/mmoscato/pvs/pvs/lib/finite_sets</title>
<path fill="none" stroke="#000000" d="M207.2878,-328C211.8155,-328 215.0713,-328 215.0713,-328 215.0713,-328 215.0713,-62.391 215.0713,-62.391"/>
<polygon fill="#000000" stroke="#000000" points="218.5714,-62.391 215.0713,-52.391 211.5714,-62.3911 218.5714,-62.391"/>
</g>
<!-- /Users/mmoscato/Workspace/Workbench/pvs/dependency&#45;all/Users/mmoscato/pvs/pvs/nasalib/digraphs -->
<g id="node4" class="node">
<title>/Users/mmoscato/Workspace/Workbench/pvs/dependency&#45;all/Users/mmoscato/pvs/pvs/nasalib/digraphs</title>
<polygon fill="#fcfcd7" stroke="#000000" points="212.2142,-278 147.7858,-278 147.7858,-242 212.2142,-242 212.2142,-278"/>
<text text-anchor="middle" x="180" y="-255.8" font-family="Times,serif" font-size="14.00" fill="#000000">digraphs</text>
</g>
<!-- /Users/mmoscato/Workspace/Workbench/pvs/dependency&#45;all/Users/mmoscato/pvs/pvs/nasalib/CCG&#45;&gt;/Users/mmoscato/Workspace/Workbench/pvs/dependency&#45;all/Users/mmoscato/pvs/pvs/nasalib/digraphs -->
<g id="edge2" class="edge">
<title>/Users/mmoscato/Workspace/Workbench/pvs/dependency&#45;all/Users/mmoscato/pvs/pvs/nasalib/CCG&#45;&gt;/Users/mmoscato/Workspace/Workbench/pvs/dependency&#45;all/Users/mmoscato/pvs/pvs/nasalib/digraphs</title>
<path fill="none" stroke="#000000" d="M180,-313.8314C180,-313.8314 180,-288.4133 180,-288.4133"/>
<polygon fill="#000000" stroke="#000000" points="183.5001,-288.4132 180,-278.4133 176.5001,-288.4133 183.5001,-288.4132"/>
</g>
<!-- /Users/mmoscato/Workspace/Workbench/pvs/dependency&#45;all/Users/mmoscato/pvs/pvs/nasalib/ints -->
<g id="node5" class="node">
<title>/Users/mmoscato/Workspace/Workbench/pvs/dependency&#45;all/Users/mmoscato/pvs/pvs/nasalib/ints</title>
<polygon fill="#fcfcd7" stroke="#000000" points="156,-134 102,-134 102,-98 156,-98 156,-134"/>
<text text-anchor="middle" x="129" y="-111.8" font-family="Times,serif" font-size="14.00" fill="#000000">ints</text>
</g>
<!-- /Users/mmoscato/Workspace/Workbench/pvs/dependency&#45;all/Users/mmoscato/pvs/pvs/nasalib/CCG&#45;&gt;/Users/mmoscato/Workspace/Workbench/pvs/dependency&#45;all/Users/mmoscato/pvs/pvs/nasalib/ints -->
<g id="edge3" class="edge">
<title>/Users/mmoscato/Workspace/Workbench/pvs/dependency&#45;all/Users/mmoscato/pvs/pvs/nasalib/CCG&#45;&gt;/Users/mmoscato/Workspace/Workbench/pvs/dependency&#45;all/Users/mmoscato/pvs/pvs/nasalib/ints</title>
<path fill="none" stroke="#000000" d="M207.1128,-321C210.9322,-321 213.5891,-321 213.5891,-321 213.5891,-321 213.5891,-122 213.5891,-122 213.5891,-122 166.2301,-122 166.2301,-122"/>
<polygon fill="#000000" stroke="#000000" points="166.2302,-118.5001 156.2301,-122 166.2301,-125.5001 166.2302,-118.5001"/>
</g>
<!-- /Users/mmoscato/Workspace/Workbench/pvs/dependency&#45;all/Users/mmoscato/pvs/pvs/nasalib/orders -->
<g id="node6" class="node">
<title>/Users/mmoscato/Workspace/Workbench/pvs/dependency&#45;all/Users/mmoscato/pvs/pvs/nasalib/orders</title>
<polygon fill="#fcfcd7" stroke="#000000" points="289,-206 235,-206 235,-170 289,-170 289,-206"/>
<text text-anchor="middle" x="262" y="-183.8" font-family="Times,serif" font-size="14.00" fill="#000000">orders</text>
</g>
<!-- /Users/mmoscato/Workspace/Workbench/pvs/dependency&#45;all/Users/mmoscato/pvs/pvs/nasalib/CCG&#45;&gt;/Users/mmoscato/Workspace/Workbench/pvs/dependency&#45;all/Users/mmoscato/pvs/pvs/nasalib/orders -->
<g id="edge4" class="edge">
<title>/Users/mmoscato/Workspace/Workbench/pvs/dependency&#45;all/Users/mmoscato/pvs/pvs/nasalib/CCG&#45;&gt;/Users/mmoscato/Workspace/Workbench/pvs/dependency&#45;all/Users/mmoscato/pvs/pvs/nasalib/orders</title>
<path fill="none" stroke="#000000" d="M207.3295,-335C212.6179,-335 216.5535,-335 216.5535,-335 216.5535,-335 216.5535,-194 216.5535,-194 216.5535,-194 224.7764,-194 224.7764,-194"/>
<polygon fill="#000000" stroke="#000000" points="224.7765,-197.5001 234.7764,-194 224.7764,-190.5001 224.7765,-197.5001"/>
</g>
<!-- /Users/mmoscato/Workspace/Workbench/pvs/dependency&#45;all/Users/mmoscato/pvs/pvs/nasalib/reals -->
<g id="node7" class="node">
<title>/Users/mmoscato/Workspace/Workbench/pvs/dependency&#45;all/Users/mmoscato/pvs/pvs/nasalib/reals</title>
<polygon fill="#fcfcd7" stroke="#000000" points="90,-278 36,-278 36,-242 90,-242 90,-278"/>
<text text-anchor="middle" x="63" y="-255.8" font-family="Times,serif" font-size="14.00" fill="#000000">reals</text>
</g>
<!-- /Users/mmoscato/Workspace/Workbench/pvs/dependency&#45;all/Users/mmoscato/pvs/pvs/nasalib/CCG&#45;&gt;/Users/mmoscato/Workspace/Workbench/pvs/dependency&#45;all/Users/mmoscato/pvs/pvs/nasalib/reals -->
<g id="edge5" class="edge">
<title>/Users/mmoscato/Workspace/Workbench/pvs/dependency&#45;all/Users/mmoscato/pvs/pvs/nasalib/CCG&#45;&gt;/Users/mmoscato/Workspace/Workbench/pvs/dependency&#45;all/Users/mmoscato/pvs/pvs/nasalib/reals</title>
<path fill="none" stroke="#000000" d="M152.747,-338C120.7529,-338 72,-338 72,-338 72,-338 72,-288.0908 72,-288.0908"/>
<polygon fill="#000000" stroke="#000000" points="75.5001,-288.0908 72,-278.0908 68.5001,-288.0909 75.5001,-288.0908"/>
</g>
<!-- /Users/mmoscato/Workspace/Workbench/pvs/dependency&#45;all/Users/mmoscato/pvs/pvs/nasalib/sets_aux -->
<g id="node8" class="node">
<title>/Users/mmoscato/Workspace/Workbench/pvs/dependency&#45;all/Users/mmoscato/pvs/pvs/nasalib/sets_aux</title>
<polygon fill="#fcfcd7" stroke="#000000" points="294.2142,-278 229.7858,-278 229.7858,-242 294.2142,-242 294.2142,-278"/>
<text text-anchor="middle" x="262" y="-255.8" font-family="Times,serif" font-size="14.00" fill="#000000">sets_aux</text>
</g>
<!-- /Users/mmoscato/Workspace/Workbench/pvs/dependency&#45;all/Users/mmoscato/pvs/pvs/nasalib/CCG&#45;&gt;/Users/mmoscato/Workspace/Workbench/pvs/dependency&#45;all/Users/mmoscato/pvs/pvs/nasalib/sets_aux -->
<g id="edge6" class="edge">
<title>/Users/mmoscato/Workspace/Workbench/pvs/dependency&#45;all/Users/mmoscato/pvs/pvs/nasalib/CCG&#45;&gt;/Users/mmoscato/Workspace/Workbench/pvs/dependency&#45;all/Users/mmoscato/pvs/pvs/nasalib/sets_aux</title>
<path fill="none" stroke="#000000" d="M207.3616,-342C227.468,-342 251.2977,-342 251.2977,-342 251.2977,-342 251.2977,-288.1985 251.2977,-288.1985"/>
<polygon fill="#000000" stroke="#000000" points="254.7978,-288.1984 251.2977,-278.1985 247.7978,-288.1985 254.7978,-288.1984"/>
</g>
<!-- /Users/mmoscato/Workspace/Workbench/pvs/dependency&#45;all/Users/mmoscato/pvs/pvs/nasalib/structures -->
<g id="node9" class="node">
<title>/Users/mmoscato/Workspace/Workbench/pvs/dependency&#45;all/Users/mmoscato/pvs/pvs/nasalib/structures</title>
<polygon fill="#fcfcd7" stroke="#000000" points="164.429,-206 93.571,-206 93.571,-170 164.429,-170 164.429,-206"/>
<text text-anchor="middle" x="129" y="-183.8" font-family="Times,serif" font-size="14.00" fill="#000000">structures</text>
</g>
<!-- /Users/mmoscato/Workspace/Workbench/pvs/dependency&#45;all/Users/mmoscato/pvs/pvs/nasalib/CCG&#45;&gt;/Users/mmoscato/Workspace/Workbench/pvs/dependency&#45;all/Users/mmoscato/pvs/pvs/nasalib/structures -->
<g id="edge7" class="edge">
<title>/Users/mmoscato/Workspace/Workbench/pvs/dependency&#45;all/Users/mmoscato/pvs/pvs/nasalib/CCG&#45;&gt;/Users/mmoscato/Workspace/Workbench/pvs/dependency&#45;all/Users/mmoscato/pvs/pvs/nasalib/structures</title>
<path fill="none" stroke="#000000" d="M152.8741,-326C141.0595,-326 129.8574,-326 129.8574,-326 129.8574,-326 129.8574,-216.0411 129.8574,-216.0411"/>
<polygon fill="#000000" stroke="#000000" points="133.3575,-216.0411 129.8574,-206.0411 126.3575,-216.0411 133.3575,-216.0411"/>
</g>
<!-- /Users/mmoscato/Workspace/Workbench/pvs/dependency&#45;all/Users/mmoscato/pvs/pvs/nasalib/PVS0 -->
<g id="node3" class="node">
<title>/Users/mmoscato/Workspace/Workbench/pvs/dependency&#45;all/Users/mmoscato/pvs/pvs/nasalib/PVS0</title>
<polygon fill="#fcfcd7" stroke="#000000" points="207,-422 153,-422 153,-386 207,-386 207,-422"/>
<text text-anchor="middle" x="180" y="-399.8" font-family="Times,serif" font-size="14.00" fill="#000000">PVS0</text>
</g>
<!-- /Users/mmoscato/Workspace/Workbench/pvs/dependency&#45;all/Users/mmoscato/pvs/pvs/nasalib/PVS0&#45;&gt;/Users/mmoscato/Workspace/Workbench/pvs/dependency&#45;all/Users/mmoscato/pvs/pvs/lib/finite_sets -->
<g id="edge8" class="edge">
<title>/Users/mmoscato/Workspace/Workbench/pvs/dependency&#45;all/Users/mmoscato/pvs/pvs/nasalib/PVS0&#45;&gt;/Users/mmoscato/Workspace/Workbench/pvs/dependency&#45;all/Users/mmoscato/pvs/pvs/lib/finite_sets</title>
<path fill="none" stroke="#000000" d="M207.1193,-404C214.7439,-404 221,-404 221,-404 221,-404 221,-62.0963 221,-62.0963"/>
<polygon fill="#000000" stroke="#000000" points="224.5001,-62.0963 221,-52.0963 217.5001,-62.0964 224.5001,-62.0963"/>
</g>
<!-- /Users/mmoscato/Workspace/Workbench/pvs/dependency&#45;all/Users/mmoscato/pvs/pvs/nasalib/PVS0&#45;&gt;/Users/mmoscato/Workspace/Workbench/pvs/dependency&#45;all/Users/mmoscato/pvs/pvs/nasalib/CCG -->
<g id="edge9" class="edge">
<title>/Users/mmoscato/Workspace/Workbench/pvs/dependency&#45;all/Users/mmoscato/pvs/pvs/nasalib/PVS0&#45;&gt;/Users/mmoscato/Workspace/Workbench/pvs/dependency&#45;all/Users/mmoscato/pvs/pvs/nasalib/CCG</title>
<path fill="none" stroke="#000000" d="M180,-385.8314C180,-385.8314 180,-360.4133 180,-360.4133"/>
<polygon fill="#000000" stroke="#000000" points="183.5001,-360.4132 180,-350.4133 176.5001,-360.4133 183.5001,-360.4132"/>
</g>
<!-- /Users/mmoscato/Workspace/Workbench/pvs/dependency&#45;all/Users/mmoscato/pvs/pvs/nasalib/PVS0&#45;&gt;/Users/mmoscato/Workspace/Workbench/pvs/dependency&#45;all/Users/mmoscato/pvs/pvs/nasalib/digraphs -->
<g id="edge10" class="edge">
<title>/Users/mmoscato/Workspace/Workbench/pvs/dependency&#45;all/Users/mmoscato/pvs/pvs/nasalib/PVS0&#45;&gt;/Users/mmoscato/Workspace/Workbench/pvs/dependency&#45;all/Users/mmoscato/pvs/pvs/nasalib/digraphs</title>
<path fill="none" stroke="#000000" d="M207.2379,-392C213.3346,-392 218.0356,-392 218.0356,-392 218.0356,-392 218.0356,-270 218.0356,-270 218.0356,-270 217.4744,-270 217.4744,-270"/>
<polygon fill="#000000" stroke="#000000" points="222.4234,-266.5002 212.4234,-270 222.4233,-273.5002 222.4234,-266.5002"/>
</g>
<!-- /Users/mmoscato/Workspace/Workbench/pvs/dependency&#45;all/Users/mmoscato/pvs/pvs/nasalib/PVS0&#45;&gt;/Users/mmoscato/Workspace/Workbench/pvs/dependency&#45;all/Users/mmoscato/pvs/pvs/nasalib/ints -->
<g id="edge11" class="edge">
<title>/Users/mmoscato/Workspace/Workbench/pvs/dependency&#45;all/Users/mmoscato/pvs/pvs/nasalib/PVS0&#45;&gt;/Users/mmoscato/Workspace/Workbench/pvs/dependency&#45;all/Users/mmoscato/pvs/pvs/nasalib/ints</title>
<path fill="none" stroke="#000000" d="M207.0141,-398C213.9606,-398 219.5178,-398 219.5178,-398 219.5178,-398 219.5178,-116 219.5178,-116 219.5178,-116 166.1583,-116 166.1583,-116"/>
<polygon fill="#000000" stroke="#000000" points="166.1584,-112.5001 156.1583,-116 166.1583,-119.5001 166.1584,-112.5001"/>
</g>
<!-- /Users/mmoscato/Workspace/Workbench/pvs/dependency&#45;all/Users/mmoscato/pvs/pvs/nasalib/PVS0&#45;&gt;/Users/mmoscato/Workspace/Workbench/pvs/dependency&#45;all/Users/mmoscato/pvs/pvs/nasalib/orders -->
<g id="edge12" class="edge">
<title>/Users/mmoscato/Workspace/Workbench/pvs/dependency&#45;all/Users/mmoscato/pvs/pvs/nasalib/PVS0&#45;&gt;/Users/mmoscato/Workspace/Workbench/pvs/dependency&#45;all/Users/mmoscato/pvs/pvs/nasalib/orders</title>
<path fill="none" stroke="#000000" d="M207.1451,-410C215.471,-410 222.4822,-410 222.4822,-410 222.4822,-410 222.4822,-200 222.4822,-200 222.4822,-200 224.9859,-200 224.9859,-200"/>
<polygon fill="#000000" stroke="#000000" points="224.9859,-203.5001 234.9859,-200 224.9858,-196.5001 224.9859,-203.5001"/>
</g>
<!-- /Users/mmoscato/Workspace/Workbench/pvs/dependency&#45;all/Users/mmoscato/pvs/pvs/nasalib/PVS0&#45;&gt;/Users/mmoscato/Workspace/Workbench/pvs/dependency&#45;all/Users/mmoscato/pvs/pvs/nasalib/reals -->
<g id="edge13" class="edge">
<title>/Users/mmoscato/Workspace/Workbench/pvs/dependency&#45;all/Users/mmoscato/pvs/pvs/nasalib/PVS0&#45;&gt;/Users/mmoscato/Workspace/Workbench/pvs/dependency&#45;all/Users/mmoscato/pvs/pvs/nasalib/reals</title>
<path fill="none" stroke="#000000" d="M152.9698,-410C115.9469,-410 54,-410 54,-410 54,-410 54,-288.0935 54,-288.0935"/>
<polygon fill="#000000" stroke="#000000" points="57.5001,-288.0935 54,-278.0935 50.5001,-288.0935 57.5001,-288.0935"/>
</g>
<!-- /Users/mmoscato/Workspace/Workbench/pvs/dependency&#45;all/Users/mmoscato/pvs/pvs/nasalib/PVS0&#45;&gt;/Users/mmoscato/Workspace/Workbench/pvs/dependency&#45;all/Users/mmoscato/pvs/pvs/nasalib/sets_aux -->
<g id="edge14" class="edge">
<title>/Users/mmoscato/Workspace/Workbench/pvs/dependency&#45;all/Users/mmoscato/pvs/pvs/nasalib/PVS0&#45;&gt;/Users/mmoscato/Workspace/Workbench/pvs/dependency&#45;all/Users/mmoscato/pvs/pvs/nasalib/sets_aux</title>
<path fill="none" stroke="#000000" d="M207.3124,-416C234.6572,-416 272.7023,-416 272.7023,-416 272.7023,-416 272.7023,-288.2005 272.7023,-288.2005"/>
<polygon fill="#000000" stroke="#000000" points="276.2024,-288.2005 272.7023,-278.2005 269.2024,-288.2005 276.2024,-288.2005"/>
</g>
<!-- /Users/mmoscato/Workspace/Workbench/pvs/dependency&#45;all/Users/mmoscato/pvs/pvs/nasalib/PVS0&#45;&gt;/Users/mmoscato/Workspace/Workbench/pvs/dependency&#45;all/Users/mmoscato/pvs/pvs/nasalib/structures -->
<g id="edge15" class="edge">
<title>/Users/mmoscato/Workspace/Workbench/pvs/dependency&#45;all/Users/mmoscato/pvs/pvs/nasalib/PVS0&#45;&gt;/Users/mmoscato/Workspace/Workbench/pvs/dependency&#45;all/Users/mmoscato/pvs/pvs/nasalib/structures</title>
<path fill="none" stroke="#000000" d="M152.6621,-398C133.6944,-398 111.8218,-398 111.8218,-398 111.8218,-398 111.8218,-216.2688 111.8218,-216.2688"/>
<polygon fill="#000000" stroke="#000000" points="115.3219,-216.2687 111.8218,-206.2688 108.3219,-216.2688 115.3219,-216.2687"/>
</g>
<!-- /Users/mmoscato/Workspace/Workbench/pvs/dependency&#45;all/Users/mmoscato/pvs/pvs/nasalib/digraphs&#45;&gt;/Users/mmoscato/Workspace/Workbench/pvs/dependency&#45;all/Users/mmoscato/pvs/pvs/lib/finite_sets -->
<g id="edge16" class="edge">
<title>/Users/mmoscato/Workspace/Workbench/pvs/dependency&#45;all/Users/mmoscato/pvs/pvs/nasalib/digraphs&#45;&gt;/Users/mmoscato/Workspace/Workbench/pvs/dependency&#45;all/Users/mmoscato/pvs/pvs/lib/finite_sets</title>
<path fill="none" stroke="#000000" d="M193.9083,-241.8875C193.9083,-241.8875 193.9083,-62.1988 193.9083,-62.1988"/>
<polygon fill="#000000" stroke="#000000" points="197.4084,-62.1987 193.9083,-52.1988 190.4084,-62.1988 197.4084,-62.1987"/>
</g>
<!-- /Users/mmoscato/Workspace/Workbench/pvs/dependency&#45;all/Users/mmoscato/pvs/pvs/nasalib/digraphs&#45;&gt;/Users/mmoscato/Workspace/Workbench/pvs/dependency&#45;all/Users/mmoscato/pvs/pvs/nasalib/ints -->
<g id="edge17" class="edge">
<title>/Users/mmoscato/Workspace/Workbench/pvs/dependency&#45;all/Users/mmoscato/pvs/pvs/nasalib/digraphs&#45;&gt;/Users/mmoscato/Workspace/Workbench/pvs/dependency&#45;all/Users/mmoscato/pvs/pvs/nasalib/ints</title>
<path fill="none" stroke="#000000" d="M175.7097,-241.9227C175.7097,-205.7713 175.7097,-128 175.7097,-128 175.7097,-128 166.1712,-128 166.1712,-128"/>
<polygon fill="#000000" stroke="#000000" points="166.1712,-124.5001 156.1712,-128 166.1712,-131.5001 166.1712,-124.5001"/>
</g>
<!-- /Users/mmoscato/Workspace/Workbench/pvs/dependency&#45;all/Users/mmoscato/pvs/pvs/nasalib/digraphs&#45;&gt;/Users/mmoscato/Workspace/Workbench/pvs/dependency&#45;all/Users/mmoscato/pvs/pvs/nasalib/orders -->
<g id="edge18" class="edge">
<title>/Users/mmoscato/Workspace/Workbench/pvs/dependency&#45;all/Users/mmoscato/pvs/pvs/nasalib/digraphs&#45;&gt;/Users/mmoscato/Workspace/Workbench/pvs/dependency&#45;all/Users/mmoscato/pvs/pvs/nasalib/orders</title>
<path fill="none" stroke="#000000" d="M203.0076,-241.9092C203.0076,-218.8672 203.0076,-182 203.0076,-182 203.0076,-182 224.921,-182 224.921,-182"/>
<polygon fill="#000000" stroke="#000000" points="224.921,-185.5001 234.921,-182 224.921,-178.5001 224.921,-185.5001"/>
</g>
<!-- /Users/mmoscato/Workspace/Workbench/pvs/dependency&#45;all/Users/mmoscato/pvs/pvs/nasalib/digraphs&#45;&gt;/Users/mmoscato/Workspace/Workbench/pvs/dependency&#45;all/Users/mmoscato/pvs/pvs/nasalib/structures -->
<g id="edge19" class="edge">
<title>/Users/mmoscato/Workspace/Workbench/pvs/dependency&#45;all/Users/mmoscato/pvs/pvs/nasalib/digraphs&#45;&gt;/Users/mmoscato/Workspace/Workbench/pvs/dependency&#45;all/Users/mmoscato/pvs/pvs/nasalib/structures</title>
<path fill="none" stroke="#000000" d="M156.0535,-241.8314C156.0535,-241.8314 156.0535,-216.4133 156.0535,-216.4133"/>
<polygon fill="#000000" stroke="#000000" points="159.5536,-216.4132 156.0535,-206.4133 152.5536,-216.4133 159.5536,-216.4132"/>
</g>
<!-- /Users/mmoscato/Workspace/Workbench/pvs/dependency&#45;all/Users/mmoscato/pvs/pvs/nasalib/ints&#45;&gt;/Users/mmoscato/Workspace/Workbench/pvs/dependency&#45;all/Users/mmoscato/pvs/pvs/lib/finite_sets -->
<g id="edge20" class="edge">
<title>/Users/mmoscato/Workspace/Workbench/pvs/dependency&#45;all/Users/mmoscato/pvs/pvs/nasalib/ints&#45;&gt;/Users/mmoscato/Workspace/Workbench/pvs/dependency&#45;all/Users/mmoscato/pvs/pvs/lib/finite_sets</title>
<path fill="none" stroke="#000000" d="M156.2505,-104C170.4173,-104 184.809,-104 184.809,-104 184.809,-104 184.809,-62.0267 184.809,-62.0267"/>
<polygon fill="#000000" stroke="#000000" points="188.3091,-62.0267 184.809,-52.0267 181.3091,-62.0268 188.3091,-62.0267"/>
</g>
<!-- /Users/mmoscato/Workspace/Workbench/pvs/dependency&#45;all/Users/mmoscato/pvs/pvs/nasalib/orders&#45;&gt;/Users/mmoscato/Workspace/Workbench/pvs/dependency&#45;all/Users/mmoscato/pvs/pvs/lib/finite_sets -->
<g id="edge21" class="edge">
<title>/Users/mmoscato/Workspace/Workbench/pvs/dependency&#45;all/Users/mmoscato/pvs/pvs/nasalib/orders&#45;&gt;/Users/mmoscato/Workspace/Workbench/pvs/dependency&#45;all/Users/mmoscato/pvs/pvs/lib/finite_sets</title>
<path fill="none" stroke="#000000" d="M234.8872,-176C231.0678,-176 228.4109,-176 228.4109,-176 228.4109,-176 228.4109,-62.2733 228.4109,-62.2733"/>
<polygon fill="#000000" stroke="#000000" points="231.911,-62.2733 228.4109,-52.2733 224.911,-62.2733 231.911,-62.2733"/>
</g>
<!-- /Users/mmoscato/Workspace/Workbench/pvs/dependency&#45;all/Users/mmoscato/pvs/pvs/nasalib/reals&#45;&gt;/Users/mmoscato/Workspace/Workbench/pvs/dependency&#45;all/Users/mmoscato/pvs/pvs/nasalib/ints -->
<g id="edge22" class="edge">
<title>/Users/mmoscato/Workspace/Workbench/pvs/dependency&#45;all/Users/mmoscato/pvs/pvs/nasalib/reals&#45;&gt;/Users/mmoscato/Workspace/Workbench/pvs/dependency&#45;all/Users/mmoscato/pvs/pvs/nasalib/ints</title>
<path fill="none" stroke="#000000" d="M54,-241.7623C54,-203.0139 54,-116 54,-116 54,-116 91.9233,-116 91.9233,-116"/>
<polygon fill="#000000" stroke="#000000" points="91.9233,-119.5001 101.9233,-116 91.9232,-112.5001 91.9233,-119.5001"/>
</g>
<!-- /Users/mmoscato/Workspace/Workbench/pvs/dependency&#45;all/Users/mmoscato/pvs/pvs/nasalib/reals&#45;&gt;/Users/mmoscato/Workspace/Workbench/pvs/dependency&#45;all/Users/mmoscato/pvs/pvs/nasalib/structures -->
<g id="edge23" class="edge">
<title>/Users/mmoscato/Workspace/Workbench/pvs/dependency&#45;all/Users/mmoscato/pvs/pvs/nasalib/reals&#45;&gt;/Users/mmoscato/Workspace/Workbench/pvs/dependency&#45;all/Users/mmoscato/pvs/pvs/nasalib/structures</title>
<path fill="none" stroke="#000000" d="M72,-241.8314C72,-220.502 72,-188 72,-188 72,-188 83.5493,-188 83.5493,-188"/>
<polygon fill="#000000" stroke="#000000" points="83.5493,-191.5001 93.5493,-188 83.5492,-184.5001 83.5493,-191.5001"/>
</g>
<!-- /Users/mmoscato/Workspace/Workbench/pvs/dependency&#45;all/Users/mmoscato/pvs/pvs/nasalib/sets_aux&#45;&gt;/Users/mmoscato/Workspace/Workbench/pvs/dependency&#45;all/Users/mmoscato/pvs/pvs/lib/finite_sets -->
<g id="edge24" class="edge">
<title>/Users/mmoscato/Workspace/Workbench/pvs/dependency&#45;all/Users/mmoscato/pvs/pvs/nasalib/sets_aux&#45;&gt;/Users/mmoscato/Workspace/Workbench/pvs/dependency&#45;all/Users/mmoscato/pvs/pvs/lib/finite_sets</title>
<path fill="none" stroke="#000000" d="M229.6807,-249C227.9648,-249 226.9287,-249 226.9287,-249 226.9287,-249 226.9287,-62.3308 226.9287,-62.3308"/>
<polygon fill="#000000" stroke="#000000" points="230.4288,-62.3307 226.9287,-52.3308 223.4288,-62.3308 230.4288,-62.3307"/>
</g>
<!-- /Users/mmoscato/Workspace/Workbench/pvs/dependency&#45;all/Users/mmoscato/pvs/pvs/nasalib/sets_aux&#45;&gt;/Users/mmoscato/Workspace/Workbench/pvs/dependency&#45;all/Users/mmoscato/pvs/pvs/nasalib/ints -->
<g id="edge25" class="edge">
<title>/Users/mmoscato/Workspace/Workbench/pvs/dependency&#45;all/Users/mmoscato/pvs/pvs/nasalib/sets_aux&#45;&gt;/Users/mmoscato/Workspace/Workbench/pvs/dependency&#45;all/Users/mmoscato/pvs/pvs/nasalib/ints</title>
<path fill="none" stroke="#000000" d="M229.6397,-256C227.073,-256 225.4465,-256 225.4465,-256 225.4465,-256 225.4465,-110 225.4465,-110 225.4465,-110 166.1224,-110 166.1224,-110"/>
<polygon fill="#000000" stroke="#000000" points="166.1224,-106.5001 156.1224,-110 166.1224,-113.5001 166.1224,-106.5001"/>
</g>
<!-- /Users/mmoscato/Workspace/Workbench/pvs/dependency&#45;all/Users/mmoscato/pvs/pvs/nasalib/sets_aux&#45;&gt;/Users/mmoscato/Workspace/Workbench/pvs/dependency&#45;all/Users/mmoscato/pvs/pvs/nasalib/orders -->
<g id="edge26" class="edge">
<title>/Users/mmoscato/Workspace/Workbench/pvs/dependency&#45;all/Users/mmoscato/pvs/pvs/nasalib/sets_aux&#45;&gt;/Users/mmoscato/Workspace/Workbench/pvs/dependency&#45;all/Users/mmoscato/pvs/pvs/nasalib/orders</title>
<path fill="none" stroke="#000000" d="M262,-241.8314C262,-241.8314 262,-216.4133 262,-216.4133"/>
<polygon fill="#000000" stroke="#000000" points="265.5001,-216.4132 262,-206.4133 258.5001,-216.4133 265.5001,-216.4132"/>
</g>
<!-- /Users/mmoscato/Workspace/Workbench/pvs/dependency&#45;all/Users/mmoscato/pvs/pvs/nasalib/sets_aux&#45;&gt;/Users/mmoscato/Workspace/Workbench/pvs/dependency&#45;all/Users/mmoscato/pvs/pvs/nasalib/structures -->
<g id="edge27" class="edge">
<title>/Users/mmoscato/Workspace/Workbench/pvs/dependency&#45;all/Users/mmoscato/pvs/pvs/nasalib/sets_aux&#45;&gt;/Users/mmoscato/Workspace/Workbench/pvs/dependency&#45;all/Users/mmoscato/pvs/pvs/nasalib/structures</title>
<path fill="none" stroke="#000000" d="M229.5766,-263C226.1953,-263 223.9644,-263 223.9644,-263 223.9644,-263 223.9644,-188 223.9644,-188 223.9644,-188 174.3612,-188 174.3612,-188"/>
<polygon fill="#000000" stroke="#000000" points="174.3613,-184.5001 164.3612,-188 174.3612,-191.5001 174.3613,-184.5001"/>
</g>
<!-- /Users/mmoscato/Workspace/Workbench/pvs/dependency&#45;all/Users/mmoscato/pvs/pvs/nasalib/structures&#45;&gt;/Users/mmoscato/Workspace/Workbench/pvs/dependency&#45;all/Users/mmoscato/pvs/pvs/lib/finite_sets -->
<g id="edge28" class="edge">
<title>/Users/mmoscato/Workspace/Workbench/pvs/dependency&#45;all/Users/mmoscato/pvs/pvs/nasalib/structures&#45;&gt;/Users/mmoscato/Workspace/Workbench/pvs/dependency&#45;all/Users/mmoscato/pvs/pvs/lib/finite_sets</title>
<path fill="none" stroke="#000000" d="M160.1069,-169.7294C160.1069,-128.9364 160.1069,-34 160.1069,-34 160.1069,-34 160.7398,-34 160.7398,-34"/>
<polygon fill="#000000" stroke="#000000" points="156.436,-37.5002 166.436,-34 156.4359,-30.5002 156.436,-37.5002"/>
</g>
<!-- /Users/mmoscato/Workspace/Workbench/pvs/dependency&#45;all/Users/mmoscato/pvs/pvs/nasalib/structures&#45;&gt;/Users/mmoscato/Workspace/Workbench/pvs/dependency&#45;all/Users/mmoscato/pvs/pvs/nasalib/ints -->
<g id="edge29" class="edge">
<title>/Users/mmoscato/Workspace/Workbench/pvs/dependency&#45;all/Users/mmoscato/pvs/pvs/nasalib/structures&#45;&gt;/Users/mmoscato/Workspace/Workbench/pvs/dependency&#45;all/Users/mmoscato/pvs/pvs/nasalib/ints</title>
<path fill="none" stroke="#000000" d="M129,-169.8314C129,-169.8314 129,-144.4133 129,-144.4133"/>
<polygon fill="#000000" stroke="#000000" points="132.5001,-144.4132 129,-134.4133 125.5001,-144.4133 132.5001,-144.4132"/>
</g>
</g>
</svg>
