<?xml version="1.0" encoding="UTF-8" standalone="no"?>
<!DOCTYPE svg PUBLIC "-//W3C//DTD SVG 1.1//EN"
 "http://www.w3.org/Graphics/SVG/1.1/DTD/svg11.dtd">
<!-- Generated by graphviz version 7.0.6 (20230106.0513)
 -->
<!-- Title: CCG Pages: 1 -->
<svg width="849pt" height="966pt"
 viewBox="0.00 0.00 849.00 966.00" xmlns="http://www.w3.org/2000/svg" xmlns:xlink="http://www.w3.org/1999/xlink">
<g id="graph0" class="graph" transform="scale(1 1) rotate(0) translate(4 962)">
<title>CCG</title>
<polygon fill="white" stroke="none" points="-4,4 -4,-962 845,-962 845,4 -4,4"/>
<g id="clust1" class="cluster">
<title>cluster_NASALib</title>
<polygon fill="none" stroke="black" points="8,-8 8,-950 737,-950 737,-8 8,-8"/>
<text text-anchor="middle" x="372.5" y="-934.8" font-family="Times,serif" font-size="14.00">NASALib</text>
</g>
<g id="clust2" class="cluster">
<title>cluster_PVS Prelude</title>
<polygon fill="none" stroke="black" points="745,-8 745,-83 833,-83 833,-8 745,-8"/>
<text text-anchor="middle" x="789" y="-67.8" font-family="Times,serif" font-size="14.00">PVS Prelude</text>
</g>
<!-- NASALib/CCG -->
<g id="node1" class="node">
<title>NASALib/CCG</title>
<polygon fill="#f7e28d" stroke="black" points="709,-847 655,-847 655,-811 709,-811 709,-847"/>
<text text-anchor="middle" x="682" y="-825.3" font-family="Times,serif" font-size="14.00">CCG</text>
</g>
<!-- NASALib/digraphs -->
<g id="node4" class="node">
<title>NASALib/digraphs</title>
<polygon fill="#fcfcd7" stroke="black" points="119.5,-271 56.5,-271 56.5,-235 119.5,-235 119.5,-271"/>
<text text-anchor="middle" x="88" y="-249.3" font-family="Times,serif" font-size="14.00">digraphs</text>
</g>
<!-- NASALib/CCG&#45;&gt;NASALib/digraphs -->
<g id="edge1" class="edge">
<title>NASALib/CCG&#45;&gt;NASALib/digraphs</title>
<path fill="none" stroke="black" d="M108,-324C108,-324 101.62,-301.66 96.06,-282.22"/>
<polygon fill="black" stroke="black" points="99.47,-281.41 93.36,-272.76 92.74,-283.34 99.47,-281.41"/>
</g>
<!-- NASALib/ints -->
<g id="node6" class="node">
<title>NASALib/ints</title>
<polygon fill="#fcfcd7" stroke="black" points="457,-52 403,-52 403,-16 457,-16 457,-52"/>
<text text-anchor="middle" x="430" y="-30.3" font-family="Times,serif" font-size="14.00">ints</text>
</g>
<!-- NASALib/CCG&#45;&gt;NASALib/ints -->
<g id="edge2" class="edge">
<title>NASALib/CCG&#45;&gt;NASALib/ints</title>
<path fill="none" stroke="black" d="M654.68,-822.77C584.8,-809.4 405,-775 405,-775 405,-775 108,-686 108,-686 108,-686 108,-686 108,-468 108,-468 108,-326 108,-326"/>
<path fill="none" stroke="black" d="M108,-324C108,-324 93,-307 93,-307 93,-307 47,-271 47,-271 47,-271 47,-235 47,-235 47,-235 88,-182 88,-182"/>
<path fill="none" stroke="black" d="M179,-108C179,-108 321.32,-66.61 391.63,-46.16"/>
<polygon fill="black" stroke="black" points="392.58,-49.53 401.21,-43.37 390.63,-42.81 392.58,-49.53"/>
<path fill="none" stroke="black" d="M88,-180C88,-180 103,-163 103,-163 103,-163 179,-110 179,-110"/>
</g>
<!-- NASALib/orders -->
<g id="node11" class="node">
<title>NASALib/orders</title>
<polygon fill="#fcfcd7" stroke="black" points="563,-199 509,-199 509,-163 563,-163 563,-199"/>
<text text-anchor="middle" x="536" y="-177.3" font-family="Times,serif" font-size="14.00">orders</text>
</g>
<!-- NASALib/CCG&#45;&gt;NASALib/orders -->
<g id="edge3" class="edge">
<title>NASALib/CCG&#45;&gt;NASALib/orders</title>
<path fill="none" stroke="black" d="M693.37,-810.7C706.99,-789.97 728,-758 728,-758"/>
<path fill="none" stroke="black" d="M728,-756C728,-756 728,-470 728,-470"/>
</g>
<!-- NASALib/reals -->
<g id="node13" class="node">
<title>NASALib/reals</title>
<polygon fill="#fcfcd7" stroke="black" points="468,-775 414,-775 414,-739 468,-739 468,-775"/>
<text text-anchor="middle" x="441" y="-753.3" font-family="Times,serif" font-size="14.00">reals</text>
</g>
<!-- NASALib/CCG&#45;&gt;NASALib/reals -->
<g id="edge4" class="edge">
<title>NASALib/CCG&#45;&gt;NASALib/reals</title>
<path fill="none" stroke="black" d="M654.82,-820.11C611.88,-807.63 528.2,-783.33 479.23,-769.1"/>
<polygon fill="black" stroke="black" points="480.48,-765.82 469.9,-766.39 478.53,-772.54 480.48,-765.82"/>
</g>
<!-- NASALib/sets_aux -->
<g id="node15" class="node">
<title>NASALib/sets_aux</title>
<polygon fill="#fcfcd7" stroke="black" points="624.5,-415 561.5,-415 561.5,-379 624.5,-379 624.5,-415"/>
<text text-anchor="middle" x="593" y="-393.3" font-family="Times,serif" font-size="14.00">sets_aux</text>
</g>
<!-- NASALib/CCG&#45;&gt;NASALib/sets_aux -->
<g id="edge5" class="edge">
<title>NASALib/CCG&#45;&gt;NASALib/sets_aux</title>
<path fill="none" stroke="black" d="M708,-756C708,-756 708,-686 708,-686"/>
<path fill="none" stroke="black" d="M688.43,-810.7C696.13,-789.97 708,-758 708,-758"/>
</g>
<!-- NASALib/structures -->
<g id="node17" class="node">
<title>NASALib/structures</title>
<polygon fill="#fcfcd7" stroke="black" points="464.5,-127 395.5,-127 395.5,-91 464.5,-91 464.5,-127"/>
<text text-anchor="middle" x="430" y="-105.3" font-family="Times,serif" font-size="14.00">structures</text>
</g>
<!-- NASALib/CCG&#45;&gt;NASALib/structures -->
<g id="edge6" class="edge">
<title>NASALib/CCG&#45;&gt;NASALib/structures</title>
<path fill="none" stroke="black" d="M302,-180C302,-180 350.97,-153.22 388.34,-132.79"/>
<polygon fill="black" stroke="black" points="389.61,-136.08 396.7,-128.21 386.25,-129.94 389.61,-136.08"/>
<path fill="none" stroke="black" d="M108,-324C108,-324 302,-182 302,-182"/>
</g>
<!-- lib/finite_sets -->
<g id="node21" class="node">
<title>lib/finite_sets</title>
<polygon fill="#fcfcd7" stroke="black" points="825,-52 753,-52 753,-16 825,-16 825,-52"/>
<text text-anchor="middle" x="789" y="-30.3" font-family="Times,serif" font-size="14.00">finite_sets</text>
</g>
<!-- NASALib/CCG&#45;&gt;lib/finite_sets -->
<g id="edge7" class="edge">
<title>NASALib/CCG&#45;&gt;lib/finite_sets</title>
<path fill="none" stroke="black" d="M757,-756C757,-756 757,-542 757,-542"/>
<path fill="none" stroke="black" d="M700.54,-810.7C722.75,-789.97 757,-758 757,-758"/>
</g>
<!-- NASALib/PVS0 -->
<g id="node2" class="node">
<title>NASALib/PVS0</title>
<polygon fill="#fcfcd7" stroke="black" points="709,-919 655,-919 655,-883 709,-883 709,-919"/>
<text text-anchor="middle" x="682" y="-897.3" font-family="Times,serif" font-size="14.00">PVS0</text>
</g>
<!-- NASALib/PVS0&#45;&gt;NASALib/CCG -->
<g id="edge8" class="edge">
<title>NASALib/PVS0&#45;&gt;NASALib/CCG</title>
<path fill="none" stroke="black" d="M682,-882.7C682,-875.41 682,-866.73 682,-858.54"/>
<polygon fill="black" stroke="black" points="685.5,-858.62 682,-848.62 678.5,-858.62 685.5,-858.62"/>
</g>
<!-- NASALib/PVS0&#45;&gt;NASALib/digraphs -->
<g id="edge9" class="edge">
<title>NASALib/PVS0&#45;&gt;NASALib/digraphs</title>
<path fill="none" stroke="black" d="M88,-324C88,-324 88,-302.08 88,-282.77"/>
<polygon fill="black" stroke="black" points="91.5,-282.82 88,-272.82 84.5,-282.82 91.5,-282.82"/>
</g>
<!-- NASALib/PVS0&#45;&gt;NASALib/orders -->
<g id="edge10" class="edge">
<title>NASALib/PVS0&#45;&gt;NASALib/orders</title>
<path fill="none" stroke="black" d="M728,-828C728,-828 728,-758 728,-758"/>
</g>
<!-- NASALib/PVS0&#45;&gt;NASALib/sets_aux -->
<g id="edge11" class="edge">
<title>NASALib/PVS0&#45;&gt;NASALib/sets_aux</title>
<path fill="none" stroke="black" d="M728,-828C728,-828 708,-758 708,-758"/>
<path fill="none" stroke="black" d="M693.79,-882.65C704.29,-867.19 718,-847 718,-847 718,-847 728,-830 728,-830"/>
</g>
<!-- NASALib/PVS0&#45;&gt;NASALib/structures -->
<g id="edge12" class="edge">
<title>NASALib/PVS0&#45;&gt;NASALib/structures</title>
<path fill="none" stroke="black" d="M108,-180C108,-180 295.2,-139.3 384.13,-119.97"/>
<polygon fill="black" stroke="black" points="384.73,-123.42 393.76,-117.88 383.24,-116.58 384.73,-123.42"/>
<path fill="none" stroke="black" d="M654.54,-893.44C537.72,-865.51 88,-758 88,-758 88,-758 88,-758 88,-468 88,-468 88,-326 88,-326"/>
<path fill="none" stroke="black" d="M88,-324C88,-324 47,-271 47,-271 47,-271 47,-235 47,-235 47,-235 93,-199 93,-199 93,-199 108,-182 108,-182"/>
</g>
<!-- NASALib/PVS0&#45;&gt;lib/finite_sets -->
<g id="edge13" class="edge">
<title>NASALib/PVS0&#45;&gt;lib/finite_sets</title>
<path fill="none" stroke="black" d="M728,-828C728,-828 757,-758 757,-758"/>
</g>
<!-- NASALib/analysis -->
<g id="node3" class="node">
<title>NASALib/analysis</title>
<polygon fill="#fcfcd7" stroke="black" points="463,-271 403,-271 403,-235 463,-235 463,-271"/>
<text text-anchor="middle" x="433" y="-249.3" font-family="Times,serif" font-size="14.00">analysis</text>
</g>
<!-- NASALib/analysis&#45;&gt;NASALib/ints -->
<g id="edge14" class="edge">
<title>NASALib/analysis&#45;&gt;NASALib/ints</title>
<path fill="none" stroke="black" d="M439.62,-234.59C454.04,-196.67 487,-110 487,-110"/>
</g>
<!-- NASALib/analysis&#45;&gt;NASALib/orders -->
<g id="edge15" class="edge">
<title>NASALib/analysis&#45;&gt;NASALib/orders</title>
<path fill="none" stroke="black" d="M458.73,-234.52C471.6,-225.76 487.38,-215.04 501.31,-205.58"/>
<polygon fill="black" stroke="black" points="503.05,-208.63 509.35,-200.11 499.11,-202.84 503.05,-208.63"/>
</g>
<!-- NASALib/analysis&#45;&gt;NASALib/reals -->
<g id="edge16" class="edge">
<title>NASALib/analysis&#45;&gt;NASALib/reals</title>
<path fill="none" stroke="black" d="M402.72,-264.09C356.59,-279.47 274,-307 274,-307 274,-307 178,-379 178,-379 178,-379 159.51,-433.87 151.56,-457.44"/>
<polygon fill="black" stroke="black" points="148.36,-455.97 148.48,-466.57 154.99,-458.21 148.36,-455.97"/>
<path fill="none" stroke="black" d="M216,-542C216,-542 231,-631 231,-631 231,-631 256,-684 256,-684"/>
<path fill="none" stroke="black" d="M148,-470C148,-470 158,-487 158,-487 158,-487 216,-540 216,-540"/>
<path fill="none" stroke="black" d="M256,-686C256,-686 362.24,-726.2 413.7,-745.67"/>
</g>
<!-- NASALib/analysis&#45;&gt;NASALib/structures -->
<g id="edge17" class="edge">
<title>NASALib/analysis&#45;&gt;NASALib/structures</title>
<path fill="none" stroke="black" d="M402.62,-235.76C363.92,-215.09 302,-182 302,-182"/>
</g>
<!-- NASALib/analysis&#45;&gt;lib/finite_sets -->
<g id="edge18" class="edge">
<title>NASALib/analysis&#45;&gt;lib/finite_sets</title>
<path fill="none" stroke="black" d="M463.08,-240.38C470.81,-237.39 477,-235 477,-235 477,-235 597,-199 597,-199 597,-199 611,-182 611,-182"/>
<path fill="none" stroke="black" d="M611,-180C611,-180 611,-110 611,-110"/>
</g>
<!-- NASALib/digraphs&#45;&gt;NASALib/ints -->
<g id="edge19" class="edge">
<title>NASALib/digraphs&#45;&gt;NASALib/ints</title>
<path fill="none" stroke="black" d="M88,-234.7C88,-213.97 88,-182 88,-182"/>
</g>
<!-- NASALib/digraphs&#45;&gt;NASALib/orders -->
<g id="edge20" class="edge">
<title>NASALib/digraphs&#45;&gt;NASALib/orders</title>
<path fill="none" stroke="black" d="M119.86,-247.02C200.13,-234.48 410.45,-201.62 497.46,-188.02"/>
<polygon fill="black" stroke="black" points="497.82,-191.51 507.16,-186.51 496.74,-184.59 497.82,-191.51"/>
</g>
<!-- NASALib/digraphs&#45;&gt;NASALib/structures -->
<g id="edge21" class="edge">
<title>NASALib/digraphs&#45;&gt;NASALib/structures</title>
<path fill="none" stroke="black" d="M92.94,-234.7C98.87,-213.97 108,-182 108,-182"/>
</g>
<!-- NASALib/digraphs&#45;&gt;lib/finite_sets -->
<g id="edge22" class="edge">
<title>NASALib/digraphs&#45;&gt;lib/finite_sets</title>
<path fill="none" stroke="black" d="M119.84,-248.68C231.27,-237.08 597,-199 597,-199 597,-199 611,-182 611,-182"/>
</g>
<!-- NASALib/extended_nnreal -->
<g id="node5" class="node">
<title>NASALib/extended_nnreal</title>
<polygon fill="#fcfcd7" stroke="black" points="629,-559 523,-559 523,-523 629,-523 629,-559"/>
<text text-anchor="middle" x="576" y="-537.3" font-family="Times,serif" font-size="14.00">extended_nnreal</text>
</g>
<!-- NASALib/extended_nnreal&#45;&gt;NASALib/analysis -->
<g id="edge23" class="edge">
<title>NASALib/extended_nnreal&#45;&gt;NASALib/analysis</title>
<path fill="none" stroke="black" d="M567.16,-522.65C559.28,-507.19 549,-487 549,-487 549,-487 490,-307 490,-307 490,-307 474.54,-292.63 459.73,-278.85"/>
<polygon fill="black" stroke="black" points="462.48,-276.63 452.77,-272.38 457.71,-281.76 462.48,-276.63"/>
</g>
<!-- NASALib/extended_nnreal&#45;&gt;NASALib/reals -->
<g id="edge24" class="edge">
<title>NASALib/extended_nnreal&#45;&gt;NASALib/reals</title>
<path fill="none" stroke="black" d="M555.7,-559.35C537.62,-574.81 514,-595 514,-595 514,-595 507.96,-648.78 505.27,-672.73"/>
<polygon fill="black" stroke="black" points="501.81,-672.17 504.17,-682.5 508.76,-672.95 501.81,-672.17"/>
</g>
<!-- NASALib/series -->
<g id="node14" class="node">
<title>NASALib/series</title>
<polygon fill="#fcfcd7" stroke="black" points="481,-343 427,-343 427,-307 481,-307 481,-343"/>
<text text-anchor="middle" x="454" y="-321.3" font-family="Times,serif" font-size="14.00">series</text>
</g>
<!-- NASALib/extended_nnreal&#45;&gt;NASALib/series -->
<g id="edge25" class="edge">
<title>NASALib/extended_nnreal&#45;&gt;NASALib/series</title>
<path fill="none" stroke="black" d="M498,-468C498,-468 482,-398 482,-398"/>
<path fill="none" stroke="black" d="M556.72,-522.7C533.62,-501.97 498,-470 498,-470"/>
</g>
<!-- NASALib/sigma_set -->
<g id="node16" class="node">
<title>NASALib/sigma_set</title>
<polygon fill="#fcfcd7" stroke="black" points="628.5,-487 557.5,-487 557.5,-451 628.5,-451 628.5,-487"/>
<text text-anchor="middle" x="593" y="-465.3" font-family="Times,serif" font-size="14.00">sigma_set</text>
</g>
<!-- NASALib/extended_nnreal&#45;&gt;NASALib/sigma_set -->
<g id="edge26" class="edge">
<title>NASALib/extended_nnreal&#45;&gt;NASALib/sigma_set</title>
<path fill="none" stroke="black" d="M580.2,-522.7C581.99,-515.32 584.13,-506.52 586.14,-498.25"/>
<polygon fill="black" stroke="black" points="589.53,-499.12 588.49,-488.58 582.73,-497.47 589.53,-499.12"/>
</g>
<!-- NASALib/lebesgue -->
<g id="node7" class="node">
<title>NASALib/lebesgue</title>
<polygon fill="#fcfcd7" stroke="black" points="473,-703 409,-703 409,-667 473,-667 473,-703"/>
<text text-anchor="middle" x="441" y="-681.3" font-family="Times,serif" font-size="14.00">lebesgue</text>
</g>
<!-- NASALib/lebesgue&#45;&gt;NASALib/analysis -->
<g id="edge27" class="edge">
<title>NASALib/lebesgue&#45;&gt;NASALib/analysis</title>
<path fill="none" stroke="black" d="M413.17,-666.65C388.38,-651.19 356,-631 356,-631 356,-631 311,-559 311,-559 311,-559 311,-523 311,-523 311,-523 312,-451 312,-451 312,-451 326,-379 326,-379 326,-379 379,-307 379,-307 379,-307 393.37,-292.89 407.29,-279.23"/>
<polygon fill="black" stroke="black" points="409.55,-281.92 414.24,-272.41 404.65,-276.92 409.55,-281.92"/>
</g>
<!-- NASALib/lebesgue&#45;&gt;NASALib/extended_nnreal -->
<g id="edge28" class="edge">
<title>NASALib/lebesgue&#45;&gt;NASALib/extended_nnreal</title>
<path fill="none" stroke="black" d="M484,-612C484,-612 499,-595 499,-595 499,-595 521.06,-579.82 541.56,-565.7"/>
<polygon fill="black" stroke="black" points="543.29,-568.77 549.54,-560.21 539.32,-563 543.29,-568.77"/>
</g>
<!-- NASALib/measure_integration -->
<g id="node9" class="node">
<title>NASALib/measure_integration</title>
<polygon fill="#fcfcd7" stroke="black" points="651,-631 523,-631 523,-595 651,-595 651,-631"/>
<text text-anchor="middle" x="587" y="-609.3" font-family="Times,serif" font-size="14.00">measure_integration</text>
</g>
<!-- NASALib/lebesgue&#45;&gt;NASALib/measure_integration -->
<g id="edge29" class="edge">
<title>NASALib/lebesgue&#45;&gt;NASALib/measure_integration</title>
<path fill="none" stroke="black" d="M473.4,-668.46C493.04,-659.05 518.42,-646.88 540.21,-636.43"/>
<polygon fill="black" stroke="black" points="541.71,-639.59 549.22,-632.12 538.69,-633.28 541.71,-639.59"/>
</g>
<!-- NASALib/metric_space -->
<g id="node10" class="node">
<title>NASALib/metric_space</title>
<polygon fill="#fcfcd7" stroke="black" points="424.5,-559 335.5,-559 335.5,-523 424.5,-523 424.5,-559"/>
<text text-anchor="middle" x="380" y="-537.3" font-family="Times,serif" font-size="14.00">metric_space</text>
</g>
<!-- NASALib/lebesgue&#45;&gt;NASALib/metric_space -->
<g id="edge30" class="edge">
<title>NASALib/lebesgue&#45;&gt;NASALib/metric_space</title>
<path fill="none" stroke="black" d="M441.74,-666.7C442.63,-645.97 444,-614 444,-614"/>
<path fill="none" stroke="black" d="M444,-612C444,-612 421.82,-587.74 403.58,-567.79"/>
<polygon fill="black" stroke="black" points="406.17,-565.44 396.84,-560.42 401.01,-570.16 406.17,-565.44"/>
</g>
<!-- NASALib/power -->
<g id="node12" class="node">
<title>NASALib/power</title>
<polygon fill="#fcfcd7" stroke="black" points="479,-487 425,-487 425,-451 479,-451 479,-487"/>
<text text-anchor="middle" x="452" y="-465.3" font-family="Times,serif" font-size="14.00">power</text>
</g>
<!-- NASALib/lebesgue&#45;&gt;NASALib/power -->
<g id="edge31" class="edge">
<title>NASALib/lebesgue&#45;&gt;NASALib/power</title>
<path fill="none" stroke="black" d="M444,-540C444,-540 446.53,-517.87 448.74,-498.5"/>
<polygon fill="black" stroke="black" points="452.19,-499.14 449.85,-488.81 445.24,-498.35 452.19,-499.14"/>
<path fill="none" stroke="black" d="M444,-612C444,-612 444,-542 444,-542"/>
</g>
<!-- NASALib/lebesgue&#45;&gt;NASALib/sets_aux -->
<g id="edge33" class="edge">
<title>NASALib/lebesgue&#45;&gt;NASALib/sets_aux</title>
<path fill="none" stroke="black" d="M444,-540C444,-540 503,-487 503,-487 503,-487 540.86,-449.56 567.47,-423.25"/>
<polygon fill="black" stroke="black" points="569.92,-425.74 574.57,-416.22 565,-420.77 569.92,-425.74"/>
</g>
<!-- NASALib/lebesgue&#45;&gt;NASALib/sigma_set -->
<g id="edge34" class="edge">
<title>NASALib/lebesgue&#45;&gt;NASALib/sigma_set</title>
<path fill="none" stroke="black" d="M451.63,-666.7C464.36,-645.97 484,-614 484,-614"/>
<path fill="none" stroke="black" d="M484,-612C484,-612 514,-523 514,-523 514,-523 536.63,-507.82 557.67,-493.7"/>
<polygon fill="black" stroke="black" points="559.52,-496.68 565.88,-488.2 555.62,-490.86 559.52,-496.68"/>
</g>
<!-- NASALib/lebesgue&#45;&gt;NASALib/structures -->
<g id="edge35" class="edge">
<title>NASALib/lebesgue&#45;&gt;NASALib/structures</title>
<path fill="none" stroke="black" d="M408.6,-668.53C375.83,-652.88 330,-631 330,-631 330,-631 307,-559 307,-559 307,-559 302,-326 302,-326"/>
<path fill="none" stroke="black" d="M302,-324C302,-324 302,-254 302,-254"/>
</g>
<!-- NASALib/topology -->
<g id="node18" class="node">
<title>NASALib/topology</title>
<polygon fill="#fcfcd7" stroke="black" points="386.5,-487 321.5,-487 321.5,-451 386.5,-451 386.5,-487"/>
<text text-anchor="middle" x="354" y="-465.3" font-family="Times,serif" font-size="14.00">topology</text>
</g>
<!-- NASALib/lebesgue&#45;&gt;NASALib/topology -->
<g id="edge36" class="edge">
<title>NASALib/lebesgue&#45;&gt;NASALib/topology</title>
<path fill="none" stroke="black" d="M316,-540C316,-540 328.47,-517.03 339.12,-497.41"/>
<polygon fill="black" stroke="black" points="342.19,-499.09 343.88,-488.63 336.04,-495.75 342.19,-499.09"/>
<path fill="none" stroke="black" d="M425.01,-666.62C393.41,-632.27 326,-559 326,-559 326,-559 316,-542 316,-542"/>
</g>
<!-- NASALib/lnexp -->
<g id="node8" class="node">
<title>NASALib/lnexp</title>
<polygon fill="#fcfcd7" stroke="black" points="389,-415 335,-415 335,-379 389,-379 389,-415"/>
<text text-anchor="middle" x="362" y="-393.3" font-family="Times,serif" font-size="14.00">lnexp</text>
</g>
<!-- NASALib/lnexp&#45;&gt;NASALib/analysis -->
<g id="edge37" class="edge">
<title>NASALib/lnexp&#45;&gt;NASALib/analysis</title>
<path fill="none" stroke="black" d="M384,-324C384,-324 400.53,-300.39 414.38,-280.6"/>
<polygon fill="black" stroke="black" points="417.15,-282.74 420.02,-272.54 411.42,-278.73 417.15,-282.74"/>
</g>
<!-- NASALib/lnexp&#45;&gt;NASALib/ints -->
<g id="edge38" class="edge">
<title>NASALib/lnexp&#45;&gt;NASALib/ints</title>
<path fill="none" stroke="black" d="M384,-324C384,-324 394,-235 394,-235 394,-235 487,-110 487,-110"/>
<path fill="none" stroke="black" d="M487,-108C487,-108 466.79,-82.11 450.44,-61.17"/>
<polygon fill="black" stroke="black" points="453.35,-59.22 444.44,-53.49 447.84,-63.53 453.35,-59.22"/>
<path fill="none" stroke="black" d="M367.44,-378.7C373.95,-357.97 384,-326 384,-326"/>
</g>
<!-- NASALib/lnexp&#45;&gt;NASALib/reals -->
<g id="edge39" class="edge">
<title>NASALib/lnexp&#45;&gt;NASALib/reals</title>
<path fill="none" stroke="black" d="M340.72,-415.35C321.76,-430.81 297,-451 297,-451 297,-451 243.53,-509.75 223.48,-531.79"/>
<polygon fill="black" stroke="black" points="221.16,-529.13 217.02,-538.88 226.34,-533.84 221.16,-529.13"/>
</g>
<!-- NASALib/lnexp&#45;&gt;NASALib/series -->
<g id="edge40" class="edge">
<title>NASALib/lnexp&#45;&gt;NASALib/series</title>
<path fill="none" stroke="black" d="M384.74,-378.7C396.02,-370.11 409.83,-359.61 422.14,-350.24"/>
<polygon fill="black" stroke="black" points="424.16,-353.1 430,-344.26 419.92,-347.53 424.16,-353.1"/>
</g>
<!-- NASALib/measure_integration&#45;&gt;NASALib/extended_nnreal -->
<g id="edge41" class="edge">
<title>NASALib/measure_integration&#45;&gt;NASALib/extended_nnreal</title>
<path fill="none" stroke="black" d="M584.28,-594.7C583.12,-587.32 581.74,-578.52 580.44,-570.25"/>
<polygon fill="black" stroke="black" points="583.93,-569.93 578.92,-560.6 577.02,-571.02 583.93,-569.93"/>
</g>
<!-- NASALib/measure_integration&#45;&gt;NASALib/metric_space -->
<g id="edge42" class="edge">
<title>NASALib/measure_integration&#45;&gt;NASALib/metric_space</title>
<path fill="none" stroke="black" d="M535.3,-594.52C504.88,-584.23 466.41,-571.22 435.37,-560.72"/>
<polygon fill="black" stroke="black" points="436.76,-557.5 426.16,-557.61 434.51,-564.13 436.76,-557.5"/>
</g>
<!-- NASALib/measure_integration&#45;&gt;NASALib/orders -->
<g id="edge43" class="edge">
<title>NASALib/measure_integration&#45;&gt;NASALib/orders</title>
<path fill="none" stroke="black" d="M688,-540C688,-540 728,-470 728,-470"/>
<path fill="none" stroke="black" d="M728,-468C728,-468 659,-415 659,-415 659,-415 582.87,-270.78 550.4,-209.27"/>
<polygon fill="black" stroke="black" points="553.51,-207.68 545.75,-200.47 547.32,-210.95 553.51,-207.68"/>
</g>
<!-- NASALib/measure_integration&#45;&gt;NASALib/power -->
<g id="edge44" class="edge">
<title>NASALib/measure_integration&#45;&gt;NASALib/power</title>
<path fill="none" stroke="black" d="M563.1,-594.65C541.81,-579.19 514,-559 514,-559 514,-559 488.59,-522.53 470.31,-496.28"/>
<polygon fill="black" stroke="black" points="473.41,-494.61 464.82,-488.4 467.66,-498.61 473.41,-494.61"/>
</g>
<!-- NASALib/measure_integration&#45;&gt;NASALib/reals -->
<g id="edge45" class="edge">
<title>NASALib/measure_integration&#45;&gt;NASALib/reals</title>
<path fill="none" stroke="black" d="M566.48,-631.3C549.2,-645.88 525.33,-666.01 512.68,-676.68"/>
<polygon fill="black" stroke="black" points="510.54,-673.9 505.16,-683.02 515.06,-679.25 510.54,-673.9"/>
</g>
<!-- NASALib/measure_integration&#45;&gt;NASALib/series -->
<g id="edge46" class="edge">
<title>NASALib/measure_integration&#45;&gt;NASALib/series</title>
<path fill="none" stroke="black" d="M648,-540C648,-540 638,-523 638,-523 638,-523 498,-470 498,-470"/>
<path fill="none" stroke="black" d="M603.7,-594.65C618.57,-579.19 638,-559 638,-559 638,-559 648,-542 648,-542"/>
</g>
<!-- NASALib/measure_integration&#45;&gt;NASALib/sets_aux -->
<g id="edge47" class="edge">
<title>NASALib/measure_integration&#45;&gt;NASALib/sets_aux</title>
<path fill="none" stroke="black" d="M698,-468C698,-468 659.18,-442.12 628.75,-421.83"/>
<polygon fill="black" stroke="black" points="630.75,-418.96 620.48,-416.32 626.86,-424.78 630.75,-418.96"/>
<path fill="none" stroke="black" d="M612.23,-594.52C642.14,-573.78 688,-542 688,-542"/>
<path fill="none" stroke="black" d="M688,-540C688,-540 698,-470 698,-470"/>
</g>
<!-- NASALib/measure_integration&#45;&gt;NASALib/sigma_set -->
<g id="edge48" class="edge">
<title>NASALib/measure_integration&#45;&gt;NASALib/sigma_set</title>
<path fill="none" stroke="black" d="M648,-540C648,-540 638,-523 638,-523 638,-523 626.47,-509.41 615.08,-496"/>
<polygon fill="black" stroke="black" points="617.85,-493.87 608.71,-488.51 612.52,-498.4 617.85,-493.87"/>
</g>
<!-- NASALib/measure_integration&#45;&gt;NASALib/structures -->
<g id="edge49" class="edge">
<title>NASALib/measure_integration&#45;&gt;NASALib/structures</title>
<path fill="none" stroke="black" d="M648,-540C648,-540 638,-451 638,-451 638,-451 553,-415 553,-415 553,-415 527,-307 527,-307 527,-307 470,-199 470,-199 470,-199 454.04,-163.48 442.28,-137.32"/>
<polygon fill="black" stroke="black" points="445.62,-136.23 438.33,-128.54 439.24,-139.1 445.62,-136.23"/>
</g>
<!-- NASALib/measure_integration&#45;&gt;NASALib/topology -->
<g id="edge50" class="edge">
<title>NASALib/measure_integration&#45;&gt;NASALib/topology</title>
<path fill="none" stroke="black" d="M522.82,-598.97C445.54,-583.27 326,-559 326,-559 326,-559 316,-542 316,-542"/>
</g>
<!-- NASALib/measure_integration&#45;&gt;lib/finite_sets -->
<g id="edge51" class="edge">
<title>NASALib/measure_integration&#45;&gt;lib/finite_sets</title>
<path fill="none" stroke="black" d="M757,-540C757,-540 757,-470 757,-470"/>
<path fill="none" stroke="black" d="M637.43,-594.65C682.34,-579.19 741,-559 741,-559 741,-559 757,-542 757,-542"/>
</g>
<!-- NASALib/metric_space&#45;&gt;NASALib/analysis -->
<g id="edge52" class="edge">
<title>NASALib/metric_space&#45;&gt;NASALib/analysis</title>
<path fill="none" stroke="black" d="M408,-396C408,-396 418,-307 418,-307 418,-307 421.42,-294.92 424.99,-282.3"/>
<polygon fill="black" stroke="black" points="428.32,-283.39 427.68,-272.81 421.59,-281.48 428.32,-283.39"/>
<path fill="none" stroke="black" d="M386.43,-522.7C394.13,-501.97 406,-470 406,-470"/>
<path fill="none" stroke="black" d="M406,-468C406,-468 408,-398 408,-398"/>
</g>
<!-- NASALib/metric_space&#45;&gt;NASALib/power -->
<g id="edge53" class="edge">
<title>NASALib/metric_space&#45;&gt;NASALib/power</title>
<path fill="none" stroke="black" d="M397.8,-522.7C406.28,-514.45 416.59,-504.43 425.93,-495.35"/>
<polygon fill="black" stroke="black" points="428.34,-497.88 433.07,-488.4 423.46,-492.86 428.34,-497.88"/>
</g>
<!-- NASALib/metric_space&#45;&gt;NASALib/series -->
<g id="edge55" class="edge">
<title>NASALib/metric_space&#45;&gt;NASALib/series</title>
<path fill="none" stroke="black" d="M406,-468C406,-468 416,-451 416,-451 416,-451 482,-398 482,-398"/>
<path fill="none" stroke="black" d="M482,-396C482,-396 472.98,-373.45 465.18,-353.95"/>
<polygon fill="black" stroke="black" points="468.45,-352.69 461.48,-344.71 461.95,-355.29 468.45,-352.69"/>
</g>
<!-- NASALib/metric_space&#45;&gt;NASALib/sets_aux -->
<g id="edge56" class="edge">
<title>NASALib/metric_space&#45;&gt;NASALib/sets_aux</title>
<path fill="none" stroke="black" d="M406,-468C406,-468 416,-451 416,-451 416,-451 497.97,-426.45 550.35,-410.77"/>
<polygon fill="black" stroke="black" points="551.33,-414.13 559.91,-407.91 549.32,-407.43 551.33,-414.13"/>
</g>
<!-- NASALib/metric_space&#45;&gt;NASALib/topology -->
<g id="edge57" class="edge">
<title>NASALib/metric_space&#45;&gt;NASALib/topology</title>
<path fill="none" stroke="black" d="M373.57,-522.7C370.77,-515.15 367.42,-506.12 364.28,-497.68"/>
<polygon fill="black" stroke="black" points="367.64,-496.68 360.88,-488.52 361.08,-499.12 367.64,-496.68"/>
</g>
<!-- NASALib/vectors -->
<g id="node20" class="node">
<title>NASALib/vectors</title>
<polygon fill="#fcfcd7" stroke="black" points="223,-487 167,-487 167,-451 223,-451 223,-487"/>
<text text-anchor="middle" x="195" y="-465.3" font-family="Times,serif" font-size="14.00">vectors</text>
</g>
<!-- NASALib/metric_space&#45;&gt;NASALib/vectors -->
<g id="edge58" class="edge">
<title>NASALib/metric_space&#45;&gt;NASALib/vectors</title>
<path fill="none" stroke="black" d="M335.22,-523.05C304.3,-511.36 263.6,-495.96 234.02,-484.76"/>
<polygon fill="black" stroke="black" points="235.27,-481.5 224.68,-481.23 232.8,-488.04 235.27,-481.5"/>
</g>
<!-- NASALib/metric_space&#45;&gt;lib/finite_sets -->
<g id="edge59" class="edge">
<title>NASALib/metric_space&#45;&gt;lib/finite_sets</title>
<path fill="none" stroke="black" d="M757,-468C757,-468 673,-326 673,-326"/>
<path fill="none" stroke="black" d="M424.72,-527.12C432.95,-524.74 439,-523 439,-523 439,-523 733,-487 733,-487 733,-487 757,-470 757,-470"/>
</g>
<!-- NASALib/orders&#45;&gt;NASALib/structures -->
<g id="edge60" class="edge">
<title>NASALib/orders&#45;&gt;NASALib/structures</title>
<path fill="none" stroke="black" d="M509.53,-162.52C496.27,-153.76 480.04,-143.04 465.7,-133.58"/>
<polygon fill="black" stroke="black" points="467.67,-130.68 457.4,-128.09 463.82,-136.53 467.67,-130.68"/>
</g>
<!-- NASALib/orders&#45;&gt;lib/finite_sets -->
<g id="edge61" class="edge">
<title>NASALib/orders&#45;&gt;lib/finite_sets</title>
<path fill="none" stroke="black" d="M611,-108C611,-108 741,-83 741,-83 741,-83 752.17,-71.83 763.73,-60.27"/>
<polygon fill="black" stroke="black" points="766,-62.95 770.6,-53.4 761.05,-58 766,-62.95"/>
<path fill="none" stroke="black" d="M554.54,-162.7C576.75,-141.97 611,-110 611,-110"/>
</g>
<!-- NASALib/power&#45;&gt;NASALib/analysis -->
<g id="edge62" class="edge">
<title>NASALib/power&#45;&gt;NASALib/analysis</title>
<path fill="none" stroke="black" d="M441.12,-450.7C428.09,-429.97 408,-398 408,-398"/>
</g>
<!-- NASALib/power&#45;&gt;NASALib/lnexp -->
<g id="edge63" class="edge">
<title>NASALib/power&#45;&gt;NASALib/lnexp</title>
<path fill="none" stroke="black" d="M429.75,-450.7C418.72,-442.11 405.21,-431.61 393.16,-422.24"/>
<polygon fill="black" stroke="black" points="395.54,-419.65 385.5,-416.28 391.24,-425.18 395.54,-419.65"/>
</g>
<!-- NASALib/power&#45;&gt;NASALib/reals -->
<g id="edge64" class="edge">
<title>NASALib/power&#45;&gt;NASALib/reals</title>
<path fill="none" stroke="black" d="M456.17,-487.15C466.48,-529.6 492.98,-638.64 501.39,-673.27"/>
<polygon fill="black" stroke="black" points="497.88,-673.64 503.64,-682.53 504.68,-671.99 497.88,-673.64"/>
<path fill="none" stroke="black" d="M504,-686C504,-686 475.23,-717.97 456.57,-738.7"/>
</g>
<!-- NASALib/reals&#45;&gt;NASALib/ints -->
<g id="edge65" class="edge">
<title>NASALib/reals&#45;&gt;NASALib/ints</title>
<path fill="none" stroke="black" d="M128,-396C128,-396 128,-235 128,-235 128,-235 88,-182 88,-182"/>
<path fill="none" stroke="black" d="M413.78,-748.41C361.24,-733.75 251,-703 251,-703 251,-703 128,-614 128,-614 128,-614 128,-614 128,-540 128,-540 128,-398 128,-398"/>
</g>
<!-- NASALib/reals&#45;&gt;NASALib/lebesgue -->
<g id="edge66" class="edge">
<title>NASALib/reals&#45;&gt;NASALib/lebesgue</title>
<path fill="none" stroke="black" d="M441,-727.24C441,-723.01 441,-718.66 441,-714.44"/>
<polygon fill="black" stroke="black" points="437.5,-727.18 441,-737.18 444.5,-727.18 437.5,-727.18"/>
<polygon fill="black" stroke="black" points="444.5,-714.62 441,-704.62 437.5,-714.62 444.5,-714.62"/>
</g>
<!-- NASALib/reals&#45;&gt;NASALib/metric_space -->
<g id="edge67" class="edge">
<title>NASALib/reals&#45;&gt;NASALib/metric_space</title>
<path fill="none" stroke="black" d="M420.59,-729.62C410.31,-716.33 400,-703 400,-703 400,-703 389.3,-616.85 383.55,-570.59"/>
<polygon fill="black" stroke="black" points="417.76,-731.68 426.65,-737.45 423.3,-727.4 417.76,-731.68"/>
<polygon fill="black" stroke="black" points="387.03,-570.22 382.33,-560.73 380.09,-571.09 387.03,-570.22"/>
</g>
<!-- NASALib/reals&#45;&gt;NASALib/sets_aux -->
<g id="edge68" class="edge">
<title>NASALib/reals&#45;&gt;NASALib/sets_aux</title>
<path fill="none" stroke="black" d="M468.07,-748.9C535.95,-731.11 708,-686 708,-686"/>
<path fill="none" stroke="black" d="M708,-684C708,-684 698,-470 698,-470"/>
</g>
<!-- NASALib/reals&#45;&gt;NASALib/structures -->
<g id="edge69" class="edge">
<title>NASALib/reals&#45;&gt;NASALib/structures</title>
<path fill="none" stroke="black" d="M128,-396C128,-396 168,-326 168,-326"/>
<path fill="none" stroke="black" d="M168,-324C168,-324 302,-254 302,-254"/>
<path fill="none" stroke="black" d="M302,-252C302,-252 302,-182 302,-182"/>
</g>
<!-- NASALib/series&#45;&gt;NASALib/analysis -->
<g id="edge70" class="edge">
<title>NASALib/series&#45;&gt;NASALib/analysis</title>
<path fill="none" stroke="black" d="M448.81,-306.7C446.57,-299.24 443.9,-290.32 441.39,-281.97"/>
<polygon fill="black" stroke="black" points="444.79,-281.13 438.57,-272.55 438.09,-283.14 444.79,-281.13"/>
</g>
<!-- NASALib/series&#45;&gt;NASALib/ints -->
<g id="edge71" class="edge">
<title>NASALib/series&#45;&gt;NASALib/ints</title>
<path fill="none" stroke="black" d="M460.92,-306.7C469.21,-285.97 482,-254 482,-254"/>
<path fill="none" stroke="black" d="M482,-252C482,-252 487,-110 487,-110"/>
</g>
<!-- NASALib/series&#45;&gt;NASALib/orders -->
<g id="edge72" class="edge">
<title>NASALib/series&#45;&gt;NASALib/orders</title>
<path fill="none" stroke="black" d="M482,-252C482,-252 500.38,-228.18 515.69,-208.33"/>
<polygon fill="black" stroke="black" points="518.39,-210.56 521.73,-200.5 512.85,-206.28 518.39,-210.56"/>
</g>
<!-- NASALib/series&#45;&gt;NASALib/reals -->
<g id="edge73" class="edge">
<title>NASALib/series&#45;&gt;NASALib/reals</title>
<path fill="none" stroke="black" d="M446.09,-343.16C434.18,-369.02 413,-415 413,-415 413,-415 312,-451 312,-451 312,-451 271,-595 271,-595 271,-595 261.94,-648.78 257.9,-672.73"/>
<polygon fill="black" stroke="black" points="254.46,-672.06 256.25,-682.51 261.36,-673.23 254.46,-672.06"/>
</g>
<!-- NASALib/sets_aux&#45;&gt;NASALib/ints -->
<g id="edge74" class="edge">
<title>NASALib/sets_aux&#45;&gt;NASALib/ints</title>
<path fill="none" stroke="black" d="M582,-324C582,-324 572,-163 572,-163 572,-163 487,-110 487,-110"/>
</g>
<!-- NASALib/sets_aux&#45;&gt;NASALib/orders -->
<g id="edge75" class="edge">
<title>NASALib/sets_aux&#45;&gt;NASALib/orders</title>
<path fill="none" stroke="black" d="M542,-252C542,-252 540.12,-230.08 538.47,-210.77"/>
<polygon fill="black" stroke="black" points="541.95,-210.48 537.61,-200.81 534.98,-211.07 541.95,-210.48"/>
</g>
<!-- NASALib/sets_aux&#45;&gt;NASALib/structures -->
<g id="edge76" class="edge">
<title>NASALib/sets_aux&#45;&gt;NASALib/structures</title>
<path fill="none" stroke="black" d="M582,-324C582,-324 542,-254 542,-254"/>
<path fill="none" stroke="black" d="M542,-252C542,-252 500,-199 500,-199 500,-199 471.06,-162.21 450.4,-135.94"/>
<polygon fill="black" stroke="black" points="453.37,-134.05 444.43,-128.35 447.86,-138.37 453.37,-134.05"/>
<path fill="none" stroke="black" d="M590.28,-378.7C587.02,-357.97 582,-326 582,-326"/>
</g>
<!-- NASALib/sets_aux&#45;&gt;lib/finite_sets -->
<g id="edge77" class="edge">
<title>NASALib/sets_aux&#45;&gt;lib/finite_sets</title>
<path fill="none" stroke="black" d="M673,-324C673,-324 611,-182 611,-182"/>
<path fill="none" stroke="black" d="M612.78,-378.7C636.47,-357.97 673,-326 673,-326"/>
</g>
<!-- NASALib/sigma_set&#45;&gt;NASALib/analysis -->
<g id="edge78" class="edge">
<title>NASALib/sigma_set&#45;&gt;NASALib/analysis</title>
<path fill="none" stroke="black" d="M522,-324C522,-324 507,-307 507,-307 507,-307 485.99,-291.95 466.36,-277.9"/>
<polygon fill="black" stroke="black" points="468.63,-275.21 458.46,-272.24 464.55,-280.9 468.63,-275.21"/>
<path fill="none" stroke="black" d="M574.66,-450.65C558.33,-435.19 537,-415 537,-415 537,-415 522,-326 522,-326"/>
</g>
<!-- NASALib/sigma_set&#45;&gt;NASALib/orders -->
<g id="edge79" class="edge">
<title>NASALib/sigma_set&#45;&gt;NASALib/orders</title>
<path fill="none" stroke="black" d="M522,-324C522,-324 529.08,-252.2 533.17,-210.71"/>
<polygon fill="black" stroke="black" points="536.64,-211.21 534.13,-200.92 529.67,-210.53 536.64,-211.21"/>
</g>
<!-- NASALib/sigma_set&#45;&gt;NASALib/reals -->
<g id="edge80" class="edge">
<title>NASALib/sigma_set&#45;&gt;NASALib/reals</title>
<path fill="none" stroke="black" d="M612.65,-487.35C630.14,-502.81 653,-523 653,-523 653,-523 660,-595 660,-595 660,-595 660,-631 660,-631 660,-631 549.97,-668.38 514.72,-680.36"/>
<polygon fill="black" stroke="black" points="513.78,-676.98 505.43,-683.51 516.03,-683.61 513.78,-676.98"/>
</g>
<!-- NASALib/sigma_set&#45;&gt;NASALib/series -->
<g id="edge81" class="edge">
<title>NASALib/sigma_set&#45;&gt;NASALib/series</title>
<path fill="none" stroke="black" d="M565.28,-450.52C532.4,-429.78 482,-398 482,-398"/>
</g>
<!-- NASALib/sigma_set&#45;&gt;NASALib/sets_aux -->
<g id="edge82" class="edge">
<title>NASALib/sigma_set&#45;&gt;NASALib/sets_aux</title>
<path fill="none" stroke="black" d="M593,-450.7C593,-443.41 593,-434.73 593,-426.54"/>
<polygon fill="black" stroke="black" points="596.5,-426.62 593,-416.62 589.5,-426.62 596.5,-426.62"/>
</g>
<!-- NASALib/structures&#45;&gt;NASALib/ints -->
<g id="edge83" class="edge">
<title>NASALib/structures&#45;&gt;NASALib/ints</title>
<path fill="none" stroke="black" d="M430,-90.7C430,-82.67 430,-72.9 430,-63.8"/>
<polygon fill="black" stroke="black" points="433.5,-63.94 430,-53.94 426.5,-63.94 433.5,-63.94"/>
</g>
<!-- NASALib/structures&#45;&gt;lib/finite_sets -->
<g id="edge84" class="edge">
<title>NASALib/structures&#45;&gt;lib/finite_sets</title>
<path fill="none" stroke="black" d="M464.6,-104.48C513.52,-99.5 597,-91 597,-91 597,-91 741,-83 741,-83 741,-83 752.17,-71.83 763.73,-60.27"/>
<polygon fill="black" stroke="black" points="766,-62.95 770.6,-53.4 761.05,-58 766,-62.95"/>
</g>
<!-- NASALib/topology&#45;&gt;NASALib/reals -->
<g id="edge85" class="edge">
<title>NASALib/topology&#45;&gt;NASALib/reals</title>
<path fill="none" stroke="black" d="M339.92,-487.35C327.38,-502.81 311,-523 311,-523 311,-523 272.03,-637.09 259.69,-673.19"/>
<polygon fill="black" stroke="black" points="256.41,-671.97 256.49,-682.57 263.03,-674.24 256.41,-671.97"/>
</g>
<!-- NASALib/topology&#45;&gt;NASALib/sets_aux -->
<g id="edge86" class="edge">
<title>NASALib/topology&#45;&gt;NASALib/sets_aux</title>
<path fill="none" stroke="black" d="M386.9,-456.1C394.8,-453.24 401,-451 401,-451 401,-451 493.95,-425.34 550.51,-409.73"/>
<polygon fill="black" stroke="black" points="551.13,-413.19 559.84,-407.15 549.27,-406.44 551.13,-413.19"/>
</g>
<!-- NASALib/topology&#45;&gt;NASALib/structures -->
<g id="edge87" class="edge">
<title>NASALib/topology&#45;&gt;NASALib/structures</title>
<path fill="none" stroke="black" d="M344.83,-450.65C336.67,-435.19 326,-415 326,-415 326,-415 302,-326 302,-326"/>
</g>
<!-- NASALib/trig -->
<g id="node19" class="node">
<title>NASALib/trig</title>
<polygon fill="#fcfcd7" stroke="black" points="241,-415 187,-415 187,-379 241,-379 241,-415"/>
<text text-anchor="middle" x="214" y="-393.3" font-family="Times,serif" font-size="14.00">trig</text>
</g>
<!-- NASALib/trig&#45;&gt;NASALib/analysis -->
<g id="edge88" class="edge">
<title>NASALib/trig&#45;&gt;NASALib/analysis</title>
<path fill="none" stroke="black" d="M233.86,-378.84C263.79,-352.98 317,-307 317,-307 317,-307 359.01,-287.8 392.47,-272.52"/>
<polygon fill="black" stroke="black" points="393.5,-275.89 401.15,-268.55 390.6,-269.53 393.5,-275.89"/>
</g>
<!-- NASALib/trig&#45;&gt;NASALib/ints -->
<g id="edge89" class="edge">
<title>NASALib/trig&#45;&gt;NASALib/ints</title>
<path fill="none" stroke="black" d="M197.3,-378.65C182.43,-363.19 163,-343 163,-343 163,-343 163,-307 163,-307 163,-307 179,-110 179,-110"/>
</g>
<!-- NASALib/trig&#45;&gt;NASALib/reals -->
<g id="edge90" class="edge">
<title>NASALib/trig&#45;&gt;NASALib/reals</title>
<path fill="none" stroke="black" d="M195.66,-415.35C179.33,-430.81 158,-451 158,-451 158,-451 155.95,-454.49 153.7,-458.31"/>
<polygon fill="black" stroke="black" points="150.82,-456.3 148.77,-466.7 156.85,-459.85 150.82,-456.3"/>
</g>
<!-- NASALib/trig&#45;&gt;NASALib/series -->
<g id="edge91" class="edge">
<title>NASALib/trig&#45;&gt;NASALib/series</title>
<path fill="none" stroke="black" d="M241.06,-388.11C283.74,-375.66 366.81,-351.43 415.62,-337.19"/>
<polygon fill="black" stroke="black" points="416.59,-340.56 425.21,-334.4 414.63,-333.84 416.59,-340.56"/>
</g>
<!-- NASALib/vectors&#45;&gt;NASALib/reals -->
<g id="edge92" class="edge">
<title>NASALib/vectors&#45;&gt;NASALib/reals</title>
<path fill="none" stroke="black" d="M200.19,-487.3C204.13,-500.42 209.41,-518.04 212.76,-529.21"/>
<polygon fill="black" stroke="black" points="209.34,-529.98 215.57,-538.55 216.04,-527.97 209.34,-529.98"/>
</g>
<!-- NASALib/vectors&#45;&gt;NASALib/structures -->
<g id="edge93" class="edge">
<title>NASALib/vectors&#45;&gt;NASALib/structures</title>
<path fill="none" stroke="black" d="M189.43,-450.65C184.48,-435.19 178,-415 178,-415 178,-415 168,-326 168,-326"/>
</g>
<!-- NASALib/vectors&#45;&gt;NASALib/trig -->
<g id="edge94" class="edge">
<title>NASALib/vectors&#45;&gt;NASALib/trig</title>
<path fill="none" stroke="black" d="M199.7,-450.7C201.72,-443.24 204.14,-434.32 206.41,-425.97"/>
<polygon fill="black" stroke="black" points="209.72,-427.13 208.96,-416.57 202.96,-425.3 209.72,-427.13"/>
</g>
</g>
</svg>
