<?xml version="1.0" encoding="UTF-8" standalone="no"?>
<!DOCTYPE svg PUBLIC "-//W3C//DTD SVG 1.1//EN"
 "http://www.w3.org/Graphics/SVG/1.1/DTD/svg11.dtd">
<!-- Generated by graphviz version 12.2.1 (20241206.2353)
 -->
<!-- Title: ints Pages: 1 -->
<svg width="426pt" height="503pt"
 viewBox="0.00 0.00 426.00 502.50" xmlns="http://www.w3.org/2000/svg" xmlns:xlink="http://www.w3.org/1999/xlink">
<g id="graph0" class="graph" transform="scale(1 1) rotate(0) translate(4 498.5)">
<title>ints</title>
<polygon fill="white" stroke="none" points="-4,4 -4,-498.5 422,-498.5 422,4 -4,4"/>
<g id="clust1" class="cluster">
<title>cluster_NASALib</title>
<polygon fill="none" stroke="black" points="20,-92.5 20,-317.5 252,-317.5 252,-92.5 20,-92.5"/>
<text text-anchor="middle" x="136" y="-300.2" font-family="Times,serif" font-size="14.00">NASALib</text>
</g>
<g id="clust2" class="cluster">
<title>cluster_PVS Prelude</title>
<polygon fill="none" stroke="black" points="16,-8 16,-84.5 104,-84.5 104,-8 16,-8"/>
<text text-anchor="middle" x="60" y="-67.2" font-family="Times,serif" font-size="14.00">PVS Prelude</text>
</g>
<g id="clust3" class="cluster">
<title>cluster_algebra</title>
<polygon fill="none" stroke="black" points="136,-325.5 136,-402 266,-402 266,-325.5 136,-325.5"/>
<text text-anchor="middle" x="201" y="-384.7" font-family="Times,serif" font-size="14.00">algebra</text>
</g>
<g id="clust4" class="cluster">
<title>cluster_float</title>
<polygon fill="none" stroke="black" points="292,-164.5 292,-241 398,-241 398,-164.5 292,-164.5"/>
<text text-anchor="middle" x="345" y="-223.7" font-family="Times,serif" font-size="14.00">float</text>
</g>
<g id="clust5" class="cluster">
<title>cluster_ints</title>
<polygon fill="none" stroke="black" points="155,-410 155,-486.5 247,-486.5 247,-410 155,-410"/>
<text text-anchor="middle" x="201" y="-469.2" font-family="Times,serif" font-size="14.00">ints</text>
</g>
<!-- algebra/algebra_examples -->
<g id="node1" class="node">
<title>algebra/algebra_examples</title>
<polygon fill="#fcfcd7" stroke="black" points="258.12,-369.5 143.88,-369.5 143.88,-333.5 258.12,-333.5 258.12,-369.5"/>
<text text-anchor="middle" x="201" y="-346.45" font-family="Times,serif" font-size="14.00">algebra_examples</text>
</g>
<!-- pvslib/algebra -->
<g id="node5" class="node">
<title>pvslib/algebra</title>
<polygon fill="#fcfcd7" stroke="black" points="87.88,-285 32.12,-285 32.12,-249 87.88,-249 87.88,-285"/>
<text text-anchor="middle" x="60" y="-261.95" font-family="Times,serif" font-size="14.00">algebra</text>
</g>
<!-- algebra/algebra_examples&#45;&gt;pvslib/algebra -->
<g id="edge1" class="edge">
<title>algebra/algebra_examples&#45;&gt;pvslib/algebra</title>
<path fill="none" stroke="black" d="M171.1,-333C149.69,-320.48 120.71,-303.52 97.71,-290.07"/>
<polygon fill="black" stroke="black" points="99.65,-287.14 89.25,-285.11 96.11,-293.18 99.65,-287.14"/>
</g>
<!-- pvslib/ints -->
<g id="node6" class="node">
<title>pvslib/ints</title>
<polygon fill="#f7e28d" stroke="black" points="87,-136.5 33,-136.5 33,-100.5 87,-100.5 87,-136.5"/>
<text text-anchor="middle" x="60" y="-113.45" font-family="Times,serif" font-size="14.00">ints</text>
</g>
<!-- algebra/algebra_examples&#45;&gt;pvslib/ints -->
<g id="edge2" class="edge">
<title>algebra/algebra_examples&#45;&gt;pvslib/ints</title>
<path fill="none" stroke="black" d="M209.12,-333.39C223.75,-302.59 253,-241 253,-241 253,-241 253,-164.5 253,-164.5 253,-164.5 154.49,-141.53 98.22,-128.41"/>
<polygon fill="black" stroke="black" points="99.25,-125.06 88.72,-126.2 97.66,-131.87 99.25,-125.06"/>
</g>
<!-- pvslib/sets_aux -->
<g id="node9" class="node">
<title>pvslib/sets_aux</title>
<polygon fill="#fcfcd7" stroke="black" points="172.25,-208.5 109.75,-208.5 109.75,-172.5 172.25,-172.5 172.25,-208.5"/>
<text text-anchor="middle" x="141" y="-185.45" font-family="Times,serif" font-size="14.00">sets_aux</text>
</g>
<!-- algebra/algebra_examples&#45;&gt;pvslib/sets_aux -->
<g id="edge3" class="edge">
<title>algebra/algebra_examples&#45;&gt;pvslib/sets_aux</title>
<path fill="none" stroke="black" d="M194.46,-333.18C184.14,-305.82 163.96,-252.34 151.56,-219.48"/>
<polygon fill="black" stroke="black" points="154.87,-218.33 148.06,-210.21 148.32,-220.8 154.87,-218.33"/>
</g>
<!-- float/float_ieee854 -->
<g id="node2" class="node">
<title>float/float_ieee854</title>
<polygon fill="#fcfcd7" stroke="black" points="389.75,-208.5 300.25,-208.5 300.25,-172.5 389.75,-172.5 389.75,-208.5"/>
<text text-anchor="middle" x="345" y="-185.45" font-family="Times,serif" font-size="14.00">float_ieee854</text>
</g>
<!-- float/float_ieee854&#45;&gt;pvslib/ints -->
<g id="edge4" class="edge">
<title>float/float_ieee854&#45;&gt;pvslib/ints</title>
<path fill="none" stroke="black" d="M303.7,-172C293.79,-167.8 286,-164.5 286,-164.5 286,-164.5 162.63,-139.94 98.19,-127.1"/>
<polygon fill="black" stroke="black" points="99.24,-123.74 88.75,-125.22 97.87,-130.61 99.24,-123.74"/>
</g>
<!-- ints/inf_primes -->
<g id="node3" class="node">
<title>ints/inf_primes</title>
<polygon fill="#fcfcd7" stroke="black" points="238.62,-454 163.38,-454 163.38,-418 238.62,-418 238.62,-454"/>
<text text-anchor="middle" x="201" y="-430.95" font-family="Times,serif" font-size="14.00">inf_primes</text>
</g>
<!-- ints/inf_primes&#45;&gt;algebra/algebra_examples -->
<g id="edge5" class="edge">
<title>ints/inf_primes&#45;&gt;algebra/algebra_examples</title>
<path fill="none" stroke="black" d="M201,-417.5C201,-407 201,-393.39 201,-381.33"/>
<polygon fill="black" stroke="black" points="204.5,-381.48 201,-371.48 197.5,-381.48 204.5,-381.48"/>
</g>
<!-- lib/finite_sets -->
<g id="node4" class="node">
<title>lib/finite_sets</title>
<polygon fill="#fcfcd7" stroke="black" points="95.75,-52 24.25,-52 24.25,-16 95.75,-16 95.75,-52"/>
<text text-anchor="middle" x="60" y="-28.95" font-family="Times,serif" font-size="14.00">finite_sets</text>
</g>
<!-- ints/inf_primes&#45;&gt;lib/finite_sets -->
<g id="edge6" class="edge">
<title>ints/inf_primes&#45;&gt;lib/finite_sets</title>
<path fill="none" stroke="black" d="M418,-189.5C418,-189.5 402,-164.5 402,-164.5 402,-164.5 256,-92.5 256,-92.5 256,-92.5 164.68,-65.71 106.71,-48.7"/>
<polygon fill="black" stroke="black" points="107.98,-45.43 97.4,-45.97 106.01,-52.15 107.98,-45.43"/>
</g>
<!-- ints/inf_primes&#45;&gt;pvslib/algebra -->
<g id="edge7" class="edge">
<title>ints/inf_primes&#45;&gt;pvslib/algebra</title>
<path fill="none" stroke="black" d="M164.48,-417.53C147.93,-409.62 132,-402 132,-402 132,-402 116,-352.5 116,-352.5"/>
<path fill="none" stroke="black" d="M116,-350.5C116,-350.5 94.61,-318.99 78.27,-294.92"/>
<polygon fill="black" stroke="black" points="81.24,-293.06 72.73,-286.75 75.45,-296.99 81.24,-293.06"/>
</g>
<!-- ints/inf_primes&#45;&gt;pvslib/ints -->
<g id="edge8" class="edge">
<title>ints/inf_primes&#45;&gt;pvslib/ints</title>
<path fill="none" stroke="black" d="M418,-189.5C418,-189.5 402,-164.5 402,-164.5 402,-164.5 188.19,-136.37 98.68,-124.59"/>
<polygon fill="black" stroke="black" points="99.28,-121.14 88.91,-123.3 98.37,-128.08 99.28,-121.14"/>
<path fill="none" stroke="black" d="M298,-350.5C298,-350.5 402,-241 402,-241 402,-241 418,-191.5 418,-191.5"/>
</g>
<!-- pvslib/numbers -->
<g id="node7" class="node">
<title>pvslib/numbers</title>
<polygon fill="#fcfcd7" stroke="black" points="91.62,-208.5 28.38,-208.5 28.38,-172.5 91.62,-172.5 91.62,-208.5"/>
<text text-anchor="middle" x="60" y="-185.45" font-family="Times,serif" font-size="14.00">numbers</text>
</g>
<!-- ints/inf_primes&#45;&gt;pvslib/numbers -->
<g id="edge9" class="edge">
<title>ints/inf_primes&#45;&gt;pvslib/numbers</title>
<path fill="none" stroke="black" d="M116,-350.5C116,-350.5 97,-249 97,-249 97,-249 86.91,-233.31 77.26,-218.33"/>
<polygon fill="black" stroke="black" points="80.27,-216.54 71.92,-210.02 74.39,-220.33 80.27,-216.54"/>
</g>
<!-- pvslib/series -->
<g id="node8" class="node">
<title>pvslib/series</title>
<polygon fill="#fcfcd7" stroke="black" points="244,-208.5 190,-208.5 190,-172.5 244,-172.5 244,-208.5"/>
<text text-anchor="middle" x="217" y="-185.45" font-family="Times,serif" font-size="14.00">series</text>
</g>
<!-- ints/inf_primes&#45;&gt;pvslib/series -->
<g id="edge10" class="edge">
<title>ints/inf_primes&#45;&gt;pvslib/series</title>
<path fill="none" stroke="black" d="M217,-266C217,-266 217,-241.16 217,-220.17"/>
<polygon fill="black" stroke="black" points="220.5,-220.29 217,-210.29 213.5,-220.29 220.5,-220.29"/>
</g>
<!-- ints/inf_primes&#45;&gt;pvslib/sets_aux -->
<g id="edge11" class="edge">
<title>ints/inf_primes&#45;&gt;pvslib/sets_aux</title>
<path fill="none" stroke="black" d="M298,-350.5C298,-350.5 217,-268 217,-268"/>
<path fill="none" stroke="black" d="M217,-266C217,-266 181,-241 181,-241 181,-241 171.63,-229.4 161.96,-217.43"/>
<polygon fill="black" stroke="black" points="164.95,-215.57 155.94,-209.99 159.5,-219.97 164.95,-215.57"/>
<path fill="none" stroke="black" d="M237.52,-417.53C254.07,-409.62 270,-402 270,-402 270,-402 298,-352.5 298,-352.5"/>
</g>
<!-- pvslib/algebra&#45;&gt;lib/finite_sets -->
<g id="edge12" class="edge">
<title>pvslib/algebra&#45;&gt;lib/finite_sets</title>
<path fill="none" stroke="black" d="M0,-189.5C0,-189.5 0,-119.5 0,-119.5"/>
<path fill="none" stroke="black" d="M31.97,-248.91C24.77,-244.52 19,-241 19,-241 19,-241 0,-191.5 0,-191.5"/>
<path fill="none" stroke="black" d="M0,-117.5C0,-117.5 23.12,-85.71 40.65,-61.6"/>
<polygon fill="black" stroke="black" points="43.33,-63.87 46.39,-53.72 37.67,-59.75 43.33,-63.87"/>
</g>
<!-- pvslib/algebra&#45;&gt;pvslib/ints -->
<g id="edge13" class="edge">
<title>pvslib/algebra&#45;&gt;pvslib/ints</title>
<path fill="none" stroke="black" d="M0,-189.5C0,-189.5 19,-164.5 19,-164.5 19,-164.5 27.36,-155.32 36.54,-145.25"/>
<polygon fill="black" stroke="black" points="39.1,-147.64 43.25,-137.89 33.92,-142.92 39.1,-147.64"/>
</g>
<!-- pvslib/algebra&#45;&gt;pvslib/numbers -->
<g id="edge14" class="edge">
<title>pvslib/algebra&#45;&gt;pvslib/numbers</title>
<path fill="none" stroke="black" d="M60,-248.72C60,-240.32 60,-229.99 60,-220.43"/>
<polygon fill="black" stroke="black" points="63.5,-220.46 60,-210.46 56.5,-220.46 63.5,-220.46"/>
</g>
<!-- pvslib/ints&#45;&gt;lib/finite_sets -->
<g id="edge15" class="edge">
<title>pvslib/ints&#45;&gt;lib/finite_sets</title>
<path fill="none" stroke="black" d="M60,-100C60,-89.5 60,-75.89 60,-63.83"/>
<polygon fill="black" stroke="black" points="63.5,-63.98 60,-53.98 56.5,-63.98 63.5,-63.98"/>
</g>
<!-- pvslib/numbers&#45;&gt;pvslib/ints -->
<g id="edge16" class="edge">
<title>pvslib/numbers&#45;&gt;pvslib/ints</title>
<path fill="none" stroke="black" d="M60,-172.2C60,-164.91 60,-156.23 60,-148.04"/>
<polygon fill="black" stroke="black" points="63.5,-148.12 60,-138.12 56.5,-148.12 63.5,-148.12"/>
</g>
<!-- pvslib/series&#45;&gt;pvslib/ints -->
<g id="edge17" class="edge">
<title>pvslib/series&#45;&gt;pvslib/ints</title>
<path fill="none" stroke="black" d="M192,-172.14C185.85,-167.87 181,-164.5 181,-164.5 181,-164.5 133.49,-146.83 98.02,-133.64"/>
<polygon fill="black" stroke="black" points="99.47,-130.44 88.88,-130.24 97.03,-137.01 99.47,-130.44"/>
</g>
<!-- pvslib/sets_aux&#45;&gt;lib/finite_sets -->
<g id="edge18" class="edge">
<title>pvslib/sets_aux&#45;&gt;lib/finite_sets</title>
<path fill="none" stroke="black" d="M113.22,-172.14C106.39,-167.87 101,-164.5 101,-164.5 101,-164.5 24,-136.5 24,-136.5 24,-136.5 0,-119.5 0,-119.5"/>
</g>
<!-- pvslib/sets_aux&#45;&gt;pvslib/ints -->
<g id="edge19" class="edge">
<title>pvslib/sets_aux&#45;&gt;pvslib/ints</title>
<path fill="none" stroke="black" d="M120.98,-172.2C111.24,-163.78 99.36,-153.52 88.69,-144.29"/>
<polygon fill="black" stroke="black" points="91.07,-141.73 81.22,-137.84 86.5,-147.02 91.07,-141.73"/>
</g>
</g>
</svg>
