<?xml version="1.0" encoding="UTF-8" standalone="no"?>
<!DOCTYPE svg PUBLIC "-//W3C//DTD SVG 1.1//EN"
 "http://www.w3.org/Graphics/SVG/1.1/DTD/svg11.dtd">
<!-- Generated by graphviz version 12.2.1 (20241206.2353)
 -->
<!-- Title: ints Pages: 1 -->
<svg width="346pt" height="414pt"
 viewBox="0.00 0.00 346.00 413.50" xmlns="http://www.w3.org/2000/svg" xmlns:xlink="http://www.w3.org/1999/xlink">
<g id="graph0" class="graph" transform="scale(1 1) rotate(0) translate(4 409.5)">
<title>ints</title>
<polygon fill="white" stroke="none" points="-4,4 -4,-409.5 342,-409.5 342,4 -4,4"/>
<g id="clust1" class="cluster">
<title>cluster_NASALib</title>
<polygon fill="none" stroke="black" points="16,-92.5 16,-241 88,-241 88,-92.5 16,-92.5"/>
<text text-anchor="middle" x="52" y="-223.7" font-family="Times,serif" font-size="14.00">NASALib</text>
</g>
<g id="clust2" class="cluster">
<title>cluster_PVS Prelude</title>
<polygon fill="none" stroke="black" points="8,-8 8,-84.5 96,-84.5 96,-8 8,-8"/>
<text text-anchor="middle" x="52" y="-67.2" font-family="Times,serif" font-size="14.00">PVS Prelude</text>
</g>
<g id="clust3" class="cluster">
<title>cluster_algebra</title>
<polygon fill="none" stroke="black" points="100,-249 100,-397.5 230,-397.5 230,-249 100,-249"/>
<text text-anchor="middle" x="165" y="-380.2" font-family="Times,serif" font-size="14.00">algebra</text>
</g>
<g id="clust4" class="cluster">
<title>cluster_ints</title>
<polygon fill="none" stroke="black" points="238,-321 238,-397.5 330,-397.5 330,-321 238,-321"/>
<text text-anchor="middle" x="284" y="-380.2" font-family="Times,serif" font-size="14.00">ints</text>
</g>
<!-- algebra/algebra_examples -->
<g id="node1" class="node">
<title>algebra/algebra_examples</title>
<polygon fill="#fcfcd7" stroke="black" points="222.12,-293 107.88,-293 107.88,-257 222.12,-257 222.12,-293"/>
<text text-anchor="middle" x="165" y="-269.95" font-family="Times,serif" font-size="14.00">algebra_examples</text>
</g>
<!-- pvslib/algebra -->
<g id="node5" class="node">
<title>pvslib/algebra</title>
<polygon fill="#fcfcd7" stroke="black" points="79.88,-208.5 24.12,-208.5 24.12,-172.5 79.88,-172.5 79.88,-208.5"/>
<text text-anchor="middle" x="52" y="-185.45" font-family="Times,serif" font-size="14.00">algebra</text>
</g>
<!-- algebra/algebra_examples&#45;&gt;pvslib/algebra -->
<g id="edge1" class="edge">
<title>algebra/algebra_examples&#45;&gt;pvslib/algebra</title>
<path fill="none" stroke="black" d="M127.42,-256.53C110.39,-248.62 94,-241 94,-241 94,-241 84.16,-229.4 74,-217.43"/>
<polygon fill="black" stroke="black" points="76.81,-215.33 67.67,-209.97 71.47,-219.86 76.81,-215.33"/>
</g>
<!-- pvslib/ints -->
<g id="node6" class="node">
<title>pvslib/ints</title>
<polygon fill="#f7e28d" stroke="black" points="79,-136.5 25,-136.5 25,-100.5 79,-100.5 79,-136.5"/>
<text text-anchor="middle" x="52" y="-113.45" font-family="Times,serif" font-size="14.00">ints</text>
</g>
<!-- algebra/algebra_examples&#45;&gt;pvslib/ints -->
<g id="edge2" class="edge">
<title>algebra/algebra_examples&#45;&gt;pvslib/ints</title>
<path fill="none" stroke="black" d="M152.91,-256.5C136.18,-232.29 108,-191.5 108,-191.5"/>
</g>
<!-- algebra/quat_examples -->
<g id="node2" class="node">
<title>algebra/quat_examples</title>
<polygon fill="#fcfcd7" stroke="black" points="213.88,-365 116.12,-365 116.12,-329 213.88,-329 213.88,-365"/>
<text text-anchor="middle" x="165" y="-341.95" font-family="Times,serif" font-size="14.00">quat_examples</text>
</g>
<!-- algebra/quat_examples&#45;&gt;algebra/algebra_examples -->
<g id="edge3" class="edge">
<title>algebra/quat_examples&#45;&gt;algebra/algebra_examples</title>
<path fill="none" stroke="black" d="M165,-328.7C165,-321.41 165,-312.73 165,-304.54"/>
<polygon fill="black" stroke="black" points="168.5,-304.62 165,-294.62 161.5,-304.62 168.5,-304.62"/>
</g>
<!-- algebra/quat_examples&#45;&gt;pvslib/algebra -->
<g id="edge4" class="edge">
<title>algebra/quat_examples&#45;&gt;pvslib/algebra</title>
<path fill="none" stroke="black" d="M143.39,-328.65C124.14,-313.19 99,-293 99,-293 99,-293 80,-276 80,-276"/>
<path fill="none" stroke="black" d="M80,-274C80,-274 69.68,-243.6 61.57,-219.71"/>
<polygon fill="black" stroke="black" points="64.95,-218.77 58.42,-210.43 58.32,-221.02 64.95,-218.77"/>
</g>
<!-- algebra/quat_examples&#45;&gt;pvslib/ints -->
<g id="edge5" class="edge">
<title>algebra/quat_examples&#45;&gt;pvslib/ints</title>
<path fill="none" stroke="black" d="M80,-274C80,-274 108,-191.5 108,-191.5"/>
<path fill="none" stroke="black" d="M108,-189.5C108,-189.5 88.77,-165.46 72.84,-145.56"/>
<polygon fill="black" stroke="black" points="75.77,-143.61 66.79,-137.99 70.3,-147.98 75.77,-143.61"/>
</g>
<!-- ints/inf_primes -->
<g id="node3" class="node">
<title>ints/inf_primes</title>
<polygon fill="#fcfcd7" stroke="black" points="321.62,-365 246.38,-365 246.38,-329 321.62,-329 321.62,-365"/>
<text text-anchor="middle" x="284" y="-341.95" font-family="Times,serif" font-size="14.00">inf_primes</text>
</g>
<!-- ints/inf_primes&#45;&gt;algebra/algebra_examples -->
<g id="edge6" class="edge">
<title>ints/inf_primes&#45;&gt;algebra/algebra_examples</title>
<path fill="none" stroke="black" d="M254.28,-328.52C239.11,-319.6 220.47,-308.63 204.15,-299.03"/>
<polygon fill="black" stroke="black" points="206.04,-296.08 195.65,-294.03 202.49,-302.11 206.04,-296.08"/>
</g>
<!-- lib/finite_sets -->
<g id="node4" class="node">
<title>lib/finite_sets</title>
<polygon fill="#fcfcd7" stroke="black" points="87.75,-52 16.25,-52 16.25,-16 87.75,-16 87.75,-52"/>
<text text-anchor="middle" x="52" y="-28.95" font-family="Times,serif" font-size="14.00">finite_sets</text>
</g>
<!-- ints/inf_primes&#45;&gt;lib/finite_sets -->
<g id="edge7" class="edge">
<title>ints/inf_primes&#45;&gt;lib/finite_sets</title>
<path fill="none" stroke="black" d="M275.06,-328.66C260.68,-300.76 234,-249 234,-249 234,-249 122.07,-117.39 73.77,-60.59"/>
<polygon fill="black" stroke="black" points="76.71,-58.65 67.57,-53.3 71.38,-63.19 76.71,-58.65"/>
</g>
<!-- pvslib/algebra&#45;&gt;lib/finite_sets -->
<g id="edge8" class="edge">
<title>pvslib/algebra&#45;&gt;lib/finite_sets</title>
<path fill="none" stroke="black" d="M40.21,-172.15C29.71,-156.69 16,-136.5 16,-136.5 16,-136.5 16,-92.5 16,-92.5 16,-92.5 25.82,-76.81 35.2,-61.83"/>
<polygon fill="black" stroke="black" points="38.06,-63.87 40.4,-53.53 32.12,-60.15 38.06,-63.87"/>
</g>
<!-- pvslib/algebra&#45;&gt;pvslib/ints -->
<g id="edge9" class="edge">
<title>pvslib/algebra&#45;&gt;pvslib/ints</title>
<path fill="none" stroke="black" d="M52,-172.2C52,-164.91 52,-156.23 52,-148.04"/>
<polygon fill="black" stroke="black" points="55.5,-148.12 52,-138.12 48.5,-148.12 55.5,-148.12"/>
</g>
<!-- pvslib/ints&#45;&gt;lib/finite_sets -->
<g id="edge10" class="edge">
<title>pvslib/ints&#45;&gt;lib/finite_sets</title>
<path fill="none" stroke="black" d="M52,-100C52,-89.5 52,-75.89 52,-63.83"/>
<polygon fill="black" stroke="black" points="55.5,-63.98 52,-53.98 48.5,-63.98 55.5,-63.98"/>
</g>
</g>
</svg>
