<?xml version="1.0" encoding="UTF-8" standalone="no"?>
<!DOCTYPE svg PUBLIC "-//W3C//DTD SVG 1.1//EN"
 "http://www.w3.org/Graphics/SVG/1.1/DTD/svg11.dtd">
<!-- Generated by graphviz version 7.0.6 (20230106.0513)
 -->
<!-- Title: Riemann Pages: 1 -->
<svg width="930pt" height="1038pt"
 viewBox="0.00 0.00 930.00 1038.00" xmlns="http://www.w3.org/2000/svg" xmlns:xlink="http://www.w3.org/1999/xlink">
<g id="graph0" class="graph" transform="scale(1 1) rotate(0) translate(4 1034)">
<title>Riemann</title>
<polygon fill="white" stroke="none" points="-4,4 -4,-1034 926,-1034 926,4 -4,4"/>
<g id="clust1" class="cluster">
<title>cluster_NASALib</title>
<polygon fill="none" stroke="black" points="8,-8 8,-1022 818,-1022 818,-8 8,-8"/>
<text text-anchor="middle" x="413" y="-1006.8" font-family="Times,serif" font-size="14.00">NASALib</text>
</g>
<g id="clust2" class="cluster">
<title>cluster_PVS Prelude</title>
<polygon fill="none" stroke="black" points="826,-8 826,-83 914,-83 914,-8 826,-8"/>
<text text-anchor="middle" x="870" y="-67.8" font-family="Times,serif" font-size="14.00">PVS Prelude</text>
</g>
<!-- NASALib/Riemann -->
<g id="node1" class="node">
<title>NASALib/Riemann</title>
<polygon fill="#f7e28d" stroke="black" points="298,-919 232,-919 232,-883 298,-883 298,-919"/>
<text text-anchor="middle" x="265" y="-897.3" font-family="Times,serif" font-size="14.00">Riemann</text>
</g>
<!-- NASALib/analysis -->
<g id="node2" class="node">
<title>NASALib/analysis</title>
<polygon fill="#fcfcd7" stroke="black" points="376,-775 316,-775 316,-739 376,-739 376,-775"/>
<text text-anchor="middle" x="346" y="-753.3" font-family="Times,serif" font-size="14.00">analysis</text>
</g>
<!-- NASALib/Riemann&#45;&gt;NASALib/analysis -->
<g id="edge1" class="edge">
<title>NASALib/Riemann&#45;&gt;NASALib/analysis</title>
<path fill="none" stroke="black" d="M277.85,-882.7C293.25,-861.97 317,-830 317,-830"/>
<path fill="none" stroke="black" d="M317,-828C317,-828 326.43,-805.24 334.53,-785.68"/>
<polygon fill="black" stroke="black" points="337.66,-787.28 338.25,-776.7 331.19,-784.6 337.66,-787.28"/>
</g>
<!-- NASALib/interval_arith -->
<g id="node5" class="node">
<title>NASALib/interval_arith</title>
<polygon fill="#fcfcd7" stroke="black" points="217.5,-847 128.5,-847 128.5,-811 217.5,-811 217.5,-847"/>
<text text-anchor="middle" x="173" y="-825.3" font-family="Times,serif" font-size="14.00">interval_arith</text>
</g>
<!-- NASALib/Riemann&#45;&gt;NASALib/interval_arith -->
<g id="edge2" class="edge">
<title>NASALib/Riemann&#45;&gt;NASALib/interval_arith</title>
<path fill="none" stroke="black" d="M242.26,-882.7C230.98,-874.11 217.17,-863.61 204.86,-854.24"/>
<polygon fill="black" stroke="black" points="207.08,-851.53 197,-848.26 202.84,-857.1 207.08,-851.53"/>
</g>
<!-- NASALib/lnexp -->
<g id="node8" class="node">
<title>NASALib/lnexp</title>
<polygon fill="#fcfcd7" stroke="black" points="262,-343 208,-343 208,-307 262,-307 262,-343"/>
<text text-anchor="middle" x="235" y="-321.3" font-family="Times,serif" font-size="14.00">lnexp</text>
</g>
<!-- NASALib/Riemann&#45;&gt;NASALib/lnexp -->
<g id="edge3" class="edge">
<title>NASALib/Riemann&#45;&gt;NASALib/lnexp</title>
<path fill="none" stroke="black" d="M277,-756C277,-756 252,-703 252,-703 252,-703 197,-542 197,-542"/>
<path fill="none" stroke="black" d="M271,-828C271,-828 277,-758 277,-758"/>
</g>
<!-- NASALib/reals -->
<g id="node13" class="node">
<title>NASALib/reals</title>
<polygon fill="#fcfcd7" stroke="black" points="330,-703 276,-703 276,-667 330,-667 330,-703"/>
<text text-anchor="middle" x="303" y="-681.3" font-family="Times,serif" font-size="14.00">reals</text>
</g>
<!-- NASALib/Riemann&#45;&gt;NASALib/reals -->
<g id="edge4" class="edge">
<title>NASALib/Riemann&#45;&gt;NASALib/reals</title>
<path fill="none" stroke="black" d="M277,-756C277,-756 285.37,-733.45 292.62,-713.95"/>
<polygon fill="black" stroke="black" points="295.85,-715.32 296.05,-704.72 289.28,-712.88 295.85,-715.32"/>
</g>
<!-- NASALib/structures -->
<g id="node17" class="node">
<title>NASALib/structures</title>
<polygon fill="#fcfcd7" stroke="black" points="389.5,-127 320.5,-127 320.5,-91 389.5,-91 389.5,-127"/>
<text text-anchor="middle" x="355" y="-105.3" font-family="Times,serif" font-size="14.00">structures</text>
</g>
<!-- NASALib/Riemann&#45;&gt;NASALib/structures -->
<g id="edge5" class="edge">
<title>NASALib/Riemann&#45;&gt;NASALib/structures</title>
<path fill="none" stroke="black" d="M298.41,-887.92C306.06,-885.15 312,-883 312,-883 312,-883 809,-758 809,-758 809,-758 809,-758 809,-324 809,-324 789,-182 789,-182"/>
</g>
<!-- NASALib/trig -->
<g id="node19" class="node">
<title>NASALib/trig</title>
<polygon fill="#fcfcd7" stroke="black" points="190,-343 136,-343 136,-307 190,-307 190,-343"/>
<text text-anchor="middle" x="163" y="-321.3" font-family="Times,serif" font-size="14.00">trig</text>
</g>
<!-- NASALib/Riemann&#45;&gt;NASALib/trig -->
<g id="edge6" class="edge">
<title>NASALib/Riemann&#45;&gt;NASALib/trig</title>
<path fill="none" stroke="black" d="M271,-828C271,-828 137,-470 137,-470"/>
<path fill="none" stroke="black" d="M266.48,-882.7C268.26,-861.97 271,-830 271,-830"/>
</g>
<!-- NASALib/ints -->
<g id="node6" class="node">
<title>NASALib/ints</title>
<polygon fill="#fcfcd7" stroke="black" points="355,-52 301,-52 301,-16 355,-16 355,-52"/>
<text text-anchor="middle" x="328" y="-30.3" font-family="Times,serif" font-size="14.00">ints</text>
</g>
<!-- NASALib/analysis&#45;&gt;NASALib/ints -->
<g id="edge7" class="edge">
<title>NASALib/analysis&#45;&gt;NASALib/ints</title>
<path fill="none" stroke="black" d="M315.74,-738.94C288.26,-723.45 252,-703 252,-703 252,-703 159,-559 159,-559 159,-559 113,-487 113,-487 113,-487 77,-398 77,-398"/>
</g>
<!-- NASALib/orders -->
<g id="node11" class="node">
<title>NASALib/orders</title>
<polygon fill="#fcfcd7" stroke="black" points="612,-199 558,-199 558,-163 612,-163 612,-199"/>
<text text-anchor="middle" x="585" y="-177.3" font-family="Times,serif" font-size="14.00">orders</text>
</g>
<!-- NASALib/analysis&#45;&gt;NASALib/orders -->
<g id="edge8" class="edge">
<title>NASALib/analysis&#45;&gt;NASALib/orders</title>
<path fill="none" stroke="black" d="M789,-252C789,-252 681.84,-215.23 622.85,-194.99"/>
<polygon fill="black" stroke="black" points="624.12,-191.72 613.52,-191.79 621.84,-198.34 624.12,-191.72"/>
<path fill="none" stroke="black" d="M376.16,-747.72C430.44,-732.81 539,-703 539,-703 539,-703 774,-631 774,-631 774,-631 789,-614 789,-614 789,-614 789,-614 789,-396 789,-396 789,-254 789,-254"/>
</g>
<!-- NASALib/analysis&#45;&gt;NASALib/reals -->
<g id="edge9" class="edge">
<title>NASALib/analysis&#45;&gt;NASALib/reals</title>
<path fill="none" stroke="black" d="M335.37,-738.7C330.58,-730.9 324.81,-721.51 319.48,-712.83"/>
<polygon fill="black" stroke="black" points="322.52,-711.08 314.3,-704.39 316.55,-714.75 322.52,-711.08"/>
</g>
<!-- NASALib/analysis&#45;&gt;NASALib/structures -->
<g id="edge10" class="edge">
<title>NASALib/analysis&#45;&gt;NASALib/structures</title>
<path fill="none" stroke="black" d="M789,-252C789,-252 789,-182 789,-182"/>
<path fill="none" stroke="black" d="M789,-180C789,-180 512.67,-135.43 401,-117.42"/>
<polygon fill="black" stroke="black" points="401.71,-113.99 391.28,-115.85 400.59,-120.9 401.71,-113.99"/>
</g>
<!-- lib/finite_sets -->
<g id="node21" class="node">
<title>lib/finite_sets</title>
<polygon fill="#fcfcd7" stroke="black" points="906,-52 834,-52 834,-16 906,-16 906,-52"/>
<text text-anchor="middle" x="870" y="-30.3" font-family="Times,serif" font-size="14.00">finite_sets</text>
</g>
<!-- NASALib/analysis&#45;&gt;lib/finite_sets -->
<g id="edge11" class="edge">
<title>NASALib/analysis&#45;&gt;lib/finite_sets</title>
<path fill="none" stroke="black" d="M376.37,-749.71C444.18,-735.67 602,-703 602,-703 602,-703 786,-631 786,-631 786,-631 822,-559 822,-559 822,-559 838,-470 838,-470"/>
</g>
<!-- NASALib/examples -->
<g id="node3" class="node">
<title>NASALib/examples</title>
<polygon fill="#fcfcd7" stroke="black" points="299,-991 231,-991 231,-955 299,-955 299,-991"/>
<text text-anchor="middle" x="265" y="-969.3" font-family="Times,serif" font-size="14.00">examples</text>
</g>
<!-- NASALib/examples&#45;&gt;NASALib/Riemann -->
<g id="edge12" class="edge">
<title>NASALib/examples&#45;&gt;NASALib/Riemann</title>
<path fill="none" stroke="black" d="M265,-954.7C265,-947.41 265,-938.73 265,-930.54"/>
<polygon fill="black" stroke="black" points="268.5,-930.62 265,-920.62 261.5,-930.62 268.5,-930.62"/>
</g>
<!-- NASALib/examples&#45;&gt;NASALib/analysis -->
<g id="edge13" class="edge">
<title>NASALib/examples&#45;&gt;NASALib/analysis</title>
<path fill="none" stroke="black" d="M317,-900C317,-900 317,-830 317,-830"/>
</g>
<!-- NASALib/examples&#45;&gt;NASALib/interval_arith -->
<g id="edge14" class="edge">
<title>NASALib/examples&#45;&gt;NASALib/interval_arith</title>
<path fill="none" stroke="black" d="M193,-900C193,-900 186.62,-877.66 181.06,-858.22"/>
<polygon fill="black" stroke="black" points="184.47,-857.41 178.36,-848.76 177.74,-859.34 184.47,-857.41"/>
</g>
<!-- NASALib/examples&#45;&gt;NASALib/lnexp -->
<g id="edge15" class="edge">
<title>NASALib/examples&#45;&gt;NASALib/lnexp</title>
<path fill="none" stroke="black" d="M109,-828C109,-828 216,-379 216,-379 216,-379 220.42,-366.68 224.99,-353.92"/>
<polygon fill="black" stroke="black" points="228.19,-355.37 228.27,-344.78 221.6,-353.01 228.19,-355.37"/>
</g>
<!-- NASALib/examples&#45;&gt;NASALib/reals -->
<g id="edge16" class="edge">
<title>NASALib/examples&#45;&gt;NASALib/reals</title>
<path fill="none" stroke="black" d="M278.75,-954.65C291,-939.19 307,-919 307,-919 307,-919 317,-902 317,-902"/>
<path fill="none" stroke="black" d="M317,-900C317,-900 312,-847 312,-847 312,-847 307,-775 307,-775 307,-775 305.45,-740.42 304.28,-714.37"/>
<polygon fill="black" stroke="black" points="307.78,-714.5 303.84,-704.67 300.79,-714.82 307.78,-714.5"/>
</g>
<!-- NASALib/examples&#45;&gt;NASALib/trig -->
<g id="edge17" class="edge">
<title>NASALib/examples&#45;&gt;NASALib/trig</title>
<path fill="none" stroke="black" d="M193,-900C193,-900 119,-847 119,-847 119,-847 109,-830 109,-830"/>
<path fill="none" stroke="black" d="M247.2,-954.7C225.88,-933.97 193,-902 193,-902"/>
<path fill="none" stroke="black" d="M109,-828C109,-828 72,-775 72,-775 72,-775 72,-595 72,-595 72,-595 137,-398 137,-398"/>
<path fill="none" stroke="black" d="M137,-396C137,-396 145.37,-373.45 152.62,-353.95"/>
<polygon fill="black" stroke="black" points="155.85,-355.32 156.05,-344.72 149.28,-352.88 155.85,-355.32"/>
</g>
<!-- NASALib/vectors -->
<g id="node20" class="node">
<title>NASALib/vectors</title>
<polygon fill="#fcfcd7" stroke="black" points="344,-415 288,-415 288,-379 344,-379 344,-415"/>
<text text-anchor="middle" x="316" y="-393.3" font-family="Times,serif" font-size="14.00">vectors</text>
</g>
<!-- NASALib/examples&#45;&gt;NASALib/vectors -->
<g id="edge18" class="edge">
<title>NASALib/examples&#45;&gt;NASALib/vectors</title>
<path fill="none" stroke="black" d="M193,-900C193,-900 226,-847 226,-847 226,-847 252,-667 252,-667 252,-667 292.9,-495.08 309.31,-426.12"/>
<polygon fill="black" stroke="black" points="312.64,-427.25 311.55,-416.71 305.83,-425.63 312.64,-427.25"/>
</g>
<!-- NASALib/extended_nnreal -->
<g id="node4" class="node">
<title>NASALib/extended_nnreal</title>
<polygon fill="#fcfcd7" stroke="black" points="690,-487 584,-487 584,-451 690,-451 690,-487"/>
<text text-anchor="middle" x="637" y="-465.3" font-family="Times,serif" font-size="14.00">extended_nnreal</text>
</g>
<!-- NASALib/extended_nnreal&#45;&gt;NASALib/analysis -->
<g id="edge19" class="edge">
<title>NASALib/extended_nnreal&#45;&gt;NASALib/analysis</title>
<path fill="none" stroke="black" d="M653.19,-487.41C681.82,-518.22 740.38,-581.21 761.33,-603.75"/>
<polygon fill="black" stroke="black" points="758.6,-605.95 767.97,-610.89 763.72,-601.18 758.6,-605.95"/>
<path fill="none" stroke="black" d="M769,-614C769,-614 754,-631 754,-631 754,-631 534,-684 534,-684"/>
</g>
<!-- NASALib/extended_nnreal&#45;&gt;NASALib/reals -->
<g id="edge20" class="edge">
<title>NASALib/extended_nnreal&#45;&gt;NASALib/reals</title>
<path fill="none" stroke="black" d="M634.11,-487.16C629.75,-513.02 622,-559 622,-559 622,-559 575,-631 575,-631 575,-631 416.69,-661.85 341.62,-676.47"/>
<polygon fill="black" stroke="black" points="340.96,-673.04 331.81,-678.39 342.3,-679.91 340.96,-673.04"/>
</g>
<!-- NASALib/series -->
<g id="node14" class="node">
<title>NASALib/series</title>
<polygon fill="#fcfcd7" stroke="black" points="462,-271 408,-271 408,-235 462,-235 462,-271"/>
<text text-anchor="middle" x="435" y="-249.3" font-family="Times,serif" font-size="14.00">series</text>
</g>
<!-- NASALib/extended_nnreal&#45;&gt;NASALib/series -->
<g id="edge21" class="edge">
<title>NASALib/extended_nnreal&#45;&gt;NASALib/series</title>
<path fill="none" stroke="black" d="M630.64,-450.84C621.05,-424.98 604,-379 604,-379 604,-379 534,-343 534,-343 534,-343 519,-326 519,-326"/>
</g>
<!-- NASALib/sigma_set -->
<g id="node16" class="node">
<title>NASALib/sigma_set</title>
<polygon fill="#fcfcd7" stroke="black" points="749.5,-415 678.5,-415 678.5,-379 749.5,-379 749.5,-415"/>
<text text-anchor="middle" x="714" y="-393.3" font-family="Times,serif" font-size="14.00">sigma_set</text>
</g>
<!-- NASALib/extended_nnreal&#45;&gt;NASALib/sigma_set -->
<g id="edge22" class="edge">
<title>NASALib/extended_nnreal&#45;&gt;NASALib/sigma_set</title>
<path fill="none" stroke="black" d="M656.03,-450.7C665.2,-442.37 676.35,-432.22 686.43,-423.07"/>
<polygon fill="black" stroke="black" points="688.75,-425.68 693.8,-416.37 684.04,-420.5 688.75,-425.68"/>
</g>
<!-- NASALib/interval_arith&#45;&gt;NASALib/analysis -->
<g id="edge23" class="edge">
<title>NASALib/interval_arith&#45;&gt;NASALib/analysis</title>
<path fill="none" stroke="black" d="M216.21,-810.52C243.39,-799.52 278.25,-785.41 305,-774.59"/>
<polygon fill="black" stroke="black" points="306.19,-777.88 314.15,-770.89 303.57,-771.39 306.19,-777.88"/>
</g>
<!-- NASALib/interval_arith&#45;&gt;NASALib/ints -->
<g id="edge24" class="edge">
<title>NASALib/interval_arith&#45;&gt;NASALib/ints</title>
<path fill="none" stroke="black" d="M77,-396C77,-396 163,-182 163,-182"/>
<path fill="none" stroke="black" d="M301,-108C301,-108 310.07,-83.49 317.69,-62.87"/>
<polygon fill="black" stroke="black" points="320.89,-64.31 321.08,-53.72 314.32,-61.88 320.89,-64.31"/>
<path fill="none" stroke="black" d="M161.23,-810.59C135.59,-772.67 77,-686 77,-686"/>
<path fill="none" stroke="black" d="M77,-684C77,-684 72,-631 72,-631 72,-631 72,-595 72,-595 72,-595 77,-398 77,-398"/>
<path fill="none" stroke="black" d="M163,-180C163,-180 301,-110 301,-110"/>
</g>
<!-- NASALib/interval_arith&#45;&gt;NASALib/lnexp -->
<g id="edge25" class="edge">
<title>NASALib/interval_arith&#45;&gt;NASALib/lnexp</title>
<path fill="none" stroke="black" d="M197,-540C197,-540 219.61,-412.69 229.95,-354.46"/>
<polygon fill="black" stroke="black" points="233.39,-355.1 231.69,-344.64 226.5,-353.88 233.39,-355.1"/>
<path fill="none" stroke="black" d="M174.4,-810.87C178.78,-757.06 192,-595 192,-595 192,-595 197,-542 197,-542"/>
</g>
<!-- NASALib/interval_arith&#45;&gt;NASALib/reals -->
<g id="edge26" class="edge">
<title>NASALib/interval_arith&#45;&gt;NASALib/reals</title>
<path fill="none" stroke="black" d="M188.94,-810.59C211.67,-785.76 253.55,-740.01 279.75,-711.4"/>
<polygon fill="black" stroke="black" points="282.14,-713.97 286.31,-704.23 276.98,-709.24 282.14,-713.97"/>
</g>
<!-- NASALib/interval_arith&#45;&gt;NASALib/structures -->
<g id="edge27" class="edge">
<title>NASALib/interval_arith&#45;&gt;NASALib/structures</title>
<path fill="none" stroke="black" d="M77,-684C77,-684 77,-614 77,-614"/>
<path fill="none" stroke="black" d="M77,-612C77,-612 112,-379 112,-379 112,-379 127,-307 127,-307 127,-307 265.05,-187.72 326.31,-134.79"/>
<polygon fill="black" stroke="black" points="328.34,-137.66 333.62,-128.47 323.77,-132.36 328.34,-137.66"/>
</g>
<!-- NASALib/interval_arith&#45;&gt;NASALib/trig -->
<g id="edge28" class="edge">
<title>NASALib/interval_arith&#45;&gt;NASALib/trig</title>
<path fill="none" stroke="black" d="M77,-612C77,-612 137,-470 137,-470"/>
<path fill="none" stroke="black" d="M137,-468C137,-468 137,-398 137,-398"/>
</g>
<!-- NASALib/lebesgue -->
<g id="node7" class="node">
<title>NASALib/lebesgue</title>
<polygon fill="#fcfcd7" stroke="black" points="566,-631 502,-631 502,-595 566,-595 566,-631"/>
<text text-anchor="middle" x="534" y="-609.3" font-family="Times,serif" font-size="14.00">lebesgue</text>
</g>
<!-- NASALib/lebesgue&#45;&gt;NASALib/analysis -->
<g id="edge29" class="edge">
<title>NASALib/lebesgue&#45;&gt;NASALib/analysis</title>
<path fill="none" stroke="black" d="M534,-631.3C534,-644.26 534,-661.6 534,-672.79"/>
<polygon fill="black" stroke="black" points="530.5,-672.49 534,-682.49 537.5,-672.49 530.5,-672.49"/>
</g>
<!-- NASALib/lebesgue&#45;&gt;NASALib/extended_nnreal -->
<g id="edge30" class="edge">
<title>NASALib/lebesgue&#45;&gt;NASALib/extended_nnreal</title>
<path fill="none" stroke="black" d="M617,-540C617,-540 623.38,-517.66 628.94,-498.22"/>
<polygon fill="black" stroke="black" points="632.26,-499.34 631.64,-488.76 625.53,-497.41 632.26,-499.34"/>
</g>
<!-- NASALib/measure_integration -->
<g id="node9" class="node">
<title>NASALib/measure_integration</title>
<polygon fill="#fcfcd7" stroke="black" points="598,-559 470,-559 470,-523 598,-523 598,-559"/>
<text text-anchor="middle" x="534" y="-537.3" font-family="Times,serif" font-size="14.00">measure_integration</text>
</g>
<!-- NASALib/lebesgue&#45;&gt;NASALib/measure_integration -->
<g id="edge31" class="edge">
<title>NASALib/lebesgue&#45;&gt;NASALib/measure_integration</title>
<path fill="none" stroke="black" d="M534,-594.7C534,-587.41 534,-578.73 534,-570.54"/>
<polygon fill="black" stroke="black" points="537.5,-570.62 534,-560.62 530.5,-570.62 537.5,-570.62"/>
</g>
<!-- NASALib/metric_space -->
<g id="node10" class="node">
<title>NASALib/metric_space</title>
<polygon fill="#fcfcd7" stroke="black" points="485.5,-487 396.5,-487 396.5,-451 485.5,-451 485.5,-487"/>
<text text-anchor="middle" x="441" y="-465.3" font-family="Times,serif" font-size="14.00">metric_space</text>
</g>
<!-- NASALib/lebesgue&#45;&gt;NASALib/metric_space -->
<g id="edge32" class="edge">
<title>NASALib/lebesgue&#45;&gt;NASALib/metric_space</title>
<path fill="none" stroke="black" d="M451,-540C451,-540 447.84,-517.87 445.07,-498.5"/>
<polygon fill="black" stroke="black" points="448.57,-498.21 443.69,-488.8 441.64,-499.2 448.57,-498.21"/>
</g>
<!-- NASALib/power -->
<g id="node12" class="node">
<title>NASALib/power</title>
<polygon fill="#fcfcd7" stroke="black" points="416,-415 362,-415 362,-379 416,-379 416,-415"/>
<text text-anchor="middle" x="389" y="-393.3" font-family="Times,serif" font-size="14.00">power</text>
</g>
<!-- NASALib/lebesgue&#45;&gt;NASALib/power -->
<g id="edge33" class="edge">
<title>NASALib/lebesgue&#45;&gt;NASALib/power</title>
<path fill="none" stroke="black" d="M451,-540C451,-540 388,-487 388,-487 388,-487 388,-451 388,-451 388,-451 388.22,-439.17 388.46,-426.68"/>
<polygon fill="black" stroke="black" points="391.95,-426.93 388.64,-416.87 384.96,-426.8 391.95,-426.93"/>
<path fill="none" stroke="black" d="M510.1,-594.65C488.81,-579.19 461,-559 461,-559 461,-559 451,-542 451,-542"/>
</g>
<!-- NASALib/sets_aux -->
<g id="node15" class="node">
<title>NASALib/sets_aux</title>
<polygon fill="#fcfcd7" stroke="black" points="621.5,-343 558.5,-343 558.5,-307 621.5,-307 621.5,-343"/>
<text text-anchor="middle" x="590" y="-321.3" font-family="Times,serif" font-size="14.00">sets_aux</text>
</g>
<!-- NASALib/lebesgue&#45;&gt;NASALib/sets_aux -->
<g id="edge35" class="edge">
<title>NASALib/lebesgue&#45;&gt;NASALib/sets_aux</title>
<path fill="none" stroke="black" d="M565,-468C565,-468 575,-451 575,-451 575,-451 604,-415 604,-415 604,-415 604,-379 604,-379 604,-379 600.81,-366.92 597.48,-354.3"/>
<polygon fill="black" stroke="black" points="600.91,-353.59 594.97,-344.82 594.14,-355.38 600.91,-353.59"/>
</g>
<!-- NASALib/lebesgue&#45;&gt;NASALib/sigma_set -->
<g id="edge36" class="edge">
<title>NASALib/lebesgue&#45;&gt;NASALib/sigma_set</title>
<path fill="none" stroke="black" d="M562.81,-594.65C588.48,-579.19 622,-559 622,-559 622,-559 699,-487 699,-487 699,-487 704.83,-452.42 709.22,-426.37"/>
<polygon fill="black" stroke="black" points="712.65,-427.1 710.86,-416.65 705.74,-425.93 712.65,-427.1"/>
</g>
<!-- NASALib/lebesgue&#45;&gt;NASALib/structures -->
<g id="edge37" class="edge">
<title>NASALib/lebesgue&#45;&gt;NASALib/structures</title>
<path fill="none" stroke="black" d="M557.9,-594.65C579.19,-579.19 607,-559 607,-559 607,-559 617,-542 617,-542"/>
<path fill="none" stroke="black" d="M617,-540C617,-540 607,-523 607,-523 607,-523 575,-487 575,-487 575,-487 565,-470 565,-470"/>
<path fill="none" stroke="black" d="M565,-468C565,-468 539,-326 539,-326"/>
</g>
<!-- NASALib/topology -->
<g id="node18" class="node">
<title>NASALib/topology</title>
<polygon fill="#fcfcd7" stroke="black" points="519.5,-415 454.5,-415 454.5,-379 519.5,-379 519.5,-415"/>
<text text-anchor="middle" x="487" y="-393.3" font-family="Times,serif" font-size="14.00">topology</text>
</g>
<!-- NASALib/lebesgue&#45;&gt;NASALib/topology -->
<g id="edge38" class="edge">
<title>NASALib/lebesgue&#45;&gt;NASALib/topology</title>
<path fill="none" stroke="black" d="M451,-540C451,-540 461,-523 461,-523 461,-523 495,-487 495,-487 495,-487 495,-451 495,-451 495,-451 493.21,-439.17 491.33,-426.68"/>
<polygon fill="black" stroke="black" points="494.8,-426.22 489.85,-416.85 487.88,-427.26 494.8,-426.22"/>
</g>
<!-- NASALib/lnexp&#45;&gt;NASALib/analysis -->
<g id="edge39" class="edge">
<title>NASALib/lnexp&#45;&gt;NASALib/analysis</title>
<path fill="none" stroke="black" d="M235.25,-343.41C235.66,-372.89 236.49,-431.82 236.84,-456.6"/>
<polygon fill="black" stroke="black" points="233.34,-456.54 236.98,-466.49 240.34,-456.44 233.34,-456.54"/>
<path fill="none" stroke="black" d="M237,-470C237,-470 257,-684 257,-684"/>
</g>
<!-- NASALib/lnexp&#45;&gt;NASALib/ints -->
<g id="edge40" class="edge">
<title>NASALib/lnexp&#45;&gt;NASALib/ints</title>
<path fill="none" stroke="black" d="M239.39,-306.77C249.96,-265.24 276,-163 276,-163 276,-163 301,-110 301,-110"/>
</g>
<!-- NASALib/lnexp&#45;&gt;NASALib/reals -->
<g id="edge41" class="edge">
<title>NASALib/lnexp&#45;&gt;NASALib/reals</title>
<path fill="none" stroke="black" d="M237,-470C237,-470 282.05,-616.07 297.71,-666.85"/>
</g>
<!-- NASALib/lnexp&#45;&gt;NASALib/series -->
<g id="edge42" class="edge">
<title>NASALib/lnexp&#45;&gt;NASALib/series</title>
<path fill="none" stroke="black" d="M262.39,-314.41C297.23,-302.22 357.57,-281.1 396.88,-267.34"/>
<polygon fill="black" stroke="black" points="397.91,-270.69 406.19,-264.08 395.6,-264.08 397.91,-270.69"/>
</g>
<!-- NASALib/measure_integration&#45;&gt;NASALib/extended_nnreal -->
<g id="edge43" class="edge">
<title>NASALib/measure_integration&#45;&gt;NASALib/extended_nnreal</title>
<path fill="none" stroke="black" d="M559.73,-522.52C572.6,-513.76 588.38,-503.04 602.31,-493.58"/>
<polygon fill="black" stroke="black" points="604.05,-496.63 610.35,-488.11 600.11,-490.84 604.05,-496.63"/>
</g>
<!-- NASALib/measure_integration&#45;&gt;NASALib/metric_space -->
<g id="edge44" class="edge">
<title>NASALib/measure_integration&#45;&gt;NASALib/metric_space</title>
<path fill="none" stroke="black" d="M511.01,-522.7C499.61,-514.11 485.65,-503.61 473.2,-494.24"/>
<polygon fill="black" stroke="black" points="475.35,-491.47 465.26,-488.26 471.14,-497.07 475.35,-491.47"/>
</g>
<!-- NASALib/measure_integration&#45;&gt;NASALib/orders -->
<g id="edge45" class="edge">
<title>NASALib/measure_integration&#45;&gt;NASALib/orders</title>
<path fill="none" stroke="black" d="M599,-396C599,-396 631,-343 631,-343 631,-343 661,-254 661,-254"/>
<path fill="none" stroke="black" d="M661,-252C661,-252 633.95,-227.09 612.13,-206.98"/>
<polygon fill="black" stroke="black" points="614.63,-204.53 604.9,-200.33 609.88,-209.68 614.63,-204.53"/>
</g>
<!-- NASALib/measure_integration&#45;&gt;NASALib/power -->
<g id="edge46" class="edge">
<title>NASALib/measure_integration&#45;&gt;NASALib/power</title>
<path fill="none" stroke="black" d="M526.48,-522.84C515.15,-496.98 495,-451 495,-451 495,-451 456.82,-431.91 426.29,-416.65"/>
<polygon fill="black" stroke="black" points="428.16,-413.67 417.65,-412.33 425.03,-419.93 428.16,-413.67"/>
</g>
<!-- NASALib/measure_integration&#45;&gt;NASALib/reals -->
<g id="edge47" class="edge">
<title>NASALib/measure_integration&#45;&gt;NASALib/reals</title>
<path fill="none" stroke="black" d="M509.21,-559.37C472.25,-585.27 407,-631 407,-631 407,-631 370.3,-649.7 340.51,-664.89"/>
<polygon fill="black" stroke="black" points="338.99,-661.73 331.67,-669.39 342.17,-667.97 338.99,-661.73"/>
</g>
<!-- NASALib/measure_integration&#45;&gt;NASALib/series -->
<g id="edge48" class="edge">
<title>NASALib/measure_integration&#45;&gt;NASALib/series</title>
<path fill="none" stroke="black" d="M539,-396C539,-396 519,-326 519,-326"/>
<path fill="none" stroke="black" d="M545,-468C545,-468 539,-398 539,-398"/>
<path fill="none" stroke="black" d="M519,-324C519,-324 488.57,-298.64 464.34,-278.45"/>
<polygon fill="black" stroke="black" points="466.85,-275.99 456.93,-272.27 462.37,-281.36 466.85,-275.99"/>
</g>
<!-- NASALib/measure_integration&#45;&gt;NASALib/sets_aux -->
<g id="edge49" class="edge">
<title>NASALib/measure_integration&#45;&gt;NASALib/sets_aux</title>
<path fill="none" stroke="black" d="M545,-468C545,-468 599,-398 599,-398"/>
<path fill="none" stroke="black" d="M599,-396C599,-396 596.15,-373.87 593.66,-354.5"/>
<polygon fill="black" stroke="black" points="597.16,-354.28 592.42,-344.8 590.22,-355.17 597.16,-354.28"/>
</g>
<!-- NASALib/measure_integration&#45;&gt;NASALib/sigma_set -->
<g id="edge50" class="edge">
<title>NASALib/measure_integration&#45;&gt;NASALib/sigma_set</title>
<path fill="none" stroke="black" d="M545,-468C545,-468 560,-451 560,-451 560,-451 622.12,-429.62 667.46,-414.02"/>
<polygon fill="black" stroke="black" points="668.53,-417.35 676.85,-410.79 666.26,-410.73 668.53,-417.35"/>
</g>
<!-- NASALib/measure_integration&#45;&gt;NASALib/structures -->
<g id="edge51" class="edge">
<title>NASALib/measure_integration&#45;&gt;NASALib/structures</title>
<path fill="none" stroke="black" d="M539,-324C539,-324 539,-254 539,-254"/>
<path fill="none" stroke="black" d="M539,-396C539,-396 539,-326 539,-326"/>
</g>
<!-- NASALib/measure_integration&#45;&gt;NASALib/topology -->
<g id="edge52" class="edge">
<title>NASALib/measure_integration&#45;&gt;NASALib/topology</title>
<path fill="none" stroke="black" d="M536.72,-522.7C539.98,-501.97 545,-470 545,-470"/>
<path fill="none" stroke="black" d="M545,-468C545,-468 525.08,-443.96 508.59,-424.06"/>
<polygon fill="black" stroke="black" points="511.38,-421.94 502.3,-416.47 505.99,-426.4 511.38,-421.94"/>
</g>
<!-- NASALib/measure_integration&#45;&gt;lib/finite_sets -->
<g id="edge53" class="edge">
<title>NASALib/measure_integration&#45;&gt;lib/finite_sets</title>
<path fill="none" stroke="black" d="M598.41,-525.96C606.5,-524.2 612,-523 612,-523 612,-523 822,-487 822,-487 822,-487 838,-470 838,-470"/>
<path fill="none" stroke="black" d="M838,-468C838,-468 838,-398 838,-398"/>
</g>
<!-- NASALib/metric_space&#45;&gt;NASALib/analysis -->
<g id="edge54" class="edge">
<title>NASALib/metric_space&#45;&gt;NASALib/analysis</title>
<path fill="none" stroke="black" d="M441.96,-487.16C443.42,-513.02 446,-559 446,-559 446,-559 493,-631 493,-631 493,-631 515.58,-660.19 527.23,-675.25"/>
<polygon fill="black" stroke="black" points="524.19,-677.03 533.07,-682.8 529.72,-672.75 524.19,-677.03"/>
<path fill="none" stroke="black" d="M534,-686C534,-686 429.35,-724.97 376.21,-744.75"/>
</g>
<!-- NASALib/metric_space&#45;&gt;NASALib/power -->
<g id="edge55" class="edge">
<title>NASALib/metric_space&#45;&gt;NASALib/power</title>
<path fill="none" stroke="black" d="M428.15,-450.7C422.23,-442.73 415.07,-433.1 408.51,-424.26"/>
<polygon fill="black" stroke="black" points="411.38,-422.26 402.61,-416.32 405.76,-426.43 411.38,-422.26"/>
</g>
<!-- NASALib/metric_space&#45;&gt;NASALib/series -->
<g id="edge57" class="edge">
<title>NASALib/metric_space&#45;&gt;NASALib/series</title>
<path fill="none" stroke="black" d="M440.52,-450.85C439.49,-414.14 437.07,-327.66 435.8,-282.53"/>
<polygon fill="black" stroke="black" points="439.3,-282.64 435.53,-272.75 432.31,-282.84 439.3,-282.64"/>
</g>
<!-- NASALib/metric_space&#45;&gt;NASALib/sets_aux -->
<g id="edge58" class="edge">
<title>NASALib/metric_space&#45;&gt;NASALib/sets_aux</title>
<path fill="none" stroke="black" d="M469.81,-450.65C495.48,-435.19 529,-415 529,-415 529,-415 553.78,-378.85 571.75,-352.63"/>
<polygon fill="black" stroke="black" points="574.62,-354.64 577.38,-344.41 568.84,-350.68 574.62,-354.64"/>
</g>
<!-- NASALib/metric_space&#45;&gt;NASALib/topology -->
<g id="edge59" class="edge">
<title>NASALib/metric_space&#45;&gt;NASALib/topology</title>
<path fill="none" stroke="black" d="M452.37,-450.7C457.55,-442.81 463.8,-433.3 469.56,-424.55"/>
<polygon fill="black" stroke="black" points="472.36,-426.65 474.93,-416.37 466.51,-422.8 472.36,-426.65"/>
</g>
<!-- NASALib/metric_space&#45;&gt;NASALib/vectors -->
<g id="edge60" class="edge">
<title>NASALib/metric_space&#45;&gt;NASALib/vectors</title>
<path fill="none" stroke="black" d="M409.78,-450.52C392.82,-441.02 371.71,-429.2 353.82,-419.18"/>
<polygon fill="black" stroke="black" points="356.02,-416.4 345.58,-414.57 352.6,-422.51 356.02,-416.4"/>
</g>
<!-- NASALib/metric_space&#45;&gt;lib/finite_sets -->
<g id="edge61" class="edge">
<title>NASALib/metric_space&#45;&gt;lib/finite_sets</title>
<path fill="none" stroke="black" d="M838,-396C838,-396 838,-254 838,-254"/>
<path fill="none" stroke="black" d="M485.87,-460.3C512.06,-455.8 540,-451 540,-451 540,-451 759,-415 759,-415 759,-415 838,-398 838,-398"/>
</g>
<!-- NASALib/orders&#45;&gt;NASALib/structures -->
<g id="edge62" class="edge">
<title>NASALib/orders&#45;&gt;NASALib/structures</title>
<path fill="none" stroke="black" d="M557.88,-168.76C550.26,-165.59 544,-163 544,-163 544,-163 456.67,-138.51 400.74,-122.83"/>
<polygon fill="black" stroke="black" points="401.7,-119.46 391.12,-120.13 399.81,-126.2 401.7,-119.46"/>
</g>
<!-- NASALib/orders&#45;&gt;lib/finite_sets -->
<g id="edge63" class="edge">
<title>NASALib/orders&#45;&gt;lib/finite_sets</title>
<path fill="none" stroke="black" d="M838,-108C838,-108 848.84,-83.26 857.91,-62.59"/>
<polygon fill="black" stroke="black" points="861,-64.25 861.81,-53.69 854.59,-61.44 861,-64.25"/>
<path fill="none" stroke="black" d="M612.08,-172.51C677.34,-154.45 838,-110 838,-110"/>
</g>
<!-- NASALib/power&#45;&gt;NASALib/analysis -->
<g id="edge64" class="edge">
<title>NASALib/power&#45;&gt;NASALib/analysis</title>
<path fill="none" stroke="black" d="M376.15,-415.3C365.92,-429.07 352.01,-447.79 343.82,-458.82"/>
<polygon fill="black" stroke="black" points="341.06,-456.67 337.9,-466.79 346.68,-460.84 341.06,-456.67"/>
<path fill="none" stroke="black" d="M337,-470C337,-470 282,-631 282,-631 282,-631 257,-684 257,-684"/>
</g>
<!-- NASALib/power&#45;&gt;NASALib/lnexp -->
<g id="edge65" class="edge">
<title>NASALib/power&#45;&gt;NASALib/lnexp</title>
<path fill="none" stroke="black" d="M361.71,-383.12C356.69,-380.74 353,-379 353,-379 353,-379 307.19,-358.43 272.66,-342.92"/>
<polygon fill="black" stroke="black" points="274.3,-339.82 263.75,-338.91 271.44,-346.2 274.3,-339.82"/>
</g>
<!-- NASALib/power&#45;&gt;NASALib/reals -->
<g id="edge66" class="edge">
<title>NASALib/power&#45;&gt;NASALib/reals</title>
<path fill="none" stroke="black" d="M337,-470C337,-470 357,-540 357,-540"/>
</g>
<!-- NASALib/reals&#45;&gt;NASALib/ints -->
<g id="edge67" class="edge">
<title>NASALib/reals&#45;&gt;NASALib/ints</title>
<path fill="none" stroke="black" d="M163,-252C163,-252 163,-182 163,-182"/>
<path fill="none" stroke="black" d="M286.96,-666.65C272.67,-651.19 254,-631 254,-631 254,-631 192,-559 192,-559 192,-559 117,-470 117,-470 117,-470 117,-470 117,-396 117,-396 127,-307 127,-307 127,-307 163,-254 163,-254"/>
</g>
<!-- NASALib/reals&#45;&gt;NASALib/lebesgue -->
<g id="edge68" class="edge">
<title>NASALib/reals&#45;&gt;NASALib/lebesgue</title>
<path fill="none" stroke="black" d="M341.16,-672.44C382.35,-659.96 447.82,-640.12 490.85,-627.08"/>
<polygon fill="black" stroke="black" points="340.41,-669.01 331.85,-675.26 342.44,-675.71 340.41,-669.01"/>
<polygon fill="black" stroke="black" points="491.81,-630.44 500.37,-624.19 489.78,-623.74 491.81,-630.44"/>
</g>
<!-- NASALib/reals&#45;&gt;NASALib/metric_space -->
<g id="edge69" class="edge">
<title>NASALib/reals&#45;&gt;NASALib/metric_space</title>
<path fill="none" stroke="black" d="M330.66,-659.15C346,-645.37 362,-631 362,-631 362,-631 405,-543.38 427.55,-497.41"/>
<polygon fill="black" stroke="black" points="328.55,-656.35 323.44,-665.63 333.22,-661.56 328.55,-656.35"/>
<polygon fill="black" stroke="black" points="430.62,-499.11 431.88,-488.59 424.33,-496.02 430.62,-499.11"/>
</g>
<!-- NASALib/reals&#45;&gt;NASALib/sets_aux -->
<g id="edge70" class="edge">
<title>NASALib/reals&#45;&gt;NASALib/sets_aux</title>
<path fill="none" stroke="black" d="M330.35,-678.97C402.24,-665.74 591,-631 591,-631 591,-631 699,-487 699,-487 699,-487 699,-451 699,-451 699,-451 644.24,-388.2 612.35,-351.63"/>
<polygon fill="black" stroke="black" points="615.36,-349.76 606.15,-344.52 610.09,-354.36 615.36,-349.76"/>
</g>
<!-- NASALib/reals&#45;&gt;NASALib/structures -->
<g id="edge71" class="edge">
<title>NASALib/reals&#45;&gt;NASALib/structures</title>
<path fill="none" stroke="black" d="M301.21,-666.76C295.03,-607.39 275,-415 275,-415 275,-415 275,-379 275,-379 275,-379 339,-163 339,-163 339,-163 342.65,-150.92 346.46,-138.3"/>
<polygon fill="black" stroke="black" points="349.78,-139.39 349.32,-128.8 343.08,-137.36 349.78,-139.39"/>
</g>
<!-- NASALib/series&#45;&gt;NASALib/analysis -->
<g id="edge72" class="edge">
<title>NASALib/series&#45;&gt;NASALib/analysis</title>
<path fill="none" stroke="black" d="M462.41,-260.29C523.6,-274.33 666,-307 666,-307 666,-307 759,-379 759,-379 759,-379 765.04,-432.78 767.73,-456.73"/>
<polygon fill="black" stroke="black" points="764.24,-456.95 768.83,-466.5 771.19,-456.17 764.24,-456.95"/>
</g>
<!-- NASALib/series&#45;&gt;NASALib/ints -->
<g id="edge73" class="edge">
<title>NASALib/series&#45;&gt;NASALib/ints</title>
<path fill="none" stroke="black" d="M407.69,-237.38C378.38,-221.69 336,-199 336,-199 336,-199 301,-110 301,-110"/>
</g>
<!-- NASALib/series&#45;&gt;NASALib/orders -->
<g id="edge74" class="edge">
<title>NASALib/series&#45;&gt;NASALib/orders</title>
<path fill="none" stroke="black" d="M462.16,-239.32C485.91,-228.24 520.63,-212.04 547.11,-199.68"/>
<polygon fill="black" stroke="black" points="548.58,-202.86 556.16,-195.46 545.62,-196.52 548.58,-202.86"/>
</g>
<!-- NASALib/series&#45;&gt;NASALib/reals -->
<g id="edge75" class="edge">
<title>NASALib/series&#45;&gt;NASALib/reals</title>
<path fill="none" stroke="black" d="M357,-614C357,-614 332.34,-645.97 316.35,-666.7"/>
<path fill="none" stroke="black" d="M413.31,-271.38C370.44,-305.73 279,-379 279,-379 279,-379 279,-415 279,-415 279,-415 336.6,-560.49 352.81,-601.41"/>
<polygon fill="black" stroke="black" points="349.51,-602.58 356.44,-610.59 356.02,-600.01 349.51,-602.58"/>
</g>
<!-- NASALib/sets_aux&#45;&gt;NASALib/ints -->
<g id="edge76" class="edge">
<title>NASALib/sets_aux&#45;&gt;NASALib/ints</title>
<path fill="none" stroke="black" d="M582.34,-306.7C573.16,-285.97 559,-254 559,-254"/>
<path fill="none" stroke="black" d="M559,-252C559,-252 312,-127 312,-127 312,-127 301,-110 301,-110"/>
</g>
<!-- NASALib/sets_aux&#45;&gt;NASALib/orders -->
<g id="edge77" class="edge">
<title>NASALib/sets_aux&#45;&gt;NASALib/orders</title>
<path fill="none" stroke="black" d="M559,-252C559,-252 567.37,-229.45 574.62,-209.95"/>
<polygon fill="black" stroke="black" points="577.85,-211.32 578.05,-200.72 571.28,-208.88 577.85,-211.32"/>
</g>
<!-- NASALib/sets_aux&#45;&gt;NASALib/structures -->
<g id="edge78" class="edge">
<title>NASALib/sets_aux&#45;&gt;NASALib/structures</title>
<path fill="none" stroke="black" d="M559,-252C559,-252 539,-182 539,-182"/>
</g>
<!-- NASALib/sets_aux&#45;&gt;lib/finite_sets -->
<g id="edge79" class="edge">
<title>NASALib/sets_aux&#45;&gt;lib/finite_sets</title>
<path fill="none" stroke="black" d="M621.91,-314.99C688.89,-296.09 838,-254 838,-254"/>
<path fill="none" stroke="black" d="M838,-252C838,-252 838,-110 838,-110"/>
</g>
<!-- NASALib/sigma_set&#45;&gt;NASALib/analysis -->
<g id="edge80" class="edge">
<title>NASALib/sigma_set&#45;&gt;NASALib/analysis</title>
<path fill="none" stroke="black" d="M769,-470C769,-470 769,-612 769,-612"/>
<path fill="none" stroke="black" d="M727.6,-415.3C738.54,-429.23 753.47,-448.23 762.09,-459.2"/>
<polygon fill="black" stroke="black" points="759.13,-461.11 768.06,-466.81 764.64,-456.78 759.13,-461.11"/>
</g>
<!-- NASALib/sigma_set&#45;&gt;NASALib/orders -->
<g id="edge81" class="edge">
<title>NASALib/sigma_set&#45;&gt;NASALib/orders</title>
<path fill="none" stroke="black" d="M661,-324C661,-324 661,-254 661,-254"/>
</g>
<!-- NASALib/sigma_set&#45;&gt;NASALib/reals -->
<g id="edge82" class="edge">
<title>NASALib/sigma_set&#45;&gt;NASALib/reals</title>
<path fill="none" stroke="black" d="M714,-415.13C714,-468.94 714,-631 714,-631 714,-631 443.89,-665.83 341.62,-679.02"/>
<polygon fill="black" stroke="black" points="341.26,-675.54 331.79,-680.29 342.15,-682.48 341.26,-675.54"/>
</g>
<!-- NASALib/sigma_set&#45;&gt;NASALib/series -->
<g id="edge83" class="edge">
<title>NASALib/sigma_set&#45;&gt;NASALib/series</title>
<path fill="none" stroke="black" d="M700.9,-378.7C685.2,-357.97 661,-326 661,-326"/>
<path fill="none" stroke="black" d="M661,-324C661,-324 631,-307 631,-307 631,-307 530.02,-279.69 473.02,-264.28"/>
<polygon fill="black" stroke="black" points="474.28,-261 463.71,-261.76 472.45,-267.75 474.28,-261"/>
</g>
<!-- NASALib/sigma_set&#45;&gt;NASALib/sets_aux -->
<g id="edge84" class="edge">
<title>NASALib/sigma_set&#45;&gt;NASALib/sets_aux</title>
<path fill="none" stroke="black" d="M683.03,-378.52C667.08,-369.51 647.44,-358.42 630.32,-348.76"/>
<polygon fill="black" stroke="black" points="632.32,-345.87 621.89,-344 628.88,-351.97 632.32,-345.87"/>
</g>
<!-- NASALib/structures&#45;&gt;NASALib/ints -->
<g id="edge85" class="edge">
<title>NASALib/structures&#45;&gt;NASALib/ints</title>
<path fill="none" stroke="black" d="M348.6,-90.7C345.56,-82.49 341.86,-72.46 338.43,-63.19"/>
<polygon fill="black" stroke="black" points="341.72,-62.01 334.97,-53.85 335.16,-64.44 341.72,-62.01"/>
</g>
<!-- NASALib/structures&#45;&gt;lib/finite_sets -->
<g id="edge86" class="edge">
<title>NASALib/structures&#45;&gt;lib/finite_sets</title>
<path fill="none" stroke="black" d="M389.72,-106.14C497.95,-100.35 822,-83 822,-83 822,-83 833.17,-71.83 844.73,-60.27"/>
<polygon fill="black" stroke="black" points="847,-62.95 851.6,-53.4 842.05,-58 847,-62.95"/>
</g>
<!-- NASALib/topology&#45;&gt;NASALib/reals -->
<g id="edge87" class="edge">
<title>NASALib/topology&#45;&gt;NASALib/reals</title>
<path fill="none" stroke="black" d="M454.58,-415.35C425.71,-430.81 388,-451 388,-451 388,-451 368.89,-505.87 360.68,-529.44"/>
<polygon fill="black" stroke="black" points="357.48,-527.98 357.5,-538.57 364.09,-530.28 357.48,-527.98"/>
</g>
<!-- NASALib/topology&#45;&gt;NASALib/sets_aux -->
<g id="edge88" class="edge">
<title>NASALib/topology&#45;&gt;NASALib/sets_aux</title>
<path fill="none" stroke="black" d="M512.73,-378.52C525.6,-369.76 541.38,-359.04 555.31,-349.58"/>
<polygon fill="black" stroke="black" points="557.05,-352.63 563.35,-344.11 553.11,-346.84 557.05,-352.63"/>
</g>
<!-- NASALib/topology&#45;&gt;NASALib/structures -->
<g id="edge89" class="edge">
<title>NASALib/topology&#45;&gt;NASALib/structures</title>
<path fill="none" stroke="black" d="M493.38,-378.59C507.26,-340.67 539,-254 539,-254"/>
<path fill="none" stroke="black" d="M539,-180C539,-180 454.55,-147.87 400.07,-127.15"/>
<polygon fill="black" stroke="black" points="401.61,-123.99 391.02,-123.7 399.13,-130.53 401.61,-123.99"/>
<path fill="none" stroke="black" d="M539,-252C539,-252 539,-182 539,-182"/>
</g>
<!-- NASALib/trig&#45;&gt;NASALib/analysis -->
<g id="edge90" class="edge">
<title>NASALib/trig&#45;&gt;NASALib/analysis</title>
<path fill="none" stroke="black" d="M166.46,-343.3C169.05,-356.26 172.52,-373.6 174.76,-384.79"/>
<polygon fill="black" stroke="black" points="171.31,-385.4 176.7,-394.52 178.17,-384.02 171.31,-385.4"/>
<path fill="none" stroke="black" d="M257,-686C257,-686 267,-703 267,-703 267,-703 297.09,-723.19 320.13,-738.65"/>
<path fill="none" stroke="black" d="M177,-398C177,-398 192,-559 192,-559 192,-559 257,-684 257,-684"/>
</g>
<!-- NASALib/trig&#45;&gt;NASALib/ints -->
<g id="edge91" class="edge">
<title>NASALib/trig&#45;&gt;NASALib/ints</title>
<path fill="none" stroke="black" d="M163,-306.7C163,-285.97 163,-254 163,-254"/>
</g>
<!-- NASALib/trig&#45;&gt;NASALib/reals -->
<g id="edge92" class="edge">
<title>NASALib/trig&#45;&gt;NASALib/reals</title>
<path fill="none" stroke="black" d="M177,-398C177,-398 272,-631 272,-631 272,-631 283.81,-651.19 292.85,-666.65"/>
</g>
<!-- NASALib/trig&#45;&gt;NASALib/series -->
<g id="edge93" class="edge">
<title>NASALib/trig&#45;&gt;NASALib/series</title>
<path fill="none" stroke="black" d="M190.29,-311.12C195.31,-308.74 199,-307 199,-307 199,-307 330.31,-277.51 397.03,-262.53"/>
<polygon fill="black" stroke="black" points="397.46,-266.02 406.45,-260.41 395.93,-259.19 397.46,-266.02"/>
</g>
<!-- NASALib/vectors&#45;&gt;NASALib/reals -->
<g id="edge94" class="edge">
<title>NASALib/vectors&#45;&gt;NASALib/reals</title>
<path fill="none" stroke="black" d="M319.08,-415.16C323.73,-441.02 332,-487 332,-487 332,-487 344.92,-514.38 352.18,-529.78"/>
<polygon fill="black" stroke="black" points="348.92,-531.08 356.35,-538.63 355.25,-528.09 348.92,-531.08"/>
<path fill="none" stroke="black" d="M357,-542C357,-542 357,-612 357,-612"/>
</g>
<!-- NASALib/vectors&#45;&gt;NASALib/structures -->
<g id="edge95" class="edge">
<title>NASALib/vectors&#45;&gt;NASALib/structures</title>
<path fill="none" stroke="black" d="M318.38,-378.54C324.9,-330.76 343.07,-197.51 351.1,-138.61"/>
<polygon fill="black" stroke="black" points="354.56,-139.11 352.45,-128.73 347.63,-138.17 354.56,-139.11"/>
</g>
<!-- NASALib/vectors&#45;&gt;NASALib/trig -->
<g id="edge96" class="edge">
<title>NASALib/vectors&#45;&gt;NASALib/trig</title>
<path fill="none" stroke="black" d="M287.68,-383.17C260.08,-370.67 220.16,-352.58 200.66,-343.67"/>
<polygon fill="black" stroke="black" points="202.21,-340.53 191.66,-339.52 199.28,-346.88 202.21,-340.53"/>
</g>
</g>
</svg>
