<?xml version="1.0" encoding="UTF-8" standalone="no"?>
<!DOCTYPE svg PUBLIC "-//W3C//DTD SVG 1.1//EN"
 "http://www.w3.org/Graphics/SVG/1.1/DTD/svg11.dtd">
<!-- Generated by graphviz version 8.1.0 (20230707.0739)
 -->
<!-- Title: Riemann Pages: 1 -->
<svg width="355pt" height="761pt"
 viewBox="0.00 0.00 355.00 761.00" xmlns="http://www.w3.org/2000/svg" xmlns:xlink="http://www.w3.org/1999/xlink">
<g id="graph0" class="graph" transform="scale(1 1) rotate(0) translate(4 757)">
<title>Riemann</title>
<polygon fill="white" stroke="none" points="-4,4 -4,-757 351,-757 351,4 -4,4"/>
<g id="clust1" class="cluster">
<title>cluster_NASALib</title>
<polygon fill="none" stroke="black" points="8,-92.5 8,-745 327,-745 327,-92.5 8,-92.5"/>
<text text-anchor="middle" x="167.5" y="-727.7" font-family="Times,serif" font-size="14.00">NASALib</text>
</g>
<g id="clust2" class="cluster">
<title>cluster_PVS Prelude</title>
<polygon fill="none" stroke="black" points="223,-8 223,-84.5 311,-84.5 311,-8 223,-8"/>
<text text-anchor="middle" x="267" y="-67.2" font-family="Times,serif" font-size="14.00">PVS Prelude</text>
</g>
<!-- lib/finite_sets -->
<g id="node1" class="node">
<title>lib/finite_sets</title>
<polygon fill="#fcfcd7" stroke="black" points="302.75,-52 231.25,-52 231.25,-16 302.75,-16 302.75,-52"/>
<text text-anchor="middle" x="267" y="-28.95" font-family="Times,serif" font-size="14.00">finite_sets</text>
</g>
<!-- nasalib/Riemann -->
<g id="node2" class="node">
<title>nasalib/Riemann</title>
<polygon fill="#f7e28d" stroke="black" points="278.75,-640.5 213.25,-640.5 213.25,-604.5 278.75,-604.5 278.75,-640.5"/>
<text text-anchor="middle" x="246" y="-617.45" font-family="Times,serif" font-size="14.00">Riemann</text>
</g>
<!-- nasalib/analysis -->
<g id="node3" class="node">
<title>nasalib/analysis</title>
<polygon fill="#fcfcd7" stroke="black" points="258.75,-352.5 199.25,-352.5 199.25,-316.5 258.75,-316.5 258.75,-352.5"/>
<text text-anchor="middle" x="229" y="-329.45" font-family="Times,serif" font-size="14.00">analysis</text>
</g>
<!-- nasalib/Riemann&#45;&gt;nasalib/analysis -->
<g id="edge1" class="edge">
<title>nasalib/Riemann&#45;&gt;nasalib/analysis</title>
<path fill="none" stroke="black" d="M278,-549.5C278,-549.5 278,-407.5 278,-407.5"/>
<path fill="none" stroke="black" d="M278,-405.5C278,-405.5 261.17,-381.46 247.24,-361.56"/>
<polygon fill="black" stroke="black" points="249.71,-359.99 241.11,-353.8 243.98,-364 249.71,-359.99"/>
</g>
<!-- nasalib/interval_arith -->
<g id="node5" class="node">
<title>nasalib/interval_arith</title>
<polygon fill="#fcfcd7" stroke="black" points="230.38,-568.5 141.62,-568.5 141.62,-532.5 230.38,-532.5 230.38,-568.5"/>
<text text-anchor="middle" x="186" y="-545.45" font-family="Times,serif" font-size="14.00">interval_arith</text>
</g>
<!-- nasalib/Riemann&#45;&gt;nasalib/interval_arith -->
<g id="edge2" class="edge">
<title>nasalib/Riemann&#45;&gt;nasalib/interval_arith</title>
<path fill="none" stroke="black" d="M231.17,-604.2C224.12,-595.97 215.56,-585.98 207.79,-576.92"/>
<polygon fill="black" stroke="black" points="209.83,-574.92 200.66,-569.6 204.51,-579.47 209.83,-574.92"/>
</g>
<!-- nasalib/lnexp -->
<g id="node7" class="node">
<title>nasalib/lnexp</title>
<polygon fill="#fcfcd7" stroke="black" points="150,-496.5 96,-496.5 96,-460.5 150,-460.5 150,-496.5"/>
<text text-anchor="middle" x="123" y="-473.45" font-family="Times,serif" font-size="14.00">lnexp</text>
</g>
<!-- nasalib/Riemann&#45;&gt;nasalib/lnexp -->
<g id="edge3" class="edge">
<title>nasalib/Riemann&#45;&gt;nasalib/lnexp</title>
<path fill="none" stroke="black" d="M278,-549.5C278,-549.5 206.13,-517.04 160.27,-496.33"/>
<polygon fill="black" stroke="black" points="161.91,-492.78 151.35,-491.85 159.03,-499.16 161.91,-492.78"/>
<path fill="none" stroke="black" d="M253.91,-604.2C263.39,-583.47 278,-551.5 278,-551.5"/>
</g>
<!-- nasalib/reals -->
<g id="node9" class="node">
<title>nasalib/reals</title>
<polygon fill="#fcfcd7" stroke="black" points="207,-280.5 153,-280.5 153,-244.5 207,-244.5 207,-280.5"/>
<text text-anchor="middle" x="180" y="-257.45" font-family="Times,serif" font-size="14.00">reals</text>
</g>
<!-- nasalib/Riemann&#45;&gt;nasalib/reals -->
<g id="edge4" class="edge">
<title>nasalib/Riemann&#45;&gt;nasalib/reals</title>
<path fill="none" stroke="black" d="M278,-405.5C278,-405.5 268,-316.5 268,-316.5 268,-316.5 240.87,-300.16 216.74,-285.63"/>
<polygon fill="black" stroke="black" points="218.73,-282.14 208.36,-279.98 215.12,-288.14 218.73,-282.14"/>
</g>
<!-- nasalib/structures -->
<g id="node11" class="node">
<title>nasalib/structures</title>
<polygon fill="#fcfcd7" stroke="black" points="286.25,-208.5 217.75,-208.5 217.75,-172.5 286.25,-172.5 286.25,-208.5"/>
<text text-anchor="middle" x="252" y="-185.45" font-family="Times,serif" font-size="14.00">structures</text>
</g>
<!-- nasalib/Riemann&#45;&gt;nasalib/structures -->
<g id="edge5" class="edge">
<title>nasalib/Riemann&#45;&gt;nasalib/structures</title>
<path fill="none" stroke="black" d="M258.12,-604.15C268.91,-588.69 283,-568.5 283,-568.5 283,-568.5 298,-263.5 298,-263.5"/>
</g>
<!-- nasalib/trig -->
<g id="node12" class="node">
<title>nasalib/trig</title>
<polygon fill="#fcfcd7" stroke="black" points="259,-496.5 205,-496.5 205,-460.5 259,-460.5 259,-496.5"/>
<text text-anchor="middle" x="232" y="-473.45" font-family="Times,serif" font-size="14.00">trig</text>
</g>
<!-- nasalib/Riemann&#45;&gt;nasalib/trig -->
<g id="edge6" class="edge">
<title>nasalib/Riemann&#45;&gt;nasalib/trig</title>
<path fill="none" stroke="black" d="M278,-549.5C278,-549.5 262.34,-525.68 249.3,-505.83"/>
<polygon fill="black" stroke="black" points="251.79,-504.24 243.37,-497.8 245.94,-508.08 251.79,-504.24"/>
</g>
<!-- nasalib/analysis&#45;&gt;lib/finite_sets -->
<g id="edge7" class="edge">
<title>nasalib/analysis&#45;&gt;lib/finite_sets</title>
<path fill="none" stroke="black" d="M259.05,-317.88C289.14,-302.25 331,-280.5 331,-280.5 331,-280.5 347,-191.5 347,-191.5"/>
</g>
<!-- nasalib/ints -->
<g id="node6" class="node">
<title>nasalib/ints</title>
<polygon fill="#fcfcd7" stroke="black" points="279,-136.5 225,-136.5 225,-100.5 279,-100.5 279,-136.5"/>
<text text-anchor="middle" x="252" y="-113.45" font-family="Times,serif" font-size="14.00">ints</text>
</g>
<!-- nasalib/analysis&#45;&gt;nasalib/ints -->
<g id="edge8" class="edge">
<title>nasalib/analysis&#45;&gt;nasalib/ints</title>
<path fill="none" stroke="black" d="M318,-261.5C318,-261.5 295,-172.5 295,-172.5 295,-172.5 283.77,-158.65 272.78,-145.12"/>
<polygon fill="black" stroke="black" points="275.1,-143.41 266.08,-137.85 269.66,-147.82 275.1,-143.41"/>
<path fill="none" stroke="black" d="M253.23,-316.15C274.81,-300.69 303,-280.5 303,-280.5 303,-280.5 318,-263.5 318,-263.5"/>
</g>
<!-- nasalib/orders -->
<g id="node8" class="node">
<title>nasalib/orders</title>
<polygon fill="#fcfcd7" stroke="black" points="279,-280.5 225,-280.5 225,-244.5 279,-244.5 279,-280.5"/>
<text text-anchor="middle" x="252" y="-257.45" font-family="Times,serif" font-size="14.00">orders</text>
</g>
<!-- nasalib/analysis&#45;&gt;nasalib/orders -->
<g id="edge9" class="edge">
<title>nasalib/analysis&#45;&gt;nasalib/orders</title>
<path fill="none" stroke="black" d="M234.69,-316.2C237.19,-308.57 240.2,-299.42 243,-290.9"/>
<polygon fill="black" stroke="black" points="246.58,-292.2 246.38,-281.6 239.93,-290.01 246.58,-292.2"/>
</g>
<!-- nasalib/analysis&#45;&gt;nasalib/reals -->
<g id="edge10" class="edge">
<title>nasalib/analysis&#45;&gt;nasalib/reals</title>
<path fill="none" stroke="black" d="M216.89,-316.2C211.25,-308.14 204.43,-298.39 198.19,-289.48"/>
<polygon fill="black" stroke="black" points="200.58,-287.79 191.97,-281.6 194.84,-291.8 200.58,-287.79"/>
</g>
<!-- nasalib/analysis&#45;&gt;nasalib/structures -->
<g id="edge11" class="edge">
<title>nasalib/analysis&#45;&gt;nasalib/structures</title>
<path fill="none" stroke="black" d="M298,-261.5C298,-261.5 288,-244.5 288,-244.5 288,-244.5 278.95,-231.17 269.92,-217.88"/>
<polygon fill="black" stroke="black" points="272.3,-216.16 263.79,-209.85 266.51,-220.09 272.3,-216.16"/>
<path fill="none" stroke="black" d="M248.32,-316.15C265.53,-300.69 288,-280.5 288,-280.5 288,-280.5 298,-263.5 298,-263.5"/>
</g>
<!-- nasalib/examples -->
<g id="node4" class="node">
<title>nasalib/examples</title>
<polygon fill="#fcfcd7" stroke="black" points="279.88,-712.5 212.12,-712.5 212.12,-676.5 279.88,-676.5 279.88,-712.5"/>
<text text-anchor="middle" x="246" y="-689.45" font-family="Times,serif" font-size="14.00">examples</text>
</g>
<!-- nasalib/examples&#45;&gt;nasalib/Riemann -->
<g id="edge12" class="edge">
<title>nasalib/examples&#45;&gt;nasalib/Riemann</title>
<path fill="none" stroke="black" d="M246,-676.2C246,-668.74 246,-659.82 246,-651.47"/>
<polygon fill="black" stroke="black" points="249.5,-651.6 246,-641.6 242.5,-651.6 249.5,-651.6"/>
</g>
<!-- nasalib/examples&#45;&gt;nasalib/analysis -->
<g id="edge13" class="edge">
<title>nasalib/examples&#45;&gt;nasalib/analysis</title>
<path fill="none" stroke="black" d="M259.75,-676.15C272,-660.69 288,-640.5 288,-640.5 288,-640.5 298,-551.5 298,-551.5 298,-551.5 298,-551.5 298,-477.5 298,-477.5 283,-388.5 283,-388.5 283,-388.5 268.36,-374.13 254.32,-360.35"/>
<polygon fill="black" stroke="black" points="257.27,-358.36 247.68,-353.85 252.37,-363.36 257.27,-358.36"/>
</g>
<!-- nasalib/examples&#45;&gt;nasalib/interval_arith -->
<g id="edge14" class="edge">
<title>nasalib/examples&#45;&gt;nasalib/interval_arith</title>
<path fill="none" stroke="black" d="M190,-621.5C190,-621.5 188.72,-599.16 187.61,-579.72"/>
<polygon fill="black" stroke="black" points="191.05,-579.59 186.99,-569.8 184.07,-579.99 191.05,-579.59"/>
</g>
<!-- nasalib/examples&#45;&gt;nasalib/lnexp -->
<g id="edge15" class="edge">
<title>nasalib/examples&#45;&gt;nasalib/lnexp</title>
<path fill="none" stroke="black" d="M123,-549.5C123,-549.5 123,-527.16 123,-507.72"/>
<polygon fill="black" stroke="black" points="126.5,-507.8 123,-497.8 119.5,-507.8 126.5,-507.8"/>
</g>
<!-- nasalib/examples&#45;&gt;nasalib/reals -->
<g id="edge16" class="edge">
<title>nasalib/examples&#45;&gt;nasalib/reals</title>
<path fill="none" stroke="black" d="M97,-333.5C97,-333.5 127.33,-307.92 151.32,-287.69"/>
<polygon fill="black" stroke="black" points="153.1,-289.93 158.48,-280.8 148.58,-284.57 153.1,-289.93"/>
<path fill="none" stroke="black" d="M232.16,-676.2C215.57,-655.47 190,-623.5 190,-623.5"/>
<path fill="none" stroke="black" d="M123,-549.5C123,-549.5 72,-496.5 72,-496.5 72,-496.5 72,-460.5 72,-460.5 72,-460.5 81,-388.5 81,-388.5 81,-388.5 97,-335.5 97,-335.5"/>
<path fill="none" stroke="black" d="M190,-621.5C190,-621.5 133,-568.5 133,-568.5 133,-568.5 123,-551.5 123,-551.5"/>
</g>
<!-- nasalib/examples&#45;&gt;nasalib/trig -->
<g id="edge17" class="edge">
<title>nasalib/examples&#45;&gt;nasalib/trig</title>
<path fill="none" stroke="black" d="M190,-621.5C190,-621.5 204,-604.5 204,-604.5 204,-604.5 239,-568.5 239,-568.5 239,-568.5 239,-532.5 239,-532.5 239,-532.5 237.37,-520.18 235.69,-507.42"/>
<polygon fill="black" stroke="black" points="239.07,-507.31 234.29,-497.85 232.13,-508.23 239.07,-507.31"/>
</g>
<!-- nasalib/interval_arith&#45;&gt;nasalib/analysis -->
<g id="edge18" class="edge">
<title>nasalib/interval_arith&#45;&gt;nasalib/analysis</title>
<path fill="none" stroke="black" d="M187.93,-532.34C190.83,-506.48 196,-460.5 196,-460.5 196,-460.5 229,-407.5 229,-407.5"/>
</g>
<!-- nasalib/interval_arith&#45;&gt;nasalib/ints -->
<g id="edge19" class="edge">
<title>nasalib/interval_arith&#45;&gt;nasalib/ints</title>
<path fill="none" stroke="black" d="M148.67,-532.15C115.42,-516.69 72,-496.5 72,-496.5 72,-496.5 57,-335.5 57,-335.5"/>
<path fill="none" stroke="black" d="M114,-261.5C114,-261.5 114,-191.5 114,-191.5"/>
<path fill="none" stroke="black" d="M57,-333.5C57,-333.5 114,-263.5 114,-263.5"/>
<path fill="none" stroke="black" d="M114,-189.5C114,-189.5 174.18,-158.97 215.06,-138.24"/>
<polygon fill="black" stroke="black" points="216.4,-140.97 223.74,-133.33 213.23,-134.73 216.4,-140.97"/>
</g>
<!-- nasalib/interval_arith&#45;&gt;nasalib/lnexp -->
<g id="edge20" class="edge">
<title>nasalib/interval_arith&#45;&gt;nasalib/lnexp</title>
<path fill="none" stroke="black" d="M170.43,-532.2C162.95,-523.89 153.85,-513.78 145.63,-504.64"/>
<polygon fill="black" stroke="black" points="148.69,-502.7 139.39,-497.6 143.48,-507.38 148.69,-502.7"/>
</g>
<!-- nasalib/interval_arith&#45;&gt;nasalib/reals -->
<g id="edge21" class="edge">
<title>nasalib/interval_arith&#45;&gt;nasalib/reals</title>
<path fill="none" stroke="black" d="M77,-477.5C77,-477.5 97,-335.5 97,-335.5"/>
</g>
<!-- nasalib/interval_arith&#45;&gt;nasalib/structures -->
<g id="edge22" class="edge">
<title>nasalib/interval_arith&#45;&gt;nasalib/structures</title>
<path fill="none" stroke="black" d="M153.58,-532.15C124.71,-516.69 87,-496.5 87,-496.5 87,-496.5 77,-479.5 77,-479.5"/>
<path fill="none" stroke="black" d="M77,-477.5C77,-477.5 81,-388.5 81,-388.5 81,-388.5 92,-316.5 92,-316.5 92,-316.5 119,-280.5 119,-280.5 119,-280.5 144,-244.5 144,-244.5 144,-244.5 178.14,-227.75 208.02,-213.08"/>
<polygon fill="black" stroke="black" points="209.1,-215.96 216.53,-208.42 206.01,-209.68 209.1,-215.96"/>
</g>
<!-- nasalib/interval_arith&#45;&gt;nasalib/trig -->
<g id="edge23" class="edge">
<title>nasalib/interval_arith&#45;&gt;nasalib/trig</title>
<path fill="none" stroke="black" d="M197.37,-532.2C202.61,-524.23 208.93,-514.6 214.74,-505.76"/>
<polygon fill="black" stroke="black" points="218.19,-507.88 220.76,-497.6 212.34,-504.04 218.19,-507.88"/>
</g>
<!-- nasalib/ints&#45;&gt;lib/finite_sets -->
<g id="edge24" class="edge">
<title>nasalib/ints&#45;&gt;lib/finite_sets</title>
<path fill="none" stroke="black" d="M255.18,-100C257.13,-89.28 259.67,-75.32 261.89,-63.08"/>
<polygon fill="black" stroke="black" points="265.48,-63.94 263.82,-53.47 258.59,-62.68 265.48,-63.94"/>
</g>
<!-- nasalib/lnexp&#45;&gt;nasalib/analysis -->
<g id="edge25" class="edge">
<title>nasalib/lnexp&#45;&gt;nasalib/analysis</title>
<path fill="none" stroke="black" d="M229,-405.5C229,-405.5 229,-383.16 229,-363.72"/>
<polygon fill="black" stroke="black" points="232.5,-363.8 229,-353.8 225.5,-363.8 232.5,-363.8"/>
<path fill="none" stroke="black" d="M149.47,-460.02C180.87,-439.28 229,-407.5 229,-407.5"/>
</g>
<!-- nasalib/lnexp&#45;&gt;nasalib/ints -->
<g id="edge26" class="edge">
<title>nasalib/lnexp&#45;&gt;nasalib/ints</title>
<path fill="none" stroke="black" d="M114.91,-460.09C97.28,-422.17 57,-335.5 57,-335.5"/>
</g>
<!-- nasalib/lnexp&#45;&gt;nasalib/reals -->
<g id="edge27" class="edge">
<title>nasalib/lnexp&#45;&gt;nasalib/reals</title>
<path fill="none" stroke="black" d="M160,-333.5C160,-333.5 166.5,-310.74 172.09,-291.18"/>
<polygon fill="black" stroke="black" points="175.67,-292.38 175.06,-281.8 168.94,-290.46 175.67,-292.38"/>
<path fill="none" stroke="black" d="M123.77,-460.34C124.93,-434.48 127,-388.5 127,-388.5 127,-388.5 160,-335.5 160,-335.5"/>
</g>
<!-- nasalib/series -->
<g id="node10" class="node">
<title>nasalib/series</title>
<polygon fill="#fcfcd7" stroke="black" points="190,-424.5 136,-424.5 136,-388.5 190,-388.5 190,-424.5"/>
<text text-anchor="middle" x="163" y="-401.45" font-family="Times,serif" font-size="14.00">series</text>
</g>
<!-- nasalib/lnexp&#45;&gt;nasalib/series -->
<g id="edge28" class="edge">
<title>nasalib/lnexp&#45;&gt;nasalib/series</title>
<path fill="none" stroke="black" d="M132.89,-460.2C137.39,-452.31 142.83,-442.8 147.83,-434.05"/>
<polygon fill="black" stroke="black" points="151.3,-436.02 153.23,-425.6 145.23,-432.55 151.3,-436.02"/>
</g>
<!-- nasalib/orders&#45;&gt;lib/finite_sets -->
<g id="edge29" class="edge">
<title>nasalib/orders&#45;&gt;lib/finite_sets</title>
<path fill="none" stroke="black" d="M347,-189.5C347,-189.5 347,-119.5 347,-119.5"/>
<path fill="none" stroke="black" d="M277.87,-244.15C300.91,-228.69 331,-208.5 331,-208.5 331,-208.5 347,-191.5 347,-191.5"/>
</g>
<!-- nasalib/orders&#45;&gt;nasalib/structures -->
<g id="edge30" class="edge">
<title>nasalib/orders&#45;&gt;nasalib/structures</title>
<path fill="none" stroke="black" d="M252,-244.2C252,-236.74 252,-227.82 252,-219.47"/>
<polygon fill="black" stroke="black" points="255.5,-219.6 252,-209.6 248.5,-219.6 255.5,-219.6"/>
</g>
<!-- nasalib/reals&#45;&gt;nasalib/ints -->
<g id="edge31" class="edge">
<title>nasalib/reals&#45;&gt;nasalib/ints</title>
<path fill="none" stroke="black" d="M163.69,-244.2C144.14,-223.47 114,-191.5 114,-191.5"/>
</g>
<!-- nasalib/reals&#45;&gt;nasalib/structures -->
<g id="edge32" class="edge">
<title>nasalib/reals&#45;&gt;nasalib/structures</title>
<path fill="none" stroke="black" d="M197.8,-244.2C206.45,-235.78 217.01,-225.52 226.5,-216.29"/>
<polygon fill="black" stroke="black" points="228.43,-219.33 233.16,-209.85 223.55,-214.31 228.43,-219.33"/>
</g>
<!-- nasalib/series&#45;&gt;nasalib/analysis -->
<g id="edge33" class="edge">
<title>nasalib/series&#45;&gt;nasalib/analysis</title>
<path fill="none" stroke="black" d="M179.31,-388.2C187.23,-379.8 196.88,-369.57 205.56,-360.36"/>
<polygon fill="black" stroke="black" points="207.56,-363.28 211.87,-353.6 202.47,-358.48 207.56,-363.28"/>
</g>
<!-- nasalib/series&#45;&gt;nasalib/ints -->
<g id="edge34" class="edge">
<title>nasalib/series&#45;&gt;nasalib/ints</title>
<path fill="none" stroke="black" d="M156.99,-388.09C143.91,-350.17 114,-263.5 114,-263.5"/>
</g>
<!-- nasalib/series&#45;&gt;nasalib/orders -->
<g id="edge35" class="edge">
<title>nasalib/series&#45;&gt;nasalib/orders</title>
<path fill="none" stroke="black" d="M168.21,-388.34C176.05,-362.48 190,-316.5 190,-316.5 190,-316.5 207.13,-301.86 223.38,-287.97"/>
<polygon fill="black" stroke="black" points="225.37,-290.01 230.7,-280.85 220.82,-284.69 225.37,-290.01"/>
</g>
<!-- nasalib/series&#45;&gt;nasalib/reals -->
<g id="edge36" class="edge">
<title>nasalib/series&#45;&gt;nasalib/reals</title>
<path fill="none" stroke="black" d="M162.26,-388.2C161.37,-367.47 160,-335.5 160,-335.5"/>
</g>
<!-- nasalib/structures&#45;&gt;lib/finite_sets -->
<g id="edge37" class="edge">
<title>nasalib/structures&#45;&gt;lib/finite_sets</title>
<path fill="none" stroke="black" d="M347,-117.5C347,-117.5 315.08,-84.58 291.56,-60.33"/>
<polygon fill="black" stroke="black" points="294.44,-58.24 284.97,-53.5 289.41,-63.11 294.44,-58.24"/>
<path fill="none" stroke="black" d="M275.48,-172.2C303.62,-151.47 347,-119.5 347,-119.5"/>
</g>
<!-- nasalib/structures&#45;&gt;nasalib/ints -->
<g id="edge38" class="edge">
<title>nasalib/structures&#45;&gt;nasalib/ints</title>
<path fill="none" stroke="black" d="M252,-172.2C252,-164.74 252,-155.82 252,-147.47"/>
<polygon fill="black" stroke="black" points="255.5,-147.6 252,-137.6 248.5,-147.6 255.5,-147.6"/>
</g>
<!-- nasalib/trig&#45;&gt;nasalib/analysis -->
<g id="edge39" class="edge">
<title>nasalib/trig&#45;&gt;nasalib/analysis</title>
<path fill="none" stroke="black" d="M258,-405.5C258,-405.5 248.48,-382.53 240.35,-362.91"/>
<polygon fill="black" stroke="black" points="243.23,-361.7 236.17,-353.8 236.76,-364.38 243.23,-361.7"/>
<path fill="none" stroke="black" d="M238.43,-460.2C246.13,-439.47 258,-407.5 258,-407.5"/>
</g>
<!-- nasalib/trig&#45;&gt;nasalib/ints -->
<g id="edge40" class="edge">
<title>nasalib/trig&#45;&gt;nasalib/ints</title>
<path fill="none" stroke="black" d="M258,-405.5C258,-405.5 318,-263.5 318,-263.5"/>
</g>
<!-- nasalib/trig&#45;&gt;nasalib/reals -->
<g id="edge41" class="edge">
<title>nasalib/trig&#45;&gt;nasalib/reals</title>
<path fill="none" stroke="black" d="M225.64,-460.34C216.05,-434.48 199,-388.5 199,-388.5 199,-388.5 160,-335.5 160,-335.5"/>
</g>
<!-- nasalib/trig&#45;&gt;nasalib/series -->
<g id="edge42" class="edge">
<title>nasalib/trig&#45;&gt;nasalib/series</title>
<path fill="none" stroke="black" d="M214.94,-460.2C206.67,-451.8 196.58,-441.57 187.51,-432.36"/>
<polygon fill="black" stroke="black" points="190.37,-430.27 180.86,-425.6 185.39,-435.18 190.37,-430.27"/>
</g>
</g>
</svg>
