<?xml version="1.0" encoding="UTF-8" standalone="no"?>
<!DOCTYPE svg PUBLIC "-//W3C//DTD SVG 1.1//EN"
 "http://www.w3.org/Graphics/SVG/1.1/DTD/svg11.dtd">
<!-- Generated by graphviz version 7.0.6 (20230106.0513)
 -->
<!-- Title: LTL&#45;zoomed Pages: 1 -->
<svg width="492pt" height="315pt"
 viewBox="0.00 0.00 492.00 315.00" xmlns="http://www.w3.org/2000/svg" xmlns:xlink="http://www.w3.org/1999/xlink">
<g id="graph0" class="graph" transform="scale(1 1) rotate(0) translate(4 311)">
<title>LTL&#45;zoomed</title>
<polygon fill="white" stroke="none" points="-4,4 -4,-311 488,-311 488,4 -4,4"/>
<g id="clust1" class="cluster">
<title>cluster_NASALib/LTL</title>
<polygon fill="none" stroke="black" points="8,-8 8,-299 476,-299 476,-8 8,-8"/>
<text text-anchor="middle" x="242" y="-283.8" font-family="Times,serif" font-size="14.00">NASALib/LTL</text>
</g>
<!-- NASALib/LTL@IntervalsNatural -->
<g id="node1" class="node">
<title>NASALib/LTL@IntervalsNatural</title>
<ellipse fill="#e6f3ff" stroke="black" cx="280" cy="-34" rx="67.69" ry="18"/>
<text text-anchor="middle" x="280" y="-30.3" font-family="Times,serif" font-size="14.00">IntervalsNatural</text>
</g>
<!-- NASALib/LTL@LTL -->
<g id="node2" class="node">
<title>NASALib/LTL@LTL</title>
<ellipse fill="#e6f3ff" stroke="black" cx="280" cy="-106" rx="27" ry="18"/>
<text text-anchor="middle" x="280" y="-102.3" font-family="Times,serif" font-size="14.00">LTL</text>
</g>
<!-- NASALib/LTL@LTL&#45;&gt;NASALib/LTL@IntervalsNatural -->
<g id="edge1" class="edge">
<title>NASALib/LTL@LTL&#45;&gt;NASALib/LTL@IntervalsNatural</title>
<path fill="none" stroke="black" d="M280,-87.7C280,-80.41 280,-71.73 280,-63.54"/>
<polygon fill="black" stroke="black" points="283.5,-63.62 280,-53.62 276.5,-63.62 283.5,-63.62"/>
</g>
<!-- NASALib/LTL@LTL_aux_defs -->
<g id="node3" class="node">
<title>NASALib/LTL@LTL_aux_defs</title>
<ellipse fill="#e6f3ff" stroke="black" cx="404" cy="-178" rx="62.29" ry="18"/>
<text text-anchor="middle" x="404" y="-174.3" font-family="Times,serif" font-size="14.00">LTL_aux_defs</text>
</g>
<!-- NASALib/LTL@LTL_aux_defs&#45;&gt;NASALib/LTL@LTL -->
<g id="edge2" class="edge">
<title>NASALib/LTL@LTL_aux_defs&#45;&gt;NASALib/LTL@LTL</title>
<path fill="none" stroke="black" d="M376.48,-161.46C356.79,-150.35 330.31,-135.4 310.07,-123.97"/>
<polygon fill="black" stroke="black" points="311.87,-120.97 301.44,-119.1 308.43,-127.07 311.87,-120.97"/>
</g>
<!-- NASALib/LTL@LTL_basic_prop -->
<g id="node4" class="node">
<title>NASALib/LTL@LTL_basic_prop</title>
<ellipse fill="#e6f3ff" stroke="black" cx="398" cy="-250" rx="69.59" ry="18"/>
<text text-anchor="middle" x="398" y="-246.3" font-family="Times,serif" font-size="14.00">LTL_basic_prop</text>
</g>
<!-- NASALib/LTL@LTL_basic_prop&#45;&gt;NASALib/LTL@LTL -->
<g id="edge3" class="edge">
<title>NASALib/LTL@LTL_basic_prop&#45;&gt;NASALib/LTL@LTL</title>
<path fill="none" stroke="black" d="M377.79,-232.52C358.71,-216.96 333,-196 333,-196 333,-196 323,-179 323,-179"/>
</g>
<!-- NASALib/LTL@LTL_semantics -->
<g id="node7" class="node">
<title>NASALib/LTL@LTL_semantics</title>
<ellipse fill="#e6f3ff" stroke="black" cx="238" cy="-178" rx="65.79" ry="18"/>
<text text-anchor="middle" x="238" y="-174.3" font-family="Times,serif" font-size="14.00">LTL_semantics</text>
</g>
<!-- NASALib/LTL@LTL_basic_prop&#45;&gt;NASALib/LTL@LTL_semantics -->
<g id="edge4" class="edge">
<title>NASALib/LTL@LTL_basic_prop&#45;&gt;NASALib/LTL@LTL_semantics</title>
<path fill="none" stroke="black" d="M363.68,-233.98C339.87,-223.57 307.94,-209.6 282.23,-198.35"/>
<polygon fill="black" stroke="black" points="283.94,-195.28 273.38,-194.48 281.14,-201.69 283.94,-195.28"/>
</g>
<!-- NASALib/LTL@LTL_future_prop -->
<g id="node5" class="node">
<title>NASALib/LTL@LTL_future_prop</title>
<ellipse fill="#e6f3ff" stroke="black" cx="238" cy="-250" rx="72.29" ry="18"/>
<text text-anchor="middle" x="238" y="-246.3" font-family="Times,serif" font-size="14.00">LTL_future_prop</text>
</g>
<!-- NASALib/LTL@LTL_future_prop&#45;&gt;NASALib/LTL@LTL -->
<g id="edge5" class="edge">
<title>NASALib/LTL@LTL_future_prop&#45;&gt;NASALib/LTL@LTL</title>
<path fill="none" stroke="black" d="M323,-177C323,-177 313,-160 313,-160 313,-160 304.44,-146.26 296.04,-132.77"/>
<polygon fill="black" stroke="black" points="299.14,-131.11 290.88,-124.47 293.19,-134.81 299.14,-131.11"/>
<path fill="none" stroke="black" d="M261.32,-232.52C283.34,-216.96 313,-196 313,-196 313,-196 323,-179 323,-179"/>
</g>
<!-- NASALib/LTL@LTL_future_prop&#45;&gt;NASALib/LTL@LTL_semantics -->
<g id="edge6" class="edge">
<title>NASALib/LTL@LTL_future_prop&#45;&gt;NASALib/LTL@LTL_semantics</title>
<path fill="none" stroke="black" d="M238,-231.7C238,-224.41 238,-215.73 238,-207.54"/>
<polygon fill="black" stroke="black" points="241.5,-207.62 238,-197.62 234.5,-207.62 241.5,-207.62"/>
</g>
<!-- NASALib/LTL@LTL_past_prop -->
<g id="node6" class="node">
<title>NASALib/LTL@LTL_past_prop</title>
<ellipse fill="#e6f3ff" stroke="black" cx="82" cy="-250" rx="65.79" ry="18"/>
<text text-anchor="middle" x="82" y="-246.3" font-family="Times,serif" font-size="14.00">LTL_past_prop</text>
</g>
<!-- NASALib/LTL@LTL_past_prop&#45;&gt;NASALib/LTL@LTL -->
<g id="edge7" class="edge">
<title>NASALib/LTL@LTL_past_prop&#45;&gt;NASALib/LTL@LTL</title>
<path fill="none" stroke="black" d="M97.24,-232.26C120.7,-206.48 163,-160 163,-160 163,-160 213.18,-137.27 247.82,-121.58"/>
<polygon fill="black" stroke="black" points="248.95,-124.91 256.61,-117.59 246.06,-118.53 248.95,-124.91"/>
</g>
<!-- NASALib/LTL@LTL_past_prop&#45;&gt;NASALib/LTL@LTL_semantics -->
<g id="edge8" class="edge">
<title>NASALib/LTL@LTL_past_prop&#45;&gt;NASALib/LTL@LTL_semantics</title>
<path fill="none" stroke="black" d="M115.08,-234.15C138.17,-223.8 169.22,-209.86 194.34,-198.59"/>
<polygon fill="black" stroke="black" points="195.62,-201.85 203.31,-194.56 192.76,-195.46 195.62,-201.85"/>
</g>
<!-- NASALib/LTL@LTL_semantics&#45;&gt;NASALib/LTL@LTL -->
<g id="edge9" class="edge">
<title>NASALib/LTL@LTL_semantics&#45;&gt;NASALib/LTL@LTL</title>
<path fill="none" stroke="black" d="M248.17,-160.05C253.11,-151.82 259.15,-141.76 264.63,-132.61"/>
<polygon fill="black" stroke="black" points="267.58,-134.5 269.72,-124.13 261.58,-130.9 267.58,-134.5"/>
</g>
</g>
</svg>
