<?xml version="1.0" encoding="UTF-8" standalone="no"?>
<!DOCTYPE svg PUBLIC "-//W3C//DTD SVG 1.1//EN"
 "http://www.w3.org/Graphics/SVG/1.1/DTD/svg11.dtd">
<!-- Generated by graphviz version 8.0.4 (20230421.1958)
 -->
<!-- Title: fast_approx&#45;zoomed Pages: 1 -->
<svg width="391pt" height="401pt"
 viewBox="0.00 0.00 391.00 401.00" xmlns="http://www.w3.org/2000/svg" xmlns:xlink="http://www.w3.org/1999/xlink">
<g id="graph0" class="graph" transform="scale(1 1) rotate(0) translate(4 397)">
<title>fast_approx&#45;zoomed</title>
<polygon fill="white" stroke="none" points="-4,4 -4,-397 387,-397 387,4 -4,4"/>
<g id="clust1" class="cluster">
<title>cluster_NASALib</title>
<polygon fill="none" stroke="black" points="175,-8 175,-84.5 317,-84.5 317,-8 175,-8"/>
<text text-anchor="middle" x="246" y="-67.2" font-family="Times,serif" font-size="14.00">NASALib</text>
</g>
<g id="clust2" class="cluster">
<title>cluster_NASALib/fast_approx</title>
<polygon fill="none" stroke="black" points="8,-92.5 8,-385 363,-385 363,-92.5 8,-92.5"/>
<text text-anchor="middle" x="185.5" y="-367.7" font-family="Times,serif" font-size="14.00">NASALib/fast_approx</text>
</g>
<!-- NASALib/fast_approx@atan_props -->
<g id="node1" class="node">
<title>NASALib/fast_approx@atan_props</title>
<ellipse fill="#e6f3ff" stroke="black" cx="82" cy="-262.5" rx="51.35" ry="18"/>
<text text-anchor="middle" x="82" y="-257.45" font-family="Times,serif" font-size="14.00">atan_props</text>
</g>
<!-- NASALib/fast_approx@fast_approx -->
<g id="node3" class="node">
<title>NASALib/fast_approx@fast_approx</title>
<ellipse fill="#e6f3ff" stroke="black" cx="128" cy="-118.5" rx="54.42" ry="18"/>
<text text-anchor="middle" x="128" y="-113.45" font-family="Times,serif" font-size="14.00">fast_approx</text>
</g>
<!-- NASALib/fast_approx@atan_props&#45;&gt;NASALib/fast_approx@fast_approx -->
<g id="edge1" class="edge">
<title>NASALib/fast_approx@atan_props&#45;&gt;NASALib/fast_approx@fast_approx</title>
<path fill="none" stroke="black" d="M65.2,-245.31C49.02,-229.72 27,-208.5 27,-208.5 27,-208.5 27,-172.5 27,-172.5 27,-172.5 61.69,-154.29 90.41,-139.22"/>
<polygon fill="black" stroke="black" points="91.64,-142.01 98.87,-134.26 88.38,-135.81 91.64,-142.01"/>
</g>
<!-- NASALib/fast_approx@sqrt_prop -->
<g id="node6" class="node">
<title>NASALib/fast_approx@sqrt_prop</title>
<ellipse fill="#e6f3ff" stroke="black" cx="82" cy="-190.5" rx="46.23" ry="18"/>
<text text-anchor="middle" x="82" y="-185.45" font-family="Times,serif" font-size="14.00">sqrt_prop</text>
</g>
<!-- NASALib/fast_approx@atan_props&#45;&gt;NASALib/fast_approx@sqrt_prop -->
<g id="edge2" class="edge">
<title>NASALib/fast_approx@atan_props&#45;&gt;NASALib/fast_approx@sqrt_prop</title>
<path fill="none" stroke="black" d="M82,-244.2C82,-236.74 82,-227.82 82,-219.47"/>
<polygon fill="black" stroke="black" points="85.5,-219.6 82,-209.6 78.5,-219.6 85.5,-219.6"/>
</g>
<!-- NASALib/trig -->
<g id="node9" class="node">
<title>NASALib/trig</title>
<polygon fill="#fcfcd7" stroke="black" points="309,-52 255,-52 255,-16 309,-16 309,-52"/>
<text text-anchor="middle" x="282" y="-28.95" font-family="Times,serif" font-size="14.00">trig</text>
</g>
<!-- NASALib/fast_approx@atan_props&#45;&gt;NASALib/trig -->
<g id="edge3" class="edge">
<title>NASALib/fast_approx@atan_props&#45;&gt;NASALib/trig</title>
<path fill="none" stroke="black" d="M383,-189.5C383,-189.5 383,-119.5 383,-119.5"/>
<path fill="none" stroke="black" d="M126.53,-253.22C206.69,-238.31 367,-208.5 367,-208.5 367,-208.5 383,-191.5 383,-191.5"/>
</g>
<!-- NASALib/fast_approx@cos_props -->
<g id="node2" class="node">
<title>NASALib/fast_approx@cos_props</title>
<ellipse fill="#e6f3ff" stroke="black" cx="195" cy="-190.5" rx="48.28" ry="18"/>
<text text-anchor="middle" x="195" y="-185.45" font-family="Times,serif" font-size="14.00">cos_props</text>
</g>
<!-- NASALib/fast_approx@cos_props&#45;&gt;NASALib/fast_approx@fast_approx -->
<g id="edge4" class="edge">
<title>NASALib/fast_approx@cos_props&#45;&gt;NASALib/fast_approx@fast_approx</title>
<path fill="none" stroke="black" d="M179.46,-173.26C171.12,-164.56 160.68,-153.65 151.39,-143.93"/>
<polygon fill="black" stroke="black" points="154.36,-141.94 144.92,-137.13 149.31,-146.78 154.36,-141.94"/>
</g>
<!-- NASALib/fast_approx@cos_props&#45;&gt;NASALib/trig -->
<g id="edge5" class="edge">
<title>NASALib/fast_approx@cos_props&#45;&gt;NASALib/trig</title>
<path fill="none" stroke="black" d="M383,-117.5C383,-117.5 341.64,-83.71 311.85,-59.38"/>
<polygon fill="black" stroke="black" points="314.38,-56.11 304.42,-52.5 309.95,-61.53 314.38,-56.11"/>
<path fill="none" stroke="black" d="M228.18,-177.15C282.15,-157.05 383,-119.5 383,-119.5"/>
</g>
<!-- NASALib/reals -->
<g id="node8" class="node">
<title>NASALib/reals</title>
<polygon fill="#fcfcd7" stroke="black" points="237,-52 183,-52 183,-16 237,-16 237,-52"/>
<text text-anchor="middle" x="210" y="-28.95" font-family="Times,serif" font-size="14.00">reals</text>
</g>
<!-- NASALib/fast_approx@fast_approx&#45;&gt;NASALib/reals -->
<g id="edge6" class="edge">
<title>NASALib/fast_approx@fast_approx&#45;&gt;NASALib/reals</title>
<path fill="none" stroke="black" d="M144.2,-101.2C155.91,-89.42 171.93,-73.3 185.23,-59.92"/>
<polygon fill="black" stroke="black" points="187.13,-62.96 191.7,-53.4 182.17,-58.03 187.13,-62.96"/>
</g>
<!-- NASALib/fast_approx@fast_approx_props -->
<g id="node4" class="node">
<title>NASALib/fast_approx@fast_approx_props</title>
<ellipse fill="#e6f3ff" stroke="black" cx="209" cy="-334.5" rx="79.5" ry="18"/>
<text text-anchor="middle" x="209" y="-329.45" font-family="Times,serif" font-size="14.00">fast_approx_props</text>
</g>
<!-- NASALib/fast_approx@fast_approx_props&#45;&gt;NASALib/fast_approx@atan_props -->
<g id="edge7" class="edge">
<title>NASALib/fast_approx@fast_approx_props&#45;&gt;NASALib/fast_approx@atan_props</title>
<path fill="none" stroke="black" d="M179.86,-317.44C161.57,-307.36 137.83,-294.27 118.32,-283.52"/>
<polygon fill="black" stroke="black" points="120.28,-280.05 109.83,-278.29 116.9,-286.18 120.28,-280.05"/>
</g>
<!-- NASALib/fast_approx@fast_approx_props&#45;&gt;NASALib/fast_approx@cos_props -->
<g id="edge8" class="edge">
<title>NASALib/fast_approx@fast_approx_props&#45;&gt;NASALib/fast_approx@cos_props</title>
<path fill="none" stroke="black" d="M201.47,-316.15C194.76,-300.69 186,-280.5 186,-280.5 186,-280.5 186,-244.5 186,-244.5 186,-244.5 188.09,-232.18 190.26,-219.42"/>
<polygon fill="black" stroke="black" points="193.83,-220.3 192.05,-209.85 186.93,-219.13 193.83,-220.3"/>
</g>
<!-- NASALib/fast_approx@sin_props -->
<g id="node5" class="node">
<title>NASALib/fast_approx@sin_props</title>
<ellipse fill="#e6f3ff" stroke="black" cx="308" cy="-190.5" rx="46.75" ry="18"/>
<text text-anchor="middle" x="308" y="-185.45" font-family="Times,serif" font-size="14.00">sin_props</text>
</g>
<!-- NASALib/fast_approx@fast_approx_props&#45;&gt;NASALib/fast_approx@sin_props -->
<g id="edge9" class="edge">
<title>NASALib/fast_approx@fast_approx_props&#45;&gt;NASALib/fast_approx@sin_props</title>
<path fill="none" stroke="black" d="M236.19,-317.31C262.36,-301.72 298,-280.5 298,-280.5 298,-280.5 301.92,-245.61 304.85,-219.52"/>
<polygon fill="black" stroke="black" points="308.43,-219.99 306.07,-209.66 301.48,-219.21 308.43,-219.99"/>
</g>
<!-- NASALib/fast_approx@tan_props -->
<g id="node7" class="node">
<title>NASALib/fast_approx@tan_props</title>
<ellipse fill="#e6f3ff" stroke="black" cx="242" cy="-262.5" rx="47.26" ry="18"/>
<text text-anchor="middle" x="242" y="-257.45" font-family="Times,serif" font-size="14.00">tan_props</text>
</g>
<!-- NASALib/fast_approx@fast_approx_props&#45;&gt;NASALib/fast_approx@tan_props -->
<g id="edge10" class="edge">
<title>NASALib/fast_approx@fast_approx_props&#45;&gt;NASALib/fast_approx@tan_props</title>
<path fill="none" stroke="black" d="M217.16,-316.2C220.83,-308.4 225.26,-299.01 229.35,-290.33"/>
<polygon fill="black" stroke="black" points="232.84,-292.14 233.94,-281.6 226.51,-289.16 232.84,-292.14"/>
</g>
<!-- NASALib/fast_approx@sin_props&#45;&gt;NASALib/fast_approx@fast_approx -->
<g id="edge11" class="edge">
<title>NASALib/fast_approx@sin_props&#45;&gt;NASALib/fast_approx@fast_approx</title>
<path fill="none" stroke="black" d="M275.82,-176.99C246.99,-165.77 204.42,-149.22 172.36,-136.75"/>
<polygon fill="black" stroke="black" points="173.94,-133.22 163.35,-132.86 171.4,-139.75 173.94,-133.22"/>
</g>
<!-- NASALib/fast_approx@sin_props&#45;&gt;NASALib/trig -->
<g id="edge12" class="edge">
<title>NASALib/fast_approx@sin_props&#45;&gt;NASALib/trig</title>
<path fill="none" stroke="black" d="M325.02,-173.62C347.15,-152.96 383,-119.5 383,-119.5"/>
</g>
<!-- NASALib/fast_approx@sqrt_prop&#45;&gt;NASALib/fast_approx@fast_approx -->
<g id="edge13" class="edge">
<title>NASALib/fast_approx@sqrt_prop&#45;&gt;NASALib/fast_approx@fast_approx</title>
<path fill="none" stroke="black" d="M93.14,-172.55C98.5,-164.39 105.06,-154.41 111.03,-145.32"/>
<polygon fill="black" stroke="black" points="114.4,-147.57 116.97,-137.29 108.55,-143.72 114.4,-147.57"/>
</g>
<!-- NASALib/fast_approx@sqrt_prop&#45;&gt;NASALib/reals -->
<g id="edge14" class="edge">
<title>NASALib/fast_approx@sqrt_prop&#45;&gt;NASALib/reals</title>
<path fill="none" stroke="black" d="M110.07,-175.85C142.37,-160.15 191,-136.5 191,-136.5 191,-136.5 199.14,-93 204.77,-62.96"/>
<polygon fill="black" stroke="black" points="208.38,-63.69 206.78,-53.22 201.5,-62.4 208.38,-63.69"/>
</g>
<!-- NASALib/fast_approx@tan_props&#45;&gt;NASALib/fast_approx@cos_props -->
<g id="edge15" class="edge">
<title>NASALib/fast_approx@tan_props&#45;&gt;NASALib/fast_approx@cos_props</title>
<path fill="none" stroke="black" d="M230.62,-244.55C225.14,-236.39 218.44,-226.41 212.34,-217.32"/>
<polygon fill="black" stroke="black" points="214.75,-215.64 206.27,-209.29 208.94,-219.54 214.75,-215.64"/>
</g>
<!-- NASALib/fast_approx@tan_props&#45;&gt;NASALib/fast_approx@sin_props -->
<g id="edge16" class="edge">
<title>NASALib/fast_approx@tan_props&#45;&gt;NASALib/fast_approx@sin_props</title>
<path fill="none" stroke="black" d="M257.31,-245.26C265.64,-236.43 276.1,-225.33 285.36,-215.51"/>
<polygon fill="black" stroke="black" points="287.46,-218.32 291.78,-208.65 282.37,-213.52 287.46,-218.32"/>
</g>
<!-- NASALib/fast_approx@tan_props&#45;&gt;NASALib/trig -->
<g id="edge17" class="edge">
<title>NASALib/fast_approx@tan_props&#45;&gt;NASALib/trig</title>
<path fill="none" stroke="black" d="M272.9,-248.4C309.91,-232.7 367,-208.5 367,-208.5 367,-208.5 383,-191.5 383,-191.5"/>
</g>
</g>
</svg>
