<?xml version="1.0" encoding="UTF-8" standalone="no"?>
<!DOCTYPE svg PUBLIC "-//W3C//DTD SVG 1.1//EN"
 "http://www.w3.org/Graphics/SVG/1.1/DTD/svg11.dtd">
<!-- Generated by graphviz version 7.0.6 (20230106.0513)
 -->
<!-- Title: fast_approx Pages: 1 -->
<svg width="792pt" height="822pt"
 viewBox="0.00 0.00 792.00 822.00" xmlns="http://www.w3.org/2000/svg" xmlns:xlink="http://www.w3.org/1999/xlink">
<g id="graph0" class="graph" transform="scale(1 1) rotate(0) translate(4 818)">
<title>fast_approx</title>
<polygon fill="white" stroke="none" points="-4,4 -4,-818 788,-818 788,4 -4,4"/>
<g id="clust1" class="cluster">
<title>cluster_NASALib</title>
<polygon fill="none" stroke="black" points="8,-8 8,-806 680,-806 680,-8 8,-8"/>
<text text-anchor="middle" x="344" y="-790.8" font-family="Times,serif" font-size="14.00">NASALib</text>
</g>
<g id="clust2" class="cluster">
<title>cluster_PVS Prelude</title>
<polygon fill="none" stroke="black" points="688,-8 688,-83 776,-83 776,-8 688,-8"/>
<text text-anchor="middle" x="732" y="-67.8" font-family="Times,serif" font-size="14.00">PVS Prelude</text>
</g>
<!-- NASALib/analysis -->
<g id="node1" class="node">
<title>NASALib/analysis</title>
<polygon fill="#fcfcd7" stroke="black" points="320,-775 260,-775 260,-739 320,-739 320,-775"/>
<text text-anchor="middle" x="290" y="-753.3" font-family="Times,serif" font-size="14.00">analysis</text>
</g>
<!-- NASALib/ints -->
<g id="node4" class="node">
<title>NASALib/ints</title>
<polygon fill="#fcfcd7" stroke="black" points="511,-52 457,-52 457,-16 511,-16 511,-52"/>
<text text-anchor="middle" x="484" y="-30.3" font-family="Times,serif" font-size="14.00">ints</text>
</g>
<!-- NASALib/analysis&#45;&gt;NASALib/ints -->
<g id="edge1" class="edge">
<title>NASALib/analysis&#45;&gt;NASALib/ints</title>
<path fill="none" stroke="black" d="M182,-180C182,-180 222,-110 222,-110"/>
<path fill="none" stroke="black" d="M103,-252C103,-252 182,-182 182,-182"/>
<path fill="none" stroke="black" d="M222,-108C222,-108 373.38,-65.82 446,-45.59"/>
<polygon fill="black" stroke="black" points="446.8,-49 455.49,-42.94 444.92,-42.26 446.8,-49"/>
<path fill="none" stroke="black" d="M259.93,-747.95C204.54,-733.12 92,-703 92,-703 92,-703 65,-415 65,-415 65,-415 57,-326 57,-326"/>
<path fill="none" stroke="black" d="M57,-324C57,-324 67,-307 67,-307 67,-307 103,-254 103,-254"/>
</g>
<!-- NASALib/orders -->
<g id="node9" class="node">
<title>NASALib/orders</title>
<polygon fill="#fcfcd7" stroke="black" points="611,-199 557,-199 557,-163 611,-163 611,-199"/>
<text text-anchor="middle" x="584" y="-177.3" font-family="Times,serif" font-size="14.00">orders</text>
</g>
<!-- NASALib/analysis&#45;&gt;NASALib/orders -->
<g id="edge2" class="edge">
<title>NASALib/analysis&#45;&gt;NASALib/orders</title>
<path fill="none" stroke="black" d="M320.43,-744.58C402.64,-713.72 623,-631 623,-631 623,-631 671,-542 671,-542"/>
<path fill="none" stroke="black" d="M671,-252C671,-252 639.48,-226.64 614.39,-206.45"/>
<polygon fill="black" stroke="black" points="616.67,-203.79 606.68,-200.25 612.28,-209.25 616.67,-203.79"/>
<path fill="none" stroke="black" d="M671,-540C671,-540 671,-254 671,-254"/>
</g>
<!-- NASALib/reals -->
<g id="node11" class="node">
<title>NASALib/reals</title>
<polygon fill="#fcfcd7" stroke="black" points="317,-703 263,-703 263,-667 317,-667 317,-703"/>
<text text-anchor="middle" x="290" y="-681.3" font-family="Times,serif" font-size="14.00">reals</text>
</g>
<!-- NASALib/analysis&#45;&gt;NASALib/reals -->
<g id="edge3" class="edge">
<title>NASALib/analysis&#45;&gt;NASALib/reals</title>
<path fill="none" stroke="black" d="M290,-738.7C290,-731.41 290,-722.73 290,-714.54"/>
<polygon fill="black" stroke="black" points="293.5,-714.62 290,-704.62 286.5,-714.62 293.5,-714.62"/>
</g>
<!-- NASALib/structures -->
<g id="node15" class="node">
<title>NASALib/structures</title>
<polygon fill="#fcfcd7" stroke="black" points="518.5,-127 449.5,-127 449.5,-91 518.5,-91 518.5,-127"/>
<text text-anchor="middle" x="484" y="-105.3" font-family="Times,serif" font-size="14.00">structures</text>
</g>
<!-- NASALib/analysis&#45;&gt;NASALib/structures -->
<g id="edge4" class="edge">
<title>NASALib/analysis&#45;&gt;NASALib/structures</title>
<path fill="none" stroke="black" d="M671,-252C671,-252 620,-163 620,-163 620,-163 568.79,-143.04 529.21,-127.62"/>
<polygon fill="black" stroke="black" points="530.67,-124.43 520.08,-124.06 528.13,-130.95 530.67,-124.43"/>
</g>
<!-- lib/finite_sets -->
<g id="node19" class="node">
<title>lib/finite_sets</title>
<polygon fill="#fcfcd7" stroke="black" points="768,-52 696,-52 696,-16 768,-16 768,-52"/>
<text text-anchor="middle" x="732" y="-30.3" font-family="Times,serif" font-size="14.00">finite_sets</text>
</g>
<!-- NASALib/analysis&#45;&gt;lib/finite_sets -->
<g id="edge5" class="edge">
<title>NASALib/analysis&#45;&gt;lib/finite_sets</title>
<path fill="none" stroke="black" d="M671,-540C671,-540 700,-470 700,-470"/>
</g>
<!-- NASALib/extended_nnreal -->
<g id="node2" class="node">
<title>NASALib/extended_nnreal</title>
<polygon fill="#fcfcd7" stroke="black" points="572,-487 466,-487 466,-451 572,-451 572,-487"/>
<text text-anchor="middle" x="519" y="-465.3" font-family="Times,serif" font-size="14.00">extended_nnreal</text>
</g>
<!-- NASALib/extended_nnreal&#45;&gt;NASALib/analysis -->
<g id="edge6" class="edge">
<title>NASALib/extended_nnreal&#45;&gt;NASALib/analysis</title>
<path fill="none" stroke="black" d="M546.97,-487.48C571.21,-502.63 604.87,-523.67 621.26,-533.91"/>
<polygon fill="black" stroke="black" points="619.38,-536.87 629.72,-539.2 623.09,-530.93 619.38,-536.87"/>
<path fill="none" stroke="black" d="M631,-542C631,-542 616,-631 616,-631 616,-631 421,-684 421,-684"/>
</g>
<!-- NASALib/extended_nnreal&#45;&gt;NASALib/reals -->
<g id="edge7" class="edge">
<title>NASALib/extended_nnreal&#45;&gt;NASALib/reals</title>
<path fill="none" stroke="black" d="M571,-614C571,-614 388.16,-659.55 317.46,-677.16"/>
<path fill="none" stroke="black" d="M525.38,-487.41C536.28,-517.18 558.19,-577.01 567.1,-601.34"/>
<polygon fill="black" stroke="black" points="563.75,-602.39 570.48,-610.58 570.33,-599.99 563.75,-602.39"/>
</g>
<!-- NASALib/series -->
<g id="node12" class="node">
<title>NASALib/series</title>
<polygon fill="#fcfcd7" stroke="black" points="340,-271 286,-271 286,-235 340,-235 340,-271"/>
<text text-anchor="middle" x="313" y="-249.3" font-family="Times,serif" font-size="14.00">series</text>
</g>
<!-- NASALib/extended_nnreal&#45;&gt;NASALib/series -->
<g id="edge8" class="edge">
<title>NASALib/extended_nnreal&#45;&gt;NASALib/series</title>
<path fill="none" stroke="black" d="M487,-324C487,-324 452,-307 452,-307 452,-307 392.15,-284.18 350.99,-268.49"/>
<polygon fill="black" stroke="black" points="352.47,-265.3 341.88,-265.01 349.97,-271.84 352.47,-265.3"/>
<path fill="none" stroke="black" d="M515.08,-450.59C506.53,-412.67 487,-326 487,-326"/>
</g>
<!-- NASALib/sigma_set -->
<g id="node14" class="node">
<title>NASALib/sigma_set</title>
<polygon fill="#fcfcd7" stroke="black" points="624.5,-415 553.5,-415 553.5,-379 624.5,-379 624.5,-415"/>
<text text-anchor="middle" x="589" y="-393.3" font-family="Times,serif" font-size="14.00">sigma_set</text>
</g>
<!-- NASALib/extended_nnreal&#45;&gt;NASALib/sigma_set -->
<g id="edge9" class="edge">
<title>NASALib/extended_nnreal&#45;&gt;NASALib/sigma_set</title>
<path fill="none" stroke="black" d="M536.3,-450.7C544.61,-442.39 554.72,-432.28 563.86,-423.14"/>
<polygon fill="black" stroke="black" points="566.23,-425.72 570.83,-416.17 561.28,-420.77 566.23,-425.72"/>
</g>
<!-- NASALib/fast_approx -->
<g id="node3" class="node">
<title>NASALib/fast_approx</title>
<polygon fill="#f7e28d" stroke="black" points="163,-775 83,-775 83,-739 163,-739 163,-775"/>
<text text-anchor="middle" x="123" y="-753.3" font-family="Times,serif" font-size="14.00">fast_approx</text>
</g>
<!-- NASALib/fast_approx&#45;&gt;NASALib/reals -->
<g id="edge10" class="edge">
<title>NASALib/fast_approx&#45;&gt;NASALib/reals</title>
<path fill="none" stroke="black" d="M163.43,-739.05C190.49,-727.71 225.87,-712.88 252.34,-701.79"/>
<polygon fill="black" stroke="black" points="253.46,-705.11 261.33,-698.02 250.76,-698.65 253.46,-705.11"/>
</g>
<!-- NASALib/trig -->
<g id="node17" class="node">
<title>NASALib/trig</title>
<polygon fill="#fcfcd7" stroke="black" points="130,-343 76,-343 76,-307 130,-307 130,-343"/>
<text text-anchor="middle" x="103" y="-321.3" font-family="Times,serif" font-size="14.00">trig</text>
</g>
<!-- NASALib/fast_approx&#45;&gt;NASALib/trig -->
<g id="edge11" class="edge">
<title>NASALib/fast_approx&#45;&gt;NASALib/trig</title>
<path fill="none" stroke="black" d="M112.85,-738.65C103.81,-723.19 92,-703 92,-703 92,-703 52,-631 52,-631 52,-631 52,-595 52,-595 52,-595 72,-379 72,-379 72,-379 79.5,-366.18 87.12,-353.15"/>
<polygon fill="black" stroke="black" points="90.06,-355.06 92.09,-344.66 84.02,-351.53 90.06,-355.06"/>
</g>
<!-- NASALib/lebesgue -->
<g id="node5" class="node">
<title>NASALib/lebesgue</title>
<polygon fill="#fcfcd7" stroke="black" points="453,-631 389,-631 389,-595 453,-595 453,-631"/>
<text text-anchor="middle" x="421" y="-609.3" font-family="Times,serif" font-size="14.00">lebesgue</text>
</g>
<!-- NASALib/lebesgue&#45;&gt;NASALib/analysis -->
<g id="edge12" class="edge">
<title>NASALib/lebesgue&#45;&gt;NASALib/analysis</title>
<path fill="none" stroke="black" d="M421,-631.3C421,-644.26 421,-661.6 421,-672.79"/>
<polygon fill="black" stroke="black" points="417.5,-672.49 421,-682.49 424.5,-672.49 417.5,-672.49"/>
</g>
<!-- NASALib/lebesgue&#45;&gt;NASALib/extended_nnreal -->
<g id="edge13" class="edge">
<title>NASALib/lebesgue&#45;&gt;NASALib/extended_nnreal</title>
<path fill="none" stroke="black" d="M453.47,-594.79C482.67,-579.32 521,-559 521,-559 521,-559 531,-542 531,-542"/>
<path fill="none" stroke="black" d="M531,-540C531,-540 527.21,-517.87 523.88,-498.5"/>
<polygon fill="black" stroke="black" points="527.36,-498.06 522.22,-488.8 520.46,-499.24 527.36,-498.06"/>
</g>
<!-- NASALib/measure_integration -->
<g id="node7" class="node">
<title>NASALib/measure_integration</title>
<polygon fill="#fcfcd7" stroke="black" points="512,-559 384,-559 384,-523 512,-523 512,-559"/>
<text text-anchor="middle" x="448" y="-537.3" font-family="Times,serif" font-size="14.00">measure_integration</text>
</g>
<!-- NASALib/lebesgue&#45;&gt;NASALib/measure_integration -->
<g id="edge14" class="edge">
<title>NASALib/lebesgue&#45;&gt;NASALib/measure_integration</title>
<path fill="none" stroke="black" d="M427.67,-594.7C430.58,-587.15 434.07,-578.12 437.32,-569.68"/>
<polygon fill="black" stroke="black" points="440.52,-571.11 440.86,-560.52 433.99,-568.59 440.52,-571.11"/>
</g>
<!-- NASALib/metric_space -->
<g id="node8" class="node">
<title>NASALib/metric_space</title>
<polygon fill="#fcfcd7" stroke="black" points="387.5,-487 298.5,-487 298.5,-451 387.5,-451 387.5,-487"/>
<text text-anchor="middle" x="343" y="-465.3" font-family="Times,serif" font-size="14.00">metric_space</text>
</g>
<!-- NASALib/lebesgue&#45;&gt;NASALib/metric_space -->
<g id="edge15" class="edge">
<title>NASALib/lebesgue&#45;&gt;NASALib/metric_space</title>
<path fill="none" stroke="black" d="M405.94,-594.65C392.52,-579.19 375,-559 375,-559 375,-559 365,-542 365,-542"/>
<path fill="none" stroke="black" d="M365,-540C365,-540 357.98,-517.66 351.87,-498.22"/>
<polygon fill="black" stroke="black" points="355.23,-497.24 348.89,-488.75 348.55,-499.34 355.23,-497.24"/>
</g>
<!-- NASALib/power -->
<g id="node10" class="node">
<title>NASALib/power</title>
<polygon fill="#fcfcd7" stroke="black" points="284,-415 230,-415 230,-379 284,-379 284,-415"/>
<text text-anchor="middle" x="257" y="-393.3" font-family="Times,serif" font-size="14.00">power</text>
</g>
<!-- NASALib/lebesgue&#45;&gt;NASALib/power -->
<g id="edge16" class="edge">
<title>NASALib/lebesgue&#45;&gt;NASALib/power</title>
<path fill="none" stroke="black" d="M401.03,-594.65C383.24,-579.19 360,-559 360,-559 360,-559 290,-487 290,-487 290,-487 276.95,-451.8 267.26,-425.67"/>
<polygon fill="black" stroke="black" points="270.65,-424.74 263.89,-416.58 264.08,-427.17 270.65,-424.74"/>
</g>
<!-- NASALib/sets_aux -->
<g id="node13" class="node">
<title>NASALib/sets_aux</title>
<polygon fill="#fcfcd7" stroke="black" points="569.5,-343 506.5,-343 506.5,-307 569.5,-307 569.5,-343"/>
<text text-anchor="middle" x="538" y="-321.3" font-family="Times,serif" font-size="14.00">sets_aux</text>
</g>
<!-- NASALib/lebesgue&#45;&gt;NASALib/sets_aux -->
<g id="edge18" class="edge">
<title>NASALib/lebesgue&#45;&gt;NASALib/sets_aux</title>
<path fill="none" stroke="black" d="M647,-396C647,-396 634,-379 634,-379 634,-379 605.25,-363.13 579.21,-348.75"/>
<polygon fill="black" stroke="black" points="581.21,-345.85 570.76,-344.09 577.82,-351.98 581.21,-345.85"/>
<path fill="none" stroke="black" d="M453.34,-597.1C487.35,-581.42 536,-559 536,-559 536,-559 587,-487 587,-487 587,-487 647,-398 647,-398"/>
</g>
<!-- NASALib/lebesgue&#45;&gt;NASALib/sigma_set -->
<g id="edge19" class="edge">
<title>NASALib/lebesgue&#45;&gt;NASALib/sigma_set</title>
<path fill="none" stroke="black" d="M531,-540C531,-540 581,-487 581,-487 581,-487 584.11,-452.42 586.45,-426.37"/>
<polygon fill="black" stroke="black" points="589.91,-426.94 587.32,-416.67 582.94,-426.31 589.91,-426.94"/>
</g>
<!-- NASALib/lebesgue&#45;&gt;NASALib/structures -->
<g id="edge20" class="edge">
<title>NASALib/lebesgue&#45;&gt;NASALib/structures</title>
<path fill="none" stroke="black" d="M467,-324C467,-324 467,-254 467,-254"/>
<path fill="none" stroke="black" d="M427,-468C427,-468 467,-326 467,-326"/>
</g>
<!-- NASALib/topology -->
<g id="node16" class="node">
<title>NASALib/topology</title>
<polygon fill="#fcfcd7" stroke="black" points="407.5,-415 342.5,-415 342.5,-379 407.5,-379 407.5,-415"/>
<text text-anchor="middle" x="375" y="-393.3" font-family="Times,serif" font-size="14.00">topology</text>
</g>
<!-- NASALib/lebesgue&#45;&gt;NASALib/topology -->
<g id="edge21" class="edge">
<title>NASALib/lebesgue&#45;&gt;NASALib/topology</title>
<path fill="none" stroke="black" d="M365,-540C365,-540 375,-523 375,-523 375,-523 427,-470 427,-470"/>
<path fill="none" stroke="black" d="M427,-468C427,-468 409.3,-444.18 394.56,-424.33"/>
<polygon fill="black" stroke="black" points="397.53,-422.46 388.76,-416.52 391.91,-426.63 397.53,-422.46"/>
</g>
<!-- NASALib/lnexp -->
<g id="node6" class="node">
<title>NASALib/lnexp</title>
<polygon fill="#fcfcd7" stroke="black" points="222,-343 168,-343 168,-307 222,-307 222,-343"/>
<text text-anchor="middle" x="195" y="-321.3" font-family="Times,serif" font-size="14.00">lnexp</text>
</g>
<!-- NASALib/lnexp&#45;&gt;NASALib/analysis -->
<g id="edge22" class="edge">
<title>NASALib/lnexp&#45;&gt;NASALib/analysis</title>
<path fill="none" stroke="black" d="M117,-398C117,-398 97,-684 97,-684"/>
<path fill="none" stroke="black" d="M172.73,-343.35C152.9,-358.81 127,-379 127,-379 127,-379 124.95,-382.49 122.7,-386.31"/>
<polygon fill="black" stroke="black" points="119.82,-384.3 117.77,-394.7 125.85,-387.85 119.82,-384.3"/>
</g>
<!-- NASALib/lnexp&#45;&gt;NASALib/ints -->
<g id="edge23" class="edge">
<title>NASALib/lnexp&#45;&gt;NASALib/ints</title>
<path fill="none" stroke="black" d="M193.41,-306.59C189.93,-268.67 182,-182 182,-182"/>
</g>
<!-- NASALib/lnexp&#45;&gt;NASALib/reals -->
<g id="edge24" class="edge">
<title>NASALib/lnexp&#45;&gt;NASALib/reals</title>
<path fill="none" stroke="black" d="M117,-398C117,-398 127,-415 127,-415 127,-415 211,-468 211,-468"/>
<path fill="none" stroke="black" d="M211,-470C211,-470 234,-559 234,-559 234,-559 279,-612 279,-612"/>
<path fill="none" stroke="black" d="M279,-614C279,-614 284.02,-645.97 287.28,-666.7"/>
</g>
<!-- NASALib/lnexp&#45;&gt;NASALib/series -->
<g id="edge25" class="edge">
<title>NASALib/lnexp&#45;&gt;NASALib/series</title>
<path fill="none" stroke="black" d="M222.37,-307.76C238.3,-298.31 258.61,-286.26 275.96,-275.97"/>
<polygon fill="black" stroke="black" points="277.66,-279.03 284.48,-270.92 274.09,-273.01 277.66,-279.03"/>
</g>
<!-- NASALib/measure_integration&#45;&gt;NASALib/extended_nnreal -->
<g id="edge26" class="edge">
<title>NASALib/measure_integration&#45;&gt;NASALib/extended_nnreal</title>
<path fill="none" stroke="black" d="M465.55,-522.7C473.98,-514.39 484.23,-504.28 493.5,-495.14"/>
<polygon fill="black" stroke="black" points="495.91,-497.68 500.57,-488.17 491,-492.7 495.91,-497.68"/>
</g>
<!-- NASALib/measure_integration&#45;&gt;NASALib/metric_space -->
<g id="edge27" class="edge">
<title>NASALib/measure_integration&#45;&gt;NASALib/metric_space</title>
<path fill="none" stroke="black" d="M421.77,-522.52C408.65,-513.76 392.57,-503.04 378.36,-493.58"/>
<polygon fill="black" stroke="black" points="380.41,-490.73 370.15,-488.1 376.53,-496.56 380.41,-490.73"/>
</g>
<!-- NASALib/measure_integration&#45;&gt;NASALib/orders -->
<g id="edge28" class="edge">
<title>NASALib/measure_integration&#45;&gt;NASALib/orders</title>
<path fill="none" stroke="black" d="M447,-468C447,-468 457,-451 457,-451 457,-451 579,-343 579,-343 579,-343 589,-326 589,-326"/>
<path fill="none" stroke="black" d="M589,-324C589,-324 586.47,-252.2 585.01,-210.71"/>
<polygon fill="black" stroke="black" points="588.52,-210.8 584.67,-200.92 581.52,-211.04 588.52,-210.8"/>
</g>
<!-- NASALib/measure_integration&#45;&gt;NASALib/power -->
<g id="edge29" class="edge">
<title>NASALib/measure_integration&#45;&gt;NASALib/power</title>
<path fill="none" stroke="black" d="M438.17,-522.84C423.35,-496.98 397,-451 397,-451 397,-451 336.39,-428.05 294.92,-412.36"/>
<polygon fill="black" stroke="black" points="296.33,-409.15 285.74,-408.88 293.85,-415.69 296.33,-409.15"/>
</g>
<!-- NASALib/measure_integration&#45;&gt;NASALib/reals -->
<g id="edge30" class="edge">
<title>NASALib/measure_integration&#45;&gt;NASALib/reals</title>
<path fill="none" stroke="black" d="M411.98,-559.35C379.9,-574.81 338,-595 338,-595 338,-595 318.67,-630.83 304.55,-657.03"/>
<polygon fill="black" stroke="black" points="301.64,-655.04 299.97,-665.51 307.8,-658.37 301.64,-655.04"/>
</g>
<!-- NASALib/measure_integration&#45;&gt;NASALib/series -->
<g id="edge31" class="edge">
<title>NASALib/measure_integration&#45;&gt;NASALib/series</title>
<path fill="none" stroke="black" d="M447,-468C447,-468 417,-379 417,-379 417,-379 365.19,-316.73 334.71,-280.09"/>
<polygon fill="black" stroke="black" points="337.52,-277.99 328.43,-272.54 332.13,-282.47 337.52,-277.99"/>
</g>
<!-- NASALib/measure_integration&#45;&gt;NASALib/sets_aux -->
<g id="edge32" class="edge">
<title>NASALib/measure_integration&#45;&gt;NASALib/sets_aux</title>
<path fill="none" stroke="black" d="M487,-396C487,-396 504.2,-372.39 518.62,-352.6"/>
<polygon fill="black" stroke="black" points="521.44,-354.67 524.5,-344.53 515.78,-350.55 521.44,-354.67"/>
</g>
<!-- NASALib/measure_integration&#45;&gt;NASALib/sigma_set -->
<g id="edge33" class="edge">
<title>NASALib/measure_integration&#45;&gt;NASALib/sigma_set</title>
<path fill="none" stroke="black" d="M447,-468C447,-468 457,-451 457,-451 457,-451 504.78,-431.82 542.85,-416.53"/>
<polygon fill="black" stroke="black" points="543.9,-419.88 551.87,-412.91 541.29,-413.38 543.9,-419.88"/>
</g>
<!-- NASALib/measure_integration&#45;&gt;NASALib/structures -->
<g id="edge34" class="edge">
<title>NASALib/measure_integration&#45;&gt;NASALib/structures</title>
<path fill="none" stroke="black" d="M487,-396C487,-396 467,-326 467,-326"/>
<path fill="none" stroke="black" d="M447,-468C447,-468 487,-398 487,-398"/>
</g>
<!-- NASALib/measure_integration&#45;&gt;NASALib/topology -->
<g id="edge35" class="edge">
<title>NASALib/measure_integration&#45;&gt;NASALib/topology</title>
<path fill="none" stroke="black" d="M447,-468C447,-468 432,-451 432,-451 432,-451 416.54,-436.63 401.73,-422.85"/>
<polygon fill="black" stroke="black" points="404.48,-420.63 394.77,-416.38 399.71,-425.76 404.48,-420.63"/>
<path fill="none" stroke="black" d="M447.75,-522.7C447.46,-501.97 447,-470 447,-470"/>
</g>
<!-- NASALib/measure_integration&#45;&gt;lib/finite_sets -->
<g id="edge36" class="edge">
<title>NASALib/measure_integration&#45;&gt;lib/finite_sets</title>
<path fill="none" stroke="black" d="M512.49,-525.52C582.36,-509.83 684,-487 684,-487 684,-487 700,-470 700,-470"/>
<path fill="none" stroke="black" d="M700,-468C700,-468 700,-398 700,-398"/>
</g>
<!-- NASALib/metric_space&#45;&gt;NASALib/analysis -->
<g id="edge37" class="edge">
<title>NASALib/metric_space&#45;&gt;NASALib/analysis</title>
<path fill="none" stroke="black" d="M343,-487.41C343,-516.89 343,-575.82 343,-600.6"/>
<polygon fill="black" stroke="black" points="339.5,-600.49 343,-610.49 346.5,-600.49 339.5,-600.49"/>
</g>
<!-- NASALib/metric_space&#45;&gt;NASALib/power -->
<g id="edge38" class="edge">
<title>NASALib/metric_space&#45;&gt;NASALib/power</title>
<path fill="none" stroke="black" d="M321.74,-450.7C311.3,-442.2 298.54,-431.81 287.12,-422.51"/>
<polygon fill="black" stroke="black" points="289.45,-419.9 279.49,-416.3 285.03,-425.33 289.45,-419.9"/>
</g>
<!-- NASALib/metric_space&#45;&gt;NASALib/series -->
<g id="edge40" class="edge">
<title>NASALib/metric_space&#45;&gt;NASALib/series</title>
<path fill="none" stroke="black" d="M340.05,-450.65C337.43,-435.19 334,-415 334,-415 334,-415 322.76,-328.85 316.73,-282.59"/>
<polygon fill="black" stroke="black" points="320.21,-282.19 315.44,-272.73 313.27,-283.1 320.21,-282.19"/>
</g>
<!-- NASALib/metric_space&#45;&gt;NASALib/sets_aux -->
<g id="edge41" class="edge">
<title>NASALib/metric_space&#45;&gt;NASALib/sets_aux</title>
<path fill="none" stroke="black" d="M367.23,-450.65C388.81,-435.19 417,-415 417,-415 417,-415 469.39,-376.47 505.22,-350.11"/>
<polygon fill="black" stroke="black" points="507.18,-353.01 513.16,-344.27 503.03,-347.37 507.18,-353.01"/>
</g>
<!-- NASALib/metric_space&#45;&gt;NASALib/topology -->
<g id="edge42" class="edge">
<title>NASALib/metric_space&#45;&gt;NASALib/topology</title>
<path fill="none" stroke="black" d="M350.91,-450.7C354.4,-443.07 358.58,-433.92 362.48,-425.4"/>
<polygon fill="black" stroke="black" points="365.58,-427.03 366.55,-416.48 359.21,-424.12 365.58,-427.03"/>
</g>
<!-- NASALib/vectors -->
<g id="node18" class="node">
<title>NASALib/vectors</title>
<polygon fill="#fcfcd7" stroke="black" points="192,-415 136,-415 136,-379 192,-379 192,-415"/>
<text text-anchor="middle" x="164" y="-393.3" font-family="Times,serif" font-size="14.00">vectors</text>
</g>
<!-- NASALib/metric_space&#45;&gt;NASALib/vectors -->
<g id="edge43" class="edge">
<title>NASALib/metric_space&#45;&gt;NASALib/vectors</title>
<path fill="none" stroke="black" d="M298.29,-450.52C268.95,-439.04 230.95,-424.18 202.86,-413.2"/>
<polygon fill="black" stroke="black" points="204.24,-409.98 193.65,-409.6 201.69,-416.5 204.24,-409.98"/>
</g>
<!-- NASALib/metric_space&#45;&gt;lib/finite_sets -->
<g id="edge44" class="edge">
<title>NASALib/metric_space&#45;&gt;lib/finite_sets</title>
<path fill="none" stroke="black" d="M387.58,-458.41C405.5,-454.55 422,-451 422,-451 422,-451 652,-415 652,-415 652,-415 700,-398 700,-398"/>
<path fill="none" stroke="black" d="M700,-396C700,-396 700,-254 700,-254"/>
</g>
<!-- NASALib/orders&#45;&gt;NASALib/structures -->
<g id="edge45" class="edge">
<title>NASALib/orders&#45;&gt;NASALib/structures</title>
<path fill="none" stroke="black" d="M559.02,-162.52C546.64,-153.85 531.5,-143.25 518.07,-133.85"/>
<polygon fill="black" stroke="black" points="520.1,-131 509.9,-128.13 516.08,-136.73 520.1,-131"/>
</g>
<!-- NASALib/orders&#45;&gt;lib/finite_sets -->
<g id="edge46" class="edge">
<title>NASALib/orders&#45;&gt;lib/finite_sets</title>
<path fill="none" stroke="black" d="M700,-108C700,-108 710.84,-83.26 719.91,-62.59"/>
<polygon fill="black" stroke="black" points="723,-64.25 723.81,-53.69 716.59,-61.44 723,-64.25"/>
<path fill="none" stroke="black" d="M611.49,-163.41C645.79,-142.71 700,-110 700,-110"/>
</g>
<!-- NASALib/power&#45;&gt;NASALib/analysis -->
<g id="edge47" class="edge">
<title>NASALib/power&#45;&gt;NASALib/analysis</title>
<path fill="none" stroke="black" d="M240.3,-415.35C225.43,-430.81 206,-451 206,-451 206,-451 122.92,-628.6 101.82,-673.69"/>
<polygon fill="black" stroke="black" points="98.71,-672.09 97.64,-682.63 105.05,-675.05 98.71,-672.09"/>
</g>
<!-- NASALib/power&#45;&gt;NASALib/lnexp -->
<g id="edge48" class="edge">
<title>NASALib/power&#45;&gt;NASALib/lnexp</title>
<path fill="none" stroke="black" d="M241.67,-378.7C234.47,-370.56 225.72,-360.69 217.76,-351.7"/>
<polygon fill="black" stroke="black" points="220.4,-349.4 211.15,-344.24 215.16,-354.04 220.4,-349.4"/>
</g>
<!-- NASALib/power&#45;&gt;NASALib/reals -->
<g id="edge49" class="edge">
<title>NASALib/power&#45;&gt;NASALib/reals</title>
<path fill="none" stroke="black" d="M245.63,-415.3C236.69,-428.91 224.57,-447.35 217.29,-458.42"/>
<polygon fill="black" stroke="black" points="214.4,-456.46 211.83,-466.74 220.25,-460.3 214.4,-456.46"/>
</g>
<!-- NASALib/reals&#45;&gt;NASALib/ints -->
<g id="edge50" class="edge">
<title>NASALib/reals&#45;&gt;NASALib/ints</title>
<path fill="none" stroke="black" d="M262.52,-675.01C216.3,-659.89 128,-631 128,-631 128,-631 92,-559 92,-559 92,-559 57,-326 57,-326"/>
</g>
<!-- NASALib/reals&#45;&gt;NASALib/lebesgue -->
<g id="edge51" class="edge">
<title>NASALib/reals&#45;&gt;NASALib/lebesgue</title>
<path fill="none" stroke="black" d="M327.49,-663.97C343.58,-655.37 362.44,-645.29 378.99,-636.45"/>
<polygon fill="black" stroke="black" points="325.97,-660.81 318.8,-668.61 329.27,-666.99 325.97,-660.81"/>
<polygon fill="black" stroke="black" points="380.45,-639.63 387.62,-631.84 377.15,-633.46 380.45,-639.63"/>
</g>
<!-- NASALib/reals&#45;&gt;NASALib/metric_space -->
<g id="edge52" class="edge">
<title>NASALib/reals&#45;&gt;NASALib/metric_space</title>
<path fill="none" stroke="black" d="M296.97,-655.86C307.11,-614.91 325.83,-539.35 335.99,-498.31"/>
<polygon fill="black" stroke="black" points="293.62,-654.83 294.61,-665.38 300.41,-656.51 293.62,-654.83"/>
<polygon fill="black" stroke="black" points="339.36,-499.25 338.37,-488.7 332.57,-497.57 339.36,-499.25"/>
</g>
<!-- NASALib/reals&#45;&gt;NASALib/sets_aux -->
<g id="edge53" class="edge">
<title>NASALib/reals&#45;&gt;NASALib/sets_aux</title>
<path fill="none" stroke="black" d="M317.42,-678.92C389.01,-665.65 576,-631 576,-631 576,-631 636,-487 636,-487 636,-487 647,-398 647,-398"/>
</g>
<!-- NASALib/reals&#45;&gt;NASALib/structures -->
<g id="edge54" class="edge">
<title>NASALib/reals&#45;&gt;NASALib/structures</title>
<path fill="none" stroke="black" d="M278.59,-666.76C239.31,-607.39 112,-415 112,-415 112,-415 112,-379 112,-379 112,-379 139,-343 139,-343 139,-343 202,-182 202,-182"/>
<path fill="none" stroke="black" d="M202,-180C202,-180 358.61,-141.13 438.41,-121.32"/>
<polygon fill="black" stroke="black" points="438.81,-124.82 447.67,-119.02 437.12,-118.03 438.81,-124.82"/>
</g>
<!-- NASALib/series&#45;&gt;NASALib/analysis -->
<g id="edge55" class="edge">
<title>NASALib/series&#45;&gt;NASALib/analysis</title>
<path fill="none" stroke="black" d="M421,-686C421,-686 359.08,-719.09 320.38,-739.76"/>
<path fill="none" stroke="black" d="M343,-614C343,-614 421,-684 421,-684"/>
<path fill="none" stroke="black" d="M303,-326C303,-326 290,-451 290,-451 290,-451 290,-487 290,-487 290,-487 343,-612 343,-612"/>
</g>
<!-- NASALib/series&#45;&gt;NASALib/ints -->
<g id="edge56" class="edge">
<title>NASALib/series&#45;&gt;NASALib/ints</title>
<path fill="none" stroke="black" d="M301.84,-234.59C277.54,-196.67 222,-110 222,-110"/>
</g>
<!-- NASALib/series&#45;&gt;NASALib/orders -->
<g id="edge57" class="edge">
<title>NASALib/series&#45;&gt;NASALib/orders</title>
<path fill="none" stroke="black" d="M340.29,-245.71C401.21,-231.67 543,-199 543,-199 543,-199 544.37,-198.43 546.62,-197.5"/>
<polygon fill="black" stroke="black" points="547.59,-200.89 555.48,-193.82 544.9,-194.42 547.59,-200.89"/>
</g>
<!-- NASALib/series&#45;&gt;NASALib/reals -->
<g id="edge58" class="edge">
<title>NASALib/series&#45;&gt;NASALib/reals</title>
<path fill="none" stroke="black" d="M310.53,-271.3C308.68,-284.26 306.2,-301.6 304.6,-312.79"/>
<polygon fill="black" stroke="black" points="301.16,-312.11 303.21,-322.5 308.09,-313.1 301.16,-312.11"/>
<path fill="none" stroke="black" d="M303,-326C303,-326 221,-379 221,-379 221,-379 211,-468 211,-468"/>
</g>
<!-- NASALib/sets_aux&#45;&gt;NASALib/ints -->
<g id="edge59" class="edge">
<title>NASALib/sets_aux&#45;&gt;NASALib/ints</title>
<path fill="none" stroke="black" d="M538,-180C538,-180 528,-91 528,-91 528,-91 516.07,-75.81 504.63,-61.25"/>
<polygon fill="black" stroke="black" points="507.55,-59.3 498.62,-53.6 502.04,-63.63 507.55,-59.3"/>
</g>
<!-- NASALib/sets_aux&#45;&gt;NASALib/orders -->
<g id="edge60" class="edge">
<title>NASALib/sets_aux&#45;&gt;NASALib/orders</title>
<path fill="none" stroke="black" d="M538,-252C538,-252 553.37,-228.61 566.35,-208.87"/>
<polygon fill="black" stroke="black" points="569.23,-210.85 571.8,-200.57 563.38,-207 569.23,-210.85"/>
</g>
<!-- NASALib/sets_aux&#45;&gt;NASALib/structures -->
<g id="edge61" class="edge">
<title>NASALib/sets_aux&#45;&gt;NASALib/structures</title>
<path fill="none" stroke="black" d="M538,-306.7C538,-285.97 538,-254 538,-254"/>
<path fill="none" stroke="black" d="M538,-252C538,-252 538,-182 538,-182"/>
<path fill="none" stroke="black" d="M538,-180C538,-180 519.62,-156.18 504.31,-136.33"/>
<polygon fill="black" stroke="black" points="507.15,-134.28 498.27,-128.5 501.61,-138.56 507.15,-134.28"/>
</g>
<!-- NASALib/sets_aux&#45;&gt;lib/finite_sets -->
<g id="edge62" class="edge">
<title>NASALib/sets_aux&#45;&gt;lib/finite_sets</title>
<path fill="none" stroke="black" d="M569.62,-310.34C616.76,-289.97 700,-254 700,-254"/>
<path fill="none" stroke="black" d="M700,-252C700,-252 700,-110 700,-110"/>
</g>
<!-- NASALib/sigma_set&#45;&gt;NASALib/analysis -->
<g id="edge63" class="edge">
<title>NASALib/sigma_set&#45;&gt;NASALib/analysis</title>
<path fill="none" stroke="black" d="M631,-470C631,-470 631,-540 631,-540"/>
</g>
<!-- NASALib/sigma_set&#45;&gt;NASALib/orders -->
<g id="edge64" class="edge">
<title>NASALib/sigma_set&#45;&gt;NASALib/orders</title>
<path fill="none" stroke="black" d="M589,-378.7C589,-357.97 589,-326 589,-326"/>
</g>
<!-- NASALib/sigma_set&#45;&gt;NASALib/reals -->
<g id="edge65" class="edge">
<title>NASALib/sigma_set&#45;&gt;NASALib/reals</title>
<path fill="none" stroke="black" d="M631,-470C631,-470 606,-523 606,-523 606,-523 571,-612 571,-612"/>
<path fill="none" stroke="black" d="M599.38,-415.3C607.54,-428.91 618.61,-447.35 625.25,-458.42"/>
<polygon fill="black" stroke="black" points="622.08,-459.93 630.22,-466.7 628.08,-456.33 622.08,-459.93"/>
</g>
<!-- NASALib/sigma_set&#45;&gt;NASALib/series -->
<g id="edge66" class="edge">
<title>NASALib/sigma_set&#45;&gt;NASALib/series</title>
<path fill="none" stroke="black" d="M559.2,-378.65C532.66,-363.19 498,-343 498,-343 498,-343 487,-326 487,-326"/>
</g>
<!-- NASALib/sigma_set&#45;&gt;NASALib/sets_aux -->
<g id="edge67" class="edge">
<title>NASALib/sigma_set&#45;&gt;NASALib/sets_aux</title>
<path fill="none" stroke="black" d="M576.39,-378.7C570.59,-370.73 563.57,-361.1 557.14,-352.26"/>
<polygon fill="black" stroke="black" points="560.07,-350.35 551.35,-344.33 554.41,-354.47 560.07,-350.35"/>
</g>
<!-- NASALib/structures&#45;&gt;NASALib/ints -->
<g id="edge68" class="edge">
<title>NASALib/structures&#45;&gt;NASALib/ints</title>
<path fill="none" stroke="black" d="M484,-90.7C484,-82.67 484,-72.9 484,-63.8"/>
<polygon fill="black" stroke="black" points="487.5,-63.94 484,-53.94 480.5,-63.94 487.5,-63.94"/>
</g>
<!-- NASALib/structures&#45;&gt;lib/finite_sets -->
<g id="edge69" class="edge">
<title>NASALib/structures&#45;&gt;lib/finite_sets</title>
<path fill="none" stroke="black" d="M518.84,-103.65C576.14,-96.48 684,-83 684,-83 684,-83 695.17,-71.83 706.73,-60.27"/>
<polygon fill="black" stroke="black" points="709,-62.95 713.6,-53.4 704.05,-58 709,-62.95"/>
</g>
<!-- NASALib/topology&#45;&gt;NASALib/reals -->
<g id="edge70" class="edge">
<title>NASALib/topology&#45;&gt;NASALib/reals</title>
<path fill="none" stroke="black" d="M347.17,-415.35C322.38,-430.81 290,-451 290,-451 290,-451 282.28,-564.03 279.77,-600.68"/>
<polygon fill="black" stroke="black" points="276.29,-600.27 279.1,-610.49 283.28,-600.75 276.29,-600.27"/>
</g>
<!-- NASALib/topology&#45;&gt;NASALib/sets_aux -->
<g id="edge71" class="edge">
<title>NASALib/topology&#45;&gt;NASALib/sets_aux</title>
<path fill="none" stroke="black" d="M407.99,-381.83C433.28,-370.97 468.38,-355.9 495.73,-344.15"/>
<polygon fill="black" stroke="black" points="496.97,-347.43 504.78,-340.27 494.21,-341 496.97,-347.43"/>
</g>
<!-- NASALib/topology&#45;&gt;NASALib/structures -->
<g id="edge72" class="edge">
<title>NASALib/topology&#45;&gt;NASALib/structures</title>
<path fill="none" stroke="black" d="M386.28,-378.59C410.85,-340.67 467,-254 467,-254"/>
<path fill="none" stroke="black" d="M467,-252C467,-252 475.6,-180.2 480.56,-138.71"/>
<polygon fill="black" stroke="black" points="484.02,-139.26 481.74,-128.91 477.07,-138.43 484.02,-139.26"/>
</g>
<!-- NASALib/trig&#45;&gt;NASALib/analysis -->
<g id="edge73" class="edge">
<title>NASALib/trig&#45;&gt;NASALib/analysis</title>
<path fill="none" stroke="black" d="M97,-686C97,-686 205.56,-725.38 259.84,-745.06"/>
<path fill="none" stroke="black" d="M99.4,-343.35C96.19,-358.81 92,-379 92,-379 92,-379 92,-487 92,-487 92,-487 94.47,-513.2 95.94,-528.76"/>
<polygon fill="black" stroke="black" points="92.43,-528.87 96.86,-538.49 99.4,-528.21 92.43,-528.87"/>
<path fill="none" stroke="black" d="M97,-542C97,-542 97,-684 97,-684"/>
</g>
<!-- NASALib/trig&#45;&gt;NASALib/ints -->
<g id="edge74" class="edge">
<title>NASALib/trig&#45;&gt;NASALib/ints</title>
<path fill="none" stroke="black" d="M103,-306.7C103,-285.97 103,-254 103,-254"/>
</g>
<!-- NASALib/trig&#45;&gt;NASALib/reals -->
<g id="edge75" class="edge">
<title>NASALib/trig&#45;&gt;NASALib/reals</title>
<path fill="none" stroke="black" d="M97,-542C97,-542 152,-631 152,-631 152,-631 222.52,-658.08 262.74,-673.53"/>
</g>
<!-- NASALib/trig&#45;&gt;NASALib/series -->
<g id="edge76" class="edge">
<title>NASALib/trig&#45;&gt;NASALib/series</title>
<path fill="none" stroke="black" d="M130.45,-314.85C167.32,-302.56 233,-280.67 274.71,-266.76"/>
<polygon fill="black" stroke="black" points="275.72,-270.11 284.1,-263.63 273.51,-263.47 275.72,-270.11"/>
</g>
<!-- NASALib/vectors&#45;&gt;NASALib/reals -->
<g id="edge77" class="edge">
<title>NASALib/vectors&#45;&gt;NASALib/reals</title>
<path fill="none" stroke="black" d="M175.62,-415.3C184.86,-429.07 197.43,-447.79 204.83,-458.82"/>
<polygon fill="black" stroke="black" points="201.68,-460.39 210.16,-466.74 207.49,-456.49 201.68,-460.39"/>
</g>
<!-- NASALib/vectors&#45;&gt;NASALib/structures -->
<g id="edge78" class="edge">
<title>NASALib/vectors&#45;&gt;NASALib/structures</title>
<path fill="none" stroke="black" d="M185.94,-378.65C205.48,-363.19 231,-343 231,-343 231,-343 231,-307 231,-307 231,-307 202,-182 202,-182"/>
</g>
<!-- NASALib/vectors&#45;&gt;NASALib/trig -->
<g id="edge79" class="edge">
<title>NASALib/vectors&#45;&gt;NASALib/trig</title>
<path fill="none" stroke="black" d="M148.92,-378.7C141.83,-370.56 133.23,-360.69 125.4,-351.7"/>
<polygon fill="black" stroke="black" points="128.11,-349.49 118.9,-344.25 122.83,-354.08 128.11,-349.49"/>
</g>
</g>
</svg>
