<?xml version="1.0" encoding="UTF-8" standalone="no"?>
<!DOCTYPE svg PUBLIC "-//W3C//DTD SVG 1.1//EN"
 "http://www.w3.org/Graphics/SVG/1.1/DTD/svg11.dtd">
<!-- Generated by graphviz version 2.44.1 (20200629.0846)
 -->
<!-- Title: fast_approx&#45;zoomed Pages: 1 -->
<svg width="366pt" height="398pt"
 viewBox="0.00 0.00 366.00 398.00" xmlns="http://www.w3.org/2000/svg" xmlns:xlink="http://www.w3.org/1999/xlink">
<g id="graph0" class="graph" transform="scale(1 1) rotate(0) translate(4 394)">
<title>fast_approx&#45;zoomed</title>
<polygon fill="white" stroke="transparent" points="-4,4 -4,-394 362,-394 362,4 -4,4"/>
<g id="clust1" class="cluster">
<title>cluster_NASALib</title>
<polygon fill="none" stroke="black" points="166,-8 166,-83 308,-83 308,-8 166,-8"/>
<text text-anchor="middle" x="237" y="-67.8" font-family="Times,serif" font-size="14.00">NASALib</text>
</g>
<g id="clust2" class="cluster">
<title>cluster_NASALib/fast_approx</title>
<polygon fill="none" stroke="black" points="8,-91 8,-382 350,-382 350,-91 8,-91"/>
<text text-anchor="middle" x="179" y="-366.8" font-family="Times,serif" font-size="14.00">NASALib/fast_approx</text>
</g>
<!-- nasalib/fast_approx@atan_props -->
<g id="node1" class="node">
<title>nasalib/fast_approx@atan_props</title>
<ellipse fill="#e6f3ff" stroke="black" cx="80" cy="-261" rx="49.29" ry="18"/>
<text text-anchor="middle" x="80" y="-257.3" font-family="Times,serif" font-size="14.00">atan_props</text>
</g>
<!-- nasalib/fast_approx@fast_approx -->
<g id="node3" class="node">
<title>nasalib/fast_approx@fast_approx</title>
<ellipse fill="#e6f3ff" stroke="black" cx="121" cy="-117" rx="51.99" ry="18"/>
<text text-anchor="middle" x="121" y="-113.3" font-family="Times,serif" font-size="14.00">fast_approx</text>
</g>
<!-- nasalib/fast_approx@atan_props&#45;&gt;nasalib/fast_approx@fast_approx -->
<g id="edge1" class="edge">
<title>nasalib/fast_approx@atan_props&#45;&gt;nasalib/fast_approx@fast_approx</title>
<path fill="none" stroke="black" d="M122.88,-252C128.58,-252 132.51,-252 132.51,-252 132.51,-252 132.51,-144.65 132.51,-144.65"/>
<polygon fill="black" stroke="black" points="136.01,-144.65 132.51,-134.65 129.01,-144.65 136.01,-144.65"/>
</g>
<!-- nasalib/fast_approx@sqrt_prop -->
<g id="node6" class="node">
<title>nasalib/fast_approx@sqrt_prop</title>
<ellipse fill="#e6f3ff" stroke="black" cx="80" cy="-189" rx="44.39" ry="18"/>
<text text-anchor="middle" x="80" y="-185.3" font-family="Times,serif" font-size="14.00">sqrt_prop</text>
</g>
<!-- nasalib/fast_approx@atan_props&#45;&gt;nasalib/fast_approx@sqrt_prop -->
<g id="edge2" class="edge">
<title>nasalib/fast_approx@atan_props&#45;&gt;nasalib/fast_approx@sqrt_prop</title>
<path fill="none" stroke="black" d="M80,-242.83C80,-242.83 80,-217.41 80,-217.41"/>
<polygon fill="black" stroke="black" points="83.5,-217.41 80,-207.41 76.5,-217.41 83.5,-217.41"/>
</g>
<!-- nasalib/trig -->
<g id="node9" class="node">
<title>nasalib/trig</title>
<polygon fill="#fcfcd7" stroke="black" points="300,-52 246,-52 246,-16 300,-16 300,-52"/>
<text text-anchor="middle" x="273" y="-30.3" font-family="Times,serif" font-size="14.00">trig</text>
</g>
<!-- nasalib/fast_approx@atan_props&#45;&gt;nasalib/trig -->
<g id="edge3" class="edge">
<title>nasalib/fast_approx@atan_props&#45;&gt;nasalib/trig</title>
<path fill="none" stroke="black" d="M129.67,-261C133.33,-261 135.62,-261 135.62,-261 135.62,-261 135.62,-153 135.62,-153 135.62,-153 276.08,-153 276.08,-153 276.08,-153 276.08,-62.07 276.08,-62.07"/>
<polygon fill="black" stroke="black" points="279.58,-62.07 276.08,-52.07 272.58,-62.07 279.58,-62.07"/>
</g>
<!-- nasalib/fast_approx@cos_props -->
<g id="node2" class="node">
<title>nasalib/fast_approx@cos_props</title>
<ellipse fill="#e6f3ff" stroke="black" cx="188" cy="-189" rx="46.29" ry="18"/>
<text text-anchor="middle" x="188" y="-185.3" font-family="Times,serif" font-size="14.00">cos_props</text>
</g>
<!-- nasalib/fast_approx@cos_props&#45;&gt;nasalib/fast_approx@fast_approx -->
<g id="edge4" class="edge">
<title>nasalib/fast_approx@cos_props&#45;&gt;nasalib/fast_approx@fast_approx</title>
<path fill="none" stroke="black" d="M157.42,-175.46C157.42,-175.46 157.42,-140 157.42,-140"/>
<polygon fill="black" stroke="black" points="160.92,-140 157.42,-130 153.92,-140 160.92,-140"/>
</g>
<!-- nasalib/fast_approx@cos_props&#45;&gt;nasalib/trig -->
<g id="edge5" class="edge">
<title>nasalib/fast_approx@cos_props&#45;&gt;nasalib/trig</title>
<path fill="none" stroke="black" d="M234.17,-189C236.62,-189 238.1,-189 238.1,-189 238.1,-189 238.1,-28 238.1,-28 238.1,-28 238.87,-28 238.87,-28"/>
<polygon fill="black" stroke="black" points="235.84,-31.5 245.84,-28 235.84,-24.5 235.84,-31.5"/>
</g>
<!-- nasalib/reals -->
<g id="node8" class="node">
<title>nasalib/reals</title>
<polygon fill="#fcfcd7" stroke="black" points="228,-52 174,-52 174,-16 228,-16 228,-52"/>
<text text-anchor="middle" x="201" y="-30.3" font-family="Times,serif" font-size="14.00">reals</text>
</g>
<!-- nasalib/fast_approx@fast_approx&#45;&gt;nasalib/reals -->
<g id="edge10" class="edge">
<title>nasalib/fast_approx@fast_approx&#45;&gt;nasalib/reals</title>
<path fill="none" stroke="black" d="M170.3,-111C186.76,-111 201,-111 201,-111 201,-111 201,-62.25 201,-62.25"/>
<polygon fill="black" stroke="black" points="204.5,-62.25 201,-52.25 197.5,-62.25 204.5,-62.25"/>
</g>
<!-- nasalib/fast_approx@fast_approx_props -->
<g id="node4" class="node">
<title>nasalib/fast_approx@fast_approx_props</title>
<ellipse fill="#e6f3ff" stroke="black" cx="201" cy="-333" rx="76.09" ry="18"/>
<text text-anchor="middle" x="201" y="-329.3" font-family="Times,serif" font-size="14.00">fast_approx_props</text>
</g>
<!-- nasalib/fast_approx@fast_approx_props&#45;&gt;nasalib/fast_approx@atan_props -->
<g id="edge6" class="edge">
<title>nasalib/fast_approx@fast_approx_props&#45;&gt;nasalib/fast_approx@atan_props</title>
<path fill="none" stroke="black" d="M138.74,-322.6C138.74,-304.7 138.74,-270 138.74,-270 138.74,-270 133,-270 133,-270"/>
<polygon fill="black" stroke="black" points="133,-266.5 123,-270 133,-273.5 133,-266.5"/>
</g>
<!-- nasalib/fast_approx@fast_approx_props&#45;&gt;nasalib/fast_approx@cos_props -->
<g id="edge7" class="edge">
<title>nasalib/fast_approx@fast_approx_props&#45;&gt;nasalib/fast_approx@cos_props</title>
<path fill="none" stroke="black" d="M164.68,-317.04C164.68,-317.04 164.68,-214.59 164.68,-214.59"/>
<polygon fill="black" stroke="black" points="168.18,-214.59 164.68,-204.59 161.18,-214.59 168.18,-214.59"/>
</g>
<!-- nasalib/fast_approx@sin_props -->
<g id="node5" class="node">
<title>nasalib/fast_approx@sin_props</title>
<ellipse fill="#e6f3ff" stroke="black" cx="297" cy="-189" rx="44.69" ry="18"/>
<text text-anchor="middle" x="297" y="-185.3" font-family="Times,serif" font-size="14.00">sin_props</text>
</g>
<!-- nasalib/fast_approx@fast_approx_props&#45;&gt;nasalib/fast_approx@sin_props -->
<g id="edge8" class="edge">
<title>nasalib/fast_approx@fast_approx_props&#45;&gt;nasalib/fast_approx@sin_props</title>
<path fill="none" stroke="black" d="M277.12,-333C295.61,-333 310.17,-333 310.17,-333 310.17,-333 310.17,-216.37 310.17,-216.37"/>
<polygon fill="black" stroke="black" points="313.67,-216.37 310.17,-206.37 306.67,-216.37 313.67,-216.37"/>
</g>
<!-- nasalib/fast_approx@tan_props -->
<g id="node7" class="node">
<title>nasalib/fast_approx@tan_props</title>
<ellipse fill="#e6f3ff" stroke="black" cx="233" cy="-261" rx="45.49" ry="18"/>
<text text-anchor="middle" x="233" y="-257.3" font-family="Times,serif" font-size="14.00">tan_props</text>
</g>
<!-- nasalib/fast_approx@fast_approx_props&#45;&gt;nasalib/fast_approx@tan_props -->
<g id="edge9" class="edge">
<title>nasalib/fast_approx@fast_approx_props&#45;&gt;nasalib/fast_approx@tan_props</title>
<path fill="none" stroke="black" d="M232.27,-316.3C232.27,-316.3 232.27,-289.12 232.27,-289.12"/>
<polygon fill="black" stroke="black" points="235.77,-289.12 232.27,-279.12 228.77,-289.12 235.77,-289.12"/>
</g>
<!-- nasalib/fast_approx@sin_props&#45;&gt;nasalib/fast_approx@fast_approx -->
<g id="edge11" class="edge">
<title>nasalib/fast_approx@sin_props&#45;&gt;nasalib/fast_approx@fast_approx</title>
<path fill="none" stroke="black" d="M264.12,-176.59C264.12,-157.47 264.12,-123 264.12,-123 264.12,-123 180.25,-123 180.25,-123"/>
<polygon fill="black" stroke="black" points="180.25,-119.5 170.25,-123 180.25,-126.5 180.25,-119.5"/>
</g>
<!-- nasalib/fast_approx@sin_props&#45;&gt;nasalib/trig -->
<g id="edge12" class="edge">
<title>nasalib/fast_approx@sin_props&#45;&gt;nasalib/trig</title>
<path fill="none" stroke="black" d="M288.04,-171.22C288.04,-171.22 288.04,-62.05 288.04,-62.05"/>
<polygon fill="black" stroke="black" points="291.54,-62.05 288.04,-52.05 284.54,-62.05 291.54,-62.05"/>
</g>
<!-- nasalib/fast_approx@sqrt_prop&#45;&gt;nasalib/fast_approx@fast_approx -->
<g id="edge13" class="edge">
<title>nasalib/fast_approx@sqrt_prop&#45;&gt;nasalib/fast_approx@fast_approx</title>
<path fill="none" stroke="black" d="M96.6,-172.3C96.6,-172.3 96.6,-143.11 96.6,-143.11"/>
<polygon fill="black" stroke="black" points="100.1,-143.11 96.6,-133.11 93.1,-143.11 100.1,-143.11"/>
</g>
<!-- nasalib/fast_approx@sqrt_prop&#45;&gt;nasalib/reals -->
<g id="edge14" class="edge">
<title>nasalib/fast_approx@sqrt_prop&#45;&gt;nasalib/reals</title>
<path fill="none" stroke="black" d="M52.4,-174.7C52.4,-136.32 52.4,-34 52.4,-34 52.4,-34 163.75,-34 163.75,-34"/>
<polygon fill="black" stroke="black" points="163.75,-37.5 173.75,-34 163.75,-30.5 163.75,-37.5"/>
</g>
<!-- nasalib/fast_approx@tan_props&#45;&gt;nasalib/fast_approx@cos_props -->
<g id="edge15" class="edge">
<title>nasalib/fast_approx@tan_props&#45;&gt;nasalib/fast_approx@cos_props</title>
<path fill="none" stroke="black" d="M210.82,-245.02C210.82,-245.02 210.82,-214.93 210.82,-214.93"/>
<polygon fill="black" stroke="black" points="214.33,-214.93 210.82,-204.93 207.33,-214.93 214.33,-214.93"/>
</g>
<!-- nasalib/fast_approx@tan_props&#45;&gt;nasalib/fast_approx@sin_props -->
<g id="edge16" class="edge">
<title>nasalib/fast_approx@tan_props&#45;&gt;nasalib/fast_approx@sin_props</title>
<path fill="none" stroke="black" d="M265.32,-248.13C265.32,-248.13 265.32,-211.76 265.32,-211.76"/>
<polygon fill="black" stroke="black" points="268.83,-211.76 265.32,-201.76 261.83,-211.76 268.83,-211.76"/>
</g>
<!-- nasalib/fast_approx@tan_props&#45;&gt;nasalib/trig -->
<g id="edge17" class="edge">
<title>nasalib/fast_approx@tan_props&#45;&gt;nasalib/trig</title>
<path fill="none" stroke="black" d="M242.05,-243.29C242.05,-190.85 242.05,-40 242.05,-40 242.05,-40 242.43,-40 242.43,-40"/>
<polygon fill="black" stroke="black" points="235.84,-43.5 245.84,-40 235.84,-36.5 235.84,-43.5"/>
</g>
</g>
</svg>
