<?xml version="1.0" encoding="UTF-8" standalone="no"?>
<!DOCTYPE svg PUBLIC "-//W3C//DTD SVG 1.1//EN"
 "http://www.w3.org/Graphics/SVG/1.1/DTD/svg11.dtd">
<!-- Generated by graphviz version 2.40.1 (20161225.0304)
 -->
<!-- Title: fast_approx Pages: 1 -->
<svg width="300pt" height="612pt"
 viewBox="0.00 0.00 300.00 612.00" xmlns="http://www.w3.org/2000/svg" xmlns:xlink="http://www.w3.org/1999/xlink">
<g id="graph0" class="graph" transform="scale(1 1) rotate(0) translate(4 608)">
<title>fast_approx</title>
<polygon fill="#ffffff" stroke="transparent" points="-4,4 -4,-608 296,-608 296,4 -4,4"/>
<g id="clust1" class="cluster">
<title>cluster_NASALib</title>
<polygon fill="none" stroke="#000000" points="8,-90 8,-596 284,-596 284,-90 8,-90"/>
<text text-anchor="middle" x="146" y="-580.8" font-family="Times,serif" font-size="14.00" fill="#000000">NASALib</text>
</g>
<g id="clust2" class="cluster">
<title>cluster_PVS Prelude</title>
<polygon fill="none" stroke="#000000" points="140,-8 140,-82 228,-82 228,-8 140,-8"/>
<text text-anchor="middle" x="184" y="-66.8" font-family="Times,serif" font-size="14.00" fill="#000000">PVS Prelude</text>
</g>
<!-- /Users/mmoscato/Workspace/Workbench/pvs/dependency&#45;all/Users/mmoscato/pvs/pvs/lib/finite_sets -->
<g id="node1" class="node">
<title>/Users/mmoscato/Workspace/Workbench/pvs/dependency&#45;all/Users/mmoscato/pvs/pvs/lib/finite_sets</title>
<polygon fill="#fcfcd7" stroke="#000000" points="220.2796,-52 147.7204,-52 147.7204,-16 220.2796,-16 220.2796,-52"/>
<text text-anchor="middle" x="184" y="-29.8" font-family="Times,serif" font-size="14.00" fill="#000000">finite_sets</text>
</g>
<!-- /Users/mmoscato/Workspace/Workbench/pvs/dependency&#45;all/Users/mmoscato/pvs/pvs/nasalib/analysis -->
<g id="node2" class="node">
<title>/Users/mmoscato/Workspace/Workbench/pvs/dependency&#45;all/Users/mmoscato/pvs/pvs/nasalib/analysis</title>
<polygon fill="#fcfcd7" stroke="#000000" points="143.6036,-350 82.3964,-350 82.3964,-314 143.6036,-314 143.6036,-350"/>
<text text-anchor="middle" x="113" y="-327.8" font-family="Times,serif" font-size="14.00" fill="#000000">analysis</text>
</g>
<!-- /Users/mmoscato/Workspace/Workbench/pvs/dependency&#45;all/Users/mmoscato/pvs/pvs/nasalib/analysis&#45;&gt;/Users/mmoscato/Workspace/Workbench/pvs/dependency&#45;all/Users/mmoscato/pvs/pvs/lib/finite_sets -->
<g id="edge1" class="edge">
<title>/Users/mmoscato/Workspace/Workbench/pvs/dependency&#45;all/Users/mmoscato/pvs/pvs/nasalib/analysis&#45;&gt;/Users/mmoscato/Workspace/Workbench/pvs/dependency&#45;all/Users/mmoscato/pvs/pvs/lib/finite_sets</title>
<path fill="none" stroke="#000000" d="M143.834,-328C161.1552,-328 179.3283,-328 179.3283,-328 179.3283,-328 179.3283,-62.391 179.3283,-62.391"/>
<polygon fill="#000000" stroke="#000000" points="182.8284,-62.391 179.3283,-52.391 175.8284,-62.3911 182.8284,-62.391"/>
</g>
<!-- /Users/mmoscato/Workspace/Workbench/pvs/dependency&#45;all/Users/mmoscato/pvs/pvs/nasalib/ints -->
<g id="node4" class="node">
<title>/Users/mmoscato/Workspace/Workbench/pvs/dependency&#45;all/Users/mmoscato/pvs/pvs/nasalib/ints</title>
<polygon fill="#fcfcd7" stroke="#000000" points="156,-134 102,-134 102,-98 156,-98 156,-134"/>
<text text-anchor="middle" x="129" y="-111.8" font-family="Times,serif" font-size="14.00" fill="#000000">ints</text>
</g>
<!-- /Users/mmoscato/Workspace/Workbench/pvs/dependency&#45;all/Users/mmoscato/pvs/pvs/nasalib/analysis&#45;&gt;/Users/mmoscato/Workspace/Workbench/pvs/dependency&#45;all/Users/mmoscato/pvs/pvs/nasalib/ints -->
<g id="edge2" class="edge">
<title>/Users/mmoscato/Workspace/Workbench/pvs/dependency&#45;all/Users/mmoscato/pvs/pvs/nasalib/analysis&#45;&gt;/Users/mmoscato/Workspace/Workbench/pvs/dependency&#45;all/Users/mmoscato/pvs/pvs/nasalib/ints</title>
<path fill="none" stroke="#000000" d="M143.7625,-321C157.9823,-321 171.7711,-321 171.7711,-321 171.7711,-321 171.7711,-122 171.7711,-122 171.7711,-122 166.3297,-122 166.3297,-122"/>
<polygon fill="#000000" stroke="#000000" points="166.3298,-118.5001 156.3297,-122 166.3297,-125.5001 166.3298,-118.5001"/>
</g>
<!-- /Users/mmoscato/Workspace/Workbench/pvs/dependency&#45;all/Users/mmoscato/pvs/pvs/nasalib/orders -->
<g id="node5" class="node">
<title>/Users/mmoscato/Workspace/Workbench/pvs/dependency&#45;all/Users/mmoscato/pvs/pvs/nasalib/orders</title>
<polygon fill="#fcfcd7" stroke="#000000" points="256,-278 202,-278 202,-242 256,-242 256,-278"/>
<text text-anchor="middle" x="229" y="-255.8" font-family="Times,serif" font-size="14.00" fill="#000000">orders</text>
</g>
<!-- /Users/mmoscato/Workspace/Workbench/pvs/dependency&#45;all/Users/mmoscato/pvs/pvs/nasalib/analysis&#45;&gt;/Users/mmoscato/Workspace/Workbench/pvs/dependency&#45;all/Users/mmoscato/pvs/pvs/nasalib/orders -->
<g id="edge3" class="edge">
<title>/Users/mmoscato/Workspace/Workbench/pvs/dependency&#45;all/Users/mmoscato/pvs/pvs/nasalib/analysis&#45;&gt;/Users/mmoscato/Workspace/Workbench/pvs/dependency&#45;all/Users/mmoscato/pvs/pvs/nasalib/orders</title>
<path fill="none" stroke="#000000" d="M143.7787,-335C170.4088,-335 204.6667,-335 204.6667,-335 204.6667,-335 204.6667,-288.1554 204.6667,-288.1554"/>
<polygon fill="#000000" stroke="#000000" points="208.1668,-288.1554 204.6667,-278.1554 201.1668,-288.1554 208.1668,-288.1554"/>
</g>
<!-- /Users/mmoscato/Workspace/Workbench/pvs/dependency&#45;all/Users/mmoscato/pvs/pvs/nasalib/reals -->
<g id="node6" class="node">
<title>/Users/mmoscato/Workspace/Workbench/pvs/dependency&#45;all/Users/mmoscato/pvs/pvs/nasalib/reals</title>
<polygon fill="#fcfcd7" stroke="#000000" points="110,-278 56,-278 56,-242 110,-242 110,-278"/>
<text text-anchor="middle" x="83" y="-255.8" font-family="Times,serif" font-size="14.00" fill="#000000">reals</text>
</g>
<!-- /Users/mmoscato/Workspace/Workbench/pvs/dependency&#45;all/Users/mmoscato/pvs/pvs/nasalib/analysis&#45;&gt;/Users/mmoscato/Workspace/Workbench/pvs/dependency&#45;all/Users/mmoscato/pvs/pvs/nasalib/reals -->
<g id="edge4" class="edge">
<title>/Users/mmoscato/Workspace/Workbench/pvs/dependency&#45;all/Users/mmoscato/pvs/pvs/nasalib/analysis&#45;&gt;/Users/mmoscato/Workspace/Workbench/pvs/dependency&#45;all/Users/mmoscato/pvs/pvs/nasalib/reals</title>
<path fill="none" stroke="#000000" d="M96.2241,-313.8314C96.2241,-313.8314 96.2241,-288.4133 96.2241,-288.4133"/>
<polygon fill="#000000" stroke="#000000" points="99.7242,-288.4132 96.2241,-278.4133 92.7242,-288.4133 99.7242,-288.4132"/>
</g>
<!-- /Users/mmoscato/Workspace/Workbench/pvs/dependency&#45;all/Users/mmoscato/pvs/pvs/nasalib/structures -->
<g id="node8" class="node">
<title>/Users/mmoscato/Workspace/Workbench/pvs/dependency&#45;all/Users/mmoscato/pvs/pvs/nasalib/structures</title>
<polygon fill="#fcfcd7" stroke="#000000" points="164.429,-206 93.571,-206 93.571,-170 164.429,-170 164.429,-206"/>
<text text-anchor="middle" x="129" y="-183.8" font-family="Times,serif" font-size="14.00" fill="#000000">structures</text>
</g>
<!-- /Users/mmoscato/Workspace/Workbench/pvs/dependency&#45;all/Users/mmoscato/pvs/pvs/nasalib/analysis&#45;&gt;/Users/mmoscato/Workspace/Workbench/pvs/dependency&#45;all/Users/mmoscato/pvs/pvs/nasalib/structures -->
<g id="edge5" class="edge">
<title>/Users/mmoscato/Workspace/Workbench/pvs/dependency&#45;all/Users/mmoscato/pvs/pvs/nasalib/analysis&#45;&gt;/Users/mmoscato/Workspace/Workbench/pvs/dependency&#45;all/Users/mmoscato/pvs/pvs/nasalib/structures</title>
<path fill="none" stroke="#000000" d="M126.7759,-313.7623C126.7759,-313.7623 126.7759,-216.0896 126.7759,-216.0896"/>
<polygon fill="#000000" stroke="#000000" points="130.276,-216.0896 126.7759,-206.0896 123.276,-216.0897 130.276,-216.0896"/>
</g>
<!-- /Users/mmoscato/Workspace/Workbench/pvs/dependency&#45;all/Users/mmoscato/pvs/pvs/nasalib/fast_approx -->
<g id="node3" class="node">
<title>/Users/mmoscato/Workspace/Workbench/pvs/dependency&#45;all/Users/mmoscato/pvs/pvs/nasalib/fast_approx</title>
<polygon fill="#f7e28d" stroke="#000000" points="104.0899,-566 21.9101,-566 21.9101,-530 104.0899,-530 104.0899,-566"/>
<text text-anchor="middle" x="63" y="-543.8" font-family="Times,serif" font-size="14.00" fill="#000000">fast_approx</text>
</g>
<!-- /Users/mmoscato/Workspace/Workbench/pvs/dependency&#45;all/Users/mmoscato/pvs/pvs/nasalib/fast_approx&#45;&gt;/Users/mmoscato/Workspace/Workbench/pvs/dependency&#45;all/Users/mmoscato/pvs/pvs/lib/finite_sets -->
<g id="edge6" class="edge">
<title>/Users/mmoscato/Workspace/Workbench/pvs/dependency&#45;all/Users/mmoscato/pvs/pvs/nasalib/fast_approx&#45;&gt;/Users/mmoscato/Workspace/Workbench/pvs/dependency&#45;all/Users/mmoscato/pvs/pvs/lib/finite_sets</title>
<path fill="none" stroke="#000000" d="M25.4663,-529.7978C25.4663,-437.7615 25.4663,-28 25.4663,-28 25.4663,-28 137.6292,-28 137.6292,-28"/>
<polygon fill="#000000" stroke="#000000" points="137.6292,-31.5001 147.6292,-28 137.6291,-24.5001 137.6292,-31.5001"/>
</g>
<!-- /Users/mmoscato/Workspace/Workbench/pvs/dependency&#45;all/Users/mmoscato/pvs/pvs/nasalib/fast_approx&#45;&gt;/Users/mmoscato/Workspace/Workbench/pvs/dependency&#45;all/Users/mmoscato/pvs/pvs/nasalib/analysis -->
<g id="edge7" class="edge">
<title>/Users/mmoscato/Workspace/Workbench/pvs/dependency&#45;all/Users/mmoscato/pvs/pvs/nasalib/fast_approx&#45;&gt;/Users/mmoscato/Workspace/Workbench/pvs/dependency&#45;all/Users/mmoscato/pvs/pvs/nasalib/analysis</title>
<path fill="none" stroke="#000000" d="M94.6816,-529.9555C94.6816,-529.9555 94.6816,-360.1451 94.6816,-360.1451"/>
<polygon fill="#000000" stroke="#000000" points="98.1817,-360.145 94.6816,-350.1451 91.1817,-360.1451 98.1817,-360.145"/>
</g>
<!-- /Users/mmoscato/Workspace/Workbench/pvs/dependency&#45;all/Users/mmoscato/pvs/pvs/nasalib/fast_approx&#45;&gt;/Users/mmoscato/Workspace/Workbench/pvs/dependency&#45;all/Users/mmoscato/pvs/pvs/nasalib/ints -->
<g id="edge8" class="edge">
<title>/Users/mmoscato/Workspace/Workbench/pvs/dependency&#45;all/Users/mmoscato/pvs/pvs/nasalib/fast_approx&#45;&gt;/Users/mmoscato/Workspace/Workbench/pvs/dependency&#45;all/Users/mmoscato/pvs/pvs/nasalib/ints</title>
<path fill="none" stroke="#000000" d="M28.9775,-529.8901C28.9775,-446.9054 28.9775,-107 28.9775,-107 28.9775,-107 91.9325,-107 91.9325,-107"/>
<polygon fill="#000000" stroke="#000000" points="91.9325,-110.5001 101.9325,-107 91.9324,-103.5001 91.9325,-110.5001"/>
</g>
<!-- /Users/mmoscato/Workspace/Workbench/pvs/dependency&#45;all/Users/mmoscato/pvs/pvs/nasalib/fast_approx&#45;&gt;/Users/mmoscato/Workspace/Workbench/pvs/dependency&#45;all/Users/mmoscato/pvs/pvs/nasalib/orders -->
<g id="edge9" class="edge">
<title>/Users/mmoscato/Workspace/Workbench/pvs/dependency&#45;all/Users/mmoscato/pvs/pvs/nasalib/fast_approx&#45;&gt;/Users/mmoscato/Workspace/Workbench/pvs/dependency&#45;all/Users/mmoscato/pvs/pvs/nasalib/orders</title>
<path fill="none" stroke="#000000" d="M104.2069,-554C156.6914,-554 240.6667,-554 240.6667,-554 240.6667,-554 240.6667,-288.391 240.6667,-288.391"/>
<polygon fill="#000000" stroke="#000000" points="244.1668,-288.391 240.6667,-278.391 237.1668,-288.3911 244.1668,-288.391"/>
</g>
<!-- /Users/mmoscato/Workspace/Workbench/pvs/dependency&#45;all/Users/mmoscato/pvs/pvs/nasalib/fast_approx&#45;&gt;/Users/mmoscato/Workspace/Workbench/pvs/dependency&#45;all/Users/mmoscato/pvs/pvs/nasalib/reals -->
<g id="edge10" class="edge">
<title>/Users/mmoscato/Workspace/Workbench/pvs/dependency&#45;all/Users/mmoscato/pvs/pvs/nasalib/fast_approx&#45;&gt;/Users/mmoscato/Workspace/Workbench/pvs/dependency&#45;all/Users/mmoscato/pvs/pvs/nasalib/reals</title>
<path fill="none" stroke="#000000" d="M32.4888,-529.9843C32.4888,-466.9341 32.4888,-260 32.4888,-260 32.4888,-260 45.9699,-260 45.9699,-260"/>
<polygon fill="#000000" stroke="#000000" points="45.9699,-263.5001 55.9699,-260 45.9699,-256.5001 45.9699,-263.5001"/>
</g>
<!-- /Users/mmoscato/Workspace/Workbench/pvs/dependency&#45;all/Users/mmoscato/pvs/pvs/nasalib/series -->
<g id="node7" class="node">
<title>/Users/mmoscato/Workspace/Workbench/pvs/dependency&#45;all/Users/mmoscato/pvs/pvs/nasalib/series</title>
<polygon fill="#fcfcd7" stroke="#000000" points="210,-422 156,-422 156,-386 210,-386 210,-422"/>
<text text-anchor="middle" x="183" y="-399.8" font-family="Times,serif" font-size="14.00" fill="#000000">series</text>
</g>
<!-- /Users/mmoscato/Workspace/Workbench/pvs/dependency&#45;all/Users/mmoscato/pvs/pvs/nasalib/fast_approx&#45;&gt;/Users/mmoscato/Workspace/Workbench/pvs/dependency&#45;all/Users/mmoscato/pvs/pvs/nasalib/series -->
<g id="edge11" class="edge">
<title>/Users/mmoscato/Workspace/Workbench/pvs/dependency&#45;all/Users/mmoscato/pvs/pvs/nasalib/fast_approx&#45;&gt;/Users/mmoscato/Workspace/Workbench/pvs/dependency&#45;all/Users/mmoscato/pvs/pvs/nasalib/series</title>
<path fill="none" stroke="#000000" d="M99.3633,-529.9589C99.3633,-492.5524 99.3633,-410 99.3633,-410 99.3633,-410 145.6142,-410 145.6142,-410"/>
<polygon fill="#000000" stroke="#000000" points="145.6142,-413.5001 155.6142,-410 145.6142,-406.5001 145.6142,-413.5001"/>
</g>
<!-- /Users/mmoscato/Workspace/Workbench/pvs/dependency&#45;all/Users/mmoscato/pvs/pvs/nasalib/fast_approx&#45;&gt;/Users/mmoscato/Workspace/Workbench/pvs/dependency&#45;all/Users/mmoscato/pvs/pvs/nasalib/structures -->
<g id="edge12" class="edge">
<title>/Users/mmoscato/Workspace/Workbench/pvs/dependency&#45;all/Users/mmoscato/pvs/pvs/nasalib/fast_approx&#45;&gt;/Users/mmoscato/Workspace/Workbench/pvs/dependency&#45;all/Users/mmoscato/pvs/pvs/nasalib/structures</title>
<path fill="none" stroke="#000000" d="M104.1008,-542C126.5297,-542 149.7759,-542 149.7759,-542 149.7759,-542 149.7759,-216.0416 149.7759,-216.0416"/>
<polygon fill="#000000" stroke="#000000" points="153.276,-216.0416 149.7759,-206.0416 146.276,-216.0416 153.276,-216.0416"/>
</g>
<!-- /Users/mmoscato/Workspace/Workbench/pvs/dependency&#45;all/Users/mmoscato/pvs/pvs/nasalib/trig -->
<g id="node9" class="node">
<title>/Users/mmoscato/Workspace/Workbench/pvs/dependency&#45;all/Users/mmoscato/pvs/pvs/nasalib/trig</title>
<polygon fill="#fcfcd7" stroke="#000000" points="90,-494 36,-494 36,-458 90,-458 90,-494"/>
<text text-anchor="middle" x="63" y="-471.8" font-family="Times,serif" font-size="14.00" fill="#000000">trig</text>
</g>
<!-- /Users/mmoscato/Workspace/Workbench/pvs/dependency&#45;all/Users/mmoscato/pvs/pvs/nasalib/fast_approx&#45;&gt;/Users/mmoscato/Workspace/Workbench/pvs/dependency&#45;all/Users/mmoscato/pvs/pvs/nasalib/trig -->
<g id="edge13" class="edge">
<title>/Users/mmoscato/Workspace/Workbench/pvs/dependency&#45;all/Users/mmoscato/pvs/pvs/nasalib/fast_approx&#45;&gt;/Users/mmoscato/Workspace/Workbench/pvs/dependency&#45;all/Users/mmoscato/pvs/pvs/nasalib/trig</title>
<path fill="none" stroke="#000000" d="M63,-529.8314C63,-529.8314 63,-504.4133 63,-504.4133"/>
<polygon fill="#000000" stroke="#000000" points="66.5001,-504.4132 63,-494.4133 59.5001,-504.4133 66.5001,-504.4132"/>
</g>
<!-- /Users/mmoscato/Workspace/Workbench/pvs/dependency&#45;all/Users/mmoscato/pvs/pvs/nasalib/ints&#45;&gt;/Users/mmoscato/Workspace/Workbench/pvs/dependency&#45;all/Users/mmoscato/pvs/pvs/lib/finite_sets -->
<g id="edge14" class="edge">
<title>/Users/mmoscato/Workspace/Workbench/pvs/dependency&#45;all/Users/mmoscato/pvs/pvs/nasalib/ints&#45;&gt;/Users/mmoscato/Workspace/Workbench/pvs/dependency&#45;all/Users/mmoscato/pvs/pvs/lib/finite_sets</title>
<path fill="none" stroke="#000000" d="M151.8052,-97.8015C151.8052,-97.8015 151.8052,-62.1476 151.8052,-62.1476"/>
<polygon fill="#000000" stroke="#000000" points="155.3053,-62.1476 151.8052,-52.1476 148.3053,-62.1476 155.3053,-62.1476"/>
</g>
<!-- /Users/mmoscato/Workspace/Workbench/pvs/dependency&#45;all/Users/mmoscato/pvs/pvs/nasalib/orders&#45;&gt;/Users/mmoscato/Workspace/Workbench/pvs/dependency&#45;all/Users/mmoscato/pvs/pvs/lib/finite_sets -->
<g id="edge15" class="edge">
<title>/Users/mmoscato/Workspace/Workbench/pvs/dependency&#45;all/Users/mmoscato/pvs/pvs/nasalib/orders&#45;&gt;/Users/mmoscato/Workspace/Workbench/pvs/dependency&#45;all/Users/mmoscato/pvs/pvs/lib/finite_sets</title>
<path fill="none" stroke="#000000" d="M211.1948,-241.8875C211.1948,-241.8875 211.1948,-62.1988 211.1948,-62.1988"/>
<polygon fill="#000000" stroke="#000000" points="214.6949,-62.1987 211.1948,-52.1988 207.6949,-62.1988 214.6949,-62.1987"/>
</g>
<!-- /Users/mmoscato/Workspace/Workbench/pvs/dependency&#45;all/Users/mmoscato/pvs/pvs/nasalib/reals&#45;&gt;/Users/mmoscato/Workspace/Workbench/pvs/dependency&#45;all/Users/mmoscato/pvs/pvs/nasalib/ints -->
<g id="edge16" class="edge">
<title>/Users/mmoscato/Workspace/Workbench/pvs/dependency&#45;all/Users/mmoscato/pvs/pvs/nasalib/reals&#45;&gt;/Users/mmoscato/Workspace/Workbench/pvs/dependency&#45;all/Users/mmoscato/pvs/pvs/nasalib/ints</title>
<path fill="none" stroke="#000000" d="M74.8931,-241.7933C74.8931,-204.9441 74.8931,-125 74.8931,-125 74.8931,-125 91.9465,-125 91.9465,-125"/>
<polygon fill="#000000" stroke="#000000" points="91.9466,-128.5001 101.9465,-125 91.9465,-121.5001 91.9466,-128.5001"/>
</g>
<!-- /Users/mmoscato/Workspace/Workbench/pvs/dependency&#45;all/Users/mmoscato/pvs/pvs/nasalib/reals&#45;&gt;/Users/mmoscato/Workspace/Workbench/pvs/dependency&#45;all/Users/mmoscato/pvs/pvs/nasalib/structures -->
<g id="edge17" class="edge">
<title>/Users/mmoscato/Workspace/Workbench/pvs/dependency&#45;all/Users/mmoscato/pvs/pvs/nasalib/reals&#45;&gt;/Users/mmoscato/Workspace/Workbench/pvs/dependency&#45;all/Users/mmoscato/pvs/pvs/nasalib/structures</title>
<path fill="none" stroke="#000000" d="M101.8931,-241.8314C101.8931,-241.8314 101.8931,-216.4133 101.8931,-216.4133"/>
<polygon fill="#000000" stroke="#000000" points="105.3932,-216.4132 101.8931,-206.4133 98.3932,-216.4133 105.3932,-216.4132"/>
</g>
<!-- /Users/mmoscato/Workspace/Workbench/pvs/dependency&#45;all/Users/mmoscato/pvs/pvs/nasalib/series&#45;&gt;/Users/mmoscato/Workspace/Workbench/pvs/dependency&#45;all/Users/mmoscato/pvs/pvs/lib/finite_sets -->
<g id="edge18" class="edge">
<title>/Users/mmoscato/Workspace/Workbench/pvs/dependency&#45;all/Users/mmoscato/pvs/pvs/nasalib/series&#45;&gt;/Users/mmoscato/Workspace/Workbench/pvs/dependency&#45;all/Users/mmoscato/pvs/pvs/lib/finite_sets</title>
<path fill="none" stroke="#000000" d="M194.4428,-385.9037C194.4428,-385.9037 194.4428,-62.0615 194.4428,-62.0615"/>
<polygon fill="#000000" stroke="#000000" points="197.9429,-62.0615 194.4428,-52.0615 190.9429,-62.0615 197.9429,-62.0615"/>
</g>
<!-- /Users/mmoscato/Workspace/Workbench/pvs/dependency&#45;all/Users/mmoscato/pvs/pvs/nasalib/series&#45;&gt;/Users/mmoscato/Workspace/Workbench/pvs/dependency&#45;all/Users/mmoscato/pvs/pvs/nasalib/analysis -->
<g id="edge19" class="edge">
<title>/Users/mmoscato/Workspace/Workbench/pvs/dependency&#45;all/Users/mmoscato/pvs/pvs/nasalib/series&#45;&gt;/Users/mmoscato/Workspace/Workbench/pvs/dependency&#45;all/Users/mmoscato/pvs/pvs/nasalib/analysis</title>
<path fill="none" stroke="#000000" d="M158.0535,-385.7333C158.0535,-367.4448 158.0535,-342 158.0535,-342 158.0535,-342 153.7983,-342 153.7983,-342"/>
<polygon fill="#000000" stroke="#000000" points="153.7983,-338.5001 143.7983,-342 153.7982,-345.5001 153.7983,-338.5001"/>
</g>
<!-- /Users/mmoscato/Workspace/Workbench/pvs/dependency&#45;all/Users/mmoscato/pvs/pvs/nasalib/series&#45;&gt;/Users/mmoscato/Workspace/Workbench/pvs/dependency&#45;all/Users/mmoscato/pvs/pvs/nasalib/ints -->
<g id="edge20" class="edge">
<title>/Users/mmoscato/Workspace/Workbench/pvs/dependency&#45;all/Users/mmoscato/pvs/pvs/nasalib/series&#45;&gt;/Users/mmoscato/Workspace/Workbench/pvs/dependency&#45;all/Users/mmoscato/pvs/pvs/nasalib/ints</title>
<path fill="none" stroke="#000000" d="M186.8855,-385.609C186.8855,-321.2452 186.8855,-110 186.8855,-110 186.8855,-110 166.2478,-110 166.2478,-110"/>
<polygon fill="#000000" stroke="#000000" points="166.2478,-106.5001 156.2478,-110 166.2477,-113.5001 166.2478,-106.5001"/>
</g>
<!-- /Users/mmoscato/Workspace/Workbench/pvs/dependency&#45;all/Users/mmoscato/pvs/pvs/nasalib/series&#45;&gt;/Users/mmoscato/Workspace/Workbench/pvs/dependency&#45;all/Users/mmoscato/pvs/pvs/nasalib/orders -->
<g id="edge21" class="edge">
<title>/Users/mmoscato/Workspace/Workbench/pvs/dependency&#45;all/Users/mmoscato/pvs/pvs/nasalib/series&#45;&gt;/Users/mmoscato/Workspace/Workbench/pvs/dependency&#45;all/Users/mmoscato/pvs/pvs/nasalib/orders</title>
<path fill="none" stroke="#000000" d="M207.3333,-385.7623C207.3333,-385.7623 207.3333,-288.0896 207.3333,-288.0896"/>
<polygon fill="#000000" stroke="#000000" points="210.8334,-288.0896 207.3333,-278.0896 203.8334,-288.0897 210.8334,-288.0896"/>
</g>
<!-- /Users/mmoscato/Workspace/Workbench/pvs/dependency&#45;all/Users/mmoscato/pvs/pvs/nasalib/series&#45;&gt;/Users/mmoscato/Workspace/Workbench/pvs/dependency&#45;all/Users/mmoscato/pvs/pvs/nasalib/reals -->
<g id="edge22" class="edge">
<title>/Users/mmoscato/Workspace/Workbench/pvs/dependency&#45;all/Users/mmoscato/pvs/pvs/nasalib/series&#45;&gt;/Users/mmoscato/Workspace/Workbench/pvs/dependency&#45;all/Users/mmoscato/pvs/pvs/nasalib/reals</title>
<path fill="none" stroke="#000000" d="M160.1069,-385.7623C160.1069,-347.0139 160.1069,-260 160.1069,-260 160.1069,-260 120.4021,-260 120.4021,-260"/>
<polygon fill="#000000" stroke="#000000" points="120.4022,-256.5001 110.4021,-260 120.4021,-263.5001 120.4022,-256.5001"/>
</g>
<!-- /Users/mmoscato/Workspace/Workbench/pvs/dependency&#45;all/Users/mmoscato/pvs/pvs/nasalib/series&#45;&gt;/Users/mmoscato/Workspace/Workbench/pvs/dependency&#45;all/Users/mmoscato/pvs/pvs/nasalib/structures -->
<g id="edge23" class="edge">
<title>/Users/mmoscato/Workspace/Workbench/pvs/dependency&#45;all/Users/mmoscato/pvs/pvs/nasalib/series&#45;&gt;/Users/mmoscato/Workspace/Workbench/pvs/dependency&#45;all/Users/mmoscato/pvs/pvs/nasalib/structures</title>
<path fill="none" stroke="#000000" d="M162.1604,-385.9555C162.1604,-385.9555 162.1604,-216.1451 162.1604,-216.1451"/>
<polygon fill="#000000" stroke="#000000" points="165.6605,-216.145 162.1604,-206.1451 158.6605,-216.1451 165.6605,-216.145"/>
</g>
<!-- /Users/mmoscato/Workspace/Workbench/pvs/dependency&#45;all/Users/mmoscato/pvs/pvs/nasalib/structures&#45;&gt;/Users/mmoscato/Workspace/Workbench/pvs/dependency&#45;all/Users/mmoscato/pvs/pvs/lib/finite_sets -->
<g id="edge24" class="edge">
<title>/Users/mmoscato/Workspace/Workbench/pvs/dependency&#45;all/Users/mmoscato/pvs/pvs/nasalib/structures&#45;&gt;/Users/mmoscato/Workspace/Workbench/pvs/dependency&#45;all/Users/mmoscato/pvs/pvs/lib/finite_sets</title>
<path fill="none" stroke="#000000" d="M160.1069,-169.7294C160.1069,-169.7294 160.1069,-62.2468 160.1069,-62.2468"/>
<polygon fill="#000000" stroke="#000000" points="163.607,-62.2468 160.1069,-52.2468 156.607,-62.2468 163.607,-62.2468"/>
</g>
<!-- /Users/mmoscato/Workspace/Workbench/pvs/dependency&#45;all/Users/mmoscato/pvs/pvs/nasalib/structures&#45;&gt;/Users/mmoscato/Workspace/Workbench/pvs/dependency&#45;all/Users/mmoscato/pvs/pvs/nasalib/ints -->
<g id="edge25" class="edge">
<title>/Users/mmoscato/Workspace/Workbench/pvs/dependency&#45;all/Users/mmoscato/pvs/pvs/nasalib/structures&#45;&gt;/Users/mmoscato/Workspace/Workbench/pvs/dependency&#45;all/Users/mmoscato/pvs/pvs/nasalib/ints</title>
<path fill="none" stroke="#000000" d="M129,-169.8314C129,-169.8314 129,-144.4133 129,-144.4133"/>
<polygon fill="#000000" stroke="#000000" points="132.5001,-144.4132 129,-134.4133 125.5001,-144.4133 132.5001,-144.4132"/>
</g>
<!-- /Users/mmoscato/Workspace/Workbench/pvs/dependency&#45;all/Users/mmoscato/pvs/pvs/nasalib/trig&#45;&gt;/Users/mmoscato/Workspace/Workbench/pvs/dependency&#45;all/Users/mmoscato/pvs/pvs/lib/finite_sets -->
<g id="edge26" class="edge">
<title>/Users/mmoscato/Workspace/Workbench/pvs/dependency&#45;all/Users/mmoscato/pvs/pvs/nasalib/trig&#45;&gt;/Users/mmoscato/Workspace/Workbench/pvs/dependency&#45;all/Users/mmoscato/pvs/pvs/lib/finite_sets</title>
<path fill="none" stroke="#000000" d="M41,-457.8207C41,-375.3044 41,-40 41,-40 41,-40 137.5451,-40 137.5451,-40"/>
<polygon fill="#000000" stroke="#000000" points="137.5451,-43.5001 147.5451,-40 137.545,-36.5001 137.5451,-43.5001"/>
</g>
<!-- /Users/mmoscato/Workspace/Workbench/pvs/dependency&#45;all/Users/mmoscato/pvs/pvs/nasalib/trig&#45;&gt;/Users/mmoscato/Workspace/Workbench/pvs/dependency&#45;all/Users/mmoscato/pvs/pvs/nasalib/analysis -->
<g id="edge27" class="edge">
<title>/Users/mmoscato/Workspace/Workbench/pvs/dependency&#45;all/Users/mmoscato/pvs/pvs/nasalib/trig&#45;&gt;/Users/mmoscato/Workspace/Workbench/pvs/dependency&#45;all/Users/mmoscato/pvs/pvs/nasalib/analysis</title>
<path fill="none" stroke="#000000" d="M84.9655,-457.7623C84.9655,-457.7623 84.9655,-360.0896 84.9655,-360.0896"/>
<polygon fill="#000000" stroke="#000000" points="88.4656,-360.0896 84.9655,-350.0896 81.4656,-360.0897 88.4656,-360.0896"/>
</g>
<!-- /Users/mmoscato/Workspace/Workbench/pvs/dependency&#45;all/Users/mmoscato/pvs/pvs/nasalib/trig&#45;&gt;/Users/mmoscato/Workspace/Workbench/pvs/dependency&#45;all/Users/mmoscato/pvs/pvs/nasalib/ints -->
<g id="edge28" class="edge">
<title>/Users/mmoscato/Workspace/Workbench/pvs/dependency&#45;all/Users/mmoscato/pvs/pvs/nasalib/trig&#45;&gt;/Users/mmoscato/Workspace/Workbench/pvs/dependency&#45;all/Users/mmoscato/pvs/pvs/nasalib/ints</title>
<path fill="none" stroke="#000000" d="M46,-457.6526C46,-384.2916 46,-116 46,-116 46,-116 91.8227,-116 91.8227,-116"/>
<polygon fill="#000000" stroke="#000000" points="91.8227,-119.5001 101.8227,-116 91.8227,-112.5001 91.8227,-119.5001"/>
</g>
<!-- /Users/mmoscato/Workspace/Workbench/pvs/dependency&#45;all/Users/mmoscato/pvs/pvs/nasalib/trig&#45;&gt;/Users/mmoscato/Workspace/Workbench/pvs/dependency&#45;all/Users/mmoscato/pvs/pvs/nasalib/orders -->
<g id="edge29" class="edge">
<title>/Users/mmoscato/Workspace/Workbench/pvs/dependency&#45;all/Users/mmoscato/pvs/pvs/nasalib/trig&#45;&gt;/Users/mmoscato/Workspace/Workbench/pvs/dependency&#45;all/Users/mmoscato/pvs/pvs/nasalib/orders</title>
<path fill="none" stroke="#000000" d="M90.171,-476C136.3833,-476 225.3333,-476 225.3333,-476 225.3333,-476 225.3333,-288.0445 225.3333,-288.0445"/>
<polygon fill="#000000" stroke="#000000" points="228.8334,-288.0445 225.3333,-278.0445 221.8334,-288.0446 228.8334,-288.0445"/>
</g>
<!-- /Users/mmoscato/Workspace/Workbench/pvs/dependency&#45;all/Users/mmoscato/pvs/pvs/nasalib/trig&#45;&gt;/Users/mmoscato/Workspace/Workbench/pvs/dependency&#45;all/Users/mmoscato/pvs/pvs/nasalib/reals -->
<g id="edge30" class="edge">
<title>/Users/mmoscato/Workspace/Workbench/pvs/dependency&#45;all/Users/mmoscato/pvs/pvs/nasalib/trig&#45;&gt;/Users/mmoscato/Workspace/Workbench/pvs/dependency&#45;all/Users/mmoscato/pvs/pvs/nasalib/reals</title>
<path fill="none" stroke="#000000" d="M69.2241,-457.9555C69.2241,-457.9555 69.2241,-288.1451 69.2241,-288.1451"/>
<polygon fill="#000000" stroke="#000000" points="72.7242,-288.145 69.2241,-278.1451 65.7242,-288.1451 72.7242,-288.145"/>
</g>
<!-- /Users/mmoscato/Workspace/Workbench/pvs/dependency&#45;all/Users/mmoscato/pvs/pvs/nasalib/trig&#45;&gt;/Users/mmoscato/Workspace/Workbench/pvs/dependency&#45;all/Users/mmoscato/pvs/pvs/nasalib/series -->
<g id="edge31" class="edge">
<title>/Users/mmoscato/Workspace/Workbench/pvs/dependency&#45;all/Users/mmoscato/pvs/pvs/nasalib/trig&#45;&gt;/Users/mmoscato/Workspace/Workbench/pvs/dependency&#45;all/Users/mmoscato/pvs/pvs/nasalib/series</title>
<path fill="none" stroke="#000000" d="M87.4827,-457.9092C87.4827,-434.8672 87.4827,-398 87.4827,-398 87.4827,-398 145.8841,-398 145.8841,-398"/>
<polygon fill="#000000" stroke="#000000" points="145.8841,-401.5001 155.8841,-398 145.884,-394.5001 145.8841,-401.5001"/>
</g>
<!-- /Users/mmoscato/Workspace/Workbench/pvs/dependency&#45;all/Users/mmoscato/pvs/pvs/nasalib/trig&#45;&gt;/Users/mmoscato/Workspace/Workbench/pvs/dependency&#45;all/Users/mmoscato/pvs/pvs/nasalib/structures -->
<g id="edge32" class="edge">
<title>/Users/mmoscato/Workspace/Workbench/pvs/dependency&#45;all/Users/mmoscato/pvs/pvs/nasalib/trig&#45;&gt;/Users/mmoscato/Workspace/Workbench/pvs/dependency&#45;all/Users/mmoscato/pvs/pvs/nasalib/structures</title>
<path fill="none" stroke="#000000" d="M51,-457.9843C51,-394.9341 51,-188 51,-188 51,-188 83.6515,-188 83.6515,-188"/>
<polygon fill="#000000" stroke="#000000" points="83.6515,-191.5001 93.6515,-188 83.6515,-184.5001 83.6515,-191.5001"/>
</g>
</g>
</svg>
