<?xml version="1.0" encoding="UTF-8" standalone="no"?>
<!DOCTYPE svg PUBLIC "-//W3C//DTD SVG 1.1//EN"
 "http://www.w3.org/Graphics/SVG/1.1/DTD/svg11.dtd">
<!-- Generated by graphviz version 8.0.4 (20230421.1958)
 -->
<!-- Title: examples&#45;zoomed Pages: 1 -->
<svg width="5159pt" height="326pt"
 viewBox="0.00 0.00 5159.00 325.50" xmlns="http://www.w3.org/2000/svg" xmlns:xlink="http://www.w3.org/1999/xlink">
<g id="graph0" class="graph" transform="scale(1 1) rotate(0) translate(4 321.5)">
<title>examples&#45;zoomed</title>
<polygon fill="white" stroke="none" points="-4,4 -4,-321.5 5155,-321.5 5155,4 -4,4"/>
<g id="clust1" class="cluster">
<title>cluster_NASALib</title>
<polygon fill="none" stroke="black" points="3653,-8 3653,-84.5 5143,-84.5 5143,-8 3653,-8"/>
<text text-anchor="middle" x="4398" y="-67.2" font-family="Times,serif" font-size="14.00">NASALib</text>
</g>
<g id="clust2" class="cluster">
<title>cluster_NASALib/examples</title>
<polygon fill="none" stroke="black" points="8,-8 8,-309.5 3645,-309.5 3645,-8 8,-8"/>
<text text-anchor="middle" x="1826.5" y="-292.2" font-family="Times,serif" font-size="14.00">NASALib/examples</text>
</g>
<g id="clust3" class="cluster">
<title>cluster_pvsio_utils</title>
<polygon fill="none" stroke="black" points="3653,-156.5 3653,-233 3971,-233 3971,-156.5 3653,-156.5"/>
<text text-anchor="middle" x="3812" y="-215.7" font-family="Times,serif" font-size="14.00">pvsio_utils</text>
</g>
<!-- NASALib/Bernstein -->
<g id="node1" class="node">
<title>NASALib/Bernstein</title>
<polygon fill="#fcfcd7" stroke="black" points="4137.88,-52 4070.12,-52 4070.12,-16 4137.88,-16 4137.88,-52"/>
<text text-anchor="middle" x="4104" y="-28.95" font-family="Times,serif" font-size="14.00">Bernstein</text>
</g>
<!-- NASALib/Riemann -->
<g id="node2" class="node">
<title>NASALib/Riemann</title>
<polygon fill="#fcfcd7" stroke="black" points="4907.75,-52 4842.25,-52 4842.25,-16 4907.75,-16 4907.75,-52"/>
<text text-anchor="middle" x="4875" y="-28.95" font-family="Times,serif" font-size="14.00">Riemann</text>
</g>
<!-- NASALib/Sturm -->
<g id="node3" class="node">
<title>NASALib/Sturm</title>
<polygon fill="#fcfcd7" stroke="black" points="5061,-52 5007,-52 5007,-16 5061,-16 5061,-52"/>
<text text-anchor="middle" x="5034" y="-28.95" font-family="Times,serif" font-size="14.00">Sturm</text>
</g>
<!-- NASALib/Tarski -->
<g id="node4" class="node">
<title>NASALib/Tarski</title>
<polygon fill="#fcfcd7" stroke="black" points="4731,-52 4677,-52 4677,-16 4731,-16 4731,-52"/>
<text text-anchor="middle" x="4704" y="-28.95" font-family="Times,serif" font-size="14.00">Tarski</text>
</g>
<!-- NASALib/affine_arith -->
<g id="node5" class="node">
<title>NASALib/affine_arith</title>
<polygon fill="#fcfcd7" stroke="black" points="4052.5,-52 3973.5,-52 3973.5,-16 4052.5,-16 4052.5,-52"/>
<text text-anchor="middle" x="4013" y="-28.95" font-family="Times,serif" font-size="14.00">affine_arith</text>
</g>
<!-- NASALib/algebra -->
<g id="node6" class="node">
<title>NASALib/algebra</title>
<polygon fill="#fcfcd7" stroke="black" points="3955.88,-52 3900.12,-52 3900.12,-16 3955.88,-16 3955.88,-52"/>
<text text-anchor="middle" x="3928" y="-28.95" font-family="Times,serif" font-size="14.00">algebra</text>
</g>
<!-- NASALib/analysis -->
<g id="node7" class="node">
<title>NASALib/analysis</title>
<polygon fill="#fcfcd7" stroke="black" points="4215.75,-52 4156.25,-52 4156.25,-16 4215.75,-16 4215.75,-52"/>
<text text-anchor="middle" x="4186" y="-28.95" font-family="Times,serif" font-size="14.00">analysis</text>
</g>
<!-- NASALib/complex -->
<g id="node8" class="node">
<title>NASALib/complex</title>
<polygon fill="#fcfcd7" stroke="black" points="4988.62,-52 4925.38,-52 4925.38,-16 4988.62,-16 4988.62,-52"/>
<text text-anchor="middle" x="4957" y="-28.95" font-family="Times,serif" font-size="14.00">complex</text>
</g>
<!-- NASALib/exact_real_arith -->
<g id="node9" class="node">
<title>NASALib/exact_real_arith</title>
<polygon fill="#fcfcd7" stroke="black" points="4336.5,-52 4233.5,-52 4233.5,-16 4336.5,-16 4336.5,-52"/>
<text text-anchor="middle" x="4285" y="-28.95" font-family="Times,serif" font-size="14.00">exact_real_arith</text>
</g>
<!-- NASALib/examples@affine_examples -->
<g id="node10" class="node">
<title>NASALib/examples@affine_examples</title>
<ellipse fill="#e6f3ff" stroke="black" cx="341" cy="-259" rx="72.34" ry="18"/>
<text text-anchor="middle" x="341" y="-253.95" font-family="Times,serif" font-size="14.00">affine_examples</text>
</g>
<!-- NASALib/examples@affine_examples&#45;&gt;NASALib/affine_arith -->
<g id="edge1" class="edge">
<title>NASALib/examples@affine_examples&#45;&gt;NASALib/affine_arith</title>
<path fill="none" stroke="black" d="M395.03,-246.66C409.89,-243.54 422,-241 422,-241 422,-241 1486,-233 1486,-233 1486,-233 1529,-156.5 1529,-156.5 1529,-156.5 2949,-92.5 2949,-92.5 2949,-92.5 3965,-84.5 3965,-84.5 3965,-84.5 3976.91,-72.22 3988.87,-59.89"/>
<polygon fill="black" stroke="black" points="3990.76,-62.93 3995.21,-53.31 3985.74,-58.06 3990.76,-62.93"/>
</g>
<!-- NASALib/examples@bernstein_examples -->
<g id="node11" class="node">
<title>NASALib/examples@bernstein_examples</title>
<ellipse fill="#e6f3ff" stroke="black" cx="516" cy="-259" rx="84.62" ry="18"/>
<text text-anchor="middle" x="516" y="-253.95" font-family="Times,serif" font-size="14.00">bernstein_examples</text>
</g>
<!-- NASALib/examples@bernstein_examples&#45;&gt;NASALib/Bernstein -->
<g id="edge2" class="edge">
<title>NASALib/examples@bernstein_examples&#45;&gt;NASALib/Bernstein</title>
<path fill="none" stroke="black" d="M578.81,-246.52C595.51,-243.47 609,-241 609,-241 609,-241 1519,-233 1519,-233 1519,-233 1543,-183.5 1543,-183.5"/>
<path fill="none" stroke="black" d="M1543,-181.5C1543,-181.5 4062,-84.5 4062,-84.5 4062,-84.5 4072.03,-72.67 4082.29,-60.58"/>
<polygon fill="black" stroke="black" points="4085.51,-63.2 4089.31,-53.31 4080.17,-58.67 4085.51,-63.2"/>
</g>
<!-- NASALib/examples@bernstein_minmax -->
<g id="node12" class="node">
<title>NASALib/examples@bernstein_minmax</title>
<ellipse fill="#e6f3ff" stroke="black" cx="699" cy="-259" rx="80.52" ry="18"/>
<text text-anchor="middle" x="699" y="-253.95" font-family="Times,serif" font-size="14.00">bernstein_minmax</text>
</g>
<!-- NASALib/examples@bernstein_minmax&#45;&gt;NASALib/Bernstein -->
<g id="edge3" class="edge">
<title>NASALib/examples@bernstein_minmax&#45;&gt;NASALib/Bernstein</title>
<path fill="none" stroke="black" d="M759.03,-246.66C775.54,-243.54 789,-241 789,-241 789,-241 1519,-233 1519,-233 1519,-233 1543,-183.5 1543,-183.5"/>
</g>
<!-- NASALib/examples@chinese_remainder_theorem_Z -->
<g id="node13" class="node">
<title>NASALib/examples@chinese_remainder_theorem_Z</title>
<ellipse fill="#e6f3ff" stroke="black" cx="837" cy="-182.5" rx="126.59" ry="18"/>
<text text-anchor="middle" x="837" y="-177.45" font-family="Times,serif" font-size="14.00">chinese_remainder_theorem_Z</text>
</g>
<!-- NASALib/examples@chinese_remainder_theorem_Z&#45;&gt;NASALib/algebra -->
<g id="edge4" class="edge">
<title>NASALib/examples@chinese_remainder_theorem_Z&#45;&gt;NASALib/algebra</title>
<path fill="none" stroke="black" d="M1353,-109.5C1353,-109.5 1377,-92.5 1377,-92.5 1377,-92.5 3891,-84.5 3891,-84.5 3891,-84.5 3899.67,-72.9 3908.62,-60.93"/>
<polygon fill="black" stroke="black" points="3911.88,-63.42 3915.06,-53.31 3906.27,-59.23 3911.88,-63.42"/>
</g>
<!-- NASALib/examples@ring_zn -->
<g id="node32" class="node">
<title>NASALib/examples@ring_zn</title>
<ellipse fill="#e6f3ff" stroke="black" cx="1096" cy="-110.5" rx="39.07" ry="18"/>
<text text-anchor="middle" x="1096" y="-105.45" font-family="Times,serif" font-size="14.00">ring_zn</text>
</g>
<!-- NASALib/examples@chinese_remainder_theorem_Z&#45;&gt;NASALib/examples@ring_zn -->
<g id="edge5" class="edge">
<title>NASALib/examples@chinese_remainder_theorem_Z&#45;&gt;NASALib/examples@ring_zn</title>
<path fill="none" stroke="black" d="M894.16,-166.05C941.81,-153.17 1008.71,-135.09 1052.2,-123.34"/>
<polygon fill="black" stroke="black" points="1052.99,-126.48 1061.73,-120.49 1051.16,-119.72 1052.99,-126.48"/>
</g>
<!-- NASALib/sets_aux -->
<g id="node41" class="node">
<title>NASALib/sets_aux</title>
<polygon fill="#fcfcd7" stroke="black" points="3882.25,-52 3819.75,-52 3819.75,-16 3882.25,-16 3882.25,-52"/>
<text text-anchor="middle" x="3851" y="-28.95" font-family="Times,serif" font-size="14.00">sets_aux</text>
</g>
<!-- NASALib/examples@chinese_remainder_theorem_Z&#45;&gt;NASALib/sets_aux -->
<g id="edge6" class="edge">
<title>NASALib/examples@chinese_remainder_theorem_Z&#45;&gt;NASALib/sets_aux</title>
<path fill="none" stroke="black" d="M912.16,-167.68C943.61,-161.9 973,-156.5 973,-156.5 973,-156.5 1353,-111.5 1353,-111.5"/>
<path fill="none" stroke="black" d="M1353,-109.5C1353,-109.5 1377,-92.5 1377,-92.5 1377,-92.5 3810,-84.5 3810,-84.5 3810,-84.5 3819.79,-72.67 3829.81,-60.58"/>
<polygon fill="black" stroke="black" points="3832.98,-63.25 3836.66,-53.31 3827.59,-58.78 3832.98,-63.25"/>
</g>
<!-- NASALib/examples@csv_examples -->
<g id="node14" class="node">
<title>NASALib/examples@csv_examples</title>
<ellipse fill="#e6f3ff" stroke="black" cx="999" cy="-259" rx="63.12" ry="18"/>
<text text-anchor="middle" x="999" y="-253.95" font-family="Times,serif" font-size="14.00">csv_examples</text>
</g>
<!-- pvsio_utils/PVSioCSV -->
<g id="node45" class="node">
<title>pvsio_utils/PVSioCSV</title>
<polygon fill="#fcfcd7" stroke="black" points="3962.75,-200.5 3885.25,-200.5 3885.25,-164.5 3962.75,-164.5 3962.75,-200.5"/>
<text text-anchor="middle" x="3924" y="-177.45" font-family="Times,serif" font-size="14.00">PVSioCSV</text>
</g>
<!-- NASALib/examples@csv_examples&#45;&gt;pvsio_utils/PVSioCSV -->
<g id="edge7" class="edge">
<title>NASALib/examples@csv_examples&#45;&gt;pvsio_utils/PVSioCSV</title>
<path fill="none" stroke="black" d="M1046.62,-246.76C1060.01,-243.59 1071,-241 1071,-241 1071,-241 3876,-233 3876,-233 3876,-233 3887.91,-220.72 3899.87,-208.39"/>
<polygon fill="black" stroke="black" points="3901.76,-211.43 3906.21,-201.81 3896.74,-206.56 3901.76,-211.43"/>
</g>
<!-- NASALib/examples@deriv_examples -->
<g id="node15" class="node">
<title>NASALib/examples@deriv_examples</title>
<ellipse fill="#e6f3ff" stroke="black" cx="1621" cy="-259" rx="69.78" ry="18"/>
<text text-anchor="middle" x="1621" y="-253.95" font-family="Times,serif" font-size="14.00">deriv_examples</text>
</g>
<!-- NASALib/examples@deriv_examples&#45;&gt;NASALib/analysis -->
<g id="edge8" class="edge">
<title>NASALib/examples@deriv_examples&#45;&gt;NASALib/analysis</title>
<path fill="none" stroke="black" d="M4186,-109.5C4186,-109.5 4186,-84.2 4186,-63.09"/>
<polygon fill="black" stroke="black" points="4189.5,-63.28 4186,-53.28 4182.5,-63.28 4189.5,-63.28"/>
</g>
<!-- NASALib/lnexp -->
<g id="node38" class="node">
<title>NASALib/lnexp</title>
<polygon fill="#fcfcd7" stroke="black" points="4481,-52 4427,-52 4427,-16 4481,-16 4481,-52"/>
<text text-anchor="middle" x="4454" y="-28.95" font-family="Times,serif" font-size="14.00">lnexp</text>
</g>
<!-- NASALib/examples@deriv_examples&#45;&gt;NASALib/lnexp -->
<g id="edge9" class="edge">
<title>NASALib/examples@deriv_examples&#45;&gt;NASALib/lnexp</title>
<path fill="none" stroke="black" d="M1673.25,-246.76C1687.95,-243.59 1700,-241 1700,-241 1700,-241 3989,-233 3989,-233 3989,-233 4186,-111.5 4186,-111.5"/>
<path fill="none" stroke="black" d="M4186,-109.5C4186,-109.5 4334,-92.5 4334,-92.5 4334,-92.5 4418,-84.5 4418,-84.5 4418,-84.5 4426.44,-72.9 4435.14,-60.93"/>
<polygon fill="black" stroke="black" points="4438.36,-63.46 4441.41,-53.31 4432.7,-59.34 4438.36,-63.46"/>
</g>
<!-- NASALib/trig -->
<g id="node43" class="node">
<title>NASALib/trig</title>
<polygon fill="#fcfcd7" stroke="black" points="4409,-52 4355,-52 4355,-16 4409,-16 4409,-52"/>
<text text-anchor="middle" x="4382" y="-28.95" font-family="Times,serif" font-size="14.00">trig</text>
</g>
<!-- NASALib/examples@deriv_examples&#45;&gt;NASALib/trig -->
<g id="edge10" class="edge">
<title>NASALib/examples@deriv_examples&#45;&gt;NASALib/trig</title>
<path fill="none" stroke="black" d="M4186,-109.5C4186,-109.5 4346,-84.5 4346,-84.5 4346,-84.5 4354.44,-72.9 4363.14,-60.93"/>
<polygon fill="black" stroke="black" points="4366.36,-63.46 4369.41,-53.31 4360.7,-59.34 4366.36,-63.46"/>
</g>
<!-- NASALib/examples@era_examples -->
<g id="node16" class="node">
<title>NASALib/examples@era_examples</title>
<ellipse fill="#e6f3ff" stroke="black" cx="1771" cy="-259" rx="62.1" ry="18"/>
<text text-anchor="middle" x="1771" y="-253.95" font-family="Times,serif" font-size="14.00">era_examples</text>
</g>
<!-- NASALib/examples@era_examples&#45;&gt;NASALib/exact_real_arith -->
<g id="edge11" class="edge">
<title>NASALib/examples@era_examples&#45;&gt;NASALib/exact_real_arith</title>
<path fill="none" stroke="black" d="M1817.57,-246.85C1830.95,-243.65 1842,-241 1842,-241 1842,-241 4200,-233 4200,-233 4200,-233 4248,-92.5 4248,-92.5 4248,-92.5 4258.29,-76.51 4268.01,-61.4"/>
<polygon fill="black" stroke="black" points="4271.43,-63.56 4273.9,-53.25 4265.54,-59.77 4271.43,-63.56"/>
</g>
<!-- NASALib/examples@euclidean_domain -->
<g id="node17" class="node">
<title>NASALib/examples@euclidean_domain</title>
<ellipse fill="#e6f3ff" stroke="black" cx="1398" cy="-182.5" rx="78.99" ry="18"/>
<text text-anchor="middle" x="1398" y="-177.45" font-family="Times,serif" font-size="14.00">euclidean_domain</text>
</g>
<!-- NASALib/examples@euclidean_domain&#45;&gt;NASALib/algebra -->
<g id="edge12" class="edge">
<title>NASALib/examples@euclidean_domain&#45;&gt;NASALib/algebra</title>
<path fill="none" stroke="black" d="M1415.49,-164.76C1442.43,-138.98 1491,-92.5 1491,-92.5 1491,-92.5 3891,-84.5 3891,-84.5 3891,-84.5 3899.67,-72.9 3908.62,-60.93"/>
<polygon fill="black" stroke="black" points="3911.88,-63.42 3915.06,-53.31 3906.27,-59.23 3911.88,-63.42"/>
</g>
<!-- NASALib/examples@euclidean_domain&#45;&gt;NASALib/examples@ring_zn -->
<g id="edge13" class="edge">
<title>NASALib/examples@euclidean_domain&#45;&gt;NASALib/examples@ring_zn</title>
<path fill="none" stroke="black" d="M1350.17,-167.76C1329.96,-161.95 1311,-156.5 1311,-156.5 1311,-156.5 1204.61,-134.23 1141.51,-121.03"/>
<polygon fill="black" stroke="black" points="1142.53,-117.45 1132.02,-118.83 1141.09,-124.3 1142.53,-117.45"/>
</g>
<!-- NASALib/examples@field_examples -->
<g id="node18" class="node">
<title>NASALib/examples@field_examples</title>
<ellipse fill="#e6f3ff" stroke="black" cx="1919" cy="-259" rx="67.73" ry="18"/>
<text text-anchor="middle" x="1919" y="-253.95" font-family="Times,serif" font-size="14.00">field_examples</text>
</g>
<!-- NASALib/reals -->
<g id="node40" class="node">
<title>NASALib/reals</title>
<polygon fill="#fcfcd7" stroke="black" points="4659,-52 4605,-52 4605,-16 4659,-16 4659,-52"/>
<text text-anchor="middle" x="4632" y="-28.95" font-family="Times,serif" font-size="14.00">reals</text>
</g>
<!-- NASALib/examples@field_examples&#45;&gt;NASALib/reals -->
<g id="edge14" class="edge">
<title>NASALib/examples@field_examples&#45;&gt;NASALib/reals</title>
<path fill="none" stroke="black" d="M1969.93,-246.76C1984.25,-243.59 1996,-241 1996,-241 1996,-241 4227,-233 4227,-233 4227,-233 4276,-156.5 4276,-156.5 4276,-156.5 4413,-92.5 4413,-92.5 4413,-92.5 4596,-84.5 4596,-84.5 4596,-84.5 4604.44,-72.9 4613.14,-60.93"/>
<polygon fill="black" stroke="black" points="4616.36,-63.46 4619.41,-53.31 4610.7,-59.34 4616.36,-63.46"/>
</g>
<!-- NASALib/examples@finseq_rel_prime -->
<g id="node19" class="node">
<title>NASALib/examples@finseq_rel_prime</title>
<ellipse fill="#e6f3ff" stroke="black" cx="1096" cy="-34" rx="74.38" ry="18"/>
<text text-anchor="middle" x="1096" y="-28.95" font-family="Times,serif" font-size="14.00">finseq_rel_prime</text>
</g>
<!-- NASALib/ints -->
<g id="node37" class="node">
<title>NASALib/ints</title>
<polygon fill="#fcfcd7" stroke="black" points="3715,-52 3661,-52 3661,-16 3715,-16 3715,-52"/>
<text text-anchor="middle" x="3688" y="-28.95" font-family="Times,serif" font-size="14.00">ints</text>
</g>
<!-- NASALib/examples@finseq_rel_prime&#45;&gt;NASALib/ints -->
<g id="edge15" class="edge">
<title>NASALib/examples@finseq_rel_prime&#45;&gt;NASALib/ints</title>
<path fill="none" stroke="black" d="M1170.79,-34C1380.68,-34 1960,-34 1960,-34 1960,-34 2824,-34 2824,-34 2824,-34 3483.21,-34 3650.01,-34"/>
<polygon fill="black" stroke="black" points="3649.72,-37.5 3659.72,-34 3649.72,-30.5 3649.72,-37.5"/>
</g>
<!-- NASALib/examples@finseq_rel_prime&#45;&gt;NASALib/reals -->
<g id="edge16" class="edge">
<title>NASALib/examples@finseq_rel_prime&#45;&gt;NASALib/reals</title>
<path fill="none" stroke="black" d="M1170.6,-35.59C1592.23,-44.56 3658,-88.5 3658,-88.5 3658,-88.5 4587,-88.5 4587,-88.5 4587,-88.5 4596,-84.5 4596,-84.5 4596,-84.5 4604.22,-72.97 4612.8,-60.93"/>
<polygon fill="black" stroke="black" points="4616.05,-63.41 4619,-53.23 4610.35,-59.34 4616.05,-63.41"/>
</g>
<!-- NASALib/structures -->
<g id="node42" class="node">
<title>NASALib/structures</title>
<polygon fill="#fcfcd7" stroke="black" points="3801.25,-52 3732.75,-52 3732.75,-16 3801.25,-16 3801.25,-52"/>
<text text-anchor="middle" x="3767" y="-28.95" font-family="Times,serif" font-size="14.00">structures</text>
</g>
<!-- NASALib/examples@finseq_rel_prime&#45;&gt;NASALib/structures -->
<g id="edge17" class="edge">
<title>NASALib/examples@finseq_rel_prime&#45;&gt;NASALib/structures</title>
<path fill="none" stroke="black" d="M1170.6,-35.59C1592.23,-44.56 3658,-88.5 3658,-88.5 3658,-88.5 3715,-88.5 3715,-88.5 3715,-88.5 3724,-84.5 3724,-84.5 3724,-84.5 3734.01,-72.75 3744.37,-60.58"/>
<polygon fill="black" stroke="black" points="3747.66,-63.11 3751.48,-53.23 3742.33,-58.58 3747.66,-63.11"/>
</g>
<!-- NASALib/examples@hutch_examples -->
<g id="node20" class="node">
<title>NASALib/examples@hutch_examples</title>
<ellipse fill="#e6f3ff" stroke="black" cx="2076" cy="-259" rx="71.31" ry="18"/>
<text text-anchor="middle" x="2076" y="-253.95" font-family="Times,serif" font-size="14.00">hutch_examples</text>
</g>
<!-- NASALib/examples@hutch_examples&#45;&gt;NASALib/Tarski -->
<g id="edge18" class="edge">
<title>NASALib/examples@hutch_examples&#45;&gt;NASALib/Tarski</title>
<path fill="none" stroke="black" d="M2129.36,-246.66C2144.04,-243.54 2156,-241 2156,-241 2156,-241 4276,-233 4276,-233 4276,-233 4348,-156.5 4348,-156.5 4348,-156.5 4500,-92.5 4500,-92.5 4500,-92.5 4668,-84.5 4668,-84.5 4668,-84.5 4676.44,-72.9 4685.14,-60.93"/>
<polygon fill="black" stroke="black" points="4688.36,-63.46 4691.41,-53.31 4682.7,-59.34 4688.36,-63.46"/>
</g>
<!-- NASALib/examples@interval_examples -->
<g id="node21" class="node">
<title>NASALib/examples@interval_examples</title>
<ellipse fill="#e6f3ff" stroke="black" cx="2244" cy="-259" rx="78.99" ry="18"/>
<text text-anchor="middle" x="2244" y="-253.95" font-family="Times,serif" font-size="14.00">interval_examples</text>
</g>
<!-- NASALib/interval_arith -->
<g id="node36" class="node">
<title>NASALib/interval_arith</title>
<polygon fill="#fcfcd7" stroke="black" points="4587.38,-52 4498.62,-52 4498.62,-16 4587.38,-16 4587.38,-52"/>
<text text-anchor="middle" x="4543" y="-28.95" font-family="Times,serif" font-size="14.00">interval_arith</text>
</g>
<!-- NASALib/examples@interval_examples&#45;&gt;NASALib/interval_arith -->
<g id="edge20" class="edge">
<title>NASALib/examples@interval_examples&#45;&gt;NASALib/interval_arith</title>
<path fill="none" stroke="black" d="M4338,-181.5C4338,-181.5 4352,-156.5 4352,-156.5 4352,-156.5 4490,-84.5 4490,-84.5 4490,-84.5 4503.4,-71.98 4516.73,-59.54"/>
<polygon fill="black" stroke="black" points="4518.54,-62.7 4523.46,-53.31 4513.77,-57.58 4518.54,-62.7"/>
<path fill="none" stroke="black" d="M2302.7,-246.66C2318.84,-243.54 2332,-241 2332,-241 2332,-241 4314,-233 4314,-233 4314,-233 4338,-183.5 4338,-183.5"/>
</g>
<!-- NASALib/examples@interval_examples4Q -->
<g id="node22" class="node">
<title>NASALib/examples@interval_examples4Q</title>
<ellipse fill="#e6f3ff" stroke="black" cx="2431" cy="-259" rx="90.25" ry="18"/>
<text text-anchor="middle" x="2431" y="-253.95" font-family="Times,serif" font-size="14.00">interval_examples4Q</text>
</g>
<!-- NASALib/examples@interval_examples4Q&#45;&gt;NASALib/interval_arith -->
<g id="edge19" class="edge">
<title>NASALib/examples@interval_examples4Q&#45;&gt;NASALib/interval_arith</title>
<path fill="none" stroke="black" d="M2497.98,-246.61C2516.2,-243.52 2531,-241 2531,-241 2531,-241 4314,-233 4314,-233 4314,-233 4338,-183.5 4338,-183.5"/>
</g>
<!-- NASALib/examples@kv_examples -->
<g id="node23" class="node">
<title>NASALib/examples@kv_examples</title>
<ellipse fill="#e6f3ff" stroke="black" cx="858" cy="-259" rx="60.05" ry="18"/>
<text text-anchor="middle" x="858" y="-253.95" font-family="Times,serif" font-size="14.00">kv_examples</text>
</g>
<!-- pvsio_utils/PVSioKeyVal -->
<g id="node47" class="node">
<title>pvsio_utils/PVSioKeyVal</title>
<polygon fill="#fcfcd7" stroke="black" points="3866.88,-200.5 3775.12,-200.5 3775.12,-164.5 3866.88,-164.5 3866.88,-200.5"/>
<text text-anchor="middle" x="3821" y="-177.45" font-family="Times,serif" font-size="14.00">PVSioKeyVal</text>
</g>
<!-- NASALib/examples@kv_examples&#45;&gt;pvsio_utils/PVSioKeyVal -->
<g id="edge21" class="edge">
<title>NASALib/examples@kv_examples&#45;&gt;pvsio_utils/PVSioKeyVal</title>
<path fill="none" stroke="black" d="M903.25,-246.85C916.26,-243.65 927,-241 927,-241 927,-241 3766,-233 3766,-233 3766,-233 3779.91,-220.48 3793.74,-208.04"/>
<polygon fill="black" stroke="black" points="3795.67,-211.1 3800.76,-201.81 3790.99,-205.9 3795.67,-211.1"/>
</g>
<!-- NASALib/examples@metit_examples -->
<g id="node24" class="node">
<title>NASALib/examples@metit_examples</title>
<ellipse fill="#e6f3ff" stroke="black" cx="2610" cy="-259" rx="70.29" ry="18"/>
<text text-anchor="middle" x="2610" y="-253.95" font-family="Times,serif" font-size="14.00">metit_examples</text>
</g>
<!-- NASALib/examples@metit_examples&#45;&gt;NASALib/interval_arith -->
<g id="edge22" class="edge">
<title>NASALib/examples@metit_examples&#45;&gt;NASALib/interval_arith</title>
<path fill="none" stroke="black" d="M4514,-109.5C4514,-109.5 4524.03,-83.73 4532.29,-62.5"/>
<polygon fill="black" stroke="black" points="4535.91,-63.87 4536.27,-53.28 4529.38,-61.33 4535.91,-63.87"/>
</g>
<!-- NASALib/examples@metit_examples&#45;&gt;NASALib/lnexp -->
<g id="edge23" class="edge">
<title>NASALib/examples@metit_examples&#45;&gt;NASALib/lnexp</title>
<path fill="none" stroke="black" d="M4514,-109.5C4514,-109.5 4490,-84.5 4490,-84.5 4490,-84.5 4481.56,-72.9 4472.86,-60.93"/>
<polygon fill="black" stroke="black" points="4475.3,-59.34 4466.59,-53.31 4469.64,-63.46 4475.3,-59.34"/>
</g>
<!-- NASALib/examples@metit_examples&#45;&gt;NASALib/reals -->
<g id="edge24" class="edge">
<title>NASALib/examples@metit_examples&#45;&gt;NASALib/reals</title>
<path fill="none" stroke="black" d="M4514,-109.5C4514,-109.5 4538,-92.5 4538,-92.5 4538,-92.5 4596,-84.5 4596,-84.5 4596,-84.5 4604.44,-72.9 4613.14,-60.93"/>
<polygon fill="black" stroke="black" points="4616.36,-63.46 4619.41,-53.31 4610.7,-59.34 4616.36,-63.46"/>
</g>
<!-- NASALib/examples@metit_examples&#45;&gt;NASALib/trig -->
<g id="edge25" class="edge">
<title>NASALib/examples@metit_examples&#45;&gt;NASALib/trig</title>
<path fill="none" stroke="black" d="M4514,-109.5C4514,-109.5 4418,-84.5 4418,-84.5 4418,-84.5 4409.56,-72.9 4400.86,-60.93"/>
<polygon fill="black" stroke="black" points="4403.3,-59.34 4394.59,-53.31 4397.64,-63.46 4403.3,-59.34"/>
<path fill="none" stroke="black" d="M2662.69,-246.66C2677.19,-243.54 2689,-241 2689,-241 2689,-241 4352,-233 4352,-233 4352,-233 4514,-111.5 4514,-111.5"/>
</g>
<!-- NASALib/examples@prime_factorization_checker -->
<g id="node25" class="node">
<title>NASALib/examples@prime_factorization_checker</title>
<ellipse fill="#e6f3ff" stroke="black" cx="133" cy="-259" rx="117.37" ry="18"/>
<text text-anchor="middle" x="133" y="-253.95" font-family="Times,serif" font-size="14.00">prime_factorization_checker</text>
</g>
<!-- NASALib/examples@primes -->
<g id="node26" class="node">
<title>NASALib/examples@primes</title>
<ellipse fill="#e6f3ff" stroke="black" cx="1265" cy="-182.5" rx="36.51" ry="18"/>
<text text-anchor="middle" x="1265" y="-177.45" font-family="Times,serif" font-size="14.00">primes</text>
</g>
<!-- NASALib/examples@prime_factorization_checker&#45;&gt;NASALib/examples@primes -->
<g id="edge26" class="edge">
<title>NASALib/examples@prime_factorization_checker&#45;&gt;NASALib/examples@primes</title>
<path fill="none" stroke="black" d="M219.12,-246.47C241.77,-243.44 260,-241 260,-241 260,-241 1219,-233 1219,-233 1219,-233 1231.17,-219.9 1242.99,-207.19"/>
<polygon fill="black" stroke="black" points="1244.95,-210.14 1249.19,-200.43 1239.82,-205.38 1244.95,-210.14"/>
</g>
<!-- pvsio_utils/PVSioChecker -->
<g id="node46" class="node">
<title>pvsio_utils/PVSioChecker</title>
<polygon fill="#fcfcd7" stroke="black" points="3757.12,-200.5 3660.88,-200.5 3660.88,-164.5 3757.12,-164.5 3757.12,-200.5"/>
<text text-anchor="middle" x="3709" y="-177.45" font-family="Times,serif" font-size="14.00">PVSioChecker</text>
</g>
<!-- NASALib/examples@prime_factorization_checker&#45;&gt;pvsio_utils/PVSioChecker -->
<g id="edge27" class="edge">
<title>NASALib/examples@prime_factorization_checker&#45;&gt;pvsio_utils/PVSioChecker</title>
<path fill="none" stroke="black" d="M219.12,-246.47C241.77,-243.44 260,-241 260,-241 260,-241 3649,-233 3649,-233 3649,-233 3664.46,-220.25 3679.68,-207.69"/>
<polygon fill="black" stroke="black" points="3681.53,-209.88 3687.01,-200.81 3677.07,-204.48 3681.53,-209.88"/>
</g>
<!-- NASALib/examples@primes&#45;&gt;NASALib/reals -->
<g id="edge28" class="edge">
<title>NASALib/examples@primes&#45;&gt;NASALib/reals</title>
<path fill="none" stroke="black" d="M1288.55,-168.41C1299.44,-162.37 1310,-156.5 1310,-156.5 1310,-156.5 4172,-92.5 4172,-92.5 4172,-92.5 4596,-84.5 4596,-84.5 4596,-84.5 4604.44,-72.9 4613.14,-60.93"/>
<polygon fill="black" stroke="black" points="4616.36,-63.46 4619.41,-53.31 4610.7,-59.34 4616.36,-63.46"/>
</g>
<!-- NASALib/examples@prooflite_examples -->
<g id="node27" class="node">
<title>NASALib/examples@prooflite_examples</title>
<ellipse fill="#e6f3ff" stroke="black" cx="1163" cy="-259" rx="82.57" ry="18"/>
<text text-anchor="middle" x="1163" y="-253.95" font-family="Times,serif" font-size="14.00">prooflite_examples</text>
</g>
<!-- NASALib/examples@pvsio_examples -->
<g id="node28" class="node">
<title>NASALib/examples@pvsio_examples</title>
<ellipse fill="#e6f3ff" stroke="black" cx="2769" cy="-259" rx="70.8" ry="18"/>
<text text-anchor="middle" x="2769" y="-253.95" font-family="Times,serif" font-size="14.00">pvsio_examples</text>
</g>
<!-- NASALib/pvsio_utils -->
<g id="node39" class="node">
<title>NASALib/pvsio_utils</title>
<polygon fill="#fcfcd7" stroke="black" points="4824.62,-52 4749.38,-52 4749.38,-16 4824.62,-16 4824.62,-52"/>
<text text-anchor="middle" x="4787" y="-28.95" font-family="Times,serif" font-size="14.00">pvsio_utils</text>
</g>
<!-- NASALib/examples@pvsio_examples&#45;&gt;NASALib/pvsio_utils -->
<g id="edge29" class="edge">
<title>NASALib/examples@pvsio_examples&#45;&gt;NASALib/pvsio_utils</title>
<path fill="none" stroke="black" d="M4552,-109.5C4552,-109.5 4574,-92.5 4574,-92.5 4574,-92.5 4740,-84.5 4740,-84.5 4740,-84.5 4751.45,-72.45 4763.04,-60.23"/>
<polygon fill="black" stroke="black" points="4765.21,-62.97 4769.56,-53.31 4760.14,-58.15 4765.21,-62.97"/>
</g>
<!-- NASALib/examples@pvsio_examples&#45;&gt;NASALib/reals -->
<g id="edge30" class="edge">
<title>NASALib/examples@pvsio_examples&#45;&gt;NASALib/reals</title>
<path fill="none" stroke="black" d="M4552,-109.5C4552,-109.5 4576,-92.5 4576,-92.5 4576,-92.5 4596,-84.5 4596,-84.5 4596,-84.5 4604.44,-72.9 4613.14,-60.93"/>
<polygon fill="black" stroke="black" points="4616.36,-63.46 4619.41,-53.31 4610.7,-59.34 4616.36,-63.46"/>
<path fill="none" stroke="black" d="M2821.69,-246.66C2836.19,-243.54 2848,-241 2848,-241 2848,-241 4416,-233 4416,-233 4416,-233 4552,-111.5 4552,-111.5"/>
</g>
<!-- NASALib/examples@riemann_examples -->
<g id="node29" class="node">
<title>NASALib/examples@riemann_examples</title>
<ellipse fill="#e6f3ff" stroke="black" cx="2939" cy="-259" rx="81.55" ry="18"/>
<text text-anchor="middle" x="2939" y="-253.95" font-family="Times,serif" font-size="14.00">riemann_examples</text>
</g>
<!-- NASALib/examples@riemann_examples&#45;&gt;NASALib/Riemann -->
<g id="edge31" class="edge">
<title>NASALib/examples@riemann_examples&#45;&gt;NASALib/Riemann</title>
<path fill="none" stroke="black" d="M2999.7,-246.66C3016.39,-243.54 3030,-241 3030,-241 3030,-241 4472,-233 4472,-233 4472,-233 4614,-92.5 4614,-92.5 4614,-92.5 4834,-84.5 4834,-84.5 4834,-84.5 4843.79,-72.67 4853.81,-60.58"/>
<polygon fill="black" stroke="black" points="4856.98,-63.25 4860.66,-53.31 4851.59,-58.78 4856.98,-63.25"/>
</g>
<!-- NASALib/examples@ring_euclidean_gcd_algorithm_Z -->
<g id="node30" class="node">
<title>NASALib/examples@ring_euclidean_gcd_algorithm_Z</title>
<ellipse fill="#e6f3ff" stroke="black" cx="1398" cy="-259" rx="134.78" ry="18"/>
<text text-anchor="middle" x="1398" y="-253.95" font-family="Times,serif" font-size="14.00">ring_euclidean_gcd_algorithm_Z</text>
</g>
<!-- NASALib/examples@ring_euclidean_gcd_algorithm_Z&#45;&gt;NASALib/algebra -->
<g id="edge32" class="edge">
<title>NASALib/examples@ring_euclidean_gcd_algorithm_Z&#45;&gt;NASALib/algebra</title>
<path fill="none" stroke="black" d="M1496.44,-246.38C1521.75,-243.39 1542,-241 1542,-241 1542,-241 3975,-233 3975,-233 3975,-233 3975,-156.5 3975,-156.5 3975,-156.5 3952.41,-98.1 3938.55,-62.28"/>
<polygon fill="black" stroke="black" points="3941.61,-61.47 3934.73,-53.41 3935.08,-64 3941.61,-61.47"/>
</g>
<!-- NASALib/examples@ring_euclidean_gcd_algorithm_Z&#45;&gt;NASALib/examples@euclidean_domain -->
<g id="edge33" class="edge">
<title>NASALib/examples@ring_euclidean_gcd_algorithm_Z&#45;&gt;NASALib/examples@euclidean_domain</title>
<path fill="none" stroke="black" d="M1398,-240.72C1398,-232.13 1398,-221.53 1398,-211.8"/>
<polygon fill="black" stroke="black" points="1401.5,-211.94 1398,-201.94 1394.5,-211.94 1401.5,-211.94"/>
</g>
<!-- NASALib/examples@ring_euclidean_gcd_algorithm_Zi -->
<g id="node31" class="node">
<title>NASALib/examples@ring_euclidean_gcd_algorithm_Zi</title>
<ellipse fill="#e6f3ff" stroke="black" cx="3176" cy="-259" rx="137.34" ry="18"/>
<text text-anchor="middle" x="3176" y="-253.95" font-family="Times,serif" font-size="14.00">ring_euclidean_gcd_algorithm_Zi</text>
</g>
<!-- NASALib/examples@ring_euclidean_gcd_algorithm_Zi&#45;&gt;NASALib/algebra -->
<g id="edge34" class="edge">
<title>NASALib/examples@ring_euclidean_gcd_algorithm_Zi&#45;&gt;NASALib/algebra</title>
<path fill="none" stroke="black" d="M4628,-109.5C4628,-109.5 4566,-92.5 4566,-92.5 4566,-92.5 3965,-84.5 3965,-84.5 3965,-84.5 3956.33,-72.9 3947.38,-60.93"/>
<polygon fill="black" stroke="black" points="3949.73,-59.23 3940.94,-53.31 3944.12,-63.42 3949.73,-59.23"/>
</g>
<!-- NASALib/examples@ring_euclidean_gcd_algorithm_Zi&#45;&gt;NASALib/complex -->
<g id="edge35" class="edge">
<title>NASALib/examples@ring_euclidean_gcd_algorithm_Zi&#45;&gt;NASALib/complex</title>
<path fill="none" stroke="black" d="M3276.49,-246.38C3302.33,-243.39 3323,-241 3323,-241 3323,-241 4604,-233 4604,-233 4604,-233 4628,-111.5 4628,-111.5"/>
<path fill="none" stroke="black" d="M4628,-109.5C4628,-109.5 4673,-92.5 4673,-92.5 4673,-92.5 4917,-84.5 4917,-84.5 4917,-84.5 4926.56,-72.67 4936.33,-60.58"/>
<polygon fill="black" stroke="black" points="4939.45,-63.29 4943.01,-53.31 4934,-58.89 4939.45,-63.29"/>
</g>
<!-- NASALib/examples@ring_zn&#45;&gt;NASALib/algebra -->
<g id="edge36" class="edge">
<title>NASALib/examples@ring_zn&#45;&gt;NASALib/algebra</title>
<path fill="none" stroke="black" d="M1134.5,-106.81C1203.02,-102.01 1339,-92.5 1339,-92.5 1339,-92.5 3891,-84.5 3891,-84.5 3891,-84.5 3899.67,-72.9 3908.62,-60.93"/>
<polygon fill="black" stroke="black" points="3911.88,-63.42 3915.06,-53.31 3906.27,-59.23 3911.88,-63.42"/>
</g>
<!-- NASALib/examples@ring_zn&#45;&gt;NASALib/examples@finseq_rel_prime -->
<g id="edge37" class="edge">
<title>NASALib/examples@ring_zn&#45;&gt;NASALib/examples@finseq_rel_prime</title>
<path fill="none" stroke="black" d="M1096,-92.22C1096,-83.63 1096,-73.03 1096,-63.3"/>
<polygon fill="black" stroke="black" points="1099.5,-63.44 1096,-53.44 1092.5,-63.44 1099.5,-63.44"/>
</g>
<!-- NASALib/examples@ring_zn&#45;&gt;NASALib/ints -->
<g id="edge38" class="edge">
<title>NASALib/examples@ring_zn&#45;&gt;NASALib/ints</title>
<path fill="none" stroke="black" d="M1134.5,-106.81C1203.02,-102.01 1339,-92.5 1339,-92.5 1339,-92.5 3649,-84.5 3649,-84.5 3649,-84.5 3658.14,-72.9 3667.57,-60.93"/>
<polygon fill="black" stroke="black" points="3670.92,-63.33 3674.36,-53.31 3665.42,-59 3670.92,-63.33"/>
</g>
<!-- NASALib/examples@sturm_examples -->
<g id="node33" class="node">
<title>NASALib/examples@sturm_examples</title>
<ellipse fill="#e6f3ff" stroke="black" cx="3404" cy="-259" rx="72.34" ry="18"/>
<text text-anchor="middle" x="3404" y="-253.95" font-family="Times,serif" font-size="14.00">sturm_examples</text>
</g>
<!-- NASALib/examples@sturm_examples&#45;&gt;NASALib/Sturm -->
<g id="edge39" class="edge">
<title>NASALib/examples@sturm_examples&#45;&gt;NASALib/Sturm</title>
<path fill="none" stroke="black" d="M3458.24,-246.76C3473.49,-243.59 3486,-241 3486,-241 3486,-241 4642,-233 4642,-233 4642,-233 4690,-92.5 4690,-92.5 4690,-92.5 4998,-84.5 4998,-84.5 4998,-84.5 5006.44,-72.9 5015.14,-60.93"/>
<polygon fill="black" stroke="black" points="5018.36,-63.46 5021.41,-53.31 5012.7,-59.34 5018.36,-63.46"/>
</g>
<!-- NASALib/examples@tarski_examples -->
<g id="node34" class="node">
<title>NASALib/examples@tarski_examples</title>
<ellipse fill="#e6f3ff" stroke="black" cx="3566" cy="-259" rx="71.31" ry="18"/>
<text text-anchor="middle" x="3566" y="-253.95" font-family="Times,serif" font-size="14.00">tarski_examples</text>
</g>
<!-- NASALib/examples@tarski_examples&#45;&gt;NASALib/Tarski -->
<g id="edge40" class="edge">
<title>NASALib/examples@tarski_examples&#45;&gt;NASALib/Tarski</title>
<path fill="none" stroke="black" d="M4704,-109.5C4704,-109.5 4704,-84.2 4704,-63.09"/>
<polygon fill="black" stroke="black" points="4707.5,-63.28 4704,-53.28 4700.5,-63.28 4707.5,-63.28"/>
</g>
<!-- NASALib/vectors -->
<g id="node44" class="node">
<title>NASALib/vectors</title>
<polygon fill="#fcfcd7" stroke="black" points="5134.5,-52 5079.5,-52 5079.5,-16 5134.5,-16 5134.5,-52"/>
<text text-anchor="middle" x="5107" y="-28.95" font-family="Times,serif" font-size="14.00">vectors</text>
</g>
<!-- NASALib/examples@tarski_examples&#45;&gt;NASALib/vectors -->
<g id="edge41" class="edge">
<title>NASALib/examples@tarski_examples&#45;&gt;NASALib/vectors</title>
<path fill="none" stroke="black" d="M4704,-109.5C4704,-109.5 5070,-84.5 5070,-84.5 5070,-84.5 5078.67,-72.9 5087.62,-60.93"/>
<polygon fill="black" stroke="black" points="5090.88,-63.42 5094.06,-53.31 5085.27,-59.23 5090.88,-63.42"/>
<path fill="none" stroke="black" d="M3636.96,-256.41C3882.33,-250.9 4680,-233 4680,-233 4680,-233 4704,-111.5 4704,-111.5"/>
</g>
<!-- NASALib/examples@zn_example_2isomorphism -->
<g id="node35" class="node">
<title>NASALib/examples@zn_example_2isomorphism</title>
<ellipse fill="#e6f3ff" stroke="black" cx="1096" cy="-182.5" rx="114.3" ry="18"/>
<text text-anchor="middle" x="1096" y="-177.45" font-family="Times,serif" font-size="14.00">zn_example_2isomorphism</text>
</g>
<!-- NASALib/examples@zn_example_2isomorphism&#45;&gt;NASALib/algebra -->
<g id="edge42" class="edge">
<title>NASALib/examples@zn_example_2isomorphism&#45;&gt;NASALib/algebra</title>
<path fill="none" stroke="black" d="M1391,-109.5C1391,-109.5 1415,-92.5 1415,-92.5 1415,-92.5 3891,-84.5 3891,-84.5 3891,-84.5 3899.67,-72.9 3908.62,-60.93"/>
<polygon fill="black" stroke="black" points="3911.88,-63.42 3915.06,-53.31 3906.27,-59.23 3911.88,-63.42"/>
</g>
<!-- NASALib/examples@zn_example_2isomorphism&#45;&gt;NASALib/examples@ring_zn -->
<g id="edge43" class="edge">
<title>NASALib/examples@zn_example_2isomorphism&#45;&gt;NASALib/examples@ring_zn</title>
<path fill="none" stroke="black" d="M1096,-164.2C1096,-156.74 1096,-147.82 1096,-139.47"/>
<polygon fill="black" stroke="black" points="1099.5,-139.6 1096,-129.6 1092.5,-139.6 1099.5,-139.6"/>
</g>
<!-- NASALib/examples@zn_example_2isomorphism&#45;&gt;NASALib/sets_aux -->
<g id="edge44" class="edge">
<title>NASALib/examples@zn_example_2isomorphism&#45;&gt;NASALib/sets_aux</title>
<path fill="none" stroke="black" d="M1391,-109.5C1391,-109.5 1415,-92.5 1415,-92.5 1415,-92.5 3810,-84.5 3810,-84.5 3810,-84.5 3819.79,-72.67 3829.81,-60.58"/>
<polygon fill="black" stroke="black" points="3832.98,-63.25 3836.66,-53.31 3827.59,-58.78 3832.98,-63.25"/>
<path fill="none" stroke="black" d="M1163.98,-167.68C1192.42,-161.9 1219,-156.5 1219,-156.5 1219,-156.5 1367,-128.5 1367,-128.5 1367,-128.5 1391,-111.5 1391,-111.5"/>
</g>
</g>
</svg>
