<?xml version="1.0" encoding="UTF-8" standalone="no"?>
<!DOCTYPE svg PUBLIC "-//W3C//DTD SVG 1.1//EN"
 "http://www.w3.org/Graphics/SVG/1.1/DTD/svg11.dtd">
<!-- Generated by graphviz version 7.0.6 (20230106.0513)
 -->
<!-- Title: examples&#45;zoomed Pages: 1 -->
<svg width="3749pt" height="174pt"
 viewBox="0.00 0.00 3749.00 174.00" xmlns="http://www.w3.org/2000/svg" xmlns:xlink="http://www.w3.org/1999/xlink">
<g id="graph0" class="graph" transform="scale(1 1) rotate(0) translate(4 170)">
<title>examples&#45;zoomed</title>
<polygon fill="white" stroke="none" points="-4,4 -4,-170 3745,-170 3745,4 -4,4"/>
<g id="clust1" class="cluster">
<title>cluster_NASALib</title>
<polygon fill="none" stroke="black" points="2609,-8 2609,-83 3733,-83 3733,-8 2609,-8"/>
<text text-anchor="middle" x="3171" y="-67.8" font-family="Times,serif" font-size="14.00">NASALib</text>
</g>
<g id="clust2" class="cluster">
<title>cluster_NASALib/examples</title>
<polygon fill="none" stroke="black" points="8,-8 8,-158 2601,-158 2601,-8 8,-8"/>
<text text-anchor="middle" x="1304.5" y="-142.8" font-family="Times,serif" font-size="14.00">NASALib/examples</text>
</g>
<!-- NASALib/Bernstein -->
<g id="node1" class="node">
<title>NASALib/Bernstein</title>
<polygon fill="#fcfcd7" stroke="black" points="3725,-52 3657,-52 3657,-16 3725,-16 3725,-52"/>
<text text-anchor="middle" x="3691" y="-30.3" font-family="Times,serif" font-size="14.00">Bernstein</text>
</g>
<!-- NASALib/PVSioChecker -->
<g id="node2" class="node">
<title>NASALib/PVSioChecker</title>
<polygon fill="#fcfcd7" stroke="black" points="3016.5,-52 2919.5,-52 2919.5,-16 3016.5,-16 3016.5,-52"/>
<text text-anchor="middle" x="2968" y="-30.3" font-family="Times,serif" font-size="14.00">PVSioChecker</text>
</g>
<!-- NASALib/Riemann -->
<g id="node3" class="node">
<title>NASALib/Riemann</title>
<polygon fill="#fcfcd7" stroke="black" points="2755,-52 2689,-52 2689,-16 2755,-16 2755,-52"/>
<text text-anchor="middle" x="2722" y="-30.3" font-family="Times,serif" font-size="14.00">Riemann</text>
</g>
<!-- NASALib/Sturm -->
<g id="node4" class="node">
<title>NASALib/Sturm</title>
<polygon fill="#fcfcd7" stroke="black" points="2671,-52 2617,-52 2617,-16 2671,-16 2671,-52"/>
<text text-anchor="middle" x="2644" y="-30.3" font-family="Times,serif" font-size="14.00">Sturm</text>
</g>
<!-- NASALib/Tarski -->
<g id="node5" class="node">
<title>NASALib/Tarski</title>
<polygon fill="#fcfcd7" stroke="black" points="2901,-52 2847,-52 2847,-16 2901,-16 2901,-52"/>
<text text-anchor="middle" x="2874" y="-30.3" font-family="Times,serif" font-size="14.00">Tarski</text>
</g>
<!-- NASALib/affine_arith -->
<g id="node6" class="node">
<title>NASALib/affine_arith</title>
<polygon fill="#fcfcd7" stroke="black" points="3639,-52 3559,-52 3559,-16 3639,-16 3639,-52"/>
<text text-anchor="middle" x="3599" y="-30.3" font-family="Times,serif" font-size="14.00">affine_arith</text>
</g>
<!-- NASALib/analysis -->
<g id="node7" class="node">
<title>NASALib/analysis</title>
<polygon fill="#fcfcd7" stroke="black" points="3311,-52 3251,-52 3251,-16 3311,-16 3311,-52"/>
<text text-anchor="middle" x="3281" y="-30.3" font-family="Times,serif" font-size="14.00">analysis</text>
</g>
<!-- NASALib/exact_real_arith -->
<g id="node8" class="node">
<title>NASALib/exact_real_arith</title>
<polygon fill="#fcfcd7" stroke="black" points="3541,-52 3437,-52 3437,-16 3541,-16 3541,-52"/>
<text text-anchor="middle" x="3489" y="-30.3" font-family="Times,serif" font-size="14.00">exact_real_arith</text>
</g>
<!-- NASALib/examples@affine_examples -->
<g id="node9" class="node">
<title>NASALib/examples@affine_examples</title>
<ellipse fill="#e6f3ff" stroke="black" cx="2170" cy="-109" rx="69.59" ry="18"/>
<text text-anchor="middle" x="2170" y="-105.3" font-family="Times,serif" font-size="14.00">affine_examples</text>
</g>
<!-- NASALib/examples@affine_examples&#45;&gt;NASALib/affine_arith -->
<g id="edge1" class="edge">
<title>NASALib/examples@affine_examples&#45;&gt;NASALib/affine_arith</title>
<path fill="none" stroke="black" d="M2222.25,-96.76C2236.95,-93.59 2249,-91 2249,-91 2249,-91 3550,-83 3550,-83 3550,-83 3561.4,-71.83 3573.21,-60.27"/>
<polygon fill="black" stroke="black" points="3575.53,-62.89 3580.23,-53.39 3570.64,-57.89 3575.53,-62.89"/>
</g>
<!-- NASALib/examples@bernstein_examples -->
<g id="node10" class="node">
<title>NASALib/examples@bernstein_examples</title>
<ellipse fill="#e6f3ff" stroke="black" cx="2512" cy="-109" rx="81.49" ry="18"/>
<text text-anchor="middle" x="2512" y="-105.3" font-family="Times,serif" font-size="14.00">bernstein_examples</text>
</g>
<!-- NASALib/examples@bernstein_examples&#45;&gt;NASALib/Bernstein -->
<g id="edge2" class="edge">
<title>NASALib/examples@bernstein_examples&#45;&gt;NASALib/Bernstein</title>
<path fill="none" stroke="black" d="M2592.79,-106.22C2852.32,-100.51 3648,-83 3648,-83 3648,-83 3657.82,-72.04 3668.07,-60.6"/>
<polygon fill="black" stroke="black" points="3670.4,-63.24 3674.47,-53.46 3665.19,-58.57 3670.4,-63.24"/>
</g>
<!-- NASALib/examples@bernstein_minmax -->
<g id="node11" class="node">
<title>NASALib/examples@bernstein_minmax</title>
<ellipse fill="#e6f3ff" stroke="black" cx="2335" cy="-109" rx="77.19" ry="18"/>
<text text-anchor="middle" x="2335" y="-105.3" font-family="Times,serif" font-size="14.00">bernstein_minmax</text>
</g>
<!-- NASALib/examples@bernstein_minmax&#45;&gt;NASALib/Bernstein -->
<g id="edge3" class="edge">
<title>NASALib/examples@bernstein_minmax&#45;&gt;NASALib/Bernstein</title>
<path fill="none" stroke="black" d="M2392.55,-96.76C2408.72,-93.59 2422,-91 2422,-91 2422,-91 3648,-83 3648,-83 3648,-83 3657.82,-72.04 3668.07,-60.6"/>
<polygon fill="black" stroke="black" points="3670.4,-63.24 3674.47,-53.46 3665.19,-58.57 3670.4,-63.24"/>
</g>
<!-- NASALib/examples@checker_example -->
<g id="node12" class="node">
<title>NASALib/examples@checker_example</title>
<ellipse fill="#e6f3ff" stroke="black" cx="905" cy="-109" rx="72.59" ry="18"/>
<text text-anchor="middle" x="905" y="-105.3" font-family="Times,serif" font-size="14.00">checker_example</text>
</g>
<!-- NASALib/examples@checker_example&#45;&gt;NASALib/PVSioChecker -->
<g id="edge4" class="edge">
<title>NASALib/examples@checker_example&#45;&gt;NASALib/PVSioChecker</title>
<path fill="none" stroke="black" d="M959.24,-96.76C974.49,-93.59 987,-91 987,-91 987,-91 2910,-83 2910,-83 2910,-83 2924.02,-71.4 2938.28,-59.6"/>
<polygon fill="black" stroke="black" points="2940.42,-62.37 2945.89,-53.29 2935.96,-56.97 2940.42,-62.37"/>
</g>
<!-- NASALib/examples@is_prime -->
<g id="node19" class="node">
<title>NASALib/examples@is_prime</title>
<ellipse fill="#e6f3ff" stroke="black" cx="905" cy="-34" rx="42.49" ry="18"/>
<text text-anchor="middle" x="905" y="-30.3" font-family="Times,serif" font-size="14.00">is_prime</text>
</g>
<!-- NASALib/examples@checker_example&#45;&gt;NASALib/examples@is_prime -->
<g id="edge5" class="edge">
<title>NASALib/examples@checker_example&#45;&gt;NASALib/examples@is_prime</title>
<path fill="none" stroke="black" d="M905,-90.7C905,-82.67 905,-72.9 905,-63.8"/>
<polygon fill="black" stroke="black" points="908.5,-63.94 905,-53.94 901.5,-63.94 908.5,-63.94"/>
</g>
<!-- NASALib/examples@deriv_examples -->
<g id="node13" class="node">
<title>NASALib/examples@deriv_examples</title>
<ellipse fill="#e6f3ff" stroke="black" cx="1519" cy="-109" rx="66.89" ry="18"/>
<text text-anchor="middle" x="1519" y="-105.3" font-family="Times,serif" font-size="14.00">deriv_examples</text>
</g>
<!-- NASALib/examples@deriv_examples&#45;&gt;NASALib/analysis -->
<g id="edge6" class="edge">
<title>NASALib/examples@deriv_examples&#45;&gt;NASALib/analysis</title>
<path fill="none" stroke="black" d="M1569.27,-96.76C1583.4,-93.59 1595,-91 1595,-91 1595,-91 3242,-83 3242,-83 3242,-83 3250.56,-72.46 3259.66,-61.26"/>
<polygon fill="black" stroke="black" points="3262.38,-63.47 3265.97,-53.5 3256.94,-59.06 3262.38,-63.47"/>
</g>
<!-- NASALib/lnexp -->
<g id="node27" class="node">
<title>NASALib/lnexp</title>
<polygon fill="#fcfcd7" stroke="black" points="3161,-52 3107,-52 3107,-16 3161,-16 3161,-52"/>
<text text-anchor="middle" x="3134" y="-30.3" font-family="Times,serif" font-size="14.00">lnexp</text>
</g>
<!-- NASALib/examples@deriv_examples&#45;&gt;NASALib/lnexp -->
<g id="edge7" class="edge">
<title>NASALib/examples@deriv_examples&#45;&gt;NASALib/lnexp</title>
<path fill="none" stroke="black" d="M1569.27,-96.76C1583.4,-93.59 1595,-91 1595,-91 1595,-91 3098,-83 3098,-83 3098,-83 3105.9,-72.46 3114.3,-61.26"/>
<polygon fill="black" stroke="black" points="3116.9,-63.64 3120.1,-53.54 3111.3,-59.44 3116.9,-63.64"/>
</g>
<!-- NASALib/trig -->
<g id="node29" class="node">
<title>NASALib/trig</title>
<polygon fill="#fcfcd7" stroke="black" points="3233,-52 3179,-52 3179,-16 3233,-16 3233,-52"/>
<text text-anchor="middle" x="3206" y="-30.3" font-family="Times,serif" font-size="14.00">trig</text>
</g>
<!-- NASALib/examples@deriv_examples&#45;&gt;NASALib/trig -->
<g id="edge8" class="edge">
<title>NASALib/examples@deriv_examples&#45;&gt;NASALib/trig</title>
<path fill="none" stroke="black" d="M1569.27,-96.76C1583.4,-93.59 1595,-91 1595,-91 1595,-91 3170,-83 3170,-83 3170,-83 3177.9,-72.46 3186.3,-61.26"/>
<polygon fill="black" stroke="black" points="3188.9,-63.64 3192.1,-53.54 3183.3,-59.44 3188.9,-63.64"/>
</g>
<!-- NASALib/examples@era_examples -->
<g id="node14" class="node">
<title>NASALib/examples@era_examples</title>
<ellipse fill="#e6f3ff" stroke="black" cx="2023" cy="-109" rx="59.59" ry="18"/>
<text text-anchor="middle" x="2023" y="-105.3" font-family="Times,serif" font-size="14.00">era_examples</text>
</g>
<!-- NASALib/examples@era_examples&#45;&gt;NASALib/exact_real_arith -->
<g id="edge9" class="edge">
<title>NASALib/examples@era_examples&#45;&gt;NASALib/exact_real_arith</title>
<path fill="none" stroke="black" d="M2067.98,-96.76C2080.62,-93.59 2091,-91 2091,-91 2091,-91 3428,-83 3428,-83 3428,-83 3443.03,-71.18 3458.16,-59.26"/>
<polygon fill="black" stroke="black" points="3460.09,-62.2 3465.79,-53.27 3455.77,-56.7 3460.09,-62.2"/>
</g>
<!-- NASALib/examples@field_examples -->
<g id="node15" class="node">
<title>NASALib/examples@field_examples</title>
<ellipse fill="#e6f3ff" stroke="black" cx="1215" cy="-109" rx="64.99" ry="18"/>
<text text-anchor="middle" x="1215" y="-105.3" font-family="Times,serif" font-size="14.00">field_examples</text>
</g>
<!-- NASALib/reals -->
<g id="node28" class="node">
<title>NASALib/reals</title>
<polygon fill="#fcfcd7" stroke="black" points="3089,-52 3035,-52 3035,-16 3089,-16 3089,-52"/>
<text text-anchor="middle" x="3062" y="-30.3" font-family="Times,serif" font-size="14.00">reals</text>
</g>
<!-- NASALib/examples@field_examples&#45;&gt;NASALib/reals -->
<g id="edge10" class="edge">
<title>NASALib/examples@field_examples&#45;&gt;NASALib/reals</title>
<path fill="none" stroke="black" d="M1263.95,-96.76C1277.71,-93.59 1289,-91 1289,-91 1289,-91 3026,-83 3026,-83 3026,-83 3033.9,-72.46 3042.3,-61.26"/>
<polygon fill="black" stroke="black" points="3044.9,-63.64 3048.1,-53.54 3039.3,-59.44 3044.9,-63.64"/>
</g>
<!-- NASALib/examples@hutch_examples -->
<g id="node16" class="node">
<title>NASALib/examples@hutch_examples</title>
<ellipse fill="#e6f3ff" stroke="black" cx="1064" cy="-109" rx="68.49" ry="18"/>
<text text-anchor="middle" x="1064" y="-105.3" font-family="Times,serif" font-size="14.00">hutch_examples</text>
</g>
<!-- NASALib/examples@hutch_examples&#45;&gt;NASALib/Tarski -->
<g id="edge11" class="edge">
<title>NASALib/examples@hutch_examples&#45;&gt;NASALib/Tarski</title>
<path fill="none" stroke="black" d="M1115.36,-96.66C1129.48,-93.54 1141,-91 1141,-91 1141,-91 2838,-83 2838,-83 2838,-83 2845.9,-72.46 2854.3,-61.26"/>
<polygon fill="black" stroke="black" points="2856.9,-63.64 2860.1,-53.54 2851.3,-59.44 2856.9,-63.64"/>
</g>
<!-- NASALib/examples@interval_examples -->
<g id="node17" class="node">
<title>NASALib/examples@interval_examples</title>
<ellipse fill="#e6f3ff" stroke="black" cx="1870" cy="-109" rx="75.29" ry="18"/>
<text text-anchor="middle" x="1870" y="-105.3" font-family="Times,serif" font-size="14.00">interval_examples</text>
</g>
<!-- NASALib/interval_arith -->
<g id="node26" class="node">
<title>NASALib/interval_arith</title>
<polygon fill="#fcfcd7" stroke="black" points="3418.5,-52 3329.5,-52 3329.5,-16 3418.5,-16 3418.5,-52"/>
<text text-anchor="middle" x="3374" y="-30.3" font-family="Times,serif" font-size="14.00">interval_arith</text>
</g>
<!-- NASALib/examples@interval_examples&#45;&gt;NASALib/interval_arith -->
<g id="edge13" class="edge">
<title>NASALib/examples@interval_examples&#45;&gt;NASALib/interval_arith</title>
<path fill="none" stroke="black" d="M1926.03,-96.66C1941.44,-93.54 1954,-91 1954,-91 1954,-91 3320,-83 3320,-83 3320,-83 3332.81,-71.61 3345.95,-59.93"/>
<polygon fill="black" stroke="black" points="3348.22,-62.59 3353.37,-53.33 3343.57,-57.36 3348.22,-62.59"/>
</g>
<!-- NASALib/examples@interval_examples4Q -->
<g id="node18" class="node">
<title>NASALib/examples@interval_examples4Q</title>
<ellipse fill="#e6f3ff" stroke="black" cx="1690" cy="-109" rx="86.38" ry="18"/>
<text text-anchor="middle" x="1690" y="-105.3" font-family="Times,serif" font-size="14.00">interval_examples4Q</text>
</g>
<!-- NASALib/examples@interval_examples4Q&#45;&gt;NASALib/interval_arith -->
<g id="edge12" class="edge">
<title>NASALib/examples@interval_examples4Q&#45;&gt;NASALib/interval_arith</title>
<path fill="none" stroke="black" d="M1754.3,-96.61C1771.79,-93.52 1786,-91 1786,-91 1786,-91 3320,-83 3320,-83 3320,-83 3332.81,-71.61 3345.95,-59.93"/>
<polygon fill="black" stroke="black" points="3348.22,-62.59 3353.37,-53.33 3343.57,-57.36 3348.22,-62.59"/>
</g>
<!-- NASALib/examples@metit_examples -->
<g id="node20" class="node">
<title>NASALib/examples@metit_examples</title>
<ellipse fill="#e6f3ff" stroke="black" cx="1366" cy="-109" rx="67.69" ry="18"/>
<text text-anchor="middle" x="1366" y="-105.3" font-family="Times,serif" font-size="14.00">metit_examples</text>
</g>
<!-- NASALib/examples@metit_examples&#45;&gt;NASALib/interval_arith -->
<g id="edge14" class="edge">
<title>NASALib/examples@metit_examples&#45;&gt;NASALib/interval_arith</title>
<path fill="none" stroke="black" d="M1416.93,-96.76C1431.25,-93.59 1443,-91 1443,-91 1443,-91 3320,-83 3320,-83 3320,-83 3332.81,-71.61 3345.95,-59.93"/>
<polygon fill="black" stroke="black" points="3348.22,-62.59 3353.37,-53.33 3343.57,-57.36 3348.22,-62.59"/>
</g>
<!-- NASALib/examples@metit_examples&#45;&gt;NASALib/lnexp -->
<g id="edge15" class="edge">
<title>NASALib/examples@metit_examples&#45;&gt;NASALib/lnexp</title>
<path fill="none" stroke="black" d="M1416.93,-96.76C1431.25,-93.59 1443,-91 1443,-91 1443,-91 3098,-83 3098,-83 3098,-83 3105.9,-72.46 3114.3,-61.26"/>
<polygon fill="black" stroke="black" points="3116.9,-63.64 3120.1,-53.54 3111.3,-59.44 3116.9,-63.64"/>
</g>
<!-- NASALib/examples@metit_examples&#45;&gt;NASALib/reals -->
<g id="edge16" class="edge">
<title>NASALib/examples@metit_examples&#45;&gt;NASALib/reals</title>
<path fill="none" stroke="black" d="M1416.93,-96.76C1431.25,-93.59 1443,-91 1443,-91 1443,-91 3026,-83 3026,-83 3026,-83 3033.9,-72.46 3042.3,-61.26"/>
<polygon fill="black" stroke="black" points="3044.9,-63.64 3048.1,-53.54 3039.3,-59.44 3044.9,-63.64"/>
</g>
<!-- NASALib/examples@metit_examples&#45;&gt;NASALib/trig -->
<g id="edge17" class="edge">
<title>NASALib/examples@metit_examples&#45;&gt;NASALib/trig</title>
<path fill="none" stroke="black" d="M1416.93,-96.76C1431.25,-93.59 1443,-91 1443,-91 1443,-91 3170,-83 3170,-83 3170,-83 3177.9,-72.46 3186.3,-61.26"/>
<polygon fill="black" stroke="black" points="3188.9,-63.64 3192.1,-53.54 3183.3,-59.44 3188.9,-63.64"/>
</g>
<!-- NASALib/examples@prooflite_examples -->
<g id="node21" class="node">
<title>NASALib/examples@prooflite_examples</title>
<ellipse fill="#e6f3ff" stroke="black" cx="735" cy="-109" rx="79.09" ry="18"/>
<text text-anchor="middle" x="735" y="-105.3" font-family="Times,serif" font-size="14.00">prooflite_examples</text>
</g>
<!-- NASALib/examples@pvsio_examples -->
<g id="node22" class="node">
<title>NASALib/examples@pvsio_examples</title>
<ellipse fill="#e6f3ff" stroke="black" cx="570" cy="-109" rx="67.69" ry="18"/>
<text text-anchor="middle" x="570" y="-105.3" font-family="Times,serif" font-size="14.00">pvsio_examples</text>
</g>
<!-- NASALib/examples@pvsio_examples&#45;&gt;NASALib/reals -->
<g id="edge18" class="edge">
<title>NASALib/examples@pvsio_examples&#45;&gt;NASALib/reals</title>
<path fill="none" stroke="black" d="M620.93,-96.76C635.25,-93.59 647,-91 647,-91 647,-91 3026,-83 3026,-83 3026,-83 3033.9,-72.46 3042.3,-61.26"/>
<polygon fill="black" stroke="black" points="3044.9,-63.64 3048.1,-53.54 3039.3,-59.44 3044.9,-63.64"/>
</g>
<!-- NASALib/examples@riemann_examples -->
<g id="node23" class="node">
<title>NASALib/examples@riemann_examples</title>
<ellipse fill="#e6f3ff" stroke="black" cx="252" cy="-109" rx="77.99" ry="18"/>
<text text-anchor="middle" x="252" y="-105.3" font-family="Times,serif" font-size="14.00">riemann_examples</text>
</g>
<!-- NASALib/examples@riemann_examples&#45;&gt;NASALib/Riemann -->
<g id="edge19" class="edge">
<title>NASALib/examples@riemann_examples&#45;&gt;NASALib/Riemann</title>
<path fill="none" stroke="black" d="M310.03,-96.66C325.99,-93.54 339,-91 339,-91 339,-91 2680,-83 2680,-83 2680,-83 2689.4,-72.25 2699.31,-60.93"/>
<polygon fill="black" stroke="black" points="2701.89,-63.3 2705.84,-53.47 2696.62,-58.69 2701.89,-63.3"/>
</g>
<!-- NASALib/examples@sturm_examples -->
<g id="node24" class="node">
<title>NASALib/examples@sturm_examples</title>
<ellipse fill="#e6f3ff" stroke="black" cx="86" cy="-109" rx="69.59" ry="18"/>
<text text-anchor="middle" x="86" y="-105.3" font-family="Times,serif" font-size="14.00">sturm_examples</text>
</g>
<!-- NASALib/examples@sturm_examples&#45;&gt;NASALib/Sturm -->
<g id="edge20" class="edge">
<title>NASALib/examples@sturm_examples&#45;&gt;NASALib/Sturm</title>
<path fill="none" stroke="black" d="M138.25,-96.76C152.95,-93.59 165,-91 165,-91 165,-91 2605,-83 2605,-83 2605,-83 2613.56,-72.46 2622.66,-61.26"/>
<polygon fill="black" stroke="black" points="2625.38,-63.47 2628.97,-53.5 2619.94,-59.06 2625.38,-63.47"/>
</g>
<!-- NASALib/examples@tarski_examples -->
<g id="node25" class="node">
<title>NASALib/examples@tarski_examples</title>
<ellipse fill="#e6f3ff" stroke="black" cx="416" cy="-109" rx="68.49" ry="18"/>
<text text-anchor="middle" x="416" y="-105.3" font-family="Times,serif" font-size="14.00">tarski_examples</text>
</g>
<!-- NASALib/examples@tarski_examples&#45;&gt;NASALib/Tarski -->
<g id="edge21" class="edge">
<title>NASALib/examples@tarski_examples&#45;&gt;NASALib/Tarski</title>
<path fill="none" stroke="black" d="M467.36,-96.66C481.48,-93.54 493,-91 493,-91 493,-91 2838,-83 2838,-83 2838,-83 2845.9,-72.46 2854.3,-61.26"/>
<polygon fill="black" stroke="black" points="2856.9,-63.64 2860.1,-53.54 2851.3,-59.44 2856.9,-63.64"/>
</g>
<!-- NASALib/vectors -->
<g id="node30" class="node">
<title>NASALib/vectors</title>
<polygon fill="#fcfcd7" stroke="black" points="2829,-52 2773,-52 2773,-16 2829,-16 2829,-52"/>
<text text-anchor="middle" x="2801" y="-30.3" font-family="Times,serif" font-size="14.00">vectors</text>
</g>
<!-- NASALib/examples@tarski_examples&#45;&gt;NASALib/vectors -->
<g id="edge22" class="edge">
<title>NASALib/examples@tarski_examples&#45;&gt;NASALib/vectors</title>
<path fill="none" stroke="black" d="M467.36,-96.66C481.48,-93.54 493,-91 493,-91 493,-91 2764,-83 2764,-83 2764,-83 2772.12,-72.46 2780.75,-61.26"/>
<polygon fill="black" stroke="black" points="2783.39,-63.58 2786.72,-53.53 2777.84,-59.31 2783.39,-63.58"/>
</g>
</g>
</svg>
