<?xml version="1.0" encoding="UTF-8" standalone="no"?>
<!DOCTYPE svg PUBLIC "-//W3C//DTD SVG 1.1//EN"
 "http://www.w3.org/Graphics/SVG/1.1/DTD/svg11.dtd">
<!-- Generated by graphviz version 8.1.0 (20230707.0739)
 -->
<!-- Title: examples&#45;zoomed Pages: 1 -->
<svg width="4509pt" height="177pt"
 viewBox="0.00 0.00 4509.00 177.00" xmlns="http://www.w3.org/2000/svg" xmlns:xlink="http://www.w3.org/1999/xlink">
<g id="graph0" class="graph" transform="scale(1 1) rotate(0) translate(4 173)">
<title>examples&#45;zoomed</title>
<polygon fill="white" stroke="none" points="-4,4 -4,-173 4505,-173 4505,4 -4,4"/>
<g id="clust1" class="cluster">
<title>cluster_NASALib</title>
<polygon fill="none" stroke="black" points="3071,-8 3071,-84.5 4167,-84.5 4167,-8 3071,-8"/>
<text text-anchor="middle" x="3619" y="-67.2" font-family="Times,serif" font-size="14.00">NASALib</text>
</g>
<g id="clust2" class="cluster">
<title>cluster_NASALib/examples</title>
<polygon fill="none" stroke="black" points="8,-8 8,-161 3063,-161 3063,-8 8,-8"/>
<text text-anchor="middle" x="1535.5" y="-143.7" font-family="Times,serif" font-size="14.00">NASALib/examples</text>
</g>
<g id="clust3" class="cluster">
<title>cluster_pvsio_utils</title>
<polygon fill="none" stroke="black" points="4175,-8 4175,-84.5 4493,-84.5 4493,-8 4175,-8"/>
<text text-anchor="middle" x="4334" y="-67.2" font-family="Times,serif" font-size="14.00">pvsio_utils</text>
</g>
<!-- nasalib/Bernstein -->
<g id="node1" class="node">
<title>nasalib/Bernstein</title>
<polygon fill="#fcfcd7" stroke="black" points="4158.88,-52 4091.12,-52 4091.12,-16 4158.88,-16 4158.88,-52"/>
<text text-anchor="middle" x="4125" y="-28.95" font-family="Times,serif" font-size="14.00">Bernstein</text>
</g>
<!-- nasalib/Riemann -->
<g id="node2" class="node">
<title>nasalib/Riemann</title>
<polygon fill="#fcfcd7" stroke="black" points="3216.75,-52 3151.25,-52 3151.25,-16 3216.75,-16 3216.75,-52"/>
<text text-anchor="middle" x="3184" y="-28.95" font-family="Times,serif" font-size="14.00">Riemann</text>
</g>
<!-- nasalib/Sturm -->
<g id="node3" class="node">
<title>nasalib/Sturm</title>
<polygon fill="#fcfcd7" stroke="black" points="3133,-52 3079,-52 3079,-16 3133,-16 3133,-52"/>
<text text-anchor="middle" x="3106" y="-28.95" font-family="Times,serif" font-size="14.00">Sturm</text>
</g>
<!-- nasalib/Tarski -->
<g id="node4" class="node">
<title>nasalib/Tarski</title>
<polygon fill="#fcfcd7" stroke="black" points="3455,-52 3401,-52 3401,-16 3455,-16 3455,-52"/>
<text text-anchor="middle" x="3428" y="-28.95" font-family="Times,serif" font-size="14.00">Tarski</text>
</g>
<!-- nasalib/affine_arith -->
<g id="node5" class="node">
<title>nasalib/affine_arith</title>
<polygon fill="#fcfcd7" stroke="black" points="4073.5,-52 3994.5,-52 3994.5,-16 4073.5,-16 4073.5,-52"/>
<text text-anchor="middle" x="4034" y="-28.95" font-family="Times,serif" font-size="14.00">affine_arith</text>
</g>
<!-- nasalib/analysis -->
<g id="node6" class="node">
<title>nasalib/analysis</title>
<polygon fill="#fcfcd7" stroke="black" points="3748.75,-52 3689.25,-52 3689.25,-16 3748.75,-16 3748.75,-52"/>
<text text-anchor="middle" x="3719" y="-28.95" font-family="Times,serif" font-size="14.00">analysis</text>
</g>
<!-- nasalib/exact_real_arith -->
<g id="node7" class="node">
<title>nasalib/exact_real_arith</title>
<polygon fill="#fcfcd7" stroke="black" points="3976.5,-52 3873.5,-52 3873.5,-16 3976.5,-16 3976.5,-52"/>
<text text-anchor="middle" x="3925" y="-28.95" font-family="Times,serif" font-size="14.00">exact_real_arith</text>
</g>
<!-- nasalib/examples@affine_examples -->
<g id="node8" class="node">
<title>nasalib/examples@affine_examples</title>
<ellipse fill="#e6f3ff" stroke="black" cx="2334" cy="-110.5" rx="72.34" ry="18"/>
<text text-anchor="middle" x="2334" y="-105.45" font-family="Times,serif" font-size="14.00">affine_examples</text>
</g>
<!-- nasalib/examples@affine_examples&#45;&gt;nasalib/affine_arith -->
<g id="edge1" class="edge">
<title>nasalib/examples@affine_examples&#45;&gt;nasalib/affine_arith</title>
<path fill="none" stroke="black" d="M2388.03,-98.16C2402.89,-95.04 2415,-92.5 2415,-92.5 2415,-92.5 3986,-84.5 3986,-84.5 3986,-84.5 3997.91,-72.22 4009.87,-59.89"/>
<polygon fill="black" stroke="black" points="4011.76,-62.93 4016.21,-53.31 4006.74,-58.06 4011.76,-62.93"/>
</g>
<!-- nasalib/examples@bernstein_examples -->
<g id="node9" class="node">
<title>nasalib/examples@bernstein_examples</title>
<ellipse fill="#e6f3ff" stroke="black" cx="2688" cy="-110.5" rx="84.62" ry="18"/>
<text text-anchor="middle" x="2688" y="-105.45" font-family="Times,serif" font-size="14.00">bernstein_examples</text>
</g>
<!-- nasalib/examples@bernstein_examples&#45;&gt;nasalib/Bernstein -->
<g id="edge2" class="edge">
<title>nasalib/examples@bernstein_examples&#45;&gt;nasalib/Bernstein</title>
<path fill="none" stroke="black" d="M2750.96,-98.11C2768.08,-95.02 2782,-92.5 2782,-92.5 2782,-92.5 4083,-84.5 4083,-84.5 4083,-84.5 4093.03,-72.67 4103.29,-60.58"/>
<polygon fill="black" stroke="black" points="4106.51,-63.2 4110.31,-53.31 4101.17,-58.67 4106.51,-63.2"/>
</g>
<!-- nasalib/examples@bernstein_minmax -->
<g id="node10" class="node">
<title>nasalib/examples@bernstein_minmax</title>
<ellipse fill="#e6f3ff" stroke="black" cx="2505" cy="-110.5" rx="80.52" ry="18"/>
<text text-anchor="middle" x="2505" y="-105.45" font-family="Times,serif" font-size="14.00">bernstein_minmax</text>
</g>
<!-- nasalib/examples@bernstein_minmax&#45;&gt;nasalib/Bernstein -->
<g id="edge3" class="edge">
<title>nasalib/examples@bernstein_minmax&#45;&gt;nasalib/Bernstein</title>
<path fill="none" stroke="black" d="M2564.86,-98.07C2580.96,-94.99 2594,-92.5 2594,-92.5 2594,-92.5 4083,-84.5 4083,-84.5 4083,-84.5 4093.03,-72.67 4103.29,-60.58"/>
<polygon fill="black" stroke="black" points="4106.51,-63.2 4110.31,-53.31 4101.17,-58.67 4106.51,-63.2"/>
</g>
<!-- nasalib/examples@csv_examples -->
<g id="node11" class="node">
<title>nasalib/examples@csv_examples</title>
<ellipse fill="#e6f3ff" stroke="black" cx="2992" cy="-110.5" rx="63.12" ry="18"/>
<text text-anchor="middle" x="2992" y="-105.45" font-family="Times,serif" font-size="14.00">csv_examples</text>
</g>
<!-- pvsio_utils/PVSioCSV -->
<g id="node33" class="node">
<title>pvsio_utils/PVSioCSV</title>
<polygon fill="#fcfcd7" stroke="black" points="4484.75,-52 4407.25,-52 4407.25,-16 4484.75,-16 4484.75,-52"/>
<text text-anchor="middle" x="4446" y="-28.95" font-family="Times,serif" font-size="14.00">PVSioCSV</text>
</g>
<!-- nasalib/examples@csv_examples&#45;&gt;pvsio_utils/PVSioCSV -->
<g id="edge4" class="edge">
<title>nasalib/examples@csv_examples&#45;&gt;pvsio_utils/PVSioCSV</title>
<path fill="none" stroke="black" d="M3055.14,-108.38C3328.73,-103.51 4398,-84.5 4398,-84.5 4398,-84.5 4409.91,-72.22 4421.87,-59.89"/>
<polygon fill="black" stroke="black" points="4423.76,-62.93 4428.21,-53.31 4418.74,-58.06 4423.76,-62.93"/>
</g>
<!-- nasalib/examples@deriv_examples -->
<g id="node12" class="node">
<title>nasalib/examples@deriv_examples</title>
<ellipse fill="#e6f3ff" stroke="black" cx="1658" cy="-110.5" rx="69.78" ry="18"/>
<text text-anchor="middle" x="1658" y="-105.45" font-family="Times,serif" font-size="14.00">deriv_examples</text>
</g>
<!-- nasalib/examples@deriv_examples&#45;&gt;nasalib/analysis -->
<g id="edge5" class="edge">
<title>nasalib/examples@deriv_examples&#45;&gt;nasalib/analysis</title>
<path fill="none" stroke="black" d="M1710.25,-98.26C1724.95,-95.09 1737,-92.5 1737,-92.5 1737,-92.5 3680,-84.5 3680,-84.5 3680,-84.5 3689.14,-72.9 3698.57,-60.93"/>
<polygon fill="black" stroke="black" points="3701.92,-63.33 3705.36,-53.31 3696.42,-59 3701.92,-63.33"/>
</g>
<!-- nasalib/lnexp -->
<g id="node28" class="node">
<title>nasalib/lnexp</title>
<polygon fill="#fcfcd7" stroke="black" points="3599,-52 3545,-52 3545,-16 3599,-16 3599,-52"/>
<text text-anchor="middle" x="3572" y="-28.95" font-family="Times,serif" font-size="14.00">lnexp</text>
</g>
<!-- nasalib/examples@deriv_examples&#45;&gt;nasalib/lnexp -->
<g id="edge6" class="edge">
<title>nasalib/examples@deriv_examples&#45;&gt;nasalib/lnexp</title>
<path fill="none" stroke="black" d="M1710.25,-98.26C1724.95,-95.09 1737,-92.5 1737,-92.5 1737,-92.5 3536,-84.5 3536,-84.5 3536,-84.5 3544.44,-72.9 3553.14,-60.93"/>
<polygon fill="black" stroke="black" points="3556.36,-63.46 3559.41,-53.31 3550.7,-59.34 3556.36,-63.46"/>
</g>
<!-- nasalib/trig -->
<g id="node31" class="node">
<title>nasalib/trig</title>
<polygon fill="#fcfcd7" stroke="black" points="3671,-52 3617,-52 3617,-16 3671,-16 3671,-52"/>
<text text-anchor="middle" x="3644" y="-28.95" font-family="Times,serif" font-size="14.00">trig</text>
</g>
<!-- nasalib/examples@deriv_examples&#45;&gt;nasalib/trig -->
<g id="edge7" class="edge">
<title>nasalib/examples@deriv_examples&#45;&gt;nasalib/trig</title>
<path fill="none" stroke="black" d="M1710.25,-98.26C1724.95,-95.09 1737,-92.5 1737,-92.5 1737,-92.5 3608,-84.5 3608,-84.5 3608,-84.5 3616.44,-72.9 3625.14,-60.93"/>
<polygon fill="black" stroke="black" points="3628.36,-63.46 3631.41,-53.31 3622.7,-59.34 3628.36,-63.46"/>
</g>
<!-- nasalib/examples@era_examples -->
<g id="node13" class="node">
<title>nasalib/examples@era_examples</title>
<ellipse fill="#e6f3ff" stroke="black" cx="2182" cy="-110.5" rx="62.1" ry="18"/>
<text text-anchor="middle" x="2182" y="-105.45" font-family="Times,serif" font-size="14.00">era_examples</text>
</g>
<!-- nasalib/examples@era_examples&#45;&gt;nasalib/exact_real_arith -->
<g id="edge8" class="edge">
<title>nasalib/examples@era_examples&#45;&gt;nasalib/exact_real_arith</title>
<path fill="none" stroke="black" d="M2228.57,-98.35C2241.95,-95.15 2253,-92.5 2253,-92.5 2253,-92.5 3864,-84.5 3864,-84.5 3864,-84.5 3879.72,-71.75 3895.19,-59.19"/>
<polygon fill="black" stroke="black" points="3897.11,-61.33 3902.67,-52.31 3892.69,-55.9 3897.11,-61.33"/>
</g>
<!-- nasalib/examples@field_examples -->
<g id="node14" class="node">
<title>nasalib/examples@field_examples</title>
<ellipse fill="#e6f3ff" stroke="black" cx="1344" cy="-110.5" rx="67.73" ry="18"/>
<text text-anchor="middle" x="1344" y="-105.45" font-family="Times,serif" font-size="14.00">field_examples</text>
</g>
<!-- nasalib/reals -->
<g id="node30" class="node">
<title>nasalib/reals</title>
<polygon fill="#fcfcd7" stroke="black" points="3527,-52 3473,-52 3473,-16 3527,-16 3527,-52"/>
<text text-anchor="middle" x="3500" y="-28.95" font-family="Times,serif" font-size="14.00">reals</text>
</g>
<!-- nasalib/examples@field_examples&#45;&gt;nasalib/reals -->
<g id="edge9" class="edge">
<title>nasalib/examples@field_examples&#45;&gt;nasalib/reals</title>
<path fill="none" stroke="black" d="M1394.93,-98.26C1409.25,-95.09 1421,-92.5 1421,-92.5 1421,-92.5 3464,-84.5 3464,-84.5 3464,-84.5 3472.44,-72.9 3481.14,-60.93"/>
<polygon fill="black" stroke="black" points="3484.36,-63.46 3487.41,-53.31 3478.7,-59.34 3484.36,-63.46"/>
</g>
<!-- nasalib/examples@hutch_examples -->
<g id="node15" class="node">
<title>nasalib/examples@hutch_examples</title>
<ellipse fill="#e6f3ff" stroke="black" cx="1187" cy="-110.5" rx="71.31" ry="18"/>
<text text-anchor="middle" x="1187" y="-105.45" font-family="Times,serif" font-size="14.00">hutch_examples</text>
</g>
<!-- nasalib/examples@hutch_examples&#45;&gt;nasalib/Tarski -->
<g id="edge10" class="edge">
<title>nasalib/examples@hutch_examples&#45;&gt;nasalib/Tarski</title>
<path fill="none" stroke="black" d="M1240.36,-98.16C1255.04,-95.04 1267,-92.5 1267,-92.5 1267,-92.5 3392,-84.5 3392,-84.5 3392,-84.5 3400.44,-72.9 3409.14,-60.93"/>
<polygon fill="black" stroke="black" points="3412.36,-63.46 3415.41,-53.31 3406.7,-59.34 3412.36,-63.46"/>
</g>
<!-- nasalib/examples@interval_examples -->
<g id="node16" class="node">
<title>nasalib/examples@interval_examples</title>
<ellipse fill="#e6f3ff" stroke="black" cx="2023" cy="-110.5" rx="78.99" ry="18"/>
<text text-anchor="middle" x="2023" y="-105.45" font-family="Times,serif" font-size="14.00">interval_examples</text>
</g>
<!-- nasalib/interval_arith -->
<g id="node27" class="node">
<title>nasalib/interval_arith</title>
<polygon fill="#fcfcd7" stroke="black" points="3855.38,-52 3766.62,-52 3766.62,-16 3855.38,-16 3855.38,-52"/>
<text text-anchor="middle" x="3811" y="-28.95" font-family="Times,serif" font-size="14.00">interval_arith</text>
</g>
<!-- nasalib/examples@interval_examples&#45;&gt;nasalib/interval_arith -->
<g id="edge12" class="edge">
<title>nasalib/examples@interval_examples&#45;&gt;nasalib/interval_arith</title>
<path fill="none" stroke="black" d="M2081.7,-98.16C2097.84,-95.04 2111,-92.5 2111,-92.5 2111,-92.5 3758,-84.5 3758,-84.5 3758,-84.5 3771.4,-71.98 3784.73,-59.54"/>
<polygon fill="black" stroke="black" points="3786.54,-62.7 3791.46,-53.31 3781.77,-57.58 3786.54,-62.7"/>
</g>
<!-- nasalib/examples@interval_examples4Q -->
<g id="node17" class="node">
<title>nasalib/examples@interval_examples4Q</title>
<ellipse fill="#e6f3ff" stroke="black" cx="1836" cy="-110.5" rx="90.25" ry="18"/>
<text text-anchor="middle" x="1836" y="-105.45" font-family="Times,serif" font-size="14.00">interval_examples4Q</text>
</g>
<!-- nasalib/examples@interval_examples4Q&#45;&gt;nasalib/interval_arith -->
<g id="edge11" class="edge">
<title>nasalib/examples@interval_examples4Q&#45;&gt;nasalib/interval_arith</title>
<path fill="none" stroke="black" d="M1902.86,-98.02C1920.64,-94.97 1935,-92.5 1935,-92.5 1935,-92.5 3758,-84.5 3758,-84.5 3758,-84.5 3771.4,-71.98 3784.73,-59.54"/>
<polygon fill="black" stroke="black" points="3786.54,-62.7 3791.46,-53.31 3781.77,-57.58 3786.54,-62.7"/>
</g>
<!-- nasalib/examples@kv_examples -->
<g id="node18" class="node">
<title>nasalib/examples@kv_examples</title>
<ellipse fill="#e6f3ff" stroke="black" cx="2851" cy="-110.5" rx="60.05" ry="18"/>
<text text-anchor="middle" x="2851" y="-105.45" font-family="Times,serif" font-size="14.00">kv_examples</text>
</g>
<!-- pvsio_utils/PVSioKeyVal -->
<g id="node35" class="node">
<title>pvsio_utils/PVSioKeyVal</title>
<polygon fill="#fcfcd7" stroke="black" points="4388.88,-52 4297.12,-52 4297.12,-16 4388.88,-16 4388.88,-52"/>
<text text-anchor="middle" x="4343" y="-28.95" font-family="Times,serif" font-size="14.00">PVSioKeyVal</text>
</g>
<!-- nasalib/examples@kv_examples&#45;&gt;pvsio_utils/PVSioKeyVal -->
<g id="edge13" class="edge">
<title>nasalib/examples@kv_examples&#45;&gt;pvsio_utils/PVSioKeyVal</title>
<path fill="none" stroke="black" d="M2896.25,-98.35C2909.26,-95.15 2920,-92.5 2920,-92.5 2920,-92.5 4288,-84.5 4288,-84.5 4288,-84.5 4301.91,-71.98 4315.74,-59.54"/>
<polygon fill="black" stroke="black" points="4317.67,-62.6 4322.76,-53.31 4312.99,-57.4 4317.67,-62.6"/>
</g>
<!-- nasalib/examples@metit_examples -->
<g id="node19" class="node">
<title>nasalib/examples@metit_examples</title>
<ellipse fill="#e6f3ff" stroke="black" cx="1500" cy="-110.5" rx="70.29" ry="18"/>
<text text-anchor="middle" x="1500" y="-105.45" font-family="Times,serif" font-size="14.00">metit_examples</text>
</g>
<!-- nasalib/examples@metit_examples&#45;&gt;nasalib/interval_arith -->
<g id="edge14" class="edge">
<title>nasalib/examples@metit_examples&#45;&gt;nasalib/interval_arith</title>
<path fill="none" stroke="black" d="M1552.69,-98.16C1567.19,-95.04 1579,-92.5 1579,-92.5 1579,-92.5 3758,-84.5 3758,-84.5 3758,-84.5 3771.4,-71.98 3784.73,-59.54"/>
<polygon fill="black" stroke="black" points="3786.54,-62.7 3791.46,-53.31 3781.77,-57.58 3786.54,-62.7"/>
</g>
<!-- nasalib/examples@metit_examples&#45;&gt;nasalib/lnexp -->
<g id="edge15" class="edge">
<title>nasalib/examples@metit_examples&#45;&gt;nasalib/lnexp</title>
<path fill="none" stroke="black" d="M1552.69,-98.16C1567.19,-95.04 1579,-92.5 1579,-92.5 1579,-92.5 3536,-84.5 3536,-84.5 3536,-84.5 3544.44,-72.9 3553.14,-60.93"/>
<polygon fill="black" stroke="black" points="3556.36,-63.46 3559.41,-53.31 3550.7,-59.34 3556.36,-63.46"/>
</g>
<!-- nasalib/examples@metit_examples&#45;&gt;nasalib/reals -->
<g id="edge16" class="edge">
<title>nasalib/examples@metit_examples&#45;&gt;nasalib/reals</title>
<path fill="none" stroke="black" d="M1552.69,-98.16C1567.19,-95.04 1579,-92.5 1579,-92.5 1579,-92.5 3464,-84.5 3464,-84.5 3464,-84.5 3472.44,-72.9 3481.14,-60.93"/>
<polygon fill="black" stroke="black" points="3484.36,-63.46 3487.41,-53.31 3478.7,-59.34 3484.36,-63.46"/>
</g>
<!-- nasalib/examples@metit_examples&#45;&gt;nasalib/trig -->
<g id="edge17" class="edge">
<title>nasalib/examples@metit_examples&#45;&gt;nasalib/trig</title>
<path fill="none" stroke="black" d="M1552.69,-98.16C1567.19,-95.04 1579,-92.5 1579,-92.5 1579,-92.5 3608,-84.5 3608,-84.5 3608,-84.5 3616.44,-72.9 3625.14,-60.93"/>
<polygon fill="black" stroke="black" points="3628.36,-63.46 3631.41,-53.31 3622.7,-59.34 3628.36,-63.46"/>
</g>
<!-- nasalib/examples@prime_factorization_checker -->
<g id="node20" class="node">
<title>nasalib/examples@prime_factorization_checker</title>
<ellipse fill="#e6f3ff" stroke="black" cx="980" cy="-110.5" rx="117.37" ry="18"/>
<text text-anchor="middle" x="980" y="-105.45" font-family="Times,serif" font-size="14.00">prime_factorization_checker</text>
</g>
<!-- nasalib/examples@primes -->
<g id="node21" class="node">
<title>nasalib/examples@primes</title>
<ellipse fill="#e6f3ff" stroke="black" cx="980" cy="-34" rx="36.51" ry="18"/>
<text text-anchor="middle" x="980" y="-28.95" font-family="Times,serif" font-size="14.00">primes</text>
</g>
<!-- nasalib/examples@prime_factorization_checker&#45;&gt;nasalib/examples@primes -->
<g id="edge18" class="edge">
<title>nasalib/examples@prime_factorization_checker&#45;&gt;nasalib/examples@primes</title>
<path fill="none" stroke="black" d="M980,-92.22C980,-83.63 980,-73.03 980,-63.3"/>
<polygon fill="black" stroke="black" points="983.5,-63.44 980,-53.44 976.5,-63.44 983.5,-63.44"/>
</g>
<!-- pvsio_utils/PVSioChecker -->
<g id="node34" class="node">
<title>pvsio_utils/PVSioChecker</title>
<polygon fill="#fcfcd7" stroke="black" points="4279.12,-52 4182.88,-52 4182.88,-16 4279.12,-16 4279.12,-52"/>
<text text-anchor="middle" x="4231" y="-28.95" font-family="Times,serif" font-size="14.00">PVSioChecker</text>
</g>
<!-- nasalib/examples@prime_factorization_checker&#45;&gt;pvsio_utils/PVSioChecker -->
<g id="edge19" class="edge">
<title>nasalib/examples@prime_factorization_checker&#45;&gt;pvsio_utils/PVSioChecker</title>
<path fill="none" stroke="black" d="M1066.12,-97.97C1088.77,-94.94 1107,-92.5 1107,-92.5 1107,-92.5 4171,-84.5 4171,-84.5 4171,-84.5 4186.46,-71.75 4201.68,-59.19"/>
<polygon fill="black" stroke="black" points="4203.53,-61.38 4209.01,-52.31 4199.07,-55.98 4203.53,-61.38"/>
</g>
<!-- nasalib/examples@primes&#45;&gt;nasalib/reals -->
<g id="edge20" class="edge">
<title>nasalib/examples@primes&#45;&gt;nasalib/reals</title>
<path fill="none" stroke="black" d="M1016.82,-34.96C1296.59,-42.23 3076,-88.5 3076,-88.5 3076,-88.5 3455,-88.5 3455,-88.5 3455,-88.5 3464,-84.5 3464,-84.5 3464,-84.5 3472.22,-72.97 3480.8,-60.93"/>
<polygon fill="black" stroke="black" points="3484.05,-63.41 3487,-53.23 3478.35,-59.34 3484.05,-63.41"/>
</g>
<!-- nasalib/examples@prooflite_examples -->
<g id="node22" class="node">
<title>nasalib/examples@prooflite_examples</title>
<ellipse fill="#e6f3ff" stroke="black" cx="762" cy="-110.5" rx="82.57" ry="18"/>
<text text-anchor="middle" x="762" y="-105.45" font-family="Times,serif" font-size="14.00">prooflite_examples</text>
</g>
<!-- nasalib/examples@pvsio_examples -->
<g id="node23" class="node">
<title>nasalib/examples@pvsio_examples</title>
<ellipse fill="#e6f3ff" stroke="black" cx="591" cy="-110.5" rx="70.8" ry="18"/>
<text text-anchor="middle" x="591" y="-105.45" font-family="Times,serif" font-size="14.00">pvsio_examples</text>
</g>
<!-- nasalib/pvsio_utils -->
<g id="node29" class="node">
<title>nasalib/pvsio_utils</title>
<polygon fill="#fcfcd7" stroke="black" points="3382.62,-52 3307.38,-52 3307.38,-16 3382.62,-16 3382.62,-52"/>
<text text-anchor="middle" x="3345" y="-28.95" font-family="Times,serif" font-size="14.00">pvsio_utils</text>
</g>
<!-- nasalib/examples@pvsio_examples&#45;&gt;nasalib/pvsio_utils -->
<g id="edge21" class="edge">
<title>nasalib/examples@pvsio_examples&#45;&gt;nasalib/pvsio_utils</title>
<path fill="none" stroke="black" d="M643.69,-98.16C658.19,-95.04 670,-92.5 670,-92.5 670,-92.5 3299,-84.5 3299,-84.5 3299,-84.5 3310.2,-72.45 3321.55,-60.23"/>
<polygon fill="black" stroke="black" points="3323.67,-63.02 3327.91,-53.31 3318.54,-58.26 3323.67,-63.02"/>
</g>
<!-- nasalib/examples@pvsio_examples&#45;&gt;nasalib/reals -->
<g id="edge22" class="edge">
<title>nasalib/examples@pvsio_examples&#45;&gt;nasalib/reals</title>
<path fill="none" stroke="black" d="M643.69,-98.16C658.19,-95.04 670,-92.5 670,-92.5 670,-92.5 3464,-84.5 3464,-84.5 3464,-84.5 3472.44,-72.9 3481.14,-60.93"/>
<polygon fill="black" stroke="black" points="3484.36,-63.46 3487.41,-53.31 3478.7,-59.34 3484.36,-63.46"/>
</g>
<!-- nasalib/examples@riemann_examples -->
<g id="node24" class="node">
<title>nasalib/examples@riemann_examples</title>
<ellipse fill="#e6f3ff" stroke="black" cx="260" cy="-110.5" rx="81.55" ry="18"/>
<text text-anchor="middle" x="260" y="-105.45" font-family="Times,serif" font-size="14.00">riemann_examples</text>
</g>
<!-- nasalib/examples@riemann_examples&#45;&gt;nasalib/Riemann -->
<g id="edge23" class="edge">
<title>nasalib/examples@riemann_examples&#45;&gt;nasalib/Riemann</title>
<path fill="none" stroke="black" d="M320.7,-98.16C337.39,-95.04 351,-92.5 351,-92.5 351,-92.5 3142,-84.5 3142,-84.5 3142,-84.5 3152.03,-72.67 3162.29,-60.58"/>
<polygon fill="black" stroke="black" points="3165.51,-63.2 3169.31,-53.31 3160.17,-58.67 3165.51,-63.2"/>
</g>
<!-- nasalib/examples@sturm_examples -->
<g id="node25" class="node">
<title>nasalib/examples@sturm_examples</title>
<ellipse fill="#e6f3ff" stroke="black" cx="88" cy="-110.5" rx="72.34" ry="18"/>
<text text-anchor="middle" x="88" y="-105.45" font-family="Times,serif" font-size="14.00">sturm_examples</text>
</g>
<!-- nasalib/examples@sturm_examples&#45;&gt;nasalib/Sturm -->
<g id="edge24" class="edge">
<title>nasalib/examples@sturm_examples&#45;&gt;nasalib/Sturm</title>
<path fill="none" stroke="black" d="M142.03,-98.16C156.89,-95.04 169,-92.5 169,-92.5 169,-92.5 3067,-84.5 3067,-84.5 3067,-84.5 3076.14,-72.9 3085.57,-60.93"/>
<polygon fill="black" stroke="black" points="3088.92,-63.33 3092.36,-53.31 3083.42,-59 3088.92,-63.33"/>
</g>
<!-- nasalib/examples@tarski_examples -->
<g id="node26" class="node">
<title>nasalib/examples@tarski_examples</title>
<ellipse fill="#e6f3ff" stroke="black" cx="431" cy="-110.5" rx="71.31" ry="18"/>
<text text-anchor="middle" x="431" y="-105.45" font-family="Times,serif" font-size="14.00">tarski_examples</text>
</g>
<!-- nasalib/examples@tarski_examples&#45;&gt;nasalib/Tarski -->
<g id="edge25" class="edge">
<title>nasalib/examples@tarski_examples&#45;&gt;nasalib/Tarski</title>
<path fill="none" stroke="black" d="M484.36,-98.16C499.04,-95.04 511,-92.5 511,-92.5 511,-92.5 3392,-84.5 3392,-84.5 3392,-84.5 3400.44,-72.9 3409.14,-60.93"/>
<polygon fill="black" stroke="black" points="3412.36,-63.46 3415.41,-53.31 3406.7,-59.34 3412.36,-63.46"/>
</g>
<!-- nasalib/vectors -->
<g id="node32" class="node">
<title>nasalib/vectors</title>
<polygon fill="#fcfcd7" stroke="black" points="3289.5,-52 3234.5,-52 3234.5,-16 3289.5,-16 3289.5,-52"/>
<text text-anchor="middle" x="3262" y="-28.95" font-family="Times,serif" font-size="14.00">vectors</text>
</g>
<!-- nasalib/examples@tarski_examples&#45;&gt;nasalib/vectors -->
<g id="edge26" class="edge">
<title>nasalib/examples@tarski_examples&#45;&gt;nasalib/vectors</title>
<path fill="none" stroke="black" d="M484.36,-98.16C499.04,-95.04 511,-92.5 511,-92.5 511,-92.5 3226,-84.5 3226,-84.5 3226,-84.5 3234.44,-72.9 3243.14,-60.93"/>
<polygon fill="black" stroke="black" points="3246.36,-63.46 3249.41,-53.31 3240.7,-59.34 3246.36,-63.46"/>
</g>
</g>
</svg>
