<?xml version="1.0" encoding="UTF-8" standalone="no"?>
<!DOCTYPE svg PUBLIC "-//W3C//DTD SVG 1.1//EN"
 "http://www.w3.org/Graphics/SVG/1.1/DTD/svg11.dtd">
<!-- Generated by graphviz version 7.0.6 (20230106.0513)
 -->
<!-- Title: Bernstein Pages: 1 -->
<svg width="1029pt" height="1038pt"
 viewBox="0.00 0.00 1029.00 1038.00" xmlns="http://www.w3.org/2000/svg" xmlns:xlink="http://www.w3.org/1999/xlink">
<g id="graph0" class="graph" transform="scale(1 1) rotate(0) translate(4 1034)">
<title>Bernstein</title>
<polygon fill="white" stroke="none" points="-4,4 -4,-1034 1025,-1034 1025,4 -4,4"/>
<g id="clust1" class="cluster">
<title>cluster_NASALib</title>
<polygon fill="none" stroke="black" points="8,-8 8,-1022 917,-1022 917,-8 8,-8"/>
<text text-anchor="middle" x="462.5" y="-1006.8" font-family="Times,serif" font-size="14.00">NASALib</text>
</g>
<g id="clust2" class="cluster">
<title>cluster_PVS Prelude</title>
<polygon fill="none" stroke="black" points="925,-8 925,-83 1013,-83 1013,-8 925,-8"/>
<text text-anchor="middle" x="969" y="-67.8" font-family="Times,serif" font-size="14.00">PVS Prelude</text>
</g>
<!-- NASALib/Bernstein -->
<g id="node1" class="node">
<title>NASALib/Bernstein</title>
<polygon fill="#f7e28d" stroke="black" points="297,-919 229,-919 229,-883 297,-883 297,-919"/>
<text text-anchor="middle" x="263" y="-897.3" font-family="Times,serif" font-size="14.00">Bernstein</text>
</g>
<!-- NASALib/interval_arith -->
<g id="node5" class="node">
<title>NASALib/interval_arith</title>
<polygon fill="#fcfcd7" stroke="black" points="243.5,-847 154.5,-847 154.5,-811 243.5,-811 243.5,-847"/>
<text text-anchor="middle" x="199" y="-825.3" font-family="Times,serif" font-size="14.00">interval_arith</text>
</g>
<!-- NASALib/Bernstein&#45;&gt;NASALib/interval_arith -->
<g id="edge1" class="edge">
<title>NASALib/Bernstein&#45;&gt;NASALib/interval_arith</title>
<path fill="none" stroke="black" d="M247.18,-882.7C239.66,-874.47 230.53,-864.48 222.24,-855.42"/>
<polygon fill="black" stroke="black" points="224.99,-853.24 215.66,-848.22 219.82,-857.96 224.99,-853.24"/>
</g>
<!-- NASALib/reals -->
<g id="node13" class="node">
<title>NASALib/reals</title>
<polygon fill="#fcfcd7" stroke="black" points="350,-703 296,-703 296,-667 350,-667 350,-703"/>
<text text-anchor="middle" x="323" y="-681.3" font-family="Times,serif" font-size="14.00">reals</text>
</g>
<!-- NASALib/Bernstein&#45;&gt;NASALib/reals -->
<g id="edge2" class="edge">
<title>NASALib/Bernstein&#45;&gt;NASALib/reals</title>
<path fill="none" stroke="black" d="M267.94,-882.7C273.87,-861.97 283,-830 283,-830"/>
<path fill="none" stroke="black" d="M283,-828C283,-828 274,-758 274,-758"/>
</g>
<!-- NASALib/sigma_set -->
<g id="node16" class="node">
<title>NASALib/sigma_set</title>
<polygon fill="#fcfcd7" stroke="black" points="828.5,-415 757.5,-415 757.5,-379 828.5,-379 828.5,-415"/>
<text text-anchor="middle" x="793" y="-393.3" font-family="Times,serif" font-size="14.00">sigma_set</text>
</g>
<!-- NASALib/Bernstein&#45;&gt;NASALib/sigma_set -->
<g id="edge3" class="edge">
<title>NASALib/Bernstein&#45;&gt;NASALib/sigma_set</title>
<path fill="none" stroke="black" d="M283,-828C283,-828 888,-758 888,-758"/>
<path fill="none" stroke="black" d="M888,-756C888,-756 813,-451 813,-451 813,-451 808.35,-438.68 803.53,-425.92"/>
<polygon fill="black" stroke="black" points="806.89,-424.89 800.08,-416.77 800.34,-427.36 806.89,-424.89"/>
</g>
<!-- NASALib/structures -->
<g id="node17" class="node">
<title>NASALib/structures</title>
<polygon fill="#fcfcd7" stroke="black" points="618.5,-127 549.5,-127 549.5,-91 618.5,-91 618.5,-127"/>
<text text-anchor="middle" x="584" y="-105.3" font-family="Times,serif" font-size="14.00">structures</text>
</g>
<!-- NASALib/Bernstein&#45;&gt;NASALib/structures -->
<g id="edge4" class="edge">
<title>NASALib/Bernstein&#45;&gt;NASALib/structures</title>
<path fill="none" stroke="black" d="M888,-756C888,-756 908,-614 908,-614 908,-614 908,-614 908,-468 908,-468 908,-326 908,-326"/>
</g>
<!-- NASALib/analysis -->
<g id="node2" class="node">
<title>NASALib/analysis</title>
<polygon fill="#fcfcd7" stroke="black" points="353,-775 293,-775 293,-739 353,-739 353,-775"/>
<text text-anchor="middle" x="323" y="-753.3" font-family="Times,serif" font-size="14.00">analysis</text>
</g>
<!-- NASALib/ints -->
<g id="node6" class="node">
<title>NASALib/ints</title>
<polygon fill="#fcfcd7" stroke="black" points="611,-52 557,-52 557,-16 611,-16 611,-52"/>
<text text-anchor="middle" x="584" y="-30.3" font-family="Times,serif" font-size="14.00">ints</text>
</g>
<!-- NASALib/analysis&#45;&gt;NASALib/ints -->
<g id="edge5" class="edge">
<title>NASALib/analysis&#45;&gt;NASALib/ints</title>
<path fill="none" stroke="black" d="M292.84,-738.59C227.15,-700.67 77,-614 77,-614"/>
</g>
<!-- NASALib/orders -->
<g id="node11" class="node">
<title>NASALib/orders</title>
<polygon fill="#fcfcd7" stroke="black" points="711,-199 657,-199 657,-163 711,-163 711,-199"/>
<text text-anchor="middle" x="684" y="-177.3" font-family="Times,serif" font-size="14.00">orders</text>
</g>
<!-- NASALib/analysis&#45;&gt;NASALib/orders -->
<g id="edge6" class="edge">
<title>NASALib/analysis&#45;&gt;NASALib/orders</title>
<path fill="none" stroke="black" d="M353.4,-752.96C466.02,-741.7 853,-703 853,-703 853,-703 888,-614 888,-614 888,-614 888,-614 888,-468 888,-468 843,-379 843,-379 843,-379 793,-326 793,-326"/>
</g>
<!-- NASALib/analysis&#45;&gt;NASALib/reals -->
<g id="edge7" class="edge">
<title>NASALib/analysis&#45;&gt;NASALib/reals</title>
<path fill="none" stroke="black" d="M323,-738.7C323,-731.41 323,-722.73 323,-714.54"/>
<polygon fill="black" stroke="black" points="326.5,-714.62 323,-704.62 319.5,-714.62 326.5,-714.62"/>
</g>
<!-- NASALib/analysis&#45;&gt;NASALib/structures -->
<g id="edge8" class="edge">
<title>NASALib/analysis&#45;&gt;NASALib/structures</title>
<path fill="none" stroke="black" d="M353.48,-750.13C425.08,-736.33 598,-703 598,-703 598,-703 813,-631 813,-631 813,-631 908,-326 908,-326"/>
<path fill="none" stroke="black" d="M908,-324C908,-324 720,-163 720,-163 720,-163 668.79,-143.04 629.21,-127.62"/>
<polygon fill="black" stroke="black" points="630.67,-124.43 620.08,-124.06 628.13,-130.95 630.67,-124.43"/>
</g>
<!-- lib/finite_sets -->
<g id="node21" class="node">
<title>lib/finite_sets</title>
<polygon fill="#fcfcd7" stroke="black" points="1005,-52 933,-52 933,-16 1005,-16 1005,-52"/>
<text text-anchor="middle" x="969" y="-30.3" font-family="Times,serif" font-size="14.00">finite_sets</text>
</g>
<!-- NASALib/analysis&#45;&gt;lib/finite_sets -->
<g id="edge9" class="edge">
<title>NASALib/analysis&#45;&gt;lib/finite_sets</title>
<path fill="none" stroke="black" d="M353.25,-753.04C467.18,-741.88 864,-703 864,-703 864,-703 921,-559 921,-559 921,-559 937,-470 937,-470"/>
</g>
<!-- NASALib/examples -->
<g id="node3" class="node">
<title>NASALib/examples</title>
<polygon fill="#fcfcd7" stroke="black" points="297,-991 229,-991 229,-955 297,-955 297,-991"/>
<text text-anchor="middle" x="263" y="-969.3" font-family="Times,serif" font-size="14.00">examples</text>
</g>
<!-- NASALib/examples&#45;&gt;NASALib/Bernstein -->
<g id="edge10" class="edge">
<title>NASALib/examples&#45;&gt;NASALib/Bernstein</title>
<path fill="none" stroke="black" d="M263,-954.7C263,-947.41 263,-938.73 263,-930.54"/>
<polygon fill="black" stroke="black" points="266.5,-930.62 263,-920.62 259.5,-930.62 266.5,-930.62"/>
</g>
<!-- NASALib/examples&#45;&gt;NASALib/analysis -->
<g id="edge11" class="edge">
<title>NASALib/examples&#45;&gt;NASALib/analysis</title>
<path fill="none" stroke="black" d="M277.08,-954.65C289.62,-939.19 306,-919 306,-919 306,-919 315.1,-832.85 319.98,-786.59"/>
<polygon fill="black" stroke="black" points="323.45,-787.05 321.02,-776.73 316.49,-786.31 323.45,-787.05"/>
</g>
<!-- NASALib/examples&#45;&gt;NASALib/interval_arith -->
<g id="edge12" class="edge">
<title>NASALib/examples&#45;&gt;NASALib/interval_arith</title>
<path fill="none" stroke="black" d="M200,-900C200,-900 199.69,-878.08 199.41,-858.77"/>
<polygon fill="black" stroke="black" points="202.91,-858.77 199.27,-848.82 195.91,-858.87 202.91,-858.77"/>
</g>
<!-- NASALib/lnexp -->
<g id="node8" class="node">
<title>NASALib/lnexp</title>
<polygon fill="#fcfcd7" stroke="black" points="282,-343 228,-343 228,-307 282,-307 282,-343"/>
<text text-anchor="middle" x="255" y="-321.3" font-family="Times,serif" font-size="14.00">lnexp</text>
</g>
<!-- NASALib/examples&#45;&gt;NASALib/lnexp -->
<g id="edge13" class="edge">
<title>NASALib/examples&#45;&gt;NASALib/lnexp</title>
<path fill="none" stroke="black" d="M217,-468C217,-468 246,-415 246,-415 246,-415 249.5,-380.42 252.13,-354.37"/>
<polygon fill="black" stroke="black" points="255.59,-354.97 253.11,-344.67 248.62,-354.26 255.59,-354.97"/>
<path fill="none" stroke="black" d="M97,-828C97,-828 217,-470 217,-470"/>
</g>
<!-- NASALib/examples&#45;&gt;NASALib/reals -->
<g id="edge14" class="edge">
<title>NASALib/examples&#45;&gt;NASALib/reals</title>
<path fill="none" stroke="black" d="M274,-756C274,-756 284,-739 284,-739 284,-739 293.81,-725.67 303.59,-712.38"/>
<polygon fill="black" stroke="black" points="306.23,-714.7 309.33,-704.57 300.59,-710.55 306.23,-714.7"/>
<path fill="none" stroke="black" d="M200,-900C200,-900 252,-847 252,-847 252,-847 274,-758 274,-758"/>
</g>
<!-- NASALib/trig -->
<g id="node19" class="node">
<title>NASALib/trig</title>
<polygon fill="#fcfcd7" stroke="black" points="190,-343 136,-343 136,-307 190,-307 190,-343"/>
<text text-anchor="middle" x="163" y="-321.3" font-family="Times,serif" font-size="14.00">trig</text>
</g>
<!-- NASALib/examples&#45;&gt;NASALib/trig -->
<g id="edge15" class="edge">
<title>NASALib/examples&#45;&gt;NASALib/trig</title>
<path fill="none" stroke="black" d="M57,-756C57,-756 32,-703 32,-703 32,-703 32,-667 32,-667 32,-667 137,-398 137,-398"/>
<path fill="none" stroke="black" d="M137,-396C137,-396 145.37,-373.45 152.62,-353.95"/>
<polygon fill="black" stroke="black" points="155.85,-355.32 156.05,-344.72 149.28,-352.88 155.85,-355.32"/>
<path fill="none" stroke="black" d="M97,-828C97,-828 57,-758 57,-758"/>
<path fill="none" stroke="black" d="M200,-900C200,-900 97,-830 97,-830"/>
<path fill="none" stroke="black" d="M247.43,-954.7C228.77,-933.97 200,-902 200,-902"/>
</g>
<!-- NASALib/vectors -->
<g id="node20" class="node">
<title>NASALib/vectors</title>
<polygon fill="#fcfcd7" stroke="black" points="237,-415 181,-415 181,-379 237,-379 237,-415"/>
<text text-anchor="middle" x="209" y="-393.3" font-family="Times,serif" font-size="14.00">vectors</text>
</g>
<!-- NASALib/examples&#45;&gt;NASALib/vectors -->
<g id="edge16" class="edge">
<title>NASALib/examples&#45;&gt;NASALib/vectors</title>
<path fill="none" stroke="black" d="M57,-756C57,-756 92,-667 92,-667 92,-667 167.09,-494.36 196.96,-425.69"/>
<polygon fill="black" stroke="black" points="200.12,-427.19 200.9,-416.62 193.7,-424.4 200.12,-427.19"/>
</g>
<!-- NASALib/extended_nnreal -->
<g id="node4" class="node">
<title>NASALib/extended_nnreal</title>
<polygon fill="#fcfcd7" stroke="black" points="769,-487 663,-487 663,-451 769,-451 769,-487"/>
<text text-anchor="middle" x="716" y="-465.3" font-family="Times,serif" font-size="14.00">extended_nnreal</text>
</g>
<!-- NASALib/extended_nnreal&#45;&gt;NASALib/analysis -->
<g id="edge17" class="edge">
<title>NASALib/extended_nnreal&#45;&gt;NASALib/analysis</title>
<path fill="none" stroke="black" d="M728,-542C728,-542 808,-612 808,-612"/>
<path fill="none" stroke="black" d="M808,-614C808,-614 793,-631 793,-631 793,-631 593,-684 593,-684"/>
</g>
<!-- NASALib/extended_nnreal&#45;&gt;NASALib/reals -->
<g id="edge18" class="edge">
<title>NASALib/extended_nnreal&#45;&gt;NASALib/reals</title>
<path fill="none" stroke="black" d="M728,-542C728,-542 748,-612 748,-612"/>
<path fill="none" stroke="black" d="M748,-614C748,-614 444.03,-664.06 350.23,-679.51"/>
<path fill="none" stroke="black" d="M718.97,-487.3C721.19,-500.26 724.16,-517.6 726.08,-528.79"/>
<polygon fill="black" stroke="black" points="722.6,-529.24 727.74,-538.51 729.5,-528.06 722.6,-529.24"/>
</g>
<!-- NASALib/series -->
<g id="node14" class="node">
<title>NASALib/series</title>
<polygon fill="#fcfcd7" stroke="black" points="447,-271 393,-271 393,-235 447,-235 447,-271"/>
<text text-anchor="middle" x="420" y="-249.3" font-family="Times,serif" font-size="14.00">series</text>
</g>
<!-- NASALib/extended_nnreal&#45;&gt;NASALib/series -->
<g id="edge19" class="edge">
<title>NASALib/extended_nnreal&#45;&gt;NASALib/series</title>
<path fill="none" stroke="black" d="M704.82,-450.84C687.96,-424.98 658,-379 658,-379 658,-379 557,-343 557,-343 557,-343 524,-326 524,-326"/>
</g>
<!-- NASALib/extended_nnreal&#45;&gt;NASALib/sigma_set -->
<g id="edge20" class="edge">
<title>NASALib/extended_nnreal&#45;&gt;NASALib/sigma_set</title>
<path fill="none" stroke="black" d="M735.03,-450.7C744.2,-442.37 755.35,-432.22 765.43,-423.07"/>
<polygon fill="black" stroke="black" points="767.75,-425.68 772.8,-416.37 763.04,-420.5 767.75,-425.68"/>
</g>
<!-- NASALib/interval_arith&#45;&gt;NASALib/analysis -->
<g id="edge21" class="edge">
<title>NASALib/interval_arith&#45;&gt;NASALib/analysis</title>
<path fill="none" stroke="black" d="M229.97,-810.52C246.04,-801.44 265.86,-790.26 283.07,-780.54"/>
<polygon fill="black" stroke="black" points="284.55,-783.73 291.53,-775.76 281.11,-777.63 284.55,-783.73"/>
</g>
<!-- NASALib/interval_arith&#45;&gt;NASALib/ints -->
<g id="edge22" class="edge">
<title>NASALib/interval_arith&#45;&gt;NASALib/ints</title>
<path fill="none" stroke="black" d="M77,-612C77,-612 77,-470 77,-470 77,-470 77,-470 77,-252 77,-252 196,-110 196,-110"/>
<path fill="none" stroke="black" d="M196,-108C196,-108 447.53,-60.68 545.55,-42.23"/>
<polygon fill="black" stroke="black" points="546.05,-45.7 555.23,-40.41 544.75,-38.82 546.05,-45.7"/>
<path fill="none" stroke="black" d="M168.53,-810.52C132.39,-789.78 77,-758 77,-758"/>
<path fill="none" stroke="black" d="M77,-756C77,-756 77,-614 77,-614"/>
</g>
<!-- NASALib/interval_arith&#45;&gt;NASALib/lnexp -->
<g id="edge23" class="edge">
<title>NASALib/interval_arith&#45;&gt;NASALib/lnexp</title>
<path fill="none" stroke="black" d="M197,-756C197,-756 217,-470 217,-470"/>
</g>
<!-- NASALib/interval_arith&#45;&gt;NASALib/reals -->
<g id="edge24" class="edge">
<title>NASALib/interval_arith&#45;&gt;NASALib/reals</title>
<path fill="none" stroke="black" d="M197,-756C197,-756 248.47,-727.41 285.62,-706.77"/>
<polygon fill="black" stroke="black" points="287.29,-709.84 294.34,-701.92 283.9,-703.72 287.29,-709.84"/>
</g>
<!-- NASALib/interval_arith&#45;&gt;NASALib/structures -->
<g id="edge25" class="edge">
<title>NASALib/interval_arith&#45;&gt;NASALib/structures</title>
<path fill="none" stroke="black" d="M77,-756C77,-756 97,-542 97,-542 97,-542 97,-542 97,-252 97,-252 401,-163 401,-163 401,-163 484.19,-138.91 538.4,-123.21"/>
<polygon fill="black" stroke="black" points="539.06,-126.66 547.69,-120.51 537.12,-119.93 539.06,-126.66"/>
</g>
<!-- NASALib/interval_arith&#45;&gt;NASALib/trig -->
<g id="edge26" class="edge">
<title>NASALib/interval_arith&#45;&gt;NASALib/trig</title>
<path fill="none" stroke="black" d="M198.51,-810.7C197.91,-789.97 197,-758 197,-758"/>
<path fill="none" stroke="black" d="M197,-756C197,-756 117,-614 117,-614 117,-614 117,-614 117,-540 117,-540 137,-398 137,-398"/>
</g>
<!-- NASALib/lebesgue -->
<g id="node7" class="node">
<title>NASALib/lebesgue</title>
<polygon fill="#fcfcd7" stroke="black" points="625,-631 561,-631 561,-595 625,-595 625,-631"/>
<text text-anchor="middle" x="593" y="-609.3" font-family="Times,serif" font-size="14.00">lebesgue</text>
</g>
<!-- NASALib/lebesgue&#45;&gt;NASALib/analysis -->
<g id="edge27" class="edge">
<title>NASALib/lebesgue&#45;&gt;NASALib/analysis</title>
<path fill="none" stroke="black" d="M593,-631.3C593,-644.26 593,-661.6 593,-672.79"/>
<polygon fill="black" stroke="black" points="589.5,-672.49 593,-682.49 596.5,-672.49 589.5,-672.49"/>
</g>
<!-- NASALib/lebesgue&#45;&gt;NASALib/extended_nnreal -->
<g id="edge28" class="edge">
<title>NASALib/lebesgue&#45;&gt;NASALib/extended_nnreal</title>
<path fill="none" stroke="black" d="M708,-540C708,-540 710.53,-517.87 712.74,-498.5"/>
<polygon fill="black" stroke="black" points="716.19,-499.14 713.85,-488.81 709.24,-498.35 716.19,-499.14"/>
</g>
<!-- NASALib/measure_integration -->
<g id="node9" class="node">
<title>NASALib/measure_integration</title>
<polygon fill="#fcfcd7" stroke="black" points="689,-559 561,-559 561,-523 689,-523 689,-559"/>
<text text-anchor="middle" x="625" y="-537.3" font-family="Times,serif" font-size="14.00">measure_integration</text>
</g>
<!-- NASALib/lebesgue&#45;&gt;NASALib/measure_integration -->
<g id="edge29" class="edge">
<title>NASALib/lebesgue&#45;&gt;NASALib/measure_integration</title>
<path fill="none" stroke="black" d="M600.91,-594.7C604.4,-587.07 608.58,-577.92 612.48,-569.4"/>
<polygon fill="black" stroke="black" points="615.58,-571.03 616.55,-560.48 609.21,-568.12 615.58,-571.03"/>
</g>
<!-- NASALib/metric_space -->
<g id="node10" class="node">
<title>NASALib/metric_space</title>
<polygon fill="#fcfcd7" stroke="black" points="464.5,-487 375.5,-487 375.5,-451 464.5,-451 464.5,-487"/>
<text text-anchor="middle" x="420" y="-465.3" font-family="Times,serif" font-size="14.00">metric_space</text>
</g>
<!-- NASALib/lebesgue&#45;&gt;NASALib/metric_space -->
<g id="edge30" class="edge">
<title>NASALib/lebesgue&#45;&gt;NASALib/metric_space</title>
<path fill="none" stroke="black" d="M568.11,-594.65C545.95,-579.19 517,-559 517,-559 517,-559 475.84,-521.24 447.15,-494.91"/>
<polygon fill="black" stroke="black" points="449.55,-492.37 439.82,-488.18 444.82,-497.52 449.55,-492.37"/>
</g>
<!-- NASALib/power -->
<g id="node12" class="node">
<title>NASALib/power</title>
<polygon fill="#fcfcd7" stroke="black" points="389,-415 335,-415 335,-379 389,-379 389,-415"/>
<text text-anchor="middle" x="362" y="-393.3" font-family="Times,serif" font-size="14.00">power</text>
</g>
<!-- NASALib/lebesgue&#45;&gt;NASALib/power -->
<g id="edge31" class="edge">
<title>NASALib/lebesgue&#45;&gt;NASALib/power</title>
<path fill="none" stroke="black" d="M560.72,-597.38C526.09,-581.69 476,-559 476,-559 476,-559 367,-487 367,-487 367,-487 365.06,-452.42 363.59,-426.37"/>
<polygon fill="black" stroke="black" points="367.1,-426.46 363.05,-416.67 360.12,-426.85 367.1,-426.46"/>
</g>
<!-- NASALib/sets_aux -->
<g id="node15" class="node">
<title>NASALib/sets_aux</title>
<polygon fill="#fcfcd7" stroke="black" points="719.5,-343 656.5,-343 656.5,-307 719.5,-307 719.5,-343"/>
<text text-anchor="middle" x="688" y="-321.3" font-family="Times,serif" font-size="14.00">sets_aux</text>
</g>
<!-- NASALib/lebesgue&#45;&gt;NASALib/sets_aux -->
<g id="edge33" class="edge">
<title>NASALib/lebesgue&#45;&gt;NASALib/sets_aux</title>
<path fill="none" stroke="black" d="M708,-540C708,-540 698,-523 698,-523 698,-523 654,-487 654,-487 654,-487 654,-451 654,-451 654,-451 688,-398 688,-398"/>
</g>
<!-- NASALib/lebesgue&#45;&gt;NASALib/sigma_set -->
<g id="edge34" class="edge">
<title>NASALib/lebesgue&#45;&gt;NASALib/sigma_set</title>
<path fill="none" stroke="black" d="M625.47,-599.71C666.83,-584.05 733,-559 733,-559 733,-559 778,-487 778,-487 778,-487 783.83,-452.42 788.22,-426.37"/>
<polygon fill="black" stroke="black" points="791.65,-427.1 789.86,-416.65 784.74,-425.93 791.65,-427.1"/>
</g>
<!-- NASALib/lebesgue&#45;&gt;NASALib/structures -->
<g id="edge35" class="edge">
<title>NASALib/lebesgue&#45;&gt;NASALib/structures</title>
<path fill="none" stroke="black" d="M579.58,-594.65C567.62,-579.19 552,-559 552,-559 552,-559 544,-398 544,-398"/>
</g>
<!-- NASALib/topology -->
<g id="node18" class="node">
<title>NASALib/topology</title>
<polygon fill="#fcfcd7" stroke="black" points="648.5,-415 583.5,-415 583.5,-379 648.5,-379 648.5,-415"/>
<text text-anchor="middle" x="616" y="-393.3" font-family="Times,serif" font-size="14.00">topology</text>
</g>
<!-- NASALib/lebesgue&#45;&gt;NASALib/topology -->
<g id="edge36" class="edge">
<title>NASALib/lebesgue&#45;&gt;NASALib/topology</title>
<path fill="none" stroke="black" d="M625.36,-595.67C656.21,-580.09 698,-559 698,-559 698,-559 708,-542 708,-542"/>
<path fill="none" stroke="black" d="M708,-540C708,-540 698,-523 698,-523 698,-523 639,-487 639,-487 639,-487 629.98,-452.11 623.24,-426.02"/>
<polygon fill="black" stroke="black" points="626.7,-425.43 620.81,-416.63 619.93,-427.18 626.7,-425.43"/>
</g>
<!-- NASALib/lnexp&#45;&gt;NASALib/analysis -->
<g id="edge37" class="edge">
<title>NASALib/lnexp&#45;&gt;NASALib/analysis</title>
<path fill="none" stroke="black" d="M276,-470C276,-470 272,-523 272,-523 272,-523 272,-559 272,-559 272,-559 277,-612 277,-612"/>
<path fill="none" stroke="black" d="M277,-614C277,-614 287,-703 287,-703 287,-703 300.71,-723.19 311.21,-738.65"/>
<path fill="none" stroke="black" d="M257.58,-343.41C261.96,-373.04 270.74,-432.41 274.37,-456.98"/>
<polygon fill="black" stroke="black" points="270.85,-457.12 275.78,-466.5 277.78,-456.1 270.85,-457.12"/>
</g>
<!-- NASALib/lnexp&#45;&gt;NASALib/ints -->
<g id="edge38" class="edge">
<title>NASALib/lnexp&#45;&gt;NASALib/ints</title>
<path fill="none" stroke="black" d="M247.77,-306.59C232.01,-268.67 196,-182 196,-182"/>
</g>
<!-- NASALib/lnexp&#45;&gt;NASALib/reals -->
<g id="edge39" class="edge">
<title>NASALib/lnexp&#45;&gt;NASALib/reals</title>
<path fill="none" stroke="black" d="M276,-470C276,-470 277,-540 277,-540"/>
</g>
<!-- NASALib/lnexp&#45;&gt;NASALib/series -->
<g id="edge40" class="edge">
<title>NASALib/lnexp&#45;&gt;NASALib/series</title>
<path fill="none" stroke="black" d="M282.25,-312.44C309.59,-300.84 351.93,-282.88 382.45,-269.93"/>
<polygon fill="black" stroke="black" points="383.48,-273.29 391.32,-266.17 380.75,-266.85 383.48,-273.29"/>
</g>
<!-- NASALib/measure_integration&#45;&gt;NASALib/extended_nnreal -->
<g id="edge41" class="edge">
<title>NASALib/measure_integration&#45;&gt;NASALib/extended_nnreal</title>
<path fill="none" stroke="black" d="M647.49,-522.7C658.65,-514.11 672.31,-503.61 684.49,-494.24"/>
<polygon fill="black" stroke="black" points="686.46,-497.14 692.25,-488.27 682.19,-491.59 686.46,-497.14"/>
</g>
<!-- NASALib/measure_integration&#45;&gt;NASALib/metric_space -->
<g id="edge42" class="edge">
<title>NASALib/measure_integration&#45;&gt;NASALib/metric_space</title>
<path fill="none" stroke="black" d="M573.8,-522.52C543.88,-512.3 506.11,-499.4 475.49,-488.95"/>
<polygon fill="black" stroke="black" points="477.01,-485.77 466.41,-485.85 474.74,-492.39 477.01,-485.77"/>
</g>
<!-- NASALib/measure_integration&#45;&gt;NASALib/orders -->
<g id="edge43" class="edge">
<title>NASALib/measure_integration&#45;&gt;NASALib/orders</title>
<path fill="none" stroke="black" d="M793,-324C793,-324 735.74,-249.4 704.22,-208.35"/>
<polygon fill="black" stroke="black" points="707.15,-206.41 698.29,-200.61 701.6,-210.68 707.15,-206.41"/>
<path fill="none" stroke="black" d="M584,-468C584,-468 693,-415 693,-415 693,-415 793,-326 793,-326"/>
</g>
<!-- NASALib/measure_integration&#45;&gt;NASALib/power -->
<g id="edge44" class="edge">
<title>NASALib/measure_integration&#45;&gt;NASALib/power</title>
<path fill="none" stroke="black" d="M590.29,-522.65C559.38,-507.19 519,-487 519,-487 519,-487 474,-451 474,-451 474,-451 432.11,-431.18 399.57,-415.78"/>
<polygon fill="black" stroke="black" points="401.3,-412.73 390.77,-411.61 398.31,-419.05 401.3,-412.73"/>
</g>
<!-- NASALib/measure_integration&#45;&gt;NASALib/reals -->
<g id="edge45" class="edge">
<title>NASALib/measure_integration&#45;&gt;NASALib/reals</title>
<path fill="none" stroke="black" d="M601.1,-559.35C579.81,-574.81 552,-595 552,-595 552,-595 549.95,-598.49 547.7,-602.31"/>
<polygon fill="black" stroke="black" points="544.82,-600.3 542.77,-610.7 550.85,-603.85 544.82,-600.3"/>
</g>
<!-- NASALib/measure_integration&#45;&gt;NASALib/series -->
<g id="edge46" class="edge">
<title>NASALib/measure_integration&#45;&gt;NASALib/series</title>
<path fill="none" stroke="black" d="M524,-324C524,-324 509,-307 509,-307 509,-307 481.47,-290.61 457.03,-276.05"/>
<polygon fill="black" stroke="black" points="458.87,-273.07 448.49,-270.96 455.29,-279.09 458.87,-273.07"/>
<path fill="none" stroke="black" d="M609.94,-522.65C596.52,-507.19 579,-487 579,-487 579,-487 539,-415 539,-415 539,-415 524,-326 524,-326"/>
</g>
<!-- NASALib/measure_integration&#45;&gt;NASALib/sets_aux -->
<g id="edge47" class="edge">
<title>NASALib/measure_integration&#45;&gt;NASALib/sets_aux</title>
<path fill="none" stroke="black" d="M688,-396C688,-396 688,-374.08 688,-354.77"/>
<polygon fill="black" stroke="black" points="691.5,-354.82 688,-344.82 684.5,-354.82 691.5,-354.82"/>
<path fill="none" stroke="black" d="M584,-468C584,-468 688,-398 688,-398"/>
</g>
<!-- NASALib/measure_integration&#45;&gt;NASALib/sigma_set -->
<g id="edge48" class="edge">
<title>NASALib/measure_integration&#45;&gt;NASALib/sigma_set</title>
<path fill="none" stroke="black" d="M630.59,-522.84C639.02,-496.98 654,-451 654,-451 654,-451 706.26,-431.07 746.69,-415.66"/>
<polygon fill="black" stroke="black" points="747.69,-419.02 755.79,-412.19 745.2,-412.48 747.69,-419.02"/>
</g>
<!-- NASALib/measure_integration&#45;&gt;NASALib/structures -->
<g id="edge49" class="edge">
<title>NASALib/measure_integration&#45;&gt;NASALib/structures</title>
<path fill="none" stroke="black" d="M584,-252C584,-252 584,-182 584,-182"/>
<path fill="none" stroke="black" d="M544,-396C544,-396 584,-254 584,-254"/>
<path fill="none" stroke="black" d="M614.87,-522.7C602.72,-501.97 584,-470 584,-470"/>
<path fill="none" stroke="black" d="M584,-468C584,-468 544,-398 544,-398"/>
</g>
<!-- NASALib/measure_integration&#45;&gt;NASALib/topology -->
<g id="edge50" class="edge">
<title>NASALib/measure_integration&#45;&gt;NASALib/topology</title>
<path fill="none" stroke="black" d="M584,-468C584,-468 594.4,-445.24 603.35,-425.68"/>
<polygon fill="black" stroke="black" points="606.49,-427.23 607.46,-416.68 600.12,-424.32 606.49,-427.23"/>
</g>
<!-- NASALib/measure_integration&#45;&gt;lib/finite_sets -->
<g id="edge51" class="edge">
<title>NASALib/measure_integration&#45;&gt;lib/finite_sets</title>
<path fill="none" stroke="black" d="M937,-468C937,-468 937,-398 937,-398"/>
<path fill="none" stroke="black" d="M689.41,-525.96C697.5,-524.2 703,-523 703,-523 703,-523 921,-487 921,-487 921,-487 937,-470 937,-470"/>
</g>
<!-- NASALib/metric_space&#45;&gt;NASALib/analysis -->
<g id="edge52" class="edge">
<title>NASALib/metric_space&#45;&gt;NASALib/analysis</title>
<path fill="none" stroke="black" d="M593,-686C593,-686 424.06,-729.8 353.45,-748.11"/>
<path fill="none" stroke="black" d="M502,-614C502,-614 593,-684 593,-684"/>
<path fill="none" stroke="black" d="M430.05,-487.41C447.42,-517.48 482.48,-578.2 496.26,-602.06"/>
<polygon fill="black" stroke="black" points="493.21,-603.78 501.24,-610.69 499.27,-600.28 493.21,-603.78"/>
</g>
<!-- NASALib/metric_space&#45;&gt;NASALib/power -->
<g id="edge53" class="edge">
<title>NASALib/metric_space&#45;&gt;NASALib/power</title>
<path fill="none" stroke="black" d="M405.66,-450.7C398.92,-442.56 390.74,-432.69 383.3,-423.7"/>
<polygon fill="black" stroke="black" points="386.21,-421.74 377.14,-416.27 380.82,-426.2 386.21,-421.74"/>
</g>
<!-- NASALib/metric_space&#45;&gt;NASALib/series -->
<g id="edge55" class="edge">
<title>NASALib/metric_space&#45;&gt;NASALib/series</title>
<path fill="none" stroke="black" d="M420,-450.85C420,-414.14 420,-327.66 420,-282.53"/>
<polygon fill="black" stroke="black" points="423.5,-282.75 420,-272.75 416.5,-282.75 423.5,-282.75"/>
</g>
<!-- NASALib/metric_space&#45;&gt;NASALib/sets_aux -->
<g id="edge56" class="edge">
<title>NASALib/metric_space&#45;&gt;NASALib/sets_aux</title>
<path fill="none" stroke="black" d="M462.24,-450.65C499.86,-435.19 549,-415 549,-415 549,-415 575,-379 575,-379 575,-379 613.92,-360.75 646.08,-345.66"/>
<polygon fill="black" stroke="black" points="647.28,-348.96 654.85,-341.55 644.31,-342.62 647.28,-348.96"/>
</g>
<!-- NASALib/metric_space&#45;&gt;NASALib/topology -->
<g id="edge57" class="edge">
<title>NASALib/metric_space&#45;&gt;NASALib/topology</title>
<path fill="none" stroke="black" d="M464.7,-452.1C508.59,-436.49 569,-415 569,-415 569,-415 570.36,-414.51 572.62,-413.69"/>
<polygon fill="black" stroke="black" points="573.46,-417.11 581.68,-410.41 571.08,-410.52 573.46,-417.11"/>
</g>
<!-- NASALib/metric_space&#45;&gt;NASALib/vectors -->
<g id="edge58" class="edge">
<title>NASALib/metric_space&#45;&gt;NASALib/vectors</title>
<path fill="none" stroke="black" d="M375.25,-453.15C337.43,-440.61 283.8,-422.82 247.78,-410.87"/>
<polygon fill="black" stroke="black" points="249.23,-407.66 238.64,-407.83 247.03,-414.3 249.23,-407.66"/>
</g>
<!-- NASALib/metric_space&#45;&gt;lib/finite_sets -->
<g id="edge59" class="edge">
<title>NASALib/metric_space&#45;&gt;lib/finite_sets</title>
<path fill="none" stroke="black" d="M937,-396C937,-396 937,-254 937,-254"/>
<path fill="none" stroke="black" d="M464.73,-462.33C572.57,-448.66 838,-415 838,-415 838,-415 937,-398 937,-398"/>
</g>
<!-- NASALib/orders&#45;&gt;NASALib/structures -->
<g id="edge60" class="edge">
<title>NASALib/orders&#45;&gt;NASALib/structures</title>
<path fill="none" stroke="black" d="M659.02,-162.52C646.64,-153.85 631.5,-143.25 618.07,-133.85"/>
<polygon fill="black" stroke="black" points="620.1,-131 609.9,-128.13 616.08,-136.73 620.1,-131"/>
</g>
<!-- NASALib/orders&#45;&gt;lib/finite_sets -->
<g id="edge61" class="edge">
<title>NASALib/orders&#45;&gt;lib/finite_sets</title>
<path fill="none" stroke="black" d="M711.08,-172.51C776.34,-154.45 937,-110 937,-110"/>
<path fill="none" stroke="black" d="M937,-108C937,-108 947.84,-83.26 956.91,-62.59"/>
<polygon fill="black" stroke="black" points="960,-64.25 960.81,-53.69 953.59,-61.44 960,-64.25"/>
</g>
<!-- NASALib/power&#45;&gt;NASALib/analysis -->
<g id="edge62" class="edge">
<title>NASALib/power&#45;&gt;NASALib/analysis</title>
<path fill="none" stroke="black" d="M351.85,-415.35C342.81,-430.81 331,-451 331,-451 331,-451 292.73,-565.09 280.63,-601.19"/>
<polygon fill="black" stroke="black" points="277.34,-599.97 277.48,-610.57 283.98,-602.2 277.34,-599.97"/>
</g>
<!-- NASALib/power&#45;&gt;NASALib/lnexp -->
<g id="edge63" class="edge">
<title>NASALib/power&#45;&gt;NASALib/lnexp</title>
<path fill="none" stroke="black" d="M335.28,-378.52C321.77,-369.68 305.19,-358.84 290.62,-349.3"/>
<polygon fill="black" stroke="black" points="292.94,-346.63 282.65,-344.09 289.1,-352.49 292.94,-346.63"/>
</g>
<!-- NASALib/power&#45;&gt;NASALib/reals -->
<g id="edge64" class="edge">
<title>NASALib/power&#45;&gt;NASALib/reals</title>
<path fill="none" stroke="black" d="M355.57,-415.3C350.7,-428.42 344.16,-446.04 340.01,-457.21"/>
<polygon fill="black" stroke="black" points="336.73,-455.99 336.53,-466.58 343.29,-458.43 336.73,-455.99"/>
</g>
<!-- NASALib/reals&#45;&gt;NASALib/ints -->
<g id="edge65" class="edge">
<title>NASALib/reals&#45;&gt;NASALib/ints</title>
<path fill="none" stroke="black" d="M304.66,-666.65C288.33,-651.19 267,-631 267,-631 267,-631 132,-415 132,-415 132,-415 127,-343 127,-343 127,-343 127,-307 127,-307 127,-307 163,-254 163,-254"/>
<path fill="none" stroke="black" d="M196,-180C196,-180 196,-110 196,-110"/>
<path fill="none" stroke="black" d="M163,-252C163,-252 196,-182 196,-182"/>
</g>
<!-- NASALib/reals&#45;&gt;NASALib/lebesgue -->
<g id="edge66" class="edge">
<title>NASALib/reals&#45;&gt;NASALib/lebesgue</title>
<path fill="none" stroke="black" d="M361.33,-674.93C425.33,-659.79 547,-631 547,-631 547,-631 548.14,-630.58 550.05,-629.87"/>
<polygon fill="black" stroke="black" points="360.87,-671.44 351.94,-677.15 362.48,-678.26 360.87,-671.44"/>
<polygon fill="black" stroke="black" points="550.97,-633.27 559.13,-626.52 548.54,-626.7 550.97,-633.27"/>
</g>
<!-- NASALib/reals&#45;&gt;NASALib/metric_space -->
<g id="edge67" class="edge">
<title>NASALib/reals&#45;&gt;NASALib/metric_space</title>
<path fill="none" stroke="black" d="M335.5,-656.43C354.11,-615.37 388.9,-538.62 407.5,-497.57"/>
<polygon fill="black" stroke="black" points="332.34,-654.92 331.4,-665.47 338.72,-657.81 332.34,-654.92"/>
<polygon fill="black" stroke="black" points="410.62,-499.16 411.56,-488.61 404.25,-496.27 410.62,-499.16"/>
</g>
<!-- NASALib/reals&#45;&gt;NASALib/sets_aux -->
<g id="edge68" class="edge">
<title>NASALib/reals&#45;&gt;NASALib/sets_aux</title>
<path fill="none" stroke="black" d="M350.22,-680.64C444.75,-668.99 753,-631 753,-631 753,-631 813,-487 813,-487 813,-487 838,-415 838,-415 838,-415 838,-379 838,-379 838,-379 774.98,-356.73 730.63,-341.06"/>
<polygon fill="black" stroke="black" points="731.83,-337.78 721.24,-337.74 729.5,-344.38 731.83,-337.78"/>
</g>
<!-- NASALib/reals&#45;&gt;NASALib/structures -->
<g id="edge69" class="edge">
<title>NASALib/reals&#45;&gt;NASALib/structures</title>
<path fill="none" stroke="black" d="M322.94,-666.76C322.72,-607.39 322,-415 322,-415 322,-415 322,-379 322,-379 322,-379 349,-307 349,-307 349,-307 384,-235 384,-235 384,-235 584,-182 584,-182"/>
<path fill="none" stroke="black" d="M584,-180C584,-180 584,-158.08 584,-138.77"/>
<polygon fill="black" stroke="black" points="587.5,-138.82 584,-128.82 580.5,-138.82 587.5,-138.82"/>
</g>
<!-- NASALib/series&#45;&gt;NASALib/analysis -->
<g id="edge70" class="edge">
<title>NASALib/series&#45;&gt;NASALib/analysis</title>
<path fill="none" stroke="black" d="M424.79,-271.48C438.01,-319.7 474,-451 474,-451 474,-451 493.66,-564.03 500.03,-600.68"/>
<polygon fill="black" stroke="black" points="496.58,-601.26 501.74,-610.51 503.48,-600.06 496.58,-601.26"/>
</g>
<!-- NASALib/series&#45;&gt;NASALib/ints -->
<g id="edge71" class="edge">
<title>NASALib/series&#45;&gt;NASALib/ints</title>
<path fill="none" stroke="black" d="M392.53,-234.59C332.72,-196.67 196,-110 196,-110"/>
</g>
<!-- NASALib/series&#45;&gt;NASALib/orders -->
<g id="edge72" class="edge">
<title>NASALib/series&#45;&gt;NASALib/orders</title>
<path fill="none" stroke="black" d="M447.34,-245.5C506.89,-231.35 643,-199 643,-199 643,-199 644.37,-198.43 646.62,-197.5"/>
<polygon fill="black" stroke="black" points="647.59,-200.89 655.48,-193.82 644.9,-194.42 647.59,-200.89"/>
</g>
<!-- NASALib/series&#45;&gt;NASALib/reals -->
<g id="edge73" class="edge">
<title>NASALib/series&#45;&gt;NASALib/reals</title>
<path fill="none" stroke="black" d="M406.93,-271.38C381.1,-305.73 326,-379 326,-379 326,-379 326,-415 326,-415 326,-415 330.94,-441.2 333.88,-456.76"/>
<polygon fill="black" stroke="black" points="330.43,-457.34 335.72,-466.51 337.3,-456.04 330.43,-457.34"/>
<path fill="none" stroke="black" d="M336,-470C336,-470 327.13,-616.07 324.04,-666.85"/>
</g>
<!-- NASALib/sets_aux&#45;&gt;NASALib/ints -->
<g id="edge74" class="edge">
<title>NASALib/sets_aux&#45;&gt;NASALib/ints</title>
<path fill="none" stroke="black" d="M638,-180C638,-180 628,-91 628,-91 628,-91 616.07,-75.81 604.63,-61.25"/>
<polygon fill="black" stroke="black" points="607.55,-59.3 598.62,-53.6 602.04,-63.63 607.55,-59.3"/>
</g>
<!-- NASALib/sets_aux&#45;&gt;NASALib/orders -->
<g id="edge75" class="edge">
<title>NASALib/sets_aux&#45;&gt;NASALib/orders</title>
<path fill="none" stroke="black" d="M638,-252C638,-252 653.37,-228.61 666.35,-208.87"/>
<polygon fill="black" stroke="black" points="669.23,-210.85 671.8,-200.57 663.38,-207 669.23,-210.85"/>
</g>
<!-- NASALib/sets_aux&#45;&gt;NASALib/structures -->
<g id="edge76" class="edge">
<title>NASALib/sets_aux&#45;&gt;NASALib/structures</title>
<path fill="none" stroke="black" d="M675.64,-306.7C660.83,-285.97 638,-254 638,-254"/>
<path fill="none" stroke="black" d="M638,-180C638,-180 619.62,-156.18 604.31,-136.33"/>
<polygon fill="black" stroke="black" points="607.15,-134.28 598.27,-128.5 601.61,-138.56 607.15,-134.28"/>
<path fill="none" stroke="black" d="M638,-252C638,-252 638,-182 638,-182"/>
</g>
<!-- NASALib/sets_aux&#45;&gt;lib/finite_sets -->
<g id="edge77" class="edge">
<title>NASALib/sets_aux&#45;&gt;lib/finite_sets</title>
<path fill="none" stroke="black" d="M719.79,-315.06C786.92,-296.19 937,-254 937,-254"/>
<path fill="none" stroke="black" d="M937,-252C937,-252 937,-110 937,-110"/>
</g>
<!-- NASALib/sigma_set&#45;&gt;NASALib/analysis -->
<g id="edge78" class="edge">
<title>NASALib/sigma_set&#45;&gt;NASALib/analysis</title>
<path fill="none" stroke="black" d="M808,-470C808,-470 808,-612 808,-612"/>
</g>
<!-- NASALib/sigma_set&#45;&gt;NASALib/orders -->
<g id="edge79" class="edge">
<title>NASALib/sigma_set&#45;&gt;NASALib/orders</title>
<path fill="none" stroke="black" d="M793,-378.7C793,-357.97 793,-326 793,-326"/>
</g>
<!-- NASALib/sigma_set&#45;&gt;NASALib/reals -->
<g id="edge80" class="edge">
<title>NASALib/sigma_set&#45;&gt;NASALib/reals</title>
<path fill="none" stroke="black" d="M796.71,-415.3C799.48,-428.26 803.2,-445.6 805.6,-456.79"/>
<polygon fill="black" stroke="black" points="802.17,-457.48 807.68,-466.52 809.01,-456.01 802.17,-457.48"/>
<path fill="none" stroke="black" d="M808,-470C808,-470 783,-523 783,-523 783,-523 748,-612 748,-612"/>
</g>
<!-- NASALib/sigma_set&#45;&gt;NASALib/series -->
<g id="edge81" class="edge">
<title>NASALib/sigma_set&#45;&gt;NASALib/series</title>
<path fill="none" stroke="black" d="M757.16,-382.9C714.22,-367.2 648,-343 648,-343 648,-343 522.4,-293.97 457.64,-268.69"/>
<polygon fill="black" stroke="black" points="459.05,-265.49 448.46,-265.11 456.5,-272.01 459.05,-265.49"/>
</g>
<!-- NASALib/sigma_set&#45;&gt;NASALib/sets_aux -->
<g id="edge82" class="edge">
<title>NASALib/sigma_set&#45;&gt;NASALib/sets_aux</title>
<path fill="none" stroke="black" d="M766.77,-378.52C753.65,-369.76 737.57,-359.04 723.36,-349.58"/>
<polygon fill="black" stroke="black" points="725.41,-346.73 715.15,-344.1 721.53,-352.56 725.41,-346.73"/>
</g>
<!-- NASALib/structures&#45;&gt;NASALib/ints -->
<g id="edge83" class="edge">
<title>NASALib/structures&#45;&gt;NASALib/ints</title>
<path fill="none" stroke="black" d="M584,-90.7C584,-82.67 584,-72.9 584,-63.8"/>
<polygon fill="black" stroke="black" points="587.5,-63.94 584,-53.94 580.5,-63.94 587.5,-63.94"/>
</g>
<!-- NASALib/structures&#45;&gt;lib/finite_sets -->
<g id="edge84" class="edge">
<title>NASALib/structures&#45;&gt;lib/finite_sets</title>
<path fill="none" stroke="black" d="M618.8,-105.42C704.9,-99.03 921,-83 921,-83 921,-83 932.17,-71.83 943.73,-60.27"/>
<polygon fill="black" stroke="black" points="946,-62.95 950.6,-53.4 941.05,-58 946,-62.95"/>
</g>
<!-- NASALib/topology&#45;&gt;NASALib/reals -->
<g id="edge85" class="edge">
<title>NASALib/topology&#45;&gt;NASALib/reals</title>
<path fill="none" stroke="black" d="M542,-614C542,-614 507,-631 507,-631 507,-631 401.33,-661.44 350.15,-676.18"/>
<path fill="none" stroke="black" d="M603.88,-415.35C593.09,-430.81 579,-451 579,-451 579,-451 552,-523 552,-523 552,-523 545.96,-576.78 543.27,-600.73"/>
<polygon fill="black" stroke="black" points="539.81,-600.17 542.17,-610.5 546.76,-600.95 539.81,-600.17"/>
</g>
<!-- NASALib/topology&#45;&gt;NASALib/sets_aux -->
<g id="edge86" class="edge">
<title>NASALib/topology&#45;&gt;NASALib/sets_aux</title>
<path fill="none" stroke="black" d="M633.8,-378.7C642.28,-370.45 652.59,-360.43 661.93,-351.35"/>
<polygon fill="black" stroke="black" points="664.34,-353.88 669.07,-344.4 659.46,-348.86 664.34,-353.88"/>
</g>
<!-- NASALib/topology&#45;&gt;NASALib/structures -->
<g id="edge87" class="edge">
<title>NASALib/topology&#45;&gt;NASALib/structures</title>
<path fill="none" stroke="black" d="M612.08,-378.59C603.53,-340.67 584,-254 584,-254"/>
</g>
<!-- NASALib/trig&#45;&gt;NASALib/analysis -->
<g id="edge88" class="edge">
<title>NASALib/trig&#45;&gt;NASALib/analysis</title>
<path fill="none" stroke="black" d="M197,-470C197,-470 212,-559 212,-559 212,-559 280,-703 280,-703 280,-703 296.38,-723.19 308.92,-738.65"/>
<path fill="none" stroke="black" d="M164.74,-343.16C167.35,-369.02 172,-415 172,-415 172,-415 184.92,-442.38 192.18,-457.78"/>
<polygon fill="black" stroke="black" points="188.92,-459.08 196.35,-466.63 195.25,-456.09 188.92,-459.08"/>
</g>
<!-- NASALib/trig&#45;&gt;NASALib/ints -->
<g id="edge89" class="edge">
<title>NASALib/trig&#45;&gt;NASALib/ints</title>
<path fill="none" stroke="black" d="M163,-306.7C163,-285.97 163,-254 163,-254"/>
</g>
<!-- NASALib/trig&#45;&gt;NASALib/reals -->
<g id="edge90" class="edge">
<title>NASALib/trig&#45;&gt;NASALib/reals</title>
<path fill="none" stroke="black" d="M197,-470C197,-470 291,-631 291,-631 291,-631 303.19,-651.19 312.52,-666.65"/>
</g>
<!-- NASALib/trig&#45;&gt;NASALib/series -->
<g id="edge91" class="edge">
<title>NASALib/trig&#45;&gt;NASALib/series</title>
<path fill="none" stroke="black" d="M190.34,-315.7C204.56,-311.38 219,-307 219,-307 219,-307 323.61,-279.42 381.9,-264.05"/>
<polygon fill="black" stroke="black" points="382.65,-267.47 391.43,-261.53 380.87,-260.7 382.65,-267.47"/>
</g>
<!-- NASALib/vectors&#45;&gt;NASALib/reals -->
<g id="edge92" class="edge">
<title>NASALib/vectors&#45;&gt;NASALib/reals</title>
<path fill="none" stroke="black" d="M277,-542C277,-542 305.08,-628.67 317.36,-666.59"/>
<path fill="none" stroke="black" d="M217.34,-415.41C231.67,-445.33 260.53,-505.61 272.07,-529.7"/>
<polygon fill="black" stroke="black" points="268.87,-531.13 276.35,-538.63 275.18,-528.1 268.87,-531.13"/>
</g>
<!-- NASALib/vectors&#45;&gt;NASALib/structures -->
<g id="edge93" class="edge">
<title>NASALib/vectors&#45;&gt;NASALib/structures</title>
<path fill="none" stroke="black" d="M210.93,-378.84C213.83,-352.98 219,-307 219,-307 219,-307 333,-235 333,-235 333,-235 466.66,-168.44 538.91,-132.46"/>
<polygon fill="black" stroke="black" points="540.35,-135.65 547.74,-128.06 537.23,-129.38 540.35,-135.65"/>
</g>
<!-- NASALib/vectors&#45;&gt;NASALib/trig -->
<g id="edge94" class="edge">
<title>NASALib/vectors&#45;&gt;NASALib/trig</title>
<path fill="none" stroke="black" d="M197.63,-378.7C192.45,-370.81 186.2,-361.3 180.44,-352.55"/>
<polygon fill="black" stroke="black" points="183.49,-350.8 175.07,-344.37 177.64,-354.65 183.49,-350.8"/>
</g>
</g>
</svg>
