<?xml version="1.0" encoding="UTF-8" standalone="no"?>
<!DOCTYPE svg PUBLIC "-//W3C//DTD SVG 1.1//EN"
 "http://www.w3.org/Graphics/SVG/1.1/DTD/svg11.dtd">
<!-- Generated by graphviz version 8.1.0 (20230707.0739)
 -->
<!-- Title: Bernstein Pages: 1 -->
<svg width="424pt" height="761pt"
 viewBox="0.00 0.00 424.00 761.00" xmlns="http://www.w3.org/2000/svg" xmlns:xlink="http://www.w3.org/1999/xlink">
<g id="graph0" class="graph" transform="scale(1 1) rotate(0) translate(4 757)">
<title>Bernstein</title>
<polygon fill="white" stroke="none" points="-4,4 -4,-757 420,-757 420,4 -4,4"/>
<g id="clust1" class="cluster">
<title>cluster_NASALib</title>
<polygon fill="none" stroke="black" points="8,-92.5 8,-745 396,-745 396,-92.5 8,-92.5"/>
<text text-anchor="middle" x="202" y="-727.7" font-family="Times,serif" font-size="14.00">NASALib</text>
</g>
<g id="clust2" class="cluster">
<title>cluster_PVS Prelude</title>
<polygon fill="none" stroke="black" points="226,-8 226,-84.5 314,-84.5 314,-8 226,-8"/>
<text text-anchor="middle" x="270" y="-67.2" font-family="Times,serif" font-size="14.00">PVS Prelude</text>
</g>
<!-- lib/finite_sets -->
<g id="node1" class="node">
<title>lib/finite_sets</title>
<polygon fill="#fcfcd7" stroke="black" points="305.75,-52 234.25,-52 234.25,-16 305.75,-16 305.75,-52"/>
<text text-anchor="middle" x="270" y="-28.95" font-family="Times,serif" font-size="14.00">finite_sets</text>
</g>
<!-- nasalib/Bernstein -->
<g id="node2" class="node">
<title>nasalib/Bernstein</title>
<polygon fill="#f7e28d" stroke="black" points="196.88,-640.5 129.12,-640.5 129.12,-604.5 196.88,-604.5 196.88,-640.5"/>
<text text-anchor="middle" x="163" y="-617.45" font-family="Times,serif" font-size="14.00">Bernstein</text>
</g>
<!-- nasalib/interval_arith -->
<g id="node5" class="node">
<title>nasalib/interval_arith</title>
<polygon fill="#fcfcd7" stroke="black" points="144.38,-568.5 55.62,-568.5 55.62,-532.5 144.38,-532.5 144.38,-568.5"/>
<text text-anchor="middle" x="100" y="-545.45" font-family="Times,serif" font-size="14.00">interval_arith</text>
</g>
<!-- nasalib/Bernstein&#45;&gt;nasalib/interval_arith -->
<g id="edge1" class="edge">
<title>nasalib/Bernstein&#45;&gt;nasalib/interval_arith</title>
<path fill="none" stroke="black" d="M147.43,-604.2C139.95,-595.89 130.85,-585.78 122.63,-576.64"/>
<polygon fill="black" stroke="black" points="125.69,-574.7 116.39,-569.6 120.48,-579.38 125.69,-574.7"/>
</g>
<!-- nasalib/reals -->
<g id="node9" class="node">
<title>nasalib/reals</title>
<polygon fill="#fcfcd7" stroke="black" points="150,-280.5 96,-280.5 96,-244.5 150,-244.5 150,-280.5"/>
<text text-anchor="middle" x="123" y="-257.45" font-family="Times,serif" font-size="14.00">reals</text>
</g>
<!-- nasalib/Bernstein&#45;&gt;nasalib/reals -->
<g id="edge2" class="edge">
<title>nasalib/Bernstein&#45;&gt;nasalib/reals</title>
<path fill="none" stroke="black" d="M161.28,-604.09C157.54,-566.17 149,-479.5 149,-479.5"/>
</g>
<!-- nasalib/sigma_set -->
<g id="node12" class="node">
<title>nasalib/sigma_set</title>
<polygon fill="#fcfcd7" stroke="black" points="330.38,-496.5 259.62,-496.5 259.62,-460.5 330.38,-460.5 330.38,-496.5"/>
<text text-anchor="middle" x="295" y="-473.45" font-family="Times,serif" font-size="14.00">sigma_set</text>
</g>
<!-- nasalib/Bernstein&#45;&gt;nasalib/sigma_set -->
<g id="edge3" class="edge">
<title>nasalib/Bernstein&#45;&gt;nasalib/sigma_set</title>
<path fill="none" stroke="black" d="M349,-549.5C349,-549.5 330.29,-525.24 314.89,-505.29"/>
<polygon fill="black" stroke="black" points="317.23,-503.58 308.35,-497.8 311.69,-507.86 317.23,-503.58"/>
<path fill="none" stroke="black" d="M197.12,-608.66C250.81,-588.45 349,-551.5 349,-551.5"/>
</g>
<!-- nasalib/structures -->
<g id="node13" class="node">
<title>nasalib/structures</title>
<polygon fill="#fcfcd7" stroke="black" points="223.25,-208.5 154.75,-208.5 154.75,-172.5 223.25,-172.5 223.25,-208.5"/>
<text text-anchor="middle" x="189" y="-185.45" font-family="Times,serif" font-size="14.00">structures</text>
</g>
<!-- nasalib/Bernstein&#45;&gt;nasalib/structures -->
<g id="edge4" class="edge">
<title>nasalib/Bernstein&#45;&gt;nasalib/structures</title>
<path fill="none" stroke="black" d="M349,-549.5C349,-549.5 377,-352.5 377,-352.5 377,-352.5 377,-316.5 377,-316.5 377,-316.5 367,-263.5 367,-263.5"/>
</g>
<!-- nasalib/analysis -->
<g id="node3" class="node">
<title>nasalib/analysis</title>
<polygon fill="#fcfcd7" stroke="black" points="247.75,-352.5 188.25,-352.5 188.25,-316.5 247.75,-316.5 247.75,-352.5"/>
<text text-anchor="middle" x="218" y="-329.45" font-family="Times,serif" font-size="14.00">analysis</text>
</g>
<!-- nasalib/analysis&#45;&gt;lib/finite_sets -->
<g id="edge5" class="edge">
<title>nasalib/analysis&#45;&gt;lib/finite_sets</title>
<path fill="none" stroke="black" d="M248.05,-324.75C299.75,-309.69 400,-280.5 400,-280.5 400,-280.5 416,-263.5 416,-263.5"/>
<path fill="none" stroke="black" d="M416,-261.5C416,-261.5 416,-191.5 416,-191.5"/>
</g>
<!-- nasalib/ints -->
<g id="node6" class="node">
<title>nasalib/ints</title>
<polygon fill="#fcfcd7" stroke="black" points="216,-136.5 162,-136.5 162,-100.5 216,-100.5 216,-136.5"/>
<text text-anchor="middle" x="189" y="-113.45" font-family="Times,serif" font-size="14.00">ints</text>
</g>
<!-- nasalib/analysis&#45;&gt;nasalib/ints -->
<g id="edge6" class="edge">
<title>nasalib/analysis&#45;&gt;nasalib/ints</title>
<path fill="none" stroke="black" d="M189,-261.5C189,-261.5 130,-191.5 130,-191.5"/>
<path fill="none" stroke="black" d="M210.83,-316.2C202.24,-295.47 189,-263.5 189,-263.5"/>
</g>
<!-- nasalib/orders -->
<g id="node8" class="node">
<title>nasalib/orders</title>
<polygon fill="#fcfcd7" stroke="black" points="262,-280.5 208,-280.5 208,-244.5 262,-244.5 262,-280.5"/>
<text text-anchor="middle" x="235" y="-257.45" font-family="Times,serif" font-size="14.00">orders</text>
</g>
<!-- nasalib/analysis&#45;&gt;nasalib/orders -->
<g id="edge7" class="edge">
<title>nasalib/analysis&#45;&gt;nasalib/orders</title>
<path fill="none" stroke="black" d="M222.2,-316.2C224.03,-308.65 226.23,-299.62 228.28,-291.18"/>
<polygon fill="black" stroke="black" points="231.89,-292.15 230.85,-281.6 225.08,-290.5 231.89,-292.15"/>
</g>
<!-- nasalib/analysis&#45;&gt;nasalib/reals -->
<g id="edge8" class="edge">
<title>nasalib/analysis&#45;&gt;nasalib/reals</title>
<path fill="none" stroke="black" d="M194.52,-316.2C182.64,-307.45 168.05,-296.69 155.15,-287.19"/>
<polygon fill="black" stroke="black" points="157.67,-283.96 147.54,-280.85 153.52,-289.6 157.67,-283.96"/>
</g>
<!-- nasalib/analysis&#45;&gt;nasalib/structures -->
<g id="edge9" class="edge">
<title>nasalib/analysis&#45;&gt;nasalib/structures</title>
<path fill="none" stroke="black" d="M189,-261.5C189,-261.5 189,-239.16 189,-219.72"/>
<polygon fill="black" stroke="black" points="192.5,-219.8 189,-209.8 185.5,-219.8 192.5,-219.8"/>
</g>
<!-- nasalib/examples -->
<g id="node4" class="node">
<title>nasalib/examples</title>
<polygon fill="#fcfcd7" stroke="black" points="196.88,-712.5 129.12,-712.5 129.12,-676.5 196.88,-676.5 196.88,-712.5"/>
<text text-anchor="middle" x="163" y="-689.45" font-family="Times,serif" font-size="14.00">examples</text>
</g>
<!-- nasalib/examples&#45;&gt;nasalib/Bernstein -->
<g id="edge10" class="edge">
<title>nasalib/examples&#45;&gt;nasalib/Bernstein</title>
<path fill="none" stroke="black" d="M163,-676.2C163,-668.74 163,-659.82 163,-651.47"/>
<polygon fill="black" stroke="black" points="166.5,-651.6 163,-641.6 159.5,-651.6 166.5,-651.6"/>
</g>
<!-- nasalib/examples&#45;&gt;nasalib/analysis -->
<g id="edge11" class="edge">
<title>nasalib/examples&#45;&gt;nasalib/analysis</title>
<path fill="none" stroke="black" d="M349,-621.5C349,-621.5 354,-568.5 354,-568.5 354,-568.5 354,-532.5 354,-532.5 354,-532.5 339,-460.5 339,-460.5 339,-460.5 272,-388.5 272,-388.5 272,-388.5 257.36,-374.13 243.32,-360.35"/>
<polygon fill="black" stroke="black" points="246.27,-358.36 236.68,-353.85 241.37,-363.36 246.27,-358.36"/>
</g>
<!-- nasalib/examples&#45;&gt;nasalib/interval_arith -->
<g id="edge12" class="edge">
<title>nasalib/examples&#45;&gt;nasalib/interval_arith</title>
<path fill="none" stroke="black" d="M37,-621.5C37,-621.5 59.22,-596.81 77.27,-576.75"/>
<polygon fill="black" stroke="black" points="79.34,-579.58 83.43,-569.8 74.14,-574.89 79.34,-579.58"/>
</g>
<!-- nasalib/lnexp -->
<g id="node7" class="node">
<title>nasalib/lnexp</title>
<polygon fill="#fcfcd7" stroke="black" points="130,-496.5 76,-496.5 76,-460.5 130,-460.5 130,-496.5"/>
<text text-anchor="middle" x="103" y="-473.45" font-family="Times,serif" font-size="14.00">lnexp</text>
</g>
<!-- nasalib/examples&#45;&gt;nasalib/lnexp -->
<g id="edge13" class="edge">
<title>nasalib/examples&#45;&gt;nasalib/lnexp</title>
<path fill="none" stroke="black" d="M37,-549.5C37,-549.5 47,-532.5 47,-532.5 47,-532.5 62.19,-518.13 76.74,-504.35"/>
<polygon fill="black" stroke="black" points="78.81,-507.27 83.66,-497.85 73.99,-502.19 78.81,-507.27"/>
</g>
<!-- nasalib/examples&#45;&gt;nasalib/reals -->
<g id="edge14" class="edge">
<title>nasalib/examples&#45;&gt;nasalib/reals</title>
<path fill="none" stroke="black" d="M37,-549.5C37,-549.5 67,-460.5 67,-460.5 67,-460.5 113,-407.5 113,-407.5"/>
<path fill="none" stroke="black" d="M37,-621.5C37,-621.5 37,-551.5 37,-551.5"/>
<path fill="none" stroke="black" d="M131.53,-676.02C94.21,-655.28 37,-623.5 37,-623.5"/>
<path fill="none" stroke="black" d="M113,-405.5C113,-405.5 118.1,-333.09 121.02,-291.68"/>
<polygon fill="black" stroke="black" points="124.56,-292.13 121.77,-281.91 117.58,-291.64 124.56,-292.13"/>
</g>
<!-- nasalib/trig -->
<g id="node14" class="node">
<title>nasalib/trig</title>
<polygon fill="#fcfcd7" stroke="black" points="222,-496.5 168,-496.5 168,-460.5 222,-460.5 222,-496.5"/>
<text text-anchor="middle" x="195" y="-473.45" font-family="Times,serif" font-size="14.00">trig</text>
</g>
<!-- nasalib/examples&#45;&gt;nasalib/trig -->
<g id="edge15" class="edge">
<title>nasalib/examples&#45;&gt;nasalib/trig</title>
<path fill="none" stroke="black" d="M349,-621.5C349,-621.5 266.04,-545.01 221.9,-504.31"/>
<polygon fill="black" stroke="black" points="224.61,-502.12 214.88,-497.91 219.86,-507.26 224.61,-502.12"/>
<path fill="none" stroke="black" d="M197.12,-680.66C250.81,-660.45 349,-623.5 349,-623.5"/>
</g>
<!-- nasalib/interval_arith&#45;&gt;nasalib/analysis -->
<g id="edge16" class="edge">
<title>nasalib/interval_arith&#45;&gt;nasalib/analysis</title>
<path fill="none" stroke="black" d="M142.89,-532.15C181.1,-516.69 231,-496.5 231,-496.5 231,-496.5 241,-407.5 241,-407.5"/>
</g>
<!-- nasalib/interval_arith&#45;&gt;nasalib/ints -->
<g id="edge17" class="edge">
<title>nasalib/interval_arith&#45;&gt;nasalib/ints</title>
<path fill="none" stroke="black" d="M130,-189.5C130,-189.5 150.63,-165.02 167.49,-145.02"/>
<polygon fill="black" stroke="black" points="170.65,-147.71 174.42,-137.8 165.29,-143.19 170.65,-147.71"/>
<path fill="none" stroke="black" d="M86.9,-532.15C75.24,-516.69 60,-496.5 60,-496.5 60,-496.5 53,-424.5 53,-424.5 53,-424.5 52,-352.5 52,-352.5 52,-352.5 52,-316.5 52,-316.5 52,-316.5 72,-244.5 72,-244.5 72,-244.5 130,-191.5 130,-191.5"/>
</g>
<!-- nasalib/interval_arith&#45;&gt;nasalib/lnexp -->
<g id="edge18" class="edge">
<title>nasalib/interval_arith&#45;&gt;nasalib/lnexp</title>
<path fill="none" stroke="black" d="M100.74,-532.2C101.06,-524.74 101.44,-515.82 101.8,-507.47"/>
<polygon fill="black" stroke="black" points="105.34,-507.75 102.27,-497.6 98.34,-507.45 105.34,-507.75"/>
</g>
<!-- nasalib/interval_arith&#45;&gt;nasalib/reals -->
<g id="edge19" class="edge">
<title>nasalib/interval_arith&#45;&gt;nasalib/reals</title>
<path fill="none" stroke="black" d="M149,-477.5C149,-477.5 113,-407.5 113,-407.5"/>
<path fill="none" stroke="black" d="M112.77,-532.15C124.14,-516.69 139,-496.5 139,-496.5 139,-496.5 149,-479.5 149,-479.5"/>
</g>
<!-- nasalib/interval_arith&#45;&gt;nasalib/structures -->
<g id="edge20" class="edge">
<title>nasalib/interval_arith&#45;&gt;nasalib/structures</title>
<path fill="none" stroke="black" d="M89.19,-532.15C79.57,-516.69 67,-496.5 67,-496.5 67,-496.5 57,-407.5 57,-407.5 57,-407.5 57,-407.5 57,-333.5 57,-333.5 87,-244.5 87,-244.5 87,-244.5 118.09,-228.35 145.94,-213.87"/>
<polygon fill="black" stroke="black" points="147.34,-216.57 154.6,-208.85 144.11,-210.36 147.34,-216.57"/>
</g>
<!-- nasalib/interval_arith&#45;&gt;nasalib/trig -->
<g id="edge21" class="edge">
<title>nasalib/interval_arith&#45;&gt;nasalib/trig</title>
<path fill="none" stroke="black" d="M123.48,-532.2C135.36,-523.45 149.95,-512.69 162.85,-503.19"/>
<polygon fill="black" stroke="black" points="164.48,-505.6 170.46,-496.85 160.33,-499.96 164.48,-505.6"/>
</g>
<!-- nasalib/ints&#45;&gt;lib/finite_sets -->
<g id="edge22" class="edge">
<title>nasalib/ints&#45;&gt;lib/finite_sets</title>
<path fill="none" stroke="black" d="M206.18,-100C217.56,-88.41 232.67,-73.02 245.34,-60.12"/>
<polygon fill="black" stroke="black" points="247.34,-63.06 251.85,-53.47 242.34,-58.15 247.34,-63.06"/>
</g>
<!-- nasalib/lnexp&#45;&gt;nasalib/analysis -->
<g id="edge23" class="edge">
<title>nasalib/lnexp&#45;&gt;nasalib/analysis</title>
<path fill="none" stroke="black" d="M241,-405.5C241,-405.5 233.52,-382.74 227.09,-363.18"/>
<polygon fill="black" stroke="black" points="230.13,-362.21 223.69,-353.8 223.48,-364.4 230.13,-362.21"/>
<path fill="none" stroke="black" d="M130.46,-466.13C168.07,-450.56 231,-424.5 231,-424.5 231,-424.5 241,-407.5 241,-407.5"/>
</g>
<!-- nasalib/lnexp&#45;&gt;nasalib/ints -->
<g id="edge24" class="edge">
<title>nasalib/lnexp&#45;&gt;nasalib/ints</title>
<path fill="none" stroke="black" d="M101.58,-460.02C97.66,-411.8 87,-280.5 87,-280.5 87,-280.5 87,-244.5 87,-244.5 87,-244.5 130,-191.5 130,-191.5"/>
</g>
<!-- nasalib/lnexp&#45;&gt;nasalib/reals -->
<g id="edge25" class="edge">
<title>nasalib/lnexp&#45;&gt;nasalib/reals</title>
<path fill="none" stroke="black" d="M105.47,-460.2C108.43,-439.47 113,-407.5 113,-407.5"/>
</g>
<!-- nasalib/series -->
<g id="node10" class="node">
<title>nasalib/series</title>
<polygon fill="#fcfcd7" stroke="black" points="222,-424.5 168,-424.5 168,-388.5 222,-388.5 222,-424.5"/>
<text text-anchor="middle" x="195" y="-401.45" font-family="Times,serif" font-size="14.00">series</text>
</g>
<!-- nasalib/lnexp&#45;&gt;nasalib/series -->
<g id="edge26" class="edge">
<title>nasalib/lnexp&#45;&gt;nasalib/series</title>
<path fill="none" stroke="black" d="M125.74,-460.2C137.13,-451.53 151.1,-440.9 163.51,-431.46"/>
<polygon fill="black" stroke="black" points="165.36,-433.69 171.2,-424.85 161.12,-428.12 165.36,-433.69"/>
</g>
<!-- nasalib/orders&#45;&gt;lib/finite_sets -->
<g id="edge27" class="edge">
<title>nasalib/orders&#45;&gt;lib/finite_sets</title>
<path fill="none" stroke="black" d="M416,-189.5C416,-189.5 416,-119.5 416,-119.5"/>
<path fill="none" stroke="black" d="M262.25,-252.75C309.11,-237.69 400,-208.5 400,-208.5 400,-208.5 416,-191.5 416,-191.5"/>
</g>
<!-- nasalib/orders&#45;&gt;nasalib/structures -->
<g id="edge28" class="edge">
<title>nasalib/orders&#45;&gt;nasalib/structures</title>
<path fill="none" stroke="black" d="M223.63,-244.2C218.39,-236.23 212.07,-226.6 206.26,-217.76"/>
<polygon fill="black" stroke="black" points="208.66,-216.04 200.24,-209.6 202.81,-219.88 208.66,-216.04"/>
</g>
<!-- nasalib/reals&#45;&gt;nasalib/ints -->
<g id="edge29" class="edge">
<title>nasalib/reals&#45;&gt;nasalib/ints</title>
<path fill="none" stroke="black" d="M124.73,-244.2C126.8,-223.47 130,-191.5 130,-191.5"/>
</g>
<!-- nasalib/reals&#45;&gt;nasalib/structures -->
<g id="edge30" class="edge">
<title>nasalib/reals&#45;&gt;nasalib/structures</title>
<path fill="none" stroke="black" d="M139.31,-244.2C147.23,-235.8 156.88,-225.57 165.56,-216.36"/>
<polygon fill="black" stroke="black" points="167.56,-219.28 171.87,-209.6 162.47,-214.48 167.56,-219.28"/>
</g>
<!-- nasalib/series&#45;&gt;nasalib/analysis -->
<g id="edge31" class="edge">
<title>nasalib/series&#45;&gt;nasalib/analysis</title>
<path fill="none" stroke="black" d="M200.69,-388.2C203.19,-380.57 206.2,-371.42 209,-362.9"/>
<polygon fill="black" stroke="black" points="212.58,-364.2 212.38,-353.6 205.93,-362.01 212.58,-364.2"/>
</g>
<!-- nasalib/series&#45;&gt;nasalib/ints -->
<g id="edge32" class="edge">
<title>nasalib/series&#45;&gt;nasalib/ints</title>
<path fill="none" stroke="black" d="M169,-333.5C169,-333.5 169,-263.5 169,-263.5"/>
</g>
<!-- nasalib/series&#45;&gt;nasalib/orders -->
<g id="edge33" class="edge">
<title>nasalib/series&#45;&gt;nasalib/orders</title>
<path fill="none" stroke="black" d="M169,-333.5C169,-333.5 179,-316.5 179,-316.5 179,-316.5 194.19,-302.13 208.74,-288.35"/>
<polygon fill="black" stroke="black" points="210.81,-291.27 215.66,-281.85 205.99,-286.19 210.81,-291.27"/>
</g>
<!-- nasalib/series&#45;&gt;nasalib/reals -->
<g id="edge34" class="edge">
<title>nasalib/series&#45;&gt;nasalib/reals</title>
<path fill="none" stroke="black" d="M169,-333.5C169,-333.5 153.34,-309.68 140.3,-289.83"/>
<polygon fill="black" stroke="black" points="142.79,-288.24 134.37,-281.8 136.94,-292.08 142.79,-288.24"/>
<path fill="none" stroke="black" d="M188.57,-388.2C180.87,-367.47 169,-335.5 169,-335.5"/>
</g>
<!-- nasalib/sets_aux -->
<g id="node11" class="node">
<title>nasalib/sets_aux</title>
<polygon fill="#fcfcd7" stroke="black" points="368.25,-352.5 305.75,-352.5 305.75,-316.5 368.25,-316.5 368.25,-352.5"/>
<text text-anchor="middle" x="337" y="-329.45" font-family="Times,serif" font-size="14.00">sets_aux</text>
</g>
<!-- nasalib/sets_aux&#45;&gt;lib/finite_sets -->
<g id="edge35" class="edge">
<title>nasalib/sets_aux&#45;&gt;lib/finite_sets</title>
<path fill="none" stroke="black" d="M357.63,-316.15C376,-300.69 400,-280.5 400,-280.5 400,-280.5 416,-263.5 416,-263.5"/>
</g>
<!-- nasalib/sets_aux&#45;&gt;nasalib/ints -->
<g id="edge36" class="edge">
<title>nasalib/sets_aux&#45;&gt;nasalib/ints</title>
<path fill="none" stroke="black" d="M348.46,-316.15C358.67,-300.69 372,-280.5 372,-280.5 372,-280.5 372,-244.5 372,-244.5 372,-244.5 276.54,-179.29 223.51,-143.07"/>
<polygon fill="black" stroke="black" points="225.68,-139.63 215.45,-136.88 221.73,-145.41 225.68,-139.63"/>
</g>
<!-- nasalib/sets_aux&#45;&gt;nasalib/orders -->
<g id="edge37" class="edge">
<title>nasalib/sets_aux&#45;&gt;nasalib/orders</title>
<path fill="none" stroke="black" d="M311.52,-316.02C298.65,-307.18 282.85,-296.34 268.96,-286.8"/>
<polygon fill="black" stroke="black" points="271.38,-283.53 261.15,-280.76 267.42,-289.3 271.38,-283.53"/>
</g>
<!-- nasalib/sets_aux&#45;&gt;nasalib/structures -->
<g id="edge38" class="edge">
<title>nasalib/sets_aux&#45;&gt;nasalib/structures</title>
<path fill="none" stroke="black" d="M344.42,-316.2C353.3,-295.47 367,-263.5 367,-263.5"/>
<path fill="none" stroke="black" d="M367,-261.5C367,-261.5 286.62,-229.89 233.89,-209.15"/>
<polygon fill="black" stroke="black" points="235.33,-205.57 224.74,-205.16 232.77,-212.08 235.33,-205.57"/>
</g>
<!-- nasalib/sigma_set&#45;&gt;nasalib/analysis -->
<g id="edge39" class="edge">
<title>nasalib/sigma_set&#45;&gt;nasalib/analysis</title>
<path fill="none" stroke="black" d="M288.08,-460.2C279.79,-439.47 267,-407.5 267,-407.5"/>
<path fill="none" stroke="black" d="M267,-405.5C267,-405.5 250.17,-381.46 236.24,-361.56"/>
<polygon fill="black" stroke="black" points="238.71,-359.99 230.11,-353.8 232.98,-364 238.71,-359.99"/>
</g>
<!-- nasalib/sigma_set&#45;&gt;nasalib/orders -->
<g id="edge40" class="edge">
<title>nasalib/sigma_set&#45;&gt;nasalib/orders</title>
<path fill="none" stroke="black" d="M302.91,-460.2C312.39,-439.47 327,-407.5 327,-407.5"/>
<path fill="none" stroke="black" d="M327,-405.5C327,-405.5 272,-316.5 272,-316.5 272,-316.5 262.52,-302.91 253.15,-289.5"/>
<polygon fill="black" stroke="black" points="255.71,-288.05 247.12,-281.85 249.97,-292.06 255.71,-288.05"/>
</g>
<!-- nasalib/sigma_set&#45;&gt;nasalib/reals -->
<g id="edge41" class="edge">
<title>nasalib/sigma_set&#45;&gt;nasalib/reals</title>
<path fill="none" stroke="black" d="M267,-405.5C267,-405.5 257,-316.5 257,-316.5 257,-316.5 164,-280.5 164,-280.5 164,-280.5 162.44,-279.85 159.92,-278.81"/>
<polygon fill="black" stroke="black" points="161.7,-275.34 151.12,-274.74 159.02,-281.81 161.7,-275.34"/>
</g>
<!-- nasalib/sigma_set&#45;&gt;nasalib/series -->
<g id="edge42" class="edge">
<title>nasalib/sigma_set&#45;&gt;nasalib/series</title>
<path fill="none" stroke="black" d="M270.02,-460.02C257.4,-451.18 241.91,-440.34 228.29,-430.8"/>
<polygon fill="black" stroke="black" points="230.86,-427.63 220.66,-424.76 226.84,-433.36 230.86,-427.63"/>
</g>
<!-- nasalib/sigma_set&#45;&gt;nasalib/sets_aux -->
<g id="edge43" class="edge">
<title>nasalib/sigma_set&#45;&gt;nasalib/sets_aux</title>
<path fill="none" stroke="black" d="M327,-405.5C327,-405.5 330.22,-382.95 333.01,-363.45"/>
<polygon fill="black" stroke="black" points="336.58,-364.2 334.53,-353.8 329.65,-363.21 336.58,-364.2"/>
</g>
<!-- nasalib/structures&#45;&gt;lib/finite_sets -->
<g id="edge44" class="edge">
<title>nasalib/structures&#45;&gt;lib/finite_sets</title>
<path fill="none" stroke="black" d="M416,-117.5C416,-117.5 353.61,-82.25 310.4,-57.83"/>
<polygon fill="black" stroke="black" points="312.39,-54.37 301.96,-52.5 308.95,-60.46 312.39,-54.37"/>
<path fill="none" stroke="black" d="M223.48,-178.87C286.98,-159.29 416,-119.5 416,-119.5"/>
</g>
<!-- nasalib/structures&#45;&gt;nasalib/ints -->
<g id="edge45" class="edge">
<title>nasalib/structures&#45;&gt;nasalib/ints</title>
<path fill="none" stroke="black" d="M189,-172.2C189,-164.74 189,-155.82 189,-147.47"/>
<polygon fill="black" stroke="black" points="192.5,-147.6 189,-137.6 185.5,-147.6 192.5,-147.6"/>
</g>
<!-- nasalib/trig&#45;&gt;nasalib/analysis -->
<g id="edge46" class="edge">
<title>nasalib/trig&#45;&gt;nasalib/analysis</title>
<path fill="none" stroke="black" d="M206.79,-460.15C217.29,-444.69 231,-424.5 231,-424.5 231,-424.5 241,-407.5 241,-407.5"/>
</g>
<!-- nasalib/trig&#45;&gt;nasalib/ints -->
<g id="edge47" class="edge">
<title>nasalib/trig&#45;&gt;nasalib/ints</title>
<path fill="none" stroke="black" d="M169,-261.5C169,-261.5 130,-191.5 130,-191.5"/>
<path fill="none" stroke="black" d="M149,-333.5C149,-333.5 169,-263.5 169,-263.5"/>
</g>
<!-- nasalib/trig&#45;&gt;nasalib/reals -->
<g id="edge48" class="edge">
<title>nasalib/trig&#45;&gt;nasalib/reals</title>
<path fill="none" stroke="black" d="M149,-333.5C149,-333.5 140.47,-310.53 133.18,-290.91"/>
<polygon fill="black" stroke="black" points="136.19,-289.96 129.43,-281.8 129.63,-292.4 136.19,-289.96"/>
<path fill="none" stroke="black" d="M183.21,-460.15C172.71,-444.69 159,-424.5 159,-424.5 159,-424.5 149,-335.5 149,-335.5"/>
</g>
<!-- nasalib/trig&#45;&gt;nasalib/series -->
<g id="edge49" class="edge">
<title>nasalib/trig&#45;&gt;nasalib/series</title>
<path fill="none" stroke="black" d="M195,-460.2C195,-452.74 195,-443.82 195,-435.47"/>
<polygon fill="black" stroke="black" points="198.5,-435.6 195,-425.6 191.5,-435.6 198.5,-435.6"/>
</g>
</g>
</svg>
