<?xml version="1.0" encoding="UTF-8" standalone="no"?>
<!DOCTYPE svg PUBLIC "-//W3C//DTD SVG 1.1//EN"
 "http://www.w3.org/Graphics/SVG/1.1/DTD/svg11.dtd">
<!-- Generated by graphviz version 8.0.4 (20230421.1958)
 -->
<!-- Title: Bernstein Pages: 1 -->
<svg width="438pt" height="761pt"
 viewBox="0.00 0.00 438.00 761.00" xmlns="http://www.w3.org/2000/svg" xmlns:xlink="http://www.w3.org/1999/xlink">
<g id="graph0" class="graph" transform="scale(1 1) rotate(0) translate(4 757)">
<title>Bernstein</title>
<polygon fill="white" stroke="none" points="-4,4 -4,-757 434,-757 434,4 -4,4"/>
<g id="clust1" class="cluster">
<title>cluster_NASALib</title>
<polygon fill="none" stroke="black" points="8,-92.5 8,-745 410,-745 410,-92.5 8,-92.5"/>
<text text-anchor="middle" x="209" y="-727.7" font-family="Times,serif" font-size="14.00">NASALib</text>
</g>
<g id="clust2" class="cluster">
<title>cluster_PVS Prelude</title>
<polygon fill="none" stroke="black" points="249,-8 249,-84.5 337,-84.5 337,-8 249,-8"/>
<text text-anchor="middle" x="293" y="-67.2" font-family="Times,serif" font-size="14.00">PVS Prelude</text>
</g>
<!-- NASALib/Bernstein -->
<g id="node1" class="node">
<title>NASALib/Bernstein</title>
<polygon fill="#f7e28d" stroke="black" points="288.88,-640.5 221.12,-640.5 221.12,-604.5 288.88,-604.5 288.88,-640.5"/>
<text text-anchor="middle" x="255" y="-617.45" font-family="Times,serif" font-size="14.00">Bernstein</text>
</g>
<!-- NASALib/interval_arith -->
<g id="node4" class="node">
<title>NASALib/interval_arith</title>
<polygon fill="#fcfcd7" stroke="black" points="124.38,-568.5 35.62,-568.5 35.62,-532.5 124.38,-532.5 124.38,-568.5"/>
<text text-anchor="middle" x="80" y="-545.45" font-family="Times,serif" font-size="14.00">interval_arith</text>
</g>
<!-- NASALib/Bernstein&#45;&gt;NASALib/interval_arith -->
<g id="edge1" class="edge">
<title>NASALib/Bernstein&#45;&gt;NASALib/interval_arith</title>
<path fill="none" stroke="black" d="M220.84,-607.84C196.13,-597.95 162.23,-584.39 133.88,-573.05"/>
<polygon fill="black" stroke="black" points="135.3,-569.45 124.71,-568.99 132.7,-575.95 135.3,-569.45"/>
</g>
<!-- NASALib/reals -->
<g id="node8" class="node">
<title>NASALib/reals</title>
<polygon fill="#fcfcd7" stroke="black" points="202,-280.5 148,-280.5 148,-244.5 202,-244.5 202,-280.5"/>
<text text-anchor="middle" x="175" y="-257.45" font-family="Times,serif" font-size="14.00">reals</text>
</g>
<!-- NASALib/Bernstein&#45;&gt;NASALib/reals -->
<g id="edge2" class="edge">
<title>NASALib/Bernstein&#45;&gt;NASALib/reals</title>
<path fill="none" stroke="black" d="M261,-405.5C261,-405.5 213,-352.5 213,-352.5 213,-352.5 197.7,-316.67 186.52,-290.47"/>
<polygon fill="black" stroke="black" points="189.47,-289.48 182.33,-281.66 183.03,-292.23 189.47,-289.48"/>
<path fill="none" stroke="black" d="M315,-549.5C315,-549.5 271,-496.5 271,-496.5 271,-496.5 261,-407.5 261,-407.5"/>
<path fill="none" stroke="black" d="M269.83,-604.2C287.6,-583.47 315,-551.5 315,-551.5"/>
</g>
<!-- NASALib/sigma_set -->
<g id="node11" class="node">
<title>NASALib/sigma_set</title>
<polygon fill="#fcfcd7" stroke="black" points="350.38,-496.5 279.62,-496.5 279.62,-460.5 350.38,-460.5 350.38,-496.5"/>
<text text-anchor="middle" x="315" y="-473.45" font-family="Times,serif" font-size="14.00">sigma_set</text>
</g>
<!-- NASALib/Bernstein&#45;&gt;NASALib/sigma_set -->
<g id="edge3" class="edge">
<title>NASALib/Bernstein&#45;&gt;NASALib/sigma_set</title>
<path fill="none" stroke="black" d="M315,-549.5C315,-549.5 315,-527.16 315,-507.72"/>
<polygon fill="black" stroke="black" points="318.5,-507.8 315,-497.8 311.5,-507.8 318.5,-507.8"/>
</g>
<!-- NASALib/structures -->
<g id="node12" class="node">
<title>NASALib/structures</title>
<polygon fill="#fcfcd7" stroke="black" points="255.25,-208.5 186.75,-208.5 186.75,-172.5 255.25,-172.5 255.25,-208.5"/>
<text text-anchor="middle" x="221" y="-185.45" font-family="Times,serif" font-size="14.00">structures</text>
</g>
<!-- NASALib/Bernstein&#45;&gt;NASALib/structures -->
<g id="edge4" class="edge">
<title>NASALib/Bernstein&#45;&gt;NASALib/structures</title>
<path fill="none" stroke="black" d="M389,-405.5C389,-405.5 391,-352.5 391,-352.5 391,-352.5 391,-316.5 391,-316.5 391,-316.5 381,-263.5 381,-263.5"/>
<path fill="none" stroke="black" d="M315,-549.5C315,-549.5 359,-496.5 359,-496.5 359,-496.5 389,-407.5 389,-407.5"/>
</g>
<!-- NASALib/analysis -->
<g id="node2" class="node">
<title>NASALib/analysis</title>
<polygon fill="#fcfcd7" stroke="black" points="281.75,-352.5 222.25,-352.5 222.25,-316.5 281.75,-316.5 281.75,-352.5"/>
<text text-anchor="middle" x="252" y="-329.45" font-family="Times,serif" font-size="14.00">analysis</text>
</g>
<!-- NASALib/ints -->
<g id="node5" class="node">
<title>NASALib/ints</title>
<polygon fill="#fcfcd7" stroke="black" points="248,-136.5 194,-136.5 194,-100.5 248,-100.5 248,-136.5"/>
<text text-anchor="middle" x="221" y="-113.45" font-family="Times,serif" font-size="14.00">ints</text>
</g>
<!-- NASALib/analysis&#45;&gt;NASALib/ints -->
<g id="edge5" class="edge">
<title>NASALib/analysis&#45;&gt;NASALib/ints</title>
<path fill="none" stroke="black" d="M221,-261.5C221,-261.5 211,-244.5 211,-244.5 211,-244.5 129,-191.5 129,-191.5"/>
<path fill="none" stroke="black" d="M244.34,-316.2C235.16,-295.47 221,-263.5 221,-263.5"/>
</g>
<!-- NASALib/orders -->
<g id="node7" class="node">
<title>NASALib/orders</title>
<polygon fill="#fcfcd7" stroke="black" points="294,-280.5 240,-280.5 240,-244.5 294,-244.5 294,-280.5"/>
<text text-anchor="middle" x="267" y="-257.45" font-family="Times,serif" font-size="14.00">orders</text>
</g>
<!-- NASALib/analysis&#45;&gt;NASALib/orders -->
<g id="edge6" class="edge">
<title>NASALib/analysis&#45;&gt;NASALib/orders</title>
<path fill="none" stroke="black" d="M255.71,-316.2C257.32,-308.65 259.26,-299.62 261.07,-291.18"/>
<polygon fill="black" stroke="black" points="264.66,-292.12 263.33,-281.6 257.82,-290.65 264.66,-292.12"/>
</g>
<!-- NASALib/analysis&#45;&gt;NASALib/reals -->
<g id="edge7" class="edge">
<title>NASALib/analysis&#45;&gt;NASALib/reals</title>
<path fill="none" stroke="black" d="M232.97,-316.2C223.62,-307.7 212.19,-297.31 201.97,-288.01"/>
<polygon fill="black" stroke="black" points="204.84,-285.98 195.08,-281.85 200.13,-291.16 204.84,-285.98"/>
</g>
<!-- NASALib/analysis&#45;&gt;NASALib/structures -->
<g id="edge8" class="edge">
<title>NASALib/analysis&#45;&gt;NASALib/structures</title>
<path fill="none" stroke="black" d="M221,-261.5C221,-261.5 221,-239.16 221,-219.72"/>
<polygon fill="black" stroke="black" points="224.5,-219.8 221,-209.8 217.5,-219.8 224.5,-219.8"/>
</g>
<!-- lib/finite_sets -->
<g id="node14" class="node">
<title>lib/finite_sets</title>
<polygon fill="#fcfcd7" stroke="black" points="328.75,-52 257.25,-52 257.25,-16 328.75,-16 328.75,-52"/>
<text text-anchor="middle" x="293" y="-28.95" font-family="Times,serif" font-size="14.00">finite_sets</text>
</g>
<!-- NASALib/analysis&#45;&gt;lib/finite_sets -->
<g id="edge9" class="edge">
<title>NASALib/analysis&#45;&gt;lib/finite_sets</title>
<path fill="none" stroke="black" d="M430,-261.5C430,-261.5 430,-191.5 430,-191.5"/>
<path fill="none" stroke="black" d="M282.09,-323.66C328.94,-308.33 414,-280.5 414,-280.5 414,-280.5 430,-263.5 430,-263.5"/>
</g>
<!-- NASALib/examples -->
<g id="node3" class="node">
<title>NASALib/examples</title>
<polygon fill="#fcfcd7" stroke="black" points="288.88,-712.5 221.12,-712.5 221.12,-676.5 288.88,-676.5 288.88,-712.5"/>
<text text-anchor="middle" x="255" y="-689.45" font-family="Times,serif" font-size="14.00">examples</text>
</g>
<!-- NASALib/examples&#45;&gt;NASALib/Bernstein -->
<g id="edge10" class="edge">
<title>NASALib/examples&#45;&gt;NASALib/Bernstein</title>
<path fill="none" stroke="black" d="M255,-676.2C255,-668.74 255,-659.82 255,-651.47"/>
<polygon fill="black" stroke="black" points="258.5,-651.6 255,-641.6 251.5,-651.6 258.5,-651.6"/>
</g>
<!-- NASALib/examples&#45;&gt;NASALib/analysis -->
<g id="edge11" class="edge">
<title>NASALib/examples&#45;&gt;NASALib/analysis</title>
<path fill="none" stroke="black" d="M389,-477.5C389,-477.5 351,-407.5 351,-407.5"/>
<path fill="none" stroke="black" d="M351,-405.5C351,-405.5 314.4,-379.62 285.71,-359.33"/>
<polygon fill="black" stroke="black" points="287.91,-355.9 277.73,-352.98 283.87,-361.61 287.91,-355.9"/>
<path fill="none" stroke="black" d="M269.08,-676.15C281.62,-660.69 298,-640.5 298,-640.5 298,-640.5 389,-479.5 389,-479.5"/>
</g>
<!-- NASALib/examples&#45;&gt;NASALib/interval_arith -->
<g id="edge12" class="edge">
<title>NASALib/examples&#45;&gt;NASALib/interval_arith</title>
<path fill="none" stroke="black" d="M111,-621.5C111,-621.5 100.73,-598.32 92.02,-578.64"/>
<polygon fill="black" stroke="black" points="94.91,-577.53 87.66,-569.8 88.51,-580.36 94.91,-577.53"/>
</g>
<!-- NASALib/examples&#45;&gt;NASALib/ints -->
<g id="edge13" class="edge">
<title>NASALib/examples&#45;&gt;NASALib/ints</title>
<path fill="none" stroke="black" d="M220.87,-676.91C178.29,-656.21 111,-623.5 111,-623.5"/>
<path fill="none" stroke="black" d="M17,-477.5C17,-477.5 89,-263.5 89,-263.5"/>
<path fill="none" stroke="black" d="M89,-261.5C89,-261.5 129,-191.5 129,-191.5"/>
<path fill="none" stroke="black" d="M111,-621.5C111,-621.5 27,-568.5 27,-568.5 27,-568.5 17,-551.5 17,-551.5"/>
<path fill="none" stroke="black" d="M17,-549.5C17,-549.5 17,-479.5 17,-479.5"/>
<path fill="none" stroke="black" d="M129,-189.5C129,-189.5 162.91,-163.7 189.56,-143.42"/>
<polygon fill="black" stroke="black" points="191.42,-145.64 197.26,-136.8 187.18,-140.07 191.42,-145.64"/>
</g>
<!-- NASALib/lnexp -->
<g id="node6" class="node">
<title>NASALib/lnexp</title>
<polygon fill="#fcfcd7" stroke="black" points="130,-496.5 76,-496.5 76,-460.5 130,-460.5 130,-496.5"/>
<text text-anchor="middle" x="103" y="-473.45" font-family="Times,serif" font-size="14.00">lnexp</text>
</g>
<!-- NASALib/examples&#45;&gt;NASALib/lnexp -->
<g id="edge14" class="edge">
<title>NASALib/examples&#45;&gt;NASALib/lnexp</title>
<path fill="none" stroke="black" d="M17,-549.5C17,-549.5 27,-532.5 27,-532.5 27,-532.5 48.97,-517.18 69.28,-503.01"/>
<polygon fill="black" stroke="black" points="70.91,-505.45 77.11,-496.85 66.91,-499.7 70.91,-505.45"/>
</g>
<!-- NASALib/examples&#45;&gt;NASALib/reals -->
<g id="edge15" class="edge">
<title>NASALib/examples&#45;&gt;NASALib/reals</title>
<path fill="none" stroke="black" d="M17,-549.5C17,-549.5 84,-316.5 84,-316.5 84,-316.5 113.01,-299.61 138.27,-284.89"/>
<polygon fill="black" stroke="black" points="139.82,-287.46 146.7,-279.4 136.29,-281.41 139.82,-287.46"/>
</g>
<!-- NASALib/sets_aux -->
<g id="node10" class="node">
<title>NASALib/sets_aux</title>
<polygon fill="#fcfcd7" stroke="black" points="382.25,-352.5 319.75,-352.5 319.75,-316.5 382.25,-316.5 382.25,-352.5"/>
<text text-anchor="middle" x="351" y="-329.45" font-family="Times,serif" font-size="14.00">sets_aux</text>
</g>
<!-- NASALib/examples&#45;&gt;NASALib/sets_aux -->
<g id="edge16" class="edge">
<title>NASALib/examples&#45;&gt;NASALib/sets_aux</title>
<path fill="none" stroke="black" d="M351,-405.5C351,-405.5 351,-383.16 351,-363.72"/>
<polygon fill="black" stroke="black" points="354.5,-363.8 351,-353.8 347.5,-363.8 354.5,-363.8"/>
</g>
<!-- NASALib/examples&#45;&gt;NASALib/structures -->
<g id="edge17" class="edge">
<title>NASALib/examples&#45;&gt;NASALib/structures</title>
<path fill="none" stroke="black" d="M389,-477.5C389,-477.5 389,-407.5 389,-407.5"/>
</g>
<!-- NASALib/trig -->
<g id="node13" class="node">
<title>NASALib/trig</title>
<polygon fill="#fcfcd7" stroke="black" points="222,-496.5 168,-496.5 168,-460.5 222,-460.5 222,-496.5"/>
<text text-anchor="middle" x="195" y="-473.45" font-family="Times,serif" font-size="14.00">trig</text>
</g>
<!-- NASALib/examples&#45;&gt;NASALib/trig -->
<g id="edge18" class="edge">
<title>NASALib/examples&#45;&gt;NASALib/trig</title>
<path fill="none" stroke="black" d="M111,-621.5C111,-621.5 154.76,-547.53 179.11,-506.37"/>
<polygon fill="black" stroke="black" points="182.62,-508.3 184.7,-497.91 176.6,-504.74 182.62,-508.3"/>
</g>
<!-- NASALib/interval_arith&#45;&gt;NASALib/analysis -->
<g id="edge19" class="edge">
<title>NASALib/interval_arith&#45;&gt;NASALib/analysis</title>
<path fill="none" stroke="black" d="M124.49,-533.88C169.03,-518.25 231,-496.5 231,-496.5 231,-496.5 266,-424.5 266,-424.5 266,-424.5 266,-388.5 266,-388.5 266,-388.5 262.75,-376.18 259.37,-363.42"/>
<polygon fill="black" stroke="black" points="262.52,-362.63 256.58,-353.85 255.75,-364.42 262.52,-362.63"/>
</g>
<!-- NASALib/interval_arith&#45;&gt;NASALib/ints -->
<g id="edge20" class="edge">
<title>NASALib/interval_arith&#45;&gt;NASALib/ints</title>
<path fill="none" stroke="black" d="M64.43,-532.2C45.77,-511.47 17,-479.5 17,-479.5"/>
</g>
<!-- NASALib/interval_arith&#45;&gt;NASALib/lnexp -->
<g id="edge21" class="edge">
<title>NASALib/interval_arith&#45;&gt;NASALib/lnexp</title>
<path fill="none" stroke="black" d="M85.69,-532.2C88.19,-524.57 91.2,-515.42 94,-506.9"/>
<polygon fill="black" stroke="black" points="97.58,-508.2 97.38,-497.6 90.93,-506.01 97.58,-508.2"/>
</g>
<!-- NASALib/interval_arith&#45;&gt;NASALib/reals -->
<g id="edge22" class="edge">
<title>NASALib/interval_arith&#45;&gt;NASALib/reals</title>
<path fill="none" stroke="black" d="M99.32,-532.15C116.53,-516.69 139,-496.5 139,-496.5 139,-496.5 144,-388.5 144,-388.5 144,-388.5 149,-335.5 149,-335.5"/>
<path fill="none" stroke="black" d="M149,-333.5C149,-333.5 157.53,-310.53 164.82,-290.91"/>
<polygon fill="black" stroke="black" points="168.37,-292.4 168.57,-281.8 161.81,-289.96 168.37,-292.4"/>
</g>
<!-- NASALib/interval_arith&#45;&gt;NASALib/structures -->
<g id="edge23" class="edge">
<title>NASALib/interval_arith&#45;&gt;NASALib/structures</title>
<path fill="none" stroke="black" d="M75.74,-532.15C71.95,-516.69 67,-496.5 67,-496.5 67,-496.5 67,-460.5 67,-460.5 67,-460.5 84,-316.5 84,-316.5 84,-316.5 139,-244.5 139,-244.5 139,-244.5 162.91,-229.04 184.91,-214.82"/>
<polygon fill="black" stroke="black" points="186.65,-217.22 193.15,-208.85 182.85,-211.34 186.65,-217.22"/>
</g>
<!-- NASALib/interval_arith&#45;&gt;NASALib/trig -->
<g id="edge24" class="edge">
<title>NASALib/interval_arith&#45;&gt;NASALib/trig</title>
<path fill="none" stroke="black" d="M108.72,-532.02C123.85,-522.81 142.56,-511.42 158.68,-501.61"/>
<polygon fill="black" stroke="black" points="160.11,-504.23 166.83,-496.04 156.47,-498.25 160.11,-504.23"/>
</g>
<!-- NASALib/ints&#45;&gt;lib/finite_sets -->
<g id="edge25" class="edge">
<title>NASALib/ints&#45;&gt;lib/finite_sets</title>
<path fill="none" stroke="black" d="M236.27,-100C246.29,-88.52 259.57,-73.31 270.76,-60.49"/>
<polygon fill="black" stroke="black" points="273.81,-63.31 277.75,-53.47 268.54,-58.7 273.81,-63.31"/>
</g>
<!-- NASALib/lnexp&#45;&gt;NASALib/analysis -->
<g id="edge26" class="edge">
<title>NASALib/lnexp&#45;&gt;NASALib/analysis</title>
<path fill="none" stroke="black" d="M241,-405.5C241,-405.5 244.54,-382.95 247.61,-363.45"/>
<polygon fill="black" stroke="black" points="251.19,-364.23 249.28,-353.8 244.27,-363.14 251.19,-364.23"/>
<path fill="none" stroke="black" d="M130.46,-466.13C168.07,-450.56 231,-424.5 231,-424.5 231,-424.5 241,-407.5 241,-407.5"/>
</g>
<!-- NASALib/lnexp&#45;&gt;NASALib/ints -->
<g id="edge27" class="edge">
<title>NASALib/lnexp&#45;&gt;NASALib/ints</title>
<path fill="none" stroke="black" d="M89,-333.5C89,-333.5 89,-263.5 89,-263.5"/>
<path fill="none" stroke="black" d="M101.28,-460.09C97.54,-422.17 89,-335.5 89,-335.5"/>
</g>
<!-- NASALib/lnexp&#45;&gt;NASALib/reals -->
<g id="edge28" class="edge">
<title>NASALib/lnexp&#45;&gt;NASALib/reals</title>
<path fill="none" stroke="black" d="M89,-333.5C89,-333.5 120.43,-307.92 145.29,-287.69"/>
<polygon fill="black" stroke="black" points="147.2,-289.83 152.74,-280.8 142.78,-284.4 147.2,-289.83"/>
</g>
<!-- NASALib/series -->
<g id="node9" class="node">
<title>NASALib/series</title>
<polygon fill="#fcfcd7" stroke="black" points="222,-424.5 168,-424.5 168,-388.5 222,-388.5 222,-424.5"/>
<text text-anchor="middle" x="195" y="-401.45" font-family="Times,serif" font-size="14.00">series</text>
</g>
<!-- NASALib/lnexp&#45;&gt;NASALib/series -->
<g id="edge29" class="edge">
<title>NASALib/lnexp&#45;&gt;NASALib/series</title>
<path fill="none" stroke="black" d="M125.74,-460.2C137.13,-451.53 151.1,-440.9 163.51,-431.46"/>
<polygon fill="black" stroke="black" points="165.36,-433.69 171.2,-424.85 161.12,-428.12 165.36,-433.69"/>
</g>
<!-- NASALib/orders&#45;&gt;NASALib/structures -->
<g id="edge30" class="edge">
<title>NASALib/orders&#45;&gt;NASALib/structures</title>
<path fill="none" stroke="black" d="M255.63,-244.2C250.39,-236.23 244.07,-226.6 238.26,-217.76"/>
<polygon fill="black" stroke="black" points="240.66,-216.04 232.24,-209.6 234.81,-219.88 240.66,-216.04"/>
</g>
<!-- NASALib/orders&#45;&gt;lib/finite_sets -->
<g id="edge31" class="edge">
<title>NASALib/orders&#45;&gt;lib/finite_sets</title>
<path fill="none" stroke="black" d="M294.31,-251.66C336.82,-236.33 414,-208.5 414,-208.5 414,-208.5 430,-191.5 430,-191.5"/>
<path fill="none" stroke="black" d="M430,-189.5C430,-189.5 430,-119.5 430,-119.5"/>
</g>
<!-- NASALib/reals&#45;&gt;NASALib/ints -->
<g id="edge32" class="edge">
<title>NASALib/reals&#45;&gt;NASALib/ints</title>
<path fill="none" stroke="black" d="M163.63,-244.2C150.01,-223.47 129,-191.5 129,-191.5"/>
</g>
<!-- NASALib/reals&#45;&gt;NASALib/structures -->
<g id="edge33" class="edge">
<title>NASALib/reals&#45;&gt;NASALib/structures</title>
<path fill="none" stroke="black" d="M186.37,-244.2C191.61,-236.23 197.93,-226.6 203.74,-217.76"/>
<polygon fill="black" stroke="black" points="207.19,-219.88 209.76,-209.6 201.34,-216.04 207.19,-219.88"/>
</g>
<!-- NASALib/series&#45;&gt;NASALib/analysis -->
<g id="edge34" class="edge">
<title>NASALib/series&#45;&gt;NASALib/analysis</title>
<path fill="none" stroke="black" d="M209.09,-388.2C215.79,-379.97 223.92,-369.98 231.3,-360.92"/>
<polygon fill="black" stroke="black" points="234.47,-363.57 238.07,-353.6 229.04,-359.15 234.47,-363.57"/>
</g>
<!-- NASALib/series&#45;&gt;NASALib/ints -->
<g id="edge35" class="edge">
<title>NASALib/series&#45;&gt;NASALib/ints</title>
<path fill="none" stroke="black" d="M178.3,-388.15C163.43,-372.69 144,-352.5 144,-352.5 144,-352.5 129,-191.5 129,-191.5"/>
</g>
<!-- NASALib/series&#45;&gt;NASALib/orders -->
<g id="edge36" class="edge">
<title>NASALib/series&#45;&gt;NASALib/orders</title>
<path fill="none" stroke="black" d="M183,-333.5C183,-333.5 213.7,-307.92 237.98,-287.69"/>
<polygon fill="black" stroke="black" points="239.79,-289.89 245.24,-280.8 235.31,-284.52 239.79,-289.89"/>
</g>
<!-- NASALib/series&#45;&gt;NASALib/reals -->
<g id="edge37" class="edge">
<title>NASALib/series&#45;&gt;NASALib/reals</title>
<path fill="none" stroke="black" d="M183,-333.5C183,-333.5 180.45,-311.16 178.23,-291.72"/>
<polygon fill="black" stroke="black" points="181.59,-291.34 176.98,-281.8 174.64,-292.14 181.59,-291.34"/>
<path fill="none" stroke="black" d="M192.03,-388.2C188.48,-367.47 183,-335.5 183,-335.5"/>
</g>
<!-- NASALib/sets_aux&#45;&gt;NASALib/ints -->
<g id="edge38" class="edge">
<title>NASALib/sets_aux&#45;&gt;NASALib/ints</title>
<path fill="none" stroke="black" d="M362.46,-316.15C372.67,-300.69 386,-280.5 386,-280.5 386,-280.5 386,-244.5 386,-244.5 386,-244.5 300.64,-179.83 252.71,-143.52"/>
<polygon fill="black" stroke="black" points="255.03,-140.13 244.94,-136.88 250.8,-145.71 255.03,-140.13"/>
</g>
<!-- NASALib/sets_aux&#45;&gt;NASALib/orders -->
<g id="edge39" class="edge">
<title>NASALib/sets_aux&#45;&gt;NASALib/orders</title>
<path fill="none" stroke="black" d="M330.24,-316.2C319.94,-307.61 307.33,-297.11 296.09,-287.74"/>
<polygon fill="black" stroke="black" points="298.74,-284.56 288.82,-280.85 294.26,-289.94 298.74,-284.56"/>
</g>
<!-- NASALib/sets_aux&#45;&gt;NASALib/structures -->
<g id="edge40" class="edge">
<title>NASALib/sets_aux&#45;&gt;NASALib/structures</title>
<path fill="none" stroke="black" d="M358.42,-316.2C367.3,-295.47 381,-263.5 381,-263.5"/>
<path fill="none" stroke="black" d="M381,-261.5C381,-261.5 313.1,-231.8 265.77,-211.09"/>
<polygon fill="black" stroke="black" points="267.28,-207.49 256.72,-206.69 264.48,-213.9 267.28,-207.49"/>
</g>
<!-- NASALib/sets_aux&#45;&gt;lib/finite_sets -->
<g id="edge41" class="edge">
<title>NASALib/sets_aux&#45;&gt;lib/finite_sets</title>
<path fill="none" stroke="black" d="M371.63,-316.15C390,-300.69 414,-280.5 414,-280.5 414,-280.5 430,-263.5 430,-263.5"/>
</g>
<!-- NASALib/sigma_set&#45;&gt;NASALib/analysis -->
<g id="edge42" class="edge">
<title>NASALib/sigma_set&#45;&gt;NASALib/analysis</title>
<path fill="none" stroke="black" d="M311.54,-460.2C307.39,-439.47 301,-407.5 301,-407.5"/>
<path fill="none" stroke="black" d="M301,-405.5C301,-405.5 284.17,-381.46 270.24,-361.56"/>
<polygon fill="black" stroke="black" points="272.71,-359.99 264.11,-353.8 266.98,-364 272.71,-359.99"/>
</g>
<!-- NASALib/sigma_set&#45;&gt;NASALib/orders -->
<g id="edge43" class="edge">
<title>NASALib/sigma_set&#45;&gt;NASALib/orders</title>
<path fill="none" stroke="black" d="M301,-405.5C301,-405.5 291,-316.5 291,-316.5 291,-316.5 285.19,-303.68 279.29,-290.65"/>
<polygon fill="black" stroke="black" points="282.17,-289.52 274.86,-281.85 275.8,-292.41 282.17,-289.52"/>
</g>
<!-- NASALib/sigma_set&#45;&gt;NASALib/reals -->
<g id="edge44" class="edge">
<title>NASALib/sigma_set&#45;&gt;NASALib/reals</title>
<path fill="none" stroke="black" d="M301.65,-460.2C285.66,-439.47 261,-407.5 261,-407.5"/>
</g>
<!-- NASALib/sigma_set&#45;&gt;NASALib/series -->
<g id="edge45" class="edge">
<title>NASALib/sigma_set&#45;&gt;NASALib/series</title>
<path fill="none" stroke="black" d="M285.03,-460.02C268.75,-450.52 248.49,-438.7 231.31,-428.68"/>
<polygon fill="black" stroke="black" points="233.53,-425.34 223.13,-423.33 230.01,-431.39 233.53,-425.34"/>
</g>
<!-- NASALib/sigma_set&#45;&gt;NASALib/sets_aux -->
<g id="edge46" class="edge">
<title>NASALib/sigma_set&#45;&gt;NASALib/sets_aux</title>
<path fill="none" stroke="black" d="M301,-405.5C301,-405.5 318.17,-381.46 332.39,-361.56"/>
<polygon fill="black" stroke="black" points="335.68,-363.98 338.64,-353.8 329.98,-359.91 335.68,-363.98"/>
</g>
<!-- NASALib/structures&#45;&gt;NASALib/ints -->
<g id="edge47" class="edge">
<title>NASALib/structures&#45;&gt;NASALib/ints</title>
<path fill="none" stroke="black" d="M221,-172.2C221,-164.74 221,-155.82 221,-147.47"/>
<polygon fill="black" stroke="black" points="224.5,-147.6 221,-137.6 217.5,-147.6 224.5,-147.6"/>
</g>
<!-- NASALib/structures&#45;&gt;lib/finite_sets -->
<g id="edge48" class="edge">
<title>NASALib/structures&#45;&gt;lib/finite_sets</title>
<path fill="none" stroke="black" d="M430,-117.5C430,-117.5 371.95,-82.54 331.42,-58.14"/>
<polygon fill="black" stroke="black" points="333.43,-54.66 323.05,-52.5 329.82,-60.65 333.43,-54.66"/>
<path fill="none" stroke="black" d="M255.51,-177.94C314.87,-158.06 430,-119.5 430,-119.5"/>
</g>
<!-- NASALib/trig&#45;&gt;NASALib/analysis -->
<g id="edge49" class="edge">
<title>NASALib/trig&#45;&gt;NASALib/analysis</title>
<path fill="none" stroke="black" d="M206.79,-460.15C217.29,-444.69 231,-424.5 231,-424.5 231,-424.5 241,-407.5 241,-407.5"/>
</g>
<!-- NASALib/trig&#45;&gt;NASALib/ints -->
<g id="edge50" class="edge">
<title>NASALib/trig&#45;&gt;NASALib/ints</title>
<path fill="none" stroke="black" d="M183.21,-460.15C172.71,-444.69 159,-424.5 159,-424.5 159,-424.5 149,-407.5 149,-407.5"/>
<path fill="none" stroke="black" d="M149,-405.5C149,-405.5 89,-263.5 89,-263.5"/>
</g>
<!-- NASALib/trig&#45;&gt;NASALib/reals -->
<g id="edge51" class="edge">
<title>NASALib/trig&#45;&gt;NASALib/reals</title>
<path fill="none" stroke="black" d="M149,-405.5C149,-405.5 149,-335.5 149,-335.5"/>
</g>
<!-- NASALib/trig&#45;&gt;NASALib/series -->
<g id="edge52" class="edge">
<title>NASALib/trig&#45;&gt;NASALib/series</title>
<path fill="none" stroke="black" d="M195,-460.2C195,-452.74 195,-443.82 195,-435.47"/>
<polygon fill="black" stroke="black" points="198.5,-435.6 195,-425.6 191.5,-435.6 198.5,-435.6"/>
</g>
</g>
</svg>
