<?xml version="1.0" encoding="UTF-8" standalone="no"?>
<!DOCTYPE svg PUBLIC "-//W3C//DTD SVG 1.1//EN"
 "http://www.w3.org/Graphics/SVG/1.1/DTD/svg11.dtd">
<!-- Generated by graphviz version 7.0.6 (20230106.0513)
 -->
<!-- Title: Bernstein&#45;zoomed Pages: 1 -->
<svg width="1079pt" height="902pt"
 viewBox="0.00 0.00 1079.00 902.00" xmlns="http://www.w3.org/2000/svg" xmlns:xlink="http://www.w3.org/1999/xlink">
<g id="graph0" class="graph" transform="scale(1 1) rotate(0) translate(4 898)">
<title>Bernstein&#45;zoomed</title>
<polygon fill="white" stroke="none" points="-4,4 -4,-898 1075,-898 1075,4 -4,4"/>
<g id="clust2" class="cluster">
<title>cluster_NASALib/Bernstein</title>
<polygon fill="none" stroke="black" points="8,-91 8,-886 775,-886 775,-91 8,-91"/>
<text text-anchor="middle" x="391.5" y="-870.8" font-family="Times,serif" font-size="14.00">NASALib/Bernstein</text>
</g>
<g id="clust1" class="cluster">
<title>cluster_NASALib</title>
<polygon fill="none" stroke="black" points="708,-8 708,-83 1063,-83 1063,-8 708,-8"/>
<text text-anchor="middle" x="885.5" y="-67.8" font-family="Times,serif" font-size="14.00">NASALib</text>
</g>
<!-- NASALib/Bernstein@MPoly -->
<g id="node1" class="node">
<title>NASALib/Bernstein@MPoly</title>
<ellipse fill="#e6f3ff" stroke="black" cx="502" cy="-261" rx="35.19" ry="18"/>
<text text-anchor="middle" x="502" y="-257.3" font-family="Times,serif" font-size="14.00">MPoly</text>
</g>
<!-- NASALib/Bernstein@multi_polynomial -->
<g id="node15" class="node">
<title>NASALib/Bernstein@multi_polynomial</title>
<ellipse fill="#e6f3ff" stroke="black" cx="556" cy="-189" rx="74.99" ry="18"/>
<text text-anchor="middle" x="556" y="-185.3" font-family="Times,serif" font-size="14.00">multi_polynomial</text>
</g>
<!-- NASALib/Bernstein@MPoly&#45;&gt;NASALib/Bernstein@multi_polynomial -->
<g id="edge1" class="edge">
<title>NASALib/Bernstein@MPoly&#45;&gt;NASALib/Bernstein@multi_polynomial</title>
<path fill="none" stroke="black" d="M514.52,-243.76C520.88,-235.53 528.76,-225.32 535.93,-216.02"/>
<polygon fill="black" stroke="black" points="538.53,-218.38 541.87,-208.32 532.99,-214.1 538.53,-218.38"/>
</g>
<!-- NASALib/Bernstein@util -->
<g id="node22" class="node">
<title>NASALib/Bernstein@util</title>
<ellipse fill="#e6f3ff" stroke="black" cx="448" cy="-117" rx="27" ry="18"/>
<text text-anchor="middle" x="448" y="-113.3" font-family="Times,serif" font-size="14.00">util</text>
</g>
<!-- NASALib/Bernstein@MPoly&#45;&gt;NASALib/Bernstein@util -->
<g id="edge2" class="edge">
<title>NASALib/Bernstein@MPoly&#45;&gt;NASALib/Bernstein@util</title>
<path fill="none" stroke="black" d="M489.48,-243.76C473.52,-223.09 448,-190 448,-190"/>
</g>
<!-- NASALib/Bernstein@OutBoxes -->
<g id="node2" class="node">
<title>NASALib/Bernstein@OutBoxes</title>
<ellipse fill="#e6f3ff" stroke="black" cx="706" cy="-693" rx="46.29" ry="18"/>
<text text-anchor="middle" x="706" y="-689.3" font-family="Times,serif" font-size="14.00">OutBoxes</text>
</g>
<!-- NASALib/Bernstein@boxes_def -->
<g id="node10" class="node">
<title>NASALib/Bernstein@boxes_def</title>
<ellipse fill="#e6f3ff" stroke="black" cx="720" cy="-549" rx="46.59" ry="18"/>
<text text-anchor="middle" x="720" y="-545.3" font-family="Times,serif" font-size="14.00">boxes_def</text>
</g>
<!-- NASALib/Bernstein@OutBoxes&#45;&gt;NASALib/Bernstein@boxes_def -->
<g id="edge3" class="edge">
<title>NASALib/Bernstein@OutBoxes&#45;&gt;NASALib/Bernstein@boxes_def</title>
<path fill="none" stroke="black" d="M707.72,-674.59C710.08,-650.61 714.37,-607.14 717.2,-578.42"/>
<polygon fill="black" stroke="black" points="720.67,-578.91 718.16,-568.62 713.7,-578.23 720.67,-578.91"/>
</g>
<!-- NASALib/Bernstein@Outcome -->
<g id="node3" class="node">
<title>NASALib/Bernstein@Outcome</title>
<ellipse fill="#e6f3ff" stroke="black" cx="573" cy="-621" rx="43.59" ry="18"/>
<text text-anchor="middle" x="573" y="-617.3" font-family="Times,serif" font-size="14.00">Outcome</text>
</g>
<!-- NASALib/Bernstein@a2l__bernstein_minmax -->
<g id="node4" class="node">
<title>NASALib/Bernstein@a2l__bernstein_minmax</title>
<ellipse fill="#e6f3ff" stroke="black" cx="315" cy="-549" rx="96.68" ry="18"/>
<text text-anchor="middle" x="315" y="-545.3" font-family="Times,serif" font-size="14.00">a2l__bernstein_minmax</text>
</g>
<!-- NASALib/Bernstein@a2l__multi_bernstein -->
<g id="node5" class="node">
<title>NASALib/Bernstein@a2l__multi_bernstein</title>
<ellipse fill="#e6f3ff" stroke="black" cx="253" cy="-333" rx="85.59" ry="18"/>
<text text-anchor="middle" x="253" y="-329.3" font-family="Times,serif" font-size="14.00">a2l__multi_bernstein</text>
</g>
<!-- NASALib/Bernstein@a2l__bernstein_minmax&#45;&gt;NASALib/Bernstein@a2l__multi_bernstein -->
<g id="edge4" class="edge">
<title>NASALib/Bernstein@a2l__bernstein_minmax&#45;&gt;NASALib/Bernstein@a2l__multi_bernstein</title>
<path fill="none" stroke="black" d="M319.94,-530.7C325.87,-509.97 335,-478 335,-478"/>
<path fill="none" stroke="black" d="M335,-476C335,-476 325,-459 325,-459 325,-459 263,-423 263,-423 263,-423 259.12,-388.42 256.19,-362.37"/>
<polygon fill="black" stroke="black" points="259.69,-362.21 255.1,-352.66 252.74,-362.99 259.69,-362.21"/>
</g>
<!-- NASALib/Bernstein@a2l__vardirselector -->
<g id="node7" class="node">
<title>NASALib/Bernstein@a2l__vardirselector</title>
<ellipse fill="#e6f3ff" stroke="black" cx="135" cy="-405" rx="78.79" ry="18"/>
<text text-anchor="middle" x="135" y="-401.3" font-family="Times,serif" font-size="14.00">a2l__vardirselector</text>
</g>
<!-- NASALib/Bernstein@a2l__bernstein_minmax&#45;&gt;NASALib/Bernstein@a2l__vardirselector -->
<g id="edge5" class="edge">
<title>NASALib/Bernstein@a2l__bernstein_minmax&#45;&gt;NASALib/Bernstein@a2l__vardirselector</title>
<path fill="none" stroke="black" d="M17,-476C17,-476 27,-459 27,-459 27,-459 62.56,-441.55 92.87,-426.67"/>
<polygon fill="black" stroke="black" points="94.09,-429.97 101.53,-422.43 91.01,-423.69 94.09,-429.97"/>
</g>
<!-- NASALib/Bernstein@bernstein_minmax -->
<g id="node8" class="node">
<title>NASALib/Bernstein@bernstein_minmax</title>
<ellipse fill="#e6f3ff" stroke="black" cx="431" cy="-477" rx="77.19" ry="18"/>
<text text-anchor="middle" x="431" y="-473.3" font-family="Times,serif" font-size="14.00">bernstein_minmax</text>
</g>
<!-- NASALib/Bernstein@a2l__bernstein_minmax&#45;&gt;NASALib/Bernstein@bernstein_minmax -->
<g id="edge6" class="edge">
<title>NASALib/Bernstein@a2l__bernstein_minmax&#45;&gt;NASALib/Bernstein@bernstein_minmax</title>
<path fill="none" stroke="black" d="M342.49,-531.41C358.06,-522.02 377.73,-510.15 394.57,-499.98"/>
<polygon fill="black" stroke="black" points="396.06,-503.17 402.81,-495.01 392.44,-497.18 396.06,-503.17"/>
</g>
<!-- NASALib/Bernstein@minmax -->
<g id="node12" class="node">
<title>NASALib/Bernstein@minmax</title>
<ellipse fill="#e6f3ff" stroke="black" cx="448" cy="-405" rx="40.09" ry="18"/>
<text text-anchor="middle" x="448" y="-401.3" font-family="Times,serif" font-size="14.00">minmax</text>
</g>
<!-- NASALib/Bernstein@a2l__bernstein_minmax&#45;&gt;NASALib/Bernstein@minmax -->
<g id="edge7" class="edge">
<title>NASALib/Bernstein@a2l__bernstein_minmax&#45;&gt;NASALib/Bernstein@minmax</title>
<path fill="none" stroke="black" d="M335,-476C335,-476 345,-459 345,-459 345,-459 382.42,-439.74 412.15,-424.45"/>
<polygon fill="black" stroke="black" points="413.64,-427.62 420.93,-419.93 410.44,-421.39 413.64,-427.62"/>
</g>
<!-- NASALib/Bernstein@multibernstein_into_polylist -->
<g id="node16" class="node">
<title>NASALib/Bernstein@multibernstein_into_polylist</title>
<ellipse fill="#e6f3ff" stroke="black" cx="149" cy="-261" rx="110.48" ry="18"/>
<text text-anchor="middle" x="149" y="-257.3" font-family="Times,serif" font-size="14.00">multibernstein_into_polylist</text>
</g>
<!-- NASALib/Bernstein@a2l__bernstein_minmax&#45;&gt;NASALib/Bernstein@multibernstein_into_polylist -->
<g id="edge8" class="edge">
<title>NASALib/Bernstein@a2l__bernstein_minmax&#45;&gt;NASALib/Bernstein@multibernstein_into_polylist</title>
<path fill="none" stroke="black" d="M17,-476C17,-476 47,-387 47,-387 47,-387 98.07,-324.41 127.94,-287.81"/>
<polygon fill="black" stroke="black" points="130.46,-290.25 134.07,-280.29 125.04,-285.83 130.46,-290.25"/>
<path fill="none" stroke="black" d="M247.84,-535.64C162.74,-519.98 27,-495 27,-495 27,-495 17,-478 17,-478"/>
</g>
<!-- NASALib/Bernstein@vardirselector_into_a2lvardirselector -->
<g id="node24" class="node">
<title>NASALib/Bernstein@vardirselector_into_a2lvardirselector</title>
<ellipse fill="#e6f3ff" stroke="black" cx="176" cy="-477" rx="140.28" ry="18"/>
<text text-anchor="middle" x="176" y="-473.3" font-family="Times,serif" font-size="14.00">vardirselector_into_a2lvardirselector</text>
</g>
<!-- NASALib/Bernstein@a2l__bernstein_minmax&#45;&gt;NASALib/Bernstein@vardirselector_into_a2lvardirselector -->
<g id="edge9" class="edge">
<title>NASALib/Bernstein@a2l__bernstein_minmax&#45;&gt;NASALib/Bernstein@vardirselector_into_a2lvardirselector</title>
<path fill="none" stroke="black" d="M282.41,-531.59C263.69,-522.16 239.93,-510.2 219.62,-499.96"/>
<polygon fill="black" stroke="black" points="221.21,-496.85 210.7,-495.48 218.06,-503.1 221.21,-496.85"/>
</g>
<!-- NASALib/structures -->
<g id="node28" class="node">
<title>NASALib/structures</title>
<polygon fill="#fcfcd7" stroke="black" points="947.5,-52 878.5,-52 878.5,-16 947.5,-16 947.5,-52"/>
<text text-anchor="middle" x="913" y="-30.3" font-family="Times,serif" font-size="14.00">structures</text>
</g>
<!-- NASALib/Bernstein@a2l__bernstein_minmax&#45;&gt;NASALib/structures -->
<g id="edge10" class="edge">
<title>NASALib/Bernstein@a2l__bernstein_minmax&#45;&gt;NASALib/structures</title>
<path fill="none" stroke="black" d="M395.82,-538.77C528.76,-523.58 779,-495 779,-495 779,-495 875,-406 875,-406"/>
</g>
<!-- NASALib/Bernstein@a2l__util -->
<g id="node6" class="node">
<title>NASALib/Bernstein@a2l__util</title>
<ellipse fill="#e6f3ff" stroke="black" cx="278" cy="-189" rx="42.49" ry="18"/>
<text text-anchor="middle" x="278" y="-185.3" font-family="Times,serif" font-size="14.00">a2l__util</text>
</g>
<!-- NASALib/Bernstein@a2l__multi_bernstein&#45;&gt;NASALib/Bernstein@a2l__util -->
<g id="edge11" class="edge">
<title>NASALib/Bernstein@a2l__multi_bernstein&#45;&gt;NASALib/Bernstein@a2l__util</title>
<path fill="none" stroke="black" d="M257.91,-314.65C262.29,-299.19 268,-279 268,-279 268,-279 271.88,-244.42 274.81,-218.37"/>
<polygon fill="black" stroke="black" points="278.26,-218.99 275.9,-208.66 271.31,-218.21 278.26,-218.99"/>
</g>
<!-- NASALib/Bernstein@multi_bernstein -->
<g id="node13" class="node">
<title>NASALib/Bernstein@multi_bernstein</title>
<ellipse fill="#e6f3ff" stroke="black" cx="363" cy="-261" rx="66.09" ry="18"/>
<text text-anchor="middle" x="363" y="-257.3" font-family="Times,serif" font-size="14.00">multi_bernstein</text>
</g>
<!-- NASALib/Bernstein@a2l__multi_bernstein&#45;&gt;NASALib/Bernstein@multi_bernstein -->
<g id="edge12" class="edge">
<title>NASALib/Bernstein@a2l__multi_bernstein&#45;&gt;NASALib/Bernstein@multi_bernstein</title>
<path fill="none" stroke="black" d="M279.07,-315.41C293.8,-306.04 312.4,-294.2 328.35,-284.05"/>
<polygon fill="black" stroke="black" points="330.04,-287.12 336.6,-278.8 326.28,-281.22 330.04,-287.12"/>
</g>
<!-- NASALib/Bernstein@a2l__multi_bernstein&#45;&gt;NASALib/Bernstein@multibernstein_into_polylist -->
<g id="edge13" class="edge">
<title>NASALib/Bernstein@a2l__multi_bernstein&#45;&gt;NASALib/Bernstein@multibernstein_into_polylist</title>
<path fill="none" stroke="black" d="M228.35,-315.41C214.95,-306.39 198.16,-295.09 183.48,-285.21"/>
<polygon fill="black" stroke="black" points="185.7,-282.48 175.45,-279.8 181.79,-288.29 185.7,-282.48"/>
</g>
<!-- NASALib/reals -->
<g id="node26" class="node">
<title>NASALib/reals</title>
<polygon fill="#fcfcd7" stroke="black" points="860,-52 806,-52 806,-16 860,-16 860,-52"/>
<text text-anchor="middle" x="833" y="-30.3" font-family="Times,serif" font-size="14.00">reals</text>
</g>
<!-- NASALib/Bernstein@a2l__multi_bernstein&#45;&gt;NASALib/reals -->
<g id="edge14" class="edge">
<title>NASALib/Bernstein@a2l__multi_bernstein&#45;&gt;NASALib/reals</title>
<path fill="none" stroke="black" d="M316.22,-320.57C402.35,-304.98 546,-279 546,-279 546,-279 725,-207 725,-207 725,-207 799,-118 799,-118"/>
<path fill="none" stroke="black" d="M799,-116C799,-116 811.53,-86.16 821.37,-62.7"/>
<polygon fill="black" stroke="black" points="824.56,-64.15 825.2,-53.57 818.11,-61.44 824.56,-64.15"/>
</g>
<!-- NASALib/Bernstein@a2l__multi_bernstein&#45;&gt;NASALib/structures -->
<g id="edge15" class="edge">
<title>NASALib/Bernstein@a2l__multi_bernstein&#45;&gt;NASALib/structures</title>
<path fill="none" stroke="black" d="M799,-116C799,-116 869,-83 869,-83 869,-83 879.04,-72.04 889.53,-60.6"/>
<polygon fill="black" stroke="black" points="891.92,-63.18 896.09,-53.44 886.75,-58.45 891.92,-63.18"/>
</g>
<!-- NASALib/Bernstein@a2l__util&#45;&gt;NASALib/Bernstein@util -->
<g id="edge16" class="edge">
<title>NASALib/Bernstein@a2l__util&#45;&gt;NASALib/Bernstein@util</title>
<path fill="none" stroke="black" d="M307.61,-175.81C337.57,-163.47 383.77,-144.45 414.91,-131.62"/>
<polygon fill="black" stroke="black" points="415.94,-134.99 423.85,-127.94 413.27,-128.52 415.94,-134.99"/>
</g>
<!-- NASALib/Bernstein@a2l__vardirselector&#45;&gt;NASALib/Bernstein@a2l__multi_bernstein -->
<g id="edge17" class="edge">
<title>NASALib/Bernstein@a2l__vardirselector&#45;&gt;NASALib/Bernstein@a2l__multi_bernstein</title>
<path fill="none" stroke="black" d="M162.37,-387.76C178.19,-378.38 198.32,-366.44 215.59,-356.19"/>
<polygon fill="black" stroke="black" points="217.25,-359.27 224.07,-351.16 213.68,-353.25 217.25,-359.27"/>
</g>
<!-- NASALib/Bernstein@bernstein_minmax&#45;&gt;NASALib/Bernstein@minmax -->
<g id="edge18" class="edge">
<title>NASALib/Bernstein@bernstein_minmax&#45;&gt;NASALib/Bernstein@minmax</title>
<path fill="none" stroke="black" d="M435.2,-458.7C436.99,-451.32 439.13,-442.52 441.14,-434.25"/>
<polygon fill="black" stroke="black" points="444.53,-435.12 443.49,-424.58 437.73,-433.47 444.53,-435.12"/>
</g>
<!-- NASALib/Bernstein@bernstein_minmax&#45;&gt;NASALib/Bernstein@multi_bernstein -->
<g id="edge19" class="edge">
<title>NASALib/Bernstein@bernstein_minmax&#45;&gt;NASALib/Bernstein@multi_bernstein</title>
<path fill="none" stroke="black" d="M451.88,-459.23C471.22,-443.7 497,-423 497,-423 497,-423 497,-387 497,-387 497,-387 428.07,-322.7 389.08,-286.33"/>
<polygon fill="black" stroke="black" points="391.6,-283.89 381.9,-279.63 386.83,-289.01 391.6,-283.89"/>
</g>
<!-- NASALib/Bernstein@vardirselector -->
<g id="node23" class="node">
<title>NASALib/Bernstein@vardirselector</title>
<ellipse fill="#e6f3ff" stroke="black" cx="331" cy="-405" rx="59.29" ry="18"/>
<text text-anchor="middle" x="331" y="-401.3" font-family="Times,serif" font-size="14.00">vardirselector</text>
</g>
<!-- NASALib/Bernstein@bernstein_minmax&#45;&gt;NASALib/Bernstein@vardirselector -->
<g id="edge20" class="edge">
<title>NASALib/Bernstein@bernstein_minmax&#45;&gt;NASALib/Bernstein@vardirselector</title>
<path fill="none" stroke="black" d="M407.3,-459.41C394.04,-450.12 377.32,-438.42 362.91,-428.34"/>
<polygon fill="black" stroke="black" points="365.28,-425.72 355.08,-422.86 361.27,-431.46 365.28,-425.72"/>
</g>
<!-- NASALib/Bernstein@bernstein_minmax&#45;&gt;NASALib/structures -->
<g id="edge21" class="edge">
<title>NASALib/Bernstein@bernstein_minmax&#45;&gt;NASALib/structures</title>
<path fill="none" stroke="black" d="M493.67,-466.12C616.06,-446.82 875,-406 875,-406"/>
<path fill="none" stroke="black" d="M875,-404C875,-404 875,-262 875,-262 875,-262 875,-262 875,-188 875,-188 899,-91 899,-91 899,-91 902.45,-77.21 905.92,-63.32"/>
<polygon fill="black" stroke="black" points="909.25,-64.43 908.28,-53.88 902.46,-62.73 909.25,-64.43"/>
</g>
<!-- NASALib/Bernstein@boxes -->
<g id="node9" class="node">
<title>NASALib/Bernstein@boxes</title>
<ellipse fill="#e6f3ff" stroke="black" cx="636" cy="-765" rx="31.4" ry="18"/>
<text text-anchor="middle" x="636" y="-761.3" font-family="Times,serif" font-size="14.00">boxes</text>
</g>
<!-- NASALib/Bernstein@boxes&#45;&gt;NASALib/Bernstein@OutBoxes -->
<g id="edge22" class="edge">
<title>NASALib/Bernstein@boxes&#45;&gt;NASALib/Bernstein@OutBoxes</title>
<path fill="none" stroke="black" d="M651.19,-748.81C660.11,-739.89 671.59,-728.41 681.74,-718.26"/>
<polygon fill="black" stroke="black" points="684.2,-720.75 688.8,-711.2 679.25,-715.8 684.2,-720.75"/>
</g>
<!-- NASALib/Bernstein@poly2bernstein -->
<g id="node17" class="node">
<title>NASALib/Bernstein@poly2bernstein</title>
<ellipse fill="#e6f3ff" stroke="black" cx="592" cy="-549" rx="63.09" ry="18"/>
<text text-anchor="middle" x="592" y="-545.3" font-family="Times,serif" font-size="14.00">poly2bernstein</text>
</g>
<!-- NASALib/Bernstein@boxes&#45;&gt;NASALib/Bernstein@poly2bernstein -->
<g id="edge23" class="edge">
<title>NASALib/Bernstein@boxes&#45;&gt;NASALib/Bernstein@poly2bernstein</title>
<path fill="none" stroke="black" d="M634.93,-746.77C632.35,-705.24 626,-603 626,-603 626,-603 617.51,-589.76 609.01,-576.52"/>
<polygon fill="black" stroke="black" points="612.11,-574.86 603.76,-568.34 606.22,-578.64 612.11,-574.86"/>
</g>
<!-- NASALib/Bernstein@strat_util -->
<g id="node19" class="node">
<title>NASALib/Bernstein@strat_util</title>
<ellipse fill="#e6f3ff" stroke="black" cx="527" cy="-693" rx="42.49" ry="18"/>
<text text-anchor="middle" x="527" y="-689.3" font-family="Times,serif" font-size="14.00">strat_util</text>
</g>
<!-- NASALib/Bernstein@boxes&#45;&gt;NASALib/Bernstein@strat_util -->
<g id="edge24" class="edge">
<title>NASALib/Bernstein@boxes&#45;&gt;NASALib/Bernstein@strat_util</title>
<path fill="none" stroke="black" d="M615.5,-750.83C599.68,-740.68 577.5,-726.43 559.3,-714.74"/>
<polygon fill="black" stroke="black" points="561.25,-711.83 550.94,-709.38 557.46,-717.72 561.25,-711.83"/>
</g>
<!-- NASALib/Bernstein@boxes&#45;&gt;NASALib/structures -->
<g id="edge25" class="edge">
<title>NASALib/Bernstein@boxes&#45;&gt;NASALib/structures</title>
<path fill="none" stroke="black" d="M660.7,-753.53C697.12,-738.08 761,-711 761,-711 761,-711 951,-622 951,-622 951,-622 951,-622 951,-188 951,-188 927,-91 927,-91 927,-91 923.55,-77.21 920.08,-63.32"/>
<polygon fill="black" stroke="black" points="923.54,-62.73 917.72,-53.88 916.75,-64.43 923.54,-62.73"/>
</g>
<!-- NASALib/Bernstein@boxes_def&#45;&gt;NASALib/Bernstein@util -->
<g id="edge26" class="edge">
<title>NASALib/Bernstein@boxes_def&#45;&gt;NASALib/Bernstein@util</title>
<path fill="none" stroke="black" d="M719.26,-530.59C717.66,-492.67 714,-406 714,-406 714,-406 714,-406 714,-332 714,-332 694,-190 694,-190"/>
</g>
<!-- NASALib/Bernstein@boxes_def&#45;&gt;NASALib/reals -->
<g id="edge27" class="edge">
<title>NASALib/Bernstein@boxes_def&#45;&gt;NASALib/reals</title>
<path fill="none" stroke="black" d="M913,-116C913,-116 870,-83 870,-83 870,-83 861.88,-72.46 853.25,-61.26"/>
<polygon fill="black" stroke="black" points="856.16,-59.31 847.28,-53.53 850.61,-63.58 856.16,-59.31"/>
<path fill="none" stroke="black" d="M755.43,-536.89C804.98,-521.35 889,-495 889,-495 889,-495 913,-406 913,-406 913,-406 913,-406 913,-260 913,-260 913,-118 913,-118"/>
</g>
<!-- NASALib/Bernstein@boxes_def&#45;&gt;NASALib/structures -->
<g id="edge28" class="edge">
<title>NASALib/Bernstein@boxes_def&#45;&gt;NASALib/structures</title>
<path fill="none" stroke="black" d="M913,-116C913,-116 913,-86.96 913,-63.66"/>
<polygon fill="black" stroke="black" points="916.5,-63.69 913,-53.69 909.5,-63.69 916.5,-63.69"/>
</g>
<!-- NASALib/Bernstein@grizzly -->
<g id="node11" class="node">
<title>NASALib/Bernstein@grizzly</title>
<ellipse fill="#e6f3ff" stroke="black" cx="589" cy="-837" rx="35.19" ry="18"/>
<text text-anchor="middle" x="589" y="-833.3" font-family="Times,serif" font-size="14.00">grizzly</text>
</g>
<!-- NASALib/Bernstein@grizzly&#45;&gt;NASALib/Bernstein@boxes -->
<g id="edge29" class="edge">
<title>NASALib/Bernstein@grizzly&#45;&gt;NASALib/Bernstein@boxes</title>
<path fill="none" stroke="black" d="M599.9,-819.76C605.54,-811.37 612.54,-800.93 618.88,-791.5"/>
<polygon fill="black" stroke="black" points="621.65,-793.66 624.31,-783.4 615.83,-789.76 621.65,-793.66"/>
</g>
<!-- NASALib/Bernstein@strategies -->
<g id="node20" class="node">
<title>NASALib/Bernstein@strategies</title>
<ellipse fill="#e6f3ff" stroke="black" cx="543" cy="-765" rx="44.39" ry="18"/>
<text text-anchor="middle" x="543" y="-761.3" font-family="Times,serif" font-size="14.00">strategies</text>
</g>
<!-- NASALib/Bernstein@grizzly&#45;&gt;NASALib/Bernstein@strategies -->
<g id="edge30" class="edge">
<title>NASALib/Bernstein@grizzly&#45;&gt;NASALib/Bernstein@strategies</title>
<path fill="none" stroke="black" d="M578.1,-819.41C572.71,-811.22 566.09,-801.14 560.06,-791.95"/>
<polygon fill="black" stroke="black" points="563.07,-790.17 554.65,-783.73 557.22,-794.01 563.07,-790.17"/>
</g>
<!-- NASALib/Bernstein@minmax&#45;&gt;NASALib/Bernstein@util -->
<g id="edge31" class="edge">
<title>NASALib/Bernstein@minmax&#45;&gt;NASALib/Bernstein@util</title>
<path fill="none" stroke="black" d="M448,-386.85C448,-336.07 448,-190 448,-190"/>
</g>
<!-- NASALib/Bernstein@multi_bernstein&#45;&gt;NASALib/Bernstein@util -->
<g id="edge32" class="edge">
<title>NASALib/Bernstein@multi_bernstein&#45;&gt;NASALib/Bernstein@util</title>
<path fill="none" stroke="black" d="M448,-188C448,-188 448,-166.08 448,-146.77"/>
<polygon fill="black" stroke="black" points="451.5,-146.82 448,-136.82 444.5,-146.82 451.5,-146.82"/>
<path fill="none" stroke="black" d="M383.14,-243.41C408.28,-222.71 448,-190 448,-190"/>
</g>
<!-- NASALib/Bernstein@multi_bernstein&#45;&gt;NASALib/reals -->
<g id="edge33" class="edge">
<title>NASALib/Bernstein@multi_bernstein&#45;&gt;NASALib/reals</title>
<path fill="none" stroke="black" d="M723,-116C723,-116 747,-91 747,-91 747,-91 797,-83 797,-83 797,-83 804.9,-72.46 813.3,-61.26"/>
<polygon fill="black" stroke="black" points="815.9,-63.64 819.1,-53.54 810.3,-59.44 815.9,-63.64"/>
<path fill="none" stroke="black" d="M417.16,-250.31C438.49,-246.49 458,-243 458,-243 458,-243 699,-207 699,-207 699,-207 723,-118 723,-118"/>
</g>
<!-- NASALib/sigma_set -->
<g id="node27" class="node">
<title>NASALib/sigma_set</title>
<polygon fill="#fcfcd7" stroke="black" points="787.5,-52 716.5,-52 716.5,-16 787.5,-16 787.5,-52"/>
<text text-anchor="middle" x="752" y="-30.3" font-family="Times,serif" font-size="14.00">sigma_set</text>
</g>
<!-- NASALib/Bernstein@multi_bernstein&#45;&gt;NASALib/sigma_set -->
<g id="edge34" class="edge">
<title>NASALib/Bernstein@multi_bernstein&#45;&gt;NASALib/sigma_set</title>
<path fill="none" stroke="black" d="M723,-116C723,-116 733.59,-86.43 741.97,-63.02"/>
<polygon fill="black" stroke="black" points="745.26,-64.2 745.34,-53.6 738.67,-61.84 745.26,-64.2"/>
</g>
<!-- NASALib/Bernstein@multi_polylist -->
<g id="node14" class="node">
<title>NASALib/Bernstein@multi_polylist</title>
<ellipse fill="#e6f3ff" stroke="black" cx="635" cy="-333" rx="60.39" ry="18"/>
<text text-anchor="middle" x="635" y="-329.3" font-family="Times,serif" font-size="14.00">multi_polylist</text>
</g>
<!-- NASALib/Bernstein@multi_polylist&#45;&gt;NASALib/Bernstein@MPoly -->
<g id="edge35" class="edge">
<title>NASALib/Bernstein@multi_polylist&#45;&gt;NASALib/Bernstein@MPoly</title>
<path fill="none" stroke="black" d="M606.14,-316.81C585.53,-305.96 557.71,-291.32 536.02,-279.9"/>
<polygon fill="black" stroke="black" points="537.73,-276.85 527.25,-275.29 534.47,-283.05 537.73,-276.85"/>
</g>
<!-- NASALib/Bernstein@multi_polylist&#45;&gt;NASALib/Bernstein@multi_polynomial -->
<g id="edge36" class="edge">
<title>NASALib/Bernstein@multi_polylist&#45;&gt;NASALib/Bernstein@multi_polynomial</title>
<path fill="none" stroke="black" d="M649.28,-315.05C666.74,-294.34 694,-262 694,-262"/>
<path fill="none" stroke="black" d="M694,-260C694,-260 637.86,-231.52 597.19,-210.89"/>
<polygon fill="black" stroke="black" points="598.82,-207.8 588.32,-206.39 595.65,-214.04 598.82,-207.8"/>
</g>
<!-- NASALib/Bernstein@multi_polylist&#45;&gt;NASALib/Bernstein@util -->
<g id="edge37" class="edge">
<title>NASALib/Bernstein@multi_polylist&#45;&gt;NASALib/Bernstein@util</title>
<path fill="none" stroke="black" d="M694,-188C694,-188 640,-171 640,-171 640,-171 538.96,-143.11 483.48,-127.79"/>
<polygon fill="black" stroke="black" points="484.74,-124.51 474.17,-125.22 482.87,-131.26 484.74,-124.51"/>
<path fill="none" stroke="black" d="M694,-260C694,-260 694,-190 694,-190"/>
</g>
<!-- NASALib/Bernstein@multi_polylist&#45;&gt;NASALib/reals -->
<g id="edge38" class="edge">
<title>NASALib/Bernstein@multi_polylist&#45;&gt;NASALib/reals</title>
<path fill="none" stroke="black" d="M676.73,-319.57C729.34,-303.91 813,-279 813,-279 813,-279 825.39,-127.81 830.67,-63.46"/>
<polygon fill="black" stroke="black" points="834.14,-63.92 831.47,-53.67 827.16,-63.35 834.14,-63.92"/>
</g>
<!-- NASALib/Bernstein@multi_polynomial&#45;&gt;NASALib/Bernstein@util -->
<g id="edge39" class="edge">
<title>NASALib/Bernstein@multi_polynomial&#45;&gt;NASALib/Bernstein@util</title>
<path fill="none" stroke="black" d="M530.68,-171.59C514.31,-160.98 493,-147.17 476.11,-136.22"/>
<polygon fill="black" stroke="black" points="478.31,-133.48 468.02,-130.97 474.51,-139.35 478.31,-133.48"/>
</g>
<!-- NASALib/Bernstein@multi_polynomial&#45;&gt;NASALib/reals -->
<g id="edge40" class="edge">
<title>NASALib/Bernstein@multi_polynomial&#45;&gt;NASALib/reals</title>
<path fill="none" stroke="black" d="M685,-116C685,-116 709,-91 709,-91 709,-91 797,-83 797,-83 797,-83 804.9,-72.46 813.3,-61.26"/>
<polygon fill="black" stroke="black" points="815.9,-63.64 819.1,-53.54 810.3,-59.44 815.9,-63.64"/>
</g>
<!-- NASALib/Bernstein@multi_polynomial&#45;&gt;NASALib/sigma_set -->
<g id="edge41" class="edge">
<title>NASALib/Bernstein@multi_polynomial&#45;&gt;NASALib/sigma_set</title>
<path fill="none" stroke="black" d="M685,-116C685,-116 711.04,-84.51 730.66,-60.8"/>
<polygon fill="black" stroke="black" points="733.15,-63.28 736.83,-53.34 727.76,-58.82 733.15,-63.28"/>
<path fill="none" stroke="black" d="M585.27,-172.12C623.33,-151.46 685,-118 685,-118"/>
</g>
<!-- NASALib/Bernstein@multibernstein_into_polylist&#45;&gt;NASALib/Bernstein@a2l__util -->
<g id="edge42" class="edge">
<title>NASALib/Bernstein@multibernstein_into_polylist&#45;&gt;NASALib/Bernstein@a2l__util</title>
<path fill="none" stroke="black" d="M179.9,-243.23C198.73,-233.02 222.86,-219.92 242.47,-209.28"/>
<polygon fill="black" stroke="black" points="244.1,-212.38 251.22,-204.53 240.76,-206.22 244.1,-212.38"/>
</g>
<!-- NASALib/Bernstein@multibernstein_into_polylist&#45;&gt;NASALib/Bernstein@util -->
<g id="edge43" class="edge">
<title>NASALib/Bernstein@multibernstein_into_polylist&#45;&gt;NASALib/Bernstein@util</title>
<path fill="none" stroke="black" d="M164.04,-242.84C186.71,-216.98 227,-171 227,-171 227,-171 348.95,-141.75 411.67,-126.71"/>
<polygon fill="black" stroke="black" points="412.27,-130.17 421.18,-124.43 410.64,-123.36 412.27,-130.17"/>
</g>
<!-- NASALib/Bernstein@multibernstein_into_polylist&#45;&gt;NASALib/structures -->
<g id="edge44" class="edge">
<title>NASALib/Bernstein@multibernstein_into_polylist&#45;&gt;NASALib/structures</title>
<path fill="none" stroke="black" d="M235.45,-249.43C263.72,-245.97 288,-243 288,-243 288,-243 699,-207 699,-207 699,-207 785,-91 785,-91 785,-91 869,-83 869,-83 869,-83 879.04,-72.04 889.53,-60.6"/>
<polygon fill="black" stroke="black" points="891.92,-63.18 896.09,-53.44 886.75,-58.45 891.92,-63.18"/>
</g>
<!-- NASALib/Bernstein@poly2bernstein&#45;&gt;NASALib/Bernstein@multi_bernstein -->
<g id="edge45" class="edge">
<title>NASALib/Bernstein@poly2bernstein&#45;&gt;NASALib/Bernstein@multi_bernstein</title>
<path fill="none" stroke="black" d="M556,-332C556,-332 469.43,-300.6 412.25,-279.86"/>
<polygon fill="black" stroke="black" points="413.61,-276.63 403.02,-276.51 411.22,-283.21 413.61,-276.63"/>
<path fill="none" stroke="black" d="M589.11,-530.85C580.57,-480.07 556,-334 556,-334"/>
</g>
<!-- NASALib/Bernstein@poly2bernstein&#45;&gt;NASALib/Bernstein@multi_polynomial -->
<g id="edge46" class="edge">
<title>NASALib/Bernstein@poly2bernstein&#45;&gt;NASALib/Bernstein@multi_polynomial</title>
<path fill="none" stroke="black" d="M556,-332C556,-332 556,-260.2 556,-218.71"/>
<polygon fill="black" stroke="black" points="559.5,-218.93 556,-208.93 552.5,-218.93 559.5,-218.93"/>
</g>
<!-- NASALib/Bernstein@poly_minmax -->
<g id="node18" class="node">
<title>NASALib/Bernstein@poly_minmax</title>
<ellipse fill="#e6f3ff" stroke="black" cx="431" cy="-621" rx="60.39" ry="18"/>
<text text-anchor="middle" x="431" y="-617.3" font-family="Times,serif" font-size="14.00">poly_minmax</text>
</g>
<!-- NASALib/Bernstein@poly_minmax&#45;&gt;NASALib/Bernstein@a2l__bernstein_minmax -->
<g id="edge47" class="edge">
<title>NASALib/Bernstein@poly_minmax&#45;&gt;NASALib/Bernstein@a2l__bernstein_minmax</title>
<path fill="none" stroke="black" d="M404.97,-604.29C389.44,-594.92 369.48,-582.87 352.3,-572.51"/>
<polygon fill="black" stroke="black" points="354.23,-569.58 343.86,-567.41 350.61,-575.58 354.23,-569.58"/>
</g>
<!-- NASALib/Bernstein@poly_minmax&#45;&gt;NASALib/Bernstein@bernstein_minmax -->
<g id="edge48" class="edge">
<title>NASALib/Bernstein@poly_minmax&#45;&gt;NASALib/Bernstein@bernstein_minmax</title>
<path fill="none" stroke="black" d="M431,-602.59C431,-578.61 431,-535.14 431,-506.42"/>
<polygon fill="black" stroke="black" points="434.5,-506.62 431,-496.62 427.5,-506.62 434.5,-506.62"/>
</g>
<!-- NASALib/Bernstein@poly_minmax&#45;&gt;NASALib/Bernstein@poly2bernstein -->
<g id="edge49" class="edge">
<title>NASALib/Bernstein@poly_minmax&#45;&gt;NASALib/Bernstein@poly2bernstein</title>
<path fill="none" stroke="black" d="M463.97,-605.67C488.15,-595.15 521.23,-580.77 547.71,-569.25"/>
<polygon fill="black" stroke="black" points="549.08,-572.48 556.86,-565.28 546.29,-566.06 549.08,-572.48"/>
</g>
<!-- NASALib/Bernstein@strat_util&#45;&gt;NASALib/Bernstein@MPoly -->
<g id="edge50" class="edge">
<title>NASALib/Bernstein@strat_util&#45;&gt;NASALib/Bernstein@MPoly</title>
<path fill="none" stroke="black" d="M524.71,-674.65C522.67,-659.19 520,-639 520,-639 520,-639 517,-459 517,-459 517,-459 508.36,-345.51 504.19,-290.81"/>
<polygon fill="black" stroke="black" points="507.7,-290.7 503.45,-280.99 500.72,-291.23 507.7,-290.7"/>
</g>
<!-- NASALib/Bernstein@strat_util&#45;&gt;NASALib/Bernstein@Outcome -->
<g id="edge51" class="edge">
<title>NASALib/Bernstein@strat_util&#45;&gt;NASALib/Bernstein@Outcome</title>
<path fill="none" stroke="black" d="M537.9,-675.41C543.29,-667.22 549.91,-657.14 555.94,-647.95"/>
<polygon fill="black" stroke="black" points="558.78,-650.01 561.35,-639.73 552.93,-646.17 558.78,-650.01"/>
</g>
<!-- NASALib/Bernstein@strat_util&#45;&gt;NASALib/Bernstein@poly_minmax -->
<g id="edge52" class="edge">
<title>NASALib/Bernstein@strat_util&#45;&gt;NASALib/Bernstein@poly_minmax</title>
<path fill="none" stroke="black" d="M506.64,-677.15C493.73,-667.74 476.77,-655.37 462.18,-644.73"/>
<polygon fill="black" stroke="black" points="464.37,-642 454.22,-638.93 460.24,-647.65 464.37,-642"/>
</g>
<!-- NASALib/Bernstein@strategies&#45;&gt;NASALib/Bernstein@strat_util -->
<g id="edge53" class="edge">
<title>NASALib/Bernstein@strategies&#45;&gt;NASALib/Bernstein@strat_util</title>
<path fill="none" stroke="black" d="M539.04,-746.7C537.36,-739.32 535.35,-730.52 533.46,-722.25"/>
<polygon fill="black" stroke="black" points="536.89,-721.55 531.25,-712.58 530.06,-723.11 536.89,-721.55"/>
</g>
<!-- NASALib/interval_arith -->
<g id="node25" class="node">
<title>NASALib/interval_arith</title>
<polygon fill="#fcfcd7" stroke="black" points="1054.5,-52 965.5,-52 965.5,-16 1054.5,-16 1054.5,-52"/>
<text text-anchor="middle" x="1010" y="-30.3" font-family="Times,serif" font-size="14.00">interval_arith</text>
</g>
<!-- NASALib/Bernstein@strategies&#45;&gt;NASALib/interval_arith -->
<g id="edge54" class="edge">
<title>NASALib/Bernstein@strategies&#45;&gt;NASALib/interval_arith</title>
<path fill="none" stroke="black" d="M989,-116C989,-116 996.67,-86.43 1002.74,-63.02"/>
<polygon fill="black" stroke="black" points="1006.04,-64.2 1005.17,-53.64 999.27,-62.44 1006.04,-64.2"/>
<path fill="none" stroke="black" d="M577.16,-753.04C587.42,-749.75 596,-747 596,-747 596,-747 761,-711 761,-711 761,-711 989,-622 989,-622 989,-622 989,-622 989,-260 989,-260 989,-118 989,-118"/>
</g>
<!-- NASALib/Bernstein@strategies&#45;&gt;NASALib/structures -->
<g id="edge55" class="edge">
<title>NASALib/Bernstein@strategies&#45;&gt;NASALib/structures</title>
<path fill="none" stroke="black" d="M989,-116C989,-116 957,-83 957,-83 957,-83 946.96,-72.04 936.47,-60.6"/>
<polygon fill="black" stroke="black" points="939.25,-58.45 929.91,-53.44 934.08,-63.18 939.25,-58.45"/>
</g>
<!-- NASALib/Bernstein@tests -->
<g id="node21" class="node">
<title>NASALib/Bernstein@tests</title>
<ellipse fill="#e6f3ff" stroke="black" cx="454" cy="-765" rx="27" ry="18"/>
<text text-anchor="middle" x="454" y="-761.3" font-family="Times,serif" font-size="14.00">tests</text>
</g>
<!-- NASALib/Bernstein@tests&#45;&gt;NASALib/Bernstein@strat_util -->
<g id="edge56" class="edge">
<title>NASALib/Bernstein@tests&#45;&gt;NASALib/Bernstein@strat_util</title>
<path fill="none" stroke="black" d="M468.77,-749.83C478.4,-740.6 491.2,-728.33 502.35,-717.64"/>
<polygon fill="black" stroke="black" points="504.58,-720.35 509.37,-710.9 499.73,-715.3 504.58,-720.35"/>
</g>
<!-- NASALib/Bernstein@util&#45;&gt;NASALib/reals -->
<g id="edge57" class="edge">
<title>NASALib/Bernstein@util&#45;&gt;NASALib/reals</title>
<path fill="none" stroke="black" d="M474.46,-113.03C533.53,-106.41 671,-91 671,-91 671,-91 797,-83 797,-83 797,-83 804.9,-72.46 813.3,-61.26"/>
<polygon fill="black" stroke="black" points="815.9,-63.64 819.1,-53.54 810.3,-59.44 815.9,-63.64"/>
</g>
<!-- NASALib/Bernstein@util&#45;&gt;NASALib/structures -->
<g id="edge58" class="edge">
<title>NASALib/Bernstein@util&#45;&gt;NASALib/structures</title>
<path fill="none" stroke="black" d="M474.46,-113.03C533.53,-106.41 671,-91 671,-91 671,-91 869,-83 869,-83 869,-83 879.04,-72.04 889.53,-60.6"/>
<polygon fill="black" stroke="black" points="891.92,-63.18 896.09,-53.44 886.75,-58.45 891.92,-63.18"/>
</g>
<!-- NASALib/Bernstein@vardirselector&#45;&gt;NASALib/Bernstein@multi_bernstein -->
<g id="edge59" class="edge">
<title>NASALib/Bernstein@vardirselector&#45;&gt;NASALib/Bernstein@multi_bernstein</title>
<path fill="none" stroke="black" d="M336.57,-386.65C341.52,-371.19 348,-351 348,-351 348,-351 353.83,-316.42 358.22,-290.37"/>
<polygon fill="black" stroke="black" points="361.65,-291.1 359.86,-280.65 354.74,-289.93 361.65,-291.1"/>
</g>
<!-- NASALib/Bernstein@vardirselector_into_a2lvardirselector&#45;&gt;NASALib/Bernstein@a2l__vardirselector -->
<g id="edge60" class="edge">
<title>NASALib/Bernstein@vardirselector_into_a2lvardirselector&#45;&gt;NASALib/Bernstein@a2l__vardirselector</title>
<path fill="none" stroke="black" d="M165.87,-458.7C161.3,-450.9 155.8,-441.51 150.71,-432.83"/>
<polygon fill="black" stroke="black" points="153.86,-431.27 145.78,-424.41 147.82,-434.81 153.86,-431.27"/>
</g>
<!-- NASALib/Bernstein@vardirselector_into_a2lvardirselector&#45;&gt;NASALib/Bernstein@vardirselector -->
<g id="edge61" class="edge">
<title>NASALib/Bernstein@vardirselector_into_a2lvardirselector&#45;&gt;NASALib/Bernstein@vardirselector</title>
<path fill="none" stroke="black" d="M213.13,-459.23C235.8,-448.99 264.88,-435.86 288.48,-425.2"/>
<polygon fill="black" stroke="black" points="289.85,-428.43 297.52,-421.12 286.96,-422.05 289.85,-428.43"/>
</g>
</g>
</svg>
