<?xml version="1.0" encoding="UTF-8" standalone="no"?>
<!DOCTYPE svg PUBLIC "-//W3C//DTD SVG 1.1//EN"
 "http://www.w3.org/Graphics/SVG/1.1/DTD/svg11.dtd">
<!-- Generated by graphviz version 8.1.0 (20230707.0739)
 -->
<!-- Title: PVSioChecker&#45;zoomed Pages: 1 -->
<svg width="195pt" height="185pt"
 viewBox="0.00 0.00 195.00 185.00" xmlns="http://www.w3.org/2000/svg" xmlns:xlink="http://www.w3.org/1999/xlink">
<g id="graph0" class="graph" transform="scale(1 1) rotate(0) translate(4 181)">
<title>PVSioChecker&#45;zoomed</title>
<polygon fill="white" stroke="none" points="-4,4 -4,-181 191,-181 191,4 -4,4"/>
<g id="clust1" class="cluster">
<title>cluster_NASALib</title>
<polygon fill="none" stroke="black" points="15,-8 15,-84.5 179,-84.5 179,-8 15,-8"/>
<text text-anchor="middle" x="97" y="-67.2" font-family="Times,serif" font-size="14.00">NASALib</text>
</g>
<g id="clust2" class="cluster">
<title>cluster_pvsio_utils/PVSioChecker</title>
<polygon fill="none" stroke="black" points="8,-92.5 8,-169 167,-169 167,-92.5 8,-92.5"/>
<text text-anchor="middle" x="87.5" y="-151.7" font-family="Times,serif" font-size="14.00">pvsio_utils/PVSioChecker</text>
</g>
<!-- nasalib/pvsio_utils -->
<g id="node1" class="node">
<title>nasalib/pvsio_utils</title>
<polygon fill="#fcfcd7" stroke="black" points="170.62,-52 95.38,-52 95.38,-16 170.62,-16 170.62,-52"/>
<text text-anchor="middle" x="133" y="-28.95" font-family="Times,serif" font-size="14.00">pvsio_utils</text>
</g>
<!-- nasalib/reals -->
<g id="node2" class="node">
<title>nasalib/reals</title>
<polygon fill="#fcfcd7" stroke="black" points="77,-52 23,-52 23,-16 77,-16 77,-52"/>
<text text-anchor="middle" x="50" y="-28.95" font-family="Times,serif" font-size="14.00">reals</text>
</g>
<!-- pvsio_utils/PVSioChecker@pvsio_checker -->
<g id="node3" class="node">
<title>pvsio_utils/PVSioChecker@pvsio_checker</title>
<ellipse fill="#e6f3ff" stroke="black" cx="87" cy="-118.5" rx="64.15" ry="18"/>
<text text-anchor="middle" x="87" y="-113.45" font-family="Times,serif" font-size="14.00">pvsio_checker</text>
</g>
<!-- pvsio_utils/PVSioChecker@pvsio_checker&#45;&gt;nasalib/pvsio_utils -->
<g id="edge1" class="edge">
<title>pvsio_utils/PVSioChecker@pvsio_checker&#45;&gt;nasalib/pvsio_utils</title>
<path fill="none" stroke="black" d="M96.53,-100.41C102.72,-89.31 110.92,-74.61 117.97,-61.96"/>
<polygon fill="black" stroke="black" points="121.51,-63.79 123.32,-53.36 115.4,-60.39 121.51,-63.79"/>
</g>
<!-- pvsio_utils/PVSioChecker@pvsio_checker&#45;&gt;nasalib/reals -->
<g id="edge2" class="edge">
<title>pvsio_utils/PVSioChecker@pvsio_checker&#45;&gt;nasalib/reals</title>
<path fill="none" stroke="black" d="M79.33,-100.41C74.41,-89.42 67.89,-74.9 62.26,-62.33"/>
<polygon fill="black" stroke="black" points="65.07,-61.05 57.78,-53.36 58.68,-63.91 65.07,-61.05"/>
</g>
</g>
</svg>
