<?xml version="1.0" encoding="UTF-8" standalone="no"?>
<!DOCTYPE svg PUBLIC "-//W3C//DTD SVG 1.1//EN"
 "http://www.w3.org/Graphics/SVG/1.1/DTD/svg11.dtd">
<!-- Generated by graphviz version 8.0.4 (20230421.1958)
 -->
<!-- Title: pvsio_utils&#45;PVSioChecker Pages: 1 -->
<svg width="328pt" height="401pt"
 viewBox="0.00 0.00 328.00 401.00" xmlns="http://www.w3.org/2000/svg" xmlns:xlink="http://www.w3.org/1999/xlink">
<g id="graph0" class="graph" transform="scale(1 1) rotate(0) translate(4 397)">
<title>pvsio_utils&#45;PVSioChecker</title>
<polygon fill="white" stroke="none" points="-4,4 -4,-397 324,-397 324,4 -4,4"/>
<g id="clust1" class="cluster">
<title>cluster_NASALib</title>
<polygon fill="none" stroke="black" points="8,-92.5 8,-385 192,-385 192,-92.5 8,-92.5"/>
<text text-anchor="middle" x="100" y="-367.7" font-family="Times,serif" font-size="14.00">NASALib</text>
</g>
<g id="clust2" class="cluster">
<title>cluster_PVS Prelude</title>
<polygon fill="none" stroke="black" points="53,-8 53,-84.5 141,-84.5 141,-8 53,-8"/>
<text text-anchor="middle" x="97" y="-67.2" font-family="Times,serif" font-size="14.00">PVS Prelude</text>
</g>
<g id="clust3" class="cluster">
<title>cluster_pvsio_utils</title>
<polygon fill="none" stroke="black" points="200,-308.5 200,-385 312,-385 312,-308.5 200,-308.5"/>
<text text-anchor="middle" x="256" y="-367.7" font-family="Times,serif" font-size="14.00">pvsio_utils</text>
</g>
<!-- NASALib/examples -->
<g id="node1" class="node">
<title>NASALib/examples</title>
<polygon fill="#fcfcd7" stroke="black" points="107.88,-352.5 40.12,-352.5 40.12,-316.5 107.88,-316.5 107.88,-352.5"/>
<text text-anchor="middle" x="74" y="-329.45" font-family="Times,serif" font-size="14.00">examples</text>
</g>
<!-- NASALib/ints -->
<g id="node2" class="node">
<title>NASALib/ints</title>
<polygon fill="#fcfcd7" stroke="black" points="97,-136.5 43,-136.5 43,-100.5 97,-100.5 97,-136.5"/>
<text text-anchor="middle" x="70" y="-113.45" font-family="Times,serif" font-size="14.00">ints</text>
</g>
<!-- NASALib/examples&#45;&gt;NASALib/ints -->
<g id="edge1" class="edge">
<title>NASALib/examples&#45;&gt;NASALib/ints</title>
<path fill="none" stroke="black" d="M17,-261.5C17,-261.5 27,-172.5 27,-172.5 27,-172.5 38.23,-158.65 49.22,-145.12"/>
<polygon fill="black" stroke="black" points="52.34,-147.82 55.92,-137.85 46.9,-143.41 52.34,-147.82"/>
<path fill="none" stroke="black" d="M58.61,-316.15C44.9,-300.69 27,-280.5 27,-280.5 27,-280.5 17,-263.5 17,-263.5"/>
</g>
<!-- NASALib/pvsio_utils -->
<g id="node3" class="node">
<title>NASALib/pvsio_utils</title>
<polygon fill="#fcfcd7" stroke="black" points="111.62,-280.5 36.38,-280.5 36.38,-244.5 111.62,-244.5 111.62,-280.5"/>
<text text-anchor="middle" x="74" y="-257.45" font-family="Times,serif" font-size="14.00">pvsio_utils</text>
</g>
<!-- NASALib/examples&#45;&gt;NASALib/pvsio_utils -->
<g id="edge2" class="edge">
<title>NASALib/examples&#45;&gt;NASALib/pvsio_utils</title>
<path fill="none" stroke="black" d="M74,-316.2C74,-308.74 74,-299.82 74,-291.47"/>
<polygon fill="black" stroke="black" points="77.5,-291.6 74,-281.6 70.5,-291.6 77.5,-291.6"/>
</g>
<!-- NASALib/reals -->
<g id="node4" class="node">
<title>NASALib/reals</title>
<polygon fill="#fcfcd7" stroke="black" points="184,-280.5 130,-280.5 130,-244.5 184,-244.5 184,-280.5"/>
<text text-anchor="middle" x="157" y="-257.45" font-family="Times,serif" font-size="14.00">reals</text>
</g>
<!-- NASALib/examples&#45;&gt;NASALib/reals -->
<g id="edge3" class="edge">
<title>NASALib/examples&#45;&gt;NASALib/reals</title>
<path fill="none" stroke="black" d="M94.52,-316.2C104.69,-307.61 117.15,-297.11 128.26,-287.74"/>
<polygon fill="black" stroke="black" points="130.04,-289.97 135.43,-280.85 125.53,-284.62 130.04,-289.97"/>
</g>
<!-- NASALib/structures -->
<g id="node5" class="node">
<title>NASALib/structures</title>
<polygon fill="#fcfcd7" stroke="black" points="104.25,-208.5 35.75,-208.5 35.75,-172.5 104.25,-172.5 104.25,-208.5"/>
<text text-anchor="middle" x="70" y="-185.45" font-family="Times,serif" font-size="14.00">structures</text>
</g>
<!-- NASALib/examples&#45;&gt;NASALib/structures -->
<g id="edge4" class="edge">
<title>NASALib/examples&#45;&gt;NASALib/structures</title>
<path fill="none" stroke="black" d="M17,-261.5C17,-261.5 27,-244.5 27,-244.5 27,-244.5 38.23,-230.65 49.22,-217.12"/>
<polygon fill="black" stroke="black" points="52.34,-219.82 55.92,-209.85 46.9,-215.41 52.34,-219.82"/>
</g>
<!-- pvsio_utils/PVSioChecker -->
<g id="node7" class="node">
<title>pvsio_utils/PVSioChecker</title>
<polygon fill="#f7e28d" stroke="black" points="304.12,-352.5 207.88,-352.5 207.88,-316.5 304.12,-316.5 304.12,-352.5"/>
<text text-anchor="middle" x="256" y="-329.45" font-family="Times,serif" font-size="14.00">PVSioChecker</text>
</g>
<!-- NASALib/examples&#45;&gt;pvsio_utils/PVSioChecker -->
<g id="edge5" class="edge">
<title>NASALib/examples&#45;&gt;pvsio_utils/PVSioChecker</title>
<path fill="none" stroke="black" d="M108.23,-334.5C121.99,-334.5 134.67,-334.5 134.67,-334.5 134.67,-334.5 195.33,-334.5 195.33,-334.5 195.33,-334.5 195.83,-334.5 196.73,-334.5"/>
<polygon fill="black" stroke="black" points="196.61,-338 206.61,-334.5 196.61,-331 196.61,-338"/>
</g>
<!-- lib/finite_sets -->
<g id="node6" class="node">
<title>lib/finite_sets</title>
<polygon fill="#fcfcd7" stroke="black" points="132.75,-52 61.25,-52 61.25,-16 132.75,-16 132.75,-52"/>
<text text-anchor="middle" x="97" y="-28.95" font-family="Times,serif" font-size="14.00">finite_sets</text>
</g>
<!-- NASALib/ints&#45;&gt;lib/finite_sets -->
<g id="edge6" class="edge">
<title>NASALib/ints&#45;&gt;lib/finite_sets</title>
<path fill="none" stroke="black" d="M75.73,-100C79.27,-89.18 83.9,-75.03 87.93,-62.71"/>
<polygon fill="black" stroke="black" points="91.5,-64.06 91.28,-53.47 84.85,-61.89 91.5,-64.06"/>
</g>
<!-- NASALib/reals&#45;&gt;NASALib/ints -->
<g id="edge7" class="edge">
<title>NASALib/reals&#45;&gt;NASALib/ints</title>
<path fill="none" stroke="black" d="M148.52,-244.34C135.73,-218.48 113,-172.5 113,-172.5 113,-172.5 101.77,-158.65 90.78,-145.12"/>
<polygon fill="black" stroke="black" points="93.1,-143.41 84.08,-137.85 87.66,-147.82 93.1,-143.41"/>
</g>
<!-- NASALib/reals&#45;&gt;NASALib/structures -->
<g id="edge8" class="edge">
<title>NASALib/reals&#45;&gt;NASALib/structures</title>
<path fill="none" stroke="black" d="M135.49,-244.2C124.83,-235.61 111.77,-225.11 100.12,-215.74"/>
<polygon fill="black" stroke="black" points="102.55,-212.39 92.56,-208.85 98.16,-217.84 102.55,-212.39"/>
</g>
<!-- NASALib/structures&#45;&gt;NASALib/ints -->
<g id="edge9" class="edge">
<title>NASALib/structures&#45;&gt;NASALib/ints</title>
<path fill="none" stroke="black" d="M70,-172.2C70,-164.74 70,-155.82 70,-147.47"/>
<polygon fill="black" stroke="black" points="73.5,-147.6 70,-137.6 66.5,-147.6 73.5,-147.6"/>
</g>
<!-- NASALib/structures&#45;&gt;lib/finite_sets -->
<g id="edge10" class="edge">
<title>NASALib/structures&#45;&gt;lib/finite_sets</title>
<path fill="none" stroke="black" d="M81.79,-172.15C92.29,-156.69 106,-136.5 106,-136.5 106,-136.5 106,-92.5 106,-92.5 106,-92.5 103.68,-77.7 101.4,-63.11"/>
<polygon fill="black" stroke="black" points="104.7,-62.59 99.7,-53.25 97.79,-63.67 104.7,-62.59"/>
</g>
<!-- pvsio_utils/PVSioChecker&#45;&gt;NASALib/pvsio_utils -->
<g id="edge11" class="edge">
<title>pvsio_utils/PVSioChecker&#45;&gt;NASALib/pvsio_utils</title>
<path fill="none" stroke="black" d="M214,-316C203.92,-311.8 196,-308.5 196,-308.5 196,-308.5 156.03,-293.76 121.84,-281.15"/>
<polygon fill="black" stroke="black" points="123.53,-277.67 112.93,-277.49 121.1,-284.24 123.53,-277.67"/>
</g>
<!-- pvsio_utils/PVSioChecker&#45;&gt;NASALib/reals -->
<g id="edge12" class="edge">
<title>pvsio_utils/PVSioChecker&#45;&gt;NASALib/reals</title>
<path fill="none" stroke="black" d="M231.27,-316.02C218.9,-307.26 203.73,-296.54 190.34,-287.08"/>
<polygon fill="black" stroke="black" points="192.6,-283.68 182.41,-280.76 188.56,-289.39 192.6,-283.68"/>
</g>
</g>
</svg>
