<?xml version="1.0" encoding="UTF-8" standalone="no"?>
<!DOCTYPE svg PUBLIC "-//W3C//DTD SVG 1.1//EN"
 "http://www.w3.org/Graphics/SVG/1.1/DTD/svg11.dtd">
<!-- Generated by graphviz version 2.40.1 (20161225.0304)
 -->
<!-- Title: linear_algebra Pages: 1 -->
<svg width="136pt" height="314pt"
 viewBox="0.00 0.00 136.00 314.00" xmlns="http://www.w3.org/2000/svg" xmlns:xlink="http://www.w3.org/1999/xlink">
<g id="graph0" class="graph" transform="scale(1 1) rotate(0) translate(4 310)">
<title>linear_algebra</title>
<polygon fill="#ffffff" stroke="transparent" points="-4,4 -4,-310 132,-310 132,4 -4,4"/>
<g id="clust1" class="cluster">
<title>cluster_NASALib</title>
<polygon fill="none" stroke="#000000" points="8,-8 8,-298 120,-298 120,-8 8,-8"/>
<text text-anchor="middle" x="64" y="-282.8" font-family="Times,serif" font-size="14.00" fill="#000000">NASALib</text>
</g>
<!-- /Users/mmoscato/Workspace/Workbench/pvs/dependency&#45;all/Users/mmoscato/pvs/pvs/nasalib/linear_algebra -->
<g id="node1" class="node">
<title>/Users/mmoscato/Workspace/Workbench/pvs/dependency&#45;all/Users/mmoscato/pvs/pvs/nasalib/linear_algebra</title>
<polygon fill="#f7e28d" stroke="#000000" points="112.0625,-268 15.9375,-268 15.9375,-232 112.0625,-232 112.0625,-268"/>
<text text-anchor="middle" x="64" y="-245.8" font-family="Times,serif" font-size="14.00" fill="#000000">linear_algebra</text>
</g>
<!-- /Users/mmoscato/Workspace/Workbench/pvs/dependency&#45;all/Users/mmoscato/pvs/pvs/nasalib/reals -->
<g id="node2" class="node">
<title>/Users/mmoscato/Workspace/Workbench/pvs/dependency&#45;all/Users/mmoscato/pvs/pvs/nasalib/reals</title>
<polygon fill="#fcfcd7" stroke="#000000" points="91,-124 37,-124 37,-88 91,-88 91,-124"/>
<text text-anchor="middle" x="64" y="-101.8" font-family="Times,serif" font-size="14.00" fill="#000000">reals</text>
</g>
<!-- /Users/mmoscato/Workspace/Workbench/pvs/dependency&#45;all/Users/mmoscato/pvs/pvs/nasalib/linear_algebra&#45;&gt;/Users/mmoscato/Workspace/Workbench/pvs/dependency&#45;all/Users/mmoscato/pvs/pvs/nasalib/reals -->
<g id="edge1" class="edge">
<title>/Users/mmoscato/Workspace/Workbench/pvs/dependency&#45;all/Users/mmoscato/pvs/pvs/nasalib/linear_algebra&#45;&gt;/Users/mmoscato/Workspace/Workbench/pvs/dependency&#45;all/Users/mmoscato/pvs/pvs/nasalib/reals</title>
<path fill="none" stroke="#000000" d="M34.7861,-231.7623C34.7861,-193.0139 34.7861,-106 34.7861,-106 34.7861,-106 34.9778,-106 34.9778,-106"/>
<polygon fill="#000000" stroke="#000000" points="26.7031,-109.5006 36.7029,-106 26.7027,-102.5006 26.7031,-109.5006"/>
</g>
<!-- /Users/mmoscato/Workspace/Workbench/pvs/dependency&#45;all/Users/mmoscato/pvs/pvs/nasalib/structures -->
<g id="node3" class="node">
<title>/Users/mmoscato/Workspace/Workbench/pvs/dependency&#45;all/Users/mmoscato/pvs/pvs/nasalib/structures</title>
<polygon fill="#fcfcd7" stroke="#000000" points="99.429,-52 28.571,-52 28.571,-16 99.429,-16 99.429,-52"/>
<text text-anchor="middle" x="64" y="-29.8" font-family="Times,serif" font-size="14.00" fill="#000000">structures</text>
</g>
<!-- /Users/mmoscato/Workspace/Workbench/pvs/dependency&#45;all/Users/mmoscato/pvs/pvs/nasalib/linear_algebra&#45;&gt;/Users/mmoscato/Workspace/Workbench/pvs/dependency&#45;all/Users/mmoscato/pvs/pvs/nasalib/structures -->
<g id="edge2" class="edge">
<title>/Users/mmoscato/Workspace/Workbench/pvs/dependency&#45;all/Users/mmoscato/pvs/pvs/nasalib/linear_algebra&#45;&gt;/Users/mmoscato/Workspace/Workbench/pvs/dependency&#45;all/Users/mmoscato/pvs/pvs/nasalib/structures</title>
<path fill="none" stroke="#000000" d="M30.7861,-231.9555C30.7861,-231.9555 30.7861,-62.1451 30.7861,-62.1451"/>
<polygon fill="#000000" stroke="#000000" points="34.2862,-62.145 30.7861,-52.1451 27.2862,-62.1451 34.2862,-62.145"/>
</g>
<!-- /Users/mmoscato/Workspace/Workbench/pvs/dependency&#45;all/Users/mmoscato/pvs/pvs/nasalib/vectors -->
<g id="node4" class="node">
<title>/Users/mmoscato/Workspace/Workbench/pvs/dependency&#45;all/Users/mmoscato/pvs/pvs/nasalib/vectors</title>
<polygon fill="#fcfcd7" stroke="#000000" points="93.4294,-196 36.5706,-196 36.5706,-160 93.4294,-160 93.4294,-196"/>
<text text-anchor="middle" x="65" y="-173.8" font-family="Times,serif" font-size="14.00" fill="#000000">vectors</text>
</g>
<!-- /Users/mmoscato/Workspace/Workbench/pvs/dependency&#45;all/Users/mmoscato/pvs/pvs/nasalib/linear_algebra&#45;&gt;/Users/mmoscato/Workspace/Workbench/pvs/dependency&#45;all/Users/mmoscato/pvs/pvs/nasalib/vectors -->
<g id="edge3" class="edge">
<title>/Users/mmoscato/Workspace/Workbench/pvs/dependency&#45;all/Users/mmoscato/pvs/pvs/nasalib/linear_algebra&#45;&gt;/Users/mmoscato/Workspace/Workbench/pvs/dependency&#45;all/Users/mmoscato/pvs/pvs/nasalib/vectors</title>
<path fill="none" stroke="#000000" d="M65,-231.8314C65,-231.8314 65,-206.4133 65,-206.4133"/>
<polygon fill="#000000" stroke="#000000" points="68.5001,-206.4132 65,-196.4133 61.5001,-206.4133 68.5001,-206.4132"/>
</g>
<!-- /Users/mmoscato/Workspace/Workbench/pvs/dependency&#45;all/Users/mmoscato/pvs/pvs/nasalib/reals&#45;&gt;/Users/mmoscato/Workspace/Workbench/pvs/dependency&#45;all/Users/mmoscato/pvs/pvs/nasalib/structures -->
<g id="edge4" class="edge">
<title>/Users/mmoscato/Workspace/Workbench/pvs/dependency&#45;all/Users/mmoscato/pvs/pvs/nasalib/reals&#45;&gt;/Users/mmoscato/Workspace/Workbench/pvs/dependency&#45;all/Users/mmoscato/pvs/pvs/nasalib/structures</title>
<path fill="none" stroke="#000000" d="M64,-87.8314C64,-87.8314 64,-62.4133 64,-62.4133"/>
<polygon fill="#000000" stroke="#000000" points="67.5001,-62.4132 64,-52.4133 60.5001,-62.4133 67.5001,-62.4132"/>
</g>
<!-- /Users/mmoscato/Workspace/Workbench/pvs/dependency&#45;all/Users/mmoscato/pvs/pvs/nasalib/vectors&#45;&gt;/Users/mmoscato/Workspace/Workbench/pvs/dependency&#45;all/Users/mmoscato/pvs/pvs/nasalib/reals -->
<g id="edge5" class="edge">
<title>/Users/mmoscato/Workspace/Workbench/pvs/dependency&#45;all/Users/mmoscato/pvs/pvs/nasalib/vectors&#45;&gt;/Users/mmoscato/Workspace/Workbench/pvs/dependency&#45;all/Users/mmoscato/pvs/pvs/nasalib/reals</title>
<path fill="none" stroke="#000000" d="M64,-159.8314C64,-159.8314 64,-134.4133 64,-134.4133"/>
<polygon fill="#000000" stroke="#000000" points="67.5001,-134.4132 64,-124.4133 60.5001,-134.4133 67.5001,-134.4132"/>
</g>
<!-- /Users/mmoscato/Workspace/Workbench/pvs/dependency&#45;all/Users/mmoscato/pvs/pvs/nasalib/vectors&#45;&gt;/Users/mmoscato/Workspace/Workbench/pvs/dependency&#45;all/Users/mmoscato/pvs/pvs/nasalib/structures -->
<g id="edge6" class="edge">
<title>/Users/mmoscato/Workspace/Workbench/pvs/dependency&#45;all/Users/mmoscato/pvs/pvs/nasalib/vectors&#45;&gt;/Users/mmoscato/Workspace/Workbench/pvs/dependency&#45;all/Users/mmoscato/pvs/pvs/nasalib/structures</title>
<path fill="none" stroke="#000000" d="M36.7362,-178C34.3276,-178 32.7861,-178 32.7861,-178 32.7861,-178 32.7861,-62.2377 32.7861,-62.2377"/>
<polygon fill="#000000" stroke="#000000" points="36.2862,-62.2377 32.7861,-52.2377 29.2862,-62.2377 36.2862,-62.2377"/>
</g>
</g>
</svg>
