<?xml version="1.0" encoding="UTF-8" standalone="no"?>
<!DOCTYPE svg PUBLIC "-//W3C//DTD SVG 1.1//EN"
 "http://www.w3.org/Graphics/SVG/1.1/DTD/svg11.dtd">
<!-- Generated by graphviz version 7.0.6 (20230106.0513)
 -->
<!-- Title: linear_algebra&#45;zoomed Pages: 1 -->
<svg width="532pt" height="470pt"
 viewBox="0.00 0.00 532.00 470.00" xmlns="http://www.w3.org/2000/svg" xmlns:xlink="http://www.w3.org/1999/xlink">
<g id="graph0" class="graph" transform="scale(1 1) rotate(0) translate(4 466)">
<title>linear_algebra&#45;zoomed</title>
<polygon fill="white" stroke="none" points="-4,4 -4,-466 528,-466 528,4 -4,4"/>
<g id="clust2" class="cluster">
<title>cluster_NASALib/linear_algebra</title>
<polygon fill="none" stroke="black" points="8,-91 8,-454 516,-454 516,-91 8,-91"/>
<text text-anchor="middle" x="262" y="-438.8" font-family="Times,serif" font-size="14.00">NASALib/linear_algebra</text>
</g>
<g id="clust1" class="cluster">
<title>cluster_NASALib</title>
<polygon fill="none" stroke="black" points="241,-8 241,-83 473,-83 473,-8 241,-8"/>
<text text-anchor="middle" x="357" y="-67.8" font-family="Times,serif" font-size="14.00">NASALib</text>
</g>
<!-- NASALib/linear_algebra@block_matrices -->
<g id="node1" class="node">
<title>NASALib/linear_algebra@block_matrices</title>
<ellipse fill="#e6f3ff" stroke="black" cx="235" cy="-333" rx="64.99" ry="18"/>
<text text-anchor="middle" x="235" y="-329.3" font-family="Times,serif" font-size="14.00">block_matrices</text>
</g>
<!-- NASALib/linear_algebra@matrices -->
<g id="node6" class="node">
<title>NASALib/linear_algebra@matrices</title>
<ellipse fill="#e6f3ff" stroke="black" cx="319" cy="-261" rx="40.89" ry="18"/>
<text text-anchor="middle" x="319" y="-257.3" font-family="Times,serif" font-size="14.00">matrices</text>
</g>
<!-- NASALib/linear_algebra@block_matrices&#45;&gt;NASALib/linear_algebra@matrices -->
<g id="edge1" class="edge">
<title>NASALib/linear_algebra@block_matrices&#45;&gt;NASALib/linear_algebra@matrices</title>
<path fill="none" stroke="black" d="M254.91,-315.41C265.89,-306.26 279.68,-294.76 291.66,-284.78"/>
<polygon fill="black" stroke="black" points="293.78,-287.57 299.22,-278.48 289.3,-282.19 293.78,-287.57"/>
</g>
<!-- NASALib/linear_algebra@sigma_lemmas -->
<g id="node9" class="node">
<title>NASALib/linear_algebra@sigma_lemmas</title>
<ellipse fill="#e6f3ff" stroke="black" cx="215" cy="-189" rx="64.99" ry="18"/>
<text text-anchor="middle" x="215" y="-185.3" font-family="Times,serif" font-size="14.00">sigma_lemmas</text>
</g>
<!-- NASALib/linear_algebra@block_matrices&#45;&gt;NASALib/linear_algebra@sigma_lemmas -->
<g id="edge2" class="edge">
<title>NASALib/linear_algebra@block_matrices&#45;&gt;NASALib/linear_algebra@sigma_lemmas</title>
<path fill="none" stroke="black" d="M232.55,-314.59C229.17,-290.61 223.05,-247.14 219,-218.42"/>
<polygon fill="black" stroke="black" points="222.48,-218.02 217.62,-208.61 215.55,-219 222.48,-218.02"/>
</g>
<!-- NASALib/linear_algebra@elementary_matrices -->
<g id="node2" class="node">
<title>NASALib/linear_algebra@elementary_matrices</title>
<ellipse fill="#e6f3ff" stroke="black" cx="423" cy="-333" rx="85.29" ry="18"/>
<text text-anchor="middle" x="423" y="-329.3" font-family="Times,serif" font-size="14.00">elementary_matrices</text>
</g>
<!-- NASALib/linear_algebra@elementary_matrices&#45;&gt;NASALib/linear_algebra@matrices -->
<g id="edge3" class="edge">
<title>NASALib/linear_algebra@elementary_matrices&#45;&gt;NASALib/linear_algebra@matrices</title>
<path fill="none" stroke="black" d="M398.35,-315.41C383.83,-305.63 365.32,-293.18 349.84,-282.76"/>
<polygon fill="black" stroke="black" points="352.15,-280.1 341.9,-277.42 348.24,-285.9 352.15,-280.1"/>
</g>
<!-- NASALib/reals -->
<g id="node12" class="node">
<title>NASALib/reals</title>
<polygon fill="#fcfcd7" stroke="black" points="465,-52 411,-52 411,-16 465,-16 465,-52"/>
<text text-anchor="middle" x="438" y="-30.3" font-family="Times,serif" font-size="14.00">reals</text>
</g>
<!-- NASALib/linear_algebra@elementary_matrices&#45;&gt;NASALib/reals -->
<g id="edge4" class="edge">
<title>NASALib/linear_algebra@elementary_matrices&#45;&gt;NASALib/reals</title>
<path fill="none" stroke="black" d="M438,-116C438,-116 438,-86.96 438,-63.66"/>
<polygon fill="black" stroke="black" points="441.5,-63.69 438,-53.69 434.5,-63.69 441.5,-63.69"/>
</g>
<!-- NASALib/structures -->
<g id="node13" class="node">
<title>NASALib/structures</title>
<polygon fill="#fcfcd7" stroke="black" points="392.5,-52 323.5,-52 323.5,-16 392.5,-16 392.5,-52"/>
<text text-anchor="middle" x="358" y="-30.3" font-family="Times,serif" font-size="14.00">structures</text>
</g>
<!-- NASALib/linear_algebra@elementary_matrices&#45;&gt;NASALib/structures -->
<g id="edge5" class="edge">
<title>NASALib/linear_algebra@elementary_matrices&#45;&gt;NASALib/structures</title>
<path fill="none" stroke="black" d="M438,-116C438,-116 402,-83 402,-83 402,-83 391.96,-72.04 381.47,-60.6"/>
<polygon fill="black" stroke="black" points="384.25,-58.45 374.91,-53.44 379.08,-63.18 384.25,-58.45"/>
<path fill="none" stroke="black" d="M424.2,-314.85C427.76,-264.07 438,-118 438,-118"/>
</g>
<!-- NASALib/linear_algebra@ellipsoid -->
<g id="node3" class="node">
<title>NASALib/linear_algebra@ellipsoid</title>
<ellipse fill="#e6f3ff" stroke="black" cx="264" cy="-405" rx="40.89" ry="18"/>
<text text-anchor="middle" x="264" y="-401.3" font-family="Times,serif" font-size="14.00">ellipsoid</text>
</g>
<!-- NASALib/linear_algebra@ellipsoid&#45;&gt;NASALib/linear_algebra@matrices -->
<g id="edge6" class="edge">
<title>NASALib/linear_algebra@ellipsoid&#45;&gt;NASALib/linear_algebra@matrices</title>
<path fill="none" stroke="black" d="M277.75,-387.81C290.98,-372.22 309,-351 309,-351 309,-351 312.88,-316.42 315.81,-290.37"/>
<polygon fill="black" stroke="black" points="319.26,-290.99 316.9,-280.66 312.31,-290.21 319.26,-290.99"/>
</g>
<!-- NASALib/linear_algebra@matrix_operator -->
<g id="node8" class="node">
<title>NASALib/linear_algebra@matrix_operator</title>
<ellipse fill="#e6f3ff" stroke="black" cx="84" cy="-333" rx="67.69" ry="18"/>
<text text-anchor="middle" x="84" y="-329.3" font-family="Times,serif" font-size="14.00">matrix_operator</text>
</g>
<!-- NASALib/linear_algebra@ellipsoid&#45;&gt;NASALib/linear_algebra@matrix_operator -->
<g id="edge7" class="edge">
<title>NASALib/linear_algebra@ellipsoid&#45;&gt;NASALib/linear_algebra@matrix_operator</title>
<path fill="none" stroke="black" d="M234.28,-392.44C206.47,-381.63 164.44,-365.28 131.9,-352.63"/>
<polygon fill="black" stroke="black" points="133.26,-349.4 122.67,-349.04 130.72,-355.93 133.26,-349.4"/>
</g>
<!-- NASALib/linear_algebra@linear_map -->
<g id="node4" class="node">
<title>NASALib/linear_algebra@linear_map</title>
<ellipse fill="#e6f3ff" stroke="black" cx="74" cy="-117" rx="50.89" ry="18"/>
<text text-anchor="middle" x="74" y="-113.3" font-family="Times,serif" font-size="14.00">linear_map</text>
</g>
<!-- NASALib/vectors -->
<g id="node14" class="node">
<title>NASALib/vectors</title>
<polygon fill="#fcfcd7" stroke="black" points="305,-52 249,-52 249,-16 305,-16 305,-52"/>
<text text-anchor="middle" x="277" y="-30.3" font-family="Times,serif" font-size="14.00">vectors</text>
</g>
<!-- NASALib/linear_algebra@linear_map&#45;&gt;NASALib/vectors -->
<g id="edge8" class="edge">
<title>NASALib/linear_algebra@linear_map&#45;&gt;NASALib/vectors</title>
<path fill="none" stroke="black" d="M106.62,-102.99C142.57,-88.64 200.37,-65.58 238.52,-50.35"/>
<polygon fill="black" stroke="black" points="239.33,-53.8 247.32,-46.84 236.73,-47.3 239.33,-53.8"/>
</g>
<!-- NASALib/linear_algebra@linear_map_def -->
<g id="node5" class="node">
<title>NASALib/linear_algebra@linear_map_def</title>
<ellipse fill="#e6f3ff" stroke="black" cx="84" cy="-261" rx="66.09" ry="18"/>
<text text-anchor="middle" x="84" y="-257.3" font-family="Times,serif" font-size="14.00">linear_map_def</text>
</g>
<!-- NASALib/linear_algebra@linear_map_def&#45;&gt;NASALib/linear_algebra@sigma_lemmas -->
<g id="edge9" class="edge">
<title>NASALib/linear_algebra@linear_map_def&#45;&gt;NASALib/linear_algebra@sigma_lemmas</title>
<path fill="none" stroke="black" d="M113.07,-244.46C131.56,-234.59 155.72,-221.67 175.88,-210.9"/>
<polygon fill="black" stroke="black" points="177.5,-214.01 184.67,-206.21 174.2,-207.83 177.5,-214.01"/>
</g>
<!-- NASALib/linear_algebra@sigma_vector -->
<g id="node10" class="node">
<title>NASALib/linear_algebra@sigma_vector</title>
<ellipse fill="#e6f3ff" stroke="black" cx="74" cy="-189" rx="58.49" ry="18"/>
<text text-anchor="middle" x="74" y="-185.3" font-family="Times,serif" font-size="14.00">sigma_vector</text>
</g>
<!-- NASALib/linear_algebra@linear_map_def&#45;&gt;NASALib/linear_algebra@sigma_vector -->
<g id="edge10" class="edge">
<title>NASALib/linear_algebra@linear_map_def&#45;&gt;NASALib/linear_algebra@sigma_vector</title>
<path fill="none" stroke="black" d="M81.53,-242.7C80.47,-235.32 79.22,-226.52 78.04,-218.25"/>
<polygon fill="black" stroke="black" points="81.54,-218.01 76.66,-208.6 74.61,-219 81.54,-218.01"/>
</g>
<!-- NASALib/linear_algebra@vect_of_vect -->
<g id="node11" class="node">
<title>NASALib/linear_algebra@vect_of_vect</title>
<ellipse fill="#e6f3ff" stroke="black" cx="354" cy="-189" rx="55.79" ry="18"/>
<text text-anchor="middle" x="354" y="-185.3" font-family="Times,serif" font-size="14.00">vect_of_vect</text>
</g>
<!-- NASALib/linear_algebra@matrices&#45;&gt;NASALib/linear_algebra@vect_of_vect -->
<g id="edge11" class="edge">
<title>NASALib/linear_algebra@matrices&#45;&gt;NASALib/linear_algebra@vect_of_vect</title>
<path fill="none" stroke="black" d="M327.47,-243.05C331.33,-235.35 335.99,-226.03 340.32,-217.36"/>
<polygon fill="black" stroke="black" points="343.34,-219.14 344.69,-208.63 337.08,-216.01 343.34,-219.14"/>
</g>
<!-- NASALib/linear_algebra@matrix_lemmas -->
<g id="node7" class="node">
<title>NASALib/linear_algebra@matrix_lemmas</title>
<ellipse fill="#e6f3ff" stroke="black" cx="84" cy="-405" rx="66.89" ry="18"/>
<text text-anchor="middle" x="84" y="-401.3" font-family="Times,serif" font-size="14.00">matrix_lemmas</text>
</g>
<!-- NASALib/linear_algebra@matrix_lemmas&#45;&gt;NASALib/linear_algebra@matrix_operator -->
<g id="edge12" class="edge">
<title>NASALib/linear_algebra@matrix_lemmas&#45;&gt;NASALib/linear_algebra@matrix_operator</title>
<path fill="none" stroke="black" d="M84,-386.7C84,-379.41 84,-370.73 84,-362.54"/>
<polygon fill="black" stroke="black" points="87.5,-362.62 84,-352.62 80.5,-362.62 87.5,-362.62"/>
</g>
<!-- NASALib/linear_algebra@matrix_operator&#45;&gt;NASALib/linear_algebra@linear_map_def -->
<g id="edge13" class="edge">
<title>NASALib/linear_algebra@matrix_operator&#45;&gt;NASALib/linear_algebra@linear_map_def</title>
<path fill="none" stroke="black" d="M84,-314.7C84,-307.41 84,-298.73 84,-290.54"/>
<polygon fill="black" stroke="black" points="87.5,-290.62 84,-280.62 80.5,-290.62 87.5,-290.62"/>
</g>
<!-- NASALib/linear_algebra@matrix_operator&#45;&gt;NASALib/linear_algebra@matrices -->
<g id="edge14" class="edge">
<title>NASALib/linear_algebra@matrix_operator&#45;&gt;NASALib/linear_algebra@matrices</title>
<path fill="none" stroke="black" d="M127.93,-318.92C169.91,-306.41 232.86,-287.66 274.9,-275.14"/>
<polygon fill="black" stroke="black" points="275.87,-278.5 284.45,-272.29 273.87,-271.79 275.87,-278.5"/>
</g>
<!-- NASALib/linear_algebra@sigma_lemmas&#45;&gt;NASALib/vectors -->
<g id="edge15" class="edge">
<title>NASALib/linear_algebra@sigma_lemmas&#45;&gt;NASALib/vectors</title>
<path fill="none" stroke="black" d="M315,-116C315,-116 300.87,-85.89 289.85,-62.38"/>
<polygon fill="black" stroke="black" points="293.12,-61.11 285.7,-53.55 286.78,-64.09 293.12,-61.11"/>
<path fill="none" stroke="black" d="M238.19,-171.76C267.73,-151.09 315,-118 315,-118"/>
</g>
<!-- NASALib/linear_algebra@sigma_vector&#45;&gt;NASALib/linear_algebra@linear_map -->
<g id="edge16" class="edge">
<title>NASALib/linear_algebra@sigma_vector&#45;&gt;NASALib/linear_algebra@linear_map</title>
<path fill="none" stroke="black" d="M74,-170.7C74,-163.41 74,-154.73 74,-146.54"/>
<polygon fill="black" stroke="black" points="77.5,-146.62 74,-136.62 70.5,-146.62 77.5,-146.62"/>
</g>
<!-- NASALib/linear_algebra@vect_of_vect&#45;&gt;NASALib/vectors -->
<g id="edge17" class="edge">
<title>NASALib/linear_algebra@vect_of_vect&#45;&gt;NASALib/vectors</title>
<path fill="none" stroke="black" d="M344.56,-171.05C333.02,-150.34 315,-118 315,-118"/>
</g>
</g>
</svg>
