<?xml version="1.0" encoding="UTF-8" standalone="no"?>
<!DOCTYPE svg PUBLIC "-//W3C//DTD SVG 1.1//EN"
 "http://www.w3.org/Graphics/SVG/1.1/DTD/svg11.dtd">
<!-- Generated by graphviz version 2.44.1 (20200629.0846)
 -->
<!-- Title: linear_algebra&#45;zoomed Pages: 1 -->
<svg width="532pt" height="470pt"
 viewBox="0.00 0.00 532.00 470.00" xmlns="http://www.w3.org/2000/svg" xmlns:xlink="http://www.w3.org/1999/xlink">
<g id="graph0" class="graph" transform="scale(1 1) rotate(0) translate(4 466)">
<title>linear_algebra&#45;zoomed</title>
<polygon fill="white" stroke="transparent" points="-4,4 -4,-466 528,-466 528,4 -4,4"/>
<g id="clust1" class="cluster">
<title>cluster_NASALib</title>
<polygon fill="none" stroke="black" points="241,-8 241,-83 473,-83 473,-8 241,-8"/>
<text text-anchor="middle" x="357" y="-67.8" font-family="Times,serif" font-size="14.00">NASALib</text>
</g>
<g id="clust2" class="cluster">
<title>cluster_NASALib/linear_algebra</title>
<polygon fill="none" stroke="black" points="8,-91 8,-454 516,-454 516,-91 8,-91"/>
<text text-anchor="middle" x="262" y="-438.8" font-family="Times,serif" font-size="14.00">NASALib/linear_algebra</text>
</g>
<!-- nasalib/linear_algebra@block_matrices -->
<g id="node1" class="node">
<title>nasalib/linear_algebra@block_matrices</title>
<ellipse fill="#e6f3ff" stroke="black" cx="235" cy="-333" rx="64.99" ry="18"/>
<text text-anchor="middle" x="235" y="-329.3" font-family="Times,serif" font-size="14.00">block_matrices</text>
</g>
<!-- nasalib/linear_algebra@matrices -->
<g id="node6" class="node">
<title>nasalib/linear_algebra@matrices</title>
<ellipse fill="#e6f3ff" stroke="black" cx="319" cy="-261" rx="40.89" ry="18"/>
<text text-anchor="middle" x="319" y="-257.3" font-family="Times,serif" font-size="14.00">matrices</text>
</g>
<!-- nasalib/linear_algebra@block_matrices&#45;&gt;nasalib/linear_algebra@matrices -->
<g id="edge1" class="edge">
<title>nasalib/linear_algebra@block_matrices&#45;&gt;nasalib/linear_algebra@matrices</title>
<path fill="none" stroke="black" d="M289.02,-322.99C289.02,-322.99 289.02,-283.34 289.02,-283.34"/>
<polygon fill="black" stroke="black" points="292.52,-283.34 289.02,-273.34 285.52,-283.34 292.52,-283.34"/>
</g>
<!-- nasalib/linear_algebra@sigma_lemmas -->
<g id="node9" class="node">
<title>nasalib/linear_algebra@sigma_lemmas</title>
<ellipse fill="#e6f3ff" stroke="black" cx="215" cy="-189" rx="64.99" ry="18"/>
<text text-anchor="middle" x="215" y="-185.3" font-family="Times,serif" font-size="14.00">sigma_lemmas</text>
</g>
<!-- nasalib/linear_algebra@block_matrices&#45;&gt;nasalib/linear_algebra@sigma_lemmas -->
<g id="edge2" class="edge">
<title>nasalib/linear_algebra@block_matrices&#45;&gt;nasalib/linear_algebra@sigma_lemmas</title>
<path fill="none" stroke="black" d="M224.03,-315.05C224.03,-315.05 224.03,-217.17 224.03,-217.17"/>
<polygon fill="black" stroke="black" points="227.53,-217.17 224.03,-207.17 220.53,-217.17 227.53,-217.17"/>
</g>
<!-- nasalib/linear_algebra@elementary_matrices -->
<g id="node2" class="node">
<title>nasalib/linear_algebra@elementary_matrices</title>
<ellipse fill="#e6f3ff" stroke="black" cx="423" cy="-333" rx="85.29" ry="18"/>
<text text-anchor="middle" x="423" y="-329.3" font-family="Times,serif" font-size="14.00">elementary_matrices</text>
</g>
<!-- nasalib/linear_algebra@elementary_matrices&#45;&gt;nasalib/linear_algebra@matrices -->
<g id="edge3" class="edge">
<title>nasalib/linear_algebra@elementary_matrices&#45;&gt;nasalib/linear_algebra@matrices</title>
<path fill="none" stroke="black" d="M348.9,-323.88C348.9,-323.88 348.9,-283.42 348.9,-283.42"/>
<polygon fill="black" stroke="black" points="352.4,-283.42 348.9,-273.42 345.4,-283.42 352.4,-283.42"/>
</g>
<!-- nasalib/reals -->
<g id="node12" class="node">
<title>nasalib/reals</title>
<polygon fill="#fcfcd7" stroke="black" points="465,-52 411,-52 411,-16 465,-16 465,-52"/>
<text text-anchor="middle" x="438" y="-30.3" font-family="Times,serif" font-size="14.00">reals</text>
</g>
<!-- nasalib/linear_algebra@elementary_matrices&#45;&gt;nasalib/reals -->
<g id="edge4" class="edge">
<title>nasalib/linear_algebra@elementary_matrices&#45;&gt;nasalib/reals</title>
<path fill="none" stroke="black" d="M447,-315.63C447,-315.63 447,-62.17 447,-62.17"/>
<polygon fill="black" stroke="black" points="450.5,-62.17 447,-52.17 443.5,-62.17 450.5,-62.17"/>
</g>
<!-- nasalib/structures -->
<g id="node13" class="node">
<title>nasalib/structures</title>
<polygon fill="#fcfcd7" stroke="black" points="392.5,-52 323.5,-52 323.5,-16 392.5,-16 392.5,-52"/>
<text text-anchor="middle" x="358" y="-30.3" font-family="Times,serif" font-size="14.00">structures</text>
</g>
<!-- nasalib/linear_algebra@elementary_matrices&#45;&gt;nasalib/structures -->
<g id="edge5" class="edge">
<title>nasalib/linear_algebra@elementary_matrices&#45;&gt;nasalib/structures</title>
<path fill="none" stroke="black" d="M429,-314.75C429,-268.99 429,-153 429,-153 429,-153 358,-153 358,-153 358,-153 358,-62.07 358,-62.07"/>
<polygon fill="black" stroke="black" points="361.5,-62.07 358,-52.07 354.5,-62.07 361.5,-62.07"/>
</g>
<!-- nasalib/linear_algebra@ellipsoid -->
<g id="node3" class="node">
<title>nasalib/linear_algebra@ellipsoid</title>
<ellipse fill="#e6f3ff" stroke="black" cx="264" cy="-405" rx="40.89" ry="18"/>
<text text-anchor="middle" x="264" y="-401.3" font-family="Times,serif" font-size="14.00">ellipsoid</text>
</g>
<!-- nasalib/linear_algebra@ellipsoid&#45;&gt;nasalib/linear_algebra@matrices -->
<g id="edge6" class="edge">
<title>nasalib/linear_algebra@ellipsoid&#45;&gt;nasalib/linear_algebra@matrices</title>
<path fill="none" stroke="black" d="M305.11,-405C314.31,-405 321.4,-405 321.4,-405 321.4,-405 321.4,-289.24 321.4,-289.24"/>
<polygon fill="black" stroke="black" points="324.9,-289.24 321.4,-279.24 317.9,-289.24 324.9,-289.24"/>
</g>
<!-- nasalib/linear_algebra@matrix_operator -->
<g id="node8" class="node">
<title>nasalib/linear_algebra@matrix_operator</title>
<ellipse fill="#e6f3ff" stroke="black" cx="84" cy="-333" rx="67.69" ry="18"/>
<text text-anchor="middle" x="84" y="-329.3" font-family="Times,serif" font-size="14.00">matrix_operator</text>
</g>
<!-- nasalib/linear_algebra@ellipsoid&#45;&gt;nasalib/linear_algebra@matrix_operator -->
<g id="edge7" class="edge">
<title>nasalib/linear_algebra@ellipsoid&#45;&gt;nasalib/linear_algebra@matrix_operator</title>
<path fill="none" stroke="black" d="M222.98,-405C195.33,-405 163.87,-405 163.87,-405 163.87,-405 163.87,-339 163.87,-339 163.87,-339 158.09,-339 158.09,-339"/>
<polygon fill="black" stroke="black" points="158.09,-335.5 148.09,-339 158.09,-342.5 158.09,-335.5"/>
</g>
<!-- nasalib/linear_algebra@linear_map -->
<g id="node4" class="node">
<title>nasalib/linear_algebra@linear_map</title>
<ellipse fill="#e6f3ff" stroke="black" cx="74" cy="-117" rx="50.89" ry="18"/>
<text text-anchor="middle" x="74" y="-113.3" font-family="Times,serif" font-size="14.00">linear_map</text>
</g>
<!-- nasalib/vectors -->
<g id="node14" class="node">
<title>nasalib/vectors</title>
<polygon fill="#fcfcd7" stroke="black" points="305,-52 249,-52 249,-16 305,-16 305,-52"/>
<text text-anchor="middle" x="277" y="-30.3" font-family="Times,serif" font-size="14.00">vectors</text>
</g>
<!-- nasalib/linear_algebra@linear_map&#45;&gt;nasalib/vectors -->
<g id="edge10" class="edge">
<title>nasalib/linear_algebra@linear_map&#45;&gt;nasalib/vectors</title>
<path fill="none" stroke="black" d="M125.13,-117C179.99,-117 259.33,-117 259.33,-117 259.33,-117 259.33,-62.01 259.33,-62.01"/>
<polygon fill="black" stroke="black" points="262.83,-62.01 259.33,-52.01 255.83,-62.01 262.83,-62.01"/>
</g>
<!-- nasalib/linear_algebra@linear_map_def -->
<g id="node5" class="node">
<title>nasalib/linear_algebra@linear_map_def</title>
<ellipse fill="#e6f3ff" stroke="black" cx="84" cy="-261" rx="66.09" ry="18"/>
<text text-anchor="middle" x="84" y="-257.3" font-family="Times,serif" font-size="14.00">linear_map_def</text>
</g>
<!-- nasalib/linear_algebra@linear_map_def&#45;&gt;nasalib/linear_algebra@sigma_lemmas -->
<g id="edge8" class="edge">
<title>nasalib/linear_algebra@linear_map_def&#45;&gt;nasalib/linear_algebra@sigma_lemmas</title>
<path fill="none" stroke="black" d="M141.25,-251.88C141.25,-232.51 141.25,-189 141.25,-189 141.25,-189 142.13,-189 142.13,-189"/>
<polygon fill="black" stroke="black" points="140,-192.5 150,-189 140,-185.5 140,-192.5"/>
</g>
<!-- nasalib/linear_algebra@sigma_vector -->
<g id="node10" class="node">
<title>nasalib/linear_algebra@sigma_vector</title>
<ellipse fill="#e6f3ff" stroke="black" cx="74" cy="-189" rx="58.49" ry="18"/>
<text text-anchor="middle" x="74" y="-185.3" font-family="Times,serif" font-size="14.00">sigma_vector</text>
</g>
<!-- nasalib/linear_algebra@linear_map_def&#45;&gt;nasalib/linear_algebra@sigma_vector -->
<g id="edge9" class="edge">
<title>nasalib/linear_algebra@linear_map_def&#45;&gt;nasalib/linear_algebra@sigma_vector</title>
<path fill="none" stroke="black" d="M75.1,-242.83C75.1,-242.83 75.1,-217.41 75.1,-217.41"/>
<polygon fill="black" stroke="black" points="78.6,-217.41 75.1,-207.41 71.6,-217.41 78.6,-217.41"/>
</g>
<!-- nasalib/linear_algebra@vect_of_vect -->
<g id="node11" class="node">
<title>nasalib/linear_algebra@vect_of_vect</title>
<ellipse fill="#e6f3ff" stroke="black" cx="354" cy="-189" rx="55.79" ry="18"/>
<text text-anchor="middle" x="354" y="-185.3" font-family="Times,serif" font-size="14.00">vect_of_vect</text>
</g>
<!-- nasalib/linear_algebra@matrices&#45;&gt;nasalib/linear_algebra@vect_of_vect -->
<g id="edge11" class="edge">
<title>nasalib/linear_algebra@matrices&#45;&gt;nasalib/linear_algebra@vect_of_vect</title>
<path fill="none" stroke="black" d="M329.03,-243.2C329.03,-243.2 329.03,-215.12 329.03,-215.12"/>
<polygon fill="black" stroke="black" points="332.53,-215.12 329.03,-205.12 325.53,-215.12 332.53,-215.12"/>
</g>
<!-- nasalib/linear_algebra@matrix_lemmas -->
<g id="node7" class="node">
<title>nasalib/linear_algebra@matrix_lemmas</title>
<ellipse fill="#e6f3ff" stroke="black" cx="84" cy="-405" rx="66.89" ry="18"/>
<text text-anchor="middle" x="84" y="-401.3" font-family="Times,serif" font-size="14.00">matrix_lemmas</text>
</g>
<!-- nasalib/linear_algebra@matrix_lemmas&#45;&gt;nasalib/linear_algebra@matrix_operator -->
<g id="edge12" class="edge">
<title>nasalib/linear_algebra@matrix_lemmas&#45;&gt;nasalib/linear_algebra@matrix_operator</title>
<path fill="none" stroke="black" d="M84,-386.83C84,-386.83 84,-361.41 84,-361.41"/>
<polygon fill="black" stroke="black" points="87.5,-361.41 84,-351.41 80.5,-361.41 87.5,-361.41"/>
</g>
<!-- nasalib/linear_algebra@matrix_operator&#45;&gt;nasalib/linear_algebra@linear_map_def -->
<g id="edge13" class="edge">
<title>nasalib/linear_algebra@matrix_operator&#45;&gt;nasalib/linear_algebra@linear_map_def</title>
<path fill="none" stroke="black" d="M84,-314.83C84,-314.83 84,-289.41 84,-289.41"/>
<polygon fill="black" stroke="black" points="87.5,-289.41 84,-279.41 80.5,-289.41 87.5,-289.41"/>
</g>
<!-- nasalib/linear_algebra@matrix_operator&#45;&gt;nasalib/linear_algebra@matrices -->
<g id="edge14" class="edge">
<title>nasalib/linear_algebra@matrix_operator&#45;&gt;nasalib/linear_algebra@matrices</title>
<path fill="none" stroke="black" d="M147.79,-327C153.81,-327 157.73,-327 157.73,-327 157.73,-327 157.73,-261 157.73,-261 157.73,-261 267.89,-261 267.89,-261"/>
<polygon fill="black" stroke="black" points="267.89,-264.5 277.89,-261 267.89,-257.5 267.89,-264.5"/>
</g>
<!-- nasalib/linear_algebra@sigma_lemmas&#45;&gt;nasalib/vectors -->
<g id="edge15" class="edge">
<title>nasalib/linear_algebra@sigma_lemmas&#45;&gt;nasalib/vectors</title>
<path fill="none" stroke="black" d="M269.66,-178.83C269.66,-178.83 269.66,-62.04 269.66,-62.04"/>
<polygon fill="black" stroke="black" points="273.16,-62.04 269.66,-52.04 266.16,-62.04 273.16,-62.04"/>
</g>
<!-- nasalib/linear_algebra@sigma_vector&#45;&gt;nasalib/linear_algebra@linear_map -->
<g id="edge16" class="edge">
<title>nasalib/linear_algebra@sigma_vector&#45;&gt;nasalib/linear_algebra@linear_map</title>
<path fill="none" stroke="black" d="M74,-170.83C74,-170.83 74,-145.41 74,-145.41"/>
<polygon fill="black" stroke="black" points="77.5,-145.41 74,-135.41 70.5,-145.41 77.5,-145.41"/>
</g>
<!-- nasalib/linear_algebra@vect_of_vect&#45;&gt;nasalib/vectors -->
<g id="edge17" class="edge">
<title>nasalib/linear_algebra@vect_of_vect&#45;&gt;nasalib/vectors</title>
<path fill="none" stroke="black" d="M314.25,-176.32C314.25,-139.3 314.25,-34 314.25,-34 314.25,-34 313.35,-34 313.35,-34"/>
<polygon fill="black" stroke="black" points="315.23,-30.5 305.23,-34 315.23,-37.5 315.23,-30.5"/>
</g>
</g>
</svg>
