<?xml version="1.0" encoding="UTF-8" standalone="no"?>
<!DOCTYPE svg PUBLIC "-//W3C//DTD SVG 1.1//EN"
 "http://www.w3.org/Graphics/SVG/1.1/DTD/svg11.dtd">
<!-- Generated by graphviz version 8.0.4 (20230421.1958)
 -->
<!-- Title: linear_algebra Pages: 1 -->
<svg width="258pt" height="689pt"
 viewBox="0.00 0.00 258.00 689.00" xmlns="http://www.w3.org/2000/svg" xmlns:xlink="http://www.w3.org/1999/xlink">
<g id="graph0" class="graph" transform="scale(1 1) rotate(0) translate(4 685)">
<title>linear_algebra</title>
<polygon fill="white" stroke="none" points="-4,4 -4,-685 254,-685 254,4 -4,4"/>
<g id="clust1" class="cluster">
<title>cluster_NASALib</title>
<polygon fill="none" stroke="black" points="8,-92.5 8,-673 230,-673 230,-92.5 8,-92.5"/>
<text text-anchor="middle" x="119" y="-655.7" font-family="Times,serif" font-size="14.00">NASALib</text>
</g>
<g id="clust2" class="cluster">
<title>cluster_PVS Prelude</title>
<polygon fill="none" stroke="black" points="130,-8 130,-84.5 218,-84.5 218,-8 130,-8"/>
<text text-anchor="middle" x="174" y="-67.2" font-family="Times,serif" font-size="14.00">PVS Prelude</text>
</g>
<!-- NASALib/analysis -->
<g id="node1" class="node">
<title>NASALib/analysis</title>
<polygon fill="#fcfcd7" stroke="black" points="181.75,-352.5 122.25,-352.5 122.25,-316.5 181.75,-316.5 181.75,-352.5"/>
<text text-anchor="middle" x="152" y="-329.45" font-family="Times,serif" font-size="14.00">analysis</text>
</g>
<!-- NASALib/ints -->
<g id="node2" class="node">
<title>NASALib/ints</title>
<polygon fill="#fcfcd7" stroke="black" points="189,-136.5 135,-136.5 135,-100.5 189,-100.5 189,-136.5"/>
<text text-anchor="middle" x="162" y="-113.45" font-family="Times,serif" font-size="14.00">ints</text>
</g>
<!-- NASALib/analysis&#45;&gt;NASALib/ints -->
<g id="edge1" class="edge">
<title>NASALib/analysis&#45;&gt;NASALib/ints</title>
<path fill="none" stroke="black" d="M146.31,-316.2C139.5,-295.47 129,-263.5 129,-263.5"/>
<path fill="none" stroke="black" d="M129,-261.5C129,-261.5 109,-191.5 109,-191.5"/>
</g>
<!-- NASALib/orders -->
<g id="node4" class="node">
<title>NASALib/orders</title>
<polygon fill="#fcfcd7" stroke="black" points="202,-280.5 148,-280.5 148,-244.5 202,-244.5 202,-280.5"/>
<text text-anchor="middle" x="175" y="-257.45" font-family="Times,serif" font-size="14.00">orders</text>
</g>
<!-- NASALib/analysis&#45;&gt;NASALib/orders -->
<g id="edge2" class="edge">
<title>NASALib/analysis&#45;&gt;NASALib/orders</title>
<path fill="none" stroke="black" d="M157.69,-316.2C160.19,-308.57 163.2,-299.42 166,-290.9"/>
<polygon fill="black" stroke="black" points="169.58,-292.2 169.38,-281.6 162.93,-290.01 169.58,-292.2"/>
</g>
<!-- NASALib/reals -->
<g id="node5" class="node">
<title>NASALib/reals</title>
<polygon fill="#fcfcd7" stroke="black" points="90,-280.5 36,-280.5 36,-244.5 90,-244.5 90,-280.5"/>
<text text-anchor="middle" x="63" y="-257.45" font-family="Times,serif" font-size="14.00">reals</text>
</g>
<!-- NASALib/analysis&#45;&gt;NASALib/reals -->
<g id="edge3" class="edge">
<title>NASALib/analysis&#45;&gt;NASALib/reals</title>
<path fill="none" stroke="black" d="M130,-316.2C118.98,-307.53 105.47,-296.9 93.47,-287.46"/>
<polygon fill="black" stroke="black" points="96.08,-284.28 86.06,-280.85 91.75,-289.78 96.08,-284.28"/>
</g>
<!-- NASALib/structures -->
<g id="node7" class="node">
<title>NASALib/structures</title>
<polygon fill="#fcfcd7" stroke="black" points="196.25,-208.5 127.75,-208.5 127.75,-172.5 196.25,-172.5 196.25,-208.5"/>
<text text-anchor="middle" x="162" y="-185.45" font-family="Times,serif" font-size="14.00">structures</text>
</g>
<!-- NASALib/analysis&#45;&gt;NASALib/structures -->
<g id="edge4" class="edge">
<title>NASALib/analysis&#45;&gt;NASALib/structures</title>
<path fill="none" stroke="black" d="M129,-261.5C129,-261.5 139.93,-238.32 149.21,-218.64"/>
<polygon fill="black" stroke="black" points="152.74,-220.34 153.84,-209.8 146.41,-217.36 152.74,-220.34"/>
</g>
<!-- lib/finite_sets -->
<g id="node10" class="node">
<title>lib/finite_sets</title>
<polygon fill="#fcfcd7" stroke="black" points="209.75,-52 138.25,-52 138.25,-16 209.75,-16 209.75,-52"/>
<text text-anchor="middle" x="174" y="-28.95" font-family="Times,serif" font-size="14.00">finite_sets</text>
</g>
<!-- NASALib/analysis&#45;&gt;lib/finite_sets -->
<g id="edge5" class="edge">
<title>NASALib/analysis&#45;&gt;lib/finite_sets</title>
<path fill="none" stroke="black" d="M178.85,-316.15C202.76,-300.69 234,-280.5 234,-280.5 234,-280.5 250,-191.5 250,-191.5"/>
</g>
<!-- NASALib/ints&#45;&gt;lib/finite_sets -->
<g id="edge6" class="edge">
<title>NASALib/ints&#45;&gt;lib/finite_sets</title>
<path fill="none" stroke="black" d="M164.54,-100C166.1,-89.28 168.14,-75.32 169.92,-63.08"/>
<polygon fill="black" stroke="black" points="173.48,-63.87 171.46,-53.47 166.56,-62.86 173.48,-63.87"/>
</g>
<!-- NASALib/linear_algebra -->
<g id="node3" class="node">
<title>NASALib/linear_algebra</title>
<polygon fill="#f7e28d" stroke="black" points="142.62,-640.5 49.38,-640.5 49.38,-604.5 142.62,-604.5 142.62,-640.5"/>
<text text-anchor="middle" x="96" y="-617.45" font-family="Times,serif" font-size="14.00">linear_algebra</text>
</g>
<!-- NASALib/linear_algebra&#45;&gt;NASALib/reals -->
<g id="edge7" class="edge">
<title>NASALib/linear_algebra&#45;&gt;NASALib/reals</title>
<path fill="none" stroke="black" d="M84.21,-604.15C73.71,-588.69 60,-568.5 60,-568.5 60,-568.5 56,-496.5 56,-496.5 56,-496.5 55,-424.5 55,-424.5 55,-424.5 55,-388.5 55,-388.5 55,-388.5 60,-335.5 60,-335.5"/>
<path fill="none" stroke="black" d="M60,-333.5C60,-333.5 60.96,-311.16 61.79,-291.72"/>
<polygon fill="black" stroke="black" points="65.33,-291.94 62.26,-281.8 58.33,-291.64 65.33,-291.94"/>
</g>
<!-- NASALib/linear_algebra&#45;&gt;NASALib/structures -->
<g id="edge8" class="edge">
<title>NASALib/linear_algebra&#45;&gt;NASALib/structures</title>
<path fill="none" stroke="black" d="M111.33,-604.09C144.71,-566.17 221,-479.5 221,-479.5"/>
</g>
<!-- NASALib/vectors -->
<g id="node9" class="node">
<title>NASALib/vectors</title>
<polygon fill="#fcfcd7" stroke="black" points="123.5,-568.5 68.5,-568.5 68.5,-532.5 123.5,-532.5 123.5,-568.5"/>
<text text-anchor="middle" x="96" y="-545.45" font-family="Times,serif" font-size="14.00">vectors</text>
</g>
<!-- NASALib/linear_algebra&#45;&gt;NASALib/vectors -->
<g id="edge9" class="edge">
<title>NASALib/linear_algebra&#45;&gt;NASALib/vectors</title>
<path fill="none" stroke="black" d="M96,-604.2C96,-596.74 96,-587.82 96,-579.47"/>
<polygon fill="black" stroke="black" points="99.5,-579.6 96,-569.6 92.5,-579.6 99.5,-579.6"/>
</g>
<!-- NASALib/orders&#45;&gt;NASALib/structures -->
<g id="edge10" class="edge">
<title>NASALib/orders&#45;&gt;NASALib/structures</title>
<path fill="none" stroke="black" d="M171.79,-244.2C170.39,-236.65 168.71,-227.62 167.14,-219.18"/>
<polygon fill="black" stroke="black" points="170.44,-218.8 165.18,-209.6 163.56,-220.08 170.44,-218.8"/>
</g>
<!-- NASALib/orders&#45;&gt;lib/finite_sets -->
<g id="edge11" class="edge">
<title>NASALib/orders&#45;&gt;lib/finite_sets</title>
<path fill="none" stroke="black" d="M194.32,-244.15C211.53,-228.69 234,-208.5 234,-208.5 234,-208.5 250,-191.5 250,-191.5"/>
<path fill="none" stroke="black" d="M250,-189.5C250,-189.5 250,-119.5 250,-119.5"/>
</g>
<!-- NASALib/reals&#45;&gt;NASALib/ints -->
<g id="edge12" class="edge">
<title>NASALib/reals&#45;&gt;NASALib/ints</title>
<path fill="none" stroke="black" d="M74.37,-244.2C87.99,-223.47 109,-191.5 109,-191.5"/>
</g>
<!-- NASALib/reals&#45;&gt;NASALib/structures -->
<g id="edge13" class="edge">
<title>NASALib/reals&#45;&gt;NASALib/structures</title>
<path fill="none" stroke="black" d="M87.73,-244.02C100.1,-235.26 115.27,-224.54 128.66,-215.08"/>
<polygon fill="black" stroke="black" points="130.44,-217.39 136.59,-208.76 126.4,-211.68 130.44,-217.39"/>
</g>
<!-- NASALib/series -->
<g id="node6" class="node">
<title>NASALib/series</title>
<polygon fill="#fcfcd7" stroke="black" points="133,-424.5 79,-424.5 79,-388.5 133,-388.5 133,-424.5"/>
<text text-anchor="middle" x="106" y="-401.45" font-family="Times,serif" font-size="14.00">series</text>
</g>
<!-- NASALib/series&#45;&gt;NASALib/analysis -->
<g id="edge14" class="edge">
<title>NASALib/series&#45;&gt;NASALib/analysis</title>
<path fill="none" stroke="black" d="M117.37,-388.2C122.61,-380.23 128.93,-370.6 134.74,-361.76"/>
<polygon fill="black" stroke="black" points="138.19,-363.88 140.76,-353.6 132.34,-360.04 138.19,-363.88"/>
</g>
<!-- NASALib/series&#45;&gt;NASALib/ints -->
<g id="edge15" class="edge">
<title>NASALib/series&#45;&gt;NASALib/ints</title>
<path fill="none" stroke="black" d="M103,-333.5C103,-333.5 109,-191.5 109,-191.5"/>
</g>
<!-- NASALib/series&#45;&gt;NASALib/orders -->
<g id="edge16" class="edge">
<title>NASALib/series&#45;&gt;NASALib/orders</title>
<path fill="none" stroke="black" d="M133.36,-388.44C158.21,-372.95 191,-352.5 191,-352.5 191,-352.5 191,-316.5 191,-316.5 191,-316.5 187.21,-303.93 183.31,-291.03"/>
<polygon fill="black" stroke="black" points="186.48,-290.42 180.24,-281.85 179.78,-292.44 186.48,-290.42"/>
</g>
<!-- NASALib/series&#45;&gt;NASALib/reals -->
<g id="edge17" class="edge">
<title>NASALib/series&#45;&gt;NASALib/reals</title>
<path fill="none" stroke="black" d="M105.26,-388.2C104.37,-367.47 103,-335.5 103,-335.5"/>
<path fill="none" stroke="black" d="M103,-333.5C103,-333.5 89.51,-309.89 78.2,-290.1"/>
<polygon fill="black" stroke="black" points="80.89,-288.75 72.89,-281.8 74.81,-292.22 80.89,-288.75"/>
</g>
<!-- NASALib/structures&#45;&gt;NASALib/ints -->
<g id="edge18" class="edge">
<title>NASALib/structures&#45;&gt;NASALib/ints</title>
<path fill="none" stroke="black" d="M162,-172.2C162,-164.74 162,-155.82 162,-147.47"/>
<polygon fill="black" stroke="black" points="165.5,-147.6 162,-137.6 158.5,-147.6 165.5,-147.6"/>
</g>
<!-- NASALib/structures&#45;&gt;lib/finite_sets -->
<g id="edge19" class="edge">
<title>NASALib/structures&#45;&gt;lib/finite_sets</title>
<path fill="none" stroke="black" d="M250,-117.5C250,-117.5 219.67,-84.58 197.33,-60.33"/>
<polygon fill="black" stroke="black" points="200.47,-58.48 191.12,-53.5 195.32,-63.22 200.47,-58.48"/>
<path fill="none" stroke="black" d="M183.75,-172.2C209.81,-151.47 250,-119.5 250,-119.5"/>
</g>
<!-- NASALib/trig -->
<g id="node8" class="node">
<title>NASALib/trig</title>
<polygon fill="#fcfcd7" stroke="black" points="123,-496.5 69,-496.5 69,-460.5 123,-460.5 123,-496.5"/>
<text text-anchor="middle" x="96" y="-473.45" font-family="Times,serif" font-size="14.00">trig</text>
</g>
<!-- NASALib/trig&#45;&gt;NASALib/analysis -->
<g id="edge20" class="edge">
<title>NASALib/trig&#45;&gt;NASALib/analysis</title>
<path fill="none" stroke="black" d="M111.06,-460.15C124.48,-444.69 142,-424.5 142,-424.5 142,-424.5 145.92,-389.61 148.85,-363.52"/>
<polygon fill="black" stroke="black" points="152.43,-363.99 150.07,-353.66 145.48,-363.21 152.43,-363.99"/>
</g>
<!-- NASALib/trig&#45;&gt;NASALib/ints -->
<g id="edge21" class="edge">
<title>NASALib/trig&#45;&gt;NASALib/ints</title>
<path fill="none" stroke="black" d="M109,-189.5C109,-189.5 119,-172.5 119,-172.5 119,-172.5 130.23,-158.65 141.22,-145.12"/>
<polygon fill="black" stroke="black" points="144.34,-147.82 147.92,-137.85 138.9,-143.41 144.34,-147.82"/>
<path fill="none" stroke="black" d="M82.58,-460.15C70.62,-444.69 55,-424.5 55,-424.5 55,-424.5 27,-280.5 27,-280.5 27,-280.5 27,-244.5 27,-244.5 27,-244.5 109,-191.5 109,-191.5"/>
</g>
<!-- NASALib/trig&#45;&gt;NASALib/reals -->
<g id="edge22" class="edge">
<title>NASALib/trig&#45;&gt;NASALib/reals</title>
<path fill="none" stroke="black" d="M87.1,-460.2C76.44,-439.47 60,-407.5 60,-407.5"/>
</g>
<!-- NASALib/trig&#45;&gt;NASALib/series -->
<g id="edge23" class="edge">
<title>NASALib/trig&#45;&gt;NASALib/series</title>
<path fill="none" stroke="black" d="M98.47,-460.2C99.54,-452.74 100.81,-443.82 102,-435.47"/>
<polygon fill="black" stroke="black" points="105.61,-436 103.56,-425.6 98.68,-435.01 105.61,-436"/>
</g>
<!-- NASALib/vectors&#45;&gt;NASALib/reals -->
<g id="edge24" class="edge">
<title>NASALib/vectors&#45;&gt;NASALib/reals</title>
<path fill="none" stroke="black" d="M60,-405.5C60,-405.5 60,-335.5 60,-335.5"/>
<path fill="none" stroke="black" d="M84.21,-532.15C73.71,-516.69 60,-496.5 60,-496.5 60,-496.5 60,-407.5 60,-407.5"/>
</g>
<!-- NASALib/vectors&#45;&gt;NASALib/structures -->
<g id="edge25" class="edge">
<title>NASALib/vectors&#45;&gt;NASALib/structures</title>
<path fill="none" stroke="black" d="M221,-477.5C221,-477.5 211,-244.5 211,-244.5 211,-244.5 197.96,-230.39 185.33,-216.73"/>
<polygon fill="black" stroke="black" points="188.4,-214.82 179.04,-209.85 183.26,-219.57 188.4,-214.82"/>
<path fill="none" stroke="black" d="M123.74,-533.96C160.57,-513.34 221,-479.5 221,-479.5"/>
</g>
<!-- NASALib/vectors&#45;&gt;NASALib/trig -->
<g id="edge26" class="edge">
<title>NASALib/vectors&#45;&gt;NASALib/trig</title>
<path fill="none" stroke="black" d="M96,-532.2C96,-524.74 96,-515.82 96,-507.47"/>
<polygon fill="black" stroke="black" points="99.5,-507.6 96,-497.6 92.5,-507.6 99.5,-507.6"/>
</g>
</g>
</svg>
