<?xml version="1.0" encoding="UTF-8" standalone="no"?>
<!DOCTYPE svg PUBLIC "-//W3C//DTD SVG 1.1//EN"
 "http://www.w3.org/Graphics/SVG/1.1/DTD/svg11.dtd">
<!-- Generated by graphviz version 8.0.4 (20230421.1958)
 -->
<!-- Title: linear_algebra&#45;zoomed Pages: 1 -->
<svg width="552pt" height="473pt"
 viewBox="0.00 0.00 552.00 473.00" xmlns="http://www.w3.org/2000/svg" xmlns:xlink="http://www.w3.org/1999/xlink">
<g id="graph0" class="graph" transform="scale(1 1) rotate(0) translate(4 469)">
<title>linear_algebra&#45;zoomed</title>
<polygon fill="white" stroke="none" points="-4,4 -4,-469 548,-469 548,4 -4,4"/>
<g id="clust2" class="cluster">
<title>cluster_NASALib/linear_algebra</title>
<polygon fill="none" stroke="black" points="8,-92.5 8,-457 536,-457 536,-92.5 8,-92.5"/>
<text text-anchor="middle" x="272" y="-439.7" font-family="Times,serif" font-size="14.00">NASALib/linear_algebra</text>
</g>
<g id="clust1" class="cluster">
<title>cluster_NASALib</title>
<polygon fill="none" stroke="black" points="260,-8 260,-84.5 490,-84.5 490,-8 260,-8"/>
<text text-anchor="middle" x="375" y="-67.2" font-family="Times,serif" font-size="14.00">NASALib</text>
</g>
<!-- NASALib/linear_algebra@block_matrices -->
<g id="node1" class="node">
<title>NASALib/linear_algebra@block_matrices</title>
<ellipse fill="#e6f3ff" stroke="black" cx="244" cy="-334.5" rx="67.73" ry="18"/>
<text text-anchor="middle" x="244" y="-329.45" font-family="Times,serif" font-size="14.00">block_matrices</text>
</g>
<!-- NASALib/linear_algebra@matrices -->
<g id="node6" class="node">
<title>NASALib/linear_algebra@matrices</title>
<ellipse fill="#e6f3ff" stroke="black" cx="331" cy="-262.5" rx="42.65" ry="18"/>
<text text-anchor="middle" x="331" y="-257.45" font-family="Times,serif" font-size="14.00">matrices</text>
</g>
<!-- NASALib/linear_algebra@block_matrices&#45;&gt;NASALib/linear_algebra@matrices -->
<g id="edge1" class="edge">
<title>NASALib/linear_algebra@block_matrices&#45;&gt;NASALib/linear_algebra@matrices</title>
<path fill="none" stroke="black" d="M264.62,-316.91C276.21,-307.58 290.84,-295.81 303.41,-285.7"/>
<polygon fill="black" stroke="black" points="305.13,-288.01 310.72,-279.01 300.74,-282.55 305.13,-288.01"/>
</g>
<!-- NASALib/linear_algebra@sigma_lemmas -->
<g id="node9" class="node">
<title>NASALib/linear_algebra@sigma_lemmas</title>
<ellipse fill="#e6f3ff" stroke="black" cx="224" cy="-190.5" rx="67.73" ry="18"/>
<text text-anchor="middle" x="224" y="-185.45" font-family="Times,serif" font-size="14.00">sigma_lemmas</text>
</g>
<!-- NASALib/linear_algebra@block_matrices&#45;&gt;NASALib/linear_algebra@sigma_lemmas -->
<g id="edge2" class="edge">
<title>NASALib/linear_algebra@block_matrices&#45;&gt;NASALib/linear_algebra@sigma_lemmas</title>
<path fill="none" stroke="black" d="M241.55,-316.09C238.14,-291.9 231.94,-247.86 227.89,-219.15"/>
<polygon fill="black" stroke="black" points="231.27,-219.02 226.41,-209.61 224.34,-220 231.27,-219.02"/>
</g>
<!-- NASALib/linear_algebra@elementary_matrices -->
<g id="node2" class="node">
<title>NASALib/linear_algebra@elementary_matrices</title>
<ellipse fill="#e6f3ff" stroke="black" cx="439" cy="-334.5" rx="88.71" ry="18"/>
<text text-anchor="middle" x="439" y="-329.45" font-family="Times,serif" font-size="14.00">elementary_matrices</text>
</g>
<!-- NASALib/linear_algebra@elementary_matrices&#45;&gt;NASALib/linear_algebra@matrices -->
<g id="edge3" class="edge">
<title>NASALib/linear_algebra@elementary_matrices&#45;&gt;NASALib/linear_algebra@matrices</title>
<path fill="none" stroke="black" d="M413.41,-316.91C398.18,-307.04 378.74,-294.44 362.57,-283.96"/>
<polygon fill="black" stroke="black" points="364.78,-280.57 354.48,-278.07 360.97,-286.45 364.78,-280.57"/>
</g>
<!-- NASALib/reals -->
<g id="node12" class="node">
<title>NASALib/reals</title>
<polygon fill="#fcfcd7" stroke="black" points="482,-52 428,-52 428,-16 482,-16 482,-52"/>
<text text-anchor="middle" x="455" y="-28.95" font-family="Times,serif" font-size="14.00">reals</text>
</g>
<!-- NASALib/linear_algebra@elementary_matrices&#45;&gt;NASALib/reals -->
<g id="edge4" class="edge">
<title>NASALib/linear_algebra@elementary_matrices&#45;&gt;NASALib/reals</title>
<path fill="none" stroke="black" d="M455,-117.5C455,-117.5 455,-87.1 455,-63.21"/>
<polygon fill="black" stroke="black" points="458.5,-63.5 455,-53.5 451.5,-63.5 458.5,-63.5"/>
</g>
<!-- NASALib/structures -->
<g id="node13" class="node">
<title>NASALib/structures</title>
<polygon fill="#fcfcd7" stroke="black" points="410.25,-52 341.75,-52 341.75,-16 410.25,-16 410.25,-52"/>
<text text-anchor="middle" x="376" y="-28.95" font-family="Times,serif" font-size="14.00">structures</text>
</g>
<!-- NASALib/linear_algebra@elementary_matrices&#45;&gt;NASALib/structures -->
<g id="edge5" class="edge">
<title>NASALib/linear_algebra@elementary_matrices&#45;&gt;NASALib/structures</title>
<path fill="none" stroke="black" d="M455,-117.5C455,-117.5 419,-84.5 419,-84.5 419,-84.5 408.73,-72.67 398.22,-60.58"/>
<polygon fill="black" stroke="black" points="400.24,-58.57 391.04,-53.31 394.96,-63.16 400.24,-58.57"/>
<path fill="none" stroke="black" d="M440.28,-316.35C444.08,-265.57 455,-119.5 455,-119.5"/>
</g>
<!-- NASALib/linear_algebra@ellipsoid -->
<g id="node3" class="node">
<title>NASALib/linear_algebra@ellipsoid</title>
<ellipse fill="#e6f3ff" stroke="black" cx="274" cy="-406.5" rx="42.65" ry="18"/>
<text text-anchor="middle" x="274" y="-401.45" font-family="Times,serif" font-size="14.00">ellipsoid</text>
</g>
<!-- NASALib/linear_algebra@ellipsoid&#45;&gt;NASALib/linear_algebra@matrices -->
<g id="edge6" class="edge">
<title>NASALib/linear_algebra@ellipsoid&#45;&gt;NASALib/linear_algebra@matrices</title>
<path fill="none" stroke="black" d="M288.36,-389.31C302.18,-373.72 321,-352.5 321,-352.5 321,-352.5 324.92,-317.61 327.85,-291.52"/>
<polygon fill="black" stroke="black" points="331.43,-291.99 329.07,-281.66 324.48,-291.21 331.43,-291.99"/>
</g>
<!-- NASALib/linear_algebra@matrix_operator -->
<g id="node8" class="node">
<title>NASALib/linear_algebra@matrix_operator</title>
<ellipse fill="#e6f3ff" stroke="black" cx="87" cy="-334.5" rx="70.8" ry="18"/>
<text text-anchor="middle" x="87" y="-329.45" font-family="Times,serif" font-size="14.00">matrix_operator</text>
</g>
<!-- NASALib/linear_algebra@ellipsoid&#45;&gt;NASALib/linear_algebra@matrix_operator -->
<g id="edge7" class="edge">
<title>NASALib/linear_algebra@ellipsoid&#45;&gt;NASALib/linear_algebra@matrix_operator</title>
<path fill="none" stroke="black" d="M242.7,-393.78C213.49,-382.85 169.46,-366.37 135.66,-353.72"/>
<polygon fill="black" stroke="black" points="137.12,-350.15 126.53,-349.92 134.67,-356.71 137.12,-350.15"/>
</g>
<!-- NASALib/linear_algebra@linear_map -->
<g id="node4" class="node">
<title>NASALib/linear_algebra@linear_map</title>
<ellipse fill="#e6f3ff" stroke="black" cx="77" cy="-118.5" rx="52.89" ry="18"/>
<text text-anchor="middle" x="77" y="-113.45" font-family="Times,serif" font-size="14.00">linear_map</text>
</g>
<!-- NASALib/vectors -->
<g id="node14" class="node">
<title>NASALib/vectors</title>
<polygon fill="#fcfcd7" stroke="black" points="323.5,-52 268.5,-52 268.5,-16 323.5,-16 323.5,-52"/>
<text text-anchor="middle" x="296" y="-28.95" font-family="Times,serif" font-size="14.00">vectors</text>
</g>
<!-- NASALib/linear_algebra@linear_map&#45;&gt;NASALib/vectors -->
<g id="edge8" class="edge">
<title>NASALib/linear_algebra@linear_map&#45;&gt;NASALib/vectors</title>
<path fill="none" stroke="black" d="M111.22,-104.61C151.06,-89.6 216.67,-64.89 258.04,-49.3"/>
<polygon fill="black" stroke="black" points="259.14,-52.25 267.26,-45.45 256.67,-45.7 259.14,-52.25"/>
</g>
<!-- NASALib/linear_algebra@linear_map_def -->
<g id="node5" class="node">
<title>NASALib/linear_algebra@linear_map_def</title>
<ellipse fill="#e6f3ff" stroke="black" cx="87" cy="-262.5" rx="69.26" ry="18"/>
<text text-anchor="middle" x="87" y="-257.45" font-family="Times,serif" font-size="14.00">linear_map_def</text>
</g>
<!-- NASALib/linear_algebra@linear_map_def&#45;&gt;NASALib/linear_algebra@sigma_lemmas -->
<g id="edge9" class="edge">
<title>NASALib/linear_algebra@linear_map_def&#45;&gt;NASALib/linear_algebra@sigma_lemmas</title>
<path fill="none" stroke="black" d="M117.4,-245.96C137,-235.95 162.7,-222.82 183.96,-211.96"/>
<polygon fill="black" stroke="black" points="185.37,-214.66 192.68,-206.99 182.18,-208.43 185.37,-214.66"/>
</g>
<!-- NASALib/linear_algebra@sigma_vector -->
<g id="node10" class="node">
<title>NASALib/linear_algebra@sigma_vector</title>
<ellipse fill="#e6f3ff" stroke="black" cx="77" cy="-190.5" rx="61.08" ry="18"/>
<text text-anchor="middle" x="77" y="-185.45" font-family="Times,serif" font-size="14.00">sigma_vector</text>
</g>
<!-- NASALib/linear_algebra@linear_map_def&#45;&gt;NASALib/linear_algebra@sigma_vector -->
<g id="edge10" class="edge">
<title>NASALib/linear_algebra@linear_map_def&#45;&gt;NASALib/linear_algebra@sigma_vector</title>
<path fill="none" stroke="black" d="M84.53,-244.2C83.46,-236.74 82.19,-227.82 81,-219.47"/>
<polygon fill="black" stroke="black" points="84.32,-219.01 79.44,-209.6 77.39,-220 84.32,-219.01"/>
</g>
<!-- NASALib/linear_algebra@vect_of_vect -->
<g id="node11" class="node">
<title>NASALib/linear_algebra@vect_of_vect</title>
<ellipse fill="#e6f3ff" stroke="black" cx="368" cy="-190.5" rx="58.52" ry="18"/>
<text text-anchor="middle" x="368" y="-185.45" font-family="Times,serif" font-size="14.00">vect_of_vect</text>
</g>
<!-- NASALib/linear_algebra@matrices&#45;&gt;NASALib/linear_algebra@vect_of_vect -->
<g id="edge11" class="edge">
<title>NASALib/linear_algebra@matrices&#45;&gt;NASALib/linear_algebra@vect_of_vect</title>
<path fill="none" stroke="black" d="M339.96,-244.55C344.12,-236.68 349.17,-227.12 353.84,-218.29"/>
<polygon fill="black" stroke="black" points="357.29,-220.25 358.87,-209.78 351.1,-216.98 357.29,-220.25"/>
</g>
<!-- NASALib/linear_algebra@matrix_lemmas -->
<g id="node7" class="node">
<title>NASALib/linear_algebra@matrix_lemmas</title>
<ellipse fill="#e6f3ff" stroke="black" cx="87" cy="-406.5" rx="69.78" ry="18"/>
<text text-anchor="middle" x="87" y="-401.45" font-family="Times,serif" font-size="14.00">matrix_lemmas</text>
</g>
<!-- NASALib/linear_algebra@matrix_lemmas&#45;&gt;NASALib/linear_algebra@matrix_operator -->
<g id="edge12" class="edge">
<title>NASALib/linear_algebra@matrix_lemmas&#45;&gt;NASALib/linear_algebra@matrix_operator</title>
<path fill="none" stroke="black" d="M87,-388.2C87,-380.74 87,-371.82 87,-363.47"/>
<polygon fill="black" stroke="black" points="90.5,-363.6 87,-353.6 83.5,-363.6 90.5,-363.6"/>
</g>
<!-- NASALib/linear_algebra@matrix_operator&#45;&gt;NASALib/linear_algebra@linear_map_def -->
<g id="edge13" class="edge">
<title>NASALib/linear_algebra@matrix_operator&#45;&gt;NASALib/linear_algebra@linear_map_def</title>
<path fill="none" stroke="black" d="M87,-316.2C87,-308.74 87,-299.82 87,-291.47"/>
<polygon fill="black" stroke="black" points="90.5,-291.6 87,-281.6 83.5,-291.6 90.5,-291.6"/>
</g>
<!-- NASALib/linear_algebra@matrix_operator&#45;&gt;NASALib/linear_algebra@matrices -->
<g id="edge14" class="edge">
<title>NASALib/linear_algebra@matrix_operator&#45;&gt;NASALib/linear_algebra@matrices</title>
<path fill="none" stroke="black" d="M132.61,-320.42C176.44,-307.84 242.3,-288.95 285.94,-276.43"/>
<polygon fill="black" stroke="black" points="286.62,-279.59 295.26,-273.47 284.69,-272.86 286.62,-279.59"/>
</g>
<!-- NASALib/linear_algebra@sigma_lemmas&#45;&gt;NASALib/vectors -->
<g id="edge15" class="edge">
<title>NASALib/linear_algebra@sigma_lemmas&#45;&gt;NASALib/vectors</title>
<path fill="none" stroke="black" d="M332,-117.5C332,-117.5 318.49,-86.55 308.03,-62.56"/>
<polygon fill="black" stroke="black" points="310.84,-61.26 303.63,-53.5 304.43,-64.06 310.84,-61.26"/>
<path fill="none" stroke="black" d="M248.78,-173.44C280.66,-152.77 332,-119.5 332,-119.5"/>
</g>
<!-- NASALib/linear_algebra@sigma_vector&#45;&gt;NASALib/linear_algebra@linear_map -->
<g id="edge16" class="edge">
<title>NASALib/linear_algebra@sigma_vector&#45;&gt;NASALib/linear_algebra@linear_map</title>
<path fill="none" stroke="black" d="M77,-172.2C77,-164.74 77,-155.82 77,-147.47"/>
<polygon fill="black" stroke="black" points="80.5,-147.6 77,-137.6 73.5,-147.6 80.5,-147.6"/>
</g>
<!-- NASALib/linear_algebra@vect_of_vect&#45;&gt;NASALib/vectors -->
<g id="edge17" class="edge">
<title>NASALib/linear_algebra@vect_of_vect&#45;&gt;NASALib/vectors</title>
<path fill="none" stroke="black" d="M359.29,-172.55C348.63,-151.84 332,-119.5 332,-119.5"/>
</g>
</g>
</svg>
