<?xml version="1.0" encoding="UTF-8" standalone="no"?>
<!DOCTYPE svg PUBLIC "-//W3C//DTD SVG 1.1//EN"
 "http://www.w3.org/Graphics/SVG/1.1/DTD/svg11.dtd">
<!-- Generated by graphviz version 8.1.0 (20230707.0739)
 -->
<!-- Title: examples Pages: 1 -->
<svg width="382pt" height="257pt"
 viewBox="0.00 0.00 382.00 257.00" xmlns="http://www.w3.org/2000/svg" xmlns:xlink="http://www.w3.org/1999/xlink">
<g id="graph0" class="graph" transform="scale(1 1) rotate(0) translate(4 253)">
<title>examples</title>
<polygon fill="white" stroke="none" points="-4,4 -4,-253 378,-253 378,4 -4,4"/>
<g id="clust1" class="cluster">
<title>cluster_NASALib</title>
<polygon fill="none" stroke="black" points="116,-8 116,-84.5 366,-84.5 366,-8 116,-8"/>
<text text-anchor="middle" x="241" y="-67.2" font-family="Times,serif" font-size="14.00">NASALib</text>
</g>
<g id="clust2" class="cluster">
<title>cluster_pvsio_utils</title>
<polygon fill="none" stroke="black" points="8,-92.5 8,-241 326,-241 326,-92.5 8,-92.5"/>
<text text-anchor="middle" x="167" y="-223.7" font-family="Times,serif" font-size="14.00">pvsio_utils</text>
</g>
<!-- nasalib/pvsio_utils -->
<g id="node1" class="node">
<title>nasalib/pvsio_utils</title>
<polygon fill="#fcfcd7" stroke="black" points="285.62,-52 210.38,-52 210.38,-16 285.62,-16 285.62,-52"/>
<text text-anchor="middle" x="248" y="-28.95" font-family="Times,serif" font-size="14.00">pvsio_utils</text>
</g>
<!-- nasalib/reals -->
<g id="node2" class="node">
<title>nasalib/reals</title>
<polygon fill="#fcfcd7" stroke="black" points="358,-52 304,-52 304,-16 358,-16 358,-52"/>
<text text-anchor="middle" x="331" y="-28.95" font-family="Times,serif" font-size="14.00">reals</text>
</g>
<!-- nasalib/structures -->
<g id="node3" class="node">
<title>nasalib/structures</title>
<polygon fill="#fcfcd7" stroke="black" points="192.25,-52 123.75,-52 123.75,-16 192.25,-16 192.25,-52"/>
<text text-anchor="middle" x="158" y="-28.95" font-family="Times,serif" font-size="14.00">structures</text>
</g>
<!-- pvsio_utils/PVSioCSV -->
<g id="node4" class="node">
<title>pvsio_utils/PVSioCSV</title>
<polygon fill="#fcfcd7" stroke="black" points="93.75,-136.5 16.25,-136.5 16.25,-100.5 93.75,-100.5 93.75,-136.5"/>
<text text-anchor="middle" x="55" y="-113.45" font-family="Times,serif" font-size="14.00">PVSioCSV</text>
</g>
<!-- pvsio_utils/PVSioCSV&#45;&gt;nasalib/pvsio_utils -->
<g id="edge1" class="edge">
<title>pvsio_utils/PVSioCSV&#45;&gt;nasalib/pvsio_utils</title>
<path fill="none" stroke="black" d="M88.6,-100C96.67,-95.8 103,-92.5 103,-92.5 103,-92.5 201,-84.5 201,-84.5 201,-84.5 212.45,-72.45 224.04,-60.23"/>
<polygon fill="black" stroke="black" points="226.21,-62.97 230.56,-53.31 221.14,-58.15 226.21,-62.97"/>
</g>
<!-- pvsio_utils/PVSioCSV&#45;&gt;nasalib/structures -->
<g id="edge2" class="edge">
<title>pvsio_utils/PVSioCSV&#45;&gt;nasalib/structures</title>
<path fill="none" stroke="black" d="M76.84,-100C91.73,-88.08 111.63,-72.14 128,-59.03"/>
<polygon fill="black" stroke="black" points="129.57,-61.45 135.19,-52.47 125.19,-55.99 129.57,-61.45"/>
</g>
<!-- pvsio_utils/PVSioChecker -->
<g id="node5" class="node">
<title>pvsio_utils/PVSioChecker</title>
<polygon fill="#fcfcd7" stroke="black" points="318.12,-136.5 221.88,-136.5 221.88,-100.5 318.12,-100.5 318.12,-136.5"/>
<text text-anchor="middle" x="270" y="-113.45" font-family="Times,serif" font-size="14.00">PVSioChecker</text>
</g>
<!-- pvsio_utils/PVSioChecker&#45;&gt;nasalib/pvsio_utils -->
<g id="edge3" class="edge">
<title>pvsio_utils/PVSioChecker&#45;&gt;nasalib/pvsio_utils</title>
<path fill="none" stroke="black" d="M265.33,-100C262.48,-89.28 258.75,-75.32 255.49,-63.08"/>
<polygon fill="black" stroke="black" points="258.62,-62.23 252.66,-53.47 251.85,-64.04 258.62,-62.23"/>
</g>
<!-- pvsio_utils/PVSioChecker&#45;&gt;nasalib/reals -->
<g id="edge4" class="edge">
<title>pvsio_utils/PVSioChecker&#45;&gt;nasalib/reals</title>
<path fill="none" stroke="black" d="M283.09,-100.23C289.13,-92.24 295,-84.5 295,-84.5 295,-84.5 303.44,-72.9 312.14,-60.93"/>
<polygon fill="black" stroke="black" points="315.36,-63.46 318.41,-53.31 309.7,-59.34 315.36,-63.46"/>
</g>
<!-- pvsio_utils/PVSioKeyVal -->
<g id="node6" class="node">
<title>pvsio_utils/PVSioKeyVal</title>
<polygon fill="#fcfcd7" stroke="black" points="203.88,-136.5 112.12,-136.5 112.12,-100.5 203.88,-100.5 203.88,-136.5"/>
<text text-anchor="middle" x="158" y="-113.45" font-family="Times,serif" font-size="14.00">PVSioKeyVal</text>
</g>
<!-- pvsio_utils/PVSioKeyVal&#45;&gt;nasalib/pvsio_utils -->
<g id="edge5" class="edge">
<title>pvsio_utils/PVSioKeyVal&#45;&gt;nasalib/pvsio_utils</title>
<path fill="none" stroke="black" d="M180.76,-100.03C191.07,-92.12 201,-84.5 201,-84.5 201,-84.5 212.45,-72.45 224.04,-60.23"/>
<polygon fill="black" stroke="black" points="226.21,-62.97 230.56,-53.31 221.14,-58.15 226.21,-62.97"/>
</g>
<!-- pvsio_utils/PVSioKeyVal&#45;&gt;nasalib/structures -->
<g id="edge6" class="edge">
<title>pvsio_utils/PVSioKeyVal&#45;&gt;nasalib/structures</title>
<path fill="none" stroke="black" d="M158,-100C158,-89.39 158,-75.6 158,-63.46"/>
<polygon fill="black" stroke="black" points="161.5,-63.47 158,-53.47 154.5,-63.47 161.5,-63.47"/>
</g>
<!-- pvsio_utils/examples -->
<g id="node7" class="node">
<title>pvsio_utils/examples</title>
<polygon fill="#f7e28d" stroke="black" points="191.88,-208.5 124.12,-208.5 124.12,-172.5 191.88,-172.5 191.88,-208.5"/>
<text text-anchor="middle" x="158" y="-185.45" font-family="Times,serif" font-size="14.00">examples</text>
</g>
<!-- pvsio_utils/examples&#45;&gt;nasalib/pvsio_utils -->
<g id="edge7" class="edge">
<title>pvsio_utils/examples&#45;&gt;nasalib/pvsio_utils</title>
<path fill="none" stroke="black" d="M192.2,-178.77C241.58,-163.29 327,-136.5 327,-136.5 327,-136.5 346,-119.5 346,-119.5"/>
<path fill="none" stroke="black" d="M346,-117.5C346,-117.5 327,-92.5 327,-92.5 327,-92.5 295,-84.5 295,-84.5 295,-84.5 283.55,-72.45 271.96,-60.23"/>
<polygon fill="black" stroke="black" points="274.86,-58.15 265.44,-53.31 269.79,-62.97 274.86,-58.15"/>
</g>
<!-- pvsio_utils/examples&#45;&gt;nasalib/reals -->
<g id="edge8" class="edge">
<title>pvsio_utils/examples&#45;&gt;nasalib/reals</title>
<path fill="none" stroke="black" d="M346,-117.5C346,-117.5 340.47,-87.1 336.13,-63.21"/>
<polygon fill="black" stroke="black" points="339.41,-62.71 334.18,-53.5 332.53,-63.96 339.41,-62.71"/>
</g>
<!-- pvsio_utils/examples&#45;&gt;pvsio_utils/PVSioCSV -->
<g id="edge9" class="edge">
<title>pvsio_utils/examples&#45;&gt;pvsio_utils/PVSioCSV</title>
<path fill="none" stroke="black" d="M132.27,-172.02C119.27,-163.18 103.32,-152.34 89.29,-142.8"/>
<polygon fill="black" stroke="black" points="91.64,-139.49 81.4,-136.76 87.7,-145.28 91.64,-139.49"/>
</g>
<!-- pvsio_utils/examples&#45;&gt;pvsio_utils/PVSioChecker -->
<g id="edge10" class="edge">
<title>pvsio_utils/examples&#45;&gt;pvsio_utils/PVSioChecker</title>
<path fill="none" stroke="black" d="M185.97,-172.02C200.25,-163.1 217.79,-152.13 233.15,-142.53"/>
<polygon fill="black" stroke="black" points="234.76,-145.03 241.38,-136.76 231.05,-139.09 234.76,-145.03"/>
</g>
<!-- pvsio_utils/examples&#45;&gt;pvsio_utils/PVSioKeyVal -->
<g id="edge11" class="edge">
<title>pvsio_utils/examples&#45;&gt;pvsio_utils/PVSioKeyVal</title>
<path fill="none" stroke="black" d="M158,-172.2C158,-164.74 158,-155.82 158,-147.47"/>
<polygon fill="black" stroke="black" points="161.5,-147.6 158,-137.6 154.5,-147.6 161.5,-147.6"/>
</g>
</g>
</svg>
