<?xml version="1.0" encoding="UTF-8" standalone="no"?>
<!DOCTYPE svg PUBLIC "-//W3C//DTD SVG 1.1//EN"
 "http://www.w3.org/Graphics/SVG/1.1/DTD/svg11.dtd">
<!-- Generated by graphviz version 8.1.0 (20230707.0739)
 -->
<!-- Title: examples&#45;zoomed Pages: 1 -->
<svg width="2025pt" height="262pt"
 viewBox="0.00 0.00 2025.00 261.50" xmlns="http://www.w3.org/2000/svg" xmlns:xlink="http://www.w3.org/1999/xlink">
<g id="graph0" class="graph" transform="scale(1 1) rotate(0) translate(4 257.5)">
<title>examples&#45;zoomed</title>
<polygon fill="white" stroke="none" points="-4,4 -4,-257.5 2021,-257.5 2021,4 -4,4"/>
<g id="clust3" class="cluster">
<title>cluster_pvsio_utils/examples</title>
<polygon fill="none" stroke="black" points="8,-92.5 8,-245.5 1579,-245.5 1579,-92.5 8,-92.5"/>
<text text-anchor="middle" x="793.5" y="-228.2" font-family="Times,serif" font-size="14.00">pvsio_utils/examples</text>
</g>
<g id="clust1" class="cluster">
<title>cluster_NASALib</title>
<polygon fill="none" stroke="black" points="1845,-8 1845,-84.5 2009,-84.5 2009,-8 1845,-8"/>
<text text-anchor="middle" x="1927" y="-67.2" font-family="Times,serif" font-size="14.00">NASALib</text>
</g>
<g id="clust2" class="cluster">
<title>cluster_pvsio_utils</title>
<polygon fill="none" stroke="black" points="1587,-92.5 1587,-169 1905,-169 1905,-92.5 1587,-92.5"/>
<text text-anchor="middle" x="1746" y="-151.7" font-family="Times,serif" font-size="14.00">pvsio_utils</text>
</g>
<!-- nasalib/pvsio_utils -->
<g id="node1" class="node">
<title>nasalib/pvsio_utils</title>
<polygon fill="#fcfcd7" stroke="black" points="2000.62,-52 1925.38,-52 1925.38,-16 2000.62,-16 2000.62,-52"/>
<text text-anchor="middle" x="1963" y="-28.95" font-family="Times,serif" font-size="14.00">pvsio_utils</text>
</g>
<!-- nasalib/reals -->
<g id="node2" class="node">
<title>nasalib/reals</title>
<polygon fill="#fcfcd7" stroke="black" points="1907,-52 1853,-52 1853,-16 1907,-16 1907,-52"/>
<text text-anchor="middle" x="1880" y="-28.95" font-family="Times,serif" font-size="14.00">reals</text>
</g>
<!-- pvsio_utils/PVSioCSV -->
<g id="node3" class="node">
<title>pvsio_utils/PVSioCSV</title>
<polygon fill="#fcfcd7" stroke="black" points="1786.75,-136.5 1709.25,-136.5 1709.25,-100.5 1786.75,-100.5 1786.75,-136.5"/>
<text text-anchor="middle" x="1748" y="-113.45" font-family="Times,serif" font-size="14.00">PVSioCSV</text>
</g>
<!-- pvsio_utils/PVSioChecker -->
<g id="node4" class="node">
<title>pvsio_utils/PVSioChecker</title>
<polygon fill="#fcfcd7" stroke="black" points="1691.12,-136.5 1594.88,-136.5 1594.88,-100.5 1691.12,-100.5 1691.12,-136.5"/>
<text text-anchor="middle" x="1643" y="-113.45" font-family="Times,serif" font-size="14.00">PVSioChecker</text>
</g>
<!-- pvsio_utils/PVSioKeyVal -->
<g id="node5" class="node">
<title>pvsio_utils/PVSioKeyVal</title>
<polygon fill="#fcfcd7" stroke="black" points="1896.88,-136.5 1805.12,-136.5 1805.12,-100.5 1896.88,-100.5 1896.88,-136.5"/>
<text text-anchor="middle" x="1851" y="-113.45" font-family="Times,serif" font-size="14.00">PVSioKeyVal</text>
</g>
<!-- pvsio_utils/examples@csv_examples -->
<g id="node6" class="node">
<title>pvsio_utils/examples@csv_examples</title>
<ellipse fill="#e6f3ff" stroke="black" cx="682" cy="-195" rx="63.12" ry="18"/>
<text text-anchor="middle" x="682" y="-189.95" font-family="Times,serif" font-size="14.00">csv_examples</text>
</g>
<!-- pvsio_utils/examples@csv_examples&#45;&gt;pvsio_utils/PVSioCSV -->
<g id="edge1" class="edge">
<title>pvsio_utils/examples@csv_examples&#45;&gt;pvsio_utils/PVSioCSV</title>
<path fill="none" stroke="black" d="M729.62,-182.76C743.01,-179.59 754,-177 754,-177 754,-177 1700,-169 1700,-169 1700,-169 1711.91,-156.72 1723.87,-144.39"/>
<polygon fill="black" stroke="black" points="1725.76,-147.43 1730.21,-137.81 1720.74,-142.56 1725.76,-147.43"/>
</g>
<!-- pvsio_utils/examples@csv_utils_examples -->
<g id="node7" class="node">
<title>pvsio_utils/examples@csv_utils_examples</title>
<ellipse fill="#e6f3ff" stroke="black" cx="517" cy="-195" rx="83.6" ry="18"/>
<text text-anchor="middle" x="517" y="-189.95" font-family="Times,serif" font-size="14.00">csv_utils_examples</text>
</g>
<!-- pvsio_utils/examples@csv_utils_examples&#45;&gt;pvsio_utils/PVSioCSV -->
<g id="edge2" class="edge">
<title>pvsio_utils/examples@csv_utils_examples&#45;&gt;pvsio_utils/PVSioCSV</title>
<path fill="none" stroke="black" d="M579.29,-182.61C596.23,-179.52 610,-177 610,-177 610,-177 1700,-169 1700,-169 1700,-169 1711.91,-156.72 1723.87,-144.39"/>
<polygon fill="black" stroke="black" points="1725.76,-147.43 1730.21,-137.81 1720.74,-142.56 1725.76,-147.43"/>
</g>
<!-- pvsio_utils/examples@kv_examples -->
<g id="node8" class="node">
<title>pvsio_utils/examples@kv_examples</title>
<ellipse fill="#e6f3ff" stroke="black" cx="823" cy="-195" rx="60.05" ry="18"/>
<text text-anchor="middle" x="823" y="-189.95" font-family="Times,serif" font-size="14.00">kv_examples</text>
</g>
<!-- pvsio_utils/examples@kv_examples&#45;&gt;pvsio_utils/PVSioKeyVal -->
<g id="edge3" class="edge">
<title>pvsio_utils/examples@kv_examples&#45;&gt;pvsio_utils/PVSioKeyVal</title>
<path fill="none" stroke="black" d="M868.25,-182.85C881.26,-179.65 892,-177 892,-177 892,-177 1796,-169 1796,-169 1796,-169 1809.91,-156.48 1823.74,-144.04"/>
<polygon fill="black" stroke="black" points="1825.67,-147.1 1830.76,-137.81 1820.99,-141.9 1825.67,-147.1"/>
</g>
<!-- pvsio_utils/examples@prime_factorization_checker -->
<g id="node9" class="node">
<title>pvsio_utils/examples@prime_factorization_checker</title>
<ellipse fill="#e6f3ff" stroke="black" cx="133" cy="-195" rx="117.37" ry="18"/>
<text text-anchor="middle" x="133" y="-189.95" font-family="Times,serif" font-size="14.00">prime_factorization_checker</text>
</g>
<!-- pvsio_utils/examples@prime_factorization_checker&#45;&gt;pvsio_utils/PVSioChecker -->
<g id="edge4" class="edge">
<title>pvsio_utils/examples@prime_factorization_checker&#45;&gt;pvsio_utils/PVSioChecker</title>
<path fill="none" stroke="black" d="M219.12,-182.47C241.77,-179.44 260,-177 260,-177 260,-177 1583,-169 1583,-169 1583,-169 1598.46,-156.25 1613.68,-143.69"/>
<polygon fill="black" stroke="black" points="1615.53,-145.88 1621.01,-136.81 1611.07,-140.48 1615.53,-145.88"/>
</g>
<!-- pvsio_utils/examples@primes -->
<g id="node10" class="node">
<title>pvsio_utils/examples@primes</title>
<ellipse fill="#e6f3ff" stroke="black" cx="342" cy="-118.5" rx="36.51" ry="18"/>
<text text-anchor="middle" x="342" y="-113.45" font-family="Times,serif" font-size="14.00">primes</text>
</g>
<!-- pvsio_utils/examples@prime_factorization_checker&#45;&gt;pvsio_utils/examples@primes -->
<g id="edge5" class="edge">
<title>pvsio_utils/examples@prime_factorization_checker&#45;&gt;pvsio_utils/examples@primes</title>
<path fill="none" stroke="black" d="M178.09,-177.93C215.34,-164.65 267.66,-146 303.09,-133.37"/>
<polygon fill="black" stroke="black" points="303.81,-136.47 312.06,-129.82 301.46,-129.88 303.81,-136.47"/>
</g>
<!-- pvsio_utils/examples@primes&#45;&gt;nasalib/reals -->
<g id="edge6" class="edge">
<title>pvsio_utils/examples@primes&#45;&gt;nasalib/reals</title>
<path fill="none" stroke="black" d="M378.5,-115.54C587.32,-104.34 1628.7,-48.48 1841.85,-37.05"/>
<polygon fill="black" stroke="black" points="1841.97,-40.49 1851.76,-36.46 1841.59,-33.5 1841.97,-40.49"/>
</g>
<!-- pvsio_utils/examples@pvsio_examples -->
<g id="node11" class="node">
<title>pvsio_utils/examples@pvsio_examples</title>
<ellipse fill="#e6f3ff" stroke="black" cx="972" cy="-195" rx="70.8" ry="18"/>
<text text-anchor="middle" x="972" y="-189.95" font-family="Times,serif" font-size="14.00">pvsio_examples</text>
</g>
<!-- pvsio_utils/examples@pvsio_examples&#45;&gt;nasalib/pvsio_utils -->
<g id="edge7" class="edge">
<title>pvsio_utils/examples@pvsio_examples&#45;&gt;nasalib/pvsio_utils</title>
<path fill="none" stroke="black" d="M1963,-117.5C1963,-117.5 1963,-87.1 1963,-63.21"/>
<polygon fill="black" stroke="black" points="1966.5,-63.5 1963,-53.5 1959.5,-63.5 1966.5,-63.5"/>
</g>
<!-- pvsio_utils/examples@pvsio_examples&#45;&gt;nasalib/reals -->
<g id="edge8" class="edge">
<title>pvsio_utils/examples@pvsio_examples&#45;&gt;nasalib/reals</title>
<path fill="none" stroke="black" d="M1024.92,-182.76C1039.79,-179.59 1052,-177 1052,-177 1052,-177 1939,-169 1939,-169 1939,-169 1963,-119.5 1963,-119.5"/>
<path fill="none" stroke="black" d="M1963,-117.5C1963,-117.5 1916,-84.5 1916,-84.5 1916,-84.5 1907.56,-72.9 1898.86,-60.93"/>
<polygon fill="black" stroke="black" points="1901.3,-59.34 1892.59,-53.31 1895.64,-63.46 1901.3,-59.34"/>
</g>
<!-- pvsio_utils/examples@stdmutable_examples -->
<g id="node12" class="node">
<title>pvsio_utils/examples@stdmutable_examples</title>
<ellipse fill="#e6f3ff" stroke="black" cx="1153" cy="-195" rx="91.78" ry="18"/>
<text text-anchor="middle" x="1153" y="-189.95" font-family="Times,serif" font-size="14.00">stdmutable_examples</text>
</g>
<!-- pvsio_utils/examples@stdmutable_examples&#45;&gt;nasalib/pvsio_utils -->
<g id="edge9" class="edge">
<title>pvsio_utils/examples@stdmutable_examples&#45;&gt;nasalib/pvsio_utils</title>
<path fill="none" stroke="black" d="M2001,-117.5C2001,-117.5 1986.62,-86.27 1975.55,-62.24"/>
<polygon fill="black" stroke="black" points="1978.42,-61.11 1971.06,-53.5 1972.06,-64.04 1978.42,-61.11"/>
<path fill="none" stroke="black" d="M1220.93,-182.57C1239.2,-179.49 1254,-177 1254,-177 1254,-177 1977,-169 1977,-169 1977,-169 2001,-119.5 2001,-119.5"/>
</g>
<!-- pvsio_utils/examples@stdpvs_examples -->
<g id="node13" class="node">
<title>pvsio_utils/examples@stdpvs_examples</title>
<ellipse fill="#e6f3ff" stroke="black" cx="1337" cy="-195" rx="74.38" ry="18"/>
<text text-anchor="middle" x="1337" y="-189.95" font-family="Times,serif" font-size="14.00">stdpvs_examples</text>
</g>
<!-- pvsio_utils/examples@stdpvs_examples&#45;&gt;nasalib/pvsio_utils -->
<g id="edge10" class="edge">
<title>pvsio_utils/examples@stdpvs_examples&#45;&gt;nasalib/pvsio_utils</title>
<path fill="none" stroke="black" d="M1392.36,-182.66C1407.59,-179.54 1420,-177 1420,-177 1420,-177 1977,-169 1977,-169 1977,-169 2001,-119.5 2001,-119.5"/>
</g>
<!-- pvsio_utils/examples@stdstr_examples -->
<g id="node14" class="node">
<title>pvsio_utils/examples@stdstr_examples</title>
<ellipse fill="#e6f3ff" stroke="black" cx="1500" cy="-195" rx="70.8" ry="18"/>
<text text-anchor="middle" x="1500" y="-189.95" font-family="Times,serif" font-size="14.00">stdstr_examples</text>
</g>
<!-- pvsio_utils/examples@stdstr_examples&#45;&gt;nasalib/pvsio_utils -->
<g id="edge11" class="edge">
<title>pvsio_utils/examples@stdstr_examples&#45;&gt;nasalib/pvsio_utils</title>
<path fill="none" stroke="black" d="M1568.85,-190.39C1700.95,-183.47 1977,-169 1977,-169 1977,-169 2001,-119.5 2001,-119.5"/>
</g>
<!-- pvsio_utils/examples@stdsys_examples -->
<g id="node15" class="node">
<title>pvsio_utils/examples@stdsys_examples</title>
<ellipse fill="#e6f3ff" stroke="black" cx="342" cy="-195" rx="73.36" ry="18"/>
<text text-anchor="middle" x="342" y="-189.95" font-family="Times,serif" font-size="14.00">stdsys_examples</text>
</g>
<!-- pvsio_utils/examples@stdsys_examples&#45;&gt;nasalib/pvsio_utils -->
<g id="edge12" class="edge">
<title>pvsio_utils/examples@stdsys_examples&#45;&gt;nasalib/pvsio_utils</title>
<path fill="none" stroke="black" d="M396.7,-182.66C411.74,-179.54 424,-177 424,-177 424,-177 1909,-169 1909,-169 1909,-169 1936.24,-101.4 1952.03,-62.23"/>
<polygon fill="black" stroke="black" points="1955.56,-63.83 1956.05,-53.24 1949.07,-61.21 1955.56,-63.83"/>
</g>
<!-- pvsio_utils/examples@stdsys_examples&#45;&gt;pvsio_utils/examples@primes -->
<g id="edge13" class="edge">
<title>pvsio_utils/examples@stdsys_examples&#45;&gt;pvsio_utils/examples@primes</title>
<path fill="none" stroke="black" d="M342,-176.72C342,-168.13 342,-157.53 342,-147.8"/>
<polygon fill="black" stroke="black" points="345.5,-147.94 342,-137.94 338.5,-147.94 345.5,-147.94"/>
</g>
</g>
</svg>
