<?xml version="1.0" encoding="UTF-8" standalone="no"?>
<!DOCTYPE svg PUBLIC "-//W3C//DTD SVG 1.1//EN"
 "http://www.w3.org/Graphics/SVG/1.1/DTD/svg11.dtd">
<!-- Generated by graphviz version 8.0.4 (20230421.1958)
 -->
<!-- Title: pvsio_utils&#45;pvsio_examples&#45;zoomed Pages: 1 -->
<svg width="421pt" height="177pt"
 viewBox="0.00 0.00 421.00 177.00" xmlns="http://www.w3.org/2000/svg" xmlns:xlink="http://www.w3.org/1999/xlink">
<g id="graph0" class="graph" transform="scale(1 1) rotate(0) translate(4 173)">
<title>pvsio_utils&#45;pvsio_examples&#45;zoomed</title>
<polygon fill="white" stroke="none" points="-4,4 -4,-173 417,-173 417,4 -4,4"/>
<g id="clust2" class="cluster">
<title>cluster_NASALib&#45;pvsio_utils</title>
<polygon fill="none" stroke="black" points="8,-8 8,-161 326,-161 326,-8 8,-8"/>
<text text-anchor="middle" x="167" y="-143.7" font-family="Times,serif" font-size="14.00">NASALib&#45;pvsio_utils</text>
</g>
<g id="clust1" class="cluster">
<title>cluster_NASALib</title>
<polygon fill="none" stroke="black" points="334,-8 334,-84.5 405,-84.5 405,-8 334,-8"/>
<text text-anchor="middle" x="369.5" y="-67.2" font-family="Times,serif" font-size="14.00">NASALib</text>
</g>
<!-- NASALib&#45;pvsio_utils/PVSioCSV -->
<g id="node1" class="node">
<title>NASALib&#45;pvsio_utils/PVSioCSV</title>
<polygon fill="#fcfcd7" stroke="black" points="93.75,-52 16.25,-52 16.25,-16 93.75,-16 93.75,-52"/>
<text text-anchor="middle" x="55" y="-28.95" font-family="Times,serif" font-size="14.00">PVSioCSV</text>
</g>
<!-- NASALib&#45;pvsio_utils/PVSioChecker -->
<g id="node2" class="node">
<title>NASALib&#45;pvsio_utils/PVSioChecker</title>
<polygon fill="#fcfcd7" stroke="black" points="208.12,-52 111.88,-52 111.88,-16 208.12,-16 208.12,-52"/>
<text text-anchor="middle" x="160" y="-28.95" font-family="Times,serif" font-size="14.00">PVSioChecker</text>
</g>
<!-- NASALib&#45;pvsio_utils/PVSioKeyVal -->
<g id="node3" class="node">
<title>NASALib&#45;pvsio_utils/PVSioKeyVal</title>
<polygon fill="#fcfcd7" stroke="black" points="317.88,-52 226.12,-52 226.12,-16 317.88,-16 317.88,-52"/>
<text text-anchor="middle" x="272" y="-28.95" font-family="Times,serif" font-size="14.00">PVSioKeyVal</text>
</g>
<!-- NASALib&#45;pvsio_utils/pvsio_examples -->
<g id="node4" class="node">
<title>NASALib&#45;pvsio_utils/pvsio_examples</title>
<polygon fill="#fcfcd7" stroke="black" points="211.88,-128.5 108.12,-128.5 108.12,-92.5 211.88,-92.5 211.88,-128.5"/>
<text text-anchor="middle" x="160" y="-105.45" font-family="Times,serif" font-size="14.00">pvsio_examples</text>
</g>
<!-- NASALib&#45;pvsio_utils/pvsio_examples&#45;&gt;NASALib&#45;pvsio_utils/PVSioCSV -->
<g id="edge1" class="edge">
<title>NASALib&#45;pvsio_utils/pvsio_examples&#45;&gt;NASALib&#45;pvsio_utils/PVSioCSV</title>
<path fill="none" stroke="black" d="M120.1,-92C110.52,-87.8 103,-84.5 103,-84.5 103,-84.5 91.09,-72.22 79.13,-59.89"/>
<polygon fill="black" stroke="black" points="82.26,-58.06 72.79,-53.31 77.24,-62.93 82.26,-58.06"/>
</g>
<!-- NASALib&#45;pvsio_utils/pvsio_examples&#45;&gt;NASALib&#45;pvsio_utils/PVSioChecker -->
<g id="edge2" class="edge">
<title>NASALib&#45;pvsio_utils/pvsio_examples&#45;&gt;NASALib&#45;pvsio_utils/PVSioChecker</title>
<path fill="none" stroke="black" d="M160,-92.22C160,-83.63 160,-73.03 160,-63.3"/>
<polygon fill="black" stroke="black" points="163.5,-63.44 160,-53.44 156.5,-63.44 163.5,-63.44"/>
</g>
<!-- NASALib&#45;pvsio_utils/pvsio_examples&#45;&gt;NASALib&#45;pvsio_utils/PVSioKeyVal -->
<g id="edge3" class="edge">
<title>NASALib&#45;pvsio_utils/pvsio_examples&#45;&gt;NASALib&#45;pvsio_utils/PVSioKeyVal</title>
<path fill="none" stroke="black" d="M199.9,-92C209.48,-87.8 217,-84.5 217,-84.5 217,-84.5 230.91,-71.98 244.74,-59.54"/>
<polygon fill="black" stroke="black" points="246.67,-62.6 251.76,-53.31 241.99,-57.4 246.67,-62.6"/>
</g>
<!-- NASALib/reals -->
<g id="node5" class="node">
<title>NASALib/reals</title>
<polygon fill="#fcfcd7" stroke="black" points="396,-52 342,-52 342,-16 396,-16 396,-52"/>
<text text-anchor="middle" x="369" y="-28.95" font-family="Times,serif" font-size="14.00">reals</text>
</g>
<!-- NASALib&#45;pvsio_utils/pvsio_examples&#45;&gt;NASALib/reals -->
<g id="edge4" class="edge">
<title>NASALib&#45;pvsio_utils/pvsio_examples&#45;&gt;NASALib/reals</title>
<path fill="none" stroke="black" d="M211.93,-101.86C261.92,-94.51 330,-84.5 330,-84.5 330,-84.5 339.14,-72.9 348.57,-60.93"/>
<polygon fill="black" stroke="black" points="351.92,-63.33 355.36,-53.31 346.42,-59 351.92,-63.33"/>
</g>
</g>
</svg>
