<?xml version="1.0" encoding="UTF-8" standalone="no"?>
<!DOCTYPE svg PUBLIC "-//W3C//DTD SVG 1.1//EN"
 "http://www.w3.org/Graphics/SVG/1.1/DTD/svg11.dtd">
<!-- Generated by graphviz version 2.44.1 (20200629.0846)
 -->
<!-- Title: topology&#45;zoomed Pages: 1 -->
<svg width="2310pt" height="678pt"
 viewBox="0.00 0.00 2310.00 678.00" xmlns="http://www.w3.org/2000/svg" xmlns:xlink="http://www.w3.org/1999/xlink">
<g id="graph0" class="graph" transform="scale(1 1) rotate(0) translate(4 674)">
<title>topology&#45;zoomed</title>
<polygon fill="white" stroke="transparent" points="-4,4 -4,-674 2306,-674 2306,4 -4,4"/>
<g id="clust1" class="cluster">
<title>cluster_NASALib</title>
<polygon fill="none" stroke="black" points="2054,-80 2054,-155 2294,-155 2294,-80 2054,-80"/>
<text text-anchor="middle" x="2174" y="-139.8" font-family="Times,serif" font-size="14.00">NASALib</text>
</g>
<g id="clust2" class="cluster">
<title>cluster_NASALib/topology</title>
<polygon fill="none" stroke="black" points="8,-8 8,-662 2046,-662 2046,-8 8,-8"/>
<text text-anchor="middle" x="1027" y="-646.8" font-family="Times,serif" font-size="14.00">NASALib/topology</text>
</g>
<!-- nasalib/reals -->
<g id="node1" class="node">
<title>nasalib/reals</title>
<polygon fill="#fcfcd7" stroke="black" points="2198,-124 2144,-124 2144,-88 2198,-88 2198,-124"/>
<text text-anchor="middle" x="2171" y="-102.3" font-family="Times,serif" font-size="14.00">reals</text>
</g>
<!-- nasalib/sets_aux -->
<g id="node2" class="node">
<title>nasalib/sets_aux</title>
<polygon fill="#fcfcd7" stroke="black" points="2125.5,-124 2062.5,-124 2062.5,-88 2125.5,-88 2125.5,-124"/>
<text text-anchor="middle" x="2094" y="-102.3" font-family="Times,serif" font-size="14.00">sets_aux</text>
</g>
<!-- nasalib/structures -->
<g id="node3" class="node">
<title>nasalib/structures</title>
<polygon fill="#fcfcd7" stroke="black" points="2285.5,-124 2216.5,-124 2216.5,-88 2285.5,-88 2285.5,-124"/>
<text text-anchor="middle" x="2251" y="-102.3" font-family="Times,serif" font-size="14.00">structures</text>
</g>
<!-- nasalib/topology@basis -->
<g id="node4" class="node">
<title>nasalib/topology@basis</title>
<ellipse fill="#e6f3ff" stroke="black" cx="1363" cy="-106" rx="28.7" ry="18"/>
<text text-anchor="middle" x="1363" y="-102.3" font-family="Times,serif" font-size="14.00">basis</text>
</g>
<!-- nasalib/topology@topology_prelim -->
<g id="node33" class="node">
<title>nasalib/topology@topology_prelim</title>
<ellipse fill="#e6f3ff" stroke="black" cx="1363" cy="-34" rx="69.59" ry="18"/>
<text text-anchor="middle" x="1363" y="-30.3" font-family="Times,serif" font-size="14.00">topology_prelim</text>
</g>
<!-- nasalib/topology@basis&#45;&gt;nasalib/topology@topology_prelim -->
<g id="edge1" class="edge">
<title>nasalib/topology@basis&#45;&gt;nasalib/topology@topology_prelim</title>
<path fill="none" stroke="black" d="M1363,-87.83C1363,-87.83 1363,-62.41 1363,-62.41"/>
<polygon fill="black" stroke="black" points="1366.5,-62.41 1363,-52.41 1359.5,-62.41 1366.5,-62.41"/>
</g>
<!-- nasalib/topology@compact_spaces -->
<g id="node5" class="node">
<title>nasalib/topology@compact_spaces</title>
<ellipse fill="#e6f3ff" stroke="black" cx="1970" cy="-325" rx="68.49" ry="18"/>
<text text-anchor="middle" x="1970" y="-321.3" font-family="Times,serif" font-size="14.00">compact_spaces</text>
</g>
<!-- nasalib/topology@topology -->
<g id="node31" class="node">
<title>nasalib/topology@topology</title>
<ellipse fill="#e6f3ff" stroke="black" cx="1395" cy="-253" rx="42.49" ry="18"/>
<text text-anchor="middle" x="1395" y="-249.3" font-family="Times,serif" font-size="14.00">topology</text>
</g>
<!-- nasalib/topology@compact_spaces&#45;&gt;nasalib/topology@topology -->
<g id="edge2" class="edge">
<title>nasalib/topology@compact_spaces&#45;&gt;nasalib/topology@topology</title>
<path fill="none" stroke="black" d="M1947.25,-307.94C1947.25,-294.15 1947.25,-277 1947.25,-277 1947.25,-277 1429.38,-277 1429.38,-277 1429.38,-277 1429.38,-273.6 1429.38,-273.6"/>
<polygon fill="black" stroke="black" points="1432.88,-273.6 1429.38,-263.6 1425.88,-273.6 1432.88,-273.6"/>
</g>
<!-- nasalib/topology@compact_spaces&#45;&gt;nasalib/topology@topology_prelim -->
<g id="edge3" class="edge">
<title>nasalib/topology@compact_spaces&#45;&gt;nasalib/topology@topology_prelim</title>
<path fill="none" stroke="black" d="M1992.75,-307.67C1992.75,-245.02 1992.75,-34 1992.75,-34 1992.75,-34 1442.8,-34 1442.8,-34"/>
<polygon fill="black" stroke="black" points="1442.8,-30.5 1432.8,-34 1442.8,-37.5 1442.8,-30.5"/>
</g>
<!-- nasalib/topology@composition_continuity -->
<g id="node6" class="node">
<title>nasalib/topology@composition_continuity</title>
<ellipse fill="#e6f3ff" stroke="black" cx="667" cy="-469" rx="94.78" ry="18"/>
<text text-anchor="middle" x="667" y="-465.3" font-family="Times,serif" font-size="14.00">composition_continuity</text>
</g>
<!-- nasalib/topology@continuity -->
<g id="node10" class="node">
<title>nasalib/topology@continuity</title>
<ellipse fill="#e6f3ff" stroke="black" cx="984" cy="-397" rx="46.29" ry="18"/>
<text text-anchor="middle" x="984" y="-393.3" font-family="Times,serif" font-size="14.00">continuity</text>
</g>
<!-- nasalib/topology@composition_continuity&#45;&gt;nasalib/topology@continuity -->
<g id="edge4" class="edge">
<title>nasalib/topology@composition_continuity&#45;&gt;nasalib/topology@continuity</title>
<path fill="none" stroke="black" d="M698.63,-452C698.63,-432.45 698.63,-403 698.63,-403 698.63,-403 930.35,-403 930.35,-403"/>
<polygon fill="black" stroke="black" points="930.35,-406.5 940.35,-403 930.35,-399.5 930.35,-406.5"/>
</g>
<!-- nasalib/topology@topology_def -->
<g id="node32" class="node">
<title>nasalib/topology@topology_def</title>
<ellipse fill="#e6f3ff" stroke="black" cx="1334" cy="-181" rx="57.69" ry="18"/>
<text text-anchor="middle" x="1334" y="-177.3" font-family="Times,serif" font-size="14.00">topology_def</text>
</g>
<!-- nasalib/topology@composition_continuity&#45;&gt;nasalib/topology@topology_def -->
<g id="edge5" class="edge">
<title>nasalib/topology@composition_continuity&#45;&gt;nasalib/topology@topology_def</title>
<path fill="none" stroke="black" d="M635.37,-451.67C635.37,-389.02 635.37,-178 635.37,-178 635.37,-178 1266.83,-178 1266.83,-178"/>
<polygon fill="black" stroke="black" points="1266.83,-181.5 1276.83,-178 1266.83,-174.5 1266.83,-181.5"/>
</g>
<!-- nasalib/topology@connected_def -->
<g id="node7" class="node">
<title>nasalib/topology@connected_def</title>
<ellipse fill="#e6f3ff" stroke="black" cx="1436" cy="-469" rx="61.99" ry="18"/>
<text text-anchor="middle" x="1436" y="-465.3" font-family="Times,serif" font-size="14.00">connected_def</text>
</g>
<!-- nasalib/topology@connected_def&#45;&gt;nasalib/topology@continuity -->
<g id="edge6" class="edge">
<title>nasalib/topology@connected_def&#45;&gt;nasalib/topology@continuity</title>
<path fill="none" stroke="black" d="M1387.53,-457.8C1387.53,-438.97 1387.53,-403 1387.53,-403 1387.53,-403 1037.57,-403 1037.57,-403"/>
<polygon fill="black" stroke="black" points="1037.57,-399.5 1027.57,-403 1037.57,-406.5 1037.57,-399.5"/>
</g>
<!-- nasalib/topology@continuity_def -->
<g id="node11" class="node">
<title>nasalib/topology@continuity_def</title>
<ellipse fill="#e6f3ff" stroke="black" cx="1034" cy="-325" rx="61.99" ry="18"/>
<text text-anchor="middle" x="1034" y="-321.3" font-family="Times,serif" font-size="14.00">continuity_def</text>
</g>
<!-- nasalib/topology@connected_def&#45;&gt;nasalib/topology@continuity_def -->
<g id="edge7" class="edge">
<title>nasalib/topology@connected_def&#45;&gt;nasalib/topology@continuity_def</title>
<path fill="none" stroke="black" d="M1380.89,-460.75C1380.89,-447.76 1380.89,-424 1380.89,-424 1380.89,-424 1073.88,-424 1073.88,-424 1073.88,-424 1073.88,-348.77 1073.88,-348.77"/>
<polygon fill="black" stroke="black" points="1077.38,-348.77 1073.88,-338.77 1070.38,-348.77 1077.38,-348.77"/>
</g>
<!-- nasalib/topology@connected_def&#45;&gt;nasalib/topology@topology -->
<g id="edge8" class="edge">
<title>nasalib/topology@connected_def&#45;&gt;nasalib/topology@topology</title>
<path fill="none" stroke="black" d="M1394.17,-455.49C1394.17,-455.49 1394.17,-281.25 1394.17,-281.25"/>
<polygon fill="black" stroke="black" points="1397.67,-281.25 1394.17,-271.25 1390.67,-281.25 1397.67,-281.25"/>
</g>
<!-- nasalib/topology@connected_def&#45;&gt;nasalib/topology@topology_prelim -->
<g id="edge9" class="edge">
<title>nasalib/topology@connected_def&#45;&gt;nasalib/topology@topology_prelim</title>
<path fill="none" stroke="black" d="M1494.05,-462.55C1494.05,-422.36 1494.05,-208 1494.05,-208 1494.05,-208 1420.09,-208 1420.09,-208 1420.09,-208 1420.09,-54.36 1420.09,-54.36"/>
<polygon fill="black" stroke="black" points="1423.59,-54.36 1420.09,-44.36 1416.59,-54.36 1423.59,-54.36"/>
</g>
<!-- nasalib/topology@connected_space -->
<g id="node8" class="node">
<title>nasalib/topology@connected_space</title>
<ellipse fill="#e6f3ff" stroke="black" cx="1184" cy="-325" rx="70.39" ry="18"/>
<text text-anchor="middle" x="1184" y="-321.3" font-family="Times,serif" font-size="14.00">connected_space</text>
</g>
<!-- nasalib/topology@connected_space&#45;&gt;nasalib/topology@topology -->
<g id="edge10" class="edge">
<title>nasalib/topology@connected_space&#45;&gt;nasalib/topology@topology</title>
<path fill="none" stroke="black" d="M1207.4,-308C1207.4,-288.45 1207.4,-259 1207.4,-259 1207.4,-259 1344.75,-259 1344.75,-259"/>
<polygon fill="black" stroke="black" points="1344.75,-262.5 1354.75,-259 1344.75,-255.5 1344.75,-262.5"/>
</g>
<!-- nasalib/topology@connected_space&#45;&gt;nasalib/topology@topology_def -->
<g id="edge11" class="edge">
<title>nasalib/topology@connected_space&#45;&gt;nasalib/topology@topology_def</title>
<path fill="none" stroke="black" d="M1160.6,-308.01C1160.6,-272.36 1160.6,-193 1160.6,-193 1160.6,-193 1280.69,-193 1280.69,-193"/>
<polygon fill="black" stroke="black" points="1280.69,-196.5 1290.69,-193 1280.69,-189.5 1280.69,-196.5"/>
</g>
<!-- nasalib/topology@constant_continuity -->
<g id="node9" class="node">
<title>nasalib/topology@constant_continuity</title>
<ellipse fill="#e6f3ff" stroke="black" cx="860" cy="-469" rx="79.89" ry="18"/>
<text text-anchor="middle" x="860" y="-465.3" font-family="Times,serif" font-size="14.00">constant_continuity</text>
</g>
<!-- nasalib/topology@constant_continuity&#45;&gt;nasalib/structures -->
<g id="edge12" class="edge">
<title>nasalib/topology@constant_continuity&#45;&gt;nasalib/structures</title>
<path fill="none" stroke="black" d="M885.26,-451.7C885.26,-422.6 885.26,-367 885.26,-367 885.26,-367 2244.1,-367 2244.1,-367 2244.1,-367 2244.1,-134.35 2244.1,-134.35"/>
<polygon fill="black" stroke="black" points="2247.6,-134.35 2244.1,-124.35 2240.6,-134.35 2247.6,-134.35"/>
</g>
<!-- nasalib/topology@constant_continuity&#45;&gt;nasalib/topology@continuity -->
<g id="edge13" class="edge">
<title>nasalib/topology@constant_continuity&#45;&gt;nasalib/topology@continuity</title>
<path fill="none" stroke="black" d="M939.95,-469C943.65,-469 945.85,-469 945.85,-469 945.85,-469 945.85,-417.32 945.85,-417.32"/>
<polygon fill="black" stroke="black" points="949.35,-417.32 945.85,-407.32 942.35,-417.32 949.35,-417.32"/>
</g>
<!-- nasalib/topology@constant_continuity&#45;&gt;nasalib/topology@topology_def -->
<g id="edge14" class="edge">
<title>nasalib/topology@constant_continuity&#45;&gt;nasalib/topology@topology_def</title>
<path fill="none" stroke="black" d="M832.66,-451.85C832.66,-389.85 832.66,-181 832.66,-181 832.66,-181 1266,-181 1266,-181"/>
<polygon fill="black" stroke="black" points="1266,-184.5 1276,-181 1266,-177.5 1266,-184.5"/>
</g>
<!-- nasalib/topology@continuity&#45;&gt;nasalib/topology@basis -->
<g id="edge20" class="edge">
<title>nasalib/topology@continuity&#45;&gt;nasalib/topology@basis</title>
<path fill="none" stroke="black" d="M949.32,-384.99C949.32,-329.43 949.32,-100 949.32,-100 949.32,-100 1325.86,-100 1325.86,-100"/>
<polygon fill="black" stroke="black" points="1325.86,-103.5 1335.86,-100 1325.86,-96.5 1325.86,-103.5"/>
</g>
<!-- nasalib/topology@continuity&#45;&gt;nasalib/topology@continuity_def -->
<g id="edge21" class="edge">
<title>nasalib/topology@continuity&#45;&gt;nasalib/topology@continuity_def</title>
<path fill="none" stroke="black" d="M1001.2,-379.94C1001.2,-379.94 1001.2,-350.47 1001.2,-350.47"/>
<polygon fill="black" stroke="black" points="1004.7,-350.47 1001.2,-340.47 997.7,-350.47 1004.7,-350.47"/>
</g>
<!-- nasalib/topology@continuity&#45;&gt;nasalib/topology@topology -->
<g id="edge22" class="edge">
<title>nasalib/topology@continuity&#45;&gt;nasalib/topology@topology</title>
<path fill="none" stroke="black" d="M1018.51,-385C1112.35,-385 1365.25,-385 1365.25,-385 1365.25,-385 1365.25,-276.14 1365.25,-276.14"/>
<polygon fill="black" stroke="black" points="1368.75,-276.14 1365.25,-266.14 1361.75,-276.14 1368.75,-276.14"/>
</g>
<!-- nasalib/topology@continuity&#45;&gt;nasalib/topology@topology_def -->
<g id="edge23" class="edge">
<title>nasalib/topology@continuity&#45;&gt;nasalib/topology@topology_def</title>
<path fill="none" stroke="black" d="M960.79,-381.34C960.79,-332.15 960.79,-184 960.79,-184 960.79,-184 1266.91,-184 1266.91,-184"/>
<polygon fill="black" stroke="black" points="1266.91,-187.5 1276.91,-184 1266.91,-180.5 1266.91,-187.5"/>
</g>
<!-- nasalib/topology@continuity_def&#45;&gt;nasalib/topology@topology -->
<g id="edge15" class="edge">
<title>nasalib/topology@continuity_def&#45;&gt;nasalib/topology@topology</title>
<path fill="none" stroke="black" d="M1054.58,-307.69C1054.58,-284.71 1054.58,-247 1054.58,-247 1054.58,-247 1344.95,-247 1344.95,-247"/>
<polygon fill="black" stroke="black" points="1344.95,-250.5 1354.95,-247 1344.95,-243.5 1344.95,-250.5"/>
</g>
<!-- nasalib/topology@continuity_def&#45;&gt;nasalib/topology@topology_def -->
<g id="edge16" class="edge">
<title>nasalib/topology@continuity_def&#45;&gt;nasalib/topology@topology_def</title>
<path fill="none" stroke="black" d="M1013.42,-307.8C1013.42,-270.81 1013.42,-187 1013.42,-187 1013.42,-187 1269.25,-187 1269.25,-187"/>
<polygon fill="black" stroke="black" points="1269.25,-190.5 1279.25,-187 1269.25,-183.5 1269.25,-190.5"/>
</g>
<!-- nasalib/topology@continuity_subspace -->
<g id="node12" class="node">
<title>nasalib/topology@continuity_subspace</title>
<ellipse fill="#e6f3ff" stroke="black" cx="1233" cy="-469" rx="82.59" ry="18"/>
<text text-anchor="middle" x="1233" y="-465.3" font-family="Times,serif" font-size="14.00">continuity_subspace</text>
</g>
<!-- nasalib/topology@continuity_subspace&#45;&gt;nasalib/topology@continuity -->
<g id="edge17" class="edge">
<title>nasalib/topology@continuity_subspace&#45;&gt;nasalib/topology@continuity</title>
<path fill="none" stroke="black" d="M1185.04,-454.17C1185.04,-436.4 1185.04,-409 1185.04,-409 1185.04,-409 1028.56,-409 1028.56,-409"/>
<polygon fill="black" stroke="black" points="1028.56,-405.5 1018.56,-409 1028.56,-412.5 1028.56,-405.5"/>
</g>
<!-- nasalib/topology@subspace -->
<g id="node23" class="node">
<title>nasalib/topology@subspace</title>
<ellipse fill="#e6f3ff" stroke="black" cx="1314" cy="-325" rx="42.49" ry="18"/>
<text text-anchor="middle" x="1314" y="-321.3" font-family="Times,serif" font-size="14.00">subspace</text>
</g>
<!-- nasalib/topology@continuity_subspace&#45;&gt;nasalib/topology@subspace -->
<g id="edge18" class="edge">
<title>nasalib/topology@continuity_subspace&#45;&gt;nasalib/topology@subspace</title>
<path fill="none" stroke="black" d="M1293.65,-456.72C1293.65,-456.72 1293.65,-351.14 1293.65,-351.14"/>
<polygon fill="black" stroke="black" points="1297.15,-351.14 1293.65,-341.14 1290.15,-351.14 1297.15,-351.14"/>
</g>
<!-- nasalib/topology@continuity_subspace&#45;&gt;nasalib/topology@topology_def -->
<g id="edge19" class="edge">
<title>nasalib/topology@continuity_subspace&#45;&gt;nasalib/topology@topology_def</title>
<path fill="none" stroke="black" d="M1262.97,-451.92C1262.97,-392.16 1262.97,-196 1262.97,-196 1262.97,-196 1291.81,-196 1291.81,-196"/>
<polygon fill="black" stroke="black" points="1291.81,-199.5 1301.81,-196 1291.81,-192.5 1291.81,-199.5"/>
</g>
<!-- nasalib/topology@cross_product -->
<g id="node13" class="node">
<title>nasalib/topology@cross_product</title>
<ellipse fill="#e6f3ff" stroke="black" cx="1568" cy="-325" rx="59.59" ry="18"/>
<text text-anchor="middle" x="1568" y="-321.3" font-family="Times,serif" font-size="14.00">cross_product</text>
</g>
<!-- nasalib/topology@hausdorff_convergence -->
<g id="node14" class="node">
<title>nasalib/topology@hausdorff_convergence</title>
<ellipse fill="#e6f3ff" stroke="black" cx="1759" cy="-397" rx="92.88" ry="18"/>
<text text-anchor="middle" x="1759" y="-393.3" font-family="Times,serif" font-size="14.00">hausdorff_convergence</text>
</g>
<!-- nasalib/topology@topological_convergence -->
<g id="node30" class="node">
<title>nasalib/topology@topological_convergence</title>
<ellipse fill="#e6f3ff" stroke="black" cx="1785" cy="-325" rx="98.58" ry="18"/>
<text text-anchor="middle" x="1785" y="-321.3" font-family="Times,serif" font-size="14.00">topological_convergence</text>
</g>
<!-- nasalib/topology@hausdorff_convergence&#45;&gt;nasalib/topology@topological_convergence -->
<g id="edge24" class="edge">
<title>nasalib/topology@hausdorff_convergence&#45;&gt;nasalib/topology@topological_convergence</title>
<path fill="none" stroke="black" d="M1769.08,-378.83C1769.08,-378.83 1769.08,-352.91 1769.08,-352.91"/>
<polygon fill="black" stroke="black" points="1772.58,-352.91 1769.08,-342.91 1765.58,-352.91 1772.58,-352.91"/>
</g>
<!-- nasalib/topology@hausdorff_convergence&#45;&gt;nasalib/topology@topology_def -->
<g id="edge25" class="edge">
<title>nasalib/topology@hausdorff_convergence&#45;&gt;nasalib/topology@topology_def</title>
<path fill="none" stroke="black" d="M1672.56,-390.16C1672.56,-357.28 1672.56,-217 1672.56,-217 1672.56,-217 1382.07,-217 1382.07,-217 1382.07,-217 1382.07,-201.22 1382.07,-201.22"/>
<polygon fill="black" stroke="black" points="1385.57,-201.22 1382.07,-191.22 1378.57,-201.22 1385.57,-201.22"/>
</g>
<!-- nasalib/topology@homeomorphic_reflexive -->
<g id="node15" class="node">
<title>nasalib/topology@homeomorphic_reflexive</title>
<ellipse fill="#e6f3ff" stroke="black" cx="116" cy="-541" rx="100.18" ry="18"/>
<text text-anchor="middle" x="116" y="-537.3" font-family="Times,serif" font-size="14.00">homeomorphic_reflexive</text>
</g>
<!-- nasalib/topology@homeomorphism_def -->
<g id="node18" class="node">
<title>nasalib/topology@homeomorphism_def</title>
<ellipse fill="#e6f3ff" stroke="black" cx="447" cy="-469" rx="87.18" ry="18"/>
<text text-anchor="middle" x="447" y="-465.3" font-family="Times,serif" font-size="14.00">homeomorphism_def</text>
</g>
<!-- nasalib/topology@homeomorphic_reflexive&#45;&gt;nasalib/topology@homeomorphism_def -->
<g id="edge26" class="edge">
<title>nasalib/topology@homeomorphic_reflexive&#45;&gt;nasalib/topology@homeomorphism_def</title>
<path fill="none" stroke="black" d="M149.36,-523.94C149.36,-502.65 149.36,-469 149.36,-469 149.36,-469 349.71,-469 349.71,-469"/>
<polygon fill="black" stroke="black" points="349.71,-472.5 359.71,-469 349.71,-465.5 349.71,-472.5"/>
</g>
<!-- nasalib/topology@homeomorphic_reflexive&#45;&gt;nasalib/topology@topology_def -->
<g id="edge27" class="edge">
<title>nasalib/topology@homeomorphic_reflexive&#45;&gt;nasalib/topology@topology_def</title>
<path fill="none" stroke="black" d="M82.64,-523.91C82.64,-450.55 82.64,-166 82.64,-166 82.64,-166 1291.81,-166 1291.81,-166"/>
<polygon fill="black" stroke="black" points="1291.81,-169.5 1301.81,-166 1291.81,-162.5 1291.81,-169.5"/>
</g>
<!-- nasalib/topology@homeomorphic_symmetric -->
<g id="node16" class="node">
<title>nasalib/topology@homeomorphic_symmetric</title>
<ellipse fill="#e6f3ff" stroke="black" cx="341" cy="-541" rx="107.48" ry="18"/>
<text text-anchor="middle" x="341" y="-537.3" font-family="Times,serif" font-size="14.00">homeomorphic_symmetric</text>
</g>
<!-- nasalib/topology@homeomorphic_symmetric&#45;&gt;nasalib/structures -->
<g id="edge28" class="edge">
<title>nasalib/topology@homeomorphic_symmetric&#45;&gt;nasalib/structures</title>
<path fill="none" stroke="black" d="M418.8,-528.17C418.8,-515.82 418.8,-499 418.8,-499 418.8,-499 2257.9,-499 2257.9,-499 2257.9,-499 2257.9,-134.17 2257.9,-134.17"/>
<polygon fill="black" stroke="black" points="2261.4,-134.17 2257.9,-124.17 2254.4,-134.17 2261.4,-134.17"/>
</g>
<!-- nasalib/topology@homeomorphic_symmetric&#45;&gt;nasalib/topology@homeomorphism_def -->
<g id="edge29" class="edge">
<title>nasalib/topology@homeomorphic_symmetric&#45;&gt;nasalib/topology@homeomorphism_def</title>
<path fill="none" stroke="black" d="M389.35,-524.66C389.35,-524.66 389.35,-492.85 389.35,-492.85"/>
<polygon fill="black" stroke="black" points="392.85,-492.85 389.35,-482.85 385.85,-492.85 392.85,-492.85"/>
</g>
<!-- nasalib/topology@homeomorphic_symmetric&#45;&gt;nasalib/topology@topology_def -->
<g id="edge30" class="edge">
<title>nasalib/topology@homeomorphic_symmetric&#45;&gt;nasalib/topology@topology_def</title>
<path fill="none" stroke="black" d="M296.83,-524.54C296.83,-452.54 296.83,-169 296.83,-169 296.83,-169 1280.75,-169 1280.75,-169"/>
<polygon fill="black" stroke="black" points="1280.75,-172.5 1290.75,-169 1280.75,-165.5 1280.75,-172.5"/>
</g>
<!-- nasalib/topology@homeomorphic_transitive -->
<g id="node17" class="node">
<title>nasalib/topology@homeomorphic_transitive</title>
<ellipse fill="#e6f3ff" stroke="black" cx="588" cy="-541" rx="102.08" ry="18"/>
<text text-anchor="middle" x="588" y="-537.3" font-family="Times,serif" font-size="14.00">homeomorphic_transitive</text>
</g>
<!-- nasalib/topology@homeomorphic_transitive&#45;&gt;nasalib/structures -->
<g id="edge31" class="edge">
<title>nasalib/topology@homeomorphic_transitive&#45;&gt;nasalib/structures</title>
<path fill="none" stroke="black" d="M650.73,-526.7C650.73,-518.98 650.73,-511 650.73,-511 650.73,-511 2271.7,-511 2271.7,-511 2271.7,-511 2271.7,-134.19 2271.7,-134.19"/>
<polygon fill="black" stroke="black" points="2275.2,-134.19 2271.7,-124.19 2268.2,-134.19 2275.2,-134.19"/>
</g>
<!-- nasalib/topology@homeomorphic_transitive&#45;&gt;nasalib/topology@composition_continuity -->
<g id="edge32" class="edge">
<title>nasalib/topology@homeomorphic_transitive&#45;&gt;nasalib/topology@composition_continuity</title>
<path fill="none" stroke="black" d="M611.42,-523.2C611.42,-523.2 611.42,-493.69 611.42,-493.69"/>
<polygon fill="black" stroke="black" points="614.92,-493.69 611.42,-483.69 607.92,-493.69 614.92,-493.69"/>
</g>
<!-- nasalib/topology@homeomorphic_transitive&#45;&gt;nasalib/topology@homeomorphism_def -->
<g id="edge33" class="edge">
<title>nasalib/topology@homeomorphic_transitive&#45;&gt;nasalib/topology@homeomorphism_def</title>
<path fill="none" stroke="black" d="M510.03,-529.11C510.03,-529.11 510.03,-491.63 510.03,-491.63"/>
<polygon fill="black" stroke="black" points="513.53,-491.63 510.03,-481.63 506.53,-491.63 513.53,-491.63"/>
</g>
<!-- nasalib/topology@homeomorphic_transitive&#45;&gt;nasalib/topology@topology_def -->
<g id="edge34" class="edge">
<title>nasalib/topology@homeomorphic_transitive&#45;&gt;nasalib/topology@topology_def</title>
<path fill="none" stroke="black" d="M553.1,-523.84C553.1,-451.48 553.1,-175 553.1,-175 553.1,-175 1269.4,-175 1269.4,-175"/>
<polygon fill="black" stroke="black" points="1269.4,-178.5 1279.4,-175 1269.4,-171.5 1269.4,-178.5"/>
</g>
<!-- nasalib/topology@homeomorphism_def&#45;&gt;nasalib/structures -->
<g id="edge35" class="edge">
<title>nasalib/topology@homeomorphism_def&#45;&gt;nasalib/structures</title>
<path fill="none" stroke="black" d="M464.42,-451.19C464.42,-419.12 464.42,-355 464.42,-355 464.42,-355 2230.3,-355 2230.3,-355 2230.3,-355 2230.3,-134.31 2230.3,-134.31"/>
<polygon fill="black" stroke="black" points="2233.8,-134.31 2230.3,-124.31 2226.8,-134.31 2233.8,-134.31"/>
</g>
<!-- nasalib/topology@homeomorphism_def&#45;&gt;nasalib/topology@continuity -->
<g id="edge36" class="edge">
<title>nasalib/topology@homeomorphism_def&#45;&gt;nasalib/topology@continuity</title>
<path fill="none" stroke="black" d="M499.26,-454.33C499.26,-431.73 499.26,-391 499.26,-391 499.26,-391 930.13,-391 930.13,-391"/>
<polygon fill="black" stroke="black" points="930.13,-394.5 940.13,-391 930.13,-387.5 930.13,-394.5"/>
</g>
<!-- nasalib/topology@homeomorphism_def&#45;&gt;nasalib/topology@continuity_def -->
<g id="edge37" class="edge">
<title>nasalib/topology@homeomorphism_def&#45;&gt;nasalib/topology@continuity_def</title>
<path fill="none" stroke="black" d="M429.58,-451.34C429.58,-412.89 429.58,-325 429.58,-325 429.58,-325 962.16,-325 962.16,-325"/>
<polygon fill="black" stroke="black" points="962.16,-328.5 972.16,-325 962.16,-321.5 962.16,-328.5"/>
</g>
<!-- nasalib/topology@homeomorphism_def&#45;&gt;nasalib/topology@topology_def -->
<g id="edge38" class="edge">
<title>nasalib/topology@homeomorphism_def&#45;&gt;nasalib/topology@topology_def</title>
<path fill="none" stroke="black" d="M394.74,-454.27C394.74,-394.34 394.74,-172 394.74,-172 394.74,-172 1273.83,-172 1273.83,-172"/>
<polygon fill="black" stroke="black" points="1273.83,-175.5 1283.83,-172 1273.83,-168.5 1273.83,-175.5"/>
</g>
<!-- nasalib/topology@identity_continuity -->
<g id="node19" class="node">
<title>nasalib/topology@identity_continuity</title>
<ellipse fill="#e6f3ff" stroke="black" cx="1035" cy="-469" rx="77.19" ry="18"/>
<text text-anchor="middle" x="1035" y="-465.3" font-family="Times,serif" font-size="14.00">identity_continuity</text>
</g>
<!-- nasalib/topology@identity_continuity&#45;&gt;nasalib/topology@continuity -->
<g id="edge39" class="edge">
<title>nasalib/topology@identity_continuity&#45;&gt;nasalib/topology@continuity</title>
<path fill="none" stroke="black" d="M993.9,-453.73C993.9,-453.73 993.9,-424.79 993.9,-424.79"/>
<polygon fill="black" stroke="black" points="997.4,-424.79 993.9,-414.79 990.4,-424.79 997.4,-424.79"/>
</g>
<!-- nasalib/topology@identity_continuity&#45;&gt;nasalib/topology@topology_def -->
<g id="edge40" class="edge">
<title>nasalib/topology@identity_continuity&#45;&gt;nasalib/topology@topology_def</title>
<path fill="none" stroke="black" d="M1104.04,-460.65C1104.04,-414.23 1104.04,-190 1104.04,-190 1104.04,-190 1273.82,-190 1273.82,-190"/>
<polygon fill="black" stroke="black" points="1273.82,-193.5 1283.82,-190 1273.82,-186.5 1273.82,-193.5"/>
</g>
<!-- nasalib/topology@lindelof -->
<g id="node20" class="node">
<title>nasalib/topology@lindelof</title>
<ellipse fill="#e6f3ff" stroke="black" cx="1452" cy="-325" rx="38.19" ry="18"/>
<text text-anchor="middle" x="1452" y="-321.3" font-family="Times,serif" font-size="14.00">lindelof</text>
</g>
<!-- nasalib/topology@lindelof&#45;&gt;nasalib/sets_aux -->
<g id="edge41" class="edge">
<title>nasalib/topology@lindelof&#45;&gt;nasalib/sets_aux</title>
<path fill="none" stroke="black" d="M1454.95,-306.86C1454.95,-300.54 1454.95,-295 1454.95,-295 1454.95,-295 2094,-295 2094,-295 2094,-295 2094,-134.12 2094,-134.12"/>
<polygon fill="black" stroke="black" points="2097.5,-134.12 2094,-124.12 2090.5,-134.12 2097.5,-134.12"/>
</g>
<!-- nasalib/topology@lindelof&#45;&gt;nasalib/topology@topology -->
<g id="edge42" class="edge">
<title>nasalib/topology@lindelof&#45;&gt;nasalib/topology@topology</title>
<path fill="none" stroke="black" d="M1421.52,-314.06C1421.52,-314.06 1421.52,-277.27 1421.52,-277.27"/>
<polygon fill="black" stroke="black" points="1425.02,-277.27 1421.52,-267.27 1418.02,-277.27 1425.02,-277.27"/>
</g>
<!-- nasalib/topology@lindelof&#45;&gt;nasalib/topology@topology_def -->
<g id="edge43" class="edge">
<title>nasalib/topology@lindelof&#45;&gt;nasalib/topology@topology_def</title>
<path fill="none" stroke="black" d="M1472.65,-309.53C1472.65,-281.69 1472.65,-226 1472.65,-226 1472.65,-226 1372.3,-226 1372.3,-226 1372.3,-226 1372.3,-204.75 1372.3,-204.75"/>
<polygon fill="black" stroke="black" points="1375.8,-204.75 1372.3,-194.75 1368.8,-204.75 1375.8,-204.75"/>
</g>
<!-- nasalib/topology@prelude_sets_aux -->
<g id="node21" class="node">
<title>nasalib/topology@prelude_sets_aux</title>
<ellipse fill="#e6f3ff" stroke="black" cx="1501" cy="-181" rx="71.49" ry="18"/>
<text text-anchor="middle" x="1501" y="-177.3" font-family="Times,serif" font-size="14.00">prelude_sets_aux</text>
</g>
<!-- nasalib/topology@subseq -->
<g id="node22" class="node">
<title>nasalib/topology@subseq</title>
<ellipse fill="#e6f3ff" stroke="black" cx="1720" cy="-253" rx="34.39" ry="18"/>
<text text-anchor="middle" x="1720" y="-249.3" font-family="Times,serif" font-size="14.00">subseq</text>
</g>
<!-- nasalib/topology@subseq&#45;&gt;nasalib/reals -->
<g id="edge44" class="edge">
<title>nasalib/topology@subseq&#45;&gt;nasalib/reals</title>
<path fill="none" stroke="black" d="M1754.68,-253C1858.88,-253 2162,-253 2162,-253 2162,-253 2162,-134.03 2162,-134.03"/>
<polygon fill="black" stroke="black" points="2165.5,-134.03 2162,-124.03 2158.5,-134.03 2165.5,-134.03"/>
</g>
<!-- nasalib/topology@subspace&#45;&gt;nasalib/topology@topology_def -->
<g id="edge45" class="edge">
<title>nasalib/topology@subspace&#45;&gt;nasalib/topology@topology_def</title>
<path fill="none" stroke="black" d="M1295.3,-308.76C1295.3,-308.76 1295.3,-204.42 1295.3,-204.42"/>
<polygon fill="black" stroke="black" points="1298.8,-204.42 1295.3,-194.42 1291.8,-204.42 1298.8,-204.42"/>
</g>
<!-- nasalib/topology@top_basic -->
<g id="node24" class="node">
<title>nasalib/topology@top_basic</title>
<ellipse fill="#e6f3ff" stroke="black" cx="1445" cy="-397" rx="44.39" ry="18"/>
<text text-anchor="middle" x="1445" y="-393.3" font-family="Times,serif" font-size="14.00">top_basic</text>
</g>
<!-- nasalib/topology@top_basic&#45;&gt;nasalib/topology@basis -->
<g id="edge46" class="edge">
<title>nasalib/topology@top_basic&#45;&gt;nasalib/topology@basis</title>
<path fill="none" stroke="black" d="M1402.9,-391C1350.37,-391 1267.36,-391 1267.36,-391 1267.36,-391 1267.36,-112 1267.36,-112 1267.36,-112 1325.85,-112 1325.85,-112"/>
<polygon fill="black" stroke="black" points="1325.85,-115.5 1335.85,-112 1325.85,-108.5 1325.85,-115.5"/>
</g>
<!-- nasalib/topology@top_basic&#45;&gt;nasalib/topology@cross_product -->
<g id="edge47" class="edge">
<title>nasalib/topology@top_basic&#45;&gt;nasalib/topology@cross_product</title>
<path fill="none" stroke="black" d="M1489.41,-397C1524.64,-397 1568,-397 1568,-397 1568,-397 1568,-353.17 1568,-353.17"/>
<polygon fill="black" stroke="black" points="1571.5,-353.17 1568,-343.17 1564.5,-353.17 1571.5,-353.17"/>
</g>
<!-- nasalib/topology@top_basic&#45;&gt;nasalib/topology@lindelof -->
<g id="edge48" class="edge">
<title>nasalib/topology@top_basic&#45;&gt;nasalib/topology@lindelof</title>
<path fill="none" stroke="black" d="M1451.42,-378.83C1451.42,-378.83 1451.42,-353.41 1451.42,-353.41"/>
<polygon fill="black" stroke="black" points="1454.92,-353.41 1451.42,-343.41 1447.92,-353.41 1454.92,-353.41"/>
</g>
<!-- nasalib/topology@top_basic&#45;&gt;nasalib/topology@subspace -->
<g id="edge49" class="edge">
<title>nasalib/topology@top_basic&#45;&gt;nasalib/topology@subspace</title>
<path fill="none" stroke="black" d="M1404.02,-390.1C1404.02,-372.08 1404.02,-325 1404.02,-325 1404.02,-325 1366.37,-325 1366.37,-325"/>
<polygon fill="black" stroke="black" points="1366.37,-321.5 1356.37,-325 1366.37,-328.5 1366.37,-321.5"/>
</g>
<!-- nasalib/topology@top_basic&#45;&gt;nasalib/topology@topology -->
<g id="edge50" class="edge">
<title>nasalib/topology@top_basic&#45;&gt;nasalib/topology@topology</title>
<path fill="none" stroke="black" d="M1410.44,-385.7C1410.44,-385.7 1410.44,-279.89 1410.44,-279.89"/>
<polygon fill="black" stroke="black" points="1413.94,-279.89 1410.44,-269.89 1406.94,-279.89 1413.94,-279.89"/>
</g>
<!-- nasalib/topology@top_basic&#45;&gt;nasalib/topology@topology_def -->
<g id="edge51" class="edge">
<title>nasalib/topology@top_basic&#45;&gt;nasalib/topology@topology_def</title>
<path fill="none" stroke="black" d="M1407.23,-387.42C1407.23,-360.98 1407.23,-289 1407.23,-289 1407.23,-289 1314.45,-289 1314.45,-289 1314.45,-289 1314.45,-208.35 1314.45,-208.35"/>
<polygon fill="black" stroke="black" points="1317.95,-208.35 1314.45,-198.35 1310.95,-208.35 1317.95,-208.35"/>
</g>
<!-- nasalib/topology@top_basic&#45;&gt;nasalib/topology@topology_prelim -->
<g id="edge52" class="edge">
<title>nasalib/topology@top_basic&#45;&gt;nasalib/topology@topology_prelim</title>
<path fill="none" stroke="black" d="M1400.35,-397C1345.2,-397 1258.58,-397 1258.58,-397 1258.58,-397 1258.58,-34 1258.58,-34 1258.58,-34 1283.35,-34 1283.35,-34"/>
<polygon fill="black" stroke="black" points="1283.35,-37.5 1293.35,-34 1283.35,-30.5 1283.35,-37.5"/>
</g>
<!-- nasalib/topology@top_compact -->
<g id="node25" class="node">
<title>nasalib/topology@top_compact</title>
<ellipse fill="#e6f3ff" stroke="black" cx="1970" cy="-397" rx="56.59" ry="18"/>
<text text-anchor="middle" x="1970" y="-393.3" font-family="Times,serif" font-size="14.00">top_compact</text>
</g>
<!-- nasalib/topology@top_compact&#45;&gt;nasalib/topology@compact_spaces -->
<g id="edge53" class="edge">
<title>nasalib/topology@top_compact&#45;&gt;nasalib/topology@compact_spaces</title>
<path fill="none" stroke="black" d="M1970,-378.83C1970,-378.83 1970,-353.41 1970,-353.41"/>
<polygon fill="black" stroke="black" points="1973.5,-353.41 1970,-343.41 1966.5,-353.41 1973.5,-353.41"/>
</g>
<!-- nasalib/topology@top_connected -->
<g id="node26" class="node">
<title>nasalib/topology@top_connected</title>
<ellipse fill="#e6f3ff" stroke="black" cx="1395" cy="-541" rx="61.99" ry="18"/>
<text text-anchor="middle" x="1395" y="-537.3" font-family="Times,serif" font-size="14.00">top_connected</text>
</g>
<!-- nasalib/topology@top_connected&#45;&gt;nasalib/topology@connected_def -->
<g id="edge54" class="edge">
<title>nasalib/topology@top_connected&#45;&gt;nasalib/topology@connected_def</title>
<path fill="none" stroke="black" d="M1415.5,-523.94C1415.5,-523.94 1415.5,-496.44 1415.5,-496.44"/>
<polygon fill="black" stroke="black" points="1419,-496.44 1415.5,-486.44 1412,-496.44 1419,-496.44"/>
</g>
<!-- nasalib/topology@top_connected&#45;&gt;nasalib/topology@connected_space -->
<g id="edge55" class="edge">
<title>nasalib/topology@top_connected&#45;&gt;nasalib/topology@connected_space</title>
<path fill="none" stroke="black" d="M1344.75,-530.41C1344.75,-504.87 1344.75,-442 1344.75,-442 1344.75,-442 1219.61,-442 1219.61,-442 1219.61,-442 1219.61,-350.78 1219.61,-350.78"/>
<polygon fill="black" stroke="black" points="1223.12,-350.78 1219.61,-340.78 1216.12,-350.78 1223.12,-350.78"/>
</g>
<!-- nasalib/topology@top_continuity -->
<g id="node27" class="node">
<title>nasalib/topology@top_continuity</title>
<ellipse fill="#e6f3ff" stroke="black" cx="1083" cy="-541" rx="61.99" ry="18"/>
<text text-anchor="middle" x="1083" y="-537.3" font-family="Times,serif" font-size="14.00">top_continuity</text>
</g>
<!-- nasalib/topology@top_continuity&#45;&gt;nasalib/topology@composition_continuity -->
<g id="edge56" class="edge">
<title>nasalib/topology@top_continuity&#45;&gt;nasalib/topology@composition_continuity</title>
<path fill="none" stroke="black" d="M1029.16,-550C929.42,-550 725.97,-550 725.97,-550 725.97,-550 725.97,-493.11 725.97,-493.11"/>
<polygon fill="black" stroke="black" points="729.47,-493.11 725.97,-483.11 722.47,-493.11 729.47,-493.11"/>
</g>
<!-- nasalib/topology@top_continuity&#45;&gt;nasalib/topology@constant_continuity -->
<g id="edge57" class="edge">
<title>nasalib/topology@top_continuity&#45;&gt;nasalib/topology@constant_continuity</title>
<path fill="none" stroke="black" d="M1021.18,-541C955.18,-541 860,-541 860,-541 860,-541 860,-497.17 860,-497.17"/>
<polygon fill="black" stroke="black" points="863.5,-497.17 860,-487.17 856.5,-497.17 863.5,-497.17"/>
</g>
<!-- nasalib/topology@top_continuity&#45;&gt;nasalib/topology@continuity -->
<g id="edge58" class="edge">
<title>nasalib/topology@top_continuity&#45;&gt;nasalib/topology@continuity</title>
<path fill="none" stroke="black" d="M1029.24,-532C992.99,-532 951.75,-532 951.75,-532 951.75,-532 951.75,-419.94 951.75,-419.94"/>
<polygon fill="black" stroke="black" points="955.25,-419.94 951.75,-409.94 948.25,-419.94 955.25,-419.94"/>
</g>
<!-- nasalib/topology@top_continuity&#45;&gt;nasalib/topology@continuity_def -->
<g id="edge59" class="edge">
<title>nasalib/topology@top_continuity&#45;&gt;nasalib/topology@continuity_def</title>
<path fill="none" stroke="black" d="M1124.12,-527.32C1124.12,-498.26 1124.12,-433 1124.12,-433 1124.12,-433 1052.01,-433 1052.01,-433 1052.01,-433 1052.01,-352.35 1052.01,-352.35"/>
<polygon fill="black" stroke="black" points="1055.51,-352.35 1052.01,-342.35 1048.51,-352.35 1055.51,-352.35"/>
</g>
<!-- nasalib/topology@top_continuity&#45;&gt;nasalib/topology@continuity_subspace -->
<g id="edge60" class="edge">
<title>nasalib/topology@top_continuity&#45;&gt;nasalib/topology@continuity_subspace</title>
<path fill="none" stroke="black" d="M1134.43,-530.99C1134.43,-511.21 1134.43,-469 1134.43,-469 1134.43,-469 1140.27,-469 1140.27,-469"/>
<polygon fill="black" stroke="black" points="1140.27,-472.5 1150.27,-469 1140.27,-465.5 1140.27,-472.5"/>
</g>
<!-- nasalib/topology@top_continuity&#45;&gt;nasalib/topology@identity_continuity -->
<g id="edge61" class="edge">
<title>nasalib/topology@top_continuity&#45;&gt;nasalib/topology@identity_continuity</title>
<path fill="none" stroke="black" d="M1066.8,-523.57C1066.8,-523.57 1066.8,-495.77 1066.8,-495.77"/>
<polygon fill="black" stroke="black" points="1070.3,-495.77 1066.8,-485.77 1063.3,-495.77 1070.3,-495.77"/>
</g>
<!-- nasalib/topology@top_convergence -->
<g id="node28" class="node">
<title>nasalib/topology@top_convergence</title>
<ellipse fill="#e6f3ff" stroke="black" cx="1759" cy="-469" rx="70.69" ry="18"/>
<text text-anchor="middle" x="1759" y="-465.3" font-family="Times,serif" font-size="14.00">top_convergence</text>
</g>
<!-- nasalib/topology@top_convergence&#45;&gt;nasalib/topology@hausdorff_convergence -->
<g id="edge62" class="edge">
<title>nasalib/topology@top_convergence&#45;&gt;nasalib/topology@hausdorff_convergence</title>
<path fill="none" stroke="black" d="M1759,-450.83C1759,-450.83 1759,-425.41 1759,-425.41"/>
<polygon fill="black" stroke="black" points="1762.5,-425.41 1759,-415.41 1755.5,-425.41 1762.5,-425.41"/>
</g>
<!-- nasalib/topology@top_convergence&#45;&gt;nasalib/topology@topological_convergence -->
<g id="edge63" class="edge">
<title>nasalib/topology@top_convergence&#45;&gt;nasalib/topology@topological_convergence</title>
<path fill="none" stroke="black" d="M1830.1,-469C1850.75,-469 1867.87,-469 1867.87,-469 1867.87,-469 1867.87,-344.9 1867.87,-344.9"/>
<polygon fill="black" stroke="black" points="1871.37,-344.9 1867.87,-334.9 1864.37,-344.9 1871.37,-344.9"/>
</g>
<!-- nasalib/topology@top_homeomorphic -->
<g id="node29" class="node">
<title>nasalib/topology@top_homeomorphic</title>
<ellipse fill="#e6f3ff" stroke="black" cx="404" cy="-613" rx="80.69" ry="18"/>
<text text-anchor="middle" x="404" y="-609.3" font-family="Times,serif" font-size="14.00">top_homeomorphic</text>
</g>
<!-- nasalib/topology@top_homeomorphic&#45;&gt;nasalib/topology@homeomorphic_reflexive -->
<g id="edge64" class="edge">
<title>nasalib/topology@top_homeomorphic&#45;&gt;nasalib/topology@homeomorphic_reflexive</title>
<path fill="none" stroke="black" d="M323.39,-613C238.19,-613 116,-613 116,-613 116,-613 116,-569.17 116,-569.17"/>
<polygon fill="black" stroke="black" points="119.5,-569.17 116,-559.17 112.5,-569.17 119.5,-569.17"/>
</g>
<!-- nasalib/topology@top_homeomorphic&#45;&gt;nasalib/topology@homeomorphic_symmetric -->
<g id="edge65" class="edge">
<title>nasalib/topology@top_homeomorphic&#45;&gt;nasalib/topology@homeomorphic_symmetric</title>
<path fill="none" stroke="black" d="M385.82,-595.2C385.82,-595.2 385.82,-567.61 385.82,-567.61"/>
<polygon fill="black" stroke="black" points="389.32,-567.61 385.82,-557.61 382.32,-567.61 389.32,-567.61"/>
</g>
<!-- nasalib/topology@top_homeomorphic&#45;&gt;nasalib/topology@homeomorphic_transitive -->
<g id="edge66" class="edge">
<title>nasalib/topology@top_homeomorphic&#45;&gt;nasalib/topology@homeomorphic_transitive</title>
<path fill="none" stroke="black" d="M472.48,-603.29C472.48,-583.64 472.48,-541 472.48,-541 472.48,-541 475.73,-541 475.73,-541"/>
<polygon fill="black" stroke="black" points="475.73,-544.5 485.73,-541 475.73,-537.5 475.73,-544.5"/>
</g>
<!-- nasalib/topology@top_homeomorphic&#45;&gt;nasalib/topology@homeomorphism_def -->
<g id="edge67" class="edge">
<title>nasalib/topology@top_homeomorphic&#45;&gt;nasalib/topology@homeomorphism_def</title>
<path fill="none" stroke="black" d="M460.36,-599.97C460.36,-599.97 460.36,-497.24 460.36,-497.24"/>
<polygon fill="black" stroke="black" points="463.86,-497.24 460.36,-487.24 456.86,-497.24 463.86,-497.24"/>
</g>
<!-- nasalib/topology@topological_convergence&#45;&gt;nasalib/reals -->
<g id="edge68" class="edge">
<title>nasalib/topology@topological_convergence&#45;&gt;nasalib/reals</title>
<path fill="none" stroke="black" d="M1819.12,-308.07C1819.12,-304.1 1819.12,-301 1819.12,-301 1819.12,-301 2180,-301 2180,-301 2180,-301 2180,-134.35 2180,-134.35"/>
<polygon fill="black" stroke="black" points="2183.5,-134.35 2180,-124.35 2176.5,-134.35 2183.5,-134.35"/>
</g>
<!-- nasalib/topology@topological_convergence&#45;&gt;nasalib/topology@subseq -->
<g id="edge69" class="edge">
<title>nasalib/topology@topological_convergence&#45;&gt;nasalib/topology@subseq</title>
<path fill="none" stroke="black" d="M1731.7,-309.73C1731.7,-309.73 1731.7,-280.01 1731.7,-280.01"/>
<polygon fill="black" stroke="black" points="1735.2,-280.01 1731.7,-270.01 1728.2,-280.01 1735.2,-280.01"/>
</g>
<!-- nasalib/topology@topological_convergence&#45;&gt;nasalib/topology@topology -->
<g id="edge70" class="edge">
<title>nasalib/topology@topological_convergence&#45;&gt;nasalib/topology@topology</title>
<path fill="none" stroke="black" d="M1686.01,-325C1681.64,-325 1679.05,-325 1679.05,-325 1679.05,-325 1679.05,-253 1679.05,-253 1679.05,-253 1447.53,-253 1447.53,-253"/>
<polygon fill="black" stroke="black" points="1447.53,-249.5 1437.53,-253 1447.53,-256.5 1447.53,-249.5"/>
</g>
<!-- nasalib/topology@topological_convergence&#45;&gt;nasalib/topology@topology_def -->
<g id="edge71" class="edge">
<title>nasalib/topology@topological_convergence&#45;&gt;nasalib/topology@topology_def</title>
<path fill="none" stroke="black" d="M1708.95,-313.08C1708.95,-300.66 1708.95,-283 1708.95,-283 1708.95,-283 1333.6,-283 1333.6,-283 1333.6,-283 1333.6,-209.24 1333.6,-209.24"/>
<polygon fill="black" stroke="black" points="1337.1,-209.24 1333.6,-199.24 1330.1,-209.24 1337.1,-209.24"/>
</g>
<!-- nasalib/topology@topology&#45;&gt;nasalib/topology@prelude_sets_aux -->
<g id="edge75" class="edge">
<title>nasalib/topology@topology&#45;&gt;nasalib/topology@prelude_sets_aux</title>
<path fill="none" stroke="black" d="M1433.38,-245.29C1433.38,-245.29 1433.38,-197.19 1433.38,-197.19"/>
<polygon fill="black" stroke="black" points="1436.88,-197.19 1433.38,-187.19 1429.88,-197.19 1436.88,-197.19"/>
</g>
<!-- nasalib/topology@topology&#45;&gt;nasalib/topology@topology_def -->
<g id="edge76" class="edge">
<title>nasalib/topology@topology&#45;&gt;nasalib/topology@topology_def</title>
<path fill="none" stroke="black" d="M1362.53,-241.43C1362.53,-241.43 1362.53,-206.83 1362.53,-206.83"/>
<polygon fill="black" stroke="black" points="1366.03,-206.83 1362.53,-196.83 1359.03,-206.83 1366.03,-206.83"/>
</g>
<!-- nasalib/topology@topology&#45;&gt;nasalib/topology@topology_prelim -->
<g id="edge77" class="edge">
<title>nasalib/topology@topology&#45;&gt;nasalib/topology@topology_prelim</title>
<path fill="none" stroke="black" d="M1410.68,-236.18C1410.68,-236.18 1410.68,-57.16 1410.68,-57.16"/>
<polygon fill="black" stroke="black" points="1414.18,-57.16 1410.68,-47.16 1407.18,-57.16 1414.18,-57.16"/>
</g>
<!-- nasalib/topology@topology_def&#45;&gt;nasalib/sets_aux -->
<g id="edge72" class="edge">
<title>nasalib/topology@topology_def&#45;&gt;nasalib/sets_aux</title>
<path fill="none" stroke="black" d="M1391.91,-181C1397.57,-181 1401.26,-181 1401.26,-181 1401.26,-181 1401.26,-106 1401.26,-106 1401.26,-106 2052.43,-106 2052.43,-106"/>
<polygon fill="black" stroke="black" points="2052.43,-109.5 2062.43,-106 2052.43,-102.5 2052.43,-109.5"/>
</g>
<!-- nasalib/topology@topology_def&#45;&gt;nasalib/topology@basis -->
<g id="edge73" class="edge">
<title>nasalib/topology@topology_def&#45;&gt;nasalib/topology@basis</title>
<path fill="none" stroke="black" d="M1363,-165.09C1363,-165.09 1363,-134.26 1363,-134.26"/>
<polygon fill="black" stroke="black" points="1366.5,-134.26 1363,-124.26 1359.5,-134.26 1366.5,-134.26"/>
</g>
<!-- nasalib/topology@topology_def&#45;&gt;nasalib/topology@topology_prelim -->
<g id="edge74" class="edge">
<title>nasalib/topology@topology_def&#45;&gt;nasalib/topology@topology_prelim</title>
<path fill="none" stroke="black" d="M1313.93,-163.85C1313.93,-163.85 1313.93,-56.76 1313.93,-56.76"/>
<polygon fill="black" stroke="black" points="1317.43,-56.76 1313.93,-46.76 1310.43,-56.76 1317.43,-56.76"/>
</g>
</g>
</svg>
