<?xml version="1.0" encoding="UTF-8" standalone="no"?>
<!DOCTYPE svg PUBLIC "-//W3C//DTD SVG 1.1//EN"
 "http://www.w3.org/Graphics/SVG/1.1/DTD/svg11.dtd">
<!-- Generated by graphviz version 8.1.0 (20230707.0739)
 -->
<!-- Title: topology Pages: 1 -->
<svg width="594pt" height="761pt"
 viewBox="0.00 0.00 594.00 761.00" xmlns="http://www.w3.org/2000/svg" xmlns:xlink="http://www.w3.org/1999/xlink">
<g id="graph0" class="graph" transform="scale(1 1) rotate(0) translate(4 757)">
<title>topology</title>
<polygon fill="white" stroke="none" points="-4,4 -4,-757 590,-757 590,4 -4,4"/>
<g id="clust1" class="cluster">
<title>cluster_NASALib</title>
<polygon fill="none" stroke="black" points="8,-92.5 8,-745 566,-745 566,-92.5 8,-92.5"/>
<text text-anchor="middle" x="287" y="-727.7" font-family="Times,serif" font-size="14.00">NASALib</text>
</g>
<g id="clust2" class="cluster">
<title>cluster_PVS Prelude</title>
<polygon fill="none" stroke="black" points="383,-8 383,-84.5 471,-84.5 471,-8 383,-8"/>
<text text-anchor="middle" x="427" y="-67.2" font-family="Times,serif" font-size="14.00">PVS Prelude</text>
</g>
<!-- lib/finite_sets -->
<g id="node1" class="node">
<title>lib/finite_sets</title>
<polygon fill="#fcfcd7" stroke="black" points="462.75,-52 391.25,-52 391.25,-16 462.75,-16 462.75,-52"/>
<text text-anchor="middle" x="427" y="-28.95" font-family="Times,serif" font-size="14.00">finite_sets</text>
</g>
<!-- nasalib/ODEs -->
<g id="node2" class="node">
<title>nasalib/ODEs</title>
<polygon fill="#fcfcd7" stroke="black" points="110,-640.5 56,-640.5 56,-604.5 110,-604.5 110,-640.5"/>
<text text-anchor="middle" x="83" y="-617.45" font-family="Times,serif" font-size="14.00">ODEs</text>
</g>
<!-- nasalib/metric_space -->
<g id="node8" class="node">
<title>nasalib/metric_space</title>
<polygon fill="#fcfcd7" stroke="black" points="265,-496.5 177,-496.5 177,-460.5 265,-460.5 265,-496.5"/>
<text text-anchor="middle" x="221" y="-473.45" font-family="Times,serif" font-size="14.00">metric_space</text>
</g>
<!-- nasalib/ODEs&#45;&gt;nasalib/metric_space -->
<g id="edge1" class="edge">
<title>nasalib/ODEs&#45;&gt;nasalib/metric_space</title>
<path fill="none" stroke="black" d="M110.21,-604.73C135.41,-589.2 169,-568.5 169,-568.5 169,-568.5 190.12,-532.35 205.44,-506.13"/>
<polygon fill="black" stroke="black" points="208.95,-508.06 210.97,-497.66 202.91,-504.53 208.95,-508.06"/>
</g>
<!-- nasalib/mv_analysis -->
<g id="node9" class="node">
<title>nasalib/mv_analysis</title>
<polygon fill="#fcfcd7" stroke="black" points="160.12,-568.5 75.88,-568.5 75.88,-532.5 160.12,-532.5 160.12,-568.5"/>
<text text-anchor="middle" x="118" y="-545.45" font-family="Times,serif" font-size="14.00">mv_analysis</text>
</g>
<!-- nasalib/ODEs&#45;&gt;nasalib/mv_analysis -->
<g id="edge2" class="edge">
<title>nasalib/ODEs&#45;&gt;nasalib/mv_analysis</title>
<path fill="none" stroke="black" d="M91.65,-604.2C95.55,-596.4 100.25,-587.01 104.59,-578.33"/>
<polygon fill="black" stroke="black" points="108.11,-580.11 109.45,-569.6 101.85,-576.98 108.11,-580.11"/>
</g>
<!-- nasalib/structures -->
<g id="node15" class="node">
<title>nasalib/structures</title>
<polygon fill="#fcfcd7" stroke="black" points="366.25,-208.5 297.75,-208.5 297.75,-172.5 366.25,-172.5 366.25,-208.5"/>
<text text-anchor="middle" x="332" y="-185.45" font-family="Times,serif" font-size="14.00">structures</text>
</g>
<!-- nasalib/ODEs&#45;&gt;nasalib/structures -->
<g id="edge3" class="edge">
<title>nasalib/ODEs&#45;&gt;nasalib/structures</title>
<path fill="none" stroke="black" d="M118,-405.5C118,-405.5 133,-388.5 133,-388.5 133,-388.5 274,-244.5 274,-244.5 274,-244.5 290.02,-229.86 305.22,-215.97"/>
<polygon fill="black" stroke="black" points="306.99,-219.18 312.01,-209.85 302.27,-214.02 306.99,-219.18"/>
<path fill="none" stroke="black" d="M76.45,-604.15C70.62,-588.69 63,-568.5 63,-568.5 63,-568.5 63,-532.5 63,-532.5 63,-532.5 118,-407.5 118,-407.5"/>
</g>
<!-- nasalib/complex_integration -->
<g id="node3" class="node">
<title>nasalib/complex_integration</title>
<polygon fill="#fcfcd7" stroke="black" points="451.25,-640.5 322.75,-640.5 322.75,-604.5 451.25,-604.5 451.25,-640.5"/>
<text text-anchor="middle" x="387" y="-617.45" font-family="Times,serif" font-size="14.00">complex_integration</text>
</g>
<!-- nasalib/measure_integration -->
<g id="node7" class="node">
<title>nasalib/measure_integration</title>
<polygon fill="#fcfcd7" stroke="black" points="405.5,-568.5 278.5,-568.5 278.5,-532.5 405.5,-532.5 405.5,-568.5"/>
<text text-anchor="middle" x="342" y="-545.45" font-family="Times,serif" font-size="14.00">measure_integration</text>
</g>
<!-- nasalib/complex_integration&#45;&gt;nasalib/measure_integration -->
<g id="edge4" class="edge">
<title>nasalib/complex_integration&#45;&gt;nasalib/measure_integration</title>
<path fill="none" stroke="black" d="M375.88,-604.2C370.75,-596.23 364.56,-586.6 358.88,-577.76"/>
<polygon fill="black" stroke="black" points="361.35,-576.12 353,-569.6 355.46,-579.91 361.35,-576.12"/>
</g>
<!-- nasalib/complex_integration&#45;&gt;nasalib/metric_space -->
<g id="edge5" class="edge">
<title>nasalib/complex_integration&#45;&gt;nasalib/metric_space</title>
<path fill="none" stroke="black" d="M348.36,-604.15C313.95,-588.69 269,-568.5 269,-568.5 269,-568.5 239,-551.5 239,-551.5"/>
</g>
<!-- nasalib/complex_integration&#45;&gt;nasalib/structures -->
<g id="edge6" class="edge">
<title>nasalib/complex_integration&#45;&gt;nasalib/structures</title>
<path fill="none" stroke="black" d="M432.84,-604.15C473.67,-588.69 527,-568.5 527,-568.5 527,-568.5 557,-335.5 557,-335.5"/>
<path fill="none" stroke="black" d="M557,-333.5C557,-333.5 481,-244.5 481,-244.5 481,-244.5 420.64,-223.03 376.76,-207.42"/>
<polygon fill="black" stroke="black" points="378.15,-203.85 367.56,-203.79 375.81,-210.44 378.15,-203.85"/>
</g>
<!-- nasalib/topology -->
<g id="node16" class="node">
<title>nasalib/topology</title>
<polygon fill="#f7e28d" stroke="black" points="360,-424.5 296,-424.5 296,-388.5 360,-388.5 360,-424.5"/>
<text text-anchor="middle" x="328" y="-401.45" font-family="Times,serif" font-size="14.00">topology</text>
</g>
<!-- nasalib/complex_integration&#45;&gt;nasalib/topology -->
<g id="edge7" class="edge">
<title>nasalib/complex_integration&#45;&gt;nasalib/topology</title>
<path fill="none" stroke="black" d="M396.17,-604.15C404.33,-588.69 415,-568.5 415,-568.5 415,-568.5 415,-532.5 415,-532.5 415,-532.5 342,-479.5 342,-479.5"/>
</g>
<!-- nasalib/dL -->
<g id="node4" class="node">
<title>nasalib/dL</title>
<polygon fill="#fcfcd7" stroke="black" points="133,-712.5 79,-712.5 79,-676.5 133,-676.5 133,-712.5"/>
<text text-anchor="middle" x="106" y="-689.45" font-family="Times,serif" font-size="14.00">dL</text>
</g>
<!-- nasalib/dL&#45;&gt;nasalib/ODEs -->
<g id="edge8" class="edge">
<title>nasalib/dL&#45;&gt;nasalib/ODEs</title>
<path fill="none" stroke="black" d="M100.31,-676.2C97.81,-668.57 94.8,-659.42 92,-650.9"/>
<polygon fill="black" stroke="black" points="95.07,-650.01 88.62,-641.6 88.42,-652.2 95.07,-650.01"/>
</g>
<!-- nasalib/dL&#45;&gt;nasalib/mv_analysis -->
<g id="edge9" class="edge">
<title>nasalib/dL&#45;&gt;nasalib/mv_analysis</title>
<path fill="none" stroke="black" d="M110.26,-676.15C114.05,-660.69 119,-640.5 119,-640.5 119,-640.5 119,-604.5 119,-604.5 119,-604.5 118.77,-592.42 118.53,-579.8"/>
<polygon fill="black" stroke="black" points="122.02,-579.79 118.33,-569.85 115.02,-579.92 122.02,-579.79"/>
</g>
<!-- nasalib/orders -->
<g id="node10" class="node">
<title>nasalib/orders</title>
<polygon fill="#fcfcd7" stroke="black" points="472,-280.5 418,-280.5 418,-244.5 472,-244.5 472,-280.5"/>
<text text-anchor="middle" x="445" y="-257.45" font-family="Times,serif" font-size="14.00">orders</text>
</g>
<!-- nasalib/dL&#45;&gt;nasalib/orders -->
<g id="edge10" class="edge">
<title>nasalib/dL&#45;&gt;nasalib/orders</title>
<path fill="none" stroke="black" d="M133.48,-689.39C216.66,-676.93 460,-640.5 460,-640.5 460,-640.5 534,-568.5 534,-568.5 534,-568.5 557,-407.5 557,-407.5"/>
<path fill="none" stroke="black" d="M557,-405.5C557,-405.5 514,-335.5 514,-335.5"/>
</g>
<!-- nasalib/reals -->
<g id="node12" class="node">
<title>nasalib/reals</title>
<polygon fill="#fcfcd7" stroke="black" points="280,-352.5 226,-352.5 226,-316.5 280,-316.5 280,-352.5"/>
<text text-anchor="middle" x="253" y="-329.45" font-family="Times,serif" font-size="14.00">reals</text>
</g>
<!-- nasalib/dL&#45;&gt;nasalib/reals -->
<g id="edge11" class="edge">
<title>nasalib/dL&#45;&gt;nasalib/reals</title>
<path fill="none" stroke="black" d="M138,-405.5C138,-405.5 182.9,-378.17 216.59,-357.66"/>
<polygon fill="black" stroke="black" points="218.02,-360.28 224.75,-352.09 214.38,-354.3 218.02,-360.28"/>
<path fill="none" stroke="black" d="M86.68,-676.15C69.47,-660.69 47,-640.5 47,-640.5 47,-640.5 47,-604.5 47,-604.5 47,-604.5 67,-532.5 67,-532.5 67,-532.5 138,-407.5 138,-407.5"/>
</g>
<!-- nasalib/dL&#45;&gt;nasalib/structures -->
<g id="edge12" class="edge">
<title>nasalib/dL&#45;&gt;nasalib/structures</title>
<path fill="none" stroke="black" d="M557,-405.5C557,-405.5 557,-335.5 557,-335.5"/>
</g>
<!-- nasalib/ints -->
<g id="node5" class="node">
<title>nasalib/ints</title>
<polygon fill="#fcfcd7" stroke="black" points="359,-136.5 305,-136.5 305,-100.5 359,-100.5 359,-136.5"/>
<text text-anchor="middle" x="332" y="-113.45" font-family="Times,serif" font-size="14.00">ints</text>
</g>
<!-- nasalib/ints&#45;&gt;lib/finite_sets -->
<g id="edge13" class="edge">
<title>nasalib/ints&#45;&gt;lib/finite_sets</title>
<path fill="none" stroke="black" d="M352.15,-100C365.75,-88.19 383.89,-72.44 398.91,-59.39"/>
<polygon fill="black" stroke="black" points="400.63,-61.67 405.88,-52.47 396.04,-56.39 400.63,-61.67"/>
</g>
<!-- nasalib/lebesgue -->
<g id="node6" class="node">
<title>nasalib/lebesgue</title>
<polygon fill="#fcfcd7" stroke="black" points="304.62,-640.5 241.38,-640.5 241.38,-604.5 304.62,-604.5 304.62,-640.5"/>
<text text-anchor="middle" x="273" y="-617.45" font-family="Times,serif" font-size="14.00">lebesgue</text>
</g>
<!-- nasalib/lebesgue&#45;&gt;nasalib/measure_integration -->
<g id="edge14" class="edge">
<title>nasalib/lebesgue&#45;&gt;nasalib/measure_integration</title>
<path fill="none" stroke="black" d="M290.06,-604.2C298.33,-595.8 308.42,-585.57 317.49,-576.36"/>
<polygon fill="black" stroke="black" points="319.61,-579.18 324.14,-569.6 314.63,-574.27 319.61,-579.18"/>
</g>
<!-- nasalib/lebesgue&#45;&gt;nasalib/metric_space -->
<g id="edge15" class="edge">
<title>nasalib/lebesgue&#45;&gt;nasalib/metric_space</title>
<path fill="none" stroke="black" d="M264.6,-604.2C254.53,-583.47 239,-551.5 239,-551.5"/>
<path fill="none" stroke="black" d="M239,-549.5C239,-549.5 233.2,-526.95 228.19,-507.45"/>
<polygon fill="black" stroke="black" points="231.33,-506.62 225.45,-497.8 224.55,-508.36 231.33,-506.62"/>
</g>
<!-- nasalib/lebesgue&#45;&gt;nasalib/reals -->
<g id="edge16" class="edge">
<title>nasalib/lebesgue&#45;&gt;nasalib/reals</title>
<path fill="none" stroke="black" d="M259,-549.5C259,-549.5 274,-496.5 274,-496.5 274,-496.5 274,-460.5 274,-460.5 274,-460.5 138,-407.5 138,-407.5"/>
<path fill="none" stroke="black" d="M269.54,-604.2C265.39,-583.47 259,-551.5 259,-551.5"/>
</g>
<!-- nasalib/sets_aux -->
<g id="node14" class="node">
<title>nasalib/sets_aux</title>
<polygon fill="#fcfcd7" stroke="black" points="380.25,-352.5 317.75,-352.5 317.75,-316.5 380.25,-316.5 380.25,-352.5"/>
<text text-anchor="middle" x="349" y="-329.45" font-family="Times,serif" font-size="14.00">sets_aux</text>
</g>
<!-- nasalib/lebesgue&#45;&gt;nasalib/sets_aux -->
<g id="edge17" class="edge">
<title>nasalib/lebesgue&#45;&gt;nasalib/sets_aux</title>
<path fill="none" stroke="black" d="M399,-405.5C399,-405.5 381.83,-381.46 367.61,-361.56"/>
<polygon fill="black" stroke="black" points="370.02,-359.91 361.36,-353.8 364.32,-363.98 370.02,-359.91"/>
<path fill="none" stroke="black" d="M304.9,-608.27C310.19,-606.08 314,-604.5 314,-604.5 314,-604.5 415,-568.5 415,-568.5 415,-568.5 415,-532.5 415,-532.5 415,-532.5 409,-496.5 409,-496.5 409,-496.5 399,-407.5 399,-407.5"/>
</g>
<!-- nasalib/lebesgue&#45;&gt;nasalib/structures -->
<g id="edge18" class="edge">
<title>nasalib/lebesgue&#45;&gt;nasalib/structures</title>
<path fill="none" stroke="black" d="M399,-405.5C399,-405.5 399,-335.5 399,-335.5"/>
</g>
<!-- nasalib/lebesgue&#45;&gt;nasalib/topology -->
<g id="edge19" class="edge">
<title>nasalib/lebesgue&#45;&gt;nasalib/topology</title>
<path fill="none" stroke="black" d="M259,-549.5C259,-549.5 269,-532.5 269,-532.5 269,-532.5 342,-479.5 342,-479.5"/>
<path fill="none" stroke="black" d="M342,-477.5C342,-477.5 337.49,-454.95 333.59,-435.45"/>
<polygon fill="black" stroke="black" points="336.85,-434.92 331.46,-425.8 329.99,-436.3 336.85,-434.92"/>
</g>
<!-- nasalib/measure_integration&#45;&gt;lib/finite_sets -->
<g id="edge20" class="edge">
<title>nasalib/measure_integration&#45;&gt;lib/finite_sets</title>
<path fill="none" stroke="black" d="M405.81,-534.67C473.26,-518.99 570,-496.5 570,-496.5 570,-496.5 586,-407.5 586,-407.5"/>
</g>
<!-- nasalib/measure_integration&#45;&gt;nasalib/metric_space -->
<g id="edge21" class="edge">
<title>nasalib/measure_integration&#45;&gt;nasalib/metric_space</title>
<path fill="none" stroke="black" d="M311.78,-532.02C296.21,-523.01 277.05,-511.92 260.34,-502.26"/>
<polygon fill="black" stroke="black" points="262.24,-498.74 251.84,-496.76 258.74,-504.8 262.24,-498.74"/>
</g>
<!-- nasalib/measure_integration&#45;&gt;nasalib/orders -->
<g id="edge22" class="edge">
<title>nasalib/measure_integration&#45;&gt;nasalib/orders</title>
<path fill="none" stroke="black" d="M514,-333.5C514,-333.5 489.44,-308.59 469.63,-288.48"/>
<polygon fill="black" stroke="black" points="472.57,-286.47 463.06,-281.8 467.58,-291.38 472.57,-286.47"/>
<path fill="none" stroke="black" d="M387.51,-532.15C428.05,-516.69 481,-496.5 481,-496.5 481,-496.5 491,-479.5 491,-479.5"/>
<path fill="none" stroke="black" d="M491,-477.5C491,-477.5 514,-335.5 514,-335.5"/>
</g>
<!-- nasalib/measure_integration&#45;&gt;nasalib/reals -->
<g id="edge23" class="edge">
<title>nasalib/measure_integration&#45;&gt;nasalib/reals</title>
<path fill="none" stroke="black" d="M334.35,-532.12C319.24,-497.77 287,-424.5 287,-424.5 287,-424.5 273.43,-388.98 263.44,-362.82"/>
<polygon fill="black" stroke="black" points="266.39,-361.75 259.56,-353.66 259.85,-364.25 266.39,-361.75"/>
</g>
<!-- nasalib/measure_integration&#45;&gt;nasalib/sets_aux -->
<g id="edge24" class="edge">
<title>nasalib/measure_integration&#45;&gt;nasalib/sets_aux</title>
<path fill="none" stroke="black" d="M346.54,-532.09C356.42,-494.17 379,-407.5 379,-407.5"/>
<path fill="none" stroke="black" d="M379,-405.5C379,-405.5 369.16,-382.53 360.75,-362.91"/>
<polygon fill="black" stroke="black" points="363.57,-361.62 356.42,-353.8 357.14,-364.37 363.57,-361.62"/>
</g>
<!-- nasalib/measure_integration&#45;&gt;nasalib/structures -->
<g id="edge25" class="edge">
<title>nasalib/measure_integration&#45;&gt;nasalib/structures</title>
<path fill="none" stroke="black" d="M379,-405.5C379,-405.5 399,-335.5 399,-335.5"/>
<path fill="none" stroke="black" d="M399,-333.5C399,-333.5 399,-263.5 399,-263.5"/>
<path fill="none" stroke="black" d="M399,-261.5C399,-261.5 375.15,-236.59 355.91,-216.48"/>
<polygon fill="black" stroke="black" points="359,-214.61 349.56,-209.8 353.95,-219.45 359,-214.61"/>
</g>
<!-- nasalib/measure_integration&#45;&gt;nasalib/topology -->
<g id="edge26" class="edge">
<title>nasalib/measure_integration&#45;&gt;nasalib/topology</title>
<path fill="none" stroke="black" d="M342,-532.2C342,-511.47 342,-479.5 342,-479.5"/>
</g>
<!-- nasalib/metric_space&#45;&gt;lib/finite_sets -->
<g id="edge27" class="edge">
<title>nasalib/metric_space&#45;&gt;lib/finite_sets</title>
<path fill="none" stroke="black" d="M586,-405.5C586,-405.5 586,-263.5 586,-263.5"/>
<path fill="none" stroke="black" d="M265.39,-468.99C362.66,-450.33 586,-407.5 586,-407.5"/>
</g>
<!-- nasalib/metric_space&#45;&gt;nasalib/reals -->
<g id="edge28" class="edge">
<title>nasalib/metric_space&#45;&gt;nasalib/reals</title>
<path fill="none" stroke="black" d="M200.48,-460.2C175.9,-439.47 138,-407.5 138,-407.5"/>
</g>
<!-- nasalib/metric_space&#45;&gt;nasalib/sets_aux -->
<g id="edge29" class="edge">
<title>nasalib/metric_space&#45;&gt;nasalib/sets_aux</title>
<path fill="none" stroke="black" d="M233.73,-460.34C252.9,-434.48 287,-388.5 287,-388.5 287,-388.5 304.13,-373.86 320.38,-359.97"/>
<polygon fill="black" stroke="black" points="322.37,-362.01 327.7,-352.85 317.82,-356.69 322.37,-362.01"/>
</g>
<!-- nasalib/metric_space&#45;&gt;nasalib/topology -->
<g id="edge30" class="edge">
<title>nasalib/metric_space&#45;&gt;nasalib/topology</title>
<path fill="none" stroke="black" d="M247.72,-460.02C261.36,-451.1 278.12,-440.13 292.8,-430.53"/>
<polygon fill="black" stroke="black" points="294.16,-433.16 300.62,-424.76 290.33,-427.31 294.16,-433.16"/>
</g>
<!-- nasalib/mv_analysis&#45;&gt;nasalib/metric_space -->
<g id="edge31" class="edge">
<title>nasalib/mv_analysis&#45;&gt;nasalib/metric_space</title>
<path fill="none" stroke="black" d="M143.73,-532.02C156.73,-523.18 172.68,-512.34 186.71,-502.8"/>
<polygon fill="black" stroke="black" points="188.3,-505.28 194.6,-496.76 184.36,-499.49 188.3,-505.28"/>
</g>
<!-- nasalib/mv_analysis&#45;&gt;nasalib/reals -->
<g id="edge32" class="edge">
<title>nasalib/mv_analysis&#45;&gt;nasalib/reals</title>
<path fill="none" stroke="black" d="M122.94,-532.2C128.87,-511.47 138,-479.5 138,-479.5"/>
</g>
<!-- nasalib/mv_analysis&#45;&gt;nasalib/structures -->
<g id="edge33" class="edge">
<title>nasalib/mv_analysis&#45;&gt;nasalib/structures</title>
<path fill="none" stroke="black" d="M118,-532.2C118,-511.47 118,-479.5 118,-479.5"/>
</g>
<!-- nasalib/orders&#45;&gt;lib/finite_sets -->
<g id="edge34" class="edge">
<title>nasalib/orders&#45;&gt;lib/finite_sets</title>
<path fill="none" stroke="black" d="M586,-189.5C586,-189.5 586,-119.5 586,-119.5"/>
<path fill="none" stroke="black" d="M472.43,-249.87C509.23,-234.27 570,-208.5 570,-208.5 570,-208.5 586,-191.5 586,-191.5"/>
</g>
<!-- nasalib/orders&#45;&gt;nasalib/structures -->
<g id="edge35" class="edge">
<title>nasalib/orders&#45;&gt;nasalib/structures</title>
<path fill="none" stroke="black" d="M417.65,-244.55C403.01,-235.49 384.79,-224.2 368.92,-214.37"/>
<polygon fill="black" stroke="black" points="371.23,-211.07 360.89,-208.78 367.55,-217.02 371.23,-211.07"/>
</g>
<!-- nasalib/probability -->
<g id="node11" class="node">
<title>nasalib/probability</title>
<polygon fill="#fcfcd7" stroke="black" points="223.62,-640.5 148.38,-640.5 148.38,-604.5 223.62,-604.5 223.62,-640.5"/>
<text text-anchor="middle" x="186" y="-617.45" font-family="Times,serif" font-size="14.00">probability</text>
</g>
<!-- nasalib/probability&#45;&gt;nasalib/measure_integration -->
<g id="edge36" class="edge">
<title>nasalib/probability&#45;&gt;nasalib/measure_integration</title>
<path fill="none" stroke="black" d="M223.76,-604.55C244.64,-595.19 270.82,-583.44 293.23,-573.38"/>
<polygon fill="black" stroke="black" points="294.54,-576.18 302.23,-568.9 291.67,-569.8 294.54,-576.18"/>
</g>
<!-- nasalib/probability&#45;&gt;nasalib/metric_space -->
<g id="edge37" class="edge">
<title>nasalib/probability&#45;&gt;nasalib/metric_space</title>
<path fill="none" stroke="black" d="M219,-549.5C219,-549.5 219.64,-527.16 220.19,-507.72"/>
<polygon fill="black" stroke="black" points="223.72,-507.9 220.51,-497.8 216.72,-507.7 223.72,-507.9"/>
</g>
<!-- nasalib/probability&#45;&gt;nasalib/reals -->
<g id="edge38" class="edge">
<title>nasalib/probability&#45;&gt;nasalib/reals</title>
<path fill="none" stroke="black" d="M138,-477.5C138,-477.5 138,-407.5 138,-407.5"/>
<path fill="none" stroke="black" d="M182.72,-604.34C177.78,-578.48 169,-532.5 169,-532.5 169,-532.5 138,-479.5 138,-479.5"/>
</g>
<!-- nasalib/probability&#45;&gt;nasalib/structures -->
<g id="edge39" class="edge">
<title>nasalib/probability&#45;&gt;nasalib/structures</title>
<path fill="none" stroke="black" d="M148.02,-604.58C113.19,-589.07 67,-568.5 67,-568.5 67,-568.5 67,-532.5 67,-532.5 67,-532.5 103,-496.5 103,-496.5 103,-496.5 118,-479.5 118,-479.5"/>
<path fill="none" stroke="black" d="M118,-477.5C118,-477.5 118,-407.5 118,-407.5"/>
</g>
<!-- nasalib/probability&#45;&gt;nasalib/topology -->
<g id="edge40" class="edge">
<title>nasalib/probability&#45;&gt;nasalib/topology</title>
<path fill="none" stroke="black" d="M219,-549.5C219,-549.5 168,-496.5 168,-496.5 168,-496.5 168,-460.5 168,-460.5 168,-460.5 237.9,-437.35 285.29,-421.65"/>
<polygon fill="black" stroke="black" points="286.23,-424.69 294.62,-418.23 284.03,-418.05 286.23,-424.69"/>
<path fill="none" stroke="black" d="M194.16,-604.2C203.93,-583.47 219,-551.5 219,-551.5"/>
</g>
<!-- nasalib/reals&#45;&gt;nasalib/ints -->
<g id="edge41" class="edge">
<title>nasalib/reals&#45;&gt;nasalib/ints</title>
<path fill="none" stroke="black" d="M279,-261.5C279,-261.5 279,-191.5 279,-191.5"/>
<path fill="none" stroke="black" d="M259.43,-316.2C267.13,-295.47 279,-263.5 279,-263.5"/>
<path fill="none" stroke="black" d="M279,-189.5C279,-189.5 289,-172.5 289,-172.5 289,-172.5 300.23,-158.65 311.22,-145.12"/>
<polygon fill="black" stroke="black" points="314.34,-147.82 317.92,-137.85 308.9,-143.41 314.34,-147.82"/>
</g>
<!-- nasalib/reals&#45;&gt;nasalib/structures -->
<g id="edge42" class="edge">
<title>nasalib/reals&#45;&gt;nasalib/structures</title>
<path fill="none" stroke="black" d="M279,-261.5C279,-261.5 297.2,-237.46 312.27,-217.56"/>
<polygon fill="black" stroke="black" points="315.65,-219.89 318.9,-209.8 310.07,-215.66 315.65,-219.89"/>
</g>
<!-- nasalib/scott -->
<g id="node13" class="node">
<title>nasalib/scott</title>
<polygon fill="#fcfcd7" stroke="black" points="472,-496.5 418,-496.5 418,-460.5 472,-460.5 472,-496.5"/>
<text text-anchor="middle" x="445" y="-473.45" font-family="Times,serif" font-size="14.00">scott</text>
</g>
<!-- nasalib/scott&#45;&gt;nasalib/orders -->
<g id="edge43" class="edge">
<title>nasalib/scott&#45;&gt;nasalib/orders</title>
<path fill="none" stroke="black" d="M445,-333.5C445,-333.5 445,-311.16 445,-291.72"/>
<polygon fill="black" stroke="black" points="448.5,-291.8 445,-281.8 441.5,-291.8 448.5,-291.8"/>
</g>
<!-- nasalib/scott&#45;&gt;nasalib/structures -->
<g id="edge44" class="edge">
<title>nasalib/scott&#45;&gt;nasalib/structures</title>
<path fill="none" stroke="black" d="M445,-333.5C445,-333.5 409,-280.5 409,-280.5 409,-280.5 399,-263.5 399,-263.5"/>
<path fill="none" stroke="black" d="M445,-460.09C445,-422.17 445,-335.5 445,-335.5"/>
</g>
<!-- nasalib/scott&#45;&gt;nasalib/topology -->
<g id="edge45" class="edge">
<title>nasalib/scott&#45;&gt;nasalib/topology</title>
<path fill="none" stroke="black" d="M417.57,-461.09C402.18,-451.88 382.75,-440.26 365.93,-430.19"/>
<polygon fill="black" stroke="black" points="368.27,-426.92 357.89,-424.79 364.68,-432.92 368.27,-426.92"/>
</g>
<!-- nasalib/sets_aux&#45;&gt;lib/finite_sets -->
<g id="edge46" class="edge">
<title>nasalib/sets_aux&#45;&gt;lib/finite_sets</title>
<path fill="none" stroke="black" d="M380.66,-325.91C441.77,-311.25 570,-280.5 570,-280.5 570,-280.5 586,-263.5 586,-263.5"/>
<path fill="none" stroke="black" d="M586,-261.5C586,-261.5 586,-191.5 586,-191.5"/>
</g>
<!-- nasalib/sets_aux&#45;&gt;nasalib/ints -->
<g id="edge47" class="edge">
<title>nasalib/sets_aux&#45;&gt;nasalib/ints</title>
<path fill="none" stroke="black" d="M319,-261.5C319,-261.5 279,-191.5 279,-191.5"/>
<path fill="none" stroke="black" d="M341.58,-316.2C332.7,-295.47 319,-263.5 319,-263.5"/>
</g>
<!-- nasalib/sets_aux&#45;&gt;nasalib/orders -->
<g id="edge48" class="edge">
<title>nasalib/sets_aux&#45;&gt;nasalib/orders</title>
<path fill="none" stroke="black" d="M372.73,-316.2C384.73,-307.45 399.48,-296.69 412.51,-287.19"/>
<polygon fill="black" stroke="black" points="414.19,-289.57 420.21,-280.85 410.07,-283.91 414.19,-289.57"/>
</g>
<!-- nasalib/sets_aux&#45;&gt;nasalib/structures -->
<g id="edge49" class="edge">
<title>nasalib/sets_aux&#45;&gt;nasalib/structures</title>
<path fill="none" stroke="black" d="M319,-261.5C319,-261.5 323.19,-238.95 326.81,-219.45"/>
<polygon fill="black" stroke="black" points="330.4,-220.27 328.79,-209.8 323.52,-219 330.4,-220.27"/>
</g>
<!-- nasalib/structures&#45;&gt;lib/finite_sets -->
<g id="edge50" class="edge">
<title>nasalib/structures&#45;&gt;lib/finite_sets</title>
<path fill="none" stroke="black" d="M586,-117.5C586,-117.5 517.49,-81.95 470.41,-57.52"/>
<polygon fill="black" stroke="black" points="472.21,-54 461.72,-52.5 468.98,-60.21 472.21,-54"/>
<path fill="none" stroke="black" d="M366.52,-179.99C435.97,-160.85 586,-119.5 586,-119.5"/>
</g>
<!-- nasalib/structures&#45;&gt;nasalib/ints -->
<g id="edge51" class="edge">
<title>nasalib/structures&#45;&gt;nasalib/ints</title>
<path fill="none" stroke="black" d="M332,-172.2C332,-164.74 332,-155.82 332,-147.47"/>
<polygon fill="black" stroke="black" points="335.5,-147.6 332,-137.6 328.5,-147.6 335.5,-147.6"/>
</g>
<!-- nasalib/topology&#45;&gt;nasalib/reals -->
<g id="edge52" class="edge">
<title>nasalib/topology&#45;&gt;nasalib/reals</title>
<path fill="none" stroke="black" d="M309.46,-388.2C300.45,-379.78 289.45,-369.52 279.56,-360.29"/>
<polygon fill="black" stroke="black" points="282.28,-358.11 272.59,-353.85 277.51,-363.23 282.28,-358.11"/>
</g>
<!-- nasalib/topology&#45;&gt;nasalib/sets_aux -->
<g id="edge53" class="edge">
<title>nasalib/topology&#45;&gt;nasalib/sets_aux</title>
<path fill="none" stroke="black" d="M333.19,-388.2C335.48,-380.57 338.23,-371.42 340.78,-362.9"/>
<polygon fill="black" stroke="black" points="344.35,-364.19 343.87,-353.6 337.64,-362.18 344.35,-364.19"/>
</g>
<!-- nasalib/topology&#45;&gt;nasalib/structures -->
<g id="edge54" class="edge">
<title>nasalib/topology&#45;&gt;nasalib/structures</title>
<path fill="none" stroke="black" d="M321.78,-388.15C316.24,-372.69 309,-352.5 309,-352.5 309,-352.5 309,-316.5 309,-316.5 309,-316.5 314,-244.5 314,-244.5 314,-244.5 318.27,-231.93 322.65,-219.03"/>
<polygon fill="black" stroke="black" points="326.2,-220.45 326.11,-209.85 319.58,-218.2 326.2,-220.45"/>
</g>
<!-- nasalib/while -->
<g id="node17" class="node">
<title>nasalib/while</title>
<polygon fill="#fcfcd7" stroke="black" points="518,-568.5 464,-568.5 464,-532.5 518,-532.5 518,-568.5"/>
<text text-anchor="middle" x="491" y="-545.45" font-family="Times,serif" font-size="14.00">while</text>
</g>
<!-- nasalib/while&#45;&gt;nasalib/orders -->
<g id="edge55" class="edge">
<title>nasalib/while&#45;&gt;nasalib/orders</title>
<path fill="none" stroke="black" d="M491,-532.2C491,-511.47 491,-479.5 491,-479.5"/>
</g>
<!-- nasalib/while&#45;&gt;nasalib/scott -->
<g id="edge56" class="edge">
<title>nasalib/while&#45;&gt;nasalib/scott</title>
<path fill="none" stroke="black" d="M479.63,-532.2C474.39,-524.23 468.07,-514.6 462.26,-505.76"/>
<polygon fill="black" stroke="black" points="464.66,-504.04 456.24,-497.6 458.81,-507.88 464.66,-504.04"/>
</g>
</g>
</svg>
