<?xml version="1.0" encoding="UTF-8" standalone="no"?>
<!DOCTYPE svg PUBLIC "-//W3C//DTD SVG 1.1//EN"
 "http://www.w3.org/Graphics/SVG/1.1/DTD/svg11.dtd">
<!-- Generated by graphviz version 8.0.4 (20230421.1958)
 -->
<!-- Title: topology Pages: 1 -->
<svg width="600pt" height="761pt"
 viewBox="0.00 0.00 600.00 761.00" xmlns="http://www.w3.org/2000/svg" xmlns:xlink="http://www.w3.org/1999/xlink">
<g id="graph0" class="graph" transform="scale(1 1) rotate(0) translate(4 757)">
<title>topology</title>
<polygon fill="white" stroke="none" points="-4,4 -4,-757 596,-757 596,4 -4,4"/>
<g id="clust1" class="cluster">
<title>cluster_NASALib</title>
<polygon fill="none" stroke="black" points="8,-92.5 8,-745 572,-745 572,-92.5 8,-92.5"/>
<text text-anchor="middle" x="290" y="-727.7" font-family="Times,serif" font-size="14.00">NASALib</text>
</g>
<g id="clust2" class="cluster">
<title>cluster_PVS Prelude</title>
<polygon fill="none" stroke="black" points="384,-8 384,-84.5 472,-84.5 472,-8 384,-8"/>
<text text-anchor="middle" x="428" y="-67.2" font-family="Times,serif" font-size="14.00">PVS Prelude</text>
</g>
<!-- NASALib/ODEs -->
<g id="node1" class="node">
<title>NASALib/ODEs</title>
<polygon fill="#fcfcd7" stroke="black" points="136,-640.5 82,-640.5 82,-604.5 136,-604.5 136,-640.5"/>
<text text-anchor="middle" x="109" y="-617.45" font-family="Times,serif" font-size="14.00">ODEs</text>
</g>
<!-- NASALib/metric_space -->
<g id="node7" class="node">
<title>NASALib/metric_space</title>
<polygon fill="#fcfcd7" stroke="black" points="306,-496.5 218,-496.5 218,-460.5 306,-460.5 306,-496.5"/>
<text text-anchor="middle" x="262" y="-473.45" font-family="Times,serif" font-size="14.00">metric_space</text>
</g>
<!-- NASALib/ODEs&#45;&gt;NASALib/metric_space -->
<g id="edge1" class="edge">
<title>NASALib/ODEs&#45;&gt;NASALib/metric_space</title>
<path fill="none" stroke="black" d="M128.65,-604.15C146.14,-588.69 169,-568.5 169,-568.5 169,-568.5 194,-532.5 194,-532.5 194,-532.5 213.13,-517.59 231.1,-503.59"/>
<polygon fill="black" stroke="black" points="233,-505.76 238.73,-496.85 228.7,-500.24 233,-505.76"/>
</g>
<!-- NASALib/mv_analysis -->
<g id="node8" class="node">
<title>NASALib/mv_analysis</title>
<polygon fill="#fcfcd7" stroke="black" points="160.12,-568.5 75.88,-568.5 75.88,-532.5 160.12,-532.5 160.12,-568.5"/>
<text text-anchor="middle" x="118" y="-545.45" font-family="Times,serif" font-size="14.00">mv_analysis</text>
</g>
<!-- NASALib/ODEs&#45;&gt;NASALib/mv_analysis -->
<g id="edge2" class="edge">
<title>NASALib/ODEs&#45;&gt;NASALib/mv_analysis</title>
<path fill="none" stroke="black" d="M111.22,-604.2C112.18,-596.74 113.33,-587.82 114.4,-579.47"/>
<polygon fill="black" stroke="black" points="118,-579.97 115.8,-569.6 111.05,-579.08 118,-579.97"/>
</g>
<!-- NASALib/structures -->
<g id="node14" class="node">
<title>NASALib/structures</title>
<polygon fill="#fcfcd7" stroke="black" points="362.25,-208.5 293.75,-208.5 293.75,-172.5 362.25,-172.5 362.25,-208.5"/>
<text text-anchor="middle" x="328" y="-185.45" font-family="Times,serif" font-size="14.00">structures</text>
</g>
<!-- NASALib/ODEs&#45;&gt;NASALib/structures -->
<g id="edge3" class="edge">
<title>NASALib/ODEs&#45;&gt;NASALib/structures</title>
<path fill="none" stroke="black" d="M144,-477.5C144,-477.5 226,-316.5 226,-316.5 226,-316.5 270,-244.5 270,-244.5 270,-244.5 286.02,-229.86 301.22,-215.97"/>
<polygon fill="black" stroke="black" points="302.99,-219.18 308.01,-209.85 298.27,-214.02 302.99,-219.18"/>
<path fill="none" stroke="black" d="M95.25,-604.15C83,-588.69 67,-568.5 67,-568.5 67,-568.5 67,-532.5 67,-532.5 67,-532.5 144,-479.5 144,-479.5"/>
</g>
<!-- NASALib/complex_integration -->
<g id="node2" class="node">
<title>NASALib/complex_integration</title>
<polygon fill="#fcfcd7" stroke="black" points="457.25,-640.5 328.75,-640.5 328.75,-604.5 457.25,-604.5 457.25,-640.5"/>
<text text-anchor="middle" x="393" y="-617.45" font-family="Times,serif" font-size="14.00">complex_integration</text>
</g>
<!-- NASALib/measure_integration -->
<g id="node6" class="node">
<title>NASALib/measure_integration</title>
<polygon fill="#fcfcd7" stroke="black" points="405.5,-568.5 278.5,-568.5 278.5,-532.5 405.5,-532.5 405.5,-568.5"/>
<text text-anchor="middle" x="342" y="-545.45" font-family="Times,serif" font-size="14.00">measure_integration</text>
</g>
<!-- NASALib/complex_integration&#45;&gt;NASALib/measure_integration -->
<g id="edge4" class="edge">
<title>NASALib/complex_integration&#45;&gt;NASALib/measure_integration</title>
<path fill="none" stroke="black" d="M380.39,-604.2C374.53,-596.14 367.42,-586.39 360.93,-577.48"/>
<polygon fill="black" stroke="black" points="363.18,-575.63 354.46,-569.6 357.52,-579.75 363.18,-575.63"/>
</g>
<!-- NASALib/complex_integration&#45;&gt;NASALib/metric_space -->
<g id="edge5" class="edge">
<title>NASALib/complex_integration&#45;&gt;NASALib/metric_space</title>
<path fill="none" stroke="black" d="M352.73,-604.15C316.85,-588.69 270,-568.5 270,-568.5 270,-568.5 239,-551.5 239,-551.5"/>
</g>
<!-- NASALib/complex_integration&#45;&gt;NASALib/structures -->
<g id="edge6" class="edge">
<title>NASALib/complex_integration&#45;&gt;NASALib/structures</title>
<path fill="none" stroke="black" d="M445,-549.5C445,-549.5 425,-479.5 425,-479.5"/>
</g>
<!-- NASALib/topology -->
<g id="node15" class="node">
<title>NASALib/topology</title>
<polygon fill="#f7e28d" stroke="black" points="371,-424.5 307,-424.5 307,-388.5 371,-388.5 371,-424.5"/>
<text text-anchor="middle" x="339" y="-401.45" font-family="Times,serif" font-size="14.00">topology</text>
</g>
<!-- NASALib/complex_integration&#45;&gt;NASALib/topology -->
<g id="edge7" class="edge">
<title>NASALib/complex_integration&#45;&gt;NASALib/topology</title>
<path fill="none" stroke="black" d="M445,-549.5C445,-549.5 389.08,-474.59 358.47,-433.59"/>
<polygon fill="black" stroke="black" points="360.78,-431.83 352,-425.91 355.17,-436.02 360.78,-431.83"/>
<path fill="none" stroke="black" d="M405.85,-604.2C421.25,-583.47 445,-551.5 445,-551.5"/>
</g>
<!-- NASALib/dL -->
<g id="node3" class="node">
<title>NASALib/dL</title>
<polygon fill="#fcfcd7" stroke="black" points="136,-712.5 82,-712.5 82,-676.5 136,-676.5 136,-712.5"/>
<text text-anchor="middle" x="109" y="-689.45" font-family="Times,serif" font-size="14.00">dL</text>
</g>
<!-- NASALib/dL&#45;&gt;NASALib/ODEs -->
<g id="edge8" class="edge">
<title>NASALib/dL&#45;&gt;NASALib/ODEs</title>
<path fill="none" stroke="black" d="M109,-676.2C109,-668.74 109,-659.82 109,-651.47"/>
<polygon fill="black" stroke="black" points="112.5,-651.6 109,-641.6 105.5,-651.6 112.5,-651.6"/>
</g>
<!-- NASALib/ints -->
<g id="node4" class="node">
<title>NASALib/ints</title>
<polygon fill="#fcfcd7" stroke="black" points="355,-136.5 301,-136.5 301,-100.5 355,-100.5 355,-136.5"/>
<text text-anchor="middle" x="328" y="-113.45" font-family="Times,serif" font-size="14.00">ints</text>
</g>
<!-- NASALib/dL&#45;&gt;NASALib/ints -->
<g id="edge9" class="edge">
<title>NASALib/dL&#45;&gt;NASALib/ints</title>
<path fill="none" stroke="black" d="M57,-621.5C57,-621.5 63,-532.5 63,-532.5 63,-532.5 275,-191.5 275,-191.5"/>
<path fill="none" stroke="black" d="M275,-189.5C275,-189.5 285,-172.5 285,-172.5 285,-172.5 296.23,-158.65 307.22,-145.12"/>
<polygon fill="black" stroke="black" points="310.34,-147.82 313.92,-137.85 304.9,-143.41 310.34,-147.82"/>
<path fill="none" stroke="black" d="M96.15,-676.2C80.75,-655.47 57,-623.5 57,-623.5"/>
</g>
<!-- NASALib/dL&#45;&gt;NASALib/mv_analysis -->
<g id="edge10" class="edge">
<title>NASALib/dL&#45;&gt;NASALib/mv_analysis</title>
<path fill="none" stroke="black" d="M57,-621.5C57,-621.5 78.33,-597.02 95.76,-577.02"/>
<polygon fill="black" stroke="black" points="98.99,-579.64 102.92,-569.8 93.71,-575.04 98.99,-579.64"/>
</g>
<!-- NASALib/orders -->
<g id="node9" class="node">
<title>NASALib/orders</title>
<polygon fill="#fcfcd7" stroke="black" points="498,-280.5 444,-280.5 444,-244.5 498,-244.5 498,-280.5"/>
<text text-anchor="middle" x="471" y="-257.45" font-family="Times,serif" font-size="14.00">orders</text>
</g>
<!-- NASALib/dL&#45;&gt;NASALib/orders -->
<g id="edge11" class="edge">
<title>NASALib/dL&#45;&gt;NASALib/orders</title>
<path fill="none" stroke="black" d="M563,-333.5C563,-333.5 529.09,-307.7 502.44,-287.42"/>
<polygon fill="black" stroke="black" points="504.82,-284.07 494.74,-280.8 500.58,-289.64 504.82,-284.07"/>
<path fill="none" stroke="black" d="M136.42,-689.43C220.02,-677.02 466,-640.5 466,-640.5 466,-640.5 553,-568.5 553,-568.5 553,-568.5 563,-551.5 563,-551.5 563,-551.5 563,-551.5 563,-477.5 563,-477.5 563,-335.5 563,-335.5"/>
</g>
<!-- NASALib/reals -->
<g id="node11" class="node">
<title>NASALib/reals</title>
<polygon fill="#fcfcd7" stroke="black" points="289,-352.5 235,-352.5 235,-316.5 289,-316.5 289,-352.5"/>
<text text-anchor="middle" x="262" y="-329.45" font-family="Times,serif" font-size="14.00">reals</text>
</g>
<!-- NASALib/dL&#45;&gt;NASALib/reals -->
<g id="edge12" class="edge">
<title>NASALib/dL&#45;&gt;NASALib/reals</title>
<path fill="none" stroke="black" d="M262,-405.5C262,-405.5 262,-383.16 262,-363.72"/>
<polygon fill="black" stroke="black" points="265.5,-363.8 262,-353.8 258.5,-363.8 265.5,-363.8"/>
<path fill="none" stroke="black" d="M179,-477.5C179,-477.5 262,-407.5 262,-407.5"/>
<path fill="none" stroke="black" d="M57,-621.5C57,-621.5 67,-532.5 67,-532.5 67,-532.5 149,-496.5 149,-496.5 149,-496.5 179,-479.5 179,-479.5"/>
</g>
<!-- NASALib/dL&#45;&gt;NASALib/structures -->
<g id="edge13" class="edge">
<title>NASALib/dL&#45;&gt;NASALib/structures</title>
<path fill="none" stroke="black" d="M563,-333.5C563,-333.5 507,-244.5 507,-244.5 507,-244.5 426.06,-220.54 373.04,-204.84"/>
<polygon fill="black" stroke="black" points="374.1,-201.2 363.51,-201.72 372.11,-207.91 374.1,-201.2"/>
</g>
<!-- lib/finite_sets -->
<g id="node17" class="node">
<title>lib/finite_sets</title>
<polygon fill="#fcfcd7" stroke="black" points="463.75,-52 392.25,-52 392.25,-16 463.75,-16 463.75,-52"/>
<text text-anchor="middle" x="428" y="-28.95" font-family="Times,serif" font-size="14.00">finite_sets</text>
</g>
<!-- NASALib/ints&#45;&gt;lib/finite_sets -->
<g id="edge14" class="edge">
<title>NASALib/ints&#45;&gt;lib/finite_sets</title>
<path fill="none" stroke="black" d="M349.21,-100C363.53,-88.19 382.62,-72.44 398.43,-59.39"/>
<polygon fill="black" stroke="black" points="400.34,-61.53 405.82,-52.47 395.88,-56.13 400.34,-61.53"/>
</g>
<!-- NASALib/lebesgue -->
<g id="node5" class="node">
<title>NASALib/lebesgue</title>
<polygon fill="#fcfcd7" stroke="black" points="310.62,-640.5 247.38,-640.5 247.38,-604.5 310.62,-604.5 310.62,-640.5"/>
<text text-anchor="middle" x="279" y="-617.45" font-family="Times,serif" font-size="14.00">lebesgue</text>
</g>
<!-- NASALib/lebesgue&#45;&gt;NASALib/measure_integration -->
<g id="edge15" class="edge">
<title>NASALib/lebesgue&#45;&gt;NASALib/measure_integration</title>
<path fill="none" stroke="black" d="M294.57,-604.2C302.05,-595.89 311.15,-585.78 319.37,-576.64"/>
<polygon fill="black" stroke="black" points="321.52,-579.38 325.61,-569.6 316.31,-574.7 321.52,-579.38"/>
</g>
<!-- NASALib/lebesgue&#45;&gt;NASALib/metric_space -->
<g id="edge16" class="edge">
<title>NASALib/lebesgue&#45;&gt;NASALib/metric_space</title>
<path fill="none" stroke="black" d="M269.11,-604.2C257.27,-583.47 239,-551.5 239,-551.5"/>
</g>
<!-- NASALib/lebesgue&#45;&gt;NASALib/reals -->
<g id="edge17" class="edge">
<title>NASALib/lebesgue&#45;&gt;NASALib/reals</title>
<path fill="none" stroke="black" d="M264.27,-604.15C251.14,-588.69 234,-568.5 234,-568.5 234,-568.5 179,-479.5 179,-479.5"/>
</g>
<!-- NASALib/sets_aux -->
<g id="node13" class="node">
<title>NASALib/sets_aux</title>
<polygon fill="#fcfcd7" stroke="black" points="389.25,-352.5 326.75,-352.5 326.75,-316.5 389.25,-316.5 389.25,-352.5"/>
<text text-anchor="middle" x="358" y="-329.45" font-family="Times,serif" font-size="14.00">sets_aux</text>
</g>
<!-- NASALib/lebesgue&#45;&gt;NASALib/sets_aux -->
<g id="edge18" class="edge">
<title>NASALib/lebesgue&#45;&gt;NASALib/sets_aux</title>
<path fill="none" stroke="black" d="M425,-549.5C425,-549.5 390,-407.5 390,-407.5"/>
<path fill="none" stroke="black" d="M310.9,-608.27C316.19,-606.08 320,-604.5 320,-604.5 320,-604.5 415,-568.5 415,-568.5 415,-568.5 425,-551.5 425,-551.5"/>
</g>
<!-- NASALib/lebesgue&#45;&gt;NASALib/structures -->
<g id="edge19" class="edge">
<title>NASALib/lebesgue&#45;&gt;NASALib/structures</title>
<path fill="none" stroke="black" d="M425,-549.5C425,-549.5 425,-479.5 425,-479.5"/>
</g>
<!-- NASALib/lebesgue&#45;&gt;NASALib/topology -->
<g id="edge20" class="edge">
<title>NASALib/lebesgue&#45;&gt;NASALib/topology</title>
<path fill="none" stroke="black" d="M276.05,-604.15C273.43,-588.69 270,-568.5 270,-568.5 270,-568.5 270,-532.5 270,-532.5 270,-532.5 315,-496.5 315,-496.5 315,-496.5 324.49,-461.3 331.54,-435.17"/>
<polygon fill="black" stroke="black" points="335.15,-436.23 334.37,-425.66 328.39,-434.4 335.15,-436.23"/>
</g>
<!-- NASALib/measure_integration&#45;&gt;NASALib/metric_space -->
<g id="edge21" class="edge">
<title>NASALib/measure_integration&#45;&gt;NASALib/metric_space</title>
<path fill="none" stroke="black" d="M322.22,-532.2C312.51,-523.7 300.64,-513.31 290.02,-504.01"/>
<polygon fill="black" stroke="black" points="292.66,-500.8 282.83,-496.85 288.05,-506.07 292.66,-500.8"/>
</g>
<!-- NASALib/measure_integration&#45;&gt;NASALib/orders -->
<g id="edge22" class="edge">
<title>NASALib/measure_integration&#45;&gt;NASALib/orders</title>
<path fill="none" stroke="black" d="M396.03,-532.15C444.15,-516.69 507,-496.5 507,-496.5 507,-496.5 517,-479.5 517,-479.5"/>
<path fill="none" stroke="black" d="M517,-477.5C517,-477.5 489.4,-349.12 476.96,-291.23"/>
<polygon fill="black" stroke="black" points="480.21,-290.69 474.69,-281.65 473.37,-292.16 480.21,-290.69"/>
</g>
<!-- NASALib/measure_integration&#45;&gt;NASALib/reals -->
<g id="edge23" class="edge">
<title>NASALib/measure_integration&#45;&gt;NASALib/reals</title>
<path fill="none" stroke="black" d="M336.79,-532.34C328.95,-506.48 315,-460.5 315,-460.5 315,-460.5 262,-407.5 262,-407.5"/>
</g>
<!-- NASALib/measure_integration&#45;&gt;NASALib/sets_aux -->
<g id="edge24" class="edge">
<title>NASALib/measure_integration&#45;&gt;NASALib/sets_aux</title>
<path fill="none" stroke="black" d="M390,-405.5C390,-405.5 379.4,-382.32 370.4,-362.64"/>
<polygon fill="black" stroke="black" points="373.25,-361.44 365.91,-353.8 366.88,-364.35 373.25,-361.44"/>
<path fill="none" stroke="black" d="M365,-477.5C365,-477.5 390,-407.5 390,-407.5"/>
</g>
<!-- NASALib/measure_integration&#45;&gt;NASALib/structures -->
<g id="edge25" class="edge">
<title>NASALib/measure_integration&#45;&gt;NASALib/structures</title>
<path fill="none" stroke="black" d="M425,-261.5C425,-261.5 388.93,-235.47 360.78,-215.16"/>
<polygon fill="black" stroke="black" points="363.13,-211.82 352.98,-208.8 359.04,-217.49 363.13,-211.82"/>
<path fill="none" stroke="black" d="M425,-477.5C425,-477.5 425,-263.5 425,-263.5"/>
<path fill="none" stroke="black" d="M362.52,-532.2C387.1,-511.47 425,-479.5 425,-479.5"/>
</g>
<!-- NASALib/measure_integration&#45;&gt;NASALib/topology -->
<g id="edge26" class="edge">
<title>NASALib/measure_integration&#45;&gt;NASALib/topology</title>
<path fill="none" stroke="black" d="M365,-477.5C365,-477.5 356.47,-454.53 349.18,-434.91"/>
<polygon fill="black" stroke="black" points="352.19,-433.96 345.43,-425.8 345.63,-436.4 352.19,-433.96"/>
<path fill="none" stroke="black" d="M347.69,-532.2C354.5,-511.47 365,-479.5 365,-479.5"/>
</g>
<!-- NASALib/measure_integration&#45;&gt;lib/finite_sets -->
<g id="edge27" class="edge">
<title>NASALib/measure_integration&#45;&gt;lib/finite_sets</title>
<path fill="none" stroke="black" d="M405.94,-535.02C475.22,-519.33 576,-496.5 576,-496.5 576,-496.5 592,-407.5 592,-407.5"/>
</g>
<!-- NASALib/metric_space&#45;&gt;NASALib/reals -->
<g id="edge28" class="edge">
<title>NASALib/metric_space&#45;&gt;NASALib/reals</title>
<path fill="none" stroke="black" d="M262,-460.2C262,-439.47 262,-407.5 262,-407.5"/>
</g>
<!-- NASALib/metric_space&#45;&gt;NASALib/sets_aux -->
<g id="edge29" class="edge">
<title>NASALib/metric_space&#45;&gt;NASALib/sets_aux</title>
<path fill="none" stroke="black" d="M268.94,-460.34C279.4,-434.48 298,-388.5 298,-388.5 298,-388.5 314.57,-373.86 330.3,-359.97"/>
<polygon fill="black" stroke="black" points="332.18,-363.1 337.35,-353.85 327.54,-357.85 332.18,-363.1"/>
</g>
<!-- NASALib/metric_space&#45;&gt;NASALib/topology -->
<g id="edge30" class="edge">
<title>NASALib/metric_space&#45;&gt;NASALib/topology</title>
<path fill="none" stroke="black" d="M281.03,-460.2C290.38,-451.7 301.81,-441.31 312.03,-432.01"/>
<polygon fill="black" stroke="black" points="313.87,-435.16 318.92,-425.85 309.16,-429.98 313.87,-435.16"/>
</g>
<!-- NASALib/metric_space&#45;&gt;lib/finite_sets -->
<g id="edge31" class="edge">
<title>NASALib/metric_space&#45;&gt;lib/finite_sets</title>
<path fill="none" stroke="black" d="M306.16,-468.13C396.08,-449.06 592,-407.5 592,-407.5"/>
<path fill="none" stroke="black" d="M592,-405.5C592,-405.5 592,-263.5 592,-263.5"/>
</g>
<!-- NASALib/mv_analysis&#45;&gt;NASALib/metric_space -->
<g id="edge32" class="edge">
<title>NASALib/mv_analysis&#45;&gt;NASALib/metric_space</title>
<path fill="none" stroke="black" d="M153.97,-532.02C173.01,-522.76 196.58,-511.3 216.85,-501.45"/>
<polygon fill="black" stroke="black" points="218.03,-504.28 225.49,-496.76 214.97,-497.98 218.03,-504.28"/>
</g>
<!-- NASALib/mv_analysis&#45;&gt;NASALib/reals -->
<g id="edge33" class="edge">
<title>NASALib/mv_analysis&#45;&gt;NASALib/reals</title>
<path fill="none" stroke="black" d="M133.08,-532.2C151.14,-511.47 179,-479.5 179,-479.5"/>
</g>
<!-- NASALib/mv_analysis&#45;&gt;NASALib/structures -->
<g id="edge34" class="edge">
<title>NASALib/mv_analysis&#45;&gt;NASALib/structures</title>
<path fill="none" stroke="black" d="M124.43,-532.2C132.13,-511.47 144,-479.5 144,-479.5"/>
</g>
<!-- NASALib/orders&#45;&gt;NASALib/structures -->
<g id="edge35" class="edge">
<title>NASALib/orders&#45;&gt;NASALib/structures</title>
<path fill="none" stroke="black" d="M443.77,-248.17C423.63,-238.31 395.77,-224.67 372.43,-213.25"/>
<polygon fill="black" stroke="black" points="374.25,-209.76 363.73,-208.5 371.18,-216.04 374.25,-209.76"/>
</g>
<!-- NASALib/orders&#45;&gt;lib/finite_sets -->
<g id="edge36" class="edge">
<title>NASALib/orders&#45;&gt;lib/finite_sets</title>
<path fill="none" stroke="black" d="M592,-189.5C592,-189.5 592,-119.5 592,-119.5"/>
<path fill="none" stroke="black" d="M498.31,-247.71C529.42,-232.01 576,-208.5 576,-208.5 576,-208.5 592,-191.5 592,-191.5"/>
</g>
<!-- NASALib/probability -->
<g id="node10" class="node">
<title>NASALib/probability</title>
<polygon fill="#fcfcd7" stroke="black" points="229.62,-640.5 154.38,-640.5 154.38,-604.5 229.62,-604.5 229.62,-640.5"/>
<text text-anchor="middle" x="192" y="-617.45" font-family="Times,serif" font-size="14.00">probability</text>
</g>
<!-- NASALib/probability&#45;&gt;NASALib/measure_integration -->
<g id="edge37" class="edge">
<title>NASALib/probability&#45;&gt;NASALib/measure_integration</title>
<path fill="none" stroke="black" d="M229.46,-604.02C249.32,-594.75 273.89,-583.28 295.01,-573.43"/>
<polygon fill="black" stroke="black" points="296.17,-576.28 303.75,-568.88 293.21,-569.94 296.17,-576.28"/>
</g>
<!-- NASALib/probability&#45;&gt;NASALib/metric_space -->
<g id="edge38" class="edge">
<title>NASALib/probability&#45;&gt;NASALib/metric_space</title>
<path fill="none" stroke="black" d="M239,-549.5C239,-549.5 246.48,-526.74 252.91,-507.18"/>
<polygon fill="black" stroke="black" points="256.52,-508.4 256.31,-497.8 249.87,-506.21 256.52,-508.4"/>
<path fill="none" stroke="black" d="M203.62,-604.2C217.54,-583.47 239,-551.5 239,-551.5"/>
</g>
<!-- NASALib/probability&#45;&gt;NASALib/reals -->
<g id="edge39" class="edge">
<title>NASALib/probability&#45;&gt;NASALib/reals</title>
<path fill="none" stroke="black" d="M199,-549.5C199,-549.5 179,-479.5 179,-479.5"/>
</g>
<!-- NASALib/probability&#45;&gt;NASALib/structures -->
<g id="edge40" class="edge">
<title>NASALib/probability&#45;&gt;NASALib/structures</title>
<path fill="none" stroke="black" d="M193.73,-604.2C195.8,-583.47 199,-551.5 199,-551.5"/>
<path fill="none" stroke="black" d="M199,-549.5C199,-549.5 144,-479.5 144,-479.5"/>
</g>
<!-- NASALib/probability&#45;&gt;NASALib/topology -->
<g id="edge41" class="edge">
<title>NASALib/probability&#45;&gt;NASALib/topology</title>
<path fill="none" stroke="black" d="M199,-549.5C199,-549.5 209,-460.5 209,-460.5 209,-460.5 258.74,-440.22 296.68,-424.75"/>
<polygon fill="black" stroke="black" points="297.59,-427.75 305.53,-420.74 294.95,-421.27 297.59,-427.75"/>
</g>
<!-- NASALib/reals&#45;&gt;NASALib/ints -->
<g id="edge42" class="edge">
<title>NASALib/reals&#45;&gt;NASALib/ints</title>
<path fill="none" stroke="black" d="M265.21,-316.2C269.06,-295.47 275,-263.5 275,-263.5"/>
<path fill="none" stroke="black" d="M275,-261.5C275,-261.5 275,-191.5 275,-191.5"/>
</g>
<!-- NASALib/reals&#45;&gt;NASALib/structures -->
<g id="edge43" class="edge">
<title>NASALib/reals&#45;&gt;NASALib/structures</title>
<path fill="none" stroke="black" d="M275,-261.5C275,-261.5 293.2,-237.46 308.27,-217.56"/>
<polygon fill="black" stroke="black" points="311.65,-219.89 314.9,-209.8 306.07,-215.66 311.65,-219.89"/>
</g>
<!-- NASALib/scott -->
<g id="node12" class="node">
<title>NASALib/scott</title>
<polygon fill="#fcfcd7" stroke="black" points="498,-496.5 444,-496.5 444,-460.5 498,-460.5 498,-496.5"/>
<text text-anchor="middle" x="471" y="-473.45" font-family="Times,serif" font-size="14.00">scott</text>
</g>
<!-- NASALib/scott&#45;&gt;NASALib/orders -->
<g id="edge44" class="edge">
<title>NASALib/scott&#45;&gt;NASALib/orders</title>
<path fill="none" stroke="black" d="M471,-333.5C471,-333.5 471,-311.16 471,-291.72"/>
<polygon fill="black" stroke="black" points="474.5,-291.8 471,-281.8 467.5,-291.8 474.5,-291.8"/>
</g>
<!-- NASALib/scott&#45;&gt;NASALib/structures -->
<g id="edge45" class="edge">
<title>NASALib/scott&#45;&gt;NASALib/structures</title>
<path fill="none" stroke="black" d="M471,-460.09C471,-422.17 471,-335.5 471,-335.5"/>
<path fill="none" stroke="black" d="M471,-333.5C471,-333.5 435,-280.5 435,-280.5 435,-280.5 425,-263.5 425,-263.5"/>
</g>
<!-- NASALib/scott&#45;&gt;NASALib/topology -->
<g id="edge46" class="edge">
<title>NASALib/scott&#45;&gt;NASALib/topology</title>
<path fill="none" stroke="black" d="M443.65,-463C425.53,-453.39 401.4,-440.59 380.88,-429.71"/>
<polygon fill="black" stroke="black" points="382.92,-426.3 372.44,-424.7 379.64,-432.48 382.92,-426.3"/>
</g>
<!-- NASALib/sets_aux&#45;&gt;NASALib/ints -->
<g id="edge47" class="edge">
<title>NASALib/sets_aux&#45;&gt;NASALib/ints</title>
<path fill="none" stroke="black" d="M328,-261.5C328,-261.5 285,-208.5 285,-208.5 285,-208.5 275,-191.5 275,-191.5"/>
<path fill="none" stroke="black" d="M350.58,-316.2C341.7,-295.47 328,-263.5 328,-263.5"/>
</g>
<!-- NASALib/sets_aux&#45;&gt;NASALib/orders -->
<g id="edge48" class="edge">
<title>NASALib/sets_aux&#45;&gt;NASALib/orders</title>
<path fill="none" stroke="black" d="M386.22,-316.02C400.87,-306.94 418.93,-295.76 434.61,-286.04"/>
<polygon fill="black" stroke="black" points="435.87,-288.76 442.53,-280.52 432.18,-282.81 435.87,-288.76"/>
</g>
<!-- NASALib/sets_aux&#45;&gt;NASALib/structures -->
<g id="edge49" class="edge">
<title>NASALib/sets_aux&#45;&gt;NASALib/structures</title>
<path fill="none" stroke="black" d="M328,-261.5C328,-261.5 328,-239.16 328,-219.72"/>
<polygon fill="black" stroke="black" points="331.5,-219.8 328,-209.8 324.5,-219.8 331.5,-219.8"/>
</g>
<!-- NASALib/sets_aux&#45;&gt;lib/finite_sets -->
<g id="edge50" class="edge">
<title>NASALib/sets_aux&#45;&gt;lib/finite_sets</title>
<path fill="none" stroke="black" d="M389.7,-325.79C450.16,-311.09 576,-280.5 576,-280.5 576,-280.5 592,-263.5 592,-263.5"/>
<path fill="none" stroke="black" d="M592,-261.5C592,-261.5 592,-191.5 592,-191.5"/>
</g>
<!-- NASALib/structures&#45;&gt;NASALib/ints -->
<g id="edge51" class="edge">
<title>NASALib/structures&#45;&gt;NASALib/ints</title>
<path fill="none" stroke="black" d="M328,-172.2C328,-164.74 328,-155.82 328,-147.47"/>
<polygon fill="black" stroke="black" points="331.5,-147.6 328,-137.6 324.5,-147.6 331.5,-147.6"/>
</g>
<!-- NASALib/structures&#45;&gt;lib/finite_sets -->
<g id="edge52" class="edge">
<title>NASALib/structures&#45;&gt;lib/finite_sets</title>
<path fill="none" stroke="black" d="M592,-117.5C592,-117.5 521.04,-81.8 472.47,-57.37"/>
<polygon fill="black" stroke="black" points="474.29,-53.86 463.78,-52.5 471.14,-60.12 474.29,-53.86"/>
<path fill="none" stroke="black" d="M362.51,-180.35C434.07,-161.37 592,-119.5 592,-119.5"/>
</g>
<!-- NASALib/topology&#45;&gt;NASALib/reals -->
<g id="edge53" class="edge">
<title>NASALib/topology&#45;&gt;NASALib/reals</title>
<path fill="none" stroke="black" d="M319.97,-388.2C310.62,-379.7 299.19,-369.31 288.97,-360.01"/>
<polygon fill="black" stroke="black" points="291.84,-357.98 282.08,-353.85 287.13,-363.16 291.84,-357.98"/>
</g>
<!-- NASALib/topology&#45;&gt;NASALib/sets_aux -->
<g id="edge54" class="edge">
<title>NASALib/topology&#45;&gt;NASALib/sets_aux</title>
<path fill="none" stroke="black" d="M343.7,-388.2C345.74,-380.65 348.2,-371.62 350.49,-363.18"/>
<polygon fill="black" stroke="black" points="354.12,-364.17 353.36,-353.6 347.36,-362.34 354.12,-364.17"/>
</g>
<!-- NASALib/topology&#45;&gt;NASALib/structures -->
<g id="edge55" class="edge">
<title>NASALib/topology&#45;&gt;NASALib/structures</title>
<path fill="none" stroke="black" d="M332.12,-388.15C326,-372.69 318,-352.5 318,-352.5 318,-352.5 318,-316.5 318,-316.5 318,-316.5 323,-244.5 323,-244.5 323,-244.5 324.14,-232.42 325.33,-219.8"/>
<polygon fill="black" stroke="black" points="328.91,-220.14 326.36,-209.85 321.94,-219.48 328.91,-220.14"/>
</g>
<!-- NASALib/while -->
<g id="node16" class="node">
<title>NASALib/while</title>
<polygon fill="#fcfcd7" stroke="black" points="544,-568.5 490,-568.5 490,-532.5 544,-532.5 544,-568.5"/>
<text text-anchor="middle" x="517" y="-545.45" font-family="Times,serif" font-size="14.00">while</text>
</g>
<!-- NASALib/while&#45;&gt;NASALib/orders -->
<g id="edge56" class="edge">
<title>NASALib/while&#45;&gt;NASALib/orders</title>
<path fill="none" stroke="black" d="M517,-532.2C517,-511.47 517,-479.5 517,-479.5"/>
</g>
<!-- NASALib/while&#45;&gt;NASALib/scott -->
<g id="edge57" class="edge">
<title>NASALib/while&#45;&gt;NASALib/scott</title>
<path fill="none" stroke="black" d="M505.63,-532.2C500.39,-524.23 494.07,-514.6 488.26,-505.76"/>
<polygon fill="black" stroke="black" points="490.66,-504.04 482.24,-497.6 484.81,-507.88 490.66,-504.04"/>
</g>
</g>
</svg>
