<?xml version="1.0" encoding="UTF-8" standalone="no"?>
<!DOCTYPE svg PUBLIC "-//W3C//DTD SVG 1.1//EN"
 "http://www.w3.org/Graphics/SVG/1.1/DTD/svg11.dtd">
<!-- Generated by graphviz version 7.0.6 (20230106.0513)
 -->
<!-- Title: MetiTarski&#45;zoomed Pages: 1 -->
<svg width="346pt" height="182pt"
 viewBox="0.00 0.00 346.00 182.00" xmlns="http://www.w3.org/2000/svg" xmlns:xlink="http://www.w3.org/1999/xlink">
<g id="graph0" class="graph" transform="scale(1 1) rotate(0) translate(4 178)">
<title>MetiTarski&#45;zoomed</title>
<polygon fill="white" stroke="none" points="-4,4 -4,-178 342,-178 342,4 -4,4"/>
<g id="clust1" class="cluster">
<title>cluster_NASALib</title>
<polygon fill="none" stroke="black" points="8,-8 8,-83 330,-83 330,-8 8,-8"/>
<text text-anchor="middle" x="169" y="-67.8" font-family="Times,serif" font-size="14.00">NASALib</text>
</g>
<g id="clust2" class="cluster">
<title>cluster_NASALib/MetiTarski</title>
<polygon fill="none" stroke="black" points="75,-91 75,-166 227,-166 227,-91 75,-91"/>
<text text-anchor="middle" x="151" y="-150.8" font-family="Times,serif" font-size="14.00">NASALib/MetiTarski</text>
</g>
<!-- NASALib/MetiTarski@metit_examples -->
<g id="node1" class="node">
<title>NASALib/MetiTarski@metit_examples</title>
<ellipse fill="#e6f3ff" stroke="black" cx="151" cy="-117" rx="67.69" ry="18"/>
<text text-anchor="middle" x="151" y="-113.3" font-family="Times,serif" font-size="14.00">metit_examples</text>
</g>
<!-- NASALib/interval_arith -->
<g id="node2" class="node">
<title>NASALib/interval_arith</title>
<polygon fill="#fcfcd7" stroke="black" points="321.5,-52 232.5,-52 232.5,-16 321.5,-16 321.5,-52"/>
<text text-anchor="middle" x="277" y="-30.3" font-family="Times,serif" font-size="14.00">interval_arith</text>
</g>
<!-- NASALib/MetiTarski@metit_examples&#45;&gt;NASALib/interval_arith -->
<g id="edge1" class="edge">
<title>NASALib/MetiTarski@metit_examples&#45;&gt;NASALib/interval_arith</title>
<path fill="none" stroke="black" d="M184.05,-100.85C202.98,-92.18 223,-83 223,-83 223,-83 235.81,-71.61 248.95,-59.93"/>
<polygon fill="black" stroke="black" points="251.22,-62.59 256.37,-53.33 246.57,-57.36 251.22,-62.59"/>
</g>
<!-- NASALib/lnexp -->
<g id="node3" class="node">
<title>NASALib/lnexp</title>
<polygon fill="#fcfcd7" stroke="black" points="214,-52 160,-52 160,-16 214,-16 214,-52"/>
<text text-anchor="middle" x="187" y="-30.3" font-family="Times,serif" font-size="14.00">lnexp</text>
</g>
<!-- NASALib/MetiTarski@metit_examples&#45;&gt;NASALib/lnexp -->
<g id="edge2" class="edge">
<title>NASALib/MetiTarski@metit_examples&#45;&gt;NASALib/lnexp</title>
<path fill="none" stroke="black" d="M158.63,-98.82C163.28,-88.37 169.32,-74.77 174.64,-62.81"/>
<polygon fill="black" stroke="black" points="177.77,-64.38 178.64,-53.82 171.38,-61.53 177.77,-64.38"/>
</g>
<!-- NASALib/reals -->
<g id="node4" class="node">
<title>NASALib/reals</title>
<polygon fill="#fcfcd7" stroke="black" points="142,-52 88,-52 88,-16 142,-16 142,-52"/>
<text text-anchor="middle" x="115" y="-30.3" font-family="Times,serif" font-size="14.00">reals</text>
</g>
<!-- NASALib/MetiTarski@metit_examples&#45;&gt;NASALib/reals -->
<g id="edge3" class="edge">
<title>NASALib/MetiTarski@metit_examples&#45;&gt;NASALib/reals</title>
<path fill="none" stroke="black" d="M143.37,-98.82C138.72,-88.37 132.68,-74.77 127.36,-62.81"/>
<polygon fill="black" stroke="black" points="130.62,-61.53 123.36,-53.82 124.23,-64.38 130.62,-61.53"/>
</g>
<!-- NASALib/trig -->
<g id="node5" class="node">
<title>NASALib/trig</title>
<polygon fill="#fcfcd7" stroke="black" points="70,-52 16,-52 16,-16 70,-16 70,-52"/>
<text text-anchor="middle" x="43" y="-30.3" font-family="Times,serif" font-size="14.00">trig</text>
</g>
<!-- NASALib/MetiTarski@metit_examples&#45;&gt;NASALib/trig -->
<g id="edge4" class="edge">
<title>NASALib/MetiTarski@metit_examples&#45;&gt;NASALib/trig</title>
<path fill="none" stroke="black" d="M117.95,-100.85C99.02,-92.18 79,-83 79,-83 79,-83 71.1,-72.46 62.7,-61.26"/>
<polygon fill="black" stroke="black" points="65.7,-59.44 56.9,-53.54 60.1,-63.64 65.7,-59.44"/>
</g>
</g>
</svg>
