<?xml version="1.0" encoding="UTF-8" standalone="no"?>
<!DOCTYPE svg PUBLIC "-//W3C//DTD SVG 1.1//EN"
 "http://www.w3.org/Graphics/SVG/1.1/DTD/svg11.dtd">
<!-- Generated by graphviz version 8.0.4 (20230421.1958)
 -->
<!-- Title: MetiTarski Pages: 1 -->
<svg width="298pt" height="689pt"
 viewBox="0.00 0.00 298.00 689.00" xmlns="http://www.w3.org/2000/svg" xmlns:xlink="http://www.w3.org/1999/xlink">
<g id="graph0" class="graph" transform="scale(1 1) rotate(0) translate(4 685)">
<title>MetiTarski</title>
<polygon fill="white" stroke="none" points="-4,4 -4,-685 294,-685 294,4 -4,4"/>
<g id="clust1" class="cluster">
<title>cluster_NASALib</title>
<polygon fill="none" stroke="black" points="8,-92.5 8,-673 270,-673 270,-92.5 8,-92.5"/>
<text text-anchor="middle" x="139" y="-655.7" font-family="Times,serif" font-size="14.00">NASALib</text>
</g>
<g id="clust2" class="cluster">
<title>cluster_PVS Prelude</title>
<polygon fill="none" stroke="black" points="163,-8 163,-84.5 251,-84.5 251,-8 163,-8"/>
<text text-anchor="middle" x="207" y="-67.2" font-family="Times,serif" font-size="14.00">PVS Prelude</text>
</g>
<!-- NASALib/MetiTarski -->
<g id="node1" class="node">
<title>NASALib/MetiTarski</title>
<polygon fill="#f7e28d" stroke="black" points="150.38,-640.5 73.62,-640.5 73.62,-604.5 150.38,-604.5 150.38,-640.5"/>
<text text-anchor="middle" x="112" y="-617.45" font-family="Times,serif" font-size="14.00">MetiTarski</text>
</g>
<!-- NASALib/interval_arith -->
<g id="node3" class="node">
<title>NASALib/interval_arith</title>
<polygon fill="#fcfcd7" stroke="black" points="156.38,-568.5 67.62,-568.5 67.62,-532.5 156.38,-532.5 156.38,-568.5"/>
<text text-anchor="middle" x="112" y="-545.45" font-family="Times,serif" font-size="14.00">interval_arith</text>
</g>
<!-- NASALib/MetiTarski&#45;&gt;NASALib/interval_arith -->
<g id="edge1" class="edge">
<title>NASALib/MetiTarski&#45;&gt;NASALib/interval_arith</title>
<path fill="none" stroke="black" d="M112,-604.2C112,-596.74 112,-587.82 112,-579.47"/>
<polygon fill="black" stroke="black" points="115.5,-579.6 112,-569.6 108.5,-579.6 115.5,-579.6"/>
</g>
<!-- NASALib/lnexp -->
<g id="node5" class="node">
<title>NASALib/lnexp</title>
<polygon fill="#fcfcd7" stroke="black" points="110,-496.5 56,-496.5 56,-460.5 110,-460.5 110,-496.5"/>
<text text-anchor="middle" x="83" y="-473.45" font-family="Times,serif" font-size="14.00">lnexp</text>
</g>
<!-- NASALib/MetiTarski&#45;&gt;NASALib/lnexp -->
<g id="edge2" class="edge">
<title>NASALib/MetiTarski&#45;&gt;NASALib/lnexp</title>
<path fill="none" stroke="black" d="M17,-549.5C17,-549.5 40.28,-524.81 59.19,-504.75"/>
<polygon fill="black" stroke="black" points="61.37,-507.48 65.69,-497.8 56.28,-502.68 61.37,-507.48"/>
</g>
<!-- NASALib/reals -->
<g id="node7" class="node">
<title>NASALib/reals</title>
<polygon fill="#fcfcd7" stroke="black" points="110,-280.5 56,-280.5 56,-244.5 110,-244.5 110,-280.5"/>
<text text-anchor="middle" x="83" y="-257.45" font-family="Times,serif" font-size="14.00">reals</text>
</g>
<!-- NASALib/MetiTarski&#45;&gt;NASALib/reals -->
<g id="edge3" class="edge">
<title>NASALib/MetiTarski&#45;&gt;NASALib/reals</title>
<path fill="none" stroke="black" d="M88.52,-604.2C60.38,-583.47 17,-551.5 17,-551.5"/>
<path fill="none" stroke="black" d="M17,-549.5C17,-549.5 52,-316.5 52,-316.5 52,-316.5 59.65,-303.43 67.34,-290.27"/>
<polygon fill="black" stroke="black" points="70.82,-292.25 72.85,-281.85 64.78,-288.72 70.82,-292.25"/>
</g>
<!-- NASALib/trig -->
<g id="node10" class="node">
<title>NASALib/trig</title>
<polygon fill="#fcfcd7" stroke="black" points="202,-496.5 148,-496.5 148,-460.5 202,-460.5 202,-496.5"/>
<text text-anchor="middle" x="175" y="-473.45" font-family="Times,serif" font-size="14.00">trig</text>
</g>
<!-- NASALib/MetiTarski&#45;&gt;NASALib/trig -->
<g id="edge4" class="edge">
<title>NASALib/MetiTarski&#45;&gt;NASALib/trig</title>
<path fill="none" stroke="black" d="M129.35,-604.15C144.81,-588.69 165,-568.5 165,-568.5 165,-568.5 168.92,-533.61 171.85,-507.52"/>
<polygon fill="black" stroke="black" points="175.43,-507.99 173.07,-497.66 168.48,-507.21 175.43,-507.99"/>
</g>
<!-- NASALib/analysis -->
<g id="node2" class="node">
<title>NASALib/analysis</title>
<polygon fill="#fcfcd7" stroke="black" points="207.75,-352.5 148.25,-352.5 148.25,-316.5 207.75,-316.5 207.75,-352.5"/>
<text text-anchor="middle" x="178" y="-329.45" font-family="Times,serif" font-size="14.00">analysis</text>
</g>
<!-- NASALib/ints -->
<g id="node4" class="node">
<title>NASALib/ints</title>
<polygon fill="#fcfcd7" stroke="black" points="215,-136.5 161,-136.5 161,-100.5 215,-100.5 215,-136.5"/>
<text text-anchor="middle" x="188" y="-113.45" font-family="Times,serif" font-size="14.00">ints</text>
</g>
<!-- NASALib/analysis&#45;&gt;NASALib/ints -->
<g id="edge5" class="edge">
<title>NASALib/analysis&#45;&gt;NASALib/ints</title>
<path fill="none" stroke="black" d="M165.23,-316.15C153.86,-300.69 139,-280.5 139,-280.5 139,-280.5 129,-263.5 129,-263.5"/>
</g>
<!-- NASALib/orders -->
<g id="node6" class="node">
<title>NASALib/orders</title>
<polygon fill="#fcfcd7" stroke="black" points="202,-280.5 148,-280.5 148,-244.5 202,-244.5 202,-280.5"/>
<text text-anchor="middle" x="175" y="-257.45" font-family="Times,serif" font-size="14.00">orders</text>
</g>
<!-- NASALib/analysis&#45;&gt;NASALib/orders -->
<g id="edge6" class="edge">
<title>NASALib/analysis&#45;&gt;NASALib/orders</title>
<path fill="none" stroke="black" d="M177.26,-316.2C176.94,-308.74 176.56,-299.82 176.2,-291.47"/>
<polygon fill="black" stroke="black" points="179.66,-291.45 175.73,-281.6 172.66,-291.75 179.66,-291.45"/>
</g>
<!-- NASALib/analysis&#45;&gt;NASALib/reals -->
<g id="edge7" class="edge">
<title>NASALib/analysis&#45;&gt;NASALib/reals</title>
<path fill="none" stroke="black" d="M154.52,-316.2C142.64,-307.45 128.05,-296.69 115.15,-287.19"/>
<polygon fill="black" stroke="black" points="117.67,-283.96 107.54,-280.85 113.52,-289.6 117.67,-283.96"/>
</g>
<!-- NASALib/structures -->
<g id="node9" class="node">
<title>NASALib/structures</title>
<polygon fill="#fcfcd7" stroke="black" points="222.25,-208.5 153.75,-208.5 153.75,-172.5 222.25,-172.5 222.25,-208.5"/>
<text text-anchor="middle" x="188" y="-185.45" font-family="Times,serif" font-size="14.00">structures</text>
</g>
<!-- NASALib/analysis&#45;&gt;NASALib/structures -->
<g id="edge8" class="edge">
<title>NASALib/analysis&#45;&gt;NASALib/structures</title>
<path fill="none" stroke="black" d="M188.81,-316.15C198.43,-300.69 211,-280.5 211,-280.5 211,-280.5 211,-244.5 211,-244.5 211,-244.5 205.44,-231.68 199.78,-218.65"/>
<polygon fill="black" stroke="black" points="202.72,-217.63 195.53,-209.85 196.3,-220.42 202.72,-217.63"/>
</g>
<!-- lib/finite_sets -->
<g id="node11" class="node">
<title>lib/finite_sets</title>
<polygon fill="#fcfcd7" stroke="black" points="242.75,-52 171.25,-52 171.25,-16 242.75,-16 242.75,-52"/>
<text text-anchor="middle" x="207" y="-28.95" font-family="Times,serif" font-size="14.00">finite_sets</text>
</g>
<!-- NASALib/analysis&#45;&gt;lib/finite_sets -->
<g id="edge9" class="edge">
<title>NASALib/analysis&#45;&gt;lib/finite_sets</title>
<path fill="none" stroke="black" d="M208.11,-316.88C236.27,-301.33 274,-280.5 274,-280.5 274,-280.5 290,-191.5 290,-191.5"/>
</g>
<!-- NASALib/interval_arith&#45;&gt;NASALib/analysis -->
<g id="edge10" class="edge">
<title>NASALib/interval_arith&#45;&gt;NASALib/analysis</title>
<path fill="none" stroke="black" d="M129,-477.5C129,-477.5 139,-460.5 139,-460.5 139,-460.5 191,-424.5 191,-424.5 191,-424.5 201,-407.5 201,-407.5"/>
</g>
<!-- NASALib/interval_arith&#45;&gt;NASALib/ints -->
<g id="edge11" class="edge">
<title>NASALib/interval_arith&#45;&gt;NASALib/ints</title>
<path fill="none" stroke="black" d="M37,-261.5C37,-261.5 47,-244.5 47,-244.5 47,-244.5 106,-191.5 106,-191.5"/>
<path fill="none" stroke="black" d="M106,-189.5C106,-189.5 135.97,-163.92 159.67,-143.69"/>
<polygon fill="black" stroke="black" points="161.4,-145.96 166.73,-136.8 156.85,-140.63 161.4,-145.96"/>
<path fill="none" stroke="black" d="M90.72,-532.15C71.76,-516.69 47,-496.5 47,-496.5 47,-496.5 37,-263.5 37,-263.5"/>
</g>
<!-- NASALib/interval_arith&#45;&gt;NASALib/lnexp -->
<g id="edge12" class="edge">
<title>NASALib/interval_arith&#45;&gt;NASALib/lnexp</title>
<path fill="none" stroke="black" d="M104.83,-532.2C101.64,-524.48 97.8,-515.21 94.23,-506.61"/>
<polygon fill="black" stroke="black" points="97.15,-505.5 90.09,-497.6 90.68,-508.18 97.15,-505.5"/>
</g>
<!-- NASALib/interval_arith&#45;&gt;NASALib/reals -->
<g id="edge13" class="edge">
<title>NASALib/interval_arith&#45;&gt;NASALib/reals</title>
<path fill="none" stroke="black" d="M129,-477.5C129,-477.5 109,-407.5 109,-407.5"/>
<path fill="none" stroke="black" d="M109,-405.5C109,-405.5 95.74,-333.09 88.16,-291.68"/>
<polygon fill="black" stroke="black" points="91.43,-291.12 86.19,-281.91 84.55,-292.38 91.43,-291.12"/>
<path fill="none" stroke="black" d="M116.2,-532.2C121.24,-511.47 129,-479.5 129,-479.5"/>
</g>
<!-- NASALib/interval_arith&#45;&gt;NASALib/structures -->
<g id="edge14" class="edge">
<title>NASALib/interval_arith&#45;&gt;NASALib/structures</title>
<path fill="none" stroke="black" d="M144.42,-532.15C173.29,-516.69 211,-496.5 211,-496.5 211,-496.5 261,-407.5 261,-407.5 261,-407.5 261,-407.5 261,-333.5 261,-333.5 216,-244.5 216,-244.5 216,-244.5 209.09,-231.43 202.14,-218.27"/>
<polygon fill="black" stroke="black" points="204.93,-217.06 197.17,-209.85 198.74,-220.33 204.93,-217.06"/>
</g>
<!-- NASALib/interval_arith&#45;&gt;NASALib/trig -->
<g id="edge15" class="edge">
<title>NASALib/interval_arith&#45;&gt;NASALib/trig</title>
<path fill="none" stroke="black" d="M127.57,-532.2C135.05,-523.89 144.15,-513.78 152.37,-504.64"/>
<polygon fill="black" stroke="black" points="154.52,-507.38 158.61,-497.6 149.31,-502.7 154.52,-507.38"/>
</g>
<!-- NASALib/ints&#45;&gt;lib/finite_sets -->
<g id="edge16" class="edge">
<title>NASALib/ints&#45;&gt;lib/finite_sets</title>
<path fill="none" stroke="black" d="M192.03,-100C194.5,-89.28 197.71,-75.32 200.53,-63.08"/>
<polygon fill="black" stroke="black" points="204.14,-64 202.98,-53.47 197.32,-62.43 204.14,-64"/>
</g>
<!-- NASALib/lnexp&#45;&gt;NASALib/analysis -->
<g id="edge17" class="edge">
<title>NASALib/lnexp&#45;&gt;NASALib/analysis</title>
<path fill="none" stroke="black" d="M110.25,-464.13C142.25,-448.43 191,-424.5 191,-424.5 191,-424.5 201,-407.5 201,-407.5"/>
<path fill="none" stroke="black" d="M201,-405.5C201,-405.5 193.52,-382.74 187.09,-363.18"/>
<polygon fill="black" stroke="black" points="190.13,-362.21 183.69,-353.8 183.48,-364.4 190.13,-362.21"/>
</g>
<!-- NASALib/lnexp&#45;&gt;NASALib/ints -->
<g id="edge18" class="edge">
<title>NASALib/lnexp&#45;&gt;NASALib/ints</title>
<path fill="none" stroke="black" d="M57,-333.5C57,-333.5 37,-263.5 37,-263.5"/>
<path fill="none" stroke="black" d="M79.81,-460.09C72.87,-422.17 57,-335.5 57,-335.5"/>
</g>
<!-- NASALib/lnexp&#45;&gt;NASALib/reals -->
<g id="edge19" class="edge">
<title>NASALib/lnexp&#45;&gt;NASALib/reals</title>
<path fill="none" stroke="black" d="M57,-333.5C57,-333.5 65.53,-310.53 72.82,-290.91"/>
<polygon fill="black" stroke="black" points="76.37,-292.4 76.57,-281.8 69.81,-289.96 76.37,-292.4"/>
</g>
<!-- NASALib/series -->
<g id="node8" class="node">
<title>NASALib/series</title>
<polygon fill="#fcfcd7" stroke="black" points="182,-424.5 128,-424.5 128,-388.5 182,-388.5 182,-424.5"/>
<text text-anchor="middle" x="155" y="-401.45" font-family="Times,serif" font-size="14.00">series</text>
</g>
<!-- NASALib/lnexp&#45;&gt;NASALib/series -->
<g id="edge20" class="edge">
<title>NASALib/lnexp&#45;&gt;NASALib/series</title>
<path fill="none" stroke="black" d="M100.8,-460.2C109.45,-451.78 120.01,-441.52 129.5,-432.29"/>
<polygon fill="black" stroke="black" points="131.43,-435.33 136.16,-425.85 126.55,-430.31 131.43,-435.33"/>
</g>
<!-- NASALib/orders&#45;&gt;NASALib/structures -->
<g id="edge21" class="edge">
<title>NASALib/orders&#45;&gt;NASALib/structures</title>
<path fill="none" stroke="black" d="M178.21,-244.2C179.61,-236.65 181.29,-227.62 182.86,-219.18"/>
<polygon fill="black" stroke="black" points="186.44,-220.08 184.82,-209.6 179.56,-218.8 186.44,-220.08"/>
</g>
<!-- NASALib/orders&#45;&gt;lib/finite_sets -->
<g id="edge22" class="edge">
<title>NASALib/orders&#45;&gt;lib/finite_sets</title>
<path fill="none" stroke="black" d="M202.31,-246.88C231.62,-231.19 274,-208.5 274,-208.5 274,-208.5 290,-191.5 290,-191.5"/>
<path fill="none" stroke="black" d="M290,-189.5C290,-189.5 290,-119.5 290,-119.5"/>
</g>
<!-- NASALib/reals&#45;&gt;NASALib/ints -->
<g id="edge23" class="edge">
<title>NASALib/reals&#45;&gt;NASALib/ints</title>
<path fill="none" stroke="black" d="M88.69,-244.2C95.5,-223.47 106,-191.5 106,-191.5"/>
</g>
<!-- NASALib/reals&#45;&gt;NASALib/structures -->
<g id="edge24" class="edge">
<title>NASALib/reals&#45;&gt;NASALib/structures</title>
<path fill="none" stroke="black" d="M109.23,-244.02C122.48,-235.18 138.74,-224.34 153.05,-214.8"/>
<polygon fill="black" stroke="black" points="154.73,-217.22 161.11,-208.76 150.85,-211.4 154.73,-217.22"/>
</g>
<!-- NASALib/series&#45;&gt;NASALib/analysis -->
<g id="edge25" class="edge">
<title>NASALib/series&#45;&gt;NASALib/analysis</title>
<path fill="none" stroke="black" d="M160.69,-388.2C163.19,-380.57 166.2,-371.42 169,-362.9"/>
<polygon fill="black" stroke="black" points="172.58,-364.2 172.38,-353.6 165.93,-362.01 172.58,-364.2"/>
</g>
<!-- NASALib/series&#45;&gt;NASALib/ints -->
<g id="edge26" class="edge">
<title>NASALib/series&#45;&gt;NASALib/ints</title>
<path fill="none" stroke="black" d="M129,-261.5C129,-261.5 106,-191.5 106,-191.5"/>
<path fill="none" stroke="black" d="M129,-333.5C129,-333.5 129,-263.5 129,-263.5"/>
</g>
<!-- NASALib/series&#45;&gt;NASALib/orders -->
<g id="edge27" class="edge">
<title>NASALib/series&#45;&gt;NASALib/orders</title>
<path fill="none" stroke="black" d="M129,-333.5C129,-333.5 139,-316.5 139,-316.5 139,-316.5 148.05,-303.17 157.08,-289.88"/>
<polygon fill="black" stroke="black" points="160.49,-292.09 163.21,-281.85 154.7,-288.16 160.49,-292.09"/>
</g>
<!-- NASALib/series&#45;&gt;NASALib/reals -->
<g id="edge28" class="edge">
<title>NASALib/series&#45;&gt;NASALib/reals</title>
<path fill="none" stroke="black" d="M148.57,-388.2C140.87,-367.47 129,-335.5 129,-335.5"/>
<path fill="none" stroke="black" d="M129,-333.5C129,-333.5 113.34,-309.68 100.3,-289.83"/>
<polygon fill="black" stroke="black" points="102.79,-288.24 94.37,-281.8 96.94,-292.08 102.79,-288.24"/>
</g>
<!-- NASALib/structures&#45;&gt;NASALib/ints -->
<g id="edge29" class="edge">
<title>NASALib/structures&#45;&gt;NASALib/ints</title>
<path fill="none" stroke="black" d="M188,-172.2C188,-164.74 188,-155.82 188,-147.47"/>
<polygon fill="black" stroke="black" points="191.5,-147.6 188,-137.6 184.5,-147.6 191.5,-147.6"/>
</g>
<!-- NASALib/structures&#45;&gt;lib/finite_sets -->
<g id="edge30" class="edge">
<title>NASALib/structures&#45;&gt;lib/finite_sets</title>
<path fill="none" stroke="black" d="M213.48,-172.02C243.69,-151.28 290,-119.5 290,-119.5"/>
<path fill="none" stroke="black" d="M290,-117.5C290,-117.5 256.59,-84.29 232.16,-60.01"/>
<polygon fill="black" stroke="black" points="235.16,-58.06 225.6,-53.5 230.23,-63.03 235.16,-58.06"/>
</g>
<!-- NASALib/trig&#45;&gt;NASALib/analysis -->
<g id="edge31" class="edge">
<title>NASALib/trig&#45;&gt;NASALib/analysis</title>
<path fill="none" stroke="black" d="M241,-405.5C241,-405.5 218.78,-380.81 200.73,-360.75"/>
<polygon fill="black" stroke="black" points="203.86,-358.89 194.57,-353.8 198.66,-363.58 203.86,-358.89"/>
<path fill="none" stroke="black" d="M191.31,-460.2C210.86,-439.47 241,-407.5 241,-407.5"/>
</g>
<!-- NASALib/trig&#45;&gt;NASALib/ints -->
<g id="edge32" class="edge">
<title>NASALib/trig&#45;&gt;NASALib/ints</title>
<path fill="none" stroke="black" d="M241,-405.5C241,-405.5 231,-172.5 231,-172.5 231,-172.5 219.77,-158.65 208.78,-145.12"/>
<polygon fill="black" stroke="black" points="211.1,-143.41 202.08,-137.85 205.66,-147.82 211.1,-143.41"/>
</g>
<!-- NASALib/trig&#45;&gt;NASALib/reals -->
<g id="edge33" class="edge">
<title>NASALib/trig&#45;&gt;NASALib/reals</title>
<path fill="none" stroke="black" d="M156.66,-460.15C140.33,-444.69 119,-424.5 119,-424.5 119,-424.5 109,-407.5 109,-407.5"/>
</g>
<!-- NASALib/trig&#45;&gt;NASALib/series -->
<g id="edge34" class="edge">
<title>NASALib/trig&#45;&gt;NASALib/series</title>
<path fill="none" stroke="black" d="M170.06,-460.2C167.9,-452.65 165.32,-443.62 162.91,-435.18"/>
<polygon fill="black" stroke="black" points="166,-434.26 159.89,-425.6 159.27,-436.18 166,-434.26"/>
</g>
</g>
</svg>
