<?xml version="1.0" encoding="UTF-8" standalone="no"?>
<!DOCTYPE svg PUBLIC "-//W3C//DTD SVG 1.1//EN"
 "http://www.w3.org/Graphics/SVG/1.1/DTD/svg11.dtd">
<!-- Generated by graphviz version 2.44.1 (20200629.0846)
 -->
<!-- Title: MetiTarski&#45;zoomed Pages: 1 -->
<svg width="346pt" height="182pt"
 viewBox="0.00 0.00 346.00 182.00" xmlns="http://www.w3.org/2000/svg" xmlns:xlink="http://www.w3.org/1999/xlink">
<g id="graph0" class="graph" transform="scale(1 1) rotate(0) translate(4 178)">
<title>MetiTarski&#45;zoomed</title>
<polygon fill="white" stroke="transparent" points="-4,4 -4,-178 342,-178 342,4 -4,4"/>
<g id="clust1" class="cluster">
<title>cluster_NASALib</title>
<polygon fill="none" stroke="black" points="8,-8 8,-83 330,-83 330,-8 8,-8"/>
<text text-anchor="middle" x="169" y="-67.8" font-family="Times,serif" font-size="14.00">NASALib</text>
</g>
<g id="clust2" class="cluster">
<title>cluster_NASALib/MetiTarski</title>
<polygon fill="none" stroke="black" points="75,-91 75,-166 227,-166 227,-91 75,-91"/>
<text text-anchor="middle" x="151" y="-150.8" font-family="Times,serif" font-size="14.00">NASALib/MetiTarski</text>
</g>
<!-- nasalib/MetiTarski@metit_examples -->
<g id="node1" class="node">
<title>nasalib/MetiTarski@metit_examples</title>
<ellipse fill="#e6f3ff" stroke="black" cx="151" cy="-117" rx="67.69" ry="18"/>
<text text-anchor="middle" x="151" y="-113.3" font-family="Times,serif" font-size="14.00">metit_examples</text>
</g>
<!-- nasalib/interval_arith -->
<g id="node2" class="node">
<title>nasalib/interval_arith</title>
<polygon fill="#fcfcd7" stroke="black" points="321.5,-52 232.5,-52 232.5,-16 321.5,-16 321.5,-52"/>
<text text-anchor="middle" x="277" y="-30.3" font-family="Times,serif" font-size="14.00">interval_arith</text>
</g>
<!-- nasalib/MetiTarski@metit_examples&#45;&gt;nasalib/interval_arith -->
<g id="edge1" class="edge">
<title>nasalib/MetiTarski@metit_examples&#45;&gt;nasalib/interval_arith</title>
<path fill="none" stroke="black" d="M218.79,-117C248.62,-117 277,-117 277,-117 277,-117 277,-62.01 277,-62.01"/>
<polygon fill="black" stroke="black" points="280.5,-62.01 277,-52.01 273.5,-62.01 280.5,-62.01"/>
</g>
<!-- nasalib/lnexp -->
<g id="node3" class="node">
<title>nasalib/lnexp</title>
<polygon fill="#fcfcd7" stroke="black" points="214,-52 160,-52 160,-16 214,-16 214,-52"/>
<text text-anchor="middle" x="187" y="-30.3" font-family="Times,serif" font-size="14.00">lnexp</text>
</g>
<!-- nasalib/MetiTarski@metit_examples&#45;&gt;nasalib/lnexp -->
<g id="edge2" class="edge">
<title>nasalib/MetiTarski@metit_examples&#45;&gt;nasalib/lnexp</title>
<path fill="none" stroke="black" d="M187,-101.39C187,-101.39 187,-62.14 187,-62.14"/>
<polygon fill="black" stroke="black" points="190.5,-62.14 187,-52.14 183.5,-62.14 190.5,-62.14"/>
</g>
<!-- nasalib/reals -->
<g id="node4" class="node">
<title>nasalib/reals</title>
<polygon fill="#fcfcd7" stroke="black" points="142,-52 88,-52 88,-16 142,-16 142,-52"/>
<text text-anchor="middle" x="115" y="-30.3" font-family="Times,serif" font-size="14.00">reals</text>
</g>
<!-- nasalib/MetiTarski@metit_examples&#45;&gt;nasalib/reals -->
<g id="edge3" class="edge">
<title>nasalib/MetiTarski@metit_examples&#45;&gt;nasalib/reals</title>
<path fill="none" stroke="black" d="M115,-101.39C115,-101.39 115,-62.14 115,-62.14"/>
<polygon fill="black" stroke="black" points="118.5,-62.14 115,-52.14 111.5,-62.14 118.5,-62.14"/>
</g>
<!-- nasalib/trig -->
<g id="node5" class="node">
<title>nasalib/trig</title>
<polygon fill="#fcfcd7" stroke="black" points="70,-52 16,-52 16,-16 70,-16 70,-52"/>
<text text-anchor="middle" x="43" y="-30.3" font-family="Times,serif" font-size="14.00">trig</text>
</g>
<!-- nasalib/MetiTarski@metit_examples&#45;&gt;nasalib/trig -->
<g id="edge4" class="edge">
<title>nasalib/MetiTarski@metit_examples&#45;&gt;nasalib/trig</title>
<path fill="none" stroke="black" d="M83.22,-117C61.52,-117 43,-117 43,-117 43,-117 43,-62.01 43,-62.01"/>
<polygon fill="black" stroke="black" points="46.5,-62.01 43,-52.01 39.5,-62.01 46.5,-62.01"/>
</g>
</g>
</svg>
