<?xml version="1.0" encoding="UTF-8" standalone="no"?>
<!DOCTYPE svg PUBLIC "-//W3C//DTD SVG 1.1//EN"
 "http://www.w3.org/Graphics/SVG/1.1/DTD/svg11.dtd">
<!-- Generated by graphviz version 8.0.4 (20230421.1958)
 -->
<!-- Title: graphs Pages: 1 -->
<svg width="166pt" height="473pt"
 viewBox="0.00 0.00 166.00 473.00" xmlns="http://www.w3.org/2000/svg" xmlns:xlink="http://www.w3.org/1999/xlink">
<g id="graph0" class="graph" transform="scale(1 1) rotate(0) translate(4 469)">
<title>graphs</title>
<polygon fill="white" stroke="none" points="-4,4 -4,-469 162,-469 162,4 -4,4"/>
<g id="clust1" class="cluster">
<title>cluster_NASALib</title>
<polygon fill="none" stroke="black" points="8,-92.5 8,-457 138,-457 138,-92.5 8,-92.5"/>
<text text-anchor="middle" x="73" y="-439.7" font-family="Times,serif" font-size="14.00">NASALib</text>
</g>
<g id="clust2" class="cluster">
<title>cluster_PVS Prelude</title>
<polygon fill="none" stroke="black" points="44,-8 44,-84.5 132,-84.5 132,-8 44,-8"/>
<text text-anchor="middle" x="88" y="-67.2" font-family="Times,serif" font-size="14.00">PVS Prelude</text>
</g>
<!-- NASALib/graphs -->
<g id="node1" class="node">
<title>NASALib/graphs</title>
<polygon fill="#f7e28d" stroke="black" points="106,-424.5 52,-424.5 52,-388.5 106,-388.5 106,-424.5"/>
<text text-anchor="middle" x="79" y="-401.45" font-family="Times,serif" font-size="14.00">graphs</text>
</g>
<!-- NASALib/ints -->
<g id="node2" class="node">
<title>NASALib/ints</title>
<polygon fill="#fcfcd7" stroke="black" points="110,-136.5 56,-136.5 56,-100.5 110,-100.5 110,-136.5"/>
<text text-anchor="middle" x="83" y="-113.45" font-family="Times,serif" font-size="14.00">ints</text>
</g>
<!-- NASALib/graphs&#45;&gt;NASALib/ints -->
<g id="edge1" class="edge">
<title>NASALib/graphs&#45;&gt;NASALib/ints</title>
<path fill="none" stroke="black" d="M30,-189.5C30,-189.5 40,-172.5 40,-172.5 40,-172.5 51.23,-158.65 62.22,-145.12"/>
<polygon fill="black" stroke="black" points="65.34,-147.82 68.92,-137.85 59.9,-143.41 65.34,-147.82"/>
<path fill="none" stroke="black" d="M65.9,-388.15C54.24,-372.69 39,-352.5 39,-352.5 39,-352.5 32,-280.5 32,-280.5 32,-280.5 30,-191.5 30,-191.5"/>
</g>
<!-- NASALib/sets_aux -->
<g id="node4" class="node">
<title>NASALib/sets_aux</title>
<polygon fill="#fcfcd7" stroke="black" points="110.25,-352.5 47.75,-352.5 47.75,-316.5 110.25,-316.5 110.25,-352.5"/>
<text text-anchor="middle" x="79" y="-329.45" font-family="Times,serif" font-size="14.00">sets_aux</text>
</g>
<!-- NASALib/graphs&#45;&gt;NASALib/sets_aux -->
<g id="edge2" class="edge">
<title>NASALib/graphs&#45;&gt;NASALib/sets_aux</title>
<path fill="none" stroke="black" d="M79,-388.2C79,-380.74 79,-371.82 79,-363.47"/>
<polygon fill="black" stroke="black" points="82.5,-363.6 79,-353.6 75.5,-363.6 82.5,-363.6"/>
</g>
<!-- NASALib/structures -->
<g id="node5" class="node">
<title>NASALib/structures</title>
<polygon fill="#fcfcd7" stroke="black" points="117.25,-208.5 48.75,-208.5 48.75,-172.5 117.25,-172.5 117.25,-208.5"/>
<text text-anchor="middle" x="83" y="-185.45" font-family="Times,serif" font-size="14.00">structures</text>
</g>
<!-- NASALib/graphs&#45;&gt;NASALib/structures -->
<g id="edge3" class="edge">
<title>NASALib/graphs&#45;&gt;NASALib/structures</title>
<path fill="none" stroke="black" d="M129,-333.5C129,-333.5 119,-244.5 119,-244.5 119,-244.5 109.95,-231.17 100.92,-217.88"/>
<polygon fill="black" stroke="black" points="103.3,-216.16 94.79,-209.85 97.51,-220.09 103.3,-216.16"/>
<path fill="none" stroke="black" d="M92.1,-388.15C103.76,-372.69 119,-352.5 119,-352.5 119,-352.5 129,-335.5 129,-335.5"/>
</g>
<!-- lib/finite_sets -->
<g id="node6" class="node">
<title>lib/finite_sets</title>
<polygon fill="#fcfcd7" stroke="black" points="123.75,-52 52.25,-52 52.25,-16 123.75,-16 123.75,-52"/>
<text text-anchor="middle" x="88" y="-28.95" font-family="Times,serif" font-size="14.00">finite_sets</text>
</g>
<!-- NASALib/graphs&#45;&gt;lib/finite_sets -->
<g id="edge4" class="edge">
<title>NASALib/graphs&#45;&gt;lib/finite_sets</title>
<path fill="none" stroke="black" d="M129,-333.5C129,-333.5 158,-263.5 158,-263.5"/>
</g>
<!-- NASALib/ints&#45;&gt;lib/finite_sets -->
<g id="edge5" class="edge">
<title>NASALib/ints&#45;&gt;lib/finite_sets</title>
<path fill="none" stroke="black" d="M84.06,-100C84.71,-89.28 85.56,-75.32 86.3,-63.08"/>
<polygon fill="black" stroke="black" points="89.83,-63.66 86.94,-53.47 82.84,-63.24 89.83,-63.66"/>
</g>
<!-- NASALib/orders -->
<g id="node3" class="node">
<title>NASALib/orders</title>
<polygon fill="#fcfcd7" stroke="black" points="110,-280.5 56,-280.5 56,-244.5 110,-244.5 110,-280.5"/>
<text text-anchor="middle" x="83" y="-257.45" font-family="Times,serif" font-size="14.00">orders</text>
</g>
<!-- NASALib/orders&#45;&gt;NASALib/structures -->
<g id="edge6" class="edge">
<title>NASALib/orders&#45;&gt;NASALib/structures</title>
<path fill="none" stroke="black" d="M83,-244.2C83,-236.74 83,-227.82 83,-219.47"/>
<polygon fill="black" stroke="black" points="86.5,-219.6 83,-209.6 79.5,-219.6 86.5,-219.6"/>
</g>
<!-- NASALib/orders&#45;&gt;lib/finite_sets -->
<g id="edge7" class="edge">
<title>NASALib/orders&#45;&gt;lib/finite_sets</title>
<path fill="none" stroke="black" d="M102.32,-244.15C119.53,-228.69 142,-208.5 142,-208.5 142,-208.5 158,-191.5 158,-191.5"/>
<path fill="none" stroke="black" d="M158,-189.5C158,-189.5 158,-119.5 158,-119.5"/>
</g>
<!-- NASALib/sets_aux&#45;&gt;NASALib/ints -->
<g id="edge8" class="edge">
<title>NASALib/sets_aux&#45;&gt;NASALib/ints</title>
<path fill="none" stroke="black" d="M68.52,-316.15C59.19,-300.69 47,-280.5 47,-280.5 47,-280.5 37,-263.5 37,-263.5"/>
<path fill="none" stroke="black" d="M37,-261.5C37,-261.5 30,-191.5 30,-191.5"/>
</g>
<!-- NASALib/sets_aux&#45;&gt;NASALib/orders -->
<g id="edge9" class="edge">
<title>NASALib/sets_aux&#45;&gt;NASALib/orders</title>
<path fill="none" stroke="black" d="M79.99,-316.2C80.42,-308.74 80.92,-299.82 81.4,-291.47"/>
<polygon fill="black" stroke="black" points="84.95,-291.79 82.02,-281.6 77.96,-291.39 84.95,-291.79"/>
</g>
<!-- NASALib/sets_aux&#45;&gt;NASALib/structures -->
<g id="edge10" class="edge">
<title>NASALib/sets_aux&#45;&gt;NASALib/structures</title>
<path fill="none" stroke="black" d="M37,-261.5C37,-261.5 47,-244.5 47,-244.5 47,-244.5 56.05,-231.17 65.08,-217.88"/>
<polygon fill="black" stroke="black" points="68.49,-220.09 71.21,-209.85 62.7,-216.16 68.49,-220.09"/>
</g>
<!-- NASALib/sets_aux&#45;&gt;lib/finite_sets -->
<g id="edge11" class="edge">
<title>NASALib/sets_aux&#45;&gt;lib/finite_sets</title>
<path fill="none" stroke="black" d="M158,-261.5C158,-261.5 158,-191.5 158,-191.5"/>
<path fill="none" stroke="black" d="M99.63,-316.15C118,-300.69 142,-280.5 142,-280.5 142,-280.5 158,-263.5 158,-263.5"/>
</g>
<!-- NASALib/structures&#45;&gt;NASALib/ints -->
<g id="edge12" class="edge">
<title>NASALib/structures&#45;&gt;NASALib/ints</title>
<path fill="none" stroke="black" d="M83,-172.2C83,-164.74 83,-155.82 83,-147.47"/>
<polygon fill="black" stroke="black" points="86.5,-147.6 83,-137.6 79.5,-147.6 86.5,-147.6"/>
</g>
<!-- NASALib/structures&#45;&gt;lib/finite_sets -->
<g id="edge13" class="edge">
<title>NASALib/structures&#45;&gt;lib/finite_sets</title>
<path fill="none" stroke="black" d="M158,-117.5C158,-117.5 130.31,-84.86 109.76,-60.64"/>
<polygon fill="black" stroke="black" points="111.98,-58.86 102.85,-53.5 106.65,-63.39 111.98,-58.86"/>
<path fill="none" stroke="black" d="M101.54,-172.2C123.75,-151.47 158,-119.5 158,-119.5"/>
</g>
</g>
</svg>
