<?xml version="1.0" encoding="UTF-8" standalone="no"?>
<!DOCTYPE svg PUBLIC "-//W3C//DTD SVG 1.1//EN"
 "http://www.w3.org/Graphics/SVG/1.1/DTD/svg11.dtd">
<!-- Generated by graphviz version 8.1.0 (20230707.0739)
 -->
<!-- Title: vectors Pages: 1 -->
<svg width="1158pt" height="905pt"
 viewBox="0.00 0.00 1158.00 905.00" xmlns="http://www.w3.org/2000/svg" xmlns:xlink="http://www.w3.org/1999/xlink">
<g id="graph0" class="graph" transform="scale(1 1) rotate(0) translate(4 901)">
<title>vectors</title>
<polygon fill="white" stroke="none" points="-4,4 -4,-901 1154,-901 1154,4 -4,4"/>
<g id="clust1" class="cluster">
<title>cluster_NASALib</title>
<polygon fill="none" stroke="black" points="8,-92.5 8,-889 1130,-889 1130,-92.5 8,-92.5"/>
<text text-anchor="middle" x="569" y="-871.7" font-family="Times,serif" font-size="14.00">NASALib</text>
</g>
<g id="clust2" class="cluster">
<title>cluster_PVS Prelude</title>
<polygon fill="none" stroke="black" points="757,-8 757,-84.5 845,-84.5 845,-8 757,-8"/>
<text text-anchor="middle" x="801" y="-67.2" font-family="Times,serif" font-size="14.00">PVS Prelude</text>
</g>
<!-- lib/finite_sets -->
<g id="node1" class="node">
<title>lib/finite_sets</title>
<polygon fill="#fcfcd7" stroke="black" points="836.75,-52 765.25,-52 765.25,-16 836.75,-16 836.75,-52"/>
<text text-anchor="middle" x="801" y="-28.95" font-family="Times,serif" font-size="14.00">finite_sets</text>
</g>
<!-- nasalib/ACCoRD -->
<g id="node2" class="node">
<title>nasalib/ACCoRD</title>
<polygon fill="#fcfcd7" stroke="black" points="616.62,-712.5 547.38,-712.5 547.38,-676.5 616.62,-676.5 616.62,-712.5"/>
<text text-anchor="middle" x="582" y="-689.45" font-family="Times,serif" font-size="14.00">ACCoRD</text>
</g>
<!-- nasalib/ACCoRD&#45;&gt;lib/finite_sets -->
<g id="edge1" class="edge">
<title>nasalib/ACCoRD&#45;&gt;lib/finite_sets</title>
<path fill="none" stroke="black" d="M1150,-621.5C1150,-621.5 1150,-551.5 1150,-551.5"/>
<path fill="none" stroke="black" d="M616.92,-687.79C647.13,-682.85 686,-676.5 686,-676.5 686,-676.5 1134,-640.5 1134,-640.5 1134,-640.5 1150,-623.5 1150,-623.5"/>
</g>
<!-- nasalib/analysis -->
<g id="node4" class="node">
<title>nasalib/analysis</title>
<polygon fill="#fcfcd7" stroke="black" points="574.75,-352.5 515.25,-352.5 515.25,-316.5 574.75,-316.5 574.75,-352.5"/>
<text text-anchor="middle" x="545" y="-329.45" font-family="Times,serif" font-size="14.00">analysis</text>
</g>
<!-- nasalib/ACCoRD&#45;&gt;nasalib/analysis -->
<g id="edge2" class="edge">
<title>nasalib/ACCoRD&#45;&gt;nasalib/analysis</title>
<path fill="none" stroke="black" d="M631,-621.5C631,-621.5 651,-551.5 651,-551.5"/>
</g>
<!-- nasalib/aviation -->
<g id="node5" class="node">
<title>nasalib/aviation</title>
<polygon fill="#fcfcd7" stroke="black" points="611.75,-640.5 552.25,-640.5 552.25,-604.5 611.75,-604.5 611.75,-640.5"/>
<text text-anchor="middle" x="582" y="-617.45" font-family="Times,serif" font-size="14.00">aviation</text>
</g>
<!-- nasalib/ACCoRD&#45;&gt;nasalib/aviation -->
<g id="edge3" class="edge">
<title>nasalib/ACCoRD&#45;&gt;nasalib/aviation</title>
<path fill="none" stroke="black" d="M582,-676.2C582,-668.74 582,-659.82 582,-651.47"/>
<polygon fill="black" stroke="black" points="585.5,-651.6 582,-641.6 578.5,-651.6 585.5,-651.6"/>
</g>
<!-- nasalib/reals -->
<g id="node20" class="node">
<title>nasalib/reals</title>
<polygon fill="#fcfcd7" stroke="black" points="477,-280.5 423,-280.5 423,-244.5 477,-244.5 477,-280.5"/>
<text text-anchor="middle" x="450" y="-257.45" font-family="Times,serif" font-size="14.00">reals</text>
</g>
<!-- nasalib/ACCoRD&#45;&gt;nasalib/reals -->
<g id="edge4" class="edge">
<title>nasalib/ACCoRD&#45;&gt;nasalib/reals</title>
<path fill="none" stroke="black" d="M631,-621.5C631,-621.5 621,-604.5 621,-604.5 621,-604.5 461,-388.5 461,-388.5 461,-388.5 416,-335.5 416,-335.5"/>
<path fill="none" stroke="black" d="M594.77,-676.15C606.14,-660.69 621,-640.5 621,-640.5 621,-640.5 631,-623.5 631,-623.5"/>
</g>
<!-- nasalib/shapes -->
<g id="node22" class="node">
<title>nasalib/shapes</title>
<polygon fill="#fcfcd7" stroke="black" points="408,-640.5 354,-640.5 354,-604.5 408,-604.5 408,-640.5"/>
<text text-anchor="middle" x="381" y="-617.45" font-family="Times,serif" font-size="14.00">shapes</text>
</g>
<!-- nasalib/ACCoRD&#45;&gt;nasalib/shapes -->
<g id="edge5" class="edge">
<title>nasalib/ACCoRD&#45;&gt;nasalib/shapes</title>
<path fill="none" stroke="black" d="M546.9,-679.94C541.68,-677.92 538,-676.5 538,-676.5 538,-676.5 422,-640.5 422,-640.5 422,-640.5 420.44,-639.85 417.92,-638.81"/>
<polygon fill="black" stroke="black" points="419.7,-635.34 409.12,-634.74 417.02,-641.81 419.7,-635.34"/>
</g>
<!-- nasalib/structures -->
<g id="node23" class="node">
<title>nasalib/structures</title>
<polygon fill="#fcfcd7" stroke="black" points="550.25,-208.5 481.75,-208.5 481.75,-172.5 550.25,-172.5 550.25,-208.5"/>
<text text-anchor="middle" x="516" y="-185.45" font-family="Times,serif" font-size="14.00">structures</text>
</g>
<!-- nasalib/ACCoRD&#45;&gt;nasalib/structures -->
<g id="edge6" class="edge">
<title>nasalib/ACCoRD&#45;&gt;nasalib/structures</title>
<path fill="none" stroke="black" d="M599.68,-676.15C615.43,-660.69 636,-640.5 636,-640.5 636,-640.5 706,-388.5 706,-388.5 706,-388.5 752,-316.5 752,-316.5 752,-316.5 817,-263.5 817,-263.5"/>
<path fill="none" stroke="black" d="M817,-261.5C817,-261.5 645,-221.5 561.04,-201.97"/>
<polygon fill="black" stroke="black" points="562.06,-198.39 551.53,-199.53 560.48,-205.2 562.06,-198.39"/>
</g>
<!-- nasalib/trig -->
<g id="node24" class="node">
<title>nasalib/trig</title>
<polygon fill="#fcfcd7" stroke="black" points="457,-496.5 403,-496.5 403,-460.5 457,-460.5 457,-496.5"/>
<text text-anchor="middle" x="430" y="-473.45" font-family="Times,serif" font-size="14.00">trig</text>
</g>
<!-- nasalib/ACCoRD&#45;&gt;nasalib/trig -->
<g id="edge7" class="edge">
<title>nasalib/ACCoRD&#45;&gt;nasalib/trig</title>
<path fill="none" stroke="black" d="M427,-621.5C427,-621.5 446,-568.5 446,-568.5 446,-568.5 446,-532.5 446,-532.5 446,-532.5 442.21,-519.93 438.31,-507.03"/>
<polygon fill="black" stroke="black" points="441.48,-506.42 435.24,-497.85 434.78,-508.44 441.48,-506.42"/>
</g>
<!-- nasalib/vect_analysis -->
<g id="node25" class="node">
<title>nasalib/vect_analysis</title>
<polygon fill="#fcfcd7" stroke="black" points="534.38,-640.5 445.62,-640.5 445.62,-604.5 534.38,-604.5 534.38,-640.5"/>
<text text-anchor="middle" x="490" y="-617.45" font-family="Times,serif" font-size="14.00">vect_analysis</text>
</g>
<!-- nasalib/ACCoRD&#45;&gt;nasalib/vect_analysis -->
<g id="edge8" class="edge">
<title>nasalib/ACCoRD&#45;&gt;nasalib/vect_analysis</title>
<path fill="none" stroke="black" d="M559.26,-676.2C547.87,-667.53 533.9,-656.9 521.49,-647.46"/>
<polygon fill="black" stroke="black" points="523.88,-644.12 513.8,-640.85 519.64,-649.69 523.88,-644.12"/>
</g>
<!-- nasalib/vectors -->
<g id="node26" class="node">
<title>nasalib/vectors</title>
<polygon fill="#f7e28d" stroke="black" points="436.5,-568.5 381.5,-568.5 381.5,-532.5 436.5,-532.5 436.5,-568.5"/>
<text text-anchor="middle" x="409" y="-545.45" font-family="Times,serif" font-size="14.00">vectors</text>
</g>
<!-- nasalib/ACCoRD&#45;&gt;nasalib/vectors -->
<g id="edge9" class="edge">
<title>nasalib/ACCoRD&#45;&gt;nasalib/vectors</title>
<path fill="none" stroke="black" d="M427,-621.5C427,-621.5 421.2,-598.95 416.19,-579.45"/>
<polygon fill="black" stroke="black" points="419.33,-578.62 413.45,-569.8 412.55,-580.36 419.33,-578.62"/>
<path fill="none" stroke="black" d="M546.9,-679.94C541.68,-677.92 538,-676.5 538,-676.5 538,-676.5 437,-640.5 437,-640.5 437,-640.5 427,-623.5 427,-623.5"/>
</g>
<!-- nasalib/ODEs -->
<g id="node3" class="node">
<title>nasalib/ODEs</title>
<polygon fill="#fcfcd7" stroke="black" points="724,-784.5 670,-784.5 670,-748.5 724,-748.5 724,-784.5"/>
<text text-anchor="middle" x="697" y="-761.45" font-family="Times,serif" font-size="14.00">ODEs</text>
</g>
<!-- nasalib/ODEs&#45;&gt;nasalib/analysis -->
<g id="edge10" class="edge">
<title>nasalib/ODEs&#45;&gt;nasalib/analysis</title>
<path fill="none" stroke="black" d="M691,-621.5C691,-621.5 651,-551.5 651,-551.5"/>
<path fill="none" stroke="black" d="M695.52,-748.2C693.74,-727.47 691,-695.5 691,-695.5"/>
<path fill="none" stroke="black" d="M691,-693.5C691,-693.5 691,-623.5 691,-623.5"/>
</g>
<!-- nasalib/metric_space -->
<g id="node14" class="node">
<title>nasalib/metric_space</title>
<polygon fill="#fcfcd7" stroke="black" points="798,-640.5 710,-640.5 710,-604.5 798,-604.5 798,-640.5"/>
<text text-anchor="middle" x="754" y="-617.45" font-family="Times,serif" font-size="14.00">metric_space</text>
</g>
<!-- nasalib/ODEs&#45;&gt;nasalib/metric_space -->
<g id="edge11" class="edge">
<title>nasalib/ODEs&#45;&gt;nasalib/metric_space</title>
<path fill="none" stroke="black" d="M691,-693.5C691,-693.5 706,-676.5 706,-676.5 706,-676.5 718.78,-662.39 731.15,-648.73"/>
<polygon fill="black" stroke="black" points="733.16,-651.62 737.28,-641.85 727.98,-646.92 733.16,-651.62"/>
</g>
<!-- nasalib/mv_analysis -->
<g id="node15" class="node">
<title>nasalib/mv_analysis</title>
<polygon fill="#fcfcd7" stroke="black" points="529.12,-712.5 444.88,-712.5 444.88,-676.5 529.12,-676.5 529.12,-712.5"/>
<text text-anchor="middle" x="487" y="-689.45" font-family="Times,serif" font-size="14.00">mv_analysis</text>
</g>
<!-- nasalib/ODEs&#45;&gt;nasalib/mv_analysis -->
<g id="edge12" class="edge">
<title>nasalib/ODEs&#45;&gt;nasalib/mv_analysis</title>
<path fill="none" stroke="black" d="M669.88,-754.26C662.26,-751.09 656,-748.5 656,-748.5 656,-748.5 570.43,-722.39 539.83,-712.91"/>
<polygon fill="black" stroke="black" points="541.17,-709.35 530.58,-709.69 539.07,-716.03 541.17,-709.35"/>
</g>
<!-- nasalib/ODEs&#45;&gt;nasalib/structures -->
<g id="edge13" class="edge">
<title>nasalib/ODEs&#45;&gt;nasalib/structures</title>
<path fill="none" stroke="black" d="M691,-621.5C691,-621.5 741,-388.5 741,-388.5 741,-388.5 817,-263.5 817,-263.5"/>
</g>
<!-- nasalib/analysis&#45;&gt;lib/finite_sets -->
<g id="edge14" class="edge">
<title>nasalib/analysis&#45;&gt;lib/finite_sets</title>
<path fill="none" stroke="black" d="M575.02,-330.8C695.05,-320 1134,-280.5 1134,-280.5 1134,-280.5 1150,-263.5 1150,-263.5"/>
<path fill="none" stroke="black" d="M1150,-261.5C1150,-261.5 1150,-191.5 1150,-191.5"/>
</g>
<!-- nasalib/ints -->
<g id="node9" class="node">
<title>nasalib/ints</title>
<polygon fill="#fcfcd7" stroke="black" points="543,-136.5 489,-136.5 489,-100.5 543,-100.5 543,-136.5"/>
<text text-anchor="middle" x="516" y="-113.45" font-family="Times,serif" font-size="14.00">ints</text>
</g>
<!-- nasalib/analysis&#45;&gt;nasalib/ints -->
<g id="edge15" class="edge">
<title>nasalib/analysis&#45;&gt;nasalib/ints</title>
<path fill="none" stroke="black" d="M537.83,-316.2C529.24,-295.47 516,-263.5 516,-263.5"/>
<path fill="none" stroke="black" d="M516,-261.5C516,-261.5 457,-191.5 457,-191.5"/>
</g>
<!-- nasalib/orders -->
<g id="node16" class="node">
<title>nasalib/orders</title>
<polygon fill="#fcfcd7" stroke="black" points="910,-280.5 856,-280.5 856,-244.5 910,-244.5 910,-280.5"/>
<text text-anchor="middle" x="883" y="-257.45" font-family="Times,serif" font-size="14.00">orders</text>
</g>
<!-- nasalib/analysis&#45;&gt;nasalib/orders -->
<g id="edge16" class="edge">
<title>nasalib/analysis&#45;&gt;nasalib/orders</title>
<path fill="none" stroke="black" d="M575.17,-327.73C646.96,-313.99 822,-280.5 822,-280.5 822,-280.5 832.88,-277.47 845.45,-273.97"/>
<polygon fill="black" stroke="black" points="846.02,-277.16 854.71,-271.1 844.14,-270.42 846.02,-277.16"/>
</g>
<!-- nasalib/analysis&#45;&gt;nasalib/reals -->
<g id="edge17" class="edge">
<title>nasalib/analysis&#45;&gt;nasalib/reals</title>
<path fill="none" stroke="black" d="M521.52,-316.2C509.64,-307.45 495.05,-296.69 482.15,-287.19"/>
<polygon fill="black" stroke="black" points="484.67,-283.96 474.54,-280.85 480.52,-289.6 484.67,-283.96"/>
</g>
<!-- nasalib/analysis&#45;&gt;nasalib/structures -->
<g id="edge18" class="edge">
<title>nasalib/analysis&#45;&gt;nasalib/structures</title>
<path fill="none" stroke="black" d="M516,-261.5C516,-261.5 516,-239.16 516,-219.72"/>
<polygon fill="black" stroke="black" points="519.5,-219.8 516,-209.8 512.5,-219.8 519.5,-219.8"/>
</g>
<!-- nasalib/aviation&#45;&gt;lib/finite_sets -->
<g id="edge19" class="edge">
<title>nasalib/aviation&#45;&gt;lib/finite_sets</title>
<path fill="none" stroke="black" d="M612.08,-609.88C619.81,-606.89 626,-604.5 626,-604.5 626,-604.5 1150,-551.5 1150,-551.5"/>
<path fill="none" stroke="black" d="M1150,-549.5C1150,-549.5 1150,-263.5 1150,-263.5"/>
</g>
<!-- nasalib/aviation&#45;&gt;nasalib/analysis -->
<g id="edge20" class="edge">
<title>nasalib/aviation&#45;&gt;nasalib/analysis</title>
<path fill="none" stroke="black" d="M599.06,-604.2C619.49,-583.47 651,-551.5 651,-551.5"/>
<path fill="none" stroke="black" d="M652,-477.5C652,-477.5 600,-407.5 600,-407.5"/>
<path fill="none" stroke="black" d="M651,-549.5C651,-549.5 652,-479.5 652,-479.5"/>
</g>
<!-- nasalib/aviation&#45;&gt;nasalib/reals -->
<g id="edge21" class="edge">
<title>nasalib/aviation&#45;&gt;nasalib/reals</title>
<path fill="none" stroke="black" d="M571.45,-604.09C548.49,-566.17 496,-479.5 496,-479.5"/>
<path fill="none" stroke="black" d="M496,-477.5C496,-477.5 456,-407.5 456,-407.5"/>
</g>
<!-- nasalib/aviation&#45;&gt;nasalib/structures -->
<g id="edge22" class="edge">
<title>nasalib/aviation&#45;&gt;nasalib/structures</title>
<path fill="none" stroke="black" d="M496,-477.5C496,-477.5 506,-316.5 506,-316.5 506,-316.5 511,-244.5 511,-244.5 511,-244.5 512.14,-232.42 513.33,-219.8"/>
<polygon fill="black" stroke="black" points="516.91,-220.14 514.36,-209.85 509.94,-219.48 516.91,-220.14"/>
</g>
<!-- nasalib/aviation&#45;&gt;nasalib/trig -->
<g id="edge23" class="edge">
<title>nasalib/aviation&#45;&gt;nasalib/trig</title>
<path fill="none" stroke="black" d="M563.36,-604.09C536.44,-578.93 486.55,-532.33 456.01,-503.8"/>
<polygon fill="black" stroke="black" points="459.01,-501.88 449.32,-497.61 454.23,-507 459.01,-501.88"/>
</g>
<!-- nasalib/aviation&#45;&gt;nasalib/vectors -->
<g id="edge24" class="edge">
<title>nasalib/aviation&#45;&gt;nasalib/vectors</title>
<path fill="none" stroke="black" d="M552.05,-608.44C546.81,-606.16 543,-604.5 543,-604.5 543,-604.5 486.55,-582.17 446.93,-566.5"/>
<polygon fill="black" stroke="black" points="448.35,-562.91 437.76,-562.48 445.78,-569.41 448.35,-562.91"/>
</g>
<!-- nasalib/complex_integration -->
<g id="node6" class="node">
<title>nasalib/complex_integration</title>
<polygon fill="#fcfcd7" stroke="black" points="981.25,-784.5 852.75,-784.5 852.75,-748.5 981.25,-748.5 981.25,-784.5"/>
<text text-anchor="middle" x="917" y="-761.45" font-family="Times,serif" font-size="14.00">complex_integration</text>
</g>
<!-- nasalib/measure_integration -->
<g id="node13" class="node">
<title>nasalib/measure_integration</title>
<polygon fill="#fcfcd7" stroke="black" points="897.5,-712.5 770.5,-712.5 770.5,-676.5 897.5,-676.5 897.5,-712.5"/>
<text text-anchor="middle" x="834" y="-689.45" font-family="Times,serif" font-size="14.00">measure_integration</text>
</g>
<!-- nasalib/complex_integration&#45;&gt;nasalib/measure_integration -->
<g id="edge25" class="edge">
<title>nasalib/complex_integration&#45;&gt;nasalib/measure_integration</title>
<path fill="none" stroke="black" d="M896.48,-748.2C886.31,-739.61 873.85,-729.11 862.74,-719.74"/>
<polygon fill="black" stroke="black" points="865.47,-716.62 855.57,-712.85 860.96,-721.97 865.47,-716.62"/>
</g>
<!-- nasalib/complex_integration&#45;&gt;nasalib/metric_space -->
<g id="edge26" class="edge">
<title>nasalib/complex_integration&#45;&gt;nasalib/metric_space</title>
<path fill="none" stroke="black" d="M866.25,-748.15C821.04,-732.69 762,-712.5 762,-712.5 762,-712.5 758.86,-677.61 756.52,-651.52"/>
<polygon fill="black" stroke="black" points="759.92,-651.31 755.54,-641.66 752.95,-651.93 759.92,-651.31"/>
</g>
<!-- nasalib/complex_integration&#45;&gt;nasalib/structures -->
<g id="edge27" class="edge">
<title>nasalib/complex_integration&#45;&gt;nasalib/structures</title>
<path fill="none" stroke="black" d="M917,-748.2C917,-727.47 917,-695.5 917,-695.5"/>
</g>
<!-- nasalib/dL -->
<g id="node7" class="node">
<title>nasalib/dL</title>
<polygon fill="#fcfcd7" stroke="black" points="701,-856.5 647,-856.5 647,-820.5 701,-820.5 701,-856.5"/>
<text text-anchor="middle" x="674" y="-833.45" font-family="Times,serif" font-size="14.00">dL</text>
</g>
<!-- nasalib/dL&#45;&gt;nasalib/ODEs -->
<g id="edge28" class="edge">
<title>nasalib/dL&#45;&gt;nasalib/ODEs</title>
<path fill="none" stroke="black" d="M679.69,-820.2C682.19,-812.57 685.2,-803.42 688,-794.9"/>
<polygon fill="black" stroke="black" points="691.58,-796.2 691.38,-785.6 684.93,-794.01 691.58,-796.2"/>
</g>
<!-- nasalib/dL&#45;&gt;nasalib/analysis -->
<g id="edge29" class="edge">
<title>nasalib/dL&#45;&gt;nasalib/analysis</title>
<path fill="none" stroke="black" d="M651,-765.5C651,-765.5 651,-551.5 651,-551.5"/>
</g>
<!-- nasalib/dL&#45;&gt;nasalib/mv_analysis -->
<g id="edge30" class="edge">
<title>nasalib/dL&#45;&gt;nasalib/mv_analysis</title>
<path fill="none" stroke="black" d="M651,-765.5C651,-765.5 641,-748.5 641,-748.5 641,-748.5 584.26,-728.97 539.66,-713.62"/>
<polygon fill="black" stroke="black" points="541.08,-710.07 530.49,-710.12 538.81,-716.69 541.08,-710.07"/>
<path fill="none" stroke="black" d="M668.31,-820.2C661.5,-799.47 651,-767.5 651,-767.5"/>
</g>
<!-- nasalib/dL&#45;&gt;nasalib/orders -->
<g id="edge31" class="edge">
<title>nasalib/dL&#45;&gt;nasalib/orders</title>
<path fill="none" stroke="black" d="M989,-621.5C989,-621.5 883,-407.5 883,-407.5"/>
<path fill="none" stroke="black" d="M701.49,-832.89C778.37,-819.99 990,-784.5 990,-784.5 990,-784.5 990,-748.5 990,-748.5 990,-748.5 947,-712.5 947,-712.5 947,-712.5 947,-676.5 947,-676.5 947,-676.5 989,-623.5 989,-623.5"/>
</g>
<!-- nasalib/dL&#45;&gt;nasalib/reals -->
<g id="edge32" class="edge">
<title>nasalib/dL&#45;&gt;nasalib/reals</title>
<path fill="none" stroke="black" d="M57,-693.5C57,-693.5 120,-460.5 120,-460.5 120,-460.5 145,-388.5 145,-388.5 145,-388.5 197,-316.5 197,-316.5 197,-316.5 341.75,-286.18 412.28,-271.4"/>
<polygon fill="black" stroke="black" points="412.85,-274.65 421.92,-269.17 411.42,-267.8 412.85,-274.65"/>
</g>
<!-- nasalib/dL&#45;&gt;nasalib/structures -->
<g id="edge33" class="edge">
<title>nasalib/dL&#45;&gt;nasalib/structures</title>
<path fill="none" stroke="black" d="M57,-693.5C57,-693.5 17,-551.5 17,-551.5 17,-551.5 17,-551.5 17,-333.5 17,-333.5 217,-244.5 217,-244.5 217,-244.5 462,-208.5 462,-208.5 462,-208.5 465.66,-207.35 471.07,-205.64"/>
<polygon fill="black" stroke="black" points="472.01,-208.7 480.5,-202.36 469.91,-202.03 472.01,-208.7"/>
<path fill="none" stroke="black" d="M646.57,-831.8C528.8,-807.35 72,-712.5 72,-712.5 72,-712.5 57,-695.5 57,-695.5"/>
</g>
<!-- nasalib/examples -->
<g id="node8" class="node">
<title>nasalib/examples</title>
<polygon fill="#fcfcd7" stroke="black" points="335.88,-640.5 268.12,-640.5 268.12,-604.5 335.88,-604.5 335.88,-640.5"/>
<text text-anchor="middle" x="302" y="-617.45" font-family="Times,serif" font-size="14.00">examples</text>
</g>
<!-- nasalib/examples&#45;&gt;nasalib/analysis -->
<g id="edge34" class="edge">
<title>nasalib/examples&#45;&gt;nasalib/analysis</title>
<path fill="none" stroke="black" d="M307.98,-604.34C316.99,-578.48 333,-532.5 333,-532.5 333,-532.5 394,-460.5 394,-460.5 394,-460.5 461,-424.5 461,-424.5 461,-424.5 481,-388.5 481,-388.5 481,-388.5 499,-373.59 515.91,-359.59"/>
<polygon fill="black" stroke="black" points="517.57,-361.93 523.04,-352.85 513.11,-356.54 517.57,-361.93"/>
</g>
<!-- nasalib/examples&#45;&gt;nasalib/reals -->
<g id="edge35" class="edge">
<title>nasalib/examples&#45;&gt;nasalib/reals</title>
<path fill="none" stroke="black" d="M416,-333.5C416,-333.5 427.26,-310.32 436.82,-290.64"/>
<polygon fill="black" stroke="black" points="440.37,-292.33 441.6,-281.8 434.08,-289.27 440.37,-292.33"/>
<path fill="none" stroke="black" d="M304.89,-604.34C309.25,-578.48 317,-532.5 317,-532.5 317,-532.5 416,-335.5 416,-335.5"/>
</g>
<!-- nasalib/examples&#45;&gt;nasalib/trig -->
<g id="edge36" class="edge">
<title>nasalib/examples&#45;&gt;nasalib/trig</title>
<path fill="none" stroke="black" d="M312.6,-604.34C328.59,-578.48 357,-532.5 357,-532.5 357,-532.5 377.91,-517.32 397.35,-503.2"/>
<polygon fill="black" stroke="black" points="399.06,-505.56 405.1,-496.85 394.95,-499.9 399.06,-505.56"/>
</g>
<!-- nasalib/examples&#45;&gt;nasalib/vectors -->
<g id="edge37" class="edge">
<title>nasalib/examples&#45;&gt;nasalib/vectors</title>
<path fill="none" stroke="black" d="M328.72,-604.02C342.36,-595.1 359.12,-584.13 373.8,-574.53"/>
<polygon fill="black" stroke="black" points="375.16,-577.16 381.62,-568.76 371.33,-571.31 375.16,-577.16"/>
</g>
<!-- nasalib/ints&#45;&gt;lib/finite_sets -->
<g id="edge38" class="edge">
<title>nasalib/ints&#45;&gt;lib/finite_sets</title>
<path fill="none" stroke="black" d="M543.33,-109.59C592.09,-95.47 694.59,-65.8 754.57,-48.44"/>
<polygon fill="black" stroke="black" points="755.27,-51.59 763.9,-45.45 753.32,-44.87 755.27,-51.59"/>
</g>
<!-- nasalib/lebesgue -->
<g id="node10" class="node">
<title>nasalib/lebesgue</title>
<polygon fill="#fcfcd7" stroke="black" points="820.62,-784.5 757.38,-784.5 757.38,-748.5 820.62,-748.5 820.62,-784.5"/>
<text text-anchor="middle" x="789" y="-761.45" font-family="Times,serif" font-size="14.00">lebesgue</text>
</g>
<!-- nasalib/lebesgue&#45;&gt;nasalib/analysis -->
<g id="edge39" class="edge">
<title>nasalib/lebesgue&#45;&gt;nasalib/analysis</title>
<path fill="none" stroke="black" d="M711,-693.5C711,-693.5 807,-640.5 807,-640.5 807,-640.5 807,-604.5 807,-604.5 807,-604.5 605,-388.5 605,-388.5 605,-388.5 588.43,-373.86 572.7,-359.97"/>
<polygon fill="black" stroke="black" points="575.46,-357.85 565.65,-353.85 570.82,-363.1 575.46,-357.85"/>
</g>
<!-- nasalib/lebesgue&#45;&gt;nasalib/measure_integration -->
<g id="edge40" class="edge">
<title>nasalib/lebesgue&#45;&gt;nasalib/measure_integration</title>
<path fill="none" stroke="black" d="M800.12,-748.2C805.25,-740.23 811.44,-730.6 817.12,-721.76"/>
<polygon fill="black" stroke="black" points="820.54,-723.91 823,-713.6 814.65,-720.12 820.54,-723.91"/>
</g>
<!-- nasalib/lebesgue&#45;&gt;nasalib/metric_space -->
<g id="edge41" class="edge">
<title>nasalib/lebesgue&#45;&gt;nasalib/metric_space</title>
<path fill="none" stroke="black" d="M768.37,-748.15C750,-732.69 726,-712.5 726,-712.5 726,-712.5 711,-695.5 711,-695.5"/>
<path fill="none" stroke="black" d="M711,-693.5C711,-693.5 725.5,-669.89 737.66,-650.1"/>
<polygon fill="black" stroke="black" points="741.12,-652.16 743.37,-641.8 735.15,-648.49 741.12,-652.16"/>
</g>
<!-- nasalib/lebesgue&#45;&gt;nasalib/reals -->
<g id="edge42" class="edge">
<title>nasalib/lebesgue&#45;&gt;nasalib/reals</title>
<path fill="none" stroke="black" d="M780.16,-748.15C772.28,-732.69 762,-712.5 762,-712.5 762,-712.5 762,-676.5 762,-676.5 762,-676.5 812,-640.5 812,-640.5 812,-640.5 857,-551.5 857,-551.5"/>
</g>
<!-- nasalib/lebesgue&#45;&gt;nasalib/structures -->
<g id="edge43" class="edge">
<title>nasalib/lebesgue&#45;&gt;nasalib/structures</title>
<path fill="none" stroke="black" d="M917,-693.5C917,-693.5 884,-460.5 884,-460.5 884,-460.5 817,-263.5 817,-263.5"/>
<path fill="none" stroke="black" d="M820.93,-751.16C855.88,-735.46 907,-712.5 907,-712.5 907,-712.5 917,-695.5 917,-695.5"/>
</g>
<!-- nasalib/line_segments -->
<g id="node11" class="node">
<title>nasalib/line_segments</title>
<polygon fill="#fcfcd7" stroke="black" points="1102,-640.5 1008,-640.5 1008,-604.5 1102,-604.5 1102,-640.5"/>
<text text-anchor="middle" x="1055" y="-617.45" font-family="Times,serif" font-size="14.00">line_segments</text>
</g>
<!-- nasalib/line_segments&#45;&gt;lib/finite_sets -->
<g id="edge44" class="edge">
<title>nasalib/line_segments&#45;&gt;lib/finite_sets</title>
<path fill="none" stroke="black" d="M1078.48,-604.2C1106.62,-583.47 1150,-551.5 1150,-551.5"/>
</g>
<!-- nasalib/line_segments&#45;&gt;nasalib/orders -->
<g id="edge45" class="edge">
<title>nasalib/line_segments&#45;&gt;nasalib/orders</title>
<path fill="none" stroke="black" d="M1101,-333.5C1101,-333.5 982.69,-295.51 920.39,-275.5"/>
<polygon fill="black" stroke="black" points="921.76,-271.95 911.17,-272.22 919.62,-278.61 921.76,-271.95"/>
<path fill="none" stroke="black" d="M1057.81,-604.04C1067.8,-541.95 1101,-335.5 1101,-335.5"/>
</g>
<!-- nasalib/line_segments&#45;&gt;nasalib/structures -->
<g id="edge46" class="edge">
<title>nasalib/line_segments&#45;&gt;nasalib/structures</title>
<path fill="none" stroke="black" d="M1101,-333.5C1101,-333.5 1101,-263.5 1101,-263.5"/>
<path fill="none" stroke="black" d="M1101,-261.5C1101,-261.5 697.94,-213.27 560.94,-196.88"/>
<polygon fill="black" stroke="black" points="561.76,-193.33 551.41,-195.62 560.92,-200.28 561.76,-193.33"/>
</g>
<!-- nasalib/line_segments&#45;&gt;nasalib/vectors -->
<g id="edge47" class="edge">
<title>nasalib/line_segments&#45;&gt;nasalib/vectors</title>
<path fill="none" stroke="black" d="M1007.76,-616.38C885.44,-603.13 560.08,-567.87 447.77,-555.7"/>
<polygon fill="black" stroke="black" points="448.29,-552.13 437.97,-554.53 447.53,-559.09 448.29,-552.13"/>
</g>
<!-- nasalib/linear_algebra -->
<g id="node12" class="node">
<title>nasalib/linear_algebra</title>
<polygon fill="#fcfcd7" stroke="black" points="209.62,-640.5 116.38,-640.5 116.38,-604.5 209.62,-604.5 209.62,-640.5"/>
<text text-anchor="middle" x="163" y="-617.45" font-family="Times,serif" font-size="14.00">linear_algebra</text>
</g>
<!-- nasalib/linear_algebra&#45;&gt;nasalib/reals -->
<g id="edge48" class="edge">
<title>nasalib/linear_algebra&#45;&gt;nasalib/reals</title>
<path fill="none" stroke="black" d="M222,-477.5C222,-477.5 237,-460.5 237,-460.5 237,-460.5 365.97,-341.22 423.2,-288.29"/>
<polygon fill="black" stroke="black" points="425.13,-291.34 430.1,-281.98 420.38,-286.2 425.13,-291.34"/>
</g>
<!-- nasalib/linear_algebra&#45;&gt;nasalib/structures -->
<g id="edge49" class="edge">
<title>nasalib/linear_algebra&#45;&gt;nasalib/structures</title>
<path fill="none" stroke="black" d="M170.23,-604.09C185.99,-566.17 222,-479.5 222,-479.5"/>
<path fill="none" stroke="black" d="M222,-477.5C222,-477.5 197,-352.5 197,-352.5 197,-352.5 197,-316.5 197,-316.5 197,-316.5 222,-263.5 222,-263.5"/>
</g>
<!-- nasalib/linear_algebra&#45;&gt;nasalib/vectors -->
<g id="edge50" class="edge">
<title>nasalib/linear_algebra&#45;&gt;nasalib/vectors</title>
<path fill="none" stroke="black" d="M210.06,-609.27C270.3,-593.62 367,-568.5 367,-568.5 367,-568.5 368.6,-567.85 371.18,-566.81"/>
<polygon fill="black" stroke="black" points="372.26,-569.74 380.22,-562.74 369.64,-563.25 372.26,-569.74"/>
</g>
<!-- nasalib/measure_integration&#45;&gt;lib/finite_sets -->
<g id="edge51" class="edge">
<title>nasalib/measure_integration&#45;&gt;lib/finite_sets</title>
<path fill="none" stroke="black" d="M897.99,-682.2C986.1,-666.63 1134,-640.5 1134,-640.5 1134,-640.5 1150,-623.5 1150,-623.5"/>
</g>
<!-- nasalib/measure_integration&#45;&gt;nasalib/metric_space -->
<g id="edge52" class="edge">
<title>nasalib/measure_integration&#45;&gt;nasalib/metric_space</title>
<path fill="none" stroke="black" d="M814.22,-676.2C804.51,-667.7 792.64,-657.31 782.02,-648.01"/>
<polygon fill="black" stroke="black" points="784.66,-644.8 774.83,-640.85 780.05,-650.07 784.66,-644.8"/>
</g>
<!-- nasalib/measure_integration&#45;&gt;nasalib/orders -->
<g id="edge53" class="edge">
<title>nasalib/measure_integration&#45;&gt;nasalib/orders</title>
<path fill="none" stroke="black" d="M883,-405.5C883,-405.5 883,-335.5 883,-335.5"/>
<path fill="none" stroke="black" d="M879,-477.5C879,-477.5 883,-407.5 883,-407.5"/>
</g>
<!-- nasalib/measure_integration&#45;&gt;nasalib/reals -->
<g id="edge54" class="edge">
<title>nasalib/measure_integration&#45;&gt;nasalib/reals</title>
<path fill="none" stroke="black" d="M877,-621.5C877,-621.5 879,-479.5 879,-479.5"/>
<path fill="none" stroke="black" d="M817,-333.5C817,-333.5 511,-280.5 511,-280.5 511,-280.5 500.12,-277.47 487.55,-273.97"/>
<polygon fill="black" stroke="black" points="488.86,-270.42 478.29,-271.1 486.98,-277.16 488.86,-270.42"/>
<path fill="none" stroke="black" d="M879,-477.5C879,-477.5 817,-335.5 817,-335.5"/>
</g>
<!-- nasalib/series -->
<g id="node21" class="node">
<title>nasalib/series</title>
<polygon fill="#fcfcd7" stroke="black" points="804,-424.5 750,-424.5 750,-388.5 804,-388.5 804,-424.5"/>
<text text-anchor="middle" x="777" y="-401.45" font-family="Times,serif" font-size="14.00">series</text>
</g>
<!-- nasalib/measure_integration&#45;&gt;nasalib/series -->
<g id="edge55" class="edge">
<title>nasalib/measure_integration&#45;&gt;nasalib/series</title>
<path fill="none" stroke="black" d="M844.63,-676.2C857.36,-655.47 877,-623.5 877,-623.5"/>
<path fill="none" stroke="black" d="M877,-621.5C877,-621.5 852,-568.5 852,-568.5 852,-568.5 828,-479.5 828,-479.5"/>
</g>
<!-- nasalib/measure_integration&#45;&gt;nasalib/structures -->
<g id="edge56" class="edge">
<title>nasalib/measure_integration&#45;&gt;nasalib/structures</title>
<path fill="none" stroke="black" d="M817,-333.5C817,-333.5 817,-263.5 817,-263.5"/>
</g>
<!-- nasalib/metric_space&#45;&gt;lib/finite_sets -->
<g id="edge57" class="edge">
<title>nasalib/metric_space&#45;&gt;lib/finite_sets</title>
<path fill="none" stroke="black" d="M798.27,-613.67C901.61,-595.41 1150,-551.5 1150,-551.5"/>
</g>
<!-- nasalib/metric_space&#45;&gt;nasalib/analysis -->
<g id="edge58" class="edge">
<title>nasalib/metric_space&#45;&gt;nasalib/analysis</title>
<path fill="none" stroke="black" d="M741.49,-604.09C714.26,-566.17 652,-479.5 652,-479.5"/>
</g>
<!-- nasalib/metric_space&#45;&gt;nasalib/reals -->
<g id="edge59" class="edge">
<title>nasalib/metric_space&#45;&gt;nasalib/reals</title>
<path fill="none" stroke="black" d="M779.73,-604.02C810.23,-583.28 857,-551.5 857,-551.5"/>
<path fill="none" stroke="black" d="M857,-549.5C857,-549.5 833,-460.5 833,-460.5 833,-460.5 813,-388.5 813,-388.5 813,-388.5 625,-316.5 625,-316.5 625,-316.5 539.2,-290.52 487.76,-274.93"/>
<polygon fill="black" stroke="black" points="488.93,-271.33 478.34,-271.78 486.9,-278.03 488.93,-271.33"/>
</g>
<!-- nasalib/metric_space&#45;&gt;nasalib/series -->
<g id="edge60" class="edge">
<title>nasalib/metric_space&#45;&gt;nasalib/series</title>
<path fill="none" stroke="black" d="M763.07,-604.09C782.83,-566.17 828,-479.5 828,-479.5"/>
<path fill="none" stroke="black" d="M828,-477.5C828,-477.5 810.49,-453.46 795.98,-433.56"/>
<polygon fill="black" stroke="black" points="798.32,-431.82 789.61,-425.8 792.67,-435.95 798.32,-431.82"/>
</g>
<!-- nasalib/metric_space&#45;&gt;nasalib/vectors -->
<g id="edge61" class="edge">
<title>nasalib/metric_space&#45;&gt;nasalib/vectors</title>
<path fill="none" stroke="black" d="M709.75,-608.53C701.81,-606.2 696,-604.5 696,-604.5 696,-604.5 525.25,-572.97 447.16,-558.55"/>
<polygon fill="black" stroke="black" points="448.25,-555 437.78,-556.63 446.98,-561.89 448.25,-555"/>
</g>
<!-- nasalib/mv_analysis&#45;&gt;nasalib/analysis -->
<g id="edge62" class="edge">
<title>nasalib/mv_analysis&#45;&gt;nasalib/analysis</title>
<path fill="none" stroke="black" d="M444.38,-683.59C378.39,-668.25 259,-640.5 259,-640.5 259,-640.5 259,-604.5 259,-604.5 259,-604.5 360,-460.5 360,-460.5 360,-460.5 421,-424.5 421,-424.5 421,-424.5 457,-388.5 457,-388.5 457,-388.5 483.12,-372.77 506.91,-358.44"/>
<polygon fill="black" stroke="black" points="508.42,-361.01 515.19,-352.85 504.81,-355.02 508.42,-361.01"/>
</g>
<!-- nasalib/mv_analysis&#45;&gt;nasalib/metric_space -->
<g id="edge63" class="edge">
<title>nasalib/mv_analysis&#45;&gt;nasalib/metric_space</title>
<path fill="none" stroke="black" d="M529.58,-679.31C534.61,-677.63 538,-676.5 538,-676.5 538,-676.5 696,-640.5 696,-640.5 696,-640.5 697.28,-640.13 699.45,-639.49"/>
<polygon fill="black" stroke="black" points="700.13,-642.64 708.75,-636.47 698.16,-635.93 700.13,-642.64"/>
</g>
<!-- nasalib/mv_analysis&#45;&gt;nasalib/reals -->
<g id="edge64" class="edge">
<title>nasalib/mv_analysis&#45;&gt;nasalib/reals</title>
<path fill="none" stroke="black" d="M117,-549.5C117,-549.5 202,-335.5 202,-335.5"/>
</g>
<!-- nasalib/mv_analysis&#45;&gt;nasalib/structures -->
<g id="edge65" class="edge">
<title>nasalib/mv_analysis&#45;&gt;nasalib/structures</title>
<path fill="none" stroke="black" d="M117,-549.5C117,-549.5 77,-407.5 77,-407.5"/>
<path fill="none" stroke="black" d="M444.52,-687.57C345.36,-673.74 107,-640.5 107,-640.5 107,-640.5 107,-604.5 107,-604.5 107,-604.5 117,-551.5 117,-551.5"/>
</g>
<!-- nasalib/orders&#45;&gt;lib/finite_sets -->
<g id="edge66" class="edge">
<title>nasalib/orders&#45;&gt;lib/finite_sets</title>
<path fill="none" stroke="black" d="M910.34,-255.73C975.39,-241.99 1134,-208.5 1134,-208.5 1134,-208.5 1150,-191.5 1150,-191.5"/>
<path fill="none" stroke="black" d="M1150,-189.5C1150,-189.5 1150,-119.5 1150,-119.5"/>
</g>
<!-- nasalib/orders&#45;&gt;nasalib/structures -->
<g id="edge67" class="edge">
<title>nasalib/orders&#45;&gt;nasalib/structures</title>
<path fill="none" stroke="black" d="M855.71,-253.9C839.47,-249.37 822,-244.5 822,-244.5 822,-244.5 646.28,-214.06 561.16,-199.32"/>
<polygon fill="black" stroke="black" points="561.96,-195.73 551.51,-197.48 560.76,-202.63 561.96,-195.73"/>
</g>
<!-- nasalib/polygon_merge -->
<g id="node17" class="node">
<title>nasalib/polygon_merge</title>
<polygon fill="#fcfcd7" stroke="black" points="1120.75,-784.5 1019.25,-784.5 1019.25,-748.5 1120.75,-748.5 1120.75,-784.5"/>
<text text-anchor="middle" x="1070" y="-761.45" font-family="Times,serif" font-size="14.00">polygon_merge</text>
</g>
<!-- nasalib/polygon_merge&#45;&gt;lib/finite_sets -->
<g id="edge68" class="edge">
<title>nasalib/polygon_merge&#45;&gt;lib/finite_sets</title>
<path fill="none" stroke="black" d="M1121,-693.5C1121,-693.5 1150,-623.5 1150,-623.5"/>
</g>
<!-- nasalib/polygon_merge&#45;&gt;nasalib/line_segments -->
<g id="edge69" class="edge">
<title>nasalib/polygon_merge&#45;&gt;nasalib/line_segments</title>
<path fill="none" stroke="black" d="M1082.61,-748.2C1097.71,-727.47 1121,-695.5 1121,-695.5"/>
<path fill="none" stroke="black" d="M1121,-693.5C1121,-693.5 1097.72,-668.81 1078.81,-648.75"/>
<polygon fill="black" stroke="black" points="1081.72,-646.68 1072.31,-641.8 1076.63,-651.48 1081.72,-646.68"/>
</g>
<!-- nasalib/polygons -->
<g id="node18" class="node">
<title>nasalib/polygons</title>
<polygon fill="#fcfcd7" stroke="black" points="1021.75,-712.5 956.25,-712.5 956.25,-676.5 1021.75,-676.5 1021.75,-712.5"/>
<text text-anchor="middle" x="989" y="-689.45" font-family="Times,serif" font-size="14.00">polygons</text>
</g>
<!-- nasalib/polygon_merge&#45;&gt;nasalib/polygons -->
<g id="edge70" class="edge">
<title>nasalib/polygon_merge&#45;&gt;nasalib/polygons</title>
<path fill="none" stroke="black" d="M1049.98,-748.2C1040.14,-739.7 1028.13,-729.31 1017.37,-720.01"/>
<polygon fill="black" stroke="black" points="1019.93,-716.74 1010.07,-712.85 1015.35,-722.03 1019.93,-716.74"/>
</g>
<!-- nasalib/polygon_merge&#45;&gt;nasalib/structures -->
<g id="edge71" class="edge">
<title>nasalib/polygon_merge&#45;&gt;nasalib/structures</title>
<path fill="none" stroke="black" d="M1121,-693.5C1121,-693.5 1121,-551.5 1121,-551.5 1121,-551.5 1121,-551.5 1121,-405.5 1121,-405.5 1101,-263.5 1101,-263.5"/>
</g>
<!-- nasalib/polygons&#45;&gt;lib/finite_sets -->
<g id="edge72" class="edge">
<title>nasalib/polygons&#45;&gt;lib/finite_sets</title>
<path fill="none" stroke="black" d="M1021.9,-681.47C1064.68,-665.84 1134,-640.5 1134,-640.5 1134,-640.5 1150,-623.5 1150,-623.5"/>
</g>
<!-- nasalib/polygons&#45;&gt;nasalib/line_segments -->
<g id="edge73" class="edge">
<title>nasalib/polygons&#45;&gt;nasalib/line_segments</title>
<path fill="none" stroke="black" d="M1005.31,-676.2C1013.23,-667.8 1022.88,-657.57 1031.56,-648.36"/>
<polygon fill="black" stroke="black" points="1033.56,-651.28 1037.87,-641.6 1028.47,-646.48 1033.56,-651.28"/>
</g>
<!-- nasalib/polygons&#45;&gt;nasalib/orders -->
<g id="edge74" class="edge">
<title>nasalib/polygons&#45;&gt;nasalib/orders</title>
<path fill="none" stroke="black" d="M989,-676.2C989,-655.47 989,-623.5 989,-623.5"/>
</g>
<!-- nasalib/polygons&#45;&gt;nasalib/vectors -->
<g id="edge75" class="edge">
<title>nasalib/polygons&#45;&gt;nasalib/vectors</title>
<path fill="none" stroke="black" d="M956.04,-677.38C903.59,-651.74 807,-604.5 807,-604.5 807,-604.5 547.93,-570 447.83,-556.67"/>
<polygon fill="black" stroke="black" points="448.36,-553.08 437.99,-555.23 447.44,-560.02 448.36,-553.08"/>
</g>
<!-- nasalib/probability -->
<g id="node19" class="node">
<title>nasalib/probability</title>
<polygon fill="#fcfcd7" stroke="black" points="631.62,-784.5 556.38,-784.5 556.38,-748.5 631.62,-748.5 631.62,-784.5"/>
<text text-anchor="middle" x="594" y="-761.45" font-family="Times,serif" font-size="14.00">probability</text>
</g>
<!-- nasalib/probability&#45;&gt;nasalib/analysis -->
<g id="edge76" class="edge">
<title>nasalib/probability&#45;&gt;nasalib/analysis</title>
<path fill="none" stroke="black" d="M77,-693.5C77,-693.5 219,-640.5 219,-640.5 219,-640.5 281,-532.5 281,-532.5 281,-532.5 332,-460.5 332,-460.5 332,-460.5 417,-388.5 417,-388.5 417,-388.5 467.69,-367.51 505.27,-351.95"/>
<polygon fill="black" stroke="black" points="506.09,-354.99 513.99,-347.93 503.41,-348.52 506.09,-354.99"/>
</g>
<!-- nasalib/probability&#45;&gt;nasalib/measure_integration -->
<g id="edge77" class="edge">
<title>nasalib/probability&#45;&gt;nasalib/measure_integration</title>
<path fill="none" stroke="black" d="M632.06,-753.06C639.99,-750.46 646,-748.5 646,-748.5 646,-748.5 708.74,-730.81 761.73,-715.87"/>
<polygon fill="black" stroke="black" points="762.51,-719.01 771.18,-712.93 760.61,-712.27 762.51,-719.01"/>
</g>
<!-- nasalib/probability&#45;&gt;nasalib/metric_space -->
<g id="edge78" class="edge">
<title>nasalib/probability&#45;&gt;nasalib/metric_space</title>
<path fill="none" stroke="black" d="M611.74,-748.34C638.47,-722.48 686,-676.5 686,-676.5 686,-676.5 705.13,-661.59 723.1,-647.59"/>
<polygon fill="black" stroke="black" points="725,-649.76 730.73,-640.85 720.7,-644.24 725,-649.76"/>
</g>
<!-- nasalib/probability&#45;&gt;nasalib/reals -->
<g id="edge79" class="edge">
<title>nasalib/probability&#45;&gt;nasalib/reals</title>
<path fill="none" stroke="black" d="M77,-693.5C77,-693.5 112,-532.5 112,-532.5 112,-532.5 135,-460.5 135,-460.5 135,-460.5 163,-388.5 163,-388.5 163,-388.5 202,-335.5 202,-335.5"/>
<path fill="none" stroke="black" d="M202,-333.5C202,-333.5 342.51,-293.84 412,-274.23"/>
<polygon fill="black" stroke="black" points="412.84,-277.34 421.51,-271.26 410.94,-270.61 412.84,-277.34"/>
</g>
<!-- nasalib/probability&#45;&gt;nasalib/structures -->
<g id="edge80" class="edge">
<title>nasalib/probability&#45;&gt;nasalib/structures</title>
<path fill="none" stroke="black" d="M222,-261.5C222,-261.5 462,-208.5 462,-208.5 462,-208.5 465.66,-207.35 471.07,-205.64"/>
<polygon fill="black" stroke="black" points="472.01,-208.7 480.5,-202.36 469.91,-202.03 472.01,-208.7"/>
<path fill="none" stroke="black" d="M77,-405.5C77,-405.5 92,-316.5 92,-316.5 92,-316.5 222,-263.5 222,-263.5"/>
<path fill="none" stroke="black" d="M77,-693.5C77,-693.5 52,-496.5 52,-496.5 52,-496.5 52,-460.5 52,-460.5 52,-460.5 77,-407.5 77,-407.5"/>
<path fill="none" stroke="black" d="M555.98,-760.35C436.59,-744.19 77,-695.5 77,-695.5"/>
</g>
<!-- nasalib/reals&#45;&gt;nasalib/ints -->
<g id="edge81" class="edge">
<title>nasalib/reals&#45;&gt;nasalib/ints</title>
<path fill="none" stroke="black" d="M451.73,-244.2C453.8,-223.47 457,-191.5 457,-191.5"/>
</g>
<!-- nasalib/reals&#45;&gt;nasalib/structures -->
<g id="edge82" class="edge">
<title>nasalib/reals&#45;&gt;nasalib/structures</title>
<path fill="none" stroke="black" d="M466.31,-244.2C474.23,-235.8 483.88,-225.57 492.56,-216.36"/>
<polygon fill="black" stroke="black" points="494.56,-219.28 498.87,-209.6 489.47,-214.48 494.56,-219.28"/>
</g>
<!-- nasalib/series&#45;&gt;nasalib/analysis -->
<g id="edge83" class="edge">
<title>nasalib/series&#45;&gt;nasalib/analysis</title>
<path fill="none" stroke="black" d="M749.88,-394.26C742.26,-391.09 736,-388.5 736,-388.5 736,-388.5 641.18,-362.19 585.16,-346.64"/>
<polygon fill="black" stroke="black" points="586.42,-343.08 575.84,-343.78 584.54,-349.83 586.42,-343.08"/>
</g>
<!-- nasalib/series&#45;&gt;nasalib/ints -->
<g id="edge84" class="edge">
<title>nasalib/series&#45;&gt;nasalib/ints</title>
<path fill="none" stroke="black" d="M783.26,-388.12C795.62,-353.77 822,-280.5 822,-280.5 822,-280.5 822,-244.5 822,-244.5 822,-244.5 634.88,-168.06 553.29,-134.73"/>
<polygon fill="black" stroke="black" points="555.01,-131.24 544.42,-130.7 552.36,-137.72 555.01,-131.24"/>
</g>
<!-- nasalib/series&#45;&gt;nasalib/orders -->
<g id="edge85" class="edge">
<title>nasalib/series&#45;&gt;nasalib/orders</title>
<path fill="none" stroke="black" d="M803.47,-388.02C834.87,-367.28 883,-335.5 883,-335.5"/>
<path fill="none" stroke="black" d="M883,-333.5C883,-333.5 883,-311.16 883,-291.72"/>
<polygon fill="black" stroke="black" points="886.5,-291.8 883,-281.8 879.5,-291.8 886.5,-291.8"/>
</g>
<!-- nasalib/series&#45;&gt;nasalib/reals -->
<g id="edge86" class="edge">
<title>nasalib/series&#45;&gt;nasalib/reals</title>
<path fill="none" stroke="black" d="M749.76,-392.94C696.56,-368.4 584,-316.5 584,-316.5 584,-316.5 527.24,-294.05 487.6,-278.37"/>
<polygon fill="black" stroke="black" points="489.03,-274.78 478.44,-274.35 486.45,-281.29 489.03,-274.78"/>
</g>
<!-- nasalib/shapes&#45;&gt;nasalib/reals -->
<g id="edge87" class="edge">
<title>nasalib/shapes&#45;&gt;nasalib/reals</title>
<path fill="none" stroke="black" d="M362,-549.5C362,-549.5 416,-335.5 416,-335.5"/>
<path fill="none" stroke="black" d="M376.3,-604.2C370.68,-583.47 362,-551.5 362,-551.5"/>
</g>
<!-- nasalib/shapes&#45;&gt;nasalib/structures -->
<g id="edge88" class="edge">
<title>nasalib/shapes&#45;&gt;nasalib/structures</title>
<path fill="none" stroke="black" d="M372.86,-604.26C344.83,-544.89 254,-352.5 254,-352.5 254,-352.5 222,-263.5 222,-263.5"/>
</g>
<!-- nasalib/shapes&#45;&gt;nasalib/trig -->
<g id="edge89" class="edge">
<title>nasalib/shapes&#45;&gt;nasalib/trig</title>
<path fill="none" stroke="black" d="M362,-549.5C362,-549.5 372,-532.5 372,-532.5 372,-532.5 388.02,-517.86 403.22,-503.97"/>
<polygon fill="black" stroke="black" points="404.99,-507.18 410.01,-497.85 400.27,-502.02 404.99,-507.18"/>
</g>
<!-- nasalib/shapes&#45;&gt;nasalib/vectors -->
<g id="edge90" class="edge">
<title>nasalib/shapes&#45;&gt;nasalib/vectors</title>
<path fill="none" stroke="black" d="M387.92,-604.2C391.01,-596.48 394.72,-587.21 398.16,-578.61"/>
<polygon fill="black" stroke="black" points="401.69,-580.19 402.16,-569.6 395.19,-577.59 401.69,-580.19"/>
</g>
<!-- nasalib/structures&#45;&gt;lib/finite_sets -->
<g id="edge91" class="edge">
<title>nasalib/structures&#45;&gt;lib/finite_sets</title>
<path fill="none" stroke="black" d="M550.54,-185.69C682.84,-171.08 1150,-119.5 1150,-119.5"/>
<path fill="none" stroke="black" d="M1150,-117.5C1150,-117.5 942.51,-68.45 847.5,-45.99"/>
<polygon fill="black" stroke="black" points="848.57,-42.41 838.03,-43.52 846.96,-49.22 848.57,-42.41"/>
</g>
<!-- nasalib/structures&#45;&gt;nasalib/ints -->
<g id="edge92" class="edge">
<title>nasalib/structures&#45;&gt;nasalib/ints</title>
<path fill="none" stroke="black" d="M516,-172.2C516,-164.74 516,-155.82 516,-147.47"/>
<polygon fill="black" stroke="black" points="519.5,-147.6 516,-137.6 512.5,-147.6 519.5,-147.6"/>
</g>
<!-- nasalib/trig&#45;&gt;nasalib/analysis -->
<g id="edge93" class="edge">
<title>nasalib/trig&#45;&gt;nasalib/analysis</title>
<path fill="none" stroke="black" d="M446.7,-460.15C461.57,-444.69 481,-424.5 481,-424.5 481,-424.5 507.46,-387.71 526.35,-361.44"/>
<polygon fill="black" stroke="black" points="529.66,-363.82 532.66,-353.66 523.98,-359.74 529.66,-363.82"/>
</g>
<!-- nasalib/trig&#45;&gt;nasalib/ints -->
<g id="edge94" class="edge">
<title>nasalib/trig&#45;&gt;nasalib/ints</title>
<path fill="none" stroke="black" d="M402.82,-462.92C341.35,-429.94 197,-352.5 197,-352.5 197,-352.5 197,-316.5 197,-316.5 197,-316.5 217,-244.5 217,-244.5 217,-244.5 457,-191.5 457,-191.5"/>
<path fill="none" stroke="black" d="M457,-189.5C457,-189.5 477.63,-165.02 494.49,-145.02"/>
<polygon fill="black" stroke="black" points="497.65,-147.71 501.42,-137.8 492.29,-143.19 497.65,-147.71"/>
</g>
<!-- nasalib/trig&#45;&gt;nasalib/reals -->
<g id="edge95" class="edge">
<title>nasalib/trig&#45;&gt;nasalib/reals</title>
<path fill="none" stroke="black" d="M426.54,-460.2C422.39,-439.47 416,-407.5 416,-407.5"/>
</g>
<!-- nasalib/trig&#45;&gt;nasalib/series -->
<g id="edge96" class="edge">
<title>nasalib/trig&#45;&gt;nasalib/series</title>
<path fill="none" stroke="black" d="M457.29,-469.9C473.53,-465.37 491,-460.5 491,-460.5 491,-460.5 660.87,-429.02 738.78,-414.58"/>
<polygon fill="black" stroke="black" points="739.38,-417.85 748.58,-412.58 738.11,-410.96 739.38,-417.85"/>
</g>
<!-- nasalib/vect_analysis&#45;&gt;nasalib/analysis -->
<g id="edge97" class="edge">
<title>nasalib/vect_analysis&#45;&gt;nasalib/analysis</title>
<path fill="none" stroke="black" d="M498.82,-604.35C524.92,-553.57 600,-407.5 600,-407.5"/>
<path fill="none" stroke="black" d="M600,-405.5C600,-405.5 580.94,-381.24 565.26,-361.29"/>
<polygon fill="black" stroke="black" points="567.53,-359.5 558.6,-353.8 562.02,-363.83 567.53,-359.5"/>
</g>
<!-- nasalib/vect_analysis&#45;&gt;nasalib/reals -->
<g id="edge98" class="edge">
<title>nasalib/vect_analysis&#45;&gt;nasalib/reals</title>
<path fill="none" stroke="black" d="M456,-405.5C456,-405.5 416,-335.5 416,-335.5"/>
<path fill="none" stroke="black" d="M487.43,-604.27C481.24,-562.74 466,-460.5 466,-460.5 466,-460.5 456,-407.5 456,-407.5"/>
</g>
<!-- nasalib/vect_analysis&#45;&gt;nasalib/vectors -->
<g id="edge99" class="edge">
<title>nasalib/vect_analysis&#45;&gt;nasalib/vectors</title>
<path fill="none" stroke="black" d="M469.98,-604.2C460.14,-595.7 448.13,-585.31 437.37,-576.01"/>
<polygon fill="black" stroke="black" points="439.93,-572.74 430.07,-568.85 435.35,-578.03 439.93,-572.74"/>
</g>
<!-- nasalib/vectors&#45;&gt;nasalib/reals -->
<g id="edge100" class="edge">
<title>nasalib/vectors&#45;&gt;nasalib/reals</title>
<path fill="none" stroke="black" d="M416,-405.5C416,-405.5 416,-335.5 416,-335.5"/>
<path fill="none" stroke="black" d="M404.09,-532.15C399.71,-516.69 394,-496.5 394,-496.5 394,-496.5 394,-460.5 394,-460.5 394,-460.5 416,-407.5 416,-407.5"/>
</g>
<!-- nasalib/vectors&#45;&gt;nasalib/structures -->
<g id="edge101" class="edge">
<title>nasalib/vectors&#45;&gt;nasalib/structures</title>
<path fill="none" stroke="black" d="M397.58,-532.04C356.98,-469.95 222,-263.5 222,-263.5"/>
</g>
<!-- nasalib/vectors&#45;&gt;nasalib/trig -->
<g id="edge102" class="edge">
<title>nasalib/vectors&#45;&gt;nasalib/trig</title>
<path fill="none" stroke="black" d="M414.19,-532.2C416.48,-524.57 419.23,-515.42 421.78,-506.9"/>
<polygon fill="black" stroke="black" points="425.35,-508.19 424.87,-497.6 418.64,-506.18 425.35,-508.19"/>
</g>
</g>
</svg>
