<?xml version="1.0" encoding="UTF-8" standalone="no"?>
<!DOCTYPE svg PUBLIC "-//W3C//DTD SVG 1.1//EN"
 "http://www.w3.org/Graphics/SVG/1.1/DTD/svg11.dtd">
<!-- Generated by graphviz version 2.40.1 (20161225.0304)
 -->
<!-- Title: digraphs Pages: 1 -->
<svg width="222pt" height="468pt"
 viewBox="0.00 0.00 222.00 468.00" xmlns="http://www.w3.org/2000/svg" xmlns:xlink="http://www.w3.org/1999/xlink">
<g id="graph0" class="graph" transform="scale(1 1) rotate(0) translate(4 464)">
<title>digraphs</title>
<polygon fill="#ffffff" stroke="transparent" points="-4,4 -4,-464 218,-464 218,4 -4,4"/>
<g id="clust1" class="cluster">
<title>cluster_NASALib</title>
<polygon fill="none" stroke="#000000" points="8,-90 8,-452 206,-452 206,-90 8,-90"/>
<text text-anchor="middle" x="107" y="-436.8" font-family="Times,serif" font-size="14.00" fill="#000000">NASALib</text>
</g>
<g id="clust2" class="cluster">
<title>cluster_PVS Prelude</title>
<polygon fill="none" stroke="#000000" points="72,-8 72,-82 160,-82 160,-8 72,-8"/>
<text text-anchor="middle" x="116" y="-66.8" font-family="Times,serif" font-size="14.00" fill="#000000">PVS Prelude</text>
</g>
<!-- /Users/mmoscato/Workspace/Workbench/pvs/dependency&#45;all/Users/mmoscato/pvs/pvs/lib/finite_sets -->
<g id="node1" class="node">
<title>/Users/mmoscato/Workspace/Workbench/pvs/dependency&#45;all/Users/mmoscato/pvs/pvs/lib/finite_sets</title>
<polygon fill="#fcfcd7" stroke="#000000" points="152.2796,-52 79.7204,-52 79.7204,-16 152.2796,-16 152.2796,-52"/>
<text text-anchor="middle" x="116" y="-29.8" font-family="Times,serif" font-size="14.00" fill="#000000">finite_sets</text>
</g>
<!-- /Users/mmoscato/Workspace/Workbench/pvs/dependency&#45;all/Users/mmoscato/pvs/pvs/nasalib/CCG -->
<g id="node2" class="node">
<title>/Users/mmoscato/Workspace/Workbench/pvs/dependency&#45;all/Users/mmoscato/pvs/pvs/nasalib/CCG</title>
<polygon fill="#fcfcd7" stroke="#000000" points="90,-350 36,-350 36,-314 90,-314 90,-350"/>
<text text-anchor="middle" x="63" y="-327.8" font-family="Times,serif" font-size="14.00" fill="#000000">CCG</text>
</g>
<!-- /Users/mmoscato/Workspace/Workbench/pvs/dependency&#45;all/Users/mmoscato/pvs/pvs/nasalib/CCG&#45;&gt;/Users/mmoscato/Workspace/Workbench/pvs/dependency&#45;all/Users/mmoscato/pvs/pvs/lib/finite_sets -->
<g id="edge1" class="edge">
<title>/Users/mmoscato/Workspace/Workbench/pvs/dependency&#45;all/Users/mmoscato/pvs/pvs/nasalib/CCG&#45;&gt;/Users/mmoscato/Workspace/Workbench/pvs/dependency&#45;all/Users/mmoscato/pvs/pvs/lib/finite_sets</title>
<path fill="none" stroke="#000000" d="M90.2191,-326C108.0503,-326 128.0713,-326 128.0713,-326 128.0713,-326 128.0713,-62.2659 128.0713,-62.2659"/>
<polygon fill="#000000" stroke="#000000" points="131.5714,-62.2659 128.0713,-52.2659 124.5714,-62.2659 131.5714,-62.2659"/>
</g>
<!-- /Users/mmoscato/Workspace/Workbench/pvs/dependency&#45;all/Users/mmoscato/pvs/pvs/nasalib/digraphs -->
<g id="node4" class="node">
<title>/Users/mmoscato/Workspace/Workbench/pvs/dependency&#45;all/Users/mmoscato/pvs/pvs/nasalib/digraphs</title>
<polygon fill="#f7e28d" stroke="#000000" points="120.2142,-278 55.7858,-278 55.7858,-242 120.2142,-242 120.2142,-278"/>
<text text-anchor="middle" x="88" y="-255.8" font-family="Times,serif" font-size="14.00" fill="#000000">digraphs</text>
</g>
<!-- /Users/mmoscato/Workspace/Workbench/pvs/dependency&#45;all/Users/mmoscato/pvs/pvs/nasalib/CCG&#45;&gt;/Users/mmoscato/Workspace/Workbench/pvs/dependency&#45;all/Users/mmoscato/pvs/pvs/nasalib/digraphs -->
<g id="edge2" class="edge">
<title>/Users/mmoscato/Workspace/Workbench/pvs/dependency&#45;all/Users/mmoscato/pvs/pvs/nasalib/CCG&#45;&gt;/Users/mmoscato/Workspace/Workbench/pvs/dependency&#45;all/Users/mmoscato/pvs/pvs/nasalib/digraphs</title>
<path fill="none" stroke="#000000" d="M72.9465,-313.8314C72.9465,-313.8314 72.9465,-288.4133 72.9465,-288.4133"/>
<polygon fill="#000000" stroke="#000000" points="76.4466,-288.4132 72.9465,-278.4133 69.4466,-288.4133 76.4466,-288.4132"/>
</g>
<!-- /Users/mmoscato/Workspace/Workbench/pvs/dependency&#45;all/Users/mmoscato/pvs/pvs/nasalib/ints -->
<g id="node5" class="node">
<title>/Users/mmoscato/Workspace/Workbench/pvs/dependency&#45;all/Users/mmoscato/pvs/pvs/nasalib/ints</title>
<polygon fill="#fcfcd7" stroke="#000000" points="98,-134 44,-134 44,-98 98,-98 98,-134"/>
<text text-anchor="middle" x="71" y="-111.8" font-family="Times,serif" font-size="14.00" fill="#000000">ints</text>
</g>
<!-- /Users/mmoscato/Workspace/Workbench/pvs/dependency&#45;all/Users/mmoscato/pvs/pvs/nasalib/CCG&#45;&gt;/Users/mmoscato/Workspace/Workbench/pvs/dependency&#45;all/Users/mmoscato/pvs/pvs/nasalib/ints -->
<g id="edge3" class="edge">
<title>/Users/mmoscato/Workspace/Workbench/pvs/dependency&#45;all/Users/mmoscato/pvs/pvs/nasalib/CCG&#45;&gt;/Users/mmoscato/Workspace/Workbench/pvs/dependency&#45;all/Users/mmoscato/pvs/pvs/nasalib/ints</title>
<path fill="none" stroke="#000000" d="M35.9244,-332C30.6851,-332 26.7861,-332 26.7861,-332 26.7861,-332 26.7861,-122 26.7861,-122 26.7861,-122 33.7539,-122 33.7539,-122"/>
<polygon fill="#000000" stroke="#000000" points="33.754,-125.5001 43.7539,-122 33.7539,-118.5001 33.754,-125.5001"/>
</g>
<!-- /Users/mmoscato/Workspace/Workbench/pvs/dependency&#45;all/Users/mmoscato/pvs/pvs/nasalib/orders -->
<g id="node6" class="node">
<title>/Users/mmoscato/Workspace/Workbench/pvs/dependency&#45;all/Users/mmoscato/pvs/pvs/nasalib/orders</title>
<polygon fill="#fcfcd7" stroke="#000000" points="198,-206 144,-206 144,-170 198,-170 198,-206"/>
<text text-anchor="middle" x="171" y="-183.8" font-family="Times,serif" font-size="14.00" fill="#000000">orders</text>
</g>
<!-- /Users/mmoscato/Workspace/Workbench/pvs/dependency&#45;all/Users/mmoscato/pvs/pvs/nasalib/CCG&#45;&gt;/Users/mmoscato/Workspace/Workbench/pvs/dependency&#45;all/Users/mmoscato/pvs/pvs/nasalib/orders -->
<g id="edge4" class="edge">
<title>/Users/mmoscato/Workspace/Workbench/pvs/dependency&#45;all/Users/mmoscato/pvs/pvs/nasalib/CCG&#45;&gt;/Users/mmoscato/Workspace/Workbench/pvs/dependency&#45;all/Users/mmoscato/pvs/pvs/nasalib/orders</title>
<path fill="none" stroke="#000000" d="M90.0522,-338C119.3643,-338 162,-338 162,-338 162,-338 162,-216.0935 162,-216.0935"/>
<polygon fill="#000000" stroke="#000000" points="165.5001,-216.0935 162,-206.0935 158.5001,-216.0935 165.5001,-216.0935"/>
</g>
<!-- /Users/mmoscato/Workspace/Workbench/pvs/dependency&#45;all/Users/mmoscato/pvs/pvs/nasalib/structures -->
<g id="node7" class="node">
<title>/Users/mmoscato/Workspace/Workbench/pvs/dependency&#45;all/Users/mmoscato/pvs/pvs/nasalib/structures</title>
<polygon fill="#fcfcd7" stroke="#000000" points="106.429,-206 35.571,-206 35.571,-170 106.429,-170 106.429,-206"/>
<text text-anchor="middle" x="71" y="-183.8" font-family="Times,serif" font-size="14.00" fill="#000000">structures</text>
</g>
<!-- /Users/mmoscato/Workspace/Workbench/pvs/dependency&#45;all/Users/mmoscato/pvs/pvs/nasalib/CCG&#45;&gt;/Users/mmoscato/Workspace/Workbench/pvs/dependency&#45;all/Users/mmoscato/pvs/pvs/nasalib/structures -->
<g id="edge5" class="edge">
<title>/Users/mmoscato/Workspace/Workbench/pvs/dependency&#45;all/Users/mmoscato/pvs/pvs/nasalib/CCG&#45;&gt;/Users/mmoscato/Workspace/Workbench/pvs/dependency&#45;all/Users/mmoscato/pvs/pvs/nasalib/structures</title>
<path fill="none" stroke="#000000" d="M45.9465,-313.7623C45.9465,-313.7623 45.9465,-216.0896 45.9465,-216.0896"/>
<polygon fill="#000000" stroke="#000000" points="49.4466,-216.0896 45.9465,-206.0896 42.4466,-216.0897 49.4466,-216.0896"/>
</g>
<!-- /Users/mmoscato/Workspace/Workbench/pvs/dependency&#45;all/Users/mmoscato/pvs/pvs/nasalib/PVS0 -->
<g id="node3" class="node">
<title>/Users/mmoscato/Workspace/Workbench/pvs/dependency&#45;all/Users/mmoscato/pvs/pvs/nasalib/PVS0</title>
<polygon fill="#fcfcd7" stroke="#000000" points="90,-422 36,-422 36,-386 90,-386 90,-422"/>
<text text-anchor="middle" x="63" y="-399.8" font-family="Times,serif" font-size="14.00" fill="#000000">PVS0</text>
</g>
<!-- /Users/mmoscato/Workspace/Workbench/pvs/dependency&#45;all/Users/mmoscato/pvs/pvs/nasalib/PVS0&#45;&gt;/Users/mmoscato/Workspace/Workbench/pvs/dependency&#45;all/Users/mmoscato/pvs/pvs/lib/finite_sets -->
<g id="edge6" class="edge">
<title>/Users/mmoscato/Workspace/Workbench/pvs/dependency&#45;all/Users/mmoscato/pvs/pvs/nasalib/PVS0&#45;&gt;/Users/mmoscato/Workspace/Workbench/pvs/dependency&#45;all/Users/mmoscato/pvs/pvs/lib/finite_sets</title>
<path fill="none" stroke="#000000" d="M90.1958,-404C110.9608,-404 136.0356,-404 136.0356,-404 136.0356,-404 136.0356,-62.0963 136.0356,-62.0963"/>
<polygon fill="#000000" stroke="#000000" points="139.5357,-62.0963 136.0356,-52.0963 132.5357,-62.0964 139.5357,-62.0963"/>
</g>
<!-- /Users/mmoscato/Workspace/Workbench/pvs/dependency&#45;all/Users/mmoscato/pvs/pvs/nasalib/PVS0&#45;&gt;/Users/mmoscato/Workspace/Workbench/pvs/dependency&#45;all/Users/mmoscato/pvs/pvs/nasalib/CCG -->
<g id="edge7" class="edge">
<title>/Users/mmoscato/Workspace/Workbench/pvs/dependency&#45;all/Users/mmoscato/pvs/pvs/nasalib/PVS0&#45;&gt;/Users/mmoscato/Workspace/Workbench/pvs/dependency&#45;all/Users/mmoscato/pvs/pvs/nasalib/CCG</title>
<path fill="none" stroke="#000000" d="M63,-385.8314C63,-385.8314 63,-360.4133 63,-360.4133"/>
<polygon fill="#000000" stroke="#000000" points="66.5001,-360.4132 63,-350.4133 59.5001,-360.4133 66.5001,-360.4132"/>
</g>
<!-- /Users/mmoscato/Workspace/Workbench/pvs/dependency&#45;all/Users/mmoscato/pvs/pvs/nasalib/PVS0&#45;&gt;/Users/mmoscato/Workspace/Workbench/pvs/dependency&#45;all/Users/mmoscato/pvs/pvs/nasalib/digraphs -->
<g id="edge8" class="edge">
<title>/Users/mmoscato/Workspace/Workbench/pvs/dependency&#45;all/Users/mmoscato/pvs/pvs/nasalib/PVS0&#45;&gt;/Users/mmoscato/Workspace/Workbench/pvs/dependency&#45;all/Users/mmoscato/pvs/pvs/nasalib/digraphs</title>
<path fill="none" stroke="#000000" d="M90.3452,-395C98.3774,-395 105.0535,-395 105.0535,-395 105.0535,-395 105.0535,-288.2067 105.0535,-288.2067"/>
<polygon fill="#000000" stroke="#000000" points="108.5536,-288.2067 105.0535,-278.2067 101.5536,-288.2067 108.5536,-288.2067"/>
</g>
<!-- /Users/mmoscato/Workspace/Workbench/pvs/dependency&#45;all/Users/mmoscato/pvs/pvs/nasalib/PVS0&#45;&gt;/Users/mmoscato/Workspace/Workbench/pvs/dependency&#45;all/Users/mmoscato/pvs/pvs/nasalib/ints -->
<g id="edge9" class="edge">
<title>/Users/mmoscato/Workspace/Workbench/pvs/dependency&#45;all/Users/mmoscato/pvs/pvs/nasalib/PVS0&#45;&gt;/Users/mmoscato/Workspace/Workbench/pvs/dependency&#45;all/Users/mmoscato/pvs/pvs/nasalib/ints</title>
<path fill="none" stroke="#000000" d="M35.8931,-410C22.3396,-410 8.7861,-410 8.7861,-410 8.7861,-410 8.7861,-110 8.7861,-110 8.7861,-110 33.8931,-110 33.8931,-110"/>
<polygon fill="#000000" stroke="#000000" points="33.8931,-113.5001 43.8931,-110 33.893,-106.5001 33.8931,-113.5001"/>
</g>
<!-- /Users/mmoscato/Workspace/Workbench/pvs/dependency&#45;all/Users/mmoscato/pvs/pvs/nasalib/PVS0&#45;&gt;/Users/mmoscato/Workspace/Workbench/pvs/dependency&#45;all/Users/mmoscato/pvs/pvs/nasalib/orders -->
<g id="edge10" class="edge">
<title>/Users/mmoscato/Workspace/Workbench/pvs/dependency&#45;all/Users/mmoscato/pvs/pvs/nasalib/PVS0&#45;&gt;/Users/mmoscato/Workspace/Workbench/pvs/dependency&#45;all/Users/mmoscato/pvs/pvs/nasalib/orders</title>
<path fill="none" stroke="#000000" d="M90.1362,-413C124.6992,-413 180,-413 180,-413 180,-413 180,-216.0324 180,-216.0324"/>
<polygon fill="#000000" stroke="#000000" points="183.5001,-216.0323 180,-206.0324 176.5001,-216.0324 183.5001,-216.0323"/>
</g>
<!-- /Users/mmoscato/Workspace/Workbench/pvs/dependency&#45;all/Users/mmoscato/pvs/pvs/nasalib/PVS0&#45;&gt;/Users/mmoscato/Workspace/Workbench/pvs/dependency&#45;all/Users/mmoscato/pvs/pvs/nasalib/structures -->
<g id="edge11" class="edge">
<title>/Users/mmoscato/Workspace/Workbench/pvs/dependency&#45;all/Users/mmoscato/pvs/pvs/nasalib/PVS0&#45;&gt;/Users/mmoscato/Workspace/Workbench/pvs/dependency&#45;all/Users/mmoscato/pvs/pvs/nasalib/structures</title>
<path fill="none" stroke="#000000" d="M35.9158,-398C26.2865,-398 17.7861,-398 17.7861,-398 17.7861,-398 17.7861,-188 17.7861,-188 17.7861,-188 25.5056,-188 25.5056,-188"/>
<polygon fill="#000000" stroke="#000000" points="25.5056,-191.5001 35.5056,-188 25.5055,-184.5001 25.5056,-191.5001"/>
</g>
<!-- /Users/mmoscato/Workspace/Workbench/pvs/dependency&#45;all/Users/mmoscato/pvs/pvs/nasalib/digraphs&#45;&gt;/Users/mmoscato/Workspace/Workbench/pvs/dependency&#45;all/Users/mmoscato/pvs/pvs/lib/finite_sets -->
<g id="edge12" class="edge">
<title>/Users/mmoscato/Workspace/Workbench/pvs/dependency&#45;all/Users/mmoscato/pvs/pvs/nasalib/digraphs&#45;&gt;/Users/mmoscato/Workspace/Workbench/pvs/dependency&#45;all/Users/mmoscato/pvs/pvs/lib/finite_sets</title>
<path fill="none" stroke="#000000" d="M113.1604,-241.8875C113.1604,-241.8875 113.1604,-62.1988 113.1604,-62.1988"/>
<polygon fill="#000000" stroke="#000000" points="116.6605,-62.1987 113.1604,-52.1988 109.6605,-62.1988 116.6605,-62.1987"/>
</g>
<!-- /Users/mmoscato/Workspace/Workbench/pvs/dependency&#45;all/Users/mmoscato/pvs/pvs/nasalib/digraphs&#45;&gt;/Users/mmoscato/Workspace/Workbench/pvs/dependency&#45;all/Users/mmoscato/pvs/pvs/nasalib/ints -->
<g id="edge13" class="edge">
<title>/Users/mmoscato/Workspace/Workbench/pvs/dependency&#45;all/Users/mmoscato/pvs/pvs/nasalib/digraphs&#45;&gt;/Users/mmoscato/Workspace/Workbench/pvs/dependency&#45;all/Users/mmoscato/pvs/pvs/nasalib/ints</title>
<path fill="none" stroke="#000000" d="M109.6871,-241.7623C109.6871,-203.0139 109.6871,-116 109.6871,-116 109.6871,-116 108.289,-116 108.289,-116"/>
<polygon fill="#000000" stroke="#000000" points="108.289,-112.5001 98.289,-116 108.2889,-119.5001 108.289,-112.5001"/>
</g>
<!-- /Users/mmoscato/Workspace/Workbench/pvs/dependency&#45;all/Users/mmoscato/pvs/pvs/nasalib/digraphs&#45;&gt;/Users/mmoscato/Workspace/Workbench/pvs/dependency&#45;all/Users/mmoscato/pvs/pvs/nasalib/orders -->
<g id="edge14" class="edge">
<title>/Users/mmoscato/Workspace/Workbench/pvs/dependency&#45;all/Users/mmoscato/pvs/pvs/nasalib/digraphs&#45;&gt;/Users/mmoscato/Workspace/Workbench/pvs/dependency&#45;all/Users/mmoscato/pvs/pvs/nasalib/orders</title>
<path fill="none" stroke="#000000" d="M116.6337,-241.8314C116.6337,-220.502 116.6337,-188 116.6337,-188 116.6337,-188 133.8168,-188 133.8168,-188"/>
<polygon fill="#000000" stroke="#000000" points="133.8169,-191.5001 143.8168,-188 133.8168,-184.5001 133.8169,-191.5001"/>
</g>
<!-- /Users/mmoscato/Workspace/Workbench/pvs/dependency&#45;all/Users/mmoscato/pvs/pvs/nasalib/digraphs&#45;&gt;/Users/mmoscato/Workspace/Workbench/pvs/dependency&#45;all/Users/mmoscato/pvs/pvs/nasalib/structures -->
<g id="edge15" class="edge">
<title>/Users/mmoscato/Workspace/Workbench/pvs/dependency&#45;all/Users/mmoscato/pvs/pvs/nasalib/digraphs&#45;&gt;/Users/mmoscato/Workspace/Workbench/pvs/dependency&#45;all/Users/mmoscato/pvs/pvs/nasalib/structures</title>
<path fill="none" stroke="#000000" d="M81.0535,-241.8314C81.0535,-241.8314 81.0535,-216.4133 81.0535,-216.4133"/>
<polygon fill="#000000" stroke="#000000" points="84.5536,-216.4132 81.0535,-206.4133 77.5536,-216.4133 84.5536,-216.4132"/>
</g>
<!-- /Users/mmoscato/Workspace/Workbench/pvs/dependency&#45;all/Users/mmoscato/pvs/pvs/nasalib/ints&#45;&gt;/Users/mmoscato/Workspace/Workbench/pvs/dependency&#45;all/Users/mmoscato/pvs/pvs/lib/finite_sets -->
<g id="edge16" class="edge">
<title>/Users/mmoscato/Workspace/Workbench/pvs/dependency&#45;all/Users/mmoscato/pvs/pvs/nasalib/ints&#45;&gt;/Users/mmoscato/Workspace/Workbench/pvs/dependency&#45;all/Users/mmoscato/pvs/pvs/lib/finite_sets</title>
<path fill="none" stroke="#000000" d="M88.8052,-97.8015C88.8052,-97.8015 88.8052,-62.1476 88.8052,-62.1476"/>
<polygon fill="#000000" stroke="#000000" points="92.3053,-62.1476 88.8052,-52.1476 85.3053,-62.1476 92.3053,-62.1476"/>
</g>
<!-- /Users/mmoscato/Workspace/Workbench/pvs/dependency&#45;all/Users/mmoscato/pvs/pvs/nasalib/orders&#45;&gt;/Users/mmoscato/Workspace/Workbench/pvs/dependency&#45;all/Users/mmoscato/pvs/pvs/lib/finite_sets -->
<g id="edge17" class="edge">
<title>/Users/mmoscato/Workspace/Workbench/pvs/dependency&#45;all/Users/mmoscato/pvs/pvs/nasalib/orders&#45;&gt;/Users/mmoscato/Workspace/Workbench/pvs/dependency&#45;all/Users/mmoscato/pvs/pvs/lib/finite_sets</title>
<path fill="none" stroke="#000000" d="M148.1948,-169.7294C148.1948,-169.7294 148.1948,-62.2468 148.1948,-62.2468"/>
<polygon fill="#000000" stroke="#000000" points="151.6949,-62.2468 148.1948,-52.2468 144.6949,-62.2468 151.6949,-62.2468"/>
</g>
<!-- /Users/mmoscato/Workspace/Workbench/pvs/dependency&#45;all/Users/mmoscato/pvs/pvs/nasalib/structures&#45;&gt;/Users/mmoscato/Workspace/Workbench/pvs/dependency&#45;all/Users/mmoscato/pvs/pvs/lib/finite_sets -->
<g id="edge18" class="edge">
<title>/Users/mmoscato/Workspace/Workbench/pvs/dependency&#45;all/Users/mmoscato/pvs/pvs/nasalib/structures&#45;&gt;/Users/mmoscato/Workspace/Workbench/pvs/dependency&#45;all/Users/mmoscato/pvs/pvs/lib/finite_sets</title>
<path fill="none" stroke="#000000" d="M102.1069,-169.7294C102.1069,-169.7294 102.1069,-62.2468 102.1069,-62.2468"/>
<polygon fill="#000000" stroke="#000000" points="105.607,-62.2468 102.1069,-52.2468 98.607,-62.2468 105.607,-62.2468"/>
</g>
<!-- /Users/mmoscato/Workspace/Workbench/pvs/dependency&#45;all/Users/mmoscato/pvs/pvs/nasalib/structures&#45;&gt;/Users/mmoscato/Workspace/Workbench/pvs/dependency&#45;all/Users/mmoscato/pvs/pvs/nasalib/ints -->
<g id="edge19" class="edge">
<title>/Users/mmoscato/Workspace/Workbench/pvs/dependency&#45;all/Users/mmoscato/pvs/pvs/nasalib/structures&#45;&gt;/Users/mmoscato/Workspace/Workbench/pvs/dependency&#45;all/Users/mmoscato/pvs/pvs/nasalib/ints</title>
<path fill="none" stroke="#000000" d="M71,-169.8314C71,-169.8314 71,-144.4133 71,-144.4133"/>
<polygon fill="#000000" stroke="#000000" points="74.5001,-144.4132 71,-134.4133 67.5001,-144.4133 74.5001,-144.4132"/>
</g>
</g>
</svg>
