<?xml version="1.0" encoding="UTF-8" standalone="no"?>
<!DOCTYPE svg PUBLIC "-//W3C//DTD SVG 1.1//EN"
 "http://www.w3.org/Graphics/SVG/1.1/DTD/svg11.dtd">
<!-- Generated by graphviz version 7.0.6 (20230106.0513)
 -->
<!-- Title: digraphs Pages: 1 -->
<svg width="260pt" height="462pt"
 viewBox="0.00 0.00 260.00 462.00" xmlns="http://www.w3.org/2000/svg" xmlns:xlink="http://www.w3.org/1999/xlink">
<g id="graph0" class="graph" transform="scale(1 1) rotate(0) translate(4 458)">
<title>digraphs</title>
<polygon fill="white" stroke="none" points="-4,4 -4,-458 256,-458 256,4 -4,4"/>
<g id="clust1" class="cluster">
<title>cluster_NASALib</title>
<polygon fill="none" stroke="black" points="8,-8 8,-446 148,-446 148,-8 8,-8"/>
<text text-anchor="middle" x="78" y="-430.8" font-family="Times,serif" font-size="14.00">NASALib</text>
</g>
<g id="clust2" class="cluster">
<title>cluster_PVS Prelude</title>
<polygon fill="none" stroke="black" points="156,-8 156,-83 244,-83 244,-8 156,-8"/>
<text text-anchor="middle" x="200" y="-67.8" font-family="Times,serif" font-size="14.00">PVS Prelude</text>
</g>
<!-- NASALib/CCG -->
<g id="node1" class="node">
<title>NASALib/CCG</title>
<polygon fill="#fcfcd7" stroke="black" points="120,-343 66,-343 66,-307 120,-307 120,-343"/>
<text text-anchor="middle" x="93" y="-321.3" font-family="Times,serif" font-size="14.00">CCG</text>
</g>
<!-- NASALib/digraphs -->
<g id="node3" class="node">
<title>NASALib/digraphs</title>
<polygon fill="#f7e28d" stroke="black" points="99.5,-271 36.5,-271 36.5,-235 99.5,-235 99.5,-271"/>
<text text-anchor="middle" x="68" y="-249.3" font-family="Times,serif" font-size="14.00">digraphs</text>
</g>
<!-- NASALib/CCG&#45;&gt;NASALib/digraphs -->
<g id="edge1" class="edge">
<title>NASALib/CCG&#45;&gt;NASALib/digraphs</title>
<path fill="none" stroke="black" d="M86.82,-306.7C84.13,-299.15 80.9,-290.12 77.89,-281.68"/>
<polygon fill="black" stroke="black" points="81.28,-280.77 74.62,-272.53 74.69,-283.12 81.28,-280.77"/>
</g>
<!-- NASALib/ints -->
<g id="node4" class="node">
<title>NASALib/ints</title>
<polygon fill="#fcfcd7" stroke="black" points="84,-52 30,-52 30,-16 84,-16 84,-52"/>
<text text-anchor="middle" x="57" y="-30.3" font-family="Times,serif" font-size="14.00">ints</text>
</g>
<!-- NASALib/CCG&#45;&gt;NASALib/ints -->
<g id="edge2" class="edge">
<title>NASALib/CCG&#45;&gt;NASALib/ints</title>
<path fill="none" stroke="black" d="M17,-108C17,-108 30.68,-83.04 42.04,-62.3"/>
<polygon fill="black" stroke="black" points="45.06,-64.08 46.79,-53.63 38.92,-60.72 45.06,-64.08"/>
<path fill="none" stroke="black" d="M17,-180C17,-180 17,-110 17,-110"/>
</g>
<!-- NASALib/orders -->
<g id="node5" class="node">
<title>NASALib/orders</title>
<polygon fill="#fcfcd7" stroke="black" points="120,-199 66,-199 66,-163 120,-163 120,-199"/>
<text text-anchor="middle" x="93" y="-177.3" font-family="Times,serif" font-size="14.00">orders</text>
</g>
<!-- NASALib/CCG&#45;&gt;NASALib/orders -->
<g id="edge3" class="edge">
<title>NASALib/CCG&#45;&gt;NASALib/orders</title>
<path fill="none" stroke="black" d="M97.91,-306.65C102.29,-291.19 108,-271 108,-271 108,-271 108,-235 108,-235 108,-235 104.58,-222.92 101.01,-210.3"/>
<polygon fill="black" stroke="black" points="104.41,-209.48 98.32,-200.81 97.68,-211.39 104.41,-209.48"/>
</g>
<!-- NASALib/structures -->
<g id="node6" class="node">
<title>NASALib/structures</title>
<polygon fill="#fcfcd7" stroke="black" points="105.5,-127 36.5,-127 36.5,-91 105.5,-91 105.5,-127"/>
<text text-anchor="middle" x="71" y="-105.3" font-family="Times,serif" font-size="14.00">structures</text>
</g>
<!-- NASALib/CCG&#45;&gt;NASALib/structures -->
<g id="edge4" class="edge">
<title>NASALib/CCG&#45;&gt;NASALib/structures</title>
<path fill="none" stroke="black" d="M71.39,-306.65C52.14,-291.19 27,-271 27,-271 27,-271 17,-182 17,-182"/>
<path fill="none" stroke="black" d="M17,-180C17,-180 35.38,-156.18 50.69,-136.33"/>
<polygon fill="black" stroke="black" points="53.39,-138.56 56.73,-128.5 47.85,-134.28 53.39,-138.56"/>
</g>
<!-- lib/finite_sets -->
<g id="node7" class="node">
<title>lib/finite_sets</title>
<polygon fill="#fcfcd7" stroke="black" points="236,-52 164,-52 164,-16 236,-16 236,-52"/>
<text text-anchor="middle" x="200" y="-30.3" font-family="Times,serif" font-size="14.00">finite_sets</text>
</g>
<!-- NASALib/CCG&#45;&gt;lib/finite_sets -->
<g id="edge5" class="edge">
<title>NASALib/CCG&#45;&gt;lib/finite_sets</title>
<path fill="none" stroke="black" d="M112.32,-306.65C129.53,-291.19 152,-271 152,-271 152,-271 168,-254 168,-254"/>
<path fill="none" stroke="black" d="M168,-252C168,-252 168,-182 168,-182"/>
</g>
<!-- NASALib/PVS0 -->
<g id="node2" class="node">
<title>NASALib/PVS0</title>
<polygon fill="#fcfcd7" stroke="black" points="130,-415 76,-415 76,-379 130,-379 130,-415"/>
<text text-anchor="middle" x="103" y="-393.3" font-family="Times,serif" font-size="14.00">PVS0</text>
</g>
<!-- NASALib/PVS0&#45;&gt;NASALib/CCG -->
<g id="edge6" class="edge">
<title>NASALib/PVS0&#45;&gt;NASALib/CCG</title>
<path fill="none" stroke="black" d="M100.53,-378.7C99.47,-371.32 98.22,-362.52 97.04,-354.25"/>
<polygon fill="black" stroke="black" points="100.54,-354.01 95.66,-344.6 93.61,-355 100.54,-354.01"/>
</g>
<!-- NASALib/PVS0&#45;&gt;NASALib/digraphs -->
<g id="edge7" class="edge">
<title>NASALib/PVS0&#45;&gt;NASALib/digraphs</title>
<path fill="none" stroke="black" d="M139,-324C139,-324 129,-307 129,-307 129,-307 112.46,-292.63 96.6,-278.85"/>
<polygon fill="black" stroke="black" points="98.96,-276.26 89.12,-272.35 94.37,-281.55 98.96,-276.26"/>
<path fill="none" stroke="black" d="M111.9,-378.7C122.56,-357.97 139,-326 139,-326"/>
</g>
<!-- NASALib/PVS0&#45;&gt;NASALib/orders -->
<g id="edge8" class="edge">
<title>NASALib/PVS0&#45;&gt;NASALib/orders</title>
<path fill="none" stroke="black" d="M139,-252C139,-252 123.63,-228.61 110.65,-208.87"/>
<polygon fill="black" stroke="black" points="113.62,-207 105.2,-200.57 107.77,-210.85 113.62,-207"/>
<path fill="none" stroke="black" d="M139,-324C139,-324 139,-254 139,-254"/>
</g>
<!-- NASALib/PVS0&#45;&gt;NASALib/structures -->
<g id="edge9" class="edge">
<title>NASALib/PVS0&#45;&gt;NASALib/structures</title>
<path fill="none" stroke="black" d="M139,-252C139,-252 129,-163 129,-163 129,-163 113.27,-148.63 98.2,-134.85"/>
<polygon fill="black" stroke="black" points="100.85,-132.54 91.11,-128.38 96.13,-137.7 100.85,-132.54"/>
</g>
<!-- NASALib/PVS0&#45;&gt;lib/finite_sets -->
<g id="edge10" class="edge">
<title>NASALib/PVS0&#45;&gt;lib/finite_sets</title>
<path fill="none" stroke="black" d="M139,-324C139,-324 168,-254 168,-254"/>
</g>
<!-- NASALib/digraphs&#45;&gt;NASALib/ints -->
<g id="edge11" class="edge">
<title>NASALib/digraphs&#45;&gt;NASALib/ints</title>
<path fill="none" stroke="black" d="M60.34,-234.7C51.16,-213.97 37,-182 37,-182"/>
<path fill="none" stroke="black" d="M37,-180C37,-180 17,-110 17,-110"/>
</g>
<!-- NASALib/digraphs&#45;&gt;NASALib/orders -->
<g id="edge12" class="edge">
<title>NASALib/digraphs&#45;&gt;NASALib/orders</title>
<path fill="none" stroke="black" d="M74.18,-234.7C76.87,-227.15 80.1,-218.12 83.11,-209.68"/>
<polygon fill="black" stroke="black" points="86.31,-211.12 86.38,-200.53 79.72,-208.77 86.31,-211.12"/>
</g>
<!-- NASALib/digraphs&#45;&gt;NASALib/structures -->
<g id="edge13" class="edge">
<title>NASALib/digraphs&#45;&gt;NASALib/structures</title>
<path fill="none" stroke="black" d="M37,-180C37,-180 48.16,-157.03 57.69,-137.41"/>
<polygon fill="black" stroke="black" points="60.71,-139.19 61.93,-128.66 54.42,-136.13 60.71,-139.19"/>
</g>
<!-- NASALib/digraphs&#45;&gt;lib/finite_sets -->
<g id="edge14" class="edge">
<title>NASALib/digraphs&#45;&gt;lib/finite_sets</title>
<path fill="none" stroke="black" d="M95.5,-234.65C120,-219.19 152,-199 152,-199 152,-199 168,-182 168,-182"/>
<path fill="none" stroke="black" d="M168,-180C168,-180 168,-110 168,-110"/>
</g>
<!-- NASALib/orders&#45;&gt;NASALib/structures -->
<g id="edge15" class="edge">
<title>NASALib/orders&#45;&gt;NASALib/structures</title>
<path fill="none" stroke="black" d="M87.56,-162.7C85.22,-155.24 82.42,-146.32 79.79,-137.97"/>
<polygon fill="black" stroke="black" points="83.17,-137.04 76.83,-128.55 76.49,-139.14 83.17,-137.04"/>
</g>
<!-- NASALib/orders&#45;&gt;lib/finite_sets -->
<g id="edge16" class="edge">
<title>NASALib/orders&#45;&gt;lib/finite_sets</title>
<path fill="none" stroke="black" d="M168,-108C168,-108 178.84,-83.26 187.91,-62.59"/>
<polygon fill="black" stroke="black" points="191,-64.25 191.81,-53.69 184.59,-61.44 191,-64.25"/>
<path fill="none" stroke="black" d="M111.54,-162.7C133.75,-141.97 168,-110 168,-110"/>
</g>
<!-- NASALib/structures&#45;&gt;NASALib/ints -->
<g id="edge17" class="edge">
<title>NASALib/structures&#45;&gt;NASALib/ints</title>
<path fill="none" stroke="black" d="M67.68,-90.7C66.12,-82.58 64.23,-72.68 62.46,-63.5"/>
<polygon fill="black" stroke="black" points="65.95,-63.08 60.63,-53.92 59.07,-64.4 65.95,-63.08"/>
</g>
<!-- NASALib/structures&#45;&gt;lib/finite_sets -->
<g id="edge18" class="edge">
<title>NASALib/structures&#45;&gt;lib/finite_sets</title>
<path fill="none" stroke="black" d="M105.82,-97.25C127.78,-90.48 152,-83 152,-83 152,-83 163.17,-71.83 174.73,-60.27"/>
<polygon fill="black" stroke="black" points="177,-62.95 181.6,-53.4 172.05,-58 177,-62.95"/>
</g>
</g>
</svg>
