<?xml version="1.0" encoding="UTF-8" standalone="no"?>
<!DOCTYPE svg PUBLIC "-//W3C//DTD SVG 1.1//EN"
 "http://www.w3.org/Graphics/SVG/1.1/DTD/svg11.dtd">
<!-- Generated by graphviz version 8.0.4 (20230421.1958)
 -->
<!-- Title: while&#45;zoomed Pages: 1 -->
<svg width="770pt" height="465pt"
 viewBox="0.00 0.00 770.00 465.00" xmlns="http://www.w3.org/2000/svg" xmlns:xlink="http://www.w3.org/1999/xlink">
<g id="graph0" class="graph" transform="scale(1 1) rotate(0) translate(4 461)">
<title>while&#45;zoomed</title>
<polygon fill="white" stroke="none" points="-4,4 -4,-461 766,-461 766,4 -4,4"/>
<g id="clust1" class="cluster">
<title>cluster_NASALib</title>
<polygon fill="none" stroke="black" points="612,-152 612,-228.5 754,-228.5 754,-152 612,-152"/>
<text text-anchor="middle" x="683" y="-211.2" font-family="Times,serif" font-size="14.00">NASALib</text>
</g>
<g id="clust2" class="cluster">
<title>cluster_NASALib/while</title>
<polygon fill="none" stroke="black" points="8,-8 8,-449 604,-449 604,-8 8,-8"/>
<text text-anchor="middle" x="306" y="-431.7" font-family="Times,serif" font-size="14.00">NASALib/while</text>
</g>
<!-- NASALib/orders -->
<g id="node1" class="node">
<title>NASALib/orders</title>
<polygon fill="#fcfcd7" stroke="black" points="674,-196 620,-196 620,-160 674,-160 674,-196"/>
<text text-anchor="middle" x="647" y="-172.95" font-family="Times,serif" font-size="14.00">orders</text>
</g>
<!-- NASALib/scott -->
<g id="node2" class="node">
<title>NASALib/scott</title>
<polygon fill="#fcfcd7" stroke="black" points="746,-196 692,-196 692,-160 746,-160 746,-196"/>
<text text-anchor="middle" x="719" y="-172.95" font-family="Times,serif" font-size="14.00">scott</text>
</g>
<!-- NASALib/while@AExp -->
<g id="node3" class="node">
<title>NASALib/while@AExp</title>
<ellipse fill="#e6f3ff" stroke="black" cx="125" cy="-106" rx="32.41" ry="18"/>
<text text-anchor="middle" x="125" y="-100.95" font-family="Times,serif" font-size="14.00">AExp</text>
</g>
<!-- NASALib/while@State -->
<g id="node7" class="node">
<title>NASALib/while@State</title>
<ellipse fill="#e6f3ff" stroke="black" cx="125" cy="-34" rx="29.34" ry="18"/>
<text text-anchor="middle" x="125" y="-28.95" font-family="Times,serif" font-size="14.00">State</text>
</g>
<!-- NASALib/while@AExp&#45;&gt;NASALib/while@State -->
<g id="edge1" class="edge">
<title>NASALib/while@AExp&#45;&gt;NASALib/while@State</title>
<path fill="none" stroke="black" d="M125,-87.7C125,-80.24 125,-71.32 125,-62.97"/>
<polygon fill="black" stroke="black" points="128.5,-63.1 125,-53.1 121.5,-63.1 128.5,-63.1"/>
</g>
<!-- NASALib/while@BExp -->
<g id="node4" class="node">
<title>NASALib/while@BExp</title>
<ellipse fill="#e6f3ff" stroke="black" cx="145" cy="-178" rx="31.9" ry="18"/>
<text text-anchor="middle" x="145" y="-172.95" font-family="Times,serif" font-size="14.00">BExp</text>
</g>
<!-- NASALib/while@BExp&#45;&gt;NASALib/while@AExp -->
<g id="edge2" class="edge">
<title>NASALib/while@BExp&#45;&gt;NASALib/while@AExp</title>
<path fill="none" stroke="black" d="M140.16,-160.05C137.98,-152.43 135.35,-143.23 132.9,-134.65"/>
<polygon fill="black" stroke="black" points="136.05,-133.93 129.94,-125.28 129.32,-135.85 136.05,-133.93"/>
</g>
<!-- NASALib/while@BExp&#45;&gt;NASALib/while@State -->
<g id="edge3" class="edge">
<title>NASALib/while@BExp&#45;&gt;NASALib/while@State</title>
<path fill="none" stroke="black" d="M128.33,-162.52C110.27,-146.83 84,-124 84,-124 84,-124 74,-107 74,-107"/>
</g>
<!-- NASALib/while@Cont -->
<g id="node5" class="node">
<title>NASALib/while@Cont</title>
<ellipse fill="#e6f3ff" stroke="black" cx="239" cy="-254.5" rx="28.83" ry="18"/>
<text text-anchor="middle" x="239" y="-249.45" font-family="Times,serif" font-size="14.00">Cont</text>
</g>
<!-- NASALib/while@Cont&#45;&gt;NASALib/orders -->
<g id="edge4" class="edge">
<title>NASALib/while@Cont&#45;&gt;NASALib/orders</title>
<path fill="none" stroke="black" d="M263.01,-244.01C272.86,-240.11 282,-236.5 282,-236.5 282,-236.5 608,-228.5 608,-228.5 608,-228.5 617.14,-216.9 626.57,-204.93"/>
<polygon fill="black" stroke="black" points="629.92,-207.33 633.36,-197.31 624.42,-203 629.92,-207.33"/>
</g>
<!-- NASALib/while@Cont&#45;&gt;NASALib/scott -->
<g id="edge5" class="edge">
<title>NASALib/while@Cont&#45;&gt;NASALib/scott</title>
<path fill="none" stroke="black" d="M263.01,-244.01C272.86,-240.11 282,-236.5 282,-236.5 282,-236.5 683,-228.5 683,-228.5 683,-228.5 691.44,-216.9 700.14,-204.93"/>
<polygon fill="black" stroke="black" points="703.36,-207.46 706.41,-197.31 697.7,-203.34 703.36,-207.46"/>
</g>
<!-- NASALib/while@Cont&#45;&gt;NASALib/while@State -->
<g id="edge6" class="edge">
<title>NASALib/while@Cont&#45;&gt;NASALib/while@State</title>
<path fill="none" stroke="black" d="M241.85,-236.12C248.2,-197.31 263,-107 263,-107"/>
</g>
<!-- NASALib/while@Instruction -->
<g id="node6" class="node">
<title>NASALib/while@Instruction</title>
<ellipse fill="#e6f3ff" stroke="black" cx="377" cy="-254.5" rx="50.84" ry="18"/>
<text text-anchor="middle" x="377" y="-249.45" font-family="Times,serif" font-size="14.00">Instruction</text>
</g>
<!-- NASALib/while@Stm -->
<g id="node8" class="node">
<title>NASALib/while@Stm</title>
<ellipse fill="#e6f3ff" stroke="black" cx="145" cy="-254.5" rx="27" ry="18"/>
<text text-anchor="middle" x="145" y="-249.45" font-family="Times,serif" font-size="14.00">Stm</text>
</g>
<!-- NASALib/while@Stm&#45;&gt;NASALib/while@AExp -->
<g id="edge7" class="edge">
<title>NASALib/while@Stm&#45;&gt;NASALib/while@AExp</title>
<path fill="none" stroke="black" d="M164.54,-241.59C175.1,-235.15 186,-228.5 186,-228.5 186,-228.5 186,-152 186,-152 186,-152 168.82,-139.33 152.7,-127.43"/>
<polygon fill="black" stroke="black" points="155.09,-124.11 144.97,-120.99 150.94,-129.74 155.09,-124.11"/>
</g>
<!-- NASALib/while@Stm&#45;&gt;NASALib/while@BExp -->
<g id="edge8" class="edge">
<title>NASALib/while@Stm&#45;&gt;NASALib/while@BExp</title>
<path fill="none" stroke="black" d="M145,-236.22C145,-227.63 145,-217.03 145,-207.3"/>
<polygon fill="black" stroke="black" points="148.5,-207.44 145,-197.44 141.5,-207.44 148.5,-207.44"/>
</g>
<!-- NASALib/while@am -->
<g id="node9" class="node">
<title>NASALib/while@am</title>
<ellipse fill="#e6f3ff" stroke="black" cx="446" cy="-326.5" rx="27" ry="18"/>
<text text-anchor="middle" x="446" y="-321.45" font-family="Times,serif" font-size="14.00">am</text>
</g>
<!-- NASALib/while@am&#45;&gt;NASALib/while@Cont -->
<g id="edge9" class="edge">
<title>NASALib/while@am&#45;&gt;NASALib/while@Cont</title>
<path fill="none" stroke="black" d="M424.23,-315.22C416.65,-311.64 410,-308.5 410,-308.5 410,-308.5 282,-272.5 282,-272.5 282,-272.5 278.25,-271.02 272.97,-268.93"/>
<polygon fill="black" stroke="black" points="274.6,-265.42 264.01,-264.99 272.03,-271.93 274.6,-265.42"/>
</g>
<!-- NASALib/while@am&#45;&gt;NASALib/while@Instruction -->
<g id="edge10" class="edge">
<title>NASALib/while@am&#45;&gt;NASALib/while@Instruction</title>
<path fill="none" stroke="black" d="M431.7,-311C422.77,-301.93 411.05,-290.04 400.74,-279.59"/>
<polygon fill="black" stroke="black" points="403.73,-277.61 394.21,-272.95 398.74,-282.53 403.73,-277.61"/>
</g>
<!-- NASALib/while@am&#45;&gt;NASALib/while@State -->
<g id="edge11" class="edge">
<title>NASALib/while@am&#45;&gt;NASALib/while@State</title>
<path fill="none" stroke="black" d="M424.23,-315.22C416.65,-311.64 410,-308.5 410,-308.5 410,-308.5 317,-272.5 317,-272.5 317,-272.5 278,-152 278,-152 278,-152 263,-107 263,-107"/>
</g>
<!-- NASALib/while@list_props_aux -->
<g id="node17" class="node">
<title>NASALib/while@list_props_aux</title>
<ellipse fill="#e6f3ff" stroke="black" cx="511" cy="-254.5" rx="65.17" ry="18"/>
<text text-anchor="middle" x="511" y="-249.45" font-family="Times,serif" font-size="14.00">list_props_aux</text>
</g>
<!-- NASALib/while@am&#45;&gt;NASALib/while@list_props_aux -->
<g id="edge12" class="edge">
<title>NASALib/while@am&#45;&gt;NASALib/while@list_props_aux</title>
<path fill="none" stroke="black" d="M459.78,-310.65C468.02,-301.79 478.68,-290.3 488.15,-280.11"/>
<polygon fill="black" stroke="black" points="490.17,-283 494.41,-273.29 485.04,-278.24 490.17,-283"/>
</g>
<!-- NASALib/while@axiomatic -->
<g id="node10" class="node">
<title>NASALib/while@axiomatic</title>
<ellipse fill="#e6f3ff" stroke="black" cx="64" cy="-398.5" rx="47.77" ry="18"/>
<text text-anchor="middle" x="64" y="-393.45" font-family="Times,serif" font-size="14.00">axiomatic</text>
</g>
<!-- NASALib/while@axiomatic&#45;&gt;NASALib/while@AExp -->
<g id="edge13" class="edge">
<title>NASALib/while@axiomatic&#45;&gt;NASALib/while@AExp</title>
<path fill="none" stroke="black" d="M54,-177C54,-177 69,-152 69,-152 69,-152 84.29,-139.72 98.89,-127.98"/>
<polygon fill="black" stroke="black" points="100.68,-130.23 106.28,-121.24 96.29,-124.77 100.68,-130.23"/>
</g>
<!-- NASALib/while@axiomatic&#45;&gt;NASALib/while@BExp -->
<g id="edge14" class="edge">
<title>NASALib/while@axiomatic&#45;&gt;NASALib/while@BExp</title>
<path fill="none" stroke="black" d="M54,-253.5C54,-253.5 69,-236.5 69,-236.5 69,-236.5 99,-228.5 99,-228.5 99,-228.5 111.48,-215.07 123.44,-202.21"/>
<polygon fill="black" stroke="black" points="125.45,-205.1 129.7,-195.39 120.33,-200.33 125.45,-205.1"/>
</g>
<!-- NASALib/while@axiomatic&#45;&gt;NASALib/while@State -->
<g id="edge15" class="edge">
<title>NASALib/while@axiomatic&#45;&gt;NASALib/while@State</title>
<path fill="none" stroke="black" d="M54,-177C54,-177 74,-107 74,-107"/>
<path fill="none" stroke="black" d="M54,-253.5C54,-253.5 54,-179 54,-179"/>
<path fill="none" stroke="black" d="M54,-325.5C54,-325.5 54,-255.5 54,-255.5"/>
<path fill="none" stroke="black" d="M74,-105C74,-105 84,-88 84,-88 84,-88 95.54,-73.08 106.37,-59.08"/>
<polygon fill="black" stroke="black" points="109.57,-61.67 112.92,-51.62 104.03,-57.38 109.57,-61.67"/>
<path fill="none" stroke="black" d="M61.53,-380.2C58.57,-359.47 54,-327.5 54,-327.5"/>
</g>
<!-- NASALib/while@axiomatic&#45;&gt;NASALib/while@Stm -->
<g id="edge16" class="edge">
<title>NASALib/while@axiomatic&#45;&gt;NASALib/while@Stm</title>
<path fill="none" stroke="black" d="M54,-325.5C54,-325.5 92.36,-295.99 119.27,-275.29"/>
<polygon fill="black" stroke="black" points="121.09,-277.54 126.88,-268.67 116.82,-271.99 121.09,-277.54"/>
</g>
<!-- NASALib/while@sos -->
<g id="node19" class="node">
<title>NASALib/while@sos</title>
<ellipse fill="#e6f3ff" stroke="black" cx="120" cy="-326.5" rx="27" ry="18"/>
<text text-anchor="middle" x="120" y="-321.45" font-family="Times,serif" font-size="14.00">sos</text>
</g>
<!-- NASALib/while@axiomatic&#45;&gt;NASALib/while@sos -->
<g id="edge17" class="edge">
<title>NASALib/while@axiomatic&#45;&gt;NASALib/while@sos</title>
<path fill="none" stroke="black" d="M77.27,-380.91C84.4,-372 93.32,-360.85 101.16,-351.06"/>
<polygon fill="black" stroke="black" points="104.46,-353.53 107.97,-343.54 98.99,-349.16 104.46,-353.53"/>
</g>
<!-- NASALib/while@bisimulation -->
<g id="node11" class="node">
<title>NASALib/while@bisimulation</title>
<ellipse fill="#e6f3ff" stroke="black" cx="518" cy="-398.5" rx="57.49" ry="18"/>
<text text-anchor="middle" x="518" y="-393.45" font-family="Times,serif" font-size="14.00">bisimulation</text>
</g>
<!-- NASALib/while@bisimulation&#45;&gt;NASALib/while@am -->
<g id="edge18" class="edge">
<title>NASALib/while@bisimulation&#45;&gt;NASALib/while@am</title>
<path fill="none" stroke="black" d="M500.94,-380.91C491.13,-371.37 478.7,-359.29 468.14,-349.03"/>
<polygon fill="black" stroke="black" points="471.12,-347.07 461.51,-342.61 466.24,-352.09 471.12,-347.07"/>
</g>
<!-- NASALib/while@compiler -->
<g id="node12" class="node">
<title>NASALib/while@compiler</title>
<ellipse fill="#e6f3ff" stroke="black" cx="535" cy="-326.5" rx="44.19" ry="18"/>
<text text-anchor="middle" x="535" y="-321.45" font-family="Times,serif" font-size="14.00">compiler</text>
</g>
<!-- NASALib/while@bisimulation&#45;&gt;NASALib/while@compiler -->
<g id="edge19" class="edge">
<title>NASALib/while@bisimulation&#45;&gt;NASALib/while@compiler</title>
<path fill="none" stroke="black" d="M522.2,-380.2C524.03,-372.65 526.23,-363.62 528.28,-355.18"/>
<polygon fill="black" stroke="black" points="531.89,-356.15 530.85,-345.6 525.08,-354.5 531.89,-356.15"/>
</g>
<!-- NASALib/while@bisimulation&#45;&gt;NASALib/while@sos -->
<g id="edge20" class="edge">
<title>NASALib/while@bisimulation&#45;&gt;NASALib/while@sos</title>
<path fill="none" stroke="black" d="M474.43,-386.45C461.64,-383.2 451,-380.5 451,-380.5 451,-380.5 176,-344.5 176,-344.5 176,-344.5 166.12,-341.5 154.67,-338.02"/>
<polygon fill="black" stroke="black" points="155.99,-334.46 145.4,-334.91 153.95,-341.16 155.99,-334.46"/>
</g>
<!-- NASALib/while@compiler&#45;&gt;NASALib/while@AExp -->
<g id="edge21" class="edge">
<title>NASALib/while@compiler&#45;&gt;NASALib/while@AExp</title>
<path fill="none" stroke="black" d="M595,-253.5C595,-253.5 585,-236.5 585,-236.5 585,-236.5 274.73,-149.15 163.82,-117.93"/>
<polygon fill="black" stroke="black" points="165,-114.34 154.43,-115 163.11,-121.08 165,-114.34"/>
</g>
<!-- NASALib/while@compiler&#45;&gt;NASALib/while@BExp -->
<g id="edge22" class="edge">
<title>NASALib/while@compiler&#45;&gt;NASALib/while@BExp</title>
<path fill="none" stroke="black" d="M550.27,-309.31C564.98,-293.72 585,-272.5 585,-272.5 585,-272.5 595,-255.5 595,-255.5"/>
<path fill="none" stroke="black" d="M595,-253.5C595,-253.5 585,-236.5 585,-236.5 585,-236.5 228,-228.5 228,-228.5 228,-228.5 199.39,-211.44 175.77,-197.35"/>
<polygon fill="black" stroke="black" points="177.76,-193.86 167.37,-191.75 174.17,-199.88 177.76,-193.86"/>
</g>
<!-- NASALib/while@compiler&#45;&gt;NASALib/while@Instruction -->
<g id="edge23" class="edge">
<title>NASALib/while@compiler&#45;&gt;NASALib/while@Instruction</title>
<path fill="none" stroke="black" d="M506.02,-312.66C481.26,-301.69 445.38,-285.79 417.73,-273.55"/>
<polygon fill="black" stroke="black" points="419.52,-270.07 408.96,-269.21 416.68,-276.47 419.52,-270.07"/>
</g>
<!-- NASALib/while@compiler&#45;&gt;NASALib/while@Stm -->
<g id="edge24" class="edge">
<title>NASALib/while@compiler&#45;&gt;NASALib/while@Stm</title>
<path fill="none" stroke="black" d="M501.13,-314.64C490.75,-311.31 482,-308.5 482,-308.5 482,-308.5 186,-272.5 186,-272.5 186,-272.5 182.48,-271.04 177.5,-268.98"/>
<polygon fill="black" stroke="black" points="179,-265.39 168.42,-264.8 176.32,-271.86 179,-265.39"/>
</g>
<!-- NASALib/while@compiler&#45;&gt;NASALib/while@list_props_aux -->
<g id="edge25" class="edge">
<title>NASALib/while@compiler&#45;&gt;NASALib/while@list_props_aux</title>
<path fill="none" stroke="black" d="M529.07,-308.2C526.45,-300.57 523.31,-291.42 520.39,-282.9"/>
<polygon fill="black" stroke="black" points="523.42,-281.93 516.86,-273.6 516.8,-284.2 523.42,-281.93"/>
</g>
<!-- NASALib/while@congruence -->
<g id="node13" class="node">
<title>NASALib/while@congruence</title>
<ellipse fill="#e6f3ff" stroke="black" cx="389" cy="-398.5" rx="53.4" ry="18"/>
<text text-anchor="middle" x="389" y="-393.45" font-family="Times,serif" font-size="14.00">congruence</text>
</g>
<!-- NASALib/while@congruence&#45;&gt;NASALib/orders -->
<g id="edge26" class="edge">
<title>NASALib/while@congruence&#45;&gt;NASALib/orders</title>
<path fill="none" stroke="black" d="M429.61,-386.54C441.8,-383.25 452,-380.5 452,-380.5 452,-380.5 588,-344.5 588,-344.5 588,-344.5 719,-255.5 719,-255.5"/>
<path fill="none" stroke="black" d="M719,-253.5C719,-253.5 683,-228.5 683,-228.5 683,-228.5 674.56,-216.9 665.86,-204.93"/>
<polygon fill="black" stroke="black" points="668.3,-203.34 659.59,-197.31 662.64,-207.46 668.3,-203.34"/>
</g>
<!-- NASALib/while@congruence&#45;&gt;NASALib/scott -->
<g id="edge27" class="edge">
<title>NASALib/while@congruence&#45;&gt;NASALib/scott</title>
<path fill="none" stroke="black" d="M719,-253.5C719,-253.5 719,-228.2 719,-207.09"/>
<polygon fill="black" stroke="black" points="722.5,-207.28 719,-197.28 715.5,-207.28 722.5,-207.28"/>
</g>
<!-- NASALib/while@continuation -->
<g id="node14" class="node">
<title>NASALib/while@continuation</title>
<ellipse fill="#e6f3ff" stroke="black" cx="242" cy="-326.5" rx="56.98" ry="18"/>
<text text-anchor="middle" x="242" y="-321.45" font-family="Times,serif" font-size="14.00">continuation</text>
</g>
<!-- NASALib/while@congruence&#45;&gt;NASALib/while@continuation -->
<g id="edge28" class="edge">
<title>NASALib/while@congruence&#45;&gt;NASALib/while@continuation</title>
<path fill="none" stroke="black" d="M358.9,-383.17C336.75,-372.62 306.41,-358.17 282.19,-346.64"/>
<polygon fill="black" stroke="black" points="284.1,-343.2 273.57,-342.06 281.09,-349.52 284.1,-343.2"/>
</g>
<!-- NASALib/while@direct -->
<g id="node15" class="node">
<title>NASALib/while@direct</title>
<ellipse fill="#e6f3ff" stroke="black" cx="369" cy="-326.5" rx="31.9" ry="18"/>
<text text-anchor="middle" x="369" y="-321.45" font-family="Times,serif" font-size="14.00">direct</text>
</g>
<!-- NASALib/while@congruence&#45;&gt;NASALib/while@direct -->
<g id="edge29" class="edge">
<title>NASALib/while@congruence&#45;&gt;NASALib/while@direct</title>
<path fill="none" stroke="black" d="M384.06,-380.2C381.9,-372.65 379.32,-363.62 376.91,-355.18"/>
<polygon fill="black" stroke="black" points="380,-354.26 373.89,-345.6 373.27,-356.18 380,-354.26"/>
</g>
<!-- NASALib/while@continuation&#45;&gt;NASALib/scott -->
<g id="edge30" class="edge">
<title>NASALib/while@continuation&#45;&gt;NASALib/scott</title>
<path fill="none" stroke="black" d="M624,-253.5C624,-253.5 683,-228.5 683,-228.5 683,-228.5 691.44,-216.9 700.14,-204.93"/>
<polygon fill="black" stroke="black" points="703.36,-207.46 706.41,-197.31 697.7,-203.34 703.36,-207.46"/>
<path fill="none" stroke="black" d="M289.53,-316.1C309.42,-312.17 328,-308.5 328,-308.5 328,-308.5 585,-272.5 585,-272.5 585,-272.5 624,-255.5 624,-255.5"/>
</g>
<!-- NASALib/while@continuation&#45;&gt;NASALib/while@AExp -->
<g id="edge31" class="edge">
<title>NASALib/while@continuation&#45;&gt;NASALib/while@AExp</title>
<path fill="none" stroke="black" d="M233,-177C233,-177 186.53,-146.88 154.55,-126.16"/>
<polygon fill="black" stroke="black" points="156.86,-122.83 146.57,-120.33 153.06,-128.71 156.86,-122.83"/>
<path fill="none" stroke="black" d="M191,-253.5C191,-253.5 233,-179 233,-179"/>
</g>
<!-- NASALib/while@continuation&#45;&gt;NASALib/while@BExp -->
<g id="edge32" class="edge">
<title>NASALib/while@continuation&#45;&gt;NASALib/while@BExp</title>
<path fill="none" stroke="black" d="M191,-253.5C191,-253.5 181,-236.5 181,-236.5 181,-236.5 170.62,-219.92 161.01,-204.57"/>
<polygon fill="black" stroke="black" points="163.49,-202.94 155.22,-196.32 157.56,-206.66 163.49,-202.94"/>
<path fill="none" stroke="black" d="M229.03,-308.73C217.02,-293.2 201,-272.5 201,-272.5 201,-272.5 191,-255.5 191,-255.5"/>
</g>
<!-- NASALib/while@continuation&#45;&gt;NASALib/while@Cont -->
<g id="edge33" class="edge">
<title>NASALib/while@continuation&#45;&gt;NASALib/while@Cont</title>
<path fill="none" stroke="black" d="M241.26,-308.2C240.94,-300.74 240.56,-291.82 240.2,-283.47"/>
<polygon fill="black" stroke="black" points="243.66,-283.45 239.73,-273.6 236.66,-283.75 243.66,-283.45"/>
</g>
<!-- NASALib/while@continuation&#45;&gt;NASALib/while@State -->
<g id="edge34" class="edge">
<title>NASALib/while@continuation&#45;&gt;NASALib/while@State</title>
<path fill="none" stroke="black" d="M233,-177C233,-177 240,-152 240,-152 240,-152 263,-107 263,-107"/>
<path fill="none" stroke="black" d="M263,-105C263,-105 197.72,-71.88 156.95,-51.21"/>
<polygon fill="black" stroke="black" points="158.67,-47.65 148.17,-46.25 155.51,-53.89 158.67,-47.65"/>
</g>
<!-- NASALib/while@continuation&#45;&gt;NASALib/while@Stm -->
<g id="edge35" class="edge">
<title>NASALib/while@continuation&#45;&gt;NASALib/while@Stm</title>
<path fill="none" stroke="black" d="M219.99,-309.62C205.64,-299.26 186.83,-285.68 171.63,-274.72"/>
<polygon fill="black" stroke="black" points="173.87,-271.3 163.72,-268.28 169.78,-276.97 173.87,-271.3"/>
</g>
<!-- NASALib/while@direct&#45;&gt;NASALib/scott -->
<g id="edge36" class="edge">
<title>NASALib/while@direct&#45;&gt;NASALib/scott</title>
<path fill="none" stroke="black" d="M394.27,-315.02C402.7,-311.53 410,-308.5 410,-308.5 410,-308.5 585,-272.5 585,-272.5 585,-272.5 624,-255.5 624,-255.5"/>
</g>
<!-- NASALib/while@direct&#45;&gt;NASALib/while@AExp -->
<g id="edge37" class="edge">
<title>NASALib/while@direct&#45;&gt;NASALib/while@AExp</title>
<path fill="none" stroke="black" d="M273,-177C273,-177 238,-152 238,-152 238,-152 193.89,-134.43 160.78,-121.25"/>
<polygon fill="black" stroke="black" points="162.51,-117.77 151.92,-117.32 159.92,-124.28 162.51,-117.77"/>
<path fill="none" stroke="black" d="M287,-253.5C287,-253.5 273,-179 273,-179"/>
</g>
<!-- NASALib/while@direct&#45;&gt;NASALib/while@BExp -->
<g id="edge38" class="edge">
<title>NASALib/while@direct&#45;&gt;NASALib/while@BExp</title>
<path fill="none" stroke="black" d="M287,-253.5C287,-253.5 277,-236.5 277,-236.5 277,-236.5 228,-228.5 228,-228.5 228,-228.5 199.39,-211.44 175.77,-197.35"/>
<polygon fill="black" stroke="black" points="177.76,-193.86 167.37,-191.75 174.17,-199.88 177.76,-193.86"/>
<path fill="none" stroke="black" d="M351.05,-311.3C331.2,-295.6 302,-272.5 302,-272.5 302,-272.5 287,-255.5 287,-255.5"/>
</g>
<!-- NASALib/while@direct&#45;&gt;NASALib/while@Cont -->
<g id="edge39" class="edge">
<title>NASALib/while@direct&#45;&gt;NASALib/while@Cont</title>
<path fill="none" stroke="black" d="M346.36,-313.31C325.1,-301.86 293.13,-284.65 269.6,-271.98"/>
<polygon fill="black" stroke="black" points="271.56,-268.52 261.09,-266.86 268.24,-274.68 271.56,-268.52"/>
</g>
<!-- NASALib/while@direct&#45;&gt;NASALib/while@State -->
<g id="edge40" class="edge">
<title>NASALib/while@direct&#45;&gt;NASALib/while@State</title>
<path fill="none" stroke="black" d="M273,-177C273,-177 263,-107 263,-107"/>
</g>
<!-- NASALib/while@direct&#45;&gt;NASALib/while@Stm -->
<g id="edge41" class="edge">
<title>NASALib/while@direct&#45;&gt;NASALib/while@Stm</title>
<path fill="none" stroke="black" d="M341.21,-317.45C290.01,-302.62 186,-272.5 186,-272.5 186,-272.5 182.48,-271.04 177.5,-268.98"/>
<polygon fill="black" stroke="black" points="179,-265.39 168.42,-264.8 176.32,-271.86 179,-265.39"/>
</g>
<!-- NASALib/while@direct_sos -->
<g id="node16" class="node">
<title>NASALib/while@direct_sos</title>
<ellipse fill="#e6f3ff" stroke="black" cx="269" cy="-398.5" rx="48.28" ry="18"/>
<text text-anchor="middle" x="269" y="-393.45" font-family="Times,serif" font-size="14.00">direct_sos</text>
</g>
<!-- NASALib/while@direct_sos&#45;&gt;NASALib/while@Cont -->
<g id="edge42" class="edge">
<title>NASALib/while@direct_sos&#45;&gt;NASALib/while@Cont</title>
<path fill="none" stroke="black" d="M281.34,-380.73C292.77,-365.2 308,-344.5 308,-344.5 308,-344.5 318,-327.5 318,-327.5"/>
</g>
<!-- NASALib/while@direct_sos&#45;&gt;NASALib/while@continuation -->
<g id="edge43" class="edge">
<title>NASALib/while@direct_sos&#45;&gt;NASALib/while@continuation</title>
<path fill="none" stroke="black" d="M262.33,-380.2C259.35,-372.48 255.77,-363.21 252.46,-354.61"/>
<polygon fill="black" stroke="black" points="255.46,-353.67 248.6,-345.6 248.93,-356.19 255.46,-353.67"/>
</g>
<!-- NASALib/while@direct_sos&#45;&gt;NASALib/while@direct -->
<g id="edge44" class="edge">
<title>NASALib/while@direct_sos&#45;&gt;NASALib/while@direct</title>
<path fill="none" stroke="black" d="M290.7,-382.31C305.39,-372.03 324.95,-358.34 340.84,-347.21"/>
<polygon fill="black" stroke="black" points="342.52,-349.61 348.71,-341 338.51,-343.87 342.52,-349.61"/>
</g>
<!-- NASALib/while@direct_sos&#45;&gt;NASALib/while@sos -->
<g id="edge45" class="edge">
<title>NASALib/while@direct_sos&#45;&gt;NASALib/while@sos</title>
<path fill="none" stroke="black" d="M239.92,-383.84C214.5,-371.89 177.67,-354.59 151.54,-342.32"/>
<polygon fill="black" stroke="black" points="153.3,-338.81 142.76,-337.72 150.32,-345.14 153.3,-338.81"/>
</g>
<!-- NASALib/while@natural -->
<g id="node18" class="node">
<title>NASALib/while@natural</title>
<ellipse fill="#e6f3ff" stroke="black" cx="166" cy="-398.5" rx="36.51" ry="18"/>
<text text-anchor="middle" x="166" y="-393.45" font-family="Times,serif" font-size="14.00">natural</text>
</g>
<!-- NASALib/while@natural&#45;&gt;NASALib/while@AExp -->
<g id="edge46" class="edge">
<title>NASALib/while@natural&#45;&gt;NASALib/while@AExp</title>
<path fill="none" stroke="black" d="M74,-177C74,-177 89,-152 89,-152 89,-152 97.01,-141.99 105.47,-131.42"/>
<polygon fill="black" stroke="black" points="108.69,-133.99 112.21,-123.99 103.23,-129.61 108.69,-133.99"/>
<path fill="none" stroke="black" d="M74,-253.5C74,-253.5 74,-179 74,-179"/>
<path fill="none" stroke="black" d="M144.46,-383.57C120.16,-367.87 84,-344.5 84,-344.5 84,-344.5 74,-255.5 74,-255.5"/>
</g>
<!-- NASALib/while@natural&#45;&gt;NASALib/while@BExp -->
<g id="edge47" class="edge">
<title>NASALib/while@natural&#45;&gt;NASALib/while@BExp</title>
<path fill="none" stroke="black" d="M74,-253.5C74,-253.5 89,-236.5 89,-236.5 89,-236.5 99,-228.5 99,-228.5 99,-228.5 111.48,-215.07 123.44,-202.21"/>
<polygon fill="black" stroke="black" points="125.45,-205.1 129.7,-195.39 120.33,-200.33 125.45,-205.1"/>
</g>
<!-- NASALib/while@natural&#45;&gt;NASALib/while@Cont -->
<g id="edge48" class="edge">
<title>NASALib/while@natural&#45;&gt;NASALib/while@Cont</title>
<path fill="none" stroke="black" d="M318,-325.5C318,-325.5 308,-308.5 308,-308.5 308,-308.5 284.85,-290.72 265.37,-275.75"/>
<polygon fill="black" stroke="black" points="267.83,-272.46 257.77,-269.15 263.57,-278.02 267.83,-272.46"/>
<path fill="none" stroke="black" d="M194.39,-386.9C235.83,-371.44 308,-344.5 308,-344.5 308,-344.5 318,-327.5 318,-327.5"/>
</g>
<!-- NASALib/while@natural&#45;&gt;NASALib/while@State -->
<g id="edge49" class="edge">
<title>NASALib/while@natural&#45;&gt;NASALib/while@State</title>
<path fill="none" stroke="black" d="M74,-177C74,-177 74,-107 74,-107"/>
</g>
<!-- NASALib/while@natural&#45;&gt;NASALib/while@Stm -->
<g id="edge50" class="edge">
<title>NASALib/while@natural&#45;&gt;NASALib/while@Stm</title>
<path fill="none" stroke="black" d="M164.07,-380.34C161.17,-354.48 156,-308.5 156,-308.5 156,-308.5 153.41,-296.02 150.74,-283.17"/>
<polygon fill="black" stroke="black" points="154,-282.64 148.54,-273.56 147.15,-284.06 154,-282.64"/>
</g>
<!-- NASALib/while@natural&#45;&gt;NASALib/while@continuation -->
<g id="edge51" class="edge">
<title>NASALib/while@natural&#45;&gt;NASALib/while@continuation</title>
<path fill="none" stroke="black" d="M182.49,-382.31C192.4,-373.19 205.21,-361.38 216.41,-351.07"/>
<polygon fill="black" stroke="black" points="218.23,-354.23 223.22,-344.88 213.49,-349.08 218.23,-354.23"/>
</g>
<!-- NASALib/while@natural&#45;&gt;NASALib/while@sos -->
<g id="edge52" class="edge">
<title>NASALib/while@natural&#45;&gt;NASALib/while@sos</title>
<path fill="none" stroke="black" d="M155.1,-380.91C149.52,-372.42 142.61,-361.91 136.41,-352.46"/>
<polygon fill="black" stroke="black" points="138.92,-350.92 130.51,-344.49 133.07,-354.77 138.92,-350.92"/>
</g>
<!-- NASALib/while@sos&#45;&gt;NASALib/while@AExp -->
<g id="edge53" class="edge">
<title>NASALib/while@sos&#45;&gt;NASALib/while@AExp</title>
<path fill="none" stroke="black" d="M113.71,-308.55C106.01,-287.84 94,-255.5 94,-255.5"/>
<path fill="none" stroke="black" d="M94,-253.5C94,-253.5 94,-179 94,-179"/>
<path fill="none" stroke="black" d="M94,-177C94,-177 104,-152 104,-152 104,-152 108.06,-143.31 112.6,-133.57"/>
<polygon fill="black" stroke="black" points="116.12,-135.3 117.18,-124.76 109.78,-132.34 116.12,-135.3"/>
</g>
<!-- NASALib/while@sos&#45;&gt;NASALib/while@BExp -->
<g id="edge54" class="edge">
<title>NASALib/while@sos&#45;&gt;NASALib/while@BExp</title>
<path fill="none" stroke="black" d="M94,-253.5C94,-253.5 113.09,-225.61 127.91,-203.96"/>
<polygon fill="black" stroke="black" points="131.17,-206.39 133.93,-196.17 125.4,-202.44 131.17,-206.39"/>
</g>
<!-- NASALib/while@sos&#45;&gt;NASALib/while@Cont -->
<g id="edge55" class="edge">
<title>NASALib/while@sos&#45;&gt;NASALib/while@Cont</title>
<path fill="none" stroke="black" d="M139.92,-313.78C158.85,-302.65 187.57,-285.75 209.23,-273.01"/>
<polygon fill="black" stroke="black" points="210.77,-275.58 217.62,-267.49 207.22,-269.54 210.77,-275.58"/>
</g>
<!-- NASALib/while@sos&#45;&gt;NASALib/while@State -->
<g id="edge56" class="edge">
<title>NASALib/while@sos&#45;&gt;NASALib/while@State</title>
<path fill="none" stroke="black" d="M94,-177C94,-177 74,-107 74,-107"/>
</g>
<!-- NASALib/while@sos&#45;&gt;NASALib/while@Stm -->
<g id="edge57" class="edge">
<title>NASALib/while@sos&#45;&gt;NASALib/while@Stm</title>
<path fill="none" stroke="black" d="M126.05,-308.55C128.85,-300.73 132.23,-291.25 135.37,-282.48"/>
<polygon fill="black" stroke="black" points="138.94,-283.88 139,-273.29 132.34,-281.53 138.94,-283.88"/>
</g>
</g>
</svg>
