<?xml version="1.0" encoding="UTF-8" standalone="no"?>
<!DOCTYPE svg PUBLIC "-//W3C//DTD SVG 1.1//EN"
 "http://www.w3.org/Graphics/SVG/1.1/DTD/svg11.dtd">
<!-- Generated by graphviz version 7.0.6 (20230106.0513)
 -->
<!-- Title: while&#45;zoomed Pages: 1 -->
<svg width="752pt" height="462pt"
 viewBox="0.00 0.00 752.00 462.00" xmlns="http://www.w3.org/2000/svg" xmlns:xlink="http://www.w3.org/1999/xlink">
<g id="graph0" class="graph" transform="scale(1 1) rotate(0) translate(4 458)">
<title>while&#45;zoomed</title>
<polygon fill="white" stroke="none" points="-4,4 -4,-458 748,-458 748,4 -4,4"/>
<g id="clust1" class="cluster">
<title>cluster_NASALib</title>
<polygon fill="none" stroke="black" points="594,-152 594,-227 736,-227 736,-152 594,-152"/>
<text text-anchor="middle" x="665" y="-211.8" font-family="Times,serif" font-size="14.00">NASALib</text>
</g>
<g id="clust2" class="cluster">
<title>cluster_NASALib/while</title>
<polygon fill="none" stroke="black" points="8,-8 8,-446 586,-446 586,-8 8,-8"/>
<text text-anchor="middle" x="297" y="-430.8" font-family="Times,serif" font-size="14.00">NASALib/while</text>
</g>
<!-- NASALib/orders -->
<g id="node1" class="node">
<title>NASALib/orders</title>
<polygon fill="#fcfcd7" stroke="black" points="656,-196 602,-196 602,-160 656,-160 656,-196"/>
<text text-anchor="middle" x="629" y="-174.3" font-family="Times,serif" font-size="14.00">orders</text>
</g>
<!-- NASALib/scott -->
<g id="node2" class="node">
<title>NASALib/scott</title>
<polygon fill="#fcfcd7" stroke="black" points="728,-196 674,-196 674,-160 728,-160 728,-196"/>
<text text-anchor="middle" x="701" y="-174.3" font-family="Times,serif" font-size="14.00">scott</text>
</g>
<!-- NASALib/while@AExp -->
<g id="node3" class="node">
<title>NASALib/while@AExp</title>
<ellipse fill="#e6f3ff" stroke="black" cx="119" cy="-106" rx="31.4" ry="18"/>
<text text-anchor="middle" x="119" y="-102.3" font-family="Times,serif" font-size="14.00">AExp</text>
</g>
<!-- NASALib/while@State -->
<g id="node7" class="node">
<title>NASALib/while@State</title>
<ellipse fill="#e6f3ff" stroke="black" cx="119" cy="-34" rx="28.7" ry="18"/>
<text text-anchor="middle" x="119" y="-30.3" font-family="Times,serif" font-size="14.00">State</text>
</g>
<!-- NASALib/while@AExp&#45;&gt;NASALib/while@State -->
<g id="edge1" class="edge">
<title>NASALib/while@AExp&#45;&gt;NASALib/while@State</title>
<path fill="none" stroke="black" d="M119,-87.7C119,-80.41 119,-71.73 119,-63.54"/>
<polygon fill="black" stroke="black" points="122.5,-63.62 119,-53.62 115.5,-63.62 122.5,-63.62"/>
</g>
<!-- NASALib/while@BExp -->
<g id="node4" class="node">
<title>NASALib/while@BExp</title>
<ellipse fill="#e6f3ff" stroke="black" cx="139" cy="-178" rx="30.59" ry="18"/>
<text text-anchor="middle" x="139" y="-174.3" font-family="Times,serif" font-size="14.00">BExp</text>
</g>
<!-- NASALib/while@BExp&#45;&gt;NASALib/while@AExp -->
<g id="edge2" class="edge">
<title>NASALib/while@BExp&#45;&gt;NASALib/while@AExp</title>
<path fill="none" stroke="black" d="M134.16,-160.05C132.03,-152.6 129.47,-143.64 127.06,-135.22"/>
<polygon fill="black" stroke="black" points="130.46,-134.38 124.35,-125.73 123.73,-136.31 130.46,-134.38"/>
</g>
<!-- NASALib/while@BExp&#45;&gt;NASALib/while@State -->
<g id="edge3" class="edge">
<title>NASALib/while@BExp&#45;&gt;NASALib/while@State</title>
<path fill="none" stroke="black" d="M122.6,-162.52C104.84,-146.83 79,-124 79,-124 79,-124 69,-107 69,-107"/>
</g>
<!-- NASALib/while@Cont -->
<g id="node5" class="node">
<title>NASALib/while@Cont</title>
<ellipse fill="#e6f3ff" stroke="black" cx="232" cy="-253" rx="27.9" ry="18"/>
<text text-anchor="middle" x="232" y="-249.3" font-family="Times,serif" font-size="14.00">Cont</text>
</g>
<!-- NASALib/while@Cont&#45;&gt;NASALib/orders -->
<g id="edge4" class="edge">
<title>NASALib/while@Cont&#45;&gt;NASALib/orders</title>
<path fill="none" stroke="black" d="M254.97,-242.7C264.77,-238.74 274,-235 274,-235 274,-235 590,-227 590,-227 590,-227 598.56,-216.46 607.66,-205.26"/>
<polygon fill="black" stroke="black" points="610.38,-207.47 613.97,-197.5 604.94,-203.06 610.38,-207.47"/>
</g>
<!-- NASALib/while@Cont&#45;&gt;NASALib/scott -->
<g id="edge5" class="edge">
<title>NASALib/while@Cont&#45;&gt;NASALib/scott</title>
<path fill="none" stroke="black" d="M254.97,-242.7C264.77,-238.74 274,-235 274,-235 274,-235 665,-227 665,-227 665,-227 672.9,-216.46 681.3,-205.26"/>
<polygon fill="black" stroke="black" points="683.9,-207.64 687.1,-197.54 678.3,-203.44 683.9,-207.64"/>
</g>
<!-- NASALib/while@Cont&#45;&gt;NASALib/while@State -->
<g id="edge6" class="edge">
<title>NASALib/while@Cont&#45;&gt;NASALib/while@State</title>
<path fill="none" stroke="black" d="M234.85,-234.8C241.2,-196.39 256,-107 256,-107"/>
</g>
<!-- NASALib/while@Instruction -->
<g id="node6" class="node">
<title>NASALib/while@Instruction</title>
<ellipse fill="#e6f3ff" stroke="black" cx="367" cy="-253" rx="48.99" ry="18"/>
<text text-anchor="middle" x="367" y="-249.3" font-family="Times,serif" font-size="14.00">Instruction</text>
</g>
<!-- NASALib/while@Stm -->
<g id="node8" class="node">
<title>NASALib/while@Stm</title>
<ellipse fill="#e6f3ff" stroke="black" cx="139" cy="-253" rx="27" ry="18"/>
<text text-anchor="middle" x="139" y="-249.3" font-family="Times,serif" font-size="14.00">Stm</text>
</g>
<!-- NASALib/while@Stm&#45;&gt;NASALib/while@AExp -->
<g id="edge7" class="edge">
<title>NASALib/while@Stm&#45;&gt;NASALib/while@AExp</title>
<path fill="none" stroke="black" d="M158.06,-240.09C168.37,-233.65 179,-227 179,-227 179,-227 179,-152 179,-152 179,-152 162.42,-139.56 146.69,-127.77"/>
<polygon fill="black" stroke="black" points="148.97,-125.1 138.87,-121.9 144.77,-130.7 148.97,-125.1"/>
</g>
<!-- NASALib/while@Stm&#45;&gt;NASALib/while@BExp -->
<g id="edge8" class="edge">
<title>NASALib/while@Stm&#45;&gt;NASALib/while@BExp</title>
<path fill="none" stroke="black" d="M139,-234.7C139,-226.67 139,-216.9 139,-207.8"/>
<polygon fill="black" stroke="black" points="142.5,-207.94 139,-197.94 135.5,-207.94 142.5,-207.94"/>
</g>
<!-- NASALib/while@am -->
<g id="node9" class="node">
<title>NASALib/while@am</title>
<ellipse fill="#e6f3ff" stroke="black" cx="435" cy="-325" rx="27" ry="18"/>
<text text-anchor="middle" x="435" y="-321.3" font-family="Times,serif" font-size="14.00">am</text>
</g>
<!-- NASALib/while@am&#45;&gt;NASALib/while@Cont -->
<g id="edge9" class="edge">
<title>NASALib/while@am&#45;&gt;NASALib/while@Cont</title>
<path fill="none" stroke="black" d="M413.23,-313.72C405.65,-310.14 399,-307 399,-307 399,-307 274,-271 274,-271 274,-271 270.4,-269.54 265.3,-267.48"/>
<polygon fill="black" stroke="black" points="266.95,-264.37 256.37,-263.86 264.33,-270.86 266.95,-264.37"/>
</g>
<!-- NASALib/while@am&#45;&gt;NASALib/while@Instruction -->
<g id="edge10" class="edge">
<title>NASALib/while@am&#45;&gt;NASALib/while@Instruction</title>
<path fill="none" stroke="black" d="M420.91,-309.5C412.28,-300.61 401,-289 391,-278.7"/>
<polygon fill="black" stroke="black" points="393.51,-276.27 384.03,-271.53 388.49,-281.15 393.51,-276.27"/>
</g>
<!-- NASALib/while@am&#45;&gt;NASALib/while@State -->
<g id="edge11" class="edge">
<title>NASALib/while@am&#45;&gt;NASALib/while@State</title>
<path fill="none" stroke="black" d="M413.23,-313.72C405.65,-310.14 399,-307 399,-307 399,-307 309,-271 309,-271 309,-271 271,-152 271,-152 271,-152 256,-107 256,-107"/>
</g>
<!-- NASALib/while@list_props_aux -->
<g id="node17" class="node">
<title>NASALib/while@list_props_aux</title>
<ellipse fill="#e6f3ff" stroke="black" cx="496" cy="-253" rx="62.29" ry="18"/>
<text text-anchor="middle" x="496" y="-249.3" font-family="Times,serif" font-size="14.00">list_props_aux</text>
</g>
<!-- NASALib/while@am&#45;&gt;NASALib/while@list_props_aux -->
<g id="edge12" class="edge">
<title>NASALib/while@am&#45;&gt;NASALib/while@list_props_aux</title>
<path fill="none" stroke="black" d="M448.24,-308.81C455.75,-300.19 465.34,-289.18 473.96,-279.29"/>
<polygon fill="black" stroke="black" points="476.58,-281.61 480.52,-271.77 471.31,-277.01 476.58,-281.61"/>
</g>
<!-- NASALib/while@axiomatic -->
<g id="node10" class="node">
<title>NASALib/while@axiomatic</title>
<ellipse fill="#e6f3ff" stroke="black" cx="62" cy="-397" rx="46.29" ry="18"/>
<text text-anchor="middle" x="62" y="-393.3" font-family="Times,serif" font-size="14.00">axiomatic</text>
</g>
<!-- NASALib/while@axiomatic&#45;&gt;NASALib/while@AExp -->
<g id="edge13" class="edge">
<title>NASALib/while@axiomatic&#45;&gt;NASALib/while@AExp</title>
<path fill="none" stroke="black" d="M49,-177C49,-177 64,-152 64,-152 64,-152 78.73,-139.95 92.95,-128.31"/>
<polygon fill="black" stroke="black" points="94.9,-131.24 100.43,-122.2 90.47,-125.82 94.9,-131.24"/>
</g>
<!-- NASALib/while@axiomatic&#45;&gt;NASALib/while@BExp -->
<g id="edge14" class="edge">
<title>NASALib/while@axiomatic&#45;&gt;NASALib/while@BExp</title>
<path fill="none" stroke="black" d="M49,-252C49,-252 64,-235 64,-235 64,-235 94,-227 94,-227 94,-227 105.6,-214.62 117.03,-202.44"/>
<polygon fill="black" stroke="black" points="119.44,-204.98 123.73,-195.29 114.33,-200.19 119.44,-204.98"/>
</g>
<!-- NASALib/while@axiomatic&#45;&gt;NASALib/while@State -->
<g id="edge15" class="edge">
<title>NASALib/while@axiomatic&#45;&gt;NASALib/while@State</title>
<path fill="none" stroke="black" d="M49,-177C49,-177 69,-107 69,-107"/>
<path fill="none" stroke="black" d="M49,-252C49,-252 49,-179 49,-179"/>
<path fill="none" stroke="black" d="M49,-324C49,-324 49,-254 49,-254"/>
<path fill="none" stroke="black" d="M69,-105C69,-105 79,-88 79,-88 79,-88 90.05,-73.36 100.53,-59.47"/>
<polygon fill="black" stroke="black" points="103.07,-61.91 106.3,-51.82 97.49,-57.7 103.07,-61.91"/>
<path fill="none" stroke="black" d="M58.79,-378.7C54.94,-357.97 49,-326 49,-326"/>
</g>
<!-- NASALib/while@axiomatic&#45;&gt;NASALib/while@Stm -->
<g id="edge16" class="edge">
<title>NASALib/while@axiomatic&#45;&gt;NASALib/while@Stm</title>
<path fill="none" stroke="black" d="M49,-324C49,-324 86.61,-294.75 113.2,-274.06"/>
<polygon fill="black" stroke="black" points="115.13,-277 120.88,-268.1 110.83,-271.47 115.13,-277"/>
</g>
<!-- NASALib/while@sos -->
<g id="node19" class="node">
<title>NASALib/while@sos</title>
<ellipse fill="#e6f3ff" stroke="black" cx="115" cy="-325" rx="27" ry="18"/>
<text text-anchor="middle" x="115" y="-321.3" font-family="Times,serif" font-size="14.00">sos</text>
</g>
<!-- NASALib/while@axiomatic&#45;&gt;NASALib/while@sos -->
<g id="edge17" class="edge">
<title>NASALib/while@axiomatic&#45;&gt;NASALib/while@sos</title>
<path fill="none" stroke="black" d="M74.56,-379.41C81.08,-370.8 89.17,-360.11 96.4,-350.56"/>
<polygon fill="black" stroke="black" points="99.1,-352.8 102.34,-342.72 93.52,-348.58 99.1,-352.8"/>
</g>
<!-- NASALib/while@bisimulation -->
<g id="node11" class="node">
<title>NASALib/while@bisimulation</title>
<ellipse fill="#e6f3ff" stroke="black" cx="500" cy="-397" rx="55.49" ry="18"/>
<text text-anchor="middle" x="500" y="-393.3" font-family="Times,serif" font-size="14.00">bisimulation</text>
</g>
<!-- NASALib/while@bisimulation&#45;&gt;NASALib/while@am -->
<g id="edge18" class="edge">
<title>NASALib/while@bisimulation&#45;&gt;NASALib/while@am</title>
<path fill="none" stroke="black" d="M484.6,-379.41C476.12,-370.28 465.47,-358.81 456.21,-348.85"/>
<polygon fill="black" stroke="black" points="458.93,-346.63 449.56,-341.68 453.8,-351.39 458.93,-346.63"/>
</g>
<!-- NASALib/while@compiler -->
<g id="node12" class="node">
<title>NASALib/while@compiler</title>
<ellipse fill="#e6f3ff" stroke="black" cx="522" cy="-325" rx="42.49" ry="18"/>
<text text-anchor="middle" x="522" y="-321.3" font-family="Times,serif" font-size="14.00">compiler</text>
</g>
<!-- NASALib/while@bisimulation&#45;&gt;NASALib/while@compiler -->
<g id="edge19" class="edge">
<title>NASALib/while@bisimulation&#45;&gt;NASALib/while@compiler</title>
<path fill="none" stroke="black" d="M505.44,-378.7C507.78,-371.24 510.58,-362.32 513.21,-353.97"/>
<polygon fill="black" stroke="black" points="516.51,-355.14 516.17,-344.55 509.83,-353.04 516.51,-355.14"/>
</g>
<!-- NASALib/while@bisimulation&#45;&gt;NASALib/while@sos -->
<g id="edge20" class="edge">
<title>NASALib/while@bisimulation&#45;&gt;NASALib/while@sos</title>
<path fill="none" stroke="black" d="M457.73,-384.95C445.32,-381.7 435,-379 435,-379 435,-379 171,-343 171,-343 171,-343 161.52,-340.12 150.36,-336.73"/>
<polygon fill="black" stroke="black" points="151.43,-333.4 140.85,-333.85 149.4,-340.1 151.43,-333.4"/>
</g>
<!-- NASALib/while@compiler&#45;&gt;NASALib/while@AExp -->
<g id="edge21" class="edge">
<title>NASALib/while@compiler&#45;&gt;NASALib/while@AExp</title>
<path fill="none" stroke="black" d="M577,-252C577,-252 567,-235 567,-235 567,-235 266.04,-149.01 157.47,-117.99"/>
<polygon fill="black" stroke="black" points="158.72,-114.71 148.14,-115.33 156.8,-121.44 158.72,-114.71"/>
</g>
<!-- NASALib/while@compiler&#45;&gt;NASALib/while@BExp -->
<g id="edge22" class="edge">
<title>NASALib/while@compiler&#45;&gt;NASALib/while@BExp</title>
<path fill="none" stroke="black" d="M535.99,-307.52C549.2,-291.96 567,-271 567,-271 567,-271 577,-254 577,-254"/>
<path fill="none" stroke="black" d="M577,-252C577,-252 567,-235 567,-235 567,-235 221,-227 221,-227 221,-227 193.24,-210.75 170.02,-197.16"/>
<polygon fill="black" stroke="black" points="171.82,-194.16 161.42,-192.13 168.29,-200.2 171.82,-194.16"/>
</g>
<!-- NASALib/while@compiler&#45;&gt;NASALib/while@Instruction -->
<g id="edge23" class="edge">
<title>NASALib/while@compiler&#45;&gt;NASALib/while@Instruction</title>
<path fill="none" stroke="black" d="M493.57,-311.16C469.42,-300.25 434.47,-284.47 407.42,-272.25"/>
<polygon fill="black" stroke="black" points="409.03,-269.14 398.48,-268.22 406.15,-275.52 409.03,-269.14"/>
</g>
<!-- NASALib/while@compiler&#45;&gt;NASALib/while@Stm -->
<g id="edge24" class="edge">
<title>NASALib/while@compiler&#45;&gt;NASALib/while@Stm</title>
<path fill="none" stroke="black" d="M489.41,-313.14C479.42,-309.81 471,-307 471,-307 471,-307 180,-271 180,-271 180,-271 176.65,-269.61 171.88,-267.63"/>
<polygon fill="black" stroke="black" points="173.4,-264.47 162.82,-263.88 170.71,-270.94 173.4,-264.47"/>
</g>
<!-- NASALib/while@compiler&#45;&gt;NASALib/while@list_props_aux -->
<g id="edge25" class="edge">
<title>NASALib/while@compiler&#45;&gt;NASALib/while@list_props_aux</title>
<path fill="none" stroke="black" d="M515.71,-307.05C512.91,-299.52 509.53,-290.44 506.38,-281.94"/>
<polygon fill="black" stroke="black" points="509.71,-280.85 502.94,-272.69 503.14,-283.29 509.71,-280.85"/>
</g>
<!-- NASALib/while@congruence -->
<g id="node13" class="node">
<title>NASALib/while@congruence</title>
<ellipse fill="#e6f3ff" stroke="black" cx="375" cy="-397" rx="51.19" ry="18"/>
<text text-anchor="middle" x="375" y="-393.3" font-family="Times,serif" font-size="14.00">congruence</text>
</g>
<!-- NASALib/while@congruence&#45;&gt;NASALib/orders -->
<g id="edge26" class="edge">
<title>NASALib/while@congruence&#45;&gt;NASALib/orders</title>
<path fill="none" stroke="black" d="M414.32,-385.04C426.13,-381.75 436,-379 436,-379 436,-379 573,-343 573,-343 573,-343 701,-254 701,-254"/>
<path fill="none" stroke="black" d="M701,-252C701,-252 665,-227 665,-227 665,-227 657.1,-216.46 648.7,-205.26"/>
<polygon fill="black" stroke="black" points="651.7,-203.44 642.9,-197.54 646.1,-207.64 651.7,-203.44"/>
</g>
<!-- NASALib/while@congruence&#45;&gt;NASALib/scott -->
<g id="edge27" class="edge">
<title>NASALib/while@congruence&#45;&gt;NASALib/scott</title>
<path fill="none" stroke="black" d="M701,-252C701,-252 701,-228.16 701,-207.73"/>
<polygon fill="black" stroke="black" points="704.5,-207.81 701,-197.81 697.5,-207.81 704.5,-207.81"/>
</g>
<!-- NASALib/while@continuation -->
<g id="node14" class="node">
<title>NASALib/while@continuation</title>
<ellipse fill="#e6f3ff" stroke="black" cx="235" cy="-325" rx="54.69" ry="18"/>
<text text-anchor="middle" x="235" y="-321.3" font-family="Times,serif" font-size="14.00">continuation</text>
</g>
<!-- NASALib/while@congruence&#45;&gt;NASALib/while@continuation -->
<g id="edge28" class="edge">
<title>NASALib/while@congruence&#45;&gt;NASALib/while@continuation</title>
<path fill="none" stroke="black" d="M346.33,-381.67C325.52,-371.26 297.11,-357.06 274.2,-345.6"/>
<polygon fill="black" stroke="black" points="275.97,-342.57 265.47,-341.23 272.84,-348.84 275.97,-342.57"/>
</g>
<!-- NASALib/while@direct -->
<g id="node15" class="node">
<title>NASALib/while@direct</title>
<ellipse fill="#e6f3ff" stroke="black" cx="359" cy="-325" rx="30.59" ry="18"/>
<text text-anchor="middle" x="359" y="-321.3" font-family="Times,serif" font-size="14.00">direct</text>
</g>
<!-- NASALib/while@congruence&#45;&gt;NASALib/while@direct -->
<g id="edge29" class="edge">
<title>NASALib/while@congruence&#45;&gt;NASALib/while@direct</title>
<path fill="none" stroke="black" d="M371.04,-378.7C369.36,-371.32 367.35,-362.52 365.46,-354.25"/>
<polygon fill="black" stroke="black" points="368.89,-353.55 363.25,-344.58 362.06,-355.11 368.89,-353.55"/>
</g>
<!-- NASALib/while@continuation&#45;&gt;NASALib/scott -->
<g id="edge30" class="edge">
<title>NASALib/while@continuation&#45;&gt;NASALib/scott</title>
<path fill="none" stroke="black" d="M606,-252C606,-252 665,-227 665,-227 665,-227 672.9,-216.46 681.3,-205.26"/>
<polygon fill="black" stroke="black" points="683.9,-207.64 687.1,-197.54 678.3,-203.44 683.9,-207.64"/>
<path fill="none" stroke="black" d="M280.44,-314.8C300.23,-310.8 319,-307 319,-307 319,-307 567,-271 567,-271 567,-271 606,-254 606,-254"/>
</g>
<!-- NASALib/while@continuation&#45;&gt;NASALib/while@AExp -->
<g id="edge31" class="edge">
<title>NASALib/while@continuation&#45;&gt;NASALib/while@AExp</title>
<path fill="none" stroke="black" d="M226,-177C226,-177 180.11,-146.98 148.43,-126.26"/>
<polygon fill="black" stroke="black" points="150.68,-123.54 140.39,-121 146.84,-129.4 150.68,-123.54"/>
<path fill="none" stroke="black" d="M185,-252C185,-252 226,-179 226,-179"/>
</g>
<!-- NASALib/while@continuation&#45;&gt;NASALib/while@BExp -->
<g id="edge32" class="edge">
<title>NASALib/while@continuation&#45;&gt;NASALib/while@BExp</title>
<path fill="none" stroke="black" d="M185,-252C185,-252 175,-235 175,-235 175,-235 164.94,-219.35 155.45,-204.59"/>
<polygon fill="black" stroke="black" points="158.58,-202.99 150.23,-196.47 152.69,-206.78 158.58,-202.99"/>
<path fill="none" stroke="black" d="M222.34,-307.23C210.62,-291.7 195,-271 195,-271 195,-271 185,-254 185,-254"/>
</g>
<!-- NASALib/while@continuation&#45;&gt;NASALib/while@Cont -->
<g id="edge33" class="edge">
<title>NASALib/while@continuation&#45;&gt;NASALib/while@Cont</title>
<path fill="none" stroke="black" d="M234.26,-306.7C233.95,-299.41 233.57,-290.73 233.22,-282.54"/>
<polygon fill="black" stroke="black" points="236.72,-282.46 232.8,-272.62 229.73,-282.76 236.72,-282.46"/>
</g>
<!-- NASALib/while@continuation&#45;&gt;NASALib/while@State -->
<g id="edge34" class="edge">
<title>NASALib/while@continuation&#45;&gt;NASALib/while@State</title>
<path fill="none" stroke="black" d="M226,-177C226,-177 233,-152 233,-152 233,-152 256,-107 256,-107"/>
<path fill="none" stroke="black" d="M256,-105C256,-105 191.4,-71.99 150.92,-51.31"/>
<polygon fill="black" stroke="black" points="152.55,-48.21 142.06,-46.78 149.37,-54.45 152.55,-48.21"/>
</g>
<!-- NASALib/while@continuation&#45;&gt;NASALib/while@Stm -->
<g id="edge35" class="edge">
<title>NASALib/while@continuation&#45;&gt;NASALib/while@Stm</title>
<path fill="none" stroke="black" d="M213.22,-308.12C199.24,-297.92 180.98,-284.61 166.08,-273.74"/>
<polygon fill="black" stroke="black" points="168.21,-270.97 158.07,-267.9 164.08,-276.62 168.21,-270.97"/>
</g>
<!-- NASALib/while@direct&#45;&gt;NASALib/scott -->
<g id="edge36" class="edge">
<title>NASALib/while@direct&#45;&gt;NASALib/scott</title>
<path fill="none" stroke="black" d="M383.19,-313.72C391.61,-310.14 399,-307 399,-307 399,-307 567,-271 567,-271 567,-271 606,-254 606,-254"/>
</g>
<!-- NASALib/while@direct&#45;&gt;NASALib/while@AExp -->
<g id="edge37" class="edge">
<title>NASALib/while@direct&#45;&gt;NASALib/while@AExp</title>
<path fill="none" stroke="black" d="M266,-177C266,-177 231,-152 231,-152 231,-152 187.54,-134.54 154.76,-121.37"/>
<polygon fill="black" stroke="black" points="156.12,-118.14 145.54,-117.66 153.51,-124.64 156.12,-118.14"/>
<path fill="none" stroke="black" d="M279,-252C279,-252 266,-179 266,-179"/>
</g>
<!-- NASALib/while@direct&#45;&gt;NASALib/while@BExp -->
<g id="edge38" class="edge">
<title>NASALib/while@direct&#45;&gt;NASALib/while@BExp</title>
<path fill="none" stroke="black" d="M279,-252C279,-252 269,-235 269,-235 269,-235 221,-227 221,-227 221,-227 193.24,-210.75 170.02,-197.16"/>
<polygon fill="black" stroke="black" points="171.82,-194.16 161.42,-192.13 168.29,-200.2 171.82,-194.16"/>
<path fill="none" stroke="black" d="M341.58,-309.8C322.33,-294.1 294,-271 294,-271 294,-271 279,-254 279,-254"/>
</g>
<!-- NASALib/while@direct&#45;&gt;NASALib/while@Cont -->
<g id="edge39" class="edge">
<title>NASALib/while@direct&#45;&gt;NASALib/while@Cont</title>
<path fill="none" stroke="black" d="M337.17,-311.97C316.63,-300.64 285.67,-283.58 262.66,-270.9"/>
<polygon fill="black" stroke="black" points="264.48,-267.91 254.03,-266.14 261.1,-274.04 264.48,-267.91"/>
</g>
<!-- NASALib/while@direct&#45;&gt;NASALib/while@State -->
<g id="edge40" class="edge">
<title>NASALib/while@direct&#45;&gt;NASALib/while@State</title>
<path fill="none" stroke="black" d="M266,-177C266,-177 256,-107 256,-107"/>
</g>
<!-- NASALib/while@direct&#45;&gt;NASALib/while@Stm -->
<g id="edge41" class="edge">
<title>NASALib/while@direct&#45;&gt;NASALib/while@Stm</title>
<path fill="none" stroke="black" d="M332.2,-316.07C282.27,-301.28 180,-271 180,-271 180,-271 176.65,-269.61 171.88,-267.63"/>
<polygon fill="black" stroke="black" points="173.4,-264.47 162.82,-263.88 170.71,-270.94 173.4,-264.47"/>
</g>
<!-- NASALib/while@direct_sos -->
<g id="node16" class="node">
<title>NASALib/while@direct_sos</title>
<ellipse fill="#e6f3ff" stroke="black" cx="260" cy="-397" rx="46.29" ry="18"/>
<text text-anchor="middle" x="260" y="-393.3" font-family="Times,serif" font-size="14.00">direct_sos</text>
</g>
<!-- NASALib/while@direct_sos&#45;&gt;NASALib/while@Cont -->
<g id="edge42" class="edge">
<title>NASALib/while@direct_sos&#45;&gt;NASALib/while@Cont</title>
<path fill="none" stroke="black" d="M272.34,-379.23C283.77,-363.7 299,-343 299,-343 299,-343 309,-326 309,-326"/>
</g>
<!-- NASALib/while@direct_sos&#45;&gt;NASALib/while@continuation -->
<g id="edge43" class="edge">
<title>NASALib/while@direct_sos&#45;&gt;NASALib/while@continuation</title>
<path fill="none" stroke="black" d="M253.82,-378.7C251.13,-371.15 247.9,-362.12 244.89,-353.68"/>
<polygon fill="black" stroke="black" points="248.28,-352.77 241.62,-344.53 241.69,-355.12 248.28,-352.77"/>
</g>
<!-- NASALib/while@direct_sos&#45;&gt;NASALib/while@direct -->
<g id="edge44" class="edge">
<title>NASALib/while@direct_sos&#45;&gt;NASALib/while@direct</title>
<path fill="none" stroke="black" d="M281.48,-380.81C295.89,-370.62 315.03,-357.09 330.68,-346.02"/>
<polygon fill="black" stroke="black" points="332.52,-349.01 338.67,-340.38 328.48,-343.29 332.52,-349.01"/>
</g>
<!-- NASALib/while@direct_sos&#45;&gt;NASALib/while@sos -->
<g id="edge45" class="edge">
<title>NASALib/while@direct_sos&#45;&gt;NASALib/while@sos</title>
<path fill="none" stroke="black" d="M231.7,-382.34C207.18,-370.5 171.75,-353.4 146.37,-341.15"/>
<polygon fill="black" stroke="black" points="148.06,-338.08 137.54,-336.88 145.02,-344.38 148.06,-338.08"/>
</g>
<!-- NASALib/while@natural -->
<g id="node18" class="node">
<title>NASALib/while@natural</title>
<ellipse fill="#e6f3ff" stroke="black" cx="161" cy="-397" rx="35.19" ry="18"/>
<text text-anchor="middle" x="161" y="-393.3" font-family="Times,serif" font-size="14.00">natural</text>
</g>
<!-- NASALib/while@natural&#45;&gt;NASALib/while@AExp -->
<g id="edge46" class="edge">
<title>NASALib/while@natural&#45;&gt;NASALib/while@AExp</title>
<path fill="none" stroke="black" d="M69,-177C69,-177 84,-152 84,-152 84,-152 91.48,-142.38 99.52,-132.04"/>
<polygon fill="black" stroke="black" points="102.26,-134.23 105.63,-124.19 96.73,-129.93 102.26,-134.23"/>
<path fill="none" stroke="black" d="M69,-252C69,-252 69,-179 69,-179"/>
<path fill="none" stroke="black" d="M139.88,-382.35C115.59,-366.65 79,-343 79,-343 79,-343 69,-254 69,-254"/>
</g>
<!-- NASALib/while@natural&#45;&gt;NASALib/while@BExp -->
<g id="edge47" class="edge">
<title>NASALib/while@natural&#45;&gt;NASALib/while@BExp</title>
<path fill="none" stroke="black" d="M69,-252C69,-252 84,-235 84,-235 84,-235 94,-227 94,-227 94,-227 105.6,-214.62 117.03,-202.44"/>
<polygon fill="black" stroke="black" points="119.44,-204.98 123.73,-195.29 114.33,-200.19 119.44,-204.98"/>
</g>
<!-- NASALib/while@natural&#45;&gt;NASALib/while@Cont -->
<g id="edge48" class="edge">
<title>NASALib/while@natural&#45;&gt;NASALib/while@Cont</title>
<path fill="none" stroke="black" d="M309,-324C309,-324 299,-307 299,-307 299,-307 276.92,-289.54 258.11,-274.66"/>
<polygon fill="black" stroke="black" points="260.46,-272.05 250.44,-268.59 256.11,-277.54 260.46,-272.05"/>
<path fill="none" stroke="black" d="M188.62,-385.33C197.46,-381.91 205,-379 205,-379 205,-379 299,-343 299,-343 299,-343 309,-326 309,-326"/>
</g>
<!-- NASALib/while@natural&#45;&gt;NASALib/while@State -->
<g id="edge49" class="edge">
<title>NASALib/while@natural&#45;&gt;NASALib/while@State</title>
<path fill="none" stroke="black" d="M69,-177C69,-177 69,-107 69,-107"/>
</g>
<!-- NASALib/while@natural&#45;&gt;NASALib/while@Stm -->
<g id="edge50" class="edge">
<title>NASALib/while@natural&#45;&gt;NASALib/while@Stm</title>
<path fill="none" stroke="black" d="M159.07,-378.84C156.17,-352.98 151,-307 151,-307 151,-307 148.23,-294.77 145.35,-282.06"/>
<polygon fill="black" stroke="black" points="148.82,-281.52 143.2,-272.54 141.99,-283.06 148.82,-281.52"/>
</g>
<!-- NASALib/while@natural&#45;&gt;NASALib/while@continuation -->
<g id="edge51" class="edge">
<title>NASALib/while@natural&#45;&gt;NASALib/while@continuation</title>
<path fill="none" stroke="black" d="M177.06,-380.81C186.52,-371.86 198.7,-360.34 209.45,-350.17"/>
<polygon fill="black" stroke="black" points="211.72,-352.83 216.58,-343.42 206.91,-347.75 211.72,-352.83"/>
</g>
<!-- NASALib/while@natural&#45;&gt;NASALib/while@sos -->
<g id="edge52" class="edge">
<title>NASALib/while@natural&#45;&gt;NASALib/while@sos</title>
<path fill="none" stroke="black" d="M150.1,-379.41C144.64,-371.1 137.9,-360.85 131.79,-351.56"/>
<polygon fill="black" stroke="black" points="134.75,-349.69 126.34,-343.25 128.9,-353.53 134.75,-349.69"/>
</g>
<!-- NASALib/while@sos&#45;&gt;NASALib/while@AExp -->
<g id="edge53" class="edge">
<title>NASALib/while@sos&#45;&gt;NASALib/while@AExp</title>
<path fill="none" stroke="black" d="M108.71,-307.05C101.01,-286.34 89,-254 89,-254"/>
<path fill="none" stroke="black" d="M89,-252C89,-252 89,-179 89,-179"/>
<path fill="none" stroke="black" d="M89,-177C89,-177 99,-152 99,-152 99,-152 102.7,-143.67 106.92,-134.17"/>
<polygon fill="black" stroke="black" points="110.07,-135.7 110.94,-125.14 103.68,-132.86 110.07,-135.7"/>
</g>
<!-- NASALib/while@sos&#45;&gt;NASALib/while@BExp -->
<g id="edge54" class="edge">
<title>NASALib/while@sos&#45;&gt;NASALib/while@BExp</title>
<path fill="none" stroke="black" d="M89,-252C89,-252 107.02,-225.7 121.42,-204.67"/>
<polygon fill="black" stroke="black" points="124.28,-206.68 127.05,-196.45 118.51,-202.72 124.28,-206.68"/>
</g>
<!-- NASALib/while@sos&#45;&gt;NASALib/while@Cont -->
<g id="edge55" class="edge">
<title>NASALib/while@sos&#45;&gt;NASALib/while@Cont</title>
<path fill="none" stroke="black" d="M134.58,-312.28C153.03,-301.25 180.93,-284.55 202.15,-271.86"/>
<polygon fill="black" stroke="black" points="203.88,-274.9 210.66,-266.77 200.28,-268.9 203.88,-274.9"/>
</g>
<!-- NASALib/while@sos&#45;&gt;NASALib/while@State -->
<g id="edge56" class="edge">
<title>NASALib/while@sos&#45;&gt;NASALib/while@State</title>
<path fill="none" stroke="black" d="M89,-177C89,-177 69,-107 69,-107"/>
</g>
<!-- NASALib/while@sos&#45;&gt;NASALib/while@Stm -->
<g id="edge57" class="edge">
<title>NASALib/while@sos&#45;&gt;NASALib/while@Stm</title>
<path fill="none" stroke="black" d="M120.81,-307.05C123.43,-299.4 126.6,-290.16 129.55,-281.56"/>
<polygon fill="black" stroke="black" points="132.82,-282.82 132.75,-272.22 126.2,-280.55 132.82,-282.82"/>
</g>
</g>
</svg>
