<?xml version="1.0" encoding="UTF-8" standalone="no"?>
<!DOCTYPE svg PUBLIC "-//W3C//DTD SVG 1.1//EN"
 "http://www.w3.org/Graphics/SVG/1.1/DTD/svg11.dtd">
<!-- Generated by graphviz version 7.0.6 (20230106.0513)
 -->
<!-- Title: while Pages: 1 -->
<svg width="924pt" height="1110pt"
 viewBox="0.00 0.00 924.00 1110.00" xmlns="http://www.w3.org/2000/svg" xmlns:xlink="http://www.w3.org/1999/xlink">
<g id="graph0" class="graph" transform="scale(1 1) rotate(0) translate(4 1106)">
<title>while</title>
<polygon fill="white" stroke="none" points="-4,4 -4,-1106 920,-1106 920,4 -4,4"/>
<g id="clust1" class="cluster">
<title>cluster_NASALib</title>
<polygon fill="none" stroke="black" points="8,-8 8,-1094 812,-1094 812,-8 8,-8"/>
<text text-anchor="middle" x="410" y="-1078.8" font-family="Times,serif" font-size="14.00">NASALib</text>
</g>
<g id="clust2" class="cluster">
<title>cluster_PVS Prelude</title>
<polygon fill="none" stroke="black" points="820,-8 820,-83 908,-83 908,-8 820,-8"/>
<text text-anchor="middle" x="864" y="-67.8" font-family="Times,serif" font-size="14.00">PVS Prelude</text>
</g>
<!-- NASALib/algebra -->
<g id="node1" class="node">
<title>NASALib/algebra</title>
<polygon fill="#fcfcd7" stroke="black" points="167,-919 111,-919 111,-883 167,-883 167,-919"/>
<text text-anchor="middle" x="139" y="-897.3" font-family="Times,serif" font-size="14.00">algebra</text>
</g>
<!-- NASALib/ints -->
<g id="node4" class="node">
<title>NASALib/ints</title>
<polygon fill="#fcfcd7" stroke="black" points="98,-52 44,-52 44,-16 98,-16 98,-52"/>
<text text-anchor="middle" x="71" y="-30.3" font-family="Times,serif" font-size="14.00">ints</text>
</g>
<!-- NASALib/algebra&#45;&gt;NASALib/ints -->
<g id="edge1" class="edge">
<title>NASALib/algebra&#45;&gt;NASALib/ints</title>
<path fill="none" stroke="black" d="M17,-108C17,-108 27,-91 27,-91 27,-91 38.93,-75.81 50.37,-61.25"/>
<polygon fill="black" stroke="black" points="52.96,-63.63 56.38,-53.6 47.45,-59.3 52.96,-63.63"/>
<path fill="none" stroke="black" d="M110.65,-883.67C83.61,-868.09 47,-847 47,-847 47,-847 37,-758 37,-758 37,-758 37,-758 37,-540 37,-540 17,-326 17,-326 17,-326 17,-326 17,-252 17,-252 17,-110 17,-110"/>
</g>
<!-- NASALib/numbers -->
<g id="node9" class="node">
<title>NASALib/numbers</title>
<polygon fill="#fcfcd7" stroke="black" points="120,-847 56,-847 56,-811 120,-811 120,-847"/>
<text text-anchor="middle" x="88" y="-825.3" font-family="Times,serif" font-size="14.00">numbers</text>
</g>
<!-- NASALib/algebra&#45;&gt;NASALib/numbers -->
<g id="edge2" class="edge">
<title>NASALib/algebra&#45;&gt;NASALib/numbers</title>
<path fill="none" stroke="black" d="M126.39,-882.7C120.59,-874.73 113.57,-865.1 107.14,-856.26"/>
<polygon fill="black" stroke="black" points="110.07,-854.35 101.35,-848.33 104.41,-858.47 110.07,-854.35"/>
</g>
<!-- NASALib/reals -->
<g id="node12" class="node">
<title>NASALib/reals</title>
<polygon fill="#fcfcd7" stroke="black" points="451,-775 397,-775 397,-739 451,-739 451,-775"/>
<text text-anchor="middle" x="424" y="-753.3" font-family="Times,serif" font-size="14.00">reals</text>
</g>
<!-- NASALib/algebra&#45;&gt;NASALib/reals -->
<g id="edge3" class="edge">
<title>NASALib/algebra&#45;&gt;NASALib/reals</title>
<path fill="none" stroke="black" d="M167.44,-895.13C260.19,-879.26 548,-830 548,-830"/>
<path fill="none" stroke="black" d="M548,-828C548,-828 497.63,-799.57 461.1,-778.94"/>
<polygon fill="black" stroke="black" points="462.96,-775.97 452.53,-774.11 459.52,-782.07 462.96,-775.97"/>
</g>
<!-- NASALib/sigma_set -->
<g id="node16" class="node">
<title>NASALib/sigma_set</title>
<polygon fill="#fcfcd7" stroke="black" points="719.5,-487 648.5,-487 648.5,-451 719.5,-451 719.5,-487"/>
<text text-anchor="middle" x="684" y="-465.3" font-family="Times,serif" font-size="14.00">sigma_set</text>
</g>
<!-- NASALib/algebra&#45;&gt;NASALib/sigma_set -->
<g id="edge4" class="edge">
<title>NASALib/algebra&#45;&gt;NASALib/sigma_set</title>
<path fill="none" stroke="black" d="M548,-828C548,-828 563,-811 563,-811 563,-811 642,-739 642,-739 642,-739 768,-631 768,-631 768,-631 768,-595 768,-595 768,-595 747,-523 747,-523 747,-523 729.6,-508.36 713.09,-494.47"/>
<polygon fill="black" stroke="black" points="715.69,-492.09 705.79,-488.33 711.19,-497.44 715.69,-492.09"/>
</g>
<!-- NASALib/structures -->
<g id="node17" class="node">
<title>NASALib/structures</title>
<polygon fill="#fcfcd7" stroke="black" points="105.5,-127 36.5,-127 36.5,-91 105.5,-91 105.5,-127"/>
<text text-anchor="middle" x="71" y="-105.3" font-family="Times,serif" font-size="14.00">structures</text>
</g>
<!-- NASALib/algebra&#45;&gt;NASALib/structures -->
<g id="edge5" class="edge">
<title>NASALib/algebra&#45;&gt;NASALib/structures</title>
<path fill="none" stroke="black" d="M309,-252C309,-252 309,-182 309,-182"/>
<path fill="none" stroke="black" d="M309,-180C309,-180 186.04,-143.84 116.88,-123.49"/>
<polygon fill="black" stroke="black" points="117.9,-120.14 107.31,-120.68 115.92,-126.86 117.9,-120.14"/>
<path fill="none" stroke="black" d="M138.88,-882.54C138.44,-820.45 137,-614 137,-614 137,-614 137,-614 137,-540 137,-540 147,-451 147,-451 147,-451 195,-379 195,-379 195,-379 309,-254 309,-254"/>
</g>
<!-- lib/finite_sets -->
<g id="node22" class="node">
<title>lib/finite_sets</title>
<polygon fill="#fcfcd7" stroke="black" points="900,-52 828,-52 828,-16 900,-16 900,-52"/>
<text text-anchor="middle" x="864" y="-30.3" font-family="Times,serif" font-size="14.00">finite_sets</text>
</g>
<!-- NASALib/algebra&#45;&gt;lib/finite_sets -->
<g id="edge6" class="edge">
<title>NASALib/algebra&#45;&gt;lib/finite_sets</title>
<path fill="none" stroke="black" d="M167.48,-896.52C264.03,-884.73 573,-847 573,-847 573,-847 832,-758 832,-758 832,-758 832,-758 832,-684 832,-684 832,-542 832,-542"/>
</g>
<!-- NASALib/analysis -->
<g id="node2" class="node">
<title>NASALib/analysis</title>
<polygon fill="#fcfcd7" stroke="black" points="494,-271 434,-271 434,-235 494,-235 494,-271"/>
<text text-anchor="middle" x="464" y="-249.3" font-family="Times,serif" font-size="14.00">analysis</text>
</g>
<!-- NASALib/analysis&#45;&gt;NASALib/ints -->
<g id="edge7" class="edge">
<title>NASALib/analysis&#45;&gt;NASALib/ints</title>
<path fill="none" stroke="black" d="M459.8,-234.7C454.76,-213.97 447,-182 447,-182"/>
</g>
<!-- NASALib/orders -->
<g id="node10" class="node">
<title>NASALib/orders</title>
<polygon fill="#fcfcd7" stroke="black" points="560,-199 506,-199 506,-163 560,-163 560,-199"/>
<text text-anchor="middle" x="533" y="-177.3" font-family="Times,serif" font-size="14.00">orders</text>
</g>
<!-- NASALib/analysis&#45;&gt;NASALib/orders -->
<g id="edge8" class="edge">
<title>NASALib/analysis&#45;&gt;NASALib/orders</title>
<path fill="none" stroke="black" d="M481.06,-234.7C489.24,-226.39 499.21,-216.28 508.22,-207.14"/>
<polygon fill="black" stroke="black" points="510.55,-209.76 515.08,-200.18 505.56,-204.85 510.55,-209.76"/>
</g>
<!-- NASALib/analysis&#45;&gt;NASALib/reals -->
<g id="edge9" class="edge">
<title>NASALib/analysis&#45;&gt;NASALib/reals</title>
<path fill="none" stroke="black" d="M459.37,-271.16C452.4,-297.02 440,-343 440,-343 440,-343 391,-415 391,-415 391,-415 261,-451 261,-451 261,-451 261,-487 261,-487 261,-487 265.94,-513.2 268.88,-528.76"/>
<polygon fill="black" stroke="black" points="265.43,-529.34 270.72,-538.51 272.3,-528.04 265.43,-529.34"/>
<path fill="none" stroke="black" d="M271,-542C271,-542 271,-612 271,-612"/>
</g>
<!-- NASALib/analysis&#45;&gt;NASALib/structures -->
<g id="edge10" class="edge">
<title>NASALib/analysis&#45;&gt;NASALib/structures</title>
<path fill="none" stroke="black" d="M433.75,-238.34C388.64,-217.97 309,-182 309,-182"/>
</g>
<!-- NASALib/analysis&#45;&gt;lib/finite_sets -->
<g id="edge11" class="edge">
<title>NASALib/analysis&#45;&gt;lib/finite_sets</title>
<path fill="none" stroke="black" d="M494.08,-240.38C501.81,-237.39 508,-235 508,-235 508,-235 816,-199 816,-199 816,-199 832,-182 832,-182"/>
<path fill="none" stroke="black" d="M832,-180C832,-180 832,-110 832,-110"/>
</g>
<!-- NASALib/extended_nnreal -->
<g id="node3" class="node">
<title>NASALib/extended_nnreal</title>
<polygon fill="#fcfcd7" stroke="black" points="724,-559 618,-559 618,-523 724,-523 724,-559"/>
<text text-anchor="middle" x="671" y="-537.3" font-family="Times,serif" font-size="14.00">extended_nnreal</text>
</g>
<!-- NASALib/extended_nnreal&#45;&gt;NASALib/analysis -->
<g id="edge12" class="edge">
<title>NASALib/extended_nnreal&#45;&gt;NASALib/analysis</title>
<path fill="none" stroke="black" d="M629,-468C629,-468 624,-379 624,-379 624,-379 595,-307 595,-307 595,-307 543.27,-286.07 504.82,-270.52"/>
<polygon fill="black" stroke="black" points="506.37,-267.37 495.79,-266.86 503.74,-273.86 506.37,-267.37"/>
</g>
<!-- NASALib/extended_nnreal&#45;&gt;NASALib/reals -->
<g id="edge13" class="edge">
<title>NASALib/extended_nnreal&#45;&gt;NASALib/reals</title>
<path fill="none" stroke="black" d="M693.74,-559.3C713.11,-574.04 739.94,-594.46 753.84,-605.03"/>
<polygon fill="black" stroke="black" points="751.72,-607.81 761.8,-611.08 755.96,-602.24 751.72,-607.81"/>
</g>
<!-- NASALib/series -->
<g id="node14" class="node">
<title>NASALib/series</title>
<polygon fill="#fcfcd7" stroke="black" points="586,-343 532,-343 532,-307 586,-307 586,-343"/>
<text text-anchor="middle" x="559" y="-321.3" font-family="Times,serif" font-size="14.00">series</text>
</g>
<!-- NASALib/extended_nnreal&#45;&gt;NASALib/series -->
<g id="edge14" class="edge">
<title>NASALib/extended_nnreal&#45;&gt;NASALib/series</title>
<path fill="none" stroke="black" d="M660.62,-522.7C648.18,-501.97 629,-470 629,-470"/>
<path fill="none" stroke="black" d="M619,-396C619,-396 598.21,-371.74 581.1,-351.79"/>
<polygon fill="black" stroke="black" points="583.98,-349.77 574.82,-344.45 578.67,-354.32 583.98,-349.77"/>
<path fill="none" stroke="black" d="M629,-468C629,-468 619,-398 619,-398"/>
</g>
<!-- NASALib/extended_nnreal&#45;&gt;NASALib/sigma_set -->
<g id="edge15" class="edge">
<title>NASALib/extended_nnreal&#45;&gt;NASALib/sigma_set</title>
<path fill="none" stroke="black" d="M674.21,-522.7C675.58,-515.32 677.22,-506.52 678.75,-498.25"/>
<polygon fill="black" stroke="black" points="682.16,-499.06 680.55,-488.59 675.28,-497.79 682.16,-499.06"/>
</g>
<!-- NASALib/lebesgue -->
<g id="node5" class="node">
<title>NASALib/lebesgue</title>
<polygon fill="#fcfcd7" stroke="black" points="456,-703 392,-703 392,-667 456,-667 456,-703"/>
<text text-anchor="middle" x="424" y="-681.3" font-family="Times,serif" font-size="14.00">lebesgue</text>
</g>
<!-- NASALib/lebesgue&#45;&gt;NASALib/analysis -->
<g id="edge16" class="edge">
<title>NASALib/lebesgue&#45;&gt;NASALib/analysis</title>
<path fill="none" stroke="black" d="M421,-396C421,-396 432,-379 432,-379 432,-379 469,-343 469,-343 469,-343 469,-307 469,-307 469,-307 467.88,-295.17 466.71,-282.68"/>
<polygon fill="black" stroke="black" points="470.2,-282.49 465.78,-272.86 463.23,-283.15 470.2,-282.49"/>
<path fill="none" stroke="black" d="M416.34,-666.7C407.16,-645.97 393,-614 393,-614"/>
<path fill="none" stroke="black" d="M393,-612C393,-612 385,-487 385,-487 385,-487 385,-451 385,-451 385,-451 421,-398 421,-398"/>
</g>
<!-- NASALib/lebesgue&#45;&gt;NASALib/extended_nnreal -->
<g id="edge17" class="edge">
<title>NASALib/lebesgue&#45;&gt;NASALib/extended_nnreal</title>
<path fill="none" stroke="black" d="M456.19,-670.35C493.23,-654.65 549,-631 549,-631 549,-631 601.82,-592.47 637.95,-566.11"/>
<polygon fill="black" stroke="black" points="639.95,-568.98 645.96,-560.26 635.82,-563.33 639.95,-568.98"/>
</g>
<!-- NASALib/measure_integration -->
<g id="node7" class="node">
<title>NASALib/measure_integration</title>
<polygon fill="#fcfcd7" stroke="black" points="540,-631 412,-631 412,-595 540,-595 540,-631"/>
<text text-anchor="middle" x="476" y="-609.3" font-family="Times,serif" font-size="14.00">measure_integration</text>
</g>
<!-- NASALib/lebesgue&#45;&gt;NASALib/measure_integration -->
<g id="edge18" class="edge">
<title>NASALib/lebesgue&#45;&gt;NASALib/measure_integration</title>
<path fill="none" stroke="black" d="M436.85,-666.7C442.77,-658.73 449.93,-649.1 456.49,-640.26"/>
<polygon fill="black" stroke="black" points="459.24,-642.43 462.39,-632.32 453.62,-638.26 459.24,-642.43"/>
</g>
<!-- NASALib/metric_space -->
<g id="node8" class="node">
<title>NASALib/metric_space</title>
<polygon fill="#fcfcd7" stroke="black" points="499.5,-559 410.5,-559 410.5,-523 499.5,-523 499.5,-559"/>
<text text-anchor="middle" x="455" y="-537.3" font-family="Times,serif" font-size="14.00">metric_space</text>
</g>
<!-- NASALib/lebesgue&#45;&gt;NASALib/metric_space -->
<g id="edge19" class="edge">
<title>NASALib/lebesgue&#45;&gt;NASALib/metric_space</title>
<path fill="none" stroke="black" d="M393,-612C393,-612 403,-595 403,-595 403,-595 416.84,-580.89 430.24,-567.23"/>
<polygon fill="black" stroke="black" points="432.41,-570.02 436.91,-560.43 427.41,-565.12 432.41,-570.02"/>
</g>
<!-- NASALib/power -->
<g id="node11" class="node">
<title>NASALib/power</title>
<polygon fill="#fcfcd7" stroke="black" points="448,-487 394,-487 394,-451 448,-451 448,-487"/>
<text text-anchor="middle" x="421" y="-465.3" font-family="Times,serif" font-size="14.00">power</text>
</g>
<!-- NASALib/lebesgue&#45;&gt;NASALib/power -->
<g id="edge20" class="edge">
<title>NASALib/lebesgue&#45;&gt;NASALib/power</title>
<path fill="none" stroke="black" d="M393,-612C393,-612 402,-523 402,-523 402,-523 406.42,-510.68 410.99,-497.92"/>
<polygon fill="black" stroke="black" points="414.19,-499.37 414.27,-488.78 407.6,-497.01 414.19,-499.37"/>
</g>
<!-- NASALib/sets_aux -->
<g id="node15" class="node">
<title>NASALib/sets_aux</title>
<polygon fill="#fcfcd7" stroke="black" points="503.5,-415 440.5,-415 440.5,-379 503.5,-379 503.5,-415"/>
<text text-anchor="middle" x="472" y="-393.3" font-family="Times,serif" font-size="14.00">sets_aux</text>
</g>
<!-- NASALib/lebesgue&#45;&gt;NASALib/sets_aux -->
<g id="edge22" class="edge">
<title>NASALib/lebesgue&#45;&gt;NASALib/sets_aux</title>
<path fill="none" stroke="black" d="M539,-468C539,-468 515.57,-443.52 496.43,-423.52"/>
<polygon fill="black" stroke="black" points="499.05,-421.2 489.61,-416.4 493.99,-426.04 499.05,-421.2"/>
<path fill="none" stroke="black" d="M393,-612C393,-612 403,-595 403,-595 403,-595 509,-559 509,-559 509,-559 539,-470 539,-470"/>
</g>
<!-- NASALib/lebesgue&#45;&gt;NASALib/sigma_set -->
<g id="edge23" class="edge">
<title>NASALib/lebesgue&#45;&gt;NASALib/sigma_set</title>
<path fill="none" stroke="black" d="M456.45,-672.76C501.36,-657.2 577,-631 577,-631 577,-631 733,-559 733,-559 733,-559 733,-523 733,-523 733,-523 720.2,-509.15 707.68,-495.62"/>
<polygon fill="black" stroke="black" points="710.43,-493.43 701.07,-488.47 705.29,-498.18 710.43,-493.43"/>
</g>
<!-- NASALib/lebesgue&#45;&gt;NASALib/structures -->
<g id="edge24" class="edge">
<title>NASALib/lebesgue&#45;&gt;NASALib/structures</title>
<path fill="none" stroke="black" d="M97,-396C97,-396 147,-326 147,-326"/>
<path fill="none" stroke="black" d="M399.42,-666.52C331.63,-618.3 147,-487 147,-487 147,-487 97,-398 97,-398"/>
<path fill="none" stroke="black" d="M147,-324C147,-324 96,-163 96,-163 96,-163 90.07,-150.43 83.99,-137.53"/>
<polygon fill="black" stroke="black" points="87.26,-136.27 79.83,-128.72 80.93,-139.26 87.26,-136.27"/>
</g>
<!-- NASALib/topology -->
<g id="node18" class="node">
<title>NASALib/topology</title>
<polygon fill="#fcfcd7" stroke="black" points="335.5,-487 270.5,-487 270.5,-451 335.5,-451 335.5,-487"/>
<text text-anchor="middle" x="303" y="-465.3" font-family="Times,serif" font-size="14.00">topology</text>
</g>
<!-- NASALib/lebesgue&#45;&gt;NASALib/topology -->
<g id="edge25" class="edge">
<title>NASALib/lebesgue&#45;&gt;NASALib/topology</title>
<path fill="none" stroke="black" d="M412.04,-666.62C388.41,-632.27 338,-559 338,-559 338,-559 324.16,-523.8 313.88,-497.67"/>
<polygon fill="black" stroke="black" points="317.22,-496.59 310.3,-488.57 310.7,-499.16 317.22,-496.59"/>
</g>
<!-- NASALib/lnexp -->
<g id="node6" class="node">
<title>NASALib/lnexp</title>
<polygon fill="#fcfcd7" stroke="black" points="382,-415 328,-415 328,-379 382,-379 382,-415"/>
<text text-anchor="middle" x="355" y="-393.3" font-family="Times,serif" font-size="14.00">lnexp</text>
</g>
<!-- NASALib/lnexp&#45;&gt;NASALib/analysis -->
<g id="edge26" class="edge">
<title>NASALib/lnexp&#45;&gt;NASALib/analysis</title>
<path fill="none" stroke="black" d="M379.23,-378.65C400.81,-363.19 429,-343 429,-343 429,-343 442.84,-307.8 453.12,-281.67"/>
<polygon fill="black" stroke="black" points="456.3,-283.16 456.7,-272.57 449.78,-280.59 456.3,-283.16"/>
</g>
<!-- NASALib/lnexp&#45;&gt;NASALib/ints -->
<g id="edge27" class="edge">
<title>NASALib/lnexp&#45;&gt;NASALib/ints</title>
<path fill="none" stroke="black" d="M424,-324C424,-324 425,-235 425,-235 425,-235 447,-182 447,-182"/>
<path fill="none" stroke="black" d="M372.06,-378.7C392.49,-357.97 424,-326 424,-326"/>
<path fill="none" stroke="black" d="M447,-180C447,-180 467,-110 467,-110"/>
<path fill="none" stroke="black" d="M467,-108C467,-108 208.56,-60.36 109.24,-42.05"/>
<polygon fill="black" stroke="black" points="110.18,-38.66 99.71,-40.29 108.91,-45.55 110.18,-38.66"/>
</g>
<!-- NASALib/lnexp&#45;&gt;NASALib/reals -->
<g id="edge28" class="edge">
<title>NASALib/lnexp&#45;&gt;NASALib/reals</title>
<path fill="none" stroke="black" d="M327.78,-411.24C295.49,-426.94 246,-451 246,-451 246,-451 242.25,-455.25 238.5,-459.5"/>
<polygon fill="black" stroke="black" points="235.99,-457.05 232,-466.87 241.24,-461.68 235.99,-457.05"/>
</g>
<!-- NASALib/lnexp&#45;&gt;NASALib/series -->
<g id="edge29" class="edge">
<title>NASALib/lnexp&#45;&gt;NASALib/series</title>
<path fill="none" stroke="black" d="M382.09,-386.7C417.75,-374.47 480.65,-352.88 521.04,-339.02"/>
<polygon fill="black" stroke="black" points="522.04,-342.38 530.37,-335.83 519.77,-335.76 522.04,-342.38"/>
</g>
<!-- NASALib/measure_integration&#45;&gt;NASALib/extended_nnreal -->
<g id="edge30" class="edge">
<title>NASALib/measure_integration&#45;&gt;NASALib/extended_nnreal</title>
<path fill="none" stroke="black" d="M524.7,-594.52C551.09,-585.04 583.91,-573.26 611.77,-563.26"/>
<polygon fill="black" stroke="black" points="612.93,-566.57 621.15,-559.89 610.56,-559.98 612.93,-566.57"/>
</g>
<!-- NASALib/measure_integration&#45;&gt;NASALib/metric_space -->
<g id="edge31" class="edge">
<title>NASALib/measure_integration&#45;&gt;NASALib/metric_space</title>
<path fill="none" stroke="black" d="M470.81,-594.7C468.57,-587.24 465.9,-578.32 463.39,-569.97"/>
<polygon fill="black" stroke="black" points="466.79,-569.13 460.57,-560.55 460.09,-571.14 466.79,-569.13"/>
</g>
<!-- NASALib/measure_integration&#45;&gt;NASALib/orders -->
<g id="edge32" class="edge">
<title>NASALib/measure_integration&#45;&gt;NASALib/orders</title>
<path fill="none" stroke="black" d="M540.19,-598.76C616.31,-583.06 733,-559 733,-559 733,-559 803,-542 803,-542"/>
<path fill="none" stroke="black" d="M803,-540C803,-540 788,-307 788,-307 788,-307 783,-254 783,-254"/>
</g>
<!-- NASALib/measure_integration&#45;&gt;NASALib/power -->
<g id="edge33" class="edge">
<title>NASALib/measure_integration&#45;&gt;NASALib/power</title>
<path fill="none" stroke="black" d="M486.81,-594.65C496.43,-579.19 509,-559 509,-559 509,-559 509,-523 509,-523 509,-523 482.11,-506.81 458.06,-492.32"/>
<polygon fill="black" stroke="black" points="460.03,-489.42 449.66,-487.26 456.42,-495.42 460.03,-489.42"/>
</g>
<!-- NASALib/measure_integration&#45;&gt;NASALib/reals -->
<g id="edge34" class="edge">
<title>NASALib/measure_integration&#45;&gt;NASALib/reals</title>
<path fill="none" stroke="black" d="M473.88,-631.16C470.68,-657.02 465,-703 465,-703 465,-703 454.69,-716.33 444.41,-729.62"/>
<polygon fill="black" stroke="black" points="441.7,-727.4 438.35,-737.45 447.24,-731.68 441.7,-727.4"/>
</g>
<!-- NASALib/measure_integration&#45;&gt;NASALib/series -->
<g id="edge35" class="edge">
<title>NASALib/measure_integration&#45;&gt;NASALib/series</title>
<path fill="none" stroke="black" d="M559,-540C559,-540 559,-470 559,-470"/>
</g>
<!-- NASALib/measure_integration&#45;&gt;NASALib/sets_aux -->
<g id="edge36" class="edge">
<title>NASALib/measure_integration&#45;&gt;NASALib/sets_aux</title>
<path fill="none" stroke="black" d="M498.27,-594.65C518.1,-579.19 544,-559 544,-559 544,-559 559,-542 559,-542"/>
<path fill="none" stroke="black" d="M559,-540C559,-540 539,-470 539,-470"/>
</g>
<!-- NASALib/measure_integration&#45;&gt;NASALib/sigma_set -->
<g id="edge37" class="edge">
<title>NASALib/measure_integration&#45;&gt;NASALib/sigma_set</title>
<path fill="none" stroke="black" d="M559,-540C559,-540 606.42,-513.44 642.85,-493.05"/>
<polygon fill="black" stroke="black" points="644.44,-496.16 651.46,-488.22 641.02,-490.06 644.44,-496.16"/>
</g>
<!-- NASALib/measure_integration&#45;&gt;NASALib/structures -->
<g id="edge38" class="edge">
<title>NASALib/measure_integration&#45;&gt;NASALib/structures</title>
<path fill="none" stroke="black" d="M451.77,-594.65C430.19,-579.19 402,-559 402,-559 402,-559 344,-451 344,-451 344,-451 319,-415 319,-415 319,-415 309,-398 309,-398"/>
</g>
<!-- NASALib/measure_integration&#45;&gt;NASALib/topology -->
<g id="edge39" class="edge">
<title>NASALib/measure_integration&#45;&gt;NASALib/topology</title>
<path fill="none" stroke="black" d="M439.98,-594.65C407.9,-579.19 366,-559 366,-559 366,-559 340.18,-522.53 321.6,-496.28"/>
<polygon fill="black" stroke="black" points="324.66,-494.54 316.02,-488.4 318.94,-498.58 324.66,-494.54"/>
</g>
<!-- NASALib/measure_integration&#45;&gt;lib/finite_sets -->
<g id="edge40" class="edge">
<title>NASALib/measure_integration&#45;&gt;lib/finite_sets</title>
<path fill="none" stroke="black" d="M832,-540C832,-540 832,-470 832,-470"/>
<path fill="none" stroke="black" d="M540.35,-601.97C638.92,-586.6 816,-559 816,-559 816,-559 832,-542 832,-542"/>
</g>
<!-- NASALib/metric_space&#45;&gt;NASALib/analysis -->
<g id="edge41" class="edge">
<title>NASALib/metric_space&#45;&gt;NASALib/analysis</title>
<path fill="none" stroke="black" d="M457.97,-522.7C461.52,-501.97 467,-470 467,-470"/>
<path fill="none" stroke="black" d="M467,-468C467,-468 457,-451 457,-451 457,-451 432,-415 432,-415 432,-415 421,-398 421,-398"/>
</g>
<!-- NASALib/metric_space&#45;&gt;NASALib/power -->
<g id="edge42" class="edge">
<title>NASALib/metric_space&#45;&gt;NASALib/power</title>
<path fill="none" stroke="black" d="M446.6,-522.7C442.89,-515.07 438.44,-505.92 434.31,-497.4"/>
<polygon fill="black" stroke="black" points="437.49,-495.93 429.97,-488.47 431.19,-498.99 437.49,-495.93"/>
</g>
<!-- NASALib/metric_space&#45;&gt;NASALib/series -->
<g id="edge44" class="edge">
<title>NASALib/metric_space&#45;&gt;NASALib/series</title>
<path fill="none" stroke="black" d="M484.14,-522.65C510.1,-507.19 544,-487 544,-487 544,-487 559,-470 559,-470"/>
<path fill="none" stroke="black" d="M559,-468C559,-468 559,-396.2 559,-354.71"/>
<polygon fill="black" stroke="black" points="562.5,-354.93 559,-344.93 555.5,-354.93 562.5,-354.93"/>
</g>
<!-- NASALib/metric_space&#45;&gt;NASALib/sets_aux -->
<g id="edge45" class="edge">
<title>NASALib/metric_space&#45;&gt;NASALib/sets_aux</title>
<path fill="none" stroke="black" d="M467,-468C467,-468 468.57,-446.08 469.95,-426.77"/>
<polygon fill="black" stroke="black" points="473.43,-427.04 470.66,-416.81 466.45,-426.54 473.43,-427.04"/>
</g>
<!-- NASALib/metric_space&#45;&gt;NASALib/topology -->
<g id="edge46" class="edge">
<title>NASALib/metric_space&#45;&gt;NASALib/topology</title>
<path fill="none" stroke="black" d="M417.04,-522.52C395.48,-512.59 368.42,-500.13 346.07,-489.83"/>
<polygon fill="black" stroke="black" points="347.77,-486.76 337.22,-485.76 344.84,-493.12 347.77,-486.76"/>
</g>
<!-- NASALib/vectors -->
<g id="node20" class="node">
<title>NASALib/vectors</title>
<polygon fill="#fcfcd7" stroke="black" points="212,-487 156,-487 156,-451 212,-451 212,-487"/>
<text text-anchor="middle" x="184" y="-465.3" font-family="Times,serif" font-size="14.00">vectors</text>
</g>
<!-- NASALib/metric_space&#45;&gt;NASALib/vectors -->
<g id="edge47" class="edge">
<title>NASALib/metric_space&#45;&gt;NASALib/vectors</title>
<path fill="none" stroke="black" d="M410.03,-529.59C343.34,-514.16 226,-487 226,-487 226,-487 224.82,-486.52 222.86,-485.73"/>
<polygon fill="black" stroke="black" points="224.23,-482.51 213.65,-482 221.61,-489 224.23,-482.51"/>
</g>
<!-- NASALib/metric_space&#45;&gt;lib/finite_sets -->
<g id="edge48" class="edge">
<title>NASALib/metric_space&#45;&gt;lib/finite_sets</title>
<path fill="none" stroke="black" d="M832,-468C832,-468 832,-326 832,-326"/>
<path fill="none" stroke="black" d="M499.73,-531.7C599.59,-513.15 832,-470 832,-470"/>
</g>
<!-- NASALib/numbers&#45;&gt;NASALib/ints -->
<g id="edge49" class="edge">
<title>NASALib/numbers&#45;&gt;NASALib/ints</title>
<path fill="none" stroke="black" d="M71,-180C71,-180 27,-127 27,-127 27,-127 17,-110 17,-110"/>
<path fill="none" stroke="black" d="M84.2,-810.59C75.92,-772.67 57,-686 57,-686 57,-686 57,-686 57,-468 57,-468 71,-182 71,-182"/>
</g>
<!-- NASALib/numbers&#45;&gt;NASALib/reals -->
<g id="edge50" class="edge">
<title>NASALib/numbers&#45;&gt;NASALib/reals</title>
<path fill="none" stroke="black" d="M120.22,-821.29C182.35,-808.34 318.5,-779.98 385.38,-766.05"/>
<polygon fill="black" stroke="black" points="386.09,-769.47 395.16,-764.01 384.66,-762.62 386.09,-769.47"/>
</g>
<!-- NASALib/numbers&#45;&gt;NASALib/structures -->
<g id="edge51" class="edge">
<title>NASALib/numbers&#45;&gt;NASALib/structures</title>
<path fill="none" stroke="black" d="M71,-180C71,-180 71,-158.08 71,-138.77"/>
<polygon fill="black" stroke="black" points="74.5,-138.82 71,-128.82 67.5,-138.82 74.5,-138.82"/>
</g>
<!-- NASALib/orders&#45;&gt;NASALib/structures -->
<g id="edge52" class="edge">
<title>NASALib/orders&#45;&gt;NASALib/structures</title>
<path fill="none" stroke="black" d="M505.71,-172.4C489.47,-167.87 472,-163 472,-163 472,-163 222.5,-130.02 117.11,-116.09"/>
<polygon fill="black" stroke="black" points="117.76,-112.65 107.39,-114.81 116.84,-119.59 117.76,-112.65"/>
</g>
<!-- NASALib/orders&#45;&gt;lib/finite_sets -->
<g id="edge53" class="edge">
<title>NASALib/orders&#45;&gt;lib/finite_sets</title>
<path fill="none" stroke="black" d="M832,-108C832,-108 842.84,-83.26 851.91,-62.59"/>
<polygon fill="black" stroke="black" points="855,-64.25 855.81,-53.69 848.59,-61.44 855,-64.25"/>
<path fill="none" stroke="black" d="M560.33,-173.6C634.14,-156.32 832,-110 832,-110"/>
</g>
<!-- NASALib/power&#45;&gt;NASALib/analysis -->
<g id="edge54" class="edge">
<title>NASALib/power&#45;&gt;NASALib/analysis</title>
<path fill="none" stroke="black" d="M421,-450.7C421,-429.97 421,-398 421,-398"/>
</g>
<!-- NASALib/power&#45;&gt;NASALib/lnexp -->
<g id="edge55" class="edge">
<title>NASALib/power&#45;&gt;NASALib/lnexp</title>
<path fill="none" stroke="black" d="M404.69,-450.7C396.93,-442.47 387.51,-432.48 378.97,-423.42"/>
<polygon fill="black" stroke="black" points="381.57,-421.08 372.17,-416.21 376.48,-425.88 381.57,-421.08"/>
</g>
<!-- NASALib/power&#45;&gt;NASALib/reals -->
<g id="edge56" class="edge">
<title>NASALib/power&#45;&gt;NASALib/reals</title>
<path fill="none" stroke="black" d="M408.98,-487.15C378.81,-530.2 300.65,-641.71 277.53,-674.68"/>
<polygon fill="black" stroke="black" points="274.74,-672.56 271.87,-682.76 280.47,-676.58 274.74,-672.56"/>
</g>
<!-- NASALib/reals&#45;&gt;NASALib/ints -->
<g id="edge57" class="edge">
<title>NASALib/reals&#45;&gt;NASALib/ints</title>
<path fill="none" stroke="black" d="M396.84,-746.89C351.66,-731.74 266,-703 266,-703 266,-703 132,-559 132,-559 132,-559 97,-470 97,-470"/>
<path fill="none" stroke="black" d="M97,-468C97,-468 92,-415 92,-415 92,-415 76,-163 76,-163 76,-163 27,-127 27,-127 27,-127 17,-110 17,-110"/>
</g>
<!-- NASALib/reals&#45;&gt;NASALib/lebesgue -->
<g id="edge58" class="edge">
<title>NASALib/reals&#45;&gt;NASALib/lebesgue</title>
<path fill="none" stroke="black" d="M424,-727.24C424,-723.01 424,-718.66 424,-714.44"/>
<polygon fill="black" stroke="black" points="420.5,-727.18 424,-737.18 427.5,-727.18 420.5,-727.18"/>
<polygon fill="black" stroke="black" points="427.5,-714.62 424,-704.62 420.5,-714.62 427.5,-714.62"/>
</g>
<!-- NASALib/reals&#45;&gt;NASALib/metric_space -->
<g id="edge59" class="edge">
<title>NASALib/reals&#45;&gt;NASALib/metric_space</title>
<path fill="none" stroke="black" d="M403.59,-729.62C393.31,-716.33 383,-703 383,-703 383,-703 383,-667 383,-667 383,-667 388,-595 388,-595 388,-595 406.51,-580.36 424.07,-566.47"/>
<polygon fill="black" stroke="black" points="400.76,-731.68 409.65,-737.45 406.3,-727.4 400.76,-731.68"/>
<polygon fill="black" stroke="black" points="426.2,-569.24 431.87,-560.29 421.86,-563.75 426.2,-569.24"/>
</g>
<!-- NASALib/reals&#45;&gt;NASALib/sets_aux -->
<g id="edge60" class="edge">
<title>NASALib/reals&#45;&gt;NASALib/sets_aux</title>
<path fill="none" stroke="black" d="M443.01,-738.59C484.4,-700.67 579,-614 579,-614 579,-614 579,-614 579,-540 579,-540 544,-451 544,-451 544,-451 523.75,-436.09 504.72,-422.09"/>
<polygon fill="black" stroke="black" points="506.92,-419.36 496.79,-416.25 502.77,-425 506.92,-419.36"/>
</g>
<!-- NASALib/reals&#45;&gt;NASALib/structures -->
<g id="edge61" class="edge">
<title>NASALib/reals&#45;&gt;NASALib/structures</title>
<path fill="none" stroke="black" d="M97,-468C97,-468 97,-398 97,-398"/>
</g>
<!-- NASALib/scott -->
<g id="node13" class="node">
<title>NASALib/scott</title>
<polygon fill="#fcfcd7" stroke="black" points="336,-991 282,-991 282,-955 336,-955 336,-991"/>
<text text-anchor="middle" x="309" y="-969.3" font-family="Times,serif" font-size="14.00">scott</text>
</g>
<!-- NASALib/scott&#45;&gt;NASALib/algebra -->
<g id="edge62" class="edge">
<title>NASALib/scott&#45;&gt;NASALib/algebra</title>
<path fill="none" stroke="black" d="M281.69,-960.75C253.52,-949.16 209.36,-930.97 177.62,-917.9"/>
<polygon fill="black" stroke="black" points="179.36,-914.83 168.78,-914.26 176.69,-921.31 179.36,-914.83"/>
</g>
<!-- NASALib/scott&#45;&gt;NASALib/orders -->
<g id="edge63" class="edge">
<title>NASALib/scott&#45;&gt;NASALib/orders</title>
<path fill="none" stroke="black" d="M568,-828C568,-828 710,-703 710,-703 710,-703 773,-631 773,-631 773,-631 803,-542 803,-542"/>
<path fill="none" stroke="black" d="M480,-900C480,-900 553,-847 553,-847 553,-847 568,-830 568,-830"/>
</g>
<!-- NASALib/scott&#45;&gt;NASALib/structures -->
<g id="edge64" class="edge">
<title>NASALib/scott&#45;&gt;NASALib/structures</title>
<path fill="none" stroke="black" d="M281.51,-964.96C225.2,-950.54 102,-919 102,-919 102,-919 17,-830 17,-830 17,-830 17,-830 17,-540 17,-540 37,-326 37,-326 37,-326 37,-326 37,-252 37,-252 54.26,-179.9 64.19,-138.45"/>
<polygon fill="black" stroke="black" points="67.55,-139.42 66.48,-128.88 60.75,-137.79 67.55,-139.42"/>
</g>
<!-- NASALib/scott&#45;&gt;NASALib/topology -->
<g id="edge65" class="edge">
<title>NASALib/scott&#45;&gt;NASALib/topology</title>
<path fill="none" stroke="black" d="M480,-900C480,-900 266,-703 266,-703 266,-703 266,-523 266,-523 266,-523 275.13,-509.93 284.31,-496.77"/>
<polygon fill="black" stroke="black" points="287.16,-498.8 290.02,-488.6 281.42,-494.79 287.16,-498.8"/>
<path fill="none" stroke="black" d="M336.47,-960.75C384.81,-940.97 480,-902 480,-902"/>
</g>
<!-- NASALib/series&#45;&gt;NASALib/analysis -->
<g id="edge66" class="edge">
<title>NASALib/series&#45;&gt;NASALib/analysis</title>
<path fill="none" stroke="black" d="M535.52,-306.7C523.76,-298.03 509.33,-287.4 496.52,-277.96"/>
<polygon fill="black" stroke="black" points="498.89,-275.36 488.76,-272.24 494.74,-280.99 498.89,-275.36"/>
</g>
<!-- NASALib/series&#45;&gt;NASALib/ints -->
<g id="edge67" class="edge">
<title>NASALib/series&#45;&gt;NASALib/ints</title>
<path fill="none" stroke="black" d="M533,-252C533,-252 497,-199 497,-199 497,-199 467,-110 467,-110"/>
<path fill="none" stroke="black" d="M552.57,-306.7C544.87,-285.97 533,-254 533,-254"/>
</g>
<!-- NASALib/series&#45;&gt;NASALib/orders -->
<g id="edge68" class="edge">
<title>NASALib/series&#45;&gt;NASALib/orders</title>
<path fill="none" stroke="black" d="M533,-252C533,-252 533,-230.08 533,-210.77"/>
<polygon fill="black" stroke="black" points="536.5,-210.82 533,-200.82 529.5,-210.82 536.5,-210.82"/>
</g>
<!-- NASALib/series&#45;&gt;NASALib/reals -->
<g id="edge69" class="edge">
<title>NASALib/series&#45;&gt;NASALib/reals</title>
<path fill="none" stroke="black" d="M562.68,-343.13C574.22,-396.94 609,-559 609,-559 609,-559 717.62,-596.38 752.41,-608.36"/>
<polygon fill="black" stroke="black" points="750.97,-611.56 761.57,-611.51 753.25,-604.94 750.97,-611.56"/>
<path fill="none" stroke="black" d="M763,-614C763,-614 532.16,-710.69 451.45,-744.5"/>
</g>
<!-- NASALib/sets_aux&#45;&gt;NASALib/ints -->
<g id="edge70" class="edge">
<title>NASALib/sets_aux&#45;&gt;NASALib/ints</title>
<path fill="none" stroke="black" d="M460.13,-378.7C445.92,-357.97 424,-326 424,-326"/>
</g>
<!-- NASALib/sets_aux&#45;&gt;NASALib/orders -->
<g id="edge71" class="edge">
<title>NASALib/sets_aux&#45;&gt;NASALib/orders</title>
<path fill="none" stroke="black" d="M513,-252C513,-252 519.38,-229.66 524.94,-210.22"/>
<polygon fill="black" stroke="black" points="528.26,-211.34 527.64,-200.76 521.53,-209.41 528.26,-211.34"/>
</g>
<!-- NASALib/sets_aux&#45;&gt;NASALib/structures -->
<g id="edge72" class="edge">
<title>NASALib/sets_aux&#45;&gt;NASALib/structures</title>
<path fill="none" stroke="black" d="M513,-252C513,-252 503,-235 503,-235 503,-235 314,-163 314,-163 314,-163 187.49,-135.41 117.03,-120.04"/>
<polygon fill="black" stroke="black" points="117.81,-116.63 107.29,-117.92 116.32,-123.47 117.81,-116.63"/>
<path fill="none" stroke="black" d="M477.57,-378.65C482.52,-363.19 489,-343 489,-343 489,-343 513,-254 513,-254"/>
</g>
<!-- NASALib/sets_aux&#45;&gt;lib/finite_sets -->
<g id="edge73" class="edge">
<title>NASALib/sets_aux&#45;&gt;lib/finite_sets</title>
<path fill="none" stroke="black" d="M503.95,-389.79C592.05,-372.66 832,-326 832,-326"/>
<path fill="none" stroke="black" d="M832,-324C832,-324 832,-182 832,-182"/>
</g>
<!-- NASALib/sigma_set&#45;&gt;NASALib/analysis -->
<g id="edge74" class="edge">
<title>NASALib/sigma_set&#45;&gt;NASALib/analysis</title>
<path fill="none" stroke="black" d="M783,-324C783,-324 508,-271 508,-271 508,-271 506.64,-270.47 504.4,-269.61"/>
<polygon fill="black" stroke="black" points="506.08,-266.51 495.49,-266.17 503.56,-273.04 506.08,-266.51"/>
<path fill="none" stroke="black" d="M696.14,-450.59C722.58,-412.67 783,-326 783,-326"/>
</g>
<!-- NASALib/sigma_set&#45;&gt;NASALib/orders -->
<g id="edge75" class="edge">
<title>NASALib/sigma_set&#45;&gt;NASALib/orders</title>
<path fill="none" stroke="black" d="M783,-324C783,-324 783,-254 783,-254"/>
<path fill="none" stroke="black" d="M783,-252C783,-252 641.25,-212.31 571.22,-192.7"/>
<polygon fill="black" stroke="black" points="572.26,-189.36 561.69,-190.03 570.37,-196.1 572.26,-189.36"/>
</g>
<!-- NASALib/sigma_set&#45;&gt;NASALib/reals -->
<g id="edge76" class="edge">
<title>NASALib/sigma_set&#45;&gt;NASALib/reals</title>
<path fill="none" stroke="black" d="M701.68,-487.35C717.43,-502.81 738,-523 738,-523 738,-523 753.26,-577.32 759.93,-601.09"/>
<polygon fill="black" stroke="black" points="756.52,-601.86 762.59,-610.54 763.26,-599.97 756.52,-601.86"/>
</g>
<!-- NASALib/sigma_set&#45;&gt;NASALib/series -->
<g id="edge77" class="edge">
<title>NASALib/sigma_set&#45;&gt;NASALib/series</title>
<path fill="none" stroke="black" d="M667.93,-450.7C648.68,-429.97 619,-398 619,-398"/>
</g>
<!-- NASALib/sigma_set&#45;&gt;NASALib/sets_aux -->
<g id="edge78" class="edge">
<title>NASALib/sigma_set&#45;&gt;NASALib/sets_aux</title>
<path fill="none" stroke="black" d="M648.19,-455.83C640.18,-453.1 634,-451 634,-451 634,-451 562.36,-427.56 514.36,-411.86"/>
<polygon fill="black" stroke="black" points="515.65,-408.6 505.06,-408.82 513.47,-415.25 515.65,-408.6"/>
</g>
<!-- NASALib/structures&#45;&gt;NASALib/ints -->
<g id="edge79" class="edge">
<title>NASALib/structures&#45;&gt;NASALib/ints</title>
<path fill="none" stroke="black" d="M71,-90.7C71,-82.67 71,-72.9 71,-63.8"/>
<polygon fill="black" stroke="black" points="74.5,-63.94 71,-53.94 67.5,-63.94 74.5,-63.94"/>
</g>
<!-- NASALib/structures&#45;&gt;lib/finite_sets -->
<g id="edge80" class="edge">
<title>NASALib/structures&#45;&gt;lib/finite_sets</title>
<path fill="none" stroke="black" d="M105.93,-106.83C253.22,-101.89 816,-83 816,-83 816,-83 827.17,-71.83 838.73,-60.27"/>
<polygon fill="black" stroke="black" points="841,-62.95 845.6,-53.4 836.05,-58 841,-62.95"/>
</g>
<!-- NASALib/topology&#45;&gt;NASALib/reals -->
<g id="edge81" class="edge">
<title>NASALib/topology&#45;&gt;NASALib/reals</title>
<path fill="none" stroke="black" d="M295.09,-487.3C289.02,-500.58 280.84,-518.47 275.75,-529.62"/>
<polygon fill="black" stroke="black" points="272.6,-528.07 271.63,-538.62 278.97,-530.98 272.6,-528.07"/>
</g>
<!-- NASALib/topology&#45;&gt;NASALib/sets_aux -->
<g id="edge82" class="edge">
<title>NASALib/topology&#45;&gt;NASALib/sets_aux</title>
<path fill="none" stroke="black" d="M335.99,-454.34C362.73,-443.26 400.61,-427.57 429.61,-415.56"/>
<polygon fill="black" stroke="black" points="430.94,-418.79 438.84,-411.73 428.27,-412.33 430.94,-418.79"/>
</g>
<!-- NASALib/topology&#45;&gt;NASALib/structures -->
<g id="edge83" class="edge">
<title>NASALib/topology&#45;&gt;NASALib/structures</title>
<path fill="none" stroke="black" d="M309,-396C309,-396 309,-254 309,-254"/>
<path fill="none" stroke="black" d="M304.48,-450.7C306.26,-429.97 309,-398 309,-398"/>
</g>
<!-- NASALib/trig -->
<g id="node19" class="node">
<title>NASALib/trig</title>
<polygon fill="#fcfcd7" stroke="black" points="258,-415 204,-415 204,-379 258,-379 258,-415"/>
<text text-anchor="middle" x="231" y="-393.3" font-family="Times,serif" font-size="14.00">trig</text>
</g>
<!-- NASALib/trig&#45;&gt;NASALib/analysis -->
<g id="edge84" class="edge">
<title>NASALib/trig&#45;&gt;NASALib/analysis</title>
<path fill="none" stroke="black" d="M258.18,-379.43C299.65,-354.16 378.85,-305.9 425.99,-277.17"/>
<polygon fill="black" stroke="black" points="427.53,-280.33 434.24,-272.13 423.88,-274.35 427.53,-280.33"/>
</g>
<!-- NASALib/trig&#45;&gt;NASALib/ints -->
<g id="edge85" class="edge">
<title>NASALib/trig&#45;&gt;NASALib/ints</title>
<path fill="none" stroke="black" d="M221.07,-378.87C189.9,-325.06 96,-163 96,-163 96,-163 27,-127 27,-127 27,-127 17,-110 17,-110"/>
</g>
<!-- NASALib/trig&#45;&gt;NASALib/reals -->
<g id="edge86" class="edge">
<title>NASALib/trig&#45;&gt;NASALib/reals</title>
<path fill="none" stroke="black" d="M231,-470C231,-470 271,-612 271,-612"/>
<path fill="none" stroke="black" d="M271,-614C271,-614 271,-684 271,-684"/>
<path fill="none" stroke="black" d="M231,-415.3C231,-428.26 231,-445.6 231,-456.79"/>
<polygon fill="black" stroke="black" points="227.5,-456.49 231,-466.49 234.5,-456.49 227.5,-456.49"/>
</g>
<!-- NASALib/trig&#45;&gt;NASALib/series -->
<g id="edge87" class="edge">
<title>NASALib/trig&#45;&gt;NASALib/series</title>
<path fill="none" stroke="black" d="M258.4,-390.15C316.91,-377.67 454.16,-348.37 521.04,-334.1"/>
<polygon fill="black" stroke="black" points="521.38,-337.61 530.43,-332.1 519.92,-330.76 521.38,-337.61"/>
</g>
<!-- NASALib/vectors&#45;&gt;NASALib/reals -->
<g id="edge88" class="edge">
<title>NASALib/vectors&#45;&gt;NASALib/reals</title>
<path fill="none" stroke="black" d="M271,-686C271,-686 352.64,-723.35 396.65,-743.49"/>
<path fill="none" stroke="black" d="M190.97,-487.15C208.31,-529.8 252.97,-639.66 266.83,-673.75"/>
<polygon fill="black" stroke="black" points="263.42,-674.65 270.43,-682.6 269.91,-672.02 263.42,-674.65"/>
</g>
<!-- NASALib/vectors&#45;&gt;NASALib/structures -->
<g id="edge89" class="edge">
<title>NASALib/vectors&#45;&gt;NASALib/structures</title>
<path fill="none" stroke="black" d="M179.46,-450.59C169.58,-412.67 147,-326 147,-326"/>
</g>
<!-- NASALib/vectors&#45;&gt;NASALib/trig -->
<g id="edge90" class="edge">
<title>NASALib/vectors&#45;&gt;NASALib/trig</title>
<path fill="none" stroke="black" d="M195.62,-450.7C200.91,-442.81 207.3,-433.3 213.18,-424.55"/>
<polygon fill="black" stroke="black" points="216,-426.61 218.67,-416.36 210.19,-422.71 216,-426.61"/>
</g>
<!-- NASALib/while -->
<g id="node21" class="node">
<title>NASALib/while</title>
<polygon fill="#f7e28d" stroke="black" points="465,-1063 411,-1063 411,-1027 465,-1027 465,-1063"/>
<text text-anchor="middle" x="438" y="-1041.3" font-family="Times,serif" font-size="14.00">while</text>
</g>
<!-- NASALib/while&#45;&gt;NASALib/orders -->
<g id="edge91" class="edge">
<title>NASALib/while&#45;&gt;NASALib/orders</title>
<path fill="none" stroke="black" d="M448.42,-1026.85C479.27,-976.07 568,-830 568,-830"/>
</g>
<!-- NASALib/while&#45;&gt;NASALib/scott -->
<g id="edge92" class="edge">
<title>NASALib/while&#45;&gt;NASALib/scott</title>
<path fill="none" stroke="black" d="M410.64,-1029.15C391.91,-1018.99 366.85,-1005.39 346.3,-994.24"/>
<polygon fill="black" stroke="black" points="348.11,-991.24 337.65,-989.55 344.77,-997.39 348.11,-991.24"/>
</g>
</g>
</svg>
