<?xml version="1.0" encoding="UTF-8" standalone="no"?>
<!DOCTYPE svg PUBLIC "-//W3C//DTD SVG 1.1//EN"
 "http://www.w3.org/Graphics/SVG/1.1/DTD/svg11.dtd">
<!-- Generated by graphviz version 7.0.6 (20230106.0513)
 -->
<!-- Title: lnexp&#45;zoomed Pages: 1 -->
<svg width="1299pt" height="390pt"
 viewBox="0.00 0.00 1299.00 390.00" xmlns="http://www.w3.org/2000/svg" xmlns:xlink="http://www.w3.org/1999/xlink">
<g id="graph0" class="graph" transform="scale(1 1) rotate(0) translate(4 386)">
<title>lnexp&#45;zoomed</title>
<polygon fill="white" stroke="none" points="-4,4 -4,-386 1295,-386 1295,4 -4,4"/>
<g id="clust1" class="cluster">
<title>cluster_NASALib</title>
<polygon fill="none" stroke="black" points="991,-8 991,-83 1283,-83 1283,-8 991,-8"/>
<text text-anchor="middle" x="1137" y="-67.8" font-family="Times,serif" font-size="14.00">NASALib</text>
</g>
<g id="clust2" class="cluster">
<title>cluster_NASALib/lnexp</title>
<polygon fill="none" stroke="black" points="8,-8 8,-374 983,-374 983,-8 8,-8"/>
<text text-anchor="middle" x="495.5" y="-358.8" font-family="Times,serif" font-size="14.00">NASALib/lnexp</text>
</g>
<!-- NASALib/analysis -->
<g id="node1" class="node">
<title>NASALib/analysis</title>
<polygon fill="#fcfcd7" stroke="black" points="1059,-52 999,-52 999,-16 1059,-16 1059,-52"/>
<text text-anchor="middle" x="1029" y="-30.3" font-family="Times,serif" font-size="14.00">analysis</text>
</g>
<!-- NASALib/ints -->
<g id="node2" class="node">
<title>NASALib/ints</title>
<polygon fill="#fcfcd7" stroke="black" points="1131,-52 1077,-52 1077,-16 1131,-16 1131,-52"/>
<text text-anchor="middle" x="1104" y="-30.3" font-family="Times,serif" font-size="14.00">ints</text>
</g>
<!-- NASALib/lnexp@convergence_special -->
<g id="node3" class="node">
<title>NASALib/lnexp@convergence_special</title>
<ellipse fill="#e6f3ff" stroke="black" cx="426" cy="-181" rx="83.69" ry="18"/>
<text text-anchor="middle" x="426" y="-177.3" font-family="Times,serif" font-size="14.00">convergence_special</text>
</g>
<!-- NASALib/lnexp@convergence_special&#45;&gt;NASALib/analysis -->
<g id="edge1" class="edge">
<title>NASALib/lnexp@convergence_special&#45;&gt;NASALib/analysis</title>
<path fill="none" stroke="black" d="M493.04,-169.91C517.37,-166.25 539,-163 539,-163 539,-163 984,-127 984,-127 984,-127 1003,-110 1003,-110"/>
<path fill="none" stroke="black" d="M1003,-108C1003,-108 1011.73,-83.49 1019.07,-62.87"/>
<polygon fill="black" stroke="black" points="1022.27,-64.32 1022.33,-53.73 1015.68,-61.97 1022.27,-64.32"/>
</g>
<!-- NASALib/lnexp@convergence_special&#45;&gt;NASALib/ints -->
<g id="edge2" class="edge">
<title>NASALib/lnexp@convergence_special&#45;&gt;NASALib/ints</title>
<path fill="none" stroke="black" d="M1003,-108C1003,-108 1027,-91 1027,-91 1027,-91 1068,-83 1068,-83 1068,-83 1075.9,-72.46 1084.3,-61.26"/>
<polygon fill="black" stroke="black" points="1086.9,-63.64 1090.1,-53.54 1081.3,-59.44 1086.9,-63.64"/>
</g>
<!-- NASALib/lnexp@expt -->
<g id="node6" class="node">
<title>NASALib/lnexp@expt</title>
<ellipse fill="#e6f3ff" stroke="black" cx="340" cy="-109" rx="27" ry="18"/>
<text text-anchor="middle" x="340" y="-105.3" font-family="Times,serif" font-size="14.00">expt</text>
</g>
<!-- NASALib/lnexp@convergence_special&#45;&gt;NASALib/lnexp@expt -->
<g id="edge3" class="edge">
<title>NASALib/lnexp@convergence_special&#45;&gt;NASALib/lnexp@expt</title>
<path fill="none" stroke="black" d="M405.62,-163.41C393.63,-153.65 378.36,-141.22 365.56,-130.81"/>
<polygon fill="black" stroke="black" points="367.91,-128.2 357.94,-124.61 363.49,-133.63 367.91,-128.2"/>
</g>
<!-- NASALib/lnexp@exp_approx -->
<g id="node4" class="node">
<title>NASALib/lnexp@exp_approx</title>
<ellipse fill="#e6f3ff" stroke="black" cx="413" cy="-325" rx="51.99" ry="18"/>
<text text-anchor="middle" x="413" y="-321.3" font-family="Times,serif" font-size="14.00">exp_approx</text>
</g>
<!-- NASALib/lnexp@exp_series -->
<g id="node5" class="node">
<title>NASALib/lnexp@exp_series</title>
<ellipse fill="#e6f3ff" stroke="black" cx="413" cy="-253" rx="48.19" ry="18"/>
<text text-anchor="middle" x="413" y="-249.3" font-family="Times,serif" font-size="14.00">exp_series</text>
</g>
<!-- NASALib/lnexp@exp_approx&#45;&gt;NASALib/lnexp@exp_series -->
<g id="edge4" class="edge">
<title>NASALib/lnexp@exp_approx&#45;&gt;NASALib/lnexp@exp_series</title>
<path fill="none" stroke="black" d="M413,-306.7C413,-299.41 413,-290.73 413,-282.54"/>
<polygon fill="black" stroke="black" points="416.5,-282.62 413,-272.62 409.5,-282.62 416.5,-282.62"/>
</g>
<!-- NASALib/reals -->
<g id="node17" class="node">
<title>NASALib/reals</title>
<polygon fill="#fcfcd7" stroke="black" points="1275,-52 1221,-52 1221,-16 1275,-16 1275,-52"/>
<text text-anchor="middle" x="1248" y="-30.3" font-family="Times,serif" font-size="14.00">reals</text>
</g>
<!-- NASALib/lnexp@exp_approx&#45;&gt;NASALib/reals -->
<g id="edge5" class="edge">
<title>NASALib/lnexp@exp_approx&#45;&gt;NASALib/reals</title>
<path fill="none" stroke="black" d="M599,-252C599,-252 1208,-199 1208,-199 1208,-199 1228,-127 1228,-127 1228,-127 1235.93,-90.54 1241.8,-63.53"/>
<polygon fill="black" stroke="black" points="1245.21,-64.3 1243.92,-53.78 1238.37,-62.81 1245.21,-64.3"/>
<path fill="none" stroke="black" d="M450.48,-312.11C499.72,-296.48 580,-271 580,-271 580,-271 599,-254 599,-254"/>
</g>
<!-- NASALib/lnexp@exp_series&#45;&gt;NASALib/ints -->
<g id="edge6" class="edge">
<title>NASALib/lnexp@exp_series&#45;&gt;NASALib/ints</title>
<path fill="none" stroke="black" d="M1176,-108C1176,-108 1140,-83 1140,-83 1140,-83 1132.1,-72.46 1123.7,-61.26"/>
<polygon fill="black" stroke="black" points="1126.7,-59.44 1117.9,-53.54 1121.1,-63.64 1126.7,-59.44"/>
<path fill="none" stroke="black" d="M451.56,-241.91C465.56,-238.25 478,-235 478,-235 478,-235 953,-199 953,-199 953,-199 1176,-110 1176,-110"/>
</g>
<!-- NASALib/lnexp@exp_series&#45;&gt;NASALib/lnexp@convergence_special -->
<g id="edge7" class="edge">
<title>NASALib/lnexp@exp_series&#45;&gt;NASALib/lnexp@convergence_special</title>
<path fill="none" stroke="black" d="M416.21,-234.7C417.58,-227.32 419.22,-218.52 420.75,-210.25"/>
<polygon fill="black" stroke="black" points="424.16,-211.06 422.55,-200.59 417.28,-209.79 424.16,-211.06"/>
</g>
<!-- NASALib/lnexp@ln_exp -->
<g id="node11" class="node">
<title>NASALib/lnexp@ln_exp</title>
<ellipse fill="#e6f3ff" stroke="black" cx="596" cy="-34" rx="34.39" ry="18"/>
<text text-anchor="middle" x="596" y="-30.3" font-family="Times,serif" font-size="14.00">ln_exp</text>
</g>
<!-- NASALib/lnexp@exp_series&#45;&gt;NASALib/lnexp@ln_exp -->
<g id="edge8" class="edge">
<title>NASALib/lnexp@exp_series&#45;&gt;NASALib/lnexp@ln_exp</title>
<path fill="none" stroke="black" d="M368.34,-245.87C266.74,-231.92 27,-199 27,-199 27,-199 27,-163 27,-163 27,-163 304,-91 304,-91 304,-91 471.9,-58.8 553.06,-43.23"/>
<polygon fill="black" stroke="black" points="553.27,-46.76 562.43,-41.44 551.95,-39.88 553.27,-46.76"/>
</g>
<!-- NASALib/lnexp@exp_series&#45;&gt;NASALib/reals -->
<g id="edge9" class="edge">
<title>NASALib/lnexp@exp_series&#45;&gt;NASALib/reals</title>
<path fill="none" stroke="black" d="M1176,-108C1176,-108 1200,-91 1200,-91 1200,-91 1212,-83 1212,-83 1212,-83 1219.9,-72.46 1228.3,-61.26"/>
<polygon fill="black" stroke="black" points="1230.9,-63.64 1234.1,-53.54 1225.3,-59.44 1230.9,-63.64"/>
</g>
<!-- NASALib/series -->
<g id="node18" class="node">
<title>NASALib/series</title>
<polygon fill="#fcfcd7" stroke="black" points="1203,-52 1149,-52 1149,-16 1203,-16 1203,-52"/>
<text text-anchor="middle" x="1176" y="-30.3" font-family="Times,serif" font-size="14.00">series</text>
</g>
<!-- NASALib/lnexp@exp_series&#45;&gt;NASALib/series -->
<g id="edge10" class="edge">
<title>NASALib/lnexp@exp_series&#45;&gt;NASALib/series</title>
<path fill="none" stroke="black" d="M1176,-108C1176,-108 1176,-84.16 1176,-63.73"/>
<polygon fill="black" stroke="black" points="1179.5,-63.81 1176,-53.81 1172.5,-63.81 1179.5,-63.81"/>
</g>
<!-- NASALib/lnexp@expt&#45;&gt;NASALib/lnexp@ln_exp -->
<g id="edge11" class="edge">
<title>NASALib/lnexp@expt&#45;&gt;NASALib/lnexp@ln_exp</title>
<path fill="none" stroke="black" d="M364.55,-101C408.71,-88.41 501.95,-61.82 555.63,-46.51"/>
<polygon fill="black" stroke="black" points="556.35,-49.95 565,-43.84 554.43,-43.22 556.35,-49.95"/>
</g>
<!-- NASALib/lnexp@harmonic_series -->
<g id="node7" class="node">
<title>NASALib/lnexp@harmonic_series</title>
<ellipse fill="#e6f3ff" stroke="black" cx="255" cy="-181" rx="68.79" ry="18"/>
<text text-anchor="middle" x="255" y="-177.3" font-family="Times,serif" font-size="14.00">harmonic_series</text>
</g>
<!-- NASALib/lnexp@harmonic_series&#45;&gt;NASALib/lnexp@expt -->
<g id="edge12" class="edge">
<title>NASALib/lnexp@harmonic_series&#45;&gt;NASALib/lnexp@expt</title>
<path fill="none" stroke="black" d="M275.14,-163.41C287,-153.65 302.09,-141.22 314.73,-130.81"/>
<polygon fill="black" stroke="black" points="316.76,-133.67 322.26,-124.61 312.31,-128.27 316.76,-133.67"/>
</g>
<!-- NASALib/lnexp@harmonic_series&#45;&gt;NASALib/series -->
<g id="edge13" class="edge">
<title>NASALib/lnexp@harmonic_series&#45;&gt;NASALib/series</title>
<path fill="none" stroke="black" d="M306.59,-168.76C321.1,-165.59 333,-163 333,-163 333,-163 984,-127 984,-127 984,-127 1140,-83 1140,-83 1140,-83 1147.9,-72.46 1156.3,-61.26"/>
<polygon fill="black" stroke="black" points="1158.9,-63.64 1162.1,-53.54 1153.3,-59.44 1158.9,-63.64"/>
</g>
<!-- NASALib/lnexp@hyperbolic -->
<g id="node8" class="node">
<title>NASALib/lnexp@hyperbolic</title>
<ellipse fill="#e6f3ff" stroke="black" cx="596" cy="-109" rx="48.19" ry="18"/>
<text text-anchor="middle" x="596" y="-105.3" font-family="Times,serif" font-size="14.00">hyperbolic</text>
</g>
<!-- NASALib/lnexp@hyperbolic&#45;&gt;NASALib/analysis -->
<g id="edge14" class="edge">
<title>NASALib/lnexp@hyperbolic&#45;&gt;NASALib/analysis</title>
<path fill="none" stroke="black" d="M632.74,-97.04C643.77,-93.75 653,-91 653,-91 653,-91 987,-83 987,-83 987,-83 996.4,-72.25 1006.31,-60.93"/>
<polygon fill="black" stroke="black" points="1008.89,-63.3 1012.84,-53.47 1003.62,-58.69 1008.89,-63.3"/>
</g>
<!-- NASALib/lnexp@hyperbolic&#45;&gt;NASALib/lnexp@ln_exp -->
<g id="edge15" class="edge">
<title>NASALib/lnexp@hyperbolic&#45;&gt;NASALib/lnexp@ln_exp</title>
<path fill="none" stroke="black" d="M596,-90.7C596,-82.67 596,-72.9 596,-63.8"/>
<polygon fill="black" stroke="black" points="599.5,-63.94 596,-53.94 592.5,-63.94 599.5,-63.94"/>
</g>
<!-- NASALib/lnexp@hyperbolic&#45;&gt;NASALib/reals -->
<g id="edge16" class="edge">
<title>NASALib/lnexp@hyperbolic&#45;&gt;NASALib/reals</title>
<path fill="none" stroke="black" d="M632.74,-97.04C643.77,-93.75 653,-91 653,-91 653,-91 1212,-83 1212,-83 1212,-83 1219.9,-72.46 1228.3,-61.26"/>
<polygon fill="black" stroke="black" points="1230.9,-63.64 1234.1,-53.54 1225.3,-59.44 1230.9,-63.64"/>
</g>
<!-- NASALib/lnexp@ln_approx -->
<g id="node9" class="node">
<title>NASALib/lnexp@ln_approx</title>
<ellipse fill="#e6f3ff" stroke="black" cx="529" cy="-325" rx="46.29" ry="18"/>
<text text-anchor="middle" x="529" y="-321.3" font-family="Times,serif" font-size="14.00">ln_approx</text>
</g>
<!-- NASALib/lnexp@ln_series -->
<g id="node14" class="node">
<title>NASALib/lnexp@ln_series</title>
<ellipse fill="#e6f3ff" stroke="black" cx="529" cy="-253" rx="42.49" ry="18"/>
<text text-anchor="middle" x="529" y="-249.3" font-family="Times,serif" font-size="14.00">ln_series</text>
</g>
<!-- NASALib/lnexp@ln_approx&#45;&gt;NASALib/lnexp@ln_series -->
<g id="edge17" class="edge">
<title>NASALib/lnexp@ln_approx&#45;&gt;NASALib/lnexp@ln_series</title>
<path fill="none" stroke="black" d="M529,-306.7C529,-299.41 529,-290.73 529,-282.54"/>
<polygon fill="black" stroke="black" points="532.5,-282.62 529,-272.62 525.5,-282.62 532.5,-282.62"/>
</g>
<!-- NASALib/lnexp@ln_approx&#45;&gt;NASALib/reals -->
<g id="edge18" class="edge">
<title>NASALib/lnexp@ln_approx&#45;&gt;NASALib/reals</title>
<path fill="none" stroke="black" d="M545.24,-307.76C565.91,-287.09 599,-254 599,-254"/>
</g>
<!-- NASALib/lnexp@ln_derivative_lam -->
<g id="node10" class="node">
<title>NASALib/lnexp@ln_derivative_lam</title>
<ellipse fill="#e6f3ff" stroke="black" cx="900" cy="-109" rx="75.29" ry="18"/>
<text text-anchor="middle" x="900" y="-105.3" font-family="Times,serif" font-size="14.00">ln_derivative_lam</text>
</g>
<!-- NASALib/lnexp@ln_derivative_lam&#45;&gt;NASALib/analysis -->
<g id="edge19" class="edge">
<title>NASALib/lnexp@ln_derivative_lam&#45;&gt;NASALib/analysis</title>
<path fill="none" stroke="black" d="M946.81,-94.55C967.4,-88.63 987,-83 987,-83 987,-83 996.4,-72.25 1006.31,-60.93"/>
<polygon fill="black" stroke="black" points="1008.89,-63.3 1012.84,-53.47 1003.62,-58.69 1008.89,-63.3"/>
</g>
<!-- NASALib/lnexp@ln_derivative_lam&#45;&gt;NASALib/lnexp@ln_exp -->
<g id="edge20" class="edge">
<title>NASALib/lnexp@ln_derivative_lam&#45;&gt;NASALib/lnexp@ln_exp</title>
<path fill="none" stroke="black" d="M848.09,-95.53C788.72,-81.28 692.67,-58.21 637.87,-45.05"/>
<polygon fill="black" stroke="black" points="638.84,-41.69 628.3,-42.76 637.21,-48.49 638.84,-41.69"/>
</g>
<!-- NASALib/lnexp@ln_exp&#45;&gt;NASALib/analysis -->
<g id="edge21" class="edge">
<title>NASALib/lnexp@ln_exp&#45;&gt;NASALib/analysis</title>
<path fill="none" stroke="black" d="M630.57,-34C673.27,-34 740.33,-34 740.33,-34 740.33,-34 884.67,-34 884.67,-34 884.67,-34 944.62,-34 987.24,-34"/>
<polygon fill="black" stroke="black" points="987.23,-37.5 997.23,-34 987.23,-30.5 987.23,-37.5"/>
</g>
<!-- NASALib/lnexp@ln_exp_ineq -->
<g id="node12" class="node">
<title>NASALib/lnexp@ln_exp_ineq</title>
<ellipse fill="#e6f3ff" stroke="black" cx="602" cy="-181" rx="53.89" ry="18"/>
<text text-anchor="middle" x="602" y="-177.3" font-family="Times,serif" font-size="14.00">ln_exp_ineq</text>
</g>
<!-- NASALib/lnexp@ln_exp_ineq&#45;&gt;NASALib/analysis -->
<g id="edge22" class="edge">
<title>NASALib/lnexp@ln_exp_ineq&#45;&gt;NASALib/analysis</title>
<path fill="none" stroke="black" d="M652.21,-174.13C770.15,-160.33 1055,-127 1055,-127 1055,-127 1079,-110 1079,-110"/>
<path fill="none" stroke="black" d="M1079,-108C1079,-108 1061.59,-82.58 1047.31,-61.74"/>
<polygon fill="black" stroke="black" points="1050.24,-59.82 1041.7,-53.55 1044.47,-63.78 1050.24,-59.82"/>
</g>
<!-- NASALib/lnexp@ln_exp_ineq&#45;&gt;NASALib/lnexp@ln_exp -->
<g id="edge23" class="edge">
<title>NASALib/lnexp@ln_exp_ineq&#45;&gt;NASALib/lnexp@ln_exp</title>
<path fill="none" stroke="black" d="M582.76,-163.81C564.23,-148.22 539,-127 539,-127 539,-127 529,-110 529,-110"/>
</g>
<!-- NASALib/lnexp@ln_exp_series_alt -->
<g id="node13" class="node">
<title>NASALib/lnexp@ln_exp_series_alt</title>
<ellipse fill="#e6f3ff" stroke="black" cx="734" cy="-109" rx="72.29" ry="18"/>
<text text-anchor="middle" x="734" y="-105.3" font-family="Times,serif" font-size="14.00">ln_exp_series_alt</text>
</g>
<!-- NASALib/lnexp@ln_exp_ineq&#45;&gt;NASALib/lnexp@ln_exp_series_alt -->
<g id="edge24" class="edge">
<title>NASALib/lnexp@ln_exp_ineq&#45;&gt;NASALib/lnexp@ln_exp_series_alt</title>
<path fill="none" stroke="black" d="M629.99,-165.15C648.64,-155.27 673.42,-142.12 694.12,-131.15"/>
<polygon fill="black" stroke="black" points="695.68,-134.28 702.87,-126.51 692.4,-128.1 695.68,-134.28"/>
</g>
<!-- NASALib/lnexp@ln_exp_series_alt&#45;&gt;NASALib/analysis -->
<g id="edge25" class="edge">
<title>NASALib/lnexp@ln_exp_series_alt&#45;&gt;NASALib/analysis</title>
<path fill="none" stroke="black" d="M788.24,-96.76C803.49,-93.59 816,-91 816,-91 816,-91 987,-83 987,-83 987,-83 996.4,-72.25 1006.31,-60.93"/>
<polygon fill="black" stroke="black" points="1008.89,-63.3 1012.84,-53.47 1003.62,-58.69 1008.89,-63.3"/>
</g>
<!-- NASALib/lnexp@ln_exp_series_alt&#45;&gt;NASALib/lnexp@ln_exp -->
<g id="edge26" class="edge">
<title>NASALib/lnexp@ln_exp_series_alt&#45;&gt;NASALib/lnexp@ln_exp</title>
<path fill="none" stroke="black" d="M704.06,-92.16C682.06,-80.52 652.16,-64.71 629.39,-52.67"/>
<polygon fill="black" stroke="black" points="631.3,-49.71 620.83,-48.13 628.03,-55.9 631.3,-49.71"/>
</g>
<!-- NASALib/lnexp@ln_exp_series_alt&#45;&gt;NASALib/reals -->
<g id="edge27" class="edge">
<title>NASALib/lnexp@ln_exp_series_alt&#45;&gt;NASALib/reals</title>
<path fill="none" stroke="black" d="M788.24,-96.76C803.49,-93.59 816,-91 816,-91 816,-91 1212,-83 1212,-83 1212,-83 1219.9,-72.46 1228.3,-61.26"/>
<polygon fill="black" stroke="black" points="1230.9,-63.64 1234.1,-53.54 1225.3,-59.44 1230.9,-63.64"/>
</g>
<!-- NASALib/lnexp@ln_exp_series_alt&#45;&gt;NASALib/series -->
<g id="edge28" class="edge">
<title>NASALib/lnexp@ln_exp_series_alt&#45;&gt;NASALib/series</title>
<path fill="none" stroke="black" d="M788.24,-96.76C803.49,-93.59 816,-91 816,-91 816,-91 1140,-83 1140,-83 1140,-83 1147.9,-72.46 1156.3,-61.26"/>
<polygon fill="black" stroke="black" points="1158.9,-63.64 1162.1,-53.54 1153.3,-59.44 1158.9,-63.64"/>
</g>
<!-- NASALib/lnexp@ln_series&#45;&gt;NASALib/analysis -->
<g id="edge29" class="edge">
<title>NASALib/lnexp@ln_series&#45;&gt;NASALib/analysis</title>
<path fill="none" stroke="black" d="M1214,-108C1214,-108 1190,-91 1190,-91 1190,-91 1068,-83 1068,-83 1068,-83 1059.44,-72.46 1050.34,-61.26"/>
<polygon fill="black" stroke="black" points="1053.06,-59.06 1044.03,-53.5 1047.62,-63.47 1053.06,-59.06"/>
<path fill="none" stroke="black" d="M562.87,-241.72C574.66,-238.14 585,-235 585,-235 585,-235 1190,-199 1190,-199 1190,-199 1214,-110 1214,-110"/>
</g>
<!-- NASALib/lnexp@ln_series&#45;&gt;NASALib/lnexp@convergence_special -->
<g id="edge30" class="edge">
<title>NASALib/lnexp@ln_series&#45;&gt;NASALib/lnexp@convergence_special</title>
<path fill="none" stroke="black" d="M507.16,-237.15C493.37,-227.78 475.27,-215.49 459.67,-204.88"/>
<polygon fill="black" stroke="black" points="461.83,-202.12 451.59,-199.39 457.89,-207.91 461.83,-202.12"/>
</g>
<!-- NASALib/lnexp@ln_series&#45;&gt;NASALib/lnexp@ln_exp -->
<g id="edge31" class="edge">
<title>NASALib/lnexp@ln_series&#45;&gt;NASALib/lnexp@ln_exp</title>
<path fill="none" stroke="black" d="M529,-108C529,-108 539,-91 539,-91 539,-91 556.8,-73.51 572.51,-58.08"/>
<polygon fill="black" stroke="black" points="574.66,-60.87 579.34,-51.36 569.76,-55.87 574.66,-60.87"/>
<path fill="none" stroke="black" d="M529,-234.59C529,-196.67 529,-110 529,-110"/>
</g>
<!-- NASALib/lnexp@ln_series&#45;&gt;NASALib/reals -->
<g id="edge32" class="edge">
<title>NASALib/lnexp@ln_series&#45;&gt;NASALib/reals</title>
<path fill="none" stroke="black" d="M1214,-108C1214,-108 1225.52,-83.26 1235.15,-62.59"/>
<polygon fill="black" stroke="black" points="1238.25,-64.21 1239.3,-53.67 1231.91,-61.26 1238.25,-64.21"/>
</g>
<!-- NASALib/lnexp@ln_series&#45;&gt;NASALib/series -->
<g id="edge33" class="edge">
<title>NASALib/lnexp@ln_series&#45;&gt;NASALib/series</title>
<path fill="none" stroke="black" d="M1214,-108C1214,-108 1201,-83.04 1190.21,-62.3"/>
<polygon fill="black" stroke="black" points="1193.43,-60.9 1185.7,-53.64 1187.22,-64.13 1193.43,-60.9"/>
</g>
<!-- NASALib/lnexp@lnexp_safe_ops -->
<g id="node15" class="node">
<title>NASALib/lnexp@lnexp_safe_ops</title>
<ellipse fill="#e6f3ff" stroke="black" cx="102" cy="-181" rx="65.79" ry="18"/>
<text text-anchor="middle" x="102" y="-177.3" font-family="Times,serif" font-size="14.00">lnexp_safe_ops</text>
</g>
<!-- NASALib/lnexp@lnexp_safe_ops&#45;&gt;NASALib/lnexp@expt -->
<g id="edge34" class="edge">
<title>NASALib/lnexp@lnexp_safe_ops&#45;&gt;NASALib/lnexp@expt</title>
<path fill="none" stroke="black" d="M145.65,-167.16C191.38,-153.71 262.33,-132.85 304.67,-120.39"/>
<polygon fill="black" stroke="black" points="305.49,-123.8 314.1,-117.62 303.52,-117.08 305.49,-123.8"/>
</g>
<!-- NASALib/lnexp@strategies -->
<g id="node16" class="node">
<title>NASALib/lnexp@strategies</title>
<ellipse fill="#e6f3ff" stroke="black" cx="900" cy="-181" rx="44.39" ry="18"/>
<text text-anchor="middle" x="900" y="-177.3" font-family="Times,serif" font-size="14.00">strategies</text>
</g>
<!-- NASALib/lnexp@strategies&#45;&gt;NASALib/analysis -->
<g id="edge35" class="edge">
<title>NASALib/lnexp@strategies&#45;&gt;NASALib/analysis</title>
<path fill="none" stroke="black" d="M933.25,-168.63C978.8,-153.06 1055,-127 1055,-127 1055,-127 1079,-110 1079,-110"/>
</g>
<!-- NASALib/lnexp@strategies&#45;&gt;NASALib/lnexp@ln_derivative_lam -->
<g id="edge36" class="edge">
<title>NASALib/lnexp@strategies&#45;&gt;NASALib/lnexp@ln_derivative_lam</title>
<path fill="none" stroke="black" d="M900,-162.7C900,-155.41 900,-146.73 900,-138.54"/>
<polygon fill="black" stroke="black" points="903.5,-138.62 900,-128.62 896.5,-138.62 903.5,-138.62"/>
</g>
</g>
</svg>
