<?xml version="1.0" encoding="UTF-8" standalone="no"?>
<!DOCTYPE svg PUBLIC "-//W3C//DTD SVG 1.1//EN"
 "http://www.w3.org/Graphics/SVG/1.1/DTD/svg11.dtd">
<!-- Generated by graphviz version 8.0.4 (20230421.1958)
 -->
<!-- Title: lnexp&#45;zoomed Pages: 1 -->
<svg width="1334pt" height="393pt"
 viewBox="0.00 0.00 1334.00 393.00" xmlns="http://www.w3.org/2000/svg" xmlns:xlink="http://www.w3.org/1999/xlink">
<g id="graph0" class="graph" transform="scale(1 1) rotate(0) translate(4 389)">
<title>lnexp&#45;zoomed</title>
<polygon fill="white" stroke="none" points="-4,4 -4,-389 1330,-389 1330,4 -4,4"/>
<g id="clust1" class="cluster">
<title>cluster_NASALib</title>
<polygon fill="none" stroke="black" points="1026,-8 1026,-84.5 1318,-84.5 1318,-8 1026,-8"/>
<text text-anchor="middle" x="1172" y="-67.2" font-family="Times,serif" font-size="14.00">NASALib</text>
</g>
<g id="clust2" class="cluster">
<title>cluster_NASALib/lnexp</title>
<polygon fill="none" stroke="black" points="8,-8 8,-377 1018,-377 1018,-8 8,-8"/>
<text text-anchor="middle" x="513" y="-359.7" font-family="Times,serif" font-size="14.00">NASALib/lnexp</text>
</g>
<!-- NASALib/analysis -->
<g id="node1" class="node">
<title>NASALib/analysis</title>
<polygon fill="#fcfcd7" stroke="black" points="1093.75,-52 1034.25,-52 1034.25,-16 1093.75,-16 1093.75,-52"/>
<text text-anchor="middle" x="1064" y="-28.95" font-family="Times,serif" font-size="14.00">analysis</text>
</g>
<!-- NASALib/ints -->
<g id="node2" class="node">
<title>NASALib/ints</title>
<polygon fill="#fcfcd7" stroke="black" points="1166,-52 1112,-52 1112,-16 1166,-16 1166,-52"/>
<text text-anchor="middle" x="1139" y="-28.95" font-family="Times,serif" font-size="14.00">ints</text>
</g>
<!-- NASALib/lnexp@convergence_special -->
<g id="node3" class="node">
<title>NASALib/lnexp@convergence_special</title>
<ellipse fill="#e6f3ff" stroke="black" cx="440" cy="-182.5" rx="87.69" ry="18"/>
<text text-anchor="middle" x="440" y="-177.45" font-family="Times,serif" font-size="14.00">convergence_special</text>
</g>
<!-- NASALib/lnexp@convergence_special&#45;&gt;NASALib/analysis -->
<g id="edge1" class="edge">
<title>NASALib/lnexp@convergence_special&#45;&gt;NASALib/analysis</title>
<path fill="none" stroke="black" d="M510.09,-171.32C535,-167.7 557,-164.5 557,-164.5 557,-164.5 1019,-128.5 1019,-128.5 1019,-128.5 1038,-111.5 1038,-111.5"/>
<path fill="none" stroke="black" d="M1038,-109.5C1038,-109.5 1046.99,-83.73 1054.4,-62.5"/>
<polygon fill="black" stroke="black" points="1057.98,-63.87 1057.97,-53.28 1051.37,-61.57 1057.98,-63.87"/>
</g>
<!-- NASALib/lnexp@convergence_special&#45;&gt;NASALib/ints -->
<g id="edge2" class="edge">
<title>NASALib/lnexp@convergence_special&#45;&gt;NASALib/ints</title>
<path fill="none" stroke="black" d="M1038,-109.5C1038,-109.5 1062,-92.5 1062,-92.5 1062,-92.5 1103,-84.5 1103,-84.5 1103,-84.5 1111.44,-72.9 1120.14,-60.93"/>
<polygon fill="black" stroke="black" points="1123.36,-63.46 1126.41,-53.31 1117.7,-59.34 1123.36,-63.46"/>
</g>
<!-- NASALib/lnexp@expt -->
<g id="node6" class="node">
<title>NASALib/lnexp@expt</title>
<ellipse fill="#e6f3ff" stroke="black" cx="351" cy="-110.5" rx="27" ry="18"/>
<text text-anchor="middle" x="351" y="-105.45" font-family="Times,serif" font-size="14.00">expt</text>
</g>
<!-- NASALib/lnexp@convergence_special&#45;&gt;NASALib/lnexp@expt -->
<g id="edge3" class="edge">
<title>NASALib/lnexp@convergence_special&#45;&gt;NASALib/lnexp@expt</title>
<path fill="none" stroke="black" d="M418.91,-164.91C406.17,-154.9 389.86,-142.07 376.42,-131.49"/>
<polygon fill="black" stroke="black" points="379.09,-128.35 369.07,-124.92 374.76,-133.86 379.09,-128.35"/>
</g>
<!-- NASALib/lnexp@exp_approx -->
<g id="node4" class="node">
<title>NASALib/lnexp@exp_approx</title>
<ellipse fill="#e6f3ff" stroke="black" cx="426" cy="-326.5" rx="54.42" ry="18"/>
<text text-anchor="middle" x="426" y="-321.45" font-family="Times,serif" font-size="14.00">exp_approx</text>
</g>
<!-- NASALib/lnexp@exp_series -->
<g id="node5" class="node">
<title>NASALib/lnexp@exp_series</title>
<ellipse fill="#e6f3ff" stroke="black" cx="426" cy="-254.5" rx="49.82" ry="18"/>
<text text-anchor="middle" x="426" y="-249.45" font-family="Times,serif" font-size="14.00">exp_series</text>
</g>
<!-- NASALib/lnexp@exp_approx&#45;&gt;NASALib/lnexp@exp_series -->
<g id="edge4" class="edge">
<title>NASALib/lnexp@exp_approx&#45;&gt;NASALib/lnexp@exp_series</title>
<path fill="none" stroke="black" d="M426,-308.2C426,-300.74 426,-291.82 426,-283.47"/>
<polygon fill="black" stroke="black" points="429.5,-283.6 426,-273.6 422.5,-283.6 429.5,-283.6"/>
</g>
<!-- NASALib/reals -->
<g id="node17" class="node">
<title>NASALib/reals</title>
<polygon fill="#fcfcd7" stroke="black" points="1310,-52 1256,-52 1256,-16 1310,-16 1310,-52"/>
<text text-anchor="middle" x="1283" y="-28.95" font-family="Times,serif" font-size="14.00">reals</text>
</g>
<!-- NASALib/lnexp@exp_approx&#45;&gt;NASALib/reals -->
<g id="edge5" class="edge">
<title>NASALib/lnexp@exp_approx&#45;&gt;NASALib/reals</title>
<path fill="none" stroke="black" d="M619,-253.5C619,-253.5 1243,-200.5 1243,-200.5 1243,-200.5 1263,-128.5 1263,-128.5 1263,-128.5 1271.16,-90.37 1277.05,-62.81"/>
<polygon fill="black" stroke="black" points="1280.66,-63.66 1279.33,-53.15 1273.82,-62.2 1280.66,-63.66"/>
<path fill="none" stroke="black" d="M465.05,-313.61C516.35,-297.98 600,-272.5 600,-272.5 600,-272.5 619,-255.5 619,-255.5"/>
</g>
<!-- NASALib/lnexp@exp_series&#45;&gt;NASALib/ints -->
<g id="edge6" class="edge">
<title>NASALib/lnexp@exp_series&#45;&gt;NASALib/ints</title>
<path fill="none" stroke="black" d="M1211,-109.5C1211,-109.5 1175,-84.5 1175,-84.5 1175,-84.5 1166.56,-72.9 1157.86,-60.93"/>
<polygon fill="black" stroke="black" points="1160.3,-59.34 1151.59,-53.31 1154.64,-63.46 1160.3,-59.34"/>
<path fill="none" stroke="black" d="M465.95,-243.51C480.75,-239.81 494,-236.5 494,-236.5 494,-236.5 987,-200.5 987,-200.5 987,-200.5 1211,-111.5 1211,-111.5"/>
</g>
<!-- NASALib/lnexp@exp_series&#45;&gt;NASALib/lnexp@convergence_special -->
<g id="edge7" class="edge">
<title>NASALib/lnexp@exp_series&#45;&gt;NASALib/lnexp@convergence_special</title>
<path fill="none" stroke="black" d="M429.46,-236.2C430.97,-228.65 432.78,-219.62 434.46,-211.18"/>
<polygon fill="black" stroke="black" points="438.05,-212.1 436.58,-201.6 431.19,-210.72 438.05,-212.1"/>
</g>
<!-- NASALib/lnexp@ln_exp -->
<g id="node11" class="node">
<title>NASALib/lnexp@ln_exp</title>
<ellipse fill="#e6f3ff" stroke="black" cx="616" cy="-34" rx="36" ry="18"/>
<text text-anchor="middle" x="616" y="-28.95" font-family="Times,serif" font-size="14.00">ln_exp</text>
</g>
<!-- NASALib/lnexp@exp_series&#45;&gt;NASALib/lnexp@ln_exp -->
<g id="edge8" class="edge">
<title>NASALib/lnexp@exp_series&#45;&gt;NASALib/lnexp@ln_exp</title>
<path fill="none" stroke="black" d="M379.84,-247.37C274.81,-233.42 27,-200.5 27,-200.5 27,-200.5 27,-164.5 27,-164.5 27,-164.5 315,-92.5 315,-92.5 315,-92.5 488.35,-59.38 571.94,-43.42"/>
<polygon fill="black" stroke="black" points="572.47,-46.69 581.64,-41.37 571.16,-39.81 572.47,-46.69"/>
</g>
<!-- NASALib/lnexp@exp_series&#45;&gt;NASALib/reals -->
<g id="edge9" class="edge">
<title>NASALib/lnexp@exp_series&#45;&gt;NASALib/reals</title>
<path fill="none" stroke="black" d="M1211,-109.5C1211,-109.5 1235,-92.5 1235,-92.5 1235,-92.5 1247,-84.5 1247,-84.5 1247,-84.5 1255.44,-72.9 1264.14,-60.93"/>
<polygon fill="black" stroke="black" points="1267.36,-63.46 1270.41,-53.31 1261.7,-59.34 1267.36,-63.46"/>
</g>
<!-- NASALib/series -->
<g id="node18" class="node">
<title>NASALib/series</title>
<polygon fill="#fcfcd7" stroke="black" points="1238,-52 1184,-52 1184,-16 1238,-16 1238,-52"/>
<text text-anchor="middle" x="1211" y="-28.95" font-family="Times,serif" font-size="14.00">series</text>
</g>
<!-- NASALib/lnexp@exp_series&#45;&gt;NASALib/series -->
<g id="edge10" class="edge">
<title>NASALib/lnexp@exp_series&#45;&gt;NASALib/series</title>
<path fill="none" stroke="black" d="M1211,-109.5C1211,-109.5 1211,-84.2 1211,-63.09"/>
<polygon fill="black" stroke="black" points="1214.5,-63.28 1211,-53.28 1207.5,-63.28 1214.5,-63.28"/>
</g>
<!-- NASALib/lnexp@expt&#45;&gt;NASALib/lnexp@ln_exp -->
<g id="edge11" class="edge">
<title>NASALib/lnexp@expt&#45;&gt;NASALib/lnexp@ln_exp</title>
<path fill="none" stroke="black" d="M375.46,-102.62C420.96,-89.83 519.06,-62.25 574.9,-46.55"/>
<polygon fill="black" stroke="black" points="575.47,-49.75 584.15,-43.67 573.57,-43.01 575.47,-49.75"/>
</g>
<!-- NASALib/lnexp@harmonic_series -->
<g id="node7" class="node">
<title>NASALib/lnexp@harmonic_series</title>
<ellipse fill="#e6f3ff" stroke="black" cx="262" cy="-182.5" rx="71.82" ry="18"/>
<text text-anchor="middle" x="262" y="-177.45" font-family="Times,serif" font-size="14.00">harmonic_series</text>
</g>
<!-- NASALib/lnexp@harmonic_series&#45;&gt;NASALib/lnexp@expt -->
<g id="edge12" class="edge">
<title>NASALib/lnexp@harmonic_series&#45;&gt;NASALib/lnexp@expt</title>
<path fill="none" stroke="black" d="M283.09,-164.91C295.83,-154.9 312.14,-142.07 325.58,-131.49"/>
<polygon fill="black" stroke="black" points="327.24,-133.86 332.93,-124.92 322.91,-128.35 327.24,-133.86"/>
</g>
<!-- NASALib/lnexp@harmonic_series&#45;&gt;NASALib/series -->
<g id="edge13" class="edge">
<title>NASALib/lnexp@harmonic_series&#45;&gt;NASALib/series</title>
<path fill="none" stroke="black" d="M315.58,-170.26C330.64,-167.09 343,-164.5 343,-164.5 343,-164.5 1019,-128.5 1019,-128.5 1019,-128.5 1175,-84.5 1175,-84.5 1175,-84.5 1183.44,-72.9 1192.14,-60.93"/>
<polygon fill="black" stroke="black" points="1195.36,-63.46 1198.41,-53.31 1189.7,-59.34 1195.36,-63.46"/>
</g>
<!-- NASALib/lnexp@hyperbolic -->
<g id="node8" class="node">
<title>NASALib/lnexp@hyperbolic</title>
<ellipse fill="#e6f3ff" stroke="black" cx="616" cy="-110.5" rx="50.33" ry="18"/>
<text text-anchor="middle" x="616" y="-105.45" font-family="Times,serif" font-size="14.00">hyperbolic</text>
</g>
<!-- NASALib/lnexp@hyperbolic&#45;&gt;NASALib/analysis -->
<g id="edge14" class="edge">
<title>NASALib/lnexp@hyperbolic&#45;&gt;NASALib/analysis</title>
<path fill="none" stroke="black" d="M654.68,-98.54C666.29,-95.25 676,-92.5 676,-92.5 676,-92.5 1022,-84.5 1022,-84.5 1022,-84.5 1032.03,-72.67 1042.29,-60.58"/>
<polygon fill="black" stroke="black" points="1045.51,-63.2 1049.31,-53.31 1040.17,-58.67 1045.51,-63.2"/>
</g>
<!-- NASALib/lnexp@hyperbolic&#45;&gt;NASALib/lnexp@ln_exp -->
<g id="edge15" class="edge">
<title>NASALib/lnexp@hyperbolic&#45;&gt;NASALib/lnexp@ln_exp</title>
<path fill="none" stroke="black" d="M616,-92.22C616,-83.63 616,-73.03 616,-63.3"/>
<polygon fill="black" stroke="black" points="619.5,-63.44 616,-53.44 612.5,-63.44 619.5,-63.44"/>
</g>
<!-- NASALib/lnexp@hyperbolic&#45;&gt;NASALib/reals -->
<g id="edge16" class="edge">
<title>NASALib/lnexp@hyperbolic&#45;&gt;NASALib/reals</title>
<path fill="none" stroke="black" d="M654.68,-98.54C666.29,-95.25 676,-92.5 676,-92.5 676,-92.5 1247,-84.5 1247,-84.5 1247,-84.5 1255.44,-72.9 1264.14,-60.93"/>
<polygon fill="black" stroke="black" points="1267.36,-63.46 1270.41,-53.31 1261.7,-59.34 1267.36,-63.46"/>
</g>
<!-- NASALib/lnexp@ln_approx -->
<g id="node9" class="node">
<title>NASALib/lnexp@ln_approx</title>
<ellipse fill="#e6f3ff" stroke="black" cx="547" cy="-326.5" rx="48.28" ry="18"/>
<text text-anchor="middle" x="547" y="-321.45" font-family="Times,serif" font-size="14.00">ln_approx</text>
</g>
<!-- NASALib/lnexp@ln_series -->
<g id="node14" class="node">
<title>NASALib/lnexp@ln_series</title>
<ellipse fill="#e6f3ff" stroke="black" cx="547" cy="-254.5" rx="43.67" ry="18"/>
<text text-anchor="middle" x="547" y="-249.45" font-family="Times,serif" font-size="14.00">ln_series</text>
</g>
<!-- NASALib/lnexp@ln_approx&#45;&gt;NASALib/lnexp@ln_series -->
<g id="edge17" class="edge">
<title>NASALib/lnexp@ln_approx&#45;&gt;NASALib/lnexp@ln_series</title>
<path fill="none" stroke="black" d="M547,-308.2C547,-300.74 547,-291.82 547,-283.47"/>
<polygon fill="black" stroke="black" points="550.5,-283.6 547,-273.6 543.5,-283.6 550.5,-283.6"/>
</g>
<!-- NASALib/lnexp@ln_approx&#45;&gt;NASALib/reals -->
<g id="edge18" class="edge">
<title>NASALib/lnexp@ln_approx&#45;&gt;NASALib/reals</title>
<path fill="none" stroke="black" d="M563.7,-309.26C584.97,-288.59 619,-255.5 619,-255.5"/>
</g>
<!-- NASALib/lnexp@ln_derivative_lam -->
<g id="node10" class="node">
<title>NASALib/lnexp@ln_derivative_lam</title>
<ellipse fill="#e6f3ff" stroke="black" cx="932" cy="-110.5" rx="78.48" ry="18"/>
<text text-anchor="middle" x="932" y="-105.45" font-family="Times,serif" font-size="14.00">ln_derivative_lam</text>
</g>
<!-- NASALib/lnexp@ln_derivative_lam&#45;&gt;NASALib/analysis -->
<g id="edge19" class="edge">
<title>NASALib/lnexp@ln_derivative_lam&#45;&gt;NASALib/analysis</title>
<path fill="none" stroke="black" d="M980.69,-95.98C1001.89,-90.09 1022,-84.5 1022,-84.5 1022,-84.5 1032.03,-72.67 1042.29,-60.58"/>
<polygon fill="black" stroke="black" points="1045.51,-63.2 1049.31,-53.31 1040.17,-58.67 1045.51,-63.2"/>
</g>
<!-- NASALib/lnexp@ln_derivative_lam&#45;&gt;NASALib/lnexp@ln_exp -->
<g id="edge20" class="edge">
<title>NASALib/lnexp@ln_derivative_lam&#45;&gt;NASALib/lnexp@ln_exp</title>
<path fill="none" stroke="black" d="M878.75,-96.95C816.79,-82.34 715.69,-58.5 658.66,-45.06"/>
<polygon fill="black" stroke="black" points="659.74,-41.48 649.2,-42.59 658.13,-48.29 659.74,-41.48"/>
</g>
<!-- NASALib/lnexp@ln_exp&#45;&gt;NASALib/analysis -->
<g id="edge21" class="edge">
<title>NASALib/lnexp@ln_exp&#45;&gt;NASALib/analysis</title>
<path fill="none" stroke="black" d="M652.15,-34C696.35,-34 765.33,-34 765.33,-34 765.33,-34 914.67,-34 914.67,-34 914.67,-34 978.81,-34 1023.02,-34"/>
<polygon fill="black" stroke="black" points="1022.78,-37.5 1032.78,-34 1022.78,-30.5 1022.78,-37.5"/>
</g>
<!-- NASALib/lnexp@ln_exp_ineq -->
<g id="node12" class="node">
<title>NASALib/lnexp@ln_exp_ineq</title>
<ellipse fill="#e6f3ff" stroke="black" cx="622" cy="-182.5" rx="56.47" ry="18"/>
<text text-anchor="middle" x="622" y="-177.45" font-family="Times,serif" font-size="14.00">ln_exp_ineq</text>
</g>
<!-- NASALib/lnexp@ln_exp_ineq&#45;&gt;NASALib/analysis -->
<g id="edge22" class="edge">
<title>NASALib/lnexp@ln_exp_ineq&#45;&gt;NASALib/analysis</title>
<path fill="none" stroke="black" d="M674.32,-175.57C796.45,-161.74 1090,-128.5 1090,-128.5 1090,-128.5 1114,-111.5 1114,-111.5"/>
<path fill="none" stroke="black" d="M1114,-109.5C1114,-109.5 1096.07,-82.78 1081.68,-61.34"/>
<polygon fill="black" stroke="black" points="1084.08,-59.63 1075.6,-53.28 1078.26,-63.53 1084.08,-59.63"/>
</g>
<!-- NASALib/lnexp@ln_exp_ineq&#45;&gt;NASALib/lnexp@ln_exp -->
<g id="edge23" class="edge">
<title>NASALib/lnexp@ln_exp_ineq&#45;&gt;NASALib/lnexp@ln_exp</title>
<path fill="none" stroke="black" d="M602.14,-165.31C583.03,-149.72 557,-128.5 557,-128.5 557,-128.5 547,-111.5 547,-111.5"/>
</g>
<!-- NASALib/lnexp@ln_exp_series_alt -->
<g id="node13" class="node">
<title>NASALib/lnexp@ln_exp_series_alt</title>
<ellipse fill="#e6f3ff" stroke="black" cx="760" cy="-110.5" rx="75.41" ry="18"/>
<text text-anchor="middle" x="760" y="-105.45" font-family="Times,serif" font-size="14.00">ln_exp_series_alt</text>
</g>
<!-- NASALib/lnexp@ln_exp_ineq&#45;&gt;NASALib/lnexp@ln_exp_series_alt -->
<g id="edge24" class="edge">
<title>NASALib/lnexp@ln_exp_ineq&#45;&gt;NASALib/lnexp@ln_exp_series_alt</title>
<path fill="none" stroke="black" d="M651.27,-166.65C671.03,-156.63 697.38,-143.26 719.19,-132.2"/>
<polygon fill="black" stroke="black" points="720.52,-134.94 727.86,-127.3 717.36,-128.7 720.52,-134.94"/>
</g>
<!-- NASALib/lnexp@ln_exp_series_alt&#45;&gt;NASALib/analysis -->
<g id="edge25" class="edge">
<title>NASALib/lnexp@ln_exp_series_alt&#45;&gt;NASALib/analysis</title>
<path fill="none" stroke="black" d="M816.22,-98.26C832.03,-95.09 845,-92.5 845,-92.5 845,-92.5 1022,-84.5 1022,-84.5 1022,-84.5 1032.03,-72.67 1042.29,-60.58"/>
<polygon fill="black" stroke="black" points="1045.51,-63.2 1049.31,-53.31 1040.17,-58.67 1045.51,-63.2"/>
</g>
<!-- NASALib/lnexp@ln_exp_series_alt&#45;&gt;NASALib/lnexp@ln_exp -->
<g id="edge26" class="edge">
<title>NASALib/lnexp@ln_exp_series_alt&#45;&gt;NASALib/lnexp@ln_exp</title>
<path fill="none" stroke="black" d="M729.46,-93.7C706.1,-81.61 673.9,-64.95 649.77,-52.47"/>
<polygon fill="black" stroke="black" points="651.79,-49.06 641.3,-47.57 648.57,-55.27 651.79,-49.06"/>
</g>
<!-- NASALib/lnexp@ln_exp_series_alt&#45;&gt;NASALib/reals -->
<g id="edge27" class="edge">
<title>NASALib/lnexp@ln_exp_series_alt&#45;&gt;NASALib/reals</title>
<path fill="none" stroke="black" d="M816.22,-98.26C832.03,-95.09 845,-92.5 845,-92.5 845,-92.5 1247,-84.5 1247,-84.5 1247,-84.5 1255.44,-72.9 1264.14,-60.93"/>
<polygon fill="black" stroke="black" points="1267.36,-63.46 1270.41,-53.31 1261.7,-59.34 1267.36,-63.46"/>
</g>
<!-- NASALib/lnexp@ln_exp_series_alt&#45;&gt;NASALib/series -->
<g id="edge28" class="edge">
<title>NASALib/lnexp@ln_exp_series_alt&#45;&gt;NASALib/series</title>
<path fill="none" stroke="black" d="M816.22,-98.26C832.03,-95.09 845,-92.5 845,-92.5 845,-92.5 1175,-84.5 1175,-84.5 1175,-84.5 1183.44,-72.9 1192.14,-60.93"/>
<polygon fill="black" stroke="black" points="1195.36,-63.46 1198.41,-53.31 1189.7,-59.34 1195.36,-63.46"/>
</g>
<!-- NASALib/lnexp@ln_series&#45;&gt;NASALib/analysis -->
<g id="edge29" class="edge">
<title>NASALib/lnexp@ln_series&#45;&gt;NASALib/analysis</title>
<path fill="none" stroke="black" d="M1249,-109.5C1249,-109.5 1225,-92.5 1225,-92.5 1225,-92.5 1103,-84.5 1103,-84.5 1103,-84.5 1093.86,-72.9 1084.43,-60.93"/>
<polygon fill="black" stroke="black" points="1086.58,-59 1077.64,-53.31 1081.08,-63.33 1086.58,-59"/>
<path fill="none" stroke="black" d="M581.74,-243.32C594.1,-239.7 605,-236.5 605,-236.5 605,-236.5 1225,-200.5 1225,-200.5 1225,-200.5 1249,-111.5 1249,-111.5"/>
</g>
<!-- NASALib/lnexp@ln_series&#45;&gt;NASALib/lnexp@convergence_special -->
<g id="edge30" class="edge">
<title>NASALib/lnexp@ln_series&#45;&gt;NASALib/lnexp@convergence_special</title>
<path fill="none" stroke="black" d="M524.31,-238.65C509.71,-229.11 490.47,-216.52 474.06,-205.78"/>
<polygon fill="black" stroke="black" points="476.57,-202.58 466.28,-200.04 472.73,-208.44 476.57,-202.58"/>
</g>
<!-- NASALib/lnexp@ln_series&#45;&gt;NASALib/lnexp@ln_exp -->
<g id="edge31" class="edge">
<title>NASALib/lnexp@ln_series&#45;&gt;NASALib/lnexp@ln_exp</title>
<path fill="none" stroke="black" d="M547,-109.5C547,-109.5 557,-92.5 557,-92.5 557,-92.5 575.99,-73.99 592.42,-57.98"/>
<polygon fill="black" stroke="black" points="594.47,-60.89 599.19,-51.41 589.58,-55.88 594.47,-60.89"/>
<path fill="none" stroke="black" d="M547,-236.09C547,-198.17 547,-111.5 547,-111.5"/>
</g>
<!-- NASALib/lnexp@ln_series&#45;&gt;NASALib/reals -->
<g id="edge32" class="edge">
<title>NASALib/lnexp@ln_series&#45;&gt;NASALib/reals</title>
<path fill="none" stroke="black" d="M1249,-109.5C1249,-109.5 1260.87,-83.49 1270.58,-62.21"/>
<polygon fill="black" stroke="black" points="1274.15,-63.83 1275.11,-53.28 1267.78,-60.92 1274.15,-63.83"/>
</g>
<!-- NASALib/lnexp@ln_series&#45;&gt;NASALib/series -->
<g id="edge33" class="edge">
<title>NASALib/lnexp@ln_series&#45;&gt;NASALib/series</title>
<path fill="none" stroke="black" d="M1249,-109.5C1249,-109.5 1235.61,-83.26 1224.73,-61.92"/>
<polygon fill="black" stroke="black" points="1227.48,-60.6 1219.81,-53.28 1221.24,-63.78 1227.48,-60.6"/>
</g>
<!-- NASALib/lnexp@lnexp_safe_ops -->
<g id="node15" class="node">
<title>NASALib/lnexp@lnexp_safe_ops</title>
<ellipse fill="#e6f3ff" stroke="black" cx="104" cy="-182.5" rx="68.24" ry="18"/>
<text text-anchor="middle" x="104" y="-177.45" font-family="Times,serif" font-size="14.00">lnexp_safe_ops</text>
</g>
<!-- NASALib/lnexp@lnexp_safe_ops&#45;&gt;NASALib/lnexp@expt -->
<g id="edge34" class="edge">
<title>NASALib/lnexp@lnexp_safe_ops&#45;&gt;NASALib/lnexp@expt</title>
<path fill="none" stroke="black" d="M149.3,-168.66C197.32,-155.05 272.13,-133.85 315.88,-121.45"/>
<polygon fill="black" stroke="black" points="316.63,-124.6 325.29,-118.5 314.72,-117.86 316.63,-124.6"/>
</g>
<!-- NASALib/lnexp@strategies -->
<g id="node16" class="node">
<title>NASALib/lnexp@strategies</title>
<ellipse fill="#e6f3ff" stroke="black" cx="932" cy="-182.5" rx="45.72" ry="18"/>
<text text-anchor="middle" x="932" y="-177.45" font-family="Times,serif" font-size="14.00">strategies</text>
</g>
<!-- NASALib/lnexp@strategies&#45;&gt;NASALib/analysis -->
<g id="edge35" class="edge">
<title>NASALib/lnexp@strategies&#45;&gt;NASALib/analysis</title>
<path fill="none" stroke="black" d="M965.89,-170.13C1012.32,-154.56 1090,-128.5 1090,-128.5 1090,-128.5 1114,-111.5 1114,-111.5"/>
</g>
<!-- NASALib/lnexp@strategies&#45;&gt;NASALib/lnexp@ln_derivative_lam -->
<g id="edge36" class="edge">
<title>NASALib/lnexp@strategies&#45;&gt;NASALib/lnexp@ln_derivative_lam</title>
<path fill="none" stroke="black" d="M932,-164.2C932,-156.74 932,-147.82 932,-139.47"/>
<polygon fill="black" stroke="black" points="935.5,-139.6 932,-129.6 928.5,-139.6 935.5,-139.6"/>
</g>
</g>
</svg>
