<?xml version="1.0" encoding="UTF-8" standalone="no"?>
<!DOCTYPE svg PUBLIC "-//W3C//DTD SVG 1.1//EN"
 "http://www.w3.org/Graphics/SVG/1.1/DTD/svg11.dtd">
<!-- Generated by graphviz version 7.0.6 (20230106.0513)
 -->
<!-- Title: shapes&#45;zoomed Pages: 1 -->
<svg width="648pt" height="470pt"
 viewBox="0.00 0.00 648.00 470.00" xmlns="http://www.w3.org/2000/svg" xmlns:xlink="http://www.w3.org/1999/xlink">
<g id="graph0" class="graph" transform="scale(1 1) rotate(0) translate(4 466)">
<title>shapes&#45;zoomed</title>
<polygon fill="white" stroke="none" points="-4,4 -4,-466 644,-466 644,4 -4,4"/>
<g id="clust1" class="cluster">
<title>cluster_NASALib</title>
<polygon fill="none" stroke="black" points="222,-8 222,-83 526,-83 526,-8 222,-8"/>
<text text-anchor="middle" x="374" y="-67.8" font-family="Times,serif" font-size="14.00">NASALib</text>
</g>
<g id="clust2" class="cluster">
<title>cluster_NASALib/shapes</title>
<polygon fill="none" stroke="black" points="8,-91 8,-454 632,-454 632,-91 8,-91"/>
<text text-anchor="middle" x="320" y="-438.8" font-family="Times,serif" font-size="14.00">NASALib/shapes</text>
</g>
<!-- NASALib/reals -->
<g id="node1" class="node">
<title>NASALib/reals</title>
<polygon fill="#fcfcd7" stroke="black" points="430,-52 376,-52 376,-16 430,-16 430,-52"/>
<text text-anchor="middle" x="403" y="-30.3" font-family="Times,serif" font-size="14.00">reals</text>
</g>
<!-- NASALib/shapes@Shape2D -->
<g id="node2" class="node">
<title>NASALib/shapes@Shape2D</title>
<ellipse fill="#e6f3ff" stroke="black" cx="403" cy="-333" rx="42.79" ry="18"/>
<text text-anchor="middle" x="403" y="-329.3" font-family="Times,serif" font-size="14.00">Shape2D</text>
</g>
<!-- NASALib/shapes@circle_2D -->
<g id="node5" class="node">
<title>NASALib/shapes@circle_2D</title>
<ellipse fill="#e6f3ff" stroke="black" cx="313" cy="-261" rx="45.49" ry="18"/>
<text text-anchor="middle" x="313" y="-257.3" font-family="Times,serif" font-size="14.00">circle_2D</text>
</g>
<!-- NASALib/shapes@Shape2D&#45;&gt;NASALib/shapes@circle_2D -->
<g id="edge1" class="edge">
<title>NASALib/shapes@Shape2D&#45;&gt;NASALib/shapes@circle_2D</title>
<path fill="none" stroke="black" d="M383.47,-316.81C371.29,-307.34 355.4,-294.97 341.79,-284.39"/>
<polygon fill="black" stroke="black" points="344.04,-281.71 334,-278.33 339.74,-287.23 344.04,-281.71"/>
</g>
<!-- NASALib/shapes@circular_segment_2D -->
<g id="node7" class="node">
<title>NASALib/shapes@circular_segment_2D</title>
<ellipse fill="#e6f3ff" stroke="black" cx="245" cy="-189" rx="87.18" ry="18"/>
<text text-anchor="middle" x="245" y="-185.3" font-family="Times,serif" font-size="14.00">circular_segment_2D</text>
</g>
<!-- NASALib/shapes@Shape2D&#45;&gt;NASALib/shapes@circular_segment_2D -->
<g id="edge2" class="edge">
<title>NASALib/shapes@Shape2D&#45;&gt;NASALib/shapes@circular_segment_2D</title>
<path fill="none" stroke="black" d="M403,-260C403,-260 367,-243 367,-243 367,-243 326.13,-225.24 291.7,-210.29"/>
<polygon fill="black" stroke="black" points="293.23,-207.14 282.66,-206.36 290.44,-213.56 293.23,-207.14"/>
<path fill="none" stroke="black" d="M403,-314.7C403,-293.97 403,-262 403,-262"/>
</g>
<!-- NASALib/shapes@parallelogram_2D -->
<g id="node9" class="node">
<title>NASALib/shapes@parallelogram_2D</title>
<ellipse fill="#e6f3ff" stroke="black" cx="549" cy="-189" rx="75.29" ry="18"/>
<text text-anchor="middle" x="549" y="-185.3" font-family="Times,serif" font-size="14.00">parallelogram_2D</text>
</g>
<!-- NASALib/shapes@Shape2D&#45;&gt;NASALib/shapes@parallelogram_2D -->
<g id="edge3" class="edge">
<title>NASALib/shapes@Shape2D&#45;&gt;NASALib/shapes@parallelogram_2D</title>
<path fill="none" stroke="black" d="M403,-260C403,-260 463.24,-231.12 506.33,-210.46"/>
<polygon fill="black" stroke="black" points="507.73,-213.67 515.23,-206.19 504.7,-207.36 507.73,-213.67"/>
</g>
<!-- NASALib/shapes@rectangle_2D -->
<g id="node10" class="node">
<title>NASALib/shapes@rectangle_2D</title>
<ellipse fill="#e6f3ff" stroke="black" cx="549" cy="-261" rx="57.69" ry="18"/>
<text text-anchor="middle" x="549" y="-257.3" font-family="Times,serif" font-size="14.00">rectangle_2D</text>
</g>
<!-- NASALib/shapes@Shape2D&#45;&gt;NASALib/shapes@rectangle_2D -->
<g id="edge4" class="edge">
<title>NASALib/shapes@Shape2D&#45;&gt;NASALib/shapes@rectangle_2D</title>
<path fill="none" stroke="black" d="M430.46,-318.83C452.36,-308.33 483.37,-293.47 508.17,-281.57"/>
<polygon fill="black" stroke="black" points="509.51,-284.81 517.02,-277.33 506.49,-278.5 509.51,-284.81"/>
</g>
<!-- NASALib/shapes@triangle_2D -->
<g id="node12" class="node">
<title>NASALib/shapes@triangle_2D</title>
<ellipse fill="#e6f3ff" stroke="black" cx="403" cy="-189" rx="52.79" ry="18"/>
<text text-anchor="middle" x="403" y="-185.3" font-family="Times,serif" font-size="14.00">triangle_2D</text>
</g>
<!-- NASALib/shapes@Shape2D&#45;&gt;NASALib/shapes@triangle_2D -->
<g id="edge5" class="edge">
<title>NASALib/shapes@Shape2D&#45;&gt;NASALib/shapes@triangle_2D</title>
<path fill="none" stroke="black" d="M403,-260C403,-260 403,-238.08 403,-218.77"/>
<polygon fill="black" stroke="black" points="406.5,-218.82 403,-208.82 399.5,-218.82 406.5,-218.82"/>
</g>
<!-- NASALib/shapes@angle_2D -->
<g id="node3" class="node">
<title>NASALib/shapes@angle_2D</title>
<ellipse fill="#e6f3ff" stroke="black" cx="258" cy="-117" rx="44.69" ry="18"/>
<text text-anchor="middle" x="258" y="-113.3" font-family="Times,serif" font-size="14.00">angle_2D</text>
</g>
<!-- NASALib/vectors -->
<g id="node15" class="node">
<title>NASALib/vectors</title>
<polygon fill="#fcfcd7" stroke="black" points="286,-52 230,-52 230,-16 286,-16 286,-52"/>
<text text-anchor="middle" x="258" y="-30.3" font-family="Times,serif" font-size="14.00">vectors</text>
</g>
<!-- NASALib/shapes@angle_2D&#45;&gt;NASALib/vectors -->
<g id="edge6" class="edge">
<title>NASALib/shapes@angle_2D&#45;&gt;NASALib/vectors</title>
<path fill="none" stroke="black" d="M258,-98.82C258,-88.69 258,-75.6 258,-63.92"/>
<polygon fill="black" stroke="black" points="261.5,-63.95 258,-53.95 254.5,-63.95 261.5,-63.95"/>
</g>
<!-- NASALib/shapes@angle_2D_trig -->
<g id="node4" class="node">
<title>NASALib/shapes@angle_2D_trig</title>
<ellipse fill="#e6f3ff" stroke="black" cx="78" cy="-189" rx="61.99" ry="18"/>
<text text-anchor="middle" x="78" y="-185.3" font-family="Times,serif" font-size="14.00">angle_2D_trig</text>
</g>
<!-- NASALib/shapes@angle_2D_trig&#45;&gt;NASALib/reals -->
<g id="edge7" class="edge">
<title>NASALib/shapes@angle_2D_trig&#45;&gt;NASALib/reals</title>
<path fill="none" stroke="black" d="M356,-116C356,-116 373.63,-85.61 387.3,-62.06"/>
<polygon fill="black" stroke="black" points="390.28,-63.89 392.27,-53.49 384.23,-60.38 390.28,-63.89"/>
</g>
<!-- NASALib/shapes@angle_2D_trig&#45;&gt;NASALib/shapes@angle_2D -->
<g id="edge8" class="edge">
<title>NASALib/shapes@angle_2D_trig&#45;&gt;NASALib/shapes@angle_2D</title>
<path fill="none" stroke="black" d="M113.99,-174C143.45,-162.55 185.16,-146.33 216.12,-134.29"/>
<polygon fill="black" stroke="black" points="217.12,-137.65 225.17,-130.77 214.58,-131.13 217.12,-137.65"/>
</g>
<!-- NASALib/trig -->
<g id="node14" class="node">
<title>NASALib/trig</title>
<polygon fill="#fcfcd7" stroke="black" points="358,-52 304,-52 304,-16 358,-16 358,-52"/>
<text text-anchor="middle" x="331" y="-30.3" font-family="Times,serif" font-size="14.00">trig</text>
</g>
<!-- NASALib/shapes@angle_2D_trig&#45;&gt;NASALib/trig -->
<g id="edge9" class="edge">
<title>NASALib/shapes@angle_2D_trig&#45;&gt;NASALib/trig</title>
<path fill="none" stroke="black" d="M124.57,-176.85C137.95,-173.65 149,-171 149,-171 149,-171 312,-135 312,-135 312,-135 356,-118 356,-118"/>
<path fill="none" stroke="black" d="M356,-116C356,-116 346.87,-86.43 339.65,-63.02"/>
<polygon fill="black" stroke="black" points="343.04,-62.15 336.75,-53.62 336.35,-64.21 343.04,-62.15"/>
</g>
<!-- NASALib/shapes@circle_2D&#45;&gt;NASALib/shapes@circular_segment_2D -->
<g id="edge10" class="edge">
<title>NASALib/shapes@circle_2D&#45;&gt;NASALib/shapes@circular_segment_2D</title>
<path fill="none" stroke="black" d="M297.23,-243.76C288.97,-235.27 278.69,-224.68 269.43,-215.15"/>
<polygon fill="black" stroke="black" points="272.17,-212.94 262.69,-208.21 267.15,-217.82 272.17,-212.94"/>
</g>
<!-- NASALib/shapes@circle_2D_trig -->
<g id="node6" class="node">
<title>NASALib/shapes@circle_2D_trig</title>
<ellipse fill="#e6f3ff" stroke="black" cx="213" cy="-333" rx="61.99" ry="18"/>
<text text-anchor="middle" x="213" y="-329.3" font-family="Times,serif" font-size="14.00">circle_2D_trig</text>
</g>
<!-- NASALib/shapes@circle_2D_trig&#45;&gt;NASALib/shapes@circle_2D -->
<g id="edge11" class="edge">
<title>NASALib/shapes@circle_2D_trig&#45;&gt;NASALib/shapes@circle_2D</title>
<path fill="none" stroke="black" d="M235.69,-316.12C249.4,-306.52 267.06,-294.16 282.04,-283.67"/>
<polygon fill="black" stroke="black" points="284,-286.57 290.19,-277.97 279.99,-280.84 284,-286.57"/>
</g>
<!-- NASALib/shapes@circular_segment_2D_trig -->
<g id="node8" class="node">
<title>NASALib/shapes@circular_segment_2D_trig</title>
<ellipse fill="#e6f3ff" stroke="black" cx="146" cy="-261" rx="103.18" ry="18"/>
<text text-anchor="middle" x="146" y="-257.3" font-family="Times,serif" font-size="14.00">circular_segment_2D_trig</text>
</g>
<!-- NASALib/shapes@circle_2D_trig&#45;&gt;NASALib/shapes@circular_segment_2D_trig -->
<g id="edge12" class="edge">
<title>NASALib/shapes@circle_2D_trig&#45;&gt;NASALib/shapes@circular_segment_2D_trig</title>
<path fill="none" stroke="black" d="M197.12,-315.41C189.06,-306.99 179.1,-296.58 170.12,-287.2"/>
<polygon fill="black" stroke="black" points="172.72,-284.85 163.28,-280.05 167.66,-289.69 172.72,-284.85"/>
</g>
<!-- NASALib/shapes@circular_segment_2D&#45;&gt;NASALib/shapes@angle_2D -->
<g id="edge13" class="edge">
<title>NASALib/shapes@circular_segment_2D&#45;&gt;NASALib/shapes@angle_2D</title>
<path fill="none" stroke="black" d="M248.21,-170.7C249.58,-163.32 251.22,-154.52 252.75,-146.25"/>
<polygon fill="black" stroke="black" points="256.16,-147.06 254.55,-136.59 249.28,-145.79 256.16,-147.06"/>
</g>
<!-- NASALib/shapes@circular_segment_2D_trig&#45;&gt;NASALib/shapes@angle_2D_trig -->
<g id="edge14" class="edge">
<title>NASALib/shapes@circular_segment_2D_trig&#45;&gt;NASALib/shapes@angle_2D_trig</title>
<path fill="none" stroke="black" d="M129.54,-243.05C121.35,-234.63 111.3,-224.28 102.25,-214.97"/>
<polygon fill="black" stroke="black" points="104.84,-212.61 95.36,-207.87 99.82,-217.49 104.84,-212.61"/>
</g>
<!-- NASALib/shapes@circular_segment_2D_trig&#45;&gt;NASALib/shapes@circular_segment_2D -->
<g id="edge15" class="edge">
<title>NASALib/shapes@circular_segment_2D_trig&#45;&gt;NASALib/shapes@circular_segment_2D</title>
<path fill="none" stroke="black" d="M169.97,-243.05C182.61,-234.11 198.32,-223.01 212.09,-213.27"/>
<polygon fill="black" stroke="black" points="213.88,-216.29 220.02,-207.66 209.83,-210.58 213.88,-216.29"/>
</g>
<!-- NASALib/shapes@parallelogram_2D&#45;&gt;NASALib/shapes@angle_2D -->
<g id="edge16" class="edge">
<title>NASALib/shapes@parallelogram_2D&#45;&gt;NASALib/shapes@angle_2D</title>
<path fill="none" stroke="black" d="M497.31,-175.57C443.45,-162.61 359.68,-142.46 306.88,-129.76"/>
<polygon fill="black" stroke="black" points="307.8,-126.38 297.26,-127.44 306.16,-133.19 307.8,-126.38"/>
</g>
<!-- NASALib/structures -->
<g id="node13" class="node">
<title>NASALib/structures</title>
<polygon fill="#fcfcd7" stroke="black" points="517.5,-52 448.5,-52 448.5,-16 517.5,-16 517.5,-52"/>
<text text-anchor="middle" x="483" y="-30.3" font-family="Times,serif" font-size="14.00">structures</text>
</g>
<!-- NASALib/shapes@parallelogram_2D&#45;&gt;NASALib/structures -->
<g id="edge17" class="edge">
<title>NASALib/shapes@parallelogram_2D&#45;&gt;NASALib/structures</title>
<path fill="none" stroke="black" d="M541.56,-170.75C530.22,-144.46 508.51,-94.13 494.94,-62.69"/>
<polygon fill="black" stroke="black" points="498.29,-61.61 491.12,-53.82 491.86,-64.38 498.29,-61.61"/>
</g>
<!-- NASALib/shapes@rectangle_2D&#45;&gt;NASALib/reals -->
<g id="edge18" class="edge">
<title>NASALib/shapes@rectangle_2D&#45;&gt;NASALib/reals</title>
<path fill="none" stroke="black" d="M573.75,-244.38C598.53,-228.75 633,-207 633,-207 633,-207 633,-171 633,-171 633,-171 440,-83 440,-83 440,-83 431.88,-72.46 423.25,-61.26"/>
<polygon fill="black" stroke="black" points="426.16,-59.31 417.28,-53.53 420.61,-63.58 426.16,-59.31"/>
</g>
<!-- NASALib/shapes@rectangle_2D&#45;&gt;NASALib/shapes@parallelogram_2D -->
<g id="edge19" class="edge">
<title>NASALib/shapes@rectangle_2D&#45;&gt;NASALib/shapes@parallelogram_2D</title>
<path fill="none" stroke="black" d="M549,-242.7C549,-235.41 549,-226.73 549,-218.54"/>
<polygon fill="black" stroke="black" points="552.5,-218.62 549,-208.62 545.5,-218.62 552.5,-218.62"/>
</g>
<!-- NASALib/shapes@shapes_2D -->
<g id="node11" class="node">
<title>NASALib/shapes@shapes_2D</title>
<ellipse fill="#e6f3ff" stroke="black" cx="403" cy="-405" rx="49.29" ry="18"/>
<text text-anchor="middle" x="403" y="-401.3" font-family="Times,serif" font-size="14.00">shapes_2D</text>
</g>
<!-- NASALib/shapes@shapes_2D&#45;&gt;NASALib/shapes@Shape2D -->
<g id="edge20" class="edge">
<title>NASALib/shapes@shapes_2D&#45;&gt;NASALib/shapes@Shape2D</title>
<path fill="none" stroke="black" d="M403,-386.7C403,-379.41 403,-370.73 403,-362.54"/>
<polygon fill="black" stroke="black" points="406.5,-362.62 403,-352.62 399.5,-362.62 406.5,-362.62"/>
</g>
<!-- NASALib/shapes@triangle_2D&#45;&gt;NASALib/reals -->
<g id="edge21" class="edge">
<title>NASALib/shapes@triangle_2D&#45;&gt;NASALib/reals</title>
<path fill="none" stroke="black" d="M417,-116C417,-116 411.93,-86.69 407.9,-63.34"/>
<polygon fill="black" stroke="black" points="411.38,-62.93 406.23,-53.67 404.48,-64.12 411.38,-62.93"/>
<path fill="none" stroke="black" d="M406.46,-170.7C410.61,-149.97 417,-118 417,-118"/>
</g>
<!-- NASALib/shapes@triangle_2D&#45;&gt;NASALib/shapes@angle_2D -->
<g id="edge22" class="edge">
<title>NASALib/shapes@triangle_2D&#45;&gt;NASALib/shapes@angle_2D</title>
<path fill="none" stroke="black" d="M373.31,-173.67C350.93,-162.86 320.08,-147.97 295.93,-136.31"/>
<polygon fill="black" stroke="black" points="297.58,-133.22 287.05,-132.02 294.54,-139.52 297.58,-133.22"/>
</g>
<!-- NASALib/shapes@triangle_2D&#45;&gt;NASALib/structures -->
<g id="edge23" class="edge">
<title>NASALib/shapes@triangle_2D&#45;&gt;NASALib/structures</title>
<path fill="none" stroke="black" d="M417,-116C417,-116 442.66,-84.51 461.98,-60.8"/>
<polygon fill="black" stroke="black" points="464.44,-63.31 468.05,-53.35 459.02,-58.89 464.44,-63.31"/>
</g>
</g>
</svg>
