<?xml version="1.0" encoding="UTF-8" standalone="no"?>
<!DOCTYPE svg PUBLIC "-//W3C//DTD SVG 1.1//EN"
 "http://www.w3.org/Graphics/SVG/1.1/DTD/svg11.dtd">
<!-- Generated by graphviz version 7.0.6 (20230106.0513)
 -->
<!-- Title: shapes Pages: 1 -->
<svg width="910pt" height="894pt"
 viewBox="0.00 0.00 910.00 894.00" xmlns="http://www.w3.org/2000/svg" xmlns:xlink="http://www.w3.org/1999/xlink">
<g id="graph0" class="graph" transform="scale(1 1) rotate(0) translate(4 890)">
<title>shapes</title>
<polygon fill="white" stroke="none" points="-4,4 -4,-890 906,-890 906,4 -4,4"/>
<g id="clust1" class="cluster">
<title>cluster_NASALib</title>
<polygon fill="none" stroke="black" points="8,-8 8,-878 798,-878 798,-8 8,-8"/>
<text text-anchor="middle" x="403" y="-862.8" font-family="Times,serif" font-size="14.00">NASALib</text>
</g>
<g id="clust2" class="cluster">
<title>cluster_PVS Prelude</title>
<polygon fill="none" stroke="black" points="806,-8 806,-83 894,-83 894,-8 806,-8"/>
<text text-anchor="middle" x="850" y="-67.8" font-family="Times,serif" font-size="14.00">PVS Prelude</text>
</g>
<!-- NASALib/ACCoRD -->
<g id="node1" class="node">
<title>NASALib/ACCoRD</title>
<polygon fill="#fcfcd7" stroke="black" points="164,-847 94,-847 94,-811 164,-811 164,-847"/>
<text text-anchor="middle" x="129" y="-825.3" font-family="Times,serif" font-size="14.00">ACCoRD</text>
</g>
<!-- NASALib/analysis -->
<g id="node2" class="node">
<title>NASALib/analysis</title>
<polygon fill="#fcfcd7" stroke="black" points="287,-775 227,-775 227,-739 287,-739 287,-775"/>
<text text-anchor="middle" x="257" y="-753.3" font-family="Times,serif" font-size="14.00">analysis</text>
</g>
<!-- NASALib/ACCoRD&#45;&gt;NASALib/analysis -->
<g id="edge1" class="edge">
<title>NASALib/ACCoRD&#45;&gt;NASALib/analysis</title>
<path fill="none" stroke="black" d="M160.97,-810.52C177.89,-801.27 198.82,-789.82 216.83,-779.97"/>
<polygon fill="black" stroke="black" points="218.33,-783.13 225.43,-775.27 214.98,-776.99 218.33,-783.13"/>
</g>
<!-- NASALib/reals -->
<g id="node11" class="node">
<title>NASALib/reals</title>
<polygon fill="#fcfcd7" stroke="black" points="375,-703 321,-703 321,-667 375,-667 375,-703"/>
<text text-anchor="middle" x="348" y="-681.3" font-family="Times,serif" font-size="14.00">reals</text>
</g>
<!-- NASALib/ACCoRD&#45;&gt;NASALib/reals -->
<g id="edge2" class="edge">
<title>NASALib/ACCoRD&#45;&gt;NASALib/reals</title>
<path fill="none" stroke="black" d="M789,-756C789,-756 493.94,-709.16 386.52,-692.11"/>
<polygon fill="black" stroke="black" points="387.17,-688.67 376.75,-690.56 386.08,-695.59 387.17,-688.67"/>
<path fill="none" stroke="black" d="M164.48,-824.24C301.57,-809.7 789,-758 789,-758"/>
</g>
<!-- NASALib/shapes -->
<g id="node14" class="node">
<title>NASALib/shapes</title>
<polygon fill="#f7e28d" stroke="black" points="110,-775 56,-775 56,-739 110,-739 110,-775"/>
<text text-anchor="middle" x="83" y="-753.3" font-family="Times,serif" font-size="14.00">shapes</text>
</g>
<!-- NASALib/ACCoRD&#45;&gt;NASALib/shapes -->
<g id="edge3" class="edge">
<title>NASALib/ACCoRD&#45;&gt;NASALib/shapes</title>
<path fill="none" stroke="black" d="M117.63,-810.7C112.45,-802.81 106.2,-793.3 100.44,-784.55"/>
<polygon fill="black" stroke="black" points="103.49,-782.8 95.07,-776.37 97.64,-786.65 103.49,-782.8"/>
</g>
<!-- NASALib/structures -->
<g id="node16" class="node">
<title>NASALib/structures</title>
<polygon fill="#fcfcd7" stroke="black" points="455.5,-127 386.5,-127 386.5,-91 455.5,-91 455.5,-127"/>
<text text-anchor="middle" x="421" y="-105.3" font-family="Times,serif" font-size="14.00">structures</text>
</g>
<!-- NASALib/ACCoRD&#45;&gt;NASALib/structures -->
<g id="edge4" class="edge">
<title>NASALib/ACCoRD&#45;&gt;NASALib/structures</title>
<path fill="none" stroke="black" d="M789,-756C789,-756 789,-614 789,-614 789,-614 789,-614 789,-252 789,-252 564.93,-165.54 466.48,-127.55"/>
<polygon fill="black" stroke="black" points="467.95,-124.37 457.36,-124.03 465.43,-130.9 467.95,-124.37"/>
</g>
<!-- NASALib/trig -->
<g id="node18" class="node">
<title>NASALib/trig</title>
<polygon fill="#fcfcd7" stroke="black" points="130,-343 76,-343 76,-307 130,-307 130,-343"/>
<text text-anchor="middle" x="103" y="-321.3" font-family="Times,serif" font-size="14.00">trig</text>
</g>
<!-- NASALib/ACCoRD&#45;&gt;NASALib/trig -->
<g id="edge5" class="edge">
<title>NASALib/ACCoRD&#45;&gt;NASALib/trig</title>
<path fill="none" stroke="black" d="M102.15,-810.65C78.24,-795.19 47,-775 47,-775 47,-775 37,-686 37,-686 37,-686 37,-686 37,-612 37,-612 57,-470 57,-470"/>
<path fill="none" stroke="black" d="M57,-468C57,-468 80.46,-395.59 93.87,-354.18"/>
<polygon fill="black" stroke="black" points="97.14,-355.44 96.89,-344.85 90.48,-353.29 97.14,-355.44"/>
</g>
<!-- NASALib/vectors -->
<g id="node19" class="node">
<title>NASALib/vectors</title>
<polygon fill="#fcfcd7" stroke="black" points="178,-415 122,-415 122,-379 178,-379 178,-415"/>
<text text-anchor="middle" x="150" y="-393.3" font-family="Times,serif" font-size="14.00">vectors</text>
</g>
<!-- NASALib/ACCoRD&#45;&gt;NASALib/vectors -->
<g id="edge6" class="edge">
<title>NASALib/ACCoRD&#45;&gt;NASALib/vectors</title>
<path fill="none" stroke="black" d="M129.85,-810.61C133.08,-744.55 144.59,-508.78 148.61,-426.54"/>
<polygon fill="black" stroke="black" points="152.1,-426.8 149.09,-416.65 145.11,-426.46 152.1,-426.8"/>
</g>
<!-- lib/finite_sets -->
<g id="node20" class="node">
<title>lib/finite_sets</title>
<polygon fill="#fcfcd7" stroke="black" points="886,-52 814,-52 814,-16 886,-16 886,-52"/>
<text text-anchor="middle" x="850" y="-30.3" font-family="Times,serif" font-size="14.00">finite_sets</text>
</g>
<!-- NASALib/ACCoRD&#45;&gt;lib/finite_sets -->
<g id="edge7" class="edge">
<title>NASALib/ACCoRD&#45;&gt;lib/finite_sets</title>
<path fill="none" stroke="black" d="M789,-756C789,-756 818,-686 818,-686"/>
</g>
<!-- NASALib/ints -->
<g id="node4" class="node">
<title>NASALib/ints</title>
<polygon fill="#fcfcd7" stroke="black" points="448,-52 394,-52 394,-16 448,-16 448,-52"/>
<text text-anchor="middle" x="421" y="-30.3" font-family="Times,serif" font-size="14.00">ints</text>
</g>
<!-- NASALib/analysis&#45;&gt;NASALib/ints -->
<g id="edge8" class="edge">
<title>NASALib/analysis&#45;&gt;NASALib/ints</title>
<path fill="none" stroke="black" d="M103,-252C103,-252 217,-110 217,-110"/>
<path fill="none" stroke="black" d="M226.63,-740.67C195.62,-725.02 152,-703 152,-703 152,-703 72,-559 72,-559 72,-559 52,-487 52,-487 52,-487 52,-451 52,-451 52,-451 67,-307 67,-307 67,-307 103,-254 103,-254"/>
<path fill="none" stroke="black" d="M217,-108C217,-108 324.16,-69.65 383.15,-48.55"/>
<polygon fill="black" stroke="black" points="384.25,-51.87 392.49,-45.2 381.89,-45.28 384.25,-51.87"/>
</g>
<!-- NASALib/orders -->
<g id="node9" class="node">
<title>NASALib/orders</title>
<polygon fill="#fcfcd7" stroke="black" points="548,-199 494,-199 494,-163 548,-163 548,-199"/>
<text text-anchor="middle" x="521" y="-177.3" font-family="Times,serif" font-size="14.00">orders</text>
</g>
<!-- NASALib/analysis&#45;&gt;NASALib/orders -->
<g id="edge9" class="edge">
<title>NASALib/analysis&#45;&gt;NASALib/orders</title>
<path fill="none" stroke="black" d="M287.31,-752.32C386.19,-740.3 693,-703 693,-703 693,-703 769,-614 769,-614 769,-614 769,-614 769,-540 769,-540 727,-379 727,-379 727,-379 682,-326 682,-326"/>
</g>
<!-- NASALib/analysis&#45;&gt;NASALib/reals -->
<g id="edge10" class="edge">
<title>NASALib/analysis&#45;&gt;NASALib/reals</title>
<path fill="none" stroke="black" d="M279.49,-738.7C290.65,-730.11 304.31,-719.61 316.49,-710.24"/>
<polygon fill="black" stroke="black" points="318.46,-713.14 324.25,-704.27 314.19,-707.59 318.46,-713.14"/>
</g>
<!-- NASALib/analysis&#45;&gt;NASALib/structures -->
<g id="edge11" class="edge">
<title>NASALib/analysis&#45;&gt;NASALib/structures</title>
<path fill="none" stroke="black" d="M255.33,-738.62C252.03,-704.27 245,-631 245,-631 245,-631 217,-326 217,-326"/>
</g>
<!-- NASALib/analysis&#45;&gt;lib/finite_sets -->
<g id="edge12" class="edge">
<title>NASALib/analysis&#45;&gt;lib/finite_sets</title>
<path fill="none" stroke="black" d="M818,-684C818,-684 818,-470 818,-470"/>
<path fill="none" stroke="black" d="M287.21,-752.48C388.83,-740.64 712,-703 712,-703 712,-703 818,-686 818,-686"/>
</g>
<!-- NASALib/extended_nnreal -->
<g id="node3" class="node">
<title>NASALib/extended_nnreal</title>
<polygon fill="#fcfcd7" stroke="black" points="690,-487 584,-487 584,-451 690,-451 690,-487"/>
<text text-anchor="middle" x="637" y="-465.3" font-family="Times,serif" font-size="14.00">extended_nnreal</text>
</g>
<!-- NASALib/extended_nnreal&#45;&gt;NASALib/analysis -->
<g id="edge13" class="edge">
<title>NASALib/extended_nnreal&#45;&gt;NASALib/analysis</title>
<path fill="none" stroke="black" d="M668,-542C668,-542 688,-684 688,-684"/>
</g>
<!-- NASALib/extended_nnreal&#45;&gt;NASALib/reals -->
<g id="edge14" class="edge">
<title>NASALib/extended_nnreal&#45;&gt;NASALib/reals</title>
<path fill="none" stroke="black" d="M668,-542C668,-542 613,-631 613,-631 613,-631 443.07,-664.99 375.36,-678.53"/>
<path fill="none" stroke="black" d="M644.66,-487.3C650.54,-500.58 658.47,-518.47 663.4,-529.62"/>
<polygon fill="black" stroke="black" points="660.14,-530.89 667.39,-538.62 666.54,-528.06 660.14,-530.89"/>
</g>
<!-- NASALib/series -->
<g id="node12" class="node">
<title>NASALib/series</title>
<polygon fill="#fcfcd7" stroke="black" points="402,-271 348,-271 348,-235 402,-235 402,-271"/>
<text text-anchor="middle" x="375" y="-249.3" font-family="Times,serif" font-size="14.00">series</text>
</g>
<!-- NASALib/extended_nnreal&#45;&gt;NASALib/series -->
<g id="edge15" class="edge">
<title>NASALib/extended_nnreal&#45;&gt;NASALib/series</title>
<path fill="none" stroke="black" d="M606.03,-450.52C569.3,-429.78 513,-398 513,-398"/>
</g>
<!-- NASALib/sigma_set -->
<g id="node15" class="node">
<title>NASALib/sigma_set</title>
<polygon fill="#fcfcd7" stroke="black" points="717.5,-415 646.5,-415 646.5,-379 717.5,-379 717.5,-415"/>
<text text-anchor="middle" x="682" y="-393.3" font-family="Times,serif" font-size="14.00">sigma_set</text>
</g>
<!-- NASALib/extended_nnreal&#45;&gt;NASALib/sigma_set -->
<g id="edge16" class="edge">
<title>NASALib/extended_nnreal&#45;&gt;NASALib/sigma_set</title>
<path fill="none" stroke="black" d="M648.12,-450.7C653.19,-442.81 659.3,-433.3 664.93,-424.55"/>
<polygon fill="black" stroke="black" points="667.72,-426.68 670.19,-416.38 661.83,-422.9 667.72,-426.68"/>
</g>
<!-- NASALib/lebesgue -->
<g id="node5" class="node">
<title>NASALib/lebesgue</title>
<polygon fill="#fcfcd7" stroke="black" points="604,-631 540,-631 540,-595 604,-595 604,-631"/>
<text text-anchor="middle" x="572" y="-609.3" font-family="Times,serif" font-size="14.00">lebesgue</text>
</g>
<!-- NASALib/lebesgue&#45;&gt;NASALib/analysis -->
<g id="edge17" class="edge">
<title>NASALib/lebesgue&#45;&gt;NASALib/analysis</title>
<path fill="none" stroke="black" d="M600.97,-631.48C626.2,-646.71 661.31,-667.89 678.18,-678.08"/>
<polygon fill="black" stroke="black" points="676.33,-681.05 686.7,-683.22 679.95,-675.05 676.33,-681.05"/>
</g>
<!-- NASALib/lebesgue&#45;&gt;NASALib/extended_nnreal -->
<g id="edge18" class="edge">
<title>NASALib/lebesgue&#45;&gt;NASALib/extended_nnreal</title>
<path fill="none" stroke="black" d="M648,-540C648,-540 644.52,-517.87 641.48,-498.5"/>
<polygon fill="black" stroke="black" points="644.96,-498.13 639.95,-488.8 638.05,-499.22 644.96,-498.13"/>
</g>
<!-- NASALib/measure_integration -->
<g id="node7" class="node">
<title>NASALib/measure_integration</title>
<polygon fill="#fcfcd7" stroke="black" points="629,-559 501,-559 501,-523 629,-523 629,-559"/>
<text text-anchor="middle" x="565" y="-537.3" font-family="Times,serif" font-size="14.00">measure_integration</text>
</g>
<!-- NASALib/lebesgue&#45;&gt;NASALib/measure_integration -->
<g id="edge19" class="edge">
<title>NASALib/lebesgue&#45;&gt;NASALib/measure_integration</title>
<path fill="none" stroke="black" d="M570.27,-594.7C569.54,-587.41 568.67,-578.73 567.85,-570.54"/>
<polygon fill="black" stroke="black" points="571.34,-570.21 566.86,-560.61 564.37,-570.91 571.34,-570.21"/>
</g>
<!-- NASALib/metric_space -->
<g id="node8" class="node">
<title>NASALib/metric_space</title>
<polygon fill="#fcfcd7" stroke="black" points="445.5,-487 356.5,-487 356.5,-451 445.5,-451 445.5,-487"/>
<text text-anchor="middle" x="401" y="-465.3" font-family="Times,serif" font-size="14.00">metric_space</text>
</g>
<!-- NASALib/lebesgue&#45;&gt;NASALib/metric_space -->
<g id="edge20" class="edge">
<title>NASALib/lebesgue&#45;&gt;NASALib/metric_space</title>
<path fill="none" stroke="black" d="M482,-540C482,-540 467,-523 467,-523 467,-523 448.77,-508.36 431.47,-494.47"/>
<polygon fill="black" stroke="black" points="433.78,-491.83 423.79,-488.3 429.4,-497.29 433.78,-491.83"/>
<path fill="none" stroke="black" d="M545.81,-594.65C522.47,-579.19 492,-559 492,-559 492,-559 482,-542 482,-542"/>
</g>
<!-- NASALib/power -->
<g id="node10" class="node">
<title>NASALib/power</title>
<polygon fill="#fcfcd7" stroke="black" points="390,-415 336,-415 336,-379 390,-379 390,-415"/>
<text text-anchor="middle" x="363" y="-393.3" font-family="Times,serif" font-size="14.00">power</text>
</g>
<!-- NASALib/lebesgue&#45;&gt;NASALib/power -->
<g id="edge21" class="edge">
<title>NASALib/lebesgue&#45;&gt;NASALib/power</title>
<path fill="none" stroke="black" d="M540.89,-594.65C513.19,-579.19 477,-559 477,-559 477,-559 348,-487 348,-487 348,-487 348,-451 348,-451 348,-451 351.42,-438.92 354.99,-426.3"/>
<polygon fill="black" stroke="black" points="358.32,-427.39 357.68,-416.81 351.59,-425.48 358.32,-427.39"/>
</g>
<!-- NASALib/sets_aux -->
<g id="node13" class="node">
<title>NASALib/sets_aux</title>
<polygon fill="#fcfcd7" stroke="black" points="615.5,-343 552.5,-343 552.5,-307 615.5,-307 615.5,-343"/>
<text text-anchor="middle" x="584" y="-321.3" font-family="Times,serif" font-size="14.00">sets_aux</text>
</g>
<!-- NASALib/lebesgue&#45;&gt;NASALib/sets_aux -->
<g id="edge23" class="edge">
<title>NASALib/lebesgue&#45;&gt;NASALib/sets_aux</title>
<path fill="none" stroke="black" d="M553,-396C553,-396 563.08,-373.24 571.74,-353.68"/>
<polygon fill="black" stroke="black" points="574.88,-355.25 575.72,-344.69 568.47,-352.41 574.88,-355.25"/>
</g>
<!-- NASALib/lebesgue&#45;&gt;NASALib/sigma_set -->
<g id="edge24" class="edge">
<title>NASALib/lebesgue&#45;&gt;NASALib/sigma_set</title>
<path fill="none" stroke="black" d="M604.23,-595.08C633.79,-579.57 673,-559 673,-559 673,-559 699,-487 699,-487 699,-487 699,-451 699,-451 699,-451 695.13,-438.92 691.08,-426.3"/>
<polygon fill="black" stroke="black" points="694.42,-425.25 688.03,-416.8 687.75,-427.39 694.42,-425.25"/>
</g>
<!-- NASALib/lebesgue&#45;&gt;NASALib/structures -->
<g id="edge25" class="edge">
<title>NASALib/lebesgue&#45;&gt;NASALib/structures</title>
<path fill="none" stroke="black" d="M553,-396C553,-396 533,-326 533,-326"/>
<path fill="none" stroke="black" d="M648,-540C648,-540 638,-523 638,-523 638,-523 575,-487 575,-487 575,-487 553,-398 553,-398"/>
<path fill="none" stroke="black" d="M593.61,-594.65C612.86,-579.19 638,-559 638,-559 638,-559 648,-542 648,-542"/>
</g>
<!-- NASALib/topology -->
<g id="node17" class="node">
<title>NASALib/topology</title>
<polygon fill="#fcfcd7" stroke="black" points="493.5,-415 428.5,-415 428.5,-379 493.5,-379 493.5,-415"/>
<text text-anchor="middle" x="461" y="-393.3" font-family="Times,serif" font-size="14.00">topology</text>
</g>
<!-- NASALib/lebesgue&#45;&gt;NASALib/topology -->
<g id="edge26" class="edge">
<title>NASALib/lebesgue&#45;&gt;NASALib/topology</title>
<path fill="none" stroke="black" d="M482,-540C482,-540 470,-451 470,-451 470,-451 467.99,-439.17 465.87,-426.68"/>
<polygon fill="black" stroke="black" points="469.33,-426.12 464.2,-416.85 462.42,-427.29 469.33,-426.12"/>
</g>
<!-- NASALib/lnexp -->
<g id="node6" class="node">
<title>NASALib/lnexp</title>
<polygon fill="#fcfcd7" stroke="black" points="310,-343 256,-343 256,-307 310,-307 310,-343"/>
<text text-anchor="middle" x="283" y="-321.3" font-family="Times,serif" font-size="14.00">lnexp</text>
</g>
<!-- NASALib/lnexp&#45;&gt;NASALib/analysis -->
<g id="edge27" class="edge">
<title>NASALib/lnexp&#45;&gt;NASALib/analysis</title>
<path fill="none" stroke="black" d="M277,-398C277,-398 172,-595 172,-595 172,-595 157,-684 157,-684"/>
<path fill="none" stroke="black" d="M281.52,-343.3C280.41,-356.26 278.92,-373.6 277.96,-384.79"/>
<polygon fill="black" stroke="black" points="274.5,-384.23 277.13,-394.49 281.47,-384.83 274.5,-384.23"/>
</g>
<!-- NASALib/lnexp&#45;&gt;NASALib/ints -->
<g id="edge28" class="edge">
<title>NASALib/lnexp&#45;&gt;NASALib/ints</title>
<path fill="none" stroke="black" d="M274.91,-306.59C257.28,-268.67 217,-182 217,-182"/>
</g>
<!-- NASALib/lnexp&#45;&gt;NASALib/reals -->
<g id="edge29" class="edge">
<title>NASALib/lnexp&#45;&gt;NASALib/reals</title>
<path fill="none" stroke="black" d="M277,-398C277,-398 292,-631 292,-631 292,-631 313.33,-651.19 329.66,-666.65"/>
</g>
<!-- NASALib/lnexp&#45;&gt;NASALib/series -->
<g id="edge30" class="edge">
<title>NASALib/lnexp&#45;&gt;NASALib/series</title>
<path fill="none" stroke="black" d="M305.74,-306.7C317.02,-298.11 330.83,-287.61 343.14,-278.24"/>
<polygon fill="black" stroke="black" points="345.16,-281.1 351,-272.26 340.92,-275.53 345.16,-281.1"/>
</g>
<!-- NASALib/measure_integration&#45;&gt;NASALib/extended_nnreal -->
<g id="edge31" class="edge">
<title>NASALib/measure_integration&#45;&gt;NASALib/extended_nnreal</title>
<path fill="none" stroke="black" d="M582.8,-522.7C591.28,-514.45 601.59,-504.43 610.93,-495.35"/>
<polygon fill="black" stroke="black" points="613.34,-497.88 618.07,-488.4 608.46,-492.86 613.34,-497.88"/>
</g>
<!-- NASALib/measure_integration&#45;&gt;NASALib/metric_space -->
<g id="edge32" class="edge">
<title>NASALib/measure_integration&#45;&gt;NASALib/metric_space</title>
<path fill="none" stroke="black" d="M524.04,-522.52C502.24,-513.21 475.22,-501.68 452.06,-491.79"/>
<polygon fill="black" stroke="black" points="453.69,-488.68 443.11,-487.98 450.94,-495.12 453.69,-488.68"/>
</g>
<!-- NASALib/measure_integration&#45;&gt;NASALib/orders -->
<g id="edge33" class="edge">
<title>NASALib/measure_integration&#45;&gt;NASALib/orders</title>
<path fill="none" stroke="black" d="M682,-324C682,-324 595.27,-247.51 549.12,-206.81"/>
<polygon fill="black" stroke="black" points="551.69,-204.4 541.88,-200.41 547.06,-209.65 551.69,-204.4"/>
<path fill="none" stroke="black" d="M525,-468C525,-468 682,-326 682,-326"/>
</g>
<!-- NASALib/measure_integration&#45;&gt;NASALib/power -->
<g id="edge34" class="edge">
<title>NASALib/measure_integration&#45;&gt;NASALib/power</title>
<path fill="none" stroke="black" d="M543.53,-522.63C511.52,-496.73 455,-451 455,-451 455,-451 425.57,-434.05 400.01,-419.32"/>
<polygon fill="black" stroke="black" points="401.83,-416.33 391.42,-414.37 398.33,-422.4 401.83,-416.33"/>
</g>
<!-- NASALib/measure_integration&#45;&gt;NASALib/reals -->
<g id="edge35" class="edge">
<title>NASALib/measure_integration&#45;&gt;NASALib/reals</title>
<path fill="none" stroke="black" d="M541.97,-559.37C507.63,-585.27 447,-631 447,-631 447,-631 413.38,-649 385.33,-664.02"/>
<polygon fill="black" stroke="black" points="383.81,-660.86 376.65,-668.66 387.12,-667.03 383.81,-660.86"/>
</g>
<!-- NASALib/measure_integration&#45;&gt;NASALib/series -->
<g id="edge36" class="edge">
<title>NASALib/measure_integration&#45;&gt;NASALib/series</title>
<path fill="none" stroke="black" d="M525,-468C525,-468 513,-398 513,-398"/>
<path fill="none" stroke="black" d="M513,-396C513,-396 503,-379 503,-379 503,-379 461,-326 461,-326"/>
</g>
<!-- NASALib/measure_integration&#45;&gt;NASALib/sets_aux -->
<g id="edge37" class="edge">
<title>NASALib/measure_integration&#45;&gt;NASALib/sets_aux</title>
<path fill="none" stroke="black" d="M533,-396C533,-396 550.2,-372.39 564.62,-352.6"/>
<polygon fill="black" stroke="black" points="567.44,-354.67 570.5,-344.53 561.78,-350.55 567.44,-354.67"/>
</g>
<!-- NASALib/measure_integration&#45;&gt;NASALib/sigma_set -->
<g id="edge38" class="edge">
<title>NASALib/measure_integration&#45;&gt;NASALib/sigma_set</title>
<path fill="none" stroke="black" d="M566.93,-522.84C569.83,-496.98 575,-451 575,-451 575,-451 607.61,-434.85 636.83,-420.37"/>
<polygon fill="black" stroke="black" points="638.2,-423.6 645.61,-416.03 635.09,-417.33 638.2,-423.6"/>
</g>
<!-- NASALib/measure_integration&#45;&gt;NASALib/structures -->
<g id="edge39" class="edge">
<title>NASALib/measure_integration&#45;&gt;NASALib/structures</title>
<path fill="none" stroke="black" d="M533,-396C533,-396 533,-326 533,-326"/>
<path fill="none" stroke="black" d="M525,-468C525,-468 533,-398 533,-398"/>
</g>
<!-- NASALib/measure_integration&#45;&gt;NASALib/topology -->
<g id="edge40" class="edge">
<title>NASALib/measure_integration&#45;&gt;NASALib/topology</title>
<path fill="none" stroke="black" d="M525,-468C525,-468 510,-451 510,-451 510,-451 497.2,-437.15 484.68,-423.62"/>
<polygon fill="black" stroke="black" points="487.43,-421.43 478.07,-416.47 482.29,-426.18 487.43,-421.43"/>
<path fill="none" stroke="black" d="M555.11,-522.7C543.27,-501.97 525,-470 525,-470"/>
</g>
<!-- NASALib/measure_integration&#45;&gt;lib/finite_sets -->
<g id="edge41" class="edge">
<title>NASALib/measure_integration&#45;&gt;lib/finite_sets</title>
<path fill="none" stroke="black" d="M818,-468C818,-468 818,-398 818,-398"/>
<path fill="none" stroke="black" d="M629.45,-525.59C699.63,-509.89 802,-487 802,-487 802,-487 818,-470 818,-470"/>
</g>
<!-- NASALib/metric_space&#45;&gt;NASALib/analysis -->
<g id="edge42" class="edge">
<title>NASALib/metric_space&#45;&gt;NASALib/analysis</title>
<path fill="none" stroke="black" d="M414.91,-487.23C448.45,-528.76 531,-631 531,-631 531,-631 641.74,-668.38 677.21,-680.36"/>
<polygon fill="black" stroke="black" points="675.97,-683.63 686.57,-683.52 678.21,-677 675.97,-683.63"/>
<path fill="none" stroke="black" d="M688,-686C688,-686 385.41,-735.14 287.31,-751.08"/>
</g>
<!-- NASALib/metric_space&#45;&gt;NASALib/power -->
<g id="edge43" class="edge">
<title>NASALib/metric_space&#45;&gt;NASALib/power</title>
<path fill="none" stroke="black" d="M391.61,-450.7C387.42,-442.98 382.39,-433.71 377.72,-425.11"/>
<polygon fill="black" stroke="black" points="380.85,-423.55 373.01,-416.43 374.7,-426.89 380.85,-423.55"/>
</g>
<!-- NASALib/metric_space&#45;&gt;NASALib/series -->
<g id="edge45" class="edge">
<title>NASALib/metric_space&#45;&gt;NASALib/series</title>
<path fill="none" stroke="black" d="M461,-324C461,-324 429.85,-298.64 405.04,-278.45"/>
<polygon fill="black" stroke="black" points="407.4,-275.86 397.43,-272.26 402.98,-281.29 407.4,-275.86"/>
<path fill="none" stroke="black" d="M409,-396C409,-396 420,-379 420,-379 420,-379 461,-326 461,-326"/>
<path fill="none" stroke="black" d="M402.98,-450.7C405.35,-429.97 409,-398 409,-398"/>
</g>
<!-- NASALib/metric_space&#45;&gt;NASALib/sets_aux -->
<g id="edge46" class="edge">
<title>NASALib/metric_space&#45;&gt;NASALib/sets_aux</title>
<path fill="none" stroke="black" d="M409,-396C409,-396 420,-379 420,-379 420,-379 538,-343 538,-343 538,-343 539.36,-342.5 541.62,-341.66"/>
<polygon fill="black" stroke="black" points="542.47,-345.08 550.63,-338.33 540.04,-338.52 542.47,-345.08"/>
</g>
<!-- NASALib/metric_space&#45;&gt;NASALib/topology -->
<g id="edge47" class="edge">
<title>NASALib/metric_space&#45;&gt;NASALib/topology</title>
<path fill="none" stroke="black" d="M415.83,-450.7C422.81,-442.56 431.27,-432.69 438.97,-423.7"/>
<polygon fill="black" stroke="black" points="441.5,-426.12 445.35,-416.25 436.19,-421.57 441.5,-426.12"/>
</g>
<!-- NASALib/metric_space&#45;&gt;NASALib/vectors -->
<g id="edge48" class="edge">
<title>NASALib/metric_space&#45;&gt;NASALib/vectors</title>
<path fill="none" stroke="black" d="M356.13,-455.49C308.68,-442.25 234.57,-421.58 189.33,-408.97"/>
<polygon fill="black" stroke="black" points="190.52,-405.67 179.95,-406.35 188.64,-412.41 190.52,-405.67"/>
</g>
<!-- NASALib/metric_space&#45;&gt;lib/finite_sets -->
<g id="edge49" class="edge">
<title>NASALib/metric_space&#45;&gt;lib/finite_sets</title>
<path fill="none" stroke="black" d="M445.99,-460.69C535.42,-446.15 727,-415 727,-415 727,-415 818,-398 818,-398"/>
<path fill="none" stroke="black" d="M818,-396C818,-396 818,-254 818,-254"/>
</g>
<!-- NASALib/orders&#45;&gt;NASALib/structures -->
<g id="edge50" class="edge">
<title>NASALib/orders&#45;&gt;NASALib/structures</title>
<path fill="none" stroke="black" d="M496.02,-162.52C483.64,-153.85 468.5,-143.25 455.07,-133.85"/>
<polygon fill="black" stroke="black" points="457.1,-131 446.9,-128.13 453.08,-136.73 457.1,-131"/>
</g>
<!-- NASALib/orders&#45;&gt;lib/finite_sets -->
<g id="edge51" class="edge">
<title>NASALib/orders&#45;&gt;lib/finite_sets</title>
<path fill="none" stroke="black" d="M548.41,-173.54C621.93,-156.21 818,-110 818,-110"/>
<path fill="none" stroke="black" d="M818,-108C818,-108 828.84,-83.26 837.91,-62.59"/>
<polygon fill="black" stroke="black" points="841,-64.25 841.81,-53.69 834.59,-61.44 841,-64.25"/>
</g>
<!-- NASALib/power&#45;&gt;NASALib/analysis -->
<g id="edge52" class="edge">
<title>NASALib/power&#45;&gt;NASALib/analysis</title>
<path fill="none" stroke="black" d="M346.3,-415.35C331.43,-430.81 312,-451 312,-451 312,-451 270.45,-627.01 259.58,-673.07"/>
<polygon fill="black" stroke="black" points="256.24,-671.99 257.35,-682.53 263.05,-673.6 256.24,-671.99"/>
</g>
<!-- NASALib/power&#45;&gt;NASALib/lnexp -->
<g id="edge53" class="edge">
<title>NASALib/power&#45;&gt;NASALib/lnexp</title>
<path fill="none" stroke="black" d="M343.22,-378.7C333.61,-370.28 321.88,-360.02 311.33,-350.79"/>
<polygon fill="black" stroke="black" points="313.79,-348.29 303.96,-344.34 309.19,-353.56 313.79,-348.29"/>
</g>
<!-- NASALib/power&#45;&gt;NASALib/reals -->
<g id="edge54" class="edge">
<title>NASALib/power&#45;&gt;NASALib/reals</title>
<path fill="none" stroke="black" d="M351.63,-415.3C342.69,-428.91 330.57,-447.35 323.29,-458.42"/>
<polygon fill="black" stroke="black" points="320.4,-456.46 317.83,-466.74 326.25,-460.3 320.4,-456.46"/>
</g>
<!-- NASALib/reals&#45;&gt;NASALib/ints -->
<g id="edge55" class="edge">
<title>NASALib/reals&#45;&gt;NASALib/ints</title>
<path fill="none" stroke="black" d="M217,-180C217,-180 217,-110 217,-110"/>
<path fill="none" stroke="black" d="M320.7,-669.24C291.7,-653.55 250,-631 250,-631 250,-631 212,-487 212,-487 212,-487 212,-307 212,-307 212,-307 217,-182 217,-182"/>
</g>
<!-- NASALib/reals&#45;&gt;NASALib/lebesgue -->
<g id="edge56" class="edge">
<title>NASALib/reals&#45;&gt;NASALib/lebesgue</title>
<path fill="none" stroke="black" d="M386.38,-672.01C425.95,-659.64 487.53,-640.4 528.79,-627.5"/>
<polygon fill="black" stroke="black" points="385.41,-668.64 376.91,-674.97 387.5,-675.32 385.41,-668.64"/>
<polygon fill="black" stroke="black" points="529.65,-630.9 538.15,-624.58 527.56,-624.22 529.65,-630.9"/>
</g>
<!-- NASALib/reals&#45;&gt;NASALib/metric_space -->
<g id="edge57" class="edge">
<title>NASALib/reals&#45;&gt;NASALib/metric_space</title>
<path fill="none" stroke="black" d="M354.97,-655.86C365.11,-614.91 383.83,-539.35 393.99,-498.31"/>
<polygon fill="black" stroke="black" points="351.62,-654.83 352.61,-665.38 358.41,-656.51 351.62,-654.83"/>
<polygon fill="black" stroke="black" points="397.36,-499.25 396.37,-488.7 390.57,-497.57 397.36,-499.25"/>
</g>
<!-- NASALib/reals&#45;&gt;NASALib/sets_aux -->
<g id="edge58" class="edge">
<title>NASALib/reals&#45;&gt;NASALib/sets_aux</title>
<path fill="none" stroke="black" d="M375.36,-678.82C445.81,-665.49 628,-631 628,-631 628,-631 673,-559 673,-559 673,-559 699,-487 699,-487 699,-487 699,-451 699,-451 699,-451 638,-415 638,-415 638,-415 616.26,-379.17 600.37,-352.97"/>
<polygon fill="black" stroke="black" points="603.38,-351.19 595.2,-344.45 597.39,-354.82 603.38,-351.19"/>
</g>
<!-- NASALib/reals&#45;&gt;NASALib/structures -->
<g id="edge59" class="edge">
<title>NASALib/reals&#45;&gt;NASALib/structures</title>
<path fill="none" stroke="black" d="M421,-180C421,-180 421,-158.08 421,-138.77"/>
<polygon fill="black" stroke="black" points="424.5,-138.82 421,-128.82 417.5,-138.82 424.5,-138.82"/>
<path fill="none" stroke="black" d="M341.75,-666.59C328.13,-628.67 297,-542 297,-542 297,-542 297,-542 297,-468 297,-468 339,-235 339,-235 339,-235 421,-182 421,-182"/>
</g>
<!-- NASALib/series&#45;&gt;NASALib/analysis -->
<g id="edge60" class="edge">
<title>NASALib/series&#45;&gt;NASALib/analysis</title>
<path fill="none" stroke="black" d="M257,-686C257,-686 257,-717.97 257,-738.7"/>
<path fill="none" stroke="black" d="M347.54,-265.37C309.93,-280.94 247,-307 247,-307 247,-307 237,-396 237,-396 237,-470 237,-470 237,-470 237,-470 251.84,-628.76 255.95,-672.8"/>
<polygon fill="black" stroke="black" points="252.44,-672.86 256.86,-682.49 259.41,-672.21 252.44,-672.86"/>
</g>
<!-- NASALib/series&#45;&gt;NASALib/ints -->
<g id="edge61" class="edge">
<title>NASALib/series&#45;&gt;NASALib/ints</title>
<path fill="none" stroke="black" d="M355.63,-234.59C313.44,-196.67 217,-110 217,-110"/>
</g>
<!-- NASALib/series&#45;&gt;NASALib/orders -->
<g id="edge62" class="edge">
<title>NASALib/series&#45;&gt;NASALib/orders</title>
<path fill="none" stroke="black" d="M402.46,-238.83C425.3,-227.88 458.04,-212.18 483.33,-200.06"/>
<polygon fill="black" stroke="black" points="484.79,-203.24 492.3,-195.76 481.77,-196.93 484.79,-203.24"/>
</g>
<!-- NASALib/series&#45;&gt;NASALib/reals -->
<g id="edge63" class="edge">
<title>NASALib/series&#45;&gt;NASALib/reals</title>
<path fill="none" stroke="black" d="M317,-470C317,-470 338.16,-616.07 345.52,-666.85"/>
<path fill="none" stroke="black" d="M368.33,-271.38C355.14,-305.73 327,-379 327,-379 327,-379 320.96,-432.78 318.27,-456.73"/>
<polygon fill="black" stroke="black" points="314.81,-456.17 317.17,-466.5 321.76,-456.95 314.81,-456.17"/>
</g>
<!-- NASALib/sets_aux&#45;&gt;NASALib/ints -->
<g id="edge64" class="edge">
<title>NASALib/sets_aux&#45;&gt;NASALib/ints</title>
<path fill="none" stroke="black" d="M475,-180C475,-180 465,-91 465,-91 465,-91 453.07,-75.81 441.63,-61.25"/>
<polygon fill="black" stroke="black" points="444.55,-59.3 435.62,-53.6 439.04,-63.63 444.55,-59.3"/>
</g>
<!-- NASALib/sets_aux&#45;&gt;NASALib/orders -->
<g id="edge65" class="edge">
<title>NASALib/sets_aux&#45;&gt;NASALib/orders</title>
<path fill="none" stroke="black" d="M475,-252C475,-252 490.37,-228.61 503.35,-208.87"/>
<polygon fill="black" stroke="black" points="506.23,-210.85 508.8,-200.57 500.38,-207 506.23,-210.85"/>
</g>
<!-- NASALib/sets_aux&#45;&gt;NASALib/structures -->
<g id="edge66" class="edge">
<title>NASALib/sets_aux&#45;&gt;NASALib/structures</title>
<path fill="none" stroke="black" d="M556.78,-306.52C524.49,-285.78 475,-254 475,-254"/>
<path fill="none" stroke="black" d="M475,-180C475,-180 456.62,-156.18 441.31,-136.33"/>
<polygon fill="black" stroke="black" points="444.15,-134.28 435.27,-128.5 438.61,-138.56 444.15,-134.28"/>
<path fill="none" stroke="black" d="M475,-252C475,-252 475,-182 475,-182"/>
</g>
<!-- NASALib/sets_aux&#45;&gt;lib/finite_sets -->
<g id="edge67" class="edge">
<title>NASALib/sets_aux&#45;&gt;lib/finite_sets</title>
<path fill="none" stroke="black" d="M615.56,-314.56C679.43,-295.45 818,-254 818,-254"/>
<path fill="none" stroke="black" d="M818,-252C818,-252 818,-110 818,-110"/>
</g>
<!-- NASALib/shapes&#45;&gt;NASALib/reals -->
<g id="edge68" class="edge">
<title>NASALib/shapes&#45;&gt;NASALib/reals</title>
<path fill="none" stroke="black" d="M110.36,-748.77C157.89,-736.22 255.8,-710.35 309.93,-696.05"/>
<polygon fill="black" stroke="black" points="310.55,-699.51 319.32,-693.57 308.76,-692.74 310.55,-699.51"/>
</g>
<!-- NASALib/shapes&#45;&gt;NASALib/structures -->
<g id="edge69" class="edge">
<title>NASALib/shapes&#45;&gt;NASALib/structures</title>
<path fill="none" stroke="black" d="M72.85,-738.65C63.81,-723.19 52,-703 52,-703 52,-703 17,-614 17,-614 17,-614 17,-614 17,-540 17,-540 67,-307 67,-307 67,-307 286.2,-185.01 379.63,-133.02"/>
<polygon fill="black" stroke="black" points="381.23,-136.14 388.26,-128.22 377.82,-130.02 381.23,-136.14"/>
</g>
<!-- NASALib/shapes&#45;&gt;NASALib/trig -->
<g id="edge70" class="edge">
<title>NASALib/shapes&#45;&gt;NASALib/trig</title>
<path fill="none" stroke="black" d="M77,-540C77,-540 57,-470 57,-470"/>
<path fill="none" stroke="black" d="M82.52,-738.85C81.1,-688.07 77,-542 77,-542"/>
</g>
<!-- NASALib/shapes&#45;&gt;NASALib/vectors -->
<g id="edge71" class="edge">
<title>NASALib/shapes&#45;&gt;NASALib/vectors</title>
<path fill="none" stroke="black" d="M77,-540C77,-540 114.71,-466.66 135.92,-425.39"/>
<polygon fill="black" stroke="black" points="138.9,-427.25 140.36,-416.76 132.67,-424.05 138.9,-427.25"/>
</g>
<!-- NASALib/sigma_set&#45;&gt;NASALib/analysis -->
<g id="edge72" class="edge">
<title>NASALib/sigma_set&#45;&gt;NASALib/analysis</title>
<path fill="none" stroke="black" d="M688,-614C688,-614 688,-684 688,-684"/>
</g>
<!-- NASALib/sigma_set&#45;&gt;NASALib/orders -->
<g id="edge73" class="edge">
<title>NASALib/sigma_set&#45;&gt;NASALib/orders</title>
<path fill="none" stroke="black" d="M682,-378.7C682,-357.97 682,-326 682,-326"/>
</g>
<!-- NASALib/sigma_set&#45;&gt;NASALib/reals -->
<g id="edge74" class="edge">
<title>NASALib/sigma_set&#45;&gt;NASALib/reals</title>
<path fill="none" stroke="black" d="M688,-614C688,-614 653,-631 653,-631 653,-631 450.2,-666.24 375.34,-679.25"/>
<path fill="none" stroke="black" d="M699.03,-415.35C714.19,-430.81 734,-451 734,-451 734,-451 734,-559 734,-559 734,-559 708.12,-588.81 695.19,-603.72"/>
<polygon fill="black" stroke="black" points="692.9,-601.01 688.99,-610.86 698.19,-605.6 692.9,-601.01"/>
</g>
<!-- NASALib/sigma_set&#45;&gt;NASALib/series -->
<g id="edge75" class="edge">
<title>NASALib/sigma_set&#45;&gt;NASALib/series</title>
<path fill="none" stroke="black" d="M671.01,-378.84C654.45,-352.98 625,-307 625,-307 625,-307 483.25,-276.95 413.22,-262.1"/>
<polygon fill="black" stroke="black" points="414.22,-258.74 403.71,-260.09 412.77,-265.58 414.22,-258.74"/>
</g>
<!-- NASALib/sigma_set&#45;&gt;NASALib/sets_aux -->
<g id="edge76" class="edge">
<title>NASALib/sigma_set&#45;&gt;NASALib/sets_aux</title>
<path fill="none" stroke="black" d="M657.52,-378.52C645.39,-369.85 630.55,-359.25 617.39,-349.85"/>
<polygon fill="black" stroke="black" points="619.57,-347.1 609.4,-344.14 615.5,-352.8 619.57,-347.1"/>
</g>
<!-- NASALib/structures&#45;&gt;NASALib/ints -->
<g id="edge77" class="edge">
<title>NASALib/structures&#45;&gt;NASALib/ints</title>
<path fill="none" stroke="black" d="M421,-90.7C421,-82.67 421,-72.9 421,-63.8"/>
<polygon fill="black" stroke="black" points="424.5,-63.94 421,-53.94 417.5,-63.94 424.5,-63.94"/>
</g>
<!-- NASALib/structures&#45;&gt;lib/finite_sets -->
<g id="edge78" class="edge">
<title>NASALib/structures&#45;&gt;lib/finite_sets</title>
<path fill="none" stroke="black" d="M455.82,-105.72C549.88,-99.54 802,-83 802,-83 802,-83 813.17,-71.83 824.73,-60.27"/>
<polygon fill="black" stroke="black" points="827,-62.95 831.6,-53.4 822.05,-58 827,-62.95"/>
</g>
<!-- NASALib/topology&#45;&gt;NASALib/reals -->
<g id="edge79" class="edge">
<title>NASALib/topology&#45;&gt;NASALib/reals</title>
<path fill="none" stroke="black" d="M459.84,-415.16C458.1,-441.02 455,-487 455,-487 455,-487 392.32,-602.4 362.91,-656.56"/>
<polygon fill="black" stroke="black" points="359.92,-654.73 358.22,-665.19 366.07,-658.07 359.92,-654.73"/>
</g>
<!-- NASALib/topology&#45;&gt;NASALib/sets_aux -->
<g id="edge80" class="edge">
<title>NASALib/topology&#45;&gt;NASALib/sets_aux</title>
<path fill="none" stroke="black" d="M491.72,-378.52C507.54,-369.51 527.03,-358.42 544.01,-348.76"/>
<polygon fill="black" stroke="black" points="545.4,-352 552.36,-344.01 541.93,-345.91 545.4,-352"/>
</g>
<!-- NASALib/topology&#45;&gt;NASALib/structures -->
<g id="edge81" class="edge">
<title>NASALib/topology&#45;&gt;NASALib/structures</title>
<path fill="none" stroke="black" d="M533,-324C533,-324 470,-271 470,-271 470,-271 421,-182 421,-182"/>
<path fill="none" stroke="black" d="M478.8,-378.7C500.12,-357.97 533,-326 533,-326"/>
</g>
<!-- NASALib/trig&#45;&gt;NASALib/analysis -->
<g id="edge82" class="edge">
<title>NASALib/trig&#45;&gt;NASALib/analysis</title>
<path fill="none" stroke="black" d="M157,-686C157,-686 202.4,-717.78 232.02,-738.52"/>
<path fill="none" stroke="black" d="M103,-343.3C103,-356.26 103,-373.6 103,-384.79"/>
<polygon fill="black" stroke="black" points="99.5,-384.49 103,-394.49 106.5,-384.49 99.5,-384.49"/>
<path fill="none" stroke="black" d="M103,-398C103,-398 115,-487 115,-487 115,-487 157,-684 157,-684"/>
</g>
<!-- NASALib/trig&#45;&gt;NASALib/ints -->
<g id="edge83" class="edge">
<title>NASALib/trig&#45;&gt;NASALib/ints</title>
<path fill="none" stroke="black" d="M103,-306.7C103,-285.97 103,-254 103,-254"/>
</g>
<!-- NASALib/trig&#45;&gt;NASALib/reals -->
<g id="edge84" class="edge">
<title>NASALib/trig&#45;&gt;NASALib/reals</title>
<path fill="none" stroke="black" d="M103,-398C103,-398 172,-631 172,-631 172,-631 271,-660.81 320.5,-675.72"/>
</g>
<!-- NASALib/trig&#45;&gt;NASALib/series -->
<g id="edge85" class="edge">
<title>NASALib/trig&#45;&gt;NASALib/series</title>
<path fill="none" stroke="black" d="M130.33,-316.97C179.1,-304.42 281.24,-278.13 336.89,-263.81"/>
<polygon fill="black" stroke="black" points="337.41,-267.29 346.23,-261.4 335.67,-260.51 337.41,-267.29"/>
</g>
<!-- NASALib/vectors&#45;&gt;NASALib/reals -->
<g id="edge86" class="edge">
<title>NASALib/vectors&#45;&gt;NASALib/reals</title>
<path fill="none" stroke="black" d="M158.97,-415.13C187.15,-468.94 272,-631 272,-631 272,-631 293.58,-646.05 313.73,-660.1"/>
<polygon fill="black" stroke="black" points="311.67,-662.93 321.87,-665.78 315.67,-657.19 311.67,-662.93"/>
</g>
<!-- NASALib/vectors&#45;&gt;NASALib/structures -->
<g id="edge87" class="edge">
<title>NASALib/vectors&#45;&gt;NASALib/structures</title>
<path fill="none" stroke="black" d="M217,-324C217,-324 232,-307 232,-307 232,-307 345.04,-189.18 396.27,-135.77"/>
<polygon fill="black" stroke="black" points="398.78,-138.21 403.18,-128.57 393.73,-133.37 398.78,-138.21"/>
<path fill="none" stroke="black" d="M166.56,-378.7C186.4,-357.97 217,-326 217,-326"/>
</g>
<!-- NASALib/vectors&#45;&gt;NASALib/trig -->
<g id="edge88" class="edge">
<title>NASALib/vectors&#45;&gt;NASALib/trig</title>
<path fill="none" stroke="black" d="M138.38,-378.7C133.09,-370.81 126.7,-361.3 120.82,-352.55"/>
<polygon fill="black" stroke="black" points="123.81,-350.71 115.33,-344.36 118,-354.61 123.81,-350.71"/>
</g>
</g>
</svg>
