<?xml version="1.0" encoding="UTF-8" standalone="no"?>
<!DOCTYPE svg PUBLIC "-//W3C//DTD SVG 1.1//EN"
 "http://www.w3.org/Graphics/SVG/1.1/DTD/svg11.dtd">
<!-- Generated by graphviz version 8.0.4 (20230421.1958)
 -->
<!-- Title: shapes&#45;zoomed Pages: 1 -->
<svg width="670pt" height="473pt"
 viewBox="0.00 0.00 670.00 473.00" xmlns="http://www.w3.org/2000/svg" xmlns:xlink="http://www.w3.org/1999/xlink">
<g id="graph0" class="graph" transform="scale(1 1) rotate(0) translate(4 469)">
<title>shapes&#45;zoomed</title>
<polygon fill="white" stroke="none" points="-4,4 -4,-469 666,-469 666,4 -4,4"/>
<g id="clust1" class="cluster">
<title>cluster_NASALib</title>
<polygon fill="none" stroke="black" points="232,-8 232,-84.5 534,-84.5 534,-8 232,-8"/>
<text text-anchor="middle" x="383" y="-67.2" font-family="Times,serif" font-size="14.00">NASALib</text>
</g>
<g id="clust2" class="cluster">
<title>cluster_NASALib/shapes</title>
<polygon fill="none" stroke="black" points="8,-92.5 8,-457 654,-457 654,-92.5 8,-92.5"/>
<text text-anchor="middle" x="331" y="-439.7" font-family="Times,serif" font-size="14.00">NASALib/shapes</text>
</g>
<!-- NASALib/reals -->
<g id="node1" class="node">
<title>NASALib/reals</title>
<polygon fill="#fcfcd7" stroke="black" points="440,-52 386,-52 386,-16 440,-16 440,-52"/>
<text text-anchor="middle" x="413" y="-28.95" font-family="Times,serif" font-size="14.00">reals</text>
</g>
<!-- NASALib/shapes@Shape2D -->
<g id="node2" class="node">
<title>NASALib/shapes@Shape2D</title>
<ellipse fill="#e6f3ff" stroke="black" cx="417" cy="-334.5" rx="44.7" ry="18"/>
<text text-anchor="middle" x="417" y="-329.45" font-family="Times,serif" font-size="14.00">Shape2D</text>
</g>
<!-- NASALib/shapes@circle_2D -->
<g id="node5" class="node">
<title>NASALib/shapes@circle_2D</title>
<ellipse fill="#e6f3ff" stroke="black" cx="324" cy="-262.5" rx="47.26" ry="18"/>
<text text-anchor="middle" x="324" y="-257.45" font-family="Times,serif" font-size="14.00">circle_2D</text>
</g>
<!-- NASALib/shapes@Shape2D&#45;&gt;NASALib/shapes@circle_2D -->
<g id="edge1" class="edge">
<title>NASALib/shapes@Shape2D&#45;&gt;NASALib/shapes@circle_2D</title>
<path fill="none" stroke="black" d="M396.82,-318.31C384.08,-308.72 367.41,-296.17 353.23,-285.5"/>
<polygon fill="black" stroke="black" points="355.88,-282.36 345.78,-279.14 351.67,-287.95 355.88,-282.36"/>
</g>
<!-- NASALib/shapes@circular_segment_2D -->
<g id="node7" class="node">
<title>NASALib/shapes@circular_segment_2D</title>
<ellipse fill="#e6f3ff" stroke="black" cx="253" cy="-190.5" rx="90.76" ry="18"/>
<text text-anchor="middle" x="253" y="-185.45" font-family="Times,serif" font-size="14.00">circular_segment_2D</text>
</g>
<!-- NASALib/shapes@Shape2D&#45;&gt;NASALib/shapes@circular_segment_2D -->
<g id="edge2" class="edge">
<title>NASALib/shapes@Shape2D&#45;&gt;NASALib/shapes@circular_segment_2D</title>
<path fill="none" stroke="black" d="M417,-316.2C417,-295.47 417,-263.5 417,-263.5"/>
<path fill="none" stroke="black" d="M417,-261.5C417,-261.5 380,-244.5 380,-244.5 380,-244.5 336.72,-226.44 300.69,-211.4"/>
<polygon fill="black" stroke="black" points="302.34,-207.88 291.76,-207.26 299.64,-214.34 302.34,-207.88"/>
</g>
<!-- NASALib/shapes@parallelogram_2D -->
<g id="node9" class="node">
<title>NASALib/shapes@parallelogram_2D</title>
<ellipse fill="#e6f3ff" stroke="black" cx="568" cy="-190.5" rx="78.48" ry="18"/>
<text text-anchor="middle" x="568" y="-185.45" font-family="Times,serif" font-size="14.00">parallelogram_2D</text>
</g>
<!-- NASALib/shapes@Shape2D&#45;&gt;NASALib/shapes@parallelogram_2D -->
<g id="edge3" class="edge">
<title>NASALib/shapes@Shape2D&#45;&gt;NASALib/shapes@parallelogram_2D</title>
<path fill="none" stroke="black" d="M417,-261.5C417,-261.5 479.74,-232.41 524.34,-211.74"/>
<polygon fill="black" stroke="black" points="525.51,-214.59 533.11,-207.21 522.57,-208.24 525.51,-214.59"/>
</g>
<!-- NASALib/shapes@rectangle_2D -->
<g id="node10" class="node">
<title>NASALib/shapes@rectangle_2D</title>
<ellipse fill="#e6f3ff" stroke="black" cx="568" cy="-262.5" rx="60.56" ry="18"/>
<text text-anchor="middle" x="568" y="-257.45" font-family="Times,serif" font-size="14.00">rectangle_2D</text>
</g>
<!-- NASALib/shapes@Shape2D&#45;&gt;NASALib/shapes@rectangle_2D -->
<g id="edge4" class="edge">
<title>NASALib/shapes@Shape2D&#45;&gt;NASALib/shapes@rectangle_2D</title>
<path fill="none" stroke="black" d="M445.4,-320.33C468.25,-309.74 500.69,-294.7 526.46,-282.76"/>
<polygon fill="black" stroke="black" points="527.73,-285.56 535.33,-278.18 524.79,-279.21 527.73,-285.56"/>
</g>
<!-- NASALib/shapes@triangle_2D -->
<g id="node12" class="node">
<title>NASALib/shapes@triangle_2D</title>
<ellipse fill="#e6f3ff" stroke="black" cx="417" cy="-190.5" rx="54.93" ry="18"/>
<text text-anchor="middle" x="417" y="-185.45" font-family="Times,serif" font-size="14.00">triangle_2D</text>
</g>
<!-- NASALib/shapes@Shape2D&#45;&gt;NASALib/shapes@triangle_2D -->
<g id="edge5" class="edge">
<title>NASALib/shapes@Shape2D&#45;&gt;NASALib/shapes@triangle_2D</title>
<path fill="none" stroke="black" d="M417,-261.5C417,-261.5 417,-239.16 417,-219.72"/>
<polygon fill="black" stroke="black" points="420.5,-219.8 417,-209.8 413.5,-219.8 420.5,-219.8"/>
</g>
<!-- NASALib/shapes@angle_2D -->
<g id="node3" class="node">
<title>NASALib/shapes@angle_2D</title>
<ellipse fill="#e6f3ff" stroke="black" cx="268" cy="-118.5" rx="46.75" ry="18"/>
<text text-anchor="middle" x="268" y="-113.45" font-family="Times,serif" font-size="14.00">angle_2D</text>
</g>
<!-- NASALib/vectors -->
<g id="node15" class="node">
<title>NASALib/vectors</title>
<polygon fill="#fcfcd7" stroke="black" points="295.5,-52 240.5,-52 240.5,-16 295.5,-16 295.5,-52"/>
<text text-anchor="middle" x="268" y="-28.95" font-family="Times,serif" font-size="14.00">vectors</text>
</g>
<!-- NASALib/shapes@angle_2D&#45;&gt;NASALib/vectors -->
<g id="edge6" class="edge">
<title>NASALib/shapes@angle_2D&#45;&gt;NASALib/vectors</title>
<path fill="none" stroke="black" d="M268,-100C268,-89.39 268,-75.6 268,-63.46"/>
<polygon fill="black" stroke="black" points="271.5,-63.47 268,-53.47 264.5,-63.47 271.5,-63.47"/>
</g>
<!-- NASALib/shapes@angle_2D_trig -->
<g id="node4" class="node">
<title>NASALib/shapes@angle_2D_trig</title>
<ellipse fill="#e6f3ff" stroke="black" cx="80" cy="-190.5" rx="64.15" ry="18"/>
<text text-anchor="middle" x="80" y="-185.45" font-family="Times,serif" font-size="14.00">angle_2D_trig</text>
</g>
<!-- NASALib/shapes@angle_2D_trig&#45;&gt;NASALib/reals -->
<g id="edge7" class="edge">
<title>NASALib/shapes@angle_2D_trig&#45;&gt;NASALib/reals</title>
<path fill="none" stroke="black" d="M365,-117.5C365,-117.5 383.33,-85.99 397.34,-61.92"/>
<polygon fill="black" stroke="black" points="400.82,-63.9 402.82,-53.5 394.77,-60.38 400.82,-63.9"/>
</g>
<!-- NASALib/shapes@angle_2D_trig&#45;&gt;NASALib/shapes@angle_2D -->
<g id="edge8" class="edge">
<title>NASALib/shapes@angle_2D_trig&#45;&gt;NASALib/shapes@angle_2D</title>
<path fill="none" stroke="black" d="M117.59,-175.5C148.63,-163.95 192.69,-147.54 225.1,-135.47"/>
<polygon fill="black" stroke="black" points="226.03,-138.49 234.18,-131.72 223.59,-131.93 226.03,-138.49"/>
</g>
<!-- NASALib/trig -->
<g id="node14" class="node">
<title>NASALib/trig</title>
<polygon fill="#fcfcd7" stroke="black" points="368,-52 314,-52 314,-16 368,-16 368,-52"/>
<text text-anchor="middle" x="341" y="-28.95" font-family="Times,serif" font-size="14.00">trig</text>
</g>
<!-- NASALib/shapes@angle_2D_trig&#45;&gt;NASALib/trig -->
<g id="edge9" class="edge">
<title>NASALib/shapes@angle_2D_trig&#45;&gt;NASALib/trig</title>
<path fill="none" stroke="black" d="M365,-117.5C365,-117.5 356.08,-86.83 349.11,-62.89"/>
<polygon fill="black" stroke="black" points="352.24,-62.12 346.09,-53.5 345.52,-64.08 352.24,-62.12"/>
<path fill="none" stroke="black" d="M128.29,-178.26C141.86,-175.09 153,-172.5 153,-172.5 153,-172.5 324,-136.5 324,-136.5 324,-136.5 365,-119.5 365,-119.5"/>
</g>
<!-- NASALib/shapes@circle_2D&#45;&gt;NASALib/shapes@circular_segment_2D -->
<g id="edge10" class="edge">
<title>NASALib/shapes@circle_2D&#45;&gt;NASALib/shapes@circular_segment_2D</title>
<path fill="none" stroke="black" d="M307.53,-245.26C298.74,-236.6 287.74,-225.75 277.92,-216.07"/>
<polygon fill="black" stroke="black" points="280.95,-214.15 271.37,-209.62 276.03,-219.14 280.95,-214.15"/>
</g>
<!-- NASALib/shapes@circle_2D_trig -->
<g id="node6" class="node">
<title>NASALib/shapes@circle_2D_trig</title>
<ellipse fill="#e6f3ff" stroke="black" cx="220" cy="-334.5" rx="64.66" ry="18"/>
<text text-anchor="middle" x="220" y="-329.45" font-family="Times,serif" font-size="14.00">circle_2D_trig</text>
</g>
<!-- NASALib/shapes@circle_2D_trig&#45;&gt;NASALib/shapes@circle_2D -->
<g id="edge11" class="edge">
<title>NASALib/shapes@circle_2D_trig&#45;&gt;NASALib/shapes@circle_2D</title>
<path fill="none" stroke="black" d="M243.86,-317.44C258.3,-307.72 276.88,-295.22 292.51,-284.69"/>
<polygon fill="black" stroke="black" points="293.98,-287.25 300.32,-278.76 290.07,-281.44 293.98,-287.25"/>
</g>
<!-- NASALib/shapes@circular_segment_2D_trig -->
<g id="node8" class="node">
<title>NASALib/shapes@circular_segment_2D_trig</title>
<ellipse fill="#e6f3ff" stroke="black" cx="151" cy="-262.5" rx="108.16" ry="18"/>
<text text-anchor="middle" x="151" y="-257.45" font-family="Times,serif" font-size="14.00">circular_segment_2D_trig</text>
</g>
<!-- NASALib/shapes@circle_2D_trig&#45;&gt;NASALib/shapes@circular_segment_2D_trig -->
<g id="edge12" class="edge">
<title>NASALib/shapes@circle_2D_trig&#45;&gt;NASALib/shapes@circular_segment_2D_trig</title>
<path fill="none" stroke="black" d="M203.65,-316.91C195.18,-308.32 184.67,-297.66 175.28,-288.13"/>
<polygon fill="black" stroke="black" points="178.23,-286.12 168.71,-281.46 173.24,-291.04 178.23,-286.12"/>
</g>
<!-- NASALib/shapes@circular_segment_2D&#45;&gt;NASALib/shapes@angle_2D -->
<g id="edge13" class="edge">
<title>NASALib/shapes@circular_segment_2D&#45;&gt;NASALib/shapes@angle_2D</title>
<path fill="none" stroke="black" d="M256.71,-172.2C258.32,-164.65 260.26,-155.62 262.07,-147.18"/>
<polygon fill="black" stroke="black" points="265.66,-148.12 264.33,-137.6 258.82,-146.65 265.66,-148.12"/>
</g>
<!-- NASALib/shapes@circular_segment_2D_trig&#45;&gt;NASALib/shapes@angle_2D_trig -->
<g id="edge14" class="edge">
<title>NASALib/shapes@circular_segment_2D_trig&#45;&gt;NASALib/shapes@angle_2D_trig</title>
<path fill="none" stroke="black" d="M133.81,-244.55C125.09,-235.96 114.34,-225.36 104.75,-215.9"/>
<polygon fill="black" stroke="black" points="107.61,-213.82 98.03,-209.29 102.69,-218.8 107.61,-213.82"/>
</g>
<!-- NASALib/shapes@circular_segment_2D_trig&#45;&gt;NASALib/shapes@circular_segment_2D -->
<g id="edge15" class="edge">
<title>NASALib/shapes@circular_segment_2D_trig&#45;&gt;NASALib/shapes@circular_segment_2D</title>
<path fill="none" stroke="black" d="M175.69,-244.55C188.85,-235.53 205.22,-224.29 219.5,-214.49"/>
<polygon fill="black" stroke="black" points="221.27,-216.83 227.54,-208.29 217.31,-211.06 221.27,-216.83"/>
</g>
<!-- NASALib/shapes@parallelogram_2D&#45;&gt;NASALib/shapes@angle_2D -->
<g id="edge16" class="edge">
<title>NASALib/shapes@parallelogram_2D&#45;&gt;NASALib/shapes@angle_2D</title>
<path fill="none" stroke="black" d="M514.37,-176.99C458.59,-163.97 371.99,-143.76 317.71,-131.1"/>
<polygon fill="black" stroke="black" points="318.84,-127.54 308.31,-128.67 317.25,-134.35 318.84,-127.54"/>
</g>
<!-- NASALib/structures -->
<g id="node13" class="node">
<title>NASALib/structures</title>
<polygon fill="#fcfcd7" stroke="black" points="526.25,-52 457.75,-52 457.75,-16 526.25,-16 526.25,-52"/>
<text text-anchor="middle" x="492" y="-28.95" font-family="Times,serif" font-size="14.00">structures</text>
</g>
<!-- NASALib/shapes@parallelogram_2D&#45;&gt;NASALib/structures -->
<g id="edge17" class="edge">
<title>NASALib/shapes@parallelogram_2D&#45;&gt;NASALib/structures</title>
<path fill="none" stroke="black" d="M559.58,-172.38C546.39,-145.58 520.79,-93.52 505.16,-61.75"/>
<polygon fill="black" stroke="black" points="508.02,-60.63 500.46,-53.2 501.73,-63.72 508.02,-60.63"/>
</g>
<!-- NASALib/shapes@rectangle_2D&#45;&gt;NASALib/reals -->
<g id="edge18" class="edge">
<title>NASALib/shapes@rectangle_2D&#45;&gt;NASALib/reals</title>
<path fill="none" stroke="black" d="M593.63,-245.88C619.3,-230.25 655,-208.5 655,-208.5 655,-208.5 655,-172.5 655,-172.5 655,-172.5 449,-84.5 449,-84.5 449,-84.5 440.56,-72.9 431.86,-60.93"/>
<polygon fill="black" stroke="black" points="434.3,-59.34 425.59,-53.31 428.64,-63.46 434.3,-59.34"/>
</g>
<!-- NASALib/shapes@rectangle_2D&#45;&gt;NASALib/shapes@parallelogram_2D -->
<g id="edge19" class="edge">
<title>NASALib/shapes@rectangle_2D&#45;&gt;NASALib/shapes@parallelogram_2D</title>
<path fill="none" stroke="black" d="M568,-244.2C568,-236.74 568,-227.82 568,-219.47"/>
<polygon fill="black" stroke="black" points="571.5,-219.6 568,-209.6 564.5,-219.6 571.5,-219.6"/>
</g>
<!-- NASALib/shapes@shapes_2D -->
<g id="node11" class="node">
<title>NASALib/shapes@shapes_2D</title>
<ellipse fill="#e6f3ff" stroke="black" cx="417" cy="-406.5" rx="51.35" ry="18"/>
<text text-anchor="middle" x="417" y="-401.45" font-family="Times,serif" font-size="14.00">shapes_2D</text>
</g>
<!-- NASALib/shapes@shapes_2D&#45;&gt;NASALib/shapes@Shape2D -->
<g id="edge20" class="edge">
<title>NASALib/shapes@shapes_2D&#45;&gt;NASALib/shapes@Shape2D</title>
<path fill="none" stroke="black" d="M417,-388.2C417,-380.74 417,-371.82 417,-363.47"/>
<polygon fill="black" stroke="black" points="420.5,-363.6 417,-353.6 413.5,-363.6 420.5,-363.6"/>
</g>
<!-- NASALib/shapes@triangle_2D&#45;&gt;NASALib/reals -->
<g id="edge21" class="edge">
<title>NASALib/shapes@triangle_2D&#45;&gt;NASALib/reals</title>
<path fill="none" stroke="black" d="M428,-117.5C428,-117.5 422.47,-87.1 418.13,-63.21"/>
<polygon fill="black" stroke="black" points="421.41,-62.71 416.18,-53.5 414.53,-63.96 421.41,-62.71"/>
<path fill="none" stroke="black" d="M419.72,-172.2C422.98,-151.47 428,-119.5 428,-119.5"/>
</g>
<!-- NASALib/shapes@triangle_2D&#45;&gt;NASALib/shapes@angle_2D -->
<g id="edge22" class="edge">
<title>NASALib/shapes@triangle_2D&#45;&gt;NASALib/shapes@angle_2D</title>
<path fill="none" stroke="black" d="M386.49,-175.17C363.44,-164.34 331.64,-149.4 306.79,-137.72"/>
<polygon fill="black" stroke="black" points="308.49,-134.19 297.95,-133.1 305.52,-140.52 308.49,-134.19"/>
</g>
<!-- NASALib/shapes@triangle_2D&#45;&gt;NASALib/structures -->
<g id="edge23" class="edge">
<title>NASALib/shapes@triangle_2D&#45;&gt;NASALib/structures</title>
<path fill="none" stroke="black" d="M428,-117.5C428,-117.5 453.1,-85.15 471.86,-60.96"/>
<polygon fill="black" stroke="black" points="475.06,-63.54 478.43,-53.5 469.53,-59.25 475.06,-63.54"/>
</g>
</g>
</svg>
