<?xml version="1.0" encoding="UTF-8" standalone="no"?>
<!DOCTYPE svg PUBLIC "-//W3C//DTD SVG 1.1//EN"
 "http://www.w3.org/Graphics/SVG/1.1/DTD/svg11.dtd">
<!-- Generated by graphviz version 8.0.4 (20230421.1958)
 -->
<!-- Title: ACCoRD Pages: 1 -->
<svg width="358pt" height="761pt"
 viewBox="0.00 0.00 358.00 761.00" xmlns="http://www.w3.org/2000/svg" xmlns:xlink="http://www.w3.org/1999/xlink">
<g id="graph0" class="graph" transform="scale(1 1) rotate(0) translate(4 757)">
<title>ACCoRD</title>
<polygon fill="white" stroke="none" points="-4,4 -4,-757 354,-757 354,4 -4,4"/>
<g id="clust1" class="cluster">
<title>cluster_NASALib</title>
<polygon fill="none" stroke="black" points="8,-92.5 8,-745 342,-745 342,-92.5 8,-92.5"/>
<text text-anchor="middle" x="175" y="-727.7" font-family="Times,serif" font-size="14.00">NASALib</text>
</g>
<g id="clust2" class="cluster">
<title>cluster_PVS Prelude</title>
<polygon fill="none" stroke="black" points="220,-8 220,-84.5 308,-84.5 308,-8 220,-8"/>
<text text-anchor="middle" x="264" y="-67.2" font-family="Times,serif" font-size="14.00">PVS Prelude</text>
</g>
<!-- NASALib/ACCoRD -->
<g id="node1" class="node">
<title>NASALib/ACCoRD</title>
<polygon fill="#f7e28d" stroke="black" points="206.62,-712.5 137.38,-712.5 137.38,-676.5 206.62,-676.5 206.62,-712.5"/>
<text text-anchor="middle" x="172" y="-689.45" font-family="Times,serif" font-size="14.00">ACCoRD</text>
</g>
<!-- NASALib/analysis -->
<g id="node2" class="node">
<title>NASALib/analysis</title>
<polygon fill="#fcfcd7" stroke="black" points="284.75,-352.5 225.25,-352.5 225.25,-316.5 284.75,-316.5 284.75,-352.5"/>
<text text-anchor="middle" x="255" y="-329.45" font-family="Times,serif" font-size="14.00">analysis</text>
</g>
<!-- NASALib/ACCoRD&#45;&gt;NASALib/analysis -->
<g id="edge1" class="edge">
<title>NASALib/ACCoRD&#45;&gt;NASALib/analysis</title>
<path fill="none" stroke="black" d="M207.02,-681.21C251.63,-665.55 323,-640.5 323,-640.5 323,-640.5 333,-623.5 333,-623.5"/>
<path fill="none" stroke="black" d="M333,-621.5C333,-621.5 284,-479.5 284,-479.5"/>
</g>
<!-- NASALib/aviation -->
<g id="node3" class="node">
<title>NASALib/aviation</title>
<polygon fill="#fcfcd7" stroke="black" points="313.75,-640.5 254.25,-640.5 254.25,-604.5 313.75,-604.5 313.75,-640.5"/>
<text text-anchor="middle" x="284" y="-617.45" font-family="Times,serif" font-size="14.00">aviation</text>
</g>
<!-- NASALib/ACCoRD&#45;&gt;NASALib/aviation -->
<g id="edge2" class="edge">
<title>NASALib/ACCoRD&#45;&gt;NASALib/aviation</title>
<path fill="none" stroke="black" d="M199.97,-676.02C214.25,-667.1 231.79,-656.13 247.15,-646.53"/>
<polygon fill="black" stroke="black" points="248.76,-649.03 255.38,-640.76 245.05,-643.09 248.76,-649.03"/>
</g>
<!-- NASALib/reals -->
<g id="node6" class="node">
<title>NASALib/reals</title>
<polygon fill="#fcfcd7" stroke="black" points="139,-280.5 85,-280.5 85,-244.5 139,-244.5 139,-280.5"/>
<text text-anchor="middle" x="112" y="-257.45" font-family="Times,serif" font-size="14.00">reals</text>
</g>
<!-- NASALib/ACCoRD&#45;&gt;NASALib/reals -->
<g id="edge3" class="edge">
<title>NASALib/ACCoRD&#45;&gt;NASALib/reals</title>
<path fill="none" stroke="black" d="M71,-405.5C71,-405.5 92,-332.78 103.94,-291.42"/>
<polygon fill="black" stroke="black" points="107.56,-292.49 106.97,-281.91 100.84,-290.55 107.56,-292.49"/>
<path fill="none" stroke="black" d="M51,-477.5C51,-477.5 71,-407.5 71,-407.5"/>
</g>
<!-- NASALib/shapes -->
<g id="node8" class="node">
<title>NASALib/shapes</title>
<polygon fill="#fcfcd7" stroke="black" points="90,-640.5 36,-640.5 36,-604.5 90,-604.5 90,-640.5"/>
<text text-anchor="middle" x="63" y="-617.45" font-family="Times,serif" font-size="14.00">shapes</text>
</g>
<!-- NASALib/ACCoRD&#45;&gt;NASALib/shapes -->
<g id="edge4" class="edge">
<title>NASALib/ACCoRD&#45;&gt;NASALib/shapes</title>
<path fill="none" stroke="black" d="M144.78,-676.02C130.89,-667.1 113.81,-656.13 98.86,-646.53"/>
<polygon fill="black" stroke="black" points="101.18,-643.22 90.88,-640.76 97.4,-649.11 101.18,-643.22"/>
</g>
<!-- NASALib/structures -->
<g id="node9" class="node">
<title>NASALib/structures</title>
<polygon fill="#fcfcd7" stroke="black" points="265.25,-208.5 196.75,-208.5 196.75,-172.5 265.25,-172.5 265.25,-208.5"/>
<text text-anchor="middle" x="231" y="-185.45" font-family="Times,serif" font-size="14.00">structures</text>
</g>
<!-- NASALib/ACCoRD&#45;&gt;NASALib/structures -->
<g id="edge5" class="edge">
<title>NASALib/ACCoRD&#45;&gt;NASALib/structures</title>
<path fill="none" stroke="black" d="M136.9,-680.67C93.99,-664.98 27,-640.5 27,-640.5 27,-640.5 27,-604.5 27,-604.5 27,-604.5 51,-479.5 51,-479.5"/>
<path fill="none" stroke="black" d="M66,-261.5C66,-261.5 76,-244.5 76,-244.5 76,-244.5 140.5,-222.45 186.28,-206.79"/>
<polygon fill="black" stroke="black" points="187.27,-209.81 195.6,-203.26 185.01,-203.19 187.27,-209.81"/>
<path fill="none" stroke="black" d="M51,-477.5C51,-477.5 51,-407.5 51,-407.5"/>
<path fill="none" stroke="black" d="M51,-405.5C51,-405.5 66,-263.5 66,-263.5"/>
</g>
<!-- NASALib/trig -->
<g id="node10" class="node">
<title>NASALib/trig</title>
<polygon fill="#fcfcd7" stroke="black" points="185,-496.5 131,-496.5 131,-460.5 185,-460.5 185,-496.5"/>
<text text-anchor="middle" x="158" y="-473.45" font-family="Times,serif" font-size="14.00">trig</text>
</g>
<!-- NASALib/ACCoRD&#45;&gt;NASALib/trig -->
<g id="edge6" class="edge">
<title>NASALib/ACCoRD&#45;&gt;NASALib/trig</title>
<path fill="none" stroke="black" d="M189.35,-676.15C204.81,-660.69 225,-640.5 225,-640.5 225,-640.5 235,-551.5 235,-551.5"/>
<path fill="none" stroke="black" d="M235,-549.5C235,-549.5 207.11,-524.14 184.9,-503.95"/>
<polygon fill="black" stroke="black" points="187.79,-501.94 178.03,-497.8 183.08,-507.12 187.79,-501.94"/>
</g>
<!-- NASALib/vect_analysis -->
<g id="node11" class="node">
<title>NASALib/vect_analysis</title>
<polygon fill="#fcfcd7" stroke="black" points="216.38,-640.5 127.62,-640.5 127.62,-604.5 216.38,-604.5 216.38,-640.5"/>
<text text-anchor="middle" x="172" y="-617.45" font-family="Times,serif" font-size="14.00">vect_analysis</text>
</g>
<!-- NASALib/ACCoRD&#45;&gt;NASALib/vect_analysis -->
<g id="edge7" class="edge">
<title>NASALib/ACCoRD&#45;&gt;NASALib/vect_analysis</title>
<path fill="none" stroke="black" d="M172,-676.2C172,-668.74 172,-659.82 172,-651.47"/>
<polygon fill="black" stroke="black" points="175.5,-651.6 172,-641.6 168.5,-651.6 175.5,-651.6"/>
</g>
<!-- NASALib/vectors -->
<g id="node12" class="node">
<title>NASALib/vectors</title>
<polygon fill="#fcfcd7" stroke="black" points="185.5,-568.5 130.5,-568.5 130.5,-532.5 185.5,-532.5 185.5,-568.5"/>
<text text-anchor="middle" x="158" y="-545.45" font-family="Times,serif" font-size="14.00">vectors</text>
</g>
<!-- NASALib/ACCoRD&#45;&gt;NASALib/vectors -->
<g id="edge8" class="edge">
<title>NASALib/ACCoRD&#45;&gt;NASALib/vectors</title>
<path fill="none" stroke="black" d="M154.65,-676.15C139.19,-660.69 119,-640.5 119,-640.5 119,-640.5 119,-604.5 119,-604.5 119,-604.5 129,-590.91 138.87,-577.5"/>
<polygon fill="black" stroke="black" points="142.12,-579.98 145.23,-569.85 136.48,-575.83 142.12,-579.98"/>
</g>
<!-- lib/finite_sets -->
<g id="node13" class="node">
<title>lib/finite_sets</title>
<polygon fill="#fcfcd7" stroke="black" points="299.75,-52 228.25,-52 228.25,-16 299.75,-16 299.75,-52"/>
<text text-anchor="middle" x="264" y="-28.95" font-family="Times,serif" font-size="14.00">finite_sets</text>
</g>
<!-- NASALib/ACCoRD&#45;&gt;lib/finite_sets -->
<g id="edge9" class="edge">
<title>NASALib/ACCoRD&#45;&gt;lib/finite_sets</title>
<path fill="none" stroke="black" d="M333,-621.5C333,-621.5 333,-551.5 333,-551.5"/>
</g>
<!-- NASALib/ints -->
<g id="node4" class="node">
<title>NASALib/ints</title>
<polygon fill="#fcfcd7" stroke="black" points="258,-136.5 204,-136.5 204,-100.5 258,-100.5 258,-136.5"/>
<text text-anchor="middle" x="231" y="-113.45" font-family="Times,serif" font-size="14.00">ints</text>
</g>
<!-- NASALib/analysis&#45;&gt;NASALib/ints -->
<g id="edge10" class="edge">
<title>NASALib/analysis&#45;&gt;NASALib/ints</title>
<path fill="none" stroke="black" d="M284,-261.5C284,-261.5 284,-191.5 284,-191.5"/>
</g>
<!-- NASALib/orders -->
<g id="node5" class="node">
<title>NASALib/orders</title>
<polygon fill="#fcfcd7" stroke="black" points="265,-280.5 211,-280.5 211,-244.5 265,-244.5 265,-280.5"/>
<text text-anchor="middle" x="238" y="-257.45" font-family="Times,serif" font-size="14.00">orders</text>
</g>
<!-- NASALib/analysis&#45;&gt;NASALib/orders -->
<g id="edge11" class="edge">
<title>NASALib/analysis&#45;&gt;NASALib/orders</title>
<path fill="none" stroke="black" d="M250.8,-316.2C248.97,-308.65 246.77,-299.62 244.72,-291.18"/>
<polygon fill="black" stroke="black" points="247.92,-290.5 242.15,-281.6 241.11,-292.15 247.92,-290.5"/>
</g>
<!-- NASALib/analysis&#45;&gt;NASALib/reals -->
<g id="edge12" class="edge">
<title>NASALib/analysis&#45;&gt;NASALib/reals</title>
<path fill="none" stroke="black" d="M225.02,-318.83C202.81,-307.95 172.41,-293.07 148.73,-281.48"/>
<polygon fill="black" stroke="black" points="150.56,-277.99 140.04,-276.74 147.48,-284.28 150.56,-277.99"/>
</g>
<!-- NASALib/analysis&#45;&gt;NASALib/structures -->
<g id="edge13" class="edge">
<title>NASALib/analysis&#45;&gt;NASALib/structures</title>
<path fill="none" stroke="black" d="M262.17,-316.2C270.76,-295.47 284,-263.5 284,-263.5"/>
<path fill="none" stroke="black" d="M284,-261.5C284,-261.5 274,-244.5 274,-244.5 274,-244.5 262.77,-230.65 251.78,-217.12"/>
<polygon fill="black" stroke="black" points="254.1,-215.41 245.08,-209.85 248.66,-219.82 254.1,-215.41"/>
</g>
<!-- NASALib/analysis&#45;&gt;lib/finite_sets -->
<g id="edge14" class="edge">
<title>NASALib/analysis&#45;&gt;lib/finite_sets</title>
<path fill="none" stroke="black" d="M275.96,-316.15C294.62,-300.69 319,-280.5 319,-280.5 319,-280.5 333,-263.5 333,-263.5"/>
<path fill="none" stroke="black" d="M333,-261.5C333,-261.5 333,-191.5 333,-191.5"/>
</g>
<!-- NASALib/aviation&#45;&gt;NASALib/analysis -->
<g id="edge15" class="edge">
<title>NASALib/aviation&#45;&gt;NASALib/analysis</title>
<path fill="none" stroke="black" d="M284,-549.5C284,-549.5 284,-479.5 284,-479.5"/>
</g>
<!-- NASALib/aviation&#45;&gt;NASALib/reals -->
<g id="edge16" class="edge">
<title>NASALib/aviation&#45;&gt;NASALib/reals</title>
<path fill="none" stroke="black" d="M284,-549.5C284,-549.5 166,-407.5 166,-407.5"/>
<path fill="none" stroke="black" d="M284,-604.2C284,-583.47 284,-551.5 284,-551.5"/>
</g>
<!-- NASALib/aviation&#45;&gt;NASALib/structures -->
<g id="edge17" class="edge">
<title>NASALib/aviation&#45;&gt;NASALib/structures</title>
<path fill="none" stroke="black" d="M284,-549.5C284,-549.5 304,-407.5 304,-407.5 304,-407.5 304,-407.5 304,-333.5 304,-333.5 289,-244.5 289,-244.5 289,-244.5 272.98,-229.86 257.78,-215.97"/>
<polygon fill="black" stroke="black" points="260.73,-214.02 250.99,-209.85 256.01,-219.18 260.73,-214.02"/>
</g>
<!-- NASALib/aviation&#45;&gt;NASALib/trig -->
<g id="edge18" class="edge">
<title>NASALib/aviation&#45;&gt;NASALib/trig</title>
<path fill="none" stroke="black" d="M271.89,-604.2C257.38,-583.47 235,-551.5 235,-551.5"/>
</g>
<!-- NASALib/aviation&#45;&gt;NASALib/vectors -->
<g id="edge19" class="edge">
<title>NASALib/aviation&#45;&gt;NASALib/vectors</title>
<path fill="none" stroke="black" d="M253.82,-604.73C236.21,-594.95 213.86,-582.53 195.17,-572.15"/>
<polygon fill="black" stroke="black" points="197.22,-568.73 186.78,-566.93 193.82,-574.85 197.22,-568.73"/>
</g>
<!-- NASALib/aviation&#45;&gt;lib/finite_sets -->
<g id="edge20" class="edge">
<title>NASALib/aviation&#45;&gt;lib/finite_sets</title>
<path fill="none" stroke="black" d="M296.11,-604.2C310.62,-583.47 333,-551.5 333,-551.5"/>
<path fill="none" stroke="black" d="M333,-549.5C333,-549.5 333,-263.5 333,-263.5"/>
</g>
<!-- NASALib/ints&#45;&gt;lib/finite_sets -->
<g id="edge21" class="edge">
<title>NASALib/ints&#45;&gt;lib/finite_sets</title>
<path fill="none" stroke="black" d="M238,-100C242.37,-89.07 248.1,-74.75 253.07,-62.33"/>
<polygon fill="black" stroke="black" points="256.55,-64.06 257.01,-53.47 250.05,-61.46 256.55,-64.06"/>
</g>
<!-- NASALib/orders&#45;&gt;NASALib/structures -->
<g id="edge22" class="edge">
<title>NASALib/orders&#45;&gt;NASALib/structures</title>
<path fill="none" stroke="black" d="M236.27,-244.2C235.52,-236.74 234.63,-227.82 233.8,-219.47"/>
<polygon fill="black" stroke="black" points="237.19,-219.21 232.71,-209.6 230.22,-219.9 237.19,-219.21"/>
</g>
<!-- NASALib/orders&#45;&gt;lib/finite_sets -->
<g id="edge23" class="edge">
<title>NASALib/orders&#45;&gt;lib/finite_sets</title>
<path fill="none" stroke="black" d="M333,-189.5C333,-189.5 333,-119.5 333,-119.5"/>
<path fill="none" stroke="black" d="M264.52,-244.15C288.15,-228.69 319,-208.5 319,-208.5 319,-208.5 333,-191.5 333,-191.5"/>
</g>
<!-- NASALib/reals&#45;&gt;NASALib/ints -->
<g id="edge24" class="edge">
<title>NASALib/reals&#45;&gt;NASALib/ints</title>
<path fill="none" stroke="black" d="M126.59,-244.09C147.4,-219.26 185.74,-173.51 209.71,-144.9"/>
<polygon fill="black" stroke="black" points="212.92,-147.52 216.66,-137.61 207.55,-143.03 212.92,-147.52"/>
</g>
<!-- NASALib/reals&#45;&gt;NASALib/structures -->
<g id="edge25" class="edge">
<title>NASALib/reals&#45;&gt;NASALib/structures</title>
<path fill="none" stroke="black" d="M139.3,-245.44C154.93,-236.25 174.81,-224.55 192.06,-214.41"/>
<polygon fill="black" stroke="black" points="193.48,-217.04 200.32,-208.96 189.93,-211.01 193.48,-217.04"/>
</g>
<!-- NASALib/series -->
<g id="node7" class="node">
<title>NASALib/series</title>
<polygon fill="#fcfcd7" stroke="black" points="259,-424.5 205,-424.5 205,-388.5 259,-388.5 259,-424.5"/>
<text text-anchor="middle" x="232" y="-401.45" font-family="Times,serif" font-size="14.00">series</text>
</g>
<!-- NASALib/series&#45;&gt;NASALib/analysis -->
<g id="edge26" class="edge">
<title>NASALib/series&#45;&gt;NASALib/analysis</title>
<path fill="none" stroke="black" d="M237.69,-388.2C240.19,-380.57 243.2,-371.42 246,-362.9"/>
<polygon fill="black" stroke="black" points="249.58,-364.2 249.38,-353.6 242.93,-362.01 249.58,-364.2"/>
</g>
<!-- NASALib/series&#45;&gt;NASALib/ints -->
<g id="edge27" class="edge">
<title>NASALib/series&#45;&gt;NASALib/ints</title>
<path fill="none" stroke="black" d="M206,-333.5C206,-333.5 192,-263.5 192,-263.5"/>
<path fill="none" stroke="black" d="M225.57,-388.2C217.87,-367.47 206,-335.5 206,-335.5"/>
</g>
<!-- NASALib/series&#45;&gt;NASALib/orders -->
<g id="edge28" class="edge">
<title>NASALib/series&#45;&gt;NASALib/orders</title>
<path fill="none" stroke="black" d="M206,-333.5C206,-333.5 216.6,-310.32 225.6,-290.64"/>
<polygon fill="black" stroke="black" points="229.12,-292.35 230.09,-281.8 222.75,-289.44 229.12,-292.35"/>
</g>
<!-- NASALib/series&#45;&gt;NASALib/reals -->
<g id="edge29" class="edge">
<title>NASALib/series&#45;&gt;NASALib/reals</title>
<path fill="none" stroke="black" d="M215.69,-388.2C196.14,-367.47 166,-335.5 166,-335.5"/>
</g>
<!-- NASALib/shapes&#45;&gt;NASALib/reals -->
<g id="edge30" class="edge">
<title>NASALib/shapes&#45;&gt;NASALib/reals</title>
<path fill="none" stroke="black" d="M71,-477.5C71,-477.5 71,-407.5 71,-407.5"/>
</g>
<!-- NASALib/shapes&#45;&gt;NASALib/structures -->
<g id="edge31" class="edge">
<title>NASALib/shapes&#45;&gt;NASALib/structures</title>
<path fill="none" stroke="black" d="M71,-477.5C71,-477.5 51,-407.5 51,-407.5"/>
<path fill="none" stroke="black" d="M63.98,-604.09C66.12,-566.17 71,-479.5 71,-479.5"/>
</g>
<!-- NASALib/shapes&#45;&gt;NASALib/trig -->
<g id="edge32" class="edge">
<title>NASALib/shapes&#45;&gt;NASALib/trig</title>
<path fill="none" stroke="black" d="M74.38,-604.34C91.52,-578.48 122,-532.5 122,-532.5 122,-532.5 131.05,-519.17 140.08,-505.88"/>
<polygon fill="black" stroke="black" points="143.49,-508.09 146.21,-497.85 137.7,-504.16 143.49,-508.09"/>
</g>
<!-- NASALib/shapes&#45;&gt;NASALib/vectors -->
<g id="edge33" class="edge">
<title>NASALib/shapes&#45;&gt;NASALib/vectors</title>
<path fill="none" stroke="black" d="M86.48,-604.2C98.36,-595.45 112.95,-584.69 125.85,-575.19"/>
<polygon fill="black" stroke="black" points="127.48,-577.6 133.46,-568.85 123.33,-571.96 127.48,-577.6"/>
</g>
<!-- NASALib/structures&#45;&gt;NASALib/ints -->
<g id="edge34" class="edge">
<title>NASALib/structures&#45;&gt;NASALib/ints</title>
<path fill="none" stroke="black" d="M231,-172.2C231,-164.74 231,-155.82 231,-147.47"/>
<polygon fill="black" stroke="black" points="234.5,-147.6 231,-137.6 227.5,-147.6 234.5,-147.6"/>
</g>
<!-- NASALib/structures&#45;&gt;lib/finite_sets -->
<g id="edge35" class="edge">
<title>NASALib/structures&#45;&gt;lib/finite_sets</title>
<path fill="none" stroke="black" d="M256.48,-172.02C286.69,-151.28 333,-119.5 333,-119.5"/>
<path fill="none" stroke="black" d="M333,-117.5C333,-117.5 305.7,-84.86 285.45,-60.64"/>
<polygon fill="black" stroke="black" points="287.73,-58.92 278.63,-53.5 282.36,-63.41 287.73,-58.92"/>
</g>
<!-- NASALib/trig&#45;&gt;NASALib/analysis -->
<g id="edge36" class="edge">
<title>NASALib/trig&#45;&gt;NASALib/analysis</title>
<path fill="none" stroke="black" d="M284,-405.5C284,-405.5 274.48,-382.53 266.35,-362.91"/>
<polygon fill="black" stroke="black" points="269.23,-361.7 262.17,-353.8 262.76,-364.38 269.23,-361.7"/>
<path fill="none" stroke="black" d="M185.47,-464.26C218.06,-448.56 268,-424.5 268,-424.5 268,-424.5 284,-407.5 284,-407.5"/>
</g>
<!-- NASALib/trig&#45;&gt;NASALib/ints -->
<g id="edge37" class="edge">
<title>NASALib/trig&#45;&gt;NASALib/ints</title>
<path fill="none" stroke="black" d="M192,-261.5C192,-261.5 202,-244.5 202,-244.5 202,-244.5 274,-208.5 274,-208.5 274,-208.5 284,-191.5 284,-191.5"/>
<path fill="none" stroke="black" d="M162.26,-460.15C166.05,-444.69 171,-424.5 171,-424.5 171,-424.5 192,-263.5 192,-263.5"/>
<path fill="none" stroke="black" d="M284,-189.5C284,-189.5 274,-172.5 274,-172.5 274,-172.5 262.77,-158.65 251.78,-145.12"/>
<polygon fill="black" stroke="black" points="254.1,-143.41 245.08,-137.85 248.66,-147.82 254.1,-143.41"/>
</g>
<!-- NASALib/trig&#45;&gt;NASALib/reals -->
<g id="edge38" class="edge">
<title>NASALib/trig&#45;&gt;NASALib/reals</title>
<path fill="none" stroke="black" d="M159.98,-460.2C162.35,-439.47 166,-407.5 166,-407.5"/>
<path fill="none" stroke="black" d="M166,-333.5C166,-333.5 147.29,-309.24 131.89,-289.29"/>
<polygon fill="black" stroke="black" points="134.23,-287.58 125.35,-281.8 128.69,-291.86 134.23,-287.58"/>
<path fill="none" stroke="black" d="M166,-405.5C166,-405.5 166,-335.5 166,-335.5"/>
</g>
<!-- NASALib/trig&#45;&gt;NASALib/series -->
<g id="edge39" class="edge">
<title>NASALib/trig&#45;&gt;NASALib/series</title>
<path fill="none" stroke="black" d="M176.29,-460.2C185.19,-451.78 196.04,-441.52 205.79,-432.29"/>
<polygon fill="black" stroke="black" points="207.8,-435.26 212.66,-425.85 202.99,-430.18 207.8,-435.26"/>
</g>
<!-- NASALib/vect_analysis&#45;&gt;NASALib/analysis -->
<g id="edge40" class="edge">
<title>NASALib/vect_analysis&#45;&gt;NASALib/analysis</title>
<path fill="none" stroke="black" d="M194.27,-604.15C214.1,-588.69 240,-568.5 240,-568.5 240,-568.5 284,-479.5 284,-479.5"/>
<path fill="none" stroke="black" d="M284,-477.5C284,-477.5 284,-407.5 284,-407.5"/>
</g>
<!-- NASALib/vect_analysis&#45;&gt;NASALib/reals -->
<g id="edge41" class="edge">
<title>NASALib/vect_analysis&#45;&gt;NASALib/reals</title>
<path fill="none" stroke="black" d="M155.63,-604.15C141.05,-588.69 122,-568.5 122,-568.5 122,-568.5 71,-407.5 71,-407.5"/>
</g>
<!-- NASALib/vect_analysis&#45;&gt;NASALib/vectors -->
<g id="edge42" class="edge">
<title>NASALib/vect_analysis&#45;&gt;NASALib/vectors</title>
<path fill="none" stroke="black" d="M168.54,-604.2C167.03,-596.65 165.22,-587.62 163.54,-579.18"/>
<polygon fill="black" stroke="black" points="166.81,-578.72 161.42,-569.6 159.95,-580.1 166.81,-578.72"/>
</g>
<!-- NASALib/vectors&#45;&gt;NASALib/reals -->
<g id="edge43" class="edge">
<title>NASALib/vectors&#45;&gt;NASALib/reals</title>
<path fill="none" stroke="black" d="M112,-333.5C112,-333.5 112,-311.16 112,-291.72"/>
<polygon fill="black" stroke="black" points="115.5,-291.8 112,-281.8 108.5,-291.8 115.5,-291.8"/>
</g>
<!-- NASALib/vectors&#45;&gt;NASALib/structures -->
<g id="edge44" class="edge">
<title>NASALib/vectors&#45;&gt;NASALib/structures</title>
<path fill="none" stroke="black" d="M112,-333.5C112,-333.5 76,-280.5 76,-280.5 76,-280.5 66,-263.5 66,-263.5"/>
<path fill="none" stroke="black" d="M146.21,-532.15C135.71,-516.69 122,-496.5 122,-496.5 122,-496.5 112,-335.5 112,-335.5"/>
</g>
<!-- NASALib/vectors&#45;&gt;NASALib/trig -->
<g id="edge45" class="edge">
<title>NASALib/vectors&#45;&gt;NASALib/trig</title>
<path fill="none" stroke="black" d="M158,-532.2C158,-524.74 158,-515.82 158,-507.47"/>
<polygon fill="black" stroke="black" points="161.5,-507.6 158,-497.6 154.5,-507.6 161.5,-507.6"/>
</g>
</g>
</svg>
