<?xml version="1.0" encoding="UTF-8" standalone="no"?>
<!DOCTYPE svg PUBLIC "-//W3C//DTD SVG 1.1//EN"
 "http://www.w3.org/Graphics/SVG/1.1/DTD/svg11.dtd">
<!-- Generated by graphviz version 7.0.6 (20230106.0513)
 -->
<!-- Title: ACCoRD Pages: 1 -->
<svg width="958pt" height="966pt"
 viewBox="0.00 0.00 958.00 966.00" xmlns="http://www.w3.org/2000/svg" xmlns:xlink="http://www.w3.org/1999/xlink">
<g id="graph0" class="graph" transform="scale(1 1) rotate(0) translate(4 962)">
<title>ACCoRD</title>
<polygon fill="white" stroke="none" points="-4,4 -4,-962 954,-962 954,4 -4,4"/>
<g id="clust1" class="cluster">
<title>cluster_NASALib</title>
<polygon fill="none" stroke="black" points="8,-8 8,-950 846,-950 846,-8 8,-8"/>
<text text-anchor="middle" x="427" y="-934.8" font-family="Times,serif" font-size="14.00">NASALib</text>
</g>
<g id="clust2" class="cluster">
<title>cluster_PVS Prelude</title>
<polygon fill="none" stroke="black" points="854,-8 854,-83 942,-83 942,-8 854,-8"/>
<text text-anchor="middle" x="898" y="-67.8" font-family="Times,serif" font-size="14.00">PVS Prelude</text>
</g>
<!-- NASALib/ACCoRD -->
<g id="node1" class="node">
<title>NASALib/ACCoRD</title>
<polygon fill="#f7e28d" stroke="black" points="320,-919 250,-919 250,-883 320,-883 320,-919"/>
<text text-anchor="middle" x="285" y="-897.3" font-family="Times,serif" font-size="14.00">ACCoRD</text>
</g>
<!-- NASALib/analysis -->
<g id="node2" class="node">
<title>NASALib/analysis</title>
<polygon fill="#fcfcd7" stroke="black" points="362,-775 302,-775 302,-739 362,-739 362,-775"/>
<text text-anchor="middle" x="332" y="-753.3" font-family="Times,serif" font-size="14.00">analysis</text>
</g>
<!-- NASALib/ACCoRD&#45;&gt;NASALib/analysis -->
<g id="edge1" class="edge">
<title>NASALib/ACCoRD&#45;&gt;NASALib/analysis</title>
<path fill="none" stroke="black" d="M381,-828C381,-828 371,-811 371,-811 371,-811 361.19,-797.67 351.41,-784.38"/>
<polygon fill="black" stroke="black" points="354.41,-782.55 345.67,-776.57 348.77,-786.7 354.41,-782.55"/>
</g>
<!-- NASALib/aviation -->
<g id="node3" class="node">
<title>NASALib/aviation</title>
<polygon fill="#fcfcd7" stroke="black" points="362,-847 302,-847 302,-811 362,-811 362,-847"/>
<text text-anchor="middle" x="332" y="-825.3" font-family="Times,serif" font-size="14.00">aviation</text>
</g>
<!-- NASALib/ACCoRD&#45;&gt;NASALib/aviation -->
<g id="edge2" class="edge">
<title>NASALib/ACCoRD&#45;&gt;NASALib/aviation</title>
<path fill="none" stroke="black" d="M296.62,-882.7C301.91,-874.81 308.3,-865.3 314.18,-856.55"/>
<polygon fill="black" stroke="black" points="317,-858.61 319.67,-848.36 311.19,-854.71 317,-858.61"/>
</g>
<!-- NASALib/reals -->
<g id="node12" class="node">
<title>NASALib/reals</title>
<polygon fill="#fcfcd7" stroke="black" points="310,-703 256,-703 256,-667 310,-667 310,-703"/>
<text text-anchor="middle" x="283" y="-681.3" font-family="Times,serif" font-size="14.00">reals</text>
</g>
<!-- NASALib/ACCoRD&#45;&gt;NASALib/reals -->
<g id="edge3" class="edge">
<title>NASALib/ACCoRD&#45;&gt;NASALib/reals</title>
<path fill="none" stroke="black" d="M313.16,-882.65C338.24,-867.19 371,-847 371,-847 371,-847 381,-830 381,-830"/>
<path fill="none" stroke="black" d="M381,-828C381,-828 371,-811 371,-811 371,-811 293,-775 293,-775 293,-775 289.12,-740.42 286.19,-714.37"/>
<polygon fill="black" stroke="black" points="289.69,-714.21 285.1,-704.66 282.74,-714.99 289.69,-714.21"/>
</g>
<!-- NASALib/shapes -->
<g id="node15" class="node">
<title>NASALib/shapes</title>
<polygon fill="#fcfcd7" stroke="black" points="90,-775 36,-775 36,-739 90,-739 90,-775"/>
<text text-anchor="middle" x="63" y="-753.3" font-family="Times,serif" font-size="14.00">shapes</text>
</g>
<!-- NASALib/ACCoRD&#45;&gt;NASALib/shapes -->
<g id="edge4" class="edge">
<title>NASALib/ACCoRD&#45;&gt;NASALib/shapes</title>
<path fill="none" stroke="black" d="M96,-828C96,-828 85.27,-805.24 76.05,-785.68"/>
<polygon fill="black" stroke="black" points="79.23,-784.23 71.8,-776.67 72.9,-787.21 79.23,-784.23"/>
</g>
<!-- NASALib/structures -->
<g id="node17" class="node">
<title>NASALib/structures</title>
<polygon fill="#fcfcd7" stroke="black" points="623.5,-127 554.5,-127 554.5,-91 623.5,-91 623.5,-127"/>
<text text-anchor="middle" x="589" y="-105.3" font-family="Times,serif" font-size="14.00">structures</text>
</g>
<!-- NASALib/ACCoRD&#45;&gt;NASALib/structures -->
<g id="edge5" class="edge">
<title>NASALib/ACCoRD&#45;&gt;NASALib/structures</title>
<path fill="none" stroke="black" d="M381,-828C381,-828 381,-758 381,-758"/>
</g>
<!-- NASALib/trig -->
<g id="node19" class="node">
<title>NASALib/trig</title>
<polygon fill="#fcfcd7" stroke="black" points="178,-343 124,-343 124,-307 178,-307 178,-343"/>
<text text-anchor="middle" x="151" y="-321.3" font-family="Times,serif" font-size="14.00">trig</text>
</g>
<!-- NASALib/ACCoRD&#45;&gt;NASALib/trig -->
<g id="edge6" class="edge">
<title>NASALib/ACCoRD&#45;&gt;NASALib/trig</title>
<path fill="none" stroke="black" d="M249.89,-887C195.24,-866.75 96,-830 96,-830"/>
<path fill="none" stroke="black" d="M83,-468C83,-468 119,-379 119,-379 119,-379 126.74,-366.18 134.61,-353.15"/>
<polygon fill="black" stroke="black" points="137.57,-355.02 139.74,-344.65 131.57,-351.4 137.57,-355.02"/>
<path fill="none" stroke="black" d="M96,-828C96,-828 27,-775 27,-775 27,-775 27,-739 27,-739 27,-739 58,-523 58,-523 58,-523 83,-470 83,-470"/>
</g>
<!-- NASALib/vect_analysis -->
<g id="node20" class="node">
<title>NASALib/vect_analysis</title>
<polygon fill="#fcfcd7" stroke="black" points="283.5,-847 194.5,-847 194.5,-811 283.5,-811 283.5,-847"/>
<text text-anchor="middle" x="239" y="-825.3" font-family="Times,serif" font-size="14.00">vect_analysis</text>
</g>
<!-- NASALib/ACCoRD&#45;&gt;NASALib/vect_analysis -->
<g id="edge7" class="edge">
<title>NASALib/ACCoRD&#45;&gt;NASALib/vect_analysis</title>
<path fill="none" stroke="black" d="M273.63,-882.7C268.45,-874.81 262.2,-865.3 256.44,-856.55"/>
<polygon fill="black" stroke="black" points="259.49,-854.8 251.07,-848.37 253.64,-858.65 259.49,-854.8"/>
</g>
<!-- NASALib/vectors -->
<g id="node21" class="node">
<title>NASALib/vectors</title>
<polygon fill="#fcfcd7" stroke="black" points="184,-415 128,-415 128,-379 184,-379 184,-415"/>
<text text-anchor="middle" x="156" y="-393.3" font-family="Times,serif" font-size="14.00">vectors</text>
</g>
<!-- NASALib/ACCoRD&#45;&gt;NASALib/vectors -->
<g id="edge8" class="edge">
<title>NASALib/ACCoRD&#45;&gt;NASALib/vectors</title>
<path fill="none" stroke="black" d="M143,-612C143,-612 143,-470 143,-470"/>
<path fill="none" stroke="black" d="M96,-828C96,-828 143,-614 143,-614"/>
</g>
<!-- lib/finite_sets -->
<g id="node22" class="node">
<title>lib/finite_sets</title>
<polygon fill="#fcfcd7" stroke="black" points="934,-52 862,-52 862,-16 934,-16 934,-52"/>
<text text-anchor="middle" x="898" y="-30.3" font-family="Times,serif" font-size="14.00">finite_sets</text>
</g>
<!-- NASALib/ACCoRD&#45;&gt;lib/finite_sets -->
<g id="edge9" class="edge">
<title>NASALib/ACCoRD&#45;&gt;lib/finite_sets</title>
<path fill="none" stroke="black" d="M381,-828C381,-828 410,-758 410,-758"/>
</g>
<!-- NASALib/ints -->
<g id="node5" class="node">
<title>NASALib/ints</title>
<polygon fill="#fcfcd7" stroke="black" points="616,-52 562,-52 562,-16 616,-16 616,-52"/>
<text text-anchor="middle" x="589" y="-30.3" font-family="Times,serif" font-size="14.00">ints</text>
</g>
<!-- NASALib/analysis&#45;&gt;NASALib/ints -->
<g id="edge10" class="edge">
<title>NASALib/analysis&#45;&gt;NASALib/ints</title>
<path fill="none" stroke="black" d="M151,-252C151,-252 170,-235 170,-235 170,-235 263,-182 263,-182"/>
<path fill="none" stroke="black" d="M263,-180C263,-180 465.71,-89.84 551.43,-51.71"/>
<polygon fill="black" stroke="black" points="552.67,-54.99 560.38,-47.73 549.82,-48.59 552.67,-54.99"/>
<path fill="none" stroke="black" d="M301.58,-746.4C253.16,-731.13 164,-703 164,-703 164,-703 78,-487 78,-487 78,-487 78,-451 78,-451 78,-451 115,-307 115,-307 115,-307 151,-254 151,-254"/>
</g>
<!-- NASALib/orders -->
<g id="node10" class="node">
<title>NASALib/orders</title>
<polygon fill="#fcfcd7" stroke="black" points="716,-199 662,-199 662,-163 716,-163 716,-199"/>
<text text-anchor="middle" x="689" y="-177.3" font-family="Times,serif" font-size="14.00">orders</text>
</g>
<!-- NASALib/analysis&#45;&gt;NASALib/orders -->
<g id="edge11" class="edge">
<title>NASALib/analysis&#45;&gt;NASALib/orders</title>
<path fill="none" stroke="black" d="M817,-252C817,-252 763.97,-223 726.18,-202.33"/>
<polygon fill="black" stroke="black" points="728.24,-199.47 717.79,-197.74 724.88,-205.61 728.24,-199.47"/>
<path fill="none" stroke="black" d="M362.08,-744.38C369.81,-741.39 376,-739 376,-739 376,-739 722,-703 722,-703 722,-703 817,-614 817,-614 817,-614 817,-614 817,-396 817,-396 817,-254 817,-254"/>
</g>
<!-- NASALib/analysis&#45;&gt;NASALib/reals -->
<g id="edge12" class="edge">
<title>NASALib/analysis&#45;&gt;NASALib/reals</title>
<path fill="none" stroke="black" d="M319.89,-738.7C314.31,-730.73 307.57,-721.1 301.38,-712.26"/>
<polygon fill="black" stroke="black" points="304.44,-710.53 295.84,-704.34 298.71,-714.54 304.44,-710.53"/>
</g>
<!-- NASALib/analysis&#45;&gt;NASALib/structures -->
<g id="edge13" class="edge">
<title>NASALib/analysis&#45;&gt;NASALib/structures</title>
<path fill="none" stroke="black" d="M817,-180C817,-180 700.72,-144.3 634.24,-123.89"/>
<polygon fill="black" stroke="black" points="635.66,-120.66 625.08,-121.08 633.61,-127.36 635.66,-120.66"/>
<path fill="none" stroke="black" d="M817,-252C817,-252 817,-182 817,-182"/>
</g>
<!-- NASALib/analysis&#45;&gt;lib/finite_sets -->
<g id="edge14" class="edge">
<title>NASALib/analysis&#45;&gt;lib/finite_sets</title>
<path fill="none" stroke="black" d="M362.13,-748C378.73,-743.59 396,-739 396,-739 396,-739 745,-703 745,-703 745,-703 866,-686 866,-686"/>
<path fill="none" stroke="black" d="M866,-684C866,-684 866,-470 866,-470"/>
</g>
<!-- NASALib/aviation&#45;&gt;NASALib/analysis -->
<g id="edge15" class="edge">
<title>NASALib/aviation&#45;&gt;NASALib/analysis</title>
<path fill="none" stroke="black" d="M332,-810.7C332,-803.41 332,-794.73 332,-786.54"/>
<polygon fill="black" stroke="black" points="335.5,-786.62 332,-776.62 328.5,-786.62 335.5,-786.62"/>
</g>
<!-- NASALib/aviation&#45;&gt;NASALib/reals -->
<g id="edge16" class="edge">
<title>NASALib/aviation&#45;&gt;NASALib/reals</title>
<path fill="none" stroke="black" d="M169,-756C169,-756 212.88,-729.06 246.19,-708.6"/>
<polygon fill="black" stroke="black" points="247.71,-711.77 254.4,-703.56 244.05,-705.81 247.71,-711.77"/>
</g>
<!-- NASALib/aviation&#45;&gt;NASALib/structures -->
<g id="edge17" class="edge">
<title>NASALib/aviation&#45;&gt;NASALib/structures</title>
<path fill="none" stroke="black" d="M381,-756C381,-756 396,-739 396,-739 396,-739 745,-703 745,-703 745,-703 837,-614 837,-614 837,-614 837,-614 837,-324 837,-324 817,-182 817,-182"/>
<path fill="none" stroke="black" d="M344.77,-810.65C356.14,-795.19 371,-775 371,-775 371,-775 381,-758 381,-758"/>
</g>
<!-- NASALib/aviation&#45;&gt;NASALib/trig -->
<g id="edge18" class="edge">
<title>NASALib/aviation&#45;&gt;NASALib/trig</title>
<path fill="none" stroke="black" d="M301.66,-814.77C296.62,-812.58 293,-811 293,-811 293,-811 164,-775 164,-775 164,-775 144,-703 144,-703 144,-703 83,-470 83,-470"/>
</g>
<!-- NASALib/aviation&#45;&gt;NASALib/vectors -->
<g id="edge19" class="edge">
<title>NASALib/aviation&#45;&gt;NASALib/vectors</title>
<path fill="none" stroke="black" d="M169,-756C169,-756 169,-686 169,-686"/>
<path fill="none" stroke="black" d="M301.66,-814.77C296.62,-812.58 293,-811 293,-811 293,-811 169,-758 169,-758"/>
</g>
<!-- NASALib/aviation&#45;&gt;lib/finite_sets -->
<g id="edge20" class="edge">
<title>NASALib/aviation&#45;&gt;lib/finite_sets</title>
<path fill="none" stroke="black" d="M352.96,-810.65C371.62,-795.19 396,-775 396,-775 396,-775 410,-758 410,-758"/>
<path fill="none" stroke="black" d="M410,-756C410,-756 767,-703 767,-703 767,-703 866,-686 866,-686"/>
</g>
<!-- NASALib/extended_nnreal -->
<g id="node4" class="node">
<title>NASALib/extended_nnreal</title>
<polygon fill="#fcfcd7" stroke="black" points="718,-487 612,-487 612,-451 718,-451 718,-487"/>
<text text-anchor="middle" x="665" y="-465.3" font-family="Times,serif" font-size="14.00">extended_nnreal</text>
</g>
<!-- NASALib/extended_nnreal&#45;&gt;NASALib/analysis -->
<g id="edge21" class="edge">
<title>NASALib/extended_nnreal&#45;&gt;NASALib/analysis</title>
<path fill="none" stroke="black" d="M669.17,-487.15C679.48,-529.6 705.98,-638.64 714.39,-673.27"/>
<polygon fill="black" stroke="black" points="710.88,-673.64 716.64,-682.53 717.68,-671.99 710.88,-673.64"/>
</g>
<!-- NASALib/extended_nnreal&#45;&gt;NASALib/reals -->
<g id="edge22" class="edge">
<title>NASALib/extended_nnreal&#45;&gt;NASALib/reals</title>
<path fill="none" stroke="black" d="M665.28,-487.38C665.83,-521.73 667,-595 667,-595 667,-595 667,-631 667,-631 667,-631 419.14,-665.21 321.69,-678.66"/>
<polygon fill="black" stroke="black" points="321.24,-675.19 311.81,-680.02 322.19,-682.12 321.24,-675.19"/>
</g>
<!-- NASALib/series -->
<g id="node13" class="node">
<title>NASALib/series</title>
<polygon fill="#fcfcd7" stroke="black" points="382,-271 328,-271 328,-235 382,-235 382,-271"/>
<text text-anchor="middle" x="355" y="-249.3" font-family="Times,serif" font-size="14.00">series</text>
</g>
<!-- NASALib/extended_nnreal&#45;&gt;NASALib/series -->
<g id="edge23" class="edge">
<title>NASALib/extended_nnreal&#45;&gt;NASALib/series</title>
<path fill="none" stroke="black" d="M653.6,-450.59C628.76,-412.67 572,-326 572,-326"/>
<path fill="none" stroke="black" d="M572,-324C572,-324 455.31,-286.36 393.07,-266.28"/>
<polygon fill="black" stroke="black" points="394.52,-263.07 383.92,-263.33 392.37,-269.73 394.52,-263.07"/>
</g>
<!-- NASALib/sigma_set -->
<g id="node16" class="node">
<title>NASALib/sigma_set</title>
<polygon fill="#fcfcd7" stroke="black" points="729.5,-415 658.5,-415 658.5,-379 729.5,-379 729.5,-415"/>
<text text-anchor="middle" x="694" y="-393.3" font-family="Times,serif" font-size="14.00">sigma_set</text>
</g>
<!-- NASALib/extended_nnreal&#45;&gt;NASALib/sigma_set -->
<g id="edge24" class="edge">
<title>NASALib/extended_nnreal&#45;&gt;NASALib/sigma_set</title>
<path fill="none" stroke="black" d="M672.17,-450.7C675.29,-443.15 679.04,-434.12 682.53,-425.68"/>
<polygon fill="black" stroke="black" points="685.74,-427.08 686.33,-416.5 679.27,-424.4 685.74,-427.08"/>
</g>
<!-- NASALib/lebesgue -->
<g id="node6" class="node">
<title>NASALib/lebesgue</title>
<polygon fill="#fcfcd7" stroke="black" points="658,-631 594,-631 594,-595 658,-595 658,-631"/>
<text text-anchor="middle" x="626" y="-609.3" font-family="Times,serif" font-size="14.00">lebesgue</text>
</g>
<!-- NASALib/lebesgue&#45;&gt;NASALib/analysis -->
<g id="edge25" class="edge">
<title>NASALib/lebesgue&#45;&gt;NASALib/analysis</title>
<path fill="none" stroke="black" d="M648.49,-631.3C667.65,-646.04 694.2,-666.46 707.94,-677.03"/>
<polygon fill="black" stroke="black" points="705.74,-679.75 715.8,-683.08 710.01,-674.21 705.74,-679.75"/>
</g>
<!-- NASALib/lebesgue&#45;&gt;NASALib/extended_nnreal -->
<g id="edge26" class="edge">
<title>NASALib/lebesgue&#45;&gt;NASALib/extended_nnreal</title>
<path fill="none" stroke="black" d="M657,-540C657,-540 659.53,-517.87 661.74,-498.5"/>
<polygon fill="black" stroke="black" points="665.19,-499.14 662.85,-488.81 658.24,-498.35 665.19,-499.14"/>
</g>
<!-- NASALib/measure_integration -->
<g id="node8" class="node">
<title>NASALib/measure_integration</title>
<polygon fill="#fcfcd7" stroke="black" points="638,-559 510,-559 510,-523 638,-523 638,-559"/>
<text text-anchor="middle" x="574" y="-537.3" font-family="Times,serif" font-size="14.00">measure_integration</text>
</g>
<!-- NASALib/lebesgue&#45;&gt;NASALib/measure_integration -->
<g id="edge27" class="edge">
<title>NASALib/lebesgue&#45;&gt;NASALib/measure_integration</title>
<path fill="none" stroke="black" d="M613.15,-594.7C607.23,-586.73 600.07,-577.1 593.51,-568.26"/>
<polygon fill="black" stroke="black" points="596.38,-566.26 587.61,-560.32 590.76,-570.43 596.38,-566.26"/>
</g>
<!-- NASALib/metric_space -->
<g id="node9" class="node">
<title>NASALib/metric_space</title>
<polygon fill="#fcfcd7" stroke="black" points="451.5,-487 362.5,-487 362.5,-451 451.5,-451 451.5,-487"/>
<text text-anchor="middle" x="407" y="-465.3" font-family="Times,serif" font-size="14.00">metric_space</text>
</g>
<!-- NASALib/lebesgue&#45;&gt;NASALib/metric_space -->
<g id="edge28" class="edge">
<title>NASALib/lebesgue&#45;&gt;NASALib/metric_space</title>
<path fill="none" stroke="black" d="M593.81,-598.35C556.77,-582.65 501,-559 501,-559 501,-559 476,-523 476,-523 476,-523 456.59,-508.09 438.36,-494.09"/>
<polygon fill="black" stroke="black" points="440.86,-491.59 430.79,-488.28 436.59,-497.14 440.86,-491.59"/>
</g>
<!-- NASALib/power -->
<g id="node11" class="node">
<title>NASALib/power</title>
<polygon fill="#fcfcd7" stroke="black" points="376,-415 322,-415 322,-379 376,-379 376,-415"/>
<text text-anchor="middle" x="349" y="-393.3" font-family="Times,serif" font-size="14.00">power</text>
</g>
<!-- NASALib/lebesgue&#45;&gt;NASALib/power -->
<g id="edge29" class="edge">
<title>NASALib/lebesgue&#45;&gt;NASALib/power</title>
<path fill="none" stroke="black" d="M593.72,-600.89C548.56,-585.35 472,-559 472,-559 472,-559 354,-487 354,-487 354,-487 352.06,-452.42 350.59,-426.37"/>
<polygon fill="black" stroke="black" points="354.1,-426.46 350.05,-416.67 347.12,-426.85 354.1,-426.46"/>
</g>
<!-- NASALib/sets_aux -->
<g id="node14" class="node">
<title>NASALib/sets_aux</title>
<polygon fill="#fcfcd7" stroke="black" points="674.5,-343 611.5,-343 611.5,-307 674.5,-307 674.5,-343"/>
<text text-anchor="middle" x="643" y="-321.3" font-family="Times,serif" font-size="14.00">sets_aux</text>
</g>
<!-- NASALib/lebesgue&#45;&gt;NASALib/sets_aux -->
<g id="edge31" class="edge">
<title>NASALib/lebesgue&#45;&gt;NASALib/sets_aux</title>
<path fill="none" stroke="black" d="M777,-468C777,-468 739,-379 739,-379 739,-379 710.25,-363.13 684.21,-348.75"/>
<polygon fill="black" stroke="black" points="686.21,-345.85 675.76,-344.09 682.82,-351.98 686.21,-345.85"/>
<path fill="none" stroke="black" d="M646.3,-594.65C664.38,-579.19 688,-559 688,-559 688,-559 777,-470 777,-470"/>
</g>
<!-- NASALib/lebesgue&#45;&gt;NASALib/sigma_set -->
<g id="edge32" class="edge">
<title>NASALib/lebesgue&#45;&gt;NASALib/sigma_set</title>
<path fill="none" stroke="black" d="M640.04,-594.62C667.8,-560.27 727,-487 727,-487 727,-487 727,-451 727,-451 727,-451 718.86,-437.93 710.67,-424.77"/>
<polygon fill="black" stroke="black" points="713.86,-423.28 705.61,-416.64 707.92,-426.98 713.86,-423.28"/>
</g>
<!-- NASALib/lebesgue&#45;&gt;NASALib/structures -->
<g id="edge33" class="edge">
<title>NASALib/lebesgue&#45;&gt;NASALib/structures</title>
<path fill="none" stroke="black" d="M573,-468C573,-468 592,-326 592,-326"/>
</g>
<!-- NASALib/topology -->
<g id="node18" class="node">
<title>NASALib/topology</title>
<polygon fill="#fcfcd7" stroke="black" points="559.5,-415 494.5,-415 494.5,-379 559.5,-379 559.5,-415"/>
<text text-anchor="middle" x="527" y="-393.3" font-family="Times,serif" font-size="14.00">topology</text>
</g>
<!-- NASALib/lebesgue&#45;&gt;NASALib/topology -->
<g id="edge34" class="edge">
<title>NASALib/lebesgue&#45;&gt;NASALib/topology</title>
<path fill="none" stroke="black" d="M633.66,-594.7C642.84,-573.97 657,-542 657,-542"/>
<path fill="none" stroke="black" d="M657,-540C657,-540 647,-523 647,-523 647,-523 588,-487 588,-487 588,-487 573,-470 573,-470"/>
<path fill="none" stroke="black" d="M573,-468C573,-468 557.63,-444.61 544.65,-424.87"/>
<polygon fill="black" stroke="black" points="547.62,-423 539.2,-416.57 541.77,-426.85 547.62,-423"/>
</g>
<!-- NASALib/lnexp -->
<g id="node7" class="node">
<title>NASALib/lnexp</title>
<polygon fill="#fcfcd7" stroke="black" points="290,-343 236,-343 236,-307 290,-307 290,-343"/>
<text text-anchor="middle" x="263" y="-321.3" font-family="Times,serif" font-size="14.00">lnexp</text>
</g>
<!-- NASALib/lnexp&#45;&gt;NASALib/analysis -->
<g id="edge35" class="edge">
<title>NASALib/lnexp&#45;&gt;NASALib/analysis</title>
<path fill="none" stroke="black" d="M260.11,-343.27C249.57,-406.12 213.44,-621.7 204.85,-672.99"/>
<polygon fill="black" stroke="black" points="201.45,-672.07 203.25,-682.51 208.36,-673.22 201.45,-672.07"/>
</g>
<!-- NASALib/lnexp&#45;&gt;NASALib/ints -->
<g id="edge36" class="edge">
<title>NASALib/lnexp&#45;&gt;NASALib/ints</title>
<path fill="none" stroke="black" d="M263,-306.7C263,-285.97 263,-254 263,-254"/>
</g>
<!-- NASALib/lnexp&#45;&gt;NASALib/reals -->
<g id="edge37" class="edge">
<title>NASALib/lnexp&#45;&gt;NASALib/reals</title>
<path fill="none" stroke="black" d="M263,-343.41C263,-381.33 263,-468 263,-468 263,-542 263,-542 263,-542 263,-542 273.11,-613.8 278.96,-655.29"/>
<polygon fill="black" stroke="black" points="275.48,-655.68 280.34,-665.09 282.41,-654.7 275.48,-655.68"/>
</g>
<!-- NASALib/lnexp&#45;&gt;NASALib/series -->
<g id="edge38" class="edge">
<title>NASALib/lnexp&#45;&gt;NASALib/series</title>
<path fill="none" stroke="black" d="M285.74,-306.7C297.02,-298.11 310.83,-287.61 323.14,-278.24"/>
<polygon fill="black" stroke="black" points="325.16,-281.1 331,-272.26 320.92,-275.53 325.16,-281.1"/>
</g>
<!-- NASALib/measure_integration&#45;&gt;NASALib/extended_nnreal -->
<g id="edge39" class="edge">
<title>NASALib/measure_integration&#45;&gt;NASALib/extended_nnreal</title>
<path fill="none" stroke="black" d="M596.49,-522.7C607.65,-514.11 621.31,-503.61 633.49,-494.24"/>
<polygon fill="black" stroke="black" points="635.46,-497.14 641.25,-488.27 631.19,-491.59 635.46,-497.14"/>
</g>
<!-- NASALib/measure_integration&#45;&gt;NASALib/metric_space -->
<g id="edge40" class="edge">
<title>NASALib/measure_integration&#45;&gt;NASALib/metric_space</title>
<path fill="none" stroke="black" d="M532.29,-522.52C510.09,-513.21 482.58,-501.68 458.99,-491.79"/>
<polygon fill="black" stroke="black" points="460.44,-488.6 449.86,-487.97 457.73,-495.06 460.44,-488.6"/>
</g>
<!-- NASALib/measure_integration&#45;&gt;NASALib/orders -->
<g id="edge41" class="edge">
<title>NASALib/measure_integration&#45;&gt;NASALib/orders</title>
<path fill="none" stroke="black" d="M694,-324C694,-324 691.47,-252.2 690.01,-210.71"/>
<polygon fill="black" stroke="black" points="693.52,-210.8 689.67,-200.92 686.52,-211.04 693.52,-210.8"/>
<path fill="none" stroke="black" d="M593,-468C593,-468 603,-451 603,-451 603,-451 650,-379 650,-379 650,-379 684,-343 684,-343 684,-343 694,-326 694,-326"/>
<path fill="none" stroke="black" d="M578.7,-522.7C584.32,-501.97 593,-470 593,-470"/>
</g>
<!-- NASALib/measure_integration&#45;&gt;NASALib/power -->
<g id="edge42" class="edge">
<title>NASALib/measure_integration&#45;&gt;NASALib/power</title>
<path fill="none" stroke="black" d="M553.48,-522.7C528.9,-501.97 491,-470 491,-470"/>
<path fill="none" stroke="black" d="M491,-468C491,-468 461,-451 461,-451 461,-451 419.11,-431.18 386.57,-415.78"/>
<polygon fill="black" stroke="black" points="388.3,-412.73 377.77,-411.61 385.31,-419.05 388.3,-412.73"/>
</g>
<!-- NASALib/measure_integration&#45;&gt;NASALib/reals -->
<g id="edge43" class="edge">
<title>NASALib/measure_integration&#45;&gt;NASALib/reals</title>
<path fill="none" stroke="black" d="M550.97,-559.37C516.63,-585.27 456,-631 456,-631 456,-631 372.33,-656.63 321.36,-672.25"/>
<polygon fill="black" stroke="black" points="320.4,-668.88 311.86,-675.16 322.45,-675.58 320.4,-668.88"/>
</g>
<!-- NASALib/measure_integration&#45;&gt;NASALib/series -->
<g id="edge44" class="edge">
<title>NASALib/measure_integration&#45;&gt;NASALib/series</title>
<path fill="none" stroke="black" d="M491,-468C491,-468 420,-307 420,-307 420,-307 402.05,-292.36 385.01,-278.47"/>
<polygon fill="black" stroke="black" points="387.42,-275.92 377.46,-272.31 382.99,-281.34 387.42,-275.92"/>
</g>
<!-- NASALib/measure_integration&#45;&gt;NASALib/sets_aux -->
<g id="edge45" class="edge">
<title>NASALib/measure_integration&#45;&gt;NASALib/sets_aux</title>
<path fill="none" stroke="black" d="M542,-468C542,-468 594.83,-393.72 624.08,-352.6"/>
<polygon fill="black" stroke="black" points="626.79,-354.82 629.74,-344.65 621.09,-350.77 626.79,-354.82"/>
</g>
<!-- NASALib/measure_integration&#45;&gt;NASALib/sigma_set -->
<g id="edge46" class="edge">
<title>NASALib/measure_integration&#45;&gt;NASALib/sigma_set</title>
<path fill="none" stroke="black" d="M593,-468C593,-468 603,-451 603,-451 603,-451 629.78,-435.4 654.28,-421.13"/>
<polygon fill="black" stroke="black" points="656.02,-424.17 662.9,-416.12 652.49,-418.12 656.02,-424.17"/>
</g>
<!-- NASALib/measure_integration&#45;&gt;NASALib/structures -->
<g id="edge47" class="edge">
<title>NASALib/measure_integration&#45;&gt;NASALib/structures</title>
<path fill="none" stroke="black" d="M562,-252C562,-252 309,-182 309,-182"/>
<path fill="none" stroke="black" d="M566.09,-522.7C556.61,-501.97 542,-470 542,-470"/>
<path fill="none" stroke="black" d="M542,-468C542,-468 486,-415 486,-415 486,-415 486,-379 486,-379 486,-379 562,-254 562,-254"/>
</g>
<!-- NASALib/measure_integration&#45;&gt;NASALib/topology -->
<g id="edge48" class="edge">
<title>NASALib/measure_integration&#45;&gt;NASALib/topology</title>
<path fill="none" stroke="black" d="M542,-468C542,-468 537.26,-445.87 533.11,-426.5"/>
<polygon fill="black" stroke="black" points="536.54,-425.83 531.03,-416.78 529.7,-427.29 536.54,-425.83"/>
</g>
<!-- NASALib/measure_integration&#45;&gt;lib/finite_sets -->
<g id="edge49" class="edge">
<title>NASALib/measure_integration&#45;&gt;lib/finite_sets</title>
<path fill="none" stroke="black" d="M638.41,-525.96C646.5,-524.2 652,-523 652,-523 652,-523 850,-487 850,-487 850,-487 866,-470 866,-470"/>
<path fill="none" stroke="black" d="M866,-468C866,-468 866,-398 866,-398"/>
</g>
<!-- NASALib/metric_space&#45;&gt;NASALib/analysis -->
<g id="edge50" class="edge">
<title>NASALib/metric_space&#45;&gt;NASALib/analysis</title>
<path fill="none" stroke="black" d="M471,-542C471,-542 471,-612 471,-612"/>
<path fill="none" stroke="black" d="M422.82,-487.3C435.7,-501.39 453.33,-520.67 463.3,-531.58"/>
<polygon fill="black" stroke="black" points="460.65,-533.86 469.98,-538.88 465.81,-529.14 460.65,-533.86"/>
</g>
<!-- NASALib/metric_space&#45;&gt;NASALib/power -->
<g id="edge51" class="edge">
<title>NASALib/metric_space&#45;&gt;NASALib/power</title>
<path fill="none" stroke="black" d="M392.66,-450.7C385.92,-442.56 377.74,-432.69 370.3,-423.7"/>
<polygon fill="black" stroke="black" points="373.21,-421.74 364.14,-416.27 367.82,-426.2 373.21,-421.74"/>
</g>
<!-- NASALib/metric_space&#45;&gt;NASALib/series -->
<g id="edge53" class="edge">
<title>NASALib/metric_space&#45;&gt;NASALib/series</title>
<path fill="none" stroke="black" d="M402.83,-450.85C393.89,-414.07 372.81,-327.29 361.86,-282.24"/>
<polygon fill="black" stroke="black" points="365.31,-281.59 359.54,-272.7 358.5,-283.25 365.31,-281.59"/>
</g>
<!-- NASALib/metric_space&#45;&gt;NASALib/sets_aux -->
<g id="edge54" class="edge">
<title>NASALib/metric_space&#45;&gt;NASALib/sets_aux</title>
<path fill="none" stroke="black" d="M422.23,-450.84C445.19,-424.98 486,-379 486,-379 486,-379 597,-343 597,-343 597,-343 598.36,-342.5 600.62,-341.66"/>
<polygon fill="black" stroke="black" points="601.47,-345.08 609.63,-338.33 599.04,-338.52 601.47,-345.08"/>
</g>
<!-- NASALib/metric_space&#45;&gt;NASALib/topology -->
<g id="edge55" class="edge">
<title>NASALib/metric_space&#45;&gt;NASALib/topology</title>
<path fill="none" stroke="black" d="M436.97,-450.52C452.26,-441.6 471.06,-430.63 487.52,-421.03"/>
<polygon fill="black" stroke="black" points="489.23,-424.09 496.1,-416.02 485.7,-418.04 489.23,-424.09"/>
</g>
<!-- NASALib/metric_space&#45;&gt;NASALib/vectors -->
<g id="edge56" class="edge">
<title>NASALib/metric_space&#45;&gt;NASALib/vectors</title>
<path fill="none" stroke="black" d="M362.13,-455.49C314.68,-442.25 240.57,-421.58 195.33,-408.97"/>
<polygon fill="black" stroke="black" points="196.52,-405.67 185.95,-406.35 194.64,-412.41 196.52,-405.67"/>
</g>
<!-- NASALib/metric_space&#45;&gt;lib/finite_sets -->
<g id="edge57" class="edge">
<title>NASALib/metric_space&#45;&gt;lib/finite_sets</title>
<path fill="none" stroke="black" d="M451.58,-458.41C469.5,-454.55 486,-451 486,-451 486,-451 866,-398 866,-398"/>
<path fill="none" stroke="black" d="M866,-396C866,-396 866,-254 866,-254"/>
</g>
<!-- NASALib/orders&#45;&gt;NASALib/structures -->
<g id="edge58" class="edge">
<title>NASALib/orders&#45;&gt;NASALib/structures</title>
<path fill="none" stroke="black" d="M664.02,-162.52C651.64,-153.85 636.5,-143.25 623.07,-133.85"/>
<polygon fill="black" stroke="black" points="625.1,-131 614.9,-128.13 621.08,-136.73 625.1,-131"/>
</g>
<!-- NASALib/orders&#45;&gt;lib/finite_sets -->
<g id="edge59" class="edge">
<title>NASALib/orders&#45;&gt;lib/finite_sets</title>
<path fill="none" stroke="black" d="M716.27,-169.22C765.92,-149.58 866,-110 866,-110"/>
<path fill="none" stroke="black" d="M866,-108C866,-108 876.84,-83.26 885.91,-62.59"/>
<polygon fill="black" stroke="black" points="889,-64.25 889.81,-53.69 882.59,-61.44 889,-64.25"/>
</g>
<!-- NASALib/power&#45;&gt;NASALib/analysis -->
<g id="edge60" class="edge">
<title>NASALib/power&#45;&gt;NASALib/analysis</title>
<path fill="none" stroke="black" d="M471,-614C471,-614 717,-684 717,-684"/>
<path fill="none" stroke="black" d="M717,-686C717,-686 376,-739 376,-739 376,-739 369.81,-741.39 362.08,-744.38"/>
<path fill="none" stroke="black" d="M348.67,-415.35C348.38,-430.81 348,-451 348,-451 348,-451 348,-487 348,-487 348,-487 409,-559 409,-559 409,-559 445.34,-590.07 462.38,-604.63"/>
<polygon fill="black" stroke="black" points="459.97,-607.18 469.85,-611.02 464.52,-601.86 459.97,-607.18"/>
</g>
<!-- NASALib/power&#45;&gt;NASALib/lnexp -->
<g id="edge61" class="edge">
<title>NASALib/power&#45;&gt;NASALib/lnexp</title>
<path fill="none" stroke="black" d="M327.74,-378.7C317.3,-370.2 304.54,-359.81 293.12,-350.51"/>
<polygon fill="black" stroke="black" points="295.45,-347.9 285.49,-344.3 291.03,-353.33 295.45,-347.9"/>
</g>
<!-- NASALib/power&#45;&gt;NASALib/reals -->
<g id="edge62" class="edge">
<title>NASALib/power&#45;&gt;NASALib/reals</title>
<path fill="none" stroke="black" d="M337.63,-415.3C328.69,-428.91 316.57,-447.35 309.29,-458.42"/>
<polygon fill="black" stroke="black" points="306.4,-456.46 303.83,-466.74 312.25,-460.3 306.4,-456.46"/>
</g>
<!-- NASALib/reals&#45;&gt;NASALib/ints -->
<g id="edge63" class="edge">
<title>NASALib/reals&#45;&gt;NASALib/ints</title>
<path fill="none" stroke="black" d="M277.76,-666.65C273.09,-651.19 267,-631 267,-631 267,-631 243,-542 243,-542 243,-542 243,-542 243,-468 243,-468 227,-343 227,-343 227,-343 227,-307 227,-307 227,-307 263,-254 263,-254"/>
<path fill="none" stroke="black" d="M263,-252C263,-252 263,-182 263,-182"/>
</g>
<!-- NASALib/reals&#45;&gt;NASALib/lebesgue -->
<g id="edge64" class="edge">
<title>NASALib/reals&#45;&gt;NASALib/lebesgue</title>
<path fill="none" stroke="black" d="M321.56,-676.13C385.99,-662.98 515.1,-636.63 582.61,-622.85"/>
<polygon fill="black" stroke="black" points="321.07,-672.66 311.97,-678.09 322.47,-679.52 321.07,-672.66"/>
<polygon fill="black" stroke="black" points="583.1,-626.33 592.2,-620.9 581.7,-619.47 583.1,-626.33"/>
</g>
<!-- NASALib/reals&#45;&gt;NASALib/metric_space -->
<g id="edge65" class="edge">
<title>NASALib/reals&#45;&gt;NASALib/metric_space</title>
<path fill="none" stroke="black" d="M298.65,-657C322.44,-615.93 367.48,-538.21 391.3,-497.09"/>
<polygon fill="black" stroke="black" points="295.68,-655.13 293.7,-665.54 301.74,-658.64 295.68,-655.13"/>
<polygon fill="black" stroke="black" points="394.27,-498.95 396.26,-488.54 388.21,-495.44 394.27,-498.95"/>
</g>
<!-- NASALib/reals&#45;&gt;NASALib/sets_aux -->
<g id="edge66" class="edge">
<title>NASALib/reals&#45;&gt;NASALib/sets_aux</title>
<path fill="none" stroke="black" d="M310.25,-680.4C400.5,-668.47 684,-631 684,-631 684,-631 777,-470 777,-470"/>
</g>
<!-- NASALib/reals&#45;&gt;NASALib/structures -->
<g id="edge67" class="edge">
<title>NASALib/reals&#45;&gt;NASALib/structures</title>
<path fill="none" stroke="black" d="M283,-666.59C283,-628.67 283,-542 283,-542 283,-542 283,-542 283,-468 283,-468 299,-343 299,-343 299,-343 309,-254 309,-254"/>
</g>
<!-- NASALib/series&#45;&gt;NASALib/analysis -->
<g id="edge68" class="edge">
<title>NASALib/series&#45;&gt;NASALib/analysis</title>
<path fill="none" stroke="black" d="M364.41,-271.48C390.35,-319.7 461,-451 461,-451 461,-451 467.04,-504.78 469.73,-528.73"/>
<polygon fill="black" stroke="black" points="466.24,-528.95 470.83,-538.5 473.19,-528.17 466.24,-528.95"/>
</g>
<!-- NASALib/series&#45;&gt;NASALib/ints -->
<g id="edge69" class="edge">
<title>NASALib/series&#45;&gt;NASALib/ints</title>
<path fill="none" stroke="black" d="M332.26,-234.7C305.01,-213.97 263,-182 263,-182"/>
</g>
<!-- NASALib/series&#45;&gt;NASALib/orders -->
<g id="edge70" class="edge">
<title>NASALib/series&#45;&gt;NASALib/orders</title>
<path fill="none" stroke="black" d="M382.3,-247.06C455.04,-233.9 648,-199 648,-199 648,-199 649.37,-198.43 651.62,-197.5"/>
<polygon fill="black" stroke="black" points="652.59,-200.89 660.48,-193.82 649.9,-194.42 652.59,-200.89"/>
</g>
<!-- NASALib/series&#45;&gt;NASALib/reals -->
<g id="edge71" class="edge">
<title>NASALib/series&#45;&gt;NASALib/reals</title>
<path fill="none" stroke="black" d="M303,-470C303,-470 288,-631 288,-631 288,-631 286.1,-651.19 284.64,-666.65"/>
<path fill="none" stroke="black" d="M349.16,-271.38C337.62,-305.73 313,-379 313,-379 313,-379 306.96,-432.78 304.27,-456.73"/>
<polygon fill="black" stroke="black" points="300.81,-456.17 303.17,-466.5 307.76,-456.95 300.81,-456.17"/>
</g>
<!-- NASALib/sets_aux&#45;&gt;NASALib/ints -->
<g id="edge72" class="edge">
<title>NASALib/sets_aux&#45;&gt;NASALib/ints</title>
<path fill="none" stroke="black" d="M643,-180C643,-180 633,-91 633,-91 633,-91 621.07,-75.81 609.63,-61.25"/>
<polygon fill="black" stroke="black" points="612.55,-59.3 603.62,-53.6 607.04,-63.63 612.55,-59.3"/>
</g>
<!-- NASALib/sets_aux&#45;&gt;NASALib/orders -->
<g id="edge73" class="edge">
<title>NASALib/sets_aux&#45;&gt;NASALib/orders</title>
<path fill="none" stroke="black" d="M643,-252C643,-252 658.37,-228.61 671.35,-208.87"/>
<polygon fill="black" stroke="black" points="674.23,-210.85 676.8,-200.57 668.38,-207 674.23,-210.85"/>
</g>
<!-- NASALib/sets_aux&#45;&gt;NASALib/structures -->
<g id="edge74" class="edge">
<title>NASALib/sets_aux&#45;&gt;NASALib/structures</title>
<path fill="none" stroke="black" d="M643,-306.7C643,-285.97 643,-254 643,-254"/>
<path fill="none" stroke="black" d="M643,-180C643,-180 624.62,-156.18 609.31,-136.33"/>
<polygon fill="black" stroke="black" points="612.15,-134.28 603.27,-128.5 606.61,-138.56 612.15,-134.28"/>
<path fill="none" stroke="black" d="M643,-252C643,-252 643,-182 643,-182"/>
</g>
<!-- NASALib/sets_aux&#45;&gt;lib/finite_sets -->
<g id="edge75" class="edge">
<title>NASALib/sets_aux&#45;&gt;lib/finite_sets</title>
<path fill="none" stroke="black" d="M674.95,-313.97C736.61,-294.62 866,-254 866,-254"/>
<path fill="none" stroke="black" d="M866,-252C866,-252 866,-110 866,-110"/>
</g>
<!-- NASALib/shapes&#45;&gt;NASALib/reals -->
<g id="edge76" class="edge">
<title>NASALib/shapes&#45;&gt;NASALib/reals</title>
<path fill="none" stroke="black" d="M90.42,-747.28C129.31,-734.9 200.64,-712.2 244.73,-698.18"/>
<polygon fill="black" stroke="black" points="245.67,-701.55 254.14,-695.18 243.55,-694.88 245.67,-701.55"/>
</g>
<!-- NASALib/shapes&#45;&gt;NASALib/structures -->
<g id="edge77" class="edge">
<title>NASALib/shapes&#45;&gt;NASALib/structures</title>
<path fill="none" stroke="black" d="M63,-540C63,-540 78,-451 78,-451 78,-451 115,-307 115,-307 115,-307 309,-182 309,-182"/>
<path fill="none" stroke="black" d="M63,-738.85C63,-688.07 63,-542 63,-542"/>
<path fill="none" stroke="black" d="M309,-180C309,-180 463.48,-141.38 542.95,-121.51"/>
<polygon fill="black" stroke="black" points="543.78,-124.91 552.64,-119.09 542.09,-118.12 543.78,-124.91"/>
</g>
<!-- NASALib/shapes&#45;&gt;NASALib/trig -->
<g id="edge78" class="edge">
<title>NASALib/shapes&#45;&gt;NASALib/trig</title>
<path fill="none" stroke="black" d="M63,-540C63,-540 83,-470 83,-470"/>
</g>
<!-- NASALib/shapes&#45;&gt;NASALib/vectors -->
<g id="edge79" class="edge">
<title>NASALib/shapes&#45;&gt;NASALib/vectors</title>
<path fill="none" stroke="black" d="M143,-468C143,-468 147.11,-445.87 150.71,-426.5"/>
<polygon fill="black" stroke="black" points="154.13,-427.26 152.51,-416.79 147.24,-425.98 154.13,-427.26"/>
<path fill="none" stroke="black" d="M67.88,-738.54C85.25,-676.45 143,-470 143,-470"/>
</g>
<!-- NASALib/sigma_set&#45;&gt;NASALib/analysis -->
<g id="edge80" class="edge">
<title>NASALib/sigma_set&#45;&gt;NASALib/analysis</title>
<path fill="none" stroke="black" d="M708.08,-415.35C720.62,-430.81 737,-451 737,-451 737,-451 737,-487 737,-487 737,-487 722.43,-630.51 718.16,-672.56"/>
<polygon fill="black" stroke="black" points="714.68,-672.19 717.15,-682.49 721.65,-672.9 714.68,-672.19"/>
</g>
<!-- NASALib/sigma_set&#45;&gt;NASALib/orders -->
<g id="edge81" class="edge">
<title>NASALib/sigma_set&#45;&gt;NASALib/orders</title>
<path fill="none" stroke="black" d="M694,-378.7C694,-357.97 694,-326 694,-326"/>
</g>
<!-- NASALib/sigma_set&#45;&gt;NASALib/reals -->
<g id="edge82" class="edge">
<title>NASALib/sigma_set&#45;&gt;NASALib/reals</title>
<path fill="none" stroke="black" d="M706.44,-415.35C717.53,-430.81 732,-451 732,-451 732,-451 732,-487 732,-487 732,-487 672,-631 672,-631 672,-631 419.82,-665.36 321.55,-678.75"/>
<polygon fill="black" stroke="black" points="321.29,-675.25 311.85,-680.07 322.23,-682.19 321.29,-675.25"/>
</g>
<!-- NASALib/sigma_set&#45;&gt;NASALib/series -->
<g id="edge83" class="edge">
<title>NASALib/sigma_set&#45;&gt;NASALib/series</title>
<path fill="none" stroke="black" d="M658.96,-378.65C627.76,-363.19 587,-343 587,-343 587,-343 572,-326 572,-326"/>
</g>
<!-- NASALib/sigma_set&#45;&gt;NASALib/sets_aux -->
<g id="edge84" class="edge">
<title>NASALib/sigma_set&#45;&gt;NASALib/sets_aux</title>
<path fill="none" stroke="black" d="M681.39,-378.7C675.59,-370.73 668.57,-361.1 662.14,-352.26"/>
<polygon fill="black" stroke="black" points="665.07,-350.35 656.35,-344.33 659.41,-354.47 665.07,-350.35"/>
</g>
<!-- NASALib/structures&#45;&gt;NASALib/ints -->
<g id="edge85" class="edge">
<title>NASALib/structures&#45;&gt;NASALib/ints</title>
<path fill="none" stroke="black" d="M589,-90.7C589,-82.67 589,-72.9 589,-63.8"/>
<polygon fill="black" stroke="black" points="592.5,-63.94 589,-53.94 585.5,-63.94 592.5,-63.94"/>
</g>
<!-- NASALib/structures&#45;&gt;lib/finite_sets -->
<g id="edge86" class="edge">
<title>NASALib/structures&#45;&gt;lib/finite_sets</title>
<path fill="none" stroke="black" d="M623.93,-104.65C695.05,-97.84 850,-83 850,-83 850,-83 861.17,-71.83 872.73,-60.27"/>
<polygon fill="black" stroke="black" points="875,-62.95 879.6,-53.4 870.05,-58 875,-62.95"/>
</g>
<!-- NASALib/topology&#45;&gt;NASALib/reals -->
<g id="edge87" class="edge">
<title>NASALib/topology&#45;&gt;NASALib/reals</title>
<path fill="none" stroke="black" d="M514.27,-415.16C495.1,-441.02 461,-487 461,-487 461,-487 354.54,-604.82 306.29,-658.23"/>
<polygon fill="black" stroke="black" points="303.92,-655.63 299.81,-665.39 309.11,-660.32 303.92,-655.63"/>
</g>
<!-- NASALib/topology&#45;&gt;NASALib/sets_aux -->
<g id="edge88" class="edge">
<title>NASALib/topology&#45;&gt;NASALib/sets_aux</title>
<path fill="none" stroke="black" d="M555.97,-378.52C570.75,-369.6 588.93,-358.63 604.83,-349.03"/>
<polygon fill="black" stroke="black" points="606.35,-352.21 613.1,-344.04 602.73,-346.21 606.35,-352.21"/>
</g>
<!-- NASALib/topology&#45;&gt;NASALib/structures -->
<g id="edge89" class="edge">
<title>NASALib/topology&#45;&gt;NASALib/structures</title>
<path fill="none" stroke="black" d="M592,-324C592,-324 562,-254 562,-254"/>
<path fill="none" stroke="black" d="M543.37,-378.65C557.95,-363.19 577,-343 577,-343 577,-343 592,-326 592,-326"/>
</g>
<!-- NASALib/trig&#45;&gt;NASALib/analysis -->
<g id="edge90" class="edge">
<title>NASALib/trig&#45;&gt;NASALib/analysis</title>
<path fill="none" stroke="black" d="M203,-470C203,-470 203,-684 203,-684"/>
<path fill="none" stroke="black" d="M164.75,-343.35C177,-358.81 193,-379 193,-379 193,-379 199.04,-432.78 201.73,-456.73"/>
<polygon fill="black" stroke="black" points="198.24,-456.95 202.83,-466.5 205.19,-456.17 198.24,-456.95"/>
<path fill="none" stroke="black" d="M203,-686C203,-686 263.63,-718.9 301.76,-739.59"/>
</g>
<!-- NASALib/trig&#45;&gt;NASALib/ints -->
<g id="edge91" class="edge">
<title>NASALib/trig&#45;&gt;NASALib/ints</title>
<path fill="none" stroke="black" d="M151,-306.7C151,-285.97 151,-254 151,-254"/>
</g>
<!-- NASALib/trig&#45;&gt;NASALib/reals -->
<g id="edge92" class="edge">
<title>NASALib/trig&#45;&gt;NASALib/reals</title>
<path fill="none" stroke="black" d="M203,-470C203,-470 238,-631 238,-631 238,-631 255.14,-651.19 268.27,-666.65"/>
</g>
<!-- NASALib/trig&#45;&gt;NASALib/series -->
<g id="edge93" class="edge">
<title>NASALib/trig&#45;&gt;NASALib/series</title>
<path fill="none" stroke="black" d="M178.28,-315.13C224.68,-300.04 314,-271 314,-271 314,-271 315.37,-270.43 317.62,-269.5"/>
<polygon fill="black" stroke="black" points="318.59,-272.89 326.48,-265.82 315.9,-266.42 318.59,-272.89"/>
</g>
<!-- NASALib/vect_analysis&#45;&gt;NASALib/analysis -->
<g id="edge94" class="edge">
<title>NASALib/vect_analysis&#45;&gt;NASALib/analysis</title>
<path fill="none" stroke="black" d="M261.99,-810.7C273.39,-802.11 287.35,-791.61 299.8,-782.24"/>
<polygon fill="black" stroke="black" points="301.86,-785.07 307.74,-776.26 297.65,-779.47 301.86,-785.07"/>
</g>
<!-- NASALib/vect_analysis&#45;&gt;NASALib/reals -->
<g id="edge95" class="edge">
<title>NASALib/vect_analysis&#45;&gt;NASALib/reals</title>
<path fill="none" stroke="black" d="M149,-756C149,-756 164,-739 164,-739 164,-739 210.46,-718.31 245.32,-702.78"/>
<polygon fill="black" stroke="black" points="246.61,-706.04 254.32,-698.78 243.76,-699.65 246.61,-706.04"/>
</g>
<!-- NASALib/vect_analysis&#45;&gt;NASALib/vectors -->
<g id="edge96" class="edge">
<title>NASALib/vect_analysis&#45;&gt;NASALib/vectors</title>
<path fill="none" stroke="black" d="M149,-756C149,-756 169,-686 169,-686"/>
<path fill="none" stroke="black" d="M169,-684C169,-684 143,-614 143,-614"/>
<path fill="none" stroke="black" d="M214.44,-810.65C192.57,-795.19 164,-775 164,-775 164,-775 149,-758 149,-758"/>
</g>
<!-- NASALib/vectors&#45;&gt;NASALib/reals -->
<g id="edge97" class="edge">
<title>NASALib/vectors&#45;&gt;NASALib/reals</title>
<path fill="none" stroke="black" d="M160.49,-415.23C171.33,-456.76 198,-559 198,-559 198,-559 218,-631 218,-631 218,-631 235.95,-645.64 252.99,-659.53"/>
<polygon fill="black" stroke="black" points="250.58,-662.08 260.54,-665.69 255.01,-656.66 250.58,-662.08"/>
</g>
<!-- NASALib/vectors&#45;&gt;NASALib/structures -->
<g id="edge98" class="edge">
<title>NASALib/vectors&#45;&gt;NASALib/structures</title>
<path fill="none" stroke="black" d="M309,-252C309,-252 309,-182 309,-182"/>
<path fill="none" stroke="black" d="M169.69,-378.84C190.32,-352.98 227,-307 227,-307 227,-307 309,-254 309,-254"/>
</g>
<!-- NASALib/vectors&#45;&gt;NASALib/trig -->
<g id="edge99" class="edge">
<title>NASALib/vectors&#45;&gt;NASALib/trig</title>
<path fill="none" stroke="black" d="M154.76,-378.7C154.24,-371.41 153.62,-362.73 153.04,-354.54"/>
<polygon fill="black" stroke="black" points="156.53,-354.34 152.33,-344.61 149.55,-354.84 156.53,-354.34"/>
</g>
</g>
</svg>
