<?xml version="1.0" encoding="UTF-8" standalone="no"?>
<!DOCTYPE svg PUBLIC "-//W3C//DTD SVG 1.1//EN"
 "http://www.w3.org/Graphics/SVG/1.1/DTD/svg11.dtd">
<!-- Generated by graphviz version 8.1.0 (20230707.0739)
 -->
<!-- Title: metric_space Pages: 1 -->
<svg width="747pt" height="905pt"
 viewBox="0.00 0.00 747.00 905.00" xmlns="http://www.w3.org/2000/svg" xmlns:xlink="http://www.w3.org/1999/xlink">
<g id="graph0" class="graph" transform="scale(1 1) rotate(0) translate(4 901)">
<title>metric_space</title>
<polygon fill="white" stroke="none" points="-4,4 -4,-901 743,-901 743,4 -4,4"/>
<g id="clust1" class="cluster">
<title>cluster_NASALib</title>
<polygon fill="none" stroke="black" points="8,-92.5 8,-889 719,-889 719,-92.5 8,-92.5"/>
<text text-anchor="middle" x="363.5" y="-871.7" font-family="Times,serif" font-size="14.00">NASALib</text>
</g>
<g id="clust2" class="cluster">
<title>cluster_PVS Prelude</title>
<polygon fill="none" stroke="black" points="548,-8 548,-84.5 636,-84.5 636,-8 548,-8"/>
<text text-anchor="middle" x="592" y="-67.2" font-family="Times,serif" font-size="14.00">PVS Prelude</text>
</g>
<!-- lib/finite_sets -->
<g id="node1" class="node">
<title>lib/finite_sets</title>
<polygon fill="#fcfcd7" stroke="black" points="627.75,-52 556.25,-52 556.25,-16 627.75,-16 627.75,-52"/>
<text text-anchor="middle" x="592" y="-28.95" font-family="Times,serif" font-size="14.00">finite_sets</text>
</g>
<!-- nasalib/ODEs -->
<g id="node2" class="node">
<title>nasalib/ODEs</title>
<polygon fill="#fcfcd7" stroke="black" points="234,-784.5 180,-784.5 180,-748.5 234,-748.5 234,-784.5"/>
<text text-anchor="middle" x="207" y="-761.45" font-family="Times,serif" font-size="14.00">ODEs</text>
</g>
<!-- nasalib/analysis -->
<g id="node3" class="node">
<title>nasalib/analysis</title>
<polygon fill="#fcfcd7" stroke="black" points="393.75,-352.5 334.25,-352.5 334.25,-316.5 393.75,-316.5 393.75,-352.5"/>
<text text-anchor="middle" x="364" y="-329.45" font-family="Times,serif" font-size="14.00">analysis</text>
</g>
<!-- nasalib/ODEs&#45;&gt;nasalib/analysis -->
<g id="edge1" class="edge">
<title>nasalib/ODEs&#45;&gt;nasalib/analysis</title>
<path fill="none" stroke="black" d="M222,-621.5C222,-621.5 232,-532.5 232,-532.5 232,-532.5 279,-460.5 279,-460.5 279,-460.5 356,-407.5 356,-407.5"/>
</g>
<!-- nasalib/lnexp -->
<g id="node8" class="node">
<title>nasalib/lnexp</title>
<polygon fill="#fcfcd7" stroke="black" points="210,-496.5 156,-496.5 156,-460.5 210,-460.5 210,-496.5"/>
<text text-anchor="middle" x="183" y="-473.45" font-family="Times,serif" font-size="14.00">lnexp</text>
</g>
<!-- nasalib/ODEs&#45;&gt;nasalib/lnexp -->
<g id="edge2" class="edge">
<title>nasalib/ODEs&#45;&gt;nasalib/lnexp</title>
<path fill="none" stroke="black" d="M222,-621.5C222,-621.5 197,-568.5 197,-568.5 197,-568.5 191.51,-533.61 187.41,-507.52"/>
<polygon fill="black" stroke="black" points="190.71,-506.99 185.7,-497.66 183.8,-508.08 190.71,-506.99"/>
<path fill="none" stroke="black" d="M208.84,-748.09C212.84,-710.17 222,-623.5 222,-623.5"/>
</g>
<!-- nasalib/metric_space -->
<g id="node10" class="node">
<title>nasalib/metric_space</title>
<polygon fill="#f7e28d" stroke="black" points="389,-640.5 301,-640.5 301,-604.5 389,-604.5 389,-640.5"/>
<text text-anchor="middle" x="345" y="-617.45" font-family="Times,serif" font-size="14.00">metric_space</text>
</g>
<!-- nasalib/ODEs&#45;&gt;nasalib/metric_space -->
<g id="edge3" class="edge">
<title>nasalib/ODEs&#45;&gt;nasalib/metric_space</title>
<path fill="none" stroke="black" d="M345,-693.5C345,-693.5 345,-671.16 345,-651.72"/>
<polygon fill="black" stroke="black" points="348.5,-651.8 345,-641.8 341.5,-651.8 348.5,-651.8"/>
<path fill="none" stroke="black" d="M234.26,-751.67C274.48,-731.27 345,-695.5 345,-695.5"/>
</g>
<!-- nasalib/mv_analysis -->
<g id="node11" class="node">
<title>nasalib/mv_analysis</title>
<polygon fill="#fcfcd7" stroke="black" points="159.12,-712.5 74.88,-712.5 74.88,-676.5 159.12,-676.5 159.12,-712.5"/>
<text text-anchor="middle" x="117" y="-689.45" font-family="Times,serif" font-size="14.00">mv_analysis</text>
</g>
<!-- nasalib/ODEs&#45;&gt;nasalib/mv_analysis -->
<g id="edge4" class="edge">
<title>nasalib/ODEs&#45;&gt;nasalib/mv_analysis</title>
<path fill="none" stroke="black" d="M184.75,-748.2C173.61,-739.53 159.94,-728.9 147.81,-719.46"/>
<polygon fill="black" stroke="black" points="150.35,-716.22 140.3,-712.85 146.05,-721.75 150.35,-716.22"/>
</g>
<!-- nasalib/structures -->
<g id="node18" class="node">
<title>nasalib/structures</title>
<polygon fill="#fcfcd7" stroke="black" points="543.25,-208.5 474.75,-208.5 474.75,-172.5 543.25,-172.5 543.25,-208.5"/>
<text text-anchor="middle" x="509" y="-185.45" font-family="Times,serif" font-size="14.00">structures</text>
</g>
<!-- nasalib/ODEs&#45;&gt;nasalib/structures -->
<g id="edge5" class="edge">
<title>nasalib/ODEs&#45;&gt;nasalib/structures</title>
<path fill="none" stroke="black" d="M137,-405.5C137,-405.5 117,-335.5 117,-335.5"/>
<path fill="none" stroke="black" d="M202.64,-748.26C187.63,-688.89 139,-496.5 139,-496.5 139,-496.5 137,-407.5 137,-407.5"/>
</g>
<!-- nasalib/analysis&#45;&gt;lib/finite_sets -->
<g id="edge6" class="edge">
<title>nasalib/analysis&#45;&gt;lib/finite_sets</title>
<path fill="none" stroke="black" d="M739,-261.5C739,-261.5 739,-191.5 739,-191.5"/>
<path fill="none" stroke="black" d="M393.99,-329.07C480.27,-316.33 723,-280.5 723,-280.5 723,-280.5 739,-263.5 739,-263.5"/>
</g>
<!-- nasalib/ints -->
<g id="node6" class="node">
<title>nasalib/ints</title>
<polygon fill="#fcfcd7" stroke="black" points="536,-136.5 482,-136.5 482,-100.5 536,-100.5 536,-136.5"/>
<text text-anchor="middle" x="509" y="-113.45" font-family="Times,serif" font-size="14.00">ints</text>
</g>
<!-- nasalib/analysis&#45;&gt;nasalib/ints -->
<g id="edge7" class="edge">
<title>nasalib/analysis&#45;&gt;nasalib/ints</title>
<path fill="none" stroke="black" d="M342,-316.2C315.64,-295.47 275,-263.5 275,-263.5"/>
</g>
<!-- nasalib/orders -->
<g id="node12" class="node">
<title>nasalib/orders</title>
<polygon fill="#fcfcd7" stroke="black" points="635,-280.5 581,-280.5 581,-244.5 635,-244.5 635,-280.5"/>
<text text-anchor="middle" x="608" y="-257.45" font-family="Times,serif" font-size="14.00">orders</text>
</g>
<!-- nasalib/analysis&#45;&gt;nasalib/orders -->
<g id="edge8" class="edge">
<title>nasalib/analysis&#45;&gt;nasalib/orders</title>
<path fill="none" stroke="black" d="M393.92,-324.92C438.4,-312.15 521.94,-288.19 570.46,-274.27"/>
<polygon fill="black" stroke="black" points="571.19,-277.41 579.84,-271.29 569.26,-270.69 571.19,-277.41"/>
</g>
<!-- nasalib/reals -->
<g id="node15" class="node">
<title>nasalib/reals</title>
<polygon fill="#fcfcd7" stroke="black" points="368,-280.5 314,-280.5 314,-244.5 368,-244.5 368,-280.5"/>
<text text-anchor="middle" x="341" y="-257.45" font-family="Times,serif" font-size="14.00">reals</text>
</g>
<!-- nasalib/analysis&#45;&gt;nasalib/reals -->
<g id="edge9" class="edge">
<title>nasalib/analysis&#45;&gt;nasalib/reals</title>
<path fill="none" stroke="black" d="M358.31,-316.2C355.81,-308.57 352.8,-299.42 350,-290.9"/>
<polygon fill="black" stroke="black" points="353.07,-290.01 346.62,-281.6 346.42,-292.2 353.07,-290.01"/>
</g>
<!-- nasalib/analysis&#45;&gt;nasalib/structures -->
<g id="edge10" class="edge">
<title>nasalib/analysis&#45;&gt;nasalib/structures</title>
<path fill="none" stroke="black" d="M381.78,-316.09C407.36,-291.04 454.65,-244.72 483.82,-216.16"/>
<polygon fill="black" stroke="black" points="485.83,-219.11 490.53,-209.61 480.93,-214.11 485.83,-219.11"/>
</g>
<!-- nasalib/complex_integration -->
<g id="node4" class="node">
<title>nasalib/complex_integration</title>
<polygon fill="#fcfcd7" stroke="black" points="409.25,-784.5 280.75,-784.5 280.75,-748.5 409.25,-748.5 409.25,-784.5"/>
<text text-anchor="middle" x="345" y="-761.45" font-family="Times,serif" font-size="14.00">complex_integration</text>
</g>
<!-- nasalib/measure_integration -->
<g id="node9" class="node">
<title>nasalib/measure_integration</title>
<polygon fill="#fcfcd7" stroke="black" points="610.5,-712.5 483.5,-712.5 483.5,-676.5 610.5,-676.5 610.5,-712.5"/>
<text text-anchor="middle" x="547" y="-689.45" font-family="Times,serif" font-size="14.00">measure_integration</text>
</g>
<!-- nasalib/complex_integration&#45;&gt;nasalib/measure_integration -->
<g id="edge11" class="edge">
<title>nasalib/complex_integration&#45;&gt;nasalib/measure_integration</title>
<path fill="none" stroke="black" d="M395.45,-748.02C423.15,-738.42 457.69,-726.45 486.79,-716.36"/>
<polygon fill="black" stroke="black" points="487.54,-719.46 495.84,-712.88 485.25,-712.85 487.54,-719.46"/>
</g>
<!-- nasalib/complex_integration&#45;&gt;nasalib/metric_space -->
<g id="edge12" class="edge">
<title>nasalib/complex_integration&#45;&gt;nasalib/metric_space</title>
<path fill="none" stroke="black" d="M345,-748.2C345,-727.47 345,-695.5 345,-695.5"/>
</g>
<!-- nasalib/power -->
<g id="node13" class="node">
<title>nasalib/power</title>
<polygon fill="#fcfcd7" stroke="black" points="389,-568.5 335,-568.5 335,-532.5 389,-532.5 389,-568.5"/>
<text text-anchor="middle" x="362" y="-545.45" font-family="Times,serif" font-size="14.00">power</text>
</g>
<!-- nasalib/complex_integration&#45;&gt;nasalib/power -->
<g id="edge13" class="edge">
<title>nasalib/complex_integration&#45;&gt;nasalib/power</title>
<path fill="none" stroke="black" d="M242,-693.5C242,-693.5 292,-604.5 292,-604.5 292,-604.5 311.87,-589.45 330.44,-575.4"/>
<polygon fill="black" stroke="black" points="332.22,-577.68 338.08,-568.85 327.99,-572.1 332.22,-577.68"/>
</g>
<!-- nasalib/complex_integration&#45;&gt;nasalib/structures -->
<g id="edge14" class="edge">
<title>nasalib/complex_integration&#45;&gt;nasalib/structures</title>
<path fill="none" stroke="black" d="M319.27,-748.02C288.77,-727.28 242,-695.5 242,-695.5"/>
<path fill="none" stroke="black" d="M242,-693.5C242,-693.5 147,-496.5 147,-496.5 147,-496.5 137,-407.5 137,-407.5"/>
</g>
<!-- nasalib/topology -->
<g id="node19" class="node">
<title>nasalib/topology</title>
<polygon fill="#fcfcd7" stroke="black" points="611,-568.5 547,-568.5 547,-532.5 611,-532.5 611,-568.5"/>
<text text-anchor="middle" x="579" y="-545.45" font-family="Times,serif" font-size="14.00">topology</text>
</g>
<!-- nasalib/complex_integration&#45;&gt;nasalib/topology -->
<g id="edge15" class="edge">
<title>nasalib/complex_integration&#45;&gt;nasalib/topology</title>
<path fill="none" stroke="black" d="M363.75,-748.35C405.09,-710.55 504.15,-619.95 552.1,-576.1"/>
<polygon fill="black" stroke="black" points="554.14,-579.06 559.16,-569.73 549.42,-573.9 554.14,-579.06"/>
</g>
<!-- nasalib/dL -->
<g id="node5" class="node">
<title>nasalib/dL</title>
<polygon fill="#fcfcd7" stroke="black" points="234,-856.5 180,-856.5 180,-820.5 234,-820.5 234,-856.5"/>
<text text-anchor="middle" x="207" y="-833.45" font-family="Times,serif" font-size="14.00">dL</text>
</g>
<!-- nasalib/dL&#45;&gt;nasalib/ODEs -->
<g id="edge16" class="edge">
<title>nasalib/dL&#45;&gt;nasalib/ODEs</title>
<path fill="none" stroke="black" d="M207,-820.2C207,-812.74 207,-803.82 207,-795.47"/>
<polygon fill="black" stroke="black" points="210.5,-795.6 207,-785.6 203.5,-795.6 210.5,-795.6"/>
</g>
<!-- nasalib/dL&#45;&gt;nasalib/analysis -->
<g id="edge17" class="edge">
<title>nasalib/dL&#45;&gt;nasalib/analysis</title>
<path fill="none" stroke="black" d="M56,-693.5C56,-693.5 132,-460.5 132,-460.5 132,-460.5 258.72,-392.23 324.85,-356.59"/>
<polygon fill="black" stroke="black" points="326,-359.41 333.15,-351.59 322.68,-353.25 326,-359.41"/>
</g>
<!-- nasalib/dL&#45;&gt;nasalib/lnexp -->
<g id="edge18" class="edge">
<title>nasalib/dL&#45;&gt;nasalib/lnexp</title>
<path fill="none" stroke="black" d="M132,-765.5C132,-765.5 168,-712.5 168,-712.5 168,-712.5 177.21,-569.47 181.2,-507.54"/>
<polygon fill="black" stroke="black" points="184.75,-507.84 181.9,-497.63 177.76,-507.39 184.75,-507.84"/>
</g>
<!-- nasalib/dL&#45;&gt;nasalib/mv_analysis -->
<g id="edge19" class="edge">
<title>nasalib/dL&#45;&gt;nasalib/mv_analysis</title>
<path fill="none" stroke="black" d="M132,-765.5C132,-765.5 127.17,-742.95 122.99,-723.45"/>
<polygon fill="black" stroke="black" points="126.23,-722.85 120.71,-713.8 119.38,-724.31 126.23,-722.85"/>
</g>
<!-- nasalib/dL&#45;&gt;nasalib/orders -->
<g id="edge20" class="edge">
<title>nasalib/dL&#45;&gt;nasalib/orders</title>
<path fill="none" stroke="black" d="M234.21,-833.77C322.3,-821.71 594,-784.5 594,-784.5 594,-784.5 675,-712.5 675,-712.5 675,-712.5 690,-551.5 690,-551.5"/>
</g>
<!-- nasalib/dL&#45;&gt;nasalib/reals -->
<g id="edge21" class="edge">
<title>nasalib/dL&#45;&gt;nasalib/reals</title>
<path fill="none" stroke="black" d="M117,-405.5C117,-405.5 157,-335.5 157,-335.5"/>
<path fill="none" stroke="black" d="M56,-693.5C56,-693.5 52,-496.5 52,-496.5 52,-496.5 52,-460.5 52,-460.5 52,-460.5 117,-407.5 117,-407.5"/>
<path fill="none" stroke="black" d="M157,-333.5C157,-333.5 298,-280.5 298,-280.5 298,-280.5 300.12,-279.66 303.42,-278.36"/>
<polygon fill="black" stroke="black" points="304.51,-281.29 312.52,-274.36 301.94,-274.78 304.51,-281.29"/>
<path fill="none" stroke="black" d="M188.46,-820.2C166.25,-799.47 132,-767.5 132,-767.5"/>
<path fill="none" stroke="black" d="M132,-765.5C132,-765.5 66,-712.5 66,-712.5 66,-712.5 56,-695.5 56,-695.5"/>
</g>
<!-- nasalib/dL&#45;&gt;nasalib/structures -->
<g id="edge22" class="edge">
<title>nasalib/dL&#45;&gt;nasalib/structures</title>
<path fill="none" stroke="black" d="M117,-405.5C117,-405.5 117,-335.5 117,-335.5"/>
</g>
<!-- nasalib/ints&#45;&gt;lib/finite_sets -->
<g id="edge23" class="edge">
<title>nasalib/ints&#45;&gt;lib/finite_sets</title>
<path fill="none" stroke="black" d="M526.6,-100C538.27,-88.41 553.75,-73.02 566.73,-60.12"/>
<polygon fill="black" stroke="black" points="568.8,-63 573.42,-53.47 563.86,-58.04 568.8,-63"/>
</g>
<!-- nasalib/lebesgue -->
<g id="node7" class="node">
<title>nasalib/lebesgue</title>
<polygon fill="#fcfcd7" stroke="black" points="491.62,-784.5 428.38,-784.5 428.38,-748.5 491.62,-748.5 491.62,-784.5"/>
<text text-anchor="middle" x="460" y="-761.45" font-family="Times,serif" font-size="14.00">lebesgue</text>
</g>
<!-- nasalib/lebesgue&#45;&gt;nasalib/analysis -->
<g id="edge24" class="edge">
<title>nasalib/lebesgue&#45;&gt;nasalib/analysis</title>
<path fill="none" stroke="black" d="M408,-621.5C408,-621.5 398,-532.5 398,-532.5 398,-532.5 386,-460.5 386,-460.5 386,-460.5 356,-407.5 356,-407.5"/>
</g>
<!-- nasalib/lebesgue&#45;&gt;nasalib/measure_integration -->
<g id="edge25" class="edge">
<title>nasalib/lebesgue&#45;&gt;nasalib/measure_integration</title>
<path fill="none" stroke="black" d="M481.51,-748.2C492.17,-739.61 505.23,-729.11 516.88,-719.74"/>
<polygon fill="black" stroke="black" points="518.84,-721.84 524.44,-712.85 514.45,-716.39 518.84,-721.84"/>
</g>
<!-- nasalib/lebesgue&#45;&gt;nasalib/metric_space -->
<g id="edge26" class="edge">
<title>nasalib/lebesgue&#45;&gt;nasalib/metric_space</title>
<path fill="none" stroke="black" d="M404,-693.5C404,-693.5 383.37,-669.02 366.51,-649.02"/>
<polygon fill="black" stroke="black" points="368.71,-647.19 359.58,-641.8 363.35,-651.71 368.71,-647.19"/>
<path fill="none" stroke="black" d="M446.16,-748.2C429.57,-727.47 404,-695.5 404,-695.5"/>
</g>
<!-- nasalib/lebesgue&#45;&gt;nasalib/power -->
<g id="edge27" class="edge">
<title>nasalib/lebesgue&#45;&gt;nasalib/power</title>
<path fill="none" stroke="black" d="M404,-693.5C404,-693.5 408,-623.5 408,-623.5"/>
<path fill="none" stroke="black" d="M408,-621.5C408,-621.5 398,-604.5 398,-604.5 398,-604.5 388.95,-591.17 379.92,-577.88"/>
<polygon fill="black" stroke="black" points="382.3,-576.16 373.79,-569.85 376.51,-580.09 382.3,-576.16"/>
</g>
<!-- nasalib/lebesgue&#45;&gt;nasalib/reals -->
<g id="edge28" class="edge">
<title>nasalib/lebesgue&#45;&gt;nasalib/reals</title>
<path fill="none" stroke="black" d="M488,-405.5C488,-405.5 476,-388.5 476,-388.5 476,-388.5 422,-335.5 422,-335.5"/>
<path fill="none" stroke="black" d="M404,-693.5C404,-693.5 488,-407.5 488,-407.5"/>
</g>
<!-- nasalib/sets_aux -->
<g id="node17" class="node">
<title>nasalib/sets_aux</title>
<polygon fill="#fcfcd7" stroke="black" points="629.25,-496.5 566.75,-496.5 566.75,-460.5 629.25,-460.5 629.25,-496.5"/>
<text text-anchor="middle" x="598" y="-473.45" font-family="Times,serif" font-size="14.00">sets_aux</text>
</g>
<!-- nasalib/lebesgue&#45;&gt;nasalib/sets_aux -->
<g id="edge29" class="edge">
<title>nasalib/lebesgue&#45;&gt;nasalib/sets_aux</title>
<path fill="none" stroke="black" d="M630,-693.5C630,-693.5 630,-623.5 630,-623.5"/>
</g>
<!-- nasalib/lebesgue&#45;&gt;nasalib/structures -->
<g id="edge30" class="edge">
<title>nasalib/lebesgue&#45;&gt;nasalib/structures</title>
<path fill="none" stroke="black" d="M462.32,-748.23C471.9,-676.72 508,-407.5 508,-407.5"/>
</g>
<!-- nasalib/lebesgue&#45;&gt;nasalib/topology -->
<g id="edge31" class="edge">
<title>nasalib/lebesgue&#45;&gt;nasalib/topology</title>
<path fill="none" stroke="black" d="M491.91,-751.94C496.66,-749.92 500,-748.5 500,-748.5 500,-748.5 620,-712.5 620,-712.5 620,-712.5 630,-695.5 630,-695.5"/>
<path fill="none" stroke="black" d="M610,-621.5C610,-621.5 599.73,-598.32 591.02,-578.64"/>
<polygon fill="black" stroke="black" points="593.91,-577.53 586.66,-569.8 587.51,-580.36 593.91,-577.53"/>
<path fill="none" stroke="black" d="M630,-693.5C630,-693.5 610,-623.5 610,-623.5"/>
</g>
<!-- nasalib/lnexp&#45;&gt;nasalib/analysis -->
<g id="edge32" class="edge">
<title>nasalib/lnexp&#45;&gt;nasalib/analysis</title>
<path fill="none" stroke="black" d="M210.39,-466.9C250.37,-451.44 320,-424.5 320,-424.5 320,-424.5 356,-407.5 356,-407.5"/>
</g>
<!-- nasalib/lnexp&#45;&gt;nasalib/ints -->
<g id="edge33" class="edge">
<title>nasalib/lnexp&#45;&gt;nasalib/ints</title>
<path fill="none" stroke="black" d="M235,-333.5C235,-333.5 275,-263.5 275,-263.5"/>
<path fill="none" stroke="black" d="M189.38,-460.09C203.26,-422.17 235,-335.5 235,-335.5"/>
<path fill="none" stroke="black" d="M275,-261.5C275,-261.5 290,-244.5 290,-244.5 290,-244.5 374,-191.5 374,-191.5"/>
<path fill="none" stroke="black" d="M374,-189.5C374,-189.5 431.99,-159.43 471.95,-138.71"/>
<polygon fill="black" stroke="black" points="473.41,-141.38 480.68,-133.67 470.19,-135.16 473.41,-141.38"/>
</g>
<!-- nasalib/lnexp&#45;&gt;nasalib/reals -->
<g id="edge34" class="edge">
<title>nasalib/lnexp&#45;&gt;nasalib/reals</title>
<path fill="none" stroke="black" d="M235,-333.5C235,-333.5 250,-316.5 250,-316.5 250,-316.5 279.01,-299.61 304.27,-284.89"/>
<polygon fill="black" stroke="black" points="305.82,-287.46 312.7,-279.4 302.29,-281.41 305.82,-287.46"/>
</g>
<!-- nasalib/series -->
<g id="node16" class="node">
<title>nasalib/series</title>
<polygon fill="#fcfcd7" stroke="black" points="449,-424.5 395,-424.5 395,-388.5 449,-388.5 449,-424.5"/>
<text text-anchor="middle" x="422" y="-401.45" font-family="Times,serif" font-size="14.00">series</text>
</g>
<!-- nasalib/lnexp&#45;&gt;nasalib/series -->
<g id="edge35" class="edge">
<title>nasalib/lnexp&#45;&gt;nasalib/series</title>
<path fill="none" stroke="black" d="M210.42,-469.47C253.16,-456.95 335.8,-432.75 384.18,-418.58"/>
<polygon fill="black" stroke="black" points="384.92,-421.71 393.54,-415.54 382.96,-415 384.92,-421.71"/>
</g>
<!-- nasalib/measure_integration&#45;&gt;lib/finite_sets -->
<g id="edge36" class="edge">
<title>nasalib/measure_integration&#45;&gt;lib/finite_sets</title>
<path fill="none" stroke="black" d="M604.63,-676.15C655.96,-660.69 723,-640.5 723,-640.5 723,-640.5 739,-551.5 739,-551.5"/>
</g>
<!-- nasalib/measure_integration&#45;&gt;nasalib/metric_space -->
<g id="edge37" class="edge">
<title>nasalib/measure_integration&#45;&gt;nasalib/metric_space</title>
<path fill="none" stroke="black" d="M496.55,-676.02C467.07,-665.8 429.85,-652.9 399.68,-642.45"/>
<polygon fill="black" stroke="black" points="400.91,-638.83 390.32,-638.86 398.62,-645.44 400.91,-638.83"/>
</g>
<!-- nasalib/measure_integration&#45;&gt;nasalib/orders -->
<g id="edge38" class="edge">
<title>nasalib/measure_integration&#45;&gt;nasalib/orders</title>
<path fill="none" stroke="black" d="M575.81,-676.15C601.48,-660.69 635,-640.5 635,-640.5 635,-640.5 690,-551.5 690,-551.5"/>
<path fill="none" stroke="black" d="M690,-549.5C690,-549.5 653,-388.5 653,-388.5 653,-388.5 631.15,-327.8 617.9,-291"/>
<polygon fill="black" stroke="black" points="620.94,-290.1 614.26,-281.88 614.35,-292.48 620.94,-290.1"/>
</g>
<!-- nasalib/measure_integration&#45;&gt;nasalib/power -->
<g id="edge39" class="edge">
<title>nasalib/measure_integration&#45;&gt;nasalib/power</title>
<path fill="none" stroke="black" d="M524.32,-676.09C491.35,-650.79 430.12,-603.79 393.01,-575.3"/>
<polygon fill="black" stroke="black" points="395.64,-572.14 385.58,-568.83 391.38,-577.7 395.64,-572.14"/>
</g>
<!-- nasalib/measure_integration&#45;&gt;nasalib/reals -->
<g id="edge40" class="edge">
<title>nasalib/measure_integration&#45;&gt;nasalib/reals</title>
<path fill="none" stroke="black" d="M528,-621.5C528,-621.5 528,-479.5 528,-479.5"/>
<path fill="none" stroke="black" d="M528,-477.5C528,-477.5 488,-407.5 488,-407.5"/>
<path fill="none" stroke="black" d="M542.3,-676.2C536.68,-655.47 528,-623.5 528,-623.5"/>
</g>
<!-- nasalib/measure_integration&#45;&gt;nasalib/series -->
<g id="edge41" class="edge">
<title>nasalib/measure_integration&#45;&gt;nasalib/series</title>
<path fill="none" stroke="black" d="M539.14,-676.15C532.14,-660.69 523,-640.5 523,-640.5 523,-640.5 460.22,-495.68 433.66,-434.39"/>
<polygon fill="black" stroke="black" points="436.62,-433.42 429.43,-425.63 430.19,-436.2 436.62,-433.42"/>
</g>
<!-- nasalib/measure_integration&#45;&gt;nasalib/sets_aux -->
<g id="edge42" class="edge">
<title>nasalib/measure_integration&#45;&gt;nasalib/sets_aux</title>
<path fill="none" stroke="black" d="M569.27,-676.15C589.1,-660.69 615,-640.5 615,-640.5 615,-640.5 630,-623.5 630,-623.5"/>
<path fill="none" stroke="black" d="M630,-621.5C630,-621.5 620,-532.5 620,-532.5 620,-532.5 614.68,-519.68 609.27,-506.65"/>
<polygon fill="black" stroke="black" points="612.27,-505.75 605.2,-497.85 605.8,-508.43 612.27,-505.75"/>
</g>
<!-- nasalib/measure_integration&#45;&gt;nasalib/structures -->
<g id="edge43" class="edge">
<title>nasalib/measure_integration&#45;&gt;nasalib/structures</title>
<path fill="none" stroke="black" d="M528,-477.5C528,-477.5 548,-407.5 548,-407.5"/>
<path fill="none" stroke="black" d="M548,-405.5C548,-405.5 548,-335.5 548,-335.5"/>
</g>
<!-- nasalib/measure_integration&#45;&gt;nasalib/topology -->
<g id="edge44" class="edge">
<title>nasalib/measure_integration&#45;&gt;nasalib/topology</title>
<path fill="none" stroke="black" d="M528,-621.5C528,-621.5 545.51,-597.46 560.02,-577.56"/>
<polygon fill="black" stroke="black" points="563.33,-579.95 566.39,-569.8 557.68,-575.82 563.33,-579.95"/>
</g>
<!-- nasalib/metric_space&#45;&gt;lib/finite_sets -->
<g id="edge45" class="edge">
<title>nasalib/metric_space&#45;&gt;lib/finite_sets</title>
<path fill="none" stroke="black" d="M389.25,-608.53C397.19,-606.2 403,-604.5 403,-604.5 403,-604.5 695,-568.5 695,-568.5 695,-568.5 739,-551.5 739,-551.5"/>
<path fill="none" stroke="black" d="M739,-549.5C739,-549.5 739,-407.5 739,-407.5"/>
</g>
<!-- nasalib/metric_space&#45;&gt;nasalib/analysis -->
<g id="edge46" class="edge">
<title>nasalib/metric_space&#45;&gt;nasalib/analysis</title>
<path fill="none" stroke="black" d="M338.78,-604.15C333.24,-588.69 326,-568.5 326,-568.5 326,-568.5 326,-532.5 326,-532.5 326,-532.5 351,-496.5 351,-496.5 351,-496.5 356,-407.5 356,-407.5"/>
</g>
<!-- nasalib/metric_space&#45;&gt;nasalib/power -->
<g id="edge47" class="edge">
<title>nasalib/metric_space&#45;&gt;nasalib/power</title>
<path fill="none" stroke="black" d="M349.2,-604.2C351.03,-596.65 353.23,-587.62 355.28,-579.18"/>
<polygon fill="black" stroke="black" points="358.89,-580.15 357.85,-569.6 352.08,-578.5 358.89,-580.15"/>
</g>
<!-- nasalib/metric_space&#45;&gt;nasalib/reals -->
<g id="edge48" class="edge">
<title>nasalib/metric_space&#45;&gt;nasalib/reals</title>
<path fill="none" stroke="black" d="M308,-604.15C275.04,-588.69 232,-568.5 232,-568.5 232,-568.5 232,-532.5 232,-532.5 232,-532.5 318,-316.5 318,-316.5 318,-316.5 323.56,-303.68 329.22,-290.65"/>
<polygon fill="black" stroke="black" points="332.7,-292.42 333.47,-281.85 326.28,-289.63 332.7,-292.42"/>
</g>
<!-- nasalib/metric_space&#45;&gt;nasalib/series -->
<g id="edge49" class="edge">
<title>nasalib/metric_space&#45;&gt;nasalib/series</title>
<path fill="none" stroke="black" d="M362.35,-604.15C377.81,-588.69 398,-568.5 398,-568.5 398,-568.5 410.95,-481.61 417.83,-435.5"/>
<polygon fill="black" stroke="black" points="421.42,-436.14 419.43,-425.73 414.5,-435.1 421.42,-436.14"/>
</g>
<!-- nasalib/metric_space&#45;&gt;nasalib/sets_aux -->
<g id="edge50" class="edge">
<title>nasalib/metric_space&#45;&gt;nasalib/sets_aux</title>
<path fill="none" stroke="black" d="M376.02,-604.09C421.76,-578.41 507.32,-530.39 557.81,-502.05"/>
<polygon fill="black" stroke="black" points="559.11,-504.78 566.12,-496.83 555.69,-498.67 559.11,-504.78"/>
</g>
<!-- nasalib/metric_space&#45;&gt;nasalib/topology -->
<g id="edge51" class="edge">
<title>nasalib/metric_space&#45;&gt;nasalib/topology</title>
<path fill="none" stroke="black" d="M389.29,-608.25C431.46,-595.64 494.52,-576.77 536.19,-564.31"/>
<polygon fill="black" stroke="black" points="536.98,-567.42 545.56,-561.2 534.98,-560.72 536.98,-567.42"/>
</g>
<!-- nasalib/vectors -->
<g id="node21" class="node">
<title>nasalib/vectors</title>
<polygon fill="#fcfcd7" stroke="black" points="296.5,-568.5 241.5,-568.5 241.5,-532.5 296.5,-532.5 296.5,-568.5"/>
<text text-anchor="middle" x="269" y="-545.45" font-family="Times,serif" font-size="14.00">vectors</text>
</g>
<!-- nasalib/metric_space&#45;&gt;nasalib/vectors -->
<g id="edge52" class="edge">
<title>nasalib/metric_space&#45;&gt;nasalib/vectors</title>
<path fill="none" stroke="black" d="M326.21,-604.2C317.08,-595.78 305.93,-585.52 295.92,-576.29"/>
<polygon fill="black" stroke="black" points="298.56,-574.05 288.83,-569.85 293.82,-579.2 298.56,-574.05"/>
</g>
<!-- nasalib/mv_analysis&#45;&gt;nasalib/analysis -->
<g id="edge53" class="edge">
<title>nasalib/mv_analysis&#45;&gt;nasalib/analysis</title>
<path fill="none" stroke="black" d="M356,-405.5C356,-405.5 358.55,-383.16 360.77,-363.72"/>
<polygon fill="black" stroke="black" points="364.36,-364.14 362.02,-353.8 357.41,-363.34 364.36,-364.14"/>
<path fill="none" stroke="black" d="M117,-549.5C117,-549.5 147,-460.5 147,-460.5 147,-460.5 320,-424.5 320,-424.5 320,-424.5 356,-407.5 356,-407.5"/>
</g>
<!-- nasalib/mv_analysis&#45;&gt;nasalib/metric_space -->
<g id="edge54" class="edge">
<title>nasalib/mv_analysis&#45;&gt;nasalib/metric_space</title>
<path fill="none" stroke="black" d="M159.62,-680.42C196.53,-669.08 250.16,-652.62 290.25,-640.31"/>
<polygon fill="black" stroke="black" points="291.11,-643.4 299.65,-637.12 289.06,-636.71 291.11,-643.4"/>
</g>
<!-- nasalib/mv_analysis&#45;&gt;nasalib/reals -->
<g id="edge55" class="edge">
<title>nasalib/mv_analysis&#45;&gt;nasalib/reals</title>
<path fill="none" stroke="black" d="M117,-676.09C117,-638.17 117,-551.5 117,-551.5"/>
<path fill="none" stroke="black" d="M117,-549.5C117,-549.5 132,-460.5 132,-460.5 132,-460.5 142,-424.5 142,-424.5 142,-424.5 157,-335.5 157,-335.5"/>
</g>
<!-- nasalib/mv_analysis&#45;&gt;nasalib/structures -->
<g id="edge56" class="edge">
<title>nasalib/mv_analysis&#45;&gt;nasalib/structures</title>
<path fill="none" stroke="black" d="M117,-333.5C117,-333.5 152,-316.5 152,-316.5 152,-316.5 280,-280.5 280,-280.5 280,-280.5 305,-244.5 305,-244.5 305,-244.5 403.95,-218.79 464.02,-203.18"/>
<polygon fill="black" stroke="black" points="464.6,-206.39 473.39,-200.49 462.84,-199.62 464.6,-206.39"/>
<path fill="none" stroke="black" d="M111.23,-676.02C95.32,-627.8 52,-496.5 52,-496.5 52,-496.5 52,-460.5 52,-460.5 52,-460.5 117,-335.5 117,-335.5"/>
</g>
<!-- nasalib/orders&#45;&gt;lib/finite_sets -->
<g id="edge57" class="edge">
<title>nasalib/orders&#45;&gt;lib/finite_sets</title>
<path fill="none" stroke="black" d="M739,-189.5C739,-189.5 739,-119.5 739,-119.5"/>
<path fill="none" stroke="black" d="M635.25,-248.94C669.26,-233.27 723,-208.5 723,-208.5 723,-208.5 739,-191.5 739,-191.5"/>
</g>
<!-- nasalib/orders&#45;&gt;nasalib/structures -->
<g id="edge58" class="edge">
<title>nasalib/orders&#45;&gt;nasalib/structures</title>
<path fill="none" stroke="black" d="M583.27,-244.02C570.9,-235.26 555.73,-224.54 542.34,-215.08"/>
<polygon fill="black" stroke="black" points="544.6,-211.68 534.41,-208.76 540.56,-217.39 544.6,-211.68"/>
</g>
<!-- nasalib/power&#45;&gt;nasalib/analysis -->
<g id="edge59" class="edge">
<title>nasalib/power&#45;&gt;nasalib/analysis</title>
<path fill="none" stroke="black" d="M366.7,-532.2C372.32,-511.47 381,-479.5 381,-479.5"/>
<path fill="none" stroke="black" d="M381,-477.5C381,-477.5 356,-407.5 356,-407.5"/>
</g>
<!-- nasalib/power&#45;&gt;nasalib/lnexp -->
<g id="edge60" class="edge">
<title>nasalib/power&#45;&gt;nasalib/lnexp</title>
<path fill="none" stroke="black" d="M334.81,-538.87C304.32,-526.95 254.68,-507.53 220.51,-494.17"/>
<polygon fill="black" stroke="black" points="222.03,-490.61 211.44,-490.23 219.48,-497.13 222.03,-490.61"/>
</g>
<!-- nasalib/power&#45;&gt;nasalib/reals -->
<g id="edge61" class="edge">
<title>nasalib/power&#45;&gt;nasalib/reals</title>
<path fill="none" stroke="black" d="M381,-477.5C381,-477.5 386,-388.5 386,-388.5 386,-388.5 422,-335.5 422,-335.5"/>
<path fill="none" stroke="black" d="M422,-333.5C422,-333.5 403,-316.5 403,-316.5 403,-316.5 385.87,-301.86 369.62,-287.97"/>
<polygon fill="black" stroke="black" points="372.18,-284.69 362.3,-280.85 367.63,-290.01 372.18,-284.69"/>
</g>
<!-- nasalib/probability -->
<g id="node14" class="node">
<title>nasalib/probability</title>
<polygon fill="#fcfcd7" stroke="black" points="584.62,-784.5 509.38,-784.5 509.38,-748.5 584.62,-748.5 584.62,-784.5"/>
<text text-anchor="middle" x="547" y="-761.45" font-family="Times,serif" font-size="14.00">probability</text>
</g>
<!-- nasalib/probability&#45;&gt;nasalib/analysis -->
<g id="edge62" class="edge">
<title>nasalib/probability&#45;&gt;nasalib/analysis</title>
<path fill="none" stroke="black" d="M648,-477.5C648,-477.5 638,-460.5 638,-460.5 638,-460.5 483,-424.5 483,-424.5 483,-424.5 458,-388.5 458,-388.5 458,-388.5 429.06,-372.18 403.29,-357.65"/>
<polygon fill="black" stroke="black" points="405.43,-354.28 395,-352.42 401.99,-360.38 405.43,-354.28"/>
<path fill="none" stroke="black" d="M670,-693.5C670,-693.5 648,-479.5 648,-479.5"/>
</g>
<!-- nasalib/probability&#45;&gt;nasalib/measure_integration -->
<g id="edge63" class="edge">
<title>nasalib/probability&#45;&gt;nasalib/measure_integration</title>
<path fill="none" stroke="black" d="M547,-748.2C547,-740.74 547,-731.82 547,-723.47"/>
<polygon fill="black" stroke="black" points="550.5,-723.6 547,-713.6 543.5,-723.6 550.5,-723.6"/>
</g>
<!-- nasalib/probability&#45;&gt;nasalib/metric_space -->
<g id="edge64" class="edge">
<title>nasalib/probability&#45;&gt;nasalib/metric_space</title>
<path fill="none" stroke="black" d="M522.23,-748.09C486.17,-722.74 419.1,-675.59 378.61,-647.12"/>
<polygon fill="black" stroke="black" points="380.85,-643.72 370.66,-640.83 376.82,-649.45 380.85,-643.72"/>
</g>
<!-- nasalib/probability&#45;&gt;nasalib/reals -->
<g id="edge65" class="edge">
<title>nasalib/probability&#45;&gt;nasalib/reals</title>
<path fill="none" stroke="black" d="M648,-477.5C648,-477.5 638,-460.5 638,-460.5 638,-460.5 573,-388.5 573,-388.5 573,-388.5 442.96,-318.44 377.6,-283.22"/>
<polygon fill="black" stroke="black" points="379.53,-279.75 369.07,-278.08 376.21,-285.91 379.53,-279.75"/>
</g>
<!-- nasalib/probability&#45;&gt;nasalib/structures -->
<g id="edge66" class="edge">
<title>nasalib/probability&#45;&gt;nasalib/structures</title>
<path fill="none" stroke="black" d="M670,-693.5C670,-693.5 710,-551.5 710,-551.5 710,-551.5 710,-551.5 710,-333.5 710,-333.5 644,-244.5 644,-244.5 644,-244.5 592.95,-224.46 553.63,-209.02"/>
<polygon fill="black" stroke="black" points="555,-205.41 544.42,-205.01 552.44,-211.92 555,-205.41"/>
</g>
<!-- nasalib/probability&#45;&gt;nasalib/topology -->
<g id="edge67" class="edge">
<title>nasalib/probability&#45;&gt;nasalib/topology</title>
<path fill="none" stroke="black" d="M670,-693.5C670,-693.5 610,-623.5 610,-623.5"/>
<path fill="none" stroke="black" d="M577.72,-748.02C614.15,-727.28 670,-695.5 670,-695.5"/>
</g>
<!-- nasalib/reals&#45;&gt;nasalib/ints -->
<g id="edge68" class="edge">
<title>nasalib/reals&#45;&gt;nasalib/ints</title>
<path fill="none" stroke="black" d="M349.16,-244.2C358.93,-223.47 374,-191.5 374,-191.5"/>
</g>
<!-- nasalib/reals&#45;&gt;nasalib/structures -->
<g id="edge69" class="edge">
<title>nasalib/reals&#45;&gt;nasalib/structures</title>
<path fill="none" stroke="black" d="M368.37,-250.1C394.35,-239.27 433.85,-222.81 464.39,-210.09"/>
<polygon fill="black" stroke="black" points="465.48,-213.01 473.36,-205.93 462.79,-206.55 465.48,-213.01"/>
</g>
<!-- nasalib/series&#45;&gt;nasalib/analysis -->
<g id="edge70" class="edge">
<title>nasalib/series&#45;&gt;nasalib/analysis</title>
<path fill="none" stroke="black" d="M407.66,-388.2C400.85,-379.97 392.57,-369.98 385.06,-360.92"/>
<polygon fill="black" stroke="black" points="387.25,-359.07 378.17,-353.6 381.86,-363.54 387.25,-359.07"/>
</g>
<!-- nasalib/series&#45;&gt;nasalib/ints -->
<g id="edge71" class="edge">
<title>nasalib/series&#45;&gt;nasalib/ints</title>
<path fill="none" stroke="black" d="M423.64,-388.15C425.1,-372.69 427,-352.5 427,-352.5 427,-352.5 427,-316.5 427,-316.5 427,-316.5 374,-191.5 374,-191.5"/>
</g>
<!-- nasalib/series&#45;&gt;nasalib/orders -->
<g id="edge72" class="edge">
<title>nasalib/series&#45;&gt;nasalib/orders</title>
<path fill="none" stroke="black" d="M449.46,-394.39C487.88,-378.85 553,-352.5 553,-352.5 553,-352.5 575.54,-316.03 591.76,-289.78"/>
<polygon fill="black" stroke="black" points="595.12,-292.01 597.4,-281.66 589.16,-288.33 595.12,-292.01"/>
</g>
<!-- nasalib/series&#45;&gt;nasalib/reals -->
<g id="edge73" class="edge">
<title>nasalib/series&#45;&gt;nasalib/reals</title>
<path fill="none" stroke="black" d="M422,-388.2C422,-367.47 422,-335.5 422,-335.5"/>
</g>
<!-- nasalib/sets_aux&#45;&gt;lib/finite_sets -->
<g id="edge74" class="edge">
<title>nasalib/sets_aux&#45;&gt;lib/finite_sets</title>
<path fill="none" stroke="black" d="M629.64,-461.79C671.21,-441.15 739,-407.5 739,-407.5"/>
<path fill="none" stroke="black" d="M739,-405.5C739,-405.5 739,-263.5 739,-263.5"/>
</g>
<!-- nasalib/sets_aux&#45;&gt;nasalib/ints -->
<g id="edge75" class="edge">
<title>nasalib/sets_aux&#45;&gt;nasalib/ints</title>
<path fill="none" stroke="black" d="M568,-405.5C568,-405.5 608,-335.5 608,-335.5"/>
<path fill="none" stroke="black" d="M608,-333.5C608,-333.5 572,-280.5 572,-280.5 572,-280.5 552,-172.5 552,-172.5 552,-172.5 540.77,-158.65 529.78,-145.12"/>
<polygon fill="black" stroke="black" points="532.1,-143.41 523.08,-137.85 526.66,-147.82 532.1,-143.41"/>
</g>
<!-- nasalib/sets_aux&#45;&gt;nasalib/orders -->
<g id="edge76" class="edge">
<title>nasalib/sets_aux&#45;&gt;nasalib/orders</title>
<path fill="none" stroke="black" d="M608,-333.5C608,-333.5 608,-311.16 608,-291.72"/>
<polygon fill="black" stroke="black" points="611.5,-291.8 608,-281.8 604.5,-291.8 611.5,-291.8"/>
</g>
<!-- nasalib/sets_aux&#45;&gt;nasalib/structures -->
<g id="edge77" class="edge">
<title>nasalib/sets_aux&#45;&gt;nasalib/structures</title>
<path fill="none" stroke="black" d="M568,-405.5C568,-405.5 548,-335.5 548,-335.5"/>
<path fill="none" stroke="black" d="M590.58,-460.2C581.7,-439.47 568,-407.5 568,-407.5"/>
</g>
<!-- nasalib/structures&#45;&gt;lib/finite_sets -->
<g id="edge78" class="edge">
<title>nasalib/structures&#45;&gt;lib/finite_sets</title>
<path fill="none" stroke="black" d="M739,-117.5C739,-117.5 676.19,-82.25 632.68,-57.83"/>
<polygon fill="black" stroke="black" points="634.61,-54.34 624.17,-52.5 631.18,-60.44 634.61,-54.34"/>
<path fill="none" stroke="black" d="M543.43,-179.02C607.6,-159.49 739,-119.5 739,-119.5"/>
</g>
<!-- nasalib/structures&#45;&gt;nasalib/ints -->
<g id="edge79" class="edge">
<title>nasalib/structures&#45;&gt;nasalib/ints</title>
<path fill="none" stroke="black" d="M509,-172.2C509,-164.74 509,-155.82 509,-147.47"/>
<polygon fill="black" stroke="black" points="512.5,-147.6 509,-137.6 505.5,-147.6 512.5,-147.6"/>
</g>
<!-- nasalib/topology&#45;&gt;nasalib/reals -->
<g id="edge80" class="edge">
<title>nasalib/topology&#45;&gt;nasalib/reals</title>
<path fill="none" stroke="black" d="M571.34,-532.2C562.16,-511.47 548,-479.5 548,-479.5"/>
<path fill="none" stroke="black" d="M548,-477.5C548,-477.5 493,-388.5 493,-388.5 493,-388.5 422,-335.5 422,-335.5"/>
</g>
<!-- nasalib/topology&#45;&gt;nasalib/sets_aux -->
<g id="edge81" class="edge">
<title>nasalib/topology&#45;&gt;nasalib/sets_aux</title>
<path fill="none" stroke="black" d="M583.7,-532.2C585.74,-524.65 588.2,-515.62 590.49,-507.18"/>
<polygon fill="black" stroke="black" points="594.12,-508.17 593.36,-497.6 587.36,-506.34 594.12,-508.17"/>
</g>
<!-- nasalib/topology&#45;&gt;nasalib/structures -->
<g id="edge82" class="edge">
<title>nasalib/topology&#45;&gt;nasalib/structures</title>
<path fill="none" stroke="black" d="M548,-477.5C548,-477.5 548,-407.5 548,-407.5"/>
</g>
<!-- nasalib/trig -->
<g id="node20" class="node">
<title>nasalib/trig</title>
<polygon fill="#fcfcd7" stroke="black" points="342,-496.5 288,-496.5 288,-460.5 342,-460.5 342,-496.5"/>
<text text-anchor="middle" x="315" y="-473.45" font-family="Times,serif" font-size="14.00">trig</text>
</g>
<!-- nasalib/trig&#45;&gt;nasalib/analysis -->
<g id="edge83" class="edge">
<title>nasalib/trig&#45;&gt;nasalib/analysis</title>
<path fill="none" stroke="black" d="M325.13,-460.2C337.28,-439.47 356,-407.5 356,-407.5"/>
</g>
<!-- nasalib/trig&#45;&gt;nasalib/ints -->
<g id="edge84" class="edge">
<title>nasalib/trig&#45;&gt;nasalib/ints</title>
<path fill="none" stroke="black" d="M311.79,-460.35C302.3,-409.57 275,-263.5 275,-263.5"/>
</g>
<!-- nasalib/trig&#45;&gt;nasalib/reals -->
<g id="edge85" class="edge">
<title>nasalib/trig&#45;&gt;nasalib/reals</title>
<path fill="none" stroke="black" d="M315,-460.2C315,-439.47 315,-407.5 315,-407.5"/>
</g>
<!-- nasalib/trig&#45;&gt;nasalib/series -->
<g id="edge86" class="edge">
<title>nasalib/trig&#45;&gt;nasalib/series</title>
<path fill="none" stroke="black" d="M341.72,-460.02C355.36,-451.1 372.12,-440.13 386.8,-430.53"/>
<polygon fill="black" stroke="black" points="388.16,-433.16 394.62,-424.76 384.33,-427.31 388.16,-433.16"/>
</g>
<!-- nasalib/vectors&#45;&gt;nasalib/reals -->
<g id="edge87" class="edge">
<title>nasalib/vectors&#45;&gt;nasalib/reals</title>
<path fill="none" stroke="black" d="M270.93,-532.34C273.83,-506.48 279,-460.5 279,-460.5 279,-460.5 315,-407.5 315,-407.5"/>
<path fill="none" stroke="black" d="M315,-405.5C315,-405.5 325,-316.5 325,-316.5 325,-316.5 328.79,-303.93 332.69,-291.03"/>
<polygon fill="black" stroke="black" points="336.22,-292.44 335.76,-281.85 329.52,-290.42 336.22,-292.44"/>
</g>
<!-- nasalib/vectors&#45;&gt;nasalib/structures -->
<g id="edge88" class="edge">
<title>nasalib/vectors&#45;&gt;nasalib/structures</title>
<path fill="none" stroke="black" d="M296.92,-533.92C356.96,-500.41 493,-424.5 493,-424.5 493,-424.5 508,-407.5 508,-407.5"/>
<path fill="none" stroke="black" d="M548,-333.5C548,-333.5 528.03,-260.78 516.67,-219.42"/>
<polygon fill="black" stroke="black" points="519.81,-218.63 513.78,-209.91 513.06,-220.48 519.81,-218.63"/>
<path fill="none" stroke="black" d="M508,-405.5C508,-405.5 548,-335.5 548,-335.5"/>
</g>
<!-- nasalib/vectors&#45;&gt;nasalib/trig -->
<g id="edge89" class="edge">
<title>nasalib/vectors&#45;&gt;nasalib/trig</title>
<path fill="none" stroke="black" d="M280.37,-532.2C285.61,-524.23 291.93,-514.6 297.74,-505.76"/>
<polygon fill="black" stroke="black" points="301.19,-507.88 303.76,-497.6 295.34,-504.04 301.19,-507.88"/>
</g>
</g>
</svg>
