<?xml version="1.0" encoding="UTF-8" standalone="no"?>
<!DOCTYPE svg PUBLIC "-//W3C//DTD SVG 1.1//EN"
 "http://www.w3.org/Graphics/SVG/1.1/DTD/svg11.dtd">
<!-- Generated by graphviz version 8.1.0 (20230707.0739)
 -->
<!-- Title: metric_space&#45;zoomed Pages: 1 -->
<svg width="1938pt" height="478pt"
 viewBox="0.00 0.00 1938.00 477.50" xmlns="http://www.w3.org/2000/svg" xmlns:xlink="http://www.w3.org/1999/xlink">
<g id="graph0" class="graph" transform="scale(1 1) rotate(0) translate(4 473.5)">
<title>metric_space&#45;zoomed</title>
<polygon fill="white" stroke="none" points="-4,4 -4,-473.5 1934,-473.5 1934,4 -4,4"/>
<g id="clust2" class="cluster">
<title>cluster_NASALib/metric_space</title>
<polygon fill="none" stroke="black" points="8,-92.5 8,-461.5 1394,-461.5 1394,-92.5 8,-92.5"/>
<text text-anchor="middle" x="701" y="-444.2" font-family="Times,serif" font-size="14.00">NASALib/metric_space</text>
</g>
<g id="clust1" class="cluster">
<title>cluster_NASALib</title>
<polygon fill="none" stroke="black" points="1394,-8 1394,-84.5 1922,-84.5 1922,-8 1394,-8"/>
<text text-anchor="middle" x="1658" y="-67.2" font-family="Times,serif" font-size="14.00">NASALib</text>
</g>
<g id="clust3" class="cluster">
<title>cluster_PVS Prelude</title>
<polygon fill="none" stroke="black" points="1402,-164.5 1402,-241 1490,-241 1490,-164.5 1402,-164.5"/>
<text text-anchor="middle" x="1446" y="-223.7" font-family="Times,serif" font-size="14.00">PVS Prelude</text>
</g>
<!-- lib/finite_sets -->
<g id="node1" class="node">
<title>lib/finite_sets</title>
<polygon fill="#fcfcd7" stroke="black" points="1481.75,-208.5 1410.25,-208.5 1410.25,-172.5 1481.75,-172.5 1481.75,-208.5"/>
<text text-anchor="middle" x="1446" y="-185.45" font-family="Times,serif" font-size="14.00">finite_sets</text>
</g>
<!-- nasalib/analysis -->
<g id="node2" class="node">
<title>nasalib/analysis</title>
<polygon fill="#fcfcd7" stroke="black" points="1695.75,-52 1636.25,-52 1636.25,-16 1695.75,-16 1695.75,-52"/>
<text text-anchor="middle" x="1666" y="-28.95" font-family="Times,serif" font-size="14.00">analysis</text>
</g>
<!-- nasalib/metric_space@banach -->
<g id="node3" class="node">
<title>nasalib/metric_space@banach</title>
<ellipse fill="#e6f3ff" stroke="black" cx="182" cy="-190.5" rx="37.02" ry="18"/>
<text text-anchor="middle" x="182" y="-185.45" font-family="Times,serif" font-size="14.00">banach</text>
</g>
<!-- nasalib/metric_space@metric_def -->
<g id="node15" class="node">
<title>nasalib/metric_space@metric_def</title>
<ellipse fill="#e6f3ff" stroke="black" cx="640" cy="-118.5" rx="51.35" ry="18"/>
<text text-anchor="middle" x="640" y="-113.45" font-family="Times,serif" font-size="14.00">metric_def</text>
</g>
<!-- nasalib/metric_space@banach&#45;&gt;nasalib/metric_space@metric_def -->
<g id="edge1" class="edge">
<title>nasalib/metric_space@banach&#45;&gt;nasalib/metric_space@metric_def</title>
<path fill="none" stroke="black" d="M206.08,-176.41C217.21,-170.37 228,-164.5 228,-164.5 228,-164.5 466.95,-138.4 580.9,-125.95"/>
<polygon fill="black" stroke="black" points="580.97,-129.36 590.53,-124.79 580.21,-122.4 580.97,-129.36"/>
</g>
<!-- nasalib/metric_space@metric_space_def -->
<g id="node18" class="node">
<title>nasalib/metric_space@metric_space_def</title>
<ellipse fill="#e6f3ff" stroke="black" cx="251" cy="-118.5" rx="76.43" ry="18"/>
<text text-anchor="middle" x="251" y="-113.45" font-family="Times,serif" font-size="14.00">metric_space_def</text>
</g>
<!-- nasalib/metric_space@banach&#45;&gt;nasalib/metric_space@metric_space_def -->
<g id="edge2" class="edge">
<title>nasalib/metric_space@banach&#45;&gt;nasalib/metric_space@metric_space_def</title>
<path fill="none" stroke="black" d="M197.31,-173.96C205.96,-165.19 216.96,-154.03 226.76,-144.1"/>
<polygon fill="black" stroke="black" points="228.75,-147.04 233.28,-137.46 223.77,-142.13 228.75,-147.04"/>
</g>
<!-- nasalib/series -->
<g id="node26" class="node">
<title>nasalib/series</title>
<polygon fill="#fcfcd7" stroke="black" points="1456,-52 1402,-52 1402,-16 1456,-16 1456,-52"/>
<text text-anchor="middle" x="1429" y="-28.95" font-family="Times,serif" font-size="14.00">series</text>
</g>
<!-- nasalib/metric_space@banach&#45;&gt;nasalib/series -->
<g id="edge3" class="edge">
<title>nasalib/metric_space@banach&#45;&gt;nasalib/series</title>
<path fill="none" stroke="black" d="M206.08,-176.41C217.21,-170.37 228,-164.5 228,-164.5 228,-164.5 700,-136.5 700,-136.5 700,-136.5 1241.95,-61.04 1391.29,-40.25"/>
<polygon fill="black" stroke="black" points="1391.33,-43.64 1400.75,-38.79 1390.37,-36.71 1391.33,-43.64"/>
</g>
<!-- nasalib/metric_space@complete_product -->
<g id="node4" class="node">
<title>nasalib/metric_space@complete_product</title>
<ellipse fill="#e6f3ff" stroke="black" cx="315" cy="-190.5" rx="77.97" ry="18"/>
<text text-anchor="middle" x="315" y="-185.45" font-family="Times,serif" font-size="14.00">complete_product</text>
</g>
<!-- nasalib/metric_space@complete_product&#45;&gt;nasalib/metric_space@metric_def -->
<g id="edge4" class="edge">
<title>nasalib/metric_space@complete_product&#45;&gt;nasalib/metric_space@metric_def</title>
<path fill="none" stroke="black" d="M364.23,-176.12C386.11,-170.18 407,-164.5 407,-164.5 407,-164.5 516.04,-143.44 584.94,-130.13"/>
<polygon fill="black" stroke="black" points="585.47,-133.4 594.63,-128.07 584.14,-126.53 585.47,-133.4"/>
</g>
<!-- nasalib/metric_space@complete_product&#45;&gt;nasalib/metric_space@metric_space_def -->
<g id="edge5" class="edge">
<title>nasalib/metric_space@complete_product&#45;&gt;nasalib/metric_space@metric_space_def</title>
<path fill="none" stroke="black" d="M299.51,-172.55C291.72,-164.04 282.15,-153.57 273.57,-144.18"/>
<polygon fill="black" stroke="black" points="276.68,-142.31 267.35,-137.29 271.51,-147.03 276.68,-142.31"/>
</g>
<!-- nasalib/reals -->
<g id="node25" class="node">
<title>nasalib/reals</title>
<polygon fill="#fcfcd7" stroke="black" points="1768,-52 1714,-52 1714,-16 1768,-16 1768,-52"/>
<text text-anchor="middle" x="1741" y="-28.95" font-family="Times,serif" font-size="14.00">reals</text>
</g>
<!-- nasalib/metric_space@complete_product&#45;&gt;nasalib/reals -->
<g id="edge6" class="edge">
<title>nasalib/metric_space@complete_product&#45;&gt;nasalib/reals</title>
<path fill="none" stroke="black" d="M368.5,-177C395.25,-170.75 422,-164.5 422,-164.5 422,-164.5 864,-136.5 864,-136.5 864,-136.5 1330,-92.5 1330,-92.5 1330,-92.5 1705,-84.5 1705,-84.5 1705,-84.5 1713.44,-72.9 1722.14,-60.93"/>
<polygon fill="black" stroke="black" points="1725.36,-63.46 1728.41,-53.31 1719.7,-59.34 1725.36,-63.46"/>
</g>
<!-- nasalib/metric_space@composition_continuous -->
<g id="node5" class="node">
<title>nasalib/metric_space@composition_continuous</title>
<ellipse fill="#e6f3ff" stroke="black" cx="847" cy="-339" rx="102.02" ry="18"/>
<text text-anchor="middle" x="847" y="-333.95" font-family="Times,serif" font-size="14.00">composition_continuous</text>
</g>
<!-- nasalib/metric_space@metric_continuity -->
<g id="node14" class="node">
<title>nasalib/metric_space@metric_continuity</title>
<ellipse fill="#e6f3ff" stroke="black" cx="920" cy="-267" rx="76.94" ry="18"/>
<text text-anchor="middle" x="920" y="-261.95" font-family="Times,serif" font-size="14.00">metric_continuity</text>
</g>
<!-- nasalib/metric_space@composition_continuous&#45;&gt;nasalib/metric_space@metric_continuity -->
<g id="edge7" class="edge">
<title>nasalib/metric_space@composition_continuous&#45;&gt;nasalib/metric_space@metric_continuity</title>
<path fill="none" stroke="black" d="M864.67,-321.05C873.64,-312.46 884.69,-301.86 894.56,-292.4"/>
<polygon fill="black" stroke="black" points="896.7,-295.24 901.49,-285.79 891.85,-290.18 896.7,-295.24"/>
</g>
<!-- nasalib/metric_space@composition_continuous&#45;&gt;nasalib/metric_space@metric_def -->
<g id="edge8" class="edge">
<title>nasalib/metric_space@composition_continuous&#45;&gt;nasalib/metric_space@metric_def</title>
<path fill="none" stroke="black" d="M1101,-266C1101,-266 1101,-191.5 1101,-191.5"/>
<path fill="none" stroke="black" d="M900.56,-323.24C975.08,-302.7 1101,-268 1101,-268"/>
</g>
<!-- nasalib/metric_space@metric_space -->
<g id="node17" class="node">
<title>nasalib/metric_space@metric_space</title>
<ellipse fill="#e6f3ff" stroke="black" cx="719" cy="-190.5" rx="60.05" ry="18"/>
<text text-anchor="middle" x="719" y="-185.45" font-family="Times,serif" font-size="14.00">metric_space</text>
</g>
<!-- nasalib/metric_space@composition_continuous&#45;&gt;nasalib/metric_space@metric_space -->
<g id="edge9" class="edge">
<title>nasalib/metric_space@composition_continuous&#45;&gt;nasalib/metric_space@metric_space</title>
<path fill="none" stroke="black" d="M796.75,-322.95C744.42,-307.28 670,-285 670,-285 670,-285 660,-268 660,-268"/>
</g>
<!-- nasalib/metric_space@composition_uniform_continuity -->
<g id="node6" class="node">
<title>nasalib/metric_space@composition_uniform_continuity</title>
<ellipse fill="#e6f3ff" stroke="black" cx="1101" cy="-339" rx="133.75" ry="18"/>
<text text-anchor="middle" x="1101" y="-333.95" font-family="Times,serif" font-size="14.00">composition_uniform_continuity</text>
</g>
<!-- nasalib/metric_space@composition_uniform_continuity&#45;&gt;nasalib/metric_space@metric_continuity -->
<g id="edge10" class="edge">
<title>nasalib/metric_space@composition_uniform_continuity&#45;&gt;nasalib/metric_space@metric_continuity</title>
<path fill="none" stroke="black" d="M1058.56,-321.59C1031.67,-311.19 996.8,-297.7 968.77,-286.86"/>
<polygon fill="black" stroke="black" points="970.36,-283.34 959.77,-283 967.84,-289.87 970.36,-283.34"/>
</g>
<!-- nasalib/metric_space@composition_uniform_continuity&#45;&gt;nasalib/metric_space@metric_def -->
<g id="edge11" class="edge">
<title>nasalib/metric_space@composition_uniform_continuity&#45;&gt;nasalib/metric_space@metric_def</title>
<path fill="none" stroke="black" d="M1101,-320.7C1101,-299.97 1101,-268 1101,-268"/>
</g>
<!-- nasalib/metric_space@continuity_link -->
<g id="node7" class="node">
<title>nasalib/metric_space@continuity_link</title>
<ellipse fill="#e6f3ff" stroke="black" cx="660" cy="-339" rx="67.22" ry="18"/>
<text text-anchor="middle" x="660" y="-333.95" font-family="Times,serif" font-size="14.00">continuity_link</text>
</g>
<!-- nasalib/metric_space@continuity_link&#45;&gt;nasalib/analysis -->
<g id="edge12" class="edge">
<title>nasalib/metric_space@continuity_link&#45;&gt;nasalib/analysis</title>
<path fill="none" stroke="black" d="M710.27,-326.76C724.4,-323.59 736,-321 736,-321 736,-321 1106,-285 1106,-285 1106,-285 1545,-241 1545,-241 1545,-241 1586,-119.5 1586,-119.5"/>
<path fill="none" stroke="black" d="M1586,-117.5C1586,-117.5 1627,-84.5 1627,-84.5 1627,-84.5 1636.14,-72.9 1645.57,-60.93"/>
<polygon fill="black" stroke="black" points="1648.92,-63.33 1652.36,-53.31 1643.42,-59 1648.92,-63.33"/>
</g>
<!-- nasalib/metric_space@continuity_link&#45;&gt;nasalib/metric_space@metric_continuity -->
<g id="edge13" class="edge">
<title>nasalib/metric_space@continuity_link&#45;&gt;nasalib/metric_space@metric_continuity</title>
<path fill="none" stroke="black" d="M706.18,-325.57C749.23,-313.98 813.66,-296.63 860.54,-284.01"/>
<polygon fill="black" stroke="black" points="861.41,-287.13 870.16,-281.15 859.59,-280.37 861.41,-287.13"/>
</g>
<!-- nasalib/metric_space@continuity_link&#45;&gt;nasalib/metric_space@metric_space -->
<g id="edge14" class="edge">
<title>nasalib/metric_space@continuity_link&#45;&gt;nasalib/metric_space@metric_space</title>
<path fill="none" stroke="black" d="M660,-320.7C660,-299.97 660,-268 660,-268"/>
</g>
<!-- nasalib/metric_space@continuity_link&#45;&gt;nasalib/metric_space@metric_space_def -->
<g id="edge15" class="edge">
<title>nasalib/metric_space@continuity_link&#45;&gt;nasalib/metric_space@metric_space_def</title>
<path fill="none" stroke="black" d="M126,-189.5C126,-189.5 136,-164.5 136,-164.5 136,-164.5 171.22,-150.72 202.67,-138.41"/>
<polygon fill="black" stroke="black" points="203.67,-141.39 211.71,-134.48 201.12,-134.87 203.67,-141.39"/>
<path fill="none" stroke="black" d="M613.58,-325.57C555.05,-309.91 462,-285 462,-285 462,-285 442,-249 442,-249 442,-249 136,-241 136,-241 136,-241 126,-191.5 126,-191.5"/>
</g>
<!-- nasalib/topology -->
<g id="node28" class="node">
<title>nasalib/topology</title>
<polygon fill="#fcfcd7" stroke="black" points="1618,-52 1554,-52 1554,-16 1618,-16 1618,-52"/>
<text text-anchor="middle" x="1586" y="-28.95" font-family="Times,serif" font-size="14.00">topology</text>
</g>
<!-- nasalib/metric_space@continuity_link&#45;&gt;nasalib/topology -->
<g id="edge16" class="edge">
<title>nasalib/metric_space@continuity_link&#45;&gt;nasalib/topology</title>
<path fill="none" stroke="black" d="M1586,-117.5C1586,-117.5 1586,-87.1 1586,-63.21"/>
<polygon fill="black" stroke="black" points="1589.5,-63.5 1586,-53.5 1582.5,-63.5 1589.5,-63.5"/>
</g>
<!-- nasalib/metric_space@continuity_subspace -->
<g id="node8" class="node">
<title>nasalib/metric_space@continuity_subspace</title>
<ellipse fill="#e6f3ff" stroke="black" cx="489" cy="-339" rx="86.15" ry="18"/>
<text text-anchor="middle" x="489" y="-333.95" font-family="Times,serif" font-size="14.00">continuity_subspace</text>
</g>
<!-- nasalib/metric_space@continuity_subspace&#45;&gt;nasalib/metric_space@metric_continuity -->
<g id="edge17" class="edge">
<title>nasalib/metric_space@continuity_subspace&#45;&gt;nasalib/metric_space@metric_continuity</title>
<path fill="none" stroke="black" d="M552.89,-326.57C570.08,-323.49 584,-321 584,-321 584,-321 834,-285 834,-285 834,-285 841.54,-283.51 852.15,-281.41"/>
<polygon fill="black" stroke="black" points="852.51,-284.71 861.64,-279.34 851.15,-277.84 852.51,-284.71"/>
</g>
<!-- nasalib/metric_space@continuity_subspace&#45;&gt;nasalib/metric_space@metric_def -->
<g id="edge18" class="edge">
<title>nasalib/metric_space@continuity_subspace&#45;&gt;nasalib/metric_space@metric_def</title>
<path fill="none" stroke="black" d="M529.4,-322.81C571.07,-307.15 630,-285 630,-285 630,-285 640,-191.5 640,-191.5"/>
</g>
<!-- nasalib/metric_space@continuity_subspace&#45;&gt;nasalib/metric_space@metric_space -->
<g id="edge19" class="edge">
<title>nasalib/metric_space@continuity_subspace&#45;&gt;nasalib/metric_space@metric_space</title>
<path fill="none" stroke="black" d="M532.87,-323.1C579.01,-307.42 645,-285 645,-285 645,-285 660,-268 660,-268"/>
</g>
<!-- nasalib/metric_space@continuity_subspace&#45;&gt;nasalib/topology -->
<g id="edge20" class="edge">
<title>nasalib/metric_space@continuity_subspace&#45;&gt;nasalib/topology</title>
<path fill="none" stroke="black" d="M552.89,-326.57C570.08,-323.49 584,-321 584,-321 584,-321 1106,-285 1106,-285 1106,-285 1545,-241 1545,-241 1545,-241 1600,-136.5 1600,-136.5 1600,-136.5 1600,-92.5 1600,-92.5 1600,-92.5 1596.32,-77.41 1592.74,-62.68"/>
<polygon fill="black" stroke="black" points="1595.97,-62.14 1590.2,-53.25 1589.17,-63.8 1595.97,-62.14"/>
</g>
<!-- nasalib/metric_space@convergence_aux -->
<g id="node9" class="node">
<title>nasalib/metric_space@convergence_aux</title>
<ellipse fill="#e6f3ff" stroke="black" cx="546" cy="-267" rx="75.41" ry="18"/>
<text text-anchor="middle" x="546" y="-261.95" font-family="Times,serif" font-size="14.00">convergence_aux</text>
</g>
<!-- nasalib/metric_space@convergence_aux&#45;&gt;nasalib/metric_space@metric_def -->
<g id="edge21" class="edge">
<title>nasalib/metric_space@convergence_aux&#45;&gt;nasalib/metric_space@metric_def</title>
<path fill="none" stroke="black" d="M640,-189.5C640,-189.5 640,-167.16 640,-147.72"/>
<polygon fill="black" stroke="black" points="643.5,-147.8 640,-137.8 636.5,-147.8 643.5,-147.8"/>
<path fill="none" stroke="black" d="M591.93,-252.33C611.54,-246.49 630,-241 630,-241 630,-241 640,-191.5 640,-191.5"/>
</g>
<!-- nasalib/metric_space@metric_def_real_props -->
<g id="node16" class="node">
<title>nasalib/metric_space@metric_def_real_props</title>
<ellipse fill="#e6f3ff" stroke="black" cx="526" cy="-190.5" rx="94.86" ry="18"/>
<text text-anchor="middle" x="526" y="-185.45" font-family="Times,serif" font-size="14.00">metric_def_real_props</text>
</g>
<!-- nasalib/metric_space@convergence_aux&#45;&gt;nasalib/metric_space@metric_def_real_props -->
<g id="edge22" class="edge">
<title>nasalib/metric_space@convergence_aux&#45;&gt;nasalib/metric_space@metric_def_real_props</title>
<path fill="none" stroke="black" d="M541.36,-248.72C539.03,-240.04 536.15,-229.3 533.51,-219.48"/>
<polygon fill="black" stroke="black" points="536.66,-218.69 530.68,-209.94 529.9,-220.51 536.66,-218.69"/>
</g>
<!-- nasalib/metric_space@convergence_aux&#45;&gt;nasalib/metric_space@metric_space -->
<g id="edge23" class="edge">
<title>nasalib/metric_space@convergence_aux&#45;&gt;nasalib/metric_space@metric_space</title>
<path fill="none" stroke="black" d="M596.37,-253.28C620.83,-247.1 645,-241 645,-241 645,-241 666.47,-226.64 686.28,-213.39"/>
<polygon fill="black" stroke="black" points="687.81,-215.9 694.18,-207.43 683.92,-210.09 687.81,-215.9"/>
</g>
<!-- nasalib/metric_space@convergence_aux&#45;&gt;nasalib/metric_space@metric_space_def -->
<g id="edge24" class="edge">
<title>nasalib/metric_space@convergence_aux&#45;&gt;nasalib/metric_space@metric_space_def</title>
<path fill="none" stroke="black" d="M488.38,-254.99C471.27,-251.73 457,-249 457,-249 457,-249 136,-241 136,-241 136,-241 126,-191.5 126,-191.5"/>
</g>
<!-- nasalib/metric_space@convergence_aux&#45;&gt;nasalib/reals -->
<g id="edge25" class="edge">
<title>nasalib/metric_space@convergence_aux&#45;&gt;nasalib/reals</title>
<path fill="none" stroke="black" d="M610.18,-257.2C640.44,-253.05 670,-249 670,-249 670,-249 1106,-241 1106,-241 1106,-241 1572,-92.5 1572,-92.5 1572,-92.5 1705,-84.5 1705,-84.5 1705,-84.5 1713.44,-72.9 1722.14,-60.93"/>
<polygon fill="black" stroke="black" points="1725.36,-63.46 1728.41,-53.31 1719.7,-59.34 1725.36,-63.46"/>
</g>
<!-- nasalib/metric_space@countable_cross -->
<g id="node10" class="node">
<title>nasalib/metric_space@countable_cross</title>
<ellipse fill="#e6f3ff" stroke="black" cx="86" cy="-118.5" rx="70.29" ry="18"/>
<text text-anchor="middle" x="86" y="-113.45" font-family="Times,serif" font-size="14.00">countable_cross</text>
</g>
<!-- nasalib/sets_aux -->
<g id="node27" class="node">
<title>nasalib/sets_aux</title>
<polygon fill="#fcfcd7" stroke="black" points="1536.25,-52 1473.75,-52 1473.75,-16 1536.25,-16 1536.25,-52"/>
<text text-anchor="middle" x="1505" y="-28.95" font-family="Times,serif" font-size="14.00">sets_aux</text>
</g>
<!-- nasalib/metric_space@countable_cross&#45;&gt;nasalib/sets_aux -->
<g id="edge26" class="edge">
<title>nasalib/metric_space@countable_cross&#45;&gt;nasalib/sets_aux</title>
<path fill="none" stroke="black" d="M129.28,-103.98C148.13,-98.09 166,-92.5 166,-92.5 166,-92.5 1465,-84.5 1465,-84.5 1465,-84.5 1474.56,-72.67 1484.33,-60.58"/>
<polygon fill="black" stroke="black" points="1487.45,-63.29 1491.01,-53.31 1482,-58.89 1487.45,-63.29"/>
</g>
<!-- nasalib/metric_space@countable_cross&#45;&gt;nasalib/topology -->
<g id="edge27" class="edge">
<title>nasalib/metric_space@countable_cross&#45;&gt;nasalib/topology</title>
<path fill="none" stroke="black" d="M129.28,-103.98C148.13,-98.09 166,-92.5 166,-92.5 166,-92.5 1545,-84.5 1545,-84.5 1545,-84.5 1554.79,-72.67 1564.81,-60.58"/>
<polygon fill="black" stroke="black" points="1567.98,-63.25 1571.66,-53.31 1562.59,-58.78 1567.98,-63.25"/>
</g>
<!-- nasalib/metric_space@euclidean -->
<g id="node11" class="node">
<title>nasalib/metric_space@euclidean</title>
<ellipse fill="#e6f3ff" stroke="black" cx="153" cy="-339" rx="46.23" ry="18"/>
<text text-anchor="middle" x="153" y="-333.95" font-family="Times,serif" font-size="14.00">euclidean</text>
</g>
<!-- nasalib/metric_space@euclidean&#45;&gt;nasalib/metric_space@complete_product -->
<g id="edge28" class="edge">
<title>nasalib/metric_space@euclidean&#45;&gt;nasalib/metric_space@complete_product</title>
<path fill="none" stroke="black" d="M290,-266C290,-266 298.65,-240.23 305.77,-219"/>
<polygon fill="black" stroke="black" points="309.34,-220.37 309.2,-209.78 302.7,-218.15 309.34,-220.37"/>
</g>
<!-- nasalib/metric_space@euclidean&#45;&gt;nasalib/metric_space@countable_cross -->
<g id="edge29" class="edge">
<title>nasalib/metric_space@euclidean&#45;&gt;nasalib/metric_space@countable_cross</title>
<path fill="none" stroke="black" d="M86,-189.5C86,-189.5 86,-167.16 86,-147.72"/>
<polygon fill="black" stroke="black" points="89.5,-147.8 86,-137.8 82.5,-147.8 89.5,-147.8"/>
</g>
<!-- nasalib/metric_space@euclidean&#45;&gt;nasalib/metric_space@metric_def -->
<g id="edge30" class="edge">
<title>nasalib/metric_space@euclidean&#45;&gt;nasalib/metric_space@metric_def</title>
<path fill="none" stroke="black" d="M290,-266C290,-266 300,-249 300,-249 300,-249 402,-241 402,-241 402,-241 412,-191.5 412,-191.5"/>
<path fill="none" stroke="black" d="M412,-189.5C412,-189.5 422,-164.5 422,-164.5 422,-164.5 521.41,-143.98 585.97,-130.65"/>
<polygon fill="black" stroke="black" points="586.32,-133.95 595.41,-128.5 584.91,-127.09 586.32,-133.95"/>
</g>
<!-- nasalib/metric_space@euclidean&#45;&gt;nasalib/metric_space@metric_space -->
<g id="edge31" class="edge">
<title>nasalib/metric_space@euclidean&#45;&gt;nasalib/metric_space@metric_space</title>
<path fill="none" stroke="black" d="M660,-266C660,-266 670,-249 670,-249 670,-249 684.32,-232.2 697.47,-216.76"/>
<polygon fill="black" stroke="black" points="700.74,-219.32 704.56,-209.44 695.41,-214.78 700.74,-219.32"/>
<path fill="none" stroke="black" d="M188.45,-327.04C199.1,-323.75 208,-321 208,-321 208,-321 630,-285 630,-285 630,-285 660,-268 660,-268"/>
</g>
<!-- nasalib/metric_space@euclidean&#45;&gt;nasalib/metric_space@metric_space_def -->
<g id="edge32" class="edge">
<title>nasalib/metric_space@euclidean&#45;&gt;nasalib/metric_space@metric_space_def</title>
<path fill="none" stroke="black" d="M86,-189.5C86,-189.5 101,-164.5 101,-164.5 101,-164.5 152.27,-149.12 194.86,-136.34"/>
<polygon fill="black" stroke="black" points="195.61,-139.47 204.18,-133.25 193.6,-132.77 195.61,-139.47"/>
<path fill="none" stroke="black" d="M180.07,-324.17C219.99,-303.77 290,-268 290,-268"/>
<path fill="none" stroke="black" d="M290,-266C290,-266 101,-241 101,-241 101,-241 86,-191.5 86,-191.5"/>
</g>
<!-- nasalib/metric_space@real_topology -->
<g id="node21" class="node">
<title>nasalib/metric_space@real_topology</title>
<ellipse fill="#e6f3ff" stroke="black" cx="371" cy="-267" rx="62.1" ry="18"/>
<text text-anchor="middle" x="371" y="-261.95" font-family="Times,serif" font-size="14.00">real_topology</text>
</g>
<!-- nasalib/metric_space@euclidean&#45;&gt;nasalib/metric_space@real_topology -->
<g id="edge33" class="edge">
<title>nasalib/metric_space@euclidean&#45;&gt;nasalib/metric_space@real_topology</title>
<path fill="none" stroke="black" d="M188.03,-326.75C223.79,-315.27 279.67,-297.33 320.27,-284.29"/>
<polygon fill="black" stroke="black" points="321.05,-287.39 329.5,-281 318.91,-280.73 321.05,-287.39"/>
</g>
<!-- nasalib/metric_space@euclidean&#45;&gt;nasalib/reals -->
<g id="edge34" class="edge">
<title>nasalib/metric_space@euclidean&#45;&gt;nasalib/reals</title>
<path fill="none" stroke="black" d="M1663,-117.5C1663,-117.5 1705,-84.5 1705,-84.5 1705,-84.5 1713.44,-72.9 1722.14,-60.93"/>
<polygon fill="black" stroke="black" points="1725.36,-63.46 1728.41,-53.31 1719.7,-59.34 1725.36,-63.46"/>
<path fill="none" stroke="black" d="M188.45,-327.04C199.1,-323.75 208,-321 208,-321 208,-321 1106,-285 1106,-285 1106,-285 1545,-241 1545,-241 1545,-241 1663,-119.5 1663,-119.5"/>
</g>
<!-- nasalib/metric_space@euclidean&#45;&gt;nasalib/sets_aux -->
<g id="edge35" class="edge">
<title>nasalib/metric_space@euclidean&#45;&gt;nasalib/sets_aux</title>
<path fill="none" stroke="black" d="M1663,-117.5C1663,-117.5 1600,-92.5 1600,-92.5 1600,-92.5 1545,-84.5 1545,-84.5 1545,-84.5 1535.44,-72.67 1525.67,-60.58"/>
<polygon fill="black" stroke="black" points="1528,-58.89 1518.99,-53.31 1522.55,-63.29 1528,-58.89"/>
</g>
<!-- nasalib/vectors -->
<g id="node29" class="node">
<title>nasalib/vectors</title>
<polygon fill="#fcfcd7" stroke="black" points="1841.5,-52 1786.5,-52 1786.5,-16 1841.5,-16 1841.5,-52"/>
<text text-anchor="middle" x="1814" y="-28.95" font-family="Times,serif" font-size="14.00">vectors</text>
</g>
<!-- nasalib/metric_space@euclidean&#45;&gt;nasalib/vectors -->
<g id="edge36" class="edge">
<title>nasalib/metric_space@euclidean&#45;&gt;nasalib/vectors</title>
<path fill="none" stroke="black" d="M1663,-117.5C1663,-117.5 1727,-92.5 1727,-92.5 1727,-92.5 1777,-84.5 1777,-84.5 1777,-84.5 1785.67,-72.9 1794.62,-60.93"/>
<polygon fill="black" stroke="black" points="1797.88,-63.42 1801.06,-53.31 1792.27,-59.23 1797.88,-63.42"/>
</g>
<!-- nasalib/metric_space@heine_borel -->
<g id="node12" class="node">
<title>nasalib/metric_space@heine_borel</title>
<ellipse fill="#e6f3ff" stroke="black" cx="291" cy="-411" rx="54.42" ry="18"/>
<text text-anchor="middle" x="291" y="-405.95" font-family="Times,serif" font-size="14.00">heine_borel</text>
</g>
<!-- nasalib/metric_space@heine_borel_scaf -->
<g id="node13" class="node">
<title>nasalib/metric_space@heine_borel_scaf</title>
<ellipse fill="#e6f3ff" stroke="black" cx="291" cy="-339" rx="73.87" ry="18"/>
<text text-anchor="middle" x="291" y="-333.95" font-family="Times,serif" font-size="14.00">heine_borel_scaf</text>
</g>
<!-- nasalib/metric_space@heine_borel&#45;&gt;nasalib/metric_space@heine_borel_scaf -->
<g id="edge39" class="edge">
<title>nasalib/metric_space@heine_borel&#45;&gt;nasalib/metric_space@heine_borel_scaf</title>
<path fill="none" stroke="black" d="M291,-392.7C291,-385.24 291,-376.32 291,-367.97"/>
<polygon fill="black" stroke="black" points="294.5,-368.1 291,-358.1 287.5,-368.1 294.5,-368.1"/>
</g>
<!-- nasalib/metric_space@heine_borel_scaf&#45;&gt;nasalib/metric_space@real_topology -->
<g id="edge37" class="edge">
<title>nasalib/metric_space@heine_borel_scaf&#45;&gt;nasalib/metric_space@real_topology</title>
<path fill="none" stroke="black" d="M309.96,-321.41C320.12,-312.52 332.82,-301.41 343.99,-291.63"/>
<polygon fill="black" stroke="black" points="345.96,-293.69 351.18,-284.47 341.35,-288.42 345.96,-293.69"/>
</g>
<!-- nasalib/metric_space@heine_borel_scaf&#45;&gt;nasalib/reals -->
<g id="edge38" class="edge">
<title>nasalib/metric_space@heine_borel_scaf&#45;&gt;nasalib/reals</title>
<path fill="none" stroke="black" d="M350.92,-328.11C373.57,-324.37 394,-321 394,-321 394,-321 1677,-285 1677,-285 1677,-285 1717.34,-127.42 1733.97,-62.48"/>
<polygon fill="black" stroke="black" points="1737.51,-63.74 1736.6,-53.18 1730.73,-62 1737.51,-63.74"/>
</g>
<!-- nasalib/metric_space@metric_continuity&#45;&gt;lib/finite_sets -->
<g id="edge40" class="edge">
<title>nasalib/metric_space@metric_continuity&#45;&gt;lib/finite_sets</title>
<path fill="none" stroke="black" d="M994.43,-262.11C1128.77,-255.08 1398,-241 1398,-241 1398,-241 1409.91,-228.72 1421.87,-216.39"/>
<polygon fill="black" stroke="black" points="1423.76,-219.43 1428.21,-209.81 1418.74,-214.56 1423.76,-219.43"/>
</g>
<!-- nasalib/metric_space@metric_continuity&#45;&gt;nasalib/metric_space@metric_def -->
<g id="edge41" class="edge">
<title>nasalib/metric_space@metric_continuity&#45;&gt;nasalib/metric_space@metric_def</title>
<path fill="none" stroke="black" d="M956.63,-250.92C1009.52,-229.15 1101,-191.5 1101,-191.5"/>
<path fill="none" stroke="black" d="M1101,-189.5C1101,-189.5 954,-164.5 954,-164.5 954,-164.5 788.35,-140.76 697.68,-127.77"/>
<polygon fill="black" stroke="black" points="698.4,-124.19 688.01,-126.24 697.41,-131.12 698.4,-124.19"/>
</g>
<!-- nasalib/metric_space@metric_continuity&#45;&gt;nasalib/metric_space@metric_space -->
<g id="edge42" class="edge">
<title>nasalib/metric_space@metric_continuity&#45;&gt;nasalib/metric_space@metric_space</title>
<path fill="none" stroke="black" d="M865.64,-253.87C837.1,-247.5 808,-241 808,-241 808,-241 780.57,-225.74 756.16,-212.17"/>
<polygon fill="black" stroke="black" points="758.11,-208.69 747.67,-206.89 754.71,-214.81 758.11,-208.69"/>
</g>
<!-- nasalib/metric_space@metric_continuity&#45;&gt;nasalib/topology -->
<g id="edge43" class="edge">
<title>nasalib/metric_space@metric_continuity&#45;&gt;nasalib/topology</title>
<path fill="none" stroke="black" d="M995.34,-262.72C1151.06,-255.94 1494,-241 1494,-241 1494,-241 1510,-191.5 1510,-191.5"/>
<path fill="none" stroke="black" d="M1510,-189.5C1510,-189.5 1534,-92.5 1534,-92.5 1534,-92.5 1545,-84.5 1545,-84.5 1545,-84.5 1554.79,-72.67 1564.81,-60.58"/>
<polygon fill="black" stroke="black" points="1567.98,-63.25 1571.66,-53.31 1562.59,-58.78 1567.98,-63.25"/>
</g>
<!-- nasalib/metric_space@metric_def_real_props&#45;&gt;nasalib/metric_space@metric_def -->
<g id="edge44" class="edge">
<title>nasalib/metric_space@metric_def_real_props&#45;&gt;nasalib/metric_space@metric_def</title>
<path fill="none" stroke="black" d="M553.02,-172.91C569.02,-163.09 589.42,-150.56 606.45,-140.1"/>
<polygon fill="black" stroke="black" points="607.82,-142.75 614.51,-134.54 604.16,-136.79 607.82,-142.75"/>
</g>
<!-- nasalib/metric_space@metric_space&#45;&gt;nasalib/metric_space@countable_cross -->
<g id="edge46" class="edge">
<title>nasalib/metric_space@metric_space&#45;&gt;nasalib/metric_space@countable_cross</title>
<path fill="none" stroke="black" d="M676.32,-177.51C653.48,-171.1 630,-164.5 630,-164.5 630,-164.5 166,-136.5 166,-136.5 166,-136.5 159.13,-135.04 149.42,-132.98"/>
<polygon fill="black" stroke="black" points="150.42,-129.4 139.92,-130.74 148.97,-136.25 150.42,-129.4"/>
</g>
<!-- nasalib/metric_space@metric_space&#45;&gt;nasalib/metric_space@metric_def -->
<g id="edge47" class="edge">
<title>nasalib/metric_space@metric_space&#45;&gt;nasalib/metric_space@metric_def</title>
<path fill="none" stroke="black" d="M700.28,-172.91C690.17,-163.95 677.52,-152.75 666.43,-142.92"/>
<polygon fill="black" stroke="black" points="669.12,-140.74 659.31,-136.73 664.48,-145.98 669.12,-140.74"/>
</g>
<!-- nasalib/metric_space@metric_space&#45;&gt;nasalib/metric_space@metric_space_def -->
<g id="edge48" class="edge">
<title>nasalib/metric_space@metric_space&#45;&gt;nasalib/metric_space@metric_space_def</title>
<path fill="none" stroke="black" d="M676.32,-177.51C653.48,-171.1 630,-164.5 630,-164.5 630,-164.5 439.58,-141.89 328.69,-128.72"/>
<polygon fill="black" stroke="black" points="329.23,-125.15 318.89,-127.44 328.4,-132.1 329.23,-125.15"/>
</g>
<!-- nasalib/metric_space@metric_space&#45;&gt;nasalib/sets_aux -->
<g id="edge49" class="edge">
<title>nasalib/metric_space@metric_space&#45;&gt;nasalib/sets_aux</title>
<path fill="none" stroke="black" d="M761.68,-177.51C784.52,-171.1 808,-164.5 808,-164.5 808,-164.5 1344,-119.5 1344,-119.5"/>
<path fill="none" stroke="black" d="M1344,-117.5C1344,-117.5 1368,-92.5 1368,-92.5 1368,-92.5 1465,-84.5 1465,-84.5 1465,-84.5 1474.56,-72.67 1484.33,-60.58"/>
<polygon fill="black" stroke="black" points="1487.45,-63.29 1491.01,-53.31 1482,-58.89 1487.45,-63.29"/>
</g>
<!-- nasalib/metric_space@metric_space&#45;&gt;nasalib/topology -->
<g id="edge50" class="edge">
<title>nasalib/metric_space@metric_space&#45;&gt;nasalib/topology</title>
<path fill="none" stroke="black" d="M1344,-117.5C1344,-117.5 1368,-92.5 1368,-92.5 1368,-92.5 1545,-84.5 1545,-84.5 1545,-84.5 1554.79,-72.67 1564.81,-60.58"/>
<polygon fill="black" stroke="black" points="1567.98,-63.25 1571.66,-53.31 1562.59,-58.78 1567.98,-63.25"/>
</g>
<!-- nasalib/metric_space@metric_space_def&#45;&gt;nasalib/sets_aux -->
<g id="edge45" class="edge">
<title>nasalib/metric_space@metric_space_def&#45;&gt;nasalib/sets_aux</title>
<path fill="none" stroke="black" d="M322.79,-112.04C419.6,-104.69 580,-92.5 580,-92.5 580,-92.5 1465,-84.5 1465,-84.5 1465,-84.5 1474.56,-72.67 1484.33,-60.58"/>
<polygon fill="black" stroke="black" points="1487.45,-63.29 1491.01,-53.31 1482,-58.89 1487.45,-63.29"/>
</g>
<!-- nasalib/metric_space@metric_subspace -->
<g id="node19" class="node">
<title>nasalib/metric_space@metric_subspace</title>
<ellipse fill="#e6f3ff" stroke="black" cx="752" cy="-267" rx="72.85" ry="18"/>
<text text-anchor="middle" x="752" y="-261.95" font-family="Times,serif" font-size="14.00">metric_subspace</text>
</g>
<!-- nasalib/metric_space@metric_subspace&#45;&gt;nasalib/metric_space@metric_def -->
<g id="edge51" class="edge">
<title>nasalib/metric_space@metric_subspace&#45;&gt;nasalib/metric_space@metric_def</title>
<path fill="none" stroke="black" d="M775.41,-249.74C782.28,-244.97 788,-241 788,-241 788,-241 788,-164.5 788,-164.5 788,-164.5 731.31,-147.26 688.1,-134.13"/>
<polygon fill="black" stroke="black" points="689.32,-130.53 678.73,-130.97 687.28,-137.23 689.32,-130.53"/>
</g>
<!-- nasalib/metric_space@metric_subspace&#45;&gt;nasalib/metric_space@metric_space -->
<g id="edge52" class="edge">
<title>nasalib/metric_space@metric_subspace&#45;&gt;nasalib/metric_space@metric_space</title>
<path fill="none" stroke="black" d="M744.35,-248.72C740.39,-239.79 735.47,-228.68 731.02,-218.63"/>
<polygon fill="black" stroke="black" points="733.86,-217.41 726.61,-209.69 727.46,-220.25 733.86,-217.41"/>
</g>
<!-- nasalib/metric_space@metric_subspace&#45;&gt;nasalib/metric_space@metric_space_def -->
<g id="edge53" class="edge">
<title>nasalib/metric_space@metric_subspace&#45;&gt;nasalib/metric_space@metric_space_def</title>
<path fill="none" stroke="black" d="M689.57,-257.3C659.55,-253.12 630,-249 630,-249 630,-249 136,-241 136,-241 136,-241 126,-191.5 126,-191.5"/>
</g>
<!-- nasalib/metric_space@metric_subspace&#45;&gt;nasalib/topology -->
<g id="edge54" class="edge">
<title>nasalib/metric_space@metric_subspace&#45;&gt;nasalib/topology</title>
<path fill="none" stroke="black" d="M806.24,-254.76C821.49,-251.59 834,-249 834,-249 834,-249 1494,-241 1494,-241 1494,-241 1510,-191.5 1510,-191.5"/>
</g>
<!-- nasalib/metric_space@real_continuity -->
<g id="node20" class="node">
<title>nasalib/metric_space@real_continuity</title>
<ellipse fill="#e6f3ff" stroke="black" cx="1319" cy="-339" rx="66.71" ry="18"/>
<text text-anchor="middle" x="1319" y="-333.95" font-family="Times,serif" font-size="14.00">real_continuity</text>
</g>
<!-- nasalib/metric_space@real_continuity&#45;&gt;nasalib/metric_space@metric_continuity -->
<g id="edge55" class="edge">
<title>nasalib/metric_space@real_continuity&#45;&gt;nasalib/metric_space@metric_continuity</title>
<path fill="none" stroke="black" d="M1268.97,-326.66C1255.22,-323.54 1244,-321 1244,-321 1244,-321 1087.97,-295.48 992.46,-279.85"/>
<polygon fill="black" stroke="black" points="993.14,-276.25 982.7,-278.09 992.01,-283.16 993.14,-276.25"/>
</g>
<!-- nasalib/metric_space@real_continuity&#45;&gt;nasalib/metric_space@metric_def -->
<g id="edge56" class="edge">
<title>nasalib/metric_space@real_continuity&#45;&gt;nasalib/metric_space@metric_def</title>
<path fill="none" stroke="black" d="M1277.23,-324.59C1213.93,-304.26 1101,-268 1101,-268"/>
</g>
<!-- nasalib/power -->
<g id="node24" class="node">
<title>nasalib/power</title>
<polygon fill="#fcfcd7" stroke="black" points="1914,-52 1860,-52 1860,-16 1914,-16 1914,-52"/>
<text text-anchor="middle" x="1887" y="-28.95" font-family="Times,serif" font-size="14.00">power</text>
</g>
<!-- nasalib/metric_space@real_continuity&#45;&gt;nasalib/power -->
<g id="edge57" class="edge">
<title>nasalib/metric_space@real_continuity&#45;&gt;nasalib/power</title>
<path fill="none" stroke="black" d="M1741,-117.5C1741,-117.5 1851,-84.5 1851,-84.5 1851,-84.5 1859.44,-72.9 1868.14,-60.93"/>
<polygon fill="black" stroke="black" points="1871.36,-63.46 1874.41,-53.31 1865.7,-59.34 1871.36,-63.46"/>
<path fill="none" stroke="black" d="M1377.58,-330.18C1488.01,-315.44 1716,-285 1716,-285 1716,-285 1741,-119.5 1741,-119.5"/>
</g>
<!-- nasalib/metric_space@real_continuity&#45;&gt;nasalib/reals -->
<g id="edge58" class="edge">
<title>nasalib/metric_space@real_continuity&#45;&gt;nasalib/reals</title>
<path fill="none" stroke="black" d="M1741,-117.5C1741,-117.5 1741,-87.1 1741,-63.21"/>
<polygon fill="black" stroke="black" points="1744.5,-63.5 1741,-53.5 1737.5,-63.5 1744.5,-63.5"/>
</g>
<!-- nasalib/metric_space@real_continuity&#45;&gt;nasalib/topology -->
<g id="edge59" class="edge">
<title>nasalib/metric_space@real_continuity&#45;&gt;nasalib/topology</title>
<path fill="none" stroke="black" d="M1741,-117.5C1741,-117.5 1677,-92.5 1677,-92.5 1677,-92.5 1627,-84.5 1627,-84.5 1627,-84.5 1617.21,-72.67 1607.19,-60.58"/>
<polygon fill="black" stroke="black" points="1609.41,-58.78 1600.34,-53.31 1604.02,-63.25 1609.41,-58.78"/>
</g>
<!-- nasalib/metric_space@real_topology&#45;&gt;nasalib/metric_space@countable_cross -->
<g id="edge60" class="edge">
<title>nasalib/metric_space@real_topology&#45;&gt;nasalib/metric_space@countable_cross</title>
<path fill="none" stroke="black" d="M106,-189.5C106,-189.5 99.5,-166.74 93.91,-147.18"/>
<polygon fill="black" stroke="black" points="97.06,-146.46 90.94,-137.8 90.33,-148.38 97.06,-146.46"/>
<path fill="none" stroke="black" d="M322.87,-255.23C307.79,-251.86 295,-249 295,-249 295,-249 121,-241 121,-241 121,-241 106,-191.5 106,-191.5"/>
</g>
<!-- nasalib/metric_space@real_topology&#45;&gt;nasalib/metric_space@metric_def -->
<g id="edge61" class="edge">
<title>nasalib/metric_space@real_topology&#45;&gt;nasalib/metric_space@metric_def</title>
<path fill="none" stroke="black" d="M391.16,-249.74C397.08,-244.97 402,-241 402,-241 402,-241 412,-191.5 412,-191.5"/>
</g>
<!-- nasalib/metric_space@real_topology&#45;&gt;nasalib/metric_space@metric_def_real_props -->
<g id="edge62" class="edge">
<title>nasalib/metric_space@real_topology&#45;&gt;nasalib/metric_space@metric_def_real_props</title>
<path fill="none" stroke="black" d="M401.99,-251.1C425.08,-240.01 456.9,-224.71 482.53,-212.39"/>
<polygon fill="black" stroke="black" points="483.88,-215.15 491.37,-207.66 480.84,-208.84 483.88,-215.15"/>
</g>
<!-- nasalib/metric_space@real_topology&#45;&gt;nasalib/metric_space@metric_space -->
<g id="edge63" class="edge">
<title>nasalib/metric_space@real_topology&#45;&gt;nasalib/metric_space@metric_space</title>
<path fill="none" stroke="black" d="M422.09,-256.46C442.83,-252.58 462,-249 462,-249 462,-249 645,-241 645,-241 645,-241 666.47,-226.64 686.28,-213.39"/>
<polygon fill="black" stroke="black" points="687.81,-215.9 694.18,-207.43 683.92,-210.09 687.81,-215.9"/>
</g>
<!-- nasalib/metric_space@real_topology&#45;&gt;nasalib/metric_space@metric_space_def -->
<g id="edge64" class="edge">
<title>nasalib/metric_space@real_topology&#45;&gt;nasalib/metric_space@metric_space_def</title>
<path fill="none" stroke="black" d="M106,-189.5C106,-189.5 121,-164.5 121,-164.5 121,-164.5 162.9,-150 199.12,-137.46"/>
<polygon fill="black" stroke="black" points="199.85,-140.56 208.15,-133.99 197.56,-133.95 199.85,-140.56"/>
</g>
<!-- nasalib/metric_space@real_topology&#45;&gt;nasalib/reals -->
<g id="edge65" class="edge">
<title>nasalib/metric_space@real_topology&#45;&gt;nasalib/reals</title>
<path fill="none" stroke="black" d="M1548,-117.5C1548,-117.5 1572,-92.5 1572,-92.5 1572,-92.5 1705,-84.5 1705,-84.5 1705,-84.5 1713.44,-72.9 1722.14,-60.93"/>
<polygon fill="black" stroke="black" points="1725.36,-63.46 1728.41,-53.31 1719.7,-59.34 1725.36,-63.46"/>
<path fill="none" stroke="black" d="M422.09,-256.46C442.83,-252.58 462,-249 462,-249 462,-249 1524,-241 1524,-241 1524,-241 1548,-119.5 1548,-119.5"/>
</g>
<!-- nasalib/metric_space@real_topology&#45;&gt;nasalib/sets_aux -->
<g id="edge66" class="edge">
<title>nasalib/metric_space@real_topology&#45;&gt;nasalib/sets_aux</title>
<path fill="none" stroke="black" d="M1548,-117.5C1548,-117.5 1531.72,-86.27 1519.2,-62.24"/>
<polygon fill="black" stroke="black" points="1521.84,-60.75 1514.12,-53.5 1515.64,-63.98 1521.84,-60.75"/>
</g>
<!-- nasalib/metric_space@submetric_def -->
<g id="node22" class="node">
<title>nasalib/metric_space@submetric_def</title>
<ellipse fill="#e6f3ff" stroke="black" cx="881" cy="-190.5" rx="64.15" ry="18"/>
<text text-anchor="middle" x="881" y="-185.45" font-family="Times,serif" font-size="14.00">submetric_def</text>
</g>
<!-- nasalib/metric_space@submetric_def&#45;&gt;nasalib/metric_space@metric_def -->
<g id="edge67" class="edge">
<title>nasalib/metric_space@submetric_def&#45;&gt;nasalib/metric_space@metric_def</title>
<path fill="none" stroke="black" d="M839.72,-176.27C821.01,-170.27 803,-164.5 803,-164.5 803,-164.5 737.92,-146.53 690,-133.3"/>
<polygon fill="black" stroke="black" points="691.03,-129.68 680.46,-130.39 689.17,-136.43 691.03,-129.68"/>
</g>
<!-- nasalib/metric_space@test_cont -->
<g id="node23" class="node">
<title>nasalib/metric_space@test_cont</title>
<ellipse fill="#e6f3ff" stroke="black" cx="448" cy="-411" rx="44.19" ry="18"/>
<text text-anchor="middle" x="448" y="-405.95" font-family="Times,serif" font-size="14.00">test_cont</text>
</g>
<!-- nasalib/metric_space@test_cont&#45;&gt;nasalib/metric_space@continuity_subspace -->
<g id="edge68" class="edge">
<title>nasalib/metric_space@test_cont&#45;&gt;nasalib/metric_space@continuity_subspace</title>
<path fill="none" stroke="black" d="M457.92,-393.05C462.59,-385.09 468.26,-375.41 473.47,-366.51"/>
<polygon fill="black" stroke="black" points="476.85,-368.67 478.88,-358.28 470.81,-365.14 476.85,-368.67"/>
</g>
<!-- nasalib/metric_space@test_cont&#45;&gt;nasalib/metric_space@real_topology -->
<g id="edge69" class="edge">
<title>nasalib/metric_space@test_cont&#45;&gt;nasalib/metric_space@real_topology</title>
<path fill="none" stroke="black" d="M431.5,-393.81C415.62,-378.22 394,-357 394,-357 394,-357 384.9,-321.8 378.15,-295.67"/>
<polygon fill="black" stroke="black" points="381.33,-294.97 375.43,-286.16 374.55,-296.72 381.33,-294.97"/>
</g>
</g>
</svg>
