<?xml version="1.0" encoding="UTF-8" standalone="no"?>
<!DOCTYPE svg PUBLIC "-//W3C//DTD SVG 1.1//EN"
 "http://www.w3.org/Graphics/SVG/1.1/DTD/svg11.dtd">
<!-- Generated by graphviz version 7.0.6 (20230106.0513)
 -->
<!-- Title: metric_space&#45;zoomed Pages: 1 -->
<svg width="1888pt" height="473pt"
 viewBox="0.00 0.00 1888.00 473.00" xmlns="http://www.w3.org/2000/svg" xmlns:xlink="http://www.w3.org/1999/xlink">
<g id="graph0" class="graph" transform="scale(1 1) rotate(0) translate(4 469)">
<title>metric_space&#45;zoomed</title>
<polygon fill="white" stroke="none" points="-4,4 -4,-469 1884,-469 1884,4 -4,4"/>
<g id="clust2" class="cluster">
<title>cluster_NASALib/metric_space</title>
<polygon fill="none" stroke="black" points="8,-91 8,-457 1347,-457 1347,-91 8,-91"/>
<text text-anchor="middle" x="677.5" y="-441.8" font-family="Times,serif" font-size="14.00">NASALib/metric_space</text>
</g>
<g id="clust1" class="cluster">
<title>cluster_NASALib</title>
<polygon fill="none" stroke="black" points="1341,-8 1341,-83 1872,-83 1872,-8 1341,-8"/>
<text text-anchor="middle" x="1606.5" y="-67.8" font-family="Times,serif" font-size="14.00">NASALib</text>
</g>
<g id="clust3" class="cluster">
<title>cluster_PVS Prelude</title>
<polygon fill="none" stroke="black" points="1355,-163 1355,-238 1443,-238 1443,-163 1355,-163"/>
<text text-anchor="middle" x="1399" y="-222.8" font-family="Times,serif" font-size="14.00">PVS Prelude</text>
</g>
<!-- NASALib/analysis -->
<g id="node1" class="node">
<title>NASALib/analysis</title>
<polygon fill="#fcfcd7" stroke="black" points="1646,-52 1586,-52 1586,-16 1646,-16 1646,-52"/>
<text text-anchor="middle" x="1616" y="-30.3" font-family="Times,serif" font-size="14.00">analysis</text>
</g>
<!-- NASALib/metric_space@banach -->
<g id="node2" class="node">
<title>NASALib/metric_space@banach</title>
<ellipse fill="#e6f3ff" stroke="black" cx="179" cy="-189" rx="36" ry="18"/>
<text text-anchor="middle" x="179" y="-185.3" font-family="Times,serif" font-size="14.00">banach</text>
</g>
<!-- NASALib/metric_space@metric_def -->
<g id="node14" class="node">
<title>NASALib/metric_space@metric_def</title>
<ellipse fill="#e6f3ff" stroke="black" cx="621" cy="-117" rx="49.29" ry="18"/>
<text text-anchor="middle" x="621" y="-113.3" font-family="Times,serif" font-size="14.00">metric_def</text>
</g>
<!-- NASALib/metric_space@banach&#45;&gt;NASALib/metric_space@metric_def -->
<g id="edge1" class="edge">
<title>NASALib/metric_space@banach&#45;&gt;NASALib/metric_space@metric_def</title>
<path fill="none" stroke="black" d="M202.29,-174.77C212.84,-168.77 223,-163 223,-163 223,-163 453.01,-136.99 563.32,-124.52"/>
<polygon fill="black" stroke="black" points="563.52,-128.02 573.06,-123.42 562.73,-121.07 563.52,-128.02"/>
</g>
<!-- NASALib/metric_space@metric_space_def -->
<g id="node17" class="node">
<title>NASALib/metric_space@metric_space_def</title>
<ellipse fill="#e6f3ff" stroke="black" cx="243" cy="-117" rx="73.39" ry="18"/>
<text text-anchor="middle" x="243" y="-113.3" font-family="Times,serif" font-size="14.00">metric_space_def</text>
</g>
<!-- NASALib/metric_space@banach&#45;&gt;NASALib/metric_space@metric_space_def -->
<g id="edge2" class="edge">
<title>NASALib/metric_space@banach&#45;&gt;NASALib/metric_space@metric_space_def</title>
<path fill="none" stroke="black" d="M193.52,-172.12C201.32,-163.59 211.1,-152.89 219.91,-143.25"/>
<polygon fill="black" stroke="black" points="222.46,-145.66 226.62,-135.91 217.29,-140.93 222.46,-145.66"/>
</g>
<!-- NASALib/series -->
<g id="node25" class="node">
<title>NASALib/series</title>
<polygon fill="#fcfcd7" stroke="black" points="1403,-52 1349,-52 1349,-16 1403,-16 1403,-52"/>
<text text-anchor="middle" x="1376" y="-30.3" font-family="Times,serif" font-size="14.00">series</text>
</g>
<!-- NASALib/metric_space@banach&#45;&gt;NASALib/series -->
<g id="edge3" class="edge">
<title>NASALib/metric_space@banach&#45;&gt;NASALib/series</title>
<path fill="none" stroke="black" d="M202.29,-174.77C212.84,-168.77 223,-163 223,-163 223,-163 679,-135 679,-135 679,-135 965,-91 965,-91 965,-91 1235.11,-54.2 1337.38,-40.26"/>
<polygon fill="black" stroke="black" points="1337.78,-43.74 1347.22,-38.92 1336.83,-36.8 1337.78,-43.74"/>
</g>
<!-- NASALib/metric_space@complete_product -->
<g id="node3" class="node">
<title>NASALib/metric_space@complete_product</title>
<ellipse fill="#e6f3ff" stroke="black" cx="307" cy="-189" rx="74.99" ry="18"/>
<text text-anchor="middle" x="307" y="-185.3" font-family="Times,serif" font-size="14.00">complete_product</text>
</g>
<!-- NASALib/metric_space@complete_product&#45;&gt;NASALib/metric_space@metric_def -->
<g id="edge4" class="edge">
<title>NASALib/metric_space@complete_product&#45;&gt;NASALib/metric_space@metric_def</title>
<path fill="none" stroke="black" d="M354.37,-174.69C375.62,-168.72 396,-163 396,-163 396,-163 500.72,-142.06 567.27,-128.75"/>
<polygon fill="black" stroke="black" points="567.81,-132.21 576.93,-126.81 566.44,-125.34 567.81,-132.21"/>
</g>
<!-- NASALib/metric_space@complete_product&#45;&gt;NASALib/metric_space@metric_space_def -->
<g id="edge5" class="edge">
<title>NASALib/metric_space@complete_product&#45;&gt;NASALib/metric_space@metric_space_def</title>
<path fill="none" stroke="black" d="M291.51,-171.05C283.88,-162.71 274.53,-152.49 266.09,-143.25"/>
<polygon fill="black" stroke="black" points="268.7,-140.92 259.37,-135.91 263.54,-145.65 268.7,-140.92"/>
</g>
<!-- NASALib/reals -->
<g id="node24" class="node">
<title>NASALib/reals</title>
<polygon fill="#fcfcd7" stroke="black" points="1718,-52 1664,-52 1664,-16 1718,-16 1718,-52"/>
<text text-anchor="middle" x="1691" y="-30.3" font-family="Times,serif" font-size="14.00">reals</text>
</g>
<!-- NASALib/metric_space@complete_product&#45;&gt;NASALib/reals -->
<g id="edge6" class="edge">
<title>NASALib/metric_space@complete_product&#45;&gt;NASALib/reals</title>
<path fill="none" stroke="black" d="M358.7,-175.57C384.8,-169.3 411,-163 411,-163 411,-163 836,-135 836,-135 836,-135 1245,-91 1245,-91 1245,-91 1655,-83 1655,-83 1655,-83 1662.9,-72.46 1671.3,-61.26"/>
<polygon fill="black" stroke="black" points="1673.9,-63.64 1677.1,-53.54 1668.3,-59.44 1673.9,-63.64"/>
</g>
<!-- NASALib/metric_space@composition_continuous -->
<g id="node4" class="node">
<title>NASALib/metric_space@composition_continuous</title>
<ellipse fill="#e6f3ff" stroke="black" cx="821" cy="-336" rx="97.48" ry="18"/>
<text text-anchor="middle" x="821" y="-332.3" font-family="Times,serif" font-size="14.00">composition_continuous</text>
</g>
<!-- NASALib/metric_space@metric_continuity -->
<g id="node13" class="node">
<title>NASALib/metric_space@metric_continuity</title>
<ellipse fill="#e6f3ff" stroke="black" cx="891" cy="-264" rx="73.39" ry="18"/>
<text text-anchor="middle" x="891" y="-260.3" font-family="Times,serif" font-size="14.00">metric_continuity</text>
</g>
<!-- NASALib/metric_space@composition_continuous&#45;&gt;NASALib/metric_space@metric_continuity -->
<g id="edge7" class="edge">
<title>NASALib/metric_space@composition_continuous&#45;&gt;NASALib/metric_space@metric_continuity</title>
<path fill="none" stroke="black" d="M837.95,-318.05C846.46,-309.54 856.93,-299.07 866.32,-289.68"/>
<polygon fill="black" stroke="black" points="868.54,-292.41 873.14,-282.86 863.59,-287.46 868.54,-292.41"/>
</g>
<!-- NASALib/metric_space@composition_continuous&#45;&gt;NASALib/metric_space@metric_def -->
<g id="edge8" class="edge">
<title>NASALib/metric_space@composition_continuous&#45;&gt;NASALib/metric_space@metric_def</title>
<path fill="none" stroke="black" d="M872.15,-320.33C943.7,-299.8 1065,-265 1065,-265"/>
<path fill="none" stroke="black" d="M1065,-263C1065,-263 1065,-190 1065,-190"/>
</g>
<!-- NASALib/metric_space@metric_space -->
<g id="node16" class="node">
<title>NASALib/metric_space@metric_space</title>
<ellipse fill="#e6f3ff" stroke="black" cx="698" cy="-189" rx="57.69" ry="18"/>
<text text-anchor="middle" x="698" y="-185.3" font-family="Times,serif" font-size="14.00">metric_space</text>
</g>
<!-- NASALib/metric_space@composition_continuous&#45;&gt;NASALib/metric_space@metric_space -->
<g id="edge9" class="edge">
<title>NASALib/metric_space@composition_continuous&#45;&gt;NASALib/metric_space@metric_space</title>
<path fill="none" stroke="black" d="M772.74,-319.95C722.48,-304.28 651,-282 651,-282 651,-282 641,-265 641,-265"/>
</g>
<!-- NASALib/metric_space@composition_uniform_continuity -->
<g id="node5" class="node">
<title>NASALib/metric_space@composition_uniform_continuity</title>
<ellipse fill="#e6f3ff" stroke="black" cx="1065" cy="-336" rx="128.08" ry="18"/>
<text text-anchor="middle" x="1065" y="-332.3" font-family="Times,serif" font-size="14.00">composition_uniform_continuity</text>
</g>
<!-- NASALib/metric_space@composition_uniform_continuity&#45;&gt;NASALib/metric_space@metric_continuity -->
<g id="edge10" class="edge">
<title>NASALib/metric_space@composition_uniform_continuity&#45;&gt;NASALib/metric_space@metric_continuity</title>
<path fill="none" stroke="black" d="M1024.2,-318.59C998.49,-308.24 965.18,-294.84 938.31,-284.03"/>
<polygon fill="black" stroke="black" points="939.97,-280.93 929.39,-280.44 937.36,-287.42 939.97,-280.93"/>
</g>
<!-- NASALib/metric_space@composition_uniform_continuity&#45;&gt;NASALib/metric_space@metric_def -->
<g id="edge11" class="edge">
<title>NASALib/metric_space@composition_uniform_continuity&#45;&gt;NASALib/metric_space@metric_def</title>
<path fill="none" stroke="black" d="M1065,-317.7C1065,-296.97 1065,-265 1065,-265"/>
</g>
<!-- NASALib/metric_space@continuity_link -->
<g id="node6" class="node">
<title>NASALib/metric_space@continuity_link</title>
<ellipse fill="#e6f3ff" stroke="black" cx="641" cy="-336" rx="64.19" ry="18"/>
<text text-anchor="middle" x="641" y="-332.3" font-family="Times,serif" font-size="14.00">continuity_link</text>
</g>
<!-- NASALib/metric_space@continuity_link&#45;&gt;NASALib/analysis -->
<g id="edge12" class="edge">
<title>NASALib/metric_space@continuity_link&#45;&gt;NASALib/analysis</title>
<path fill="none" stroke="black" d="M689.53,-323.85C703.48,-320.65 715,-318 715,-318 715,-318 1070,-282 1070,-282 1070,-282 1476,-238 1476,-238 1476,-238 1535,-118 1535,-118"/>
<path fill="none" stroke="black" d="M1535,-116C1535,-116 1577,-83 1577,-83 1577,-83 1585.56,-72.46 1594.66,-61.26"/>
<polygon fill="black" stroke="black" points="1597.38,-63.47 1600.97,-53.5 1591.94,-59.06 1597.38,-63.47"/>
</g>
<!-- NASALib/metric_space@continuity_link&#45;&gt;NASALib/metric_space@metric_continuity -->
<g id="edge13" class="edge">
<title>NASALib/metric_space@continuity_link&#45;&gt;NASALib/metric_space@metric_continuity</title>
<path fill="none" stroke="black" d="M685.41,-322.57C726.54,-311.05 787.97,-293.85 832.97,-281.25"/>
<polygon fill="black" stroke="black" points="833.89,-284.62 842.58,-278.56 832,-277.88 833.89,-284.62"/>
</g>
<!-- NASALib/metric_space@continuity_link&#45;&gt;NASALib/metric_space@metric_space -->
<g id="edge14" class="edge">
<title>NASALib/metric_space@continuity_link&#45;&gt;NASALib/metric_space@metric_space</title>
<path fill="none" stroke="black" d="M641,-317.7C641,-296.97 641,-265 641,-265"/>
</g>
<!-- NASALib/metric_space@continuity_link&#45;&gt;NASALib/metric_space@metric_space_def -->
<g id="edge15" class="edge">
<title>NASALib/metric_space@continuity_link&#45;&gt;NASALib/metric_space@metric_space_def</title>
<path fill="none" stroke="black" d="M124,-188C124,-188 134,-163 134,-163 134,-163 166.8,-149.46 196.42,-137.23"/>
<polygon fill="black" stroke="black" points="197.4,-140.61 205.31,-133.56 194.73,-134.14 197.4,-140.61"/>
<path fill="none" stroke="black" d="M596.47,-322.71C539.75,-307.05 449,-282 449,-282 449,-282 429,-246 429,-246 429,-246 134,-238 134,-238 134,-238 124,-190 124,-190"/>
</g>
<!-- NASALib/topology -->
<g id="node27" class="node">
<title>NASALib/topology</title>
<polygon fill="#fcfcd7" stroke="black" points="1567.5,-52 1502.5,-52 1502.5,-16 1567.5,-16 1567.5,-52"/>
<text text-anchor="middle" x="1535" y="-30.3" font-family="Times,serif" font-size="14.00">topology</text>
</g>
<!-- NASALib/metric_space@continuity_link&#45;&gt;NASALib/topology -->
<g id="edge16" class="edge">
<title>NASALib/metric_space@continuity_link&#45;&gt;NASALib/topology</title>
<path fill="none" stroke="black" d="M1535,-116C1535,-116 1535,-86.96 1535,-63.66"/>
<polygon fill="black" stroke="black" points="1538.5,-63.69 1535,-53.69 1531.5,-63.69 1538.5,-63.69"/>
</g>
<!-- NASALib/metric_space@continuity_subspace -->
<g id="node7" class="node">
<title>NASALib/metric_space@continuity_subspace</title>
<ellipse fill="#e6f3ff" stroke="black" cx="476" cy="-336" rx="82.59" ry="18"/>
<text text-anchor="middle" x="476" y="-332.3" font-family="Times,serif" font-size="14.00">continuity_subspace</text>
</g>
<!-- NASALib/metric_space@continuity_subspace&#45;&gt;NASALib/metric_space@metric_continuity -->
<g id="edge17" class="edge">
<title>NASALib/metric_space@continuity_subspace&#45;&gt;NASALib/metric_space@metric_continuity</title>
<path fill="none" stroke="black" d="M537.62,-323.61C554.38,-320.52 568,-318 568,-318 568,-318 809,-282 809,-282 809,-282 815.61,-280.63 825.08,-278.67"/>
<polygon fill="black" stroke="black" points="825.74,-282.1 834.82,-276.65 824.32,-275.25 825.74,-282.1"/>
</g>
<!-- NASALib/metric_space@continuity_subspace&#45;&gt;NASALib/metric_space@metric_def -->
<g id="edge18" class="edge">
<title>NASALib/metric_space@continuity_subspace&#45;&gt;NASALib/metric_space@metric_def</title>
<path fill="none" stroke="black" d="M514.69,-319.81C554.58,-304.15 611,-282 611,-282 611,-282 621,-190 621,-190"/>
</g>
<!-- NASALib/metric_space@continuity_subspace&#45;&gt;NASALib/metric_space@metric_space -->
<g id="edge19" class="edge">
<title>NASALib/metric_space@continuity_subspace&#45;&gt;NASALib/metric_space@metric_space</title>
<path fill="none" stroke="black" d="M518.18,-320.1C562.55,-304.42 626,-282 626,-282 626,-282 641,-265 641,-265"/>
</g>
<!-- NASALib/metric_space@continuity_subspace&#45;&gt;NASALib/topology -->
<g id="edge20" class="edge">
<title>NASALib/metric_space@continuity_subspace&#45;&gt;NASALib/topology</title>
<path fill="none" stroke="black" d="M537.62,-323.61C554.38,-320.52 568,-318 568,-318 568,-318 1070,-282 1070,-282 1070,-282 1476,-238 1476,-238 1476,-238 1549,-135 1549,-135 1549,-135 1549,-91 1549,-91 1549,-91 1545.55,-77.21 1542.08,-63.32"/>
<polygon fill="black" stroke="black" points="1545.54,-62.73 1539.72,-53.88 1538.75,-64.43 1545.54,-62.73"/>
</g>
<!-- NASALib/metric_space@convergence_aux -->
<g id="node8" class="node">
<title>NASALib/metric_space@convergence_aux</title>
<ellipse fill="#e6f3ff" stroke="black" cx="530" cy="-264" rx="72.29" ry="18"/>
<text text-anchor="middle" x="530" y="-260.3" font-family="Times,serif" font-size="14.00">convergence_aux</text>
</g>
<!-- NASALib/metric_space@convergence_aux&#45;&gt;NASALib/metric_space@metric_def -->
<g id="edge21" class="edge">
<title>NASALib/metric_space@convergence_aux&#45;&gt;NASALib/metric_space@metric_def</title>
<path fill="none" stroke="black" d="M574.29,-249.33C593.2,-243.49 611,-238 611,-238 611,-238 621,-190 621,-190"/>
<path fill="none" stroke="black" d="M621,-188C621,-188 621,-166.08 621,-146.77"/>
<polygon fill="black" stroke="black" points="624.5,-146.82 621,-136.82 617.5,-146.82 624.5,-146.82"/>
</g>
<!-- NASALib/metric_space@metric_def_real_props -->
<g id="node15" class="node">
<title>NASALib/metric_space@metric_def_real_props</title>
<ellipse fill="#e6f3ff" stroke="black" cx="511" cy="-189" rx="90.98" ry="18"/>
<text text-anchor="middle" x="511" y="-185.3" font-family="Times,serif" font-size="14.00">metric_def_real_props</text>
</g>
<!-- NASALib/metric_space@convergence_aux&#45;&gt;NASALib/metric_space@metric_def_real_props -->
<g id="edge22" class="edge">
<title>NASALib/metric_space@convergence_aux&#45;&gt;NASALib/metric_space@metric_def_real_props</title>
<path fill="none" stroke="black" d="M525.5,-245.7C523.38,-237.58 520.81,-227.68 518.42,-218.5"/>
<polygon fill="black" stroke="black" points="521.82,-217.69 515.92,-208.89 515.05,-219.45 521.82,-217.69"/>
</g>
<!-- NASALib/metric_space@convergence_aux&#45;&gt;NASALib/metric_space@metric_space -->
<g id="edge23" class="edge">
<title>NASALib/metric_space@convergence_aux&#45;&gt;NASALib/metric_space@metric_space</title>
<path fill="none" stroke="black" d="M578.56,-250.35C602.37,-244.15 626,-238 626,-238 626,-238 646.07,-224.62 665.02,-211.99"/>
<polygon fill="black" stroke="black" points="666.79,-215.02 673.17,-206.56 662.9,-209.19 666.79,-215.02"/>
</g>
<!-- NASALib/metric_space@convergence_aux&#45;&gt;NASALib/metric_space@metric_space_def -->
<g id="edge24" class="edge">
<title>NASALib/metric_space@convergence_aux&#45;&gt;NASALib/metric_space@metric_space_def</title>
<path fill="none" stroke="black" d="M474.56,-252.04C457.92,-248.75 444,-246 444,-246 444,-246 134,-238 134,-238 134,-238 124,-190 124,-190"/>
</g>
<!-- NASALib/metric_space@convergence_aux&#45;&gt;NASALib/reals -->
<g id="edge25" class="edge">
<title>NASALib/metric_space@convergence_aux&#45;&gt;NASALib/reals</title>
<path fill="none" stroke="black" d="M591.92,-254.3C621.69,-250.12 651,-246 651,-246 651,-246 1070,-238 1070,-238 1070,-238 1521,-91 1521,-91 1521,-91 1655,-83 1655,-83 1655,-83 1662.9,-72.46 1671.3,-61.26"/>
<polygon fill="black" stroke="black" points="1673.9,-63.64 1677.1,-53.54 1668.3,-59.44 1673.9,-63.64"/>
</g>
<!-- NASALib/metric_space@countable_cross -->
<g id="node9" class="node">
<title>NASALib/metric_space@countable_cross</title>
<ellipse fill="#e6f3ff" stroke="black" cx="84" cy="-117" rx="67.69" ry="18"/>
<text text-anchor="middle" x="84" y="-113.3" font-family="Times,serif" font-size="14.00">countable_cross</text>
</g>
<!-- NASALib/sets_aux -->
<g id="node26" class="node">
<title>NASALib/sets_aux</title>
<polygon fill="#fcfcd7" stroke="black" points="1484.5,-52 1421.5,-52 1421.5,-16 1484.5,-16 1484.5,-52"/>
<text text-anchor="middle" x="1453" y="-30.3" font-family="Times,serif" font-size="14.00">sets_aux</text>
</g>
<!-- NASALib/metric_space@countable_cross&#45;&gt;NASALib/sets_aux -->
<g id="edge26" class="edge">
<title>NASALib/metric_space@countable_cross&#45;&gt;NASALib/sets_aux</title>
<path fill="none" stroke="black" d="M125.66,-102.48C143.8,-96.59 161,-91 161,-91 161,-91 1412,-83 1412,-83 1412,-83 1421.18,-72.25 1430.85,-60.93"/>
<polygon fill="black" stroke="black" points="1433.38,-63.36 1437.22,-53.48 1428.06,-58.81 1433.38,-63.36"/>
</g>
<!-- NASALib/metric_space@countable_cross&#45;&gt;NASALib/topology -->
<g id="edge27" class="edge">
<title>NASALib/metric_space@countable_cross&#45;&gt;NASALib/topology</title>
<path fill="none" stroke="black" d="M125.66,-102.48C143.8,-96.59 161,-91 161,-91 161,-91 1494,-83 1494,-83 1494,-83 1503.18,-72.25 1512.85,-60.93"/>
<polygon fill="black" stroke="black" points="1515.38,-63.36 1519.22,-53.48 1510.06,-58.81 1515.38,-63.36"/>
</g>
<!-- NASALib/metric_space@euclidean -->
<g id="node10" class="node">
<title>NASALib/metric_space@euclidean</title>
<ellipse fill="#e6f3ff" stroke="black" cx="151" cy="-336" rx="44.39" ry="18"/>
<text text-anchor="middle" x="151" y="-332.3" font-family="Times,serif" font-size="14.00">euclidean</text>
</g>
<!-- NASALib/metric_space@euclidean&#45;&gt;NASALib/metric_space@complete_product -->
<g id="edge28" class="edge">
<title>NASALib/metric_space@euclidean&#45;&gt;NASALib/metric_space@complete_product</title>
<path fill="none" stroke="black" d="M281,-263C281,-263 289.73,-238.49 297.07,-217.87"/>
<polygon fill="black" stroke="black" points="300.27,-219.32 300.33,-208.73 293.68,-216.97 300.27,-219.32"/>
</g>
<!-- NASALib/metric_space@euclidean&#45;&gt;NASALib/metric_space@countable_cross -->
<g id="edge29" class="edge">
<title>NASALib/metric_space@euclidean&#45;&gt;NASALib/metric_space@countable_cross</title>
<path fill="none" stroke="black" d="M84,-188C84,-188 84,-166.08 84,-146.77"/>
<polygon fill="black" stroke="black" points="87.5,-146.82 84,-136.82 80.5,-146.82 87.5,-146.82"/>
</g>
<!-- NASALib/metric_space@euclidean&#45;&gt;NASALib/metric_space@metric_def -->
<g id="edge30" class="edge">
<title>NASALib/metric_space@euclidean&#45;&gt;NASALib/metric_space@metric_def</title>
<path fill="none" stroke="black" d="M401,-188C401,-188 411,-163 411,-163 411,-163 505.84,-142.68 568.05,-129.35"/>
<polygon fill="black" stroke="black" points="568.74,-132.78 577.78,-127.26 567.27,-125.93 568.74,-132.78"/>
<path fill="none" stroke="black" d="M281,-263C281,-263 291,-246 291,-246 291,-246 391,-238 391,-238 391,-238 401,-190 401,-190"/>
</g>
<!-- NASALib/metric_space@euclidean&#45;&gt;NASALib/metric_space@metric_space -->
<g id="edge31" class="edge">
<title>NASALib/metric_space@euclidean&#45;&gt;NASALib/metric_space@metric_space</title>
<path fill="none" stroke="black" d="M185.16,-324.04C195.42,-320.75 204,-318 204,-318 204,-318 611,-282 611,-282 611,-282 641,-265 641,-265"/>
<path fill="none" stroke="black" d="M641,-263C641,-263 651,-246 651,-246 651,-246 664.31,-230.14 676.77,-215.29"/>
<polygon fill="black" stroke="black" points="679.18,-217.87 682.93,-207.96 673.82,-213.37 679.18,-217.87"/>
</g>
<!-- NASALib/metric_space@euclidean&#45;&gt;NASALib/metric_space@metric_space_def -->
<g id="edge32" class="edge">
<title>NASALib/metric_space@euclidean&#45;&gt;NASALib/metric_space@metric_space_def</title>
<path fill="none" stroke="black" d="M84,-188C84,-188 99,-163 99,-163 99,-163 147.39,-147.88 188.06,-135.17"/>
<polygon fill="black" stroke="black" points="189.07,-138.52 197.57,-132.2 186.98,-131.84 189.07,-138.52"/>
<path fill="none" stroke="black" d="M176.99,-321C214.93,-300.57 281,-265 281,-265"/>
<path fill="none" stroke="black" d="M281,-263C281,-263 99,-238 99,-238 99,-238 84,-190 84,-190"/>
</g>
<!-- NASALib/metric_space@real_topology -->
<g id="node20" class="node">
<title>NASALib/metric_space@real_topology</title>
<ellipse fill="#e6f3ff" stroke="black" cx="360" cy="-264" rx="59.59" ry="18"/>
<text text-anchor="middle" x="360" y="-260.3" font-family="Times,serif" font-size="14.00">real_topology</text>
</g>
<!-- NASALib/metric_space@euclidean&#45;&gt;NASALib/metric_space@real_topology -->
<g id="edge33" class="edge">
<title>NASALib/metric_space@euclidean&#45;&gt;NASALib/metric_space@real_topology</title>
<path fill="none" stroke="black" d="M184.58,-323.75C218.65,-312.34 271.76,-294.56 310.62,-281.54"/>
<polygon fill="black" stroke="black" points="311.37,-284.98 319.74,-278.49 309.14,-278.34 311.37,-284.98"/>
</g>
<!-- NASALib/metric_space@euclidean&#45;&gt;NASALib/reals -->
<g id="edge34" class="edge">
<title>NASALib/metric_space@euclidean&#45;&gt;NASALib/reals</title>
<path fill="none" stroke="black" d="M185.16,-324.04C195.42,-320.75 204,-318 204,-318 204,-318 1070,-282 1070,-282 1070,-282 1476,-238 1476,-238 1476,-238 1615,-118 1615,-118"/>
<path fill="none" stroke="black" d="M1615,-116C1615,-116 1655,-83 1655,-83 1655,-83 1662.9,-72.46 1671.3,-61.26"/>
<polygon fill="black" stroke="black" points="1673.9,-63.64 1677.1,-53.54 1668.3,-59.44 1673.9,-63.64"/>
</g>
<!-- NASALib/metric_space@euclidean&#45;&gt;NASALib/sets_aux -->
<g id="edge35" class="edge">
<title>NASALib/metric_space@euclidean&#45;&gt;NASALib/sets_aux</title>
<path fill="none" stroke="black" d="M1615,-116C1615,-116 1549,-91 1549,-91 1549,-91 1494,-83 1494,-83 1494,-83 1484.82,-72.25 1475.15,-60.93"/>
<polygon fill="black" stroke="black" points="1477.94,-58.81 1468.78,-53.48 1472.62,-63.36 1477.94,-58.81"/>
</g>
<!-- NASALib/vectors -->
<g id="node28" class="node">
<title>NASALib/vectors</title>
<polygon fill="#fcfcd7" stroke="black" points="1792,-52 1736,-52 1736,-16 1792,-16 1792,-52"/>
<text text-anchor="middle" x="1764" y="-30.3" font-family="Times,serif" font-size="14.00">vectors</text>
</g>
<!-- NASALib/metric_space@euclidean&#45;&gt;NASALib/vectors -->
<g id="edge36" class="edge">
<title>NASALib/metric_space@euclidean&#45;&gt;NASALib/vectors</title>
<path fill="none" stroke="black" d="M1615,-116C1615,-116 1677,-91 1677,-91 1677,-91 1727,-83 1727,-83 1727,-83 1735.12,-72.46 1743.75,-61.26"/>
<polygon fill="black" stroke="black" points="1746.39,-63.58 1749.72,-53.53 1740.84,-59.31 1746.39,-63.58"/>
</g>
<!-- NASALib/metric_space@heine_borel -->
<g id="node11" class="node">
<title>NASALib/metric_space@heine_borel</title>
<ellipse fill="#e6f3ff" stroke="black" cx="284" cy="-408" rx="51.99" ry="18"/>
<text text-anchor="middle" x="284" y="-404.3" font-family="Times,serif" font-size="14.00">heine_borel</text>
</g>
<!-- NASALib/metric_space@heine_borel_scaf -->
<g id="node12" class="node">
<title>NASALib/metric_space@heine_borel_scaf</title>
<ellipse fill="#e6f3ff" stroke="black" cx="284" cy="-336" rx="70.69" ry="18"/>
<text text-anchor="middle" x="284" y="-332.3" font-family="Times,serif" font-size="14.00">heine_borel_scaf</text>
</g>
<!-- NASALib/metric_space@heine_borel&#45;&gt;NASALib/metric_space@heine_borel_scaf -->
<g id="edge37" class="edge">
<title>NASALib/metric_space@heine_borel&#45;&gt;NASALib/metric_space@heine_borel_scaf</title>
<path fill="none" stroke="black" d="M284,-389.7C284,-382.41 284,-373.73 284,-365.54"/>
<polygon fill="black" stroke="black" points="287.5,-365.62 284,-355.62 280.5,-365.62 287.5,-365.62"/>
</g>
<!-- NASALib/metric_space@heine_borel_scaf&#45;&gt;NASALib/metric_space@real_topology -->
<g id="edge38" class="edge">
<title>NASALib/metric_space@heine_borel_scaf&#45;&gt;NASALib/metric_space@real_topology</title>
<path fill="none" stroke="black" d="M302.01,-318.41C311.48,-309.69 323.25,-298.85 333.72,-289.21"/>
<polygon fill="black" stroke="black" points="336.02,-291.84 341.01,-282.5 331.28,-286.7 336.02,-291.84"/>
</g>
<!-- NASALib/metric_space@heine_borel_scaf&#45;&gt;NASALib/reals -->
<g id="edge39" class="edge">
<title>NASALib/metric_space@heine_borel_scaf&#45;&gt;NASALib/reals</title>
<path fill="none" stroke="black" d="M341.59,-325.21C363.82,-321.43 384,-318 384,-318 384,-318 1629,-282 1629,-282 1629,-282 1667.58,-128.32 1683.87,-63.4"/>
<polygon fill="black" stroke="black" points="1687.23,-64.39 1686.27,-53.84 1680.44,-62.68 1687.23,-64.39"/>
</g>
<!-- NASALib/metric_space@metric_continuity&#45;&gt;NASALib/metric_space@metric_def -->
<g id="edge40" class="edge">
<title>NASALib/metric_space@metric_continuity&#45;&gt;NASALib/metric_space@metric_def</title>
<path fill="none" stroke="black" d="M927.05,-247.87C978.02,-226.49 1065,-190 1065,-190"/>
<path fill="none" stroke="black" d="M1065,-188C1065,-188 927,-163 927,-163 927,-163 765.72,-139.28 677.33,-126.28"/>
<polygon fill="black" stroke="black" points="678.05,-122.85 667.65,-124.86 677.03,-129.78 678.05,-122.85"/>
</g>
<!-- NASALib/metric_space@metric_continuity&#45;&gt;NASALib/metric_space@metric_space -->
<g id="edge41" class="edge">
<title>NASALib/metric_space@metric_continuity&#45;&gt;NASALib/metric_space@metric_space</title>
<path fill="none" stroke="black" d="M839.55,-250.87C812.55,-244.5 785,-238 785,-238 785,-238 758.98,-223.64 735.4,-210.63"/>
<polygon fill="black" stroke="black" points="737.3,-207.68 726.85,-205.92 733.92,-213.81 737.3,-207.68"/>
</g>
<!-- NASALib/metric_space@metric_continuity&#45;&gt;NASALib/topology -->
<g id="edge42" class="edge">
<title>NASALib/metric_space@metric_continuity&#45;&gt;NASALib/topology</title>
<path fill="none" stroke="black" d="M1459,-116C1459,-116 1483,-91 1483,-91 1483,-91 1494,-83 1494,-83 1494,-83 1503.18,-72.25 1512.85,-60.93"/>
<polygon fill="black" stroke="black" points="1515.38,-63.36 1519.22,-53.48 1510.06,-58.81 1515.38,-63.36"/>
<path fill="none" stroke="black" d="M953.61,-254.26C1005.22,-247.05 1070,-238 1070,-238 1070,-238 1459,-118 1459,-118"/>
</g>
<!-- lib/finite_sets -->
<g id="node29" class="node">
<title>lib/finite_sets</title>
<polygon fill="#fcfcd7" stroke="black" points="1435,-207 1363,-207 1363,-171 1435,-171 1435,-207"/>
<text text-anchor="middle" x="1399" y="-185.3" font-family="Times,serif" font-size="14.00">finite_sets</text>
</g>
<!-- NASALib/metric_space@metric_continuity&#45;&gt;lib/finite_sets -->
<g id="edge43" class="edge">
<title>NASALib/metric_space@metric_continuity&#45;&gt;lib/finite_sets</title>
<path fill="none" stroke="black" d="M962.12,-259.13C1091.24,-252.12 1351,-238 1351,-238 1351,-238 1362.17,-226.83 1373.73,-215.27"/>
<polygon fill="black" stroke="black" points="1376,-217.95 1380.6,-208.4 1371.05,-213 1376,-217.95"/>
</g>
<!-- NASALib/metric_space@metric_def_real_props&#45;&gt;NASALib/metric_space@metric_def -->
<g id="edge44" class="edge">
<title>NASALib/metric_space@metric_def_real_props&#45;&gt;NASALib/metric_space@metric_def</title>
<path fill="none" stroke="black" d="M537.07,-171.41C552.22,-161.77 571.47,-149.52 587.71,-139.19"/>
<polygon fill="black" stroke="black" points="589.53,-142.17 596.09,-133.85 585.78,-136.27 589.53,-142.17"/>
</g>
<!-- NASALib/metric_space@metric_space&#45;&gt;NASALib/metric_space@countable_cross -->
<g id="edge45" class="edge">
<title>NASALib/metric_space@metric_space&#45;&gt;NASALib/metric_space@countable_cross</title>
<path fill="none" stroke="black" d="M656.54,-176.09C634.13,-169.65 611,-163 611,-163 611,-163 161,-135 161,-135 161,-135 154.8,-133.63 145.91,-131.67"/>
<polygon fill="black" stroke="black" points="146.93,-128.31 136.41,-129.57 145.42,-135.14 146.93,-128.31"/>
</g>
<!-- NASALib/metric_space@metric_space&#45;&gt;NASALib/metric_space@metric_def -->
<g id="edge46" class="edge">
<title>NASALib/metric_space@metric_space&#45;&gt;NASALib/metric_space@metric_def</title>
<path fill="none" stroke="black" d="M680.14,-171.76C670.33,-162.84 657.97,-151.61 647.09,-141.72"/>
<polygon fill="black" stroke="black" points="649.64,-139.3 639.88,-135.17 644.93,-144.48 649.64,-139.3"/>
</g>
<!-- NASALib/metric_space@metric_space&#45;&gt;NASALib/metric_space@metric_space_def -->
<g id="edge47" class="edge">
<title>NASALib/metric_space@metric_space&#45;&gt;NASALib/metric_space@metric_space_def</title>
<path fill="none" stroke="black" d="M656.54,-176.09C634.13,-169.65 611,-163 611,-163 611,-163 426.36,-140.42 318.66,-127.25"/>
<polygon fill="black" stroke="black" points="319.38,-123.81 309.02,-126.07 318.53,-130.76 319.38,-123.81"/>
</g>
<!-- NASALib/metric_space@metric_space&#45;&gt;NASALib/sets_aux -->
<g id="edge48" class="edge">
<title>NASALib/metric_space@metric_space&#45;&gt;NASALib/sets_aux</title>
<path fill="none" stroke="black" d="M739.46,-176.09C761.87,-169.65 785,-163 785,-163 785,-163 1259,-118 1259,-118"/>
<path fill="none" stroke="black" d="M1259,-116C1259,-116 1283,-91 1283,-91 1283,-91 1412,-83 1412,-83 1412,-83 1421.18,-72.25 1430.85,-60.93"/>
<polygon fill="black" stroke="black" points="1433.38,-63.36 1437.22,-53.48 1428.06,-58.81 1433.38,-63.36"/>
</g>
<!-- NASALib/metric_space@metric_space&#45;&gt;NASALib/topology -->
<g id="edge49" class="edge">
<title>NASALib/metric_space@metric_space&#45;&gt;NASALib/topology</title>
<path fill="none" stroke="black" d="M1259,-116C1259,-116 1283,-91 1283,-91 1283,-91 1494,-83 1494,-83 1494,-83 1503.18,-72.25 1512.85,-60.93"/>
<polygon fill="black" stroke="black" points="1515.38,-63.36 1519.22,-53.48 1510.06,-58.81 1515.38,-63.36"/>
</g>
<!-- NASALib/metric_space@metric_space_def&#45;&gt;NASALib/sets_aux -->
<g id="edge50" class="edge">
<title>NASALib/metric_space@metric_space_def&#45;&gt;NASALib/sets_aux</title>
<path fill="none" stroke="black" d="M312.04,-110.61C406.11,-103.26 563,-91 563,-91 563,-91 1412,-83 1412,-83 1412,-83 1421.18,-72.25 1430.85,-60.93"/>
<polygon fill="black" stroke="black" points="1433.38,-63.36 1437.22,-53.48 1428.06,-58.81 1433.38,-63.36"/>
</g>
<!-- NASALib/metric_space@metric_subspace -->
<g id="node18" class="node">
<title>NASALib/metric_space@metric_subspace</title>
<ellipse fill="#e6f3ff" stroke="black" cx="730" cy="-264" rx="69.59" ry="18"/>
<text text-anchor="middle" x="730" y="-260.3" font-family="Times,serif" font-size="14.00">metric_subspace</text>
</g>
<!-- NASALib/metric_space@metric_subspace&#45;&gt;NASALib/metric_space@metric_def -->
<g id="edge51" class="edge">
<title>NASALib/metric_space@metric_subspace&#45;&gt;NASALib/metric_space@metric_def</title>
<path fill="none" stroke="black" d="M752.76,-246.74C759.44,-241.97 765,-238 765,-238 765,-238 765,-163 765,-163 765,-163 710.54,-145.98 668.6,-132.88"/>
<polygon fill="black" stroke="black" points="669.74,-129.57 659.15,-129.92 667.66,-136.25 669.74,-129.57"/>
</g>
<!-- NASALib/metric_space@metric_subspace&#45;&gt;NASALib/metric_space@metric_space -->
<g id="edge52" class="edge">
<title>NASALib/metric_space@metric_subspace&#45;&gt;NASALib/metric_space@metric_space</title>
<path fill="none" stroke="black" d="M722.42,-245.7C718.75,-237.34 714.26,-227.09 710.13,-217.68"/>
<polygon fill="black" stroke="black" points="713.36,-216.32 706.14,-208.56 706.95,-219.13 713.36,-216.32"/>
</g>
<!-- NASALib/metric_space@metric_subspace&#45;&gt;NASALib/metric_space@metric_space_def -->
<g id="edge53" class="edge">
<title>NASALib/metric_space@metric_subspace&#45;&gt;NASALib/metric_space@metric_space_def</title>
<path fill="none" stroke="black" d="M670.15,-254.45C640.52,-250.22 611,-246 611,-246 611,-246 134,-238 134,-238 134,-238 124,-190 124,-190"/>
</g>
<!-- NASALib/metric_space@metric_subspace&#45;&gt;NASALib/topology -->
<g id="edge54" class="edge">
<title>NASALib/metric_space@metric_subspace&#45;&gt;NASALib/topology</title>
<path fill="none" stroke="black" d="M782.25,-251.76C796.95,-248.59 809,-246 809,-246 809,-246 1447,-238 1447,-238 1447,-238 1459,-118 1459,-118"/>
</g>
<!-- NASALib/metric_space@real_continuity -->
<g id="node19" class="node">
<title>NASALib/metric_space@real_continuity</title>
<ellipse fill="#e6f3ff" stroke="black" cx="1275" cy="-336" rx="63.89" ry="18"/>
<text text-anchor="middle" x="1275" y="-332.3" font-family="Times,serif" font-size="14.00">real_continuity</text>
</g>
<!-- NASALib/metric_space@real_continuity&#45;&gt;NASALib/metric_space@metric_continuity -->
<g id="edge55" class="edge">
<title>NASALib/metric_space@real_continuity&#45;&gt;NASALib/metric_space@metric_continuity</title>
<path fill="none" stroke="black" d="M1227.12,-323.85C1213.36,-320.65 1202,-318 1202,-318 1202,-318 1052.74,-292.56 961.02,-276.93"/>
<polygon fill="black" stroke="black" points="961.8,-273.52 951.35,-275.29 960.62,-280.42 961.8,-273.52"/>
</g>
<!-- NASALib/metric_space@real_continuity&#45;&gt;NASALib/metric_space@metric_def -->
<g id="edge56" class="edge">
<title>NASALib/metric_space@real_continuity&#45;&gt;NASALib/metric_space@metric_def</title>
<path fill="none" stroke="black" d="M1235.01,-321.67C1174.08,-301.36 1065,-265 1065,-265"/>
</g>
<!-- NASALib/power -->
<g id="node23" class="node">
<title>NASALib/power</title>
<polygon fill="#fcfcd7" stroke="black" points="1864,-52 1810,-52 1810,-16 1864,-16 1864,-52"/>
<text text-anchor="middle" x="1837" y="-30.3" font-family="Times,serif" font-size="14.00">power</text>
</g>
<!-- NASALib/metric_space@real_continuity&#45;&gt;NASALib/power -->
<g id="edge57" class="edge">
<title>NASALib/metric_space@real_continuity&#45;&gt;NASALib/power</title>
<path fill="none" stroke="black" d="M1331.58,-327.35C1440.14,-312.67 1667,-282 1667,-282 1667,-282 1691,-118 1691,-118"/>
<path fill="none" stroke="black" d="M1691,-116C1691,-116 1801,-83 1801,-83 1801,-83 1808.9,-72.46 1817.3,-61.26"/>
<polygon fill="black" stroke="black" points="1819.9,-63.64 1823.1,-53.54 1814.3,-59.44 1819.9,-63.64"/>
</g>
<!-- NASALib/metric_space@real_continuity&#45;&gt;NASALib/reals -->
<g id="edge58" class="edge">
<title>NASALib/metric_space@real_continuity&#45;&gt;NASALib/reals</title>
<path fill="none" stroke="black" d="M1691,-116C1691,-116 1691,-86.96 1691,-63.66"/>
<polygon fill="black" stroke="black" points="1694.5,-63.69 1691,-53.69 1687.5,-63.69 1694.5,-63.69"/>
</g>
<!-- NASALib/metric_space@real_continuity&#45;&gt;NASALib/topology -->
<g id="edge59" class="edge">
<title>NASALib/metric_space@real_continuity&#45;&gt;NASALib/topology</title>
<path fill="none" stroke="black" d="M1691,-116C1691,-116 1629,-91 1629,-91 1629,-91 1577,-83 1577,-83 1577,-83 1567.6,-72.25 1557.69,-60.93"/>
<polygon fill="black" stroke="black" points="1560.38,-58.69 1551.16,-53.47 1555.11,-63.3 1560.38,-58.69"/>
</g>
<!-- NASALib/metric_space@real_topology&#45;&gt;NASALib/metric_space@countable_cross -->
<g id="edge60" class="edge">
<title>NASALib/metric_space@real_topology&#45;&gt;NASALib/metric_space@countable_cross</title>
<path fill="none" stroke="black" d="M313.55,-252.33C298.69,-248.91 286,-246 286,-246 286,-246 119,-238 119,-238 119,-238 104,-190 104,-190"/>
<path fill="none" stroke="black" d="M104,-188C104,-188 97.62,-165.66 92.06,-146.22"/>
<polygon fill="black" stroke="black" points="95.47,-145.41 89.36,-136.76 88.74,-147.34 95.47,-145.41"/>
</g>
<!-- NASALib/metric_space@real_topology&#45;&gt;NASALib/metric_space@metric_def -->
<g id="edge61" class="edge">
<title>NASALib/metric_space@real_topology&#45;&gt;NASALib/metric_space@metric_def</title>
<path fill="none" stroke="black" d="M380.16,-246.74C386.08,-241.97 391,-238 391,-238 391,-238 401,-190 401,-190"/>
</g>
<!-- NASALib/metric_space@real_topology&#45;&gt;NASALib/metric_space@metric_def_real_props -->
<g id="edge62" class="edge">
<title>NASALib/metric_space@real_topology&#45;&gt;NASALib/metric_space@metric_def_real_props</title>
<path fill="none" stroke="black" d="M390.56,-248.23C412.65,-237.55 442.82,-222.96 467.43,-211.06"/>
<polygon fill="black" stroke="black" points="468.76,-214.31 476.24,-206.8 465.71,-208.01 468.76,-214.31"/>
</g>
<!-- NASALib/metric_space@real_topology&#45;&gt;NASALib/metric_space@metric_space -->
<g id="edge63" class="edge">
<title>NASALib/metric_space@real_topology&#45;&gt;NASALib/metric_space@metric_space</title>
<path fill="none" stroke="black" d="M409.45,-253.56C429.93,-249.64 449,-246 449,-246 449,-246 626,-238 626,-238 626,-238 646.07,-224.62 665.02,-211.99"/>
<polygon fill="black" stroke="black" points="666.79,-215.02 673.17,-206.56 662.9,-209.19 666.79,-215.02"/>
</g>
<!-- NASALib/metric_space@real_topology&#45;&gt;NASALib/metric_space@metric_space_def -->
<g id="edge64" class="edge">
<title>NASALib/metric_space@real_topology&#45;&gt;NASALib/metric_space@metric_space_def</title>
<path fill="none" stroke="black" d="M104,-188C104,-188 119,-163 119,-163 119,-163 158.29,-148.74 192.63,-136.28"/>
<polygon fill="black" stroke="black" points="193.45,-139.7 201.66,-133 191.07,-133.12 193.45,-139.7"/>
</g>
<!-- NASALib/metric_space@real_topology&#45;&gt;NASALib/reals -->
<g id="edge65" class="edge">
<title>NASALib/metric_space@real_topology&#45;&gt;NASALib/reals</title>
<path fill="none" stroke="black" d="M1497,-116C1497,-116 1521,-91 1521,-91 1521,-91 1655,-83 1655,-83 1655,-83 1662.9,-72.46 1671.3,-61.26"/>
<polygon fill="black" stroke="black" points="1673.9,-63.64 1677.1,-53.54 1668.3,-59.44 1673.9,-63.64"/>
<path fill="none" stroke="black" d="M409.45,-253.56C429.93,-249.64 449,-246 449,-246 449,-246 1447,-238 1447,-238 1447,-238 1497,-118 1497,-118"/>
</g>
<!-- NASALib/metric_space@real_topology&#45;&gt;NASALib/sets_aux -->
<g id="edge66" class="edge">
<title>NASALib/metric_space@real_topology&#45;&gt;NASALib/sets_aux</title>
<path fill="none" stroke="black" d="M1497,-116C1497,-116 1480.49,-85.61 1467.7,-62.06"/>
<polygon fill="black" stroke="black" points="1470.9,-60.62 1463.05,-53.51 1464.75,-63.97 1470.9,-60.62"/>
</g>
<!-- NASALib/metric_space@submetric_def -->
<g id="node21" class="node">
<title>NASALib/metric_space@submetric_def</title>
<ellipse fill="#e6f3ff" stroke="black" cx="856" cy="-189" rx="61.99" ry="18"/>
<text text-anchor="middle" x="856" y="-185.3" font-family="Times,serif" font-size="14.00">submetric_def</text>
</g>
<!-- NASALib/metric_space@submetric_def&#45;&gt;NASALib/metric_space@metric_def -->
<g id="edge67" class="edge">
<title>NASALib/metric_space@submetric_def&#45;&gt;NASALib/metric_space@metric_def</title>
<path fill="none" stroke="black" d="M816.22,-174.91C797.83,-168.87 780,-163 780,-163 780,-163 716.68,-145.08 669.96,-131.86"/>
<polygon fill="black" stroke="black" points="671.12,-128.55 660.54,-129.19 669.21,-135.28 671.12,-128.55"/>
</g>
<!-- NASALib/metric_space@test_cont -->
<g id="node22" class="node">
<title>NASALib/metric_space@test_cont</title>
<ellipse fill="#e6f3ff" stroke="black" cx="436" cy="-408" rx="42.49" ry="18"/>
<text text-anchor="middle" x="436" y="-404.3" font-family="Times,serif" font-size="14.00">test_cont</text>
</g>
<!-- NASALib/metric_space@test_cont&#45;&gt;NASALib/metric_space@continuity_subspace -->
<g id="edge68" class="edge">
<title>NASALib/metric_space@test_cont&#45;&gt;NASALib/metric_space@continuity_subspace</title>
<path fill="none" stroke="black" d="M445.68,-390.05C450.14,-382.26 455.53,-372.82 460.53,-364.08"/>
<polygon fill="black" stroke="black" points="463.45,-366.01 465.38,-355.59 457.38,-362.54 463.45,-366.01"/>
</g>
<!-- NASALib/metric_space@test_cont&#45;&gt;NASALib/metric_space@real_topology -->
<g id="edge69" class="edge">
<title>NASALib/metric_space@test_cont&#45;&gt;NASALib/metric_space@real_topology</title>
<path fill="none" stroke="black" d="M420.12,-390.81C404.82,-375.22 384,-354 384,-354 384,-354 374.59,-319.11 367.56,-293.02"/>
<polygon fill="black" stroke="black" points="371,-292.37 365.02,-283.62 364.25,-294.19 371,-292.37"/>
</g>
</g>
</svg>
