<?xml version="1.0" encoding="UTF-8" standalone="no"?>
<!DOCTYPE svg PUBLIC "-//W3C//DTD SVG 1.1//EN"
 "http://www.w3.org/Graphics/SVG/1.1/DTD/svg11.dtd">
<!-- Generated by graphviz version 8.0.4 (20230421.1958)
 -->
<!-- Title: float&#45;float_bounded Pages: 1 -->
<svg width="696pt" height="257pt"
 viewBox="0.00 0.00 696.00 257.00" xmlns="http://www.w3.org/2000/svg" xmlns:xlink="http://www.w3.org/1999/xlink">
<g id="graph0" class="graph" transform="scale(1 1) rotate(0) translate(4 253)">
<title>float&#45;float_bounded</title>
<polygon fill="white" stroke="none" points="-4,4 -4,-253 692,-253 692,4 -4,4"/>
<g id="clust1" class="cluster">
<title>cluster_NASALib</title>
<polygon fill="none" stroke="black" points="8,-8 8,-84.5 680,-84.5 680,-8 8,-8"/>
<text text-anchor="middle" x="344" y="-67.2" font-family="Times,serif" font-size="14.00">NASALib</text>
</g>
<g id="clust2" class="cluster">
<title>cluster_float</title>
<polygon fill="none" stroke="black" points="257,-92.5 257,-241 553,-241 553,-92.5 257,-92.5"/>
<text text-anchor="middle" x="405" y="-223.7" font-family="Times,serif" font-size="14.00">float</text>
</g>
<!-- float/float_bounded -->
<g id="node1" class="node">
<title>float/float_bounded</title>
<polygon fill="#f7e28d" stroke="black" points="515,-208.5 421,-208.5 421,-172.5 515,-172.5 515,-208.5"/>
<text text-anchor="middle" x="468" y="-185.45" font-family="Times,serif" font-size="14.00">float_bounded</text>
</g>
<!-- float/float_bounded_axiomatic -->
<g id="node2" class="node">
<title>float/float_bounded_axiomatic</title>
<polygon fill="#fcfcd7" stroke="black" points="545.38,-136.5 390.62,-136.5 390.62,-100.5 545.38,-100.5 545.38,-136.5"/>
<text text-anchor="middle" x="468" y="-113.45" font-family="Times,serif" font-size="14.00">float_bounded_axiomatic</text>
</g>
<!-- float/float_bounded&#45;&gt;float/float_bounded_axiomatic -->
<g id="edge5" class="edge">
<title>float/float_bounded&#45;&gt;float/float_bounded_axiomatic</title>
<path fill="none" stroke="black" d="M468,-172.2C468,-164.74 468,-155.82 468,-147.47"/>
<polygon fill="black" stroke="black" points="471.5,-147.6 468,-137.6 464.5,-147.6 471.5,-147.6"/>
</g>
<!-- float/float_unbounded -->
<g id="node3" class="node">
<title>float/float_unbounded</title>
<polygon fill="#fcfcd7" stroke="black" points="372.75,-136.5 265.25,-136.5 265.25,-100.5 372.75,-100.5 372.75,-136.5"/>
<text text-anchor="middle" x="319" y="-113.45" font-family="Times,serif" font-size="14.00">float_unbounded</text>
</g>
<!-- float/float_bounded&#45;&gt;float/float_unbounded -->
<g id="edge6" class="edge">
<title>float/float_bounded&#45;&gt;float/float_unbounded</title>
<path fill="none" stroke="black" d="M430.79,-172.02C411.07,-162.75 386.65,-151.28 365.67,-141.43"/>
<polygon fill="black" stroke="black" points="367.54,-137.97 357,-136.88 364.56,-144.3 367.54,-137.97"/>
</g>
<!-- pvslib&#45;gitlab&#45;pvs&#45;8.0&#45;fixes/power -->
<g id="node8" class="node">
<title>pvslib&#45;gitlab&#45;pvs&#45;8.0&#45;fixes/power</title>
<polygon fill="#fcfcd7" stroke="black" points="672,-52 618,-52 618,-16 672,-16 672,-52"/>
<text text-anchor="middle" x="645" y="-28.95" font-family="Times,serif" font-size="14.00">power</text>
</g>
<!-- float/float_bounded&#45;&gt;pvslib&#45;gitlab&#45;pvs&#45;8.0&#45;fixes/power -->
<g id="edge7" class="edge">
<title>float/float_bounded&#45;&gt;pvslib&#45;gitlab&#45;pvs&#45;8.0&#45;fixes/power</title>
<path fill="none" stroke="black" d="M573,-117.5C573,-117.5 609,-84.5 609,-84.5 609,-84.5 617.44,-72.9 626.14,-60.93"/>
<polygon fill="black" stroke="black" points="629.36,-63.46 632.41,-53.31 623.7,-59.34 629.36,-63.46"/>
</g>
<!-- pvslib&#45;gitlab&#45;pvs&#45;8.0&#45;fixes/reals -->
<g id="node9" class="node">
<title>pvslib&#45;gitlab&#45;pvs&#45;8.0&#45;fixes/reals</title>
<polygon fill="#fcfcd7" stroke="black" points="600,-52 546,-52 546,-16 600,-16 600,-52"/>
<text text-anchor="middle" x="573" y="-28.95" font-family="Times,serif" font-size="14.00">reals</text>
</g>
<!-- float/float_bounded&#45;&gt;pvslib&#45;gitlab&#45;pvs&#45;8.0&#45;fixes/reals -->
<g id="edge8" class="edge">
<title>float/float_bounded&#45;&gt;pvslib&#45;gitlab&#45;pvs&#45;8.0&#45;fixes/reals</title>
<path fill="none" stroke="black" d="M573,-117.5C573,-117.5 573,-87.1 573,-63.21"/>
<polygon fill="black" stroke="black" points="576.5,-63.5 573,-53.5 569.5,-63.5 576.5,-63.5"/>
</g>
<!-- pvslib&#45;gitlab&#45;pvs&#45;8.0&#45;fixes/trig -->
<g id="node11" class="node">
<title>pvslib&#45;gitlab&#45;pvs&#45;8.0&#45;fixes/trig</title>
<polygon fill="#fcfcd7" stroke="black" points="528,-52 474,-52 474,-16 528,-16 528,-52"/>
<text text-anchor="middle" x="501" y="-28.95" font-family="Times,serif" font-size="14.00">trig</text>
</g>
<!-- float/float_bounded&#45;&gt;pvslib&#45;gitlab&#45;pvs&#45;8.0&#45;fixes/trig -->
<g id="edge9" class="edge">
<title>float/float_bounded&#45;&gt;pvslib&#45;gitlab&#45;pvs&#45;8.0&#45;fixes/trig</title>
<path fill="none" stroke="black" d="M496.16,-172.15C521.24,-156.69 554,-136.5 554,-136.5 554,-136.5 573,-119.5 573,-119.5"/>
<path fill="none" stroke="black" d="M573,-117.5C573,-117.5 554,-92.5 554,-92.5 554,-92.5 537,-84.5 537,-84.5 537,-84.5 528.56,-72.9 519.86,-60.93"/>
<polygon fill="black" stroke="black" points="522.3,-59.34 513.59,-53.31 516.64,-63.46 522.3,-59.34"/>
</g>
<!-- pvslib&#45;gitlab&#45;pvs&#45;8.0&#45;fixes/fault_tolerance -->
<g id="node5" class="node">
<title>pvslib&#45;gitlab&#45;pvs&#45;8.0&#45;fixes/fault_tolerance</title>
<polygon fill="#fcfcd7" stroke="black" points="455.5,-52 358.5,-52 358.5,-16 455.5,-16 455.5,-52"/>
<text text-anchor="middle" x="407" y="-28.95" font-family="Times,serif" font-size="14.00">fault_tolerance</text>
</g>
<!-- float/float_bounded_axiomatic&#45;&gt;pvslib&#45;gitlab&#45;pvs&#45;8.0&#45;fixes/fault_tolerance -->
<g id="edge1" class="edge">
<title>float/float_bounded_axiomatic&#45;&gt;pvslib&#45;gitlab&#45;pvs&#45;8.0&#45;fixes/fault_tolerance</title>
<path fill="none" stroke="black" d="M455.06,-100C446.73,-88.74 435.75,-73.89 426.39,-61.22"/>
<polygon fill="black" stroke="black" points="428.68,-59.43 419.92,-53.47 423.05,-63.59 428.68,-59.43"/>
</g>
<!-- float/float_bounded_axiomatic&#45;&gt;pvslib&#45;gitlab&#45;pvs&#45;8.0&#45;fixes/power -->
<g id="edge2" class="edge">
<title>float/float_bounded_axiomatic&#45;&gt;pvslib&#45;gitlab&#45;pvs&#45;8.0&#45;fixes/power</title>
<path fill="none" stroke="black" d="M531.7,-100C546.99,-95.8 559,-92.5 559,-92.5 559,-92.5 609,-84.5 609,-84.5 609,-84.5 617.44,-72.9 626.14,-60.93"/>
<polygon fill="black" stroke="black" points="629.36,-63.46 632.41,-53.31 623.7,-59.34 629.36,-63.46"/>
</g>
<!-- float/float_bounded_axiomatic&#45;&gt;pvslib&#45;gitlab&#45;pvs&#45;8.0&#45;fixes/reals -->
<g id="edge3" class="edge">
<title>float/float_bounded_axiomatic&#45;&gt;pvslib&#45;gitlab&#45;pvs&#45;8.0&#45;fixes/reals</title>
<path fill="none" stroke="black" d="M504.52,-100.03C521.07,-92.12 537,-84.5 537,-84.5 537,-84.5 545.44,-72.9 554.14,-60.93"/>
<polygon fill="black" stroke="black" points="557.36,-63.46 560.41,-53.31 551.7,-59.34 557.36,-63.46"/>
</g>
<!-- float/float_bounded_axiomatic&#45;&gt;pvslib&#45;gitlab&#45;pvs&#45;8.0&#45;fixes/trig -->
<g id="edge4" class="edge">
<title>float/float_bounded_axiomatic&#45;&gt;pvslib&#45;gitlab&#45;pvs&#45;8.0&#45;fixes/trig</title>
<path fill="none" stroke="black" d="M475,-100C479.37,-89.07 485.1,-74.75 490.07,-62.33"/>
<polygon fill="black" stroke="black" points="493.55,-64.06 494.01,-53.47 487.05,-61.46 493.55,-64.06"/>
</g>
<!-- pvslib&#45;gitlab&#45;pvs&#45;8.0&#45;fixes/analysis -->
<g id="node4" class="node">
<title>pvslib&#45;gitlab&#45;pvs&#45;8.0&#45;fixes/analysis</title>
<polygon fill="#fcfcd7" stroke="black" points="253.75,-52 194.25,-52 194.25,-16 253.75,-16 253.75,-52"/>
<text text-anchor="middle" x="224" y="-28.95" font-family="Times,serif" font-size="14.00">analysis</text>
</g>
<!-- float/float_unbounded&#45;&gt;pvslib&#45;gitlab&#45;pvs&#45;8.0&#45;fixes/analysis -->
<g id="edge10" class="edge">
<title>float/float_unbounded&#45;&gt;pvslib&#45;gitlab&#45;pvs&#45;8.0&#45;fixes/analysis</title>
<path fill="none" stroke="black" d="M289.36,-100.03C275.93,-92.12 263,-84.5 263,-84.5 263,-84.5 253.86,-72.9 244.43,-60.93"/>
<polygon fill="black" stroke="black" points="246.58,-59 237.64,-53.31 241.08,-63.33 246.58,-59"/>
</g>
<!-- pvslib&#45;gitlab&#45;pvs&#45;8.0&#45;fixes/interval_arith -->
<g id="node6" class="node">
<title>pvslib&#45;gitlab&#45;pvs&#45;8.0&#45;fixes/interval_arith</title>
<polygon fill="#fcfcd7" stroke="black" points="176.38,-52 87.62,-52 87.62,-16 176.38,-16 176.38,-52"/>
<text text-anchor="middle" x="132" y="-28.95" font-family="Times,serif" font-size="14.00">interval_arith</text>
</g>
<!-- float/float_unbounded&#45;&gt;pvslib&#45;gitlab&#45;pvs&#45;8.0&#45;fixes/interval_arith -->
<g id="edge11" class="edge">
<title>float/float_unbounded&#45;&gt;pvslib&#45;gitlab&#45;pvs&#45;8.0&#45;fixes/interval_arith</title>
<path fill="none" stroke="black" d="M264.88,-104.17C227.69,-95.01 185,-84.5 185,-84.5 185,-84.5 171.6,-71.98 158.27,-59.54"/>
<polygon fill="black" stroke="black" points="161.23,-57.58 151.54,-53.31 156.46,-62.7 161.23,-57.58"/>
</g>
<!-- pvslib&#45;gitlab&#45;pvs&#45;8.0&#45;fixes/lnexp -->
<g id="node7" class="node">
<title>pvslib&#45;gitlab&#45;pvs&#45;8.0&#45;fixes/lnexp</title>
<polygon fill="#fcfcd7" stroke="black" points="70,-52 16,-52 16,-16 70,-16 70,-52"/>
<text text-anchor="middle" x="43" y="-28.95" font-family="Times,serif" font-size="14.00">lnexp</text>
</g>
<!-- float/float_unbounded&#45;&gt;pvslib&#45;gitlab&#45;pvs&#45;8.0&#45;fixes/lnexp -->
<g id="edge12" class="edge">
<title>float/float_unbounded&#45;&gt;pvslib&#45;gitlab&#45;pvs&#45;8.0&#45;fixes/lnexp</title>
<path fill="none" stroke="black" d="M264.84,-110.05C194.05,-100.32 79,-84.5 79,-84.5 79,-84.5 70.56,-72.9 61.86,-60.93"/>
<polygon fill="black" stroke="black" points="64.3,-59.34 55.59,-53.31 58.64,-63.46 64.3,-59.34"/>
</g>
<!-- float/float_unbounded&#45;&gt;pvslib&#45;gitlab&#45;pvs&#45;8.0&#45;fixes/reals -->
<g id="edge13" class="edge">
<title>float/float_unbounded&#45;&gt;pvslib&#45;gitlab&#45;pvs&#45;8.0&#45;fixes/reals</title>
<path fill="none" stroke="black" d="M363.1,-100C373.69,-95.8 382,-92.5 382,-92.5 382,-92.5 537,-84.5 537,-84.5 537,-84.5 545.44,-72.9 554.14,-60.93"/>
<polygon fill="black" stroke="black" points="557.36,-63.46 560.41,-53.31 551.7,-59.34 557.36,-63.46"/>
</g>
<!-- pvslib&#45;gitlab&#45;pvs&#45;8.0&#45;fixes/structures -->
<g id="node10" class="node">
<title>pvslib&#45;gitlab&#45;pvs&#45;8.0&#45;fixes/structures</title>
<polygon fill="#fcfcd7" stroke="black" points="340.25,-52 271.75,-52 271.75,-16 340.25,-16 340.25,-52"/>
<text text-anchor="middle" x="306" y="-28.95" font-family="Times,serif" font-size="14.00">structures</text>
</g>
<!-- float/float_unbounded&#45;&gt;pvslib&#45;gitlab&#45;pvs&#45;8.0&#45;fixes/structures -->
<g id="edge14" class="edge">
<title>float/float_unbounded&#45;&gt;pvslib&#45;gitlab&#45;pvs&#45;8.0&#45;fixes/structures</title>
<path fill="none" stroke="black" d="M316.24,-100C314.55,-89.28 312.35,-75.32 310.42,-63.08"/>
<polygon fill="black" stroke="black" points="313.77,-62.8 308.75,-53.47 306.85,-63.89 313.77,-62.8"/>
</g>
<!-- float/float_unbounded&#45;&gt;pvslib&#45;gitlab&#45;pvs&#45;8.0&#45;fixes/trig -->
<g id="edge15" class="edge">
<title>float/float_unbounded&#45;&gt;pvslib&#45;gitlab&#45;pvs&#45;8.0&#45;fixes/trig</title>
<path fill="none" stroke="black" d="M363.1,-100C373.69,-95.8 382,-92.5 382,-92.5 382,-92.5 465,-84.5 465,-84.5 465,-84.5 473.44,-72.9 482.14,-60.93"/>
<polygon fill="black" stroke="black" points="485.36,-63.46 488.41,-53.31 479.7,-59.34 485.36,-63.46"/>
</g>
</g>
</svg>
