<?xml version="1.0" encoding="UTF-8" standalone="no"?>
<!DOCTYPE svg PUBLIC "-//W3C//DTD SVG 1.1//EN"
 "http://www.w3.org/Graphics/SVG/1.1/DTD/svg11.dtd">
<!-- Generated by graphviz version 8.1.0 (20230707.0739)
 -->
<!-- Title: sigma_set Pages: 1 -->
<svg width="630pt" height="761pt"
 viewBox="0.00 0.00 630.00 761.00" xmlns="http://www.w3.org/2000/svg" xmlns:xlink="http://www.w3.org/1999/xlink">
<g id="graph0" class="graph" transform="scale(1 1) rotate(0) translate(4 757)">
<title>sigma_set</title>
<polygon fill="white" stroke="none" points="-4,4 -4,-757 626,-757 626,4 -4,4"/>
<g id="clust1" class="cluster">
<title>cluster_NASALib</title>
<polygon fill="none" stroke="black" points="8,-92.5 8,-745 602,-745 602,-92.5 8,-92.5"/>
<text text-anchor="middle" x="305" y="-727.7" font-family="Times,serif" font-size="14.00">NASALib</text>
</g>
<g id="clust2" class="cluster">
<title>cluster_PVS Prelude</title>
<polygon fill="none" stroke="black" points="421,-8 421,-84.5 509,-84.5 509,-8 421,-8"/>
<text text-anchor="middle" x="465" y="-67.2" font-family="Times,serif" font-size="14.00">PVS Prelude</text>
</g>
<!-- lib/finite_sets -->
<g id="node1" class="node">
<title>lib/finite_sets</title>
<polygon fill="#fcfcd7" stroke="black" points="500.75,-52 429.25,-52 429.25,-16 500.75,-16 500.75,-52"/>
<text text-anchor="middle" x="465" y="-28.95" font-family="Times,serif" font-size="14.00">finite_sets</text>
</g>
<!-- nasalib/Bernstein -->
<g id="node2" class="node">
<title>nasalib/Bernstein</title>
<polygon fill="#fcfcd7" stroke="black" points="143.88,-568.5 76.12,-568.5 76.12,-532.5 143.88,-532.5 143.88,-568.5"/>
<text text-anchor="middle" x="110" y="-545.45" font-family="Times,serif" font-size="14.00">Bernstein</text>
</g>
<!-- nasalib/reals -->
<g id="node14" class="node">
<title>nasalib/reals</title>
<polygon fill="#fcfcd7" stroke="black" points="281,-280.5 227,-280.5 227,-244.5 281,-244.5 281,-280.5"/>
<text text-anchor="middle" x="254" y="-257.45" font-family="Times,serif" font-size="14.00">reals</text>
</g>
<!-- nasalib/Bernstein&#45;&gt;nasalib/reals -->
<g id="edge1" class="edge">
<title>nasalib/Bernstein&#45;&gt;nasalib/reals</title>
<path fill="none" stroke="black" d="M114.94,-532.2C120.87,-511.47 130,-479.5 130,-479.5"/>
</g>
<!-- nasalib/sigma_set -->
<g id="node18" class="node">
<title>nasalib/sigma_set</title>
<polygon fill="#f7e28d" stroke="black" points="348.38,-496.5 277.62,-496.5 277.62,-460.5 348.38,-460.5 348.38,-496.5"/>
<text text-anchor="middle" x="313" y="-473.45" font-family="Times,serif" font-size="14.00">sigma_set</text>
</g>
<!-- nasalib/Bernstein&#45;&gt;nasalib/sigma_set -->
<g id="edge2" class="edge">
<title>nasalib/Bernstein&#45;&gt;nasalib/sigma_set</title>
<path fill="none" stroke="black" d="M143.98,-537.78C177.71,-526.15 229.66,-508.24 267.07,-495.34"/>
<polygon fill="black" stroke="black" points="267.89,-498.41 276.2,-491.84 265.61,-491.8 267.89,-498.41"/>
</g>
<!-- nasalib/structures -->
<g id="node19" class="node">
<title>nasalib/structures</title>
<polygon fill="#fcfcd7" stroke="black" points="407.25,-208.5 338.75,-208.5 338.75,-172.5 407.25,-172.5 407.25,-208.5"/>
<text text-anchor="middle" x="373" y="-185.45" font-family="Times,serif" font-size="14.00">structures</text>
</g>
<!-- nasalib/Bernstein&#45;&gt;nasalib/structures -->
<g id="edge3" class="edge">
<title>nasalib/Bernstein&#45;&gt;nasalib/structures</title>
<path fill="none" stroke="black" d="M110,-532.35C110,-481.57 110,-335.5 110,-335.5"/>
</g>
<!-- nasalib/algebra -->
<g id="node3" class="node">
<title>nasalib/algebra</title>
<polygon fill="#fcfcd7" stroke="black" points="513.88,-568.5 458.12,-568.5 458.12,-532.5 513.88,-532.5 513.88,-568.5"/>
<text text-anchor="middle" x="486" y="-545.45" font-family="Times,serif" font-size="14.00">algebra</text>
</g>
<!-- nasalib/algebra&#45;&gt;lib/finite_sets -->
<g id="edge4" class="edge">
<title>nasalib/algebra&#45;&gt;lib/finite_sets</title>
<path fill="none" stroke="black" d="M622,-477.5C622,-477.5 602,-263.5 602,-263.5"/>
<path fill="none" stroke="black" d="M514.18,-535C554.01,-514.49 622,-479.5 622,-479.5"/>
</g>
<!-- nasalib/ints -->
<g id="node9" class="node">
<title>nasalib/ints</title>
<polygon fill="#fcfcd7" stroke="black" points="400,-136.5 346,-136.5 346,-100.5 400,-100.5 400,-136.5"/>
<text text-anchor="middle" x="373" y="-113.45" font-family="Times,serif" font-size="14.00">ints</text>
</g>
<!-- nasalib/algebra&#45;&gt;nasalib/ints -->
<g id="edge5" class="edge">
<title>nasalib/algebra&#45;&gt;nasalib/ints</title>
<path fill="none" stroke="black" d="M513,-405.5C513,-405.5 518,-280.5 518,-280.5 518,-280.5 518,-244.5 518,-244.5 518,-244.5 443.61,-180.37 401.39,-143.98"/>
<polygon fill="black" stroke="black" points="404.02,-140.76 394.16,-136.88 399.45,-146.06 404.02,-140.76"/>
</g>
<!-- nasalib/algebra&#45;&gt;nasalib/reals -->
<g id="edge6" class="edge">
<title>nasalib/algebra&#45;&gt;nasalib/reals</title>
<path fill="none" stroke="black" d="M472.25,-532.37C429.06,-478.56 299,-316.5 299,-316.5 299,-316.5 287.24,-302.65 275.75,-289.12"/>
<polygon fill="black" stroke="black" points="277.88,-287.21 268.73,-281.85 272.54,-291.74 277.88,-287.21"/>
</g>
<!-- nasalib/algebra&#45;&gt;nasalib/sigma_set -->
<g id="edge7" class="edge">
<title>nasalib/algebra&#45;&gt;nasalib/sigma_set</title>
<path fill="none" stroke="black" d="M457.75,-538.07C450.15,-534.99 444,-532.5 444,-532.5 444,-532.5 396.46,-513.27 358.66,-497.97"/>
<polygon fill="black" stroke="black" points="360.38,-494.49 349.8,-493.98 357.75,-500.98 360.38,-494.49"/>
</g>
<!-- nasalib/algebra&#45;&gt;nasalib/structures -->
<g id="edge8" class="edge">
<title>nasalib/algebra&#45;&gt;nasalib/structures</title>
<path fill="none" stroke="black" d="M513,-261.5C513,-261.5 458.43,-234.22 417.43,-213.72"/>
<polygon fill="black" stroke="black" points="419.12,-210.15 408.61,-208.8 415.99,-216.41 419.12,-210.15"/>
<path fill="none" stroke="black" d="M513,-405.5C513,-405.5 508,-352.5 508,-352.5 508,-352.5 508,-316.5 508,-316.5 508,-316.5 513,-263.5 513,-263.5"/>
<path fill="none" stroke="black" d="M489.31,-532.09C496.52,-494.17 513,-407.5 513,-407.5"/>
</g>
<!-- nasalib/analysis -->
<g id="node4" class="node">
<title>nasalib/analysis</title>
<polygon fill="#fcfcd7" stroke="black" points="253.75,-352.5 194.25,-352.5 194.25,-316.5 253.75,-316.5 253.75,-352.5"/>
<text text-anchor="middle" x="224" y="-329.45" font-family="Times,serif" font-size="14.00">analysis</text>
</g>
<!-- nasalib/analysis&#45;&gt;lib/finite_sets -->
<g id="edge9" class="edge">
<title>nasalib/analysis&#45;&gt;lib/finite_sets</title>
<path fill="none" stroke="black" d="M602,-261.5C602,-261.5 602,-191.5 602,-191.5"/>
<path fill="none" stroke="black" d="M254.1,-329.12C341.31,-316.42 588,-280.5 588,-280.5 588,-280.5 602,-263.5 602,-263.5"/>
</g>
<!-- nasalib/analysis&#45;&gt;nasalib/ints -->
<g id="edge10" class="edge">
<title>nasalib/analysis&#45;&gt;nasalib/ints</title>
<path fill="none" stroke="black" d="M245.61,-316.15C264.86,-300.69 290,-280.5 290,-280.5 290,-280.5 300,-263.5 300,-263.5"/>
<path fill="none" stroke="black" d="M300,-261.5C300,-261.5 320,-191.5 320,-191.5"/>
</g>
<!-- nasalib/orders -->
<g id="node12" class="node">
<title>nasalib/orders</title>
<polygon fill="#fcfcd7" stroke="black" points="450,-280.5 396,-280.5 396,-244.5 450,-244.5 450,-280.5"/>
<text text-anchor="middle" x="423" y="-257.45" font-family="Times,serif" font-size="14.00">orders</text>
</g>
<!-- nasalib/analysis&#45;&gt;nasalib/orders -->
<g id="edge11" class="edge">
<title>nasalib/analysis&#45;&gt;nasalib/orders</title>
<path fill="none" stroke="black" d="M254.06,-323.16C298.88,-307.73 378,-280.5 378,-280.5 378,-280.5 381.03,-279.36 385.52,-277.66"/>
<polygon fill="black" stroke="black" points="386.41,-280.69 394.53,-273.88 383.94,-274.14 386.41,-280.69"/>
</g>
<!-- nasalib/analysis&#45;&gt;nasalib/reals -->
<g id="edge12" class="edge">
<title>nasalib/analysis&#45;&gt;nasalib/reals</title>
<path fill="none" stroke="black" d="M231.42,-316.2C234.72,-308.48 238.69,-299.21 242.38,-290.61"/>
<polygon fill="black" stroke="black" points="245.95,-292.17 246.67,-281.6 239.51,-289.42 245.95,-292.17"/>
</g>
<!-- nasalib/analysis&#45;&gt;nasalib/structures -->
<g id="edge13" class="edge">
<title>nasalib/analysis&#45;&gt;nasalib/structures</title>
<path fill="none" stroke="black" d="M300,-261.5C300,-261.5 326.21,-236.36 347.22,-216.22"/>
<polygon fill="black" stroke="black" points="349.16,-219.25 353.96,-209.8 344.31,-214.2 349.16,-219.25"/>
</g>
<!-- nasalib/complex -->
<g id="node5" class="node">
<title>nasalib/complex</title>
<polygon fill="#fcfcd7" stroke="black" points="274.62,-640.5 211.38,-640.5 211.38,-604.5 274.62,-604.5 274.62,-640.5"/>
<text text-anchor="middle" x="243" y="-617.45" font-family="Times,serif" font-size="14.00">complex</text>
</g>
<!-- nasalib/complex&#45;&gt;nasalib/algebra -->
<g id="edge16" class="edge">
<title>nasalib/complex&#45;&gt;nasalib/algebra</title>
<path fill="none" stroke="black" d="M274.91,-607.94C279.66,-605.92 283,-604.5 283,-604.5 283,-604.5 444,-568.5 444,-568.5 444,-568.5 445.35,-567.95 447.57,-567.05"/>
<polygon fill="black" stroke="black" points="448.8,-569.93 456.75,-562.93 446.17,-563.44 448.8,-569.93"/>
</g>
<!-- nasalib/complex&#45;&gt;nasalib/reals -->
<g id="edge17" class="edge">
<title>nasalib/complex&#45;&gt;nasalib/reals</title>
<path fill="none" stroke="black" d="M229.14,-604.09C198.97,-566.17 130,-479.5 130,-479.5"/>
</g>
<!-- nasalib/complex_integration -->
<g id="node6" class="node">
<title>nasalib/complex_integration</title>
<polygon fill="#fcfcd7" stroke="black" points="522.25,-712.5 393.75,-712.5 393.75,-676.5 522.25,-676.5 522.25,-712.5"/>
<text text-anchor="middle" x="458" y="-689.45" font-family="Times,serif" font-size="14.00">complex_integration</text>
</g>
<!-- nasalib/measure_integration -->
<g id="node11" class="node">
<title>nasalib/measure_integration</title>
<polygon fill="#fcfcd7" stroke="black" points="419.5,-640.5 292.5,-640.5 292.5,-604.5 419.5,-604.5 419.5,-640.5"/>
<text text-anchor="middle" x="356" y="-617.45" font-family="Times,serif" font-size="14.00">measure_integration</text>
</g>
<!-- nasalib/complex_integration&#45;&gt;nasalib/measure_integration -->
<g id="edge14" class="edge">
<title>nasalib/complex_integration&#45;&gt;nasalib/measure_integration</title>
<path fill="none" stroke="black" d="M432.52,-676.02C419.65,-667.18 403.85,-656.34 389.96,-646.8"/>
<polygon fill="black" stroke="black" points="392.38,-643.53 382.15,-640.76 388.42,-649.3 392.38,-643.53"/>
</g>
<!-- nasalib/complex_integration&#45;&gt;nasalib/structures -->
<g id="edge15" class="edge">
<title>nasalib/complex_integration&#45;&gt;nasalib/structures</title>
<path fill="none" stroke="black" d="M487.8,-676.15C514.34,-660.69 549,-640.5 549,-640.5 549,-640.5 573,-551.5 573,-551.5 573,-551.5 573,-551.5 573,-477.5 573,-477.5 558,-388.5 558,-388.5 558,-388.5 538,-316.5 538,-316.5 538,-316.5 513,-263.5 513,-263.5"/>
</g>
<!-- nasalib/examples -->
<g id="node7" class="node">
<title>nasalib/examples</title>
<polygon fill="#fcfcd7" stroke="black" points="143.88,-640.5 76.12,-640.5 76.12,-604.5 143.88,-604.5 143.88,-640.5"/>
<text text-anchor="middle" x="110" y="-617.45" font-family="Times,serif" font-size="14.00">examples</text>
</g>
<!-- nasalib/examples&#45;&gt;nasalib/Bernstein -->
<g id="edge18" class="edge">
<title>nasalib/examples&#45;&gt;nasalib/Bernstein</title>
<path fill="none" stroke="black" d="M110,-604.2C110,-596.74 110,-587.82 110,-579.47"/>
<polygon fill="black" stroke="black" points="113.5,-579.6 110,-569.6 106.5,-579.6 113.5,-579.6"/>
</g>
<!-- nasalib/examples&#45;&gt;nasalib/analysis -->
<g id="edge19" class="edge">
<title>nasalib/examples&#45;&gt;nasalib/analysis</title>
<path fill="none" stroke="black" d="M124.08,-604.15C136.62,-588.69 153,-568.5 153,-568.5 153,-568.5 196.77,-424.88 215.57,-363.15"/>
<polygon fill="black" stroke="black" points="219.21,-364.22 218.78,-353.63 212.52,-362.18 219.21,-364.22"/>
</g>
<!-- nasalib/examples&#45;&gt;nasalib/reals -->
<g id="edge20" class="edge">
<title>nasalib/examples&#45;&gt;nasalib/reals</title>
<path fill="none" stroke="black" d="M130,-477.5C130,-477.5 130,-407.5 130,-407.5"/>
<path fill="none" stroke="black" d="M95.92,-604.15C83.38,-588.69 67,-568.5 67,-568.5 67,-568.5 67,-532.5 67,-532.5 67,-532.5 130,-479.5 130,-479.5"/>
</g>
<!-- nasalib/extended_nnreal -->
<g id="node8" class="node">
<title>nasalib/extended_nnreal</title>
<polygon fill="#fcfcd7" stroke="black" points="347.62,-568.5 242.38,-568.5 242.38,-532.5 347.62,-532.5 347.62,-568.5"/>
<text text-anchor="middle" x="295" y="-545.45" font-family="Times,serif" font-size="14.00">extended_nnreal</text>
</g>
<!-- nasalib/extended_nnreal&#45;&gt;nasalib/analysis -->
<g id="edge21" class="edge">
<title>nasalib/extended_nnreal&#45;&gt;nasalib/analysis</title>
<path fill="none" stroke="black" d="M239,-477.5C239,-477.5 220,-407.5 220,-407.5"/>
</g>
<!-- nasalib/extended_nnreal&#45;&gt;nasalib/reals -->
<g id="edge22" class="edge">
<title>nasalib/extended_nnreal&#45;&gt;nasalib/reals</title>
<path fill="none" stroke="black" d="M281.16,-532.2C264.57,-511.47 239,-479.5 239,-479.5"/>
<path fill="none" stroke="black" d="M239,-477.5C239,-477.5 200,-407.5 200,-407.5"/>
</g>
<!-- nasalib/series -->
<g id="node16" class="node">
<title>nasalib/series</title>
<polygon fill="#fcfcd7" stroke="black" points="293,-424.5 239,-424.5 239,-388.5 293,-388.5 293,-424.5"/>
<text text-anchor="middle" x="266" y="-401.45" font-family="Times,serif" font-size="14.00">series</text>
</g>
<!-- nasalib/extended_nnreal&#45;&gt;nasalib/series -->
<g id="edge23" class="edge">
<title>nasalib/extended_nnreal&#45;&gt;nasalib/series</title>
<path fill="none" stroke="black" d="M239,-477.5C239,-477.5 247.86,-454.53 255.43,-434.91"/>
<polygon fill="black" stroke="black" points="258.99,-436.39 259.33,-425.8 252.46,-433.87 258.99,-436.39"/>
</g>
<!-- nasalib/extended_nnreal&#45;&gt;nasalib/sigma_set -->
<g id="edge24" class="edge">
<title>nasalib/extended_nnreal&#45;&gt;nasalib/sigma_set</title>
<path fill="none" stroke="black" d="M299.45,-532.2C301.39,-524.65 303.71,-515.62 305.88,-507.18"/>
<polygon fill="black" stroke="black" points="309.5,-508.16 308.6,-497.6 302.72,-506.42 309.5,-508.16"/>
</g>
<!-- nasalib/ints&#45;&gt;lib/finite_sets -->
<g id="edge25" class="edge">
<title>nasalib/ints&#45;&gt;lib/finite_sets</title>
<path fill="none" stroke="black" d="M392.51,-100C405.56,-88.3 422.93,-72.73 437.39,-59.76"/>
<polygon fill="black" stroke="black" points="439.41,-62.75 444.52,-53.47 434.74,-57.54 439.41,-62.75"/>
</g>
<!-- nasalib/lebesgue -->
<g id="node10" class="node">
<title>nasalib/lebesgue</title>
<polygon fill="#fcfcd7" stroke="black" points="375.62,-712.5 312.38,-712.5 312.38,-676.5 375.62,-676.5 375.62,-712.5"/>
<text text-anchor="middle" x="344" y="-689.45" font-family="Times,serif" font-size="14.00">lebesgue</text>
</g>
<!-- nasalib/lebesgue&#45;&gt;nasalib/analysis -->
<g id="edge26" class="edge">
<title>nasalib/lebesgue&#45;&gt;nasalib/analysis</title>
<path fill="none" stroke="black" d="M439,-621.5C439,-621.5 439,-551.5 439,-551.5"/>
<path fill="none" stroke="black" d="M439,-549.5C439,-549.5 424,-532.5 424,-532.5 424,-532.5 313,-407.5 313,-407.5"/>
</g>
<!-- nasalib/lebesgue&#45;&gt;nasalib/extended_nnreal -->
<g id="edge27" class="edge">
<title>nasalib/lebesgue&#45;&gt;nasalib/extended_nnreal</title>
<path fill="none" stroke="black" d="M312.13,-681.61C270.27,-665.98 202,-640.5 202,-640.5 202,-640.5 202,-604.5 202,-604.5 202,-604.5 229.85,-588.63 255.07,-574.25"/>
<polygon fill="black" stroke="black" points="256.59,-576.85 263.55,-568.85 253.13,-570.76 256.59,-576.85"/>
</g>
<!-- nasalib/lebesgue&#45;&gt;nasalib/measure_integration -->
<g id="edge28" class="edge">
<title>nasalib/lebesgue&#45;&gt;nasalib/measure_integration</title>
<path fill="none" stroke="black" d="M346.97,-676.2C348.26,-668.65 349.81,-659.62 351.25,-651.18"/>
<polygon fill="black" stroke="black" points="354.83,-652.05 353.07,-641.6 347.93,-650.87 354.83,-652.05"/>
</g>
<!-- nasalib/lebesgue&#45;&gt;nasalib/reals -->
<g id="edge29" class="edge">
<title>nasalib/lebesgue&#45;&gt;nasalib/reals</title>
<path fill="none" stroke="black" d="M130,-405.5C130,-405.5 130,-335.5 130,-335.5"/>
<path fill="none" stroke="black" d="M311.95,-687.37C239.04,-673.42 67,-640.5 67,-640.5 67,-640.5 63,-568.5 63,-568.5 63,-568.5 63,-532.5 63,-532.5 63,-532.5 130,-407.5 130,-407.5"/>
</g>
<!-- nasalib/sets_aux -->
<g id="node17" class="node">
<title>nasalib/sets_aux</title>
<polygon fill="#fcfcd7" stroke="black" points="454.25,-352.5 391.75,-352.5 391.75,-316.5 454.25,-316.5 454.25,-352.5"/>
<text text-anchor="middle" x="423" y="-329.45" font-family="Times,serif" font-size="14.00">sets_aux</text>
</g>
<!-- nasalib/lebesgue&#45;&gt;nasalib/sets_aux -->
<g id="edge30" class="edge">
<title>nasalib/lebesgue&#45;&gt;nasalib/sets_aux</title>
<path fill="none" stroke="black" d="M439,-549.5C439,-549.5 429.44,-421.65 425.1,-363.59"/>
<polygon fill="black" stroke="black" points="428.52,-363.36 424.28,-353.65 421.54,-363.88 428.52,-363.36"/>
</g>
<!-- nasalib/lebesgue&#45;&gt;nasalib/sigma_set -->
<g id="edge31" class="edge">
<title>nasalib/lebesgue&#45;&gt;nasalib/sigma_set</title>
<path fill="none" stroke="black" d="M439,-621.5C439,-621.5 428,-604.5 428,-604.5 428,-604.5 372,-532.5 372,-532.5 372,-532.5 355.7,-517.86 340.24,-503.97"/>
<polygon fill="black" stroke="black" points="343.1,-501.93 333.32,-497.85 338.42,-507.14 343.1,-501.93"/>
<path fill="none" stroke="black" d="M371.5,-676.15C396,-660.69 428,-640.5 428,-640.5 428,-640.5 439,-623.5 439,-623.5"/>
</g>
<!-- nasalib/lebesgue&#45;&gt;nasalib/structures -->
<g id="edge32" class="edge">
<title>nasalib/lebesgue&#45;&gt;nasalib/structures</title>
<path fill="none" stroke="black" d="M375.9,-680.27C381.19,-678.08 385,-676.5 385,-676.5 385,-676.5 543,-640.5 543,-640.5 543,-640.5 553,-551.5 553,-551.5 553,-551.5 553,-551.5 553,-405.5 553,-405.5 513,-263.5 513,-263.5"/>
</g>
<!-- nasalib/measure_integration&#45;&gt;lib/finite_sets -->
<g id="edge33" class="edge">
<title>nasalib/measure_integration&#45;&gt;lib/finite_sets</title>
<path fill="none" stroke="black" d="M419.69,-607.62C428.17,-605.77 434,-604.5 434,-604.5 434,-604.5 606,-568.5 606,-568.5 606,-568.5 622,-479.5 622,-479.5"/>
</g>
<!-- nasalib/measure_integration&#45;&gt;nasalib/extended_nnreal -->
<g id="edge34" class="edge">
<title>nasalib/measure_integration&#45;&gt;nasalib/extended_nnreal</title>
<path fill="none" stroke="black" d="M340.92,-604.2C333.68,-595.89 324.87,-585.78 316.91,-576.64"/>
<polygon fill="black" stroke="black" points="319.11,-574.84 309.91,-569.6 313.84,-579.44 319.11,-574.84"/>
</g>
<!-- nasalib/measure_integration&#45;&gt;nasalib/orders -->
<g id="edge35" class="edge">
<title>nasalib/measure_integration&#45;&gt;nasalib/orders</title>
<path fill="none" stroke="black" d="M419,-549.5C419,-549.5 463,-352.5 463,-352.5 463,-352.5 463,-316.5 463,-316.5 463,-316.5 452.75,-302.91 442.62,-289.5"/>
<polygon fill="black" stroke="black" points="444.92,-287.73 436.1,-281.85 439.33,-291.94 444.92,-287.73"/>
</g>
<!-- nasalib/measure_integration&#45;&gt;nasalib/reals -->
<g id="edge36" class="edge">
<title>nasalib/measure_integration&#45;&gt;nasalib/reals</title>
<path fill="none" stroke="black" d="M200,-405.5C200,-405.5 130,-335.5 130,-335.5"/>
<path fill="none" stroke="black" d="M315.73,-604.15C279.85,-588.69 233,-568.5 233,-568.5 233,-568.5 200,-407.5 200,-407.5"/>
</g>
<!-- nasalib/measure_integration&#45;&gt;nasalib/series -->
<g id="edge37" class="edge">
<title>nasalib/measure_integration&#45;&gt;nasalib/series</title>
<path fill="none" stroke="black" d="M358.72,-604.2C361.98,-583.47 367,-551.5 367,-551.5"/>
<path fill="none" stroke="black" d="M367,-549.5C367,-549.5 357,-532.5 357,-532.5 357,-532.5 269,-496.5 269,-496.5 269,-496.5 267.82,-461.61 266.94,-435.52"/>
<polygon fill="black" stroke="black" points="270.41,-435.54 266.58,-425.66 263.42,-435.77 270.41,-435.54"/>
</g>
<!-- nasalib/measure_integration&#45;&gt;nasalib/sets_aux -->
<g id="edge38" class="edge">
<title>nasalib/measure_integration&#45;&gt;nasalib/sets_aux</title>
<path fill="none" stroke="black" d="M419,-549.5C419,-549.5 393,-407.5 393,-407.5"/>
<path fill="none" stroke="black" d="M371.57,-604.2C390.23,-583.47 419,-551.5 419,-551.5"/>
</g>
<!-- nasalib/measure_integration&#45;&gt;nasalib/sigma_set -->
<g id="edge39" class="edge">
<title>nasalib/measure_integration&#45;&gt;nasalib/sigma_set</title>
<path fill="none" stroke="black" d="M367,-549.5C367,-549.5 357,-532.5 357,-532.5 357,-532.5 345.51,-518.65 334.27,-505.12"/>
<polygon fill="black" stroke="black" points="336.49,-503.31 327.41,-497.85 331.1,-507.78 336.49,-503.31"/>
</g>
<!-- nasalib/measure_integration&#45;&gt;nasalib/structures -->
<g id="edge40" class="edge">
<title>nasalib/measure_integration&#45;&gt;nasalib/structures</title>
<path fill="none" stroke="black" d="M367,-549.5C367,-549.5 368,-244.5 368,-244.5 368,-244.5 369.14,-232.42 370.33,-219.8"/>
<polygon fill="black" stroke="black" points="373.91,-220.14 371.36,-209.85 366.94,-219.48 373.91,-220.14"/>
</g>
<!-- nasalib/orders&#45;&gt;lib/finite_sets -->
<g id="edge41" class="edge">
<title>nasalib/orders&#45;&gt;lib/finite_sets</title>
<path fill="none" stroke="black" d="M450.25,-252.75C497.11,-237.69 588,-208.5 588,-208.5 588,-208.5 602,-191.5 602,-191.5"/>
<path fill="none" stroke="black" d="M602,-189.5C602,-189.5 602,-119.5 602,-119.5"/>
</g>
<!-- nasalib/orders&#45;&gt;nasalib/structures -->
<g id="edge42" class="edge">
<title>nasalib/orders&#45;&gt;nasalib/structures</title>
<path fill="none" stroke="black" d="M410.64,-244.2C404.89,-236.14 397.92,-226.39 391.56,-217.48"/>
<polygon fill="black" stroke="black" points="393.88,-215.71 385.22,-209.6 388.18,-219.78 393.88,-215.71"/>
</g>
<!-- nasalib/probability -->
<g id="node13" class="node">
<title>nasalib/probability</title>
<polygon fill="#fcfcd7" stroke="black" points="209.62,-712.5 134.38,-712.5 134.38,-676.5 209.62,-676.5 209.62,-712.5"/>
<text text-anchor="middle" x="172" y="-689.45" font-family="Times,serif" font-size="14.00">probability</text>
</g>
<!-- nasalib/probability&#45;&gt;nasalib/analysis -->
<g id="edge43" class="edge">
<title>nasalib/probability&#45;&gt;nasalib/analysis</title>
<path fill="none" stroke="black" d="M220,-405.5C220,-405.5 221.28,-383.16 222.39,-363.72"/>
<polygon fill="black" stroke="black" points="225.93,-363.99 223.01,-353.8 218.95,-363.59 225.93,-363.99"/>
<path fill="none" stroke="black" d="M174.93,-676.04C185.35,-613.95 220,-407.5 220,-407.5"/>
</g>
<!-- nasalib/probability&#45;&gt;nasalib/measure_integration -->
<g id="edge44" class="edge">
<title>nasalib/probability&#45;&gt;nasalib/measure_integration</title>
<path fill="none" stroke="black" d="M210.12,-679C236.11,-669.11 270.96,-655.85 300.07,-644.78"/>
<polygon fill="black" stroke="black" points="301.01,-647.79 309.11,-640.96 298.52,-641.24 301.01,-647.79"/>
</g>
<!-- nasalib/probability&#45;&gt;nasalib/reals -->
<g id="edge45" class="edge">
<title>nasalib/probability&#45;&gt;nasalib/reals</title>
<path fill="none" stroke="black" d="M130,-333.5C130,-333.5 180.8,-304.82 217.37,-284.18"/>
<polygon fill="black" stroke="black" points="218.8,-286.83 225.79,-278.86 215.36,-280.73 218.8,-286.83"/>
<path fill="none" stroke="black" d="M90,-405.5C90,-405.5 130,-335.5 130,-335.5"/>
</g>
<!-- nasalib/probability&#45;&gt;nasalib/structures -->
<g id="edge46" class="edge">
<title>nasalib/probability&#45;&gt;nasalib/structures</title>
<path fill="none" stroke="black" d="M110,-333.5C110,-333.5 125,-316.5 125,-316.5 125,-316.5 218,-244.5 218,-244.5 218,-244.5 325,-208.5 325,-208.5 325,-208.5 326.27,-208.05 328.41,-207.29"/>
<polygon fill="black" stroke="black" points="329.11,-210.4 337.37,-203.76 326.78,-203.8 329.11,-210.4"/>
<path fill="none" stroke="black" d="M135.65,-676.15C103.28,-660.69 61,-640.5 61,-640.5 61,-640.5 59,-568.5 59,-568.5 59,-568.5 59,-532.5 59,-532.5 59,-532.5 90,-407.5 90,-407.5"/>
<path fill="none" stroke="black" d="M90,-405.5C90,-405.5 110,-335.5 110,-335.5"/>
</g>
<!-- nasalib/reals&#45;&gt;nasalib/ints -->
<g id="edge47" class="edge">
<title>nasalib/reals&#45;&gt;nasalib/ints</title>
<path fill="none" stroke="black" d="M270.31,-244.2C289.86,-223.47 320,-191.5 320,-191.5"/>
<path fill="none" stroke="black" d="M320,-189.5C320,-189.5 330,-172.5 330,-172.5 330,-172.5 341.23,-158.65 352.22,-145.12"/>
<polygon fill="black" stroke="black" points="355.34,-147.82 358.92,-137.85 349.9,-143.41 355.34,-147.82"/>
</g>
<!-- nasalib/reals&#45;&gt;nasalib/structures -->
<g id="edge48" class="edge">
<title>nasalib/reals&#45;&gt;nasalib/structures</title>
<path fill="none" stroke="black" d="M281.3,-245.44C296.93,-236.25 316.81,-224.55 334.06,-214.41"/>
<polygon fill="black" stroke="black" points="335.48,-217.04 342.32,-208.96 331.93,-211.01 335.48,-217.04"/>
</g>
<!-- nasalib/scott -->
<g id="node15" class="node">
<title>nasalib/scott</title>
<polygon fill="#fcfcd7" stroke="black" points="534,-640.5 480,-640.5 480,-604.5 534,-604.5 534,-640.5"/>
<text text-anchor="middle" x="507" y="-617.45" font-family="Times,serif" font-size="14.00">scott</text>
</g>
<!-- nasalib/scott&#45;&gt;nasalib/algebra -->
<g id="edge49" class="edge">
<title>nasalib/scott&#45;&gt;nasalib/algebra</title>
<path fill="none" stroke="black" d="M501.81,-604.2C499.52,-596.57 496.77,-587.42 494.22,-578.9"/>
<polygon fill="black" stroke="black" points="497.36,-578.18 491.13,-569.6 490.65,-580.19 497.36,-578.18"/>
</g>
<!-- nasalib/scott&#45;&gt;nasalib/orders -->
<g id="edge50" class="edge">
<title>nasalib/scott&#45;&gt;nasalib/orders</title>
<path fill="none" stroke="black" d="M513,-333.5C513,-333.5 479.82,-307.7 453.76,-287.42"/>
<polygon fill="black" stroke="black" points="456.29,-284.18 446.25,-280.8 451.99,-289.71 456.29,-284.18"/>
<path fill="none" stroke="black" d="M512.24,-604.15C516.91,-588.69 523,-568.5 523,-568.5 523,-568.5 523,-532.5 523,-532.5 523,-532.5 518,-388.5 518,-388.5 518,-388.5 513,-335.5 513,-335.5"/>
</g>
<!-- nasalib/scott&#45;&gt;nasalib/structures -->
<g id="edge51" class="edge">
<title>nasalib/scott&#45;&gt;nasalib/structures</title>
<path fill="none" stroke="black" d="M513,-333.5C513,-333.5 513,-263.5 513,-263.5"/>
</g>
<!-- nasalib/series&#45;&gt;nasalib/analysis -->
<g id="edge52" class="edge">
<title>nasalib/series&#45;&gt;nasalib/analysis</title>
<path fill="none" stroke="black" d="M255.62,-388.2C250.84,-380.23 245.06,-370.6 239.76,-361.76"/>
<polygon fill="black" stroke="black" points="242.41,-360.38 234.26,-353.6 236.41,-363.98 242.41,-360.38"/>
</g>
<!-- nasalib/series&#45;&gt;nasalib/ints -->
<g id="edge53" class="edge">
<title>nasalib/series&#45;&gt;nasalib/ints</title>
<path fill="none" stroke="black" d="M271.42,-388.12C282.14,-353.77 305,-280.5 305,-280.5 305,-280.5 320,-191.5 320,-191.5"/>
</g>
<!-- nasalib/series&#45;&gt;nasalib/orders -->
<g id="edge54" class="edge">
<title>nasalib/series&#45;&gt;nasalib/orders</title>
<path fill="none" stroke="black" d="M285.25,-388.09C313.06,-362.93 364.59,-316.33 396.14,-287.8"/>
<polygon fill="black" stroke="black" points="398.01,-290.91 403.08,-281.61 393.32,-285.72 398.01,-290.91"/>
</g>
<!-- nasalib/series&#45;&gt;nasalib/reals -->
<g id="edge55" class="edge">
<title>nasalib/series&#45;&gt;nasalib/reals</title>
<path fill="none" stroke="black" d="M238.81,-391.5C199.12,-371.07 130,-335.5 130,-335.5"/>
</g>
<!-- nasalib/sets_aux&#45;&gt;lib/finite_sets -->
<g id="edge56" class="edge">
<title>nasalib/sets_aux&#45;&gt;lib/finite_sets</title>
<path fill="none" stroke="black" d="M454.42,-323.41C502.3,-308.03 588,-280.5 588,-280.5 588,-280.5 602,-263.5 602,-263.5"/>
</g>
<!-- nasalib/sets_aux&#45;&gt;nasalib/ints -->
<g id="edge57" class="edge">
<title>nasalib/sets_aux&#45;&gt;nasalib/ints</title>
<path fill="none" stroke="black" d="M373,-261.5C373,-261.5 330,-208.5 330,-208.5 330,-208.5 320,-191.5 320,-191.5"/>
<path fill="none" stroke="black" d="M410.64,-316.2C395.83,-295.47 373,-263.5 373,-263.5"/>
</g>
<!-- nasalib/sets_aux&#45;&gt;nasalib/orders -->
<g id="edge58" class="edge">
<title>nasalib/sets_aux&#45;&gt;nasalib/orders</title>
<path fill="none" stroke="black" d="M423,-316.2C423,-308.74 423,-299.82 423,-291.47"/>
<polygon fill="black" stroke="black" points="426.5,-291.6 423,-281.6 419.5,-291.6 426.5,-291.6"/>
</g>
<!-- nasalib/sets_aux&#45;&gt;nasalib/structures -->
<g id="edge59" class="edge">
<title>nasalib/sets_aux&#45;&gt;nasalib/structures</title>
<path fill="none" stroke="black" d="M373,-261.5C373,-261.5 373,-239.16 373,-219.72"/>
<polygon fill="black" stroke="black" points="376.5,-219.8 373,-209.8 369.5,-219.8 376.5,-219.8"/>
</g>
<!-- nasalib/sigma_set&#45;&gt;nasalib/analysis -->
<g id="edge60" class="edge">
<title>nasalib/sigma_set&#45;&gt;nasalib/analysis</title>
<path fill="none" stroke="black" d="M313,-405.5C313,-405.5 302,-388.5 302,-388.5 302,-388.5 279.45,-373.18 258.61,-359.01"/>
<polygon fill="black" stroke="black" points="260.78,-355.58 250.54,-352.85 256.84,-361.37 260.78,-355.58"/>
<path fill="none" stroke="black" d="M313,-460.2C313,-439.47 313,-407.5 313,-407.5"/>
</g>
<!-- nasalib/sigma_set&#45;&gt;nasalib/orders -->
<g id="edge61" class="edge">
<title>nasalib/sigma_set&#45;&gt;nasalib/orders</title>
<path fill="none" stroke="black" d="M333,-405.5C333,-405.5 383,-316.5 383,-316.5 383,-316.5 393.25,-302.91 403.38,-289.5"/>
<polygon fill="black" stroke="black" points="406.67,-291.94 409.9,-281.85 401.08,-287.73 406.67,-291.94"/>
</g>
<!-- nasalib/sigma_set&#45;&gt;nasalib/reals -->
<g id="edge62" class="edge">
<title>nasalib/sigma_set&#45;&gt;nasalib/reals</title>
<path fill="none" stroke="black" d="M317.94,-460.2C323.87,-439.47 333,-407.5 333,-407.5"/>
<path fill="none" stroke="black" d="M333,-405.5C333,-405.5 291.85,-331.53 268.95,-290.37"/>
<polygon fill="black" stroke="black" points="271.61,-288.95 263.69,-281.91 265.49,-292.35 271.61,-288.95"/>
</g>
<!-- nasalib/sigma_set&#45;&gt;nasalib/series -->
<g id="edge63" class="edge">
<title>nasalib/sigma_set&#45;&gt;nasalib/series</title>
<path fill="none" stroke="black" d="M301.38,-460.2C295.98,-452.14 289.43,-442.39 283.45,-433.48"/>
<polygon fill="black" stroke="black" points="285.96,-431.96 277.48,-425.6 280.15,-435.86 285.96,-431.96"/>
</g>
<!-- nasalib/sigma_set&#45;&gt;nasalib/sets_aux -->
<g id="edge64" class="edge">
<title>nasalib/sigma_set&#45;&gt;nasalib/sets_aux</title>
<path fill="none" stroke="black" d="M393,-405.5C393,-405.5 402.84,-382.53 411.25,-362.91"/>
<polygon fill="black" stroke="black" points="414.86,-364.37 415.58,-353.8 408.43,-361.62 414.86,-364.37"/>
<path fill="none" stroke="black" d="M332.78,-460.2C356.47,-439.47 393,-407.5 393,-407.5"/>
</g>
<!-- nasalib/structures&#45;&gt;lib/finite_sets -->
<g id="edge65" class="edge">
<title>nasalib/structures&#45;&gt;lib/finite_sets</title>
<path fill="none" stroke="black" d="M602,-117.5C602,-117.5 543.95,-82.54 503.42,-58.14"/>
<polygon fill="black" stroke="black" points="505.43,-54.66 495.05,-52.5 501.82,-60.65 505.43,-54.66"/>
<path fill="none" stroke="black" d="M407.28,-179.02C471.17,-159.49 602,-119.5 602,-119.5"/>
</g>
<!-- nasalib/structures&#45;&gt;nasalib/ints -->
<g id="edge66" class="edge">
<title>nasalib/structures&#45;&gt;nasalib/ints</title>
<path fill="none" stroke="black" d="M373,-172.2C373,-164.74 373,-155.82 373,-147.47"/>
<polygon fill="black" stroke="black" points="376.5,-147.6 373,-137.6 369.5,-147.6 376.5,-147.6"/>
</g>
<!-- nasalib/while -->
<g id="node20" class="node">
<title>nasalib/while</title>
<polygon fill="#fcfcd7" stroke="black" points="594,-712.5 540,-712.5 540,-676.5 594,-676.5 594,-712.5"/>
<text text-anchor="middle" x="567" y="-689.45" font-family="Times,serif" font-size="14.00">while</text>
</g>
<!-- nasalib/while&#45;&gt;nasalib/orders -->
<g id="edge67" class="edge">
<title>nasalib/while&#45;&gt;nasalib/orders</title>
<path fill="none" stroke="black" d="M570.6,-676.15C573.81,-660.69 578,-640.5 578,-640.5 578,-640.5 593,-551.5 593,-551.5 593,-551.5 593,-551.5 593,-477.5 593,-477.5 518,-316.5 518,-316.5 518,-316.5 486.7,-299.04 460.03,-284.16"/>
<polygon fill="black" stroke="black" points="461.92,-280.65 451.48,-278.83 458.51,-286.76 461.92,-280.65"/>
</g>
<!-- nasalib/while&#45;&gt;nasalib/scott -->
<g id="edge68" class="edge">
<title>nasalib/while&#45;&gt;nasalib/scott</title>
<path fill="none" stroke="black" d="M552.17,-676.2C545.12,-667.97 536.56,-657.98 528.79,-648.92"/>
<polygon fill="black" stroke="black" points="530.83,-646.92 521.66,-641.6 525.51,-651.47 530.83,-646.92"/>
</g>
</g>
</svg>
