<?xml version="1.0" encoding="UTF-8" standalone="no"?>
<!DOCTYPE svg PUBLIC "-//W3C//DTD SVG 1.1//EN"
 "http://www.w3.org/Graphics/SVG/1.1/DTD/svg11.dtd">
<!-- Generated by graphviz version 2.44.1 (20200629.0846)
 -->
<!-- Title: sigma_set&#45;zoomed Pages: 1 -->
<svg width="1190pt" height="390pt"
 viewBox="0.00 0.00 1190.00 390.00" xmlns="http://www.w3.org/2000/svg" xmlns:xlink="http://www.w3.org/1999/xlink">
<g id="graph0" class="graph" transform="scale(1 1) rotate(0) translate(4 386)">
<title>sigma_set&#45;zoomed</title>
<polygon fill="white" stroke="transparent" points="-4,4 -4,-386 1186,-386 1186,4 -4,4"/>
<g id="clust1" class="cluster">
<title>cluster_NASALib</title>
<polygon fill="none" stroke="black" points="800,-8 800,-83 1174,-83 1174,-8 800,-8"/>
<text text-anchor="middle" x="987" y="-67.8" font-family="Times,serif" font-size="14.00">NASALib</text>
</g>
<g id="clust2" class="cluster">
<title>cluster_NASALib/sigma_set</title>
<polygon fill="none" stroke="black" points="8,-8 8,-374 792,-374 792,-8 8,-8"/>
<text text-anchor="middle" x="400" y="-358.8" font-family="Times,serif" font-size="14.00">NASALib/sigma_set</text>
</g>
<!-- nasalib/analysis -->
<g id="node1" class="node">
<title>nasalib/analysis</title>
<polygon fill="#fcfcd7" stroke="black" points="1012,-52 952,-52 952,-16 1012,-16 1012,-52"/>
<text text-anchor="middle" x="982" y="-30.3" font-family="Times,serif" font-size="14.00">analysis</text>
</g>
<!-- nasalib/orders -->
<g id="node2" class="node">
<title>nasalib/orders</title>
<polygon fill="#fcfcd7" stroke="black" points="934,-52 880,-52 880,-16 934,-16 934,-52"/>
<text text-anchor="middle" x="907" y="-30.3" font-family="Times,serif" font-size="14.00">orders</text>
</g>
<!-- nasalib/reals -->
<g id="node3" class="node">
<title>nasalib/reals</title>
<polygon fill="#fcfcd7" stroke="black" points="1166,-52 1112,-52 1112,-16 1166,-16 1166,-52"/>
<text text-anchor="middle" x="1139" y="-30.3" font-family="Times,serif" font-size="14.00">reals</text>
</g>
<!-- nasalib/series -->
<g id="node4" class="node">
<title>nasalib/series</title>
<polygon fill="#fcfcd7" stroke="black" points="862,-52 808,-52 808,-16 862,-16 862,-52"/>
<text text-anchor="middle" x="835" y="-30.3" font-family="Times,serif" font-size="14.00">series</text>
</g>
<!-- nasalib/sets_aux -->
<g id="node5" class="node">
<title>nasalib/sets_aux</title>
<polygon fill="#fcfcd7" stroke="black" points="1093.5,-52 1030.5,-52 1030.5,-16 1093.5,-16 1093.5,-52"/>
<text text-anchor="middle" x="1062" y="-30.3" font-family="Times,serif" font-size="14.00">sets_aux</text>
</g>
<!-- nasalib/sigma_set@absconv_series_aux -->
<g id="node6" class="node">
<title>nasalib/sigma_set@absconv_series_aux</title>
<ellipse fill="#e6f3ff" stroke="black" cx="301" cy="-109" rx="81.49" ry="18"/>
<text text-anchor="middle" x="301" y="-105.3" font-family="Times,serif" font-size="14.00">absconv_series_aux</text>
</g>
<!-- nasalib/sigma_set@absconv_series_aux&#45;&gt;nasalib/analysis -->
<g id="edge1" class="edge">
<title>nasalib/sigma_set@absconv_series_aux&#45;&gt;nasalib/analysis</title>
<path fill="none" stroke="black" d="M314.05,-91.01C314.05,-79.23 314.05,-66 314.05,-66 314.05,-66 972,-66 972,-66 972,-66 972,-62.24 972,-62.24"/>
<polygon fill="black" stroke="black" points="975.5,-62.24 972,-52.24 968.5,-62.24 975.5,-62.24"/>
</g>
<!-- nasalib/sigma_set@absconv_series_aux&#45;&gt;nasalib/orders -->
<g id="edge2" class="edge">
<title>nasalib/sigma_set@absconv_series_aux&#45;&gt;nasalib/orders</title>
<path fill="none" stroke="black" d="M291.32,-91.13C291.32,-77.48 291.32,-61 291.32,-61 291.32,-61 907,-61 907,-61 907,-61 907,-60.12 907,-60.12"/>
<polygon fill="black" stroke="black" points="910.5,-62.16 907,-52.16 903.5,-62.16 910.5,-62.16"/>
</g>
<!-- nasalib/sigma_set@absconv_series_aux&#45;&gt;nasalib/series -->
<g id="edge3" class="edge">
<title>nasalib/sigma_set@absconv_series_aux&#45;&gt;nasalib/series</title>
<path fill="none" stroke="black" d="M359.51,-96.34C359.51,-73.56 359.51,-28 359.51,-28 359.51,-28 797.73,-28 797.73,-28"/>
<polygon fill="black" stroke="black" points="797.73,-31.5 807.73,-28 797.73,-24.5 797.73,-31.5"/>
</g>
<!-- nasalib/sigma_set@absconv_series_aux&#45;&gt;nasalib/sets_aux -->
<g id="edge4" class="edge">
<title>nasalib/sigma_set@absconv_series_aux&#45;&gt;nasalib/sets_aux</title>
<path fill="none" stroke="black" d="M336.78,-92.66C336.78,-82.36 336.78,-71 336.78,-71 336.78,-71 1043.1,-71 1043.1,-71 1043.1,-71 1043.1,-62.07 1043.1,-62.07"/>
<polygon fill="black" stroke="black" points="1046.6,-62.07 1043.1,-52.07 1039.6,-62.07 1046.6,-62.07"/>
</g>
<!-- nasalib/sigma_set@convergence_set -->
<g id="node7" class="node">
<title>nasalib/sigma_set@convergence_set</title>
<ellipse fill="#e6f3ff" stroke="black" cx="301" cy="-253" rx="69.59" ry="18"/>
<text text-anchor="middle" x="301" y="-249.3" font-family="Times,serif" font-size="14.00">convergence_set</text>
</g>
<!-- nasalib/sigma_set@countable_convergence -->
<g id="node8" class="node">
<title>nasalib/sigma_set@countable_convergence</title>
<ellipse fill="#e6f3ff" stroke="black" cx="301" cy="-181" rx="93.68" ry="18"/>
<text text-anchor="middle" x="301" y="-177.3" font-family="Times,serif" font-size="14.00">countable_convergence</text>
</g>
<!-- nasalib/sigma_set@convergence_set&#45;&gt;nasalib/sigma_set@countable_convergence -->
<g id="edge5" class="edge">
<title>nasalib/sigma_set@convergence_set&#45;&gt;nasalib/sigma_set@countable_convergence</title>
<path fill="none" stroke="black" d="M301,-234.83C301,-234.83 301,-209.41 301,-209.41"/>
<polygon fill="black" stroke="black" points="304.5,-209.41 301,-199.41 297.5,-209.41 304.5,-209.41"/>
</g>
<!-- nasalib/sigma_set@countable_convergence&#45;&gt;nasalib/analysis -->
<g id="edge6" class="edge">
<title>nasalib/sigma_set@countable_convergence&#45;&gt;nasalib/analysis</title>
<path fill="none" stroke="black" d="M392.4,-177C580.2,-177 992,-177 992,-177 992,-177 992,-62.11 992,-62.11"/>
<polygon fill="black" stroke="black" points="995.5,-62.11 992,-52.11 988.5,-62.11 995.5,-62.11"/>
</g>
<!-- nasalib/sigma_set@countable_convergence&#45;&gt;nasalib/reals -->
<g id="edge7" class="edge">
<title>nasalib/sigma_set@countable_convergence&#45;&gt;nasalib/reals</title>
<path fill="none" stroke="black" d="M378.82,-191C589.02,-191 1152.5,-191 1152.5,-191 1152.5,-191 1152.5,-62.01 1152.5,-62.01"/>
<polygon fill="black" stroke="black" points="1156,-62.01 1152.5,-52.01 1149,-62.01 1156,-62.01"/>
</g>
<!-- nasalib/sigma_set@countable_convergence&#45;&gt;nasalib/series -->
<g id="edge8" class="edge">
<title>nasalib/sigma_set@countable_convergence&#45;&gt;nasalib/series</title>
<path fill="none" stroke="black" d="M386.36,-173.42C386.36,-144.13 386.36,-40 386.36,-40 386.36,-40 797.95,-40 797.95,-40"/>
<polygon fill="black" stroke="black" points="797.95,-43.5 807.95,-40 797.95,-36.5 797.95,-43.5"/>
</g>
<!-- nasalib/sigma_set@countable_convergence&#45;&gt;nasalib/sets_aux -->
<g id="edge9" class="edge">
<title>nasalib/sigma_set@countable_convergence&#45;&gt;nasalib/sets_aux</title>
<path fill="none" stroke="black" d="M393.55,-184C597.63,-184 1068.3,-184 1068.3,-184 1068.3,-184 1068.3,-62.09 1068.3,-62.09"/>
<polygon fill="black" stroke="black" points="1071.8,-62.09 1068.3,-52.09 1064.8,-62.09 1071.8,-62.09"/>
</g>
<!-- nasalib/sigma_set@countable_convergence&#45;&gt;nasalib/sigma_set@absconv_series_aux -->
<g id="edge10" class="edge">
<title>nasalib/sigma_set@countable_convergence&#45;&gt;nasalib/sigma_set@absconv_series_aux</title>
<path fill="none" stroke="black" d="M301,-162.83C301,-162.83 301,-137.41 301,-137.41"/>
<polygon fill="black" stroke="black" points="304.5,-137.41 301,-127.41 297.5,-137.41 304.5,-137.41"/>
</g>
<!-- nasalib/sigma_set@denumerable_enumeration -->
<g id="node9" class="node">
<title>nasalib/sigma_set@denumerable_enumeration</title>
<ellipse fill="#e6f3ff" stroke="black" cx="506" cy="-109" rx="105.08" ry="18"/>
<text text-anchor="middle" x="506" y="-105.3" font-family="Times,serif" font-size="14.00">denumerable_enumeration</text>
</g>
<!-- nasalib/sigma_set@countable_convergence&#45;&gt;nasalib/sigma_set@denumerable_enumeration -->
<g id="edge11" class="edge">
<title>nasalib/sigma_set@countable_convergence&#45;&gt;nasalib/sigma_set@denumerable_enumeration</title>
<path fill="none" stroke="black" d="M390.48,-175.35C390.48,-158.38 390.48,-109 390.48,-109 390.48,-109 391.46,-109 391.46,-109"/>
<polygon fill="black" stroke="black" points="390.32,-112.5 400.32,-109 390.32,-105.5 390.32,-112.5"/>
</g>
<!-- nasalib/sigma_set@finite_enumeration -->
<g id="node10" class="node">
<title>nasalib/sigma_set@finite_enumeration</title>
<ellipse fill="#e6f3ff" stroke="black" cx="707" cy="-109" rx="77.19" ry="18"/>
<text text-anchor="middle" x="707" y="-105.3" font-family="Times,serif" font-size="14.00">finite_enumeration</text>
</g>
<!-- nasalib/sigma_set@countable_convergence&#45;&gt;nasalib/sigma_set@finite_enumeration -->
<g id="edge12" class="edge">
<title>nasalib/sigma_set@countable_convergence&#45;&gt;nasalib/sigma_set@finite_enumeration</title>
<path fill="none" stroke="black" d="M375.47,-170C492.68,-170 707,-170 707,-170 707,-170 707,-137.3 707,-137.3"/>
<polygon fill="black" stroke="black" points="710.5,-137.3 707,-127.3 703.5,-137.3 710.5,-137.3"/>
</g>
<!-- nasalib/sigma_set@sigma_bijection -->
<g id="node11" class="node">
<title>nasalib/sigma_set@sigma_bijection</title>
<ellipse fill="#e6f3ff" stroke="black" cx="201" cy="-34" rx="67.69" ry="18"/>
<text text-anchor="middle" x="201" y="-30.3" font-family="Times,serif" font-size="14.00">sigma_bijection</text>
</g>
<!-- nasalib/sigma_set@countable_convergence&#45;&gt;nasalib/sigma_set@sigma_bijection -->
<g id="edge13" class="edge">
<title>nasalib/sigma_set@countable_convergence&#45;&gt;nasalib/sigma_set@sigma_bijection</title>
<path fill="none" stroke="black" d="M215.64,-173.51C215.64,-173.51 215.64,-61.59 215.64,-61.59"/>
<polygon fill="black" stroke="black" points="219.14,-61.59 215.64,-51.59 212.14,-61.59 219.14,-61.59"/>
</g>
<!-- nasalib/sigma_set@sigma_bijection_nat -->
<g id="node12" class="node">
<title>nasalib/sigma_set@sigma_bijection_nat</title>
<ellipse fill="#e6f3ff" stroke="black" cx="99" cy="-109" rx="82.59" ry="18"/>
<text text-anchor="middle" x="99" y="-105.3" font-family="Times,serif" font-size="14.00">sigma_bijection_nat</text>
</g>
<!-- nasalib/sigma_set@countable_convergence&#45;&gt;nasalib/sigma_set@sigma_bijection_nat -->
<g id="edge14" class="edge">
<title>nasalib/sigma_set@countable_convergence&#45;&gt;nasalib/sigma_set@sigma_bijection_nat</title>
<path fill="none" stroke="black" d="M211.52,-175.35C211.52,-158.38 211.52,-109 211.52,-109 211.52,-109 191.67,-109 191.67,-109"/>
<polygon fill="black" stroke="black" points="191.67,-105.5 181.67,-109 191.67,-112.5 191.67,-105.5"/>
</g>
<!-- nasalib/sigma_set@denumerable_enumeration&#45;&gt;nasalib/sets_aux -->
<g id="edge15" class="edge">
<title>nasalib/sigma_set@denumerable_enumeration&#45;&gt;nasalib/sets_aux</title>
<path fill="none" stroke="black" d="M506,-90.96C506,-83.25 506,-76 506,-76 506,-76 1055.7,-76 1055.7,-76 1055.7,-76 1055.7,-62.06 1055.7,-62.06"/>
<polygon fill="black" stroke="black" points="1059.2,-62.06 1055.7,-52.06 1052.2,-62.06 1059.2,-62.06"/>
</g>
<!-- nasalib/sigma_set@sigma_bijection&#45;&gt;nasalib/reals -->
<g id="edge18" class="edge">
<title>nasalib/sigma_set@sigma_bijection&#45;&gt;nasalib/reals</title>
<path fill="none" stroke="black" d="M244.18,-48.1C244.18,-61.95 244.18,-81 244.18,-81 244.18,-81 1125.5,-81 1125.5,-81 1125.5,-81 1125.5,-62.04 1125.5,-62.04"/>
<polygon fill="black" stroke="black" points="1129,-62.04 1125.5,-52.04 1122,-62.04 1129,-62.04"/>
</g>
<!-- nasalib/sigma_set@sigma_bijection_nat&#45;&gt;nasalib/series -->
<g id="edge16" class="edge">
<title>nasalib/sigma_set@sigma_bijection_nat&#45;&gt;nasalib/series</title>
<path fill="none" stroke="black" d="M165.5,-98.27C165.5,-82.79 165.5,-56 165.5,-56 165.5,-56 835,-56 835,-56 835,-56 835,-55.62 835,-55.62"/>
<polygon fill="black" stroke="black" points="838.5,-62.17 835,-52.17 831.5,-62.17 838.5,-62.17"/>
</g>
<!-- nasalib/sigma_set@sigma_bijection_nat&#45;&gt;nasalib/sigma_set@sigma_bijection -->
<g id="edge17" class="edge">
<title>nasalib/sigma_set@sigma_bijection_nat&#45;&gt;nasalib/sigma_set@sigma_bijection</title>
<path fill="none" stroke="black" d="M149.45,-94.54C149.45,-94.54 149.45,-55.95 149.45,-55.95"/>
<polygon fill="black" stroke="black" points="152.95,-55.95 149.45,-45.95 145.95,-55.95 152.95,-55.95"/>
</g>
<!-- nasalib/sigma_set@sigma_countable -->
<g id="node13" class="node">
<title>nasalib/sigma_set@sigma_countable</title>
<ellipse fill="#e6f3ff" stroke="black" cx="143" cy="-253" rx="70.69" ry="18"/>
<text text-anchor="middle" x="143" y="-249.3" font-family="Times,serif" font-size="14.00">sigma_countable</text>
</g>
<!-- nasalib/sigma_set@sigma_countable&#45;&gt;nasalib/reals -->
<g id="edge19" class="edge">
<title>nasalib/sigma_set@sigma_countable&#45;&gt;nasalib/reals</title>
<path fill="none" stroke="black" d="M190.16,-239.33C190.16,-199.45 190.16,-86 190.16,-86 190.16,-86 1139,-86 1139,-86 1139,-86 1139,-62.19 1139,-62.19"/>
<polygon fill="black" stroke="black" points="1142.5,-62.19 1139,-52.19 1135.5,-62.19 1142.5,-62.19"/>
</g>
<!-- nasalib/sigma_set@sigma_countable&#45;&gt;nasalib/sets_aux -->
<g id="edge20" class="edge">
<title>nasalib/sigma_set@sigma_countable&#45;&gt;nasalib/sets_aux</title>
<path fill="none" stroke="black" d="M198.79,-241.61C198.79,-231.06 198.79,-217 198.79,-217 198.79,-217 1080.9,-217 1080.9,-217 1080.9,-217 1080.9,-62.22 1080.9,-62.22"/>
<polygon fill="black" stroke="black" points="1084.4,-62.22 1080.9,-52.22 1077.4,-62.22 1084.4,-62.22"/>
</g>
<!-- nasalib/sigma_set@sigma_countable&#45;&gt;nasalib/sigma_set@countable_convergence -->
<g id="edge21" class="edge">
<title>nasalib/sigma_set@sigma_countable&#45;&gt;nasalib/sigma_set@countable_convergence</title>
<path fill="none" stroke="black" d="M214.13,-253C219.36,-253 222.65,-253 222.65,-253 222.65,-253 222.65,-201.01 222.65,-201.01"/>
<polygon fill="black" stroke="black" points="226.15,-201.01 222.65,-191.01 219.15,-201.01 226.15,-201.01"/>
</g>
<!-- nasalib/sigma_set@sigma_countable&#45;&gt;nasalib/sigma_set@sigma_bijection_nat -->
<g id="edge22" class="edge">
<title>nasalib/sigma_set@sigma_countable&#45;&gt;nasalib/sigma_set@sigma_bijection_nat</title>
<path fill="none" stroke="black" d="M126.85,-235.34C126.85,-235.34 126.85,-136.35 126.85,-136.35"/>
<polygon fill="black" stroke="black" points="130.35,-136.35 126.85,-126.35 123.35,-136.35 130.35,-136.35"/>
</g>
<!-- nasalib/sigma_set@sigma_set -->
<g id="node14" class="node">
<title>nasalib/sigma_set@sigma_set</title>
<ellipse fill="#e6f3ff" stroke="black" cx="222" cy="-325" rx="46.29" ry="18"/>
<text text-anchor="middle" x="222" y="-321.3" font-family="Times,serif" font-size="14.00">sigma_set</text>
</g>
<!-- nasalib/sigma_set@sigma_set&#45;&gt;nasalib/sigma_set@convergence_set -->
<g id="edge23" class="edge">
<title>nasalib/sigma_set@sigma_set&#45;&gt;nasalib/sigma_set@convergence_set</title>
<path fill="none" stroke="black" d="M249.8,-310.43C249.8,-310.43 249.8,-275.62 249.8,-275.62"/>
<polygon fill="black" stroke="black" points="253.3,-275.62 249.8,-265.62 246.3,-275.62 253.3,-275.62"/>
</g>
<!-- nasalib/sigma_set@sigma_set&#45;&gt;nasalib/sigma_set@sigma_countable -->
<g id="edge24" class="edge">
<title>nasalib/sigma_set@sigma_set&#45;&gt;nasalib/sigma_set@sigma_countable</title>
<path fill="none" stroke="black" d="M194.85,-310.43C194.85,-310.43 194.85,-275.62 194.85,-275.62"/>
<polygon fill="black" stroke="black" points="198.35,-275.62 194.85,-265.62 191.35,-275.62 198.35,-275.62"/>
</g>
</g>
</svg>
