<?xml version="1.0" encoding="UTF-8" standalone="no"?>
<!DOCTYPE svg PUBLIC "-//W3C//DTD SVG 1.1//EN"
 "http://www.w3.org/Graphics/SVG/1.1/DTD/svg11.dtd">
<!-- Generated by graphviz version 8.0.4 (20230421.1958)
 -->
<!-- Title: sigma_set Pages: 1 -->
<svg width="698pt" height="761pt"
 viewBox="0.00 0.00 698.00 761.00" xmlns="http://www.w3.org/2000/svg" xmlns:xlink="http://www.w3.org/1999/xlink">
<g id="graph0" class="graph" transform="scale(1 1) rotate(0) translate(4 757)">
<title>sigma_set</title>
<polygon fill="white" stroke="none" points="-4,4 -4,-757 694,-757 694,4 -4,4"/>
<g id="clust1" class="cluster">
<title>cluster_NASALib</title>
<polygon fill="none" stroke="black" points="8,-92.5 8,-745 676,-745 676,-92.5 8,-92.5"/>
<text text-anchor="middle" x="342" y="-727.7" font-family="Times,serif" font-size="14.00">NASALib</text>
</g>
<g id="clust2" class="cluster">
<title>cluster_PVS Prelude</title>
<polygon fill="none" stroke="black" points="455,-8 455,-84.5 543,-84.5 543,-8 455,-8"/>
<text text-anchor="middle" x="499" y="-67.2" font-family="Times,serif" font-size="14.00">PVS Prelude</text>
</g>
<!-- NASALib/Bernstein -->
<g id="node1" class="node">
<title>NASALib/Bernstein</title>
<polygon fill="#fcfcd7" stroke="black" points="103.88,-640.5 36.12,-640.5 36.12,-604.5 103.88,-604.5 103.88,-640.5"/>
<text text-anchor="middle" x="70" y="-617.45" font-family="Times,serif" font-size="14.00">Bernstein</text>
</g>
<!-- NASALib/reals -->
<g id="node13" class="node">
<title>NASALib/reals</title>
<polygon fill="#fcfcd7" stroke="black" points="295,-280.5 241,-280.5 241,-244.5 295,-244.5 295,-280.5"/>
<text text-anchor="middle" x="268" y="-257.45" font-family="Times,serif" font-size="14.00">reals</text>
</g>
<!-- NASALib/Bernstein&#45;&gt;NASALib/reals -->
<g id="edge1" class="edge">
<title>NASALib/Bernstein&#45;&gt;NASALib/reals</title>
<path fill="none" stroke="black" d="M145,-477.5C145,-477.5 145,-407.5 145,-407.5"/>
<path fill="none" stroke="black" d="M71,-549.5C71,-549.5 130,-496.5 130,-496.5 130,-496.5 145,-479.5 145,-479.5"/>
</g>
<!-- NASALib/sigma_set -->
<g id="node17" class="node">
<title>NASALib/sigma_set</title>
<polygon fill="#f7e28d" stroke="black" points="438.38,-496.5 367.62,-496.5 367.62,-460.5 438.38,-460.5 438.38,-496.5"/>
<text text-anchor="middle" x="403" y="-473.45" font-family="Times,serif" font-size="14.00">sigma_set</text>
</g>
<!-- NASALib/Bernstein&#45;&gt;NASALib/sigma_set -->
<g id="edge2" class="edge">
<title>NASALib/Bernstein&#45;&gt;NASALib/sigma_set</title>
<path fill="none" stroke="black" d="M104.3,-607.94C109.41,-605.92 113,-604.5 113,-604.5 113,-604.5 399,-568.5 399,-568.5 399,-568.5 400.57,-533.61 401.74,-507.52"/>
<polygon fill="black" stroke="black" points="405.28,-507.81 402.23,-497.66 398.28,-507.49 405.28,-507.81"/>
</g>
<!-- NASALib/structures -->
<g id="node18" class="node">
<title>NASALib/structures</title>
<polygon fill="#fcfcd7" stroke="black" points="401.25,-208.5 332.75,-208.5 332.75,-172.5 401.25,-172.5 401.25,-208.5"/>
<text text-anchor="middle" x="367" y="-185.45" font-family="Times,serif" font-size="14.00">structures</text>
</g>
<!-- NASALib/Bernstein&#45;&gt;NASALib/structures -->
<g id="edge3" class="edge">
<title>NASALib/Bernstein&#45;&gt;NASALib/structures</title>
<path fill="none" stroke="black" d="M125,-477.5C125,-477.5 105,-263.5 105,-263.5"/>
<path fill="none" stroke="black" d="M71,-549.5C71,-549.5 125,-479.5 125,-479.5"/>
<path fill="none" stroke="black" d="M70.25,-604.2C70.54,-583.47 71,-551.5 71,-551.5"/>
</g>
<!-- NASALib/algebra -->
<g id="node2" class="node">
<title>NASALib/algebra</title>
<polygon fill="#fcfcd7" stroke="black" points="165.88,-568.5 110.12,-568.5 110.12,-532.5 165.88,-532.5 165.88,-568.5"/>
<text text-anchor="middle" x="138" y="-545.45" font-family="Times,serif" font-size="14.00">algebra</text>
</g>
<!-- NASALib/ints -->
<g id="node8" class="node">
<title>NASALib/ints</title>
<polygon fill="#fcfcd7" stroke="black" points="394,-136.5 340,-136.5 340,-100.5 394,-100.5 394,-136.5"/>
<text text-anchor="middle" x="367" y="-113.45" font-family="Times,serif" font-size="14.00">ints</text>
</g>
<!-- NASALib/algebra&#45;&gt;NASALib/ints -->
<g id="edge4" class="edge">
<title>NASALib/algebra&#45;&gt;NASALib/ints</title>
<path fill="none" stroke="black" d="M132.11,-532.15C126.86,-516.69 120,-496.5 120,-496.5 120,-496.5 85,-263.5 85,-263.5"/>
</g>
<!-- NASALib/orders -->
<g id="node11" class="node">
<title>NASALib/orders</title>
<polygon fill="#fcfcd7" stroke="black" points="476,-280.5 422,-280.5 422,-244.5 476,-244.5 476,-280.5"/>
<text text-anchor="middle" x="449" y="-257.45" font-family="Times,serif" font-size="14.00">orders</text>
</g>
<!-- NASALib/algebra&#45;&gt;NASALib/orders -->
<g id="edge5" class="edge">
<title>NASALib/algebra&#45;&gt;NASALib/orders</title>
<path fill="none" stroke="black" d="M165,-477.5C165,-477.5 200,-388.5 200,-388.5 200,-388.5 275,-316.5 275,-316.5 275,-316.5 360.31,-290.52 411.46,-274.93"/>
<polygon fill="black" stroke="black" points="412.27,-278.04 420.81,-271.78 410.23,-271.35 412.27,-278.04"/>
</g>
<!-- NASALib/algebra&#45;&gt;NASALib/reals -->
<g id="edge6" class="edge">
<title>NASALib/algebra&#45;&gt;NASALib/reals</title>
<path fill="none" stroke="black" d="M165,-477.5C165,-477.5 145,-407.5 145,-407.5"/>
<path fill="none" stroke="black" d="M144.67,-532.2C152.67,-511.47 165,-479.5 165,-479.5"/>
</g>
<!-- NASALib/algebra&#45;&gt;NASALib/sigma_set -->
<g id="edge7" class="edge">
<title>NASALib/algebra&#45;&gt;NASALib/sigma_set</title>
<path fill="none" stroke="black" d="M166.36,-542.01C211.92,-529.97 301.87,-506.21 356.8,-491.7"/>
<polygon fill="black" stroke="black" points="357.52,-494.87 366.3,-488.93 355.73,-488.1 357.52,-494.87"/>
</g>
<!-- NASALib/algebra&#45;&gt;NASALib/structures -->
<g id="edge8" class="edge">
<title>NASALib/algebra&#45;&gt;NASALib/structures</title>
<path fill="none" stroke="black" d="M134.79,-532.2C130.94,-511.47 125,-479.5 125,-479.5"/>
</g>
<!-- lib/finite_sets -->
<g id="node20" class="node">
<title>lib/finite_sets</title>
<polygon fill="#fcfcd7" stroke="black" points="534.75,-52 463.25,-52 463.25,-16 534.75,-16 534.75,-52"/>
<text text-anchor="middle" x="499" y="-28.95" font-family="Times,serif" font-size="14.00">finite_sets</text>
</g>
<!-- NASALib/algebra&#45;&gt;lib/finite_sets -->
<g id="edge9" class="edge">
<title>NASALib/algebra&#45;&gt;lib/finite_sets</title>
<path fill="none" stroke="black" d="M166.05,-546.02C206.14,-541.05 275,-532.5 275,-532.5 275,-532.5 666,-496.5 666,-496.5 666,-496.5 690,-479.5 690,-479.5"/>
<path fill="none" stroke="black" d="M690,-477.5C690,-477.5 690,-335.5 690,-335.5"/>
</g>
<!-- NASALib/analysis -->
<g id="node3" class="node">
<title>NASALib/analysis</title>
<polygon fill="#fcfcd7" stroke="black" points="343.75,-352.5 284.25,-352.5 284.25,-316.5 343.75,-316.5 343.75,-352.5"/>
<text text-anchor="middle" x="314" y="-329.45" font-family="Times,serif" font-size="14.00">analysis</text>
</g>
<!-- NASALib/analysis&#45;&gt;NASALib/ints -->
<g id="edge10" class="edge">
<title>NASALib/analysis&#45;&gt;NASALib/ints</title>
<path fill="none" stroke="black" d="M314,-316.09C314,-278.17 314,-191.5 314,-191.5"/>
</g>
<!-- NASALib/analysis&#45;&gt;NASALib/orders -->
<g id="edge11" class="edge">
<title>NASALib/analysis&#45;&gt;NASALib/orders</title>
<path fill="none" stroke="black" d="M343.96,-317.96C364.08,-307.53 390.72,-293.72 412.14,-282.61"/>
<polygon fill="black" stroke="black" points="413.61,-285.28 420.87,-277.57 410.38,-279.06 413.61,-285.28"/>
</g>
<!-- NASALib/analysis&#45;&gt;NASALib/reals -->
<g id="edge12" class="edge">
<title>NASALib/analysis&#45;&gt;NASALib/reals</title>
<path fill="none" stroke="black" d="M302.63,-316.2C297.39,-308.23 291.07,-298.6 285.26,-289.76"/>
<polygon fill="black" stroke="black" points="287.66,-288.04 279.24,-281.6 281.81,-291.88 287.66,-288.04"/>
</g>
<!-- NASALib/analysis&#45;&gt;NASALib/structures -->
<g id="edge13" class="edge">
<title>NASALib/analysis&#45;&gt;NASALib/structures</title>
<path fill="none" stroke="black" d="M338.23,-316.15C359.81,-300.69 388,-280.5 388,-280.5 388,-280.5 388,-244.5 388,-244.5 388,-244.5 383.02,-231.93 377.91,-219.03"/>
<polygon fill="black" stroke="black" points="380.81,-217.86 373.88,-209.85 374.31,-220.44 380.81,-217.86"/>
</g>
<!-- NASALib/analysis&#45;&gt;lib/finite_sets -->
<g id="edge14" class="edge">
<title>NASALib/analysis&#45;&gt;lib/finite_sets</title>
<path fill="none" stroke="black" d="M344.24,-329.07C431.24,-316.33 676,-280.5 676,-280.5 676,-280.5 690,-263.5 690,-263.5"/>
<path fill="none" stroke="black" d="M690,-261.5C690,-261.5 690,-191.5 690,-191.5"/>
</g>
<!-- NASALib/complex -->
<g id="node4" class="node">
<title>NASALib/complex</title>
<polygon fill="#fcfcd7" stroke="black" points="185.62,-640.5 122.38,-640.5 122.38,-604.5 185.62,-604.5 185.62,-640.5"/>
<text text-anchor="middle" x="154" y="-617.45" font-family="Times,serif" font-size="14.00">complex</text>
</g>
<!-- NASALib/complex&#45;&gt;NASALib/algebra -->
<g id="edge15" class="edge">
<title>NASALib/complex&#45;&gt;NASALib/algebra</title>
<path fill="none" stroke="black" d="M150.04,-604.2C148.32,-596.65 146.26,-587.62 144.33,-579.18"/>
<polygon fill="black" stroke="black" points="147.55,-578.57 141.91,-569.6 140.73,-580.13 147.55,-578.57"/>
</g>
<!-- NASALib/complex&#45;&gt;NASALib/reals -->
<g id="edge16" class="edge">
<title>NASALib/complex&#45;&gt;NASALib/reals</title>
<path fill="none" stroke="black" d="M136.65,-604.15C121.19,-588.69 101,-568.5 101,-568.5 101,-568.5 101,-532.5 101,-532.5 101,-532.5 145,-479.5 145,-479.5"/>
</g>
<!-- NASALib/complex_integration -->
<g id="node5" class="node">
<title>NASALib/complex_integration</title>
<polygon fill="#fcfcd7" stroke="black" points="596.25,-712.5 467.75,-712.5 467.75,-676.5 596.25,-676.5 596.25,-712.5"/>
<text text-anchor="middle" x="532" y="-689.45" font-family="Times,serif" font-size="14.00">complex_integration</text>
</g>
<!-- NASALib/measure_integration -->
<g id="node10" class="node">
<title>NASALib/measure_integration</title>
<polygon fill="#fcfcd7" stroke="black" points="509.5,-640.5 382.5,-640.5 382.5,-604.5 509.5,-604.5 509.5,-640.5"/>
<text text-anchor="middle" x="446" y="-617.45" font-family="Times,serif" font-size="14.00">measure_integration</text>
</g>
<!-- NASALib/complex_integration&#45;&gt;NASALib/measure_integration -->
<g id="edge17" class="edge">
<title>NASALib/complex_integration&#45;&gt;NASALib/measure_integration</title>
<path fill="none" stroke="black" d="M510.74,-676.2C500.2,-667.61 487.29,-657.11 475.78,-647.74"/>
<polygon fill="black" stroke="black" points="478.28,-644.45 468.31,-640.85 473.86,-649.87 478.28,-644.45"/>
</g>
<!-- NASALib/complex_integration&#45;&gt;NASALib/structures -->
<g id="edge18" class="edge">
<title>NASALib/complex_integration&#45;&gt;NASALib/structures</title>
<path fill="none" stroke="black" d="M562.45,-676.15C589.57,-660.69 625,-640.5 625,-640.5 625,-640.5 661,-551.5 661,-551.5"/>
</g>
<!-- NASALib/examples -->
<g id="node6" class="node">
<title>NASALib/examples</title>
<polygon fill="#fcfcd7" stroke="black" points="187.88,-712.5 120.12,-712.5 120.12,-676.5 187.88,-676.5 187.88,-712.5"/>
<text text-anchor="middle" x="154" y="-689.45" font-family="Times,serif" font-size="14.00">examples</text>
</g>
<!-- NASALib/examples&#45;&gt;NASALib/Bernstein -->
<g id="edge19" class="edge">
<title>NASALib/examples&#45;&gt;NASALib/Bernstein</title>
<path fill="none" stroke="black" d="M133.24,-676.2C122.94,-667.61 110.33,-657.11 99.09,-647.74"/>
<polygon fill="black" stroke="black" points="101.74,-644.56 91.82,-640.85 97.26,-649.94 101.74,-644.56"/>
</g>
<!-- NASALib/examples&#45;&gt;NASALib/algebra -->
<g id="edge20" class="edge">
<title>NASALib/examples&#45;&gt;NASALib/algebra</title>
<path fill="none" stroke="black" d="M167.42,-676.15C179.38,-660.69 195,-640.5 195,-640.5 195,-640.5 205,-623.5 205,-623.5"/>
<path fill="none" stroke="black" d="M205,-621.5C205,-621.5 195,-604.5 195,-604.5 195,-604.5 179.26,-589.86 164.32,-575.97"/>
<polygon fill="black" stroke="black" points="167.37,-574.1 157.66,-569.85 162.6,-579.23 167.37,-574.1"/>
</g>
<!-- NASALib/examples&#45;&gt;NASALib/analysis -->
<g id="edge21" class="edge">
<title>NASALib/examples&#45;&gt;NASALib/analysis</title>
<path fill="none" stroke="black" d="M205,-621.5C205,-621.5 220,-532.5 220,-532.5 220,-532.5 275.3,-416.61 301.07,-362.61"/>
<polygon fill="black" stroke="black" points="304.51,-364.51 305.66,-353.98 298.19,-361.5 304.51,-364.51"/>
</g>
<!-- NASALib/examples&#45;&gt;NASALib/complex -->
<g id="edge22" class="edge">
<title>NASALib/examples&#45;&gt;NASALib/complex</title>
<path fill="none" stroke="black" d="M154,-676.2C154,-668.74 154,-659.82 154,-651.47"/>
<polygon fill="black" stroke="black" points="157.5,-651.6 154,-641.6 150.5,-651.6 157.5,-651.6"/>
</g>
<!-- NASALib/examples&#45;&gt;NASALib/ints -->
<g id="edge23" class="edge">
<title>NASALib/examples&#45;&gt;NASALib/ints</title>
<path fill="none" stroke="black" d="M119.63,-679.16C82.02,-663.46 27,-640.5 27,-640.5 27,-640.5 27,-604.5 27,-604.5 27,-604.5 85,-479.5 85,-479.5"/>
<path fill="none" stroke="black" d="M85,-261.5C85,-261.5 100,-244.5 100,-244.5 100,-244.5 314,-191.5 314,-191.5"/>
<path fill="none" stroke="black" d="M85,-333.5C85,-333.5 85,-263.5 85,-263.5"/>
<path fill="none" stroke="black" d="M314,-189.5C314,-189.5 324,-172.5 324,-172.5 324,-172.5 335.23,-158.65 346.22,-145.12"/>
<polygon fill="black" stroke="black" points="349.34,-147.82 352.92,-137.85 343.9,-143.41 349.34,-147.82"/>
<path fill="none" stroke="black" d="M85,-477.5C85,-477.5 85,-335.5 85,-335.5"/>
</g>
<!-- NASALib/examples&#45;&gt;NASALib/reals -->
<g id="edge24" class="edge">
<title>NASALib/examples&#45;&gt;NASALib/reals</title>
<path fill="none" stroke="black" d="M145,-405.5C145,-405.5 145,-335.5 145,-335.5"/>
<path fill="none" stroke="black" d="M85,-477.5C85,-477.5 145,-407.5 145,-407.5"/>
<path fill="none" stroke="black" d="M145,-333.5C145,-333.5 195.11,-304.98 231.36,-284.35"/>
<polygon fill="black" stroke="black" points="232.74,-287.02 239.7,-279.04 229.28,-280.94 232.74,-287.02"/>
</g>
<!-- NASALib/sets_aux -->
<g id="node16" class="node">
<title>NASALib/sets_aux</title>
<polygon fill="#fcfcd7" stroke="black" points="528.25,-424.5 465.75,-424.5 465.75,-388.5 528.25,-388.5 528.25,-424.5"/>
<text text-anchor="middle" x="497" y="-401.45" font-family="Times,serif" font-size="14.00">sets_aux</text>
</g>
<!-- NASALib/examples&#45;&gt;NASALib/sets_aux -->
<g id="edge25" class="edge">
<title>NASALib/examples&#45;&gt;NASALib/sets_aux</title>
<path fill="none" stroke="black" d="M188.24,-676.38C256.71,-642.15 404,-568.5 404,-568.5 404,-568.5 447,-496.5 447,-496.5 447,-496.5 467.31,-460.35 482.04,-434.13"/>
<polygon fill="black" stroke="black" points="485.51,-436.09 487.36,-425.66 479.41,-432.66 485.51,-436.09"/>
</g>
<!-- NASALib/examples&#45;&gt;NASALib/structures -->
<g id="edge26" class="edge">
<title>NASALib/examples&#45;&gt;NASALib/structures</title>
<path fill="none" stroke="black" d="M85,-333.5C85,-333.5 105,-263.5 105,-263.5"/>
<path fill="none" stroke="black" d="M105,-261.5C105,-261.5 319,-208.5 319,-208.5 319,-208.5 320.27,-208.05 322.41,-207.29"/>
<polygon fill="black" stroke="black" points="323.11,-210.4 331.37,-203.76 320.78,-203.8 323.11,-210.4"/>
</g>
<!-- NASALib/extended_nnreal -->
<g id="node7" class="node">
<title>NASALib/extended_nnreal</title>
<polygon fill="#fcfcd7" stroke="black" points="389.62,-568.5 284.38,-568.5 284.38,-532.5 389.62,-532.5 389.62,-568.5"/>
<text text-anchor="middle" x="337" y="-545.45" font-family="Times,serif" font-size="14.00">extended_nnreal</text>
</g>
<!-- NASALib/extended_nnreal&#45;&gt;NASALib/analysis -->
<g id="edge27" class="edge">
<title>NASALib/extended_nnreal&#45;&gt;NASALib/analysis</title>
<path fill="none" stroke="black" d="M329.09,-532.2C319.61,-511.47 305,-479.5 305,-479.5"/>
<path fill="none" stroke="black" d="M305,-477.5C305,-477.5 303,-407.5 303,-407.5"/>
</g>
<!-- NASALib/extended_nnreal&#45;&gt;NASALib/reals -->
<g id="edge28" class="edge">
<title>NASALib/extended_nnreal&#45;&gt;NASALib/reals</title>
<path fill="none" stroke="black" d="M324.88,-532.15C314.09,-516.69 300,-496.5 300,-496.5 300,-496.5 265,-335.5 265,-335.5"/>
<path fill="none" stroke="black" d="M265,-333.5C265,-333.5 265.96,-311.16 266.79,-291.72"/>
<polygon fill="black" stroke="black" points="270.33,-291.94 267.26,-281.8 263.33,-291.64 270.33,-291.94"/>
</g>
<!-- NASALib/series -->
<g id="node15" class="node">
<title>NASALib/series</title>
<polygon fill="#fcfcd7" stroke="black" points="376,-424.5 322,-424.5 322,-388.5 376,-388.5 376,-424.5"/>
<text text-anchor="middle" x="349" y="-401.45" font-family="Times,serif" font-size="14.00">series</text>
</g>
<!-- NASALib/extended_nnreal&#45;&gt;NASALib/series -->
<g id="edge29" class="edge">
<title>NASALib/extended_nnreal&#45;&gt;NASALib/series</title>
<path fill="none" stroke="black" d="M305,-477.5C305,-477.5 319.84,-453.89 332.28,-434.1"/>
<polygon fill="black" stroke="black" points="335.77,-436.13 338.12,-425.8 329.84,-432.41 335.77,-436.13"/>
</g>
<!-- NASALib/extended_nnreal&#45;&gt;NASALib/sigma_set -->
<g id="edge30" class="edge">
<title>NASALib/extended_nnreal&#45;&gt;NASALib/sigma_set</title>
<path fill="none" stroke="black" d="M353.31,-532.2C361.23,-523.8 370.88,-513.57 379.56,-504.36"/>
<polygon fill="black" stroke="black" points="381.56,-507.28 385.87,-497.6 376.47,-502.48 381.56,-507.28"/>
</g>
<!-- NASALib/ints&#45;&gt;lib/finite_sets -->
<g id="edge31" class="edge">
<title>NASALib/ints&#45;&gt;lib/finite_sets</title>
<path fill="none" stroke="black" d="M394.35,-100.41C413.95,-88.15 440.58,-71.51 462.07,-58.08"/>
<polygon fill="black" stroke="black" points="463.61,-60.62 470.23,-52.36 459.9,-54.69 463.61,-60.62"/>
</g>
<!-- NASALib/lebesgue -->
<g id="node9" class="node">
<title>NASALib/lebesgue</title>
<polygon fill="#fcfcd7" stroke="black" points="449.62,-712.5 386.38,-712.5 386.38,-676.5 449.62,-676.5 449.62,-712.5"/>
<text text-anchor="middle" x="418" y="-689.45" font-family="Times,serif" font-size="14.00">lebesgue</text>
</g>
<!-- NASALib/lebesgue&#45;&gt;NASALib/analysis -->
<g id="edge32" class="edge">
<title>NASALib/lebesgue&#45;&gt;NASALib/analysis</title>
<path fill="none" stroke="black" d="M363,-621.5C363,-621.5 374,-604.5 374,-604.5 374,-604.5 474,-568.5 474,-568.5 474,-568.5 474,-532.5 474,-532.5 474,-532.5 447,-460.5 447,-460.5 447,-460.5 403,-407.5 403,-407.5"/>
</g>
<!-- NASALib/lebesgue&#45;&gt;NASALib/extended_nnreal -->
<g id="edge33" class="edge">
<title>NASALib/lebesgue&#45;&gt;NASALib/extended_nnreal</title>
<path fill="none" stroke="black" d="M363,-621.5C363,-621.5 354.47,-598.53 347.18,-578.91"/>
<polygon fill="black" stroke="black" points="350.19,-577.96 343.43,-569.8 343.63,-580.4 350.19,-577.96"/>
</g>
<!-- NASALib/lebesgue&#45;&gt;NASALib/measure_integration -->
<g id="edge34" class="edge">
<title>NASALib/lebesgue&#45;&gt;NASALib/measure_integration</title>
<path fill="none" stroke="black" d="M424.92,-676.2C428.01,-668.48 431.72,-659.21 435.16,-650.61"/>
<polygon fill="black" stroke="black" points="438.69,-652.19 439.16,-641.6 432.19,-649.59 438.69,-652.19"/>
</g>
<!-- NASALib/lebesgue&#45;&gt;NASALib/reals -->
<g id="edge35" class="edge">
<title>NASALib/lebesgue&#45;&gt;NASALib/reals</title>
<path fill="none" stroke="black" d="M403.59,-676.15C390.76,-660.69 374,-640.5 374,-640.5 374,-640.5 363,-623.5 363,-623.5"/>
<path fill="none" stroke="black" d="M363,-621.5C363,-621.5 275,-568.5 275,-568.5 275,-568.5 145,-335.5 145,-335.5"/>
</g>
<!-- NASALib/lebesgue&#45;&gt;NASALib/sets_aux -->
<g id="edge36" class="edge">
<title>NASALib/lebesgue&#45;&gt;NASALib/sets_aux</title>
<path fill="none" stroke="black" d="M449.96,-676.73C479.55,-661.2 519,-640.5 519,-640.5 519,-640.5 519,-604.5 519,-604.5 519,-604.5 514,-532.5 514,-532.5 514,-532.5 505.82,-472.32 500.8,-435.47"/>
<polygon fill="black" stroke="black" points="504.18,-435.32 499.36,-425.88 497.24,-436.26 504.18,-435.32"/>
</g>
<!-- NASALib/lebesgue&#45;&gt;NASALib/sigma_set -->
<g id="edge37" class="edge">
<title>NASALib/lebesgue&#45;&gt;NASALib/sigma_set</title>
<path fill="none" stroke="black" d="M363,-621.5C363,-621.5 374,-604.5 374,-604.5 374,-604.5 469,-551.5 469,-551.5"/>
<path fill="none" stroke="black" d="M469,-549.5C469,-549.5 454,-532.5 454,-532.5 454,-532.5 440.42,-518.39 427.28,-504.73"/>
<polygon fill="black" stroke="black" points="430.16,-502.63 420.7,-497.85 425.11,-507.49 430.16,-502.63"/>
</g>
<!-- NASALib/lebesgue&#45;&gt;NASALib/structures -->
<g id="edge38" class="edge">
<title>NASALib/lebesgue&#45;&gt;NASALib/structures</title>
<path fill="none" stroke="black" d="M661,-549.5C661,-549.5 661,-479.5 661,-479.5"/>
<path fill="none" stroke="black" d="M449.9,-680.27C455.19,-678.08 459,-676.5 459,-676.5 459,-676.5 611,-640.5 611,-640.5 611,-640.5 661,-551.5 661,-551.5"/>
</g>
<!-- NASALib/measure_integration&#45;&gt;NASALib/extended_nnreal -->
<g id="edge39" class="edge">
<title>NASALib/measure_integration&#45;&gt;NASALib/extended_nnreal</title>
<path fill="none" stroke="black" d="M418.78,-604.02C404.89,-595.1 387.81,-584.13 372.86,-574.53"/>
<polygon fill="black" stroke="black" points="375.18,-571.22 364.88,-568.76 371.4,-577.11 375.18,-571.22"/>
</g>
<!-- NASALib/measure_integration&#45;&gt;NASALib/orders -->
<g id="edge40" class="edge">
<title>NASALib/measure_integration&#45;&gt;NASALib/orders</title>
<path fill="none" stroke="black" d="M468.27,-604.15C488.1,-588.69 514,-568.5 514,-568.5 514,-568.5 549,-479.5 549,-479.5 549,-479.5 549,-479.5 549,-405.5 549,-405.5 496.47,-330.9 467.55,-289.85"/>
<polygon fill="black" stroke="black" points="469.88,-288.07 461.26,-281.91 464.16,-292.1 469.88,-288.07"/>
</g>
<!-- NASALib/measure_integration&#45;&gt;NASALib/reals -->
<g id="edge41" class="edge">
<title>NASALib/measure_integration&#45;&gt;NASALib/reals</title>
<path fill="none" stroke="black" d="M497,-477.5C497,-477.5 428,-388.5 428,-388.5 428,-388.5 371,-316.5 371,-316.5 371,-316.5 334.55,-297.75 305.02,-282.55"/>
<polygon fill="black" stroke="black" points="306.82,-279.03 296.33,-277.56 303.62,-285.25 306.82,-279.03"/>
<path fill="none" stroke="black" d="M456.81,-604.15C466.43,-588.69 479,-568.5 479,-568.5 479,-568.5 497,-479.5 497,-479.5"/>
</g>
<!-- NASALib/measure_integration&#45;&gt;NASALib/series -->
<g id="edge42" class="edge">
<title>NASALib/measure_integration&#45;&gt;NASALib/series</title>
<path fill="none" stroke="black" d="M436.94,-604.34C423.28,-578.48 399,-532.5 399,-532.5 399,-532.5 359,-496.5 359,-496.5 359,-496.5 355.08,-461.61 352.15,-435.52"/>
<polygon fill="black" stroke="black" points="355.52,-435.21 350.93,-425.66 348.57,-435.99 355.52,-435.21"/>
</g>
<!-- NASALib/measure_integration&#45;&gt;NASALib/sets_aux -->
<g id="edge43" class="edge">
<title>NASALib/measure_integration&#45;&gt;NASALib/sets_aux</title>
<path fill="none" stroke="black" d="M497,-477.5C497,-477.5 497,-455.16 497,-435.72"/>
<polygon fill="black" stroke="black" points="500.5,-435.8 497,-425.8 493.5,-435.8 500.5,-435.8"/>
</g>
<!-- NASALib/measure_integration&#45;&gt;NASALib/sigma_set -->
<g id="edge44" class="edge">
<title>NASALib/measure_integration&#45;&gt;NASALib/sigma_set</title>
<path fill="none" stroke="black" d="M451.69,-604.2C458.5,-583.47 469,-551.5 469,-551.5"/>
</g>
<!-- NASALib/measure_integration&#45;&gt;NASALib/structures -->
<g id="edge45" class="edge">
<title>NASALib/measure_integration&#45;&gt;NASALib/structures</title>
<path fill="none" stroke="black" d="M661,-405.5C661,-405.5 641,-263.5 641,-263.5"/>
<path fill="none" stroke="black" d="M471.87,-604.15C494.91,-588.69 525,-568.5 525,-568.5 525,-568.5 661,-407.5 661,-407.5"/>
</g>
<!-- NASALib/measure_integration&#45;&gt;lib/finite_sets -->
<g id="edge46" class="edge">
<title>NASALib/measure_integration&#45;&gt;lib/finite_sets</title>
<path fill="none" stroke="black" d="M509.76,-606.81C577.83,-591.12 676,-568.5 676,-568.5 676,-568.5 690,-479.5 690,-479.5"/>
</g>
<!-- NASALib/orders&#45;&gt;NASALib/structures -->
<g id="edge47" class="edge">
<title>NASALib/orders&#45;&gt;NASALib/structures</title>
<path fill="none" stroke="black" d="M428.73,-244.2C418.68,-235.61 406.37,-225.11 395.39,-215.74"/>
<polygon fill="black" stroke="black" points="398.2,-212.68 388.32,-208.85 393.65,-218 398.2,-212.68"/>
</g>
<!-- NASALib/orders&#45;&gt;lib/finite_sets -->
<g id="edge48" class="edge">
<title>NASALib/orders&#45;&gt;lib/finite_sets</title>
<path fill="none" stroke="black" d="M690,-189.5C690,-189.5 690,-119.5 690,-119.5"/>
<path fill="none" stroke="black" d="M476.38,-255.11C536.76,-241.01 676,-208.5 676,-208.5 676,-208.5 690,-191.5 690,-191.5"/>
</g>
<!-- NASALib/probability -->
<g id="node12" class="node">
<title>NASALib/probability</title>
<polygon fill="#fcfcd7" stroke="black" points="302.62,-712.5 227.38,-712.5 227.38,-676.5 302.62,-676.5 302.62,-712.5"/>
<text text-anchor="middle" x="265" y="-689.45" font-family="Times,serif" font-size="14.00">probability</text>
</g>
<!-- NASALib/probability&#45;&gt;NASALib/analysis -->
<g id="edge49" class="edge">
<title>NASALib/probability&#45;&gt;NASALib/analysis</title>
<path fill="none" stroke="black" d="M303,-405.5C303,-405.5 306.54,-382.95 309.61,-363.45"/>
<polygon fill="black" stroke="black" points="313.19,-364.23 311.28,-353.8 306.27,-363.14 313.19,-364.23"/>
<path fill="none" stroke="black" d="M266.07,-676.27C268.65,-634.74 275,-532.5 275,-532.5 275,-532.5 303,-407.5 303,-407.5"/>
</g>
<!-- NASALib/probability&#45;&gt;NASALib/measure_integration -->
<g id="edge50" class="edge">
<title>NASALib/probability&#45;&gt;NASALib/measure_integration</title>
<path fill="none" stroke="black" d="M302.94,-678.83C328.42,-668.97 362.41,-655.83 390.87,-644.82"/>
<polygon fill="black" stroke="black" points="392.01,-647.75 400.07,-640.88 389.48,-641.22 392.01,-647.75"/>
</g>
<!-- NASALib/probability&#45;&gt;NASALib/reals -->
<g id="edge51" class="edge">
<title>NASALib/probability&#45;&gt;NASALib/reals</title>
<path fill="none" stroke="black" d="M225,-621.5C225,-621.5 170,-460.5 170,-460.5 170,-460.5 145,-407.5 145,-407.5"/>
<path fill="none" stroke="black" d="M255.11,-676.2C243.27,-655.47 225,-623.5 225,-623.5"/>
</g>
<!-- NASALib/probability&#45;&gt;NASALib/structures -->
<g id="edge52" class="edge">
<title>NASALib/probability&#45;&gt;NASALib/structures</title>
<path fill="none" stroke="black" d="M225,-621.5C225,-621.5 275,-316.5 275,-316.5 275,-316.5 304,-280.5 304,-280.5 304,-280.5 330.04,-243.71 348.64,-217.44"/>
<polygon fill="black" stroke="black" points="351.93,-219.84 354.85,-209.66 346.22,-215.8 351.93,-219.84"/>
</g>
<!-- NASALib/reals&#45;&gt;NASALib/ints -->
<g id="edge53" class="edge">
<title>NASALib/reals&#45;&gt;NASALib/ints</title>
<path fill="none" stroke="black" d="M279.37,-244.2C292.99,-223.47 314,-191.5 314,-191.5"/>
</g>
<!-- NASALib/reals&#45;&gt;NASALib/structures -->
<g id="edge54" class="edge">
<title>NASALib/reals&#45;&gt;NASALib/structures</title>
<path fill="none" stroke="black" d="M292.73,-244.02C305.1,-235.26 320.27,-224.54 333.66,-215.08"/>
<polygon fill="black" stroke="black" points="335.44,-217.39 341.59,-208.76 331.4,-211.68 335.44,-217.39"/>
</g>
<!-- NASALib/scott -->
<g id="node14" class="node">
<title>NASALib/scott</title>
<polygon fill="#fcfcd7" stroke="black" points="602,-640.5 548,-640.5 548,-604.5 602,-604.5 602,-640.5"/>
<text text-anchor="middle" x="575" y="-617.45" font-family="Times,serif" font-size="14.00">scott</text>
</g>
<!-- NASALib/scott&#45;&gt;NASALib/algebra -->
<g id="edge55" class="edge">
<title>NASALib/scott&#45;&gt;NASALib/algebra</title>
<path fill="none" stroke="black" d="M547.66,-613.2C533.44,-608.88 519,-604.5 519,-604.5 519,-604.5 274.38,-570.47 177.16,-556.95"/>
<polygon fill="black" stroke="black" points="177.71,-553.35 167.33,-555.44 176.75,-560.28 177.71,-553.35"/>
</g>
<!-- NASALib/scott&#45;&gt;NASALib/orders -->
<g id="edge56" class="edge">
<title>NASALib/scott&#45;&gt;NASALib/orders</title>
<path fill="none" stroke="black" d="M641,-405.5C641,-405.5 535.85,-327.73 481.18,-287.3"/>
<polygon fill="black" stroke="black" points="483.66,-284.04 473.54,-280.91 479.5,-289.67 483.66,-284.04"/>
<path fill="none" stroke="black" d="M580.29,-604.35C595.95,-553.57 641,-407.5 641,-407.5"/>
</g>
<!-- NASALib/scott&#45;&gt;NASALib/structures -->
<g id="edge57" class="edge">
<title>NASALib/scott&#45;&gt;NASALib/structures</title>
<path fill="none" stroke="black" d="M585.55,-604.09C608.51,-566.17 661,-479.5 661,-479.5"/>
<path fill="none" stroke="black" d="M661,-477.5C661,-477.5 661,-407.5 661,-407.5"/>
</g>
<!-- NASALib/series&#45;&gt;NASALib/analysis -->
<g id="edge58" class="edge">
<title>NASALib/series&#45;&gt;NASALib/analysis</title>
<path fill="none" stroke="black" d="M340.35,-388.2C336.45,-380.4 331.75,-371.01 327.41,-362.33"/>
<polygon fill="black" stroke="black" points="330.15,-360.98 322.55,-353.6 323.89,-364.11 330.15,-360.98"/>
</g>
<!-- NASALib/series&#45;&gt;NASALib/ints -->
<g id="edge59" class="edge">
<title>NASALib/series&#45;&gt;NASALib/ints</title>
<path fill="none" stroke="black" d="M353.17,-388.09C362.25,-350.17 383,-263.5 383,-263.5"/>
<path fill="none" stroke="black" d="M383,-261.5C383,-261.5 324,-208.5 324,-208.5 324,-208.5 314,-191.5 314,-191.5"/>
</g>
<!-- NASALib/series&#45;&gt;NASALib/orders -->
<g id="edge60" class="edge">
<title>NASALib/series&#45;&gt;NASALib/orders</title>
<path fill="none" stroke="black" d="M423,-333.5C423,-333.5 431.53,-310.53 438.82,-290.91"/>
<polygon fill="black" stroke="black" points="442.37,-292.4 442.57,-281.8 435.81,-289.96 442.37,-292.4"/>
<path fill="none" stroke="black" d="M367.29,-388.2C389.21,-367.47 423,-335.5 423,-335.5"/>
</g>
<!-- NASALib/series&#45;&gt;NASALib/reals -->
<g id="edge61" class="edge">
<title>NASALib/series&#45;&gt;NASALib/reals</title>
<path fill="none" stroke="black" d="M324.77,-388.15C303.19,-372.69 275,-352.5 275,-352.5 275,-352.5 265,-335.5 265,-335.5"/>
</g>
<!-- NASALib/sets_aux&#45;&gt;NASALib/ints -->
<g id="edge62" class="edge">
<title>NASALib/sets_aux&#45;&gt;NASALib/ints</title>
<path fill="none" stroke="black" d="M443,-333.5C443,-333.5 383,-263.5 383,-263.5"/>
<path fill="none" stroke="black" d="M483.65,-388.2C467.66,-367.47 443,-335.5 443,-335.5"/>
</g>
<!-- NASALib/sets_aux&#45;&gt;NASALib/orders -->
<g id="edge63" class="edge">
<title>NASALib/sets_aux&#45;&gt;NASALib/orders</title>
<path fill="none" stroke="black" d="M443,-333.5C443,-333.5 444.91,-311.16 446.58,-291.72"/>
<polygon fill="black" stroke="black" points="450.15,-292.07 447.52,-281.8 443.18,-291.47 450.15,-292.07"/>
</g>
<!-- NASALib/sets_aux&#45;&gt;NASALib/structures -->
<g id="edge64" class="edge">
<title>NASALib/sets_aux&#45;&gt;NASALib/structures</title>
<path fill="none" stroke="black" d="M641,-261.5C641,-261.5 489.97,-222.92 412.17,-203.04"/>
<polygon fill="black" stroke="black" points="413.26,-199.45 402.7,-200.37 411.52,-206.23 413.26,-199.45"/>
<path fill="none" stroke="black" d="M514.66,-388.09C553.11,-350.17 641,-263.5 641,-263.5"/>
</g>
<!-- NASALib/sets_aux&#45;&gt;lib/finite_sets -->
<g id="edge65" class="edge">
<title>NASALib/sets_aux&#45;&gt;lib/finite_sets</title>
<path fill="none" stroke="black" d="M690,-333.5C690,-333.5 690,-263.5 690,-263.5"/>
<path fill="none" stroke="black" d="M528.59,-396.15C579.98,-380.93 676,-352.5 676,-352.5 676,-352.5 690,-335.5 690,-335.5"/>
</g>
<!-- NASALib/sigma_set&#45;&gt;NASALib/analysis -->
<g id="edge66" class="edge">
<title>NASALib/sigma_set&#45;&gt;NASALib/analysis</title>
<path fill="none" stroke="black" d="M403,-405.5C403,-405.5 385,-388.5 385,-388.5 385,-388.5 364.84,-373.45 346.01,-359.4"/>
<polygon fill="black" stroke="black" points="348.36,-356.03 338.25,-352.85 344.17,-361.64 348.36,-356.03"/>
<path fill="none" stroke="black" d="M403,-460.2C403,-439.47 403,-407.5 403,-407.5"/>
</g>
<!-- NASALib/sigma_set&#45;&gt;NASALib/orders -->
<g id="edge67" class="edge">
<title>NASALib/sigma_set&#45;&gt;NASALib/orders</title>
<path fill="none" stroke="black" d="M423,-405.5C423,-405.5 423,-335.5 423,-335.5"/>
</g>
<!-- NASALib/sigma_set&#45;&gt;NASALib/reals -->
<g id="edge68" class="edge">
<title>NASALib/sigma_set&#45;&gt;NASALib/reals</title>
<path fill="none" stroke="black" d="M423,-405.5C423,-405.5 353,-316.5 353,-316.5 353,-316.5 327.67,-300.71 304.67,-286.36"/>
<polygon fill="black" stroke="black" points="306.7,-282.88 296.36,-280.56 303,-288.82 306.7,-282.88"/>
<path fill="none" stroke="black" d="M407.94,-460.2C413.87,-439.47 423,-407.5 423,-407.5"/>
</g>
<!-- NASALib/sigma_set&#45;&gt;NASALib/series -->
<g id="edge69" class="edge">
<title>NASALib/sigma_set&#45;&gt;NASALib/series</title>
<path fill="none" stroke="black" d="M389.65,-460.2C383.37,-452.06 375.76,-442.19 368.83,-433.2"/>
<polygon fill="black" stroke="black" points="371.07,-431.38 362.19,-425.6 365.53,-435.66 371.07,-431.38"/>
</g>
<!-- NASALib/sigma_set&#45;&gt;NASALib/sets_aux -->
<g id="edge70" class="edge">
<title>NASALib/sigma_set&#45;&gt;NASALib/sets_aux</title>
<path fill="none" stroke="black" d="M426.24,-460.2C437.99,-451.45 452.43,-440.69 465.19,-431.19"/>
<polygon fill="black" stroke="black" points="466.78,-433.63 472.71,-424.85 462.59,-428.01 466.78,-433.63"/>
</g>
<!-- NASALib/structures&#45;&gt;NASALib/ints -->
<g id="edge71" class="edge">
<title>NASALib/structures&#45;&gt;NASALib/ints</title>
<path fill="none" stroke="black" d="M367,-172.2C367,-164.74 367,-155.82 367,-147.47"/>
<polygon fill="black" stroke="black" points="370.5,-147.6 367,-137.6 363.5,-147.6 370.5,-147.6"/>
</g>
<!-- NASALib/structures&#45;&gt;lib/finite_sets -->
<g id="edge72" class="edge">
<title>NASALib/structures&#45;&gt;lib/finite_sets</title>
<path fill="none" stroke="black" d="M401.57,-182.01C484.89,-163.95 690,-119.5 690,-119.5"/>
<path fill="none" stroke="black" d="M690,-117.5C690,-117.5 601.23,-79.16 544.73,-54.75"/>
<polygon fill="black" stroke="black" points="546.49,-51.27 535.93,-50.52 543.72,-57.7 546.49,-51.27"/>
</g>
<!-- NASALib/while -->
<g id="node19" class="node">
<title>NASALib/while</title>
<polygon fill="#fcfcd7" stroke="black" points="668,-712.5 614,-712.5 614,-676.5 668,-676.5 668,-712.5"/>
<text text-anchor="middle" x="641" y="-689.45" font-family="Times,serif" font-size="14.00">while</text>
</g>
<!-- NASALib/while&#45;&gt;NASALib/orders -->
<g id="edge73" class="edge">
<title>NASALib/while&#45;&gt;NASALib/orders</title>
<path fill="none" stroke="black" d="M641,-676.04C641,-613.95 641,-407.5 641,-407.5"/>
</g>
<!-- NASALib/while&#45;&gt;NASALib/scott -->
<g id="edge74" class="edge">
<title>NASALib/while&#45;&gt;NASALib/scott</title>
<path fill="none" stroke="black" d="M624.69,-676.2C616.77,-667.8 607.12,-657.57 598.44,-648.36"/>
<polygon fill="black" stroke="black" points="601.53,-646.48 592.13,-641.6 596.44,-651.28 601.53,-646.48"/>
</g>
</g>
</svg>
