<?xml version="1.0" encoding="UTF-8" standalone="no"?>
<!DOCTYPE svg PUBLIC "-//W3C//DTD SVG 1.1//EN"
 "http://www.w3.org/Graphics/SVG/1.1/DTD/svg11.dtd">
<!-- Generated by graphviz version 8.0.4 (20230421.1958)
 -->
<!-- Title: measure_integration Pages: 1 -->
<svg width="730pt" height="833pt"
 viewBox="0.00 0.00 730.00 833.00" xmlns="http://www.w3.org/2000/svg" xmlns:xlink="http://www.w3.org/1999/xlink">
<g id="graph0" class="graph" transform="scale(1 1) rotate(0) translate(4 829)">
<title>measure_integration</title>
<polygon fill="white" stroke="none" points="-4,4 -4,-829 726,-829 726,4 -4,4"/>
<g id="clust1" class="cluster">
<title>cluster_NASALib</title>
<polygon fill="none" stroke="black" points="8,-92.5 8,-817 702,-817 702,-92.5 8,-92.5"/>
<text text-anchor="middle" x="355" y="-799.7" font-family="Times,serif" font-size="14.00">NASALib</text>
</g>
<g id="clust2" class="cluster">
<title>cluster_PVS Prelude</title>
<polygon fill="none" stroke="black" points="426,-8 426,-84.5 514,-84.5 514,-8 426,-8"/>
<text text-anchor="middle" x="470" y="-67.2" font-family="Times,serif" font-size="14.00">PVS Prelude</text>
</g>
<!-- NASALib/analysis -->
<g id="node1" class="node">
<title>NASALib/analysis</title>
<polygon fill="#fcfcd7" stroke="black" points="378.75,-352.5 319.25,-352.5 319.25,-316.5 378.75,-316.5 378.75,-352.5"/>
<text text-anchor="middle" x="349" y="-329.45" font-family="Times,serif" font-size="14.00">analysis</text>
</g>
<!-- NASALib/ints -->
<g id="node4" class="node">
<title>NASALib/ints</title>
<polygon fill="#fcfcd7" stroke="black" points="310,-136.5 256,-136.5 256,-100.5 310,-100.5 310,-136.5"/>
<text text-anchor="middle" x="283" y="-113.45" font-family="Times,serif" font-size="14.00">ints</text>
</g>
<!-- NASALib/analysis&#45;&gt;NASALib/ints -->
<g id="edge1" class="edge">
<title>NASALib/analysis&#45;&gt;NASALib/ints</title>
<path fill="none" stroke="black" d="M283,-261.5C283,-261.5 273,-244.5 273,-244.5 273,-244.5 171,-191.5 171,-191.5"/>
<path fill="none" stroke="black" d="M332.69,-316.2C313.14,-295.47 283,-263.5 283,-263.5"/>
</g>
<!-- NASALib/orders -->
<g id="node9" class="node">
<title>NASALib/orders</title>
<polygon fill="#fcfcd7" stroke="black" points="498,-280.5 444,-280.5 444,-244.5 498,-244.5 498,-280.5"/>
<text text-anchor="middle" x="471" y="-257.45" font-family="Times,serif" font-size="14.00">orders</text>
</g>
<!-- NASALib/analysis&#45;&gt;NASALib/orders -->
<g id="edge2" class="edge">
<title>NASALib/analysis&#45;&gt;NASALib/orders</title>
<path fill="none" stroke="black" d="M379.16,-316.2C395.83,-306.63 416.67,-294.67 434.28,-284.57"/>
<polygon fill="black" stroke="black" points="435.76,-287.18 442.69,-279.17 432.27,-281.11 435.76,-287.18"/>
</g>
<!-- NASALib/reals -->
<g id="node12" class="node">
<title>NASALib/reals</title>
<polygon fill="#fcfcd7" stroke="black" points="264,-280.5 210,-280.5 210,-244.5 264,-244.5 264,-280.5"/>
<text text-anchor="middle" x="237" y="-257.45" font-family="Times,serif" font-size="14.00">reals</text>
</g>
<!-- NASALib/analysis&#45;&gt;NASALib/reals -->
<g id="edge3" class="edge">
<title>NASALib/analysis&#45;&gt;NASALib/reals</title>
<path fill="none" stroke="black" d="M321.03,-316.02C306.65,-307.03 288.95,-295.97 273.5,-286.31"/>
<polygon fill="black" stroke="black" points="275.57,-282.85 265.23,-280.52 271.86,-288.79 275.57,-282.85"/>
</g>
<!-- NASALib/structures -->
<g id="node16" class="node">
<title>NASALib/structures</title>
<polygon fill="#fcfcd7" stroke="black" points="317.25,-208.5 248.75,-208.5 248.75,-172.5 317.25,-172.5 317.25,-208.5"/>
<text text-anchor="middle" x="283" y="-185.45" font-family="Times,serif" font-size="14.00">structures</text>
</g>
<!-- NASALib/analysis&#45;&gt;NASALib/structures -->
<g id="edge4" class="edge">
<title>NASALib/analysis&#45;&gt;NASALib/structures</title>
<path fill="none" stroke="black" d="M283,-261.5C283,-261.5 283,-239.16 283,-219.72"/>
<polygon fill="black" stroke="black" points="286.5,-219.8 283,-209.8 279.5,-219.8 286.5,-219.8"/>
</g>
<!-- lib/finite_sets -->
<g id="node20" class="node">
<title>lib/finite_sets</title>
<polygon fill="#fcfcd7" stroke="black" points="505.75,-52 434.25,-52 434.25,-16 505.75,-16 505.75,-52"/>
<text text-anchor="middle" x="470" y="-28.95" font-family="Times,serif" font-size="14.00">finite_sets</text>
</g>
<!-- NASALib/analysis&#45;&gt;lib/finite_sets -->
<g id="edge5" class="edge">
<title>NASALib/analysis&#45;&gt;lib/finite_sets</title>
<path fill="none" stroke="black" d="M722,-261.5C722,-261.5 722,-191.5 722,-191.5"/>
<path fill="none" stroke="black" d="M379.13,-329.03C465.2,-316.25 706,-280.5 706,-280.5 706,-280.5 722,-263.5 722,-263.5"/>
</g>
<!-- NASALib/complex_integration -->
<g id="node2" class="node">
<title>NASALib/complex_integration</title>
<polygon fill="#fcfcd7" stroke="black" points="370.25,-784.5 241.75,-784.5 241.75,-748.5 370.25,-748.5 370.25,-784.5"/>
<text text-anchor="middle" x="306" y="-761.45" font-family="Times,serif" font-size="14.00">complex_integration</text>
</g>
<!-- NASALib/measure_integration -->
<g id="node7" class="node">
<title>NASALib/measure_integration</title>
<polygon fill="#f7e28d" stroke="black" points="553.5,-712.5 426.5,-712.5 426.5,-676.5 553.5,-676.5 553.5,-712.5"/>
<text text-anchor="middle" x="490" y="-689.45" font-family="Times,serif" font-size="14.00">measure_integration</text>
</g>
<!-- NASALib/complex_integration&#45;&gt;NASALib/measure_integration -->
<g id="edge6" class="edge">
<title>NASALib/complex_integration&#45;&gt;NASALib/measure_integration</title>
<path fill="none" stroke="black" d="M351.96,-748.02C376.86,-738.54 407.82,-726.76 434.11,-716.76"/>
<polygon fill="black" stroke="black" points="435.21,-719.71 443.31,-712.88 432.72,-713.17 435.21,-719.71"/>
</g>
<!-- NASALib/metric_space -->
<g id="node8" class="node">
<title>NASALib/metric_space</title>
<polygon fill="#fcfcd7" stroke="black" points="311,-640.5 223,-640.5 223,-604.5 311,-604.5 311,-640.5"/>
<text text-anchor="middle" x="267" y="-617.45" font-family="Times,serif" font-size="14.00">metric_space</text>
</g>
<!-- NASALib/complex_integration&#45;&gt;NASALib/metric_space -->
<g id="edge7" class="edge">
<title>NASALib/complex_integration&#45;&gt;NASALib/metric_space</title>
<path fill="none" stroke="black" d="M301.22,-748.09C294.57,-723.9 282.48,-679.86 274.59,-651.15"/>
<polygon fill="black" stroke="black" points="277.72,-650.33 271.7,-641.61 270.97,-652.18 277.72,-650.33"/>
</g>
<!-- NASALib/power -->
<g id="node10" class="node">
<title>NASALib/power</title>
<polygon fill="#fcfcd7" stroke="black" points="152,-568.5 98,-568.5 98,-532.5 152,-532.5 152,-568.5"/>
<text text-anchor="middle" x="125" y="-545.45" font-family="Times,serif" font-size="14.00">power</text>
</g>
<!-- NASALib/complex_integration&#45;&gt;NASALib/power -->
<g id="edge8" class="edge">
<title>NASALib/complex_integration&#45;&gt;NASALib/power</title>
<path fill="none" stroke="black" d="M57,-621.5C57,-621.5 81.2,-596.59 100.73,-576.48"/>
<polygon fill="black" stroke="black" points="102.73,-579.41 107.19,-569.8 97.71,-574.54 102.73,-579.41"/>
<path fill="none" stroke="black" d="M37,-693.5C37,-693.5 57,-623.5 57,-623.5"/>
</g>
<!-- NASALib/complex_integration&#45;&gt;NASALib/structures -->
<g id="edge9" class="edge">
<title>NASALib/complex_integration&#45;&gt;NASALib/structures</title>
<path fill="none" stroke="black" d="M37,-693.5C37,-693.5 17,-551.5 17,-551.5 17,-551.5 17,-551.5 17,-477.5 17,-477.5 72,-316.5 72,-316.5 72,-316.5 178,-244.5 178,-244.5 178,-244.5 210.28,-228.2 239.05,-213.68"/>
<polygon fill="black" stroke="black" points="240.27,-216.48 247.62,-208.85 237.11,-210.24 240.27,-216.48"/>
<path fill="none" stroke="black" d="M241.58,-752.06C166.33,-736.36 52,-712.5 52,-712.5 52,-712.5 37,-695.5 37,-695.5"/>
</g>
<!-- NASALib/topology -->
<g id="node17" class="node">
<title>NASALib/topology</title>
<polygon fill="#fcfcd7" stroke="black" points="574,-568.5 510,-568.5 510,-532.5 574,-532.5 574,-568.5"/>
<text text-anchor="middle" x="542" y="-545.45" font-family="Times,serif" font-size="14.00">topology</text>
</g>
<!-- NASALib/complex_integration&#45;&gt;NASALib/topology -->
<g id="edge10" class="edge">
<title>NASALib/complex_integration&#45;&gt;NASALib/topology</title>
<path fill="none" stroke="black" d="M370.52,-752.19C446.65,-736.49 563,-712.5 563,-712.5 563,-712.5 563,-676.5 563,-676.5 563,-676.5 552.89,-616.32 546.7,-579.47"/>
<polygon fill="black" stroke="black" points="550.03,-579.16 544.92,-569.88 543.13,-580.32 550.03,-579.16"/>
</g>
<!-- NASALib/extended_nnreal -->
<g id="node3" class="node">
<title>NASALib/extended_nnreal</title>
<polygon fill="#fcfcd7" stroke="black" points="411.62,-568.5 306.38,-568.5 306.38,-532.5 411.62,-532.5 411.62,-568.5"/>
<text text-anchor="middle" x="359" y="-545.45" font-family="Times,serif" font-size="14.00">extended_nnreal</text>
</g>
<!-- NASALib/extended_nnreal&#45;&gt;NASALib/analysis -->
<g id="edge11" class="edge">
<title>NASALib/extended_nnreal&#45;&gt;NASALib/analysis</title>
<path fill="none" stroke="black" d="M349,-405.5C349,-405.5 349,-383.16 349,-363.72"/>
<polygon fill="black" stroke="black" points="352.5,-363.8 349,-353.8 345.5,-363.8 352.5,-363.8"/>
</g>
<!-- NASALib/extended_nnreal&#45;&gt;NASALib/reals -->
<g id="edge12" class="edge">
<title>NASALib/extended_nnreal&#45;&gt;NASALib/reals</title>
<path fill="none" stroke="black" d="M349,-405.5C349,-405.5 339,-388.5 339,-388.5 339,-388.5 237,-335.5 237,-335.5"/>
<path fill="none" stroke="black" d="M343,-477.5C343,-477.5 349,-407.5 349,-407.5"/>
</g>
<!-- NASALib/series -->
<g id="node13" class="node">
<title>NASALib/series</title>
<polygon fill="#fcfcd7" stroke="black" points="330,-424.5 276,-424.5 276,-388.5 330,-388.5 330,-424.5"/>
<text text-anchor="middle" x="303" y="-401.45" font-family="Times,serif" font-size="14.00">series</text>
</g>
<!-- NASALib/extended_nnreal&#45;&gt;NASALib/series -->
<g id="edge13" class="edge">
<title>NASALib/extended_nnreal&#45;&gt;NASALib/series</title>
<path fill="none" stroke="black" d="M343,-477.5C343,-477.5 329.51,-453.89 318.2,-434.1"/>
<polygon fill="black" stroke="black" points="320.89,-432.75 312.89,-425.8 314.81,-436.22 320.89,-432.75"/>
<path fill="none" stroke="black" d="M355.04,-532.2C350.31,-511.47 343,-479.5 343,-479.5"/>
</g>
<!-- NASALib/sigma_set -->
<g id="node15" class="node">
<title>NASALib/sigma_set</title>
<polygon fill="#fcfcd7" stroke="black" points="432.38,-496.5 361.62,-496.5 361.62,-460.5 432.38,-460.5 432.38,-496.5"/>
<text text-anchor="middle" x="397" y="-473.45" font-family="Times,serif" font-size="14.00">sigma_set</text>
</g>
<!-- NASALib/extended_nnreal&#45;&gt;NASALib/sigma_set -->
<g id="edge14" class="edge">
<title>NASALib/extended_nnreal&#45;&gt;NASALib/sigma_set</title>
<path fill="none" stroke="black" d="M368.39,-532.2C372.67,-524.31 377.83,-514.8 382.59,-506.05"/>
<polygon fill="black" stroke="black" points="386.02,-508.06 387.71,-497.6 379.87,-504.72 386.02,-508.06"/>
</g>
<!-- NASALib/ints&#45;&gt;lib/finite_sets -->
<g id="edge15" class="edge">
<title>NASALib/ints&#45;&gt;lib/finite_sets</title>
<path fill="none" stroke="black" d="M310.19,-105.5C340.01,-92.35 388.35,-71.02 424.07,-55.26"/>
<polygon fill="black" stroke="black" points="425.05,-58.22 432.79,-50.98 422.22,-51.81 425.05,-58.22"/>
</g>
<!-- NASALib/lebesgue -->
<g id="node5" class="node">
<title>NASALib/lebesgue</title>
<polygon fill="#fcfcd7" stroke="black" points="478.62,-784.5 415.38,-784.5 415.38,-748.5 478.62,-748.5 478.62,-784.5"/>
<text text-anchor="middle" x="447" y="-761.45" font-family="Times,serif" font-size="14.00">lebesgue</text>
</g>
<!-- NASALib/lebesgue&#45;&gt;NASALib/analysis -->
<g id="edge16" class="edge">
<title>NASALib/lebesgue&#45;&gt;NASALib/analysis</title>
<path fill="none" stroke="black" d="M613,-621.5C613,-621.5 583,-532.5 583,-532.5 583,-532.5 446,-424.5 446,-424.5 446,-424.5 431,-407.5 431,-407.5"/>
</g>
<!-- NASALib/lebesgue&#45;&gt;NASALib/extended_nnreal -->
<g id="edge17" class="edge">
<title>NASALib/lebesgue&#45;&gt;NASALib/extended_nnreal</title>
<path fill="none" stroke="black" d="M367,-621.5C367,-621.5 364.45,-599.16 362.23,-579.72"/>
<polygon fill="black" stroke="black" points="365.59,-579.34 360.98,-569.8 358.64,-580.14 365.59,-579.34"/>
<path fill="none" stroke="black" d="M367,-693.5C367,-693.5 367,-623.5 367,-623.5"/>
</g>
<!-- NASALib/lebesgue&#45;&gt;NASALib/measure_integration -->
<g id="edge18" class="edge">
<title>NASALib/lebesgue&#45;&gt;NASALib/measure_integration</title>
<path fill="none" stroke="black" d="M457.63,-748.2C462.52,-740.23 468.44,-730.6 473.87,-721.76"/>
<polygon fill="black" stroke="black" points="477.24,-723.96 479.49,-713.6 471.28,-720.29 477.24,-723.96"/>
</g>
<!-- NASALib/lebesgue&#45;&gt;NASALib/metric_space -->
<g id="edge19" class="edge">
<title>NASALib/lebesgue&#45;&gt;NASALib/metric_space</title>
<path fill="none" stroke="black" d="M367,-693.5C367,-693.5 329.71,-667.4 300.67,-647.07"/>
<polygon fill="black" stroke="black" points="303.18,-643.85 292.98,-640.98 299.16,-649.59 303.18,-643.85"/>
<path fill="none" stroke="black" d="M425.72,-748.15C406.76,-732.69 382,-712.5 382,-712.5 382,-712.5 367,-695.5 367,-695.5"/>
</g>
<!-- NASALib/lebesgue&#45;&gt;NASALib/power -->
<g id="edge20" class="edge">
<title>NASALib/lebesgue&#45;&gt;NASALib/power</title>
<path fill="none" stroke="black" d="M57,-693.5C57,-693.5 57,-623.5 57,-623.5"/>
</g>
<!-- NASALib/lebesgue&#45;&gt;NASALib/reals -->
<g id="edge21" class="edge">
<title>NASALib/lebesgue&#45;&gt;NASALib/reals</title>
<path fill="none" stroke="black" d="M77,-333.5C77,-333.5 152.69,-300.38 199.96,-279.71"/>
<polygon fill="black" stroke="black" points="201.1,-282.59 208.86,-275.37 198.29,-276.18 201.1,-282.59"/>
<path fill="none" stroke="black" d="M57,-693.5C57,-693.5 37,-551.5 37,-551.5 37,-551.5 37,-551.5 37,-477.5 37,-477.5 77,-335.5 77,-335.5"/>
<path fill="none" stroke="black" d="M414.99,-757.5C397.35,-753.09 379,-748.5 379,-748.5 379,-748.5 57,-695.5 57,-695.5"/>
</g>
<!-- NASALib/sets_aux -->
<g id="node14" class="node">
<title>NASALib/sets_aux</title>
<polygon fill="#fcfcd7" stroke="black" points="614.25,-424.5 551.75,-424.5 551.75,-388.5 614.25,-388.5 614.25,-424.5"/>
<text text-anchor="middle" x="583" y="-401.45" font-family="Times,serif" font-size="14.00">sets_aux</text>
</g>
<!-- NASALib/lebesgue&#45;&gt;NASALib/sets_aux -->
<g id="edge22" class="edge">
<title>NASALib/lebesgue&#45;&gt;NASALib/sets_aux</title>
<path fill="none" stroke="black" d="M613,-621.5C613,-621.5 613,-551.5 613,-551.5"/>
</g>
<!-- NASALib/lebesgue&#45;&gt;NASALib/sigma_set -->
<g id="edge23" class="edge">
<title>NASALib/lebesgue&#45;&gt;NASALib/sigma_set</title>
<path fill="none" stroke="black" d="M437.5,-748.15C429.05,-732.69 418,-712.5 418,-712.5 418,-712.5 418,-676.5 418,-676.5 418,-676.5 421,-568.5 421,-568.5 421,-568.5 421,-532.5 421,-532.5 421,-532.5 415.19,-519.68 409.29,-506.65"/>
<polygon fill="black" stroke="black" points="412.17,-505.52 404.86,-497.85 405.8,-508.41 412.17,-505.52"/>
</g>
<!-- NASALib/lebesgue&#45;&gt;NASALib/structures -->
<g id="edge24" class="edge">
<title>NASALib/lebesgue&#45;&gt;NASALib/structures</title>
<path fill="none" stroke="black" d="M693,-549.5C693,-549.5 693,-407.5 693,-407.5 693,-407.5 693,-407.5 693,-333.5 693,-333.5 556,-244.5 556,-244.5 556,-244.5 405.52,-215.29 328.01,-200.24"/>
<polygon fill="black" stroke="black" points="329.06,-196.68 318.58,-198.21 327.73,-203.55 329.06,-196.68"/>
<path fill="none" stroke="black" d="M478.87,-753.61C520.73,-737.98 589,-712.5 589,-712.5 589,-712.5 693,-551.5 693,-551.5"/>
</g>
<!-- NASALib/lebesgue&#45;&gt;NASALib/topology -->
<g id="edge25" class="edge">
<title>NASALib/lebesgue&#45;&gt;NASALib/topology</title>
<path fill="none" stroke="black" d="M613,-621.5C613,-621.5 587.73,-596.59 567.34,-576.48"/>
<polygon fill="black" stroke="black" points="570.13,-574.33 560.55,-569.8 565.21,-579.32 570.13,-574.33"/>
<path fill="none" stroke="black" d="M479.05,-752.53C517.83,-736.84 578,-712.5 578,-712.5 578,-712.5 613,-623.5 613,-623.5"/>
</g>
<!-- NASALib/lnexp -->
<g id="node6" class="node">
<title>NASALib/lnexp</title>
<polygon fill="#fcfcd7" stroke="black" points="152,-496.5 98,-496.5 98,-460.5 152,-460.5 152,-496.5"/>
<text text-anchor="middle" x="125" y="-473.45" font-family="Times,serif" font-size="14.00">lnexp</text>
</g>
<!-- NASALib/lnexp&#45;&gt;NASALib/analysis -->
<g id="edge26" class="edge">
<title>NASALib/lnexp&#45;&gt;NASALib/analysis</title>
<path fill="none" stroke="black" d="M137.92,-460.34C157.39,-434.48 192,-388.5 192,-388.5 192,-388.5 262.19,-364.81 308.7,-349.1"/>
<polygon fill="black" stroke="black" points="309.74,-352.11 318.1,-345.59 307.51,-345.48 309.74,-352.11"/>
</g>
<!-- NASALib/lnexp&#45;&gt;NASALib/ints -->
<g id="edge27" class="edge">
<title>NASALib/lnexp&#45;&gt;NASALib/ints</title>
<path fill="none" stroke="black" d="M171,-189.5C171,-189.5 213.98,-162.64 246.69,-142.19"/>
<polygon fill="black" stroke="black" points="247.98,-144.89 254.6,-136.62 244.27,-138.96 247.98,-144.89"/>
<path fill="none" stroke="black" d="M57,-333.5C57,-333.5 171,-191.5 171,-191.5"/>
<path fill="none" stroke="black" d="M116.66,-460.09C98.5,-422.17 57,-335.5 57,-335.5"/>
</g>
<!-- NASALib/lnexp&#45;&gt;NASALib/reals -->
<g id="edge28" class="edge">
<title>NASALib/lnexp&#45;&gt;NASALib/reals</title>
<path fill="none" stroke="black" d="M132.13,-460.34C142.89,-434.48 162,-388.5 162,-388.5 162,-388.5 199.05,-326.76 221.07,-290.06"/>
<polygon fill="black" stroke="black" points="224.43,-292.26 226.57,-281.88 218.43,-288.65 224.43,-292.26"/>
</g>
<!-- NASALib/lnexp&#45;&gt;NASALib/series -->
<g id="edge29" class="edge">
<title>NASALib/lnexp&#45;&gt;NASALib/series</title>
<path fill="none" stroke="black" d="M152.42,-466.72C182.74,-454.79 231.74,-435.52 265.57,-422.22"/>
<polygon fill="black" stroke="black" points="266.52,-425.21 274.55,-418.3 263.96,-418.7 266.52,-425.21"/>
</g>
<!-- NASALib/measure_integration&#45;&gt;NASALib/extended_nnreal -->
<g id="edge30" class="edge">
<title>NASALib/measure_integration&#45;&gt;NASALib/extended_nnreal</title>
<path fill="none" stroke="black" d="M459.28,-676.02C422.85,-655.28 367,-623.5 367,-623.5"/>
</g>
<!-- NASALib/measure_integration&#45;&gt;NASALib/metric_space -->
<g id="edge31" class="edge">
<title>NASALib/measure_integration&#45;&gt;NASALib/metric_space</title>
<path fill="none" stroke="black" d="M434.3,-676.02C399.81,-665.19 355.73,-651.35 321.47,-640.6"/>
<polygon fill="black" stroke="black" points="322.76,-637.02 312.18,-637.37 320.67,-643.7 322.76,-637.02"/>
</g>
<!-- NASALib/measure_integration&#45;&gt;NASALib/orders -->
<g id="edge32" class="edge">
<title>NASALib/measure_integration&#45;&gt;NASALib/orders</title>
<path fill="none" stroke="black" d="M511.61,-676.15C530.86,-660.69 556,-640.5 556,-640.5 556,-640.5 618,-568.5 618,-568.5 618,-568.5 638,-424.5 638,-424.5 638,-424.5 638,-388.5 638,-388.5 638,-388.5 551.24,-323.56 502.79,-287.3"/>
<polygon fill="black" stroke="black" points="505.32,-284.07 495.22,-280.88 501.13,-289.68 505.32,-284.07"/>
</g>
<!-- NASALib/measure_integration&#45;&gt;NASALib/power -->
<g id="edge33" class="edge">
<title>NASALib/measure_integration&#45;&gt;NASALib/power</title>
<path fill="none" stroke="black" d="M426.11,-683.17C305.66,-663.7 57,-623.5 57,-623.5"/>
</g>
<!-- NASALib/measure_integration&#45;&gt;NASALib/reals -->
<g id="edge34" class="edge">
<title>NASALib/measure_integration&#45;&gt;NASALib/reals</title>
<path fill="none" stroke="black" d="M451,-549.5C451,-549.5 451,-407.5 451,-407.5"/>
</g>
<!-- NASALib/measure_integration&#45;&gt;NASALib/series -->
<g id="edge35" class="edge">
<title>NASALib/measure_integration&#45;&gt;NASALib/series</title>
<path fill="none" stroke="black" d="M448.09,-676.15C410.76,-660.69 362,-640.5 362,-640.5 362,-640.5 297,-568.5 297,-568.5 297,-568.5 297,-532.5 297,-532.5 297,-532.5 308,-496.5 308,-496.5 308,-496.5 308,-460.5 308,-460.5 308,-460.5 306.86,-448.42 305.67,-435.8"/>
<polygon fill="black" stroke="black" points="309.06,-435.48 304.64,-425.85 302.09,-436.14 309.06,-435.48"/>
</g>
<!-- NASALib/measure_integration&#45;&gt;NASALib/sets_aux -->
<g id="edge36" class="edge">
<title>NASALib/measure_integration&#45;&gt;NASALib/sets_aux</title>
<path fill="none" stroke="black" d="M613,-549.5C613,-549.5 597.64,-476.78 588.9,-435.42"/>
<polygon fill="black" stroke="black" points="592.17,-434.97 586.68,-425.91 585.32,-436.42 592.17,-434.97"/>
<path fill="none" stroke="black" d="M505.08,-676.09C537.93,-638.17 613,-551.5 613,-551.5"/>
</g>
<!-- NASALib/measure_integration&#45;&gt;NASALib/sigma_set -->
<g id="edge37" class="edge">
<title>NASALib/measure_integration&#45;&gt;NASALib/sigma_set</title>
<path fill="none" stroke="black" d="M490.25,-676.2C490.54,-655.47 491,-623.5 491,-623.5"/>
<path fill="none" stroke="black" d="M451,-549.5C451,-549.5 432.29,-525.24 416.89,-505.29"/>
<polygon fill="black" stroke="black" points="419.23,-503.58 410.35,-497.8 413.69,-507.86 419.23,-503.58"/>
<path fill="none" stroke="black" d="M491,-621.5C491,-621.5 451,-551.5 451,-551.5"/>
</g>
<!-- NASALib/measure_integration&#45;&gt;NASALib/structures -->
<g id="edge38" class="edge">
<title>NASALib/measure_integration&#45;&gt;NASALib/structures</title>
<path fill="none" stroke="black" d="M491,-621.5C491,-621.5 501,-532.5 501,-532.5 501,-532.5 539,-316.5 539,-316.5 539,-316.5 551,-263.5 551,-263.5"/>
<path fill="none" stroke="black" d="M551,-261.5C551,-261.5 507,-244.5 507,-244.5 507,-244.5 393.35,-217.61 327.95,-202.14"/>
<polygon fill="black" stroke="black" points="329.05,-198.56 318.51,-199.67 327.43,-205.37 329.05,-198.56"/>
</g>
<!-- NASALib/measure_integration&#45;&gt;NASALib/topology -->
<g id="edge39" class="edge">
<title>NASALib/measure_integration&#45;&gt;NASALib/topology</title>
<path fill="none" stroke="black" d="M491,-621.5C491,-621.5 508.51,-597.46 523.02,-577.56"/>
<polygon fill="black" stroke="black" points="526.33,-579.95 529.39,-569.8 520.68,-575.82 526.33,-579.95"/>
</g>
<!-- NASALib/measure_integration&#45;&gt;lib/finite_sets -->
<g id="edge40" class="edge">
<title>NASALib/measure_integration&#45;&gt;lib/finite_sets</title>
<path fill="none" stroke="black" d="M553.93,-677.81C617.62,-662.18 706,-640.5 706,-640.5 706,-640.5 722,-551.5 722,-551.5"/>
</g>
<!-- NASALib/metric_space&#45;&gt;NASALib/analysis -->
<g id="edge41" class="edge">
<title>NASALib/metric_space&#45;&gt;NASALib/analysis</title>
<path fill="none" stroke="black" d="M269.89,-604.34C274.25,-578.48 282,-532.5 282,-532.5 282,-532.5 303,-479.5 303,-479.5"/>
<path fill="none" stroke="black" d="M303,-477.5C303,-477.5 293,-460.5 293,-460.5 293,-460.5 267,-424.5 267,-424.5 267,-424.5 267,-388.5 267,-388.5 267,-388.5 290.91,-373.04 312.91,-358.82"/>
<polygon fill="black" stroke="black" points="314.65,-361.22 321.15,-352.85 310.85,-355.34 314.65,-361.22"/>
</g>
<!-- NASALib/metric_space&#45;&gt;NASALib/power -->
<g id="edge42" class="edge">
<title>NASALib/metric_space&#45;&gt;NASALib/power</title>
<path fill="none" stroke="black" d="M231.53,-604.02C210.4,-593.6 183.61,-580.39 162.18,-569.83"/>
<polygon fill="black" stroke="black" points="163.96,-566.31 153.45,-565.03 160.87,-572.59 163.96,-566.31"/>
</g>
<!-- NASALib/metric_space&#45;&gt;NASALib/reals -->
<g id="edge43" class="edge">
<title>NASALib/metric_space&#45;&gt;NASALib/reals</title>
<path fill="none" stroke="black" d="M239.5,-604.15C215,-588.69 183,-568.5 183,-568.5 183,-568.5 183,-532.5 183,-532.5 183,-532.5 221,-388.5 221,-388.5 221,-388.5 237,-335.5 237,-335.5"/>
<path fill="none" stroke="black" d="M237,-333.5C237,-333.5 237,-311.16 237,-291.72"/>
<polygon fill="black" stroke="black" points="240.5,-291.8 237,-281.8 233.5,-291.8 240.5,-291.8"/>
</g>
<!-- NASALib/metric_space&#45;&gt;NASALib/series -->
<g id="edge44" class="edge">
<title>NASALib/metric_space&#45;&gt;NASALib/series</title>
<path fill="none" stroke="black" d="M303,-477.5C303,-477.5 303,-455.16 303,-435.72"/>
<polygon fill="black" stroke="black" points="306.5,-435.8 303,-425.8 299.5,-435.8 306.5,-435.8"/>
</g>
<!-- NASALib/metric_space&#45;&gt;NASALib/sets_aux -->
<g id="edge45" class="edge">
<title>NASALib/metric_space&#45;&gt;NASALib/sets_aux</title>
<path fill="none" stroke="black" d="M311.13,-606.31C356.64,-590.65 421,-568.5 421,-568.5 421,-568.5 528,-460.5 528,-460.5 528,-460.5 542.92,-446.13 557.21,-432.35"/>
<polygon fill="black" stroke="black" points="559.22,-435.31 563.99,-425.85 554.36,-430.27 559.22,-435.31"/>
</g>
<!-- NASALib/metric_space&#45;&gt;NASALib/topology -->
<g id="edge46" class="edge">
<title>NASALib/metric_space&#45;&gt;NASALib/topology</title>
<path fill="none" stroke="black" d="M311.32,-610.26C372.67,-594.7 476,-568.5 476,-568.5 476,-568.5 486.6,-565.77 499.3,-562.5"/>
<polygon fill="black" stroke="black" points="499.96,-565.68 508.77,-559.8 498.22,-558.91 499.96,-565.68"/>
</g>
<!-- NASALib/vectors -->
<g id="node19" class="node">
<title>NASALib/vectors</title>
<polygon fill="#fcfcd7" stroke="black" points="246.5,-568.5 191.5,-568.5 191.5,-532.5 246.5,-532.5 246.5,-568.5"/>
<text text-anchor="middle" x="219" y="-545.45" font-family="Times,serif" font-size="14.00">vectors</text>
</g>
<!-- NASALib/metric_space&#45;&gt;NASALib/vectors -->
<g id="edge47" class="edge">
<title>NASALib/metric_space&#45;&gt;NASALib/vectors</title>
<path fill="none" stroke="black" d="M255.13,-604.2C249.61,-596.14 242.93,-586.39 236.82,-577.48"/>
<polygon fill="black" stroke="black" points="239.27,-575.87 230.73,-569.6 233.5,-579.83 239.27,-575.87"/>
</g>
<!-- NASALib/metric_space&#45;&gt;lib/finite_sets -->
<g id="edge48" class="edge">
<title>NASALib/metric_space&#45;&gt;lib/finite_sets</title>
<path fill="none" stroke="black" d="M722,-549.5C722,-549.5 722,-335.5 722,-335.5"/>
<path fill="none" stroke="black" d="M311.1,-616.08C420.95,-602.57 698,-568.5 698,-568.5 698,-568.5 722,-551.5 722,-551.5"/>
</g>
<!-- NASALib/orders&#45;&gt;NASALib/structures -->
<g id="edge49" class="edge">
<title>NASALib/orders&#45;&gt;NASALib/structures</title>
<path fill="none" stroke="black" d="M443.66,-251.32C413.35,-240.04 363.99,-221.66 327.97,-208.24"/>
<polygon fill="black" stroke="black" points="329.32,-204.64 318.73,-204.43 326.88,-211.2 329.32,-204.64"/>
</g>
<!-- NASALib/orders&#45;&gt;lib/finite_sets -->
<g id="edge50" class="edge">
<title>NASALib/orders&#45;&gt;lib/finite_sets</title>
<path fill="none" stroke="black" d="M722,-189.5C722,-189.5 722,-119.5 722,-119.5"/>
<path fill="none" stroke="black" d="M498.42,-255.32C560.41,-241.34 706,-208.5 706,-208.5 706,-208.5 722,-191.5 722,-191.5"/>
</g>
<!-- NASALib/power&#45;&gt;NASALib/analysis -->
<g id="edge51" class="edge">
<title>NASALib/power&#45;&gt;NASALib/analysis</title>
<path fill="none" stroke="black" d="M136.79,-532.15C147.29,-516.69 161,-496.5 161,-496.5 161,-496.5 232,-388.5 232,-388.5 232,-388.5 275.24,-368.91 309.15,-353.55"/>
<polygon fill="black" stroke="black" points="310.2,-356.46 317.87,-349.15 307.32,-350.09 310.2,-356.46"/>
</g>
<!-- NASALib/power&#45;&gt;NASALib/lnexp -->
<g id="edge52" class="edge">
<title>NASALib/power&#45;&gt;NASALib/lnexp</title>
<path fill="none" stroke="black" d="M125,-532.2C125,-524.74 125,-515.82 125,-507.47"/>
<polygon fill="black" stroke="black" points="128.5,-507.6 125,-497.6 121.5,-507.6 128.5,-507.6"/>
</g>
<!-- NASALib/power&#45;&gt;NASALib/reals -->
<g id="edge53" class="edge">
<title>NASALib/power&#45;&gt;NASALib/reals</title>
<path fill="none" stroke="black" d="M108.3,-532.15C93.43,-516.69 74,-496.5 74,-496.5 74,-496.5 74,-460.5 74,-460.5 74,-460.5 77,-335.5 77,-335.5"/>
</g>
<!-- NASALib/probability -->
<g id="node11" class="node">
<title>NASALib/probability</title>
<polygon fill="#fcfcd7" stroke="black" points="650.62,-784.5 575.38,-784.5 575.38,-748.5 650.62,-748.5 650.62,-784.5"/>
<text text-anchor="middle" x="613" y="-761.45" font-family="Times,serif" font-size="14.00">probability</text>
</g>
<!-- NASALib/probability&#45;&gt;NASALib/analysis -->
<g id="edge54" class="edge">
<title>NASALib/probability&#45;&gt;NASALib/analysis</title>
<path fill="none" stroke="black" d="M693,-621.5C693,-621.5 668,-568.5 668,-568.5 668,-568.5 623,-388.5 623,-388.5 623,-388.5 466.1,-358.15 389.76,-343.38"/>
<polygon fill="black" stroke="black" points="390.59,-339.79 380.11,-341.32 389.26,-346.66 390.59,-339.79"/>
<path fill="none" stroke="black" d="M634.28,-748.15C653.24,-732.69 678,-712.5 678,-712.5 678,-712.5 693,-623.5 693,-623.5"/>
</g>
<!-- NASALib/probability&#45;&gt;NASALib/measure_integration -->
<g id="edge55" class="edge">
<title>NASALib/probability&#45;&gt;NASALib/measure_integration</title>
<path fill="none" stroke="black" d="M582.28,-748.02C566.31,-738.93 546.61,-727.72 529.52,-717.99"/>
<polygon fill="black" stroke="black" points="531.75,-714.66 521.33,-712.76 528.29,-720.75 531.75,-714.66"/>
</g>
<!-- NASALib/probability&#45;&gt;NASALib/metric_space -->
<g id="edge56" class="edge">
<title>NASALib/probability&#45;&gt;NASALib/metric_space</title>
<path fill="none" stroke="black" d="M574.94,-755.16C518.19,-739.73 418,-712.5 418,-712.5 418,-712.5 372,-676.5 372,-676.5 372,-676.5 339.72,-660.2 310.95,-645.68"/>
<polygon fill="black" stroke="black" points="312.89,-642.24 302.38,-640.85 309.73,-648.48 312.89,-642.24"/>
</g>
<!-- NASALib/probability&#45;&gt;NASALib/reals -->
<g id="edge57" class="edge">
<title>NASALib/probability&#45;&gt;NASALib/reals</title>
<path fill="none" stroke="black" d="M693,-621.5C693,-621.5 632,-388.5 632,-388.5 632,-388.5 423,-316.5 423,-316.5 423,-316.5 278,-280.5 278,-280.5 278,-280.5 276.44,-279.85 273.92,-278.81"/>
<polygon fill="black" stroke="black" points="275.7,-275.34 265.12,-274.74 273.02,-281.81 275.7,-275.34"/>
</g>
<!-- NASALib/probability&#45;&gt;NASALib/structures -->
<g id="edge58" class="edge">
<title>NASALib/probability&#45;&gt;NASALib/structures</title>
<path fill="none" stroke="black" d="M693,-621.5C693,-621.5 693,-551.5 693,-551.5"/>
</g>
<!-- NASALib/probability&#45;&gt;NASALib/topology -->
<g id="edge59" class="edge">
<title>NASALib/probability&#45;&gt;NASALib/topology</title>
<path fill="none" stroke="black" d="M614.64,-748.15C616.1,-732.69 618,-712.5 618,-712.5 618,-712.5 618,-604.5 618,-604.5 618,-604.5 596.03,-589.18 575.72,-575.01"/>
<polygon fill="black" stroke="black" points="578.09,-571.7 567.89,-568.85 574.09,-577.45 578.09,-571.7"/>
</g>
<!-- NASALib/reals&#45;&gt;NASALib/ints -->
<g id="edge60" class="edge">
<title>NASALib/reals&#45;&gt;NASALib/ints</title>
<path fill="none" stroke="black" d="M220.69,-244.2C201.14,-223.47 171,-191.5 171,-191.5"/>
</g>
<!-- NASALib/reals&#45;&gt;NASALib/structures -->
<g id="edge61" class="edge">
<title>NASALib/reals&#45;&gt;NASALib/structures</title>
<path fill="none" stroke="black" d="M248.37,-244.2C253.61,-236.23 259.93,-226.6 265.74,-217.76"/>
<polygon fill="black" stroke="black" points="269.19,-219.88 271.76,-209.6 263.34,-216.04 269.19,-219.88"/>
</g>
<!-- NASALib/series&#45;&gt;NASALib/analysis -->
<g id="edge62" class="edge">
<title>NASALib/series&#45;&gt;NASALib/analysis</title>
<path fill="none" stroke="black" d="M314.37,-388.2C319.61,-380.23 325.93,-370.6 331.74,-361.76"/>
<polygon fill="black" stroke="black" points="335.19,-363.88 337.76,-353.6 329.34,-360.04 335.19,-363.88"/>
</g>
<!-- NASALib/series&#45;&gt;NASALib/ints -->
<g id="edge63" class="edge">
<title>NASALib/series&#45;&gt;NASALib/ints</title>
<path fill="none" stroke="black" d="M279.75,-388.15C259.05,-372.69 232,-352.5 232,-352.5 232,-352.5 201,-280.5 201,-280.5 201,-280.5 171,-191.5 171,-191.5"/>
</g>
<!-- NASALib/series&#45;&gt;NASALib/orders -->
<g id="edge64" class="edge">
<title>NASALib/series&#45;&gt;NASALib/orders</title>
<path fill="none" stroke="black" d="M330.36,-388.44C355.21,-372.95 388,-352.5 388,-352.5 388,-352.5 423.22,-314.74 447.77,-288.41"/>
<polygon fill="black" stroke="black" points="449.74,-291.36 454,-281.66 444.62,-286.59 449.74,-291.36"/>
</g>
<!-- NASALib/series&#45;&gt;NASALib/reals -->
<g id="edge65" class="edge">
<title>NASALib/series&#45;&gt;NASALib/reals</title>
<path fill="none" stroke="black" d="M286.69,-388.2C267.14,-367.47 237,-335.5 237,-335.5"/>
</g>
<!-- NASALib/sets_aux&#45;&gt;NASALib/ints -->
<g id="edge66" class="edge">
<title>NASALib/sets_aux&#45;&gt;NASALib/ints</title>
<path fill="none" stroke="black" d="M580.88,-388.34C577.68,-362.48 572,-316.5 572,-316.5 572,-316.5 556,-244.5 556,-244.5 556,-244.5 395.14,-170.85 320.38,-136.61"/>
<polygon fill="black" stroke="black" points="321.98,-133.04 311.43,-132.06 319.06,-139.4 321.98,-133.04"/>
</g>
<!-- NASALib/sets_aux&#45;&gt;NASALib/orders -->
<g id="edge67" class="edge">
<title>NASALib/sets_aux&#45;&gt;NASALib/orders</title>
<path fill="none" stroke="black" d="M569.27,-388.09C549.68,-363.26 513.6,-317.51 491.03,-288.9"/>
<polygon fill="black" stroke="black" points="493.44,-287.3 484.5,-281.61 487.94,-291.63 493.44,-287.3"/>
</g>
<!-- NASALib/sets_aux&#45;&gt;NASALib/structures -->
<g id="edge68" class="edge">
<title>NASALib/sets_aux&#45;&gt;NASALib/structures</title>
<path fill="none" stroke="black" d="M579.08,-388.09C570.53,-350.17 551,-263.5 551,-263.5"/>
</g>
<!-- NASALib/sets_aux&#45;&gt;lib/finite_sets -->
<g id="edge69" class="edge">
<title>NASALib/sets_aux&#45;&gt;lib/finite_sets</title>
<path fill="none" stroke="black" d="M722,-333.5C722,-333.5 722,-263.5 722,-263.5"/>
<path fill="none" stroke="black" d="M614.68,-391.85C651.12,-376.15 706,-352.5 706,-352.5 706,-352.5 722,-335.5 722,-335.5"/>
</g>
<!-- NASALib/sigma_set&#45;&gt;NASALib/analysis -->
<g id="edge70" class="edge">
<title>NASALib/sigma_set&#45;&gt;NASALib/analysis</title>
<path fill="none" stroke="black" d="M431,-405.5C431,-405.5 401.03,-379.92 377.33,-359.69"/>
<polygon fill="black" stroke="black" points="380.15,-356.63 370.27,-352.8 375.6,-361.96 380.15,-356.63"/>
<path fill="none" stroke="black" d="M405.4,-460.2C415.47,-439.47 431,-407.5 431,-407.5"/>
</g>
<!-- NASALib/sigma_set&#45;&gt;NASALib/orders -->
<g id="edge71" class="edge">
<title>NASALib/sigma_set&#45;&gt;NASALib/orders</title>
<path fill="none" stroke="black" d="M416.32,-460.15C433.53,-444.69 456,-424.5 456,-424.5 456,-424.5 464.09,-337.61 468.39,-291.5"/>
<polygon fill="black" stroke="black" points="471.95,-292.01 469.39,-281.73 464.98,-291.36 471.95,-292.01"/>
</g>
<!-- NASALib/sigma_set&#45;&gt;NASALib/reals -->
<g id="edge72" class="edge">
<title>NASALib/sigma_set&#45;&gt;NASALib/reals</title>
<path fill="none" stroke="black" d="M451,-405.5C451,-405.5 388,-316.5 388,-316.5 388,-316.5 278,-280.5 278,-280.5 278,-280.5 276.44,-279.85 273.92,-278.81"/>
<polygon fill="black" stroke="black" points="275.7,-275.34 265.12,-274.74 273.02,-281.81 275.7,-275.34"/>
<path fill="none" stroke="black" d="M410.35,-460.2C426.34,-439.47 451,-407.5 451,-407.5"/>
</g>
<!-- NASALib/sigma_set&#45;&gt;NASALib/series -->
<g id="edge73" class="edge">
<title>NASALib/sigma_set&#45;&gt;NASALib/series</title>
<path fill="none" stroke="black" d="M373.76,-460.2C362.01,-451.45 347.57,-440.69 334.81,-431.19"/>
<polygon fill="black" stroke="black" points="337.41,-428.01 327.29,-424.85 333.22,-433.63 337.41,-428.01"/>
</g>
<!-- NASALib/sigma_set&#45;&gt;NASALib/sets_aux -->
<g id="edge74" class="edge">
<title>NASALib/sigma_set&#45;&gt;NASALib/sets_aux</title>
<path fill="none" stroke="black" d="M432.86,-464C463.82,-452.35 508.57,-435.51 541.16,-423.25"/>
<polygon fill="black" stroke="black" points="542.15,-426.24 550.28,-419.44 539.68,-419.69 542.15,-426.24"/>
</g>
<!-- NASALib/structures&#45;&gt;NASALib/ints -->
<g id="edge75" class="edge">
<title>NASALib/structures&#45;&gt;NASALib/ints</title>
<path fill="none" stroke="black" d="M283,-172.2C283,-164.74 283,-155.82 283,-147.47"/>
<polygon fill="black" stroke="black" points="286.5,-147.6 283,-137.6 279.5,-147.6 286.5,-147.6"/>
</g>
<!-- NASALib/structures&#45;&gt;lib/finite_sets -->
<g id="edge76" class="edge">
<title>NASALib/structures&#45;&gt;lib/finite_sets</title>
<path fill="none" stroke="black" d="M722,-117.5C722,-117.5 589.17,-74.01 516.39,-50.19"/>
<polygon fill="black" stroke="black" points="517.7,-46.61 507.11,-46.82 515.52,-53.26 517.7,-46.61"/>
<path fill="none" stroke="black" d="M317.45,-184.01C420.94,-167.51 722,-119.5 722,-119.5"/>
</g>
<!-- NASALib/topology&#45;&gt;NASALib/reals -->
<g id="edge77" class="edge">
<title>NASALib/topology&#45;&gt;NASALib/reals</title>
<path fill="none" stroke="black" d="M533,-477.5C533,-477.5 405,-316.5 405,-316.5 405,-316.5 278,-280.5 278,-280.5 278,-280.5 276.44,-279.85 273.92,-278.81"/>
<polygon fill="black" stroke="black" points="275.7,-275.34 265.12,-274.74 273.02,-281.81 275.7,-275.34"/>
<path fill="none" stroke="black" d="M539.78,-532.2C537.11,-511.47 533,-479.5 533,-479.5"/>
</g>
<!-- NASALib/topology&#45;&gt;NASALib/sets_aux -->
<g id="edge78" class="edge">
<title>NASALib/topology&#45;&gt;NASALib/sets_aux</title>
<path fill="none" stroke="black" d="M533,-477.5C533,-477.5 550.17,-453.46 564.39,-433.56"/>
<polygon fill="black" stroke="black" points="567.68,-435.98 570.64,-425.8 561.98,-431.91 567.68,-435.98"/>
</g>
<!-- NASALib/topology&#45;&gt;NASALib/structures -->
<g id="edge79" class="edge">
<title>NASALib/topology&#45;&gt;NASALib/structures</title>
<path fill="none" stroke="black" d="M533,-477.5C533,-477.5 551,-263.5 551,-263.5"/>
</g>
<!-- NASALib/trig -->
<g id="node18" class="node">
<title>NASALib/trig</title>
<polygon fill="#fcfcd7" stroke="black" points="284,-496.5 230,-496.5 230,-460.5 284,-460.5 284,-496.5"/>
<text text-anchor="middle" x="257" y="-473.45" font-family="Times,serif" font-size="14.00">trig</text>
</g>
<!-- NASALib/trig&#45;&gt;NASALib/analysis -->
<g id="edge80" class="edge">
<title>NASALib/trig&#45;&gt;NASALib/analysis</title>
<path fill="none" stroke="black" d="M237,-405.5C237,-405.5 252,-388.5 252,-388.5 252,-388.5 282.43,-371.87 309.21,-357.24"/>
<polygon fill="black" stroke="black" points="310.74,-359.85 317.84,-351.98 307.39,-353.7 310.74,-359.85"/>
</g>
<!-- NASALib/trig&#45;&gt;NASALib/ints -->
<g id="edge81" class="edge">
<title>NASALib/trig&#45;&gt;NASALib/ints</title>
<path fill="none" stroke="black" d="M231.28,-460.12C180.44,-425.77 72,-352.5 72,-352.5 72,-352.5 57,-335.5 57,-335.5"/>
</g>
<!-- NASALib/trig&#45;&gt;NASALib/reals -->
<g id="edge82" class="edge">
<title>NASALib/trig&#45;&gt;NASALib/reals</title>
<path fill="none" stroke="black" d="M252.06,-460.2C246.13,-439.47 237,-407.5 237,-407.5"/>
<path fill="none" stroke="black" d="M237,-405.5C237,-405.5 237,-335.5 237,-335.5"/>
</g>
<!-- NASALib/trig&#45;&gt;NASALib/series -->
<g id="edge83" class="edge">
<title>NASALib/trig&#45;&gt;NASALib/series</title>
<path fill="none" stroke="black" d="M268.37,-460.2C273.61,-452.23 279.93,-442.6 285.74,-433.76"/>
<polygon fill="black" stroke="black" points="289.19,-435.88 291.76,-425.6 283.34,-432.04 289.19,-435.88"/>
</g>
<!-- NASALib/vectors&#45;&gt;NASALib/reals -->
<g id="edge84" class="edge">
<title>NASALib/vectors&#45;&gt;NASALib/reals</title>
<path fill="none" stroke="black" d="M219.39,-532.34C219.97,-506.48 221,-460.5 221,-460.5 221,-460.5 237,-335.5 237,-335.5"/>
</g>
<!-- NASALib/vectors&#45;&gt;NASALib/structures -->
<g id="edge85" class="edge">
<title>NASALib/vectors&#45;&gt;NASALib/structures</title>
<path fill="none" stroke="black" d="M191.11,-538.13C152.91,-522.56 89,-496.5 89,-496.5 89,-496.5 89,-460.5 89,-460.5 89,-460.5 201,-244.5 201,-244.5 201,-244.5 224.91,-229.04 246.91,-214.82"/>
<polygon fill="black" stroke="black" points="248.65,-217.22 255.15,-208.85 244.85,-211.34 248.65,-217.22"/>
</g>
<!-- NASALib/vectors&#45;&gt;NASALib/trig -->
<g id="edge86" class="edge">
<title>NASALib/vectors&#45;&gt;NASALib/trig</title>
<path fill="none" stroke="black" d="M228.39,-532.2C232.67,-524.31 237.83,-514.8 242.59,-506.05"/>
<polygon fill="black" stroke="black" points="246.02,-508.06 247.71,-497.6 239.87,-504.72 246.02,-508.06"/>
</g>
</g>
</svg>
