<?xml version="1.0" encoding="UTF-8" standalone="no"?>
<!DOCTYPE svg PUBLIC "-//W3C//DTD SVG 1.1//EN"
 "http://www.w3.org/Graphics/SVG/1.1/DTD/svg11.dtd">
<!-- Generated by graphviz version 8.0.4 (20230421.1958)
 -->
<!-- Title: matrices&#45;generic_matrices Pages: 1 -->
<svg width="208pt" height="257pt"
 viewBox="0.00 0.00 208.00 257.00" xmlns="http://www.w3.org/2000/svg" xmlns:xlink="http://www.w3.org/1999/xlink">
<g id="graph0" class="graph" transform="scale(1 1) rotate(0) translate(4 253)">
<title>matrices&#45;generic_matrices</title>
<polygon fill="white" stroke="none" points="-4,4 -4,-253 204,-253 204,4 -4,4"/>
<g id="clust1" class="cluster">
<title>cluster_NASALib</title>
<polygon fill="none" stroke="black" points="58,-8 58,-84.5 142,-84.5 142,-8 58,-8"/>
<text text-anchor="middle" x="100" y="-67.2" font-family="Times,serif" font-size="14.00">NASALib</text>
</g>
<g id="clust2" class="cluster">
<title>cluster_matrices</title>
<polygon fill="none" stroke="black" points="8,-92.5 8,-241 192,-241 192,-92.5 8,-92.5"/>
<text text-anchor="middle" x="100" y="-223.7" font-family="Times,serif" font-size="14.00">matrices</text>
</g>
<!-- NASALib/structures -->
<g id="node1" class="node">
<title>NASALib/structures</title>
<polygon fill="#fcfcd7" stroke="black" points="134.25,-52 65.75,-52 65.75,-16 134.25,-16 134.25,-52"/>
<text text-anchor="middle" x="100" y="-28.95" font-family="Times,serif" font-size="14.00">structures</text>
</g>
<!-- matrices/generic_matrices -->
<g id="node2" class="node">
<title>matrices/generic_matrices</title>
<polygon fill="#f7e28d" stroke="black" points="154.5,-136.5 45.5,-136.5 45.5,-100.5 154.5,-100.5 154.5,-136.5"/>
<text text-anchor="middle" x="100" y="-113.45" font-family="Times,serif" font-size="14.00">generic_matrices</text>
</g>
<!-- matrices/generic_matrices&#45;&gt;NASALib/structures -->
<g id="edge1" class="edge">
<title>matrices/generic_matrices&#45;&gt;NASALib/structures</title>
<path fill="none" stroke="black" d="M100,-100C100,-89.39 100,-75.6 100,-63.46"/>
<polygon fill="black" stroke="black" points="103.5,-63.47 100,-53.47 96.5,-63.47 103.5,-63.47"/>
</g>
<!-- matrices/generic_matrices_examples -->
<g id="node3" class="node">
<title>matrices/generic_matrices_examples</title>
<polygon fill="#fcfcd7" stroke="black" points="183.75,-208.5 16.25,-208.5 16.25,-172.5 183.75,-172.5 183.75,-208.5"/>
<text text-anchor="middle" x="100" y="-185.45" font-family="Times,serif" font-size="14.00">generic_matrices_examples</text>
</g>
<!-- matrices/generic_matrices_examples&#45;&gt;matrices/generic_matrices -->
<g id="edge2" class="edge">
<title>matrices/generic_matrices_examples&#45;&gt;matrices/generic_matrices</title>
<path fill="none" stroke="black" d="M100,-172.2C100,-164.74 100,-155.82 100,-147.47"/>
<polygon fill="black" stroke="black" points="103.5,-147.6 100,-137.6 96.5,-147.6 103.5,-147.6"/>
</g>
</g>
</svg>
