<?xml version="1.0" encoding="UTF-8" standalone="no"?>
<!DOCTYPE svg PUBLIC "-//W3C//DTD SVG 1.1//EN"
 "http://www.w3.org/Graphics/SVG/1.1/DTD/svg11.dtd">
<!-- Generated by graphviz version 8.0.4 (20230421.1958)
 -->
<!-- Title: scott&#45;zoomed Pages: 1 -->
<svg width="880pt" height="473pt"
 viewBox="0.00 0.00 880.00 473.00" xmlns="http://www.w3.org/2000/svg" xmlns:xlink="http://www.w3.org/1999/xlink">
<g id="graph0" class="graph" transform="scale(1 1) rotate(0) translate(4 469)">
<title>scott&#45;zoomed</title>
<polygon fill="white" stroke="none" points="-4,4 -4,-469 876,-469 876,4 -4,4"/>
<g id="clust1" class="cluster">
<title>cluster_NASALib</title>
<polygon fill="none" stroke="black" points="256,-8 256,-84.5 568,-84.5 568,-8 256,-8"/>
<text text-anchor="middle" x="412" y="-67.2" font-family="Times,serif" font-size="14.00">NASALib</text>
</g>
<g id="clust2" class="cluster">
<title>cluster_NASALib/scott</title>
<polygon fill="none" stroke="black" points="8,-92.5 8,-457 852,-457 852,-92.5 8,-92.5"/>
<text text-anchor="middle" x="430" y="-439.7" font-family="Times,serif" font-size="14.00">NASALib/scott</text>
</g>
<!-- NASALib/algebra -->
<g id="node1" class="node">
<title>NASALib/algebra</title>
<polygon fill="#fcfcd7" stroke="black" points="405.88,-52 350.12,-52 350.12,-16 405.88,-16 405.88,-52"/>
<text text-anchor="middle" x="378" y="-28.95" font-family="Times,serif" font-size="14.00">algebra</text>
</g>
<!-- NASALib/orders -->
<g id="node2" class="node">
<title>NASALib/orders</title>
<polygon fill="#fcfcd7" stroke="black" points="560,-52 506,-52 506,-16 560,-16 560,-52"/>
<text text-anchor="middle" x="533" y="-28.95" font-family="Times,serif" font-size="14.00">orders</text>
</g>
<!-- NASALib/scott@admissible -->
<g id="node3" class="node">
<title>NASALib/scott@admissible</title>
<ellipse fill="#e6f3ff" stroke="black" cx="87" cy="-334.5" rx="50.84" ry="18"/>
<text text-anchor="middle" x="87" y="-329.45" font-family="Times,serif" font-size="14.00">admissible</text>
</g>
<!-- NASALib/scott@admissible&#45;&gt;NASALib/orders -->
<g id="edge1" class="edge">
<title>NASALib/scott@admissible&#45;&gt;NASALib/orders</title>
<path fill="none" stroke="black" d="M127.06,-323.02C140.43,-319.53 152,-316.5 152,-316.5 152,-316.5 856,-280.5 856,-280.5 856,-280.5 872,-263.5 872,-263.5"/>
<path fill="none" stroke="black" d="M872,-261.5C872,-261.5 856,-244.5 856,-244.5 856,-244.5 741,-191.5 741,-191.5"/>
</g>
<!-- NASALib/scott@fixpoints -->
<g id="node5" class="node">
<title>NASALib/scott@fixpoints</title>
<ellipse fill="#e6f3ff" stroke="black" cx="87" cy="-262.5" rx="43.67" ry="18"/>
<text text-anchor="middle" x="87" y="-257.45" font-family="Times,serif" font-size="14.00">fixpoints</text>
</g>
<!-- NASALib/scott@admissible&#45;&gt;NASALib/scott@fixpoints -->
<g id="edge2" class="edge">
<title>NASALib/scott@admissible&#45;&gt;NASALib/scott@fixpoints</title>
<path fill="none" stroke="black" d="M87,-316.2C87,-308.74 87,-299.82 87,-291.47"/>
<polygon fill="black" stroke="black" points="90.5,-291.6 87,-281.6 83.5,-291.6 90.5,-291.6"/>
</g>
<!-- NASALib/scott@scott -->
<g id="node9" class="node">
<title>NASALib/scott@scott</title>
<ellipse fill="#e6f3ff" stroke="black" cx="104" cy="-118.5" rx="28.32" ry="18"/>
<text text-anchor="middle" x="104" y="-113.45" font-family="Times,serif" font-size="14.00">scott</text>
</g>
<!-- NASALib/scott@admissible&#45;&gt;NASALib/scott@scott -->
<g id="edge3" class="edge">
<title>NASALib/scott@admissible&#45;&gt;NASALib/scott@scott</title>
<path fill="none" stroke="black" d="M70.52,-317.02C54.96,-301.46 34,-280.5 34,-280.5 34,-280.5 24,-191.5 24,-191.5"/>
<path fill="none" stroke="black" d="M24,-189.5C24,-189.5 34,-172.5 34,-172.5 34,-172.5 57.76,-154.51 77.6,-139.49"/>
<polygon fill="black" stroke="black" points="79.48,-141.7 85.34,-132.87 75.25,-136.12 79.48,-141.7"/>
</g>
<!-- NASALib/scott@scott_continuity -->
<g id="node11" class="node">
<title>NASALib/scott@scott_continuity</title>
<ellipse fill="#e6f3ff" stroke="black" cx="273" cy="-190.5" rx="70.29" ry="18"/>
<text text-anchor="middle" x="273" y="-185.45" font-family="Times,serif" font-size="14.00">scott_continuity</text>
</g>
<!-- NASALib/scott@admissible&#45;&gt;NASALib/scott@scott_continuity -->
<g id="edge4" class="edge">
<title>NASALib/scott@admissible&#45;&gt;NASALib/scott@scott_continuity</title>
<path fill="none" stroke="black" d="M157,-261.5C157,-261.5 167,-244.5 167,-244.5 167,-244.5 202.64,-226.68 232.58,-211.71"/>
<polygon fill="black" stroke="black" points="233.68,-214.57 241.06,-206.97 230.55,-208.31 233.68,-214.57"/>
<path fill="none" stroke="black" d="M103.24,-317.26C123.91,-296.59 157,-263.5 157,-263.5"/>
</g>
<!-- NASALib/scott@dual_fixpoints -->
<g id="node4" class="node">
<title>NASALib/scott@dual_fixpoints</title>
<ellipse fill="#e6f3ff" stroke="black" cx="87" cy="-406.5" rx="64.15" ry="18"/>
<text text-anchor="middle" x="87" y="-401.45" font-family="Times,serif" font-size="14.00">dual_fixpoints</text>
</g>
<!-- NASALib/scott@dual_fixpoints&#45;&gt;NASALib/orders -->
<g id="edge5" class="edge">
<title>NASALib/scott@dual_fixpoints&#45;&gt;NASALib/orders</title>
<path fill="none" stroke="black" d="M157,-333.5C157,-333.5 856,-280.5 856,-280.5 856,-280.5 872,-263.5 872,-263.5"/>
</g>
<!-- NASALib/scott@dual_fixpoints&#45;&gt;NASALib/scott@admissible -->
<g id="edge6" class="edge">
<title>NASALib/scott@dual_fixpoints&#45;&gt;NASALib/scott@admissible</title>
<path fill="none" stroke="black" d="M87,-388.2C87,-380.74 87,-371.82 87,-363.47"/>
<polygon fill="black" stroke="black" points="90.5,-363.6 87,-353.6 83.5,-363.6 90.5,-363.6"/>
</g>
<!-- NASALib/scott@dual_fixpoints&#45;&gt;NASALib/scott@fixpoints -->
<g id="edge7" class="edge">
<title>NASALib/scott@dual_fixpoints&#45;&gt;NASALib/scott@fixpoints</title>
<path fill="none" stroke="black" d="M68.34,-389.02C50.73,-373.46 27,-352.5 27,-352.5 27,-352.5 27,-316.5 27,-316.5 27,-316.5 44.86,-300.73 61.09,-286.39"/>
<polygon fill="black" stroke="black" points="63.14,-289.36 68.32,-280.12 58.51,-284.11 63.14,-289.36"/>
</g>
<!-- NASALib/scott@dual_fixpoints&#45;&gt;NASALib/scott@scott_continuity -->
<g id="edge8" class="edge">
<title>NASALib/scott@dual_fixpoints&#45;&gt;NASALib/scott@scott_continuity</title>
<path fill="none" stroke="black" d="M105.66,-389.02C123.27,-373.46 147,-352.5 147,-352.5 147,-352.5 157,-335.5 157,-335.5"/>
<path fill="none" stroke="black" d="M157,-333.5C157,-333.5 157,-263.5 157,-263.5"/>
</g>
<!-- NASALib/scott@fixpoints&#45;&gt;NASALib/algebra -->
<g id="edge9" class="edge">
<title>NASALib/scott@fixpoints&#45;&gt;NASALib/algebra</title>
<path fill="none" stroke="black" d="M125.13,-253.4C145.73,-249.02 167,-244.5 167,-244.5 167,-244.5 457,-191.5 457,-191.5"/>
<path fill="none" stroke="black" d="M457,-189.5C457,-189.5 414.46,-106.3 391.81,-62.01"/>
<polygon fill="black" stroke="black" points="394.58,-60.73 386.91,-53.42 388.35,-63.92 394.58,-60.73"/>
</g>
<!-- NASALib/scott@fixpoints&#45;&gt;NASALib/orders -->
<g id="edge10" class="edge">
<title>NASALib/scott@fixpoints&#45;&gt;NASALib/orders</title>
<path fill="none" stroke="black" d="M609,-117.5C609,-117.5 578.67,-84.58 556.33,-60.33"/>
<polygon fill="black" stroke="black" points="559.47,-58.48 550.12,-53.5 554.32,-63.22 559.47,-58.48"/>
<path fill="none" stroke="black" d="M457,-189.5C457,-189.5 609,-119.5 609,-119.5"/>
</g>
<!-- NASALib/scott@fun_preds_partial -->
<g id="node6" class="node">
<title>NASALib/scott@fun_preds_partial</title>
<ellipse fill="#e6f3ff" stroke="black" cx="249" cy="-118.5" rx="75.92" ry="18"/>
<text text-anchor="middle" x="249" y="-113.45" font-family="Times,serif" font-size="14.00">fun_preds_partial</text>
</g>
<!-- NASALib/scott@fixpoints&#45;&gt;NASALib/scott@fun_preds_partial -->
<g id="edge11" class="edge">
<title>NASALib/scott@fixpoints&#45;&gt;NASALib/scott@fun_preds_partial</title>
<path fill="none" stroke="black" d="M110.77,-247.02C136.53,-231.33 174,-208.5 174,-208.5 174,-208.5 194,-172.5 194,-172.5 194,-172.5 209.3,-157.76 223.75,-143.83"/>
<polygon fill="black" stroke="black" points="225.83,-146.73 230.6,-137.27 220.97,-141.69 225.83,-146.73"/>
</g>
<!-- NASALib/scott@fixpoints&#45;&gt;NASALib/scott@scott -->
<g id="edge12" class="edge">
<title>NASALib/scott@fixpoints&#45;&gt;NASALib/scott@scott</title>
<path fill="none" stroke="black" d="M70.81,-245.31C55.22,-229.72 34,-208.5 34,-208.5 34,-208.5 24,-191.5 24,-191.5"/>
</g>
<!-- NASALib/scott@fixpoints&#45;&gt;NASALib/scott@scott_continuity -->
<g id="edge13" class="edge">
<title>NASALib/scott@fixpoints&#45;&gt;NASALib/scott@scott_continuity</title>
<path fill="none" stroke="black" d="M118.55,-249.63C147.58,-238.7 191.05,-222.34 224.49,-209.76"/>
<polygon fill="black" stroke="black" points="225.39,-212.78 233.52,-205.98 222.93,-206.23 225.39,-212.78"/>
</g>
<!-- NASALib/scott@partial_function_props -->
<g id="node7" class="node">
<title>NASALib/scott@partial_function_props</title>
<ellipse fill="#e6f3ff" stroke="black" cx="749" cy="-406.5" rx="94.86" ry="18"/>
<text text-anchor="middle" x="749" y="-401.45" font-family="Times,serif" font-size="14.00">partial_function_props</text>
</g>
<!-- NASALib/scott@partial_function_props&#45;&gt;NASALib/orders -->
<g id="edge14" class="edge">
<title>NASALib/scott@partial_function_props&#45;&gt;NASALib/orders</title>
<path fill="none" stroke="black" d="M781.98,-389.17C813.42,-373.59 856,-352.5 856,-352.5 856,-352.5 872,-263.5 872,-263.5"/>
</g>
<!-- NASALib/scott@pointwise_orders_aux -->
<g id="node8" class="node">
<title>NASALib/scott@pointwise_orders_aux</title>
<ellipse fill="#e6f3ff" stroke="black" cx="268" cy="-262.5" rx="92.3" ry="18"/>
<text text-anchor="middle" x="268" y="-257.45" font-family="Times,serif" font-size="14.00">pointwise_orders_aux</text>
</g>
<!-- NASALib/scott@pointwise_orders_aux&#45;&gt;NASALib/orders -->
<g id="edge15" class="edge">
<title>NASALib/scott@pointwise_orders_aux&#45;&gt;NASALib/orders</title>
<path fill="none" stroke="black" d="M336.21,-250.02C354.35,-246.97 369,-244.5 369,-244.5 369,-244.5 595,-208.5 595,-208.5 595,-208.5 609,-119.5 609,-119.5"/>
</g>
<!-- NASALib/scott@pointwise_orders_aux&#45;&gt;NASALib/scott@scott_continuity -->
<g id="edge16" class="edge">
<title>NASALib/scott@pointwise_orders_aux&#45;&gt;NASALib/scott@scott_continuity</title>
<path fill="none" stroke="black" d="M269.24,-244.2C269.77,-236.74 270.41,-227.82 271,-219.47"/>
<polygon fill="black" stroke="black" points="274.56,-219.83 271.78,-209.6 267.57,-219.33 274.56,-219.83"/>
</g>
<!-- NASALib/scott@scott&#45;&gt;NASALib/orders -->
<g id="edge17" class="edge">
<title>NASALib/scott@scott&#45;&gt;NASALib/orders</title>
<path fill="none" stroke="black" d="M127.37,-107.76C144.22,-100.74 164,-92.5 164,-92.5 164,-92.5 497,-84.5 497,-84.5 497,-84.5 505.44,-72.9 514.14,-60.93"/>
<polygon fill="black" stroke="black" points="517.36,-63.46 520.41,-53.31 511.7,-59.34 517.36,-63.46"/>
</g>
<!-- NASALib/topology -->
<g id="node15" class="node">
<title>NASALib/topology</title>
<polygon fill="#fcfcd7" stroke="black" points="488,-52 424,-52 424,-16 488,-16 488,-52"/>
<text text-anchor="middle" x="456" y="-28.95" font-family="Times,serif" font-size="14.00">topology</text>
</g>
<!-- NASALib/scott@scott&#45;&gt;NASALib/topology -->
<g id="edge18" class="edge">
<title>NASALib/scott@scott&#45;&gt;NASALib/topology</title>
<path fill="none" stroke="black" d="M127.37,-107.76C144.22,-100.74 164,-92.5 164,-92.5 164,-92.5 415,-84.5 415,-84.5 415,-84.5 424.79,-72.67 434.81,-60.58"/>
<polygon fill="black" stroke="black" points="437.98,-63.25 441.66,-53.31 432.59,-58.78 437.98,-63.25"/>
</g>
<!-- NASALib/scott@scott_composition_continuity -->
<g id="node10" class="node">
<title>NASALib/scott@scott_composition_continuity</title>
<ellipse fill="#e6f3ff" stroke="black" cx="499" cy="-262.5" rx="120.96" ry="18"/>
<text text-anchor="middle" x="499" y="-257.45" font-family="Times,serif" font-size="14.00">scott_composition_continuity</text>
</g>
<!-- NASALib/scott@scott_composition_continuity&#45;&gt;NASALib/orders -->
<g id="edge19" class="edge">
<title>NASALib/scott@scott_composition_continuity&#45;&gt;NASALib/orders</title>
<path fill="none" stroke="black" d="M552.71,-245.96C624,-225.34 741,-191.5 741,-191.5"/>
<path fill="none" stroke="black" d="M741,-189.5C741,-189.5 727,-172.5 727,-172.5 727,-172.5 609,-119.5 609,-119.5"/>
</g>
<!-- NASALib/scott@scott_composition_continuity&#45;&gt;NASALib/scott@scott_continuity -->
<g id="edge20" class="edge">
<title>NASALib/scott@scott_composition_continuity&#45;&gt;NASALib/scott@scott_continuity</title>
<path fill="none" stroke="black" d="M448.28,-245.79C412.12,-234.59 363.58,-219.56 326.75,-208.15"/>
<polygon fill="black" stroke="black" points="328.28,-204.65 317.69,-205.03 326.21,-211.34 328.28,-204.65"/>
</g>
<!-- NASALib/scott@scott_composition_continuity&#45;&gt;NASALib/topology -->
<g id="edge21" class="edge">
<title>NASALib/scott@scott_composition_continuity&#45;&gt;NASALib/topology</title>
<path fill="none" stroke="black" d="M496.11,-244.05C488.96,-200.87 471,-92.5 471,-92.5 471,-92.5 467.06,-77.41 463.22,-62.68"/>
<polygon fill="black" stroke="black" points="466.41,-62.04 460.5,-53.25 459.64,-63.81 466.41,-62.04"/>
</g>
<!-- NASALib/scott@scott_continuity&#45;&gt;NASALib/orders -->
<g id="edge22" class="edge">
<title>NASALib/scott@scott_continuity&#45;&gt;NASALib/orders</title>
<path fill="none" stroke="black" d="M313.99,-175.57C360.21,-159.87 429,-136.5 429,-136.5 429,-136.5 497,-84.5 497,-84.5 497,-84.5 505.44,-72.9 514.14,-60.93"/>
<polygon fill="black" stroke="black" points="517.36,-63.46 520.41,-53.31 511.7,-59.34 517.36,-63.46"/>
</g>
<!-- NASALib/scott@scott_continuity&#45;&gt;NASALib/scott@fun_preds_partial -->
<g id="edge23" class="edge">
<title>NASALib/scott@scott_continuity&#45;&gt;NASALib/scott@fun_preds_partial</title>
<path fill="none" stroke="black" d="M267.07,-172.2C264.45,-164.57 261.31,-155.42 258.39,-146.9"/>
<polygon fill="black" stroke="black" points="261.42,-145.93 254.86,-137.6 254.8,-148.2 261.42,-145.93"/>
</g>
<!-- NASALib/scott@scott_continuity&#45;&gt;NASALib/scott@scott -->
<g id="edge24" class="edge">
<title>NASALib/scott@scott_continuity&#45;&gt;NASALib/scott@scott</title>
<path fill="none" stroke="black" d="M237.16,-174.65C207.65,-162.43 166.12,-145.23 137.32,-133.3"/>
<polygon fill="black" stroke="black" points="138.91,-129.76 128.33,-129.16 136.23,-136.22 138.91,-129.76"/>
</g>
<!-- NASALib/structures -->
<g id="node14" class="node">
<title>NASALib/structures</title>
<polygon fill="#fcfcd7" stroke="black" points="332.25,-52 263.75,-52 263.75,-16 332.25,-16 332.25,-52"/>
<text text-anchor="middle" x="298" y="-28.95" font-family="Times,serif" font-size="14.00">structures</text>
</g>
<!-- NASALib/scott@scott_continuity&#45;&gt;NASALib/structures -->
<g id="edge25" class="edge">
<title>NASALib/scott@scott_continuity&#45;&gt;NASALib/structures</title>
<path fill="none" stroke="black" d="M295.27,-173.26C323.62,-152.59 369,-119.5 369,-119.5"/>
<path fill="none" stroke="black" d="M369,-117.5C369,-117.5 340.91,-84.86 320.07,-60.64"/>
<polygon fill="black" stroke="black" points="322.23,-58.79 313.06,-53.5 316.93,-63.36 322.23,-58.79"/>
</g>
<!-- NASALib/scott@scott_continuity&#45;&gt;NASALib/topology -->
<g id="edge26" class="edge">
<title>NASALib/scott@scott_continuity&#45;&gt;NASALib/topology</title>
<path fill="none" stroke="black" d="M369,-117.5C369,-117.5 401,-92.5 401,-92.5 401,-92.5 415,-84.5 415,-84.5 415,-84.5 424.79,-72.67 434.81,-60.58"/>
<polygon fill="black" stroke="black" points="437.98,-63.25 441.66,-53.31 432.59,-58.78 437.98,-63.25"/>
</g>
<!-- NASALib/scott@scott_identity_continuity -->
<g id="node12" class="node">
<title>NASALib/scott@scott_identity_continuity</title>
<ellipse fill="#e6f3ff" stroke="black" cx="741" cy="-262.5" rx="103.04" ry="18"/>
<text text-anchor="middle" x="741" y="-257.45" font-family="Times,serif" font-size="14.00">scott_identity_continuity</text>
</g>
<!-- NASALib/scott@scott_identity_continuity&#45;&gt;NASALib/orders -->
<g id="edge27" class="edge">
<title>NASALib/scott@scott_identity_continuity&#45;&gt;NASALib/orders</title>
<path fill="none" stroke="black" d="M741,-244.2C741,-223.47 741,-191.5 741,-191.5"/>
</g>
<!-- NASALib/scott@scott_identity_continuity&#45;&gt;NASALib/scott@scott_continuity -->
<g id="edge28" class="edge">
<title>NASALib/scott@scott_identity_continuity&#45;&gt;NASALib/scott@scott_continuity</title>
<path fill="none" stroke="black" d="M665.05,-249.97C645.08,-246.94 629,-244.5 629,-244.5 629,-244.5 447.04,-217.41 343.3,-201.97"/>
<polygon fill="black" stroke="black" points="343.99,-198.38 333.59,-200.37 342.96,-205.31 343.99,-198.38"/>
</g>
<!-- NASALib/scott@scott_identity_continuity&#45;&gt;NASALib/topology -->
<g id="edge29" class="edge">
<title>NASALib/scott@scott_identity_continuity&#45;&gt;NASALib/topology</title>
<path fill="none" stroke="black" d="M717.6,-244.53C656.53,-200.23 497,-84.5 497,-84.5 497,-84.5 487.21,-72.67 477.19,-60.58"/>
<polygon fill="black" stroke="black" points="479.41,-58.78 470.34,-53.31 474.02,-63.25 479.41,-58.78"/>
</g>
<!-- NASALib/scott@scott_product -->
<g id="node13" class="node">
<title>NASALib/scott@scott_product</title>
<ellipse fill="#e6f3ff" stroke="black" cx="104" cy="-190.5" rx="61.08" ry="18"/>
<text text-anchor="middle" x="104" y="-185.45" font-family="Times,serif" font-size="14.00">scott_product</text>
</g>
<!-- NASALib/scott@scott_product&#45;&gt;NASALib/orders -->
<g id="edge30" class="edge">
<title>NASALib/scott@scott_product&#45;&gt;NASALib/orders</title>
<path fill="none" stroke="black" d="M151.1,-178.65C218.39,-163.14 334,-136.5 334,-136.5 334,-136.5 429,-92.5 429,-92.5 429,-92.5 497,-84.5 497,-84.5 497,-84.5 505.44,-72.9 514.14,-60.93"/>
<polygon fill="black" stroke="black" points="517.36,-63.46 520.41,-53.31 511.7,-59.34 517.36,-63.46"/>
</g>
<!-- NASALib/scott@scott_product&#45;&gt;NASALib/scott@scott -->
<g id="edge31" class="edge">
<title>NASALib/scott@scott_product&#45;&gt;NASALib/scott@scott</title>
<path fill="none" stroke="black" d="M104,-172.2C104,-164.74 104,-155.82 104,-147.47"/>
<polygon fill="black" stroke="black" points="107.5,-147.6 104,-137.6 100.5,-147.6 107.5,-147.6"/>
</g>
</g>
</svg>
