<?xml version="1.0" encoding="UTF-8" standalone="no"?>
<!DOCTYPE svg PUBLIC "-//W3C//DTD SVG 1.1//EN"
 "http://www.w3.org/Graphics/SVG/1.1/DTD/svg11.dtd">
<!-- Generated by graphviz version 8.1.0 (20230707.0739)
 -->
<!-- Title: scott Pages: 1 -->
<svg width="442pt" height="761pt"
 viewBox="0.00 0.00 442.00 761.00" xmlns="http://www.w3.org/2000/svg" xmlns:xlink="http://www.w3.org/1999/xlink">
<g id="graph0" class="graph" transform="scale(1 1) rotate(0) translate(4 757)">
<title>scott</title>
<polygon fill="white" stroke="none" points="-4,4 -4,-757 438,-757 438,4 -4,4"/>
<g id="clust1" class="cluster">
<title>cluster_NASALib</title>
<polygon fill="none" stroke="black" points="8,-92.5 8,-745 426,-745 426,-92.5 8,-92.5"/>
<text text-anchor="middle" x="217" y="-727.7" font-family="Times,serif" font-size="14.00">NASALib</text>
</g>
<g id="clust2" class="cluster">
<title>cluster_PVS Prelude</title>
<polygon fill="none" stroke="black" points="239,-8 239,-84.5 327,-84.5 327,-8 239,-8"/>
<text text-anchor="middle" x="283" y="-67.2" font-family="Times,serif" font-size="14.00">PVS Prelude</text>
</g>
<!-- lib/finite_sets -->
<g id="node1" class="node">
<title>lib/finite_sets</title>
<polygon fill="#fcfcd7" stroke="black" points="318.75,-52 247.25,-52 247.25,-16 318.75,-16 318.75,-52"/>
<text text-anchor="middle" x="283" y="-28.95" font-family="Times,serif" font-size="14.00">finite_sets</text>
</g>
<!-- nasalib/algebra -->
<g id="node2" class="node">
<title>nasalib/algebra</title>
<polygon fill="#fcfcd7" stroke="black" points="258.88,-568.5 203.12,-568.5 203.12,-532.5 258.88,-532.5 258.88,-568.5"/>
<text text-anchor="middle" x="231" y="-545.45" font-family="Times,serif" font-size="14.00">algebra</text>
</g>
<!-- nasalib/algebra&#45;&gt;lib/finite_sets -->
<g id="edge1" class="edge">
<title>nasalib/algebra&#45;&gt;lib/finite_sets</title>
<path fill="none" stroke="black" d="M252,-532.12C293.49,-497.77 382,-424.5 382,-424.5 382,-424.5 430,-352.5 430,-352.5 430,-352.5 430,-316.5 430,-316.5 430,-316.5 426,-263.5 426,-263.5"/>
</g>
<!-- nasalib/ints -->
<g id="node4" class="node">
<title>nasalib/ints</title>
<polygon fill="#fcfcd7" stroke="black" points="212,-136.5 158,-136.5 158,-100.5 212,-100.5 212,-136.5"/>
<text text-anchor="middle" x="185" y="-113.45" font-family="Times,serif" font-size="14.00">ints</text>
</g>
<!-- nasalib/algebra&#45;&gt;nasalib/ints -->
<g id="edge2" class="edge">
<title>nasalib/algebra&#45;&gt;nasalib/ints</title>
<path fill="none" stroke="black" d="M94,-405.5C94,-405.5 27,-352.5 27,-352.5 27,-352.5 27,-316.5 27,-316.5 27,-316.5 48,-244.5 48,-244.5 48,-244.5 126,-191.5 126,-191.5"/>
<path fill="none" stroke="black" d="M126,-189.5C126,-189.5 146.63,-165.02 163.49,-145.02"/>
<polygon fill="black" stroke="black" points="166.65,-147.71 170.42,-137.8 161.29,-143.19 166.65,-147.71"/>
<path fill="none" stroke="black" d="M214.2,-532.09C177.62,-494.17 94,-407.5 94,-407.5"/>
</g>
<!-- nasalib/numbers -->
<g id="node5" class="node">
<title>nasalib/numbers</title>
<polygon fill="#fcfcd7" stroke="black" points="99.62,-352.5 36.38,-352.5 36.38,-316.5 99.62,-316.5 99.62,-352.5"/>
<text text-anchor="middle" x="68" y="-329.45" font-family="Times,serif" font-size="14.00">numbers</text>
</g>
<!-- nasalib/algebra&#45;&gt;nasalib/numbers -->
<g id="edge3" class="edge">
<title>nasalib/algebra&#45;&gt;nasalib/numbers</title>
<path fill="none" stroke="black" d="M94,-405.5C94,-405.5 85.47,-382.53 78.18,-362.91"/>
<polygon fill="black" stroke="black" points="81.19,-361.96 74.43,-353.8 74.63,-364.4 81.19,-361.96"/>
</g>
<!-- nasalib/reals -->
<g id="node7" class="node">
<title>nasalib/reals</title>
<polygon fill="#fcfcd7" stroke="black" points="146,-280.5 92,-280.5 92,-244.5 146,-244.5 146,-280.5"/>
<text text-anchor="middle" x="119" y="-257.45" font-family="Times,serif" font-size="14.00">reals</text>
</g>
<!-- nasalib/algebra&#45;&gt;nasalib/reals -->
<g id="edge4" class="edge">
<title>nasalib/algebra&#45;&gt;nasalib/reals</title>
<path fill="none" stroke="black" d="M119,-333.5C119,-333.5 119,-311.16 119,-291.72"/>
<polygon fill="black" stroke="black" points="122.5,-291.8 119,-281.8 115.5,-291.8 122.5,-291.8"/>
</g>
<!-- nasalib/sigma_set -->
<g id="node11" class="node">
<title>nasalib/sigma_set</title>
<polygon fill="#fcfcd7" stroke="black" points="266.38,-496.5 195.62,-496.5 195.62,-460.5 266.38,-460.5 266.38,-496.5"/>
<text text-anchor="middle" x="231" y="-473.45" font-family="Times,serif" font-size="14.00">sigma_set</text>
</g>
<!-- nasalib/algebra&#45;&gt;nasalib/sigma_set -->
<g id="edge5" class="edge">
<title>nasalib/algebra&#45;&gt;nasalib/sigma_set</title>
<path fill="none" stroke="black" d="M231,-532.2C231,-524.74 231,-515.82 231,-507.47"/>
<polygon fill="black" stroke="black" points="234.5,-507.6 231,-497.6 227.5,-507.6 234.5,-507.6"/>
</g>
<!-- nasalib/structures -->
<g id="node12" class="node">
<title>nasalib/structures</title>
<polygon fill="#fcfcd7" stroke="black" points="219.25,-208.5 150.75,-208.5 150.75,-172.5 219.25,-172.5 219.25,-208.5"/>
<text text-anchor="middle" x="185" y="-185.45" font-family="Times,serif" font-size="14.00">structures</text>
</g>
<!-- nasalib/algebra&#45;&gt;nasalib/structures -->
<g id="edge6" class="edge">
<title>nasalib/algebra&#45;&gt;nasalib/structures</title>
<path fill="none" stroke="black" d="M94,-405.5C94,-405.5 119,-335.5 119,-335.5"/>
<path fill="none" stroke="black" d="M119,-333.5C119,-333.5 109,-316.5 109,-316.5 109,-316.5 83,-280.5 83,-280.5 83,-280.5 83,-244.5 83,-244.5 83,-244.5 114.09,-228.35 141.94,-213.87"/>
<polygon fill="black" stroke="black" points="143.34,-216.57 150.6,-208.85 140.11,-210.36 143.34,-216.57"/>
</g>
<!-- nasalib/analysis -->
<g id="node3" class="node">
<title>nasalib/analysis</title>
<polygon fill="#fcfcd7" stroke="black" points="237.75,-352.5 178.25,-352.5 178.25,-316.5 237.75,-316.5 237.75,-352.5"/>
<text text-anchor="middle" x="208" y="-329.45" font-family="Times,serif" font-size="14.00">analysis</text>
</g>
<!-- nasalib/analysis&#45;&gt;lib/finite_sets -->
<g id="edge7" class="edge">
<title>nasalib/analysis&#45;&gt;lib/finite_sets</title>
<path fill="none" stroke="black" d="M238.1,-325.68C294.85,-310.94 412,-280.5 412,-280.5 412,-280.5 426,-263.5 426,-263.5"/>
<path fill="none" stroke="black" d="M426,-261.5C426,-261.5 426,-191.5 426,-191.5"/>
</g>
<!-- nasalib/analysis&#45;&gt;nasalib/ints -->
<g id="edge8" class="edge">
<title>nasalib/analysis&#45;&gt;nasalib/ints</title>
<path fill="none" stroke="black" d="M202.31,-316.2C195.5,-295.47 185,-263.5 185,-263.5"/>
<path fill="none" stroke="black" d="M185,-261.5C185,-261.5 126,-191.5 126,-191.5"/>
</g>
<!-- nasalib/orders -->
<g id="node6" class="node">
<title>nasalib/orders</title>
<polygon fill="#fcfcd7" stroke="black" points="354,-280.5 300,-280.5 300,-244.5 354,-244.5 354,-280.5"/>
<text text-anchor="middle" x="327" y="-257.45" font-family="Times,serif" font-size="14.00">orders</text>
</g>
<!-- nasalib/analysis&#45;&gt;nasalib/orders -->
<g id="edge9" class="edge">
<title>nasalib/analysis&#45;&gt;nasalib/orders</title>
<path fill="none" stroke="black" d="M237.72,-316.02C253.75,-306.59 273.67,-294.87 290.62,-284.9"/>
<polygon fill="black" stroke="black" points="291.85,-287.65 298.69,-279.56 288.3,-281.62 291.85,-287.65"/>
</g>
<!-- nasalib/analysis&#45;&gt;nasalib/reals -->
<g id="edge10" class="edge">
<title>nasalib/analysis&#45;&gt;nasalib/reals</title>
<path fill="none" stroke="black" d="M186,-316.2C174.98,-307.53 161.47,-296.9 149.47,-287.46"/>
<polygon fill="black" stroke="black" points="152.08,-284.28 142.06,-280.85 147.75,-289.78 152.08,-284.28"/>
</g>
<!-- nasalib/analysis&#45;&gt;nasalib/structures -->
<g id="edge11" class="edge">
<title>nasalib/analysis&#45;&gt;nasalib/structures</title>
<path fill="none" stroke="black" d="M185,-261.5C185,-261.5 185,-239.16 185,-219.72"/>
<polygon fill="black" stroke="black" points="188.5,-219.8 185,-209.8 181.5,-219.8 188.5,-219.8"/>
</g>
<!-- nasalib/ints&#45;&gt;lib/finite_sets -->
<g id="edge12" class="edge">
<title>nasalib/ints&#45;&gt;lib/finite_sets</title>
<path fill="none" stroke="black" d="M205.78,-100C219.82,-88.19 238.53,-72.44 254.02,-59.39"/>
<polygon fill="black" stroke="black" points="255.85,-61.59 261.25,-52.47 251.34,-56.23 255.85,-61.59"/>
</g>
<!-- nasalib/numbers&#45;&gt;nasalib/ints -->
<g id="edge13" class="edge">
<title>nasalib/numbers&#45;&gt;nasalib/ints</title>
<path fill="none" stroke="black" d="M64.29,-316.2C59.85,-295.47 53,-263.5 53,-263.5"/>
<path fill="none" stroke="black" d="M53,-261.5C53,-261.5 68,-244.5 68,-244.5 68,-244.5 126,-191.5 126,-191.5"/>
</g>
<!-- nasalib/numbers&#45;&gt;nasalib/reals -->
<g id="edge14" class="edge">
<title>nasalib/numbers&#45;&gt;nasalib/reals</title>
<path fill="none" stroke="black" d="M80.61,-316.2C86.47,-308.14 93.58,-298.39 100.07,-289.48"/>
<polygon fill="black" stroke="black" points="103.48,-291.75 106.54,-281.6 97.82,-287.63 103.48,-291.75"/>
</g>
<!-- nasalib/numbers&#45;&gt;nasalib/structures -->
<g id="edge15" class="edge">
<title>nasalib/numbers&#45;&gt;nasalib/structures</title>
<path fill="none" stroke="black" d="M53,-261.5C53,-261.5 68,-244.5 68,-244.5 68,-244.5 107.44,-226.64 140.52,-211.65"/>
<polygon fill="black" stroke="black" points="141.86,-214.43 149.53,-207.12 138.98,-208.05 141.86,-214.43"/>
</g>
<!-- nasalib/orders&#45;&gt;lib/finite_sets -->
<g id="edge16" class="edge">
<title>nasalib/orders&#45;&gt;lib/finite_sets</title>
<path fill="none" stroke="black" d="M426,-189.5C426,-189.5 426,-119.5 426,-119.5"/>
<path fill="none" stroke="black" d="M354.36,-244.44C379.21,-228.95 412,-208.5 412,-208.5 412,-208.5 426,-191.5 426,-191.5"/>
</g>
<!-- nasalib/orders&#45;&gt;nasalib/structures -->
<g id="edge17" class="edge">
<title>nasalib/orders&#45;&gt;nasalib/structures</title>
<path fill="none" stroke="black" d="M299.62,-248C279.66,-238.17 252.2,-224.63 229.16,-213.27"/>
<polygon fill="black" stroke="black" points="231.11,-209.83 220.59,-208.55 228.01,-216.11 231.11,-209.83"/>
</g>
<!-- nasalib/reals&#45;&gt;nasalib/ints -->
<g id="edge18" class="edge">
<title>nasalib/reals&#45;&gt;nasalib/ints</title>
<path fill="none" stroke="black" d="M120.73,-244.2C122.8,-223.47 126,-191.5 126,-191.5"/>
</g>
<!-- nasalib/reals&#45;&gt;nasalib/structures -->
<g id="edge19" class="edge">
<title>nasalib/reals&#45;&gt;nasalib/structures</title>
<path fill="none" stroke="black" d="M135.31,-244.2C143.23,-235.8 152.88,-225.57 161.56,-216.36"/>
<polygon fill="black" stroke="black" points="163.56,-219.28 167.87,-209.6 158.47,-214.48 163.56,-219.28"/>
</g>
<!-- nasalib/scott -->
<g id="node8" class="node">
<title>nasalib/scott</title>
<polygon fill="#f7e28d" stroke="black" points="398,-640.5 344,-640.5 344,-604.5 398,-604.5 398,-640.5"/>
<text text-anchor="middle" x="371" y="-617.45" font-family="Times,serif" font-size="14.00">scott</text>
</g>
<!-- nasalib/scott&#45;&gt;nasalib/algebra -->
<g id="edge20" class="edge">
<title>nasalib/scott&#45;&gt;nasalib/algebra</title>
<path fill="none" stroke="black" d="M343.67,-607.84C322.37,-597.18 292.53,-582.27 268.91,-570.46"/>
<polygon fill="black" stroke="black" points="270.73,-566.95 260.22,-565.61 267.6,-573.21 270.73,-566.95"/>
</g>
<!-- nasalib/scott&#45;&gt;nasalib/orders -->
<g id="edge21" class="edge">
<title>nasalib/scott&#45;&gt;nasalib/orders</title>
<path fill="none" stroke="black" d="M397,-477.5C397,-477.5 397,-335.5 397,-335.5"/>
<path fill="none" stroke="black" d="M397,-333.5C397,-333.5 372.09,-308.59 351.98,-288.48"/>
<polygon fill="black" stroke="black" points="354.85,-286.4 345.3,-281.8 349.9,-291.35 354.85,-286.4"/>
</g>
<!-- nasalib/scott&#45;&gt;nasalib/structures -->
<g id="edge22" class="edge">
<title>nasalib/scott&#45;&gt;nasalib/structures</title>
<path fill="none" stroke="black" d="M397,-333.5C397,-333.5 363,-244.5 363,-244.5 363,-244.5 282.95,-220.67 230.22,-204.96"/>
<polygon fill="black" stroke="black" points="231.33,-201.34 220.74,-201.84 229.33,-208.05 231.33,-201.34"/>
</g>
<!-- nasalib/topology -->
<g id="node13" class="node">
<title>nasalib/topology</title>
<polygon fill="#fcfcd7" stroke="black" points="314,-424.5 250,-424.5 250,-388.5 314,-388.5 314,-424.5"/>
<text text-anchor="middle" x="282" y="-401.45" font-family="Times,serif" font-size="14.00">topology</text>
</g>
<!-- nasalib/scott&#45;&gt;nasalib/topology -->
<g id="edge23" class="edge">
<title>nasalib/scott&#45;&gt;nasalib/topology</title>
<path fill="none" stroke="black" d="M374.19,-604.09C381.13,-566.17 397,-479.5 397,-479.5"/>
<path fill="none" stroke="black" d="M397,-477.5C397,-477.5 353.37,-450.94 319.86,-430.55"/>
<polygon fill="black" stroke="black" points="322.08,-427.19 311.72,-424.98 318.44,-433.17 322.08,-427.19"/>
</g>
<!-- nasalib/series -->
<g id="node9" class="node">
<title>nasalib/series</title>
<polygon fill="#fcfcd7" stroke="black" points="212,-424.5 158,-424.5 158,-388.5 212,-388.5 212,-424.5"/>
<text text-anchor="middle" x="185" y="-401.45" font-family="Times,serif" font-size="14.00">series</text>
</g>
<!-- nasalib/series&#45;&gt;nasalib/analysis -->
<g id="edge24" class="edge">
<title>nasalib/series&#45;&gt;nasalib/analysis</title>
<path fill="none" stroke="black" d="M190.69,-388.2C193.19,-380.57 196.2,-371.42 199,-362.9"/>
<polygon fill="black" stroke="black" points="202.58,-364.2 202.38,-353.6 195.93,-362.01 202.58,-364.2"/>
</g>
<!-- nasalib/series&#45;&gt;nasalib/ints -->
<g id="edge25" class="edge">
<title>nasalib/series&#45;&gt;nasalib/ints</title>
<path fill="none" stroke="black" d="M179.76,-388.15C175.09,-372.69 169,-352.5 169,-352.5 169,-352.5 155,-244.5 155,-244.5 155,-244.5 126,-191.5 126,-191.5"/>
</g>
<!-- nasalib/series&#45;&gt;nasalib/orders -->
<g id="edge26" class="edge">
<title>nasalib/series&#45;&gt;nasalib/orders</title>
<path fill="none" stroke="black" d="M205.3,-388.15C223.38,-372.69 247,-352.5 247,-352.5 247,-352.5 280.65,-315.06 304.3,-288.75"/>
<polygon fill="black" stroke="black" points="306.49,-291.44 310.58,-281.66 301.29,-286.76 306.49,-291.44"/>
</g>
<!-- nasalib/series&#45;&gt;nasalib/reals -->
<g id="edge27" class="edge">
<title>nasalib/series&#45;&gt;nasalib/reals</title>
<path fill="none" stroke="black" d="M173.63,-388.2C160.01,-367.47 139,-335.5 139,-335.5"/>
</g>
<!-- nasalib/sets_aux -->
<g id="node10" class="node">
<title>nasalib/sets_aux</title>
<polygon fill="#fcfcd7" stroke="black" points="358.25,-352.5 295.75,-352.5 295.75,-316.5 358.25,-316.5 358.25,-352.5"/>
<text text-anchor="middle" x="327" y="-329.45" font-family="Times,serif" font-size="14.00">sets_aux</text>
</g>
<!-- nasalib/sets_aux&#45;&gt;lib/finite_sets -->
<g id="edge28" class="edge">
<title>nasalib/sets_aux&#45;&gt;lib/finite_sets</title>
<path fill="none" stroke="black" d="M354.83,-316.15C379.62,-300.69 412,-280.5 412,-280.5 412,-280.5 426,-263.5 426,-263.5"/>
</g>
<!-- nasalib/sets_aux&#45;&gt;nasalib/ints -->
<g id="edge29" class="edge">
<title>nasalib/sets_aux&#45;&gt;nasalib/ints</title>
<path fill="none" stroke="black" d="M277,-261.5C277,-261.5 228,-172.5 228,-172.5 228,-172.5 216.77,-158.65 205.78,-145.12"/>
<polygon fill="black" stroke="black" points="208.1,-143.41 199.08,-137.85 202.66,-147.82 208.1,-143.41"/>
</g>
<!-- nasalib/sets_aux&#45;&gt;nasalib/orders -->
<g id="edge30" class="edge">
<title>nasalib/sets_aux&#45;&gt;nasalib/orders</title>
<path fill="none" stroke="black" d="M327,-316.2C327,-308.74 327,-299.82 327,-291.47"/>
<polygon fill="black" stroke="black" points="330.5,-291.6 327,-281.6 323.5,-291.6 330.5,-291.6"/>
</g>
<!-- nasalib/sets_aux&#45;&gt;nasalib/structures -->
<g id="edge31" class="edge">
<title>nasalib/sets_aux&#45;&gt;nasalib/structures</title>
<path fill="none" stroke="black" d="M314.64,-316.2C299.83,-295.47 277,-263.5 277,-263.5"/>
<path fill="none" stroke="black" d="M277,-261.5C277,-261.5 262,-244.5 262,-244.5 262,-244.5 239.74,-229.18 219.16,-215.01"/>
<polygon fill="black" stroke="black" points="221.43,-211.64 211.21,-208.85 217.47,-217.41 221.43,-211.64"/>
</g>
<!-- nasalib/sigma_set&#45;&gt;nasalib/analysis -->
<g id="edge32" class="edge">
<title>nasalib/sigma_set&#45;&gt;nasalib/analysis</title>
<path fill="none" stroke="black" d="M229.07,-460.34C226.17,-434.48 221,-388.5 221,-388.5 221,-388.5 217.98,-376.18 214.85,-363.42"/>
<polygon fill="black" stroke="black" points="218.04,-362.73 212.26,-353.85 211.24,-364.4 218.04,-362.73"/>
</g>
<!-- nasalib/sigma_set&#45;&gt;nasalib/orders -->
<g id="edge33" class="edge">
<title>nasalib/sigma_set&#45;&gt;nasalib/orders</title>
<path fill="none" stroke="black" d="M377,-405.5C377,-405.5 367,-316.5 367,-316.5 367,-316.5 356.75,-302.91 346.62,-289.5"/>
<polygon fill="black" stroke="black" points="348.92,-287.73 340.1,-281.85 343.33,-291.94 348.92,-287.73"/>
</g>
<!-- nasalib/sigma_set&#45;&gt;nasalib/reals -->
<g id="edge34" class="edge">
<title>nasalib/sigma_set&#45;&gt;nasalib/reals</title>
<path fill="none" stroke="black" d="M204.15,-460.15C180.24,-444.69 149,-424.5 149,-424.5 149,-424.5 139,-335.5 139,-335.5"/>
<path fill="none" stroke="black" d="M139,-333.5C139,-333.5 132.5,-310.74 126.91,-291.18"/>
<polygon fill="black" stroke="black" points="130.06,-290.46 123.94,-281.8 123.33,-292.38 130.06,-290.46"/>
</g>
<!-- nasalib/sigma_set&#45;&gt;nasalib/series -->
<g id="edge35" class="edge">
<title>nasalib/sigma_set&#45;&gt;nasalib/series</title>
<path fill="none" stroke="black" d="M219.63,-460.2C214.39,-452.23 208.07,-442.6 202.26,-433.76"/>
<polygon fill="black" stroke="black" points="204.66,-432.04 196.24,-425.6 198.81,-435.88 204.66,-432.04"/>
</g>
<!-- nasalib/sigma_set&#45;&gt;nasalib/sets_aux -->
<g id="edge36" class="edge">
<title>nasalib/sigma_set&#45;&gt;nasalib/sets_aux</title>
<path fill="none" stroke="black" d="M266.72,-460.38C309.94,-439.65 377,-407.5 377,-407.5"/>
<path fill="none" stroke="black" d="M377,-405.5C377,-405.5 359.83,-381.46 345.61,-361.56"/>
<polygon fill="black" stroke="black" points="348.02,-359.91 339.36,-353.8 342.32,-363.98 348.02,-359.91"/>
</g>
<!-- nasalib/structures&#45;&gt;lib/finite_sets -->
<g id="edge37" class="edge">
<title>nasalib/structures&#45;&gt;lib/finite_sets</title>
<path fill="none" stroke="black" d="M426,-117.5C426,-117.5 365.15,-82.4 322.84,-57.98"/>
<polygon fill="black" stroke="black" points="324.74,-54.46 314.33,-52.5 321.24,-60.53 324.74,-54.46"/>
<path fill="none" stroke="black" d="M219.53,-179.47C286.17,-160.12 426,-119.5 426,-119.5"/>
</g>
<!-- nasalib/structures&#45;&gt;nasalib/ints -->
<g id="edge38" class="edge">
<title>nasalib/structures&#45;&gt;nasalib/ints</title>
<path fill="none" stroke="black" d="M185,-172.2C185,-164.74 185,-155.82 185,-147.47"/>
<polygon fill="black" stroke="black" points="188.5,-147.6 185,-137.6 181.5,-147.6 188.5,-147.6"/>
</g>
<!-- nasalib/topology&#45;&gt;nasalib/reals -->
<g id="edge39" class="edge">
<title>nasalib/topology&#45;&gt;nasalib/reals</title>
<path fill="none" stroke="black" d="M249.62,-390.31C216.23,-374.65 169,-352.5 169,-352.5 169,-352.5 139,-335.5 139,-335.5"/>
</g>
<!-- nasalib/topology&#45;&gt;nasalib/sets_aux -->
<g id="edge40" class="edge">
<title>nasalib/topology&#45;&gt;nasalib/sets_aux</title>
<path fill="none" stroke="black" d="M293.12,-388.2C298.25,-380.23 304.44,-370.6 310.12,-361.76"/>
<polygon fill="black" stroke="black" points="313.54,-363.91 316,-353.6 307.65,-360.12 313.54,-363.91"/>
</g>
<!-- nasalib/topology&#45;&gt;nasalib/structures -->
<g id="edge41" class="edge">
<title>nasalib/topology&#45;&gt;nasalib/structures</title>
<path fill="none" stroke="black" d="M275.25,-388.34C265.08,-362.48 247,-316.5 247,-316.5 247,-316.5 216.63,-255.28 198.41,-218.53"/>
<polygon fill="black" stroke="black" points="201.2,-217.28 193.62,-209.88 194.93,-220.39 201.2,-217.28"/>
</g>
<!-- nasalib/while -->
<g id="node14" class="node">
<title>nasalib/while</title>
<polygon fill="#fcfcd7" stroke="black" points="408,-712.5 354,-712.5 354,-676.5 408,-676.5 408,-712.5"/>
<text text-anchor="middle" x="381" y="-689.45" font-family="Times,serif" font-size="14.00">while</text>
</g>
<!-- nasalib/while&#45;&gt;nasalib/orders -->
<g id="edge42" class="edge">
<title>nasalib/while&#45;&gt;nasalib/orders</title>
<path fill="none" stroke="black" d="M389.51,-676.15C397.1,-660.69 407,-640.5 407,-640.5 407,-640.5 417,-551.5 417,-551.5 417,-551.5 417,-551.5 417,-405.5 417,-405.5 402,-316.5 402,-316.5 402,-316.5 380.32,-301.18 360.27,-287.01"/>
<polygon fill="black" stroke="black" points="362.74,-283.77 352.56,-280.85 358.7,-289.48 362.74,-283.77"/>
</g>
<!-- nasalib/while&#45;&gt;nasalib/scott -->
<g id="edge43" class="edge">
<title>nasalib/while&#45;&gt;nasalib/scott</title>
<path fill="none" stroke="black" d="M378.53,-676.2C377.46,-668.74 376.19,-659.82 375,-651.47"/>
<polygon fill="black" stroke="black" points="378.32,-651.01 373.44,-641.6 371.39,-652 378.32,-651.01"/>
</g>
</g>
</svg>
