<?xml version="1.0" encoding="UTF-8" standalone="no"?>
<!DOCTYPE svg PUBLIC "-//W3C//DTD SVG 1.1//EN"
 "http://www.w3.org/Graphics/SVG/1.1/DTD/svg11.dtd">
<!-- Generated by graphviz version 7.0.6 (20230106.0513)
 -->
<!-- Title: scott&#45;zoomed Pages: 1 -->
<svg width="849pt" height="470pt"
 viewBox="0.00 0.00 849.00 470.00" xmlns="http://www.w3.org/2000/svg" xmlns:xlink="http://www.w3.org/1999/xlink">
<g id="graph0" class="graph" transform="scale(1 1) rotate(0) translate(4 466)">
<title>scott&#45;zoomed</title>
<polygon fill="white" stroke="none" points="-4,4 -4,-466 845,-466 845,4 -4,4"/>
<g id="clust1" class="cluster">
<title>cluster_NASALib</title>
<polygon fill="none" stroke="black" points="235,-8 235,-83 551,-83 551,-8 235,-8"/>
<text text-anchor="middle" x="393" y="-67.8" font-family="Times,serif" font-size="14.00">NASALib</text>
</g>
<g id="clust2" class="cluster">
<title>cluster_NASALib/scott</title>
<polygon fill="none" stroke="black" points="8,-91 8,-454 821,-454 821,-91 8,-91"/>
<text text-anchor="middle" x="414.5" y="-438.8" font-family="Times,serif" font-size="14.00">NASALib/scott</text>
</g>
<!-- NASALib/algebra -->
<g id="node1" class="node">
<title>NASALib/algebra</title>
<polygon fill="#fcfcd7" stroke="black" points="387,-52 331,-52 331,-16 387,-16 387,-52"/>
<text text-anchor="middle" x="359" y="-30.3" font-family="Times,serif" font-size="14.00">algebra</text>
</g>
<!-- NASALib/orders -->
<g id="node2" class="node">
<title>NASALib/orders</title>
<polygon fill="#fcfcd7" stroke="black" points="543,-52 489,-52 489,-16 543,-16 543,-52"/>
<text text-anchor="middle" x="516" y="-30.3" font-family="Times,serif" font-size="14.00">orders</text>
</g>
<!-- NASALib/scott@admissible -->
<g id="node3" class="node">
<title>NASALib/scott@admissible</title>
<ellipse fill="#e6f3ff" stroke="black" cx="85" cy="-333" rx="48.99" ry="18"/>
<text text-anchor="middle" x="85" y="-329.3" font-family="Times,serif" font-size="14.00">admissible</text>
</g>
<!-- NASALib/scott@admissible&#45;&gt;NASALib/orders -->
<g id="edge1" class="edge">
<title>NASALib/scott@admissible&#45;&gt;NASALib/orders</title>
<path fill="none" stroke="black" d="M123.46,-321.62C136.58,-318.08 148,-315 148,-315 148,-315 825,-279 825,-279 825,-279 841,-262 841,-262"/>
<path fill="none" stroke="black" d="M841,-260C841,-260 825,-243 825,-243 825,-243 714,-190 714,-190"/>
</g>
<!-- NASALib/scott@fixpoints -->
<g id="node5" class="node">
<title>NASALib/scott@fixpoints</title>
<ellipse fill="#e6f3ff" stroke="black" cx="85" cy="-261" rx="42.49" ry="18"/>
<text text-anchor="middle" x="85" y="-257.3" font-family="Times,serif" font-size="14.00">fixpoints</text>
</g>
<!-- NASALib/scott@admissible&#45;&gt;NASALib/scott@fixpoints -->
<g id="edge2" class="edge">
<title>NASALib/scott@admissible&#45;&gt;NASALib/scott@fixpoints</title>
<path fill="none" stroke="black" d="M85,-314.7C85,-307.41 85,-298.73 85,-290.54"/>
<polygon fill="black" stroke="black" points="88.5,-290.62 85,-280.62 81.5,-290.62 88.5,-290.62"/>
</g>
<!-- NASALib/scott@scott -->
<g id="node9" class="node">
<title>NASALib/scott@scott</title>
<ellipse fill="#e6f3ff" stroke="black" cx="101" cy="-117" rx="27.1" ry="18"/>
<text text-anchor="middle" x="101" y="-113.3" font-family="Times,serif" font-size="14.00">scott</text>
</g>
<!-- NASALib/scott@admissible&#45;&gt;NASALib/scott@scott -->
<g id="edge3" class="edge">
<title>NASALib/scott@admissible&#45;&gt;NASALib/scott@scott</title>
<path fill="none" stroke="black" d="M69.14,-315.52C54.17,-299.96 34,-279 34,-279 34,-279 24,-190 24,-190"/>
<path fill="none" stroke="black" d="M24,-188C24,-188 34,-171 34,-171 34,-171 56.34,-153.33 75.22,-138.4"/>
<polygon fill="black" stroke="black" points="77.23,-141.26 82.91,-132.31 72.89,-135.77 77.23,-141.26"/>
</g>
<!-- NASALib/scott@scott_continuity -->
<g id="node11" class="node">
<title>NASALib/scott@scott_continuity</title>
<ellipse fill="#e6f3ff" stroke="black" cx="265" cy="-189" rx="67.69" ry="18"/>
<text text-anchor="middle" x="265" y="-185.3" font-family="Times,serif" font-size="14.00">scott_continuity</text>
</g>
<!-- NASALib/scott@admissible&#45;&gt;NASALib/scott@scott_continuity -->
<g id="edge4" class="edge">
<title>NASALib/scott@admissible&#45;&gt;NASALib/scott@scott_continuity</title>
<path fill="none" stroke="black" d="M153,-260C153,-260 163,-243 163,-243 163,-243 196.7,-225.49 225.36,-210.6"/>
<polygon fill="black" stroke="black" points="226.62,-213.89 233.88,-206.17 223.39,-207.68 226.62,-213.89"/>
<path fill="none" stroke="black" d="M100.77,-315.76C120.86,-295.09 153,-262 153,-262"/>
</g>
<!-- NASALib/scott@dual_fixpoints -->
<g id="node4" class="node">
<title>NASALib/scott@dual_fixpoints</title>
<ellipse fill="#e6f3ff" stroke="black" cx="85" cy="-405" rx="61.99" ry="18"/>
<text text-anchor="middle" x="85" y="-401.3" font-family="Times,serif" font-size="14.00">dual_fixpoints</text>
</g>
<!-- NASALib/scott@dual_fixpoints&#45;&gt;NASALib/orders -->
<g id="edge5" class="edge">
<title>NASALib/scott@dual_fixpoints&#45;&gt;NASALib/orders</title>
<path fill="none" stroke="black" d="M153,-332C153,-332 825,-279 825,-279 825,-279 841,-262 841,-262"/>
</g>
<!-- NASALib/scott@dual_fixpoints&#45;&gt;NASALib/scott@admissible -->
<g id="edge6" class="edge">
<title>NASALib/scott@dual_fixpoints&#45;&gt;NASALib/scott@admissible</title>
<path fill="none" stroke="black" d="M85,-386.7C85,-379.41 85,-370.73 85,-362.54"/>
<polygon fill="black" stroke="black" points="88.5,-362.62 85,-352.62 81.5,-362.62 88.5,-362.62"/>
</g>
<!-- NASALib/scott@dual_fixpoints&#45;&gt;NASALib/scott@fixpoints -->
<g id="edge7" class="edge">
<title>NASALib/scott@dual_fixpoints&#45;&gt;NASALib/scott@fixpoints</title>
<path fill="none" stroke="black" d="M66.97,-387.52C49.94,-371.96 27,-351 27,-351 27,-351 27,-315 27,-315 27,-315 43.74,-299.7 59.23,-285.55"/>
<polygon fill="black" stroke="black" points="61.46,-288.25 66.48,-278.92 56.74,-283.08 61.46,-288.25"/>
</g>
<!-- NASALib/scott@dual_fixpoints&#45;&gt;NASALib/scott@scott_continuity -->
<g id="edge8" class="edge">
<title>NASALib/scott@dual_fixpoints&#45;&gt;NASALib/scott@scott_continuity</title>
<path fill="none" stroke="black" d="M103.03,-387.52C120.06,-371.96 143,-351 143,-351 143,-351 153,-334 153,-334"/>
<path fill="none" stroke="black" d="M153,-332C153,-332 153,-262 153,-262"/>
</g>
<!-- NASALib/scott@fixpoints&#45;&gt;NASALib/algebra -->
<g id="edge9" class="edge">
<title>NASALib/scott@fixpoints&#45;&gt;NASALib/algebra</title>
<path fill="none" stroke="black" d="M122.17,-251.9C142.26,-247.52 163,-243 163,-243 163,-243 440,-190 440,-190"/>
<path fill="none" stroke="black" d="M440,-188C440,-188 396.74,-106.3 373.45,-62.3"/>
<polygon fill="black" stroke="black" points="376.61,-60.79 368.84,-53.59 370.43,-64.07 376.61,-60.79"/>
</g>
<!-- NASALib/scott@fixpoints&#45;&gt;NASALib/orders -->
<g id="edge10" class="edge">
<title>NASALib/scott@fixpoints&#45;&gt;NASALib/orders</title>
<path fill="none" stroke="black" d="M592,-116C592,-116 562.2,-84.24 539.92,-60.49"/>
<polygon fill="black" stroke="black" points="542.55,-58.18 533.15,-53.28 537.44,-62.97 542.55,-58.18"/>
<path fill="none" stroke="black" d="M440,-188C440,-188 592,-118 592,-118"/>
</g>
<!-- NASALib/scott@fun_preds_partial -->
<g id="node6" class="node">
<title>NASALib/scott@fun_preds_partial</title>
<ellipse fill="#e6f3ff" stroke="black" cx="242" cy="-117" rx="72.59" ry="18"/>
<text text-anchor="middle" x="242" y="-113.3" font-family="Times,serif" font-size="14.00">fun_preds_partial</text>
</g>
<!-- NASALib/scott@fixpoints&#45;&gt;NASALib/scott@fun_preds_partial -->
<g id="edge11" class="edge">
<title>NASALib/scott@fixpoints&#45;&gt;NASALib/scott@fun_preds_partial</title>
<path fill="none" stroke="black" d="M107.68,-245.52C132.25,-229.83 168,-207 168,-207 168,-207 188,-171 188,-171 188,-171 202.74,-156.53 216.82,-142.72"/>
<polygon fill="black" stroke="black" points="219.15,-145.33 223.83,-135.83 214.25,-140.34 219.15,-145.33"/>
</g>
<!-- NASALib/scott@fixpoints&#45;&gt;NASALib/scott@scott -->
<g id="edge12" class="edge">
<title>NASALib/scott@fixpoints&#45;&gt;NASALib/scott@scott</title>
<path fill="none" stroke="black" d="M69.42,-243.81C54.42,-228.22 34,-207 34,-207 34,-207 24,-190 24,-190"/>
</g>
<!-- NASALib/scott@fixpoints&#45;&gt;NASALib/scott@scott_continuity -->
<g id="edge13" class="edge">
<title>NASALib/scott@fixpoints&#45;&gt;NASALib/scott@scott_continuity</title>
<path fill="none" stroke="black" d="M115.53,-248.13C143.38,-237.3 184.97,-221.12 217.22,-208.58"/>
<polygon fill="black" stroke="black" points="218.3,-211.92 226.35,-205.03 215.76,-205.39 218.3,-211.92"/>
</g>
<!-- NASALib/scott@partial_function_props -->
<g id="node7" class="node">
<title>NASALib/scott@partial_function_props</title>
<ellipse fill="#e6f3ff" stroke="black" cx="722" cy="-405" rx="90.98" ry="18"/>
<text text-anchor="middle" x="722" y="-401.3" font-family="Times,serif" font-size="14.00">partial_function_props</text>
</g>
<!-- NASALib/scott@partial_function_props&#45;&gt;NASALib/orders -->
<g id="edge14" class="edge">
<title>NASALib/scott@partial_function_props&#45;&gt;NASALib/orders</title>
<path fill="none" stroke="black" d="M753.74,-387.67C784.01,-372.09 825,-351 825,-351 825,-351 841,-262 841,-262"/>
</g>
<!-- NASALib/scott@pointwise_orders_aux -->
<g id="node8" class="node">
<title>NASALib/scott@pointwise_orders_aux</title>
<ellipse fill="#e6f3ff" stroke="black" cx="260" cy="-261" rx="88.28" ry="18"/>
<text text-anchor="middle" x="260" y="-257.3" font-family="Times,serif" font-size="14.00">pointwise_orders_aux</text>
</g>
<!-- NASALib/scott@pointwise_orders_aux&#45;&gt;NASALib/orders -->
<g id="edge15" class="edge">
<title>NASALib/scott@pointwise_orders_aux&#45;&gt;NASALib/orders</title>
<path fill="none" stroke="black" d="M325.51,-248.52C342.93,-245.47 357,-243 357,-243 357,-243 578,-207 578,-207 578,-207 592,-118 592,-118"/>
</g>
<!-- NASALib/scott@pointwise_orders_aux&#45;&gt;NASALib/scott@scott_continuity -->
<g id="edge16" class="edge">
<title>NASALib/scott@pointwise_orders_aux&#45;&gt;NASALib/scott@scott_continuity</title>
<path fill="none" stroke="black" d="M261.24,-242.7C261.76,-235.41 262.38,-226.73 262.96,-218.54"/>
<polygon fill="black" stroke="black" points="266.45,-218.84 263.67,-208.61 259.47,-218.34 266.45,-218.84"/>
</g>
<!-- NASALib/scott@scott&#45;&gt;NASALib/orders -->
<g id="edge17" class="edge">
<title>NASALib/scott@scott&#45;&gt;NASALib/orders</title>
<path fill="none" stroke="black" d="M123.31,-106.55C140.01,-99.47 160,-91 160,-91 160,-91 480,-83 480,-83 480,-83 487.9,-72.46 496.3,-61.26"/>
<polygon fill="black" stroke="black" points="498.9,-63.64 502.1,-53.54 493.3,-59.44 498.9,-63.64"/>
</g>
<!-- NASALib/topology -->
<g id="node15" class="node">
<title>NASALib/topology</title>
<polygon fill="#fcfcd7" stroke="black" points="470.5,-52 405.5,-52 405.5,-16 470.5,-16 470.5,-52"/>
<text text-anchor="middle" x="438" y="-30.3" font-family="Times,serif" font-size="14.00">topology</text>
</g>
<!-- NASALib/scott@scott&#45;&gt;NASALib/topology -->
<g id="edge18" class="edge">
<title>NASALib/scott@scott&#45;&gt;NASALib/topology</title>
<path fill="none" stroke="black" d="M123.31,-106.55C140.01,-99.47 160,-91 160,-91 160,-91 396,-83 396,-83 396,-83 405.4,-72.25 415.31,-60.93"/>
<polygon fill="black" stroke="black" points="417.89,-63.3 421.84,-53.47 412.62,-58.69 417.89,-63.3"/>
</g>
<!-- NASALib/scott@scott_composition_continuity -->
<g id="node10" class="node">
<title>NASALib/scott@scott_composition_continuity</title>
<ellipse fill="#e6f3ff" stroke="black" cx="482" cy="-261" rx="115.88" ry="18"/>
<text text-anchor="middle" x="482" y="-257.3" font-family="Times,serif" font-size="14.00">scott_composition_continuity</text>
</g>
<!-- NASALib/scott@scott_composition_continuity&#45;&gt;NASALib/orders -->
<g id="edge19" class="edge">
<title>NASALib/scott@scott_composition_continuity&#45;&gt;NASALib/orders</title>
<path fill="none" stroke="black" d="M533.49,-244.46C601.84,-223.84 714,-190 714,-190"/>
<path fill="none" stroke="black" d="M714,-188C714,-188 700,-171 700,-171 700,-171 592,-118 592,-118"/>
</g>
<!-- NASALib/scott@scott_composition_continuity&#45;&gt;NASALib/scott@scott_continuity -->
<g id="edge20" class="edge">
<title>NASALib/scott@scott_composition_continuity&#45;&gt;NASALib/scott@scott_continuity</title>
<path fill="none" stroke="black" d="M433.3,-244.29C398.87,-233.19 352.77,-218.31 317.52,-206.94"/>
<polygon fill="black" stroke="black" points="318.98,-203.74 308.39,-204 316.84,-210.4 318.98,-203.74"/>
</g>
<!-- NASALib/scott@scott_composition_continuity&#45;&gt;NASALib/topology -->
<g id="edge21" class="edge">
<title>NASALib/scott@scott_composition_continuity&#45;&gt;NASALib/topology</title>
<path fill="none" stroke="black" d="M479.11,-242.55C471.96,-199.37 454,-91 454,-91 454,-91 450.06,-77.21 446.09,-63.32"/>
<polygon fill="black" stroke="black" points="449.5,-62.52 443.39,-53.87 442.77,-64.44 449.5,-62.52"/>
</g>
<!-- NASALib/scott@scott_continuity&#45;&gt;NASALib/orders -->
<g id="edge22" class="edge">
<title>NASALib/scott@scott_continuity&#45;&gt;NASALib/orders</title>
<path fill="none" stroke="black" d="M304.27,-173.94C348.12,-158.23 413,-135 413,-135 413,-135 480,-83 480,-83 480,-83 487.9,-72.46 496.3,-61.26"/>
<polygon fill="black" stroke="black" points="498.9,-63.64 502.1,-53.54 493.3,-59.44 498.9,-63.64"/>
</g>
<!-- NASALib/scott@scott_continuity&#45;&gt;NASALib/scott@fun_preds_partial -->
<g id="edge23" class="edge">
<title>NASALib/scott@scott_continuity&#45;&gt;NASALib/scott@fun_preds_partial</title>
<path fill="none" stroke="black" d="M259.31,-170.7C256.86,-163.24 253.93,-154.32 251.19,-145.97"/>
<polygon fill="black" stroke="black" points="254.54,-144.95 248.09,-136.54 247.89,-147.14 254.54,-144.95"/>
</g>
<!-- NASALib/scott@scott_continuity&#45;&gt;NASALib/scott@scott -->
<g id="edge24" class="edge">
<title>NASALib/scott@scott_continuity&#45;&gt;NASALib/scott@scott</title>
<path fill="none" stroke="black" d="M230.22,-173.15C201.67,-160.97 161.52,-143.83 133.59,-131.91"/>
<polygon fill="black" stroke="black" points="135.12,-128.76 124.55,-128.05 132.38,-135.2 135.12,-128.76"/>
</g>
<!-- NASALib/structures -->
<g id="node14" class="node">
<title>NASALib/structures</title>
<polygon fill="#fcfcd7" stroke="black" points="312.5,-52 243.5,-52 243.5,-16 312.5,-16 312.5,-52"/>
<text text-anchor="middle" x="278" y="-30.3" font-family="Times,serif" font-size="14.00">structures</text>
</g>
<!-- NASALib/scott@scott_continuity&#45;&gt;NASALib/structures -->
<g id="edge25" class="edge">
<title>NASALib/scott@scott_continuity&#45;&gt;NASALib/structures</title>
<path fill="none" stroke="black" d="M285.87,-171.76C312.46,-151.09 355,-118 355,-118"/>
<path fill="none" stroke="black" d="M355,-116C355,-116 322,-83 322,-83 322,-83 311.96,-72.04 301.47,-60.6"/>
<polygon fill="black" stroke="black" points="304.25,-58.45 294.91,-53.44 299.08,-63.18 304.25,-58.45"/>
</g>
<!-- NASALib/scott@scott_continuity&#45;&gt;NASALib/topology -->
<g id="edge26" class="edge">
<title>NASALib/scott@scott_continuity&#45;&gt;NASALib/topology</title>
<path fill="none" stroke="black" d="M355,-116C355,-116 385,-91 385,-91 385,-91 396,-83 396,-83 396,-83 405.4,-72.25 415.31,-60.93"/>
<polygon fill="black" stroke="black" points="417.89,-63.3 421.84,-53.47 412.62,-58.69 417.89,-63.3"/>
</g>
<!-- NASALib/scott@scott_identity_continuity -->
<g id="node12" class="node">
<title>NASALib/scott@scott_identity_continuity</title>
<ellipse fill="#e6f3ff" stroke="black" cx="714" cy="-261" rx="98.58" ry="18"/>
<text text-anchor="middle" x="714" y="-257.3" font-family="Times,serif" font-size="14.00">scott_identity_continuity</text>
</g>
<!-- NASALib/scott@scott_identity_continuity&#45;&gt;NASALib/orders -->
<g id="edge27" class="edge">
<title>NASALib/scott@scott_identity_continuity&#45;&gt;NASALib/orders</title>
<path fill="none" stroke="black" d="M714,-242.7C714,-221.97 714,-190 714,-190"/>
</g>
<!-- NASALib/scott@scott_identity_continuity&#45;&gt;NASALib/scott@scott_continuity -->
<g id="edge28" class="edge">
<title>NASALib/scott@scott_identity_continuity&#45;&gt;NASALib/scott@scott_continuity</title>
<path fill="none" stroke="black" d="M641.44,-248.47C622.36,-245.44 607,-243 607,-243 607,-243 433.25,-216.07 333.44,-200.61"/>
<polygon fill="black" stroke="black" points="334.16,-197.18 323.74,-199.1 333.08,-204.09 334.16,-197.18"/>
</g>
<!-- NASALib/scott@scott_identity_continuity&#45;&gt;NASALib/topology -->
<g id="edge29" class="edge">
<title>NASALib/scott@scott_identity_continuity&#45;&gt;NASALib/topology</title>
<path fill="none" stroke="black" d="M691.56,-243.03C632.99,-198.73 480,-83 480,-83 480,-83 470.6,-72.25 460.69,-60.93"/>
<polygon fill="black" stroke="black" points="463.38,-58.69 454.16,-53.47 458.11,-63.3 463.38,-58.69"/>
</g>
<!-- NASALib/scott@scott_product -->
<g id="node13" class="node">
<title>NASALib/scott@scott_product</title>
<ellipse fill="#e6f3ff" stroke="black" cx="101" cy="-189" rx="58.49" ry="18"/>
<text text-anchor="middle" x="101" y="-185.3" font-family="Times,serif" font-size="14.00">scott_product</text>
</g>
<!-- NASALib/scott@scott_product&#45;&gt;NASALib/orders -->
<g id="edge30" class="edge">
<title>NASALib/scott@scott_product&#45;&gt;NASALib/orders</title>
<path fill="none" stroke="black" d="M146.4,-177.21C211.6,-161.71 324,-135 324,-135 324,-135 413,-91 413,-91 413,-91 480,-83 480,-83 480,-83 487.9,-72.46 496.3,-61.26"/>
<polygon fill="black" stroke="black" points="498.9,-63.64 502.1,-53.54 493.3,-59.44 498.9,-63.64"/>
</g>
<!-- NASALib/scott@scott_product&#45;&gt;NASALib/scott@scott -->
<g id="edge31" class="edge">
<title>NASALib/scott@scott_product&#45;&gt;NASALib/scott@scott</title>
<path fill="none" stroke="black" d="M101,-170.7C101,-163.41 101,-154.73 101,-146.54"/>
<polygon fill="black" stroke="black" points="104.5,-146.62 101,-136.62 97.5,-146.62 104.5,-146.62"/>
</g>
</g>
</svg>
