<?xml version="1.0" encoding="UTF-8" standalone="no"?>
<!DOCTYPE svg PUBLIC "-//W3C//DTD SVG 1.1//EN"
 "http://www.w3.org/Graphics/SVG/1.1/DTD/svg11.dtd">
<!-- Generated by graphviz version 2.44.1 (20200629.0846)
 -->
<!-- Title: scott&#45;zoomed Pages: 1 -->
<svg width="837pt" height="470pt"
 viewBox="0.00 0.00 837.00 470.00" xmlns="http://www.w3.org/2000/svg" xmlns:xlink="http://www.w3.org/1999/xlink">
<g id="graph0" class="graph" transform="scale(1 1) rotate(0) translate(4 466)">
<title>scott&#45;zoomed</title>
<polygon fill="white" stroke="transparent" points="-4,4 -4,-466 833,-466 833,4 -4,4"/>
<g id="clust1" class="cluster">
<title>cluster_NASALib</title>
<polygon fill="none" stroke="black" points="235,-8 235,-83 551,-83 551,-8 235,-8"/>
<text text-anchor="middle" x="393" y="-67.8" font-family="Times,serif" font-size="14.00">NASALib</text>
</g>
<g id="clust2" class="cluster">
<title>cluster_NASALib/scott</title>
<polygon fill="none" stroke="black" points="8,-91 8,-454 821,-454 821,-91 8,-91"/>
<text text-anchor="middle" x="414.5" y="-438.8" font-family="Times,serif" font-size="14.00">NASALib/scott</text>
</g>
<!-- nasalib/algebra -->
<g id="node1" class="node">
<title>nasalib/algebra</title>
<polygon fill="#fcfcd7" stroke="black" points="387,-52 331,-52 331,-16 387,-16 387,-52"/>
<text text-anchor="middle" x="359" y="-30.3" font-family="Times,serif" font-size="14.00">algebra</text>
</g>
<!-- nasalib/orders -->
<g id="node2" class="node">
<title>nasalib/orders</title>
<polygon fill="#fcfcd7" stroke="black" points="543,-52 489,-52 489,-16 543,-16 543,-52"/>
<text text-anchor="middle" x="516" y="-30.3" font-family="Times,serif" font-size="14.00">orders</text>
</g>
<!-- nasalib/scott@admissible -->
<g id="node3" class="node">
<title>nasalib/scott@admissible</title>
<ellipse fill="#e6f3ff" stroke="black" cx="85" cy="-333" rx="48.99" ry="18"/>
<text text-anchor="middle" x="85" y="-329.3" font-family="Times,serif" font-size="14.00">admissible</text>
</g>
<!-- nasalib/scott@admissible&#45;&gt;nasalib/orders -->
<g id="edge1" class="edge">
<title>nasalib/scott@admissible&#45;&gt;nasalib/orders</title>
<path fill="none" stroke="black" d="M130.17,-325.91C130.17,-301.89 130.17,-225 130.17,-225 130.17,-225 519,-225 519,-225 519,-225 519,-62.31 519,-62.31"/>
<polygon fill="black" stroke="black" points="522.5,-62.31 519,-52.31 515.5,-62.31 522.5,-62.31"/>
</g>
<!-- nasalib/scott@fixpoints -->
<g id="node5" class="node">
<title>nasalib/scott@fixpoints</title>
<ellipse fill="#e6f3ff" stroke="black" cx="85" cy="-261" rx="41.69" ry="18"/>
<text text-anchor="middle" x="85" y="-257.3" font-family="Times,serif" font-size="14.00">fixpoints</text>
</g>
<!-- nasalib/scott@admissible&#45;&gt;nasalib/scott@fixpoints -->
<g id="edge2" class="edge">
<title>nasalib/scott@admissible&#45;&gt;nasalib/scott@fixpoints</title>
<path fill="none" stroke="black" d="M85,-314.83C85,-314.83 85,-289.41 85,-289.41"/>
<polygon fill="black" stroke="black" points="88.5,-289.41 85,-279.41 81.5,-289.41 88.5,-289.41"/>
</g>
<!-- nasalib/scott@scott -->
<g id="node9" class="node">
<title>nasalib/scott@scott</title>
<ellipse fill="#e6f3ff" stroke="black" cx="101" cy="-117" rx="27.1" ry="18"/>
<text text-anchor="middle" x="101" y="-113.3" font-family="Times,serif" font-size="14.00">scott</text>
</g>
<!-- nasalib/scott@admissible&#45;&gt;nasalib/scott@scott -->
<g id="edge3" class="edge">
<title>nasalib/scott@admissible&#45;&gt;nasalib/scott@scott</title>
<path fill="none" stroke="black" d="M36.06,-333C30.62,-333 26.99,-333 26.99,-333 26.99,-333 26.99,-111 26.99,-111 26.99,-111 65.12,-111 65.12,-111"/>
<polygon fill="black" stroke="black" points="65.12,-114.5 75.12,-111 65.12,-107.5 65.12,-114.5"/>
</g>
<!-- nasalib/scott@scott_continuity -->
<g id="node11" class="node">
<title>nasalib/scott@scott_continuity</title>
<ellipse fill="#e6f3ff" stroke="black" cx="265" cy="-189" rx="67.69" ry="18"/>
<text text-anchor="middle" x="265" y="-185.3" font-family="Times,serif" font-size="14.00">scott_continuity</text>
</g>
<!-- nasalib/scott@admissible&#45;&gt;nasalib/scott@scott_continuity -->
<g id="edge4" class="edge">
<title>nasalib/scott@admissible&#45;&gt;nasalib/scott@scott_continuity</title>
<path fill="none" stroke="black" d="M134.04,-333C150.76,-333 165.32,-333 165.32,-333 165.32,-333 165.32,-198 165.32,-198 165.32,-198 196.44,-198 196.44,-198"/>
<polygon fill="black" stroke="black" points="196.44,-201.5 206.44,-198 196.44,-194.5 196.44,-201.5"/>
</g>
<!-- nasalib/scott@dual_fixpoints -->
<g id="node4" class="node">
<title>nasalib/scott@dual_fixpoints</title>
<ellipse fill="#e6f3ff" stroke="black" cx="85" cy="-405" rx="61.19" ry="18"/>
<text text-anchor="middle" x="85" y="-401.3" font-family="Times,serif" font-size="14.00">dual_fixpoints</text>
</g>
<!-- nasalib/scott@dual_fixpoints&#45;&gt;nasalib/orders -->
<g id="edge5" class="edge">
<title>nasalib/scott@dual_fixpoints&#45;&gt;nasalib/orders</title>
<path fill="none" stroke="black" d="M141.98,-398.32C141.98,-366.17 141.98,-229 141.98,-229 141.98,-229 525,-229 525,-229 525,-229 525,-62.35 525,-62.35"/>
<polygon fill="black" stroke="black" points="528.5,-62.35 525,-52.35 521.5,-62.35 528.5,-62.35"/>
</g>
<!-- nasalib/scott@dual_fixpoints&#45;&gt;nasalib/scott@admissible -->
<g id="edge6" class="edge">
<title>nasalib/scott@dual_fixpoints&#45;&gt;nasalib/scott@admissible</title>
<path fill="none" stroke="black" d="M85,-386.83C85,-386.83 85,-361.41 85,-361.41"/>
<polygon fill="black" stroke="black" points="88.5,-361.41 85,-351.41 81.5,-361.41 88.5,-361.41"/>
</g>
<!-- nasalib/scott@dual_fixpoints&#45;&gt;nasalib/scott@fixpoints -->
<g id="edge7" class="edge">
<title>nasalib/scott@dual_fixpoints&#45;&gt;nasalib/scott@fixpoints</title>
<path fill="none" stroke="black" d="M33.17,-395.08C33.17,-363.43 33.17,-267 33.17,-267 33.17,-267 35.71,-267 35.71,-267"/>
<polygon fill="black" stroke="black" points="35.71,-270.5 45.71,-267 35.71,-263.5 35.71,-270.5"/>
</g>
<!-- nasalib/scott@dual_fixpoints&#45;&gt;nasalib/scott@scott_continuity -->
<g id="edge8" class="edge">
<title>nasalib/scott@dual_fixpoints&#45;&gt;nasalib/scott@scott_continuity</title>
<path fill="none" stroke="black" d="M137.86,-395.9C137.86,-357.55 137.86,-211 137.86,-211 137.86,-211 242.47,-211 242.47,-211 242.47,-211 242.47,-210.53 242.47,-210.53"/>
<polygon fill="black" stroke="black" points="245.97,-216.33 242.47,-206.33 238.97,-216.33 245.97,-216.33"/>
</g>
<!-- nasalib/scott@fixpoints&#45;&gt;nasalib/algebra -->
<g id="edge9" class="edge">
<title>nasalib/scott@fixpoints&#45;&gt;nasalib/algebra</title>
<path fill="none" stroke="black" d="M71.13,-243.99C71.13,-231.24 71.13,-216 71.13,-216 71.13,-216 337.86,-216 337.86,-216 337.86,-216 337.86,-62.12 337.86,-62.12"/>
<polygon fill="black" stroke="black" points="341.36,-62.12 337.86,-52.12 334.36,-62.12 341.36,-62.12"/>
</g>
<!-- nasalib/scott@fixpoints&#45;&gt;nasalib/orders -->
<g id="edge10" class="edge">
<title>nasalib/scott@fixpoints&#45;&gt;nasalib/orders</title>
<path fill="none" stroke="black" d="M98.87,-243.85C98.87,-232.61 98.87,-220 98.87,-220 98.87,-220 513,-220 513,-220 513,-220 513,-62.17 513,-62.17"/>
<polygon fill="black" stroke="black" points="516.5,-62.17 513,-52.17 509.5,-62.17 516.5,-62.17"/>
</g>
<!-- nasalib/scott@fun_preds_partial -->
<g id="node6" class="node">
<title>nasalib/scott@fun_preds_partial</title>
<ellipse fill="#e6f3ff" stroke="black" cx="242" cy="-117" rx="72.59" ry="18"/>
<text text-anchor="middle" x="242" y="-113.3" font-family="Times,serif" font-size="14.00">fun_preds_partial</text>
</g>
<!-- nasalib/scott@fixpoints&#45;&gt;nasalib/scott@fun_preds_partial -->
<g id="edge11" class="edge">
<title>nasalib/scott@fixpoints&#45;&gt;nasalib/scott@fun_preds_partial</title>
<path fill="none" stroke="black" d="M124.56,-255C143.21,-255 161.44,-255 161.44,-255 161.44,-255 161.44,-111 161.44,-111 161.44,-111 163.32,-111 163.32,-111"/>
<polygon fill="black" stroke="black" points="163.32,-114.5 173.32,-111 163.32,-107.5 163.32,-114.5"/>
</g>
<!-- nasalib/scott@fixpoints&#45;&gt;nasalib/scott@scott -->
<g id="edge12" class="edge">
<title>nasalib/scott@fixpoints&#45;&gt;nasalib/scott@scott</title>
<path fill="none" stroke="black" d="M45.67,-255C36.87,-255 30.08,-255 30.08,-255 30.08,-255 30.08,-123 30.08,-123 30.08,-123 64.99,-123 64.99,-123"/>
<polygon fill="black" stroke="black" points="64.99,-126.5 74.99,-123 64.99,-119.5 64.99,-126.5"/>
</g>
<!-- nasalib/scott@fixpoints&#45;&gt;nasalib/scott@scott_continuity -->
<g id="edge13" class="edge">
<title>nasalib/scott@fixpoints&#45;&gt;nasalib/scott@scott_continuity</title>
<path fill="none" stroke="black" d="M124.65,-267C144.09,-267 163.38,-267 163.38,-267 163.38,-267 163.38,-189 163.38,-189 163.38,-189 187.22,-189 187.22,-189"/>
<polygon fill="black" stroke="black" points="187.22,-192.5 197.22,-189 187.22,-185.5 187.22,-192.5"/>
</g>
<!-- nasalib/scott@partial_function_props -->
<g id="node7" class="node">
<title>nasalib/scott@partial_function_props</title>
<ellipse fill="#e6f3ff" stroke="black" cx="722" cy="-405" rx="90.98" ry="18"/>
<text text-anchor="middle" x="722" y="-401.3" font-family="Times,serif" font-size="14.00">partial_function_props</text>
</g>
<!-- nasalib/scott@partial_function_props&#45;&gt;nasalib/orders -->
<g id="edge14" class="edge">
<title>nasalib/scott@partial_function_props&#45;&gt;nasalib/orders</title>
<path fill="none" stroke="black" d="M630.95,-405C616.63,-405 606.45,-405 606.45,-405 606.45,-405 606.45,-40 606.45,-40 606.45,-40 553.14,-40 553.14,-40"/>
<polygon fill="black" stroke="black" points="553.14,-36.5 543.14,-40 553.14,-43.5 553.14,-36.5"/>
</g>
<!-- nasalib/scott@pointwise_orders_aux -->
<g id="node8" class="node">
<title>nasalib/scott@pointwise_orders_aux</title>
<ellipse fill="#e6f3ff" stroke="black" cx="260" cy="-261" rx="88.28" ry="18"/>
<text text-anchor="middle" x="260" y="-257.3" font-family="Times,serif" font-size="14.00">pointwise_orders_aux</text>
</g>
<!-- nasalib/scott@pointwise_orders_aux&#45;&gt;nasalib/orders -->
<g id="edge15" class="edge">
<title>nasalib/scott@pointwise_orders_aux&#45;&gt;nasalib/orders</title>
<path fill="none" stroke="black" d="M343.13,-254.74C343.13,-246.76 343.13,-234 343.13,-234 343.13,-234 531,-234 531,-234 531,-234 531,-62.1 531,-62.1"/>
<polygon fill="black" stroke="black" points="534.5,-62.1 531,-52.1 527.5,-62.1 534.5,-62.1"/>
</g>
<!-- nasalib/scott@pointwise_orders_aux&#45;&gt;nasalib/scott@scott_continuity -->
<g id="edge16" class="edge">
<title>nasalib/scott@pointwise_orders_aux&#45;&gt;nasalib/scott@scott_continuity</title>
<path fill="none" stroke="black" d="M287.53,-243.57C287.53,-243.57 287.53,-216.27 287.53,-216.27"/>
<polygon fill="black" stroke="black" points="291.03,-216.27 287.53,-206.27 284.03,-216.27 291.03,-216.27"/>
</g>
<!-- nasalib/scott@scott&#45;&gt;nasalib/orders -->
<g id="edge30" class="edge">
<title>nasalib/scott@scott&#45;&gt;nasalib/orders</title>
<path fill="none" stroke="black" d="M110.1,-100C110.1,-91.5 110.1,-83 110.1,-83 110.1,-83 495,-83 495,-83 495,-83 495,-62.25 495,-62.25"/>
<polygon fill="black" stroke="black" points="498.5,-62.25 495,-52.25 491.5,-62.25 498.5,-62.25"/>
</g>
<!-- nasalib/topology -->
<g id="node15" class="node">
<title>nasalib/topology</title>
<polygon fill="#fcfcd7" stroke="black" points="470.5,-52 405.5,-52 405.5,-16 470.5,-16 470.5,-52"/>
<text text-anchor="middle" x="438" y="-30.3" font-family="Times,serif" font-size="14.00">topology</text>
</g>
<!-- nasalib/scott@scott&#45;&gt;nasalib/topology -->
<g id="edge31" class="edge">
<title>nasalib/scott@scott&#45;&gt;nasalib/topology</title>
<path fill="none" stroke="black" d="M91.9,-99.79C91.9,-85.33 91.9,-67 91.9,-67 91.9,-67 418.5,-67 418.5,-67 418.5,-67 418.5,-62.04 418.5,-62.04"/>
<polygon fill="black" stroke="black" points="422,-62.04 418.5,-52.04 415,-62.04 422,-62.04"/>
</g>
<!-- nasalib/scott@scott_composition_continuity -->
<g id="node10" class="node">
<title>nasalib/scott@scott_composition_continuity</title>
<ellipse fill="#e6f3ff" stroke="black" cx="482" cy="-261" rx="115.88" ry="18"/>
<text text-anchor="middle" x="482" y="-257.3" font-family="Times,serif" font-size="14.00">scott_composition_continuity</text>
</g>
<!-- nasalib/scott@scott_composition_continuity&#45;&gt;nasalib/orders -->
<g id="edge17" class="edge">
<title>nasalib/scott@scott_composition_continuity&#45;&gt;nasalib/orders</title>
<path fill="none" stroke="black" d="M537,-245.04C537,-245.04 537,-62.12 537,-62.12"/>
<polygon fill="black" stroke="black" points="540.5,-62.12 537,-52.12 533.5,-62.12 540.5,-62.12"/>
</g>
<!-- nasalib/scott@scott_composition_continuity&#45;&gt;nasalib/scott@scott_continuity -->
<g id="edge18" class="edge">
<title>nasalib/scott@scott_composition_continuity&#45;&gt;nasalib/scott@scott_continuity</title>
<path fill="none" stroke="black" d="M376.66,-253.4C376.66,-236.84 376.66,-199 376.66,-199 376.66,-199 331.48,-199 331.48,-199"/>
<polygon fill="black" stroke="black" points="331.48,-195.5 321.48,-199 331.48,-202.5 331.48,-195.5"/>
</g>
<!-- nasalib/scott@scott_composition_continuity&#45;&gt;nasalib/topology -->
<g id="edge19" class="edge">
<title>nasalib/scott@scott_composition_continuity&#45;&gt;nasalib/topology</title>
<path fill="none" stroke="black" d="M444.5,-243.94C444.5,-243.94 444.5,-62.2 444.5,-62.2"/>
<polygon fill="black" stroke="black" points="448,-62.2 444.5,-52.2 441,-62.2 448,-62.2"/>
</g>
<!-- nasalib/scott@scott_continuity&#45;&gt;nasalib/orders -->
<g id="edge20" class="edge">
<title>nasalib/scott@scott_continuity&#45;&gt;nasalib/orders</title>
<path fill="none" stroke="black" d="M331.13,-185C402.78,-185 507,-185 507,-185 507,-185 507,-62.21 507,-62.21"/>
<polygon fill="black" stroke="black" points="510.5,-62.21 507,-52.21 503.5,-62.21 510.5,-62.21"/>
</g>
<!-- nasalib/scott@scott_continuity&#45;&gt;nasalib/scott@fun_preds_partial -->
<g id="edge21" class="edge">
<title>nasalib/scott@scott_continuity&#45;&gt;nasalib/scott@fun_preds_partial</title>
<path fill="none" stroke="black" d="M256.1,-170.83C256.1,-170.83 256.1,-144.91 256.1,-144.91"/>
<polygon fill="black" stroke="black" points="259.6,-144.91 256.1,-134.91 252.6,-144.91 259.6,-144.91"/>
</g>
<!-- nasalib/scott@scott_continuity&#45;&gt;nasalib/scott@scott -->
<g id="edge22" class="edge">
<title>nasalib/scott@scott_continuity&#45;&gt;nasalib/scott@scott</title>
<path fill="none" stroke="black" d="M206.45,-180C185.64,-180 167.26,-180 167.26,-180 167.26,-180 167.26,-123 167.26,-123 167.26,-123 136.81,-123 136.81,-123"/>
<polygon fill="black" stroke="black" points="136.81,-119.5 126.81,-123 136.81,-126.5 136.81,-119.5"/>
</g>
<!-- nasalib/structures -->
<g id="node14" class="node">
<title>nasalib/structures</title>
<polygon fill="#fcfcd7" stroke="black" points="312.5,-52 243.5,-52 243.5,-16 312.5,-16 312.5,-52"/>
<text text-anchor="middle" x="278" y="-30.3" font-family="Times,serif" font-size="14.00">structures</text>
</g>
<!-- nasalib/scott@scott_continuity&#45;&gt;nasalib/structures -->
<g id="edge23" class="edge">
<title>nasalib/scott@scott_continuity&#45;&gt;nasalib/structures</title>
<path fill="none" stroke="black" d="M322.9,-179.3C322.9,-145.37 322.9,-34 322.9,-34 322.9,-34 321.9,-34 321.9,-34"/>
<polygon fill="black" stroke="black" points="322.93,-30.5 312.93,-34 322.93,-37.5 322.93,-30.5"/>
</g>
<!-- nasalib/scott@scott_continuity&#45;&gt;nasalib/topology -->
<g id="edge24" class="edge">
<title>nasalib/scott@scott_continuity&#45;&gt;nasalib/topology</title>
<path fill="none" stroke="black" d="M318.6,-178C367.27,-178 431.5,-178 431.5,-178 431.5,-178 431.5,-62.24 431.5,-62.24"/>
<polygon fill="black" stroke="black" points="435,-62.24 431.5,-52.24 428,-62.24 435,-62.24"/>
</g>
<!-- nasalib/scott@scott_identity_continuity -->
<g id="node12" class="node">
<title>nasalib/scott@scott_identity_continuity</title>
<ellipse fill="#e6f3ff" stroke="black" cx="714" cy="-261" rx="98.58" ry="18"/>
<text text-anchor="middle" x="714" y="-257.3" font-family="Times,serif" font-size="14.00">scott_identity_continuity</text>
</g>
<!-- nasalib/scott@scott_identity_continuity&#45;&gt;nasalib/orders -->
<g id="edge25" class="edge">
<title>nasalib/scott@scott_identity_continuity&#45;&gt;nasalib/orders</title>
<path fill="none" stroke="black" d="M763.4,-245.35C763.4,-193.11 763.4,-28 763.4,-28 763.4,-28 553.42,-28 553.42,-28"/>
<polygon fill="black" stroke="black" points="553.42,-24.5 543.42,-28 553.42,-31.5 553.42,-24.5"/>
</g>
<!-- nasalib/scott@scott_identity_continuity&#45;&gt;nasalib/scott@scott_continuity -->
<g id="edge26" class="edge">
<title>nasalib/scott@scott_identity_continuity&#45;&gt;nasalib/scott@scott_continuity</title>
<path fill="none" stroke="black" d="M714,-242.87C714,-222.43 714,-192 714,-192 714,-192 341.74,-192 341.74,-192"/>
<polygon fill="black" stroke="black" points="341.74,-188.5 331.74,-192 341.73,-195.5 341.74,-188.5"/>
</g>
<!-- nasalib/scott@scott_identity_continuity&#45;&gt;nasalib/topology -->
<g id="edge27" class="edge">
<title>nasalib/scott@scott_identity_continuity&#45;&gt;nasalib/topology</title>
<path fill="none" stroke="black" d="M664.6,-245.28C664.6,-241.23 664.6,-238 664.6,-238 664.6,-238 457.5,-238 457.5,-238 457.5,-238 457.5,-62.1 457.5,-62.1"/>
<polygon fill="black" stroke="black" points="461,-62.1 457.5,-52.1 454,-62.1 461,-62.1"/>
</g>
<!-- nasalib/scott@scott_product -->
<g id="node13" class="node">
<title>nasalib/scott@scott_product</title>
<ellipse fill="#e6f3ff" stroke="black" cx="101" cy="-189" rx="58.49" ry="18"/>
<text text-anchor="middle" x="101" y="-185.3" font-family="Times,serif" font-size="14.00">scott_product</text>
</g>
<!-- nasalib/scott@scott_product&#45;&gt;nasalib/orders -->
<g id="edge28" class="edge">
<title>nasalib/scott@scott_product&#45;&gt;nasalib/orders</title>
<path fill="none" stroke="black" d="M143.9,-176.41C143.9,-166.03 143.9,-153 143.9,-153 143.9,-153 501,-153 501,-153 501,-153 501,-62.07 501,-62.07"/>
<polygon fill="black" stroke="black" points="504.5,-62.07 501,-52.07 497.5,-62.07 504.5,-62.07"/>
</g>
<!-- nasalib/scott@scott_product&#45;&gt;nasalib/scott@scott -->
<g id="edge29" class="edge">
<title>nasalib/scott@scott_product&#45;&gt;nasalib/scott@scott</title>
<path fill="none" stroke="black" d="M101,-170.83C101,-170.83 101,-145.41 101,-145.41"/>
<polygon fill="black" stroke="black" points="104.5,-145.41 101,-135.41 97.5,-145.41 104.5,-145.41"/>
</g>
</g>
</svg>
