<?xml version="1.0" encoding="UTF-8" standalone="no"?>
<!DOCTYPE svg PUBLIC "-//W3C//DTD SVG 1.1//EN"
 "http://www.w3.org/Graphics/SVG/1.1/DTD/svg11.dtd">
<!-- Generated by graphviz version 7.0.6 (20230106.0513)
 -->
<!-- Title: series&#45;zoomed Pages: 1 -->
<svg width="737pt" height="614pt"
 viewBox="0.00 0.00 737.00 614.00" xmlns="http://www.w3.org/2000/svg" xmlns:xlink="http://www.w3.org/1999/xlink">
<g id="graph0" class="graph" transform="scale(1 1) rotate(0) translate(4 610)">
<title>series&#45;zoomed</title>
<polygon fill="white" stroke="none" points="-4,4 -4,-610 733,-610 733,4 -4,4"/>
<g id="clust2" class="cluster">
<title>cluster_NASALib/series</title>
<polygon fill="none" stroke="black" points="8,-91 8,-598 550,-598 550,-91 8,-91"/>
<text text-anchor="middle" x="279" y="-582.8" font-family="Times,serif" font-size="14.00">NASALib/series</text>
</g>
<g id="clust1" class="cluster">
<title>cluster_NASALib</title>
<polygon fill="none" stroke="black" points="429,-8 429,-83 721,-83 721,-8 429,-8"/>
<text text-anchor="middle" x="575" y="-67.8" font-family="Times,serif" font-size="14.00">NASALib</text>
</g>
<!-- NASALib/analysis -->
<g id="node1" class="node">
<title>NASALib/analysis</title>
<polygon fill="#fcfcd7" stroke="black" points="713,-52 653,-52 653,-16 713,-16 713,-52"/>
<text text-anchor="middle" x="683" y="-30.3" font-family="Times,serif" font-size="14.00">analysis</text>
</g>
<!-- NASALib/ints -->
<g id="node2" class="node">
<title>NASALib/ints</title>
<polygon fill="#fcfcd7" stroke="black" points="635,-52 581,-52 581,-16 635,-16 635,-52"/>
<text text-anchor="middle" x="608" y="-30.3" font-family="Times,serif" font-size="14.00">ints</text>
</g>
<!-- NASALib/orders -->
<g id="node3" class="node">
<title>NASALib/orders</title>
<polygon fill="#fcfcd7" stroke="black" points="563,-52 509,-52 509,-16 563,-16 563,-52"/>
<text text-anchor="middle" x="536" y="-30.3" font-family="Times,serif" font-size="14.00">orders</text>
</g>
<!-- NASALib/reals -->
<g id="node4" class="node">
<title>NASALib/reals</title>
<polygon fill="#fcfcd7" stroke="black" points="491,-52 437,-52 437,-16 491,-16 491,-52"/>
<text text-anchor="middle" x="464" y="-30.3" font-family="Times,serif" font-size="14.00">reals</text>
</g>
<!-- NASALib/series@absconv_series -->
<g id="node5" class="node">
<title>NASALib/series@absconv_series</title>
<ellipse fill="#e6f3ff" stroke="black" cx="478" cy="-261" rx="63.89" ry="18"/>
<text text-anchor="middle" x="478" y="-257.3" font-family="Times,serif" font-size="14.00">absconv_series</text>
</g>
<!-- NASALib/series@series_lems -->
<g id="node14" class="node">
<title>NASALib/series@series_lems</title>
<ellipse fill="#e6f3ff" stroke="black" cx="478" cy="-189" rx="51.99" ry="18"/>
<text text-anchor="middle" x="478" y="-185.3" font-family="Times,serif" font-size="14.00">series_lems</text>
</g>
<!-- NASALib/series@absconv_series&#45;&gt;NASALib/series@series_lems -->
<g id="edge1" class="edge">
<title>NASALib/series@absconv_series&#45;&gt;NASALib/series@series_lems</title>
<path fill="none" stroke="black" d="M478,-242.7C478,-235.41 478,-226.73 478,-218.54"/>
<polygon fill="black" stroke="black" points="481.5,-218.62 478,-208.62 474.5,-218.62 481.5,-218.62"/>
</g>
<!-- NASALib/series@power_series -->
<g id="node6" class="node">
<title>NASALib/series@power_series</title>
<ellipse fill="#e6f3ff" stroke="black" cx="351" cy="-189" rx="57.39" ry="18"/>
<text text-anchor="middle" x="351" y="-185.3" font-family="Times,serif" font-size="14.00">power_series</text>
</g>
<!-- NASALib/series@power_series&#45;&gt;NASALib/ints -->
<g id="edge2" class="edge">
<title>NASALib/series@power_series&#45;&gt;NASALib/ints</title>
<path fill="none" stroke="black" d="M477,-116C477,-116 572,-83 572,-83 572,-83 579.9,-72.46 588.3,-61.26"/>
<polygon fill="black" stroke="black" points="590.9,-63.64 594.1,-53.54 585.3,-59.44 590.9,-63.64"/>
</g>
<!-- NASALib/series@power_series&#45;&gt;NASALib/reals -->
<g id="edge3" class="edge">
<title>NASALib/series@power_series&#45;&gt;NASALib/reals</title>
<path fill="none" stroke="black" d="M378.34,-172.81C415.4,-152.22 477,-118 477,-118"/>
<path fill="none" stroke="black" d="M477,-116C477,-116 472.3,-86.69 468.55,-63.34"/>
<polygon fill="black" stroke="black" points="472.04,-62.99 467,-53.67 465.13,-64.1 472.04,-62.99"/>
</g>
<!-- NASALib/series@series -->
<g id="node12" class="node">
<title>NASALib/series@series</title>
<ellipse fill="#e6f3ff" stroke="black" cx="351" cy="-117" rx="30.59" ry="18"/>
<text text-anchor="middle" x="351" y="-113.3" font-family="Times,serif" font-size="14.00">series</text>
</g>
<!-- NASALib/series@power_series&#45;&gt;NASALib/series@series -->
<g id="edge4" class="edge">
<title>NASALib/series@power_series&#45;&gt;NASALib/series@series</title>
<path fill="none" stroke="black" d="M351,-170.7C351,-163.41 351,-154.73 351,-146.54"/>
<polygon fill="black" stroke="black" points="354.5,-146.62 351,-136.62 347.5,-146.62 354.5,-146.62"/>
</g>
<!-- NASALib/series@power_series_conv -->
<g id="node7" class="node">
<title>NASALib/series@power_series_conv</title>
<ellipse fill="#e6f3ff" stroke="black" cx="318" cy="-261" rx="78.79" ry="18"/>
<text text-anchor="middle" x="318" y="-257.3" font-family="Times,serif" font-size="14.00">power_series_conv</text>
</g>
<!-- NASALib/series@power_series_conv&#45;&gt;NASALib/analysis -->
<g id="edge5" class="edge">
<title>NASALib/series@power_series_conv&#45;&gt;NASALib/analysis</title>
<path fill="none" stroke="black" d="M370.94,-247.31C436.32,-231.63 539,-207 539,-207 539,-207 570,-190 570,-190"/>
<path fill="none" stroke="black" d="M570,-188C570,-188 594,-91 594,-91 594,-91 644,-83 644,-83 644,-83 652.56,-72.46 661.66,-61.26"/>
<polygon fill="black" stroke="black" points="664.38,-63.47 667.97,-53.5 658.94,-59.06 664.38,-63.47"/>
</g>
<!-- NASALib/series@power_series_conv&#45;&gt;NASALib/series@power_series -->
<g id="edge6" class="edge">
<title>NASALib/series@power_series_conv&#45;&gt;NASALib/series@power_series</title>
<path fill="none" stroke="black" d="M326.16,-242.7C329.75,-235.07 334.07,-225.92 338.08,-217.4"/>
<polygon fill="black" stroke="black" points="341.19,-219.01 342.29,-208.47 334.86,-216.03 341.19,-219.01"/>
</g>
<!-- NASALib/series@power_series_deriv -->
<g id="node8" class="node">
<title>NASALib/series@power_series_deriv</title>
<ellipse fill="#e6f3ff" stroke="black" cx="345" cy="-477" rx="79.09" ry="18"/>
<text text-anchor="middle" x="345" y="-473.3" font-family="Times,serif" font-size="14.00">power_series_deriv</text>
</g>
<!-- NASALib/series@power_series_deriv&#45;&gt;NASALib/analysis -->
<g id="edge7" class="edge">
<title>NASALib/series@power_series_deriv&#45;&gt;NASALib/analysis</title>
<path fill="none" stroke="black" d="M567,-404C567,-404 599,-351 599,-351 599,-351 646,-262 646,-262 646,-262 646,-262 646,-188 646,-188 665.43,-107.67 676.13,-63.42"/>
<polygon fill="black" stroke="black" points="679.52,-64.27 678.47,-53.72 672.72,-62.62 679.52,-64.27"/>
<path fill="none" stroke="black" d="M395.7,-462.76C455.83,-447.06 548,-423 548,-423 548,-423 567,-406 567,-406"/>
</g>
<!-- NASALib/series@power_series_deriv_scaf -->
<g id="node9" class="node">
<title>NASALib/series@power_series_deriv_scaf</title>
<ellipse fill="#e6f3ff" stroke="black" cx="345" cy="-405" rx="98.28" ry="18"/>
<text text-anchor="middle" x="345" y="-401.3" font-family="Times,serif" font-size="14.00">power_series_deriv_scaf</text>
</g>
<!-- NASALib/series@power_series_deriv&#45;&gt;NASALib/series@power_series_deriv_scaf -->
<g id="edge8" class="edge">
<title>NASALib/series@power_series_deriv&#45;&gt;NASALib/series@power_series_deriv_scaf</title>
<path fill="none" stroke="black" d="M345,-458.7C345,-451.41 345,-442.73 345,-434.54"/>
<polygon fill="black" stroke="black" points="348.5,-434.62 345,-424.62 341.5,-434.62 348.5,-434.62"/>
</g>
<!-- NASALib/series@power_series_derivseq -->
<g id="node10" class="node">
<title>NASALib/series@power_series_derivseq</title>
<ellipse fill="#e6f3ff" stroke="black" cx="318" cy="-333" rx="90.98" ry="18"/>
<text text-anchor="middle" x="318" y="-329.3" font-family="Times,serif" font-size="14.00">power_series_derivseq</text>
</g>
<!-- NASALib/series@power_series_deriv&#45;&gt;NASALib/series@power_series_derivseq -->
<g id="edge9" class="edge">
<title>NASALib/series@power_series_deriv&#45;&gt;NASALib/series@power_series_derivseq</title>
<path fill="none" stroke="black" d="M312.9,-460.1C281.38,-444.49 238,-423 238,-423 238,-423 238,-387 238,-387 238,-387 261.71,-371.29 283.32,-356.98"/>
<polygon fill="black" stroke="black" points="285.02,-360.05 291.43,-351.61 281.16,-354.21 285.02,-360.05"/>
</g>
<!-- NASALib/series@power_series_deriv_scaf&#45;&gt;NASALib/analysis -->
<g id="edge10" class="edge">
<title>NASALib/series@power_series_deriv_scaf&#45;&gt;NASALib/analysis</title>
<path fill="none" stroke="black" d="M401.01,-389.8C462.92,-374.1 554,-351 554,-351 554,-351 570,-262 570,-262"/>
</g>
<!-- NASALib/series@power_series_deriv_scaf&#45;&gt;NASALib/series@power_series_derivseq -->
<g id="edge11" class="edge">
<title>NASALib/series@power_series_deriv_scaf&#45;&gt;NASALib/series@power_series_derivseq</title>
<path fill="none" stroke="black" d="M338.33,-386.7C335.42,-379.15 331.93,-370.12 328.68,-361.68"/>
<polygon fill="black" stroke="black" points="332.01,-360.59 325.14,-352.52 325.48,-363.11 332.01,-360.59"/>
</g>
<!-- NASALib/series@power_series_derivseq&#45;&gt;NASALib/analysis -->
<g id="edge12" class="edge">
<title>NASALib/series@power_series_derivseq&#45;&gt;NASALib/analysis</title>
<path fill="none" stroke="black" d="M376.64,-318.83C446.53,-303.13 554,-279 554,-279 554,-279 570,-262 570,-262"/>
<path fill="none" stroke="black" d="M570,-260C570,-260 570,-190 570,-190"/>
</g>
<!-- NASALib/series@power_series_derivseq&#45;&gt;NASALib/series@power_series_conv -->
<g id="edge13" class="edge">
<title>NASALib/series@power_series_derivseq&#45;&gt;NASALib/series@power_series_conv</title>
<path fill="none" stroke="black" d="M318,-314.7C318,-307.41 318,-298.73 318,-290.54"/>
<polygon fill="black" stroke="black" points="321.5,-290.62 318,-280.62 314.5,-290.62 321.5,-290.62"/>
</g>
<!-- NASALib/series@power_series_integ -->
<g id="node11" class="node">
<title>NASALib/series@power_series_integ</title>
<ellipse fill="#e6f3ff" stroke="black" cx="208" cy="-549" rx="79.09" ry="18"/>
<text text-anchor="middle" x="208" y="-545.3" font-family="Times,serif" font-size="14.00">power_series_integ</text>
</g>
<!-- NASALib/series@power_series_integ&#45;&gt;NASALib/analysis -->
<g id="edge14" class="edge">
<title>NASALib/series@power_series_integ&#45;&gt;NASALib/analysis</title>
<path fill="none" stroke="black" d="M266.7,-536.66C282.84,-533.54 296,-531 296,-531 296,-531 497,-495 497,-495 497,-495 511,-478 511,-478"/>
<path fill="none" stroke="black" d="M511,-476C511,-476 567,-406 567,-406"/>
</g>
<!-- NASALib/series@power_series_integ&#45;&gt;NASALib/series@power_series_conv -->
<g id="edge15" class="edge">
<title>NASALib/series@power_series_integ&#45;&gt;NASALib/series@power_series_conv</title>
<path fill="none" stroke="black" d="M208.74,-530.87C211.04,-477.06 218,-315 218,-315 218,-315 249.96,-298.06 277.74,-283.34"/>
<polygon fill="black" stroke="black" points="279.19,-286.53 286.39,-278.75 275.91,-280.34 279.19,-286.53"/>
</g>
<!-- NASALib/series@power_series_integ&#45;&gt;NASALib/series@power_series_deriv -->
<g id="edge16" class="edge">
<title>NASALib/series@power_series_integ&#45;&gt;NASALib/series@power_series_deriv</title>
<path fill="none" stroke="black" d="M239.09,-532.12C258.27,-522.32 283.09,-509.63 303.89,-499.01"/>
<polygon fill="black" stroke="black" points="305.38,-502.18 312.69,-494.51 302.19,-495.94 305.38,-502.18"/>
</g>
<!-- NASALib/series@series&#45;&gt;NASALib/analysis -->
<g id="edge17" class="edge">
<title>NASALib/series@series&#45;&gt;NASALib/analysis</title>
<path fill="none" stroke="black" d="M379.26,-109.69C412.44,-102.29 463,-91 463,-91 463,-91 644,-83 644,-83 644,-83 652.56,-72.46 661.66,-61.26"/>
<polygon fill="black" stroke="black" points="664.38,-63.47 667.97,-53.5 658.94,-59.06 664.38,-63.47"/>
</g>
<!-- NASALib/series@series&#45;&gt;NASALib/reals -->
<g id="edge18" class="edge">
<title>NASALib/series@series&#45;&gt;NASALib/reals</title>
<path fill="none" stroke="black" d="M369.91,-102.44C386.44,-90.6 410.81,-73.13 430.6,-58.94"/>
<polygon fill="black" stroke="black" points="432.58,-61.83 438.67,-53.16 428.5,-56.14 432.58,-61.83"/>
</g>
<!-- NASALib/series@series_aux -->
<g id="node13" class="node">
<title>NASALib/series@series_aux</title>
<ellipse fill="#e6f3ff" stroke="black" cx="228" cy="-189" rx="48.19" ry="18"/>
<text text-anchor="middle" x="228" y="-185.3" font-family="Times,serif" font-size="14.00">series_aux</text>
</g>
<!-- NASALib/series@series_aux&#45;&gt;NASALib/orders -->
<g id="edge19" class="edge">
<title>NASALib/series@series_aux&#45;&gt;NASALib/orders</title>
<path fill="none" stroke="black" d="M263.37,-176.5C311.31,-160.91 391,-135 391,-135 391,-135 463,-91 463,-91 463,-91 500,-83 500,-83 500,-83 507.9,-72.46 516.3,-61.26"/>
<polygon fill="black" stroke="black" points="518.9,-63.64 522.1,-53.54 513.3,-59.44 518.9,-63.64"/>
</g>
<!-- NASALib/series@series_aux&#45;&gt;NASALib/series@series -->
<g id="edge20" class="edge">
<title>NASALib/series@series_aux&#45;&gt;NASALib/series@series</title>
<path fill="none" stroke="black" d="M253.78,-173.33C273.07,-162.35 299.52,-147.3 319.97,-135.66"/>
<polygon fill="black" stroke="black" points="321.48,-138.83 328.44,-130.84 318.01,-132.75 321.48,-138.83"/>
</g>
<!-- NASALib/series@series_lems&#45;&gt;NASALib/orders -->
<g id="edge21" class="edge">
<title>NASALib/series@series_lems&#45;&gt;NASALib/orders</title>
<path fill="none" stroke="black" d="M484.54,-170.75C494.46,-144.58 513.42,-94.57 525.35,-63.1"/>
<polygon fill="black" stroke="black" points="528.59,-64.43 528.86,-53.84 522.04,-61.95 528.59,-64.43"/>
</g>
<!-- NASALib/series@series_lems&#45;&gt;NASALib/series@series -->
<g id="edge22" class="edge">
<title>NASALib/series@series_lems&#45;&gt;NASALib/series@series</title>
<path fill="none" stroke="black" d="M451.07,-173.15C431.13,-162.17 403.91,-147.16 382.89,-135.58"/>
<polygon fill="black" stroke="black" points="384.6,-132.53 374.16,-130.76 381.23,-138.66 384.6,-132.53"/>
</g>
<!-- NASALib/series@taylor_series -->
<g id="node15" class="node">
<title>NASALib/series@taylor_series</title>
<ellipse fill="#e6f3ff" stroke="black" cx="361" cy="-549" rx="55.79" ry="18"/>
<text text-anchor="middle" x="361" y="-545.3" font-family="Times,serif" font-size="14.00">taylor_series</text>
</g>
<!-- NASALib/series@taylor_series&#45;&gt;NASALib/analysis -->
<g id="edge23" class="edge">
<title>NASALib/series@taylor_series&#45;&gt;NASALib/analysis</title>
<path fill="none" stroke="black" d="M395.67,-534.49C435.96,-518.79 497,-495 497,-495 497,-495 511,-478 511,-478"/>
</g>
<!-- NASALib/series@taylor_series&#45;&gt;NASALib/series@power_series_deriv -->
<g id="edge24" class="edge">
<title>NASALib/series@taylor_series&#45;&gt;NASALib/series@power_series_deriv</title>
<path fill="none" stroke="black" d="M357.04,-530.7C355.36,-523.32 353.35,-514.52 351.46,-506.25"/>
<polygon fill="black" stroke="black" points="354.89,-505.55 349.25,-496.58 348.06,-507.11 354.89,-505.55"/>
</g>
<!-- NASALib/series@triangle_numbers -->
<g id="node16" class="node">
<title>NASALib/series@triangle_numbers</title>
<ellipse fill="#e6f3ff" stroke="black" cx="89" cy="-189" rx="72.59" ry="18"/>
<text text-anchor="middle" x="89" y="-185.3" font-family="Times,serif" font-size="14.00">triangle_numbers</text>
</g>
<!-- NASALib/series@triangle_numbers&#45;&gt;NASALib/series@series -->
<g id="edge25" class="edge">
<title>NASALib/series@triangle_numbers&#45;&gt;NASALib/series@series</title>
<path fill="none" stroke="black" d="M137.05,-175.16C187.55,-161.67 265.98,-140.72 312.54,-128.28"/>
<polygon fill="black" stroke="black" points="313.15,-131.73 321.91,-125.77 311.34,-124.97 313.15,-131.73"/>
</g>
<!-- NASALib/series@trig_fun -->
<g id="node17" class="node">
<title>NASALib/series@trig_fun</title>
<ellipse fill="#e6f3ff" stroke="black" cx="500" cy="-405" rx="38.99" ry="18"/>
<text text-anchor="middle" x="500" y="-401.3" font-family="Times,serif" font-size="14.00">trig_fun</text>
</g>
<!-- NASALib/series@trig_fun&#45;&gt;NASALib/analysis -->
<g id="edge26" class="edge">
<title>NASALib/series@trig_fun&#45;&gt;NASALib/analysis</title>
<path fill="none" stroke="black" d="M522.07,-390.07C546.96,-374.37 584,-351 584,-351 584,-351 608,-118 608,-118"/>
<path fill="none" stroke="black" d="M608,-116C608,-116 632,-91 632,-91 632,-91 644,-83 644,-83 644,-83 652.56,-72.46 661.66,-61.26"/>
<polygon fill="black" stroke="black" points="664.38,-63.47 667.97,-53.5 658.94,-59.06 664.38,-63.47"/>
</g>
<!-- NASALib/series@trig_fun&#45;&gt;NASALib/ints -->
<g id="edge27" class="edge">
<title>NASALib/series@trig_fun&#45;&gt;NASALib/ints</title>
<path fill="none" stroke="black" d="M608,-116C608,-116 608,-86.96 608,-63.66"/>
<polygon fill="black" stroke="black" points="611.5,-63.69 608,-53.69 604.5,-63.69 611.5,-63.69"/>
</g>
<!-- NASALib/series@trig_fun&#45;&gt;NASALib/series@power_series_conv -->
<g id="edge28" class="edge">
<title>NASALib/series@trig_fun&#45;&gt;NASALib/series@power_series_conv</title>
<path fill="none" stroke="black" d="M485.34,-388.09C461.75,-362.49 418,-315 418,-315 418,-315 386.04,-298.06 358.26,-283.34"/>
<polygon fill="black" stroke="black" points="360.09,-280.34 349.61,-278.75 356.81,-286.53 360.09,-280.34"/>
</g>
<!-- NASALib/series@trig_props -->
<g id="node18" class="node">
<title>NASALib/series@trig_props</title>
<ellipse fill="#e6f3ff" stroke="black" cx="482" cy="-549" rx="46.59" ry="18"/>
<text text-anchor="middle" x="482" y="-545.3" font-family="Times,serif" font-size="14.00">trig_props</text>
</g>
<!-- NASALib/series@trig_props&#45;&gt;NASALib/analysis -->
<g id="edge29" class="edge">
<title>NASALib/series@trig_props&#45;&gt;NASALib/analysis</title>
<path fill="none" stroke="black" d="M489.02,-531.05C497.6,-510.34 511,-478 511,-478"/>
</g>
<!-- NASALib/series@trig_props&#45;&gt;NASALib/series@power_series_deriv -->
<g id="edge30" class="edge">
<title>NASALib/series@trig_props&#45;&gt;NASALib/series@power_series_deriv</title>
<path fill="none" stroke="black" d="M454.61,-534C435.06,-524.01 408.42,-510.4 386.3,-499.1"/>
<polygon fill="black" stroke="black" points="388.02,-496.05 377.52,-494.62 384.84,-502.29 388.02,-496.05"/>
</g>
<!-- NASALib/series@trig_props&#45;&gt;NASALib/series@trig_fun -->
<g id="edge31" class="edge">
<title>NASALib/series@trig_props&#45;&gt;NASALib/series@trig_fun</title>
<path fill="none" stroke="black" d="M484.21,-530.59C487.25,-506.61 492.76,-463.14 496.4,-434.42"/>
<polygon fill="black" stroke="black" points="499.86,-434.97 497.64,-424.61 492.91,-434.09 499.86,-434.97"/>
</g>
</g>
</svg>
