<?xml version="1.0" encoding="UTF-8" standalone="no"?>
<!DOCTYPE svg PUBLIC "-//W3C//DTD SVG 1.1//EN"
 "http://www.w3.org/Graphics/SVG/1.1/DTD/svg11.dtd">
<!-- Generated by graphviz version 2.44.1 (20200629.0846)
 -->
<!-- Title: series&#45;zoomed Pages: 1 -->
<svg width="737pt" height="614pt"
 viewBox="0.00 0.00 737.00 614.00" xmlns="http://www.w3.org/2000/svg" xmlns:xlink="http://www.w3.org/1999/xlink">
<g id="graph0" class="graph" transform="scale(1 1) rotate(0) translate(4 610)">
<title>series&#45;zoomed</title>
<polygon fill="white" stroke="transparent" points="-4,4 -4,-610 733,-610 733,4 -4,4"/>
<g id="clust1" class="cluster">
<title>cluster_NASALib</title>
<polygon fill="none" stroke="black" points="429,-8 429,-83 721,-83 721,-8 429,-8"/>
<text text-anchor="middle" x="575" y="-67.8" font-family="Times,serif" font-size="14.00">NASALib</text>
</g>
<g id="clust2" class="cluster">
<title>cluster_NASALib/series</title>
<polygon fill="none" stroke="black" points="8,-91 8,-598 550,-598 550,-91 8,-91"/>
<text text-anchor="middle" x="279" y="-582.8" font-family="Times,serif" font-size="14.00">NASALib/series</text>
</g>
<!-- nasalib/analysis -->
<g id="node1" class="node">
<title>nasalib/analysis</title>
<polygon fill="#fcfcd7" stroke="black" points="713,-52 653,-52 653,-16 713,-16 713,-52"/>
<text text-anchor="middle" x="683" y="-30.3" font-family="Times,serif" font-size="14.00">analysis</text>
</g>
<!-- nasalib/ints -->
<g id="node2" class="node">
<title>nasalib/ints</title>
<polygon fill="#fcfcd7" stroke="black" points="635,-52 581,-52 581,-16 635,-16 635,-52"/>
<text text-anchor="middle" x="608" y="-30.3" font-family="Times,serif" font-size="14.00">ints</text>
</g>
<!-- nasalib/orders -->
<g id="node3" class="node">
<title>nasalib/orders</title>
<polygon fill="#fcfcd7" stroke="black" points="563,-52 509,-52 509,-16 563,-16 563,-52"/>
<text text-anchor="middle" x="536" y="-30.3" font-family="Times,serif" font-size="14.00">orders</text>
</g>
<!-- nasalib/reals -->
<g id="node4" class="node">
<title>nasalib/reals</title>
<polygon fill="#fcfcd7" stroke="black" points="491,-52 437,-52 437,-16 491,-16 491,-52"/>
<text text-anchor="middle" x="464" y="-30.3" font-family="Times,serif" font-size="14.00">reals</text>
</g>
<!-- nasalib/series@absconv_series -->
<g id="node5" class="node">
<title>nasalib/series@absconv_series</title>
<ellipse fill="#e6f3ff" stroke="black" cx="478" cy="-261" rx="63.89" ry="18"/>
<text text-anchor="middle" x="478" y="-257.3" font-family="Times,serif" font-size="14.00">absconv_series</text>
</g>
<!-- nasalib/series@series_lems -->
<g id="node14" class="node">
<title>nasalib/series@series_lems</title>
<ellipse fill="#e6f3ff" stroke="black" cx="478" cy="-189" rx="51.99" ry="18"/>
<text text-anchor="middle" x="478" y="-185.3" font-family="Times,serif" font-size="14.00">series_lems</text>
</g>
<!-- nasalib/series@absconv_series&#45;&gt;nasalib/series@series_lems -->
<g id="edge1" class="edge">
<title>nasalib/series@absconv_series&#45;&gt;nasalib/series@series_lems</title>
<path fill="none" stroke="black" d="M478,-242.83C478,-242.83 478,-217.41 478,-217.41"/>
<polygon fill="black" stroke="black" points="481.5,-217.41 478,-207.41 474.5,-217.41 481.5,-217.41"/>
</g>
<!-- nasalib/series@power_series -->
<g id="node6" class="node">
<title>nasalib/series@power_series</title>
<ellipse fill="#e6f3ff" stroke="black" cx="351" cy="-189" rx="57.39" ry="18"/>
<text text-anchor="middle" x="351" y="-185.3" font-family="Times,serif" font-size="14.00">power_series</text>
</g>
<!-- nasalib/series@power_series&#45;&gt;nasalib/ints -->
<g id="edge14" class="edge">
<title>nasalib/series@power_series&#45;&gt;nasalib/ints</title>
<path fill="none" stroke="black" d="M399.31,-179.22C399.31,-152.98 399.31,-83 399.31,-83 399.31,-83 599,-83 599,-83 599,-83 599,-62.25 599,-62.25"/>
<polygon fill="black" stroke="black" points="602.5,-62.25 599,-52.25 595.5,-62.25 602.5,-62.25"/>
</g>
<!-- nasalib/series@power_series&#45;&gt;nasalib/reals -->
<g id="edge15" class="edge">
<title>nasalib/series@power_series&#45;&gt;nasalib/reals</title>
<path fill="none" stroke="black" d="M390.43,-175.78C390.43,-138.3 390.43,-34 390.43,-34 390.43,-34 426.61,-34 426.61,-34"/>
<polygon fill="black" stroke="black" points="426.61,-37.5 436.61,-34 426.61,-30.5 426.61,-37.5"/>
</g>
<!-- nasalib/series@series -->
<g id="node12" class="node">
<title>nasalib/series@series</title>
<ellipse fill="#e6f3ff" stroke="black" cx="351" cy="-117" rx="30.59" ry="18"/>
<text text-anchor="middle" x="351" y="-113.3" font-family="Times,serif" font-size="14.00">series</text>
</g>
<!-- nasalib/series@power_series&#45;&gt;nasalib/series@series -->
<g id="edge16" class="edge">
<title>nasalib/series@power_series&#45;&gt;nasalib/series@series</title>
<path fill="none" stroke="black" d="M351,-170.83C351,-170.83 351,-145.41 351,-145.41"/>
<polygon fill="black" stroke="black" points="354.5,-145.41 351,-135.41 347.5,-145.41 354.5,-145.41"/>
</g>
<!-- nasalib/series@power_series_conv -->
<g id="node7" class="node">
<title>nasalib/series@power_series_conv</title>
<ellipse fill="#e6f3ff" stroke="black" cx="318" cy="-261" rx="78.79" ry="18"/>
<text text-anchor="middle" x="318" y="-257.3" font-family="Times,serif" font-size="14.00">power_series_conv</text>
</g>
<!-- nasalib/series@power_series_conv&#45;&gt;nasalib/analysis -->
<g id="edge2" class="edge">
<title>nasalib/series@power_series_conv&#45;&gt;nasalib/analysis</title>
<path fill="none" stroke="black" d="M362.36,-245.94C362.36,-236.08 362.36,-225 362.36,-225 362.36,-225 665,-225 665,-225 665,-225 665,-62.31 665,-62.31"/>
<polygon fill="black" stroke="black" points="668.5,-62.31 665,-52.31 661.5,-62.31 668.5,-62.31"/>
</g>
<!-- nasalib/series@power_series_conv&#45;&gt;nasalib/series@power_series -->
<g id="edge3" class="edge">
<title>nasalib/series@power_series_conv&#45;&gt;nasalib/series@power_series</title>
<path fill="none" stroke="black" d="M328.08,-242.83C328.08,-242.83 328.08,-215.93 328.08,-215.93"/>
<polygon fill="black" stroke="black" points="331.58,-215.93 328.08,-205.93 324.58,-215.93 331.58,-215.93"/>
</g>
<!-- nasalib/series@power_series_deriv -->
<g id="node8" class="node">
<title>nasalib/series@power_series_deriv</title>
<ellipse fill="#e6f3ff" stroke="black" cx="345" cy="-477" rx="79.09" ry="18"/>
<text text-anchor="middle" x="345" y="-473.3" font-family="Times,serif" font-size="14.00">power_series_deriv</text>
</g>
<!-- nasalib/series@power_series_deriv&#45;&gt;nasalib/analysis -->
<g id="edge6" class="edge">
<title>nasalib/series@power_series_deriv&#45;&gt;nasalib/analysis</title>
<path fill="none" stroke="black" d="M420.07,-471C521.29,-471 689,-471 689,-471 689,-471 689,-62.22 689,-62.22"/>
<polygon fill="black" stroke="black" points="692.5,-62.22 689,-52.22 685.5,-62.22 692.5,-62.22"/>
</g>
<!-- nasalib/series@power_series_deriv_scaf -->
<g id="node9" class="node">
<title>nasalib/series@power_series_deriv_scaf</title>
<ellipse fill="#e6f3ff" stroke="black" cx="345" cy="-405" rx="98.28" ry="18"/>
<text text-anchor="middle" x="345" y="-401.3" font-family="Times,serif" font-size="14.00">power_series_deriv_scaf</text>
</g>
<!-- nasalib/series@power_series_deriv&#45;&gt;nasalib/series@power_series_deriv_scaf -->
<g id="edge7" class="edge">
<title>nasalib/series@power_series_deriv&#45;&gt;nasalib/series@power_series_deriv_scaf</title>
<path fill="none" stroke="black" d="M345,-458.83C345,-458.83 345,-433.41 345,-433.41"/>
<polygon fill="black" stroke="black" points="348.5,-433.41 345,-423.41 341.5,-433.41 348.5,-433.41"/>
</g>
<!-- nasalib/series@power_series_derivseq -->
<g id="node10" class="node">
<title>nasalib/series@power_series_derivseq</title>
<ellipse fill="#e6f3ff" stroke="black" cx="318" cy="-333" rx="90.98" ry="18"/>
<text text-anchor="middle" x="318" y="-329.3" font-family="Times,serif" font-size="14.00">power_series_derivseq</text>
</g>
<!-- nasalib/series@power_series_deriv&#45;&gt;nasalib/series@power_series_derivseq -->
<g id="edge8" class="edge">
<title>nasalib/series@power_series_deriv&#45;&gt;nasalib/series@power_series_derivseq</title>
<path fill="none" stroke="black" d="M265.61,-477C249.27,-477 236.93,-477 236.93,-477 236.93,-477 236.93,-351.58 236.93,-351.58"/>
<polygon fill="black" stroke="black" points="240.43,-351.58 236.93,-341.58 233.43,-351.58 240.43,-351.58"/>
</g>
<!-- nasalib/series@power_series_deriv_scaf&#45;&gt;nasalib/analysis -->
<g id="edge4" class="edge">
<title>nasalib/series@power_series_deriv_scaf&#45;&gt;nasalib/analysis</title>
<path fill="none" stroke="black" d="M428.72,-395.54C428.72,-384.88 428.72,-369 428.72,-369 428.72,-369 677,-369 677,-369 677,-369 677,-62.01 677,-62.01"/>
<polygon fill="black" stroke="black" points="680.5,-62.01 677,-52.01 673.5,-62.01 680.5,-62.01"/>
</g>
<!-- nasalib/series@power_series_deriv_scaf&#45;&gt;nasalib/series@power_series_derivseq -->
<g id="edge5" class="edge">
<title>nasalib/series@power_series_deriv_scaf&#45;&gt;nasalib/series@power_series_derivseq</title>
<path fill="none" stroke="black" d="M327.93,-387.2C327.93,-387.2 327.93,-361.09 327.93,-361.09"/>
<polygon fill="black" stroke="black" points="331.43,-361.09 327.93,-351.09 324.43,-361.09 331.43,-361.09"/>
</g>
<!-- nasalib/series@power_series_derivseq&#45;&gt;nasalib/analysis -->
<g id="edge9" class="edge">
<title>nasalib/series@power_series_derivseq&#45;&gt;nasalib/analysis</title>
<path fill="none" stroke="black" d="M409.37,-333C513.96,-333 671,-333 671,-333 671,-333 671,-62.25 671,-62.25"/>
<polygon fill="black" stroke="black" points="674.5,-62.25 671,-52.25 667.5,-62.25 674.5,-62.25"/>
</g>
<!-- nasalib/series@power_series_derivseq&#45;&gt;nasalib/series@power_series_conv -->
<g id="edge10" class="edge">
<title>nasalib/series@power_series_derivseq&#45;&gt;nasalib/series@power_series_conv</title>
<path fill="none" stroke="black" d="M291.79,-315.57C291.79,-315.57 291.79,-288.27 291.79,-288.27"/>
<polygon fill="black" stroke="black" points="295.29,-288.27 291.79,-278.27 288.29,-288.27 295.29,-288.27"/>
</g>
<!-- nasalib/series@power_series_integ -->
<g id="node11" class="node">
<title>nasalib/series@power_series_integ</title>
<ellipse fill="#e6f3ff" stroke="black" cx="208" cy="-549" rx="79.09" ry="18"/>
<text text-anchor="middle" x="208" y="-545.3" font-family="Times,serif" font-size="14.00">power_series_integ</text>
</g>
<!-- nasalib/series@power_series_integ&#45;&gt;nasalib/analysis -->
<g id="edge11" class="edge">
<title>nasalib/series@power_series_integ&#45;&gt;nasalib/analysis</title>
<path fill="none" stroke="black" d="M280.1,-541.3C280.1,-529.17 280.1,-507 280.1,-507 280.1,-507 695,-507 695,-507 695,-507 695,-62.25 695,-62.25"/>
<polygon fill="black" stroke="black" points="698.5,-62.25 695,-52.25 691.5,-62.25 698.5,-62.25"/>
</g>
<!-- nasalib/series@power_series_integ&#45;&gt;nasalib/series@power_series_conv -->
<g id="edge12" class="edge">
<title>nasalib/series@power_series_integ&#45;&gt;nasalib/series@power_series_conv</title>
<path fill="none" stroke="black" d="M203.46,-530.98C203.46,-467.93 203.46,-261 203.46,-261 203.46,-261 229.07,-261 229.07,-261"/>
<polygon fill="black" stroke="black" points="229.07,-264.5 239.07,-261 229.07,-257.5 229.07,-264.5"/>
</g>
<!-- nasalib/series@power_series_integ&#45;&gt;nasalib/series@power_series_deriv -->
<g id="edge13" class="edge">
<title>nasalib/series@power_series_integ&#45;&gt;nasalib/series@power_series_deriv</title>
<path fill="none" stroke="black" d="M272.9,-538.38C272.9,-538.38 272.9,-494.58 272.9,-494.58"/>
<polygon fill="black" stroke="black" points="276.4,-494.58 272.9,-484.58 269.4,-494.58 276.4,-494.58"/>
</g>
<!-- nasalib/series@series&#45;&gt;nasalib/analysis -->
<g id="edge21" class="edge">
<title>nasalib/series@series&#45;&gt;nasalib/analysis</title>
<path fill="none" stroke="black" d="M381.66,-117C459.56,-117 659,-117 659,-117 659,-117 659,-62.01 659,-62.01"/>
<polygon fill="black" stroke="black" points="662.5,-62.01 659,-52.01 655.5,-62.01 662.5,-62.01"/>
</g>
<!-- nasalib/series@series&#45;&gt;nasalib/reals -->
<g id="edge22" class="edge">
<title>nasalib/series@series&#45;&gt;nasalib/reals</title>
<path fill="none" stroke="black" d="M377.49,-108C410.89,-108 464,-108 464,-108 464,-108 464,-62.29 464,-62.29"/>
<polygon fill="black" stroke="black" points="467.5,-62.29 464,-52.29 460.5,-62.29 467.5,-62.29"/>
</g>
<!-- nasalib/series@series_aux -->
<g id="node13" class="node">
<title>nasalib/series@series_aux</title>
<ellipse fill="#e6f3ff" stroke="black" cx="228" cy="-189" rx="48.19" ry="18"/>
<text text-anchor="middle" x="228" y="-185.3" font-family="Times,serif" font-size="14.00">series_aux</text>
</g>
<!-- nasalib/series@series_aux&#45;&gt;nasalib/orders -->
<g id="edge17" class="edge">
<title>nasalib/series@series_aux&#45;&gt;nasalib/orders</title>
<path fill="none" stroke="black" d="M211.97,-171.78C211.97,-138.15 211.97,-67 211.97,-67 211.97,-67 516,-67 516,-67 516,-67 516,-62.04 516,-62.04"/>
<polygon fill="black" stroke="black" points="519.5,-62.04 516,-52.04 512.5,-62.04 519.5,-62.04"/>
</g>
<!-- nasalib/series@series_aux&#45;&gt;nasalib/series@series -->
<g id="edge18" class="edge">
<title>nasalib/series@series_aux&#45;&gt;nasalib/series@series</title>
<path fill="none" stroke="black" d="M244.03,-172C244.03,-152.45 244.03,-123 244.03,-123 244.03,-123 312.05,-123 312.05,-123"/>
<polygon fill="black" stroke="black" points="312.05,-126.5 322.05,-123 312.05,-119.5 312.05,-126.5"/>
</g>
<!-- nasalib/series@series_lems&#45;&gt;nasalib/orders -->
<g id="edge19" class="edge">
<title>nasalib/series@series_lems&#45;&gt;nasalib/orders</title>
<path fill="none" stroke="black" d="M523,-179.77C523,-179.77 523,-62.08 523,-62.08"/>
<polygon fill="black" stroke="black" points="526.5,-62.08 523,-52.08 519.5,-62.08 526.5,-62.08"/>
</g>
<!-- nasalib/series@series_lems&#45;&gt;nasalib/series@series -->
<g id="edge20" class="edge">
<title>nasalib/series@series_lems&#45;&gt;nasalib/series@series</title>
<path fill="none" stroke="black" d="M431.5,-180.76C431.5,-163.69 431.5,-126 431.5,-126 431.5,-126 387.81,-126 387.81,-126"/>
<polygon fill="black" stroke="black" points="387.81,-122.5 377.81,-126 387.81,-129.5 387.81,-122.5"/>
</g>
<!-- nasalib/series@taylor_series -->
<g id="node15" class="node">
<title>nasalib/series@taylor_series</title>
<ellipse fill="#e6f3ff" stroke="black" cx="361" cy="-549" rx="55.79" ry="18"/>
<text text-anchor="middle" x="361" y="-545.3" font-family="Times,serif" font-size="14.00">taylor_series</text>
</g>
<!-- nasalib/series@taylor_series&#45;&gt;nasalib/analysis -->
<g id="edge23" class="edge">
<title>nasalib/series@taylor_series&#45;&gt;nasalib/analysis</title>
<path fill="none" stroke="black" d="M379.63,-531.9C379.63,-525.16 379.63,-519 379.63,-519 379.63,-519 701,-519 701,-519 701,-519 701,-62.13 701,-62.13"/>
<polygon fill="black" stroke="black" points="704.5,-62.13 701,-52.13 697.5,-62.13 704.5,-62.13"/>
</g>
<!-- nasalib/series@taylor_series&#45;&gt;nasalib/series@power_series_deriv -->
<g id="edge24" class="edge">
<title>nasalib/series@taylor_series&#45;&gt;nasalib/series@power_series_deriv</title>
<path fill="none" stroke="black" d="M342.37,-531.94C342.37,-531.94 342.37,-505.2 342.37,-505.2"/>
<polygon fill="black" stroke="black" points="345.87,-505.2 342.37,-495.2 338.87,-505.2 345.87,-505.2"/>
</g>
<!-- nasalib/series@triangle_numbers -->
<g id="node16" class="node">
<title>nasalib/series@triangle_numbers</title>
<ellipse fill="#e6f3ff" stroke="black" cx="89" cy="-189" rx="72.59" ry="18"/>
<text text-anchor="middle" x="89" y="-185.3" font-family="Times,serif" font-size="14.00">triangle_numbers</text>
</g>
<!-- nasalib/series@triangle_numbers&#45;&gt;nasalib/series@series -->
<g id="edge25" class="edge">
<title>nasalib/series@triangle_numbers&#45;&gt;nasalib/series@series</title>
<path fill="none" stroke="black" d="M89,-170.91C89,-147.87 89,-111 89,-111 89,-111 311.96,-111 311.96,-111"/>
<polygon fill="black" stroke="black" points="311.96,-114.5 321.96,-111 311.96,-107.5 311.96,-114.5"/>
</g>
<!-- nasalib/series@trig_fun -->
<g id="node17" class="node">
<title>nasalib/series@trig_fun</title>
<ellipse fill="#e6f3ff" stroke="black" cx="500" cy="-405" rx="38.99" ry="18"/>
<text text-anchor="middle" x="500" y="-401.3" font-family="Times,serif" font-size="14.00">trig_fun</text>
</g>
<!-- nasalib/series@trig_fun&#45;&gt;nasalib/analysis -->
<g id="edge26" class="edge">
<title>nasalib/series@trig_fun&#45;&gt;nasalib/analysis</title>
<path fill="none" stroke="black" d="M537.03,-411C590.51,-411 683,-411 683,-411 683,-411 683,-62.18 683,-62.18"/>
<polygon fill="black" stroke="black" points="686.5,-62.18 683,-52.18 679.5,-62.18 686.5,-62.18"/>
</g>
<!-- nasalib/series@trig_fun&#45;&gt;nasalib/ints -->
<g id="edge27" class="edge">
<title>nasalib/series@trig_fun&#45;&gt;nasalib/ints</title>
<path fill="none" stroke="black" d="M537.02,-399C571.3,-399 617,-399 617,-399 617,-399 617,-62.1 617,-62.1"/>
<polygon fill="black" stroke="black" points="620.5,-62.1 617,-52.1 613.5,-62.1 620.5,-62.1"/>
</g>
<!-- nasalib/series@trig_fun&#45;&gt;nasalib/series@power_series_conv -->
<g id="edge28" class="edge">
<title>nasalib/series@trig_fun&#45;&gt;nasalib/series@power_series_conv</title>
<path fill="none" stroke="black" d="M500,-386.68C500,-355.87 500,-297 500,-297 500,-297 344.21,-297 344.21,-297 344.21,-297 344.21,-288.16 344.21,-288.16"/>
<polygon fill="black" stroke="black" points="347.71,-288.16 344.21,-278.16 340.71,-288.16 347.71,-288.16"/>
</g>
<!-- nasalib/series@trig_props -->
<g id="node18" class="node">
<title>nasalib/series@trig_props</title>
<ellipse fill="#e6f3ff" stroke="black" cx="482" cy="-549" rx="46.59" ry="18"/>
<text text-anchor="middle" x="482" y="-545.3" font-family="Times,serif" font-size="14.00">trig_props</text>
</g>
<!-- nasalib/series@trig_props&#45;&gt;nasalib/analysis -->
<g id="edge29" class="edge">
<title>nasalib/series@trig_props&#45;&gt;nasalib/analysis</title>
<path fill="none" stroke="black" d="M528.89,-549C594.83,-549 707,-549 707,-549 707,-549 707,-62.03 707,-62.03"/>
<polygon fill="black" stroke="black" points="710.5,-62.03 707,-52.03 703.5,-62.03 710.5,-62.03"/>
</g>
<!-- nasalib/series@trig_props&#45;&gt;nasalib/series@power_series_deriv -->
<g id="edge30" class="edge">
<title>nasalib/series@trig_props&#45;&gt;nasalib/series@power_series_deriv</title>
<path fill="none" stroke="black" d="M439.17,-541.68C439.17,-524.5 439.17,-483 439.17,-483 439.17,-483 430.12,-483 430.12,-483"/>
<polygon fill="black" stroke="black" points="430.12,-479.5 420.12,-483 430.12,-486.5 430.12,-479.5"/>
</g>
<!-- nasalib/series@trig_props&#45;&gt;nasalib/series@trig_fun -->
<g id="edge31" class="edge">
<title>nasalib/series@trig_props&#45;&gt;nasalib/series@trig_fun</title>
<path fill="none" stroke="black" d="M494.9,-531.63C494.9,-531.63 494.9,-432.88 494.9,-432.88"/>
<polygon fill="black" stroke="black" points="498.4,-432.88 494.9,-422.88 491.4,-432.88 498.4,-432.88"/>
</g>
</g>
</svg>
