<?xml version="1.0" encoding="UTF-8" standalone="no"?>
<!DOCTYPE svg PUBLIC "-//W3C//DTD SVG 1.1//EN"
 "http://www.w3.org/Graphics/SVG/1.1/DTD/svg11.dtd">
<!-- Generated by graphviz version 12.2.1 (20241206.2353)
 -->
<!-- Title: series&#45;zoomed Pages: 1 -->
<svg width="790pt" height="617pt"
 viewBox="0.00 0.00 790.00 617.00" xmlns="http://www.w3.org/2000/svg" xmlns:xlink="http://www.w3.org/1999/xlink">
<g id="graph0" class="graph" transform="scale(1 1) rotate(0) translate(4 613)">
<title>series&#45;zoomed</title>
<polygon fill="white" stroke="none" points="-4,4 -4,-613 786,-613 786,4 -4,4"/>
<g id="clust1" class="cluster">
<title>cluster_NASALib</title>
<polygon fill="none" stroke="black" points="372,-8 372,-84.5 664,-84.5 664,-8 372,-8"/>
<text text-anchor="middle" x="518" y="-67.2" font-family="Times,serif" font-size="14.00">NASALib</text>
</g>
<g id="clust2" class="cluster">
<title>cluster_NASALib/series</title>
<polygon fill="none" stroke="black" points="8,-92.5 8,-601 620,-601 620,-92.5 8,-92.5"/>
<text text-anchor="middle" x="314" y="-583.7" font-family="Times,serif" font-size="14.00">NASALib/series</text>
</g>
<!-- pvslib/analysis -->
<g id="node1" class="node">
<title>pvslib/analysis</title>
<polygon fill="#fcfcd7" stroke="black" points="655.75,-52 596.25,-52 596.25,-16 655.75,-16 655.75,-52"/>
<text text-anchor="middle" x="626" y="-28.95" font-family="Times,serif" font-size="14.00">analysis</text>
</g>
<!-- pvslib/ints -->
<g id="node2" class="node">
<title>pvslib/ints</title>
<polygon fill="#fcfcd7" stroke="black" points="578,-52 524,-52 524,-16 578,-16 578,-52"/>
<text text-anchor="middle" x="551" y="-28.95" font-family="Times,serif" font-size="14.00">ints</text>
</g>
<!-- pvslib/orders -->
<g id="node3" class="node">
<title>pvslib/orders</title>
<polygon fill="#fcfcd7" stroke="black" points="434,-52 380,-52 380,-16 434,-16 434,-52"/>
<text text-anchor="middle" x="407" y="-28.95" font-family="Times,serif" font-size="14.00">orders</text>
</g>
<!-- pvslib/reals -->
<g id="node4" class="node">
<title>pvslib/reals</title>
<polygon fill="#fcfcd7" stroke="black" points="506,-52 452,-52 452,-16 506,-16 506,-52"/>
<text text-anchor="middle" x="479" y="-28.95" font-family="Times,serif" font-size="14.00">reals</text>
</g>
<!-- pvslib/series@Cauchy_product -->
<g id="node5" class="node">
<title>pvslib/series@Cauchy_product</title>
<ellipse fill="#e6f3ff" stroke="black" cx="358" cy="-262.5" rx="71.82" ry="18"/>
<text text-anchor="middle" x="358" y="-257.45" font-family="Times,serif" font-size="14.00">Cauchy_product</text>
</g>
<!-- pvslib/series@Cauchy_product&#45;&gt;pvslib/reals -->
<g id="edge1" class="edge">
<title>pvslib/series@Cauchy_product&#45;&gt;pvslib/reals</title>
<path fill="none" stroke="black" d="M578,-189.5C578,-189.5 529,-92.5 529,-92.5 529,-92.5 515,-84.5 515,-84.5 515,-84.5 506.73,-73.13 498.11,-61.28"/>
<polygon fill="black" stroke="black" points="501.19,-59.57 492.48,-53.54 495.53,-63.68 501.19,-59.57"/>
<path fill="none" stroke="black" d="M406.14,-248.81C465.61,-233.13 559,-208.5 559,-208.5 559,-208.5 578,-191.5 578,-191.5"/>
</g>
<!-- pvslib/series@series_lems -->
<g id="node16" class="node">
<title>pvslib/series@series_lems</title>
<ellipse fill="#e6f3ff" stroke="black" cx="358" cy="-190.5" rx="54.42" ry="18"/>
<text text-anchor="middle" x="358" y="-185.45" font-family="Times,serif" font-size="14.00">series_lems</text>
</g>
<!-- pvslib/series@Cauchy_product&#45;&gt;pvslib/series@series_lems -->
<g id="edge2" class="edge">
<title>pvslib/series@Cauchy_product&#45;&gt;pvslib/series@series_lems</title>
<path fill="none" stroke="black" d="M358,-244.2C358,-236.91 358,-228.23 358,-220.04"/>
<polygon fill="black" stroke="black" points="361.5,-220.12 358,-210.12 354.5,-220.12 361.5,-220.12"/>
</g>
<!-- pvslib/series@absconv_series -->
<g id="node6" class="node">
<title>pvslib/series@absconv_series</title>
<ellipse fill="#e6f3ff" stroke="black" cx="201" cy="-262.5" rx="66.71" ry="18"/>
<text text-anchor="middle" x="201" y="-257.45" font-family="Times,serif" font-size="14.00">absconv_series</text>
</g>
<!-- pvslib/series@absconv_series&#45;&gt;pvslib/series@series_lems -->
<g id="edge3" class="edge">
<title>pvslib/series@absconv_series&#45;&gt;pvslib/series@series_lems</title>
<path fill="none" stroke="black" d="M234.3,-246.65C258.08,-236.05 290.27,-221.7 315.84,-210.3"/>
<polygon fill="black" stroke="black" points="317.27,-213.49 324.98,-206.22 314.42,-207.1 317.27,-213.49"/>
</g>
<!-- pvslib/series@power_series -->
<g id="node7" class="node">
<title>pvslib/series@power_series</title>
<ellipse fill="#e6f3ff" stroke="black" cx="490" cy="-190.5" rx="59.54" ry="18"/>
<text text-anchor="middle" x="490" y="-185.45" font-family="Times,serif" font-size="14.00">power_series</text>
</g>
<!-- pvslib/series@power_series&#45;&gt;pvslib/ints -->
<g id="edge16" class="edge">
<title>pvslib/series@power_series&#45;&gt;pvslib/ints</title>
<path fill="none" stroke="black" d="M515,-117.5C515,-117.5 528.38,-86.83 538.83,-62.89"/>
<polygon fill="black" stroke="black" points="541.97,-64.45 542.76,-53.88 535.55,-61.65 541.97,-64.45"/>
</g>
<!-- pvslib/series@power_series&#45;&gt;pvslib/reals -->
<g id="edge17" class="edge">
<title>pvslib/series@power_series&#45;&gt;pvslib/reals</title>
<path fill="none" stroke="black" d="M496.18,-172.2C503.58,-151.47 515,-119.5 515,-119.5"/>
<path fill="none" stroke="black" d="M515,-117.5C515,-117.5 501.62,-86.83 491.17,-62.89"/>
<polygon fill="black" stroke="black" points="494.45,-61.65 487.24,-53.88 488.03,-64.45 494.45,-61.65"/>
</g>
<!-- pvslib/series@series -->
<g id="node13" class="node">
<title>pvslib/series@series</title>
<ellipse fill="#e6f3ff" stroke="black" cx="323" cy="-118.5" rx="31.9" ry="18"/>
<text text-anchor="middle" x="323" y="-113.45" font-family="Times,serif" font-size="14.00">series</text>
</g>
<!-- pvslib/series@power_series&#45;&gt;pvslib/series@series -->
<g id="edge18" class="edge">
<title>pvslib/series@power_series&#45;&gt;pvslib/series@series</title>
<path fill="none" stroke="black" d="M456.21,-175.33C427.81,-163.43 387.36,-146.48 358.49,-134.38"/>
<polygon fill="black" stroke="black" points="360.02,-131.22 349.44,-130.58 357.31,-137.68 360.02,-131.22"/>
</g>
<!-- pvslib/series@power_series_conv -->
<g id="node8" class="node">
<title>pvslib/series@power_series_conv</title>
<ellipse fill="#e6f3ff" stroke="black" cx="530" cy="-262.5" rx="82.06" ry="18"/>
<text text-anchor="middle" x="530" y="-257.45" font-family="Times,serif" font-size="14.00">power_series_conv</text>
</g>
<!-- pvslib/series@power_series_conv&#45;&gt;pvslib/analysis -->
<g id="edge4" class="edge">
<title>pvslib/series@power_series_conv&#45;&gt;pvslib/analysis</title>
<path fill="none" stroke="black" d="M549.62,-244.73C567.78,-229.2 592,-208.5 592,-208.5 592,-208.5 610.79,-112.62 620.43,-63.41"/>
<polygon fill="black" stroke="black" points="623.84,-64.24 622.32,-53.76 616.97,-62.9 623.84,-64.24"/>
</g>
<!-- pvslib/series@power_series_conv&#45;&gt;pvslib/series@power_series -->
<g id="edge5" class="edge">
<title>pvslib/series@power_series_conv&#45;&gt;pvslib/series@power_series</title>
<path fill="none" stroke="black" d="M520.11,-244.2C515.66,-236.4 510.29,-227.01 505.33,-218.33"/>
<polygon fill="black" stroke="black" points="508.53,-216.86 500.52,-209.92 502.45,-220.34 508.53,-216.86"/>
</g>
<!-- pvslib/series@power_series_deriv -->
<g id="node9" class="node">
<title>pvslib/series@power_series_deriv</title>
<ellipse fill="#e6f3ff" stroke="black" cx="410" cy="-478.5" rx="83.08" ry="18"/>
<text text-anchor="middle" x="410" y="-473.45" font-family="Times,serif" font-size="14.00">power_series_deriv</text>
</g>
<!-- pvslib/series@power_series_deriv&#45;&gt;pvslib/analysis -->
<g id="edge8" class="edge">
<title>pvslib/series@power_series_deriv&#45;&gt;pvslib/analysis</title>
<path fill="none" stroke="black" d="M640,-405.5C640,-405.5 761,-352.5 761,-352.5 761,-352.5 772,-280.5 772,-280.5 772,-280.5 782,-208.5 782,-208.5 782,-208.5 782,-172.5 782,-172.5 782,-172.5 768,-119.5 768,-119.5"/>
<path fill="none" stroke="black" d="M462.97,-464.19C525.47,-448.49 621,-424.5 621,-424.5 621,-424.5 640,-407.5 640,-407.5"/>
</g>
<!-- pvslib/series@power_series_deriv_scaf -->
<g id="node10" class="node">
<title>pvslib/series@power_series_deriv_scaf</title>
<ellipse fill="#e6f3ff" stroke="black" cx="410" cy="-406.5" rx="102.53" ry="18"/>
<text text-anchor="middle" x="410" y="-401.45" font-family="Times,serif" font-size="14.00">power_series_deriv_scaf</text>
</g>
<!-- pvslib/series@power_series_deriv&#45;&gt;pvslib/series@power_series_deriv_scaf -->
<g id="edge9" class="edge">
<title>pvslib/series@power_series_deriv&#45;&gt;pvslib/series@power_series_deriv_scaf</title>
<path fill="none" stroke="black" d="M410,-460.2C410,-452.91 410,-444.23 410,-436.04"/>
<polygon fill="black" stroke="black" points="413.5,-436.12 410,-426.12 406.5,-436.12 413.5,-436.12"/>
</g>
<!-- pvslib/series@power_series_derivseq -->
<g id="node11" class="node">
<title>pvslib/series@power_series_derivseq</title>
<ellipse fill="#e6f3ff" stroke="black" cx="410" cy="-334.5" rx="95.37" ry="18"/>
<text text-anchor="middle" x="410" y="-329.45" font-family="Times,serif" font-size="14.00">power_series_derivseq</text>
</g>
<!-- pvslib/series@power_series_deriv&#45;&gt;pvslib/series@power_series_derivseq -->
<g id="edge10" class="edge">
<title>pvslib/series@power_series_deriv&#45;&gt;pvslib/series@power_series_derivseq</title>
<path fill="none" stroke="black" d="M376.4,-461.6C343.41,-445.99 298,-424.5 298,-424.5 298,-424.5 298,-388.5 298,-388.5 298,-388.5 334.2,-371.37 365.44,-356.59"/>
<polygon fill="black" stroke="black" points="366.88,-359.78 374.42,-352.34 363.88,-353.45 366.88,-359.78"/>
</g>
<!-- pvslib/series@power_series_deriv_scaf&#45;&gt;pvslib/analysis -->
<g id="edge6" class="edge">
<title>pvslib/series@power_series_deriv_scaf&#45;&gt;pvslib/analysis</title>
<path fill="none" stroke="black" d="M768,-117.5C768,-117.5 707.83,-82.54 665.83,-58.14"/>
<polygon fill="black" stroke="black" points="667.83,-55.25 657.42,-53.26 664.31,-61.31 667.83,-55.25"/>
<path fill="none" stroke="black" d="M444.25,-389.16C515.27,-355.28 672,-280.5 672,-280.5 672,-280.5 768,-119.5 768,-119.5"/>
</g>
<!-- pvslib/series@power_series_deriv_scaf&#45;&gt;pvslib/series@power_series_derivseq -->
<g id="edge7" class="edge">
<title>pvslib/series@power_series_deriv_scaf&#45;&gt;pvslib/series@power_series_derivseq</title>
<path fill="none" stroke="black" d="M410,-388.2C410,-380.91 410,-372.23 410,-364.04"/>
<polygon fill="black" stroke="black" points="413.5,-364.12 410,-354.12 406.5,-364.12 413.5,-364.12"/>
</g>
<!-- pvslib/series@power_series_derivseq&#45;&gt;pvslib/analysis -->
<g id="edge11" class="edge">
<title>pvslib/series@power_series_derivseq&#45;&gt;pvslib/analysis</title>
<path fill="none" stroke="black" d="M470.94,-320.26C543.21,-304.56 654,-280.5 654,-280.5 654,-280.5 668,-208.5 668,-208.5 668,-208.5 668,-92.5 668,-92.5 668,-92.5 656.32,-76.51 645.28,-61.4"/>
<polygon fill="black" stroke="black" points="648.22,-59.48 639.49,-53.47 642.57,-63.61 648.22,-59.48"/>
</g>
<!-- pvslib/series@power_series_derivseq&#45;&gt;pvslib/series@power_series_conv -->
<g id="edge12" class="edge">
<title>pvslib/series@power_series_derivseq&#45;&gt;pvslib/series@power_series_conv</title>
<path fill="none" stroke="black" d="M438.44,-316.91C454.54,-307.52 474.89,-295.65 492.31,-285.48"/>
<polygon fill="black" stroke="black" points="494,-288.55 500.87,-280.49 490.47,-282.51 494,-288.55"/>
</g>
<!-- pvslib/series@power_series_integ -->
<g id="node12" class="node">
<title>pvslib/series@power_series_integ</title>
<ellipse fill="#e6f3ff" stroke="black" cx="268" cy="-550.5" rx="82.57" ry="18"/>
<text text-anchor="middle" x="268" y="-545.45" font-family="Times,serif" font-size="14.00">power_series_integ</text>
</g>
<!-- pvslib/series@power_series_integ&#45;&gt;pvslib/analysis -->
<g id="edge13" class="edge">
<title>pvslib/series@power_series_integ&#45;&gt;pvslib/analysis</title>
<path fill="none" stroke="black" d="M329.62,-538.11C346.38,-535.02 360,-532.5 360,-532.5 360,-532.5 567,-496.5 567,-496.5 567,-496.5 581,-479.5 581,-479.5"/>
<path fill="none" stroke="black" d="M581,-477.5C581,-477.5 640,-407.5 640,-407.5"/>
</g>
<!-- pvslib/series@power_series_integ&#45;&gt;pvslib/series@power_series_conv -->
<g id="edge14" class="edge">
<title>pvslib/series@power_series_integ&#45;&gt;pvslib/series@power_series_conv</title>
<path fill="none" stroke="black" d="M270.78,-532.27C277.49,-490.74 294,-388.5 294,-388.5 294,-388.5 306,-316.5 306,-316.5 306,-316.5 398.47,-294.62 464.59,-278.98"/>
<polygon fill="black" stroke="black" points="465.38,-282.39 474.3,-276.68 463.77,-275.57 465.38,-282.39"/>
</g>
<!-- pvslib/series@power_series_integ&#45;&gt;pvslib/series@power_series_deriv -->
<g id="edge15" class="edge">
<title>pvslib/series@power_series_integ&#45;&gt;pvslib/series@power_series_deriv</title>
<path fill="none" stroke="black" d="M300.22,-533.62C320.19,-523.77 346.07,-511.02 367.68,-500.36"/>
<polygon fill="black" stroke="black" points="369.13,-503.55 376.55,-495.99 366.03,-497.27 369.13,-503.55"/>
</g>
<!-- pvslib/series@series&#45;&gt;pvslib/analysis -->
<g id="edge28" class="edge">
<title>pvslib/series@series&#45;&gt;pvslib/analysis</title>
<path fill="none" stroke="black" d="M354.01,-113.15C405,-105.98 501,-92.5 501,-92.5 501,-92.5 587,-84.5 587,-84.5 587,-84.5 595.96,-73.13 605.29,-61.28"/>
<polygon fill="black" stroke="black" points="607.98,-63.52 611.42,-53.5 602.49,-59.19 607.98,-63.52"/>
</g>
<!-- pvslib/series@series&#45;&gt;pvslib/reals -->
<g id="edge29" class="edge">
<title>pvslib/series@series&#45;&gt;pvslib/reals</title>
<path fill="none" stroke="black" d="M351.44,-109.68C386.92,-99.92 443,-84.5 443,-84.5 443,-84.5 451.27,-73.13 459.89,-61.28"/>
<polygon fill="black" stroke="black" points="462.47,-63.68 465.52,-53.54 456.81,-59.57 462.47,-63.68"/>
</g>
<!-- pvslib/series@series_aux -->
<g id="node14" class="node">
<title>pvslib/series@series_aux</title>
<ellipse fill="#e6f3ff" stroke="black" cx="236" cy="-190.5" rx="49.82" ry="18"/>
<text text-anchor="middle" x="236" y="-185.45" font-family="Times,serif" font-size="14.00">series_aux</text>
</g>
<!-- pvslib/series@series_aux&#45;&gt;pvslib/orders -->
<g id="edge19" class="edge">
<title>pvslib/series@series_aux&#45;&gt;pvslib/orders</title>
<path fill="none" stroke="black" d="M383,-117.5C383,-117.5 391.76,-87.38 398.7,-63.54"/>
<polygon fill="black" stroke="black" points="402.05,-64.53 401.49,-53.95 395.33,-62.57 402.05,-64.53"/>
<path fill="none" stroke="black" d="M267.97,-176.26C305.88,-160.56 364,-136.5 364,-136.5 364,-136.5 383,-119.5 383,-119.5"/>
</g>
<!-- pvslib/series@series_aux&#45;&gt;pvslib/series@series -->
<g id="edge20" class="edge">
<title>pvslib/series@series_aux&#45;&gt;pvslib/series@series</title>
<path fill="none" stroke="black" d="M255.74,-173.62C267.8,-163.91 283.37,-151.39 296.49,-140.83"/>
<polygon fill="black" stroke="black" points="298.34,-143.84 303.93,-134.84 293.95,-138.38 298.34,-143.84"/>
</g>
<!-- pvslib/series@series_extra -->
<g id="node15" class="node">
<title>pvslib/series@series_extra</title>
<ellipse fill="#e6f3ff" stroke="black" cx="194" cy="-334.5" rx="54.93" ry="18"/>
<text text-anchor="middle" x="194" y="-329.45" font-family="Times,serif" font-size="14.00">series_extra</text>
</g>
<!-- pvslib/series@series_extra&#45;&gt;pvslib/ints -->
<g id="edge21" class="edge">
<title>pvslib/series@series_extra&#45;&gt;pvslib/ints</title>
<path fill="none" stroke="black" d="M640,-261.5C640,-261.5 585.88,-123.76 562.04,-63.11"/>
<polygon fill="black" stroke="black" points="565.3,-61.83 558.39,-53.81 558.79,-64.39 565.3,-61.83"/>
</g>
<!-- pvslib/series@series_extra&#45;&gt;pvslib/reals -->
<g id="edge22" class="edge">
<title>pvslib/series@series_extra&#45;&gt;pvslib/reals</title>
<path fill="none" stroke="black" d="M640,-261.5C640,-261.5 578,-191.5 578,-191.5"/>
<path fill="none" stroke="black" d="M243.12,-326.04C273.22,-321.48 306,-316.5 306,-316.5 306,-316.5 624,-280.5 624,-280.5 624,-280.5 640,-263.5 640,-263.5"/>
</g>
<!-- pvslib/series@series_extra&#45;&gt;pvslib/series@Cauchy_product -->
<g id="edge23" class="edge">
<title>pvslib/series@series_extra&#45;&gt;pvslib/series@Cauchy_product</title>
<path fill="none" stroke="black" d="M226.4,-319.67C250.96,-309.19 285.02,-294.65 312.34,-282.99"/>
<polygon fill="black" stroke="black" points="313.61,-286.25 321.44,-279.11 310.86,-279.81 313.61,-286.25"/>
</g>
<!-- pvslib/series@series_extra&#45;&gt;pvslib/series@series_aux -->
<g id="edge24" class="edge">
<title>pvslib/series@series_extra&#45;&gt;pvslib/series@series_aux</title>
<path fill="none" stroke="black" d="M115,-261.5C115,-261.5 125,-244.5 125,-244.5 125,-244.5 164.86,-225.47 196.8,-210.22"/>
<polygon fill="black" stroke="black" points="197.95,-213.54 205.47,-206.08 194.94,-207.23 197.95,-213.54"/>
</g>
<!-- pvslib/series@triangle_numbers -->
<g id="node18" class="node">
<title>pvslib/series@triangle_numbers</title>
<ellipse fill="#e6f3ff" stroke="black" cx="92" cy="-190.5" rx="75.92" ry="18"/>
<text text-anchor="middle" x="92" y="-185.45" font-family="Times,serif" font-size="14.00">triangle_numbers</text>
</g>
<!-- pvslib/series@series_extra&#45;&gt;pvslib/series@triangle_numbers -->
<g id="edge25" class="edge">
<title>pvslib/series@series_extra&#45;&gt;pvslib/series@triangle_numbers</title>
<path fill="none" stroke="black" d="M115,-261.5C115,-261.5 107.66,-239.16 101.27,-219.72"/>
<polygon fill="black" stroke="black" points="104.6,-218.65 98.16,-210.24 97.95,-220.83 104.6,-218.65"/>
<path fill="none" stroke="black" d="M173.3,-317.6C152.97,-301.99 125,-280.5 125,-280.5 125,-280.5 115,-263.5 115,-263.5"/>
</g>
<!-- pvslib/series@series_lems&#45;&gt;pvslib/orders -->
<g id="edge26" class="edge">
<title>pvslib/series@series_lems&#45;&gt;pvslib/orders</title>
<path fill="none" stroke="black" d="M364.18,-172.2C371.58,-151.47 383,-119.5 383,-119.5"/>
</g>
<!-- pvslib/series@series_lems&#45;&gt;pvslib/series@series -->
<g id="edge27" class="edge">
<title>pvslib/series@series_lems&#45;&gt;pvslib/series@series</title>
<path fill="none" stroke="black" d="M349.53,-172.55C345.62,-164.73 340.87,-155.25 336.49,-146.48"/>
<polygon fill="black" stroke="black" points="339.67,-145.02 332.07,-137.64 333.41,-148.15 339.67,-145.02"/>
</g>
<!-- pvslib/series@taylor_series -->
<g id="node17" class="node">
<title>pvslib/series@taylor_series</title>
<ellipse fill="#e6f3ff" stroke="black" cx="427" cy="-550.5" rx="58" ry="18"/>
<text text-anchor="middle" x="427" y="-545.45" font-family="Times,serif" font-size="14.00">taylor_series</text>
</g>
<!-- pvslib/series@taylor_series&#45;&gt;pvslib/analysis -->
<g id="edge30" class="edge">
<title>pvslib/series@taylor_series&#45;&gt;pvslib/analysis</title>
<path fill="none" stroke="black" d="M462.69,-535.99C504.17,-520.29 567,-496.5 567,-496.5 567,-496.5 581,-479.5 581,-479.5"/>
</g>
<!-- pvslib/series@taylor_series&#45;&gt;pvslib/series@power_series_deriv -->
<g id="edge31" class="edge">
<title>pvslib/series@taylor_series&#45;&gt;pvslib/series@power_series_deriv</title>
<path fill="none" stroke="black" d="M422.8,-532.2C421.01,-524.82 418.87,-516.02 416.86,-507.75"/>
<polygon fill="black" stroke="black" points="420.27,-506.97 414.51,-498.08 413.47,-508.62 420.27,-506.97"/>
</g>
<!-- pvslib/series@triangle_numbers&#45;&gt;pvslib/series@series -->
<g id="edge32" class="edge">
<title>pvslib/series@triangle_numbers&#45;&gt;pvslib/series@series</title>
<path fill="none" stroke="black" d="M137.64,-175.67C180.45,-162.7 243.78,-143.51 284.22,-131.25"/>
<polygon fill="black" stroke="black" points="285.22,-134.6 293.78,-128.35 283.19,-127.91 285.22,-134.6"/>
</g>
<!-- pvslib/series@trig_fun -->
<g id="node19" class="node">
<title>pvslib/series@trig_fun</title>
<ellipse fill="#e6f3ff" stroke="black" cx="571" cy="-406.5" rx="40.6" ry="18"/>
<text text-anchor="middle" x="571" y="-401.45" font-family="Times,serif" font-size="14.00">trig_fun</text>
</g>
<!-- pvslib/series@trig_fun&#45;&gt;pvslib/analysis -->
<g id="edge33" class="edge">
<title>pvslib/series@trig_fun&#45;&gt;pvslib/analysis</title>
<path fill="none" stroke="black" d="M768,-189.5C768,-189.5 768,-119.5 768,-119.5"/>
</g>
<!-- pvslib/series@trig_fun&#45;&gt;pvslib/ints -->
<g id="edge34" class="edge">
<title>pvslib/series@trig_fun&#45;&gt;pvslib/ints</title>
<path fill="none" stroke="black" d="M603.63,-395.41C615.47,-391.75 626,-388.5 626,-388.5 626,-388.5 744,-352.5 744,-352.5 744,-352.5 768,-191.5 768,-191.5"/>
<path fill="none" stroke="black" d="M768,-189.5C768,-189.5 587,-84.5 587,-84.5 587,-84.5 578.73,-73.13 570.11,-61.28"/>
<polygon fill="black" stroke="black" points="573.19,-59.57 564.48,-53.54 567.53,-63.68 573.19,-59.57"/>
</g>
<!-- pvslib/series@trig_fun&#45;&gt;pvslib/series@power_series_conv -->
<g id="edge35" class="edge">
<title>pvslib/series@trig_fun&#45;&gt;pvslib/series@power_series_conv</title>
<path fill="none" stroke="black" d="M566.05,-388.37C559.13,-364.38 546.46,-320.49 538.13,-291.66"/>
<polygon fill="black" stroke="black" points="541.52,-290.78 535.38,-282.14 534.79,-292.72 541.52,-290.78"/>
</g>
<!-- pvslib/series@trig_props -->
<g id="node20" class="node">
<title>pvslib/series@trig_props</title>
<ellipse fill="#e6f3ff" stroke="black" cx="552" cy="-550.5" rx="48.79" ry="18"/>
<text text-anchor="middle" x="552" y="-545.45" font-family="Times,serif" font-size="14.00">trig_props</text>
</g>
<!-- pvslib/series@trig_props&#45;&gt;pvslib/analysis -->
<g id="edge36" class="edge">
<title>pvslib/series@trig_props&#45;&gt;pvslib/analysis</title>
<path fill="none" stroke="black" d="M559.02,-532.55C567.6,-511.84 581,-479.5 581,-479.5"/>
</g>
<!-- pvslib/series@trig_props&#45;&gt;pvslib/series@power_series_deriv -->
<g id="edge37" class="edge">
<title>pvslib/series@trig_props&#45;&gt;pvslib/series@power_series_deriv</title>
<path fill="none" stroke="black" d="M523.61,-535.5C503.25,-525.47 475.48,-511.78 452.5,-500.45"/>
<polygon fill="black" stroke="black" points="454.19,-497.38 443.67,-496.1 451.09,-503.66 454.19,-497.38"/>
</g>
<!-- pvslib/series@trig_props&#45;&gt;pvslib/series@trig_fun -->
<g id="edge38" class="edge">
<title>pvslib/series@trig_props&#45;&gt;pvslib/series@trig_fun</title>
<path fill="none" stroke="black" d="M554.33,-532.09C557.54,-508.11 563.35,-464.64 567.2,-435.92"/>
<polygon fill="black" stroke="black" points="570.65,-436.49 568.51,-426.11 563.71,-435.56 570.65,-436.49"/>
</g>
</g>
</svg>
