<?xml version="1.0" encoding="UTF-8" standalone="no"?>
<!DOCTYPE svg PUBLIC "-//W3C//DTD SVG 1.1//EN"
 "http://www.w3.org/Graphics/SVG/1.1/DTD/svg11.dtd">
<!-- Generated by graphviz version 7.0.6 (20230106.0513)
 -->
<!-- Title: exact_real_arith Pages: 1 -->
<svg width="1070pt" height="1110pt"
 viewBox="0.00 0.00 1070.00 1110.00" xmlns="http://www.w3.org/2000/svg" xmlns:xlink="http://www.w3.org/1999/xlink">
<g id="graph0" class="graph" transform="scale(1 1) rotate(0) translate(4 1106)">
<title>exact_real_arith</title>
<polygon fill="white" stroke="none" points="-4,4 -4,-1106 1066,-1106 1066,4 -4,4"/>
<g id="clust1" class="cluster">
<title>cluster_NASALib</title>
<polygon fill="none" stroke="black" points="8,-8 8,-1094 958,-1094 958,-8 8,-8"/>
<text text-anchor="middle" x="483" y="-1078.8" font-family="Times,serif" font-size="14.00">NASALib</text>
</g>
<g id="clust2" class="cluster">
<title>cluster_PVS Prelude</title>
<polygon fill="none" stroke="black" points="966,-8 966,-83 1054,-83 1054,-8 966,-8"/>
<text text-anchor="middle" x="1010" y="-67.8" font-family="Times,serif" font-size="14.00">PVS Prelude</text>
</g>
<!-- NASALib/Sturm -->
<g id="node1" class="node">
<title>NASALib/Sturm</title>
<polygon fill="#fcfcd7" stroke="black" points="387,-919 333,-919 333,-883 387,-883 387,-919"/>
<text text-anchor="middle" x="360" y="-897.3" font-family="Times,serif" font-size="14.00">Sturm</text>
</g>
<!-- NASALib/interval_arith -->
<g id="node6" class="node">
<title>NASALib/interval_arith</title>
<polygon fill="#fcfcd7" stroke="black" points="185.5,-847 96.5,-847 96.5,-811 185.5,-811 185.5,-847"/>
<text text-anchor="middle" x="141" y="-825.3" font-family="Times,serif" font-size="14.00">interval_arith</text>
</g>
<!-- NASALib/Sturm&#45;&gt;NASALib/interval_arith -->
<g id="edge1" class="edge">
<title>NASALib/Sturm&#45;&gt;NASALib/interval_arith</title>
<path fill="none" stroke="black" d="M332.71,-891.28C298.78,-880.43 240.03,-861.65 196.48,-847.73"/>
<polygon fill="black" stroke="black" points="197.8,-844.48 187.21,-844.77 195.67,-851.15 197.8,-844.48"/>
</g>
<!-- NASALib/ints -->
<g id="node7" class="node">
<title>NASALib/ints</title>
<polygon fill="#fcfcd7" stroke="black" points="690,-52 636,-52 636,-16 690,-16 690,-52"/>
<text text-anchor="middle" x="663" y="-30.3" font-family="Times,serif" font-size="14.00">ints</text>
</g>
<!-- NASALib/Sturm&#45;&gt;NASALib/ints -->
<g id="edge2" class="edge">
<title>NASALib/Sturm&#45;&gt;NASALib/ints</title>
<path fill="none" stroke="black" d="M387.23,-893.44C503.07,-865.51 949,-758 949,-758 949,-758 949,-758 949,-324 949,-324 914,-163 914,-163 914,-163 717,-110 717,-110"/>
</g>
<!-- NASALib/reals -->
<g id="node14" class="node">
<title>NASALib/reals</title>
<polygon fill="#fcfcd7" stroke="black" points="454,-703 400,-703 400,-667 454,-667 454,-703"/>
<text text-anchor="middle" x="427" y="-681.3" font-family="Times,serif" font-size="14.00">reals</text>
</g>
<!-- NASALib/Sturm&#45;&gt;NASALib/reals -->
<g id="edge3" class="edge">
<title>NASALib/Sturm&#45;&gt;NASALib/reals</title>
<path fill="none" stroke="black" d="M366.43,-882.7C374.13,-861.97 386,-830 386,-830"/>
<path fill="none" stroke="black" d="M386,-828C386,-828 386,-758 386,-758"/>
</g>
<!-- NASALib/structures -->
<g id="node18" class="node">
<title>NASALib/structures</title>
<polygon fill="#fcfcd7" stroke="black" points="697.5,-127 628.5,-127 628.5,-91 697.5,-91 697.5,-127"/>
<text text-anchor="middle" x="663" y="-105.3" font-family="Times,serif" font-size="14.00">structures</text>
</g>
<!-- NASALib/Sturm&#45;&gt;NASALib/structures -->
<g id="edge4" class="edge">
<title>NASALib/Sturm&#45;&gt;NASALib/structures</title>
<path fill="none" stroke="black" d="M386,-828C386,-828 901,-703 901,-703 901,-703 929,-614 929,-614 929,-614 929,-614 929,-324 929,-324 909,-182 909,-182"/>
</g>
<!-- NASALib/analysis -->
<g id="node2" class="node">
<title>NASALib/analysis</title>
<polygon fill="#fcfcd7" stroke="black" points="324,-775 264,-775 264,-739 324,-739 324,-775"/>
<text text-anchor="middle" x="294" y="-753.3" font-family="Times,serif" font-size="14.00">analysis</text>
</g>
<!-- NASALib/analysis&#45;&gt;NASALib/ints -->
<g id="edge5" class="edge">
<title>NASALib/analysis&#45;&gt;NASALib/ints</title>
<path fill="none" stroke="black" d="M263,-396C263,-396 273,-343 273,-343 273,-343 283,-182 283,-182"/>
<path fill="none" stroke="black" d="M283,-180C283,-180 283,-110 283,-110"/>
<path fill="none" stroke="black" d="M292.5,-738.73C286.31,-667.22 263,-398 263,-398"/>
</g>
<!-- NASALib/orders -->
<g id="node12" class="node">
<title>NASALib/orders</title>
<polygon fill="#fcfcd7" stroke="black" points="790,-199 736,-199 736,-163 790,-163 790,-199"/>
<text text-anchor="middle" x="763" y="-177.3" font-family="Times,serif" font-size="14.00">orders</text>
</g>
<!-- NASALib/analysis&#45;&gt;NASALib/orders -->
<g id="edge6" class="edge">
<title>NASALib/analysis&#45;&gt;NASALib/orders</title>
<path fill="none" stroke="black" d="M324.38,-751.17C356.01,-746.15 401,-739 401,-739 401,-739 894,-703 894,-703 894,-703 909,-614 909,-614 909,-614 909,-614 909,-396 909,-396 909,-254 909,-254"/>
<path fill="none" stroke="black" d="M909,-252C909,-252 843.93,-220.8 800.67,-200.06"/>
<polygon fill="black" stroke="black" points="802.36,-196.99 791.83,-195.82 799.33,-203.3 802.36,-196.99"/>
</g>
<!-- NASALib/analysis&#45;&gt;NASALib/reals -->
<g id="edge7" class="edge">
<title>NASALib/analysis&#45;&gt;NASALib/reals</title>
<path fill="none" stroke="black" d="M324.18,-740.12C343.59,-729.9 368.95,-716.55 389.63,-705.67"/>
<polygon fill="black" stroke="black" points="391.1,-708.85 398.31,-701.1 387.84,-702.66 391.1,-708.85"/>
</g>
<!-- NASALib/analysis&#45;&gt;NASALib/structures -->
<g id="edge8" class="edge">
<title>NASALib/analysis&#45;&gt;NASALib/structures</title>
<path fill="none" stroke="black" d="M909,-252C909,-252 909,-182 909,-182"/>
</g>
<!-- lib/finite_sets -->
<g id="node22" class="node">
<title>lib/finite_sets</title>
<polygon fill="#fcfcd7" stroke="black" points="1046,-52 974,-52 974,-16 1046,-16 1046,-52"/>
<text text-anchor="middle" x="1010" y="-30.3" font-family="Times,serif" font-size="14.00">finite_sets</text>
</g>
<!-- NASALib/analysis&#45;&gt;lib/finite_sets -->
<g id="edge9" class="edge">
<title>NASALib/analysis&#45;&gt;lib/finite_sets</title>
<path fill="none" stroke="black" d="M324.1,-753.37C446.58,-742.68 901,-703 901,-703 901,-703 962,-559 962,-559 962,-559 978,-470 978,-470"/>
</g>
<!-- NASALib/exact_real_arith -->
<g id="node3" class="node">
<title>NASALib/exact_real_arith</title>
<polygon fill="#f7e28d" stroke="black" points="299,-991 195,-991 195,-955 299,-955 299,-991"/>
<text text-anchor="middle" x="247" y="-969.3" font-family="Times,serif" font-size="14.00">exact_real_arith</text>
</g>
<!-- NASALib/exact_real_arith&#45;&gt;NASALib/Sturm -->
<g id="edge10" class="edge">
<title>NASALib/exact_real_arith&#45;&gt;NASALib/Sturm</title>
<path fill="none" stroke="black" d="M275.22,-954.52C289.73,-945.53 307.59,-934.47 323.17,-924.81"/>
<polygon fill="black" stroke="black" points="324.58,-928.06 331.24,-919.82 320.9,-922.11 324.58,-928.06"/>
</g>
<!-- NASALib/exact_real_arith&#45;&gt;NASALib/interval_arith -->
<g id="edge11" class="edge">
<title>NASALib/exact_real_arith&#45;&gt;NASALib/interval_arith</title>
<path fill="none" stroke="black" d="M205,-900C205,-900 182.82,-875.74 164.58,-855.79"/>
<polygon fill="black" stroke="black" points="167.17,-853.44 157.84,-848.42 162.01,-858.16 167.17,-853.44"/>
<path fill="none" stroke="black" d="M236.62,-954.7C224.18,-933.97 205,-902 205,-902"/>
</g>
<!-- NASALib/lnexp -->
<g id="node9" class="node">
<title>NASALib/lnexp</title>
<polygon fill="#fcfcd7" stroke="black" points="264,-343 210,-343 210,-307 264,-307 264,-343"/>
<text text-anchor="middle" x="237" y="-321.3" font-family="Times,serif" font-size="14.00">lnexp</text>
</g>
<!-- NASALib/exact_real_arith&#45;&gt;NASALib/lnexp -->
<g id="edge12" class="edge">
<title>NASALib/exact_real_arith&#45;&gt;NASALib/lnexp</title>
<path fill="none" stroke="black" d="M205,-828C205,-828 197,-542 197,-542"/>
</g>
<!-- NASALib/exact_real_arith&#45;&gt;NASALib/reals -->
<g id="edge13" class="edge">
<title>NASALib/exact_real_arith&#45;&gt;NASALib/reals</title>
<path fill="none" stroke="black" d="M258.14,-954.85C291.12,-904.07 386,-758 386,-758"/>
<path fill="none" stroke="black" d="M386,-756C386,-756 399.58,-732.82 411.11,-713.14"/>
<polygon fill="black" stroke="black" points="414.07,-715.01 416.1,-704.61 408.03,-711.47 414.07,-715.01"/>
</g>
<!-- NASALib/exact_real_arith&#45;&gt;NASALib/structures -->
<g id="edge14" class="edge">
<title>NASALib/exact_real_arith&#45;&gt;NASALib/structures</title>
<path fill="none" stroke="black" d="M205,-900C205,-900 205,-830 205,-830"/>
<path fill="none" stroke="black" d="M205,-828C205,-828 137,-686 137,-686 137,-686 137,-686 137,-612 137,-612 117,-398 117,-398 117,-398 117,-398 117,-324 117,-324 117,-182 117,-182"/>
</g>
<!-- NASALib/trig -->
<g id="node20" class="node">
<title>NASALib/trig</title>
<polygon fill="#fcfcd7" stroke="black" points="191,-343 137,-343 137,-307 191,-307 191,-343"/>
<text text-anchor="middle" x="164" y="-321.3" font-family="Times,serif" font-size="14.00">trig</text>
</g>
<!-- NASALib/exact_real_arith&#45;&gt;NASALib/trig -->
<g id="edge15" class="edge">
<title>NASALib/exact_real_arith&#45;&gt;NASALib/trig</title>
<path fill="none" stroke="black" d="M137,-396C137,-396 145.7,-373.45 153.22,-353.95"/>
<polygon fill="black" stroke="black" points="156.45,-355.31 156.78,-344.72 149.92,-352.79 156.45,-355.31"/>
<path fill="none" stroke="black" d="M223.7,-954.59C172.97,-916.67 57,-830 57,-830 57,-830 57,-830 57,-684 57,-684 137,-398 137,-398"/>
</g>
<!-- NASALib/examples -->
<g id="node4" class="node">
<title>NASALib/examples</title>
<polygon fill="#fcfcd7" stroke="black" points="281,-1063 213,-1063 213,-1027 281,-1027 281,-1063"/>
<text text-anchor="middle" x="247" y="-1041.3" font-family="Times,serif" font-size="14.00">examples</text>
</g>
<!-- NASALib/examples&#45;&gt;NASALib/Sturm -->
<g id="edge16" class="edge">
<title>NASALib/examples&#45;&gt;NASALib/Sturm</title>
<path fill="none" stroke="black" d="M360,-972C360,-972 360,-950.08 360,-930.77"/>
<polygon fill="black" stroke="black" points="363.5,-930.82 360,-920.82 356.5,-930.82 363.5,-930.82"/>
</g>
<!-- NASALib/examples&#45;&gt;NASALib/analysis -->
<g id="edge17" class="edge">
<title>NASALib/examples&#45;&gt;NASALib/analysis</title>
<path fill="none" stroke="black" d="M294,-828C294,-828 294,-806.08 294,-786.77"/>
<polygon fill="black" stroke="black" points="297.5,-786.82 294,-776.82 290.5,-786.82 297.5,-786.82"/>
</g>
<!-- NASALib/examples&#45;&gt;NASALib/exact_real_arith -->
<g id="edge18" class="edge">
<title>NASALib/examples&#45;&gt;NASALib/exact_real_arith</title>
<path fill="none" stroke="black" d="M247,-1026.7C247,-1019.41 247,-1010.73 247,-1002.54"/>
<polygon fill="black" stroke="black" points="250.5,-1002.62 247,-992.62 243.5,-1002.62 250.5,-1002.62"/>
</g>
<!-- NASALib/examples&#45;&gt;NASALib/interval_arith -->
<g id="edge19" class="edge">
<title>NASALib/examples&#45;&gt;NASALib/interval_arith</title>
<path fill="none" stroke="black" d="M77,-900C77,-900 99.18,-875.74 117.42,-855.79"/>
<polygon fill="black" stroke="black" points="119.99,-858.16 124.16,-848.42 114.83,-853.44 119.99,-858.16"/>
</g>
<!-- NASALib/examples&#45;&gt;NASALib/lnexp -->
<g id="edge20" class="edge">
<title>NASALib/examples&#45;&gt;NASALib/lnexp</title>
<path fill="none" stroke="black" d="M77,-900C77,-900 87,-811 87,-811 87,-811 112,-667 112,-667 112,-667 197,-398 197,-398"/>
<path fill="none" stroke="black" d="M197,-396C197,-396 210.25,-372.82 221.49,-353.14"/>
<polygon fill="black" stroke="black" points="224.44,-355.04 226.36,-344.62 218.36,-351.56 224.44,-355.04"/>
<path fill="none" stroke="black" d="M77,-972C77,-972 77,-902 77,-902"/>
</g>
<!-- NASALib/examples&#45;&gt;NASALib/reals -->
<g id="edge21" class="edge">
<title>NASALib/examples&#45;&gt;NASALib/reals</title>
<path fill="none" stroke="black" d="M360,-972C360,-972 396,-919 396,-919 396,-919 396,-883 396,-883 396,-883 391,-811 391,-811 391,-811 386,-758 386,-758"/>
</g>
<!-- NASALib/examples&#45;&gt;NASALib/trig -->
<g id="edge22" class="edge">
<title>NASALib/examples&#45;&gt;NASALib/trig</title>
<path fill="none" stroke="black" d="M77,-972C77,-972 32,-775 32,-775 32,-775 17,-686 17,-686 17,-686 17,-686 17,-468 17,-468 95.53,-392.14 137.79,-351.32"/>
<polygon fill="black" stroke="black" points="140.13,-353.93 144.89,-344.46 135.26,-348.89 140.13,-353.93"/>
<path fill="none" stroke="black" d="M212.6,-1029.83C162.92,-1009.38 77,-974 77,-974"/>
</g>
<!-- NASALib/vectors -->
<g id="node21" class="node">
<title>NASALib/vectors</title>
<polygon fill="#fcfcd7" stroke="black" points="338,-415 282,-415 282,-379 338,-379 338,-415"/>
<text text-anchor="middle" x="310" y="-393.3" font-family="Times,serif" font-size="14.00">vectors</text>
</g>
<!-- NASALib/examples&#45;&gt;NASALib/vectors -->
<g id="edge23" class="edge">
<title>NASALib/examples&#45;&gt;NASALib/vectors</title>
<path fill="none" stroke="black" d="M294,-828C294,-828 255,-775 255,-775 255,-775 232,-703 232,-703 232,-703 232,-667 232,-667 232,-667 281.85,-495.08 301.85,-426.12"/>
<polygon fill="black" stroke="black" points="305.16,-427.27 304.58,-416.69 298.43,-425.32 305.16,-427.27"/>
<path fill="none" stroke="black" d="M275.22,-1026.52C308.69,-1005.78 360,-974 360,-974"/>
<path fill="none" stroke="black" d="M360,-972C360,-972 324,-919 324,-919 324,-919 294,-830 294,-830"/>
</g>
<!-- NASALib/extended_nnreal -->
<g id="node5" class="node">
<title>NASALib/extended_nnreal</title>
<polygon fill="#fcfcd7" stroke="black" points="790,-487 684,-487 684,-451 790,-451 790,-487"/>
<text text-anchor="middle" x="737" y="-465.3" font-family="Times,serif" font-size="14.00">extended_nnreal</text>
</g>
<!-- NASALib/extended_nnreal&#45;&gt;NASALib/analysis -->
<g id="edge24" class="edge">
<title>NASALib/extended_nnreal&#45;&gt;NASALib/analysis</title>
<path fill="none" stroke="black" d="M889,-614C889,-614 889,-684 889,-684"/>
<path fill="none" stroke="black" d="M755.64,-487.41C788.93,-518.52 857.34,-582.43 880.85,-604.39"/>
<polygon fill="black" stroke="black" points="878.2,-606.7 887.89,-610.97 882.98,-601.58 878.2,-606.7"/>
</g>
<!-- NASALib/extended_nnreal&#45;&gt;NASALib/reals -->
<g id="edge25" class="edge">
<title>NASALib/extended_nnreal&#45;&gt;NASALib/reals</title>
<path fill="none" stroke="black" d="M734.43,-487.23C728.24,-528.76 713,-631 713,-631 713,-631 543.82,-662.35 465.7,-676.83"/>
<polygon fill="black" stroke="black" points="465.11,-673.38 455.91,-678.64 466.38,-680.26 465.11,-673.38"/>
</g>
<!-- NASALib/series -->
<g id="node15" class="node">
<title>NASALib/series</title>
<polygon fill="#fcfcd7" stroke="black" points="450,-271 396,-271 396,-235 450,-235 450,-271"/>
<text text-anchor="middle" x="423" y="-249.3" font-family="Times,serif" font-size="14.00">series</text>
</g>
<!-- NASALib/extended_nnreal&#45;&gt;NASALib/series -->
<g id="edge26" class="edge">
<title>NASALib/extended_nnreal&#45;&gt;NASALib/series</title>
<path fill="none" stroke="black" d="M710.81,-450.65C687.47,-435.19 657,-415 657,-415 657,-415 602,-326 602,-326"/>
<path fill="none" stroke="black" d="M602,-324C602,-324 513.32,-289.32 460.8,-268.78"/>
<polygon fill="black" stroke="black" points="462.18,-265.57 451.6,-265.18 459.63,-272.08 462.18,-265.57"/>
</g>
<!-- NASALib/sigma_set -->
<g id="node17" class="node">
<title>NASALib/sigma_set</title>
<polygon fill="#fcfcd7" stroke="black" points="772.5,-415 701.5,-415 701.5,-379 772.5,-379 772.5,-415"/>
<text text-anchor="middle" x="737" y="-393.3" font-family="Times,serif" font-size="14.00">sigma_set</text>
</g>
<!-- NASALib/extended_nnreal&#45;&gt;NASALib/sigma_set -->
<g id="edge27" class="edge">
<title>NASALib/extended_nnreal&#45;&gt;NASALib/sigma_set</title>
<path fill="none" stroke="black" d="M737,-450.7C737,-443.41 737,-434.73 737,-426.54"/>
<polygon fill="black" stroke="black" points="740.5,-426.62 737,-416.62 733.5,-426.62 740.5,-426.62"/>
</g>
<!-- NASALib/interval_arith&#45;&gt;NASALib/analysis -->
<g id="edge28" class="edge">
<title>NASALib/interval_arith&#45;&gt;NASALib/analysis</title>
<path fill="none" stroke="black" d="M179.21,-810.52C201.83,-800.17 230.46,-787.07 253.47,-776.54"/>
<polygon fill="black" stroke="black" points="254.92,-779.73 262.56,-772.38 252.01,-773.36 254.92,-779.73"/>
</g>
<!-- NASALib/interval_arith&#45;&gt;NASALib/ints -->
<g id="edge29" class="edge">
<title>NASALib/interval_arith&#45;&gt;NASALib/ints</title>
<path fill="none" stroke="black" d="M283,-108C283,-108 527.7,-60.99 624.38,-42.42"/>
<polygon fill="black" stroke="black" points="625.02,-45.86 634.18,-40.54 623.7,-38.99 625.02,-45.86"/>
<path fill="none" stroke="black" d="M128.25,-810.59C100.48,-772.67 37,-686 37,-686 37,-686 37,-686 37,-540 37,-540 72,-307 72,-307 72,-307 97,-182 97,-182"/>
<path fill="none" stroke="black" d="M97,-180C97,-180 112,-163 112,-163 112,-163 283,-110 283,-110"/>
</g>
<!-- NASALib/interval_arith&#45;&gt;NASALib/lnexp -->
<g id="edge30" class="edge">
<title>NASALib/interval_arith&#45;&gt;NASALib/lnexp</title>
<path fill="none" stroke="black" d="M197,-540C197,-540 197,-398 197,-398"/>
<path fill="none" stroke="black" d="M144.42,-810.54C156.58,-748.45 197,-542 197,-542"/>
</g>
<!-- NASALib/interval_arith&#45;&gt;NASALib/reals -->
<g id="edge31" class="edge">
<title>NASALib/interval_arith&#45;&gt;NASALib/reals</title>
<path fill="none" stroke="black" d="M163.25,-810.63C196.43,-784.73 255,-739 255,-739 255,-739 338.19,-713.37 388.86,-697.75"/>
<polygon fill="black" stroke="black" points="389.77,-701.13 398.3,-694.84 387.71,-694.44 389.77,-701.13"/>
</g>
<!-- NASALib/interval_arith&#45;&gt;NASALib/structures -->
<g id="edge32" class="edge">
<title>NASALib/interval_arith&#45;&gt;NASALib/structures</title>
<path fill="none" stroke="black" d="M117,-180C117,-180 484.96,-132.83 616.74,-115.93"/>
<polygon fill="black" stroke="black" points="617.04,-119.42 626.51,-114.68 616.15,-112.48 617.04,-119.42"/>
<path fill="none" stroke="black" d="M117,-684C117,-684 77,-542 77,-542 77,-542 77,-542 77,-324 77,-324 117,-182 117,-182"/>
<path fill="none" stroke="black" d="M138.05,-810.65C135.43,-795.19 132,-775 132,-775 132,-775 117,-686 117,-686"/>
</g>
<!-- NASALib/interval_arith&#45;&gt;NASALib/trig -->
<g id="edge33" class="edge">
<title>NASALib/interval_arith&#45;&gt;NASALib/trig</title>
<path fill="none" stroke="black" d="M117,-684C117,-684 137,-398 137,-398"/>
</g>
<!-- NASALib/lebesgue -->
<g id="node8" class="node">
<title>NASALib/lebesgue</title>
<polygon fill="#fcfcd7" stroke="black" points="811,-631 747,-631 747,-595 811,-595 811,-631"/>
<text text-anchor="middle" x="779" y="-609.3" font-family="Times,serif" font-size="14.00">lebesgue</text>
</g>
<!-- NASALib/lebesgue&#45;&gt;NASALib/analysis -->
<g id="edge34" class="edge">
<title>NASALib/lebesgue&#45;&gt;NASALib/analysis</title>
<path fill="none" stroke="black" d="M806.47,-631.48C830.27,-646.63 863.34,-667.67 879.43,-677.91"/>
<polygon fill="black" stroke="black" points="877.41,-680.77 887.72,-683.19 881.17,-674.87 877.41,-680.77"/>
<path fill="none" stroke="black" d="M889,-686C889,-686 401,-739 401,-739 401,-739 356.01,-746.15 324.38,-751.17"/>
</g>
<!-- NASALib/lebesgue&#45;&gt;NASALib/extended_nnreal -->
<g id="edge35" class="edge">
<title>NASALib/lebesgue&#45;&gt;NASALib/extended_nnreal</title>
<path fill="none" stroke="black" d="M773.85,-594.59C766.73,-570.5 753.79,-526.75 745.29,-498.03"/>
<polygon fill="black" stroke="black" points="748.68,-497.16 742.49,-488.56 741.97,-499.14 748.68,-497.16"/>
</g>
<!-- NASALib/measure_integration -->
<g id="node10" class="node">
<title>NASALib/measure_integration</title>
<polygon fill="#fcfcd7" stroke="black" points="689,-559 561,-559 561,-523 689,-523 689,-559"/>
<text text-anchor="middle" x="625" y="-537.3" font-family="Times,serif" font-size="14.00">measure_integration</text>
</g>
<!-- NASALib/lebesgue&#45;&gt;NASALib/measure_integration -->
<g id="edge36" class="edge">
<title>NASALib/lebesgue&#45;&gt;NASALib/measure_integration</title>
<path fill="none" stroke="black" d="M746.72,-597.33C725.51,-587.69 697.38,-574.9 673.51,-564.05"/>
<polygon fill="black" stroke="black" points="675.15,-560.95 664.6,-560 672.26,-567.33 675.15,-560.95"/>
</g>
<!-- NASALib/metric_space -->
<g id="node11" class="node">
<title>NASALib/metric_space</title>
<polygon fill="#fcfcd7" stroke="black" points="525.5,-487 436.5,-487 436.5,-451 525.5,-451 525.5,-487"/>
<text text-anchor="middle" x="481" y="-465.3" font-family="Times,serif" font-size="14.00">metric_space</text>
</g>
<!-- NASALib/lebesgue&#45;&gt;NASALib/metric_space -->
<g id="edge37" class="edge">
<title>NASALib/lebesgue&#45;&gt;NASALib/metric_space</title>
<path fill="none" stroke="black" d="M477,-540C477,-540 478.25,-518.08 479.36,-498.77"/>
<polygon fill="black" stroke="black" points="482.85,-499 479.92,-488.81 475.86,-498.6 482.85,-499"/>
</g>
<!-- NASALib/power -->
<g id="node13" class="node">
<title>NASALib/power</title>
<polygon fill="#fcfcd7" stroke="black" points="470,-415 416,-415 416,-379 470,-379 470,-415"/>
<text text-anchor="middle" x="443" y="-393.3" font-family="Times,serif" font-size="14.00">power</text>
</g>
<!-- NASALib/lebesgue&#45;&gt;NASALib/power -->
<g id="edge38" class="edge">
<title>NASALib/lebesgue&#45;&gt;NASALib/power</title>
<path fill="none" stroke="black" d="M477,-540C477,-540 428,-487 428,-487 428,-487 428,-451 428,-451 428,-451 431.42,-438.92 434.99,-426.3"/>
<polygon fill="black" stroke="black" points="438.32,-427.39 437.68,-416.81 431.59,-425.48 438.32,-427.39"/>
<path fill="none" stroke="black" d="M746.88,-604.63C683.41,-590.07 548,-559 548,-559 548,-559 477,-542 477,-542"/>
</g>
<!-- NASALib/sets_aux -->
<g id="node16" class="node">
<title>NASALib/sets_aux</title>
<polygon fill="#fcfcd7" stroke="black" points="717.5,-343 654.5,-343 654.5,-307 717.5,-307 717.5,-343"/>
<text text-anchor="middle" x="686" y="-321.3" font-family="Times,serif" font-size="14.00">sets_aux</text>
</g>
<!-- NASALib/lebesgue&#45;&gt;NASALib/sets_aux -->
<g id="edge40" class="edge">
<title>NASALib/lebesgue&#45;&gt;NASALib/sets_aux</title>
<path fill="none" stroke="black" d="M810,-540C810,-540 806,-451 806,-451 806,-451 782,-379 782,-379 782,-379 753.25,-363.13 727.21,-348.75"/>
<polygon fill="black" stroke="black" points="729.21,-345.85 718.76,-344.09 725.82,-351.98 729.21,-345.85"/>
</g>
<!-- NASALib/lebesgue&#45;&gt;NASALib/sigma_set -->
<g id="edge41" class="edge">
<title>NASALib/lebesgue&#45;&gt;NASALib/sigma_set</title>
<path fill="none" stroke="black" d="M810,-540C810,-540 799,-451 799,-451 799,-451 781.87,-436.36 765.62,-422.47"/>
<polygon fill="black" stroke="black" points="768.33,-420.18 758.45,-416.34 763.78,-425.5 768.33,-420.18"/>
<path fill="none" stroke="black" d="M786.66,-594.7C795.84,-573.97 810,-542 810,-542"/>
</g>
<!-- NASALib/lebesgue&#45;&gt;NASALib/structures -->
<g id="edge42" class="edge">
<title>NASALib/lebesgue&#45;&gt;NASALib/structures</title>
<path fill="none" stroke="black" d="M909,-180C909,-180 712,-127 712,-127 712,-127 710.64,-126.53 708.37,-125.74"/>
<polygon fill="black" stroke="black" points="709.85,-122.55 699.26,-122.58 707.56,-129.16 709.85,-122.55"/>
<path fill="none" stroke="black" d="M790.79,-594.65C801.29,-579.19 815,-559 815,-559 815,-559 909,-182 909,-182"/>
</g>
<!-- NASALib/topology -->
<g id="node19" class="node">
<title>NASALib/topology</title>
<polygon fill="#fcfcd7" stroke="black" points="602.5,-415 537.5,-415 537.5,-379 602.5,-379 602.5,-415"/>
<text text-anchor="middle" x="570" y="-393.3" font-family="Times,serif" font-size="14.00">topology</text>
</g>
<!-- NASALib/lebesgue&#45;&gt;NASALib/topology -->
<g id="edge43" class="edge">
<title>NASALib/lebesgue&#45;&gt;NASALib/topology</title>
<path fill="none" stroke="black" d="M746.96,-604.52C684.39,-589.91 552,-559 552,-559 552,-559 552,-523 552,-523 552,-523 570,-487 570,-487 570,-487 570,-452.42 570,-426.37"/>
<polygon fill="black" stroke="black" points="573.5,-426.67 570,-416.67 566.5,-426.67 573.5,-426.67"/>
</g>
<!-- NASALib/lnexp&#45;&gt;NASALib/analysis -->
<g id="edge44" class="edge">
<title>NASALib/lnexp&#45;&gt;NASALib/analysis</title>
<path fill="none" stroke="black" d="M239,-398C239,-398 232,-451 232,-451 232,-451 232,-487 232,-487 232,-487 237,-684 237,-684"/>
<path fill="none" stroke="black" d="M237.49,-343.3C237.86,-356.26 238.36,-373.6 238.68,-384.79"/>
<polygon fill="black" stroke="black" points="235.17,-384.59 238.96,-394.49 242.17,-384.39 235.17,-384.59"/>
</g>
<!-- NASALib/lnexp&#45;&gt;NASALib/ints -->
<g id="edge45" class="edge">
<title>NASALib/lnexp&#45;&gt;NASALib/ints</title>
<path fill="none" stroke="black" d="M219.62,-306.62C185.27,-272.27 112,-199 112,-199 112,-199 97,-182 97,-182"/>
</g>
<!-- NASALib/lnexp&#45;&gt;NASALib/reals -->
<g id="edge46" class="edge">
<title>NASALib/lnexp&#45;&gt;NASALib/reals</title>
<path fill="none" stroke="black" d="M239,-398C239,-398 297,-612 297,-612"/>
</g>
<!-- NASALib/lnexp&#45;&gt;NASALib/series -->
<g id="edge47" class="edge">
<title>NASALib/lnexp&#45;&gt;NASALib/series</title>
<path fill="none" stroke="black" d="M264.27,-314.03C306.28,-298.68 382,-271 382,-271 382,-271 383.37,-270.43 385.62,-269.5"/>
<polygon fill="black" stroke="black" points="386.59,-272.89 394.48,-265.82 383.9,-266.42 386.59,-272.89"/>
</g>
<!-- NASALib/measure_integration&#45;&gt;NASALib/extended_nnreal -->
<g id="edge48" class="edge">
<title>NASALib/measure_integration&#45;&gt;NASALib/extended_nnreal</title>
<path fill="none" stroke="black" d="M652.97,-522.52C667.11,-513.68 684.46,-502.84 699.72,-493.3"/>
<polygon fill="black" stroke="black" points="701.47,-496.33 708.1,-488.06 697.76,-490.39 701.47,-496.33"/>
</g>
<!-- NASALib/measure_integration&#45;&gt;NASALib/metric_space -->
<g id="edge49" class="edge">
<title>NASALib/measure_integration&#45;&gt;NASALib/metric_space</title>
<path fill="none" stroke="black" d="M589.03,-522.52C570.16,-513.34 546.85,-502.01 526.71,-492.22"/>
<polygon fill="black" stroke="black" points="528.39,-489.15 517.87,-487.92 525.33,-495.44 528.39,-489.15"/>
</g>
<!-- NASALib/measure_integration&#45;&gt;NASALib/orders -->
<g id="edge50" class="edge">
<title>NASALib/measure_integration&#45;&gt;NASALib/orders</title>
<path fill="none" stroke="black" d="M737,-324C737,-324 750.15,-252.2 757.74,-210.71"/>
<polygon fill="black" stroke="black" points="761.18,-211.37 759.54,-200.9 754.3,-210.11 761.18,-211.37"/>
<path fill="none" stroke="black" d="M665,-468C665,-468 693,-379 693,-379 693,-379 727,-343 727,-343 727,-343 737,-326 737,-326"/>
<path fill="none" stroke="black" d="M634.89,-522.7C646.73,-501.97 665,-470 665,-470"/>
</g>
<!-- NASALib/measure_integration&#45;&gt;NASALib/power -->
<g id="edge51" class="edge">
<title>NASALib/measure_integration&#45;&gt;NASALib/power</title>
<path fill="none" stroke="black" d="M607.65,-522.84C581.49,-496.98 535,-451 535,-451 535,-451 505.57,-434.05 480.01,-419.32"/>
<polygon fill="black" stroke="black" points="481.83,-416.33 471.42,-414.37 478.33,-422.4 481.83,-416.33"/>
</g>
<!-- NASALib/measure_integration&#45;&gt;NASALib/reals -->
<g id="edge52" class="edge">
<title>NASALib/measure_integration&#45;&gt;NASALib/reals</title>
<path fill="none" stroke="black" d="M599.27,-559.48C577.11,-574.55 546.36,-595.44 531.2,-605.75"/>
<polygon fill="black" stroke="black" points="529.56,-602.63 523.25,-611.15 533.49,-608.42 529.56,-602.63"/>
</g>
<!-- NASALib/measure_integration&#45;&gt;NASALib/series -->
<g id="edge53" class="edge">
<title>NASALib/measure_integration&#45;&gt;NASALib/series</title>
<path fill="none" stroke="black" d="M611.89,-522.84C592.13,-496.98 557,-451 557,-451 557,-451 498,-398 498,-398"/>
</g>
<!-- NASALib/measure_integration&#45;&gt;NASALib/sets_aux -->
<g id="edge54" class="edge">
<title>NASALib/measure_integration&#45;&gt;NASALib/sets_aux</title>
<path fill="none" stroke="black" d="M625,-468C625,-468 662,-398 662,-398"/>
<path fill="none" stroke="black" d="M662,-396C662,-396 669.73,-373.45 676.42,-353.95"/>
<polygon fill="black" stroke="black" points="679.64,-355.33 679.58,-344.74 673.02,-353.06 679.64,-355.33"/>
</g>
<!-- NASALib/measure_integration&#45;&gt;NASALib/sigma_set -->
<g id="edge55" class="edge">
<title>NASALib/measure_integration&#45;&gt;NASALib/sigma_set</title>
<path fill="none" stroke="black" d="M665,-468C665,-468 675,-451 675,-451 675,-451 692.13,-436.36 708.38,-422.47"/>
<polygon fill="black" stroke="black" points="710.22,-425.5 715.55,-416.34 705.67,-420.18 710.22,-425.5"/>
</g>
<!-- NASALib/measure_integration&#45;&gt;NASALib/structures -->
<g id="edge56" class="edge">
<title>NASALib/measure_integration&#45;&gt;NASALib/structures</title>
<path fill="none" stroke="black" d="M625,-468C625,-468 622,-254 622,-254"/>
</g>
<!-- NASALib/measure_integration&#45;&gt;NASALib/topology -->
<g id="edge57" class="edge">
<title>NASALib/measure_integration&#45;&gt;NASALib/topology</title>
<path fill="none" stroke="black" d="M625,-522.7C625,-501.97 625,-470 625,-470"/>
<path fill="none" stroke="black" d="M625,-468C625,-468 606.28,-444.18 590.68,-424.33"/>
<polygon fill="black" stroke="black" points="593.46,-422.19 584.53,-416.49 587.96,-426.52 593.46,-422.19"/>
</g>
<!-- NASALib/measure_integration&#45;&gt;lib/finite_sets -->
<g id="edge58" class="edge">
<title>NASALib/measure_integration&#45;&gt;lib/finite_sets</title>
<path fill="none" stroke="black" d="M978,-468C978,-468 978,-398 978,-398"/>
<path fill="none" stroke="black" d="M689.18,-529.91C786.96,-514.53 962,-487 962,-487 962,-487 978,-470 978,-470"/>
</g>
<!-- NASALib/metric_space&#45;&gt;NASALib/analysis -->
<g id="edge59" class="edge">
<title>NASALib/metric_space&#45;&gt;NASALib/analysis</title>
<path fill="none" stroke="black" d="M471.06,-487.15C446.24,-530 382.1,-640.68 362.67,-674.22"/>
<polygon fill="black" stroke="black" points="359.74,-672.28 357.76,-682.69 365.8,-675.79 359.74,-672.28"/>
</g>
<!-- NASALib/metric_space&#45;&gt;NASALib/power -->
<g id="edge60" class="edge">
<title>NASALib/metric_space&#45;&gt;NASALib/power</title>
<path fill="none" stroke="black" d="M471.61,-450.7C467.42,-442.98 462.39,-433.71 457.72,-425.11"/>
<polygon fill="black" stroke="black" points="460.85,-423.55 453.01,-416.43 454.7,-426.89 460.85,-423.55"/>
</g>
<!-- NASALib/metric_space&#45;&gt;NASALib/series -->
<g id="edge62" class="edge">
<title>NASALib/metric_space&#45;&gt;NASALib/series</title>
<path fill="none" stroke="black" d="M498,-396C498,-396 459.26,-322.66 437.47,-281.39"/>
<polygon fill="black" stroke="black" points="440.67,-279.96 432.9,-272.75 434.48,-283.23 440.67,-279.96"/>
<path fill="none" stroke="black" d="M485.2,-450.7C490.24,-429.97 498,-398 498,-398"/>
</g>
<!-- NASALib/metric_space&#45;&gt;NASALib/sets_aux -->
<g id="edge63" class="edge">
<title>NASALib/metric_space&#45;&gt;NASALib/sets_aux</title>
<path fill="none" stroke="black" d="M490.25,-450.84C504.2,-424.98 529,-379 529,-379 529,-379 597.01,-356.04 643.51,-340.34"/>
<polygon fill="black" stroke="black" points="644.44,-343.72 652.79,-337.21 642.2,-337.09 644.44,-343.72"/>
</g>
<!-- NASALib/metric_space&#45;&gt;NASALib/topology -->
<g id="edge64" class="edge">
<title>NASALib/metric_space&#45;&gt;NASALib/topology</title>
<path fill="none" stroke="black" d="M503,-450.7C513.91,-442.11 527.27,-431.61 539.18,-422.24"/>
<polygon fill="black" stroke="black" points="541.06,-425.22 546.75,-416.28 536.73,-419.71 541.06,-425.22"/>
</g>
<!-- NASALib/metric_space&#45;&gt;NASALib/vectors -->
<g id="edge65" class="edge">
<title>NASALib/metric_space&#45;&gt;NASALib/vectors</title>
<path fill="none" stroke="black" d="M438.29,-450.52C410.82,-439.27 375.4,-424.77 348.74,-413.86"/>
<polygon fill="black" stroke="black" points="350.25,-410.69 339.66,-410.14 347.59,-417.17 350.25,-410.69"/>
</g>
<!-- NASALib/metric_space&#45;&gt;lib/finite_sets -->
<g id="edge66" class="edge">
<title>NASALib/metric_space&#45;&gt;lib/finite_sets</title>
<path fill="none" stroke="black" d="M525.98,-461.66C648.32,-444.43 978,-398 978,-398"/>
<path fill="none" stroke="black" d="M978,-396C978,-396 978,-254 978,-254"/>
</g>
<!-- NASALib/orders&#45;&gt;NASALib/structures -->
<g id="edge67" class="edge">
<title>NASALib/orders&#45;&gt;NASALib/structures</title>
<path fill="none" stroke="black" d="M738.02,-162.52C725.64,-153.85 710.5,-143.25 697.07,-133.85"/>
<polygon fill="black" stroke="black" points="699.1,-131 688.9,-128.13 695.08,-136.73 699.1,-131"/>
</g>
<!-- NASALib/orders&#45;&gt;lib/finite_sets -->
<g id="edge68" class="edge">
<title>NASALib/orders&#45;&gt;lib/finite_sets</title>
<path fill="none" stroke="black" d="M790.23,-171.13C848.08,-152.3 978,-110 978,-110"/>
<path fill="none" stroke="black" d="M978,-108C978,-108 988.84,-83.26 997.91,-62.59"/>
<polygon fill="black" stroke="black" points="1001,-64.25 1001.81,-53.69 994.59,-61.44 1001,-64.25"/>
</g>
<!-- NASALib/power&#45;&gt;NASALib/analysis -->
<g id="edge69" class="edge">
<title>NASALib/power&#45;&gt;NASALib/analysis</title>
<path fill="none" stroke="black" d="M426.3,-415.35C411.43,-430.81 392,-451 392,-451 392,-451 365.68,-626.22 358.69,-672.76"/>
<polygon fill="black" stroke="black" points="355.25,-672.09 357.22,-682.5 362.17,-673.13 355.25,-672.09"/>
</g>
<!-- NASALib/power&#45;&gt;NASALib/lnexp -->
<g id="edge70" class="edge">
<title>NASALib/power&#45;&gt;NASALib/lnexp</title>
<path fill="none" stroke="black" d="M415.64,-386.7C379.63,-374.47 316.12,-352.88 275.33,-339.02"/>
<polygon fill="black" stroke="black" points="276.5,-335.72 265.9,-335.82 274.24,-342.35 276.5,-335.72"/>
</g>
<!-- NASALib/power&#45;&gt;NASALib/reals -->
<g id="edge71" class="edge">
<title>NASALib/power&#45;&gt;NASALib/reals</title>
<path fill="none" stroke="black" d="M431.63,-415.3C422.69,-428.91 410.57,-447.35 403.29,-458.42"/>
<polygon fill="black" stroke="black" points="400.4,-456.46 397.83,-466.74 406.25,-460.3 400.4,-456.46"/>
</g>
<!-- NASALib/reals&#45;&gt;NASALib/ints -->
<g id="edge72" class="edge">
<title>NASALib/reals&#45;&gt;NASALib/ints</title>
<path fill="none" stroke="black" d="M413.9,-666.65C402.24,-651.19 387,-631 387,-631 387,-631 263,-398 263,-398"/>
</g>
<!-- NASALib/reals&#45;&gt;NASALib/lebesgue -->
<g id="edge73" class="edge">
<title>NASALib/reals&#45;&gt;NASALib/lebesgue</title>
<path fill="none" stroke="black" d="M465.55,-677.32C547.78,-663.08 733,-631 733,-631 733,-631 734.14,-630.58 736.05,-629.87"/>
<polygon fill="black" stroke="black" points="465.17,-673.84 455.92,-678.99 466.37,-680.73 465.17,-673.84"/>
<polygon fill="black" stroke="black" points="736.97,-633.27 745.13,-626.52 734.54,-626.7 736.97,-633.27"/>
</g>
<!-- NASALib/reals&#45;&gt;NASALib/metric_space -->
<g id="edge74" class="edge">
<title>NASALib/reals&#45;&gt;NASALib/metric_space</title>
<path fill="none" stroke="black" d="M435.01,-655.7C438.58,-643.08 442,-631 442,-631 442,-631 462.96,-544.48 474.15,-498.29"/>
<polygon fill="black" stroke="black" points="431.68,-654.61 432.32,-665.19 438.41,-656.52 431.68,-654.61"/>
<polygon fill="black" stroke="black" points="477.52,-499.24 476.47,-488.7 470.71,-497.6 477.52,-499.24"/>
</g>
<!-- NASALib/reals&#45;&gt;NASALib/sets_aux -->
<g id="edge75" class="edge">
<title>NASALib/reals&#45;&gt;NASALib/sets_aux</title>
<path fill="none" stroke="black" d="M454.48,-671.33C523.37,-639.55 698,-559 698,-559 698,-559 698,-523 698,-523 698,-523 675,-487 675,-487 675,-487 662,-398 662,-398"/>
</g>
<!-- NASALib/reals&#45;&gt;NASALib/structures -->
<g id="edge76" class="edge">
<title>NASALib/reals&#45;&gt;NASALib/structures</title>
<path fill="none" stroke="black" d="M423.89,-666.52C415.33,-618.3 392,-487 392,-487 392,-487 377,-254 377,-254"/>
</g>
<!-- NASALib/series&#45;&gt;NASALib/analysis -->
<g id="edge77" class="edge">
<title>NASALib/series&#45;&gt;NASALib/analysis</title>
<path fill="none" stroke="black" d="M417.76,-271.35C413.09,-286.81 407,-307 407,-307 407,-307 382,-451 382,-451 382,-451 361,-595 361,-595 361,-595 358.58,-648.78 357.51,-672.73"/>
<polygon fill="black" stroke="black" points="354.02,-672.34 357.07,-682.49 361.01,-672.66 354.02,-672.34"/>
<path fill="none" stroke="black" d="M357,-686C357,-686 328.23,-717.97 309.57,-738.7"/>
</g>
<!-- NASALib/series&#45;&gt;NASALib/ints -->
<g id="edge78" class="edge">
<title>NASALib/series&#45;&gt;NASALib/ints</title>
<path fill="none" stroke="black" d="M395.67,-238.34C354.93,-217.97 283,-182 283,-182"/>
</g>
<!-- NASALib/series&#45;&gt;NASALib/orders -->
<g id="edge79" class="edge">
<title>NASALib/series&#45;&gt;NASALib/orders</title>
<path fill="none" stroke="black" d="M450.33,-247.16C524.14,-234.07 722,-199 722,-199 722,-199 723.37,-198.43 725.62,-197.5"/>
<polygon fill="black" stroke="black" points="726.59,-200.89 734.48,-193.82 723.9,-194.42 726.59,-200.89"/>
</g>
<!-- NASALib/series&#45;&gt;NASALib/reals -->
<g id="edge80" class="edge">
<title>NASALib/series&#45;&gt;NASALib/reals</title>
<path fill="none" stroke="black" d="M420.78,-271.38C416.38,-305.73 407,-379 407,-379 407,-379 400.96,-432.78 398.27,-456.73"/>
<polygon fill="black" stroke="black" points="394.81,-456.17 397.17,-466.5 401.76,-456.95 394.81,-456.17"/>
<path fill="none" stroke="black" d="M397,-470C397,-470 422,-523 422,-523 422,-523 425.18,-625.24 426.46,-666.77"/>
</g>
<!-- NASALib/sets_aux&#45;&gt;NASALib/ints -->
<g id="edge81" class="edge">
<title>NASALib/sets_aux&#45;&gt;NASALib/ints</title>
<path fill="none" stroke="black" d="M717,-180C717,-180 717,-110 717,-110"/>
<path fill="none" stroke="black" d="M717,-108C717,-108 707,-91 707,-91 707,-91 695.07,-75.81 683.63,-61.25"/>
<polygon fill="black" stroke="black" points="686.55,-59.3 677.62,-53.6 681.04,-63.63 686.55,-59.3"/>
</g>
<!-- NASALib/sets_aux&#45;&gt;NASALib/orders -->
<g id="edge82" class="edge">
<title>NASALib/sets_aux&#45;&gt;NASALib/orders</title>
<path fill="none" stroke="black" d="M717,-252C717,-252 732.37,-228.61 745.35,-208.87"/>
<polygon fill="black" stroke="black" points="748.23,-210.85 750.8,-200.57 742.38,-207 748.23,-210.85"/>
</g>
<!-- NASALib/sets_aux&#45;&gt;NASALib/structures -->
<g id="edge83" class="edge">
<title>NASALib/sets_aux&#45;&gt;NASALib/structures</title>
<path fill="none" stroke="black" d="M717,-252C717,-252 717,-182 717,-182"/>
<path fill="none" stroke="black" d="M717,-180C717,-180 698.62,-156.18 683.31,-136.33"/>
<polygon fill="black" stroke="black" points="686.15,-134.28 677.27,-128.5 680.61,-138.56 686.15,-134.28"/>
<path fill="none" stroke="black" d="M693.66,-306.7C702.84,-285.97 717,-254 717,-254"/>
</g>
<!-- NASALib/sets_aux&#45;&gt;lib/finite_sets -->
<g id="edge84" class="edge">
<title>NASALib/sets_aux&#45;&gt;lib/finite_sets</title>
<path fill="none" stroke="black" d="M978,-252C978,-252 978,-110 978,-110"/>
<path fill="none" stroke="black" d="M717.8,-316.38C793.48,-298.23 978,-254 978,-254"/>
</g>
<!-- NASALib/sigma_set&#45;&gt;NASALib/analysis -->
<g id="edge85" class="edge">
<title>NASALib/sigma_set&#45;&gt;NASALib/analysis</title>
<path fill="none" stroke="black" d="M761.89,-415.35C784.05,-430.81 813,-451 813,-451 813,-451 867.61,-566.68 884.25,-601.93"/>
<polygon fill="black" stroke="black" points="880.92,-603.08 888.35,-610.63 887.25,-600.09 880.92,-603.08"/>
</g>
<!-- NASALib/sigma_set&#45;&gt;NASALib/orders -->
<g id="edge86" class="edge">
<title>NASALib/sigma_set&#45;&gt;NASALib/orders</title>
<path fill="none" stroke="black" d="M737,-378.7C737,-357.97 737,-326 737,-326"/>
</g>
<!-- NASALib/sigma_set&#45;&gt;NASALib/reals -->
<g id="edge87" class="edge">
<title>NASALib/sigma_set&#45;&gt;NASALib/reals</title>
<path fill="none" stroke="black" d="M759.59,-415.35C779.72,-430.81 806,-451 806,-451 806,-451 815,-523 815,-523 815,-523 820,-595 820,-595 820,-595 820,-631 820,-631 820,-631 564.63,-665.44 465.6,-678.79"/>
<polygon fill="black" stroke="black" points="465.27,-675.31 455.82,-680.11 466.2,-682.24 465.27,-675.31"/>
</g>
<!-- NASALib/sigma_set&#45;&gt;NASALib/series -->
<g id="edge88" class="edge">
<title>NASALib/sigma_set&#45;&gt;NASALib/series</title>
<path fill="none" stroke="black" d="M703.28,-378.52C663.3,-357.78 602,-326 602,-326"/>
</g>
<!-- NASALib/sigma_set&#45;&gt;NASALib/sets_aux -->
<g id="edge89" class="edge">
<title>NASALib/sigma_set&#45;&gt;NASALib/sets_aux</title>
<path fill="none" stroke="black" d="M724.39,-378.7C718.59,-370.73 711.57,-361.1 705.14,-352.26"/>
<polygon fill="black" stroke="black" points="708.07,-350.35 699.35,-344.33 702.41,-354.47 708.07,-350.35"/>
</g>
<!-- NASALib/structures&#45;&gt;NASALib/ints -->
<g id="edge90" class="edge">
<title>NASALib/structures&#45;&gt;NASALib/ints</title>
<path fill="none" stroke="black" d="M663,-90.7C663,-82.67 663,-72.9 663,-63.8"/>
<polygon fill="black" stroke="black" points="666.5,-63.94 663,-53.94 659.5,-63.94 666.5,-63.94"/>
</g>
<!-- NASALib/structures&#45;&gt;lib/finite_sets -->
<g id="edge91" class="edge">
<title>NASALib/structures&#45;&gt;lib/finite_sets</title>
<path fill="none" stroke="black" d="M697.88,-105.08C776.76,-98.49 962,-83 962,-83 962,-83 973.17,-71.83 984.73,-60.27"/>
<polygon fill="black" stroke="black" points="987,-62.95 991.6,-53.4 982.05,-58 987,-62.95"/>
</g>
<!-- NASALib/topology&#45;&gt;NASALib/reals -->
<g id="edge92" class="edge">
<title>NASALib/topology&#45;&gt;NASALib/reals</title>
<path fill="none" stroke="black" d="M566.15,-415.15C556.68,-457.4 532.4,-565.62 524.52,-600.78"/>
<polygon fill="black" stroke="black" points="521.1,-600 522.33,-610.52 527.94,-601.53 521.1,-600"/>
<path fill="none" stroke="black" d="M522,-614C522,-614 478.62,-645.97 450.48,-666.7"/>
</g>
<!-- NASALib/topology&#45;&gt;NASALib/sets_aux -->
<g id="edge93" class="edge">
<title>NASALib/topology&#45;&gt;NASALib/sets_aux</title>
<path fill="none" stroke="black" d="M598.97,-378.52C613.75,-369.6 631.93,-358.63 647.83,-349.03"/>
<polygon fill="black" stroke="black" points="649.35,-352.21 656.1,-344.04 645.73,-346.21 649.35,-352.21"/>
</g>
<!-- NASALib/topology&#45;&gt;NASALib/structures -->
<g id="edge94" class="edge">
<title>NASALib/topology&#45;&gt;NASALib/structures</title>
<path fill="none" stroke="black" d="M576.38,-378.59C590.26,-340.67 622,-254 622,-254"/>
<path fill="none" stroke="black" d="M622,-252C622,-252 622,-182 622,-182"/>
</g>
<!-- NASALib/trig&#45;&gt;NASALib/analysis -->
<g id="edge95" class="edge">
<title>NASALib/trig&#45;&gt;NASALib/analysis</title>
<path fill="none" stroke="black" d="M165.59,-343.41C168.29,-372.89 173.69,-431.82 175.96,-456.6"/>
<polygon fill="black" stroke="black" points="172.46,-456.85 176.86,-466.49 179.44,-456.22 172.46,-456.85"/>
<path fill="none" stroke="black" d="M177,-470C177,-470 192,-559 192,-559 192,-559 237,-684 237,-684"/>
<path fill="none" stroke="black" d="M237,-686C237,-686 263.03,-717.97 279.91,-738.7"/>
</g>
<!-- NASALib/trig&#45;&gt;NASALib/ints -->
<g id="edge96" class="edge">
<title>NASALib/trig&#45;&gt;NASALib/ints</title>
<path fill="none" stroke="black" d="M155.78,-306.59C137.89,-268.67 97,-182 97,-182"/>
</g>
<!-- NASALib/trig&#45;&gt;NASALib/reals -->
<g id="edge97" class="edge">
<title>NASALib/trig&#45;&gt;NASALib/reals</title>
<path fill="none" stroke="black" d="M297,-614C297,-614 361.63,-648.8 399.75,-669.33"/>
<path fill="none" stroke="black" d="M177,-470C177,-470 297,-612 297,-612"/>
</g>
<!-- NASALib/trig&#45;&gt;NASALib/series -->
<g id="edge98" class="edge">
<title>NASALib/trig&#45;&gt;NASALib/series</title>
<path fill="none" stroke="black" d="M191.28,-311.47C196.82,-308.92 201,-307 201,-307 201,-307 382,-271 382,-271 382,-271 383.37,-270.43 385.62,-269.5"/>
<polygon fill="black" stroke="black" points="386.59,-272.89 394.48,-265.82 383.9,-266.42 386.59,-272.89"/>
</g>
<!-- NASALib/vectors&#45;&gt;NASALib/reals -->
<g id="edge99" class="edge">
<title>NASALib/vectors&#45;&gt;NASALib/reals</title>
<path fill="none" stroke="black" d="M317.05,-415.23C336.61,-463.04 391.67,-597.65 415.63,-656.21"/>
<polygon fill="black" stroke="black" points="412.26,-657.21 419.28,-665.14 418.74,-654.56 412.26,-657.21"/>
</g>
<!-- NASALib/vectors&#45;&gt;NASALib/structures -->
<g id="edge100" class="edge">
<title>NASALib/vectors&#45;&gt;NASALib/structures</title>
<path fill="none" stroke="black" d="M622,-180C622,-180 635.58,-156.82 647.11,-137.14"/>
<polygon fill="black" stroke="black" points="650.07,-139.01 652.1,-128.61 644.03,-135.47 650.07,-139.01"/>
<path fill="none" stroke="black" d="M377,-252C377,-252 387,-235 387,-235 387,-235 622,-182 622,-182"/>
<path fill="none" stroke="black" d="M318.22,-378.59C336.11,-340.67 377,-254 377,-254"/>
</g>
<!-- NASALib/vectors&#45;&gt;NASALib/trig -->
<g id="edge101" class="edge">
<title>NASALib/vectors&#45;&gt;NASALib/trig</title>
<path fill="none" stroke="black" d="M281.5,-382.34C258.7,-371.41 226.54,-355.98 201.62,-344.04"/>
<polygon fill="black" stroke="black" points="203.33,-340.98 192.8,-339.81 200.3,-347.29 203.33,-340.98"/>
</g>
</g>
</svg>
