<?xml version="1.0" encoding="UTF-8" standalone="no"?>
<!DOCTYPE svg PUBLIC "-//W3C//DTD SVG 1.1//EN"
 "http://www.w3.org/Graphics/SVG/1.1/DTD/svg11.dtd">
<!-- Generated by graphviz version 8.1.0 (20230707.0739)
 -->
<!-- Title: exact_real_arith Pages: 1 -->
<svg width="326pt" height="833pt"
 viewBox="0.00 0.00 326.00 833.00" xmlns="http://www.w3.org/2000/svg" xmlns:xlink="http://www.w3.org/1999/xlink">
<g id="graph0" class="graph" transform="scale(1 1) rotate(0) translate(4 829)">
<title>exact_real_arith</title>
<polygon fill="white" stroke="none" points="-4,4 -4,-829 322,-829 322,4 -4,4"/>
<g id="clust1" class="cluster">
<title>cluster_NASALib</title>
<polygon fill="none" stroke="black" points="8,-92.5 8,-817 310,-817 310,-92.5 8,-92.5"/>
<text text-anchor="middle" x="159" y="-799.7" font-family="Times,serif" font-size="14.00">NASALib</text>
</g>
<g id="clust2" class="cluster">
<title>cluster_PVS Prelude</title>
<polygon fill="none" stroke="black" points="176,-8 176,-84.5 264,-84.5 264,-8 176,-8"/>
<text text-anchor="middle" x="220" y="-67.2" font-family="Times,serif" font-size="14.00">PVS Prelude</text>
</g>
<!-- lib/finite_sets -->
<g id="node1" class="node">
<title>lib/finite_sets</title>
<polygon fill="#fcfcd7" stroke="black" points="255.75,-52 184.25,-52 184.25,-16 255.75,-16 255.75,-52"/>
<text text-anchor="middle" x="220" y="-28.95" font-family="Times,serif" font-size="14.00">finite_sets</text>
</g>
<!-- nasalib/Sturm -->
<g id="node2" class="node">
<title>nasalib/Sturm</title>
<polygon fill="#fcfcd7" stroke="black" points="116,-640.5 62,-640.5 62,-604.5 116,-604.5 116,-640.5"/>
<text text-anchor="middle" x="89" y="-617.45" font-family="Times,serif" font-size="14.00">Sturm</text>
</g>
<!-- nasalib/interval_arith -->
<g id="node6" class="node">
<title>nasalib/interval_arith</title>
<polygon fill="#fcfcd7" stroke="black" points="262.38,-568.5 173.62,-568.5 173.62,-532.5 262.38,-532.5 262.38,-568.5"/>
<text text-anchor="middle" x="218" y="-545.45" font-family="Times,serif" font-size="14.00">interval_arith</text>
</g>
<!-- nasalib/Sturm&#45;&gt;nasalib/interval_arith -->
<g id="edge1" class="edge">
<title>nasalib/Sturm&#45;&gt;nasalib/interval_arith</title>
<path fill="none" stroke="black" d="M116.36,-606.65C133.82,-597.18 156.79,-584.71 176.48,-574.03"/>
<polygon fill="black" stroke="black" points="178.01,-576.64 185.13,-568.79 174.67,-570.49 178.01,-576.64"/>
</g>
<!-- nasalib/ints -->
<g id="node7" class="node">
<title>nasalib/ints</title>
<polygon fill="#fcfcd7" stroke="black" points="202,-136.5 148,-136.5 148,-100.5 202,-100.5 202,-136.5"/>
<text text-anchor="middle" x="175" y="-113.45" font-family="Times,serif" font-size="14.00">ints</text>
</g>
<!-- nasalib/Sturm&#45;&gt;nasalib/ints -->
<g id="edge2" class="edge">
<title>nasalib/Sturm&#45;&gt;nasalib/ints</title>
<path fill="none" stroke="black" d="M103,-189.5C103,-189.5 128.85,-164.36 149.58,-144.22"/>
<polygon fill="black" stroke="black" points="151.47,-147.28 156.2,-137.8 146.59,-142.26 151.47,-147.28"/>
<path fill="none" stroke="black" d="M23,-405.5C23,-405.5 43,-244.5 43,-244.5 43,-244.5 103,-191.5 103,-191.5"/>
<path fill="none" stroke="black" d="M82.57,-604.2C74.87,-583.47 63,-551.5 63,-551.5"/>
<path fill="none" stroke="black" d="M63,-549.5C63,-549.5 23,-407.5 23,-407.5"/>
</g>
<!-- nasalib/reals -->
<g id="node10" class="node">
<title>nasalib/reals</title>
<polygon fill="#fcfcd7" stroke="black" points="110,-280.5 56,-280.5 56,-244.5 110,-244.5 110,-280.5"/>
<text text-anchor="middle" x="83" y="-257.45" font-family="Times,serif" font-size="14.00">reals</text>
</g>
<!-- nasalib/Sturm&#45;&gt;nasalib/reals -->
<g id="edge3" class="edge">
<title>nasalib/Sturm&#45;&gt;nasalib/reals</title>
<path fill="none" stroke="black" d="M63,-333.5C63,-333.5 69.5,-310.74 75.09,-291.18"/>
<polygon fill="black" stroke="black" points="78.67,-292.38 78.06,-281.8 71.94,-290.46 78.67,-292.38"/>
</g>
<!-- nasalib/structures -->
<g id="node12" class="node">
<title>nasalib/structures</title>
<polygon fill="#fcfcd7" stroke="black" points="209.25,-208.5 140.75,-208.5 140.75,-172.5 209.25,-172.5 209.25,-208.5"/>
<text text-anchor="middle" x="175" y="-185.45" font-family="Times,serif" font-size="14.00">structures</text>
</g>
<!-- nasalib/Sturm&#45;&gt;nasalib/structures -->
<g id="edge4" class="edge">
<title>nasalib/Sturm&#45;&gt;nasalib/structures</title>
<path fill="none" stroke="black" d="M63,-333.5C63,-333.5 47,-280.5 47,-280.5 47,-280.5 47,-244.5 47,-244.5 47,-244.5 93.33,-225.32 130.25,-210.03"/>
<polygon fill="black" stroke="black" points="131.46,-212.9 139.36,-205.84 128.78,-206.43 131.46,-212.9"/>
<path fill="none" stroke="black" d="M63,-549.5C63,-549.5 63,-335.5 63,-335.5"/>
</g>
<!-- nasalib/analysis -->
<g id="node3" class="node">
<title>nasalib/analysis</title>
<polygon fill="#fcfcd7" stroke="black" points="221.75,-352.5 162.25,-352.5 162.25,-316.5 221.75,-316.5 221.75,-352.5"/>
<text text-anchor="middle" x="192" y="-329.45" font-family="Times,serif" font-size="14.00">analysis</text>
</g>
<!-- nasalib/analysis&#45;&gt;lib/finite_sets -->
<g id="edge5" class="edge">
<title>nasalib/analysis&#45;&gt;lib/finite_sets</title>
<path fill="none" stroke="black" d="M219.5,-316.15C244,-300.69 276,-280.5 276,-280.5 276,-280.5 290,-191.5 290,-191.5"/>
</g>
<!-- nasalib/analysis&#45;&gt;nasalib/ints -->
<g id="edge6" class="edge">
<title>nasalib/analysis&#45;&gt;nasalib/ints</title>
<path fill="none" stroke="black" d="M174.65,-316.15C159.19,-300.69 139,-280.5 139,-280.5 139,-280.5 129,-263.5 129,-263.5"/>
</g>
<!-- nasalib/orders -->
<g id="node9" class="node">
<title>nasalib/orders</title>
<polygon fill="#fcfcd7" stroke="black" points="202,-280.5 148,-280.5 148,-244.5 202,-244.5 202,-280.5"/>
<text text-anchor="middle" x="175" y="-257.45" font-family="Times,serif" font-size="14.00">orders</text>
</g>
<!-- nasalib/analysis&#45;&gt;nasalib/orders -->
<g id="edge7" class="edge">
<title>nasalib/analysis&#45;&gt;nasalib/orders</title>
<path fill="none" stroke="black" d="M187.8,-316.2C185.97,-308.65 183.77,-299.62 181.72,-291.18"/>
<polygon fill="black" stroke="black" points="184.92,-290.5 179.15,-281.6 178.11,-292.15 184.92,-290.5"/>
</g>
<!-- nasalib/analysis&#45;&gt;nasalib/reals -->
<g id="edge8" class="edge">
<title>nasalib/analysis&#45;&gt;nasalib/reals</title>
<path fill="none" stroke="black" d="M164.78,-316.02C150.89,-307.1 133.81,-296.13 118.86,-286.53"/>
<polygon fill="black" stroke="black" points="121.18,-283.22 110.88,-280.76 117.4,-289.11 121.18,-283.22"/>
</g>
<!-- nasalib/analysis&#45;&gt;nasalib/structures -->
<g id="edge9" class="edge">
<title>nasalib/analysis&#45;&gt;nasalib/structures</title>
<path fill="none" stroke="black" d="M241,-261.5C241,-261.5 217.72,-236.81 198.81,-216.75"/>
<polygon fill="black" stroke="black" points="201.72,-214.68 192.31,-209.8 196.63,-219.48 201.72,-214.68"/>
<path fill="none" stroke="black" d="M204.11,-316.2C218.62,-295.47 241,-263.5 241,-263.5"/>
</g>
<!-- nasalib/exact_real_arith -->
<g id="node4" class="node">
<title>nasalib/exact_real_arith</title>
<polygon fill="#f7e28d" stroke="black" points="211.5,-712.5 108.5,-712.5 108.5,-676.5 211.5,-676.5 211.5,-712.5"/>
<text text-anchor="middle" x="160" y="-689.45" font-family="Times,serif" font-size="14.00">exact_real_arith</text>
</g>
<!-- nasalib/exact_real_arith&#45;&gt;nasalib/Sturm -->
<g id="edge10" class="edge">
<title>nasalib/exact_real_arith&#45;&gt;nasalib/Sturm</title>
<path fill="none" stroke="black" d="M142.45,-676.2C133.85,-667.72 123.35,-657.36 113.93,-648.08"/>
<polygon fill="black" stroke="black" points="116.93,-646.13 107.35,-641.6 112.01,-651.12 116.93,-646.13"/>
</g>
<!-- nasalib/exact_real_arith&#45;&gt;nasalib/interval_arith -->
<g id="edge11" class="edge">
<title>nasalib/exact_real_arith&#45;&gt;nasalib/interval_arith</title>
<path fill="none" stroke="black" d="M218,-621.5C218,-621.5 218,-599.16 218,-579.72"/>
<polygon fill="black" stroke="black" points="221.5,-579.8 218,-569.8 214.5,-579.8 221.5,-579.8"/>
</g>
<!-- nasalib/lnexp -->
<g id="node8" class="node">
<title>nasalib/lnexp</title>
<polygon fill="#fcfcd7" stroke="black" points="156,-496.5 102,-496.5 102,-460.5 156,-460.5 156,-496.5"/>
<text text-anchor="middle" x="129" y="-473.45" font-family="Times,serif" font-size="14.00">lnexp</text>
</g>
<!-- nasalib/exact_real_arith&#45;&gt;nasalib/lnexp -->
<g id="edge12" class="edge">
<title>nasalib/exact_real_arith&#45;&gt;nasalib/lnexp</title>
<path fill="none" stroke="black" d="M218,-621.5C218,-621.5 165,-568.5 165,-568.5 165,-568.5 155,-551.5 155,-551.5"/>
<path fill="none" stroke="black" d="M174.34,-676.2C191.51,-655.47 218,-623.5 218,-623.5"/>
</g>
<!-- nasalib/exact_real_arith&#45;&gt;nasalib/reals -->
<g id="edge13" class="edge">
<title>nasalib/exact_real_arith&#45;&gt;nasalib/reals</title>
<path fill="none" stroke="black" d="M83,-405.5C83,-405.5 83,-333.09 83,-291.68"/>
<polygon fill="black" stroke="black" points="86.5,-291.91 83,-281.91 79.5,-291.91 86.5,-291.91"/>
<path fill="none" stroke="black" d="M154.05,-676.02C137.66,-627.8 93,-496.5 93,-496.5 93,-496.5 83,-407.5 83,-407.5"/>
</g>
<!-- nasalib/exact_real_arith&#45;&gt;nasalib/structures -->
<g id="edge14" class="edge">
<title>nasalib/exact_real_arith&#45;&gt;nasalib/structures</title>
<path fill="none" stroke="black" d="M281,-549.5C281,-549.5 266,-388.5 266,-388.5 266,-388.5 241,-263.5 241,-263.5"/>
</g>
<!-- nasalib/trig -->
<g id="node13" class="node">
<title>nasalib/trig</title>
<polygon fill="#fcfcd7" stroke="black" points="262,-496.5 208,-496.5 208,-460.5 262,-460.5 262,-496.5"/>
<text text-anchor="middle" x="235" y="-473.45" font-family="Times,serif" font-size="14.00">trig</text>
</g>
<!-- nasalib/exact_real_arith&#45;&gt;nasalib/trig -->
<g id="edge15" class="edge">
<title>nasalib/exact_real_arith&#45;&gt;nasalib/trig</title>
<path fill="none" stroke="black" d="M281,-549.5C281,-549.5 271,-532.5 271,-532.5 271,-532.5 261.95,-519.17 252.92,-505.88"/>
<polygon fill="black" stroke="black" points="255.3,-504.16 246.79,-497.85 249.51,-508.09 255.3,-504.16"/>
<path fill="none" stroke="black" d="M218,-621.5C218,-621.5 271,-568.5 271,-568.5 271,-568.5 281,-551.5 281,-551.5"/>
</g>
<!-- nasalib/examples -->
<g id="node5" class="node">
<title>nasalib/examples</title>
<polygon fill="#fcfcd7" stroke="black" points="193.88,-784.5 126.12,-784.5 126.12,-748.5 193.88,-748.5 193.88,-784.5"/>
<text text-anchor="middle" x="160" y="-761.45" font-family="Times,serif" font-size="14.00">examples</text>
</g>
<!-- nasalib/examples&#45;&gt;nasalib/Sturm -->
<g id="edge16" class="edge">
<title>nasalib/examples&#45;&gt;nasalib/Sturm</title>
<path fill="none" stroke="black" d="M89,-693.5C89,-693.5 89,-671.16 89,-651.72"/>
<polygon fill="black" stroke="black" points="92.5,-651.8 89,-641.8 85.5,-651.8 92.5,-651.8"/>
</g>
<!-- nasalib/examples&#45;&gt;nasalib/analysis -->
<g id="edge17" class="edge">
<title>nasalib/examples&#45;&gt;nasalib/analysis</title>
<path fill="none" stroke="black" d="M301,-549.5C301,-549.5 266,-388.5 266,-388.5 266,-388.5 244.8,-373.32 225.1,-359.2"/>
<polygon fill="black" stroke="black" points="227.4,-355.83 217.23,-352.85 223.32,-361.52 227.4,-355.83"/>
</g>
<!-- nasalib/examples&#45;&gt;nasalib/exact_real_arith -->
<g id="edge18" class="edge">
<title>nasalib/examples&#45;&gt;nasalib/exact_real_arith</title>
<path fill="none" stroke="black" d="M160,-748.2C160,-740.74 160,-731.82 160,-723.47"/>
<polygon fill="black" stroke="black" points="163.5,-723.6 160,-713.6 156.5,-723.6 163.5,-723.6"/>
</g>
<!-- nasalib/examples&#45;&gt;nasalib/interval_arith -->
<g id="edge19" class="edge">
<title>nasalib/examples&#45;&gt;nasalib/interval_arith</title>
<path fill="none" stroke="black" d="M301,-621.5C301,-621.5 270.67,-595.92 246.68,-575.69"/>
<polygon fill="black" stroke="black" points="249.42,-572.57 239.52,-568.8 244.9,-577.93 249.42,-572.57"/>
<path fill="none" stroke="black" d="M179.97,-748.15C197.76,-732.69 221,-712.5 221,-712.5 221,-712.5 301,-623.5 301,-623.5"/>
</g>
<!-- nasalib/examples&#45;&gt;nasalib/lnexp -->
<g id="edge20" class="edge">
<title>nasalib/examples&#45;&gt;nasalib/lnexp</title>
<path fill="none" stroke="black" d="M155,-549.5C155,-549.5 146.47,-526.53 139.18,-506.91"/>
<polygon fill="black" stroke="black" points="142.19,-505.96 135.43,-497.8 135.63,-508.4 142.19,-505.96"/>
<path fill="none" stroke="black" d="M89,-693.5C89,-693.5 99,-676.5 99,-676.5 99,-676.5 125,-640.5 125,-640.5 125,-640.5 155,-551.5 155,-551.5"/>
</g>
<!-- nasalib/examples&#45;&gt;nasalib/reals -->
<g id="edge21" class="edge">
<title>nasalib/examples&#45;&gt;nasalib/reals</title>
<path fill="none" stroke="black" d="M140.03,-748.15C122.24,-732.69 99,-712.5 99,-712.5 99,-712.5 89,-695.5 89,-695.5"/>
<path fill="none" stroke="black" d="M89,-693.5C89,-693.5 53,-640.5 53,-640.5 53,-640.5 43,-551.5 43,-551.5 43,-551.5 43,-551.5 43,-405.5 43,-405.5 58,-316.5 58,-316.5 58,-316.5 64.05,-303.68 70.19,-290.65"/>
<polygon fill="black" stroke="black" points="73.71,-292.39 74.81,-281.85 67.38,-289.41 73.71,-292.39"/>
</g>
<!-- nasalib/examples&#45;&gt;nasalib/trig -->
<g id="edge22" class="edge">
<title>nasalib/examples&#45;&gt;nasalib/trig</title>
<path fill="none" stroke="black" d="M301,-621.5C301,-621.5 301,-551.5 301,-551.5"/>
<path fill="none" stroke="black" d="M301,-549.5C301,-549.5 286,-532.5 286,-532.5 286,-532.5 272.42,-518.39 259.28,-504.73"/>
<polygon fill="black" stroke="black" points="262.16,-502.63 252.7,-497.85 257.11,-507.49 262.16,-502.63"/>
</g>
<!-- nasalib/interval_arith&#45;&gt;nasalib/analysis -->
<g id="edge23" class="edge">
<title>nasalib/interval_arith&#45;&gt;nasalib/analysis</title>
<path fill="none" stroke="black" d="M241,-405.5C241,-405.5 224.17,-381.46 210.24,-361.56"/>
<polygon fill="black" stroke="black" points="212.71,-359.99 204.11,-353.8 206.98,-364 212.71,-359.99"/>
<path fill="none" stroke="black" d="M189,-477.5C189,-477.5 199,-460.5 199,-460.5 199,-460.5 241,-407.5 241,-407.5"/>
</g>
<!-- nasalib/interval_arith&#45;&gt;nasalib/ints -->
<g id="edge24" class="edge">
<title>nasalib/interval_arith&#45;&gt;nasalib/ints</title>
<path fill="none" stroke="black" d="M103,-333.5C103,-333.5 129,-263.5 129,-263.5"/>
<path fill="none" stroke="black" d="M129,-261.5C129,-261.5 103,-191.5 103,-191.5"/>
</g>
<!-- nasalib/interval_arith&#45;&gt;nasalib/lnexp -->
<g id="edge25" class="edge">
<title>nasalib/interval_arith&#45;&gt;nasalib/lnexp</title>
<path fill="none" stroke="black" d="M196,-532.2C184.98,-523.53 171.47,-512.9 159.47,-503.46"/>
<polygon fill="black" stroke="black" points="162.08,-500.28 152.06,-496.85 157.75,-505.78 162.08,-500.28"/>
</g>
<!-- nasalib/interval_arith&#45;&gt;nasalib/reals -->
<g id="edge26" class="edge">
<title>nasalib/interval_arith&#45;&gt;nasalib/reals</title>
<path fill="none" stroke="black" d="M189,-477.5C189,-477.5 165,-460.5 165,-460.5 165,-460.5 113,-424.5 113,-424.5 113,-424.5 103,-335.5 103,-335.5"/>
<path fill="none" stroke="black" d="M103,-333.5C103,-333.5 96.5,-310.74 90.91,-291.18"/>
<polygon fill="black" stroke="black" points="94.06,-290.46 87.94,-281.8 87.33,-292.38 94.06,-290.46"/>
<path fill="none" stroke="black" d="M210.83,-532.2C202.24,-511.47 189,-479.5 189,-479.5"/>
</g>
<!-- nasalib/interval_arith&#45;&gt;nasalib/structures -->
<g id="edge27" class="edge">
<title>nasalib/interval_arith&#45;&gt;nasalib/structures</title>
<path fill="none" stroke="black" d="M241,-405.5C241,-405.5 241,-263.5 241,-263.5"/>
</g>
<!-- nasalib/interval_arith&#45;&gt;nasalib/trig -->
<g id="edge28" class="edge">
<title>nasalib/interval_arith&#45;&gt;nasalib/trig</title>
<path fill="none" stroke="black" d="M222.2,-532.2C224.03,-524.65 226.23,-515.62 228.28,-507.18"/>
<polygon fill="black" stroke="black" points="231.89,-508.15 230.85,-497.6 225.08,-506.5 231.89,-508.15"/>
</g>
<!-- nasalib/ints&#45;&gt;lib/finite_sets -->
<g id="edge29" class="edge">
<title>nasalib/ints&#45;&gt;lib/finite_sets</title>
<path fill="none" stroke="black" d="M184.54,-100C190.57,-88.96 198.48,-74.46 205.29,-61.96"/>
<polygon fill="black" stroke="black" points="208.75,-63.93 210.47,-53.47 202.61,-60.57 208.75,-63.93"/>
</g>
<!-- nasalib/lnexp&#45;&gt;nasalib/analysis -->
<g id="edge30" class="edge">
<title>nasalib/lnexp&#45;&gt;nasalib/analysis</title>
<path fill="none" stroke="black" d="M147.34,-460.15C163.67,-444.69 185,-424.5 185,-424.5 185,-424.5 187.74,-389.61 189.8,-363.52"/>
<polygon fill="black" stroke="black" points="193.36,-363.9 190.65,-353.66 186.38,-363.35 193.36,-363.9"/>
</g>
<!-- nasalib/lnexp&#45;&gt;nasalib/ints -->
<g id="edge31" class="edge">
<title>nasalib/lnexp&#45;&gt;nasalib/ints</title>
<path fill="none" stroke="black" d="M102.53,-460.02C71.13,-439.28 23,-407.5 23,-407.5"/>
</g>
<!-- nasalib/lnexp&#45;&gt;nasalib/reals -->
<g id="edge32" class="edge">
<title>nasalib/lnexp&#45;&gt;nasalib/reals</title>
<path fill="none" stroke="black" d="M117.63,-460.2C104.01,-439.47 83,-407.5 83,-407.5"/>
</g>
<!-- nasalib/series -->
<g id="node11" class="node">
<title>nasalib/series</title>
<polygon fill="#fcfcd7" stroke="black" points="176,-424.5 122,-424.5 122,-388.5 176,-388.5 176,-424.5"/>
<text text-anchor="middle" x="149" y="-401.45" font-family="Times,serif" font-size="14.00">series</text>
</g>
<!-- nasalib/lnexp&#45;&gt;nasalib/series -->
<g id="edge33" class="edge">
<title>nasalib/lnexp&#45;&gt;nasalib/series</title>
<path fill="none" stroke="black" d="M133.94,-460.2C136.1,-452.65 138.68,-443.62 141.09,-435.18"/>
<polygon fill="black" stroke="black" points="144.73,-436.18 144.11,-425.6 138,-434.26 144.73,-436.18"/>
</g>
<!-- nasalib/orders&#45;&gt;lib/finite_sets -->
<g id="edge34" class="edge">
<title>nasalib/orders&#45;&gt;lib/finite_sets</title>
<path fill="none" stroke="black" d="M202.33,-247.16C232.24,-231.46 276,-208.5 276,-208.5 276,-208.5 290,-191.5 290,-191.5"/>
<path fill="none" stroke="black" d="M290,-189.5C290,-189.5 290,-119.5 290,-119.5"/>
</g>
<!-- nasalib/orders&#45;&gt;nasalib/structures -->
<g id="edge35" class="edge">
<title>nasalib/orders&#45;&gt;nasalib/structures</title>
<path fill="none" stroke="black" d="M175,-244.2C175,-236.74 175,-227.82 175,-219.47"/>
<polygon fill="black" stroke="black" points="178.5,-219.6 175,-209.6 171.5,-219.6 178.5,-219.6"/>
</g>
<!-- nasalib/reals&#45;&gt;nasalib/ints -->
<g id="edge36" class="edge">
<title>nasalib/reals&#45;&gt;nasalib/ints</title>
<path fill="none" stroke="black" d="M87.94,-244.2C93.87,-223.47 103,-191.5 103,-191.5"/>
</g>
<!-- nasalib/reals&#45;&gt;nasalib/structures -->
<g id="edge37" class="edge">
<title>nasalib/reals&#45;&gt;nasalib/structures</title>
<path fill="none" stroke="black" d="M105.74,-244.2C117.13,-235.53 131.1,-224.9 143.51,-215.46"/>
<polygon fill="black" stroke="black" points="145.36,-217.69 151.2,-208.85 141.12,-212.12 145.36,-217.69"/>
</g>
<!-- nasalib/series&#45;&gt;nasalib/analysis -->
<g id="edge38" class="edge">
<title>nasalib/series&#45;&gt;nasalib/analysis</title>
<path fill="none" stroke="black" d="M159.63,-388.2C164.52,-380.23 170.44,-370.6 175.87,-361.76"/>
<polygon fill="black" stroke="black" points="179.24,-363.96 181.49,-353.6 173.28,-360.29 179.24,-363.96"/>
</g>
<!-- nasalib/series&#45;&gt;nasalib/ints -->
<g id="edge39" class="edge">
<title>nasalib/series&#45;&gt;nasalib/ints</title>
<path fill="none" stroke="black" d="M147.52,-388.2C145.74,-367.47 143,-335.5 143,-335.5"/>
<path fill="none" stroke="black" d="M143,-333.5C143,-333.5 129,-263.5 129,-263.5"/>
</g>
<!-- nasalib/series&#45;&gt;nasalib/orders -->
<g id="edge40" class="edge">
<title>nasalib/series&#45;&gt;nasalib/orders</title>
<path fill="none" stroke="black" d="M143,-333.5C143,-333.5 153.6,-310.32 162.6,-290.64"/>
<polygon fill="black" stroke="black" points="166.12,-292.35 167.09,-281.8 159.75,-289.44 166.12,-292.35"/>
</g>
<!-- nasalib/series&#45;&gt;nasalib/reals -->
<g id="edge41" class="edge">
<title>nasalib/series&#45;&gt;nasalib/reals</title>
<path fill="none" stroke="black" d="M123,-333.5C123,-333.5 109.51,-309.89 98.2,-290.1"/>
<polygon fill="black" stroke="black" points="100.89,-288.75 92.89,-281.8 94.81,-292.22 100.89,-288.75"/>
<path fill="none" stroke="black" d="M142.57,-388.2C134.87,-367.47 123,-335.5 123,-335.5"/>
</g>
<!-- nasalib/structures&#45;&gt;lib/finite_sets -->
<g id="edge42" class="edge">
<title>nasalib/structures&#45;&gt;lib/finite_sets</title>
<path fill="none" stroke="black" d="M290,-117.5C290,-117.5 262.31,-84.86 241.76,-60.64"/>
<polygon fill="black" stroke="black" points="243.98,-58.86 234.85,-53.5 238.65,-63.39 243.98,-58.86"/>
<path fill="none" stroke="black" d="M203.72,-172.02C237.78,-151.28 290,-119.5 290,-119.5"/>
</g>
<!-- nasalib/structures&#45;&gt;nasalib/ints -->
<g id="edge43" class="edge">
<title>nasalib/structures&#45;&gt;nasalib/ints</title>
<path fill="none" stroke="black" d="M175,-172.2C175,-164.74 175,-155.82 175,-147.47"/>
<polygon fill="black" stroke="black" points="178.5,-147.6 175,-137.6 171.5,-147.6 178.5,-147.6"/>
</g>
<!-- nasalib/trig&#45;&gt;nasalib/analysis -->
<g id="edge44" class="edge">
<title>nasalib/trig&#45;&gt;nasalib/analysis</title>
<path fill="none" stroke="black" d="M261,-405.5C261,-405.5 246,-388.5 246,-388.5 246,-388.5 231.36,-374.13 217.32,-360.35"/>
<polygon fill="black" stroke="black" points="220.27,-358.36 210.68,-353.85 215.37,-363.36 220.27,-358.36"/>
<path fill="none" stroke="black" d="M241.43,-460.2C249.13,-439.47 261,-407.5 261,-407.5"/>
</g>
<!-- nasalib/trig&#45;&gt;nasalib/ints -->
<g id="edge45" class="edge">
<title>nasalib/trig&#45;&gt;nasalib/ints</title>
<path fill="none" stroke="black" d="M261,-405.5C261,-405.5 246,-244.5 246,-244.5 246,-244.5 218,-172.5 218,-172.5 218,-172.5 206.77,-158.65 195.78,-145.12"/>
<polygon fill="black" stroke="black" points="198.1,-143.41 189.08,-137.85 192.66,-147.82 198.1,-143.41"/>
</g>
<!-- nasalib/trig&#45;&gt;nasalib/reals -->
<g id="edge46" class="edge">
<title>nasalib/trig&#45;&gt;nasalib/reals</title>
<path fill="none" stroke="black" d="M225.36,-460.34C210.83,-434.48 185,-388.5 185,-388.5 185,-388.5 123,-335.5 123,-335.5"/>
</g>
<!-- nasalib/trig&#45;&gt;nasalib/series -->
<g id="edge47" class="edge">
<title>nasalib/trig&#45;&gt;nasalib/series</title>
<path fill="none" stroke="black" d="M213.74,-460.2C203.2,-451.61 190.29,-441.11 178.78,-431.74"/>
<polygon fill="black" stroke="black" points="181.28,-428.45 171.31,-424.85 176.86,-433.87 181.28,-428.45"/>
</g>
</g>
</svg>
