<?xml version="1.0" encoding="UTF-8" standalone="no"?>
<!DOCTYPE svg PUBLIC "-//W3C//DTD SVG 1.1//EN"
 "http://www.w3.org/Graphics/SVG/1.1/DTD/svg11.dtd">
<!-- Generated by graphviz version 8.0.4 (20230421.1958)
 -->
<!-- Title: affine_arith&#45;zoomed Pages: 1 -->
<svg width="785pt" height="689pt"
 viewBox="0.00 0.00 785.00 689.00" xmlns="http://www.w3.org/2000/svg" xmlns:xlink="http://www.w3.org/1999/xlink">
<g id="graph0" class="graph" transform="scale(1 1) rotate(0) translate(4 685)">
<title>affine_arith&#45;zoomed</title>
<polygon fill="white" stroke="none" points="-4,4 -4,-685 781,-685 781,4 -4,4"/>
<g id="clust2" class="cluster">
<title>cluster_NASALib/affine_arith</title>
<polygon fill="none" stroke="black" points="8,-92.5 8,-673 608,-673 608,-92.5 8,-92.5"/>
<text text-anchor="middle" x="308" y="-655.7" font-family="Times,serif" font-size="14.00">NASALib/affine_arith</text>
</g>
<g id="clust1" class="cluster">
<title>cluster_NASALib</title>
<polygon fill="none" stroke="black" points="506,-8 506,-84.5 769,-84.5 769,-8 506,-8"/>
<text text-anchor="middle" x="637.5" y="-67.2" font-family="Times,serif" font-size="14.00">NASALib</text>
</g>
<!-- NASALib/affine_arith@affine -->
<g id="node1" class="node">
<title>NASALib/affine_arith@affine</title>
<ellipse fill="#e6f3ff" stroke="black" cx="315" cy="-118.5" rx="32.41" ry="18"/>
<text text-anchor="middle" x="315" y="-113.45" font-family="Times,serif" font-size="14.00">affine</text>
</g>
<!-- NASALib/interval_arith -->
<g id="node14" class="node">
<title>NASALib/interval_arith</title>
<polygon fill="#fcfcd7" stroke="black" points="674.38,-52 585.62,-52 585.62,-16 674.38,-16 674.38,-52"/>
<text text-anchor="middle" x="630" y="-28.95" font-family="Times,serif" font-size="14.00">interval_arith</text>
</g>
<!-- NASALib/affine_arith@affine&#45;&gt;NASALib/interval_arith -->
<g id="edge1" class="edge">
<title>NASALib/affine_arith@affine&#45;&gt;NASALib/interval_arith</title>
<path fill="none" stroke="black" d="M344.75,-110.8C377.63,-103.4 426,-92.5 426,-92.5 426,-92.5 577,-84.5 577,-84.5 577,-84.5 590.4,-71.98 603.73,-59.54"/>
<polygon fill="black" stroke="black" points="605.54,-62.7 610.46,-53.31 600.77,-57.58 605.54,-62.7"/>
</g>
<!-- NASALib/structures -->
<g id="node16" class="node">
<title>NASALib/structures</title>
<polygon fill="#fcfcd7" stroke="black" points="761.25,-52 692.75,-52 692.75,-16 761.25,-16 761.25,-52"/>
<text text-anchor="middle" x="727" y="-28.95" font-family="Times,serif" font-size="14.00">structures</text>
</g>
<!-- NASALib/affine_arith@affine&#45;&gt;NASALib/structures -->
<g id="edge2" class="edge">
<title>NASALib/affine_arith@affine&#45;&gt;NASALib/structures</title>
<path fill="none" stroke="black" d="M344.75,-110.8C377.63,-103.4 426,-92.5 426,-92.5 426,-92.5 683,-84.5 683,-84.5 683,-84.5 693.71,-72.45 704.57,-60.23"/>
<polygon fill="black" stroke="black" points="706.58,-63.11 710.61,-53.31 701.35,-58.46 706.58,-63.11"/>
</g>
<!-- NASALib/affine_arith@affine_bandb_boolexpr -->
<g id="node2" class="node">
<title>NASALib/affine_arith@affine_bandb_boolexpr</title>
<ellipse fill="#e6f3ff" stroke="black" cx="382" cy="-550.5" rx="96.9" ry="18"/>
<text text-anchor="middle" x="382" y="-545.45" font-family="Times,serif" font-size="14.00">affine_bandb_boolexpr</text>
</g>
<!-- NASALib/affine_arith@affine_boolexpr -->
<g id="node4" class="node">
<title>NASALib/affine_arith@affine_boolexpr</title>
<ellipse fill="#e6f3ff" stroke="black" cx="309" cy="-478.5" rx="69.78" ry="18"/>
<text text-anchor="middle" x="309" y="-473.45" font-family="Times,serif" font-size="14.00">affine_boolexpr</text>
</g>
<!-- NASALib/affine_arith@affine_bandb_boolexpr&#45;&gt;NASALib/affine_arith@affine_boolexpr -->
<g id="edge3" class="edge">
<title>NASALib/affine_arith@affine_bandb_boolexpr&#45;&gt;NASALib/affine_arith@affine_boolexpr</title>
<path fill="none" stroke="black" d="M364.33,-532.55C355.36,-523.96 344.31,-513.36 334.44,-503.9"/>
<polygon fill="black" stroke="black" points="337.15,-501.68 327.51,-497.29 332.3,-506.74 337.15,-501.68"/>
</g>
<!-- NASALib/affine_arith@affine_bandb_boolexpr&#45;&gt;NASALib/interval_arith -->
<g id="edge4" class="edge">
<title>NASALib/affine_arith@affine_bandb_boolexpr&#45;&gt;NASALib/interval_arith</title>
<path fill="none" stroke="black" d="M706,-117.5C706,-117.5 675.67,-84.58 653.33,-60.33"/>
<polygon fill="black" stroke="black" points="656.47,-58.48 647.12,-53.5 651.32,-63.22 656.47,-58.48"/>
</g>
<!-- NASALib/affine_arith@affine_bandb_boolexpr&#45;&gt;NASALib/structures -->
<g id="edge5" class="edge">
<title>NASALib/affine_arith@affine_bandb_boolexpr&#45;&gt;NASALib/structures</title>
<path fill="none" stroke="black" d="M440.75,-535.78C508.01,-520.08 609,-496.5 609,-496.5 609,-496.5 706,-407.5 706,-407.5 706,-407.5 706,-407.5 706,-261.5 706,-261.5 706,-119.5 706,-119.5"/>
<path fill="none" stroke="black" d="M706,-117.5C706,-117.5 713.81,-86.83 719.9,-62.89"/>
<polygon fill="black" stroke="black" points="723.47,-64.05 722.55,-53.5 716.69,-62.32 723.47,-64.05"/>
</g>
<!-- NASALib/affine_arith@affine_bandb_numerical -->
<g id="node3" class="node">
<title>NASALib/affine_arith@affine_bandb_numerical</title>
<ellipse fill="#e6f3ff" stroke="black" cx="498" cy="-478.5" rx="101.51" ry="18"/>
<text text-anchor="middle" x="498" y="-473.45" font-family="Times,serif" font-size="14.00">affine_bandb_numerical</text>
</g>
<!-- NASALib/affine_arith@affine_expr_Eval -->
<g id="node7" class="node">
<title>NASALib/affine_arith@affine_expr_Eval</title>
<ellipse fill="#e6f3ff" stroke="black" cx="525" cy="-406.5" rx="74.89" ry="18"/>
<text text-anchor="middle" x="525" y="-401.45" font-family="Times,serif" font-size="14.00">affine_expr_Eval</text>
</g>
<!-- NASALib/affine_arith@affine_bandb_numerical&#45;&gt;NASALib/affine_arith@affine_expr_Eval -->
<g id="edge6" class="edge">
<title>NASALib/affine_arith@affine_bandb_numerical&#45;&gt;NASALib/affine_arith@affine_expr_Eval</title>
<path fill="none" stroke="black" d="M504.67,-460.2C507.65,-452.48 511.23,-443.21 514.54,-434.61"/>
<polygon fill="black" stroke="black" points="518.07,-436.19 518.4,-425.6 511.54,-433.67 518.07,-436.19"/>
</g>
<!-- NASALib/affine_arith@affine_bandb_numerical&#45;&gt;NASALib/interval_arith -->
<g id="edge7" class="edge">
<title>NASALib/affine_arith@affine_bandb_numerical&#45;&gt;NASALib/interval_arith</title>
<path fill="none" stroke="black" d="M668,-117.5C668,-117.5 653.62,-86.27 642.55,-62.24"/>
<polygon fill="black" stroke="black" points="645.42,-61.11 638.06,-53.5 639.06,-64.04 645.42,-61.11"/>
</g>
<!-- NASALib/reals -->
<g id="node15" class="node">
<title>NASALib/reals</title>
<polygon fill="#fcfcd7" stroke="black" points="568,-52 514,-52 514,-16 568,-16 568,-52"/>
<text text-anchor="middle" x="541" y="-28.95" font-family="Times,serif" font-size="14.00">reals</text>
</g>
<!-- NASALib/affine_arith@affine_bandb_numerical&#45;&gt;NASALib/reals -->
<g id="edge8" class="edge">
<title>NASALib/affine_arith@affine_bandb_numerical&#45;&gt;NASALib/reals</title>
<path fill="none" stroke="black" d="M541.02,-461.88C584.08,-446.25 644,-424.5 644,-424.5 644,-424.5 668,-335.5 668,-335.5 668,-335.5 668,-335.5 668,-261.5 668,-261.5 668,-119.5 668,-119.5"/>
<path fill="none" stroke="black" d="M668,-117.5C668,-117.5 644,-92.5 644,-92.5 644,-92.5 577,-84.5 577,-84.5 577,-84.5 568.56,-72.9 559.86,-60.93"/>
<polygon fill="black" stroke="black" points="562.3,-59.34 553.59,-53.31 556.64,-63.46 562.3,-59.34"/>
</g>
<!-- NASALib/affine_arith@affine_bandb_numerical&#45;&gt;NASALib/structures -->
<g id="edge9" class="edge">
<title>NASALib/affine_arith@affine_bandb_numerical&#45;&gt;NASALib/structures</title>
<path fill="none" stroke="black" d="M668,-117.5C668,-117.5 690.93,-85.43 708.21,-61.28"/>
<polygon fill="black" stroke="black" points="711.52,-63.67 714.49,-53.5 705.82,-59.59 711.52,-63.67"/>
</g>
<!-- NASALib/affine_arith@affine_boolexpr&#45;&gt;NASALib/affine_arith@affine_expr_Eval -->
<g id="edge10" class="edge">
<title>NASALib/affine_arith@affine_boolexpr&#45;&gt;NASALib/affine_arith@affine_expr_Eval</title>
<path fill="none" stroke="black" d="M351.42,-463.75C385.78,-452.62 434.4,-436.86 471.45,-424.85"/>
<polygon fill="black" stroke="black" points="472.14,-427.99 480.57,-421.57 469.98,-421.33 472.14,-427.99"/>
</g>
<!-- NASALib/affine_arith@affine_expr_Eval_fnd_props -->
<g id="node9" class="node">
<title>NASALib/affine_arith@affine_expr_Eval_fnd_props</title>
<ellipse fill="#e6f3ff" stroke="black" cx="315" cy="-406.5" rx="116.86" ry="18"/>
<text text-anchor="middle" x="315" y="-401.45" font-family="Times,serif" font-size="14.00">affine_expr_Eval_fnd_props</text>
</g>
<!-- NASALib/affine_arith@affine_boolexpr&#45;&gt;NASALib/affine_arith@affine_expr_Eval_fnd_props -->
<g id="edge11" class="edge">
<title>NASALib/affine_arith@affine_boolexpr&#45;&gt;NASALib/affine_arith@affine_expr_Eval_fnd_props</title>
<path fill="none" stroke="black" d="M310.48,-460.2C311.12,-452.74 311.89,-443.82 312.6,-435.47"/>
<polygon fill="black" stroke="black" points="316.17,-435.87 313.53,-425.6 309.19,-435.27 316.17,-435.87"/>
</g>
<!-- NASALib/affine_arith@boolexpr_lfcmrs -->
<g id="node11" class="node">
<title>NASALib/affine_arith@boolexpr_lfcmrs</title>
<ellipse fill="#e6f3ff" stroke="black" cx="108" cy="-406.5" rx="72.34" ry="18"/>
<text text-anchor="middle" x="108" y="-401.45" font-family="Times,serif" font-size="14.00">boolexpr_lfcmrs</text>
</g>
<!-- NASALib/affine_arith@affine_boolexpr&#45;&gt;NASALib/affine_arith@boolexpr_lfcmrs -->
<g id="edge12" class="edge">
<title>NASALib/affine_arith@affine_boolexpr&#45;&gt;NASALib/affine_arith@boolexpr_lfcmrs</title>
<path fill="none" stroke="black" d="M268.81,-463.5C237.25,-452.51 193.09,-437.13 159.03,-425.27"/>
<polygon fill="black" stroke="black" points="160.41,-421.7 149.81,-421.71 158.1,-428.31 160.41,-421.7"/>
</g>
<!-- NASALib/affine_arith@boolexpr_lfcs -->
<g id="node12" class="node">
<title>NASALib/affine_arith@boolexpr_lfcs</title>
<ellipse fill="#e6f3ff" stroke="black" cx="108" cy="-334.5" rx="61.59" ry="18"/>
<text text-anchor="middle" x="108" y="-329.45" font-family="Times,serif" font-size="14.00">boolexpr_lfcs</text>
</g>
<!-- NASALib/affine_arith@affine_boolexpr&#45;&gt;NASALib/affine_arith@boolexpr_lfcs -->
<g id="edge13" class="edge">
<title>NASALib/affine_arith@affine_boolexpr&#45;&gt;NASALib/affine_arith@boolexpr_lfcs</title>
<path fill="none" stroke="black" d="M253.96,-467.16C171.89,-451.73 27,-424.5 27,-424.5 27,-424.5 27,-388.5 27,-388.5 27,-388.5 52.37,-371.9 74.71,-357.28"/>
<polygon fill="black" stroke="black" points="76.25,-359.81 82.7,-351.4 72.41,-353.95 76.25,-359.81"/>
</g>
<!-- NASALib/affine_arith@affine_boolexpr&#45;&gt;NASALib/interval_arith -->
<g id="edge14" class="edge">
<title>NASALib/affine_arith@affine_boolexpr&#45;&gt;NASALib/interval_arith</title>
<path fill="none" stroke="black" d="M630,-117.5C630,-117.5 630,-87.1 630,-63.21"/>
<polygon fill="black" stroke="black" points="633.5,-63.5 630,-53.5 626.5,-63.5 633.5,-63.5"/>
</g>
<!-- NASALib/affine_arith@affine_boolexpr&#45;&gt;NASALib/structures -->
<g id="edge15" class="edge">
<title>NASALib/affine_arith@affine_boolexpr&#45;&gt;NASALib/structures</title>
<path fill="none" stroke="black" d="M630,-117.5C630,-117.5 654,-92.5 654,-92.5 654,-92.5 683,-84.5 683,-84.5 683,-84.5 693.71,-72.45 704.57,-60.23"/>
<polygon fill="black" stroke="black" points="706.58,-63.11 710.61,-53.31 701.35,-58.46 706.58,-63.11"/>
<path fill="none" stroke="black" d="M361.03,-466.16C375.33,-463.04 387,-460.5 387,-460.5 387,-460.5 609,-424.5 609,-424.5 609,-424.5 630,-335.5 630,-335.5 630,-335.5 630,-335.5 630,-261.5 630,-261.5 630,-119.5 630,-119.5"/>
</g>
<!-- NASALib/affine_arith@affine_box -->
<g id="node5" class="node">
<title>NASALib/affine_arith@affine_box</title>
<ellipse fill="#e6f3ff" stroke="black" cx="437" cy="-190.5" rx="50.84" ry="18"/>
<text text-anchor="middle" x="437" y="-185.45" font-family="Times,serif" font-size="14.00">affine_box</text>
</g>
<!-- NASALib/affine_arith@affine_box&#45;&gt;NASALib/affine_arith@affine -->
<g id="edge16" class="edge">
<title>NASALib/affine_arith@affine_box&#45;&gt;NASALib/affine_arith@affine</title>
<path fill="none" stroke="black" d="M411.13,-174.65C392.13,-163.76 366.24,-148.9 346.12,-137.36"/>
<polygon fill="black" stroke="black" points="348.17,-133.93 337.76,-131.98 344.69,-140 348.17,-133.93"/>
</g>
<!-- NASALib/affine_arith@affine_box&#45;&gt;NASALib/interval_arith -->
<g id="edge17" class="edge">
<title>NASALib/affine_arith@affine_box&#45;&gt;NASALib/interval_arith</title>
<path fill="none" stroke="black" d="M446.92,-172.55C459.06,-151.84 478,-119.5 478,-119.5"/>
<path fill="none" stroke="black" d="M478,-117.5C478,-117.5 502,-92.5 502,-92.5 502,-92.5 577,-84.5 577,-84.5 577,-84.5 590.4,-71.98 603.73,-59.54"/>
<polygon fill="black" stroke="black" points="605.54,-62.7 610.46,-53.31 600.77,-57.58 605.54,-62.7"/>
</g>
<!-- NASALib/affine_arith@affine_box&#45;&gt;NASALib/structures -->
<g id="edge18" class="edge">
<title>NASALib/affine_arith@affine_box&#45;&gt;NASALib/structures</title>
<path fill="none" stroke="black" d="M478,-117.5C478,-117.5 540,-92.5 540,-92.5 540,-92.5 683,-84.5 683,-84.5 683,-84.5 693.71,-72.45 704.57,-60.23"/>
<polygon fill="black" stroke="black" points="706.58,-63.11 710.61,-53.31 701.35,-58.46 706.58,-63.11"/>
</g>
<!-- NASALib/affine_arith@affine_expr -->
<g id="node6" class="node">
<title>NASALib/affine_arith@affine_expr</title>
<ellipse fill="#e6f3ff" stroke="black" cx="315" cy="-262.5" rx="53.4" ry="18"/>
<text text-anchor="middle" x="315" y="-257.45" font-family="Times,serif" font-size="14.00">affine_expr</text>
</g>
<!-- NASALib/affine_arith@affine_expr&#45;&gt;NASALib/affine_arith@affine_box -->
<g id="edge19" class="edge">
<title>NASALib/affine_arith@affine_expr&#45;&gt;NASALib/affine_arith@affine_box</title>
<path fill="none" stroke="black" d="M341.17,-246.48C358.9,-236.31 382.53,-222.75 401.89,-211.64"/>
<polygon fill="black" stroke="black" points="403.36,-214.26 410.29,-206.25 399.87,-208.19 403.36,-214.26"/>
</g>
<!-- NASALib/affine_arith@affine_pow -->
<g id="node10" class="node">
<title>NASALib/affine_arith@affine_pow</title>
<ellipse fill="#e6f3ff" stroke="black" cx="315" cy="-190.5" rx="52.89" ry="18"/>
<text text-anchor="middle" x="315" y="-185.45" font-family="Times,serif" font-size="14.00">affine_pow</text>
</g>
<!-- NASALib/affine_arith@affine_expr&#45;&gt;NASALib/affine_arith@affine_pow -->
<g id="edge20" class="edge">
<title>NASALib/affine_arith@affine_expr&#45;&gt;NASALib/affine_arith@affine_pow</title>
<path fill="none" stroke="black" d="M315,-244.2C315,-236.74 315,-227.82 315,-219.47"/>
<polygon fill="black" stroke="black" points="318.5,-219.6 315,-209.6 311.5,-219.6 318.5,-219.6"/>
</g>
<!-- NASALib/affine_arith@affine_expr&#45;&gt;NASALib/interval_arith -->
<g id="edge21" class="edge">
<title>NASALib/affine_arith@affine_expr&#45;&gt;NASALib/interval_arith</title>
<path fill="none" stroke="black" d="M516,-189.5C516,-189.5 540,-92.5 540,-92.5 540,-92.5 577,-84.5 577,-84.5 577,-84.5 590.4,-71.98 603.73,-59.54"/>
<polygon fill="black" stroke="black" points="605.54,-62.7 610.46,-53.31 600.77,-57.58 605.54,-62.7"/>
<path fill="none" stroke="black" d="M354.49,-250C408.02,-234.41 497,-208.5 497,-208.5 497,-208.5 516,-191.5 516,-191.5"/>
</g>
<!-- NASALib/affine_arith@affine_expr_Eval_fnd -->
<g id="node8" class="node">
<title>NASALib/affine_arith@affine_expr_Eval_fnd</title>
<ellipse fill="#e6f3ff" stroke="black" cx="315" cy="-334.5" rx="91.78" ry="18"/>
<text text-anchor="middle" x="315" y="-329.45" font-family="Times,serif" font-size="14.00">affine_expr_Eval_fnd</text>
</g>
<!-- NASALib/affine_arith@affine_expr_Eval&#45;&gt;NASALib/affine_arith@affine_expr_Eval_fnd -->
<g id="edge22" class="edge">
<title>NASALib/affine_arith@affine_expr_Eval&#45;&gt;NASALib/affine_arith@affine_expr_Eval_fnd</title>
<path fill="none" stroke="black" d="M482.5,-391.33C450.11,-380.54 405.23,-365.58 370.08,-353.86"/>
<polygon fill="black" stroke="black" points="371.57,-350.33 360.97,-350.49 369.35,-356.97 371.57,-350.33"/>
</g>
<!-- NASALib/affine_arith@affine_expr_Eval_fnd&#45;&gt;NASALib/affine_arith@affine -->
<g id="edge23" class="edge">
<title>NASALib/affine_arith@affine_expr_Eval_fnd&#45;&gt;NASALib/affine_arith@affine</title>
<path fill="none" stroke="black" d="M295.04,-316.44C276.92,-300.95 253,-280.5 253,-280.5 253,-280.5 253,-172.5 253,-172.5 253,-172.5 272.72,-155.64 289.92,-140.94"/>
<polygon fill="black" stroke="black" points="291.73,-143.14 297.06,-133.98 287.18,-137.82 291.73,-143.14"/>
</g>
<!-- NASALib/affine_arith@affine_expr_Eval_fnd&#45;&gt;NASALib/affine_arith@affine_expr -->
<g id="edge24" class="edge">
<title>NASALib/affine_arith@affine_expr_Eval_fnd&#45;&gt;NASALib/affine_arith@affine_expr</title>
<path fill="none" stroke="black" d="M315,-316.2C315,-308.74 315,-299.82 315,-291.47"/>
<polygon fill="black" stroke="black" points="318.5,-291.6 315,-281.6 311.5,-291.6 318.5,-291.6"/>
</g>
<!-- NASALib/affine_arith@affine_expr_Eval_fnd&#45;&gt;NASALib/interval_arith -->
<g id="edge25" class="edge">
<title>NASALib/affine_arith@affine_expr_Eval_fnd&#45;&gt;NASALib/interval_arith</title>
<path fill="none" stroke="black" d="M554,-117.5C554,-117.5 584.33,-84.58 606.67,-60.33"/>
<polygon fill="black" stroke="black" points="608.68,-63.22 612.88,-53.5 603.53,-58.48 608.68,-63.22"/>
<path fill="none" stroke="black" d="M370.65,-319.78C434.35,-304.08 530,-280.5 530,-280.5 530,-280.5 554,-119.5 554,-119.5"/>
</g>
<!-- NASALib/affine_arith@affine_expr_Eval_fnd&#45;&gt;NASALib/structures -->
<g id="edge26" class="edge">
<title>NASALib/affine_arith@affine_expr_Eval_fnd&#45;&gt;NASALib/structures</title>
<path fill="none" stroke="black" d="M554,-117.5C554,-117.5 616,-92.5 616,-92.5 616,-92.5 683,-84.5 683,-84.5 683,-84.5 693.71,-72.45 704.57,-60.23"/>
<polygon fill="black" stroke="black" points="706.58,-63.11 710.61,-53.31 701.35,-58.46 706.58,-63.11"/>
</g>
<!-- NASALib/affine_arith@affine_expr_Eval_fnd_props&#45;&gt;NASALib/affine_arith@affine_expr_Eval_fnd -->
<g id="edge27" class="edge">
<title>NASALib/affine_arith@affine_expr_Eval_fnd_props&#45;&gt;NASALib/affine_arith@affine_expr_Eval_fnd</title>
<path fill="none" stroke="black" d="M315,-388.2C315,-380.74 315,-371.82 315,-363.47"/>
<polygon fill="black" stroke="black" points="318.5,-363.6 315,-353.6 311.5,-363.6 318.5,-363.6"/>
</g>
<!-- NASALib/affine_arith@affine_pow&#45;&gt;NASALib/affine_arith@affine -->
<g id="edge28" class="edge">
<title>NASALib/affine_arith@affine_pow&#45;&gt;NASALib/affine_arith@affine</title>
<path fill="none" stroke="black" d="M315,-172.2C315,-164.74 315,-155.82 315,-147.47"/>
<polygon fill="black" stroke="black" points="318.5,-147.6 315,-137.6 311.5,-147.6 318.5,-147.6"/>
</g>
<!-- NASALib/affine_arith@affine_pow&#45;&gt;NASALib/reals -->
<g id="edge29" class="edge">
<title>NASALib/affine_arith@affine_pow&#45;&gt;NASALib/reals</title>
<path fill="none" stroke="black" d="M440,-117.5C440,-117.5 464,-92.5 464,-92.5 464,-92.5 488.11,-74.49 509.35,-58.63"/>
<polygon fill="black" stroke="black" points="510.98,-61.04 516.9,-52.25 506.79,-55.43 510.98,-61.04"/>
<path fill="none" stroke="black" d="M341.51,-174.65C378.2,-154.11 440,-119.5 440,-119.5"/>
</g>
<!-- NASALib/affine_arith@affine_pow&#45;&gt;NASALib/structures -->
<g id="edge30" class="edge">
<title>NASALib/affine_arith@affine_pow&#45;&gt;NASALib/structures</title>
<path fill="none" stroke="black" d="M440,-117.5C440,-117.5 464,-92.5 464,-92.5 464,-92.5 683,-84.5 683,-84.5 683,-84.5 693.71,-72.45 704.57,-60.23"/>
<polygon fill="black" stroke="black" points="706.58,-63.11 710.61,-53.31 701.35,-58.46 706.58,-63.11"/>
</g>
<!-- NASALib/affine_arith@boolexpr_lfcmrs&#45;&gt;NASALib/affine_arith@boolexpr_lfcs -->
<g id="edge31" class="edge">
<title>NASALib/affine_arith@boolexpr_lfcmrs&#45;&gt;NASALib/affine_arith@boolexpr_lfcs</title>
<path fill="none" stroke="black" d="M108,-388.2C108,-380.74 108,-371.82 108,-363.47"/>
<polygon fill="black" stroke="black" points="111.5,-363.6 108,-353.6 104.5,-363.6 111.5,-363.6"/>
</g>
<!-- NASALib/affine_arith@boolexpr_lfcmrs&#45;&gt;NASALib/interval_arith -->
<g id="edge32" class="edge">
<title>NASALib/affine_arith@boolexpr_lfcmrs&#45;&gt;NASALib/interval_arith</title>
<path fill="none" stroke="black" d="M162.03,-394.16C176.89,-391.04 189,-388.5 189,-388.5 189,-388.5 416,-352.5 416,-352.5 416,-352.5 592,-263.5 592,-263.5 592,-263.5 592,-263.5 592,-189.5 592,-189.5 612.21,-107.34 623.15,-62.85"/>
<polygon fill="black" stroke="black" points="626.73,-63.97 625.71,-53.42 619.93,-62.3 626.73,-63.97"/>
</g>
<!-- NASALib/affine_arith@boolexpr_lfcs&#45;&gt;NASALib/interval_arith -->
<g id="edge33" class="edge">
<title>NASALib/affine_arith@boolexpr_lfcs&#45;&gt;NASALib/interval_arith</title>
<path fill="none" stroke="black" d="M161,-325C187.5,-320.75 214,-316.5 214,-316.5 214,-316.5 502,-280.5 502,-280.5 502,-280.5 516,-191.5 516,-191.5"/>
</g>
<!-- NASALib/affine_arith@strategies -->
<g id="node13" class="node">
<title>NASALib/affine_arith@strategies</title>
<ellipse fill="#e6f3ff" stroke="black" cx="440" cy="-622.5" rx="45.72" ry="18"/>
<text text-anchor="middle" x="440" y="-617.45" font-family="Times,serif" font-size="14.00">strategies</text>
</g>
<!-- NASALib/affine_arith@strategies&#45;&gt;NASALib/affine_arith@affine_bandb_boolexpr -->
<g id="edge34" class="edge">
<title>NASALib/affine_arith@strategies&#45;&gt;NASALib/affine_arith@affine_bandb_boolexpr</title>
<path fill="none" stroke="black" d="M426.25,-604.91C419.28,-596.49 410.66,-586.08 402.88,-576.7"/>
<polygon fill="black" stroke="black" points="405.12,-574.92 396.05,-569.46 399.73,-579.39 405.12,-574.92"/>
</g>
<!-- NASALib/affine_arith@strategies&#45;&gt;NASALib/affine_arith@affine_bandb_numerical -->
<g id="edge35" class="edge">
<title>NASALib/affine_arith@strategies&#45;&gt;NASALib/affine_arith@affine_bandb_numerical</title>
<path fill="none" stroke="black" d="M454.92,-605.02C469.01,-589.46 488,-568.5 488,-568.5 488,-568.5 498,-551.5 498,-551.5"/>
<path fill="none" stroke="black" d="M498,-549.5C498,-549.5 498,-527.16 498,-507.72"/>
<polygon fill="black" stroke="black" points="501.5,-507.8 498,-497.8 494.5,-507.8 501.5,-507.8"/>
</g>
<!-- NASALib/affine_arith@strategies&#45;&gt;NASALib/structures -->
<g id="edge36" class="edge">
<title>NASALib/affine_arith@strategies&#45;&gt;NASALib/structures</title>
<path fill="none" stroke="black" d="M498,-549.5C498,-549.5 641,-496.5 641,-496.5 641,-496.5 744,-407.5 744,-407.5 744,-407.5 744,-407.5 744,-189.5 744,-189.5 735,-107.69 730.1,-63.13"/>
<polygon fill="black" stroke="black" points="733.49,-62.98 728.92,-53.42 726.53,-63.75 733.49,-62.98"/>
</g>
</g>
</svg>
