<?xml version="1.0" encoding="UTF-8" standalone="no"?>
<!DOCTYPE svg PUBLIC "-//W3C//DTD SVG 1.1//EN"
 "http://www.w3.org/Graphics/SVG/1.1/DTD/svg11.dtd">
<!-- Generated by graphviz version 2.44.1 (20200629.0846)
 -->
<!-- Title: affine_arith&#45;zoomed Pages: 1 -->
<svg width="766pt" height="686pt"
 viewBox="0.00 0.00 766.00 686.00" xmlns="http://www.w3.org/2000/svg" xmlns:xlink="http://www.w3.org/1999/xlink">
<g id="graph0" class="graph" transform="scale(1 1) rotate(0) translate(4 682)">
<title>affine_arith&#45;zoomed</title>
<polygon fill="white" stroke="transparent" points="-4,4 -4,-682 762,-682 762,4 -4,4"/>
<g id="clust1" class="cluster">
<title>cluster_NASALib</title>
<polygon fill="none" stroke="black" points="485,-8 485,-83 750,-83 750,-8 485,-8"/>
<text text-anchor="middle" x="617.5" y="-67.8" font-family="Times,serif" font-size="14.00">NASALib</text>
</g>
<g id="clust2" class="cluster">
<title>cluster_NASALib/affine_arith</title>
<polygon fill="none" stroke="black" points="8,-91 8,-670 585,-670 585,-91 8,-91"/>
<text text-anchor="middle" x="296.5" y="-654.8" font-family="Times,serif" font-size="14.00">NASALib/affine_arith</text>
</g>
<!-- nasalib/affine_arith@affine -->
<g id="node1" class="node">
<title>nasalib/affine_arith@affine</title>
<ellipse fill="#e6f3ff" stroke="black" cx="304" cy="-117" rx="30.59" ry="18"/>
<text text-anchor="middle" x="304" y="-113.3" font-family="Times,serif" font-size="14.00">affine</text>
</g>
<!-- nasalib/interval_arith -->
<g id="node14" class="node">
<title>nasalib/interval_arith</title>
<polygon fill="#fcfcd7" stroke="black" points="654.5,-52 565.5,-52 565.5,-16 654.5,-16 654.5,-52"/>
<text text-anchor="middle" x="610" y="-30.3" font-family="Times,serif" font-size="14.00">interval_arith</text>
</g>
<!-- nasalib/affine_arith@affine&#45;&gt;nasalib/interval_arith -->
<g id="edge29" class="edge">
<title>nasalib/affine_arith@affine&#45;&gt;nasalib/interval_arith</title>
<path fill="none" stroke="black" d="M328.29,-106C393.45,-106 567.21,-106 567.21,-106 567.21,-106 567.21,-62.17 567.21,-62.17"/>
<polygon fill="black" stroke="black" points="570.71,-62.17 567.21,-52.17 563.71,-62.17 570.71,-62.17"/>
</g>
<!-- nasalib/structures -->
<g id="node16" class="node">
<title>nasalib/structures</title>
<polygon fill="#fcfcd7" stroke="black" points="741.5,-52 672.5,-52 672.5,-16 741.5,-16 741.5,-52"/>
<text text-anchor="middle" x="707" y="-30.3" font-family="Times,serif" font-size="14.00">structures</text>
</g>
<!-- nasalib/affine_arith@affine&#45;&gt;nasalib/structures -->
<g id="edge30" class="edge">
<title>nasalib/affine_arith@affine&#45;&gt;nasalib/structures</title>
<path fill="none" stroke="black" d="M333.83,-113C422.8,-113 680.17,-113 680.17,-113 680.17,-113 680.17,-62.32 680.17,-62.32"/>
<polygon fill="black" stroke="black" points="683.67,-62.32 680.17,-52.32 676.67,-62.32 683.67,-62.32"/>
</g>
<!-- nasalib/affine_arith@affine_bandb_boolexpr -->
<g id="node2" class="node">
<title>nasalib/affine_arith@affine_bandb_boolexpr</title>
<ellipse fill="#e6f3ff" stroke="black" cx="369" cy="-549" rx="92.08" ry="18"/>
<text text-anchor="middle" x="369" y="-545.3" font-family="Times,serif" font-size="14.00">affine_bandb_boolexpr</text>
</g>
<!-- nasalib/affine_arith@affine_boolexpr -->
<g id="node4" class="node">
<title>nasalib/affine_arith@affine_boolexpr</title>
<ellipse fill="#e6f3ff" stroke="black" cx="299" cy="-477" rx="66.09" ry="18"/>
<text text-anchor="middle" x="299" y="-473.3" font-family="Times,serif" font-size="14.00">affine_boolexpr</text>
</g>
<!-- nasalib/affine_arith@affine_bandb_boolexpr&#45;&gt;nasalib/affine_arith@affine_boolexpr -->
<g id="edge1" class="edge">
<title>nasalib/affine_arith@affine_bandb_boolexpr&#45;&gt;nasalib/affine_arith@affine_boolexpr</title>
<path fill="none" stroke="black" d="M321,-533.38C321,-533.38 321,-504.1 321,-504.1"/>
<polygon fill="black" stroke="black" points="324.5,-504.1 321,-494.1 317.5,-504.1 324.5,-504.1"/>
</g>
<!-- nasalib/affine_arith@affine_bandb_boolexpr&#45;&gt;nasalib/interval_arith -->
<g id="edge2" class="edge">
<title>nasalib/affine_arith@affine_bandb_boolexpr&#45;&gt;nasalib/interval_arith</title>
<path fill="none" stroke="black" d="M456.18,-543C533.83,-543 635.25,-543 635.25,-543 635.25,-543 635.25,-62.12 635.25,-62.12"/>
<polygon fill="black" stroke="black" points="638.75,-62.12 635.25,-52.12 631.75,-62.12 638.75,-62.12"/>
</g>
<!-- nasalib/affine_arith@affine_bandb_boolexpr&#45;&gt;nasalib/structures -->
<g id="edge3" class="edge">
<title>nasalib/affine_arith@affine_bandb_boolexpr&#45;&gt;nasalib/structures</title>
<path fill="none" stroke="black" d="M456.37,-555C562.11,-555 726.17,-555 726.17,-555 726.17,-555 726.17,-62.24 726.17,-62.24"/>
<polygon fill="black" stroke="black" points="729.67,-62.24 726.17,-52.24 722.67,-62.24 729.67,-62.24"/>
</g>
<!-- nasalib/affine_arith@affine_bandb_numerical -->
<g id="node3" class="node">
<title>nasalib/affine_arith@affine_bandb_numerical</title>
<ellipse fill="#e6f3ff" stroke="black" cx="480" cy="-477" rx="96.68" ry="18"/>
<text text-anchor="middle" x="480" y="-473.3" font-family="Times,serif" font-size="14.00">affine_bandb_numerical</text>
</g>
<!-- nasalib/affine_arith@affine_expr_Eval -->
<g id="node7" class="node">
<title>nasalib/affine_arith@affine_expr_Eval</title>
<ellipse fill="#e6f3ff" stroke="black" cx="506" cy="-405" rx="71.49" ry="18"/>
<text text-anchor="middle" x="506" y="-401.3" font-family="Times,serif" font-size="14.00">affine_expr_Eval</text>
</g>
<!-- nasalib/affine_arith@affine_bandb_numerical&#45;&gt;nasalib/affine_arith@affine_expr_Eval -->
<g id="edge4" class="edge">
<title>nasalib/affine_arith@affine_bandb_numerical&#45;&gt;nasalib/affine_arith@affine_expr_Eval</title>
<path fill="none" stroke="black" d="M529.4,-461.38C529.4,-461.38 529.4,-432.1 529.4,-432.1"/>
<polygon fill="black" stroke="black" points="532.9,-432.1 529.4,-422.1 525.9,-432.1 532.9,-432.1"/>
</g>
<!-- nasalib/affine_arith@affine_bandb_numerical&#45;&gt;nasalib/interval_arith -->
<g id="edge5" class="edge">
<title>nasalib/affine_arith@affine_bandb_numerical&#45;&gt;nasalib/interval_arith</title>
<path fill="none" stroke="black" d="M571.47,-471C596.07,-471 616,-471 616,-471 616,-471 616,-62.22 616,-62.22"/>
<polygon fill="black" stroke="black" points="619.5,-62.22 616,-52.22 612.5,-62.22 619.5,-62.22"/>
</g>
<!-- nasalib/reals -->
<g id="node15" class="node">
<title>nasalib/reals</title>
<polygon fill="#fcfcd7" stroke="black" points="547,-52 493,-52 493,-16 547,-16 547,-52"/>
<text text-anchor="middle" x="520" y="-30.3" font-family="Times,serif" font-size="14.00">reals</text>
</g>
<!-- nasalib/affine_arith@affine_bandb_numerical&#45;&gt;nasalib/reals -->
<g id="edge6" class="edge">
<title>nasalib/affine_arith@affine_bandb_numerical&#45;&gt;nasalib/reals</title>
<path fill="none" stroke="black" d="M425.32,-461.98C425.32,-432.31 425.32,-369 425.32,-369 425.32,-369 520,-369 520,-369 520,-369 520,-62.01 520,-62.01"/>
<polygon fill="black" stroke="black" points="523.5,-62.01 520,-52.01 516.5,-62.01 523.5,-62.01"/>
</g>
<!-- nasalib/affine_arith@affine_bandb_numerical&#45;&gt;nasalib/structures -->
<g id="edge7" class="edge">
<title>nasalib/affine_arith@affine_bandb_numerical&#45;&gt;nasalib/structures</title>
<path fill="none" stroke="black" d="M571.53,-483C638.79,-483 718.5,-483 718.5,-483 718.5,-483 718.5,-62.16 718.5,-62.16"/>
<polygon fill="black" stroke="black" points="722,-62.16 718.5,-52.16 715,-62.16 722,-62.16"/>
</g>
<!-- nasalib/affine_arith@affine_boolexpr&#45;&gt;nasalib/affine_arith@affine_expr_Eval -->
<g id="edge8" class="edge">
<title>nasalib/affine_arith@affine_boolexpr&#45;&gt;nasalib/affine_arith@affine_expr_Eval</title>
<path fill="none" stroke="black" d="M285.74,-459.21C285.74,-446.64 285.74,-432 285.74,-432 285.74,-432 481.95,-432 481.95,-432 481.95,-432 481.95,-431.03 481.95,-431.03"/>
<polygon fill="black" stroke="black" points="485.45,-432.25 481.95,-422.25 478.45,-432.25 485.45,-432.25"/>
</g>
<!-- nasalib/affine_arith@affine_expr_Eval_fnd_props -->
<g id="node9" class="node">
<title>nasalib/affine_arith@affine_expr_Eval_fnd_props</title>
<ellipse fill="#e6f3ff" stroke="black" cx="305" cy="-405" rx="111.28" ry="18"/>
<text text-anchor="middle" x="305" y="-401.3" font-family="Times,serif" font-size="14.00">affine_expr_Eval_fnd_props</text>
</g>
<!-- nasalib/affine_arith@affine_boolexpr&#45;&gt;nasalib/affine_arith@affine_expr_Eval_fnd_props -->
<g id="edge9" class="edge">
<title>nasalib/affine_arith@affine_boolexpr&#45;&gt;nasalib/affine_arith@affine_expr_Eval_fnd_props</title>
<path fill="none" stroke="black" d="M259.22,-462.43C259.22,-462.43 259.22,-431.56 259.22,-431.56"/>
<polygon fill="black" stroke="black" points="262.72,-431.56 259.22,-421.56 255.72,-431.56 262.72,-431.56"/>
</g>
<!-- nasalib/affine_arith@boolexpr_lfcmrs -->
<g id="node11" class="node">
<title>nasalib/affine_arith@boolexpr_lfcmrs</title>
<ellipse fill="#e6f3ff" stroke="black" cx="106" cy="-405" rx="69.59" ry="18"/>
<text text-anchor="middle" x="106" y="-401.3" font-family="Times,serif" font-size="14.00">boolexpr_lfcmrs</text>
</g>
<!-- nasalib/affine_arith@affine_boolexpr&#45;&gt;nasalib/affine_arith@boolexpr_lfcmrs -->
<g id="edge10" class="edge">
<title>nasalib/affine_arith@affine_boolexpr&#45;&gt;nasalib/affine_arith@boolexpr_lfcmrs</title>
<path fill="none" stroke="black" d="M236.34,-483C179.98,-483 106,-483 106,-483 106,-483 106,-433.09 106,-433.09"/>
<polygon fill="black" stroke="black" points="109.5,-433.09 106,-423.09 102.5,-433.09 109.5,-433.09"/>
</g>
<!-- nasalib/affine_arith@boolexpr_lfcs -->
<g id="node12" class="node">
<title>nasalib/affine_arith@boolexpr_lfcs</title>
<ellipse fill="#e6f3ff" stroke="black" cx="106" cy="-333" rx="59.29" ry="18"/>
<text text-anchor="middle" x="106" y="-329.3" font-family="Times,serif" font-size="14.00">boolexpr_lfcs</text>
</g>
<!-- nasalib/affine_arith@affine_boolexpr&#45;&gt;nasalib/affine_arith@boolexpr_lfcs -->
<g id="edge11" class="edge">
<title>nasalib/affine_arith@affine_boolexpr&#45;&gt;nasalib/affine_arith@boolexpr_lfcs</title>
<path fill="none" stroke="black" d="M236.17,-471C209.61,-471 184.7,-471 184.7,-471 184.7,-471 184.7,-333 184.7,-333 184.7,-333 175.25,-333 175.25,-333"/>
<polygon fill="black" stroke="black" points="175.25,-329.5 165.25,-333 175.25,-336.5 175.25,-329.5"/>
</g>
<!-- nasalib/affine_arith@affine_boolexpr&#45;&gt;nasalib/interval_arith -->
<g id="edge12" class="edge">
<title>nasalib/affine_arith@affine_boolexpr&#45;&gt;nasalib/interval_arith</title>
<path fill="none" stroke="black" d="M312.26,-459C312.26,-450 312.26,-441 312.26,-441 312.26,-441 596.75,-441 596.75,-441 596.75,-441 596.75,-62.01 596.75,-62.01"/>
<polygon fill="black" stroke="black" points="600.25,-62.01 596.75,-52.01 593.25,-62.01 600.25,-62.01"/>
</g>
<!-- nasalib/affine_arith@affine_boolexpr&#45;&gt;nasalib/structures -->
<g id="edge13" class="edge">
<title>nasalib/affine_arith@affine_boolexpr&#45;&gt;nasalib/structures</title>
<path fill="none" stroke="black" d="M338.78,-462.55C338.78,-456.13 338.78,-450 338.78,-450 338.78,-450 710.83,-450 710.83,-450 710.83,-450 710.83,-62.14 710.83,-62.14"/>
<polygon fill="black" stroke="black" points="714.33,-62.14 710.83,-52.14 707.33,-62.14 714.33,-62.14"/>
</g>
<!-- nasalib/affine_arith@affine_box -->
<g id="node5" class="node">
<title>nasalib/affine_arith@affine_box</title>
<ellipse fill="#e6f3ff" stroke="black" cx="420" cy="-189" rx="48.19" ry="18"/>
<text text-anchor="middle" x="420" y="-185.3" font-family="Times,serif" font-size="14.00">affine_box</text>
</g>
<!-- nasalib/affine_arith@affine_box&#45;&gt;nasalib/affine_arith@affine -->
<g id="edge14" class="edge">
<title>nasalib/affine_arith@affine_box&#45;&gt;nasalib/affine_arith@affine</title>
<path fill="none" stroke="black" d="M420,-170.87C420,-150.43 420,-120 420,-120 420,-120 344.17,-120 344.17,-120"/>
<polygon fill="black" stroke="black" points="344.17,-116.5 334.17,-120 344.17,-123.5 344.17,-116.5"/>
</g>
<!-- nasalib/affine_arith@affine_box&#45;&gt;nasalib/interval_arith -->
<g id="edge15" class="edge">
<title>nasalib/affine_arith@affine_box&#45;&gt;nasalib/interval_arith</title>
<path fill="none" stroke="black" d="M465.49,-183C509.29,-183 568.93,-183 568.93,-183 568.93,-183 568.93,-62.27 568.93,-62.27"/>
<polygon fill="black" stroke="black" points="572.43,-62.27 568.93,-52.27 565.43,-62.27 572.43,-62.27"/>
</g>
<!-- nasalib/affine_arith@affine_box&#45;&gt;nasalib/structures -->
<g id="edge16" class="edge">
<title>nasalib/affine_arith@affine_box&#45;&gt;nasalib/structures</title>
<path fill="none" stroke="black" d="M465.49,-195C543.74,-195 695.5,-195 695.5,-195 695.5,-195 695.5,-62.16 695.5,-62.16"/>
<polygon fill="black" stroke="black" points="699,-62.16 695.5,-52.16 692,-62.16 699,-62.16"/>
</g>
<!-- nasalib/affine_arith@affine_expr -->
<g id="node6" class="node">
<title>nasalib/affine_arith@affine_expr</title>
<ellipse fill="#e6f3ff" stroke="black" cx="305" cy="-261" rx="50.89" ry="18"/>
<text text-anchor="middle" x="305" y="-257.3" font-family="Times,serif" font-size="14.00">affine_expr</text>
</g>
<!-- nasalib/affine_arith@affine_expr&#45;&gt;nasalib/affine_arith@affine_box -->
<g id="edge23" class="edge">
<title>nasalib/affine_arith@affine_expr&#45;&gt;nasalib/affine_arith@affine_box</title>
<path fill="none" stroke="black" d="M352.89,-255C368.55,-255 382,-255 382,-255 382,-255 382,-210.2 382,-210.2"/>
<polygon fill="black" stroke="black" points="385.5,-210.2 382,-200.2 378.5,-210.2 385.5,-210.2"/>
</g>
<!-- nasalib/affine_arith@affine_pow -->
<g id="node10" class="node">
<title>nasalib/affine_arith@affine_pow</title>
<ellipse fill="#e6f3ff" stroke="black" cx="304" cy="-189" rx="50.09" ry="18"/>
<text text-anchor="middle" x="304" y="-185.3" font-family="Times,serif" font-size="14.00">affine_pow</text>
</g>
<!-- nasalib/affine_arith@affine_expr&#45;&gt;nasalib/affine_arith@affine_pow -->
<g id="edge24" class="edge">
<title>nasalib/affine_arith@affine_expr&#45;&gt;nasalib/affine_arith@affine_pow</title>
<path fill="none" stroke="black" d="M304.18,-242.83C304.18,-242.83 304.18,-217.41 304.18,-217.41"/>
<polygon fill="black" stroke="black" points="307.68,-217.41 304.18,-207.41 300.68,-217.41 307.68,-217.41"/>
</g>
<!-- nasalib/affine_arith@affine_expr&#45;&gt;nasalib/interval_arith -->
<g id="edge25" class="edge">
<title>nasalib/affine_arith@affine_expr&#45;&gt;nasalib/interval_arith</title>
<path fill="none" stroke="black" d="M353.1,-267C430.5,-267 574.07,-267 574.07,-267 574.07,-267 574.07,-62.28 574.07,-62.28"/>
<polygon fill="black" stroke="black" points="577.57,-62.28 574.07,-52.28 570.57,-62.28 577.57,-62.28"/>
</g>
<!-- nasalib/affine_arith@affine_expr_Eval_fnd -->
<g id="node8" class="node">
<title>nasalib/affine_arith@affine_expr_Eval_fnd</title>
<ellipse fill="#e6f3ff" stroke="black" cx="305" cy="-333" rx="87.18" ry="18"/>
<text text-anchor="middle" x="305" y="-329.3" font-family="Times,serif" font-size="14.00">affine_expr_Eval_fnd</text>
</g>
<!-- nasalib/affine_arith@affine_expr_Eval&#45;&gt;nasalib/affine_arith@affine_expr_Eval_fnd -->
<g id="edge22" class="edge">
<title>nasalib/affine_arith@affine_expr_Eval&#45;&gt;nasalib/affine_arith@affine_expr_Eval_fnd</title>
<path fill="none" stroke="black" d="M451.3,-393.15C451.3,-374.9 451.3,-342 451.3,-342 451.3,-342 390.72,-342 390.72,-342"/>
<polygon fill="black" stroke="black" points="390.72,-338.5 380.72,-342 390.72,-345.5 390.72,-338.5"/>
</g>
<!-- nasalib/affine_arith@affine_expr_Eval_fnd&#45;&gt;nasalib/affine_arith@affine -->
<g id="edge18" class="edge">
<title>nasalib/affine_arith@affine_expr_Eval_fnd&#45;&gt;nasalib/affine_arith@affine</title>
<path fill="none" stroke="black" d="M363.8,-319.48C363.8,-273.65 363.8,-127 363.8,-127 363.8,-127 339.71,-127 339.71,-127"/>
<polygon fill="black" stroke="black" points="339.71,-123.5 329.71,-127 339.71,-130.5 339.71,-123.5"/>
</g>
<!-- nasalib/affine_arith@affine_expr_Eval_fnd&#45;&gt;nasalib/affine_arith@affine_expr -->
<g id="edge19" class="edge">
<title>nasalib/affine_arith@affine_expr_Eval_fnd&#45;&gt;nasalib/affine_arith@affine_expr</title>
<path fill="none" stroke="black" d="M305,-314.83C305,-314.83 305,-289.41 305,-289.41"/>
<polygon fill="black" stroke="black" points="308.5,-289.41 305,-279.41 301.5,-289.41 308.5,-289.41"/>
</g>
<!-- nasalib/affine_arith@affine_expr_Eval_fnd&#45;&gt;nasalib/interval_arith -->
<g id="edge20" class="edge">
<title>nasalib/affine_arith@affine_expr_Eval_fnd&#45;&gt;nasalib/interval_arith</title>
<path fill="none" stroke="black" d="M380.43,-324C460.55,-324 575.78,-324 575.78,-324 575.78,-324 575.78,-62.14 575.78,-62.14"/>
<polygon fill="black" stroke="black" points="579.28,-62.14 575.78,-52.14 572.28,-62.14 579.28,-62.14"/>
</g>
<!-- nasalib/affine_arith@affine_expr_Eval_fnd&#45;&gt;nasalib/structures -->
<g id="edge21" class="edge">
<title>nasalib/affine_arith@affine_expr_Eval_fnd&#45;&gt;nasalib/structures</title>
<path fill="none" stroke="black" d="M392.38,-333C509.59,-333 703.17,-333 703.17,-333 703.17,-333 703.17,-62.25 703.17,-62.25"/>
<polygon fill="black" stroke="black" points="706.67,-62.25 703.17,-52.25 699.67,-62.25 706.67,-62.25"/>
</g>
<!-- nasalib/affine_arith@affine_expr_Eval_fnd_props&#45;&gt;nasalib/affine_arith@affine_expr_Eval_fnd -->
<g id="edge17" class="edge">
<title>nasalib/affine_arith@affine_expr_Eval_fnd_props&#45;&gt;nasalib/affine_arith@affine_expr_Eval_fnd</title>
<path fill="none" stroke="black" d="M305,-386.83C305,-386.83 305,-361.41 305,-361.41"/>
<polygon fill="black" stroke="black" points="308.5,-361.41 305,-351.41 301.5,-361.41 308.5,-361.41"/>
</g>
<!-- nasalib/affine_arith@affine_pow&#45;&gt;nasalib/affine_arith@affine -->
<g id="edge26" class="edge">
<title>nasalib/affine_arith@affine_pow&#45;&gt;nasalib/affine_arith@affine</title>
<path fill="none" stroke="black" d="M304,-170.83C304,-170.83 304,-145.41 304,-145.41"/>
<polygon fill="black" stroke="black" points="307.5,-145.41 304,-135.41 300.5,-145.41 307.5,-145.41"/>
</g>
<!-- nasalib/affine_arith@affine_pow&#45;&gt;nasalib/reals -->
<g id="edge27" class="edge">
<title>nasalib/affine_arith@affine_pow&#45;&gt;nasalib/reals</title>
<path fill="none" stroke="black" d="M347.55,-179.77C347.55,-146.4 347.55,-34 347.55,-34 347.55,-34 482.67,-34 482.67,-34"/>
<polygon fill="black" stroke="black" points="482.67,-37.5 492.67,-34 482.67,-30.5 482.67,-37.5"/>
</g>
<!-- nasalib/affine_arith@affine_pow&#45;&gt;nasalib/structures -->
<g id="edge28" class="edge">
<title>nasalib/affine_arith@affine_pow&#45;&gt;nasalib/structures</title>
<path fill="none" stroke="black" d="M341.05,-176.81C341.05,-166.37 341.05,-153 341.05,-153 341.05,-153 687.83,-153 687.83,-153 687.83,-153 687.83,-62.07 687.83,-62.07"/>
<polygon fill="black" stroke="black" points="691.33,-62.07 687.83,-52.07 684.33,-62.07 691.33,-62.07"/>
</g>
<!-- nasalib/affine_arith@boolexpr_lfcmrs&#45;&gt;nasalib/affine_arith@boolexpr_lfcs -->
<g id="edge31" class="edge">
<title>nasalib/affine_arith@boolexpr_lfcmrs&#45;&gt;nasalib/affine_arith@boolexpr_lfcs</title>
<path fill="none" stroke="black" d="M106,-386.83C106,-386.83 106,-361.41 106,-361.41"/>
<polygon fill="black" stroke="black" points="109.5,-361.41 106,-351.41 102.5,-361.41 109.5,-361.41"/>
</g>
<!-- nasalib/affine_arith@boolexpr_lfcmrs&#45;&gt;nasalib/interval_arith -->
<g id="edge32" class="edge">
<title>nasalib/affine_arith@boolexpr_lfcmrs&#45;&gt;nasalib/interval_arith</title>
<path fill="none" stroke="black" d="M170.34,-397.96C170.34,-365.41 170.34,-231 170.34,-231 170.34,-231 572.35,-231 572.35,-231 572.35,-231 572.35,-62.18 572.35,-62.18"/>
<polygon fill="black" stroke="black" points="575.85,-62.18 572.35,-52.18 568.85,-62.18 575.85,-62.18"/>
</g>
<!-- nasalib/affine_arith@boolexpr_lfcs&#45;&gt;nasalib/interval_arith -->
<g id="edge33" class="edge">
<title>nasalib/affine_arith@boolexpr_lfcs&#45;&gt;nasalib/interval_arith</title>
<path fill="none" stroke="black" d="M106,-314.94C106,-282.79 106,-219 106,-219 106,-219 570.64,-219 570.64,-219 570.64,-219 570.64,-62.08 570.64,-62.08"/>
<polygon fill="black" stroke="black" points="574.14,-62.08 570.64,-52.08 567.14,-62.08 574.14,-62.08"/>
</g>
<!-- nasalib/affine_arith@strategies -->
<g id="node13" class="node">
<title>nasalib/affine_arith@strategies</title>
<ellipse fill="#e6f3ff" stroke="black" cx="424" cy="-621" rx="44.39" ry="18"/>
<text text-anchor="middle" x="424" y="-617.3" font-family="Times,serif" font-size="14.00">strategies</text>
</g>
<!-- nasalib/affine_arith@strategies&#45;&gt;nasalib/affine_arith@affine_bandb_boolexpr -->
<g id="edge34" class="edge">
<title>nasalib/affine_arith@strategies&#45;&gt;nasalib/affine_arith@affine_bandb_boolexpr</title>
<path fill="none" stroke="black" d="M420.55,-602.83C420.55,-602.83 420.55,-574.01 420.55,-574.01"/>
<polygon fill="black" stroke="black" points="424.05,-574.01 420.55,-564.01 417.05,-574.01 424.05,-574.01"/>
</g>
<!-- nasalib/affine_arith@strategies&#45;&gt;nasalib/affine_arith@affine_bandb_numerical -->
<g id="edge35" class="edge">
<title>nasalib/affine_arith@strategies&#45;&gt;nasalib/affine_arith@affine_bandb_numerical</title>
<path fill="none" stroke="black" d="M465.78,-615C492.63,-615 522.52,-615 522.52,-615 522.52,-615 522.52,-503.37 522.52,-503.37"/>
<polygon fill="black" stroke="black" points="526.02,-503.37 522.52,-493.37 519.02,-503.37 526.02,-503.37"/>
</g>
<!-- nasalib/affine_arith@strategies&#45;&gt;nasalib/structures -->
<g id="edge36" class="edge">
<title>nasalib/affine_arith@strategies&#45;&gt;nasalib/structures</title>
<path fill="none" stroke="black" d="M465.79,-627C550.36,-627 733.83,-627 733.83,-627 733.83,-627 733.83,-62.07 733.83,-62.07"/>
<polygon fill="black" stroke="black" points="737.33,-62.07 733.83,-52.07 730.33,-62.07 737.33,-62.07"/>
</g>
</g>
</svg>
