<?xml version="1.0" encoding="UTF-8" standalone="no"?>
<!DOCTYPE svg PUBLIC "-//W3C//DTD SVG 1.1//EN"
 "http://www.w3.org/Graphics/SVG/1.1/DTD/svg11.dtd">
<!-- Generated by graphviz version 7.0.6 (20230106.0513)
 -->
<!-- Title: affine_arith&#45;zoomed Pages: 1 -->
<svg width="769pt" height="686pt"
 viewBox="0.00 0.00 769.00 686.00" xmlns="http://www.w3.org/2000/svg" xmlns:xlink="http://www.w3.org/1999/xlink">
<g id="graph0" class="graph" transform="scale(1 1) rotate(0) translate(4 682)">
<title>affine_arith&#45;zoomed</title>
<polygon fill="white" stroke="none" points="-4,4 -4,-682 765,-682 765,4 -4,4"/>
<g id="clust1" class="cluster">
<title>cluster_NASALib</title>
<polygon fill="none" stroke="black" points="488,-8 488,-83 753,-83 753,-8 488,-8"/>
<text text-anchor="middle" x="620.5" y="-67.8" font-family="Times,serif" font-size="14.00">NASALib</text>
</g>
<g id="clust2" class="cluster">
<title>cluster_NASALib/affine_arith</title>
<polygon fill="none" stroke="black" points="8,-91 8,-670 585,-670 585,-91 8,-91"/>
<text text-anchor="middle" x="296.5" y="-654.8" font-family="Times,serif" font-size="14.00">NASALib/affine_arith</text>
</g>
<!-- NASALib/affine_arith@affine -->
<g id="node1" class="node">
<title>NASALib/affine_arith@affine</title>
<ellipse fill="#e6f3ff" stroke="black" cx="305" cy="-117" rx="31.4" ry="18"/>
<text text-anchor="middle" x="305" y="-113.3" font-family="Times,serif" font-size="14.00">affine</text>
</g>
<!-- NASALib/interval_arith -->
<g id="node14" class="node">
<title>NASALib/interval_arith</title>
<polygon fill="#fcfcd7" stroke="black" points="657.5,-52 568.5,-52 568.5,-16 657.5,-16 657.5,-52"/>
<text text-anchor="middle" x="613" y="-30.3" font-family="Times,serif" font-size="14.00">interval_arith</text>
</g>
<!-- NASALib/affine_arith@affine&#45;&gt;NASALib/interval_arith -->
<g id="edge1" class="edge">
<title>NASALib/affine_arith@affine&#45;&gt;NASALib/interval_arith</title>
<path fill="none" stroke="black" d="M333.69,-109.1C364.48,-101.7 409,-91 409,-91 409,-91 559,-83 559,-83 559,-83 571.81,-71.61 584.95,-59.93"/>
<polygon fill="black" stroke="black" points="587.22,-62.59 592.37,-53.33 582.57,-57.36 587.22,-62.59"/>
</g>
<!-- NASALib/structures -->
<g id="node16" class="node">
<title>NASALib/structures</title>
<polygon fill="#fcfcd7" stroke="black" points="744.5,-52 675.5,-52 675.5,-16 744.5,-16 744.5,-52"/>
<text text-anchor="middle" x="710" y="-30.3" font-family="Times,serif" font-size="14.00">structures</text>
</g>
<!-- NASALib/affine_arith@affine&#45;&gt;NASALib/structures -->
<g id="edge2" class="edge">
<title>NASALib/affine_arith@affine&#45;&gt;NASALib/structures</title>
<path fill="none" stroke="black" d="M333.69,-109.1C364.48,-101.7 409,-91 409,-91 409,-91 667,-83 667,-83 667,-83 676.82,-72.04 687.07,-60.6"/>
<polygon fill="black" stroke="black" points="689.4,-63.24 693.47,-53.46 684.19,-58.57 689.4,-63.24"/>
</g>
<!-- NASALib/affine_arith@affine_bandb_boolexpr -->
<g id="node2" class="node">
<title>NASALib/affine_arith@affine_bandb_boolexpr</title>
<ellipse fill="#e6f3ff" stroke="black" cx="368" cy="-549" rx="92.88" ry="18"/>
<text text-anchor="middle" x="368" y="-545.3" font-family="Times,serif" font-size="14.00">affine_bandb_boolexpr</text>
</g>
<!-- NASALib/affine_arith@affine_boolexpr -->
<g id="node4" class="node">
<title>NASALib/affine_arith@affine_boolexpr</title>
<ellipse fill="#e6f3ff" stroke="black" cx="298" cy="-477" rx="66.89" ry="18"/>
<text text-anchor="middle" x="298" y="-473.3" font-family="Times,serif" font-size="14.00">affine_boolexpr</text>
</g>
<!-- NASALib/affine_arith@affine_bandb_boolexpr&#45;&gt;NASALib/affine_arith@affine_boolexpr -->
<g id="edge3" class="edge">
<title>NASALib/affine_arith@affine_bandb_boolexpr&#45;&gt;NASALib/affine_arith@affine_boolexpr</title>
<path fill="none" stroke="black" d="M351.05,-531.05C342.54,-522.54 332.07,-512.07 322.68,-502.68"/>
<polygon fill="black" stroke="black" points="325.41,-500.46 315.86,-495.86 320.46,-505.41 325.41,-500.46"/>
</g>
<!-- NASALib/affine_arith@affine_bandb_boolexpr&#45;&gt;NASALib/interval_arith -->
<g id="edge4" class="edge">
<title>NASALib/affine_arith@affine_bandb_boolexpr&#45;&gt;NASALib/interval_arith</title>
<path fill="none" stroke="black" d="M689,-116C689,-116 659.2,-84.24 636.92,-60.49"/>
<polygon fill="black" stroke="black" points="639.55,-58.18 630.15,-53.28 634.44,-62.97 639.55,-58.18"/>
</g>
<!-- NASALib/affine_arith@affine_bandb_boolexpr&#45;&gt;NASALib/structures -->
<g id="edge5" class="edge">
<title>NASALib/affine_arith@affine_bandb_boolexpr&#45;&gt;NASALib/structures</title>
<path fill="none" stroke="black" d="M424.42,-534.28C489.02,-518.58 586,-495 586,-495 586,-495 689,-406 689,-406 689,-406 689,-406 689,-260 689,-260 689,-118 689,-118"/>
<path fill="none" stroke="black" d="M689,-116C689,-116 696.67,-86.43 702.74,-63.02"/>
<polygon fill="black" stroke="black" points="706.04,-64.2 705.17,-53.64 699.27,-62.44 706.04,-64.2"/>
</g>
<!-- NASALib/affine_arith@affine_bandb_numerical -->
<g id="node3" class="node">
<title>NASALib/affine_arith@affine_bandb_numerical</title>
<ellipse fill="#e6f3ff" stroke="black" cx="480" cy="-477" rx="96.68" ry="18"/>
<text text-anchor="middle" x="480" y="-473.3" font-family="Times,serif" font-size="14.00">affine_bandb_numerical</text>
</g>
<!-- NASALib/affine_arith@affine_expr_Eval -->
<g id="node7" class="node">
<title>NASALib/affine_arith@affine_expr_Eval</title>
<ellipse fill="#e6f3ff" stroke="black" cx="506" cy="-405" rx="71.49" ry="18"/>
<text text-anchor="middle" x="506" y="-401.3" font-family="Times,serif" font-size="14.00">affine_expr_Eval</text>
</g>
<!-- NASALib/affine_arith@affine_bandb_numerical&#45;&gt;NASALib/affine_arith@affine_expr_Eval -->
<g id="edge6" class="edge">
<title>NASALib/affine_arith@affine_bandb_numerical&#45;&gt;NASALib/affine_arith@affine_expr_Eval</title>
<path fill="none" stroke="black" d="M486.43,-458.7C489.23,-451.15 492.58,-442.12 495.72,-433.68"/>
<polygon fill="black" stroke="black" points="498.92,-435.12 499.12,-424.52 492.36,-432.68 498.92,-435.12"/>
</g>
<!-- NASALib/affine_arith@affine_bandb_numerical&#45;&gt;NASALib/interval_arith -->
<g id="edge7" class="edge">
<title>NASALib/affine_arith@affine_bandb_numerical&#45;&gt;NASALib/interval_arith</title>
<path fill="none" stroke="black" d="M651,-116C651,-116 636.87,-85.89 625.85,-62.38"/>
<polygon fill="black" stroke="black" points="629.12,-61.11 621.7,-53.55 622.78,-64.09 629.12,-61.11"/>
</g>
<!-- NASALib/reals -->
<g id="node15" class="node">
<title>NASALib/reals</title>
<polygon fill="#fcfcd7" stroke="black" points="550,-52 496,-52 496,-16 550,-16 550,-52"/>
<text text-anchor="middle" x="523" y="-30.3" font-family="Times,serif" font-size="14.00">reals</text>
</g>
<!-- NASALib/affine_arith@affine_bandb_numerical&#45;&gt;NASALib/reals -->
<g id="edge8" class="edge">
<title>NASALib/affine_arith@affine_bandb_numerical&#45;&gt;NASALib/reals</title>
<path fill="none" stroke="black" d="M522.91,-460.53C566.3,-444.88 627,-423 627,-423 627,-423 651,-334 651,-334 651,-334 651,-334 651,-260 651,-260 651,-118 651,-118"/>
<path fill="none" stroke="black" d="M651,-116C651,-116 627,-91 627,-91 627,-91 560,-83 560,-83 560,-83 551.88,-72.46 543.25,-61.26"/>
<polygon fill="black" stroke="black" points="546.16,-59.31 537.28,-53.53 540.61,-63.58 546.16,-59.31"/>
</g>
<!-- NASALib/affine_arith@affine_bandb_numerical&#45;&gt;NASALib/structures -->
<g id="edge9" class="edge">
<title>NASALib/affine_arith@affine_bandb_numerical&#45;&gt;NASALib/structures</title>
<path fill="none" stroke="black" d="M651,-116C651,-116 673.53,-85.07 690.75,-61.43"/>
<polygon fill="black" stroke="black" points="693.54,-63.55 696.6,-53.4 687.88,-59.42 693.54,-63.55"/>
</g>
<!-- NASALib/affine_arith@affine_boolexpr&#45;&gt;NASALib/affine_arith@affine_expr_Eval -->
<g id="edge10" class="edge">
<title>NASALib/affine_arith@affine_boolexpr&#45;&gt;NASALib/affine_arith@affine_expr_Eval</title>
<path fill="none" stroke="black" d="M338.6,-462.34C371.49,-451.27 418.07,-435.59 453.74,-423.59"/>
<polygon fill="black" stroke="black" points="454.64,-426.98 463,-420.47 452.41,-420.34 454.64,-426.98"/>
</g>
<!-- NASALib/affine_arith@affine_expr_Eval_fnd_props -->
<g id="node9" class="node">
<title>NASALib/affine_arith@affine_expr_Eval_fnd_props</title>
<ellipse fill="#e6f3ff" stroke="black" cx="305" cy="-405" rx="111.58" ry="18"/>
<text text-anchor="middle" x="305" y="-401.3" font-family="Times,serif" font-size="14.00">affine_expr_Eval_fnd_props</text>
</g>
<!-- NASALib/affine_arith@affine_boolexpr&#45;&gt;NASALib/affine_arith@affine_expr_Eval_fnd_props -->
<g id="edge11" class="edge">
<title>NASALib/affine_arith@affine_boolexpr&#45;&gt;NASALib/affine_arith@affine_expr_Eval_fnd_props</title>
<path fill="none" stroke="black" d="M299.73,-458.7C300.46,-451.41 301.33,-442.73 302.15,-434.54"/>
<polygon fill="black" stroke="black" points="305.63,-434.91 303.14,-424.61 298.66,-434.21 305.63,-434.91"/>
</g>
<!-- NASALib/affine_arith@boolexpr_lfcmrs -->
<g id="node11" class="node">
<title>NASALib/affine_arith@boolexpr_lfcmrs</title>
<ellipse fill="#e6f3ff" stroke="black" cx="106" cy="-405" rx="69.59" ry="18"/>
<text text-anchor="middle" x="106" y="-401.3" font-family="Times,serif" font-size="14.00">boolexpr_lfcmrs</text>
</g>
<!-- NASALib/affine_arith@affine_boolexpr&#45;&gt;NASALib/affine_arith@boolexpr_lfcmrs -->
<g id="edge12" class="edge">
<title>NASALib/affine_arith@affine_boolexpr&#45;&gt;NASALib/affine_arith@boolexpr_lfcmrs</title>
<path fill="none" stroke="black" d="M259.61,-462C229.72,-451.11 188.01,-435.9 155.59,-424.08"/>
<polygon fill="black" stroke="black" points="157,-420.87 146.41,-420.73 154.6,-427.45 157,-420.87"/>
</g>
<!-- NASALib/affine_arith@boolexpr_lfcs -->
<g id="node12" class="node">
<title>NASALib/affine_arith@boolexpr_lfcs</title>
<ellipse fill="#e6f3ff" stroke="black" cx="106" cy="-333" rx="59.29" ry="18"/>
<text text-anchor="middle" x="106" y="-329.3" font-family="Times,serif" font-size="14.00">boolexpr_lfcs</text>
</g>
<!-- NASALib/affine_arith@affine_boolexpr&#45;&gt;NASALib/affine_arith@boolexpr_lfcs -->
<g id="edge13" class="edge">
<title>NASALib/affine_arith@affine_boolexpr&#45;&gt;NASALib/affine_arith@boolexpr_lfcs</title>
<path fill="none" stroke="black" d="M245.11,-465.66C166.24,-450.23 27,-423 27,-423 27,-423 27,-387 27,-387 27,-387 51.3,-370.7 72.95,-356.17"/>
<polygon fill="black" stroke="black" points="74.69,-359.22 81.04,-350.74 70.79,-353.41 74.69,-359.22"/>
</g>
<!-- NASALib/affine_arith@affine_boolexpr&#45;&gt;NASALib/interval_arith -->
<g id="edge14" class="edge">
<title>NASALib/affine_arith@affine_boolexpr&#45;&gt;NASALib/interval_arith</title>
<path fill="none" stroke="black" d="M613,-116C613,-116 613,-86.96 613,-63.66"/>
<polygon fill="black" stroke="black" points="616.5,-63.69 613,-53.69 609.5,-63.69 616.5,-63.69"/>
</g>
<!-- NASALib/affine_arith@affine_boolexpr&#45;&gt;NASALib/structures -->
<g id="edge15" class="edge">
<title>NASALib/affine_arith@affine_boolexpr&#45;&gt;NASALib/structures</title>
<path fill="none" stroke="black" d="M613,-116C613,-116 637,-91 637,-91 637,-91 667,-83 667,-83 667,-83 676.82,-72.04 687.07,-60.6"/>
<polygon fill="black" stroke="black" points="689.4,-63.24 693.47,-53.46 684.19,-58.57 689.4,-63.24"/>
<path fill="none" stroke="black" d="M348.27,-464.76C362.4,-461.59 374,-459 374,-459 374,-459 586,-423 586,-423 586,-423 613,-334 613,-334 613,-334 613,-334 613,-260 613,-260 613,-118 613,-118"/>
</g>
<!-- NASALib/affine_arith@affine_box -->
<g id="node5" class="node">
<title>NASALib/affine_arith@affine_box</title>
<ellipse fill="#e6f3ff" stroke="black" cx="422" cy="-189" rx="48.99" ry="18"/>
<text text-anchor="middle" x="422" y="-185.3" font-family="Times,serif" font-size="14.00">affine_box</text>
</g>
<!-- NASALib/affine_arith@affine_box&#45;&gt;NASALib/affine_arith@affine -->
<g id="edge16" class="edge">
<title>NASALib/affine_arith@affine_box&#45;&gt;NASALib/affine_arith@affine</title>
<path fill="none" stroke="black" d="M397.19,-173.15C379.33,-162.47 355.13,-147.99 336,-136.55"/>
<polygon fill="black" stroke="black" points="337.92,-133.62 327.55,-131.49 334.33,-139.63 337.92,-133.62"/>
</g>
<!-- NASALib/affine_arith@affine_box&#45;&gt;NASALib/interval_arith -->
<g id="edge17" class="edge">
<title>NASALib/affine_arith@affine_box&#45;&gt;NASALib/interval_arith</title>
<path fill="none" stroke="black" d="M431.44,-171.05C442.98,-150.34 461,-118 461,-118"/>
<path fill="none" stroke="black" d="M461,-116C461,-116 485,-91 485,-91 485,-91 559,-83 559,-83 559,-83 571.81,-71.61 584.95,-59.93"/>
<polygon fill="black" stroke="black" points="587.22,-62.59 592.37,-53.33 582.57,-57.36 587.22,-62.59"/>
</g>
<!-- NASALib/affine_arith@affine_box&#45;&gt;NASALib/structures -->
<g id="edge18" class="edge">
<title>NASALib/affine_arith@affine_box&#45;&gt;NASALib/structures</title>
<path fill="none" stroke="black" d="M461,-116C461,-116 523,-91 523,-91 523,-91 667,-83 667,-83 667,-83 676.82,-72.04 687.07,-60.6"/>
<polygon fill="black" stroke="black" points="689.4,-63.24 693.47,-53.46 684.19,-58.57 689.4,-63.24"/>
</g>
<!-- NASALib/affine_arith@affine_expr -->
<g id="node6" class="node">
<title>NASALib/affine_arith@affine_expr</title>
<ellipse fill="#e6f3ff" stroke="black" cx="305" cy="-261" rx="51.19" ry="18"/>
<text text-anchor="middle" x="305" y="-257.3" font-family="Times,serif" font-size="14.00">affine_expr</text>
</g>
<!-- NASALib/affine_arith@affine_expr&#45;&gt;NASALib/affine_arith@affine_box -->
<g id="edge19" class="edge">
<title>NASALib/affine_arith@affine_expr&#45;&gt;NASALib/affine_arith@affine_box</title>
<path fill="none" stroke="black" d="M330.1,-244.98C346.87,-234.95 369.15,-221.62 387.57,-210.6"/>
<polygon fill="black" stroke="black" points="389.26,-213.67 396.04,-205.53 385.67,-207.66 389.26,-213.67"/>
</g>
<!-- NASALib/affine_arith@affine_pow -->
<g id="node10" class="node">
<title>NASALib/affine_arith@affine_pow</title>
<ellipse fill="#e6f3ff" stroke="black" cx="305" cy="-189" rx="50.89" ry="18"/>
<text text-anchor="middle" x="305" y="-185.3" font-family="Times,serif" font-size="14.00">affine_pow</text>
</g>
<!-- NASALib/affine_arith@affine_expr&#45;&gt;NASALib/affine_arith@affine_pow -->
<g id="edge20" class="edge">
<title>NASALib/affine_arith@affine_expr&#45;&gt;NASALib/affine_arith@affine_pow</title>
<path fill="none" stroke="black" d="M305,-242.7C305,-235.41 305,-226.73 305,-218.54"/>
<polygon fill="black" stroke="black" points="308.5,-218.62 305,-208.62 301.5,-218.62 308.5,-218.62"/>
</g>
<!-- NASALib/affine_arith@affine_expr&#45;&gt;NASALib/interval_arith -->
<g id="edge21" class="edge">
<title>NASALib/affine_arith@affine_expr&#45;&gt;NASALib/interval_arith</title>
<path fill="none" stroke="black" d="M499,-188C499,-188 523,-91 523,-91 523,-91 559,-83 559,-83 559,-83 571.81,-71.61 584.95,-59.93"/>
<polygon fill="black" stroke="black" points="587.22,-62.59 592.37,-53.33 582.57,-57.36 587.22,-62.59"/>
<path fill="none" stroke="black" d="M342.97,-248.5C394.44,-232.91 480,-207 480,-207 480,-207 499,-190 499,-190"/>
</g>
<!-- NASALib/affine_arith@affine_expr_Eval_fnd -->
<g id="node8" class="node">
<title>NASALib/affine_arith@affine_expr_Eval_fnd</title>
<ellipse fill="#e6f3ff" stroke="black" cx="305" cy="-333" rx="87.99" ry="18"/>
<text text-anchor="middle" x="305" y="-329.3" font-family="Times,serif" font-size="14.00">affine_expr_Eval_fnd</text>
</g>
<!-- NASALib/affine_arith@affine_expr_Eval&#45;&gt;NASALib/affine_arith@affine_expr_Eval_fnd -->
<g id="edge22" class="edge">
<title>NASALib/affine_arith@affine_expr_Eval&#45;&gt;NASALib/affine_arith@affine_expr_Eval_fnd</title>
<path fill="none" stroke="black" d="M465.32,-389.83C434.69,-379.16 392.38,-364.43 358.92,-352.78"/>
<polygon fill="black" stroke="black" points="360.42,-349.59 349.83,-349.61 358.12,-356.21 360.42,-349.59"/>
</g>
<!-- NASALib/affine_arith@affine_expr_Eval_fnd&#45;&gt;NASALib/affine_arith@affine -->
<g id="edge23" class="edge">
<title>NASALib/affine_arith@affine_expr_Eval_fnd&#45;&gt;NASALib/affine_arith@affine</title>
<path fill="none" stroke="black" d="M286.02,-315.23C268.44,-299.7 245,-279 245,-279 245,-279 245,-171 245,-171 245,-171 263.74,-154.45 280.27,-139.84"/>
<polygon fill="black" stroke="black" points="282.29,-142.73 287.47,-133.48 277.66,-137.48 282.29,-142.73"/>
</g>
<!-- NASALib/affine_arith@affine_expr_Eval_fnd&#45;&gt;NASALib/affine_arith@affine_expr -->
<g id="edge24" class="edge">
<title>NASALib/affine_arith@affine_expr_Eval_fnd&#45;&gt;NASALib/affine_arith@affine_expr</title>
<path fill="none" stroke="black" d="M305,-314.7C305,-307.41 305,-298.73 305,-290.54"/>
<polygon fill="black" stroke="black" points="308.5,-290.62 305,-280.62 301.5,-290.62 308.5,-290.62"/>
</g>
<!-- NASALib/affine_arith@affine_expr_Eval_fnd&#45;&gt;NASALib/interval_arith -->
<g id="edge25" class="edge">
<title>NASALib/affine_arith@affine_expr_Eval_fnd&#45;&gt;NASALib/interval_arith</title>
<path fill="none" stroke="black" d="M537,-116C537,-116 566.8,-84.24 589.08,-60.49"/>
<polygon fill="black" stroke="black" points="591.56,-62.97 595.85,-53.28 586.45,-58.18 591.56,-62.97"/>
<path fill="none" stroke="black" d="M358.57,-318.35C420.19,-302.65 513,-279 513,-279 513,-279 537,-118 537,-118"/>
</g>
<!-- NASALib/affine_arith@affine_expr_Eval_fnd&#45;&gt;NASALib/structures -->
<g id="edge26" class="edge">
<title>NASALib/affine_arith@affine_expr_Eval_fnd&#45;&gt;NASALib/structures</title>
<path fill="none" stroke="black" d="M537,-116C537,-116 599,-91 599,-91 599,-91 667,-83 667,-83 667,-83 676.82,-72.04 687.07,-60.6"/>
<polygon fill="black" stroke="black" points="689.4,-63.24 693.47,-53.46 684.19,-58.57 689.4,-63.24"/>
</g>
<!-- NASALib/affine_arith@affine_expr_Eval_fnd_props&#45;&gt;NASALib/affine_arith@affine_expr_Eval_fnd -->
<g id="edge27" class="edge">
<title>NASALib/affine_arith@affine_expr_Eval_fnd_props&#45;&gt;NASALib/affine_arith@affine_expr_Eval_fnd</title>
<path fill="none" stroke="black" d="M305,-386.7C305,-379.41 305,-370.73 305,-362.54"/>
<polygon fill="black" stroke="black" points="308.5,-362.62 305,-352.62 301.5,-362.62 308.5,-362.62"/>
</g>
<!-- NASALib/affine_arith@affine_pow&#45;&gt;NASALib/affine_arith@affine -->
<g id="edge28" class="edge">
<title>NASALib/affine_arith@affine_pow&#45;&gt;NASALib/affine_arith@affine</title>
<path fill="none" stroke="black" d="M305,-170.7C305,-163.41 305,-154.73 305,-146.54"/>
<polygon fill="black" stroke="black" points="308.5,-146.62 305,-136.62 301.5,-146.62 308.5,-146.62"/>
</g>
<!-- NASALib/affine_arith@affine_pow&#45;&gt;NASALib/reals -->
<g id="edge29" class="edge">
<title>NASALib/affine_arith@affine_pow&#45;&gt;NASALib/reals</title>
<path fill="none" stroke="black" d="M423,-116C423,-116 447,-91 447,-91 447,-91 469.61,-74.34 490.16,-59.2"/>
<polygon fill="black" stroke="black" points="492.18,-62.06 498.15,-53.31 488.02,-56.42 492.18,-62.06"/>
<path fill="none" stroke="black" d="M330.31,-172.98C364.99,-152.41 423,-118 423,-118"/>
</g>
<!-- NASALib/affine_arith@affine_pow&#45;&gt;NASALib/structures -->
<g id="edge30" class="edge">
<title>NASALib/affine_arith@affine_pow&#45;&gt;NASALib/structures</title>
<path fill="none" stroke="black" d="M423,-116C423,-116 447,-91 447,-91 447,-91 667,-83 667,-83 667,-83 676.82,-72.04 687.07,-60.6"/>
<polygon fill="black" stroke="black" points="689.4,-63.24 693.47,-53.46 684.19,-58.57 689.4,-63.24"/>
</g>
<!-- NASALib/affine_arith@boolexpr_lfcmrs&#45;&gt;NASALib/affine_arith@boolexpr_lfcs -->
<g id="edge31" class="edge">
<title>NASALib/affine_arith@boolexpr_lfcmrs&#45;&gt;NASALib/affine_arith@boolexpr_lfcs</title>
<path fill="none" stroke="black" d="M106,-386.7C106,-379.41 106,-370.73 106,-362.54"/>
<polygon fill="black" stroke="black" points="109.5,-362.62 106,-352.62 102.5,-362.62 109.5,-362.62"/>
</g>
<!-- NASALib/affine_arith@boolexpr_lfcmrs&#45;&gt;NASALib/interval_arith -->
<g id="edge32" class="edge">
<title>NASALib/affine_arith@boolexpr_lfcmrs&#45;&gt;NASALib/interval_arith</title>
<path fill="none" stroke="black" d="M158.03,-392.66C172.33,-389.54 184,-387 184,-387 184,-387 402,-351 402,-351 402,-351 575,-262 575,-262 575,-262 575,-262 575,-188 575,-188 599,-91 599,-91 599,-91 602.45,-77.21 605.92,-63.32"/>
<polygon fill="black" stroke="black" points="609.25,-64.43 608.28,-53.88 602.46,-62.73 609.25,-64.43"/>
</g>
<!-- NASALib/affine_arith@boolexpr_lfcs&#45;&gt;NASALib/interval_arith -->
<g id="edge33" class="edge">
<title>NASALib/affine_arith@boolexpr_lfcs&#45;&gt;NASALib/interval_arith</title>
<path fill="none" stroke="black" d="M157,-323.5C182.5,-319.25 208,-315 208,-315 208,-315 485,-279 485,-279 485,-279 499,-190 499,-190"/>
</g>
<!-- NASALib/affine_arith@strategies -->
<g id="node13" class="node">
<title>NASALib/affine_arith@strategies</title>
<ellipse fill="#e6f3ff" stroke="black" cx="424" cy="-621" rx="44.39" ry="18"/>
<text text-anchor="middle" x="424" y="-617.3" font-family="Times,serif" font-size="14.00">strategies</text>
</g>
<!-- NASALib/affine_arith@strategies&#45;&gt;NASALib/affine_arith@affine_bandb_boolexpr -->
<g id="edge34" class="edge">
<title>NASALib/affine_arith@strategies&#45;&gt;NASALib/affine_arith@affine_bandb_boolexpr</title>
<path fill="none" stroke="black" d="M410.73,-603.41C404.13,-595.16 396.01,-585.01 388.62,-575.78"/>
<polygon fill="black" stroke="black" points="391.49,-573.76 382.51,-568.14 386.02,-578.13 391.49,-573.76"/>
</g>
<!-- NASALib/affine_arith@strategies&#45;&gt;NASALib/affine_arith@affine_bandb_numerical -->
<g id="edge35" class="edge">
<title>NASALib/affine_arith@strategies&#45;&gt;NASALib/affine_arith@affine_bandb_numerical</title>
<path fill="none" stroke="black" d="M438.3,-603.52C451.81,-587.96 470,-567 470,-567 470,-567 480,-550 480,-550"/>
<path fill="none" stroke="black" d="M480,-548C480,-548 480,-526.08 480,-506.77"/>
<polygon fill="black" stroke="black" points="483.5,-506.82 480,-496.82 476.5,-506.82 483.5,-506.82"/>
</g>
<!-- NASALib/affine_arith@strategies&#45;&gt;NASALib/structures -->
<g id="edge36" class="edge">
<title>NASALib/affine_arith@strategies&#45;&gt;NASALib/structures</title>
<path fill="none" stroke="black" d="M480,-548C480,-548 619,-495 619,-495 619,-495 727,-406 727,-406 727,-406 727,-406 727,-188 727,-188 718.07,-107.67 713.16,-63.42"/>
<polygon fill="black" stroke="black" points="716.67,-63.31 712.08,-53.76 709.71,-64.08 716.67,-63.31"/>
</g>
</g>
</svg>
