<?xml version="1.0" encoding="UTF-8" standalone="no"?>
<!DOCTYPE svg PUBLIC "-//W3C//DTD SVG 1.1//EN"
 "http://www.w3.org/Graphics/SVG/1.1/DTD/svg11.dtd">
<!-- Generated by graphviz version 7.0.6 (20230106.0513)
 -->
<!-- Title: sorting&#45;zoomed Pages: 1 -->
<svg width="1330pt" height="390pt"
 viewBox="0.00 0.00 1330.00 390.00" xmlns="http://www.w3.org/2000/svg" xmlns:xlink="http://www.w3.org/1999/xlink">
<g id="graph0" class="graph" transform="scale(1 1) rotate(0) translate(4 386)">
<title>sorting&#45;zoomed</title>
<polygon fill="white" stroke="none" points="-4,4 -4,-386 1326,-386 1326,4 -4,4"/>
<g id="clust1" class="cluster">
<title>cluster_NASALib</title>
<polygon fill="none" stroke="black" points="1084,-80 1084,-155 1314,-155 1314,-80 1084,-80"/>
<text text-anchor="middle" x="1199" y="-139.8" font-family="Times,serif" font-size="14.00">NASALib</text>
</g>
<g id="clust2" class="cluster">
<title>cluster_NASALib/sorting</title>
<polygon fill="none" stroke="black" points="8,-8 8,-374 1076,-374 1076,-8 8,-8"/>
<text text-anchor="middle" x="542" y="-358.8" font-family="Times,serif" font-size="14.00">NASALib/sorting</text>
</g>
<!-- NASALib/ints -->
<g id="node1" class="node">
<title>NASALib/ints</title>
<polygon fill="#fcfcd7" stroke="black" points="1306,-124 1252,-124 1252,-88 1306,-88 1306,-124"/>
<text text-anchor="middle" x="1279" y="-102.3" font-family="Times,serif" font-size="14.00">ints</text>
</g>
<!-- NASALib/reals -->
<g id="node2" class="node">
<title>NASALib/reals</title>
<polygon fill="#fcfcd7" stroke="black" points="1234,-124 1180,-124 1180,-88 1234,-88 1234,-124"/>
<text text-anchor="middle" x="1207" y="-102.3" font-family="Times,serif" font-size="14.00">reals</text>
</g>
<!-- NASALib/sorting@binsertionsort -->
<g id="node3" class="node">
<title>NASALib/sorting@binsertionsort</title>
<ellipse fill="#e6f3ff" stroke="black" cx="1009" cy="-253" rx="59.29" ry="18"/>
<text text-anchor="middle" x="1009" y="-249.3" font-family="Times,serif" font-size="14.00">binsertionsort</text>
</g>
<!-- NASALib/sorting@sorting_seq -->
<g id="node19" class="node">
<title>NASALib/sorting@sorting_seq</title>
<ellipse fill="#e6f3ff" stroke="black" cx="710" cy="-181" rx="51.19" ry="18"/>
<text text-anchor="middle" x="710" y="-177.3" font-family="Times,serif" font-size="14.00">sorting_seq</text>
</g>
<!-- NASALib/sorting@binsertionsort&#45;&gt;NASALib/sorting@sorting_seq -->
<g id="edge1" class="edge">
<title>NASALib/sorting@binsertionsort&#45;&gt;NASALib/sorting@sorting_seq</title>
<path fill="none" stroke="black" d="M962.94,-241.22C908.88,-228.56 819.43,-207.62 762.67,-194.33"/>
<polygon fill="black" stroke="black" points="763.78,-191 753.25,-192.12 762.18,-197.81 763.78,-191"/>
</g>
<!-- NASALib/sorting@total_preorder -->
<g id="node20" class="node">
<title>NASALib/sorting@total_preorder</title>
<ellipse fill="#e6f3ff" stroke="black" cx="407" cy="-34" rx="60.39" ry="18"/>
<text text-anchor="middle" x="407" y="-30.3" font-family="Times,serif" font-size="14.00">total_preorder</text>
</g>
<!-- NASALib/sorting@binsertionsort&#45;&gt;NASALib/sorting@total_preorder -->
<g id="edge2" class="edge">
<title>NASALib/sorting@binsertionsort&#45;&gt;NASALib/sorting@total_preorder</title>
<path fill="none" stroke="black" d="M989.41,-235.52C970.92,-219.96 946,-199 946,-199 946,-199 931,-182 931,-182"/>
</g>
<!-- NASALib/structures -->
<g id="node21" class="node">
<title>NASALib/structures</title>
<polygon fill="#fcfcd7" stroke="black" points="1161.5,-124 1092.5,-124 1092.5,-88 1161.5,-88 1161.5,-124"/>
<text text-anchor="middle" x="1127" y="-102.3" font-family="Times,serif" font-size="14.00">structures</text>
</g>
<!-- NASALib/sorting@binsertionsort&#45;&gt;NASALib/structures -->
<g id="edge3" class="edge">
<title>NASALib/sorting@binsertionsort&#45;&gt;NASALib/structures</title>
<path fill="none" stroke="black" d="M997.14,-235.05C982.64,-214.34 960,-182 960,-182"/>
</g>
<!-- NASALib/sorting@bubblesort -->
<g id="node4" class="node">
<title>NASALib/sorting@bubblesort</title>
<ellipse fill="#e6f3ff" stroke="black" cx="84" cy="-181" rx="48.19" ry="18"/>
<text text-anchor="middle" x="84" y="-177.3" font-family="Times,serif" font-size="14.00">bubblesort</text>
</g>
<!-- NASALib/sorting@sorting -->
<g id="node16" class="node">
<title>NASALib/sorting@sorting</title>
<ellipse fill="#e6f3ff" stroke="black" cx="342" cy="-106" rx="35.19" ry="18"/>
<text text-anchor="middle" x="342" y="-102.3" font-family="Times,serif" font-size="14.00">sorting</text>
</g>
<!-- NASALib/sorting@bubblesort&#45;&gt;NASALib/sorting@sorting -->
<g id="edge4" class="edge">
<title>NASALib/sorting@bubblesort&#45;&gt;NASALib/sorting@sorting</title>
<path fill="none" stroke="black" d="M120.74,-169.04C131.77,-165.75 141,-163 141,-163 141,-163 241.83,-134.91 300.66,-118.52"/>
<polygon fill="black" stroke="black" points="301.32,-121.97 310.01,-115.91 299.44,-115.22 301.32,-121.97"/>
</g>
<!-- NASALib/sorting@bubblesort&#45;&gt;NASALib/sorting@total_preorder -->
<g id="edge5" class="edge">
<title>NASALib/sorting@bubblesort&#45;&gt;NASALib/sorting@total_preorder</title>
<path fill="none" stroke="black" d="M84,-162.7C84,-141.11 84,-107 84,-107"/>
</g>
<!-- NASALib/sorting@firt_phase_ford_johnson -->
<g id="node5" class="node">
<title>NASALib/sorting@firt_phase_ford_johnson</title>
<ellipse fill="#e6f3ff" stroke="black" cx="815" cy="-253" rx="96.68" ry="18"/>
<text text-anchor="middle" x="815" y="-249.3" font-family="Times,serif" font-size="14.00">firt_phase_ford_johnson</text>
</g>
<!-- NASALib/sorting@firt_phase_ford_johnson&#45;&gt;NASALib/reals -->
<g id="edge6" class="edge">
<title>NASALib/sorting@firt_phase_ford_johnson&#45;&gt;NASALib/reals</title>
<path fill="none" stroke="black" d="M867.76,-237.58C966.66,-210.56 1170,-155 1170,-155 1170,-155 1178.12,-144.46 1186.75,-133.26"/>
<polygon fill="black" stroke="black" points="1189.39,-135.58 1192.72,-125.53 1183.84,-131.31 1189.39,-135.58"/>
</g>
<!-- NASALib/sorting@fjnode -->
<g id="node6" class="node">
<title>NASALib/sorting@fjnode</title>
<ellipse fill="#e6f3ff" stroke="black" cx="832" cy="-181" rx="33.29" ry="18"/>
<text text-anchor="middle" x="832" y="-177.3" font-family="Times,serif" font-size="14.00">fjnode</text>
</g>
<!-- NASALib/sorting@firt_phase_ford_johnson&#45;&gt;NASALib/sorting@fjnode -->
<g id="edge7" class="edge">
<title>NASALib/sorting@firt_phase_ford_johnson&#45;&gt;NASALib/sorting@fjnode</title>
<path fill="none" stroke="black" d="M819.2,-234.7C820.99,-227.32 823.13,-218.52 825.14,-210.25"/>
<polygon fill="black" stroke="black" points="828.53,-211.12 827.49,-200.58 821.73,-209.47 828.53,-211.12"/>
</g>
<!-- NASALib/sorting@firt_phase_ford_johnson&#45;&gt;NASALib/sorting@sorting_seq -->
<g id="edge8" class="edge">
<title>NASALib/sorting@firt_phase_ford_johnson&#45;&gt;NASALib/sorting@sorting_seq</title>
<path fill="none" stroke="black" d="M789.85,-235.23C775.72,-225.81 757.91,-213.94 742.7,-203.8"/>
<polygon fill="black" stroke="black" points="744.67,-200.91 734.41,-198.27 740.79,-206.73 744.67,-200.91"/>
</g>
<!-- NASALib/sorting@firt_phase_ford_johnson&#45;&gt;NASALib/sorting@total_preorder -->
<g id="edge9" class="edge">
<title>NASALib/sorting@firt_phase_ford_johnson&#45;&gt;NASALib/sorting@total_preorder</title>
<path fill="none" stroke="black" d="M806.32,-234.84C793.25,-208.98 770,-163 770,-163 770,-163 710,-107 710,-107"/>
</g>
<!-- NASALib/sorting@firt_phase_ford_johnson&#45;&gt;NASALib/structures -->
<g id="edge10" class="edge">
<title>NASALib/sorting@firt_phase_ford_johnson&#45;&gt;NASALib/structures</title>
<path fill="none" stroke="black" d="M851.63,-235.95C887.25,-220.36 936,-199 936,-199 936,-199 960,-182 960,-182"/>
</g>
<!-- NASALib/sorting@ford_johnson -->
<g id="node7" class="node">
<title>NASALib/sorting@ford_johnson</title>
<ellipse fill="#e6f3ff" stroke="black" cx="815" cy="-325" rx="57.69" ry="18"/>
<text text-anchor="middle" x="815" y="-321.3" font-family="Times,serif" font-size="14.00">ford_johnson</text>
</g>
<!-- NASALib/sorting@ford_johnson&#45;&gt;NASALib/sorting@firt_phase_ford_johnson -->
<g id="edge11" class="edge">
<title>NASALib/sorting@ford_johnson&#45;&gt;NASALib/sorting@firt_phase_ford_johnson</title>
<path fill="none" stroke="black" d="M815,-306.7C815,-299.41 815,-290.73 815,-282.54"/>
<polygon fill="black" stroke="black" points="818.5,-282.62 815,-272.62 811.5,-282.62 818.5,-282.62"/>
</g>
<!-- NASALib/sorting@ford_johnson&#45;&gt;NASALib/sorting@sorting_seq -->
<g id="edge12" class="edge">
<title>NASALib/sorting@ford_johnson&#45;&gt;NASALib/sorting@sorting_seq</title>
<path fill="none" stroke="black" d="M785.47,-309.24C754.11,-293.55 709,-271 709,-271 709,-271 709,-235 709,-235 709,-235 709.22,-223.17 709.46,-210.68"/>
<polygon fill="black" stroke="black" points="712.95,-210.93 709.64,-200.87 705.96,-210.8 712.95,-210.93"/>
</g>
<!-- NASALib/sorting@ford_johnson&#45;&gt;NASALib/sorting@total_preorder -->
<g id="edge13" class="edge">
<title>NASALib/sorting@ford_johnson&#45;&gt;NASALib/sorting@total_preorder</title>
<path fill="none" stroke="black" d="M931,-180C931,-180 710,-107 710,-107"/>
<path fill="none" stroke="black" d="M844.53,-309.24C875.89,-293.55 921,-271 921,-271 921,-271 931,-182 931,-182"/>
</g>
<!-- NASALib/sorting@heapsort -->
<g id="node8" class="node">
<title>NASALib/sorting@heapsort</title>
<ellipse fill="#e6f3ff" stroke="black" cx="640" cy="-253" rx="40.09" ry="18"/>
<text text-anchor="middle" x="640" y="-249.3" font-family="Times,serif" font-size="14.00">heapsort</text>
</g>
<!-- NASALib/sorting@heapsort&#45;&gt;NASALib/sorting@sorting_seq -->
<g id="edge14" class="edge">
<title>NASALib/sorting@heapsort&#45;&gt;NASALib/sorting@sorting_seq</title>
<path fill="none" stroke="black" d="M655.88,-236.12C664.71,-227.29 675.87,-216.13 685.76,-206.24"/>
<polygon fill="black" stroke="black" points="688.03,-208.92 692.62,-199.38 683.08,-203.97 688.03,-208.92"/>
</g>
<!-- NASALib/sorting@heapsort&#45;&gt;NASALib/sorting@total_preorder -->
<g id="edge15" class="edge">
<title>NASALib/sorting@heapsort&#45;&gt;NASALib/sorting@total_preorder</title>
<path fill="none" stroke="black" d="M640,-234.7C640,-213.97 640,-182 640,-182"/>
</g>
<!-- NASALib/sorting@heapsort&#45;&gt;NASALib/structures -->
<g id="edge16" class="edge">
<title>NASALib/sorting@heapsort&#45;&gt;NASALib/structures</title>
<path fill="none" stroke="black" d="M674.5,-243.5C691.75,-239.25 709,-235 709,-235 709,-235 936,-199 936,-199 936,-199 960,-182 960,-182"/>
</g>
<!-- NASALib/sorting@insertionsort -->
<g id="node9" class="node">
<title>NASALib/sorting@insertionsort</title>
<ellipse fill="#e6f3ff" stroke="black" cx="566" cy="-181" rx="54.69" ry="18"/>
<text text-anchor="middle" x="566" y="-177.3" font-family="Times,serif" font-size="14.00">insertionsort</text>
</g>
<!-- NASALib/sorting@insertionsort&#45;&gt;NASALib/sorting@sorting -->
<g id="edge17" class="edge">
<title>NASALib/sorting@insertionsort&#45;&gt;NASALib/sorting@sorting</title>
<path fill="none" stroke="black" d="M528,-167.62C487.41,-154.39 423.35,-133.51 382.01,-120.04"/>
<polygon fill="black" stroke="black" points="383.27,-116.77 372.68,-117 381.11,-123.43 383.27,-116.77"/>
</g>
<!-- NASALib/sorting@insertionsort&#45;&gt;NASALib/sorting@total_preorder -->
<g id="edge18" class="edge">
<title>NASALib/sorting@insertionsort&#45;&gt;NASALib/sorting@total_preorder</title>
<path fill="none" stroke="black" d="M594.79,-165.4C636.82,-144.1 710,-107 710,-107"/>
</g>
<!-- NASALib/sorting@insertionsort_fs -->
<g id="node10" class="node">
<title>NASALib/sorting@insertionsort_fs</title>
<ellipse fill="#e6f3ff" stroke="black" cx="516" cy="-253" rx="65.79" ry="18"/>
<text text-anchor="middle" x="516" y="-249.3" font-family="Times,serif" font-size="14.00">insertionsort_fs</text>
</g>
<!-- NASALib/sorting@insertionsort_fs&#45;&gt;NASALib/sorting@sorting_seq -->
<g id="edge19" class="edge">
<title>NASALib/sorting@insertionsort_fs&#45;&gt;NASALib/sorting@sorting_seq</title>
<path fill="none" stroke="black" d="M554.79,-238C586.38,-226.6 631.05,-210.49 664.36,-198.47"/>
<polygon fill="black" stroke="black" points="665.54,-201.76 673.76,-195.08 663.16,-195.18 665.54,-201.76"/>
</g>
<!-- NASALib/sorting@insertionsort_fs&#45;&gt;NASALib/sorting@total_preorder -->
<g id="edge20" class="edge">
<title>NASALib/sorting@insertionsort_fs&#45;&gt;NASALib/sorting@total_preorder</title>
<path fill="none" stroke="black" d="M548.36,-236.95C582.07,-221.28 630,-199 630,-199 630,-199 640,-182 640,-182"/>
</g>
<!-- NASALib/sorting@maxsort -->
<g id="node11" class="node">
<title>NASALib/sorting@maxsort</title>
<ellipse fill="#e6f3ff" stroke="black" cx="393" cy="-253" rx="39.79" ry="18"/>
<text text-anchor="middle" x="393" y="-249.3" font-family="Times,serif" font-size="14.00">maxsort</text>
</g>
<!-- NASALib/sorting@maxsort&#45;&gt;NASALib/sorting@sorting_seq -->
<g id="edge21" class="edge">
<title>NASALib/sorting@maxsort&#45;&gt;NASALib/sorting@sorting_seq</title>
<path fill="none" stroke="black" d="M423.67,-241.14C433.08,-237.81 441,-235 441,-235 441,-235 645,-199 645,-199 645,-199 650.85,-197.47 659.03,-195.33"/>
<polygon fill="black" stroke="black" points="659.69,-198.78 668.48,-192.86 657.92,-192 659.69,-198.78"/>
</g>
<!-- NASALib/sorting@maxsort&#45;&gt;NASALib/sorting@total_preorder -->
<g id="edge22" class="edge">
<title>NASALib/sorting@maxsort&#45;&gt;NASALib/sorting@total_preorder</title>
<path fill="none" stroke="black" d="M423.67,-241.14C433.08,-237.81 441,-235 441,-235 441,-235 630,-199 630,-199 630,-199 640,-182 640,-182"/>
<path fill="none" stroke="black" d="M640,-180C640,-180 650,-163 650,-163 650,-163 710,-107 710,-107"/>
</g>
<!-- NASALib/sorting@maxsort&#45;&gt;NASALib/structures -->
<g id="edge23" class="edge">
<title>NASALib/sorting@maxsort&#45;&gt;NASALib/structures</title>
<path fill="none" stroke="black" d="M960,-180C960,-180 1010,-163 1010,-163 1010,-163 1080,-155 1080,-155 1080,-155 1090.94,-143.83 1102.26,-132.27"/>
<polygon fill="black" stroke="black" points="1104.48,-135 1108.97,-125.41 1099.48,-130.11 1104.48,-135"/>
<path fill="none" stroke="black" d="M423.67,-241.14C433.08,-237.81 441,-235 441,-235 441,-235 936,-199 936,-199 936,-199 960,-182 960,-182"/>
</g>
<!-- NASALib/sorting@mergesort -->
<g id="node12" class="node">
<title>NASALib/sorting@mergesort</title>
<ellipse fill="#e6f3ff" stroke="black" cx="342" cy="-181" rx="46.29" ry="18"/>
<text text-anchor="middle" x="342" y="-177.3" font-family="Times,serif" font-size="14.00">mergesort</text>
</g>
<!-- NASALib/sorting@mergesort&#45;&gt;NASALib/sorting@sorting -->
<g id="edge24" class="edge">
<title>NASALib/sorting@mergesort&#45;&gt;NASALib/sorting@sorting</title>
<path fill="none" stroke="black" d="M342,-162.7C342,-154.67 342,-144.9 342,-135.8"/>
<polygon fill="black" stroke="black" points="345.5,-135.94 342,-125.94 338.5,-135.94 345.5,-135.94"/>
</g>
<!-- NASALib/sorting@mergesort&#45;&gt;NASALib/sorting@total_preorder -->
<g id="edge25" class="edge">
<title>NASALib/sorting@mergesort&#45;&gt;NASALib/sorting@total_preorder</title>
<path fill="none" stroke="black" d="M377.45,-169.04C388.1,-165.75 397,-163 397,-163 397,-163 710,-107 710,-107"/>
<path fill="none" stroke="black" d="M710,-105C710,-105 552.76,-68.67 464.82,-48.36"/>
<polygon fill="black" stroke="black" points="465.69,-44.97 455.15,-46.12 464.11,-51.79 465.69,-44.97"/>
</g>
<!-- NASALib/sorting@quicksort -->
<g id="node13" class="node">
<title>NASALib/sorting@quicksort</title>
<ellipse fill="#e6f3ff" stroke="black" cx="450" cy="-181" rx="43.59" ry="18"/>
<text text-anchor="middle" x="450" y="-177.3" font-family="Times,serif" font-size="14.00">quicksort</text>
</g>
<!-- NASALib/sorting@quicksort&#45;&gt;NASALib/sorting@sorting -->
<g id="edge26" class="edge">
<title>NASALib/sorting@quicksort&#45;&gt;NASALib/sorting@sorting</title>
<path fill="none" stroke="black" d="M427.88,-165.05C411.74,-154.14 389.68,-139.23 371.96,-127.25"/>
<polygon fill="black" stroke="black" points="374.12,-124.49 363.88,-121.79 370.2,-130.29 374.12,-124.49"/>
</g>
<!-- NASALib/sorting@quicksort&#45;&gt;NASALib/sorting@total_preorder -->
<g id="edge27" class="edge">
<title>NASALib/sorting@quicksort&#45;&gt;NASALib/sorting@total_preorder</title>
<path fill="none" stroke="black" d="M483.52,-169.04C493.58,-165.75 502,-163 502,-163 502,-163 710,-107 710,-107"/>
</g>
<!-- NASALib/sorting@radix_sort -->
<g id="node14" class="node">
<title>NASALib/sorting@radix_sort</title>
<ellipse fill="#e6f3ff" stroke="black" cx="82" cy="-253" rx="46.29" ry="18"/>
<text text-anchor="middle" x="82" y="-249.3" font-family="Times,serif" font-size="14.00">radix_sort</text>
</g>
<!-- NASALib/sorting@radix_sort&#45;&gt;NASALib/sorting@mergesort -->
<g id="edge28" class="edge">
<title>NASALib/sorting@radix_sort&#45;&gt;NASALib/sorting@mergesort</title>
<path fill="none" stroke="black" d="M119.62,-242.03C177.55,-226.68 282,-199 282,-199 282,-199 287.14,-197.54 294.41,-195.48"/>
<polygon fill="black" stroke="black" points="295.25,-198.88 303.91,-192.79 293.34,-192.15 295.25,-198.88"/>
</g>
<!-- NASALib/sorting@radix_sort&#45;&gt;NASALib/sorting@sorting -->
<g id="edge29" class="edge">
<title>NASALib/sorting@radix_sort&#45;&gt;NASALib/sorting@sorting</title>
<path fill="none" stroke="black" d="M118.55,-241.53C172.46,-226.08 267,-199 267,-199 267,-199 287,-163 287,-163 287,-163 303.66,-146.03 318.65,-130.78"/>
<polygon fill="black" stroke="black" points="321.11,-133.27 325.62,-123.68 316.11,-128.36 321.11,-133.27"/>
</g>
<!-- NASALib/sorting@radix_sort&#45;&gt;NASALib/sorting@total_preorder -->
<g id="edge30" class="edge">
<title>NASALib/sorting@radix_sort&#45;&gt;NASALib/sorting@total_preorder</title>
<path fill="none" stroke="black" d="M65.2,-235.81C49.02,-220.22 27,-199 27,-199 27,-199 17,-182 17,-182"/>
</g>
<!-- NASALib/sorting@radix_sort_nat -->
<g id="node15" class="node">
<title>NASALib/sorting@radix_sort_nat</title>
<ellipse fill="#e6f3ff" stroke="black" cx="82" cy="-325" rx="61.99" ry="18"/>
<text text-anchor="middle" x="82" y="-321.3" font-family="Times,serif" font-size="14.00">radix_sort_nat</text>
</g>
<!-- NASALib/sorting@radix_sort_nat&#45;&gt;NASALib/ints -->
<g id="edge31" class="edge">
<title>NASALib/sorting@radix_sort_nat&#45;&gt;NASALib/ints</title>
<path fill="none" stroke="black" d="M142.74,-320.76C358.77,-309.26 1077,-271 1077,-271 1077,-271 1243,-155 1243,-155 1243,-155 1250.9,-144.46 1259.3,-133.26"/>
<polygon fill="black" stroke="black" points="1261.9,-135.64 1265.1,-125.54 1256.3,-131.44 1261.9,-135.64"/>
</g>
<!-- NASALib/sorting@radix_sort_nat&#45;&gt;NASALib/sorting@radix_sort -->
<g id="edge32" class="edge">
<title>NASALib/sorting@radix_sort_nat&#45;&gt;NASALib/sorting@radix_sort</title>
<path fill="none" stroke="black" d="M82,-306.7C82,-299.41 82,-290.73 82,-282.54"/>
<polygon fill="black" stroke="black" points="85.5,-282.62 82,-272.62 78.5,-282.62 85.5,-282.62"/>
</g>
<!-- NASALib/sorting@radix_sort_nat&#45;&gt;NASALib/sorting@total_preorder -->
<g id="edge33" class="edge">
<title>NASALib/sorting@radix_sort_nat&#45;&gt;NASALib/sorting@total_preorder</title>
<path fill="none" stroke="black" d="M17,-180C17,-180 27,-163 27,-163 27,-163 84,-107 84,-107"/>
<path fill="none" stroke="black" d="M84,-105C84,-105 338,-52 338,-52 338,-52 342.98,-50.77 350.26,-48.98"/>
<polygon fill="black" stroke="black" points="351.02,-52.4 359.89,-46.61 349.34,-45.6 351.02,-52.4"/>
<path fill="none" stroke="black" d="M64.9,-307.52C48.75,-291.96 27,-271 27,-271 27,-271 17,-182 17,-182"/>
</g>
<!-- NASALib/sorting@sorting_aux -->
<g id="node17" class="node">
<title>NASALib/sorting@sorting_aux</title>
<ellipse fill="#e6f3ff" stroke="black" cx="277" cy="-34" rx="51.99" ry="18"/>
<text text-anchor="middle" x="277" y="-30.3" font-family="Times,serif" font-size="14.00">sorting_aux</text>
</g>
<!-- NASALib/sorting@sorting&#45;&gt;NASALib/sorting@sorting_aux -->
<g id="edge34" class="edge">
<title>NASALib/sorting@sorting&#45;&gt;NASALib/sorting@sorting_aux</title>
<path fill="none" stroke="black" d="M327.57,-89.46C319.47,-80.74 309.18,-69.65 299.99,-59.76"/>
<polygon fill="black" stroke="black" points="302.69,-57.52 293.32,-52.58 297.56,-62.29 302.69,-57.52"/>
</g>
<!-- NASALib/sorting@sorting&#45;&gt;NASALib/sorting@total_preorder -->
<g id="edge35" class="edge">
<title>NASALib/sorting@sorting&#45;&gt;NASALib/sorting@total_preorder</title>
<path fill="none" stroke="black" d="M356.43,-89.46C364.53,-80.74 374.82,-69.65 384.01,-59.76"/>
<polygon fill="black" stroke="black" points="386.44,-62.29 390.68,-52.58 381.31,-57.52 386.44,-62.29"/>
</g>
<!-- NASALib/sorting@sorting_min -->
<g id="node18" class="node">
<title>NASALib/sorting@sorting_min</title>
<ellipse fill="#e6f3ff" stroke="black" cx="204" cy="-181" rx="53.89" ry="18"/>
<text text-anchor="middle" x="204" y="-177.3" font-family="Times,serif" font-size="14.00">sorting_min</text>
</g>
<!-- NASALib/sorting@sorting_min&#45;&gt;NASALib/sorting@sorting -->
<g id="edge36" class="edge">
<title>NASALib/sorting@sorting_min&#45;&gt;NASALib/sorting@sorting</title>
<path fill="none" stroke="black" d="M231.93,-165.23C254.02,-153.54 284.94,-137.18 308.39,-124.78"/>
<polygon fill="black" stroke="black" points="309.71,-128.04 316.91,-120.27 306.44,-121.85 309.71,-128.04"/>
</g>
<!-- NASALib/sorting@sorting_min&#45;&gt;NASALib/sorting@total_preorder -->
<g id="edge37" class="edge">
<title>NASALib/sorting@sorting_min&#45;&gt;NASALib/sorting@total_preorder</title>
<path fill="none" stroke="black" d="M178.84,-164.7C143.66,-143.29 84,-107 84,-107"/>
</g>
<!-- NASALib/sorting@sorting_seq&#45;&gt;NASALib/sorting@sorting -->
<g id="edge38" class="edge">
<title>NASALib/sorting@sorting_seq&#45;&gt;NASALib/sorting@sorting</title>
<path fill="none" stroke="black" d="M667.19,-170.9C648.17,-166.86 630,-163 630,-163 630,-163 466.29,-131.17 385.73,-115.5"/>
<polygon fill="black" stroke="black" points="386.45,-112.08 375.96,-113.6 385.11,-118.95 386.45,-112.08"/>
</g>
<!-- NASALib/sorting@sorting_seq&#45;&gt;NASALib/sorting@total_preorder -->
<g id="edge39" class="edge">
<title>NASALib/sorting@sorting_seq&#45;&gt;NASALib/sorting@total_preorder</title>
<path fill="none" stroke="black" d="M710,-162.7C710,-141.11 710,-107 710,-107"/>
</g>
<!-- NASALib/sorting@sorting_seq&#45;&gt;NASALib/structures -->
<g id="edge40" class="edge">
<title>NASALib/sorting@sorting_seq&#45;&gt;NASALib/structures</title>
<path fill="none" stroke="black" d="M752.81,-170.9C771.83,-166.86 790,-163 790,-163 790,-163 1080,-155 1080,-155 1080,-155 1090.94,-143.83 1102.26,-132.27"/>
<polygon fill="black" stroke="black" points="1104.48,-135 1108.97,-125.41 1099.48,-130.11 1104.48,-135"/>
</g>
</g>
</svg>
