<?xml version="1.0" encoding="UTF-8" standalone="no"?>
<!DOCTYPE svg PUBLIC "-//W3C//DTD SVG 1.1//EN"
 "http://www.w3.org/Graphics/SVG/1.1/DTD/svg11.dtd">
<!-- Generated by graphviz version 2.40.1 (20161225.0304)
 -->
<!-- Title: sorting Pages: 1 -->
<svg width="134pt" height="396pt"
 viewBox="0.00 0.00 134.00 396.00" xmlns="http://www.w3.org/2000/svg" xmlns:xlink="http://www.w3.org/1999/xlink">
<g id="graph0" class="graph" transform="scale(1 1) rotate(0) translate(4 392)">
<title>sorting</title>
<polygon fill="#ffffff" stroke="transparent" points="-4,4 -4,-392 130,-392 130,4 -4,4"/>
<g id="clust1" class="cluster">
<title>cluster_NASALib</title>
<polygon fill="none" stroke="#000000" points="8,-90 8,-380 118,-380 118,-90 8,-90"/>
<text text-anchor="middle" x="63" y="-364.8" font-family="Times,serif" font-size="14.00" fill="#000000">NASALib</text>
</g>
<g id="clust2" class="cluster">
<title>cluster_PVS Prelude</title>
<polygon fill="none" stroke="#000000" points="28,-8 28,-82 116,-82 116,-8 28,-8"/>
<text text-anchor="middle" x="72" y="-66.8" font-family="Times,serif" font-size="14.00" fill="#000000">PVS Prelude</text>
</g>
<!-- /Users/mmoscato/Workspace/Workbench/pvs/dependency&#45;all/Users/mmoscato/pvs/pvs/lib/finite_sets -->
<g id="node1" class="node">
<title>/Users/mmoscato/Workspace/Workbench/pvs/dependency&#45;all/Users/mmoscato/pvs/pvs/lib/finite_sets</title>
<polygon fill="#fcfcd7" stroke="#000000" points="108.2796,-52 35.7204,-52 35.7204,-16 108.2796,-16 108.2796,-52"/>
<text text-anchor="middle" x="72" y="-29.8" font-family="Times,serif" font-size="14.00" fill="#000000">finite_sets</text>
</g>
<!-- /Users/mmoscato/Workspace/Workbench/pvs/dependency&#45;all/Users/mmoscato/pvs/pvs/nasalib/ints -->
<g id="node2" class="node">
<title>/Users/mmoscato/Workspace/Workbench/pvs/dependency&#45;all/Users/mmoscato/pvs/pvs/nasalib/ints</title>
<polygon fill="#fcfcd7" stroke="#000000" points="98,-134 44,-134 44,-98 98,-98 98,-134"/>
<text text-anchor="middle" x="71" y="-111.8" font-family="Times,serif" font-size="14.00" fill="#000000">ints</text>
</g>
<!-- /Users/mmoscato/Workspace/Workbench/pvs/dependency&#45;all/Users/mmoscato/pvs/pvs/nasalib/ints&#45;&gt;/Users/mmoscato/Workspace/Workbench/pvs/dependency&#45;all/Users/mmoscato/pvs/pvs/lib/finite_sets -->
<g id="edge1" class="edge">
<title>/Users/mmoscato/Workspace/Workbench/pvs/dependency&#45;all/Users/mmoscato/pvs/pvs/nasalib/ints&#45;&gt;/Users/mmoscato/Workspace/Workbench/pvs/dependency&#45;all/Users/mmoscato/pvs/pvs/lib/finite_sets</title>
<path fill="none" stroke="#000000" d="M71,-97.8015C71,-97.8015 71,-62.1476 71,-62.1476"/>
<polygon fill="#000000" stroke="#000000" points="74.5001,-62.1476 71,-52.1476 67.5001,-62.1476 74.5001,-62.1476"/>
</g>
<!-- /Users/mmoscato/Workspace/Workbench/pvs/dependency&#45;all/Users/mmoscato/pvs/pvs/nasalib/reals -->
<g id="node3" class="node">
<title>/Users/mmoscato/Workspace/Workbench/pvs/dependency&#45;all/Users/mmoscato/pvs/pvs/nasalib/reals</title>
<polygon fill="#fcfcd7" stroke="#000000" points="90,-278 36,-278 36,-242 90,-242 90,-278"/>
<text text-anchor="middle" x="63" y="-255.8" font-family="Times,serif" font-size="14.00" fill="#000000">reals</text>
</g>
<!-- /Users/mmoscato/Workspace/Workbench/pvs/dependency&#45;all/Users/mmoscato/pvs/pvs/nasalib/reals&#45;&gt;/Users/mmoscato/Workspace/Workbench/pvs/dependency&#45;all/Users/mmoscato/pvs/pvs/nasalib/ints -->
<g id="edge2" class="edge">
<title>/Users/mmoscato/Workspace/Workbench/pvs/dependency&#45;all/Users/mmoscato/pvs/pvs/nasalib/reals&#45;&gt;/Users/mmoscato/Workspace/Workbench/pvs/dependency&#45;all/Users/mmoscato/pvs/pvs/nasalib/ints</title>
<path fill="none" stroke="#000000" d="M35.7517,-260C30.479,-260 26.5552,-260 26.5552,-260 26.5552,-260 26.5552,-122 26.5552,-122 26.5552,-122 33.866,-122 33.866,-122"/>
<polygon fill="#000000" stroke="#000000" points="33.866,-125.5001 43.866,-122 33.8659,-118.5001 33.866,-125.5001"/>
</g>
<!-- /Users/mmoscato/Workspace/Workbench/pvs/dependency&#45;all/Users/mmoscato/pvs/pvs/nasalib/structures -->
<g id="node5" class="node">
<title>/Users/mmoscato/Workspace/Workbench/pvs/dependency&#45;all/Users/mmoscato/pvs/pvs/nasalib/structures</title>
<polygon fill="#fcfcd7" stroke="#000000" points="106.429,-206 35.571,-206 35.571,-170 106.429,-170 106.429,-206"/>
<text text-anchor="middle" x="71" y="-183.8" font-family="Times,serif" font-size="14.00" fill="#000000">structures</text>
</g>
<!-- /Users/mmoscato/Workspace/Workbench/pvs/dependency&#45;all/Users/mmoscato/pvs/pvs/nasalib/reals&#45;&gt;/Users/mmoscato/Workspace/Workbench/pvs/dependency&#45;all/Users/mmoscato/pvs/pvs/nasalib/structures -->
<g id="edge3" class="edge">
<title>/Users/mmoscato/Workspace/Workbench/pvs/dependency&#45;all/Users/mmoscato/pvs/pvs/nasalib/reals&#45;&gt;/Users/mmoscato/Workspace/Workbench/pvs/dependency&#45;all/Users/mmoscato/pvs/pvs/nasalib/structures</title>
<path fill="none" stroke="#000000" d="M63,-241.8314C63,-241.8314 63,-216.4133 63,-216.4133"/>
<polygon fill="#000000" stroke="#000000" points="66.5001,-216.4132 63,-206.4133 59.5001,-216.4133 66.5001,-216.4132"/>
</g>
<!-- /Users/mmoscato/Workspace/Workbench/pvs/dependency&#45;all/Users/mmoscato/pvs/pvs/nasalib/sorting -->
<g id="node4" class="node">
<title>/Users/mmoscato/Workspace/Workbench/pvs/dependency&#45;all/Users/mmoscato/pvs/pvs/nasalib/sorting</title>
<polygon fill="#f7e28d" stroke="#000000" points="90.3898,-350 35.6102,-350 35.6102,-314 90.3898,-314 90.3898,-350"/>
<text text-anchor="middle" x="63" y="-327.8" font-family="Times,serif" font-size="14.00" fill="#000000">sorting</text>
</g>
<!-- /Users/mmoscato/Workspace/Workbench/pvs/dependency&#45;all/Users/mmoscato/pvs/pvs/nasalib/sorting&#45;&gt;/Users/mmoscato/Workspace/Workbench/pvs/dependency&#45;all/Users/mmoscato/pvs/pvs/lib/finite_sets -->
<g id="edge4" class="edge">
<title>/Users/mmoscato/Workspace/Workbench/pvs/dependency&#45;all/Users/mmoscato/pvs/pvs/nasalib/sorting&#45;&gt;/Users/mmoscato/Workspace/Workbench/pvs/dependency&#45;all/Users/mmoscato/pvs/pvs/lib/finite_sets</title>
<path fill="none" stroke="#000000" d="M35.4586,-338C21.9545,-338 8.5552,-338 8.5552,-338 8.5552,-338 8.5552,-34 8.5552,-34 8.5552,-34 25.4615,-34 25.4615,-34"/>
<polygon fill="#000000" stroke="#000000" points="25.4615,-37.5001 35.4615,-34 25.4615,-30.5001 25.4615,-37.5001"/>
</g>
<!-- /Users/mmoscato/Workspace/Workbench/pvs/dependency&#45;all/Users/mmoscato/pvs/pvs/nasalib/sorting&#45;&gt;/Users/mmoscato/Workspace/Workbench/pvs/dependency&#45;all/Users/mmoscato/pvs/pvs/nasalib/ints -->
<g id="edge5" class="edge">
<title>/Users/mmoscato/Workspace/Workbench/pvs/dependency&#45;all/Users/mmoscato/pvs/pvs/nasalib/sorting&#45;&gt;/Users/mmoscato/Workspace/Workbench/pvs/dependency&#45;all/Users/mmoscato/pvs/pvs/nasalib/ints</title>
<path fill="none" stroke="#000000" d="M35.5162,-326C25.9457,-326 17.5552,-326 17.5552,-326 17.5552,-326 17.5552,-110 17.5552,-110 17.5552,-110 33.9644,-110 33.9644,-110"/>
<polygon fill="#000000" stroke="#000000" points="33.9645,-113.5001 43.9644,-110 33.9644,-106.5001 33.9645,-113.5001"/>
</g>
<!-- /Users/mmoscato/Workspace/Workbench/pvs/dependency&#45;all/Users/mmoscato/pvs/pvs/nasalib/sorting&#45;&gt;/Users/mmoscato/Workspace/Workbench/pvs/dependency&#45;all/Users/mmoscato/pvs/pvs/nasalib/reals -->
<g id="edge6" class="edge">
<title>/Users/mmoscato/Workspace/Workbench/pvs/dependency&#45;all/Users/mmoscato/pvs/pvs/nasalib/sorting&#45;&gt;/Users/mmoscato/Workspace/Workbench/pvs/dependency&#45;all/Users/mmoscato/pvs/pvs/nasalib/reals</title>
<path fill="none" stroke="#000000" d="M63,-313.8314C63,-313.8314 63,-288.4133 63,-288.4133"/>
<polygon fill="#000000" stroke="#000000" points="66.5001,-288.4132 63,-278.4133 59.5001,-288.4133 66.5001,-288.4132"/>
</g>
<!-- /Users/mmoscato/Workspace/Workbench/pvs/dependency&#45;all/Users/mmoscato/pvs/pvs/nasalib/sorting&#45;&gt;/Users/mmoscato/Workspace/Workbench/pvs/dependency&#45;all/Users/mmoscato/pvs/pvs/nasalib/structures -->
<g id="edge7" class="edge">
<title>/Users/mmoscato/Workspace/Workbench/pvs/dependency&#45;all/Users/mmoscato/pvs/pvs/nasalib/sorting&#45;&gt;/Users/mmoscato/Workspace/Workbench/pvs/dependency&#45;all/Users/mmoscato/pvs/pvs/nasalib/structures</title>
<path fill="none" stroke="#000000" d="M90.4886,-332C95.0496,-332 98.3293,-332 98.3293,-332 98.3293,-332 98.3293,-216.2377 98.3293,-216.2377"/>
<polygon fill="#000000" stroke="#000000" points="101.8294,-216.2377 98.3293,-206.2377 94.8294,-216.2377 101.8294,-216.2377"/>
</g>
<!-- /Users/mmoscato/Workspace/Workbench/pvs/dependency&#45;all/Users/mmoscato/pvs/pvs/nasalib/structures&#45;&gt;/Users/mmoscato/Workspace/Workbench/pvs/dependency&#45;all/Users/mmoscato/pvs/pvs/lib/finite_sets -->
<g id="edge8" class="edge">
<title>/Users/mmoscato/Workspace/Workbench/pvs/dependency&#45;all/Users/mmoscato/pvs/pvs/nasalib/structures&#45;&gt;/Users/mmoscato/Workspace/Workbench/pvs/dependency&#45;all/Users/mmoscato/pvs/pvs/lib/finite_sets</title>
<path fill="none" stroke="#000000" d="M39.8931,-169.7294C39.8931,-169.7294 39.8931,-62.2468 39.8931,-62.2468"/>
<polygon fill="#000000" stroke="#000000" points="43.3932,-62.2468 39.8931,-52.2468 36.3932,-62.2468 43.3932,-62.2468"/>
</g>
<!-- /Users/mmoscato/Workspace/Workbench/pvs/dependency&#45;all/Users/mmoscato/pvs/pvs/nasalib/structures&#45;&gt;/Users/mmoscato/Workspace/Workbench/pvs/dependency&#45;all/Users/mmoscato/pvs/pvs/nasalib/ints -->
<g id="edge9" class="edge">
<title>/Users/mmoscato/Workspace/Workbench/pvs/dependency&#45;all/Users/mmoscato/pvs/pvs/nasalib/structures&#45;&gt;/Users/mmoscato/Workspace/Workbench/pvs/dependency&#45;all/Users/mmoscato/pvs/pvs/nasalib/ints</title>
<path fill="none" stroke="#000000" d="M71,-169.8314C71,-169.8314 71,-144.4133 71,-144.4133"/>
<polygon fill="#000000" stroke="#000000" points="74.5001,-144.4132 71,-134.4133 67.5001,-144.4133 74.5001,-144.4132"/>
</g>
</g>
</svg>
