<?xml version="1.0" encoding="UTF-8" standalone="no"?>
<!DOCTYPE svg PUBLIC "-//W3C//DTD SVG 1.1//EN"
 "http://www.w3.org/Graphics/SVG/1.1/DTD/svg11.dtd">
<!-- Generated by graphviz version 8.0.4 (20230421.1958)
 -->
<!-- Title: sorting Pages: 1 -->
<svg width="134pt" height="473pt"
 viewBox="0.00 0.00 134.00 473.00" xmlns="http://www.w3.org/2000/svg" xmlns:xlink="http://www.w3.org/1999/xlink">
<g id="graph0" class="graph" transform="scale(1 1) rotate(0) translate(4 469)">
<title>sorting</title>
<polygon fill="white" stroke="none" points="-4,4 -4,-469 130,-469 130,4 -4,4"/>
<g id="clust1" class="cluster">
<title>cluster_NASALib</title>
<polygon fill="none" stroke="black" points="8,-92.5 8,-457 118,-457 118,-92.5 8,-92.5"/>
<text text-anchor="middle" x="63" y="-439.7" font-family="Times,serif" font-size="14.00">NASALib</text>
</g>
<g id="clust2" class="cluster">
<title>cluster_PVS Prelude</title>
<polygon fill="none" stroke="black" points="17,-8 17,-84.5 105,-84.5 105,-8 17,-8"/>
<text text-anchor="middle" x="61" y="-67.2" font-family="Times,serif" font-size="14.00">PVS Prelude</text>
</g>
<!-- NASALib/ints -->
<g id="node1" class="node">
<title>NASALib/ints</title>
<polygon fill="#fcfcd7" stroke="black" points="70,-136.5 16,-136.5 16,-100.5 70,-100.5 70,-136.5"/>
<text text-anchor="middle" x="43" y="-113.45" font-family="Times,serif" font-size="14.00">ints</text>
</g>
<!-- lib/finite_sets -->
<g id="node6" class="node">
<title>lib/finite_sets</title>
<polygon fill="#fcfcd7" stroke="black" points="96.75,-52 25.25,-52 25.25,-16 96.75,-16 96.75,-52"/>
<text text-anchor="middle" x="61" y="-28.95" font-family="Times,serif" font-size="14.00">finite_sets</text>
</g>
<!-- NASALib/ints&#45;&gt;lib/finite_sets -->
<g id="edge1" class="edge">
<title>NASALib/ints&#45;&gt;lib/finite_sets</title>
<path fill="none" stroke="black" d="M46.82,-100C49.16,-89.28 52.2,-75.32 54.87,-63.08"/>
<polygon fill="black" stroke="black" points="58.48,-63.99 57.19,-53.47 51.64,-62.49 58.48,-63.99"/>
</g>
<!-- NASALib/mult_poly -->
<g id="node2" class="node">
<title>NASALib/mult_poly</title>
<polygon fill="#fcfcd7" stroke="black" points="99.12,-424.5 26.88,-424.5 26.88,-388.5 99.12,-388.5 99.12,-424.5"/>
<text text-anchor="middle" x="63" y="-401.45" font-family="Times,serif" font-size="14.00">mult_poly</text>
</g>
<!-- NASALib/reals -->
<g id="node3" class="node">
<title>NASALib/reals</title>
<polygon fill="#fcfcd7" stroke="black" points="90,-280.5 36,-280.5 36,-244.5 90,-244.5 90,-280.5"/>
<text text-anchor="middle" x="63" y="-257.45" font-family="Times,serif" font-size="14.00">reals</text>
</g>
<!-- NASALib/mult_poly&#45;&gt;NASALib/reals -->
<g id="edge2" class="edge">
<title>NASALib/mult_poly&#45;&gt;NASALib/reals</title>
<path fill="none" stroke="black" d="M51.21,-388.15C40.71,-372.69 27,-352.5 27,-352.5 27,-352.5 27,-316.5 27,-316.5 27,-316.5 36.05,-303.17 45.08,-289.88"/>
<polygon fill="black" stroke="black" points="48.49,-292.09 51.21,-281.85 42.7,-288.16 48.49,-292.09"/>
</g>
<!-- NASALib/sorting -->
<g id="node4" class="node">
<title>NASALib/sorting</title>
<polygon fill="#f7e28d" stroke="black" points="90,-352.5 36,-352.5 36,-316.5 90,-316.5 90,-352.5"/>
<text text-anchor="middle" x="63" y="-329.45" font-family="Times,serif" font-size="14.00">sorting</text>
</g>
<!-- NASALib/mult_poly&#45;&gt;NASALib/sorting -->
<g id="edge3" class="edge">
<title>NASALib/mult_poly&#45;&gt;NASALib/sorting</title>
<path fill="none" stroke="black" d="M63,-388.2C63,-380.74 63,-371.82 63,-363.47"/>
<polygon fill="black" stroke="black" points="66.5,-363.6 63,-353.6 59.5,-363.6 66.5,-363.6"/>
</g>
<!-- NASALib/structures -->
<g id="node5" class="node">
<title>NASALib/structures</title>
<polygon fill="#fcfcd7" stroke="black" points="104.25,-208.5 35.75,-208.5 35.75,-172.5 104.25,-172.5 104.25,-208.5"/>
<text text-anchor="middle" x="70" y="-185.45" font-family="Times,serif" font-size="14.00">structures</text>
</g>
<!-- NASALib/mult_poly&#45;&gt;NASALib/structures -->
<g id="edge4" class="edge">
<title>NASALib/mult_poly&#45;&gt;NASALib/structures</title>
<path fill="none" stroke="black" d="M74.79,-388.15C85.29,-372.69 99,-352.5 99,-352.5 99,-352.5 109,-263.5 109,-263.5"/>
</g>
<!-- NASALib/reals&#45;&gt;NASALib/ints -->
<g id="edge5" class="edge">
<title>NASALib/reals&#45;&gt;NASALib/ints</title>
<path fill="none" stroke="black" d="M51.21,-244.15C40.71,-228.69 27,-208.5 27,-208.5 27,-208.5 17,-191.5 17,-191.5"/>
</g>
<!-- NASALib/reals&#45;&gt;NASALib/structures -->
<g id="edge6" class="edge">
<title>NASALib/reals&#45;&gt;NASALib/structures</title>
<path fill="none" stroke="black" d="M64.73,-244.2C65.48,-236.74 66.37,-227.82 67.2,-219.47"/>
<polygon fill="black" stroke="black" points="70.78,-219.9 68.29,-209.6 63.81,-219.21 70.78,-219.9"/>
</g>
<!-- NASALib/sorting&#45;&gt;NASALib/ints -->
<g id="edge7" class="edge">
<title>NASALib/sorting&#45;&gt;NASALib/ints</title>
<path fill="none" stroke="black" d="M17,-189.5C17,-189.5 25.53,-166.53 32.82,-146.91"/>
<polygon fill="black" stroke="black" points="36.37,-148.4 36.57,-137.8 29.81,-145.96 36.37,-148.4"/>
<path fill="none" stroke="black" d="M51.21,-316.15C40.71,-300.69 27,-280.5 27,-280.5 27,-280.5 17,-191.5 17,-191.5"/>
</g>
<!-- NASALib/sorting&#45;&gt;NASALib/reals -->
<g id="edge8" class="edge">
<title>NASALib/sorting&#45;&gt;NASALib/reals</title>
<path fill="none" stroke="black" d="M63,-316.2C63,-308.74 63,-299.82 63,-291.47"/>
<polygon fill="black" stroke="black" points="66.5,-291.6 63,-281.6 59.5,-291.6 66.5,-291.6"/>
</g>
<!-- NASALib/sorting&#45;&gt;NASALib/structures -->
<g id="edge9" class="edge">
<title>NASALib/sorting&#45;&gt;NASALib/structures</title>
<path fill="none" stroke="black" d="M74.79,-316.15C85.29,-300.69 99,-280.5 99,-280.5 99,-280.5 109,-263.5 109,-263.5"/>
<path fill="none" stroke="black" d="M109,-261.5C109,-261.5 95.97,-238.11 84.97,-218.37"/>
<polygon fill="black" stroke="black" points="87.57,-216.84 79.64,-209.8 81.45,-220.24 87.57,-216.84"/>
</g>
<!-- NASALib/structures&#45;&gt;NASALib/ints -->
<g id="edge10" class="edge">
<title>NASALib/structures&#45;&gt;NASALib/ints</title>
<path fill="none" stroke="black" d="M63.33,-172.2C60.35,-164.48 56.77,-155.21 53.46,-146.61"/>
<polygon fill="black" stroke="black" points="56.46,-145.67 49.6,-137.6 49.93,-148.19 56.46,-145.67"/>
</g>
<!-- NASALib/structures&#45;&gt;lib/finite_sets -->
<g id="edge11" class="edge">
<title>NASALib/structures&#45;&gt;lib/finite_sets</title>
<path fill="none" stroke="black" d="M72.95,-172.15C75.57,-156.69 79,-136.5 79,-136.5 79,-136.5 79,-92.5 79,-92.5 79,-92.5 74.27,-77.41 69.67,-62.68"/>
<polygon fill="black" stroke="black" points="72.73,-61.75 66.4,-53.25 66.05,-63.84 72.73,-61.75"/>
</g>
</g>
</svg>
