<?xml version="1.0" encoding="UTF-8" standalone="no"?>
<!DOCTYPE svg PUBLIC "-//W3C//DTD SVG 1.1//EN"
 "http://www.w3.org/Graphics/SVG/1.1/DTD/svg11.dtd">
<!-- Generated by graphviz version 8.0.4 (20230421.1958)
 -->
<!-- Title: polygon_merge&#45;zoomed Pages: 1 -->
<svg width="412pt" height="617pt"
 viewBox="0.00 0.00 412.00 617.00" xmlns="http://www.w3.org/2000/svg" xmlns:xlink="http://www.w3.org/1999/xlink">
<g id="graph0" class="graph" transform="scale(1 1) rotate(0) translate(4 613)">
<title>polygon_merge&#45;zoomed</title>
<polygon fill="white" stroke="none" points="-4,4 -4,-613 408,-613 408,4 -4,4"/>
<g id="clust2" class="cluster">
<title>cluster_NASALib/polygon_merge</title>
<polygon fill="none" stroke="black" points="8,-92.5 8,-601 332,-601 332,-92.5 8,-92.5"/>
<text text-anchor="middle" x="170" y="-583.7" font-family="Times,serif" font-size="14.00">NASALib/polygon_merge</text>
</g>
<g id="clust1" class="cluster">
<title>cluster_NASALib</title>
<polygon fill="none" stroke="black" points="116,-8 116,-84.5 396,-84.5 396,-8 116,-8"/>
<text text-anchor="middle" x="256" y="-67.2" font-family="Times,serif" font-size="14.00">NASALib</text>
</g>
<g id="clust3" class="cluster">
<title>cluster_PVS Prelude</title>
<polygon fill="none" stroke="black" points="20,-8 20,-84.5 108,-84.5 108,-8 20,-8"/>
<text text-anchor="middle" x="64" y="-67.2" font-family="Times,serif" font-size="14.00">PVS Prelude</text>
</g>
<!-- NASALib/line_segments -->
<g id="node1" class="node">
<title>NASALib/line_segments</title>
<polygon fill="#fcfcd7" stroke="black" points="302,-52 208,-52 208,-16 302,-16 302,-52"/>
<text text-anchor="middle" x="255" y="-28.95" font-family="Times,serif" font-size="14.00">line_segments</text>
</g>
<!-- NASALib/polygon_merge@injection_props -->
<g id="node2" class="node">
<title>NASALib/polygon_merge@injection_props</title>
<ellipse fill="#e6f3ff" stroke="black" cx="102" cy="-190.5" rx="68.24" ry="18"/>
<text text-anchor="middle" x="102" y="-185.45" font-family="Times,serif" font-size="14.00">injection_props</text>
</g>
<!-- NASALib/polygon_merge@vertex_injection -->
<g id="node8" class="node">
<title>NASALib/polygon_merge@vertex_injection</title>
<ellipse fill="#e6f3ff" stroke="black" cx="102" cy="-118.5" rx="70.8" ry="18"/>
<text text-anchor="middle" x="102" y="-113.45" font-family="Times,serif" font-size="14.00">vertex_injection</text>
</g>
<!-- NASALib/polygon_merge@injection_props&#45;&gt;NASALib/polygon_merge@vertex_injection -->
<g id="edge1" class="edge">
<title>NASALib/polygon_merge@injection_props&#45;&gt;NASALib/polygon_merge@vertex_injection</title>
<path fill="none" stroke="black" d="M102,-172.2C102,-164.74 102,-155.82 102,-147.47"/>
<polygon fill="black" stroke="black" points="105.5,-147.6 102,-137.6 98.5,-147.6 105.5,-147.6"/>
</g>
<!-- NASALib/polygons -->
<g id="node10" class="node">
<title>NASALib/polygons</title>
<polygon fill="#fcfcd7" stroke="black" points="189.75,-52 124.25,-52 124.25,-16 189.75,-16 189.75,-52"/>
<text text-anchor="middle" x="157" y="-28.95" font-family="Times,serif" font-size="14.00">polygons</text>
</g>
<!-- NASALib/polygon_merge@injection_props&#45;&gt;NASALib/polygons -->
<g id="edge2" class="edge">
<title>NASALib/polygon_merge@injection_props&#45;&gt;NASALib/polygons</title>
<path fill="none" stroke="black" d="M128.38,-173.44C162.34,-152.77 217,-119.5 217,-119.5"/>
<path fill="none" stroke="black" d="M217,-117.5C217,-117.5 193.68,-85.43 176.11,-61.28"/>
<polygon fill="black" stroke="black" points="178.44,-59.52 169.72,-53.5 172.78,-63.64 178.44,-59.52"/>
</g>
<!-- NASALib/polygon_merge@main_results -->
<g id="node3" class="node">
<title>NASALib/polygon_merge@main_results</title>
<ellipse fill="#e6f3ff" stroke="black" cx="107" cy="-550.5" rx="58.52" ry="18"/>
<text text-anchor="middle" x="107" y="-545.45" font-family="Times,serif" font-size="14.00">main_results</text>
</g>
<!-- NASALib/polygon_merge@merge_props -->
<g id="node4" class="node">
<title>NASALib/polygon_merge@merge_props</title>
<ellipse fill="#e6f3ff" stroke="black" cx="107" cy="-478.5" rx="59.54" ry="18"/>
<text text-anchor="middle" x="107" y="-473.45" font-family="Times,serif" font-size="14.00">merge_props</text>
</g>
<!-- NASALib/polygon_merge@main_results&#45;&gt;NASALib/polygon_merge@merge_props -->
<g id="edge3" class="edge">
<title>NASALib/polygon_merge@main_results&#45;&gt;NASALib/polygon_merge@merge_props</title>
<path fill="none" stroke="black" d="M107,-532.2C107,-524.74 107,-515.82 107,-507.47"/>
<polygon fill="black" stroke="black" points="110.5,-507.6 107,-497.6 103.5,-507.6 110.5,-507.6"/>
</g>
<!-- NASALib/polygon_merge@merge_props&#45;&gt;NASALib/polygon_merge@injection_props -->
<g id="edge4" class="edge">
<title>NASALib/polygon_merge@merge_props&#45;&gt;NASALib/polygon_merge@injection_props</title>
<path fill="none" stroke="black" d="M83,-461.6C59.43,-445.99 27,-424.5 27,-424.5 27,-424.5 27,-244.5 27,-244.5 27,-244.5 49.79,-228.4 70.24,-213.94"/>
<polygon fill="black" stroke="black" points="71.94,-216.32 78.09,-207.69 67.9,-210.6 71.94,-216.32"/>
</g>
<!-- NASALib/polygon_merge@merged_polygon_closed -->
<g id="node6" class="node">
<title>NASALib/polygon_merge@merged_polygon_closed</title>
<ellipse fill="#e6f3ff" stroke="black" cx="138" cy="-406.5" rx="102.02" ry="18"/>
<text text-anchor="middle" x="138" y="-401.45" font-family="Times,serif" font-size="14.00">merged_polygon_closed</text>
</g>
<!-- NASALib/polygon_merge@merge_props&#45;&gt;NASALib/polygon_merge@merged_polygon_closed -->
<g id="edge5" class="edge">
<title>NASALib/polygon_merge@merge_props&#45;&gt;NASALib/polygon_merge@merged_polygon_closed</title>
<path fill="none" stroke="black" d="M114.66,-460.2C118.08,-452.48 122.18,-443.21 125.99,-434.61"/>
<polygon fill="black" stroke="black" points="129.58,-436.17 130.43,-425.6 123.18,-433.33 129.58,-436.17"/>
</g>
<!-- NASALib/polygon_merge@merge_well_formed -->
<g id="node5" class="node">
<title>NASALib/polygon_merge@merge_well_formed</title>
<ellipse fill="#e6f3ff" stroke="black" cx="138" cy="-334.5" rx="86.67" ry="18"/>
<text text-anchor="middle" x="138" y="-329.45" font-family="Times,serif" font-size="14.00">merge_well_formed</text>
</g>
<!-- NASALib/polygon_merge@polygon_merge -->
<g id="node7" class="node">
<title>NASALib/polygon_merge@polygon_merge</title>
<ellipse fill="#e6f3ff" stroke="black" cx="255" cy="-262.5" rx="69.26" ry="18"/>
<text text-anchor="middle" x="255" y="-257.45" font-family="Times,serif" font-size="14.00">polygon_merge</text>
</g>
<!-- NASALib/polygon_merge@merge_well_formed&#45;&gt;NASALib/polygon_merge@polygon_merge -->
<g id="edge6" class="edge">
<title>NASALib/polygon_merge@merge_well_formed&#45;&gt;NASALib/polygon_merge@polygon_merge</title>
<path fill="none" stroke="black" d="M165.43,-317.09C181.39,-307.54 201.69,-295.4 218.93,-285.08"/>
<polygon fill="black" stroke="black" points="220.36,-287.71 227.14,-279.57 216.77,-281.7 220.36,-287.71"/>
</g>
<!-- NASALib/polygon_merge@vertex_wedges -->
<g id="node9" class="node">
<title>NASALib/polygon_merge@vertex_wedges</title>
<ellipse fill="#e6f3ff" stroke="black" cx="102" cy="-262.5" rx="66.19" ry="18"/>
<text text-anchor="middle" x="102" y="-257.45" font-family="Times,serif" font-size="14.00">vertex_wedges</text>
</g>
<!-- NASALib/polygon_merge@merge_well_formed&#45;&gt;NASALib/polygon_merge@vertex_wedges -->
<g id="edge7" class="edge">
<title>NASALib/polygon_merge@merge_well_formed&#45;&gt;NASALib/polygon_merge@vertex_wedges</title>
<path fill="none" stroke="black" d="M129.1,-316.2C125.09,-308.4 120.26,-299.01 115.8,-290.33"/>
<polygon fill="black" stroke="black" points="118.48,-288.9 110.8,-281.6 112.26,-292.1 118.48,-288.9"/>
</g>
<!-- NASALib/structures -->
<g id="node11" class="node">
<title>NASALib/structures</title>
<polygon fill="#fcfcd7" stroke="black" points="388.25,-52 319.75,-52 319.75,-16 388.25,-16 388.25,-52"/>
<text text-anchor="middle" x="354" y="-28.95" font-family="Times,serif" font-size="14.00">structures</text>
</g>
<!-- NASALib/polygon_merge@merge_well_formed&#45;&gt;NASALib/structures -->
<g id="edge8" class="edge">
<title>NASALib/polygon_merge@merge_well_formed&#45;&gt;NASALib/structures</title>
<path fill="none" stroke="black" d="M189.23,-319.57C247.01,-303.87 333,-280.5 333,-280.5 333,-280.5 346.12,-127.12 351.62,-62.83"/>
<polygon fill="black" stroke="black" points="355.16,-63.53 352.52,-53.26 348.18,-62.93 355.16,-63.53"/>
</g>
<!-- NASALib/polygon_merge@merged_polygon_closed&#45;&gt;NASALib/polygon_merge@merge_well_formed -->
<g id="edge9" class="edge">
<title>NASALib/polygon_merge@merged_polygon_closed&#45;&gt;NASALib/polygon_merge@merge_well_formed</title>
<path fill="none" stroke="black" d="M138,-388.2C138,-380.74 138,-371.82 138,-363.47"/>
<polygon fill="black" stroke="black" points="141.5,-363.6 138,-353.6 134.5,-363.6 141.5,-363.6"/>
</g>
<!-- NASALib/polygon_merge@polygon_merge&#45;&gt;NASALib/line_segments -->
<g id="edge10" class="edge">
<title>NASALib/polygon_merge@polygon_merge&#45;&gt;NASALib/line_segments</title>
<path fill="none" stroke="black" d="M255,-244.2C255,-223.47 255,-191.5 255,-191.5"/>
</g>
<!-- NASALib/polygon_merge@polygon_merge&#45;&gt;NASALib/polygon_merge@injection_props -->
<g id="edge11" class="edge">
<title>NASALib/polygon_merge@polygon_merge&#45;&gt;NASALib/polygon_merge@injection_props</title>
<path fill="none" stroke="black" d="M221.8,-246.31C199.25,-235.99 169.2,-222.25 144.84,-211.1"/>
<polygon fill="black" stroke="black" points="146.68,-207.64 136.13,-206.66 143.77,-214 146.68,-207.64"/>
</g>
<!-- NASALib/polygon_merge@polygon_merge&#45;&gt;NASALib/polygons -->
<g id="edge12" class="edge">
<title>NASALib/polygon_merge@polygon_merge&#45;&gt;NASALib/polygons</title>
<path fill="none" stroke="black" d="M245.61,-244.2C234.35,-223.47 217,-191.5 217,-191.5"/>
</g>
<!-- NASALib/polygon_merge@vertex_injection&#45;&gt;NASALib/polygons -->
<g id="edge13" class="edge">
<title>NASALib/polygon_merge@vertex_injection&#45;&gt;NASALib/polygons</title>
<path fill="none" stroke="black" d="M113.4,-100.41C120.94,-89.09 130.98,-74.02 139.53,-61.21"/>
<polygon fill="black" stroke="black" points="142.79,-63.62 145.43,-53.36 136.97,-59.74 142.79,-63.62"/>
</g>
<!-- NASALib/polygon_merge@vertex_injection&#45;&gt;NASALib/structures -->
<g id="edge14" class="edge">
<title>NASALib/polygon_merge@vertex_injection&#45;&gt;NASALib/structures</title>
<path fill="none" stroke="black" d="M161.05,-108.18C222.86,-98.42 311,-84.5 311,-84.5 311,-84.5 321.27,-72.67 331.78,-60.58"/>
<polygon fill="black" stroke="black" points="335.04,-63.16 338.96,-53.31 329.76,-58.57 335.04,-63.16"/>
</g>
<!-- lib/finite_sets -->
<g id="node12" class="node">
<title>lib/finite_sets</title>
<polygon fill="#fcfcd7" stroke="black" points="99.75,-52 28.25,-52 28.25,-16 99.75,-16 99.75,-52"/>
<text text-anchor="middle" x="64" y="-28.95" font-family="Times,serif" font-size="14.00">finite_sets</text>
</g>
<!-- NASALib/polygon_merge@vertex_injection&#45;&gt;lib/finite_sets -->
<g id="edge15" class="edge">
<title>NASALib/polygon_merge@vertex_injection&#45;&gt;lib/finite_sets</title>
<path fill="none" stroke="black" d="M94.13,-100.41C89.07,-89.42 82.38,-74.9 76.59,-62.33"/>
<polygon fill="black" stroke="black" points="79.36,-60.97 71.99,-53.36 73,-63.9 79.36,-60.97"/>
</g>
<!-- NASALib/polygon_merge@vertex_wedges&#45;&gt;NASALib/line_segments -->
<g id="edge16" class="edge">
<title>NASALib/polygon_merge@vertex_wedges&#45;&gt;NASALib/line_segments</title>
<path fill="none" stroke="black" d="M255,-189.5C255,-189.5 255,-108.04 255,-63.42"/>
<polygon fill="black" stroke="black" points="258.5,-63.42 255,-53.42 251.5,-63.42 258.5,-63.42"/>
<path fill="none" stroke="black" d="M137.59,-246.88C175.77,-231.19 231,-208.5 231,-208.5 231,-208.5 255,-191.5 255,-191.5"/>
</g>
<!-- NASALib/polygon_merge@vertex_wedges&#45;&gt;NASALib/polygon_merge@injection_props -->
<g id="edge17" class="edge">
<title>NASALib/polygon_merge@vertex_wedges&#45;&gt;NASALib/polygon_merge@injection_props</title>
<path fill="none" stroke="black" d="M102,-244.2C102,-236.74 102,-227.82 102,-219.47"/>
<polygon fill="black" stroke="black" points="105.5,-219.6 102,-209.6 98.5,-219.6 105.5,-219.6"/>
</g>
<!-- NASALib/polygon_merge@vertex_wedges&#45;&gt;NASALib/polygons -->
<g id="edge18" class="edge">
<title>NASALib/polygon_merge@vertex_wedges&#45;&gt;NASALib/polygons</title>
<path fill="none" stroke="black" d="M217,-189.5C217,-189.5 217,-119.5 217,-119.5"/>
<path fill="none" stroke="black" d="M131.48,-246.03C161.3,-230.38 203,-208.5 203,-208.5 203,-208.5 217,-191.5 217,-191.5"/>
</g>
</g>
</svg>
