<?xml version="1.0" encoding="UTF-8" standalone="no"?>
<!DOCTYPE svg PUBLIC "-//W3C//DTD SVG 1.1//EN"
 "http://www.w3.org/Graphics/SVG/1.1/DTD/svg11.dtd">
<!-- Generated by graphviz version 8.0.4 (20230421.1958)
 -->
<!-- Title: polygon_merge Pages: 1 -->
<svg width="278pt" height="833pt"
 viewBox="0.00 0.00 278.00 833.00" xmlns="http://www.w3.org/2000/svg" xmlns:xlink="http://www.w3.org/1999/xlink">
<g id="graph0" class="graph" transform="scale(1 1) rotate(0) translate(4 829)">
<title>polygon_merge</title>
<polygon fill="white" stroke="none" points="-4,4 -4,-829 274,-829 274,4 -4,4"/>
<g id="clust1" class="cluster">
<title>cluster_NASALib</title>
<polygon fill="none" stroke="black" points="8,-92.5 8,-817 250,-817 250,-92.5 8,-92.5"/>
<text text-anchor="middle" x="129" y="-799.7" font-family="Times,serif" font-size="14.00">NASALib</text>
</g>
<g id="clust2" class="cluster">
<title>cluster_PVS Prelude</title>
<polygon fill="none" stroke="black" points="127,-8 127,-84.5 215,-84.5 215,-8 127,-8"/>
<text text-anchor="middle" x="171" y="-67.2" font-family="Times,serif" font-size="14.00">PVS Prelude</text>
</g>
<!-- NASALib/analysis -->
<g id="node1" class="node">
<title>NASALib/analysis</title>
<polygon fill="#fcfcd7" stroke="black" points="135.75,-352.5 76.25,-352.5 76.25,-316.5 135.75,-316.5 135.75,-352.5"/>
<text text-anchor="middle" x="106" y="-329.45" font-family="Times,serif" font-size="14.00">analysis</text>
</g>
<!-- NASALib/ints -->
<g id="node2" class="node">
<title>NASALib/ints</title>
<polygon fill="#fcfcd7" stroke="black" points="163,-136.5 109,-136.5 109,-100.5 163,-100.5 163,-136.5"/>
<text text-anchor="middle" x="136" y="-113.45" font-family="Times,serif" font-size="14.00">ints</text>
</g>
<!-- NASALib/analysis&#45;&gt;NASALib/ints -->
<g id="edge1" class="edge">
<title>NASALib/analysis&#45;&gt;NASALib/ints</title>
<path fill="none" stroke="black" d="M129,-261.5C129,-261.5 119,-244.5 119,-244.5 119,-244.5 93,-208.5 93,-208.5 93,-208.5 83,-191.5 83,-191.5"/>
<path fill="none" stroke="black" d="M111.69,-316.2C118.5,-295.47 129,-263.5 129,-263.5"/>
</g>
<!-- NASALib/orders -->
<g id="node4" class="node">
<title>NASALib/orders</title>
<polygon fill="#fcfcd7" stroke="black" points="222,-280.5 168,-280.5 168,-244.5 222,-244.5 222,-280.5"/>
<text text-anchor="middle" x="195" y="-257.45" font-family="Times,serif" font-size="14.00">orders</text>
</g>
<!-- NASALib/analysis&#45;&gt;NASALib/orders -->
<g id="edge2" class="edge">
<title>NASALib/analysis&#45;&gt;NASALib/orders</title>
<path fill="none" stroke="black" d="M128,-316.2C139.02,-307.53 152.53,-296.9 164.53,-287.46"/>
<polygon fill="black" stroke="black" points="166.25,-289.78 171.94,-280.85 161.92,-284.28 166.25,-289.78"/>
</g>
<!-- NASALib/reals -->
<g id="node7" class="node">
<title>NASALib/reals</title>
<polygon fill="#fcfcd7" stroke="black" points="110,-280.5 56,-280.5 56,-244.5 110,-244.5 110,-280.5"/>
<text text-anchor="middle" x="83" y="-257.45" font-family="Times,serif" font-size="14.00">reals</text>
</g>
<!-- NASALib/analysis&#45;&gt;NASALib/reals -->
<g id="edge3" class="edge">
<title>NASALib/analysis&#45;&gt;NASALib/reals</title>
<path fill="none" stroke="black" d="M100.31,-316.2C97.81,-308.57 94.8,-299.42 92,-290.9"/>
<polygon fill="black" stroke="black" points="95.07,-290.01 88.62,-281.6 88.42,-292.2 95.07,-290.01"/>
</g>
<!-- NASALib/structures -->
<g id="node9" class="node">
<title>NASALib/structures</title>
<polygon fill="#fcfcd7" stroke="black" points="170.25,-208.5 101.75,-208.5 101.75,-172.5 170.25,-172.5 170.25,-208.5"/>
<text text-anchor="middle" x="136" y="-185.45" font-family="Times,serif" font-size="14.00">structures</text>
</g>
<!-- NASALib/analysis&#45;&gt;NASALib/structures -->
<g id="edge4" class="edge">
<title>NASALib/analysis&#45;&gt;NASALib/structures</title>
<path fill="none" stroke="black" d="M129,-261.5C129,-261.5 131.23,-239.16 133.18,-219.72"/>
<polygon fill="black" stroke="black" points="136.76,-220.1 134.27,-209.8 129.79,-219.41 136.76,-220.1"/>
</g>
<!-- lib/finite_sets -->
<g id="node12" class="node">
<title>lib/finite_sets</title>
<polygon fill="#fcfcd7" stroke="black" points="206.75,-52 135.25,-52 135.25,-16 206.75,-16 206.75,-52"/>
<text text-anchor="middle" x="171" y="-28.95" font-family="Times,serif" font-size="14.00">finite_sets</text>
</g>
<!-- NASALib/analysis&#45;&gt;lib/finite_sets -->
<g id="edge5" class="edge">
<title>NASALib/analysis&#45;&gt;lib/finite_sets</title>
<path fill="none" stroke="black" d="M135.95,-322.77C179.2,-307.29 254,-280.5 254,-280.5 254,-280.5 270,-263.5 270,-263.5"/>
<path fill="none" stroke="black" d="M270,-261.5C270,-261.5 270,-191.5 270,-191.5"/>
</g>
<!-- NASALib/ints&#45;&gt;lib/finite_sets -->
<g id="edge6" class="edge">
<title>NASALib/ints&#45;&gt;lib/finite_sets</title>
<path fill="none" stroke="black" d="M143.42,-100C148.06,-89.07 154.14,-74.75 159.4,-62.33"/>
<polygon fill="black" stroke="black" points="162.9,-64.04 163.59,-53.47 156.46,-61.31 162.9,-64.04"/>
</g>
<!-- NASALib/line_segments -->
<g id="node3" class="node">
<title>NASALib/line_segments</title>
<polygon fill="#fcfcd7" stroke="black" points="196,-640.5 102,-640.5 102,-604.5 196,-604.5 196,-640.5"/>
<text text-anchor="middle" x="149" y="-617.45" font-family="Times,serif" font-size="14.00">line_segments</text>
</g>
<!-- NASALib/line_segments&#45;&gt;NASALib/orders -->
<g id="edge7" class="edge">
<title>NASALib/line_segments&#45;&gt;NASALib/orders</title>
<path fill="none" stroke="black" d="M195,-333.5C195,-333.5 195,-311.16 195,-291.72"/>
<polygon fill="black" stroke="black" points="198.5,-291.8 195,-281.8 191.5,-291.8 198.5,-291.8"/>
</g>
<!-- NASALib/line_segments&#45;&gt;NASALib/structures -->
<g id="edge8" class="edge">
<title>NASALib/line_segments&#45;&gt;NASALib/structures</title>
<path fill="none" stroke="black" d="M151.81,-604.04C161.8,-541.95 195,-335.5 195,-335.5"/>
<path fill="none" stroke="black" d="M195,-333.5C195,-333.5 159,-280.5 159,-280.5 159,-280.5 149,-263.5 149,-263.5"/>
</g>
<!-- NASALib/vectors -->
<g id="node11" class="node">
<title>NASALib/vectors</title>
<polygon fill="#fcfcd7" stroke="black" points="110.5,-568.5 55.5,-568.5 55.5,-532.5 110.5,-532.5 110.5,-568.5"/>
<text text-anchor="middle" x="83" y="-545.45" font-family="Times,serif" font-size="14.00">vectors</text>
</g>
<!-- NASALib/line_segments&#45;&gt;NASALib/vectors -->
<g id="edge9" class="edge">
<title>NASALib/line_segments&#45;&gt;NASALib/vectors</title>
<path fill="none" stroke="black" d="M132.69,-604.2C124.77,-595.8 115.12,-585.57 106.44,-576.36"/>
<polygon fill="black" stroke="black" points="109.53,-574.48 100.13,-569.6 104.44,-579.28 109.53,-574.48"/>
</g>
<!-- NASALib/line_segments&#45;&gt;lib/finite_sets -->
<g id="edge10" class="edge">
<title>NASALib/line_segments&#45;&gt;lib/finite_sets</title>
<path fill="none" stroke="black" d="M179.22,-604.02C215.06,-583.28 270,-551.5 270,-551.5"/>
<path fill="none" stroke="black" d="M270,-549.5C270,-549.5 270,-263.5 270,-263.5"/>
</g>
<!-- NASALib/orders&#45;&gt;NASALib/structures -->
<g id="edge11" class="edge">
<title>NASALib/orders&#45;&gt;NASALib/structures</title>
<path fill="none" stroke="black" d="M180.42,-244.2C173.49,-235.97 165.06,-225.98 157.43,-216.92"/>
<polygon fill="black" stroke="black" points="159.54,-214.99 150.42,-209.6 154.19,-219.51 159.54,-214.99"/>
</g>
<!-- NASALib/orders&#45;&gt;lib/finite_sets -->
<g id="edge12" class="edge">
<title>NASALib/orders&#45;&gt;lib/finite_sets</title>
<path fill="none" stroke="black" d="M214.32,-244.15C231.53,-228.69 254,-208.5 254,-208.5 254,-208.5 270,-191.5 270,-191.5"/>
<path fill="none" stroke="black" d="M270,-189.5C270,-189.5 270,-119.5 270,-119.5"/>
</g>
<!-- NASALib/polygon_merge -->
<g id="node5" class="node">
<title>NASALib/polygon_merge</title>
<polygon fill="#f7e28d" stroke="black" points="239.75,-784.5 138.25,-784.5 138.25,-748.5 239.75,-748.5 239.75,-784.5"/>
<text text-anchor="middle" x="189" y="-761.45" font-family="Times,serif" font-size="14.00">polygon_merge</text>
</g>
<!-- NASALib/polygon_merge&#45;&gt;NASALib/line_segments -->
<g id="edge13" class="edge">
<title>NASALib/polygon_merge&#45;&gt;NASALib/line_segments</title>
<path fill="none" stroke="black" d="M175.25,-748.15C163,-732.69 147,-712.5 147,-712.5 147,-712.5 147,-676.5 147,-676.5 147,-676.5 147.46,-664.42 147.93,-651.8"/>
<polygon fill="black" stroke="black" points="151.47,-651.98 148.35,-641.85 144.47,-651.72 151.47,-651.98"/>
</g>
<!-- NASALib/polygons -->
<g id="node6" class="node">
<title>NASALib/polygons</title>
<polygon fill="#fcfcd7" stroke="black" points="221.75,-712.5 156.25,-712.5 156.25,-676.5 221.75,-676.5 221.75,-712.5"/>
<text text-anchor="middle" x="189" y="-689.45" font-family="Times,serif" font-size="14.00">polygons</text>
</g>
<!-- NASALib/polygon_merge&#45;&gt;NASALib/polygons -->
<g id="edge14" class="edge">
<title>NASALib/polygon_merge&#45;&gt;NASALib/polygons</title>
<path fill="none" stroke="black" d="M189,-748.2C189,-740.74 189,-731.82 189,-723.47"/>
<polygon fill="black" stroke="black" points="192.5,-723.6 189,-713.6 185.5,-723.6 192.5,-723.6"/>
</g>
<!-- NASALib/polygon_merge&#45;&gt;NASALib/structures -->
<g id="edge15" class="edge">
<title>NASALib/polygon_merge&#45;&gt;NASALib/structures</title>
<path fill="none" stroke="black" d="M202.75,-748.15C215,-732.69 231,-712.5 231,-712.5 231,-712.5 241,-695.5 241,-695.5"/>
<path fill="none" stroke="black" d="M241,-693.5C241,-693.5 241,-551.5 241,-551.5 241,-551.5 241,-551.5 241,-333.5 241,-333.5 231,-244.5 231,-244.5 231,-244.5 202.3,-228.49 176.44,-214.06"/>
<polygon fill="black" stroke="black" points="178.54,-210.67 168.11,-208.85 175.13,-216.78 178.54,-210.67"/>
</g>
<!-- NASALib/polygon_merge&#45;&gt;lib/finite_sets -->
<g id="edge16" class="edge">
<title>NASALib/polygon_merge&#45;&gt;lib/finite_sets</title>
<path fill="none" stroke="black" d="M241,-693.5C241,-693.5 270,-623.5 270,-623.5"/>
</g>
<!-- NASALib/polygons&#45;&gt;NASALib/line_segments -->
<g id="edge17" class="edge">
<title>NASALib/polygons&#45;&gt;NASALib/line_segments</title>
<path fill="none" stroke="black" d="M179.11,-676.2C174.61,-668.31 169.17,-658.8 164.17,-650.05"/>
<polygon fill="black" stroke="black" points="166.77,-648.55 158.77,-641.6 160.7,-652.02 166.77,-648.55"/>
</g>
<!-- NASALib/polygons&#45;&gt;NASALib/orders -->
<g id="edge18" class="edge">
<title>NASALib/polygons&#45;&gt;NASALib/orders</title>
<path fill="none" stroke="black" d="M194.24,-676.15C198.91,-660.69 205,-640.5 205,-640.5 205,-640.5 215,-551.5 215,-551.5 215,-551.5 215,-551.5 215,-405.5 215,-405.5 204.8,-333.09 198.97,-291.68"/>
<polygon fill="black" stroke="black" points="202.31,-291.33 197.45,-281.91 195.38,-292.3 202.31,-291.33"/>
</g>
<!-- NASALib/polygons&#45;&gt;NASALib/vectors -->
<g id="edge19" class="edge">
<title>NASALib/polygons&#45;&gt;NASALib/vectors</title>
<path fill="none" stroke="black" d="M157.57,-676.15C129.57,-660.69 93,-640.5 93,-640.5 93,-640.5 89.08,-605.61 86.15,-579.52"/>
<polygon fill="black" stroke="black" points="89.52,-579.21 84.93,-569.66 82.57,-579.99 89.52,-579.21"/>
</g>
<!-- NASALib/polygons&#45;&gt;lib/finite_sets -->
<g id="edge20" class="edge">
<title>NASALib/polygons&#45;&gt;lib/finite_sets</title>
<path fill="none" stroke="black" d="M210.28,-676.15C229.24,-660.69 254,-640.5 254,-640.5 254,-640.5 270,-623.5 270,-623.5"/>
<path fill="none" stroke="black" d="M270,-621.5C270,-621.5 270,-551.5 270,-551.5"/>
</g>
<!-- NASALib/reals&#45;&gt;NASALib/ints -->
<g id="edge21" class="edge">
<title>NASALib/reals&#45;&gt;NASALib/ints</title>
<path fill="none" stroke="black" d="M83,-244.2C83,-223.47 83,-191.5 83,-191.5"/>
</g>
<!-- NASALib/reals&#45;&gt;NASALib/structures -->
<g id="edge22" class="edge">
<title>NASALib/reals&#45;&gt;NASALib/structures</title>
<path fill="none" stroke="black" d="M96.1,-244.2C102.26,-236.06 109.74,-226.19 116.54,-217.2"/>
<polygon fill="black" stroke="black" points="119.8,-219.69 123.05,-209.6 114.22,-215.46 119.8,-219.69"/>
</g>
<!-- NASALib/series -->
<g id="node8" class="node">
<title>NASALib/series</title>
<polygon fill="#fcfcd7" stroke="black" points="110,-424.5 56,-424.5 56,-388.5 110,-388.5 110,-424.5"/>
<text text-anchor="middle" x="83" y="-401.45" font-family="Times,serif" font-size="14.00">series</text>
</g>
<!-- NASALib/series&#45;&gt;NASALib/analysis -->
<g id="edge23" class="edge">
<title>NASALib/series&#45;&gt;NASALib/analysis</title>
<path fill="none" stroke="black" d="M88.69,-388.2C91.19,-380.57 94.2,-371.42 97,-362.9"/>
<polygon fill="black" stroke="black" points="100.58,-364.2 100.38,-353.6 93.93,-362.01 100.58,-364.2"/>
</g>
<!-- NASALib/series&#45;&gt;NASALib/ints -->
<g id="edge24" class="edge">
<title>NASALib/series&#45;&gt;NASALib/ints</title>
<path fill="none" stroke="black" d="M76.57,-388.2C68.87,-367.47 57,-335.5 57,-335.5"/>
<path fill="none" stroke="black" d="M57,-333.5C57,-333.5 37,-263.5 37,-263.5"/>
</g>
<!-- NASALib/series&#45;&gt;NASALib/orders -->
<g id="edge25" class="edge">
<title>NASALib/series&#45;&gt;NASALib/orders</title>
<path fill="none" stroke="black" d="M103.3,-388.15C121.38,-372.69 145,-352.5 145,-352.5 145,-352.5 165.31,-316.35 180.04,-290.13"/>
<polygon fill="black" stroke="black" points="183.51,-292.09 185.36,-281.66 177.41,-288.66 183.51,-292.09"/>
</g>
<!-- NASALib/series&#45;&gt;NASALib/reals -->
<g id="edge26" class="edge">
<title>NASALib/series&#45;&gt;NASALib/reals</title>
<path fill="none" stroke="black" d="M57,-333.5C57,-333.5 65.53,-310.53 72.82,-290.91"/>
<polygon fill="black" stroke="black" points="76.37,-292.4 76.57,-281.8 69.81,-289.96 76.37,-292.4"/>
</g>
<!-- NASALib/structures&#45;&gt;NASALib/ints -->
<g id="edge27" class="edge">
<title>NASALib/structures&#45;&gt;NASALib/ints</title>
<path fill="none" stroke="black" d="M136,-172.2C136,-164.74 136,-155.82 136,-147.47"/>
<polygon fill="black" stroke="black" points="139.5,-147.6 136,-137.6 132.5,-147.6 139.5,-147.6"/>
</g>
<!-- NASALib/structures&#45;&gt;lib/finite_sets -->
<g id="edge28" class="edge">
<title>NASALib/structures&#45;&gt;lib/finite_sets</title>
<path fill="none" stroke="black" d="M270,-117.5C270,-117.5 229.46,-83.71 200.26,-59.38"/>
<polygon fill="black" stroke="black" points="202.92,-56.21 193,-52.5 198.44,-61.59 202.92,-56.21"/>
<path fill="none" stroke="black" d="M169.47,-172.02C209.16,-151.28 270,-119.5 270,-119.5"/>
</g>
<!-- NASALib/trig -->
<g id="node10" class="node">
<title>NASALib/trig</title>
<polygon fill="#fcfcd7" stroke="black" points="110,-496.5 56,-496.5 56,-460.5 110,-460.5 110,-496.5"/>
<text text-anchor="middle" x="83" y="-473.45" font-family="Times,serif" font-size="14.00">trig</text>
</g>
<!-- NASALib/trig&#45;&gt;NASALib/analysis -->
<g id="edge29" class="edge">
<title>NASALib/trig&#45;&gt;NASALib/analysis</title>
<path fill="none" stroke="black" d="M94.79,-460.15C105.29,-444.69 119,-424.5 119,-424.5 119,-424.5 119,-388.5 119,-388.5 119,-388.5 115.98,-376.18 112.85,-363.42"/>
<polygon fill="black" stroke="black" points="116.04,-362.73 110.26,-353.85 109.24,-364.4 116.04,-362.73"/>
</g>
<!-- NASALib/trig&#45;&gt;NASALib/ints -->
<g id="edge30" class="edge">
<title>NASALib/trig&#45;&gt;NASALib/ints</title>
<path fill="none" stroke="black" d="M83,-189.5C83,-189.5 93,-172.5 93,-172.5 93,-172.5 104.23,-158.65 115.22,-145.12"/>
<polygon fill="black" stroke="black" points="118.34,-147.82 121.92,-137.85 112.9,-143.41 118.34,-147.82"/>
<path fill="none" stroke="black" d="M37,-261.5C37,-261.5 47,-244.5 47,-244.5 47,-244.5 83,-191.5 83,-191.5"/>
<path fill="none" stroke="black" d="M71.21,-460.15C60.71,-444.69 47,-424.5 47,-424.5 47,-424.5 37,-335.5 37,-335.5"/>
<path fill="none" stroke="black" d="M37,-333.5C37,-333.5 37,-263.5 37,-263.5"/>
</g>
<!-- NASALib/trig&#45;&gt;NASALib/reals -->
<g id="edge31" class="edge">
<title>NASALib/trig&#45;&gt;NASALib/reals</title>
<path fill="none" stroke="black" d="M37,-333.5C37,-333.5 52.66,-309.68 65.7,-289.83"/>
<polygon fill="black" stroke="black" points="69.06,-292.08 71.63,-281.8 63.21,-288.24 69.06,-292.08"/>
</g>
<!-- NASALib/trig&#45;&gt;NASALib/series -->
<g id="edge32" class="edge">
<title>NASALib/trig&#45;&gt;NASALib/series</title>
<path fill="none" stroke="black" d="M83,-460.2C83,-452.74 83,-443.82 83,-435.47"/>
<polygon fill="black" stroke="black" points="86.5,-435.6 83,-425.6 79.5,-435.6 86.5,-435.6"/>
</g>
<!-- NASALib/vectors&#45;&gt;NASALib/reals -->
<g id="edge33" class="edge">
<title>NASALib/vectors&#45;&gt;NASALib/reals</title>
<path fill="none" stroke="black" d="M71.21,-532.15C60.71,-516.69 47,-496.5 47,-496.5 47,-496.5 32,-424.5 32,-424.5 32,-424.5 32,-316.5 32,-316.5 32,-316.5 45.58,-302.39 58.72,-288.73"/>
<polygon fill="black" stroke="black" points="60.89,-291.49 65.3,-281.85 55.84,-286.63 60.89,-291.49"/>
</g>
<!-- NASALib/vectors&#45;&gt;NASALib/structures -->
<g id="edge34" class="edge">
<title>NASALib/vectors&#45;&gt;NASALib/structures</title>
<path fill="none" stroke="black" d="M94.79,-532.15C105.29,-516.69 119,-496.5 119,-496.5 119,-496.5 145,-352.5 145,-352.5 145,-352.5 149,-263.5 149,-263.5"/>
<path fill="none" stroke="black" d="M149,-261.5C149,-261.5 144.81,-238.95 141.19,-219.45"/>
<polygon fill="black" stroke="black" points="144.48,-219 139.21,-209.8 137.6,-220.27 144.48,-219"/>
</g>
<!-- NASALib/vectors&#45;&gt;NASALib/trig -->
<g id="edge35" class="edge">
<title>NASALib/vectors&#45;&gt;NASALib/trig</title>
<path fill="none" stroke="black" d="M83,-532.2C83,-524.74 83,-515.82 83,-507.47"/>
<polygon fill="black" stroke="black" points="86.5,-507.6 83,-497.6 79.5,-507.6 86.5,-507.6"/>
</g>
</g>
</svg>
