<?xml version="1.0" encoding="UTF-8" standalone="no"?>
<!DOCTYPE svg PUBLIC "-//W3C//DTD SVG 1.1//EN"
 "http://www.w3.org/Graphics/SVG/1.1/DTD/svg11.dtd">
<!-- Generated by graphviz version 7.0.6 (20230106.0513)
 -->
<!-- Title: numbers&#45;zoomed Pages: 1 -->
<svg width="1040pt" height="398pt"
 viewBox="0.00 0.00 1040.00 398.00" xmlns="http://www.w3.org/2000/svg" xmlns:xlink="http://www.w3.org/1999/xlink">
<g id="graph0" class="graph" transform="scale(1 1) rotate(0) translate(4 394)">
<title>numbers&#45;zoomed</title>
<polygon fill="white" stroke="none" points="-4,4 -4,-394 1036,-394 1036,4 -4,4"/>
<g id="clust1" class="cluster">
<title>cluster_NASALib</title>
<polygon fill="none" stroke="black" points="481,-8 481,-83 711,-83 711,-8 481,-8"/>
<text text-anchor="middle" x="596" y="-67.8" font-family="Times,serif" font-size="14.00">NASALib</text>
</g>
<g id="clust2" class="cluster">
<title>cluster_NASALib/numbers</title>
<polygon fill="none" stroke="black" points="8,-91 8,-382 1024,-382 1024,-91 8,-91"/>
<text text-anchor="middle" x="516" y="-366.8" font-family="Times,serif" font-size="14.00">NASALib/numbers</text>
</g>
<!-- NASALib/ints -->
<g id="node1" class="node">
<title>NASALib/ints</title>
<polygon fill="#fcfcd7" stroke="black" points="631,-52 577,-52 577,-16 631,-16 631,-52"/>
<text text-anchor="middle" x="604" y="-30.3" font-family="Times,serif" font-size="14.00">ints</text>
</g>
<!-- NASALib/numbers@chinese_remainder -->
<g id="node2" class="node">
<title>NASALib/numbers@chinese_remainder</title>
<ellipse fill="#e6f3ff" stroke="black" cx="685" cy="-333" rx="77.19" ry="18"/>
<text text-anchor="middle" x="685" y="-329.3" font-family="Times,serif" font-size="14.00">chinese_remainder</text>
</g>
<!-- NASALib/numbers@chinese_remainder&#45;&gt;NASALib/ints -->
<g id="edge1" class="edge">
<title>NASALib/numbers@chinese_remainder&#45;&gt;NASALib/ints</title>
<path fill="none" stroke="black" d="M689.05,-314.59C697.86,-276.67 718,-190 718,-190"/>
<path fill="none" stroke="black" d="M718,-188C718,-188 718,-118 718,-118"/>
<path fill="none" stroke="black" d="M718,-116C718,-116 640,-83 640,-83 640,-83 632.1,-72.46 623.7,-61.26"/>
<polygon fill="black" stroke="black" points="626.7,-59.44 617.9,-53.54 621.1,-63.64 626.7,-59.44"/>
</g>
<!-- NASALib/reals -->
<g id="node15" class="node">
<title>NASALib/reals</title>
<polygon fill="#fcfcd7" stroke="black" points="703,-52 649,-52 649,-16 703,-16 703,-52"/>
<text text-anchor="middle" x="676" y="-30.3" font-family="Times,serif" font-size="14.00">reals</text>
</g>
<!-- NASALib/numbers@chinese_remainder&#45;&gt;NASALib/reals -->
<g id="edge2" class="edge">
<title>NASALib/numbers@chinese_remainder&#45;&gt;NASALib/reals</title>
<path fill="none" stroke="black" d="M756,-116C756,-116 732,-91 732,-91 732,-91 716.23,-75.23 701.43,-60.43"/>
<polygon fill="black" stroke="black" points="704.03,-58.08 694.48,-53.48 699.08,-63.03 704.03,-58.08"/>
<path fill="none" stroke="black" d="M718,-188C718,-188 756,-118 756,-118"/>
</g>
<!-- NASALib/numbers@eq_mod -->
<g id="node3" class="node">
<title>NASALib/numbers@eq_mod</title>
<ellipse fill="#e6f3ff" stroke="black" cx="536" cy="-261" rx="39.79" ry="18"/>
<text text-anchor="middle" x="536" y="-257.3" font-family="Times,serif" font-size="14.00">eq_mod</text>
</g>
<!-- NASALib/numbers@eq_mod&#45;&gt;NASALib/ints -->
<g id="edge3" class="edge">
<title>NASALib/numbers@eq_mod&#45;&gt;NASALib/ints</title>
<path fill="none" stroke="black" d="M552.2,-244.1C568.11,-228.49 590,-207 590,-207 590,-207 604,-190 604,-190"/>
</g>
<!-- NASALib/numbers@fermats_little_theorem -->
<g id="node4" class="node">
<title>NASALib/numbers@fermats_little_theorem</title>
<ellipse fill="#e6f3ff" stroke="black" cx="397" cy="-333" rx="91.78" ry="18"/>
<text text-anchor="middle" x="397" y="-329.3" font-family="Times,serif" font-size="14.00">fermats_little_theorem</text>
</g>
<!-- NASALib/numbers@fermats_little_theorem&#45;&gt;NASALib/ints -->
<g id="edge4" class="edge">
<title>NASALib/numbers@fermats_little_theorem&#45;&gt;NASALib/ints</title>
<path fill="none" stroke="black" d="M448.97,-317.73C506.14,-302.03 590,-279 590,-279 590,-279 604,-190 604,-190"/>
</g>
<!-- NASALib/numbers@fermats_little_theorem&#45;&gt;NASALib/numbers@eq_mod -->
<g id="edge5" class="edge">
<title>NASALib/numbers@fermats_little_theorem&#45;&gt;NASALib/numbers@eq_mod</title>
<path fill="none" stroke="black" d="M429.24,-315.76C450.33,-305.14 477.92,-291.25 499.77,-280.25"/>
<polygon fill="black" stroke="black" points="501.27,-283.41 508.63,-275.79 498.12,-277.16 501.27,-283.41"/>
</g>
<!-- NASALib/numbers@fermats_little_theorem&#45;&gt;NASALib/reals -->
<g id="edge6" class="edge">
<title>NASALib/numbers@fermats_little_theorem&#45;&gt;NASALib/reals</title>
<path fill="none" stroke="black" d="M451.64,-318.14C513.56,-302.44 606,-279 606,-279 606,-279 642,-190 642,-190"/>
</g>
<!-- NASALib/numbers@foursquare -->
<g id="node5" class="node">
<title>NASALib/numbers@foursquare</title>
<ellipse fill="#e6f3ff" stroke="black" cx="828" cy="-333" rx="48.19" ry="18"/>
<text text-anchor="middle" x="828" y="-329.3" font-family="Times,serif" font-size="14.00">foursquare</text>
</g>
<!-- NASALib/numbers@foursquare&#45;&gt;NASALib/ints -->
<g id="edge7" class="edge">
<title>NASALib/numbers@foursquare&#45;&gt;NASALib/ints</title>
<path fill="none" stroke="black" d="M813.08,-315.52C798.99,-299.96 780,-279 780,-279 780,-279 756,-190 756,-190"/>
<path fill="none" stroke="black" d="M756,-188C756,-188 718,-118 718,-118"/>
</g>
<!-- NASALib/numbers@foursquare&#45;&gt;NASALib/reals -->
<g id="edge8" class="edge">
<title>NASALib/numbers@foursquare&#45;&gt;NASALib/reals</title>
<path fill="none" stroke="black" d="M756,-188C756,-188 756,-118 756,-118"/>
</g>
<!-- NASALib/numbers@infinite_primes -->
<g id="node6" class="node">
<title>NASALib/numbers@infinite_primes</title>
<ellipse fill="#e6f3ff" stroke="black" cx="413" cy="-261" rx="64.99" ry="18"/>
<text text-anchor="middle" x="413" y="-257.3" font-family="Times,serif" font-size="14.00">infinite_primes</text>
</g>
<!-- NASALib/numbers@infinite_primes&#45;&gt;NASALib/ints -->
<g id="edge9" class="edge">
<title>NASALib/numbers@infinite_primes&#45;&gt;NASALib/ints</title>
<path fill="none" stroke="black" d="M455.85,-247.17C508.23,-231.48 590,-207 590,-207 590,-207 604,-190 604,-190"/>
</g>
<!-- NASALib/numbers@prime_factorization -->
<g id="node8" class="node">
<title>NASALib/numbers@prime_factorization</title>
<ellipse fill="#e6f3ff" stroke="black" cx="169" cy="-189" rx="80.69" ry="18"/>
<text text-anchor="middle" x="169" y="-185.3" font-family="Times,serif" font-size="14.00">prime_factorization</text>
</g>
<!-- NASALib/numbers@infinite_primes&#45;&gt;NASALib/numbers@prime_factorization -->
<g id="edge10" class="edge">
<title>NASALib/numbers@infinite_primes&#45;&gt;NASALib/numbers@prime_factorization</title>
<path fill="none" stroke="black" d="M369.1,-247.4C329.72,-236.11 271.61,-219.44 228.14,-206.97"/>
<polygon fill="black" stroke="black" points="229.18,-203.62 218.6,-204.23 227.25,-210.35 229.18,-203.62"/>
</g>
<!-- NASALib/numbers@infinite_primes&#45;&gt;NASALib/reals -->
<g id="edge11" class="edge">
<title>NASALib/numbers@infinite_primes&#45;&gt;NASALib/reals</title>
<path fill="none" stroke="black" d="M459.26,-248.04C519.72,-232.41 618,-207 618,-207 618,-207 642,-190 642,-190"/>
<path fill="none" stroke="black" d="M642,-188C642,-188 642,-118 642,-118"/>
</g>
<!-- NASALib/numbers@nat_list_enum -->
<g id="node7" class="node">
<title>NASALib/numbers@nat_list_enum</title>
<ellipse fill="#e6f3ff" stroke="black" cx="955" cy="-333" rx="61.19" ry="18"/>
<text text-anchor="middle" x="955" y="-329.3" font-family="Times,serif" font-size="14.00">nat_list_enum</text>
</g>
<!-- NASALib/numbers@nat_list_enum&#45;&gt;NASALib/reals -->
<g id="edge12" class="edge">
<title>NASALib/numbers@nat_list_enum&#45;&gt;NASALib/reals</title>
<path fill="none" stroke="black" d="M939.38,-315.21C892.47,-264.76 756,-118 756,-118"/>
</g>
<!-- NASALib/numbers@prime_factorization&#45;&gt;NASALib/ints -->
<g id="edge13" class="edge">
<title>NASALib/numbers@prime_factorization&#45;&gt;NASALib/ints</title>
<path fill="none" stroke="black" d="M604,-116C604,-116 604,-86.96 604,-63.66"/>
<polygon fill="black" stroke="black" points="607.5,-63.69 604,-53.69 600.5,-63.69 607.5,-63.69"/>
<path fill="none" stroke="black" d="M232.72,-177.75C353.54,-158.3 604,-118 604,-118"/>
</g>
<!-- NASALib/numbers@product_perm_lems -->
<g id="node10" class="node">
<title>NASALib/numbers@product_perm_lems</title>
<ellipse fill="#e6f3ff" stroke="black" cx="169" cy="-117" rx="81.79" ry="18"/>
<text text-anchor="middle" x="169" y="-113.3" font-family="Times,serif" font-size="14.00">product_perm_lems</text>
</g>
<!-- NASALib/numbers@prime_factorization&#45;&gt;NASALib/numbers@product_perm_lems -->
<g id="edge14" class="edge">
<title>NASALib/numbers@prime_factorization&#45;&gt;NASALib/numbers@product_perm_lems</title>
<path fill="none" stroke="black" d="M169,-170.7C169,-163.41 169,-154.73 169,-146.54"/>
<polygon fill="black" stroke="black" points="172.5,-146.62 169,-136.62 165.5,-146.62 172.5,-146.62"/>
</g>
<!-- NASALib/numbers@prime_factorization&#45;&gt;NASALib/reals -->
<g id="edge15" class="edge">
<title>NASALib/numbers@prime_factorization&#45;&gt;NASALib/reals</title>
<path fill="none" stroke="black" d="M642,-116C642,-116 654.53,-86.16 664.37,-62.7"/>
<polygon fill="black" stroke="black" points="667.56,-64.15 668.2,-53.57 661.11,-61.44 667.56,-64.15"/>
<path fill="none" stroke="black" d="M239.16,-179.72C365.44,-164.81 618,-135 618,-135 618,-135 642,-118 642,-118"/>
</g>
<!-- NASALib/numbers@primes_sum_squares -->
<g id="node9" class="node">
<title>NASALib/numbers@primes_sum_squares</title>
<ellipse fill="#e6f3ff" stroke="black" cx="245" cy="-261" rx="85.29" ry="18"/>
<text text-anchor="middle" x="245" y="-257.3" font-family="Times,serif" font-size="14.00">primes_sum_squares</text>
</g>
<!-- NASALib/numbers@primes_sum_squares&#45;&gt;NASALib/ints -->
<g id="edge16" class="edge">
<title>NASALib/numbers@primes_sum_squares&#45;&gt;NASALib/ints</title>
<path fill="none" stroke="black" d="M604,-188C604,-188 604,-118 604,-118"/>
<path fill="none" stroke="black" d="M308.22,-248.57C325.22,-245.49 339,-243 339,-243 339,-243 590,-207 590,-207 590,-207 604,-190 604,-190"/>
</g>
<!-- NASALib/numbers@primes_sum_squares&#45;&gt;NASALib/numbers@prime_factorization -->
<g id="edge17" class="edge">
<title>NASALib/numbers@primes_sum_squares&#45;&gt;NASALib/numbers@prime_factorization</title>
<path fill="none" stroke="black" d="M226.6,-243.05C217.27,-234.46 205.76,-223.86 195.49,-214.4"/>
<polygon fill="black" stroke="black" points="198.07,-212.01 188.34,-207.81 193.33,-217.16 198.07,-212.01"/>
</g>
<!-- NASALib/numbers@product_perm_lems&#45;&gt;NASALib/reals -->
<g id="edge18" class="edge">
<title>NASALib/numbers@product_perm_lems&#45;&gt;NASALib/reals</title>
<path fill="none" stroke="black" d="M245.99,-110.61C379.53,-101.25 640,-83 640,-83 640,-83 647.9,-72.46 656.3,-61.26"/>
<polygon fill="black" stroke="black" points="658.9,-63.64 662.1,-53.54 653.3,-59.44 658.9,-63.64"/>
</g>
<!-- NASALib/structures -->
<g id="node16" class="node">
<title>NASALib/structures</title>
<polygon fill="#fcfcd7" stroke="black" points="558.5,-52 489.5,-52 489.5,-16 558.5,-16 558.5,-52"/>
<text text-anchor="middle" x="524" y="-30.3" font-family="Times,serif" font-size="14.00">structures</text>
</g>
<!-- NASALib/numbers@product_perm_lems&#45;&gt;NASALib/structures -->
<g id="edge19" class="edge">
<title>NASALib/numbers@product_perm_lems&#45;&gt;NASALib/structures</title>
<path fill="none" stroke="black" d="M224.47,-103.34C294.37,-87.39 413.22,-60.28 478.21,-45.45"/>
<polygon fill="black" stroke="black" points="478.87,-48.89 487.84,-43.25 477.31,-42.06 478.87,-48.89"/>
</g>
<!-- NASALib/numbers@sqrt_two -->
<g id="node11" class="node">
<title>NASALib/numbers@sqrt_two</title>
<ellipse fill="#e6f3ff" stroke="black" cx="548" cy="-333" rx="41.69" ry="18"/>
<text text-anchor="middle" x="548" y="-329.3" font-family="Times,serif" font-size="14.00">sqrt_two</text>
</g>
<!-- NASALib/numbers@sqrt_two&#45;&gt;NASALib/ints -->
<g id="edge20" class="edge">
<title>NASALib/numbers@sqrt_two&#45;&gt;NASALib/ints</title>
<path fill="none" stroke="black" d="M642,-260C642,-260 604,-190 604,-190"/>
<path fill="none" stroke="black" d="M568.4,-316.81C596.04,-296.22 642,-262 642,-262"/>
</g>
<!-- NASALib/numbers@sqrt_two&#45;&gt;NASALib/reals -->
<g id="edge21" class="edge">
<title>NASALib/numbers@sqrt_two&#45;&gt;NASALib/reals</title>
<path fill="none" stroke="black" d="M642,-260C642,-260 642,-190 642,-190"/>
</g>
<!-- NASALib/numbers@tuple2nat -->
<g id="node12" class="node">
<title>NASALib/numbers@tuple2nat</title>
<ellipse fill="#e6f3ff" stroke="black" cx="244" cy="-333" rx="43.59" ry="18"/>
<text text-anchor="middle" x="244" y="-329.3" font-family="Times,serif" font-size="14.00">tuple2nat</text>
</g>
<!-- NASALib/numbers@unique_factorization -->
<g id="node13" class="node">
<title>NASALib/numbers@unique_factorization</title>
<ellipse fill="#e6f3ff" stroke="black" cx="99" cy="-333" rx="83.39" ry="18"/>
<text text-anchor="middle" x="99" y="-329.3" font-family="Times,serif" font-size="14.00">unique_factorization</text>
</g>
<!-- NASALib/numbers@unique_factorization&#45;&gt;NASALib/numbers@prime_factorization -->
<g id="edge22" class="edge">
<title>NASALib/numbers@unique_factorization&#45;&gt;NASALib/numbers@prime_factorization</title>
<path fill="none" stroke="black" d="M109.48,-314.65C118.81,-299.19 131,-279 131,-279 131,-279 146.03,-243.8 157.18,-217.67"/>
<polygon fill="black" stroke="black" points="160.37,-219.12 161.08,-208.55 153.93,-216.37 160.37,-219.12"/>
</g>
<!-- NASALib/numbers@unique_scaf -->
<g id="node14" class="node">
<title>NASALib/numbers@unique_scaf</title>
<ellipse fill="#e6f3ff" stroke="black" cx="69" cy="-261" rx="53.09" ry="18"/>
<text text-anchor="middle" x="69" y="-257.3" font-family="Times,serif" font-size="14.00">unique_scaf</text>
</g>
<!-- NASALib/numbers@unique_factorization&#45;&gt;NASALib/numbers@unique_scaf -->
<g id="edge23" class="edge">
<title>NASALib/numbers@unique_factorization&#45;&gt;NASALib/numbers@unique_scaf</title>
<path fill="none" stroke="black" d="M91.58,-314.7C88.35,-307.15 84.48,-298.12 80.86,-289.68"/>
<polygon fill="black" stroke="black" points="84.08,-288.31 76.93,-280.5 77.65,-291.07 84.08,-288.31"/>
</g>
<!-- NASALib/numbers@unique_scaf&#45;&gt;NASALib/ints -->
<g id="edge24" class="edge">
<title>NASALib/numbers@unique_scaf&#45;&gt;NASALib/ints</title>
<path fill="none" stroke="black" d="M566,-188C566,-188 604,-118 604,-118"/>
</g>
<!-- NASALib/numbers@unique_scaf&#45;&gt;NASALib/numbers@prime_factorization -->
<g id="edge25" class="edge">
<title>NASALib/numbers@unique_scaf&#45;&gt;NASALib/numbers@prime_factorization</title>
<path fill="none" stroke="black" d="M91.19,-244.46C104.41,-235.21 121.43,-223.3 136.17,-212.98"/>
<polygon fill="black" stroke="black" points="138.05,-215.94 144.24,-207.34 134.04,-210.2 138.05,-215.94"/>
</g>
<!-- NASALib/numbers@unique_scaf&#45;&gt;NASALib/numbers@product_perm_lems -->
<g id="edge26" class="edge">
<title>NASALib/numbers@unique_scaf&#45;&gt;NASALib/numbers@product_perm_lems</title>
<path fill="none" stroke="black" d="M70.93,-242.84C73.83,-216.98 79,-171 79,-171 79,-171 107.09,-154.46 131.88,-139.86"/>
<polygon fill="black" stroke="black" points="133.36,-143.05 140.2,-134.96 129.81,-137.02 133.36,-143.05"/>
</g>
<!-- NASALib/numbers@unique_scaf&#45;&gt;NASALib/structures -->
<g id="edge27" class="edge">
<title>NASALib/numbers@unique_scaf&#45;&gt;NASALib/structures</title>
<path fill="none" stroke="black" d="M113.36,-250.8C132.68,-246.8 151,-243 151,-243 151,-243 566,-190 566,-190"/>
<path fill="none" stroke="black" d="M566,-188C566,-188 543.86,-107.33 531.73,-63.14"/>
<polygon fill="black" stroke="black" points="535.16,-62.43 529.14,-53.71 528.41,-64.28 535.16,-62.43"/>
</g>
</g>
</svg>
