<?xml version="1.0" encoding="UTF-8" standalone="no"?>
<!DOCTYPE svg PUBLIC "-//W3C//DTD SVG 1.1//EN"
 "http://www.w3.org/Graphics/SVG/1.1/DTD/svg11.dtd">
<!-- Generated by graphviz version 2.44.1 (20200629.0846)
 -->
<!-- Title: numbers&#45;zoomed Pages: 1 -->
<svg width="1040pt" height="398pt"
 viewBox="0.00 0.00 1040.00 398.00" xmlns="http://www.w3.org/2000/svg" xmlns:xlink="http://www.w3.org/1999/xlink">
<g id="graph0" class="graph" transform="scale(1 1) rotate(0) translate(4 394)">
<title>numbers&#45;zoomed</title>
<polygon fill="white" stroke="transparent" points="-4,4 -4,-394 1036,-394 1036,4 -4,4"/>
<g id="clust1" class="cluster">
<title>cluster_NASALib</title>
<polygon fill="none" stroke="black" points="479,-8 479,-83 709,-83 709,-8 479,-8"/>
<text text-anchor="middle" x="594" y="-67.8" font-family="Times,serif" font-size="14.00">NASALib</text>
</g>
<g id="clust2" class="cluster">
<title>cluster_NASALib/numbers</title>
<polygon fill="none" stroke="black" points="8,-91 8,-382 1024,-382 1024,-91 8,-91"/>
<text text-anchor="middle" x="516" y="-366.8" font-family="Times,serif" font-size="14.00">NASALib/numbers</text>
</g>
<!-- nasalib/ints -->
<g id="node1" class="node">
<title>nasalib/ints</title>
<polygon fill="#fcfcd7" stroke="black" points="629,-52 575,-52 575,-16 629,-16 629,-52"/>
<text text-anchor="middle" x="602" y="-30.3" font-family="Times,serif" font-size="14.00">ints</text>
</g>
<!-- nasalib/numbers@chinese_remainder -->
<g id="node2" class="node">
<title>nasalib/numbers@chinese_remainder</title>
<ellipse fill="#e6f3ff" stroke="black" cx="685" cy="-333" rx="77.19" ry="18"/>
<text text-anchor="middle" x="685" y="-329.3" font-family="Times,serif" font-size="14.00">chinese_remainder</text>
</g>
<!-- nasalib/numbers@chinese_remainder&#45;&gt;nasalib/ints -->
<g id="edge1" class="edge">
<title>nasalib/numbers@chinese_remainder&#45;&gt;nasalib/ints</title>
<path fill="none" stroke="black" d="M614.77,-325.31C614.77,-325.31 614.77,-62.19 614.77,-62.19"/>
<polygon fill="black" stroke="black" points="618.27,-62.19 614.77,-52.19 611.27,-62.19 618.27,-62.19"/>
</g>
<!-- nasalib/reals -->
<g id="node15" class="node">
<title>nasalib/reals</title>
<polygon fill="#fcfcd7" stroke="black" points="701,-52 647,-52 647,-16 701,-16 701,-52"/>
<text text-anchor="middle" x="674" y="-30.3" font-family="Times,serif" font-size="14.00">reals</text>
</g>
<!-- nasalib/numbers@chinese_remainder&#45;&gt;nasalib/reals -->
<g id="edge2" class="edge">
<title>nasalib/numbers@chinese_remainder&#45;&gt;nasalib/reals</title>
<path fill="none" stroke="black" d="M693.29,-314.75C693.29,-314.75 693.29,-62.01 693.29,-62.01"/>
<polygon fill="black" stroke="black" points="696.79,-62.01 693.29,-52.01 689.79,-62.01 696.79,-62.01"/>
</g>
<!-- nasalib/numbers@eq_mod -->
<g id="node3" class="node">
<title>nasalib/numbers@eq_mod</title>
<ellipse fill="#e6f3ff" stroke="black" cx="534" cy="-261" rx="39.79" ry="18"/>
<text text-anchor="middle" x="534" y="-257.3" font-family="Times,serif" font-size="14.00">eq_mod</text>
</g>
<!-- nasalib/numbers@eq_mod&#45;&gt;nasalib/ints -->
<g id="edge3" class="edge">
<title>nasalib/numbers@eq_mod&#45;&gt;nasalib/ints</title>
<path fill="none" stroke="black" d="M574.1,-261C579.44,-261 583.11,-261 583.11,-261 583.11,-261 583.11,-62.19 583.11,-62.19"/>
<polygon fill="black" stroke="black" points="586.61,-62.19 583.11,-52.19 579.61,-62.19 586.61,-62.19"/>
</g>
<!-- nasalib/numbers@fermats_little_theorem -->
<g id="node4" class="node">
<title>nasalib/numbers@fermats_little_theorem</title>
<ellipse fill="#e6f3ff" stroke="black" cx="397" cy="-333" rx="91.78" ry="18"/>
<text text-anchor="middle" x="397" y="-329.3" font-family="Times,serif" font-size="14.00">fermats_little_theorem</text>
</g>
<!-- nasalib/numbers@fermats_little_theorem&#45;&gt;nasalib/ints -->
<g id="edge4" class="edge">
<title>nasalib/numbers@fermats_little_theorem&#45;&gt;nasalib/ints</title>
<path fill="none" stroke="black" d="M480.06,-325.16C480.06,-312.27 480.06,-288 480.06,-288 480.06,-288 584.73,-288 584.73,-288 584.73,-288 584.73,-62.27 584.73,-62.27"/>
<polygon fill="black" stroke="black" points="588.23,-62.27 584.73,-52.27 581.23,-62.27 588.23,-62.27"/>
</g>
<!-- nasalib/numbers@fermats_little_theorem&#45;&gt;nasalib/numbers@eq_mod -->
<g id="edge5" class="edge">
<title>nasalib/numbers@fermats_little_theorem&#45;&gt;nasalib/numbers@eq_mod</title>
<path fill="none" stroke="black" d="M488.92,-333C495.95,-333 500.38,-333 500.38,-333 500.38,-333 500.38,-280.71 500.38,-280.71"/>
<polygon fill="black" stroke="black" points="503.88,-280.71 500.38,-270.71 496.88,-280.71 503.88,-280.71"/>
</g>
<!-- nasalib/numbers@fermats_little_theorem&#45;&gt;nasalib/reals -->
<g id="edge6" class="edge">
<title>nasalib/numbers@fermats_little_theorem&#45;&gt;nasalib/reals</title>
<path fill="none" stroke="black" d="M483.78,-327.01C483.78,-319.05 483.78,-306 483.78,-306 483.78,-306 685.57,-306 685.57,-306 685.57,-306 685.57,-62.27 685.57,-62.27"/>
<polygon fill="black" stroke="black" points="689.07,-62.27 685.57,-52.27 682.07,-62.27 689.07,-62.27"/>
</g>
<!-- nasalib/numbers@foursquare -->
<g id="node5" class="node">
<title>nasalib/numbers@foursquare</title>
<ellipse fill="#e6f3ff" stroke="black" cx="828" cy="-333" rx="48.19" ry="18"/>
<text text-anchor="middle" x="828" y="-329.3" font-family="Times,serif" font-size="14.00">foursquare</text>
</g>
<!-- nasalib/numbers@foursquare&#45;&gt;nasalib/ints -->
<g id="edge7" class="edge">
<title>nasalib/numbers@foursquare&#45;&gt;nasalib/ints</title>
<path fill="none" stroke="black" d="M811.97,-315.84C811.97,-306.57 811.97,-297 811.97,-297 811.97,-297 621.89,-297 621.89,-297 621.89,-297 621.89,-62.08 621.89,-62.08"/>
<polygon fill="black" stroke="black" points="625.39,-62.08 621.89,-52.08 618.39,-62.08 625.39,-62.08"/>
</g>
<!-- nasalib/numbers@foursquare&#45;&gt;nasalib/reals -->
<g id="edge8" class="edge">
<title>nasalib/numbers@foursquare&#45;&gt;nasalib/reals</title>
<path fill="none" stroke="black" d="M844.03,-315.98C844.03,-253.45 844.03,-40 844.03,-40 844.03,-40 711.32,-40 711.32,-40"/>
<polygon fill="black" stroke="black" points="711.32,-36.5 701.32,-40 711.32,-43.5 711.32,-36.5"/>
</g>
<!-- nasalib/numbers@infinite_primes -->
<g id="node6" class="node">
<title>nasalib/numbers@infinite_primes</title>
<ellipse fill="#e6f3ff" stroke="black" cx="412" cy="-261" rx="64.19" ry="18"/>
<text text-anchor="middle" x="412" y="-257.3" font-family="Times,serif" font-size="14.00">infinite_primes</text>
</g>
<!-- nasalib/numbers@infinite_primes&#45;&gt;nasalib/ints -->
<g id="edge9" class="edge">
<title>nasalib/numbers@infinite_primes&#45;&gt;nasalib/ints</title>
<path fill="none" stroke="black" d="M412,-242.73C412,-193.71 412,-63 412,-63 412,-63 576.62,-63 576.62,-63 576.62,-63 576.62,-61.92 576.62,-61.92"/>
<polygon fill="black" stroke="black" points="580.12,-62.2 576.62,-52.2 573.12,-62.2 580.12,-62.2"/>
</g>
<!-- nasalib/numbers@prime_factorization -->
<g id="node8" class="node">
<title>nasalib/numbers@prime_factorization</title>
<ellipse fill="#e6f3ff" stroke="black" cx="169" cy="-189" rx="80.69" ry="18"/>
<text text-anchor="middle" x="169" y="-185.3" font-family="Times,serif" font-size="14.00">prime_factorization</text>
</g>
<!-- nasalib/numbers@infinite_primes&#45;&gt;nasalib/numbers@prime_factorization -->
<g id="edge10" class="edge">
<title>nasalib/numbers@infinite_primes&#45;&gt;nasalib/numbers@prime_factorization</title>
<path fill="none" stroke="black" d="M379.83,-245.1C379.83,-226.44 379.83,-198 379.83,-198 379.83,-198 248.91,-198 248.91,-198"/>
<polygon fill="black" stroke="black" points="248.91,-194.5 238.91,-198 248.91,-201.5 248.91,-194.5"/>
</g>
<!-- nasalib/numbers@infinite_primes&#45;&gt;nasalib/reals -->
<g id="edge11" class="edge">
<title>nasalib/numbers@infinite_primes&#45;&gt;nasalib/reals</title>
<path fill="none" stroke="black" d="M444.17,-245.14C444.17,-200.16 444.17,-75 444.17,-75 444.17,-75 654.71,-75 654.71,-75 654.71,-75 654.71,-62.1 654.71,-62.1"/>
<polygon fill="black" stroke="black" points="658.21,-62.1 654.71,-52.1 651.21,-62.1 658.21,-62.1"/>
</g>
<!-- nasalib/numbers@nat_list_enum -->
<g id="node7" class="node">
<title>nasalib/numbers@nat_list_enum</title>
<ellipse fill="#e6f3ff" stroke="black" cx="955" cy="-333" rx="61.19" ry="18"/>
<text text-anchor="middle" x="955" y="-329.3" font-family="Times,serif" font-size="14.00">nat_list_enum</text>
</g>
<!-- nasalib/numbers@nat_list_enum&#45;&gt;nasalib/reals -->
<g id="edge12" class="edge">
<title>nasalib/numbers@nat_list_enum&#45;&gt;nasalib/reals</title>
<path fill="none" stroke="black" d="M955,-314.83C955,-249.17 955,-28 955,-28 955,-28 711.2,-28 711.2,-28"/>
<polygon fill="black" stroke="black" points="711.2,-24.5 701.2,-28 711.2,-31.5 711.2,-24.5"/>
</g>
<!-- nasalib/numbers@prime_factorization&#45;&gt;nasalib/ints -->
<g id="edge13" class="edge">
<title>nasalib/numbers@prime_factorization&#45;&gt;nasalib/ints</title>
<path fill="none" stroke="black" d="M238.89,-180C355.77,-180 578.24,-180 578.24,-180 578.24,-180 578.24,-62.2 578.24,-62.2"/>
<polygon fill="black" stroke="black" points="581.74,-62.2 578.24,-52.2 574.74,-62.2 581.74,-62.2"/>
</g>
<!-- nasalib/numbers@product_perm_lems -->
<g id="node10" class="node">
<title>nasalib/numbers@product_perm_lems</title>
<ellipse fill="#e6f3ff" stroke="black" cx="169" cy="-117" rx="81.79" ry="18"/>
<text text-anchor="middle" x="169" y="-113.3" font-family="Times,serif" font-size="14.00">product_perm_lems</text>
</g>
<!-- nasalib/numbers@prime_factorization&#45;&gt;nasalib/numbers@product_perm_lems -->
<g id="edge14" class="edge">
<title>nasalib/numbers@prime_factorization&#45;&gt;nasalib/numbers@product_perm_lems</title>
<path fill="none" stroke="black" d="M169,-170.83C169,-170.83 169,-145.41 169,-145.41"/>
<polygon fill="black" stroke="black" points="172.5,-145.41 169,-135.41 165.5,-145.41 172.5,-145.41"/>
</g>
<!-- nasalib/numbers@prime_factorization&#45;&gt;nasalib/reals -->
<g id="edge15" class="edge">
<title>nasalib/numbers@prime_factorization&#45;&gt;nasalib/reals</title>
<path fill="none" stroke="black" d="M249.63,-189C393.11,-189 677.86,-189 677.86,-189 677.86,-189 677.86,-62.08 677.86,-62.08"/>
<polygon fill="black" stroke="black" points="681.36,-62.08 677.86,-52.08 674.36,-62.08 681.36,-62.08"/>
</g>
<!-- nasalib/numbers@primes_sum_squares -->
<g id="node9" class="node">
<title>nasalib/numbers@primes_sum_squares</title>
<ellipse fill="#e6f3ff" stroke="black" cx="245" cy="-261" rx="85.29" ry="18"/>
<text text-anchor="middle" x="245" y="-257.3" font-family="Times,serif" font-size="14.00">primes_sum_squares</text>
</g>
<!-- nasalib/numbers@primes_sum_squares&#45;&gt;nasalib/ints -->
<g id="edge16" class="edge">
<title>nasalib/numbers@primes_sum_squares&#45;&gt;nasalib/ints</title>
<path fill="none" stroke="black" d="M290.52,-245.65C290.52,-238.27 290.52,-231 290.52,-231 290.52,-231 581.49,-231 581.49,-231 581.49,-231 581.49,-62.18 581.49,-62.18"/>
<polygon fill="black" stroke="black" points="584.99,-62.18 581.49,-52.18 577.99,-62.18 584.99,-62.18"/>
</g>
<!-- nasalib/numbers@primes_sum_squares&#45;&gt;nasalib/numbers@prime_factorization -->
<g id="edge17" class="edge">
<title>nasalib/numbers@primes_sum_squares&#45;&gt;nasalib/numbers@prime_factorization</title>
<path fill="none" stroke="black" d="M204.73,-245.02C204.73,-245.02 204.73,-215.18 204.73,-215.18"/>
<polygon fill="black" stroke="black" points="208.23,-215.18 204.73,-205.18 201.23,-215.18 208.23,-215.18"/>
</g>
<!-- nasalib/numbers@product_perm_lems&#45;&gt;nasalib/reals -->
<g id="edge18" class="edge">
<title>nasalib/numbers@product_perm_lems&#45;&gt;nasalib/reals</title>
<path fill="none" stroke="black" d="M246.48,-123C387.15,-123 670.14,-123 670.14,-123 670.14,-123 670.14,-62.01 670.14,-62.01"/>
<polygon fill="black" stroke="black" points="673.64,-62.01 670.14,-52.01 666.64,-62.01 673.64,-62.01"/>
</g>
<!-- nasalib/structures -->
<g id="node16" class="node">
<title>nasalib/structures</title>
<polygon fill="#fcfcd7" stroke="black" points="556.5,-52 487.5,-52 487.5,-16 556.5,-16 556.5,-52"/>
<text text-anchor="middle" x="522" y="-30.3" font-family="Times,serif" font-size="14.00">structures</text>
</g>
<!-- nasalib/numbers@product_perm_lems&#45;&gt;nasalib/structures -->
<g id="edge19" class="edge">
<title>nasalib/numbers@product_perm_lems&#45;&gt;nasalib/structures</title>
<path fill="none" stroke="black" d="M246.34,-111C351.17,-111 525.43,-111 525.43,-111 525.43,-111 525.43,-62.25 525.43,-62.25"/>
<polygon fill="black" stroke="black" points="528.93,-62.25 525.43,-52.25 521.93,-62.25 528.93,-62.25"/>
</g>
<!-- nasalib/numbers@sqrt_two -->
<g id="node11" class="node">
<title>nasalib/numbers@sqrt_two</title>
<ellipse fill="#e6f3ff" stroke="black" cx="548" cy="-333" rx="41.69" ry="18"/>
<text text-anchor="middle" x="548" y="-329.3" font-family="Times,serif" font-size="14.00">sqrt_two</text>
</g>
<!-- nasalib/numbers@sqrt_two&#45;&gt;nasalib/ints -->
<g id="edge20" class="edge">
<title>nasalib/numbers@sqrt_two&#45;&gt;nasalib/ints</title>
<path fill="none" stroke="black" d="M586.35,-325.9C586.35,-325.9 586.35,-62.34 586.35,-62.34"/>
<polygon fill="black" stroke="black" points="589.85,-62.34 586.35,-52.34 582.85,-62.34 589.85,-62.34"/>
</g>
<!-- nasalib/numbers@sqrt_two&#45;&gt;nasalib/reals -->
<g id="edge21" class="edge">
<title>nasalib/numbers@sqrt_two&#45;&gt;nasalib/reals</title>
<path fill="none" stroke="black" d="M587.97,-327.86C587.97,-292.54 587.97,-87 587.97,-87 587.97,-87 662.43,-87 662.43,-87 662.43,-87 662.43,-62.24 662.43,-62.24"/>
<polygon fill="black" stroke="black" points="665.93,-62.24 662.43,-52.24 658.93,-62.24 665.93,-62.24"/>
</g>
<!-- nasalib/numbers@tuple2nat -->
<g id="node12" class="node">
<title>nasalib/numbers@tuple2nat</title>
<ellipse fill="#e6f3ff" stroke="black" cx="244" cy="-333" rx="43.59" ry="18"/>
<text text-anchor="middle" x="244" y="-329.3" font-family="Times,serif" font-size="14.00">tuple2nat</text>
</g>
<!-- nasalib/numbers@unique_factorization -->
<g id="node13" class="node">
<title>nasalib/numbers@unique_factorization</title>
<ellipse fill="#e6f3ff" stroke="black" cx="99" cy="-333" rx="83.39" ry="18"/>
<text text-anchor="middle" x="99" y="-329.3" font-family="Times,serif" font-size="14.00">unique_factorization</text>
</g>
<!-- nasalib/numbers@unique_factorization&#45;&gt;nasalib/numbers@prime_factorization -->
<g id="edge22" class="edge">
<title>nasalib/numbers@unique_factorization&#45;&gt;nasalib/numbers@prime_factorization</title>
<path fill="none" stroke="black" d="M141.08,-317.32C141.08,-317.32 141.08,-216 141.08,-216"/>
<polygon fill="black" stroke="black" points="144.58,-216 141.08,-206 137.58,-216 144.58,-216"/>
</g>
<!-- nasalib/numbers@unique_scaf -->
<g id="node14" class="node">
<title>nasalib/numbers@unique_scaf</title>
<ellipse fill="#e6f3ff" stroke="black" cx="69" cy="-261" rx="53.09" ry="18"/>
<text text-anchor="middle" x="69" y="-257.3" font-family="Times,serif" font-size="14.00">unique_scaf</text>
</g>
<!-- nasalib/numbers@unique_factorization&#45;&gt;nasalib/numbers@unique_scaf -->
<g id="edge23" class="edge">
<title>nasalib/numbers@unique_factorization&#45;&gt;nasalib/numbers@unique_scaf</title>
<path fill="none" stroke="black" d="M69.05,-315.94C69.05,-315.94 69.05,-289.2 69.05,-289.2"/>
<polygon fill="black" stroke="black" points="72.55,-289.2 69.05,-279.2 65.55,-289.2 72.55,-289.2"/>
</g>
<!-- nasalib/numbers@unique_scaf&#45;&gt;nasalib/ints -->
<g id="edge24" class="edge">
<title>nasalib/numbers@unique_scaf&#45;&gt;nasalib/ints</title>
<path fill="none" stroke="black" d="M111,-249.52C111,-237.09 111,-219 111,-219 111,-219 579.87,-219 579.87,-219 579.87,-219 579.87,-62.08 579.87,-62.08"/>
<polygon fill="black" stroke="black" points="583.37,-62.08 579.87,-52.08 576.37,-62.08 583.37,-62.08"/>
</g>
<!-- nasalib/numbers@unique_scaf&#45;&gt;nasalib/numbers@prime_factorization -->
<g id="edge25" class="edge">
<title>nasalib/numbers@unique_scaf&#45;&gt;nasalib/numbers@prime_factorization</title>
<path fill="none" stroke="black" d="M99.7,-246.08C99.7,-246.08 99.7,-208.41 99.7,-208.41"/>
<polygon fill="black" stroke="black" points="103.2,-208.41 99.7,-198.41 96.2,-208.41 103.2,-208.41"/>
</g>
<!-- nasalib/numbers@unique_scaf&#45;&gt;nasalib/numbers@product_perm_lems -->
<g id="edge26" class="edge">
<title>nasalib/numbers@unique_scaf&#45;&gt;nasalib/numbers@product_perm_lems</title>
<path fill="none" stroke="black" d="M63.31,-243.05C63.31,-204.45 63.31,-117 63.31,-117 63.31,-117 77.03,-117 77.03,-117"/>
<polygon fill="black" stroke="black" points="77.03,-120.5 87.03,-117 77.03,-113.5 77.03,-120.5"/>
</g>
<!-- nasalib/numbers@unique_scaf&#45;&gt;nasalib/structures -->
<g id="edge27" class="edge">
<title>nasalib/numbers@unique_scaf&#45;&gt;nasalib/structures</title>
<path fill="none" stroke="black" d="M39.51,-245.75C39.51,-194.86 39.51,-34 39.51,-34 39.51,-34 477.3,-34 477.3,-34"/>
<polygon fill="black" stroke="black" points="477.3,-37.5 487.3,-34 477.3,-30.5 477.3,-37.5"/>
</g>
</g>
</svg>
