<?xml version="1.0" encoding="UTF-8" standalone="no"?>
<!DOCTYPE svg PUBLIC "-//W3C//DTD SVG 1.1//EN"
 "http://www.w3.org/Graphics/SVG/1.1/DTD/svg11.dtd">
<!-- Generated by graphviz version 7.0.6 (20230106.0513)
 -->
<!-- Title: numbers Pages: 1 -->
<svg width="1002pt" height="1110pt"
 viewBox="0.00 0.00 1002.00 1110.00" xmlns="http://www.w3.org/2000/svg" xmlns:xlink="http://www.w3.org/1999/xlink">
<g id="graph0" class="graph" transform="scale(1 1) rotate(0) translate(4 1106)">
<title>numbers</title>
<polygon fill="white" stroke="none" points="-4,4 -4,-1106 998,-1106 998,4 -4,4"/>
<g id="clust1" class="cluster">
<title>cluster_NASALib</title>
<polygon fill="none" stroke="black" points="8,-8 8,-1094 890,-1094 890,-8 8,-8"/>
<text text-anchor="middle" x="449" y="-1078.8" font-family="Times,serif" font-size="14.00">NASALib</text>
</g>
<g id="clust2" class="cluster">
<title>cluster_PVS Prelude</title>
<polygon fill="none" stroke="black" points="898,-8 898,-83 986,-83 986,-8 898,-8"/>
<text text-anchor="middle" x="942" y="-67.8" font-family="Times,serif" font-size="14.00">PVS Prelude</text>
</g>
<!-- NASALib/PVS0 -->
<g id="node1" class="node">
<title>NASALib/PVS0</title>
<polygon fill="#fcfcd7" stroke="black" points="817,-919 763,-919 763,-883 817,-883 817,-919"/>
<text text-anchor="middle" x="790" y="-897.3" font-family="Times,serif" font-size="14.00">PVS0</text>
</g>
<!-- NASALib/numbers -->
<g id="node11" class="node">
<title>NASALib/numbers</title>
<polygon fill="#f7e28d" stroke="black" points="822,-847 758,-847 758,-811 822,-811 822,-847"/>
<text text-anchor="middle" x="790" y="-825.3" font-family="Times,serif" font-size="14.00">numbers</text>
</g>
<!-- NASALib/PVS0&#45;&gt;NASALib/numbers -->
<g id="edge1" class="edge">
<title>NASALib/PVS0&#45;&gt;NASALib/numbers</title>
<path fill="none" stroke="black" d="M790,-882.7C790,-875.41 790,-866.73 790,-858.54"/>
<polygon fill="black" stroke="black" points="793.5,-858.62 790,-848.62 786.5,-858.62 793.5,-858.62"/>
</g>
<!-- NASALib/orders -->
<g id="node12" class="node">
<title>NASALib/orders</title>
<polygon fill="#fcfcd7" stroke="black" points="600,-199 546,-199 546,-163 600,-163 600,-199"/>
<text text-anchor="middle" x="573" y="-177.3" font-family="Times,serif" font-size="14.00">orders</text>
</g>
<!-- NASALib/PVS0&#45;&gt;NASALib/orders -->
<g id="edge2" class="edge">
<title>NASALib/PVS0&#45;&gt;NASALib/orders</title>
<path fill="none" stroke="black" d="M779,-252C779,-252 670.79,-215.23 611.22,-194.99"/>
<polygon fill="black" stroke="black" points="612.38,-191.69 601.79,-191.78 610.13,-198.31 612.38,-191.69"/>
<path fill="none" stroke="black" d="M769,-468C769,-468 779,-254 779,-254"/>
<path fill="none" stroke="black" d="M759,-540C759,-540 769,-470 769,-470"/>
</g>
<!-- NASALib/sets_aux -->
<g id="node17" class="node">
<title>NASALib/sets_aux</title>
<polygon fill="#fcfcd7" stroke="black" points="629.5,-415 566.5,-415 566.5,-379 629.5,-379 629.5,-415"/>
<text text-anchor="middle" x="598" y="-393.3" font-family="Times,serif" font-size="14.00">sets_aux</text>
</g>
<!-- NASALib/PVS0&#45;&gt;NASALib/sets_aux -->
<g id="edge3" class="edge">
<title>NASALib/PVS0&#45;&gt;NASALib/sets_aux</title>
<path fill="none" stroke="black" d="M776.58,-882.65C764.62,-867.19 749,-847 749,-847 749,-847 749,-811 749,-811 749,-811 759,-542 759,-542"/>
<path fill="none" stroke="black" d="M759,-540C759,-540 719,-470 719,-470"/>
</g>
<!-- NASALib/structures -->
<g id="node19" class="node">
<title>NASALib/structures</title>
<polygon fill="#fcfcd7" stroke="black" points="607.5,-127 538.5,-127 538.5,-91 607.5,-91 607.5,-127"/>
<text text-anchor="middle" x="573" y="-105.3" font-family="Times,serif" font-size="14.00">structures</text>
</g>
<!-- NASALib/PVS0&#45;&gt;NASALib/structures -->
<g id="edge4" class="edge">
<title>NASALib/PVS0&#45;&gt;NASALib/structures</title>
<path fill="none" stroke="black" d="M803.42,-882.65C815.38,-867.19 831,-847 831,-847 831,-847 831,-811 831,-811 831,-811 824,-235 824,-235 824,-235 799,-182 799,-182"/>
</g>
<!-- lib/finite_sets -->
<g id="node24" class="node">
<title>lib/finite_sets</title>
<polygon fill="#fcfcd7" stroke="black" points="978,-52 906,-52 906,-16 978,-16 978,-52"/>
<text text-anchor="middle" x="942" y="-30.3" font-family="Times,serif" font-size="14.00">finite_sets</text>
</g>
<!-- NASALib/PVS0&#45;&gt;lib/finite_sets -->
<g id="edge5" class="edge">
<title>NASALib/PVS0&#45;&gt;lib/finite_sets</title>
<path fill="none" stroke="black" d="M817.23,-884.12C852.63,-863.46 910,-830 910,-830"/>
</g>
<!-- NASALib/algebra -->
<g id="node2" class="node">
<title>NASALib/algebra</title>
<polygon fill="#fcfcd7" stroke="black" points="700,-919 644,-919 644,-883 700,-883 700,-919"/>
<text text-anchor="middle" x="672" y="-897.3" font-family="Times,serif" font-size="14.00">algebra</text>
</g>
<!-- NASALib/ints -->
<g id="node6" class="node">
<title>NASALib/ints</title>
<polygon fill="#fcfcd7" stroke="black" points="600,-52 546,-52 546,-16 600,-16 600,-52"/>
<text text-anchor="middle" x="573" y="-30.3" font-family="Times,serif" font-size="14.00">ints</text>
</g>
<!-- NASALib/algebra&#45;&gt;NASALib/ints -->
<g id="edge6" class="edge">
<title>NASALib/algebra&#45;&gt;NASALib/ints</title>
<path fill="none" stroke="black" d="M467,-108C467,-108 507.45,-80.14 538.37,-58.85"/>
<polygon fill="black" stroke="black" points="540.11,-61.9 546.36,-53.34 536.14,-56.13 540.11,-61.9"/>
<path fill="none" stroke="black" d="M210,-180C210,-180 225,-163 225,-163 225,-163 467,-110 467,-110"/>
<path fill="none" stroke="black" d="M98,-324C98,-324 210,-182 210,-182"/>
<path fill="none" stroke="black" d="M643.69,-889.82C531.48,-849.48 124,-703 124,-703 124,-703 57,-614 57,-614"/>
<path fill="none" stroke="black" d="M57,-612C57,-612 62,-379 62,-379 62,-379 98,-326 98,-326"/>
</g>
<!-- NASALib/algebra&#45;&gt;NASALib/numbers -->
<g id="edge7" class="edge">
<title>NASALib/algebra&#45;&gt;NASALib/numbers</title>
<path fill="none" stroke="black" d="M700.26,-883.23C715.54,-874.17 734.63,-862.85 751.27,-852.98"/>
<polygon fill="black" stroke="black" points="752.62,-856.25 759.43,-848.13 749.05,-850.23 752.62,-856.25"/>
</g>
<!-- NASALib/reals -->
<g id="node14" class="node">
<title>NASALib/reals</title>
<polygon fill="#fcfcd7" stroke="black" points="489,-775 435,-775 435,-739 489,-739 489,-775"/>
<text text-anchor="middle" x="462" y="-753.3" font-family="Times,serif" font-size="14.00">reals</text>
</g>
<!-- NASALib/algebra&#45;&gt;NASALib/reals -->
<g id="edge8" class="edge">
<title>NASALib/algebra&#45;&gt;NASALib/reals</title>
<path fill="none" stroke="black" d="M659,-828C659,-828 557.51,-791.94 500.22,-771.58"/>
<polygon fill="black" stroke="black" points="501.41,-768.29 490.82,-768.24 499.07,-774.89 501.41,-768.29"/>
<path fill="none" stroke="black" d="M668.79,-882.7C664.94,-861.97 659,-830 659,-830"/>
</g>
<!-- NASALib/sigma_set -->
<g id="node18" class="node">
<title>NASALib/sigma_set</title>
<polygon fill="#fcfcd7" stroke="black" points="637.5,-487 566.5,-487 566.5,-451 637.5,-451 637.5,-487"/>
<text text-anchor="middle" x="602" y="-465.3" font-family="Times,serif" font-size="14.00">sigma_set</text>
</g>
<!-- NASALib/algebra&#45;&gt;NASALib/sigma_set -->
<g id="edge9" class="edge">
<title>NASALib/algebra&#45;&gt;NASALib/sigma_set</title>
<path fill="none" stroke="black" d="M659,-828C659,-828 644,-595 644,-595 644,-595 635,-523 635,-523 635,-523 626.86,-509.93 618.67,-496.77"/>
<polygon fill="black" stroke="black" points="621.86,-495.28 613.61,-488.64 615.92,-498.98 621.86,-495.28"/>
</g>
<!-- NASALib/algebra&#45;&gt;NASALib/structures -->
<g id="edge10" class="edge">
<title>NASALib/algebra&#45;&gt;NASALib/structures</title>
<path fill="none" stroke="black" d="M677.89,-882.77C692.07,-841.24 727,-739 727,-739 727,-739 799,-614 799,-614"/>
<path fill="none" stroke="black" d="M799,-612C799,-612 799,-542 799,-542"/>
</g>
<!-- NASALib/algebra&#45;&gt;lib/finite_sets -->
<g id="edge11" class="edge">
<title>NASALib/algebra&#45;&gt;lib/finite_sets</title>
<path fill="none" stroke="black" d="M910,-828C910,-828 889,-542 889,-542"/>
<path fill="none" stroke="black" d="M700.25,-888.57C707.85,-885.49 714,-883 714,-883 714,-883 910,-830 910,-830"/>
</g>
<!-- NASALib/analysis -->
<g id="node3" class="node">
<title>NASALib/analysis</title>
<polygon fill="#fcfcd7" stroke="black" points="448,-271 388,-271 388,-235 448,-235 448,-271"/>
<text text-anchor="middle" x="418" y="-249.3" font-family="Times,serif" font-size="14.00">analysis</text>
</g>
<!-- NASALib/analysis&#45;&gt;NASALib/ints -->
<g id="edge12" class="edge">
<title>NASALib/analysis&#45;&gt;NASALib/ints</title>
<path fill="none" stroke="black" d="M430.11,-234.7C444.62,-213.97 467,-182 467,-182"/>
<path fill="none" stroke="black" d="M467,-180C467,-180 467,-110 467,-110"/>
</g>
<!-- NASALib/analysis&#45;&gt;NASALib/orders -->
<g id="edge13" class="edge">
<title>NASALib/analysis&#45;&gt;NASALib/orders</title>
<path fill="none" stroke="black" d="M448.25,-238.34C473.22,-227.06 508.76,-211.01 535.53,-198.92"/>
<polygon fill="black" stroke="black" points="536.63,-202.27 544.3,-194.96 533.74,-195.89 536.63,-202.27"/>
</g>
<!-- NASALib/analysis&#45;&gt;NASALib/reals -->
<g id="edge14" class="edge">
<title>NASALib/analysis&#45;&gt;NASALib/reals</title>
<path fill="none" stroke="black" d="M448.49,-267.49C528.62,-302.93 739,-396 739,-396 739,-470 739,-470 739,-470 739,-470 724,-559 724,-559 724,-559 663,-631 663,-631 663,-631 585,-703 585,-703 585,-703 535.74,-724.23 499.57,-739.81"/>
<polygon fill="black" stroke="black" points="498.49,-736.47 490.69,-743.64 501.26,-742.9 498.49,-736.47"/>
</g>
<!-- NASALib/analysis&#45;&gt;NASALib/structures -->
<g id="edge15" class="edge">
<title>NASALib/analysis&#45;&gt;NASALib/structures</title>
<path fill="none" stroke="black" d="M445.22,-234.52C477.51,-213.78 527,-182 527,-182"/>
<path fill="none" stroke="black" d="M527,-180C527,-180 537,-163 537,-163 537,-163 545.88,-149.93 554.82,-136.77"/>
<polygon fill="black" stroke="black" points="557.64,-138.84 560.36,-128.61 551.85,-134.91 557.64,-138.84"/>
</g>
<!-- NASALib/analysis&#45;&gt;lib/finite_sets -->
<g id="edge16" class="edge">
<title>NASALib/analysis&#45;&gt;lib/finite_sets</title>
<path fill="none" stroke="black" d="M448.34,-248.48C550.41,-236.64 875,-199 875,-199 875,-199 889,-182 889,-182"/>
<path fill="none" stroke="black" d="M889,-180C889,-180 889,-110 889,-110"/>
</g>
<!-- NASALib/complex -->
<g id="node4" class="node">
<title>NASALib/complex</title>
<polygon fill="#fcfcd7" stroke="black" points="411,-991 347,-991 347,-955 411,-955 411,-991"/>
<text text-anchor="middle" x="379" y="-969.3" font-family="Times,serif" font-size="14.00">complex</text>
</g>
<!-- NASALib/complex&#45;&gt;NASALib/algebra -->
<g id="edge17" class="edge">
<title>NASALib/complex&#45;&gt;NASALib/algebra</title>
<path fill="none" stroke="black" d="M411.48,-964.24C465.67,-951.29 574.36,-925.33 632.75,-911.38"/>
<polygon fill="black" stroke="black" points="633.35,-914.83 642.26,-909.11 631.72,-908.02 633.35,-914.83"/>
</g>
<!-- NASALib/lnexp -->
<g id="node8" class="node">
<title>NASALib/lnexp</title>
<polygon fill="#fcfcd7" stroke="black" points="237,-415 183,-415 183,-379 237,-379 237,-415"/>
<text text-anchor="middle" x="210" y="-393.3" font-family="Times,serif" font-size="14.00">lnexp</text>
</g>
<!-- NASALib/complex&#45;&gt;NASALib/lnexp -->
<g id="edge18" class="edge">
<title>NASALib/complex&#45;&gt;NASALib/lnexp</title>
<path fill="none" stroke="black" d="M77,-828C77,-828 201,-487 201,-487 201,-487 204.5,-452.42 207.13,-426.37"/>
<polygon fill="black" stroke="black" points="210.59,-426.97 208.11,-416.67 203.62,-426.26 210.59,-426.97"/>
</g>
<!-- NASALib/complex&#45;&gt;NASALib/reals -->
<g id="edge19" class="edge">
<title>NASALib/complex&#45;&gt;NASALib/reals</title>
<path fill="none" stroke="black" d="M117,-900C117,-900 334.52,-810.47 424.12,-773.59"/>
<polygon fill="black" stroke="black" points="425.33,-776.88 433.24,-769.84 422.66,-770.41 425.33,-776.88"/>
</g>
<!-- NASALib/trig -->
<g id="node21" class="node">
<title>NASALib/trig</title>
<polygon fill="#fcfcd7" stroke="black" points="125,-415 71,-415 71,-379 125,-379 125,-415"/>
<text text-anchor="middle" x="98" y="-393.3" font-family="Times,serif" font-size="14.00">trig</text>
</g>
<!-- NASALib/complex&#45;&gt;NASALib/trig -->
<g id="edge20" class="edge">
<title>NASALib/complex&#45;&gt;NASALib/trig</title>
<path fill="none" stroke="black" d="M117,-900C117,-900 77,-830 77,-830"/>
<path fill="none" stroke="black" d="M346.61,-963.35C276.51,-944.62 117,-902 117,-902"/>
<path fill="none" stroke="black" d="M77,-828C77,-828 94,-451 94,-451 94,-451 94.89,-439.17 95.84,-426.68"/>
<polygon fill="black" stroke="black" points="99.31,-427.1 96.58,-416.86 92.33,-426.57 99.31,-427.1"/>
</g>
<!-- NASALib/extended_nnreal -->
<g id="node5" class="node">
<title>NASALib/extended_nnreal</title>
<polygon fill="#fcfcd7" stroke="black" points="560,-559 454,-559 454,-523 560,-523 560,-559"/>
<text text-anchor="middle" x="507" y="-537.3" font-family="Times,serif" font-size="14.00">extended_nnreal</text>
</g>
<!-- NASALib/extended_nnreal&#45;&gt;NASALib/analysis -->
<g id="edge21" class="edge">
<title>NASALib/extended_nnreal&#45;&gt;NASALib/analysis</title>
<path fill="none" stroke="black" d="M502.1,-522.59C491.41,-484.67 467,-398 467,-398"/>
</g>
<!-- NASALib/extended_nnreal&#45;&gt;NASALib/reals -->
<g id="edge22" class="edge">
<title>NASALib/extended_nnreal&#45;&gt;NASALib/reals</title>
<path fill="none" stroke="black" d="M639,-614C639,-614 624,-631 624,-631 624,-631 529.04,-704.27 484.53,-738.62"/>
<path fill="none" stroke="black" d="M545.31,-559.35C579.43,-574.81 624,-595 624,-595 624,-595 627.75,-599.25 631.5,-603.5"/>
<polygon fill="black" stroke="black" points="628.76,-605.68 638,-610.87 634.01,-601.05 628.76,-605.68"/>
</g>
<!-- NASALib/series -->
<g id="node16" class="node">
<title>NASALib/series</title>
<polygon fill="#fcfcd7" stroke="black" points="336,-343 282,-343 282,-307 336,-307 336,-343"/>
<text text-anchor="middle" x="309" y="-321.3" font-family="Times,serif" font-size="14.00">series</text>
</g>
<!-- NASALib/extended_nnreal&#45;&gt;NASALib/series -->
<g id="edge23" class="edge">
<title>NASALib/extended_nnreal&#45;&gt;NASALib/series</title>
<path fill="none" stroke="black" d="M493.31,-522.84C472.68,-496.98 436,-451 436,-451 436,-451 371.66,-387.67 334.57,-351.16"/>
<polygon fill="black" stroke="black" points="337.32,-348.96 327.74,-344.44 332.41,-353.95 337.32,-348.96"/>
</g>
<!-- NASALib/extended_nnreal&#45;&gt;NASALib/sigma_set -->
<g id="edge24" class="edge">
<title>NASALib/extended_nnreal&#45;&gt;NASALib/sigma_set</title>
<path fill="none" stroke="black" d="M530.48,-522.7C542.24,-514.03 556.67,-503.4 569.48,-493.96"/>
<polygon fill="black" stroke="black" points="571.26,-496.99 577.24,-488.24 567.11,-491.36 571.26,-496.99"/>
</g>
<!-- NASALib/lebesgue -->
<g id="node7" class="node">
<title>NASALib/lebesgue</title>
<polygon fill="#fcfcd7" stroke="black" points="494,-703 430,-703 430,-667 494,-667 494,-703"/>
<text text-anchor="middle" x="462" y="-681.3" font-family="Times,serif" font-size="14.00">lebesgue</text>
</g>
<!-- NASALib/lebesgue&#45;&gt;NASALib/analysis -->
<g id="edge25" class="edge">
<title>NASALib/lebesgue&#45;&gt;NASALib/analysis</title>
<path fill="none" stroke="black" d="M619,-612C619,-612 569,-523 569,-523 569,-523 522,-487 522,-487 522,-487 467,-326 467,-326"/>
</g>
<!-- NASALib/lebesgue&#45;&gt;NASALib/extended_nnreal -->
<g id="edge26" class="edge">
<title>NASALib/lebesgue&#45;&gt;NASALib/extended_nnreal</title>
<path fill="none" stroke="black" d="M619,-612C619,-612 577.24,-585.9 544.71,-565.57"/>
<polygon fill="black" stroke="black" points="546.59,-562.62 536.26,-560.29 542.88,-568.55 546.59,-562.62"/>
</g>
<!-- NASALib/measure_integration -->
<g id="node9" class="node">
<title>NASALib/measure_integration</title>
<polygon fill="#fcfcd7" stroke="black" points="542,-631 414,-631 414,-595 542,-595 542,-631"/>
<text text-anchor="middle" x="478" y="-609.3" font-family="Times,serif" font-size="14.00">measure_integration</text>
</g>
<!-- NASALib/lebesgue&#45;&gt;NASALib/measure_integration -->
<g id="edge27" class="edge">
<title>NASALib/lebesgue&#45;&gt;NASALib/measure_integration</title>
<path fill="none" stroke="black" d="M465.96,-666.7C467.64,-659.32 469.65,-650.52 471.54,-642.25"/>
<polygon fill="black" stroke="black" points="474.94,-643.11 473.75,-632.58 468.11,-641.55 474.94,-643.11"/>
</g>
<!-- NASALib/metric_space -->
<g id="node10" class="node">
<title>NASALib/metric_space</title>
<polygon fill="#fcfcd7" stroke="black" points="375.5,-559 286.5,-559 286.5,-523 375.5,-523 375.5,-559"/>
<text text-anchor="middle" x="331" y="-537.3" font-family="Times,serif" font-size="14.00">metric_space</text>
</g>
<!-- NASALib/lebesgue&#45;&gt;NASALib/metric_space -->
<g id="edge28" class="edge">
<title>NASALib/lebesgue&#45;&gt;NASALib/metric_space</title>
<path fill="none" stroke="black" d="M443.34,-666.65C426.71,-651.19 405,-631 405,-631 405,-631 374.41,-594.21 352.57,-567.94"/>
<polygon fill="black" stroke="black" points="355.32,-565.78 346.24,-560.32 349.94,-570.25 355.32,-565.78"/>
</g>
<!-- NASALib/power -->
<g id="node13" class="node">
<title>NASALib/power</title>
<polygon fill="#fcfcd7" stroke="black" points="304,-487 250,-487 250,-451 304,-451 304,-487"/>
<text text-anchor="middle" x="277" y="-465.3" font-family="Times,serif" font-size="14.00">power</text>
</g>
<!-- NASALib/lebesgue&#45;&gt;NASALib/power -->
<g id="edge29" class="edge">
<title>NASALib/lebesgue&#45;&gt;NASALib/power</title>
<path fill="none" stroke="black" d="M432.86,-666.65C406.9,-651.19 373,-631 373,-631 373,-631 262,-559 262,-559 262,-559 262,-523 262,-523 262,-523 265.42,-510.92 268.99,-498.3"/>
<polygon fill="black" stroke="black" points="272.32,-499.39 271.68,-488.81 265.59,-497.48 272.32,-499.39"/>
</g>
<!-- NASALib/lebesgue&#45;&gt;NASALib/sets_aux -->
<g id="edge31" class="edge">
<title>NASALib/lebesgue&#45;&gt;NASALib/sets_aux</title>
<path fill="none" stroke="black" d="M719,-540C719,-540 719,-470 719,-470"/>
<path fill="none" stroke="black" d="M619,-612C619,-612 634,-595 634,-595 634,-595 719,-542 719,-542"/>
<path fill="none" stroke="black" d="M719,-468C719,-468 673.1,-441.44 637.84,-421.05"/>
<polygon fill="black" stroke="black" points="639.94,-418.22 629.53,-416.24 636.43,-424.28 639.94,-418.22"/>
</g>
<!-- NASALib/lebesgue&#45;&gt;NASALib/sigma_set -->
<g id="edge32" class="edge">
<title>NASALib/lebesgue&#45;&gt;NASALib/sigma_set</title>
<path fill="none" stroke="black" d="M619,-612C619,-612 624,-559 624,-559 624,-559 624,-523 624,-523 624,-523 618.89,-510.68 613.59,-497.92"/>
<polygon fill="black" stroke="black" points="616.85,-496.65 609.78,-488.75 610.39,-499.33 616.85,-496.65"/>
</g>
<!-- NASALib/lebesgue&#45;&gt;NASALib/structures -->
<g id="edge33" class="edge">
<title>NASALib/lebesgue&#45;&gt;NASALib/structures</title>
<path fill="none" stroke="black" d="M619,-612C619,-612 584,-523 584,-523 584,-523 558,-487 558,-487 558,-487 527,-398 527,-398 527,-398 527,-398 527,-324 527,-324 527,-182 527,-182"/>
</g>
<!-- NASALib/topology -->
<g id="node20" class="node">
<title>NASALib/topology</title>
<polygon fill="#fcfcd7" stroke="black" points="427.5,-487 362.5,-487 362.5,-451 427.5,-451 427.5,-487"/>
<text text-anchor="middle" x="395" y="-465.3" font-family="Times,serif" font-size="14.00">topology</text>
</g>
<!-- NASALib/lebesgue&#45;&gt;NASALib/topology -->
<g id="edge34" class="edge">
<title>NASALib/lebesgue&#45;&gt;NASALib/topology</title>
<path fill="none" stroke="black" d="M619,-612C619,-612 445,-559 445,-559 445,-559 415,-542 415,-542"/>
<path fill="none" stroke="black" d="M494.15,-669.67C540.08,-649.19 619,-614 619,-614"/>
</g>
<!-- NASALib/lnexp&#45;&gt;NASALib/analysis -->
<g id="edge35" class="edge">
<title>NASALib/lnexp&#45;&gt;NASALib/analysis</title>
<path fill="none" stroke="black" d="M210,-324C210,-324 316.41,-288.19 377.01,-267.8"/>
<polygon fill="black" stroke="black" points="377.96,-271.17 386.32,-264.66 375.73,-264.53 377.96,-271.17"/>
</g>
<!-- NASALib/lnexp&#45;&gt;NASALib/ints -->
<g id="edge36" class="edge">
<title>NASALib/lnexp&#45;&gt;NASALib/ints</title>
<path fill="none" stroke="black" d="M210,-378.7C210,-357.97 210,-326 210,-326"/>
<path fill="none" stroke="black" d="M210,-324C210,-324 210,-182 210,-182"/>
</g>
<!-- NASALib/lnexp&#45;&gt;NASALib/reals -->
<g id="edge37" class="edge">
<title>NASALib/lnexp&#45;&gt;NASALib/reals</title>
<path fill="none" stroke="black" d="M227,-542C227,-542 227,-684 227,-684"/>
<path fill="none" stroke="black" d="M231,-470C231,-470 227,-540 227,-540"/>
<path fill="none" stroke="black" d="M215.19,-415.3C219.13,-428.42 224.41,-446.04 227.76,-457.21"/>
<polygon fill="black" stroke="black" points="224.34,-457.98 230.57,-466.55 231.04,-455.97 224.34,-457.98"/>
</g>
<!-- NASALib/lnexp&#45;&gt;NASALib/series -->
<g id="edge38" class="edge">
<title>NASALib/lnexp&#45;&gt;NASALib/series</title>
<path fill="none" stroke="black" d="M234.73,-378.52C246.99,-369.85 261.98,-359.25 275.27,-349.85"/>
<polygon fill="black" stroke="black" points="277.21,-352.77 283.35,-344.13 273.17,-347.05 277.21,-352.77"/>
</g>
<!-- NASALib/measure_integration&#45;&gt;NASALib/extended_nnreal -->
<g id="edge39" class="edge">
<title>NASALib/measure_integration&#45;&gt;NASALib/extended_nnreal</title>
<path fill="none" stroke="black" d="M485.17,-594.7C488.29,-587.15 492.04,-578.12 495.53,-569.68"/>
<polygon fill="black" stroke="black" points="498.74,-571.08 499.33,-560.5 492.27,-568.4 498.74,-571.08"/>
</g>
<!-- NASALib/measure_integration&#45;&gt;NASALib/metric_space -->
<g id="edge40" class="edge">
<title>NASALib/measure_integration&#45;&gt;NASALib/metric_space</title>
<path fill="none" stroke="black" d="M441.28,-594.52C422.09,-585.38 398.4,-574.09 377.89,-564.33"/>
<polygon fill="black" stroke="black" points="379.4,-561.17 368.87,-560.03 376.39,-567.49 379.4,-561.17"/>
</g>
<!-- NASALib/measure_integration&#45;&gt;NASALib/orders -->
<g id="edge41" class="edge">
<title>NASALib/measure_integration&#45;&gt;NASALib/orders</title>
<path fill="none" stroke="black" d="M435,-540C435,-540 529.86,-293.92 562.28,-209.8"/>
<polygon fill="black" stroke="black" points="565.47,-211.27 565.8,-200.68 558.94,-208.75 565.47,-211.27"/>
<path fill="none" stroke="black" d="M467.19,-594.65C457.57,-579.19 445,-559 445,-559 445,-559 435,-542 435,-542"/>
</g>
<!-- NASALib/measure_integration&#45;&gt;NASALib/power -->
<g id="edge42" class="edge">
<title>NASALib/measure_integration&#45;&gt;NASALib/power</title>
<path fill="none" stroke="black" d="M267,-540C267,-540 270.16,-517.87 272.93,-498.5"/>
<polygon fill="black" stroke="black" points="276.36,-499.2 274.31,-488.8 269.43,-498.21 276.36,-499.2"/>
<path fill="none" stroke="black" d="M413.57,-595.01C354.78,-579.51 277,-559 277,-559 277,-559 267,-542 267,-542"/>
</g>
<!-- NASALib/measure_integration&#45;&gt;NASALib/reals -->
<g id="edge43" class="edge">
<title>NASALib/measure_integration&#45;&gt;NASALib/reals</title>
<path fill="none" stroke="black" d="M457.48,-631.3C440.2,-645.88 416.33,-666.01 403.68,-676.68"/>
<polygon fill="black" stroke="black" points="401.54,-673.9 396.16,-683.02 406.06,-679.25 401.54,-673.9"/>
</g>
<!-- NASALib/measure_integration&#45;&gt;NASALib/series -->
<g id="edge44" class="edge">
<title>NASALib/measure_integration&#45;&gt;NASALib/series</title>
<path fill="none" stroke="black" d="M267,-540C267,-540 277,-523 277,-523 277,-523 313,-487 313,-487 313,-487 329,-398 329,-398"/>
<path fill="none" stroke="black" d="M329,-396C329,-396 322.62,-373.66 317.06,-354.22"/>
<polygon fill="black" stroke="black" points="320.47,-353.41 314.36,-344.76 313.74,-355.34 320.47,-353.41"/>
</g>
<!-- NASALib/measure_integration&#45;&gt;NASALib/sets_aux -->
<g id="edge45" class="edge">
<title>NASALib/measure_integration&#45;&gt;NASALib/sets_aux</title>
<path fill="none" stroke="black" d="M435,-540C435,-540 445,-523 445,-523 445,-523 523.5,-458.87 568.04,-422.48"/>
<polygon fill="black" stroke="black" points="570.02,-425.38 575.55,-416.34 565.6,-419.95 570.02,-425.38"/>
</g>
<!-- NASALib/measure_integration&#45;&gt;NASALib/sigma_set -->
<g id="edge46" class="edge">
<title>NASALib/measure_integration&#45;&gt;NASALib/sigma_set</title>
<path fill="none" stroke="black" d="M507.8,-594.65C534.34,-579.19 569,-559 569,-559 569,-559 582.05,-523.8 591.74,-497.67"/>
<polygon fill="black" stroke="black" points="594.92,-499.17 595.11,-488.58 588.35,-496.74 594.92,-499.17"/>
</g>
<!-- NASALib/measure_integration&#45;&gt;NASALib/structures -->
<g id="edge47" class="edge">
<title>NASALib/measure_integration&#45;&gt;NASALib/structures</title>
<path fill="none" stroke="black" d="M230,-180C230,-180 433.68,-138.43 527.13,-119.36"/>
<polygon fill="black" stroke="black" points="527.64,-122.83 536.74,-117.4 526.24,-115.97 527.64,-122.83"/>
<path fill="none" stroke="black" d="M413.78,-596.24C350.11,-580.62 262,-559 262,-559 262,-559 127,-487 127,-487 127,-487 127,-451 127,-451 127,-451 201,-235 201,-235 201,-235 230,-182 230,-182"/>
</g>
<!-- NASALib/measure_integration&#45;&gt;NASALib/topology -->
<g id="edge48" class="edge">
<title>NASALib/measure_integration&#45;&gt;NASALib/topology</title>
<path fill="none" stroke="black" d="M415,-540C415,-540 408.62,-517.66 403.06,-498.22"/>
<polygon fill="black" stroke="black" points="406.47,-497.41 400.36,-488.76 399.74,-499.34 406.47,-497.41"/>
<path fill="none" stroke="black" d="M462.28,-594.65C448.28,-579.19 430,-559 430,-559 430,-559 415,-542 415,-542"/>
</g>
<!-- NASALib/measure_integration&#45;&gt;lib/finite_sets -->
<g id="edge49" class="edge">
<title>NASALib/measure_integration&#45;&gt;lib/finite_sets</title>
<path fill="none" stroke="black" d="M889,-540C889,-540 889,-470 889,-470"/>
<path fill="none" stroke="black" d="M542.23,-603.43C654.59,-588.43 875,-559 875,-559 875,-559 889,-542 889,-542"/>
</g>
<!-- NASALib/metric_space&#45;&gt;NASALib/analysis -->
<g id="edge50" class="edge">
<title>NASALib/metric_space&#45;&gt;NASALib/analysis</title>
<path fill="none" stroke="black" d="M467,-324C467,-324 450.47,-300.39 436.62,-280.6"/>
<polygon fill="black" stroke="black" points="439.58,-278.73 430.98,-272.54 433.85,-282.74 439.58,-278.73"/>
<path fill="none" stroke="black" d="M467,-396C467,-396 467,-326 467,-326"/>
<path fill="none" stroke="black" d="M343,-468C343,-468 353,-451 353,-451 353,-451 467,-398 467,-398"/>
</g>
<!-- NASALib/metric_space&#45;&gt;NASALib/power -->
<g id="edge51" class="edge">
<title>NASALib/metric_space&#45;&gt;NASALib/power</title>
<path fill="none" stroke="black" d="M317.65,-522.7C311.44,-514.64 303.92,-504.89 297.04,-495.98"/>
<polygon fill="black" stroke="black" points="300,-494.08 291.12,-488.3 294.46,-498.36 300,-494.08"/>
</g>
<!-- NASALib/metric_space&#45;&gt;NASALib/series -->
<g id="edge53" class="edge">
<title>NASALib/metric_space&#45;&gt;NASALib/series</title>
<path fill="none" stroke="black" d="M333.97,-522.7C337.52,-501.97 343,-470 343,-470"/>
<path fill="none" stroke="black" d="M343,-468C343,-468 329,-398 329,-398"/>
</g>
<!-- NASALib/metric_space&#45;&gt;NASALib/sets_aux -->
<g id="edge54" class="edge">
<title>NASALib/metric_space&#45;&gt;NASALib/sets_aux</title>
<path fill="none" stroke="black" d="M343,-468C343,-468 353,-451 353,-451 353,-451 552,-415 552,-415 552,-415 553.36,-414.5 555.62,-413.66"/>
<polygon fill="black" stroke="black" points="556.47,-417.08 564.63,-410.33 554.04,-410.52 556.47,-417.08"/>
</g>
<!-- NASALib/metric_space&#45;&gt;NASALib/topology -->
<g id="edge55" class="edge">
<title>NASALib/metric_space&#45;&gt;NASALib/topology</title>
<path fill="none" stroke="black" d="M346.82,-522.7C354.34,-514.47 363.47,-504.48 371.76,-495.42"/>
<polygon fill="black" stroke="black" points="374.18,-497.96 378.34,-488.22 369.01,-493.24 374.18,-497.96"/>
</g>
<!-- NASALib/vectors -->
<g id="node22" class="node">
<title>NASALib/vectors</title>
<polygon fill="#fcfcd7" stroke="black" points="192,-487 136,-487 136,-451 192,-451 192,-487"/>
<text text-anchor="middle" x="164" y="-465.3" font-family="Times,serif" font-size="14.00">vectors</text>
</g>
<!-- NASALib/metric_space&#45;&gt;NASALib/vectors -->
<g id="edge56" class="edge">
<title>NASALib/metric_space&#45;&gt;NASALib/vectors</title>
<path fill="none" stroke="black" d="M289.29,-522.52C262.83,-511.43 228.83,-497.17 202.92,-486.32"/>
<polygon fill="black" stroke="black" points="204.34,-483.11 193.76,-482.47 201.63,-489.57 204.34,-483.11"/>
</g>
<!-- NASALib/metric_space&#45;&gt;lib/finite_sets -->
<g id="edge57" class="edge">
<title>NASALib/metric_space&#45;&gt;lib/finite_sets</title>
<path fill="none" stroke="black" d="M889,-468C889,-468 889,-326 889,-326"/>
<path fill="none" stroke="black" d="M375.87,-532.3C402.06,-527.8 430,-523 430,-523 430,-523 774,-487 774,-487 774,-487 889,-470 889,-470"/>
</g>
<!-- NASALib/numbers&#45;&gt;NASALib/ints -->
<g id="edge58" class="edge">
<title>NASALib/numbers&#45;&gt;NASALib/ints</title>
<path fill="none" stroke="black" d="M819,-252C819,-252 804,-163 804,-163 804,-163 675.69,-91.9 610.33,-55.68"/>
<polygon fill="black" stroke="black" points="612.17,-52.7 601.73,-50.92 608.78,-58.83 612.17,-52.7"/>
</g>
<!-- NASALib/numbers&#45;&gt;NASALib/reals -->
<g id="edge59" class="edge">
<title>NASALib/numbers&#45;&gt;NASALib/reals</title>
<path fill="none" stroke="black" d="M757.65,-821.1C696.82,-808.11 565.64,-780.12 500.43,-766.2"/>
<polygon fill="black" stroke="black" points="501.41,-762.83 490.9,-764.17 499.95,-769.68 501.41,-762.83"/>
</g>
<!-- NASALib/numbers&#45;&gt;NASALib/structures -->
<g id="edge60" class="edge">
<title>NASALib/numbers&#45;&gt;NASALib/structures</title>
<path fill="none" stroke="black" d="M819,-252C819,-252 799,-182 799,-182"/>
<path fill="none" stroke="black" d="M793.56,-810.59C801.3,-772.67 819,-686 819,-686 819,-686 819,-686 819,-396 819,-396 819,-254 819,-254"/>
</g>
<!-- NASALib/orders&#45;&gt;NASALib/structures -->
<g id="edge61" class="edge">
<title>NASALib/orders&#45;&gt;NASALib/structures</title>
<path fill="none" stroke="black" d="M573,-162.7C573,-155.41 573,-146.73 573,-138.54"/>
<polygon fill="black" stroke="black" points="576.5,-138.62 573,-128.62 569.5,-138.62 576.5,-138.62"/>
</g>
<!-- NASALib/orders&#45;&gt;lib/finite_sets -->
<g id="edge62" class="edge">
<title>NASALib/orders&#45;&gt;lib/finite_sets</title>
<path fill="none" stroke="black" d="M600.49,-173.91C677.37,-156.88 889,-110 889,-110"/>
<path fill="none" stroke="black" d="M889,-108C889,-108 907.63,-82.35 922.79,-61.45"/>
<polygon fill="black" stroke="black" points="925.51,-63.67 928.55,-53.52 919.84,-59.56 925.51,-63.67"/>
</g>
<!-- NASALib/power&#45;&gt;NASALib/analysis -->
<g id="edge63" class="edge">
<title>NASALib/power&#45;&gt;NASALib/analysis</title>
<path fill="none" stroke="black" d="M295.66,-450.65C312.29,-435.19 334,-415 334,-415 334,-415 379.72,-327.38 403.7,-281.41"/>
<polygon fill="black" stroke="black" points="406.79,-283.06 408.31,-272.57 400.58,-279.82 406.79,-283.06"/>
</g>
<!-- NASALib/power&#45;&gt;NASALib/lnexp -->
<g id="edge64" class="edge">
<title>NASALib/power&#45;&gt;NASALib/lnexp</title>
<path fill="none" stroke="black" d="M260.44,-450.7C252.57,-442.47 243.01,-432.48 234.33,-423.42"/>
<polygon fill="black" stroke="black" points="236.86,-421 227.42,-416.2 231.8,-425.84 236.86,-421"/>
</g>
<!-- NASALib/power&#45;&gt;NASALib/reals -->
<g id="edge65" class="edge">
<title>NASALib/power&#45;&gt;NASALib/reals</title>
<path fill="none" stroke="black" d="M264.64,-487.3C254.81,-501.07 241.44,-519.79 233.56,-530.82"/>
<polygon fill="black" stroke="black" points="230.84,-528.6 227.88,-538.77 236.54,-532.67 230.84,-528.6"/>
</g>
<!-- NASALib/reals&#45;&gt;NASALib/ints -->
<g id="edge66" class="edge">
<title>NASALib/reals&#45;&gt;NASALib/ints</title>
<path fill="none" stroke="black" d="M434.62,-751.01C362.18,-737.82 171,-703 171,-703 171,-703 57,-614 57,-614"/>
</g>
<!-- NASALib/reals&#45;&gt;NASALib/lebesgue -->
<g id="edge67" class="edge">
<title>NASALib/reals&#45;&gt;NASALib/lebesgue</title>
<path fill="none" stroke="black" d="M462,-727.24C462,-723.01 462,-718.66 462,-714.44"/>
<polygon fill="black" stroke="black" points="458.5,-727.18 462,-737.18 465.5,-727.18 458.5,-727.18"/>
<polygon fill="black" stroke="black" points="465.5,-714.62 462,-704.62 458.5,-714.62 465.5,-714.62"/>
</g>
<!-- NASALib/reals&#45;&gt;NASALib/metric_space -->
<g id="edge68" class="edge">
<title>NASALib/reals&#45;&gt;NASALib/metric_space</title>
<path fill="none" stroke="black" d="M429.28,-731.91C410.25,-717.91 390,-703 390,-703 390,-703 358.16,-616.11 341.26,-570"/>
<polygon fill="black" stroke="black" points="427.08,-734.64 437.21,-737.75 431.23,-729 427.08,-734.64"/>
<polygon fill="black" stroke="black" points="344.56,-568.84 337.83,-560.65 337.99,-571.24 344.56,-568.84"/>
</g>
<!-- NASALib/reals&#45;&gt;NASALib/sets_aux -->
<g id="edge69" class="edge">
<title>NASALib/reals&#45;&gt;NASALib/sets_aux</title>
<path fill="none" stroke="black" d="M489.28,-741.1C517.97,-725.42 559,-703 559,-703 559,-703 644,-631 644,-631 644,-631 719,-542 719,-542"/>
</g>
<!-- NASALib/reals&#45;&gt;NASALib/structures -->
<g id="edge70" class="edge">
<title>NASALib/reals&#45;&gt;NASALib/structures</title>
<path fill="none" stroke="black" d="M489.31,-746.16C531.82,-730.83 609,-703 609,-703 609,-703 799,-542 799,-542"/>
<path fill="none" stroke="black" d="M799,-540C799,-540 799,-398 799,-398 799,-398 799,-398 799,-324 799,-324 799,-182 799,-182"/>
</g>
<!-- NASALib/scott -->
<g id="node15" class="node">
<title>NASALib/scott</title>
<polygon fill="#fcfcd7" stroke="black" points="804,-991 750,-991 750,-955 804,-955 804,-991"/>
<text text-anchor="middle" x="777" y="-969.3" font-family="Times,serif" font-size="14.00">scott</text>
</g>
<!-- NASALib/scott&#45;&gt;NASALib/algebra -->
<g id="edge71" class="edge">
<title>NASALib/scott&#45;&gt;NASALib/algebra</title>
<path fill="none" stroke="black" d="M750.77,-954.52C737.65,-945.76 721.57,-935.04 707.36,-925.58"/>
<polygon fill="black" stroke="black" points="709.41,-922.73 699.15,-920.1 705.53,-928.56 709.41,-922.73"/>
</g>
<!-- NASALib/scott&#45;&gt;NASALib/orders -->
<g id="edge72" class="edge">
<title>NASALib/scott&#45;&gt;NASALib/orders</title>
<path fill="none" stroke="black" d="M793.04,-954.65C807.33,-939.19 826,-919 826,-919 826,-919 831,-847 831,-847 831,-847 831,-811 831,-811 831,-811 794,-631 794,-631 794,-631 769,-470 769,-470"/>
</g>
<!-- NASALib/scott&#45;&gt;NASALib/structures -->
<g id="edge73" class="edge">
<title>NASALib/scott&#45;&gt;NASALib/structures</title>
<path fill="none" stroke="black" d="M719,-900C719,-900 799,-614 799,-614"/>
</g>
<!-- NASALib/scott&#45;&gt;NASALib/topology -->
<g id="edge74" class="edge">
<title>NASALib/scott&#45;&gt;NASALib/topology</title>
<path fill="none" stroke="black" d="M719,-900C719,-900 644,-595 644,-595 644,-595 569,-523 569,-523 569,-523 490.13,-498.98 438.59,-483.28"/>
<polygon fill="black" stroke="black" points="439.76,-479.98 429.18,-480.41 437.72,-486.67 439.76,-479.98"/>
<path fill="none" stroke="black" d="M762.66,-954.7C745.49,-933.97 719,-902 719,-902"/>
</g>
<!-- NASALib/series&#45;&gt;NASALib/analysis -->
<g id="edge75" class="edge">
<title>NASALib/series&#45;&gt;NASALib/analysis</title>
<path fill="none" stroke="black" d="M336.22,-306.52C349.98,-297.68 366.87,-286.84 381.71,-277.3"/>
<polygon fill="black" stroke="black" points="383.33,-280.43 389.85,-272.08 379.54,-274.54 383.33,-280.43"/>
</g>
<!-- NASALib/series&#45;&gt;NASALib/ints -->
<g id="edge76" class="edge">
<title>NASALib/series&#45;&gt;NASALib/ints</title>
<path fill="none" stroke="black" d="M294.59,-306.65C281.76,-291.19 265,-271 265,-271 265,-271 210,-182 210,-182"/>
</g>
<!-- NASALib/series&#45;&gt;NASALib/orders -->
<g id="edge77" class="edge">
<title>NASALib/series&#45;&gt;NASALib/orders</title>
<path fill="none" stroke="black" d="M322.5,-306.84C342.84,-280.98 379,-235 379,-235 379,-235 532,-199 532,-199 532,-199 533.37,-198.43 535.62,-197.5"/>
<polygon fill="black" stroke="black" points="536.59,-200.89 544.48,-193.82 533.9,-194.42 536.59,-200.89"/>
</g>
<!-- NASALib/series&#45;&gt;NASALib/reals -->
<g id="edge78" class="edge">
<title>NASALib/series&#45;&gt;NASALib/reals</title>
<path fill="none" stroke="black" d="M299.44,-343.41C282.92,-373.48 249.56,-434.2 236.46,-458.06"/>
<polygon fill="black" stroke="black" points="233.48,-456.22 231.73,-466.67 239.61,-459.59 233.48,-456.22"/>
</g>
<!-- NASALib/sets_aux&#45;&gt;NASALib/ints -->
<g id="edge79" class="edge">
<title>NASALib/sets_aux&#45;&gt;NASALib/ints</title>
<path fill="none" stroke="black" d="M587.5,-378.85C556.42,-328.07 467,-182 467,-182"/>
</g>
<!-- NASALib/sets_aux&#45;&gt;NASALib/orders -->
<g id="edge80" class="edge">
<title>NASALib/sets_aux&#45;&gt;NASALib/orders</title>
<path fill="none" stroke="black" d="M596.76,-378.7C595.28,-357.97 593,-326 593,-326"/>
</g>
<!-- NASALib/sets_aux&#45;&gt;NASALib/structures -->
<g id="edge81" class="edge">
<title>NASALib/sets_aux&#45;&gt;NASALib/structures</title>
<path fill="none" stroke="black" d="M799,-180C799,-180 684.81,-144.63 618.76,-124.17"/>
<polygon fill="black" stroke="black" points="619.85,-120.85 609.26,-121.23 617.78,-127.53 619.85,-120.85"/>
<path fill="none" stroke="black" d="M614.11,-378.85C661.81,-328.07 799,-182 799,-182"/>
</g>
<!-- NASALib/sets_aux&#45;&gt;lib/finite_sets -->
<g id="edge82" class="edge">
<title>NASALib/sets_aux&#45;&gt;lib/finite_sets</title>
<path fill="none" stroke="black" d="M629.97,-388.31C705.57,-370.12 889,-326 889,-326"/>
<path fill="none" stroke="black" d="M889,-324C889,-324 889,-182 889,-182"/>
</g>
<!-- NASALib/sigma_set&#45;&gt;NASALib/analysis -->
<g id="edge83" class="edge">
<title>NASALib/sigma_set&#45;&gt;NASALib/analysis</title>
<path fill="none" stroke="black" d="M547,-396C547,-396 472,-307 472,-307 472,-307 457.63,-292.89 443.71,-279.23"/>
<polygon fill="black" stroke="black" points="446.35,-276.92 436.76,-272.41 441.45,-281.92 446.35,-276.92"/>
<path fill="none" stroke="black" d="M587.59,-450.65C574.76,-435.19 558,-415 558,-415 558,-415 547,-398 547,-398"/>
</g>
<!-- NASALib/sigma_set&#45;&gt;NASALib/orders -->
<g id="edge84" class="edge">
<title>NASALib/sigma_set&#45;&gt;NASALib/orders</title>
<path fill="none" stroke="black" d="M593,-324C593,-324 582.89,-252.2 577.04,-210.71"/>
<polygon fill="black" stroke="black" points="580.52,-210.32 575.66,-200.91 573.59,-211.3 580.52,-210.32"/>
<path fill="none" stroke="black" d="M547,-396C547,-396 558,-379 558,-379 558,-379 593,-326 593,-326"/>
</g>
<!-- NASALib/sigma_set&#45;&gt;NASALib/reals -->
<g id="edge85" class="edge">
<title>NASALib/sigma_set&#45;&gt;NASALib/reals</title>
<path fill="none" stroke="black" d="M610.84,-487.35C618.72,-502.81 629,-523 629,-523 629,-523 635.04,-576.78 637.73,-600.73"/>
<polygon fill="black" stroke="black" points="634.24,-600.95 638.83,-610.5 641.19,-600.17 634.24,-600.95"/>
</g>
<!-- NASALib/sigma_set&#45;&gt;NASALib/series -->
<g id="edge86" class="edge">
<title>NASALib/sigma_set&#45;&gt;NASALib/series</title>
<path fill="none" stroke="black" d="M566.31,-454.49C524.83,-438.79 462,-415 462,-415 462,-415 391.44,-373.95 346.15,-347.61"/>
<polygon fill="black" stroke="black" points="348.07,-344.68 337.66,-342.67 344.55,-350.73 348.07,-344.68"/>
</g>
<!-- NASALib/sigma_set&#45;&gt;NASALib/sets_aux -->
<g id="edge87" class="edge">
<title>NASALib/sigma_set&#45;&gt;NASALib/sets_aux</title>
<path fill="none" stroke="black" d="M601.01,-450.7C600.59,-443.41 600.1,-434.73 599.63,-426.54"/>
<polygon fill="black" stroke="black" points="603.13,-426.4 599.06,-416.62 596.14,-426.8 603.13,-426.4"/>
</g>
<!-- NASALib/structures&#45;&gt;NASALib/ints -->
<g id="edge88" class="edge">
<title>NASALib/structures&#45;&gt;NASALib/ints</title>
<path fill="none" stroke="black" d="M573,-90.7C573,-82.67 573,-72.9 573,-63.8"/>
<polygon fill="black" stroke="black" points="576.5,-63.94 573,-53.94 569.5,-63.94 576.5,-63.94"/>
</g>
<!-- NASALib/structures&#45;&gt;lib/finite_sets -->
<g id="edge89" class="edge">
<title>NASALib/structures&#45;&gt;lib/finite_sets</title>
<path fill="none" stroke="black" d="M607.96,-105.28C691.16,-98.8 894,-83 894,-83 894,-83 905.17,-71.83 916.73,-60.27"/>
<polygon fill="black" stroke="black" points="919,-62.95 923.6,-53.4 914.05,-58 919,-62.95"/>
</g>
<!-- NASALib/topology&#45;&gt;NASALib/reals -->
<g id="edge90" class="edge">
<title>NASALib/topology&#45;&gt;NASALib/reals</title>
<path fill="none" stroke="black" d="M395,-487.15C395,-529.4 395,-637.62 395,-672.78"/>
<polygon fill="black" stroke="black" points="391.5,-672.49 395,-682.49 398.5,-672.49 391.5,-672.49"/>
<path fill="none" stroke="black" d="M395,-686C395,-686 425.6,-717.97 445.44,-738.7"/>
</g>
<!-- NASALib/topology&#45;&gt;NASALib/sets_aux -->
<g id="edge91" class="edge">
<title>NASALib/topology&#45;&gt;NASALib/sets_aux</title>
<path fill="none" stroke="black" d="M427.91,-456.89C473.95,-441.35 552,-415 552,-415 552,-415 553.36,-414.5 555.62,-413.66"/>
<polygon fill="black" stroke="black" points="556.47,-417.08 564.63,-410.33 554.04,-410.52 556.47,-417.08"/>
</g>
<!-- NASALib/topology&#45;&gt;NASALib/structures -->
<g id="edge92" class="edge">
<title>NASALib/topology&#45;&gt;NASALib/structures</title>
<path fill="none" stroke="black" d="M389.65,-450.77C376.75,-409.24 345,-307 345,-307 345,-307 230,-182 230,-182"/>
</g>
<!-- NASALib/trig&#45;&gt;NASALib/analysis -->
<g id="edge93" class="edge">
<title>NASALib/trig&#45;&gt;NASALib/analysis</title>
<path fill="none" stroke="black" d="M118.88,-378.63C150.02,-352.73 205,-307 205,-307 205,-307 315.09,-279.61 376.98,-264.21"/>
<polygon fill="black" stroke="black" points="377.61,-267.66 386.47,-261.85 375.92,-260.86 377.61,-267.66"/>
</g>
<!-- NASALib/trig&#45;&gt;NASALib/ints -->
<g id="edge94" class="edge">
<title>NASALib/trig&#45;&gt;NASALib/ints</title>
<path fill="none" stroke="black" d="M98,-378.7C98,-357.97 98,-326 98,-326"/>
</g>
<!-- NASALib/trig&#45;&gt;NASALib/reals -->
<g id="edge95" class="edge">
<title>NASALib/trig&#45;&gt;NASALib/reals</title>
<path fill="none" stroke="black" d="M97.88,-415.41C97.61,-453.33 97,-540 97,-540 97,-614 97,-614 97,-614 97,-614 222,-703 222,-703 222,-703 356.19,-732.63 423.89,-747.58"/>
<polygon fill="black" stroke="black" points="422.94,-750.96 433.46,-749.7 424.45,-744.12 422.94,-750.96"/>
</g>
<!-- NASALib/trig&#45;&gt;NASALib/series -->
<g id="edge96" class="edge">
<title>NASALib/trig&#45;&gt;NASALib/series</title>
<path fill="none" stroke="black" d="M125.15,-386.99C162.16,-374.71 228.64,-352.66 270.71,-338.7"/>
<polygon fill="black" stroke="black" points="271.79,-342.03 280.18,-335.56 269.59,-335.39 271.79,-342.03"/>
</g>
<!-- NASALib/vectors&#45;&gt;NASALib/reals -->
<g id="edge97" class="edge">
<title>NASALib/vectors&#45;&gt;NASALib/reals</title>
<path fill="none" stroke="black" d="M227,-686C227,-686 372.59,-729.37 434.58,-747.83"/>
<path fill="none" stroke="black" d="M169.05,-487.15C181.55,-529.6 213.65,-638.64 223.84,-673.27"/>
<polygon fill="black" stroke="black" points="220.39,-673.94 226.57,-682.55 227.11,-671.97 220.39,-673.94"/>
</g>
<!-- NASALib/vectors&#45;&gt;NASALib/structures -->
<g id="edge98" class="edge">
<title>NASALib/vectors&#45;&gt;NASALib/structures</title>
<path fill="none" stroke="black" d="M165.93,-450.84C168.83,-424.98 174,-379 174,-379 174,-379 230,-182 230,-182"/>
</g>
<!-- NASALib/vectors&#45;&gt;NASALib/trig -->
<g id="edge99" class="edge">
<title>NASALib/vectors&#45;&gt;NASALib/trig</title>
<path fill="none" stroke="black" d="M147.69,-450.7C139.93,-442.47 130.51,-432.48 121.97,-423.42"/>
<polygon fill="black" stroke="black" points="124.57,-421.08 115.17,-416.21 119.48,-425.88 124.57,-421.08"/>
</g>
<!-- NASALib/while -->
<g id="node23" class="node">
<title>NASALib/while</title>
<polygon fill="#fcfcd7" stroke="black" points="843,-1063 789,-1063 789,-1027 843,-1027 843,-1063"/>
<text text-anchor="middle" x="816" y="-1041.3" font-family="Times,serif" font-size="14.00">while</text>
</g>
<!-- NASALib/while&#45;&gt;NASALib/orders -->
<g id="edge100" class="edge">
<title>NASALib/while&#45;&gt;NASALib/orders</title>
<path fill="none" stroke="black" d="M818.22,-1026.62C822.62,-992.27 832,-919 832,-919 832,-919 860,-542 860,-542 860,-542 860,-542 860,-468 860,-468 779,-254 779,-254"/>
</g>
<!-- NASALib/while&#45;&gt;NASALib/scott -->
<g id="edge101" class="edge">
<title>NASALib/while&#45;&gt;NASALib/scott</title>
<path fill="none" stroke="black" d="M806.36,-1026.7C802.06,-1018.98 796.9,-1009.71 792.11,-1001.11"/>
<polygon fill="black" stroke="black" points="795.19,-999.46 787.27,-992.43 789.08,-1002.87 795.19,-999.46"/>
</g>
</g>
</svg>
