<?xml version="1.0" encoding="UTF-8" standalone="no"?>
<!DOCTYPE svg PUBLIC "-//W3C//DTD SVG 1.1//EN"
 "http://www.w3.org/Graphics/SVG/1.1/DTD/svg11.dtd">
<!-- Generated by graphviz version 8.0.4 (20230421.1958)
 -->
<!-- Title: numbers&#45;zoomed Pages: 1 -->
<svg width="1080pt" height="401pt"
 viewBox="0.00 0.00 1080.00 401.00" xmlns="http://www.w3.org/2000/svg" xmlns:xlink="http://www.w3.org/1999/xlink">
<g id="graph0" class="graph" transform="scale(1 1) rotate(0) translate(4 397)">
<title>numbers&#45;zoomed</title>
<polygon fill="white" stroke="none" points="-4,4 -4,-397 1076,-397 1076,4 -4,4"/>
<g id="clust1" class="cluster">
<title>cluster_NASALib</title>
<polygon fill="none" stroke="black" points="503,-8 503,-84.5 731,-84.5 731,-8 503,-8"/>
<text text-anchor="middle" x="617" y="-67.2" font-family="Times,serif" font-size="14.00">NASALib</text>
</g>
<g id="clust2" class="cluster">
<title>cluster_NASALib/numbers</title>
<polygon fill="none" stroke="black" points="8,-92.5 8,-385 1064,-385 1064,-92.5 8,-92.5"/>
<text text-anchor="middle" x="536" y="-367.7" font-family="Times,serif" font-size="14.00">NASALib/numbers</text>
</g>
<!-- NASALib/ints -->
<g id="node1" class="node">
<title>NASALib/ints</title>
<polygon fill="#fcfcd7" stroke="black" points="651,-52 597,-52 597,-16 651,-16 651,-52"/>
<text text-anchor="middle" x="624" y="-28.95" font-family="Times,serif" font-size="14.00">ints</text>
</g>
<!-- NASALib/numbers@chinese_remainder -->
<g id="node2" class="node">
<title>NASALib/numbers@chinese_remainder</title>
<ellipse fill="#e6f3ff" stroke="black" cx="711" cy="-334.5" rx="81.04" ry="18"/>
<text text-anchor="middle" x="711" y="-329.45" font-family="Times,serif" font-size="14.00">chinese_remainder</text>
</g>
<!-- NASALib/numbers@chinese_remainder&#45;&gt;NASALib/ints -->
<g id="edge1" class="edge">
<title>NASALib/numbers@chinese_remainder&#45;&gt;NASALib/ints</title>
<path fill="none" stroke="black" d="M714.31,-316.09C721.52,-278.17 738,-191.5 738,-191.5"/>
<path fill="none" stroke="black" d="M738,-189.5C738,-189.5 738,-119.5 738,-119.5"/>
<path fill="none" stroke="black" d="M738,-117.5C738,-117.5 660,-84.5 660,-84.5 660,-84.5 651.56,-72.9 642.86,-60.93"/>
<polygon fill="black" stroke="black" points="645.3,-59.34 636.59,-53.31 639.64,-63.46 645.3,-59.34"/>
</g>
<!-- NASALib/reals -->
<g id="node15" class="node">
<title>NASALib/reals</title>
<polygon fill="#fcfcd7" stroke="black" points="723,-52 669,-52 669,-16 723,-16 723,-52"/>
<text text-anchor="middle" x="696" y="-28.95" font-family="Times,serif" font-size="14.00">reals</text>
</g>
<!-- NASALib/numbers@chinese_remainder&#45;&gt;NASALib/reals -->
<g id="edge2" class="edge">
<title>NASALib/numbers@chinese_remainder&#45;&gt;NASALib/reals</title>
<path fill="none" stroke="black" d="M776,-117.5C776,-117.5 752,-92.5 752,-92.5 752,-92.5 735.54,-75.6 720.46,-60.12"/>
<polygon fill="black" stroke="black" points="723.29,-57.97 713.8,-53.25 718.27,-62.86 723.29,-57.97"/>
<path fill="none" stroke="black" d="M738,-189.5C738,-189.5 776,-119.5 776,-119.5"/>
</g>
<!-- NASALib/numbers@eq_mod -->
<g id="node3" class="node">
<title>NASALib/numbers@eq_mod</title>
<ellipse fill="#e6f3ff" stroke="black" cx="555" cy="-262.5" rx="41.12" ry="18"/>
<text text-anchor="middle" x="555" y="-257.45" font-family="Times,serif" font-size="14.00">eq_mod</text>
</g>
<!-- NASALib/numbers@eq_mod&#45;&gt;NASALib/ints -->
<g id="edge3" class="edge">
<title>NASALib/numbers@eq_mod&#45;&gt;NASALib/ints</title>
<path fill="none" stroke="black" d="M571.5,-245.6C587.7,-229.99 610,-208.5 610,-208.5 610,-208.5 624,-191.5 624,-191.5"/>
</g>
<!-- NASALib/numbers@fermats_little_theorem -->
<g id="node4" class="node">
<title>NASALib/numbers@fermats_little_theorem</title>
<ellipse fill="#e6f3ff" stroke="black" cx="412" cy="-334.5" rx="95.88" ry="18"/>
<text text-anchor="middle" x="412" y="-329.45" font-family="Times,serif" font-size="14.00">fermats_little_theorem</text>
</g>
<!-- NASALib/numbers@fermats_little_theorem&#45;&gt;NASALib/ints -->
<g id="edge4" class="edge">
<title>NASALib/numbers@fermats_little_theorem&#45;&gt;NASALib/ints</title>
<path fill="none" stroke="black" d="M465.58,-319.16C524.22,-303.46 610,-280.5 610,-280.5 610,-280.5 624,-191.5 624,-191.5"/>
</g>
<!-- NASALib/numbers@fermats_little_theorem&#45;&gt;NASALib/numbers@eq_mod -->
<g id="edge5" class="edge">
<title>NASALib/numbers@fermats_little_theorem&#45;&gt;NASALib/numbers@eq_mod</title>
<path fill="none" stroke="black" d="M445.17,-317.26C467.16,-306.5 496.02,-292.37 518.64,-281.3"/>
<polygon fill="black" stroke="black" points="519.79,-284.15 527.23,-276.6 516.71,-277.86 519.79,-284.15"/>
</g>
<!-- NASALib/numbers@fermats_little_theorem&#45;&gt;NASALib/reals -->
<g id="edge6" class="edge">
<title>NASALib/numbers@fermats_little_theorem&#45;&gt;NASALib/reals</title>
<path fill="none" stroke="black" d="M468.23,-319.57C531.63,-303.87 626,-280.5 626,-280.5 626,-280.5 662,-191.5 662,-191.5"/>
</g>
<!-- NASALib/numbers@foursquare -->
<g id="node5" class="node">
<title>NASALib/numbers@foursquare</title>
<ellipse fill="#e6f3ff" stroke="black" cx="860" cy="-334.5" rx="50.33" ry="18"/>
<text text-anchor="middle" x="860" y="-329.45" font-family="Times,serif" font-size="14.00">foursquare</text>
</g>
<!-- NASALib/numbers@foursquare&#45;&gt;NASALib/ints -->
<g id="edge7" class="edge">
<title>NASALib/numbers@foursquare&#45;&gt;NASALib/ints</title>
<path fill="none" stroke="black" d="M841.67,-317.31C824.03,-301.72 800,-280.5 800,-280.5 800,-280.5 776,-191.5 776,-191.5"/>
<path fill="none" stroke="black" d="M776,-189.5C776,-189.5 738,-119.5 738,-119.5"/>
</g>
<!-- NASALib/numbers@foursquare&#45;&gt;NASALib/reals -->
<g id="edge8" class="edge">
<title>NASALib/numbers@foursquare&#45;&gt;NASALib/reals</title>
<path fill="none" stroke="black" d="M776,-189.5C776,-189.5 776,-119.5 776,-119.5"/>
</g>
<!-- NASALib/numbers@infinite_primes -->
<g id="node6" class="node">
<title>NASALib/numbers@infinite_primes</title>
<ellipse fill="#e6f3ff" stroke="black" cx="428" cy="-262.5" rx="67.73" ry="18"/>
<text text-anchor="middle" x="428" y="-257.45" font-family="Times,serif" font-size="14.00">infinite_primes</text>
</g>
<!-- NASALib/numbers@infinite_primes&#45;&gt;NASALib/ints -->
<g id="edge9" class="edge">
<title>NASALib/numbers@infinite_primes&#45;&gt;NASALib/ints</title>
<path fill="none" stroke="black" d="M472.52,-248.53C526.4,-232.84 610,-208.5 610,-208.5 610,-208.5 624,-191.5 624,-191.5"/>
</g>
<!-- NASALib/numbers@prime_factorization -->
<g id="node8" class="node">
<title>NASALib/numbers@prime_factorization</title>
<ellipse fill="#e6f3ff" stroke="black" cx="174" cy="-190.5" rx="84.11" ry="18"/>
<text text-anchor="middle" x="174" y="-185.45" font-family="Times,serif" font-size="14.00">prime_factorization</text>
</g>
<!-- NASALib/numbers@infinite_primes&#45;&gt;NASALib/numbers@prime_factorization -->
<g id="edge10" class="edge">
<title>NASALib/numbers@infinite_primes&#45;&gt;NASALib/numbers@prime_factorization</title>
<path fill="none" stroke="black" d="M382.3,-248.9C341.04,-237.54 280.04,-220.72 234.7,-208.23"/>
<polygon fill="black" stroke="black" points="235.69,-204.6 225.12,-205.31 233.83,-211.34 235.69,-204.6"/>
</g>
<!-- NASALib/numbers@infinite_primes&#45;&gt;NASALib/reals -->
<g id="edge11" class="edge">
<title>NASALib/numbers@infinite_primes&#45;&gt;NASALib/reals</title>
<path fill="none" stroke="black" d="M475.92,-249.41C537.89,-233.76 638,-208.5 638,-208.5 638,-208.5 662,-191.5 662,-191.5"/>
<path fill="none" stroke="black" d="M662,-189.5C662,-189.5 662,-119.5 662,-119.5"/>
</g>
<!-- NASALib/numbers@nat_list_enum -->
<g id="node7" class="node">
<title>NASALib/numbers@nat_list_enum</title>
<ellipse fill="#e6f3ff" stroke="black" cx="992" cy="-334.5" rx="63.63" ry="18"/>
<text text-anchor="middle" x="992" y="-329.45" font-family="Times,serif" font-size="14.00">nat_list_enum</text>
</g>
<!-- NASALib/numbers@nat_list_enum&#45;&gt;NASALib/reals -->
<g id="edge12" class="edge">
<title>NASALib/numbers@nat_list_enum&#45;&gt;NASALib/reals</title>
<path fill="none" stroke="black" d="M975.05,-316.71C924.13,-266.26 776,-119.5 776,-119.5"/>
</g>
<!-- NASALib/numbers@prime_factorization&#45;&gt;NASALib/ints -->
<g id="edge13" class="edge">
<title>NASALib/numbers@prime_factorization&#45;&gt;NASALib/ints</title>
<path fill="none" stroke="black" d="M624,-117.5C624,-117.5 624,-87.1 624,-63.21"/>
<polygon fill="black" stroke="black" points="627.5,-63.5 624,-53.5 620.5,-63.5 627.5,-63.5"/>
<path fill="none" stroke="black" d="M240.4,-179.17C365.57,-159.7 624,-119.5 624,-119.5"/>
</g>
<!-- NASALib/numbers@product_perm_lems -->
<g id="node10" class="node">
<title>NASALib/numbers@product_perm_lems</title>
<ellipse fill="#e6f3ff" stroke="black" cx="174" cy="-118.5" rx="85.64" ry="18"/>
<text text-anchor="middle" x="174" y="-113.45" font-family="Times,serif" font-size="14.00">product_perm_lems</text>
</g>
<!-- NASALib/numbers@prime_factorization&#45;&gt;NASALib/numbers@product_perm_lems -->
<g id="edge14" class="edge">
<title>NASALib/numbers@prime_factorization&#45;&gt;NASALib/numbers@product_perm_lems</title>
<path fill="none" stroke="black" d="M174,-172.2C174,-164.74 174,-155.82 174,-147.47"/>
<polygon fill="black" stroke="black" points="177.5,-147.6 174,-137.6 170.5,-147.6 177.5,-147.6"/>
</g>
<!-- NASALib/numbers@prime_factorization&#45;&gt;NASALib/reals -->
<g id="edge15" class="edge">
<title>NASALib/numbers@prime_factorization&#45;&gt;NASALib/reals</title>
<path fill="none" stroke="black" d="M662,-117.5C662,-117.5 674.75,-86.55 684.64,-62.56"/>
<polygon fill="black" stroke="black" points="688.22,-64.08 688.79,-53.5 681.74,-61.41 688.22,-64.08"/>
<path fill="none" stroke="black" d="M247.01,-181.16C377.68,-166.23 638,-136.5 638,-136.5 638,-136.5 662,-119.5 662,-119.5"/>
</g>
<!-- NASALib/numbers@primes_sum_squares -->
<g id="node9" class="node">
<title>NASALib/numbers@primes_sum_squares</title>
<ellipse fill="#e6f3ff" stroke="black" cx="253" cy="-262.5" rx="89.23" ry="18"/>
<text text-anchor="middle" x="253" y="-257.45" font-family="Times,serif" font-size="14.00">primes_sum_squares</text>
</g>
<!-- NASALib/numbers@primes_sum_squares&#45;&gt;NASALib/ints -->
<g id="edge16" class="edge">
<title>NASALib/numbers@primes_sum_squares&#45;&gt;NASALib/ints</title>
<path fill="none" stroke="black" d="M624,-189.5C624,-189.5 624,-119.5 624,-119.5"/>
<path fill="none" stroke="black" d="M319.18,-250.02C336.78,-246.97 351,-244.5 351,-244.5 351,-244.5 610,-208.5 610,-208.5 610,-208.5 624,-191.5 624,-191.5"/>
</g>
<!-- NASALib/numbers@primes_sum_squares&#45;&gt;NASALib/numbers@prime_factorization -->
<g id="edge17" class="edge">
<title>NASALib/numbers@primes_sum_squares&#45;&gt;NASALib/numbers@prime_factorization</title>
<path fill="none" stroke="black" d="M233.88,-244.55C223.98,-235.78 211.73,-224.93 200.9,-215.33"/>
<polygon fill="black" stroke="black" points="203.75,-213.3 193.95,-209.29 199.11,-218.54 203.75,-213.3"/>
</g>
<!-- NASALib/numbers@product_perm_lems&#45;&gt;NASALib/reals -->
<g id="edge18" class="edge">
<title>NASALib/numbers@product_perm_lems&#45;&gt;NASALib/reals</title>
<path fill="none" stroke="black" d="M254.53,-112.03C392.64,-102.65 660,-84.5 660,-84.5 660,-84.5 668.44,-72.9 677.14,-60.93"/>
<polygon fill="black" stroke="black" points="680.36,-63.46 683.41,-53.31 674.7,-59.34 680.36,-63.46"/>
</g>
<!-- NASALib/structures -->
<g id="node16" class="node">
<title>NASALib/structures</title>
<polygon fill="#fcfcd7" stroke="black" points="579.25,-52 510.75,-52 510.75,-16 579.25,-16 579.25,-52"/>
<text text-anchor="middle" x="545" y="-28.95" font-family="Times,serif" font-size="14.00">structures</text>
</g>
<!-- NASALib/numbers@product_perm_lems&#45;&gt;NASALib/structures -->
<g id="edge19" class="edge">
<title>NASALib/numbers@product_perm_lems&#45;&gt;NASALib/structures</title>
<path fill="none" stroke="black" d="M231.16,-104.79C304.99,-88.37 432.05,-60.12 499.63,-45.09"/>
<polygon fill="black" stroke="black" points="500.34,-48.29 509.35,-42.71 498.83,-41.46 500.34,-48.29"/>
</g>
<!-- NASALib/numbers@sqrt_two -->
<g id="node11" class="node">
<title>NASALib/numbers@sqrt_two</title>
<ellipse fill="#e6f3ff" stroke="black" cx="569" cy="-334.5" rx="43.16" ry="18"/>
<text text-anchor="middle" x="569" y="-329.45" font-family="Times,serif" font-size="14.00">sqrt_two</text>
</g>
<!-- NASALib/numbers@sqrt_two&#45;&gt;NASALib/ints -->
<g id="edge20" class="edge">
<title>NASALib/numbers@sqrt_two&#45;&gt;NASALib/ints</title>
<path fill="none" stroke="black" d="M662,-261.5C662,-261.5 624,-191.5 624,-191.5"/>
<path fill="none" stroke="black" d="M589.18,-318.31C616.53,-297.72 662,-263.5 662,-263.5"/>
</g>
<!-- NASALib/numbers@sqrt_two&#45;&gt;NASALib/reals -->
<g id="edge21" class="edge">
<title>NASALib/numbers@sqrt_two&#45;&gt;NASALib/reals</title>
<path fill="none" stroke="black" d="M662,-261.5C662,-261.5 662,-191.5 662,-191.5"/>
</g>
<!-- NASALib/numbers@tuple2nat -->
<g id="node12" class="node">
<title>NASALib/numbers@tuple2nat</title>
<ellipse fill="#e6f3ff" stroke="black" cx="253" cy="-334.5" rx="45.21" ry="18"/>
<text text-anchor="middle" x="253" y="-329.45" font-family="Times,serif" font-size="14.00">tuple2nat</text>
</g>
<!-- NASALib/numbers@unique_factorization -->
<g id="node13" class="node">
<title>NASALib/numbers@unique_factorization</title>
<ellipse fill="#e6f3ff" stroke="black" cx="103" cy="-334.5" rx="87.18" ry="18"/>
<text text-anchor="middle" x="103" y="-329.45" font-family="Times,serif" font-size="14.00">unique_factorization</text>
</g>
<!-- NASALib/numbers@unique_factorization&#45;&gt;NASALib/numbers@prime_factorization -->
<g id="edge22" class="edge">
<title>NASALib/numbers@unique_factorization&#45;&gt;NASALib/numbers@prime_factorization</title>
<path fill="none" stroke="black" d="M113.48,-316.15C122.81,-300.69 135,-280.5 135,-280.5 135,-280.5 150.7,-244.67 162.18,-218.47"/>
<polygon fill="black" stroke="black" points="165.67,-220.22 166.48,-209.66 159.26,-217.41 165.67,-220.22"/>
</g>
<!-- NASALib/numbers@unique_scaf -->
<g id="node14" class="node">
<title>NASALib/numbers@unique_scaf</title>
<ellipse fill="#e6f3ff" stroke="black" cx="71" cy="-262.5" rx="55.45" ry="18"/>
<text text-anchor="middle" x="71" y="-257.45" font-family="Times,serif" font-size="14.00">unique_scaf</text>
</g>
<!-- NASALib/numbers@unique_factorization&#45;&gt;NASALib/numbers@unique_scaf -->
<g id="edge23" class="edge">
<title>NASALib/numbers@unique_factorization&#45;&gt;NASALib/numbers@unique_scaf</title>
<path fill="none" stroke="black" d="M95.09,-316.2C91.52,-308.4 87.23,-299.01 83.26,-290.33"/>
<polygon fill="black" stroke="black" points="86.16,-289.24 78.82,-281.6 79.79,-292.15 86.16,-289.24"/>
</g>
<!-- NASALib/numbers@unique_scaf&#45;&gt;NASALib/ints -->
<g id="edge24" class="edge">
<title>NASALib/numbers@unique_scaf&#45;&gt;NASALib/ints</title>
<path fill="none" stroke="black" d="M586,-189.5C586,-189.5 624,-119.5 624,-119.5"/>
</g>
<!-- NASALib/numbers@unique_scaf&#45;&gt;NASALib/numbers@prime_factorization -->
<g id="edge25" class="edge">
<title>NASALib/numbers@unique_scaf&#45;&gt;NASALib/numbers@prime_factorization</title>
<path fill="none" stroke="black" d="M94.12,-245.79C107.77,-236.51 125.3,-224.6 140.45,-214.3"/>
<polygon fill="black" stroke="black" points="142.22,-216.65 148.53,-208.13 138.29,-210.86 142.22,-216.65"/>
</g>
<!-- NASALib/numbers@unique_scaf&#45;&gt;NASALib/numbers@product_perm_lems -->
<g id="edge26" class="edge">
<title>NASALib/numbers@unique_scaf&#45;&gt;NASALib/numbers@product_perm_lems</title>
<path fill="none" stroke="black" d="M72.93,-244.34C75.83,-218.48 81,-172.5 81,-172.5 81,-172.5 110.36,-155.77 136.09,-141.11"/>
<polygon fill="black" stroke="black" points="137.38,-143.83 144.34,-135.83 133.92,-137.74 137.38,-143.83"/>
</g>
<!-- NASALib/numbers@unique_scaf&#45;&gt;NASALib/structures -->
<g id="edge27" class="edge">
<title>NASALib/numbers@unique_scaf&#45;&gt;NASALib/structures</title>
<path fill="none" stroke="black" d="M116.93,-252.2C136.54,-248.24 155,-244.5 155,-244.5 155,-244.5 586,-191.5 586,-191.5"/>
<path fill="none" stroke="black" d="M586,-189.5C586,-189.5 564.2,-107.34 552.39,-62.85"/>
<polygon fill="black" stroke="black" points="555.57,-62.19 549.62,-53.42 548.81,-63.99 555.57,-62.19"/>
</g>
</g>
</svg>
