<?xml version="1.0" encoding="UTF-8" standalone="no"?>
<!DOCTYPE svg PUBLIC "-//W3C//DTD SVG 1.1//EN"
 "http://www.w3.org/Graphics/SVG/1.1/DTD/svg11.dtd">
<!-- Generated by graphviz version 8.1.0 (20230707.0739)
 -->
<!-- Title: numbers Pages: 1 -->
<svg width="236pt" height="617pt"
 viewBox="0.00 0.00 236.00 617.00" xmlns="http://www.w3.org/2000/svg" xmlns:xlink="http://www.w3.org/1999/xlink">
<g id="graph0" class="graph" transform="scale(1 1) rotate(0) translate(4 613)">
<title>numbers</title>
<polygon fill="white" stroke="none" points="-4,4 -4,-613 232,-613 232,4 -4,4"/>
<g id="clust1" class="cluster">
<title>cluster_NASALib</title>
<polygon fill="none" stroke="black" points="8,-92.5 8,-601 220,-601 220,-92.5 8,-92.5"/>
<text text-anchor="middle" x="114" y="-583.7" font-family="Times,serif" font-size="14.00">NASALib</text>
</g>
<g id="clust2" class="cluster">
<title>cluster_PVS Prelude</title>
<polygon fill="none" stroke="black" points="102,-8 102,-84.5 190,-84.5 190,-8 102,-8"/>
<text text-anchor="middle" x="146" y="-67.2" font-family="Times,serif" font-size="14.00">PVS Prelude</text>
</g>
<!-- lib/finite_sets -->
<g id="node1" class="node">
<title>lib/finite_sets</title>
<polygon fill="#fcfcd7" stroke="black" points="181.75,-52 110.25,-52 110.25,-16 181.75,-16 181.75,-52"/>
<text text-anchor="middle" x="146" y="-28.95" font-family="Times,serif" font-size="14.00">finite_sets</text>
</g>
<!-- nasalib/PVS0 -->
<g id="node2" class="node">
<title>nasalib/PVS0</title>
<polygon fill="#fcfcd7" stroke="black" points="212,-424.5 158,-424.5 158,-388.5 212,-388.5 212,-424.5"/>
<text text-anchor="middle" x="185" y="-401.45" font-family="Times,serif" font-size="14.00">PVS0</text>
</g>
<!-- nasalib/PVS0&#45;&gt;lib/finite_sets -->
<g id="edge1" class="edge">
<title>nasalib/PVS0&#45;&gt;lib/finite_sets</title>
<path fill="none" stroke="black" d="M178,-189.5C178,-189.5 178,-119.5 178,-119.5"/>
<path fill="none" stroke="black" d="M159,-261.5C159,-261.5 178,-191.5 178,-191.5"/>
</g>
<!-- nasalib/numbers -->
<g id="node6" class="node">
<title>nasalib/numbers</title>
<polygon fill="#f7e28d" stroke="black" points="119.62,-352.5 56.38,-352.5 56.38,-316.5 119.62,-316.5 119.62,-352.5"/>
<text text-anchor="middle" x="88" y="-329.45" font-family="Times,serif" font-size="14.00">numbers</text>
</g>
<!-- nasalib/PVS0&#45;&gt;nasalib/numbers -->
<g id="edge2" class="edge">
<title>nasalib/PVS0&#45;&gt;nasalib/numbers</title>
<path fill="none" stroke="black" d="M161.02,-388.2C148.9,-379.45 134,-368.69 120.83,-359.19"/>
<polygon fill="black" stroke="black" points="123.2,-355.86 113.04,-352.85 119.1,-361.54 123.2,-355.86"/>
</g>
<!-- nasalib/structures -->
<g id="node9" class="node">
<title>nasalib/structures</title>
<polygon fill="#fcfcd7" stroke="black" points="150.25,-208.5 81.75,-208.5 81.75,-172.5 150.25,-172.5 150.25,-208.5"/>
<text text-anchor="middle" x="116" y="-185.45" font-family="Times,serif" font-size="14.00">structures</text>
</g>
<!-- nasalib/PVS0&#45;&gt;nasalib/structures -->
<g id="edge3" class="edge">
<title>nasalib/PVS0&#45;&gt;nasalib/structures</title>
<path fill="none" stroke="black" d="M159,-261.5C159,-261.5 144.5,-237.89 132.34,-218.1"/>
<polygon fill="black" stroke="black" points="134.85,-216.49 126.63,-209.8 128.88,-220.16 134.85,-216.49"/>
<path fill="none" stroke="black" d="M181.81,-388.09C174.87,-350.17 159,-263.5 159,-263.5"/>
</g>
<!-- nasalib/algebra -->
<g id="node3" class="node">
<title>nasalib/algebra</title>
<polygon fill="#fcfcd7" stroke="black" points="111.88,-424.5 56.12,-424.5 56.12,-388.5 111.88,-388.5 111.88,-424.5"/>
<text text-anchor="middle" x="84" y="-401.45" font-family="Times,serif" font-size="14.00">algebra</text>
</g>
<!-- nasalib/algebra&#45;&gt;lib/finite_sets -->
<g id="edge4" class="edge">
<title>nasalib/algebra&#45;&gt;lib/finite_sets</title>
<path fill="none" stroke="black" d="M103.65,-388.15C121.14,-372.69 144,-352.5 144,-352.5 144,-352.5 174,-280.5 174,-280.5 174,-280.5 178,-191.5 178,-191.5"/>
</g>
<!-- nasalib/ints -->
<g id="node5" class="node">
<title>nasalib/ints</title>
<polygon fill="#fcfcd7" stroke="black" points="143,-136.5 89,-136.5 89,-100.5 143,-100.5 143,-136.5"/>
<text text-anchor="middle" x="116" y="-113.45" font-family="Times,serif" font-size="14.00">ints</text>
</g>
<!-- nasalib/algebra&#45;&gt;nasalib/ints -->
<g id="edge5" class="edge">
<title>nasalib/algebra&#45;&gt;nasalib/ints</title>
<path fill="none" stroke="black" d="M66.97,-388.15C51.81,-372.69 32,-352.5 32,-352.5 32,-352.5 27,-280.5 27,-280.5 27,-280.5 27,-244.5 27,-244.5 27,-244.5 63,-191.5 63,-191.5"/>
<path fill="none" stroke="black" d="M63,-189.5C63,-189.5 73,-172.5 73,-172.5 73,-172.5 84.23,-158.65 95.22,-145.12"/>
<polygon fill="black" stroke="black" points="98.34,-147.82 101.92,-137.85 92.9,-143.41 98.34,-147.82"/>
</g>
<!-- nasalib/algebra&#45;&gt;nasalib/numbers -->
<g id="edge6" class="edge">
<title>nasalib/algebra&#45;&gt;nasalib/numbers</title>
<path fill="none" stroke="black" d="M84.99,-388.2C85.42,-380.74 85.92,-371.82 86.4,-363.47"/>
<polygon fill="black" stroke="black" points="89.95,-363.79 87.02,-353.6 82.96,-363.39 89.95,-363.79"/>
</g>
<!-- nasalib/reals -->
<g id="node7" class="node">
<title>nasalib/reals</title>
<polygon fill="#fcfcd7" stroke="black" points="90,-280.5 36,-280.5 36,-244.5 90,-244.5 90,-280.5"/>
<text text-anchor="middle" x="63" y="-257.45" font-family="Times,serif" font-size="14.00">reals</text>
</g>
<!-- nasalib/algebra&#45;&gt;nasalib/reals -->
<g id="edge7" class="edge">
<title>nasalib/algebra&#45;&gt;nasalib/reals</title>
<path fill="none" stroke="black" d="M71.88,-388.15C61.09,-372.69 47,-352.5 47,-352.5 47,-352.5 37,-335.5 37,-335.5"/>
</g>
<!-- nasalib/algebra&#45;&gt;nasalib/structures -->
<g id="edge8" class="edge">
<title>nasalib/algebra&#45;&gt;nasalib/structures</title>
<path fill="none" stroke="black" d="M139,-333.5C139,-333.5 127.27,-261.09 120.56,-219.68"/>
<polygon fill="black" stroke="black" points="123.87,-219.22 118.82,-209.91 116.96,-220.34 123.87,-219.22"/>
<path fill="none" stroke="black" d="M98.73,-388.15C111.86,-372.69 129,-352.5 129,-352.5 129,-352.5 139,-335.5 139,-335.5"/>
</g>
<!-- nasalib/complex -->
<g id="node4" class="node">
<title>nasalib/complex</title>
<polygon fill="#fcfcd7" stroke="black" points="86.62,-496.5 23.38,-496.5 23.38,-460.5 86.62,-460.5 86.62,-496.5"/>
<text text-anchor="middle" x="55" y="-473.45" font-family="Times,serif" font-size="14.00">complex</text>
</g>
<!-- nasalib/complex&#45;&gt;nasalib/algebra -->
<g id="edge9" class="edge">
<title>nasalib/complex&#45;&gt;nasalib/algebra</title>
<path fill="none" stroke="black" d="M62.17,-460.2C65.36,-452.48 69.2,-443.21 72.77,-434.61"/>
<polygon fill="black" stroke="black" points="76.32,-436.18 76.91,-425.6 69.85,-433.5 76.32,-436.18"/>
</g>
<!-- nasalib/complex&#45;&gt;nasalib/reals -->
<g id="edge10" class="edge">
<title>nasalib/complex&#45;&gt;nasalib/reals</title>
<path fill="none" stroke="black" d="M37,-333.5C37,-333.5 45.53,-310.53 52.82,-290.91"/>
<polygon fill="black" stroke="black" points="56.37,-292.4 56.57,-281.8 49.81,-289.96 56.37,-292.4"/>
<path fill="none" stroke="black" d="M52.38,-460.15C50.05,-444.69 47,-424.5 47,-424.5 47,-424.5 37,-335.5 37,-335.5"/>
</g>
<!-- nasalib/ints&#45;&gt;lib/finite_sets -->
<g id="edge11" class="edge">
<title>nasalib/ints&#45;&gt;lib/finite_sets</title>
<path fill="none" stroke="black" d="M122.36,-100C126.3,-89.18 131.44,-75.03 135.92,-62.71"/>
<polygon fill="black" stroke="black" points="139.52,-64.06 139.65,-53.47 132.94,-61.67 139.52,-64.06"/>
</g>
<!-- nasalib/numbers&#45;&gt;nasalib/ints -->
<g id="edge12" class="edge">
<title>nasalib/numbers&#45;&gt;nasalib/ints</title>
<path fill="none" stroke="black" d="M109,-261.5C109,-261.5 99,-244.5 99,-244.5 99,-244.5 73,-208.5 73,-208.5 73,-208.5 63,-191.5 63,-191.5"/>
<path fill="none" stroke="black" d="M93.19,-316.2C99.41,-295.47 109,-263.5 109,-263.5"/>
</g>
<!-- nasalib/numbers&#45;&gt;nasalib/reals -->
<g id="edge13" class="edge">
<title>nasalib/numbers&#45;&gt;nasalib/reals</title>
<path fill="none" stroke="black" d="M81.82,-316.2C79.1,-308.57 75.83,-299.42 72.78,-290.9"/>
<polygon fill="black" stroke="black" points="75.77,-289.84 69.11,-281.6 69.18,-292.2 75.77,-289.84"/>
</g>
<!-- nasalib/numbers&#45;&gt;nasalib/structures -->
<g id="edge14" class="edge">
<title>nasalib/numbers&#45;&gt;nasalib/structures</title>
<path fill="none" stroke="black" d="M109,-261.5C109,-261.5 111.23,-239.16 113.18,-219.72"/>
<polygon fill="black" stroke="black" points="116.76,-220.1 114.27,-209.8 109.79,-219.41 116.76,-220.1"/>
</g>
<!-- nasalib/reals&#45;&gt;nasalib/ints -->
<g id="edge15" class="edge">
<title>nasalib/reals&#45;&gt;nasalib/ints</title>
<path fill="none" stroke="black" d="M63,-244.2C63,-223.47 63,-191.5 63,-191.5"/>
</g>
<!-- nasalib/reals&#45;&gt;nasalib/structures -->
<g id="edge16" class="edge">
<title>nasalib/reals&#45;&gt;nasalib/structures</title>
<path fill="none" stroke="black" d="M76.1,-244.2C82.26,-236.06 89.74,-226.19 96.54,-217.2"/>
<polygon fill="black" stroke="black" points="99.8,-219.69 103.05,-209.6 94.22,-215.46 99.8,-219.69"/>
</g>
<!-- nasalib/scott -->
<g id="node8" class="node">
<title>nasalib/scott</title>
<polygon fill="#fcfcd7" stroke="black" points="162,-496.5 108,-496.5 108,-460.5 162,-460.5 162,-496.5"/>
<text text-anchor="middle" x="135" y="-473.45" font-family="Times,serif" font-size="14.00">scott</text>
</g>
<!-- nasalib/scott&#45;&gt;nasalib/algebra -->
<g id="edge17" class="edge">
<title>nasalib/scott&#45;&gt;nasalib/algebra</title>
<path fill="none" stroke="black" d="M122.39,-460.2C116.53,-452.14 109.42,-442.39 102.93,-433.48"/>
<polygon fill="black" stroke="black" points="105.18,-431.63 96.46,-425.6 99.52,-435.75 105.18,-431.63"/>
</g>
<!-- nasalib/scott&#45;&gt;nasalib/structures -->
<g id="edge18" class="edge">
<title>nasalib/scott&#45;&gt;nasalib/structures</title>
<path fill="none" stroke="black" d="M135.49,-460.09C136.56,-422.17 139,-335.5 139,-335.5"/>
</g>
<!-- nasalib/structures&#45;&gt;lib/finite_sets -->
<g id="edge19" class="edge">
<title>nasalib/structures&#45;&gt;lib/finite_sets</title>
<path fill="none" stroke="black" d="M131.33,-172.2C149.69,-151.47 178,-119.5 178,-119.5"/>
<path fill="none" stroke="black" d="M178,-117.5C178,-117.5 166,-86.55 156.69,-62.56"/>
<polygon fill="black" stroke="black" points="159.67,-61.55 152.79,-53.5 153.14,-64.09 159.67,-61.55"/>
</g>
<!-- nasalib/structures&#45;&gt;nasalib/ints -->
<g id="edge20" class="edge">
<title>nasalib/structures&#45;&gt;nasalib/ints</title>
<path fill="none" stroke="black" d="M116,-172.2C116,-164.74 116,-155.82 116,-147.47"/>
<polygon fill="black" stroke="black" points="119.5,-147.6 116,-137.6 112.5,-147.6 119.5,-147.6"/>
</g>
<!-- nasalib/while -->
<g id="node10" class="node">
<title>nasalib/while</title>
<polygon fill="#fcfcd7" stroke="black" points="162,-568.5 108,-568.5 108,-532.5 162,-532.5 162,-568.5"/>
<text text-anchor="middle" x="135" y="-545.45" font-family="Times,serif" font-size="14.00">while</text>
</g>
<!-- nasalib/while&#45;&gt;nasalib/scott -->
<g id="edge21" class="edge">
<title>nasalib/while&#45;&gt;nasalib/scott</title>
<path fill="none" stroke="black" d="M135,-532.2C135,-524.74 135,-515.82 135,-507.47"/>
<polygon fill="black" stroke="black" points="138.5,-507.6 135,-497.6 131.5,-507.6 138.5,-507.6"/>
</g>
</g>
</svg>
