<?xml version="1.0" encoding="UTF-8" standalone="no"?>
<!DOCTYPE svg PUBLIC "-//W3C//DTD SVG 1.1//EN"
 "http://www.w3.org/Graphics/SVG/1.1/DTD/svg11.dtd">
<!-- Generated by graphviz version 8.0.4 (20230421.1958)
 -->
<!-- Title: co_structures&#45;zoomed Pages: 1 -->
<svg width="3445pt" height="749pt"
 viewBox="0.00 0.00 3445.00 748.50" xmlns="http://www.w3.org/2000/svg" xmlns:xlink="http://www.w3.org/1999/xlink">
<g id="graph0" class="graph" transform="scale(1 1) rotate(0) translate(4 744.5)">
<title>co_structures&#45;zoomed</title>
<polygon fill="white" stroke="none" points="-4,4 -4,-744.5 3441,-744.5 3441,4 -4,4"/>
<g id="clust1" class="cluster">
<title>cluster_NASALib/co_structures</title>
<polygon fill="none" stroke="black" points="8,-8 8,-732.5 3429,-732.5 3429,-8 8,-8"/>
<text text-anchor="middle" x="1718.5" y="-715.2" font-family="Times,serif" font-size="14.00">NASALib/co_structures</text>
</g>
<!-- NASALib/co_structures@ascending_chains -->
<g id="node1" class="node">
<title>NASALib/co_structures@ascending_chains</title>
<ellipse fill="#e6f3ff" stroke="black" cx="112" cy="-538" rx="75.92" ry="18"/>
<text text-anchor="middle" x="112" y="-532.95" font-family="Times,serif" font-size="14.00">ascending_chains</text>
</g>
<!-- NASALib/co_structures@csequence -->
<g id="node2" class="node">
<title>NASALib/co_structures@csequence</title>
<ellipse fill="#e6f3ff" stroke="black" cx="2596" cy="-34" rx="48.79" ry="18"/>
<text text-anchor="middle" x="2596" y="-28.95" font-family="Times,serif" font-size="14.00">csequence</text>
</g>
<!-- NASALib/co_structures@csequence_add -->
<g id="node3" class="node">
<title>NASALib/co_structures@csequence_add</title>
<ellipse fill="#e6f3ff" stroke="black" cx="1764" cy="-322" rx="66.71" ry="18"/>
<text text-anchor="middle" x="1764" y="-316.95" font-family="Times,serif" font-size="14.00">csequence_add</text>
</g>
<!-- NASALib/co_structures@csequence_nth -->
<g id="node28" class="node">
<title>NASALib/co_structures@csequence_nth</title>
<ellipse fill="#e6f3ff" stroke="black" cx="1976" cy="-250" rx="65.17" ry="18"/>
<text text-anchor="middle" x="1976" y="-244.95" font-family="Times,serif" font-size="14.00">csequence_nth</text>
</g>
<!-- NASALib/co_structures@csequence_add&#45;&gt;NASALib/co_structures@csequence_nth -->
<g id="edge1" class="edge">
<title>NASALib/co_structures@csequence_add&#45;&gt;NASALib/co_structures@csequence_nth</title>
<path fill="none" stroke="black" d="M1805.13,-307.42C1839.47,-296.08 1888.57,-279.87 1925.33,-267.73"/>
<polygon fill="black" stroke="black" points="1925.95,-270.88 1934.35,-264.42 1923.75,-264.23 1925.95,-270.88"/>
</g>
<!-- NASALib/co_structures@csequence_append -->
<g id="node4" class="node">
<title>NASALib/co_structures@csequence_append</title>
<ellipse fill="#e6f3ff" stroke="black" cx="504" cy="-394" rx="80.01" ry="18"/>
<text text-anchor="middle" x="504" y="-388.95" font-family="Times,serif" font-size="14.00">csequence_append</text>
</g>
<!-- NASALib/co_structures@csequence_append&#45;&gt;NASALib/co_structures@csequence -->
<g id="edge2" class="edge">
<title>NASALib/co_structures@csequence_append&#45;&gt;NASALib/co_structures@csequence</title>
<path fill="none" stroke="black" d="M504,-375.7C504,-354.97 504,-323 504,-323"/>
</g>
<!-- NASALib/co_structures@csequence_insert -->
<g id="node18" class="node">
<title>NASALib/co_structures@csequence_insert</title>
<ellipse fill="#e6f3ff" stroke="black" cx="1273" cy="-322" rx="73.87" ry="18"/>
<text text-anchor="middle" x="1273" y="-316.95" font-family="Times,serif" font-size="14.00">csequence_insert</text>
</g>
<!-- NASALib/co_structures@csequence_append&#45;&gt;NASALib/co_structures@csequence_insert -->
<g id="edge3" class="edge">
<title>NASALib/co_structures@csequence_append&#45;&gt;NASALib/co_structures@csequence_insert</title>
<path fill="none" stroke="black" d="M578.72,-387.23C756.52,-373.49 1190,-340 1190,-340 1190,-340 1196.98,-338.57 1206.9,-336.54"/>
<polygon fill="black" stroke="black" points="1207.54,-339.77 1216.64,-334.34 1206.14,-332.92 1207.54,-339.77"/>
</g>
<!-- NASALib/co_structures@csequence_concatenate -->
<g id="node5" class="node">
<title>NASALib/co_structures@csequence_concatenate</title>
<ellipse fill="#e6f3ff" stroke="black" cx="2536" cy="-394" rx="96.9" ry="18"/>
<text text-anchor="middle" x="2536" y="-388.95" font-family="Times,serif" font-size="14.00">csequence_concatenate</text>
</g>
<!-- NASALib/co_structures@csequence_concatenate&#45;&gt;NASALib/co_structures@csequence -->
<g id="edge4" class="edge">
<title>NASALib/co_structures@csequence_concatenate&#45;&gt;NASALib/co_structures@csequence</title>
<path fill="none" stroke="black" d="M2623.75,-386.02C2804.6,-371.62 3202,-340 3202,-340 3202,-340 3202,-304 3202,-304 3202,-304 3108,-251 3108,-251"/>
</g>
<!-- NASALib/co_structures@csequence_concatenate&#45;&gt;NASALib/co_structures@csequence_nth -->
<g id="edge5" class="edge">
<title>NASALib/co_structures@csequence_concatenate&#45;&gt;NASALib/co_structures@csequence_nth</title>
<path fill="none" stroke="black" d="M2594.49,-379.28C2661.46,-363.58 2762,-340 2762,-340 2762,-340 2762,-304 2762,-304 2762,-304 2244.62,-269.11 2049.38,-255.95"/>
<polygon fill="black" stroke="black" points="2049.88,-252.41 2039.66,-255.23 2049.4,-259.39 2049.88,-252.41"/>
</g>
<!-- NASALib/co_structures@csequence_concatenate_extract -->
<g id="node6" class="node">
<title>NASALib/co_structures@csequence_concatenate_extract</title>
<ellipse fill="#e6f3ff" stroke="black" cx="1697" cy="-466" rx="126.59" ry="18"/>
<text text-anchor="middle" x="1697" y="-460.95" font-family="Times,serif" font-size="14.00">csequence_concatenate_extract</text>
</g>
<!-- NASALib/co_structures@csequence_concatenate_extract&#45;&gt;NASALib/co_structures@csequence_concatenate -->
<g id="edge6" class="edge">
<title>NASALib/co_structures@csequence_concatenate_extract&#45;&gt;NASALib/co_structures@csequence_concatenate</title>
<path fill="none" stroke="black" d="M1789.59,-453.43C1813.68,-450.42 1833,-448 1833,-448 1833,-448 2430,-412 2430,-412 2430,-412 2439.96,-410.4 2453.77,-408.19"/>
<polygon fill="black" stroke="black" points="2454.1,-411.52 2463.42,-406.48 2452.99,-404.61 2454.1,-411.52"/>
</g>
<!-- NASALib/co_structures@csequence_extract -->
<g id="node8" class="node">
<title>NASALib/co_structures@csequence_extract</title>
<ellipse fill="#e6f3ff" stroke="black" cx="1807" cy="-394" rx="78.48" ry="18"/>
<text text-anchor="middle" x="1807" y="-388.95" font-family="Times,serif" font-size="14.00">csequence_extract</text>
</g>
<!-- NASALib/co_structures@csequence_concatenate_extract&#45;&gt;NASALib/co_structures@csequence_extract -->
<g id="edge7" class="edge">
<title>NASALib/co_structures@csequence_concatenate_extract&#45;&gt;NASALib/co_structures@csequence_extract</title>
<path fill="none" stroke="black" d="M1723.63,-448.05C1738.3,-438.72 1756.68,-427.02 1772.44,-416.99"/>
<polygon fill="black" stroke="black" points="1773.82,-419.63 1780.37,-411.31 1770.06,-413.72 1773.82,-419.63"/>
</g>
<!-- NASALib/co_structures@csequence_constant -->
<g id="node7" class="node">
<title>NASALib/co_structures@csequence_constant</title>
<ellipse fill="#e6f3ff" stroke="black" cx="2124" cy="-394" rx="84.11" ry="18"/>
<text text-anchor="middle" x="2124" y="-388.95" font-family="Times,serif" font-size="14.00">csequence_constant</text>
</g>
<!-- NASALib/co_structures@csequence_constant&#45;&gt;NASALib/co_structures@csequence -->
<g id="edge8" class="edge">
<title>NASALib/co_structures@csequence_constant&#45;&gt;NASALib/co_structures@csequence</title>
<path fill="none" stroke="black" d="M2186.7,-381.66C2203.94,-378.54 2218,-376 2218,-376 2218,-376 2586,-340 2586,-340 2586,-340 2596,-251 2596,-251 2596,-251 2596,-251 2596,-177 2596,-177 2596,-104.59 2596,-63.18"/>
<polygon fill="black" stroke="black" points="2599.5,-63.41 2596,-53.41 2592.5,-63.41 2599.5,-63.41"/>
</g>
<!-- NASALib/co_structures@csequence_singleton -->
<g id="node37" class="node">
<title>NASALib/co_structures@csequence_singleton</title>
<ellipse fill="#e6f3ff" stroke="black" cx="2124" cy="-322" rx="87.18" ry="18"/>
<text text-anchor="middle" x="2124" y="-316.95" font-family="Times,serif" font-size="14.00">csequence_singleton</text>
</g>
<!-- NASALib/co_structures@csequence_constant&#45;&gt;NASALib/co_structures@csequence_singleton -->
<g id="edge9" class="edge">
<title>NASALib/co_structures@csequence_constant&#45;&gt;NASALib/co_structures@csequence_singleton</title>
<path fill="none" stroke="black" d="M2124,-375.7C2124,-368.24 2124,-359.32 2124,-350.97"/>
<polygon fill="black" stroke="black" points="2127.5,-351.1 2124,-341.1 2120.5,-351.1 2127.5,-351.1"/>
</g>
<!-- NASALib/co_structures@csequence_extract&#45;&gt;NASALib/co_structures@csequence_add -->
<g id="edge10" class="edge">
<title>NASALib/co_structures@csequence_extract&#45;&gt;NASALib/co_structures@csequence_add</title>
<path fill="none" stroke="black" d="M1796.37,-375.7C1791.48,-367.73 1785.56,-358.1 1780.13,-349.26"/>
<polygon fill="black" stroke="black" points="1782.72,-347.79 1774.51,-341.1 1776.76,-351.46 1782.72,-347.79"/>
</g>
<!-- NASALib/co_structures@csequence_extract&#45;&gt;NASALib/co_structures@csequence_nth -->
<g id="edge11" class="edge">
<title>NASALib/co_structures@csequence_extract&#45;&gt;NASALib/co_structures@csequence_nth</title>
<path fill="none" stroke="black" d="M1817.62,-375.94C1827.27,-360.45 1840,-340 1840,-340 1840,-340 1860,-304 1860,-304 1860,-304 1900.3,-285.59 1933.39,-270.47"/>
<polygon fill="black" stroke="black" points="1934.74,-273.24 1942.38,-265.9 1931.83,-266.88 1934.74,-273.24"/>
</g>
<!-- NASALib/co_structures@csequence_filter -->
<g id="node9" class="node">
<title>NASALib/co_structures@csequence_filter</title>
<ellipse fill="#e6f3ff" stroke="black" cx="2118" cy="-610" rx="71.31" ry="18"/>
<text text-anchor="middle" x="2118" y="-604.95" font-family="Times,serif" font-size="14.00">csequence_filter</text>
</g>
<!-- NASALib/co_structures@csequence_filter&#45;&gt;NASALib/co_structures@csequence -->
<g id="edge12" class="edge">
<title>NASALib/co_structures@csequence_filter&#45;&gt;NASALib/co_structures@csequence</title>
<path fill="none" stroke="black" d="M2048.18,-605.88C1793.74,-594.52 931,-556 931,-556 931,-556 207,-467 207,-467"/>
</g>
<!-- NASALib/co_structures@csequence_filter_of -->
<g id="node11" class="node">
<title>NASALib/co_structures@csequence_filter_of</title>
<ellipse fill="#e6f3ff" stroke="black" cx="2320" cy="-538" rx="83.6" ry="18"/>
<text text-anchor="middle" x="2320" y="-532.95" font-family="Times,serif" font-size="14.00">csequence_filter_of</text>
</g>
<!-- NASALib/co_structures@csequence_filter&#45;&gt;NASALib/co_structures@csequence_filter_of -->
<g id="edge13" class="edge">
<title>NASALib/co_structures@csequence_filter&#45;&gt;NASALib/co_structures@csequence_filter_of</title>
<path fill="none" stroke="black" d="M2158.88,-594.83C2190.01,-584.05 2233.13,-569.1 2266.93,-557.39"/>
<polygon fill="black" stroke="black" points="2267.79,-560.45 2276.09,-553.87 2265.5,-553.84 2267.79,-560.45"/>
</g>
<!-- NASALib/co_structures@csequence_subsequence -->
<g id="node40" class="node">
<title>NASALib/co_structures@csequence_subsequence</title>
<ellipse fill="#e6f3ff" stroke="black" cx="2118" cy="-538" rx="99.97" ry="18"/>
<text text-anchor="middle" x="2118" y="-532.95" font-family="Times,serif" font-size="14.00">csequence_subsequence</text>
</g>
<!-- NASALib/co_structures@csequence_filter&#45;&gt;NASALib/co_structures@csequence_subsequence -->
<g id="edge14" class="edge">
<title>NASALib/co_structures@csequence_filter&#45;&gt;NASALib/co_structures@csequence_subsequence</title>
<path fill="none" stroke="black" d="M2118,-591.7C2118,-584.24 2118,-575.32 2118,-566.97"/>
<polygon fill="black" stroke="black" points="2121.5,-567.1 2118,-557.1 2114.5,-567.1 2121.5,-567.1"/>
</g>
<!-- NASALib/co_structures@csequence_filter_map -->
<g id="node10" class="node">
<title>NASALib/co_structures@csequence_filter_map</title>
<ellipse fill="#e6f3ff" stroke="black" cx="2451" cy="-682" rx="92.3" ry="18"/>
<text text-anchor="middle" x="2451" y="-676.95" font-family="Times,serif" font-size="14.00">csequence_filter_map</text>
</g>
<!-- NASALib/co_structures@csequence_filter_map&#45;&gt;NASALib/co_structures@csequence_filter -->
<g id="edge15" class="edge">
<title>NASALib/co_structures@csequence_filter_map&#45;&gt;NASALib/co_structures@csequence_filter</title>
<path fill="none" stroke="black" d="M2389.92,-668.16C2330.94,-655.76 2241.97,-637.06 2182.02,-624.46"/>
<polygon fill="black" stroke="black" points="2183.05,-620.89 2172.54,-622.26 2181.61,-627.74 2183.05,-620.89"/>
</g>
<!-- NASALib/co_structures@csequence_map_props -->
<g id="node25" class="node">
<title>NASALib/co_structures@csequence_map_props</title>
<ellipse fill="#e6f3ff" stroke="black" cx="3326" cy="-322" rx="94.86" ry="18"/>
<text text-anchor="middle" x="3326" y="-316.95" font-family="Times,serif" font-size="14.00">csequence_map_props</text>
</g>
<!-- NASALib/co_structures@csequence_filter_map&#45;&gt;NASALib/co_structures@csequence_map_props -->
<g id="edge16" class="edge">
<title>NASALib/co_structures@csequence_filter_map&#45;&gt;NASALib/co_structures@csequence_map_props</title>
<path fill="none" stroke="black" d="M2504.06,-667C2639.79,-631.17 2989,-539 2989,-539 2989,-539 2989,-539 2989,-465 2989,-465 3185.38,-382.25 3278.32,-343.09"/>
<polygon fill="black" stroke="black" points="3279.47,-345.98 3287.32,-338.88 3276.75,-339.53 3279.47,-345.98"/>
</g>
<!-- NASALib/co_structures@csequence_first_p -->
<g id="node13" class="node">
<title>NASALib/co_structures@csequence_first_p</title>
<ellipse fill="#e6f3ff" stroke="black" cx="2312" cy="-466" rx="77.45" ry="18"/>
<text text-anchor="middle" x="2312" y="-460.95" font-family="Times,serif" font-size="14.00">csequence_first_p</text>
</g>
<!-- NASALib/co_structures@csequence_filter_of&#45;&gt;NASALib/co_structures@csequence_first_p -->
<g id="edge17" class="edge">
<title>NASALib/co_structures@csequence_filter_of&#45;&gt;NASALib/co_structures@csequence_first_p</title>
<path fill="none" stroke="black" d="M2318.02,-519.7C2317.17,-512.24 2316.15,-503.32 2315.2,-494.97"/>
<polygon fill="black" stroke="black" points="2318.57,-494.64 2313.95,-485.1 2311.61,-495.44 2318.57,-494.64"/>
</g>
<!-- NASALib/co_structures@csequence_suffix -->
<g id="node41" class="node">
<title>NASALib/co_structures@csequence_suffix</title>
<ellipse fill="#e6f3ff" stroke="black" cx="2126" cy="-466" rx="74.89" ry="18"/>
<text text-anchor="middle" x="2126" y="-460.95" font-family="Times,serif" font-size="14.00">csequence_suffix</text>
</g>
<!-- NASALib/co_structures@csequence_filter_of&#45;&gt;NASALib/co_structures@csequence_suffix -->
<g id="edge18" class="edge">
<title>NASALib/co_structures@csequence_filter_of&#45;&gt;NASALib/co_structures@csequence_suffix</title>
<path fill="none" stroke="black" d="M2278.38,-521.98C2248.44,-511.18 2207.92,-496.56 2176.19,-485.11"/>
<polygon fill="black" stroke="black" points="2177.82,-481.61 2167.22,-481.51 2175.44,-488.2 2177.82,-481.61"/>
</g>
<!-- NASALib/co_structures@csequence_finseq -->
<g id="node12" class="node">
<title>NASALib/co_structures@csequence_finseq</title>
<ellipse fill="#e6f3ff" stroke="black" cx="1105" cy="-322" rx="75.92" ry="18"/>
<text text-anchor="middle" x="1105" y="-316.95" font-family="Times,serif" font-size="14.00">csequence_finseq</text>
</g>
<!-- NASALib/co_structures@csequence_finseq&#45;&gt;NASALib/co_structures@csequence_nth -->
<g id="edge19" class="edge">
<title>NASALib/co_structures@csequence_finseq&#45;&gt;NASALib/co_structures@csequence_nth</title>
<path fill="none" stroke="black" d="M1161.7,-309.66C1177.29,-306.54 1190,-304 1190,-304 1190,-304 1902,-268 1902,-268 1902,-268 1907.96,-266.63 1916.5,-264.67"/>
<polygon fill="black" stroke="black" points="1917.09,-267.89 1926.05,-262.24 1915.52,-261.07 1917.09,-267.89"/>
</g>
<!-- NASALib/co_structures@csequence_first_p&#45;&gt;NASALib/co_structures@csequence_nth -->
<g id="edge20" class="edge">
<title>NASALib/co_structures@csequence_first_p&#45;&gt;NASALib/co_structures@csequence_nth</title>
<path fill="none" stroke="black" d="M2253.09,-453.89C2170.69,-438.35 2031,-412 2031,-412 2031,-412 2008,-304 2008,-304 2008,-304 1999.85,-290.5 1991.78,-277.13"/>
<polygon fill="black" stroke="black" points="1994.47,-275.81 1986.3,-269.06 1988.47,-279.43 1994.47,-275.81"/>
</g>
<!-- NASALib/co_structures@csequence_flatten -->
<g id="node14" class="node">
<title>NASALib/co_structures@csequence_flatten</title>
<ellipse fill="#e6f3ff" stroke="black" cx="2040" cy="-682" rx="76.94" ry="18"/>
<text text-anchor="middle" x="2040" y="-676.95" font-family="Times,serif" font-size="14.00">csequence_flatten</text>
</g>
<!-- NASALib/co_structures@csequence_flatten&#45;&gt;NASALib/co_structures@csequence_filter -->
<g id="edge21" class="edge">
<title>NASALib/co_structures@csequence_flatten&#45;&gt;NASALib/co_structures@csequence_filter</title>
<path fill="none" stroke="black" d="M2058.48,-664.41C2068.32,-655.58 2080.59,-644.57 2091.43,-634.84"/>
<polygon fill="black" stroke="black" points="2093.27,-638 2098.38,-628.71 2088.6,-632.79 2093.27,-638"/>
</g>
<!-- NASALib/co_structures@csequence_prefix_suffix -->
<g id="node31" class="node">
<title>NASALib/co_structures@csequence_prefix_suffix</title>
<ellipse fill="#e6f3ff" stroke="black" cx="1899" cy="-538" rx="101.51" ry="18"/>
<text text-anchor="middle" x="1899" y="-532.95" font-family="Times,serif" font-size="14.00">csequence_prefix_suffix</text>
</g>
<!-- NASALib/co_structures@csequence_flatten&#45;&gt;NASALib/co_structures@csequence_prefix_suffix -->
<g id="edge22" class="edge">
<title>NASALib/co_structures@csequence_flatten&#45;&gt;NASALib/co_structures@csequence_prefix_suffix</title>
<path fill="none" stroke="black" d="M2023.27,-664.15C1998.47,-639.17 1951.8,-592.17 1923.25,-563.42"/>
<polygon fill="black" stroke="black" points="1926.24,-561.45 1916.71,-556.82 1921.27,-566.39 1926.24,-561.45"/>
</g>
<!-- NASALib/co_structures@csequence_generate -->
<g id="node15" class="node">
<title>NASALib/co_structures@csequence_generate</title>
<ellipse fill="#e6f3ff" stroke="black" cx="3108" cy="-322" rx="84.62" ry="18"/>
<text text-anchor="middle" x="3108" y="-316.95" font-family="Times,serif" font-size="14.00">csequence_generate</text>
</g>
<!-- NASALib/co_structures@csequence_generate&#45;&gt;NASALib/co_structures@csequence -->
<g id="edge23" class="edge">
<title>NASALib/co_structures@csequence_generate&#45;&gt;NASALib/co_structures@csequence</title>
<path fill="none" stroke="black" d="M3108,-303.7C3108,-282.97 3108,-251 3108,-251"/>
</g>
<!-- NASALib/co_structures@csequence_generate&#45;&gt;NASALib/co_structures@csequence_nth -->
<g id="edge24" class="edge">
<title>NASALib/co_structures@csequence_generate&#45;&gt;NASALib/co_structures@csequence_nth</title>
<path fill="none" stroke="black" d="M3045.04,-309.61C3027.92,-306.52 3014,-304 3014,-304 3014,-304 2288.8,-266.97 2050.72,-254.82"/>
<polygon fill="black" stroke="black" points="2050.92,-251.27 2040.76,-254.26 2050.57,-258.26 2050.92,-251.27"/>
</g>
<!-- NASALib/co_structures@csequence_generate_limit -->
<g id="node16" class="node">
<title>NASALib/co_structures@csequence_generate_limit</title>
<ellipse fill="#e6f3ff" stroke="black" cx="2898" cy="-322" rx="107.14" ry="18"/>
<text text-anchor="middle" x="2898" y="-316.95" font-family="Times,serif" font-size="14.00">csequence_generate_limit</text>
</g>
<!-- NASALib/co_structures@csequence_generate_limit&#45;&gt;NASALib/co_structures@csequence -->
<g id="edge25" class="edge">
<title>NASALib/co_structures@csequence_generate_limit&#45;&gt;NASALib/co_structures@csequence</title>
<path fill="none" stroke="black" d="M2944.87,-305.38C3006.76,-284.75 3108,-251 3108,-251"/>
</g>
<!-- NASALib/co_structures@csequence_generate_limit&#45;&gt;NASALib/co_structures@csequence_nth -->
<g id="edge26" class="edge">
<title>NASALib/co_structures@csequence_generate_limit&#45;&gt;NASALib/co_structures@csequence_nth</title>
<path fill="none" stroke="black" d="M2817.63,-309.71C2795.28,-306.57 2777,-304 2777,-304 2777,-304 2247.88,-268.99 2049.73,-255.88"/>
<polygon fill="black" stroke="black" points="2050.06,-252.33 2039.85,-255.16 2049.6,-259.31 2050.06,-252.33"/>
</g>
<!-- NASALib/co_structures@csequence_induction -->
<g id="node17" class="node">
<title>NASALib/co_structures@csequence_induction</title>
<ellipse fill="#e6f3ff" stroke="black" cx="2489" cy="-322" rx="88.2" ry="18"/>
<text text-anchor="middle" x="2489" y="-316.95" font-family="Times,serif" font-size="14.00">csequence_induction</text>
</g>
<!-- NASALib/co_structures@csequence_induction&#45;&gt;NASALib/co_structures@csequence_nth -->
<g id="edge27" class="edge">
<title>NASALib/co_structures@csequence_induction&#45;&gt;NASALib/co_structures@csequence_nth</title>
<path fill="none" stroke="black" d="M2423.76,-309.57C2406.21,-306.49 2392,-304 2392,-304 2392,-304 2163.27,-274.86 2045.02,-259.79"/>
<polygon fill="black" stroke="black" points="2045.64,-256.22 2035.28,-258.43 2044.76,-263.16 2045.64,-256.22"/>
</g>
<!-- NASALib/co_structures@csequence_insert&#45;&gt;NASALib/co_structures@csequence_nth -->
<g id="edge28" class="edge">
<title>NASALib/co_structures@csequence_insert&#45;&gt;NASALib/co_structures@csequence_nth</title>
<path fill="none" stroke="black" d="M1328.36,-309.66C1343.59,-306.54 1356,-304 1356,-304 1356,-304 1902,-268 1902,-268 1902,-268 1907.96,-266.63 1916.5,-264.67"/>
<polygon fill="black" stroke="black" points="1917.09,-267.89 1926.05,-262.24 1915.52,-261.07 1917.09,-267.89"/>
</g>
<!-- NASALib/co_structures@csequence_insert_remove -->
<g id="node19" class="node">
<title>NASALib/co_structures@csequence_insert_remove</title>
<ellipse fill="#e6f3ff" stroke="black" cx="1435" cy="-394" rx="106.63" ry="18"/>
<text text-anchor="middle" x="1435" y="-388.95" font-family="Times,serif" font-size="14.00">csequence_insert_remove</text>
</g>
<!-- NASALib/co_structures@csequence_insert_remove&#45;&gt;NASALib/co_structures@csequence_insert -->
<g id="edge29" class="edge">
<title>NASALib/co_structures@csequence_insert_remove&#45;&gt;NASALib/co_structures@csequence_insert</title>
<path fill="none" stroke="black" d="M1397.43,-376.76C1373.77,-366.54 1343.09,-353.29 1318.12,-342.49"/>
<polygon fill="black" stroke="black" points="1319.72,-338.94 1309.15,-338.19 1316.94,-345.37 1319.72,-338.94"/>
</g>
<!-- NASALib/co_structures@csequence_remove -->
<g id="node33" class="node">
<title>NASALib/co_structures@csequence_remove</title>
<ellipse fill="#e6f3ff" stroke="black" cx="1598" cy="-322" rx="81.55" ry="18"/>
<text text-anchor="middle" x="1598" y="-316.95" font-family="Times,serif" font-size="14.00">csequence_remove</text>
</g>
<!-- NASALib/co_structures@csequence_insert_remove&#45;&gt;NASALib/co_structures@csequence_remove -->
<g id="edge30" class="edge">
<title>NASALib/co_structures@csequence_insert_remove&#45;&gt;NASALib/co_structures@csequence_remove</title>
<path fill="none" stroke="black" d="M1472.81,-376.76C1496.36,-366.65 1526.84,-353.56 1551.82,-342.83"/>
<polygon fill="black" stroke="black" points="1552.99,-345.71 1560.8,-338.55 1550.23,-339.28 1552.99,-345.71"/>
</g>
<!-- NASALib/co_structures@csequence_length -->
<g id="node20" class="node">
<title>NASALib/co_structures@csequence_length</title>
<ellipse fill="#e6f3ff" stroke="black" cx="1976" cy="-178" rx="76.43" ry="18"/>
<text text-anchor="middle" x="1976" y="-172.95" font-family="Times,serif" font-size="14.00">csequence_length</text>
</g>
<!-- NASALib/co_structures@csequence_props -->
<g id="node32" class="node">
<title>NASALib/co_structures@csequence_props</title>
<ellipse fill="#e6f3ff" stroke="black" cx="2260" cy="-106" rx="73.87" ry="18"/>
<text text-anchor="middle" x="2260" y="-100.95" font-family="Times,serif" font-size="14.00">csequence_props</text>
</g>
<!-- NASALib/co_structures@csequence_length&#45;&gt;NASALib/co_structures@csequence_props -->
<g id="edge31" class="edge">
<title>NASALib/co_structures@csequence_length&#45;&gt;NASALib/co_structures@csequence_props</title>
<path fill="none" stroke="black" d="M2027.43,-164.32C2075.63,-152.44 2147.73,-134.67 2198.85,-122.07"/>
<polygon fill="black" stroke="black" points="2199.56,-125.26 2208.43,-119.46 2197.88,-118.46 2199.56,-125.26"/>
</g>
<!-- NASALib/co_structures@csequence_length_comp -->
<g id="node21" class="node">
<title>NASALib/co_structures@csequence_length_comp</title>
<ellipse fill="#e6f3ff" stroke="black" cx="1791" cy="-250" rx="102.02" ry="18"/>
<text text-anchor="middle" x="1791" y="-244.95" font-family="Times,serif" font-size="14.00">csequence_length_comp</text>
</g>
<!-- NASALib/co_structures@csequence_length_comp&#45;&gt;NASALib/co_structures@csequence_length -->
<g id="edge32" class="edge">
<title>NASALib/co_structures@csequence_length_comp&#45;&gt;NASALib/co_structures@csequence_length</title>
<path fill="none" stroke="black" d="M1832.52,-233.29C1860.44,-222.73 1897.37,-208.75 1926.78,-197.62"/>
<polygon fill="black" stroke="black" points="1927.72,-200.63 1935.84,-193.82 1925.24,-194.08 1927.72,-200.63"/>
</g>
<!-- NASALib/co_structures@csequence_limit -->
<g id="node22" class="node">
<title>NASALib/co_structures@csequence_limit</title>
<ellipse fill="#e6f3ff" stroke="black" cx="112" cy="-610" rx="71.31" ry="18"/>
<text text-anchor="middle" x="112" y="-604.95" font-family="Times,serif" font-size="14.00">csequence_limit</text>
</g>
<!-- NASALib/co_structures@csequence_limit&#45;&gt;NASALib/co_structures@ascending_chains -->
<g id="edge33" class="edge">
<title>NASALib/co_structures@csequence_limit&#45;&gt;NASALib/co_structures@ascending_chains</title>
<path fill="none" stroke="black" d="M112,-591.7C112,-584.24 112,-575.32 112,-566.97"/>
<polygon fill="black" stroke="black" points="115.5,-567.1 112,-557.1 108.5,-567.1 115.5,-567.1"/>
</g>
<!-- NASALib/co_structures@csequence_limit&#45;&gt;NASALib/co_structures@csequence -->
<g id="edge34" class="edge">
<title>NASALib/co_structures@csequence_limit&#45;&gt;NASALib/co_structures@csequence</title>
<path fill="none" stroke="black" d="M754,-249C754,-249 2229.97,-77.52 2539.49,-41.56"/>
<polygon fill="black" stroke="black" points="2539.48,-44.97 2549.01,-40.34 2538.67,-38.02 2539.48,-44.97"/>
<path fill="none" stroke="black" d="M207,-465C207,-465 217,-376 217,-376 217,-376 504,-323 504,-323"/>
<path fill="none" stroke="black" d="M86.04,-592.81C61.04,-577.22 27,-556 27,-556 27,-556 27,-520 27,-520 27,-520 207,-467 207,-467"/>
<path fill="none" stroke="black" d="M504,-321C504,-321 514,-304 514,-304 514,-304 754,-251 754,-251"/>
</g>
<!-- NASALib/co_structures@csequence_limit&#45;&gt;NASALib/co_structures@csequence_prefix_suffix -->
<g id="edge35" class="edge">
<title>NASALib/co_structures@csequence_limit&#45;&gt;NASALib/co_structures@csequence_prefix_suffix</title>
<path fill="none" stroke="black" d="M182.68,-606.76C501.23,-596.69 1788,-556 1788,-556 1788,-556 1798.63,-554.37 1813.31,-552.12"/>
<polygon fill="black" stroke="black" points="1813.68,-555.45 1823.04,-550.48 1812.62,-548.53 1813.68,-555.45"/>
</g>
<!-- NASALib/co_structures@csequence_list -->
<g id="node23" class="node">
<title>NASALib/co_structures@csequence_list</title>
<ellipse fill="#e6f3ff" stroke="black" cx="1934" cy="-322" rx="64.66" ry="18"/>
<text text-anchor="middle" x="1934" y="-316.95" font-family="Times,serif" font-size="14.00">csequence_list</text>
</g>
<!-- NASALib/co_structures@csequence_list&#45;&gt;NASALib/co_structures@csequence_nth -->
<g id="edge36" class="edge">
<title>NASALib/co_structures@csequence_list&#45;&gt;NASALib/co_structures@csequence_nth</title>
<path fill="none" stroke="black" d="M1944.17,-304.05C1949.02,-295.97 1954.93,-286.12 1960.33,-277.11"/>
<polygon fill="black" stroke="black" points="1963.78,-279.16 1965.93,-268.79 1957.78,-275.56 1963.78,-279.16"/>
</g>
<!-- NASALib/co_structures@csequence_map_composition -->
<g id="node24" class="node">
<title>NASALib/co_structures@csequence_map_composition</title>
<ellipse fill="#e6f3ff" stroke="black" cx="2735" cy="-106" rx="120.45" ry="18"/>
<text text-anchor="middle" x="2735" y="-100.95" font-family="Times,serif" font-size="14.00">csequence_map_composition</text>
</g>
<!-- NASALib/co_structures@csequence_map_composition&#45;&gt;NASALib/co_structures@csequence -->
<g id="edge37" class="edge">
<title>NASALib/co_structures@csequence_map_composition&#45;&gt;NASALib/co_structures@csequence</title>
<path fill="none" stroke="black" d="M2701.71,-88.23C2681.18,-77.9 2654.82,-64.62 2633.55,-53.91"/>
<polygon fill="black" stroke="black" points="2635.38,-50.41 2624.87,-49.04 2632.23,-56.66 2635.38,-50.41"/>
</g>
<!-- NASALib/co_structures@csequence_map_props&#45;&gt;NASALib/co_structures@csequence -->
<g id="edge38" class="edge">
<title>NASALib/co_structures@csequence_map_props&#45;&gt;NASALib/co_structures@csequence</title>
<path fill="none" stroke="black" d="M3279.23,-305.98C3215.18,-285.41 3108,-251 3108,-251"/>
</g>
<!-- NASALib/co_structures@csequence_map_props&#45;&gt;NASALib/co_structures@csequence_nth -->
<g id="edge39" class="edge">
<title>NASALib/co_structures@csequence_map_props&#45;&gt;NASALib/co_structures@csequence_nth</title>
<path fill="none" stroke="black" d="M3250.65,-310.67C3224.69,-307.11 3202,-304 3202,-304 3202,-304 2317.15,-265.75 2050.9,-254.24"/>
<polygon fill="black" stroke="black" points="2051.33,-250.71 2041.19,-253.77 2051.03,-257.7 2051.33,-250.71"/>
</g>
<!-- NASALib/co_structures@csequence_merge -->
<g id="node26" class="node">
<title>NASALib/co_structures@csequence_merge</title>
<ellipse fill="#e6f3ff" stroke="black" cx="2306" cy="-322" rx="76.94" ry="18"/>
<text text-anchor="middle" x="2306" y="-316.95" font-family="Times,serif" font-size="14.00">csequence_merge</text>
</g>
<!-- NASALib/co_structures@csequence_merge&#45;&gt;NASALib/co_structures@csequence -->
<g id="edge40" class="edge">
<title>NASALib/co_structures@csequence_merge&#45;&gt;NASALib/co_structures@csequence</title>
<path fill="none" stroke="black" d="M2874,-105C2874,-105 2864,-88 2864,-88 2864,-88 2726.85,-60.88 2648.77,-45.44"/>
<polygon fill="black" stroke="black" points="2649.66,-41.85 2639.17,-43.34 2648.3,-48.71 2649.66,-41.85"/>
<path fill="none" stroke="black" d="M2347.03,-306.51C2475.89,-261.02 2864,-124 2864,-124 2864,-124 2874,-107 2874,-107"/>
</g>
<!-- NASALib/co_structures@csequence_merge&#45;&gt;NASALib/co_structures@csequence_length_comp -->
<g id="edge41" class="edge">
<title>NASALib/co_structures@csequence_merge&#45;&gt;NASALib/co_structures@csequence_length_comp</title>
<path fill="none" stroke="black" d="M2248.64,-309.66C2232.86,-306.54 2220,-304 2220,-304 2220,-304 1902,-268 1902,-268 1902,-268 1891.48,-266.39 1876.92,-264.16"/>
<polygon fill="black" stroke="black" points="1877.68,-260.58 1867.27,-262.53 1876.62,-267.5 1877.68,-260.58"/>
</g>
<!-- NASALib/co_structures@csequence_merge&#45;&gt;NASALib/co_structures@csequence_nth -->
<g id="edge42" class="edge">
<title>NASALib/co_structures@csequence_merge&#45;&gt;NASALib/co_structures@csequence_nth</title>
<path fill="none" stroke="black" d="M2250.39,-309.2C2191.39,-296.69 2098.42,-276.97 2037.33,-264.01"/>
<polygon fill="black" stroke="black" points="2038.19,-260.4 2027.68,-261.75 2036.74,-267.25 2038.19,-260.4"/>
</g>
<!-- NASALib/co_structures@csequence_merge_split -->
<g id="node27" class="node">
<title>NASALib/co_structures@csequence_merge_split</title>
<ellipse fill="#e6f3ff" stroke="black" cx="2324" cy="-394" rx="97.41" ry="18"/>
<text text-anchor="middle" x="2324" y="-388.95" font-family="Times,serif" font-size="14.00">csequence_merge_split</text>
</g>
<!-- NASALib/co_structures@csequence_merge_split&#45;&gt;NASALib/co_structures@csequence_merge -->
<g id="edge43" class="edge">
<title>NASALib/co_structures@csequence_merge_split&#45;&gt;NASALib/co_structures@csequence_merge</title>
<path fill="none" stroke="black" d="M2319.55,-375.7C2317.61,-368.15 2315.29,-359.12 2313.12,-350.68"/>
<polygon fill="black" stroke="black" points="2316.28,-349.92 2310.4,-341.1 2309.5,-351.66 2316.28,-349.92"/>
</g>
<!-- NASALib/co_structures@csequence_split -->
<g id="node38" class="node">
<title>NASALib/co_structures@csequence_split</title>
<ellipse fill="#e6f3ff" stroke="black" cx="2684" cy="-322" rx="69.26" ry="18"/>
<text text-anchor="middle" x="2684" y="-316.95" font-family="Times,serif" font-size="14.00">csequence_split</text>
</g>
<!-- NASALib/co_structures@csequence_merge_split&#45;&gt;NASALib/co_structures@csequence_split -->
<g id="edge44" class="edge">
<title>NASALib/co_structures@csequence_merge_split&#45;&gt;NASALib/co_structures@csequence_split</title>
<path fill="none" stroke="black" d="M2390,-380.37C2471.93,-364.7 2601,-340 2601,-340 2601,-340 2609.19,-338.32 2620.43,-336.02"/>
<polygon fill="black" stroke="black" points="2620.87,-339.3 2629.96,-333.86 2619.47,-332.44 2620.87,-339.3"/>
</g>
<!-- NASALib/co_structures@csequence_nth&#45;&gt;NASALib/co_structures@csequence_length -->
<g id="edge45" class="edge">
<title>NASALib/co_structures@csequence_nth&#45;&gt;NASALib/co_structures@csequence_length</title>
<path fill="none" stroke="black" d="M1976,-231.7C1976,-224.24 1976,-215.32 1976,-206.97"/>
<polygon fill="black" stroke="black" points="1979.5,-207.1 1976,-197.1 1972.5,-207.1 1979.5,-207.1"/>
</g>
<!-- NASALib/co_structures@csequence_prefix -->
<g id="node29" class="node">
<title>NASALib/co_structures@csequence_prefix</title>
<ellipse fill="#e6f3ff" stroke="black" cx="1917" cy="-466" rx="75.41" ry="18"/>
<text text-anchor="middle" x="1917" y="-460.95" font-family="Times,serif" font-size="14.00">csequence_prefix</text>
</g>
<!-- NASALib/co_structures@csequence_prefix&#45;&gt;NASALib/co_structures@csequence_concatenate -->
<g id="edge46" class="edge">
<title>NASALib/co_structures@csequence_prefix&#45;&gt;NASALib/co_structures@csequence_concatenate</title>
<path fill="none" stroke="black" d="M1981.33,-456.25C2011.96,-452.09 2042,-448 2042,-448 2042,-448 2430,-412 2430,-412 2430,-412 2439.96,-410.4 2453.77,-408.19"/>
<polygon fill="black" stroke="black" points="2454.1,-411.52 2463.42,-406.48 2452.99,-404.61 2454.1,-411.52"/>
</g>
<!-- NASALib/co_structures@csequence_prefix&#45;&gt;NASALib/co_structures@csequence_extract -->
<g id="edge47" class="edge">
<title>NASALib/co_structures@csequence_prefix&#45;&gt;NASALib/co_structures@csequence_extract</title>
<path fill="none" stroke="black" d="M1891.49,-448.76C1876.74,-439.38 1857.97,-427.44 1841.87,-417.19"/>
<polygon fill="black" stroke="black" points="1844.07,-413.81 1833.76,-411.39 1840.31,-419.71 1844.07,-413.81"/>
</g>
<!-- NASALib/co_structures@csequence_prefix_append -->
<g id="node30" class="node">
<title>NASALib/co_structures@csequence_prefix_append</title>
<ellipse fill="#e6f3ff" stroke="black" cx="1047" cy="-538" rx="106.63" ry="18"/>
<text text-anchor="middle" x="1047" y="-532.95" font-family="Times,serif" font-size="14.00">csequence_prefix_append</text>
</g>
<!-- NASALib/co_structures@csequence_prefix_append&#45;&gt;NASALib/co_structures@csequence_append -->
<g id="edge48" class="edge">
<title>NASALib/co_structures@csequence_prefix_append&#45;&gt;NASALib/co_structures@csequence_append</title>
<path fill="none" stroke="black" d="M956.89,-528.04C804.9,-512.93 514,-484 514,-484 514,-484 510.08,-449.11 507.15,-423.02"/>
<polygon fill="black" stroke="black" points="510.52,-422.71 505.93,-413.16 503.57,-423.49 510.52,-422.71"/>
</g>
<!-- NASALib/co_structures@csequence_prefix_append&#45;&gt;NASALib/co_structures@csequence_prefix -->
<g id="edge49" class="edge">
<title>NASALib/co_structures@csequence_prefix_append&#45;&gt;NASALib/co_structures@csequence_prefix</title>
<path fill="none" stroke="black" d="M1144.56,-530.42C1355.06,-516.23 1833,-484 1833,-484 1833,-484 1840.21,-482.54 1850.41,-480.48"/>
<polygon fill="black" stroke="black" points="1850.86,-483.75 1859.97,-478.34 1849.48,-476.89 1850.86,-483.75"/>
</g>
<!-- NASALib/co_structures@csequence_prefix_suffix&#45;&gt;NASALib/co_structures@csequence_prefix -->
<g id="edge50" class="edge">
<title>NASALib/co_structures@csequence_prefix_suffix&#45;&gt;NASALib/co_structures@csequence_prefix</title>
<path fill="none" stroke="black" d="M1903.45,-519.7C1905.39,-512.15 1907.71,-503.12 1909.88,-494.68"/>
<polygon fill="black" stroke="black" points="1913.5,-495.66 1912.6,-485.1 1906.72,-493.92 1913.5,-495.66"/>
</g>
<!-- NASALib/co_structures@csequence_prefix_suffix&#45;&gt;NASALib/co_structures@csequence_suffix -->
<g id="edge51" class="edge">
<title>NASALib/co_structures@csequence_prefix_suffix&#45;&gt;NASALib/co_structures@csequence_suffix</title>
<path fill="none" stroke="black" d="M1948.26,-521.81C1984.37,-510.67 2033.42,-495.55 2070.85,-484.01"/>
<polygon fill="black" stroke="black" points="2071.55,-487.14 2080.08,-480.85 2069.49,-480.45 2071.55,-487.14"/>
</g>
<!-- NASALib/co_structures@csequence_props&#45;&gt;NASALib/co_structures@csequence -->
<g id="edge52" class="edge">
<title>NASALib/co_structures@csequence_props&#45;&gt;NASALib/co_structures@csequence</title>
<path fill="none" stroke="black" d="M2314.73,-93.6C2377.97,-80.42 2481.29,-58.9 2543.55,-45.93"/>
<polygon fill="black" stroke="black" points="2544.23,-49.15 2553.3,-43.69 2542.8,-42.3 2544.23,-49.15"/>
</g>
<!-- NASALib/co_structures@csequence_remove&#45;&gt;NASALib/co_structures@csequence_nth -->
<g id="edge53" class="edge">
<title>NASALib/co_structures@csequence_remove&#45;&gt;NASALib/co_structures@csequence_nth</title>
<path fill="none" stroke="black" d="M1658.53,-309.57C1674.81,-306.49 1688,-304 1688,-304 1688,-304 1902,-268 1902,-268 1902,-268 1907.96,-266.63 1916.5,-264.67"/>
<polygon fill="black" stroke="black" points="1917.09,-267.89 1926.05,-262.24 1915.52,-261.07 1917.09,-267.89"/>
</g>
<!-- NASALib/co_structures@csequence_rest -->
<g id="node34" class="node">
<title>NASALib/co_structures@csequence_rest</title>
<ellipse fill="#e6f3ff" stroke="black" cx="1432" cy="-322" rx="66.71" ry="18"/>
<text text-anchor="middle" x="1432" y="-316.95" font-family="Times,serif" font-size="14.00">csequence_rest</text>
</g>
<!-- NASALib/co_structures@csequence_rest&#45;&gt;NASALib/co_structures@csequence_nth -->
<g id="edge54" class="edge">
<title>NASALib/co_structures@csequence_rest&#45;&gt;NASALib/co_structures@csequence_nth</title>
<path fill="none" stroke="black" d="M1482.03,-309.66C1495.78,-306.54 1507,-304 1507,-304 1507,-304 1902,-268 1902,-268 1902,-268 1907.96,-266.63 1916.5,-264.67"/>
<polygon fill="black" stroke="black" points="1917.09,-267.89 1926.05,-262.24 1915.52,-261.07 1917.09,-267.89"/>
</g>
<!-- NASALib/co_structures@csequence_reverse -->
<g id="node35" class="node">
<title>NASALib/co_structures@csequence_reverse</title>
<ellipse fill="#e6f3ff" stroke="black" cx="603" cy="-466" rx="80.01" ry="18"/>
<text text-anchor="middle" x="603" y="-460.95" font-family="Times,serif" font-size="14.00">csequence_reverse</text>
</g>
<!-- NASALib/co_structures@csequence_reverse&#45;&gt;NASALib/co_structures@csequence_append -->
<g id="edge55" class="edge">
<title>NASALib/co_structures@csequence_reverse&#45;&gt;NASALib/co_structures@csequence_append</title>
<path fill="none" stroke="black" d="M579.54,-448.41C566.59,-439.26 550.33,-427.76 536.21,-417.77"/>
<polygon fill="black" stroke="black" points="538.48,-414.39 528.29,-411.47 534.44,-420.1 538.48,-414.39"/>
</g>
<!-- NASALib/co_structures@csequence_sequence -->
<g id="node36" class="node">
<title>NASALib/co_structures@csequence_sequence</title>
<ellipse fill="#e6f3ff" stroke="black" cx="924" cy="-322" rx="87.18" ry="18"/>
<text text-anchor="middle" x="924" y="-316.95" font-family="Times,serif" font-size="14.00">csequence_sequence</text>
</g>
<!-- NASALib/co_structures@csequence_sequence&#45;&gt;NASALib/co_structures@csequence -->
<g id="edge56" class="edge">
<title>NASALib/co_structures@csequence_sequence&#45;&gt;NASALib/co_structures@csequence</title>
<path fill="none" stroke="black" d="M886.27,-305.46C836.19,-284.84 754,-251 754,-251"/>
</g>
<!-- NASALib/co_structures@csequence_sequence&#45;&gt;NASALib/co_structures@csequence_nth -->
<g id="edge57" class="edge">
<title>NASALib/co_structures@csequence_sequence&#45;&gt;NASALib/co_structures@csequence_nth</title>
<path fill="none" stroke="black" d="M988.57,-309.57C1005.93,-306.49 1020,-304 1020,-304 1020,-304 1902,-268 1902,-268 1902,-268 1907.96,-266.63 1916.5,-264.67"/>
<polygon fill="black" stroke="black" points="1917.09,-267.89 1926.05,-262.24 1915.52,-261.07 1917.09,-267.89"/>
</g>
<!-- NASALib/co_structures@csequence_singleton&#45;&gt;NASALib/co_structures@csequence_nth -->
<g id="edge58" class="edge">
<title>NASALib/co_structures@csequence_singleton&#45;&gt;NASALib/co_structures@csequence_nth</title>
<path fill="none" stroke="black" d="M2090.42,-305.12C2068.87,-294.93 2040.73,-281.62 2017.75,-270.75"/>
<polygon fill="black" stroke="black" points="2019.47,-267.21 2008.93,-266.1 2016.47,-273.54 2019.47,-267.21"/>
</g>
<!-- NASALib/co_structures@csequence_split&#45;&gt;NASALib/co_structures@csequence -->
<g id="edge59" class="edge">
<title>NASALib/co_structures@csequence_split&#45;&gt;NASALib/co_structures@csequence</title>
<path fill="none" stroke="black" d="M3108,-249C3108,-249 2874,-107 2874,-107"/>
<path fill="none" stroke="black" d="M2740.44,-311.21C2762.22,-307.43 2782,-304 2782,-304 2782,-304 3108,-251 3108,-251"/>
</g>
<!-- NASALib/co_structures@csequence_split&#45;&gt;NASALib/co_structures@csequence_nth -->
<g id="edge60" class="edge">
<title>NASALib/co_structures@csequence_split&#45;&gt;NASALib/co_structures@csequence_nth</title>
<path fill="none" stroke="black" d="M2627.56,-311.21C2605.78,-307.43 2586,-304 2586,-304 2586,-304 2209.93,-271.32 2048.35,-257.29"/>
<polygon fill="black" stroke="black" points="2048.83,-253.73 2038.56,-256.35 2048.22,-260.7 2048.83,-253.73"/>
</g>
<!-- NASALib/co_structures@csequence_strict_prefix -->
<g id="node39" class="node">
<title>NASALib/co_structures@csequence_strict_prefix</title>
<ellipse fill="#e6f3ff" stroke="black" cx="1681" cy="-538" rx="98.44" ry="18"/>
<text text-anchor="middle" x="1681" y="-532.95" font-family="Times,serif" font-size="14.00">csequence_strict_prefix</text>
</g>
<!-- NASALib/co_structures@csequence_strict_prefix&#45;&gt;NASALib/co_structures@csequence_prefix -->
<g id="edge61" class="edge">
<title>NASALib/co_structures@csequence_strict_prefix&#45;&gt;NASALib/co_structures@csequence_prefix</title>
<path fill="none" stroke="black" d="M1731.05,-522.15C1768.98,-510.91 1821.11,-495.44 1860.52,-483.75"/>
<polygon fill="black" stroke="black" points="1861.43,-486.84 1870.02,-480.64 1859.44,-480.13 1861.43,-486.84"/>
</g>
<!-- NASALib/co_structures@csequence_subsequence&#45;&gt;NASALib/co_structures@csequence_prefix -->
<g id="edge62" class="edge">
<title>NASALib/co_structures@csequence_subsequence&#45;&gt;NASALib/co_structures@csequence_prefix</title>
<path fill="none" stroke="black" d="M2073.39,-521.46C2042.4,-510.67 2001,-496.25 1968.58,-484.96"/>
<polygon fill="black" stroke="black" points="1969.99,-481.4 1959.4,-481.42 1967.69,-488.01 1969.99,-481.4"/>
</g>
<!-- NASALib/co_structures@csequence_subsequence&#45;&gt;NASALib/co_structures@csequence_suffix -->
<g id="edge63" class="edge">
<title>NASALib/co_structures@csequence_subsequence&#45;&gt;NASALib/co_structures@csequence_suffix</title>
<path fill="none" stroke="black" d="M2119.98,-519.7C2120.83,-512.24 2121.85,-503.32 2122.8,-494.97"/>
<polygon fill="black" stroke="black" points="2126.39,-495.44 2124.05,-485.1 2119.43,-494.64 2126.39,-495.44"/>
</g>
<!-- NASALib/co_structures@csequence_suffix&#45;&gt;NASALib/co_structures@csequence_concatenate -->
<g id="edge64" class="edge">
<title>NASALib/co_structures@csequence_suffix&#45;&gt;NASALib/co_structures@csequence_concatenate</title>
<path fill="none" stroke="black" d="M2185.62,-454.82C2256.93,-442.65 2376.6,-422.22 2455.92,-408.67"/>
<polygon fill="black" stroke="black" points="2456.09,-412.02 2465.36,-406.89 2454.91,-405.12 2456.09,-412.02"/>
</g>
<!-- NASALib/co_structures@csequence_unzip -->
<g id="node42" class="node">
<title>NASALib/co_structures@csequence_unzip</title>
<ellipse fill="#e6f3ff" stroke="black" cx="597" cy="-322" rx="73.87" ry="18"/>
<text text-anchor="middle" x="597" y="-316.95" font-family="Times,serif" font-size="14.00">csequence_unzip</text>
</g>
<!-- NASALib/co_structures@csequence_unzip&#45;&gt;NASALib/co_structures@csequence -->
<g id="edge65" class="edge">
<title>NASALib/co_structures@csequence_unzip&#45;&gt;NASALib/co_structures@csequence</title>
<path fill="none" stroke="black" d="M631.45,-305.64C677.67,-285.03 754,-251 754,-251"/>
</g>
<!-- NASALib/co_structures@csequence_unzip&#45;&gt;NASALib/co_structures@csequence_nth -->
<g id="edge66" class="edge">
<title>NASALib/co_structures@csequence_unzip&#45;&gt;NASALib/co_structures@csequence_nth</title>
<path fill="none" stroke="black" d="M652.36,-309.66C667.59,-306.54 680,-304 680,-304 680,-304 1902,-268 1902,-268 1902,-268 1907.96,-266.63 1916.5,-264.67"/>
<polygon fill="black" stroke="black" points="1917.09,-267.89 1926.05,-262.24 1915.52,-261.07 1917.09,-267.89"/>
</g>
<!-- NASALib/co_structures@csequence_zip -->
<g id="node43" class="node">
<title>NASALib/co_structures@csequence_zip</title>
<ellipse fill="#e6f3ff" stroke="black" cx="754" cy="-322" rx="64.66" ry="18"/>
<text text-anchor="middle" x="754" y="-316.95" font-family="Times,serif" font-size="14.00">csequence_zip</text>
</g>
<!-- NASALib/co_structures@csequence_zip&#45;&gt;NASALib/co_structures@csequence -->
<g id="edge67" class="edge">
<title>NASALib/co_structures@csequence_zip&#45;&gt;NASALib/co_structures@csequence</title>
<path fill="none" stroke="black" d="M754,-303.7C754,-282.97 754,-251 754,-251"/>
</g>
<!-- NASALib/co_structures@csequence_zip&#45;&gt;NASALib/co_structures@csequence_length_comp -->
<g id="edge68" class="edge">
<title>NASALib/co_structures@csequence_zip&#45;&gt;NASALib/co_structures@csequence_length_comp</title>
<path fill="none" stroke="black" d="M802.53,-309.85C816.48,-306.65 828,-304 828,-304 828,-304 1432.69,-270.72 1683.74,-256.9"/>
<polygon fill="black" stroke="black" points="1683.91,-260.34 1693.7,-256.3 1683.52,-253.35 1683.91,-260.34"/>
</g>
<!-- NASALib/co_structures@csequence_zip&#45;&gt;NASALib/co_structures@csequence_nth -->
<g id="edge69" class="edge">
<title>NASALib/co_structures@csequence_zip&#45;&gt;NASALib/co_structures@csequence_nth</title>
<path fill="none" stroke="black" d="M802.53,-309.85C816.48,-306.65 828,-304 828,-304 828,-304 1902,-268 1902,-268 1902,-268 1907.96,-266.63 1916.5,-264.67"/>
<polygon fill="black" stroke="black" points="1917.09,-267.89 1926.05,-262.24 1915.52,-261.07 1917.09,-267.89"/>
</g>
<!-- NASALib/co_structures@csequence_zip_unzip -->
<g id="node44" class="node">
<title>NASALib/co_structures@csequence_zip_unzip</title>
<ellipse fill="#e6f3ff" stroke="black" cx="316" cy="-394" rx="89.74" ry="18"/>
<text text-anchor="middle" x="316" y="-388.95" font-family="Times,serif" font-size="14.00">csequence_zip_unzip</text>
</g>
<!-- NASALib/co_structures@csequence_zip_unzip&#45;&gt;NASALib/co_structures@csequence_unzip -->
<g id="edge70" class="edge">
<title>NASALib/co_structures@csequence_zip_unzip&#45;&gt;NASALib/co_structures@csequence_unzip</title>
<path fill="none" stroke="black" d="M370.85,-379.34C418.31,-367.51 486.87,-350.43 536.05,-338.18"/>
<polygon fill="black" stroke="black" points="536.68,-341.38 545.54,-335.57 534.99,-334.59 536.68,-341.38"/>
</g>
<!-- NASALib/co_structures@csequence_zip_unzip&#45;&gt;NASALib/co_structures@csequence_zip -->
<g id="edge71" class="edge">
<title>NASALib/co_structures@csequence_zip_unzip&#45;&gt;NASALib/co_structures@csequence_zip</title>
<path fill="none" stroke="black" d="M382.58,-381.57C400.49,-378.49 415,-376 415,-376 415,-376 680,-340 680,-340 680,-340 686.08,-338.6 694.76,-336.61"/>
<polygon fill="black" stroke="black" points="695.5,-339.8 704.47,-334.15 693.94,-332.98 695.5,-339.8"/>
</g>
</g>
</svg>
