<?xml version="1.0" encoding="UTF-8" standalone="no"?>
<!DOCTYPE svg PUBLIC "-//W3C//DTD SVG 1.1//EN"
 "http://www.w3.org/Graphics/SVG/1.1/DTD/svg11.dtd">
<!-- Generated by graphviz version 2.44.1 (20200629.0846)
 -->
<!-- Title: co_structures&#45;zoomed Pages: 1 -->
<svg width="3317pt" height="747pt"
 viewBox="0.00 0.00 3317.00 747.00" xmlns="http://www.w3.org/2000/svg" xmlns:xlink="http://www.w3.org/1999/xlink">
<g id="graph0" class="graph" transform="scale(1 1) rotate(0) translate(4 743)">
<title>co_structures&#45;zoomed</title>
<polygon fill="white" stroke="transparent" points="-4,4 -4,-743 3313,-743 3313,4 -4,4"/>
<g id="clust1" class="cluster">
<title>cluster_NASALib/co_structures</title>
<polygon fill="none" stroke="black" points="8,-8 8,-731 3301,-731 3301,-8 8,-8"/>
<text text-anchor="middle" x="1654.5" y="-715.8" font-family="Times,serif" font-size="14.00">NASALib/co_structures</text>
</g>
<!-- nasalib/co_structures@ascending_chains -->
<g id="node1" class="node">
<title>nasalib/co_structures@ascending_chains</title>
<ellipse fill="#e6f3ff" stroke="black" cx="109" cy="-538" rx="72.59" ry="18"/>
<text text-anchor="middle" x="109" y="-534.3" font-family="Times,serif" font-size="14.00">ascending_chains</text>
</g>
<!-- nasalib/co_structures@csequence -->
<g id="node2" class="node">
<title>nasalib/co_structures@csequence</title>
<ellipse fill="#e6f3ff" stroke="black" cx="2498" cy="-34" rx="46.59" ry="18"/>
<text text-anchor="middle" x="2498" y="-30.3" font-family="Times,serif" font-size="14.00">csequence</text>
</g>
<!-- nasalib/co_structures@csequence_add -->
<g id="node3" class="node">
<title>nasalib/co_structures@csequence_add</title>
<ellipse fill="#e6f3ff" stroke="black" cx="1697" cy="-322" rx="63.89" ry="18"/>
<text text-anchor="middle" x="1697" y="-318.3" font-family="Times,serif" font-size="14.00">csequence_add</text>
</g>
<!-- nasalib/co_structures@csequence_nth -->
<g id="node28" class="node">
<title>nasalib/co_structures@csequence_nth</title>
<ellipse fill="#e6f3ff" stroke="black" cx="1901" cy="-250" rx="62.29" ry="18"/>
<text text-anchor="middle" x="1901" y="-246.3" font-family="Times,serif" font-size="14.00">csequence_nth</text>
</g>
<!-- nasalib/co_structures@csequence_add&#45;&gt;nasalib/co_structures@csequence_nth -->
<g id="edge1" class="edge">
<title>nasalib/co_structures@csequence_add&#45;&gt;nasalib/co_structures@csequence_nth</title>
<path fill="none" stroke="black" d="M1697,-303.79C1697,-298.45 1697,-294 1697,-294 1697,-294 1905.92,-294 1905.92,-294 1905.92,-294 1905.92,-278.15 1905.92,-278.15"/>
<polygon fill="black" stroke="black" points="1909.42,-278.15 1905.92,-268.15 1902.42,-278.15 1909.42,-278.15"/>
</g>
<!-- nasalib/co_structures@csequence_append -->
<g id="node4" class="node">
<title>nasalib/co_structures@csequence_append</title>
<ellipse fill="#e6f3ff" stroke="black" cx="486" cy="-394" rx="76.89" ry="18"/>
<text text-anchor="middle" x="486" y="-390.3" font-family="Times,serif" font-size="14.00">csequence_append</text>
</g>
<!-- nasalib/co_structures@csequence_append&#45;&gt;nasalib/co_structures@csequence -->
<g id="edge2" class="edge">
<title>nasalib/co_structures@csequence_append&#45;&gt;nasalib/co_structures@csequence</title>
<path fill="none" stroke="black" d="M457.23,-377.23C457.23,-305.24 457.23,-26 457.23,-26 457.23,-26 2445.84,-26 2445.84,-26"/>
<polygon fill="black" stroke="black" points="2445.84,-29.5 2455.84,-26 2445.84,-22.5 2445.84,-29.5"/>
</g>
<!-- nasalib/co_structures@csequence_insert -->
<g id="node18" class="node">
<title>nasalib/co_structures@csequence_insert</title>
<ellipse fill="#e6f3ff" stroke="black" cx="1224" cy="-322" rx="70.69" ry="18"/>
<text text-anchor="middle" x="1224" y="-318.3" font-family="Times,serif" font-size="14.00">csequence_insert</text>
</g>
<!-- nasalib/co_structures@csequence_append&#45;&gt;nasalib/co_structures@csequence_insert -->
<g id="edge3" class="edge">
<title>nasalib/co_structures@csequence_append&#45;&gt;nasalib/co_structures@csequence_insert</title>
<path fill="none" stroke="black" d="M558.62,-388C743.15,-388 1215.56,-388 1215.56,-388 1215.56,-388 1215.56,-350.03 1215.56,-350.03"/>
<polygon fill="black" stroke="black" points="1219.06,-350.03 1215.56,-340.03 1212.06,-350.03 1219.06,-350.03"/>
</g>
<!-- nasalib/co_structures@csequence_concatenate -->
<g id="node5" class="node">
<title>nasalib/co_structures@csequence_concatenate</title>
<ellipse fill="#e6f3ff" stroke="black" cx="2440" cy="-394" rx="92.88" ry="18"/>
<text text-anchor="middle" x="2440" y="-390.3" font-family="Times,serif" font-size="14.00">csequence_concatenate</text>
</g>
<!-- nasalib/co_structures@csequence_concatenate&#45;&gt;nasalib/co_structures@csequence -->
<g id="edge6" class="edge">
<title>nasalib/co_structures@csequence_concatenate&#45;&gt;nasalib/co_structures@csequence</title>
<path fill="none" stroke="black" d="M2501.82,-380.33C2501.82,-380.33 2501.82,-62.22 2501.82,-62.22"/>
<polygon fill="black" stroke="black" points="2505.32,-62.22 2501.82,-52.22 2498.32,-62.22 2505.32,-62.22"/>
</g>
<!-- nasalib/co_structures@csequence_concatenate&#45;&gt;nasalib/co_structures@csequence_nth -->
<g id="edge7" class="edge">
<title>nasalib/co_structures@csequence_concatenate&#45;&gt;nasalib/co_structures@csequence_nth</title>
<path fill="none" stroke="black" d="M2486.94,-378.32C2486.94,-340.99 2486.94,-250 2486.94,-250 2486.94,-250 1973.43,-250 1973.43,-250"/>
<polygon fill="black" stroke="black" points="1973.43,-246.5 1963.43,-250 1973.43,-253.5 1973.43,-246.5"/>
</g>
<!-- nasalib/co_structures@csequence_concatenate_extract -->
<g id="node6" class="node">
<title>nasalib/co_structures@csequence_concatenate_extract</title>
<ellipse fill="#e6f3ff" stroke="black" cx="1634" cy="-466" rx="120.78" ry="18"/>
<text text-anchor="middle" x="1634" y="-462.3" font-family="Times,serif" font-size="14.00">csequence_concatenate_extract</text>
</g>
<!-- nasalib/co_structures@csequence_concatenate_extract&#45;&gt;nasalib/co_structures@csequence_concatenate -->
<g id="edge4" class="edge">
<title>nasalib/co_structures@csequence_concatenate_extract&#45;&gt;nasalib/co_structures@csequence_concatenate</title>
<path fill="none" stroke="black" d="M1724.46,-453.7C1724.46,-440.38 1724.46,-421 1724.46,-421 1724.46,-421 2371.23,-421 2371.23,-421 2371.23,-421 2371.23,-416.24 2371.23,-416.24"/>
<polygon fill="black" stroke="black" points="2374.73,-416.24 2371.23,-406.24 2367.73,-416.24 2374.73,-416.24"/>
</g>
<!-- nasalib/co_structures@csequence_extract -->
<g id="node8" class="node">
<title>nasalib/co_structures@csequence_extract</title>
<ellipse fill="#e6f3ff" stroke="black" cx="1739" cy="-394" rx="75.29" ry="18"/>
<text text-anchor="middle" x="1739" y="-390.3" font-family="Times,serif" font-size="14.00">csequence_extract</text>
</g>
<!-- nasalib/co_structures@csequence_concatenate_extract&#45;&gt;nasalib/co_structures@csequence_extract -->
<g id="edge5" class="edge">
<title>nasalib/co_structures@csequence_concatenate_extract&#45;&gt;nasalib/co_structures@csequence_extract</title>
<path fill="none" stroke="black" d="M1694.03,-450.02C1694.03,-450.02 1694.03,-418.47 1694.03,-418.47"/>
<polygon fill="black" stroke="black" points="1697.53,-418.47 1694.03,-408.47 1690.53,-418.47 1697.53,-418.47"/>
</g>
<!-- nasalib/co_structures@csequence_constant -->
<g id="node7" class="node">
<title>nasalib/co_structures@csequence_constant</title>
<ellipse fill="#e6f3ff" stroke="black" cx="2044" cy="-394" rx="80.69" ry="18"/>
<text text-anchor="middle" x="2044" y="-390.3" font-family="Times,serif" font-size="14.00">csequence_constant</text>
</g>
<!-- nasalib/co_structures@csequence_constant&#45;&gt;nasalib/co_structures@csequence -->
<g id="edge8" class="edge">
<title>nasalib/co_structures@csequence_constant&#45;&gt;nasalib/co_structures@csequence</title>
<path fill="none" stroke="black" d="M2070.86,-376.99C2070.86,-364.24 2070.86,-349 2070.86,-349 2070.86,-349 2494.38,-349 2494.38,-349 2494.38,-349 2494.38,-62.3 2494.38,-62.3"/>
<polygon fill="black" stroke="black" points="2497.88,-62.3 2494.38,-52.3 2490.88,-62.3 2497.88,-62.3"/>
</g>
<!-- nasalib/co_structures@csequence_singleton -->
<g id="node37" class="node">
<title>nasalib/co_structures@csequence_singleton</title>
<ellipse fill="#e6f3ff" stroke="black" cx="2044" cy="-322" rx="83.39" ry="18"/>
<text text-anchor="middle" x="2044" y="-318.3" font-family="Times,serif" font-size="14.00">csequence_singleton</text>
</g>
<!-- nasalib/co_structures@csequence_constant&#45;&gt;nasalib/co_structures@csequence_singleton -->
<g id="edge9" class="edge">
<title>nasalib/co_structures@csequence_constant&#45;&gt;nasalib/co_structures@csequence_singleton</title>
<path fill="none" stroke="black" d="M2017.14,-376.94C2017.14,-376.94 2017.14,-349.44 2017.14,-349.44"/>
<polygon fill="black" stroke="black" points="2020.64,-349.44 2017.14,-339.44 2013.64,-349.44 2020.64,-349.44"/>
</g>
<!-- nasalib/co_structures@csequence_extract&#45;&gt;nasalib/co_structures@csequence_add -->
<g id="edge10" class="edge">
<title>nasalib/co_structures@csequence_extract&#45;&gt;nasalib/co_structures@csequence_add</title>
<path fill="none" stroke="black" d="M1712.15,-376.94C1712.15,-376.94 1712.15,-349.69 1712.15,-349.69"/>
<polygon fill="black" stroke="black" points="1715.65,-349.69 1712.15,-339.69 1708.65,-349.69 1715.65,-349.69"/>
</g>
<!-- nasalib/co_structures@csequence_extract&#45;&gt;nasalib/co_structures@csequence_nth -->
<g id="edge11" class="edge">
<title>nasalib/co_structures@csequence_extract&#45;&gt;nasalib/co_structures@csequence_nth</title>
<path fill="none" stroke="black" d="M1814.61,-394C1869.64,-394 1934.55,-394 1934.55,-394 1934.55,-394 1934.55,-275.41 1934.55,-275.41"/>
<polygon fill="black" stroke="black" points="1938.05,-275.41 1934.55,-265.41 1931.05,-275.41 1938.05,-275.41"/>
</g>
<!-- nasalib/co_structures@csequence_filter -->
<g id="node9" class="node">
<title>nasalib/co_structures@csequence_filter</title>
<ellipse fill="#e6f3ff" stroke="black" cx="2036" cy="-610" rx="67.69" ry="18"/>
<text text-anchor="middle" x="2036" y="-606.3" font-family="Times,serif" font-size="14.00">csequence_filter</text>
</g>
<!-- nasalib/co_structures@csequence_filter&#45;&gt;nasalib/co_structures@csequence -->
<g id="edge16" class="edge">
<title>nasalib/co_structures@csequence_filter&#45;&gt;nasalib/co_structures@csequence</title>
<path fill="none" stroke="black" d="M2094.67,-601C2115.75,-601 2134.42,-601 2134.42,-601 2134.42,-601 2134.42,-300 2134.42,-300 2134.42,-300 2470.06,-300 2470.06,-300 2470.06,-300 2470.06,-58.68 2470.06,-58.68"/>
<polygon fill="black" stroke="black" points="2473.56,-58.68 2470.06,-48.68 2466.56,-58.68 2473.56,-58.68"/>
</g>
<!-- nasalib/co_structures@csequence_filter_of -->
<g id="node11" class="node">
<title>nasalib/co_structures@csequence_filter_of</title>
<ellipse fill="#e6f3ff" stroke="black" cx="2229" cy="-538" rx="79.09" ry="18"/>
<text text-anchor="middle" x="2229" y="-534.3" font-family="Times,serif" font-size="14.00">csequence_filter_of</text>
</g>
<!-- nasalib/co_structures@csequence_filter&#45;&gt;nasalib/co_structures@csequence_filter_of -->
<g id="edge17" class="edge">
<title>nasalib/co_structures@csequence_filter&#45;&gt;nasalib/co_structures@csequence_filter_of</title>
<path fill="none" stroke="black" d="M2103.87,-610C2152.33,-610 2208.98,-610 2208.98,-610 2208.98,-610 2208.98,-565.43 2208.98,-565.43"/>
<polygon fill="black" stroke="black" points="2212.48,-565.43 2208.98,-555.43 2205.48,-565.43 2212.48,-565.43"/>
</g>
<!-- nasalib/co_structures@csequence_subsequence -->
<g id="node40" class="node">
<title>nasalib/co_structures@csequence_subsequence</title>
<ellipse fill="#e6f3ff" stroke="black" cx="2036" cy="-538" rx="95.58" ry="18"/>
<text text-anchor="middle" x="2036" y="-534.3" font-family="Times,serif" font-size="14.00">csequence_subsequence</text>
</g>
<!-- nasalib/co_structures@csequence_filter&#45;&gt;nasalib/co_structures@csequence_subsequence -->
<g id="edge18" class="edge">
<title>nasalib/co_structures@csequence_filter&#45;&gt;nasalib/co_structures@csequence_subsequence</title>
<path fill="none" stroke="black" d="M2036,-591.83C2036,-591.83 2036,-566.41 2036,-566.41"/>
<polygon fill="black" stroke="black" points="2039.5,-566.41 2036,-556.41 2032.5,-566.41 2039.5,-566.41"/>
</g>
<!-- nasalib/co_structures@csequence_filter_map -->
<g id="node10" class="node">
<title>nasalib/co_structures@csequence_filter_map</title>
<ellipse fill="#e6f3ff" stroke="black" cx="2356" cy="-682" rx="87.99" ry="18"/>
<text text-anchor="middle" x="2356" y="-678.3" font-family="Times,serif" font-size="14.00">csequence_filter_map</text>
</g>
<!-- nasalib/co_structures@csequence_filter_map&#45;&gt;nasalib/co_structures@csequence_filter -->
<g id="edge12" class="edge">
<title>nasalib/co_structures@csequence_filter_map&#45;&gt;nasalib/co_structures@csequence_filter</title>
<path fill="none" stroke="black" d="M2288.28,-670.44C2288.28,-652.26 2288.28,-619 2288.28,-619 2288.28,-619 2104.83,-619 2104.83,-619"/>
<polygon fill="black" stroke="black" points="2104.83,-615.5 2094.83,-619 2104.83,-622.5 2104.83,-615.5"/>
</g>
<!-- nasalib/co_structures@csequence_map_props -->
<g id="node25" class="node">
<title>nasalib/co_structures@csequence_map_props</title>
<ellipse fill="#e6f3ff" stroke="black" cx="3202" cy="-322" rx="90.98" ry="18"/>
<text text-anchor="middle" x="3202" y="-318.3" font-family="Times,serif" font-size="14.00">csequence_map_props</text>
</g>
<!-- nasalib/co_structures@csequence_filter_map&#45;&gt;nasalib/co_structures@csequence_map_props -->
<g id="edge13" class="edge">
<title>nasalib/co_structures@csequence_filter_map&#45;&gt;nasalib/co_structures@csequence_map_props</title>
<path fill="none" stroke="black" d="M2443.75,-682C2660.16,-682 3202,-682 3202,-682 3202,-682 3202,-350.35 3202,-350.35"/>
<polygon fill="black" stroke="black" points="3205.5,-350.35 3202,-340.35 3198.5,-350.35 3205.5,-350.35"/>
</g>
<!-- nasalib/co_structures@csequence_first_p -->
<g id="node13" class="node">
<title>nasalib/co_structures@csequence_first_p</title>
<ellipse fill="#e6f3ff" stroke="black" cx="2222" cy="-466" rx="73.39" ry="18"/>
<text text-anchor="middle" x="2222" y="-462.3" font-family="Times,serif" font-size="14.00">csequence_first_p</text>
</g>
<!-- nasalib/co_structures@csequence_filter_of&#45;&gt;nasalib/co_structures@csequence_first_p -->
<g id="edge14" class="edge">
<title>nasalib/co_structures@csequence_filter_of&#45;&gt;nasalib/co_structures@csequence_first_p</title>
<path fill="none" stroke="black" d="M2222.58,-519.83C2222.58,-519.83 2222.58,-494.41 2222.58,-494.41"/>
<polygon fill="black" stroke="black" points="2226.08,-494.41 2222.58,-484.41 2219.08,-494.41 2226.08,-494.41"/>
</g>
<!-- nasalib/co_structures@csequence_suffix -->
<g id="node41" class="node">
<title>nasalib/co_structures@csequence_suffix</title>
<ellipse fill="#e6f3ff" stroke="black" cx="2044" cy="-466" rx="71.49" ry="18"/>
<text text-anchor="middle" x="2044" y="-462.3" font-family="Times,serif" font-size="14.00">csequence_suffix</text>
</g>
<!-- nasalib/co_structures@csequence_filter_of&#45;&gt;nasalib/co_structures@csequence_suffix -->
<g id="edge15" class="edge">
<title>nasalib/co_structures@csequence_filter_of&#45;&gt;nasalib/co_structures@csequence_suffix</title>
<path fill="none" stroke="black" d="M2149.67,-538C2142.17,-538 2137.3,-538 2137.3,-538 2137.3,-538 2137.3,-472 2137.3,-472 2137.3,-472 2121.81,-472 2121.81,-472"/>
<polygon fill="black" stroke="black" points="2121.81,-468.5 2111.81,-472 2121.81,-475.5 2121.81,-468.5"/>
</g>
<!-- nasalib/co_structures@csequence_finseq -->
<g id="node12" class="node">
<title>nasalib/co_structures@csequence_finseq</title>
<ellipse fill="#e6f3ff" stroke="black" cx="1063" cy="-322" rx="72.29" ry="18"/>
<text text-anchor="middle" x="1063" y="-318.3" font-family="Times,serif" font-size="14.00">csequence_finseq</text>
</g>
<!-- nasalib/co_structures@csequence_finseq&#45;&gt;nasalib/co_structures@csequence_nth -->
<g id="edge19" class="edge">
<title>nasalib/co_structures@csequence_finseq&#45;&gt;nasalib/co_structures@csequence_nth</title>
<path fill="none" stroke="black" d="M1063,-303.9C1063,-292.91 1063,-281 1063,-281 1063,-281 1872.26,-281 1872.26,-281 1872.26,-281 1872.26,-276.23 1872.26,-276.23"/>
<polygon fill="black" stroke="black" points="1875.76,-276.23 1872.26,-266.23 1868.76,-276.23 1875.76,-276.23"/>
</g>
<!-- nasalib/co_structures@csequence_first_p&#45;&gt;nasalib/co_structures@csequence_nth -->
<g id="edge20" class="edge">
<title>nasalib/co_structures@csequence_first_p&#45;&gt;nasalib/co_structures@csequence_nth</title>
<path fill="none" stroke="black" d="M2152.61,-460C2145.13,-460 2140.18,-460 2140.18,-460 2140.18,-460 2140.18,-260 2140.18,-260 2140.18,-260 1962.9,-260 1962.9,-260"/>
<polygon fill="black" stroke="black" points="1962.9,-256.5 1952.9,-260 1962.9,-263.5 1962.9,-256.5"/>
</g>
<!-- nasalib/co_structures@csequence_flatten -->
<g id="node14" class="node">
<title>nasalib/co_structures@csequence_flatten</title>
<ellipse fill="#e6f3ff" stroke="black" cx="1961" cy="-682" rx="73.39" ry="18"/>
<text text-anchor="middle" x="1961" y="-678.3" font-family="Times,serif" font-size="14.00">csequence_flatten</text>
</g>
<!-- nasalib/co_structures@csequence_flatten&#45;&gt;nasalib/co_structures@csequence_filter -->
<g id="edge21" class="edge">
<title>nasalib/co_structures@csequence_flatten&#45;&gt;nasalib/co_structures@csequence_filter</title>
<path fill="none" stroke="black" d="M2001.42,-666.73C2001.42,-666.73 2001.42,-635.75 2001.42,-635.75"/>
<polygon fill="black" stroke="black" points="2004.92,-635.75 2001.42,-625.75 1997.92,-635.75 2004.92,-635.75"/>
</g>
<!-- nasalib/co_structures@csequence_prefix_suffix -->
<g id="node31" class="node">
<title>nasalib/co_structures@csequence_prefix_suffix</title>
<ellipse fill="#e6f3ff" stroke="black" cx="1826" cy="-538" rx="96.38" ry="18"/>
<text text-anchor="middle" x="1826" y="-534.3" font-family="Times,serif" font-size="14.00">csequence_prefix_suffix</text>
</g>
<!-- nasalib/co_structures@csequence_flatten&#45;&gt;nasalib/co_structures@csequence_prefix_suffix -->
<g id="edge22" class="edge">
<title>nasalib/co_structures@csequence_flatten&#45;&gt;nasalib/co_structures@csequence_prefix_suffix</title>
<path fill="none" stroke="black" d="M1904.87,-670.22C1904.87,-670.22 1904.87,-558.37 1904.87,-558.37"/>
<polygon fill="black" stroke="black" points="1908.37,-558.37 1904.87,-548.37 1901.37,-558.37 1908.37,-558.37"/>
</g>
<!-- nasalib/co_structures@csequence_generate -->
<g id="node15" class="node">
<title>nasalib/co_structures@csequence_generate</title>
<ellipse fill="#e6f3ff" stroke="black" cx="2992" cy="-322" rx="81.49" ry="18"/>
<text text-anchor="middle" x="2992" y="-318.3" font-family="Times,serif" font-size="14.00">csequence_generate</text>
</g>
<!-- nasalib/co_structures@csequence_generate&#45;&gt;nasalib/co_structures@csequence -->
<g id="edge25" class="edge">
<title>nasalib/co_structures@csequence_generate&#45;&gt;nasalib/co_structures@csequence</title>
<path fill="none" stroke="black" d="M3019.08,-304.85C3019.08,-242.85 3019.08,-34 3019.08,-34 3019.08,-34 2555.16,-34 2555.16,-34"/>
<polygon fill="black" stroke="black" points="2555.16,-30.5 2545.16,-34 2555.16,-37.5 2555.16,-30.5"/>
</g>
<!-- nasalib/co_structures@csequence_generate&#45;&gt;nasalib/co_structures@csequence_nth -->
<g id="edge26" class="edge">
<title>nasalib/co_structures@csequence_generate&#45;&gt;nasalib/co_structures@csequence_nth</title>
<path fill="none" stroke="black" d="M2964.92,-304.8C2964.92,-280.49 2964.92,-239 2964.92,-239 2964.92,-239 1960.53,-239 1960.53,-239"/>
<polygon fill="black" stroke="black" points="1960.53,-235.5 1950.53,-239 1960.53,-242.5 1960.53,-235.5"/>
</g>
<!-- nasalib/co_structures@csequence_generate_limit -->
<g id="node16" class="node">
<title>nasalib/co_structures@csequence_generate_limit</title>
<ellipse fill="#e6f3ff" stroke="black" cx="2790" cy="-322" rx="102.88" ry="18"/>
<text text-anchor="middle" x="2790" y="-318.3" font-family="Times,serif" font-size="14.00">csequence_generate_limit</text>
</g>
<!-- nasalib/co_structures@csequence_generate_limit&#45;&gt;nasalib/co_structures@csequence -->
<g id="edge23" class="edge">
<title>nasalib/co_structures@csequence_generate_limit&#45;&gt;nasalib/co_structures@csequence</title>
<path fill="none" stroke="black" d="M2819.87,-304.55C2819.87,-243.47 2819.87,-43 2819.87,-43 2819.87,-43 2548.76,-43 2548.76,-43"/>
<polygon fill="black" stroke="black" points="2548.76,-39.5 2538.76,-43 2548.76,-46.5 2548.76,-39.5"/>
</g>
<!-- nasalib/co_structures@csequence_generate_limit&#45;&gt;nasalib/co_structures@csequence_nth -->
<g id="edge24" class="edge">
<title>nasalib/co_structures@csequence_generate_limit&#45;&gt;nasalib/co_structures@csequence_nth</title>
<path fill="none" stroke="black" d="M2717.17,-309.15C2717.17,-286.53 2717.17,-242 2717.17,-242 2717.17,-242 1967.1,-242 1967.1,-242"/>
<polygon fill="black" stroke="black" points="1967.1,-238.5 1957.1,-242 1967.1,-245.5 1967.1,-238.5"/>
</g>
<!-- nasalib/co_structures@csequence_induction -->
<g id="node17" class="node">
<title>nasalib/co_structures@csequence_induction</title>
<ellipse fill="#e6f3ff" stroke="black" cx="2395" cy="-322" rx="84.49" ry="18"/>
<text text-anchor="middle" x="2395" y="-318.3" font-family="Times,serif" font-size="14.00">csequence_induction</text>
</g>
<!-- nasalib/co_structures@csequence_induction&#45;&gt;nasalib/co_structures@csequence_nth -->
<g id="edge27" class="edge">
<title>nasalib/co_structures@csequence_induction&#45;&gt;nasalib/co_structures@csequence_nth</title>
<path fill="none" stroke="black" d="M2380.86,-304.23C2380.86,-283.79 2380.86,-253 2380.86,-253 2380.86,-253 1972.75,-253 1972.75,-253"/>
<polygon fill="black" stroke="black" points="1972.75,-249.5 1962.75,-253 1972.75,-256.5 1972.75,-249.5"/>
</g>
<!-- nasalib/co_structures@csequence_insert&#45;&gt;nasalib/co_structures@csequence_nth -->
<g id="edge30" class="edge">
<title>nasalib/co_structures@csequence_insert&#45;&gt;nasalib/co_structures@csequence_nth</title>
<path fill="none" stroke="black" d="M1224,-303.89C1224,-294.1 1224,-284 1224,-284 1224,-284 1880.68,-284 1880.68,-284 1880.68,-284 1880.68,-277.4 1880.68,-277.4"/>
<polygon fill="black" stroke="black" points="1884.18,-277.4 1880.68,-267.4 1877.18,-277.4 1884.18,-277.4"/>
</g>
<!-- nasalib/co_structures@csequence_insert_remove -->
<g id="node19" class="node">
<title>nasalib/co_structures@csequence_insert_remove</title>
<ellipse fill="#e6f3ff" stroke="black" cx="1380" cy="-394" rx="102.08" ry="18"/>
<text text-anchor="middle" x="1380" y="-390.3" font-family="Times,serif" font-size="14.00">csequence_insert_remove</text>
</g>
<!-- nasalib/co_structures@csequence_insert_remove&#45;&gt;nasalib/co_structures@csequence_insert -->
<g id="edge28" class="edge">
<title>nasalib/co_structures@csequence_insert_remove&#45;&gt;nasalib/co_structures@csequence_insert</title>
<path fill="none" stroke="black" d="M1286.4,-386.57C1286.4,-386.57 1286.4,-340.84 1286.4,-340.84"/>
<polygon fill="black" stroke="black" points="1289.9,-340.84 1286.4,-330.84 1282.9,-340.84 1289.9,-340.84"/>
</g>
<!-- nasalib/co_structures@csequence_remove -->
<g id="node33" class="node">
<title>nasalib/co_structures@csequence_remove</title>
<ellipse fill="#e6f3ff" stroke="black" cx="1537" cy="-322" rx="77.99" ry="18"/>
<text text-anchor="middle" x="1537" y="-318.3" font-family="Times,serif" font-size="14.00">csequence_remove</text>
</g>
<!-- nasalib/co_structures@csequence_insert_remove&#45;&gt;nasalib/co_structures@csequence_remove -->
<g id="edge29" class="edge">
<title>nasalib/co_structures@csequence_insert_remove&#45;&gt;nasalib/co_structures@csequence_remove</title>
<path fill="none" stroke="black" d="M1470.52,-385.46C1470.52,-385.46 1470.52,-341.44 1470.52,-341.44"/>
<polygon fill="black" stroke="black" points="1474.02,-341.44 1470.52,-331.44 1467.02,-341.44 1474.02,-341.44"/>
</g>
<!-- nasalib/co_structures@csequence_length -->
<g id="node20" class="node">
<title>nasalib/co_structures@csequence_length</title>
<ellipse fill="#e6f3ff" stroke="black" cx="1901" cy="-178" rx="73.39" ry="18"/>
<text text-anchor="middle" x="1901" y="-174.3" font-family="Times,serif" font-size="14.00">csequence_length</text>
</g>
<!-- nasalib/co_structures@csequence_props -->
<g id="node32" class="node">
<title>nasalib/co_structures@csequence_props</title>
<ellipse fill="#e6f3ff" stroke="black" cx="2174" cy="-106" rx="70.69" ry="18"/>
<text text-anchor="middle" x="2174" y="-102.3" font-family="Times,serif" font-size="14.00">csequence_props</text>
</g>
<!-- nasalib/co_structures@csequence_length&#45;&gt;nasalib/co_structures@csequence_props -->
<g id="edge32" class="edge">
<title>nasalib/co_structures@csequence_length&#45;&gt;nasalib/co_structures@csequence_props</title>
<path fill="none" stroke="black" d="M1974.71,-178C2036.66,-178 2115.17,-178 2115.17,-178 2115.17,-178 2115.17,-126.32 2115.17,-126.32"/>
<polygon fill="black" stroke="black" points="2118.67,-126.32 2115.17,-116.32 2111.67,-126.32 2118.67,-126.32"/>
</g>
<!-- nasalib/co_structures@csequence_length_comp -->
<g id="node21" class="node">
<title>nasalib/co_structures@csequence_length_comp</title>
<ellipse fill="#e6f3ff" stroke="black" cx="1723" cy="-250" rx="97.48" ry="18"/>
<text text-anchor="middle" x="1723" y="-246.3" font-family="Times,serif" font-size="14.00">csequence_length_comp</text>
</g>
<!-- nasalib/co_structures@csequence_length_comp&#45;&gt;nasalib/co_structures@csequence_length -->
<g id="edge31" class="edge">
<title>nasalib/co_structures@csequence_length_comp&#45;&gt;nasalib/co_structures@csequence_length</title>
<path fill="none" stroke="black" d="M1820.88,-250C1828.36,-250 1833.08,-250 1833.08,-250 1833.08,-250 1833.08,-194.9 1833.08,-194.9"/>
<polygon fill="black" stroke="black" points="1836.58,-194.9 1833.08,-184.9 1829.58,-194.9 1836.58,-194.9"/>
</g>
<!-- nasalib/co_structures@csequence_limit -->
<g id="node22" class="node">
<title>nasalib/co_structures@csequence_limit</title>
<ellipse fill="#e6f3ff" stroke="black" cx="109" cy="-610" rx="68.49" ry="18"/>
<text text-anchor="middle" x="109" y="-606.3" font-family="Times,serif" font-size="14.00">csequence_limit</text>
</g>
<!-- nasalib/co_structures@csequence_limit&#45;&gt;nasalib/co_structures@ascending_chains -->
<g id="edge33" class="edge">
<title>nasalib/co_structures@csequence_limit&#45;&gt;nasalib/co_structures@ascending_chains</title>
<path fill="none" stroke="black" d="M109,-591.83C109,-591.83 109,-566.41 109,-566.41"/>
<polygon fill="black" stroke="black" points="112.5,-566.41 109,-556.41 105.5,-566.41 112.5,-566.41"/>
</g>
<!-- nasalib/co_structures@csequence_limit&#45;&gt;nasalib/co_structures@csequence -->
<g id="edge34" class="edge">
<title>nasalib/co_structures@csequence_limit&#45;&gt;nasalib/co_structures@csequence</title>
<path fill="none" stroke="black" d="M173.34,-604C259.2,-604 400.55,-604 400.55,-604 400.55,-604 400.55,-21 400.55,-21 400.55,-21 2455.48,-21 2455.48,-21"/>
<polygon fill="black" stroke="black" points="2455.48,-24.5 2465.48,-21 2455.47,-17.5 2455.48,-24.5"/>
</g>
<!-- nasalib/co_structures@csequence_limit&#45;&gt;nasalib/co_structures@csequence_prefix_suffix -->
<g id="edge35" class="edge">
<title>nasalib/co_structures@csequence_limit&#45;&gt;nasalib/co_structures@csequence_prefix_suffix</title>
<path fill="none" stroke="black" d="M173.55,-616C484.02,-616 1808.68,-616 1808.68,-616 1808.68,-616 1808.68,-566.09 1808.68,-566.09"/>
<polygon fill="black" stroke="black" points="1812.18,-566.09 1808.68,-556.09 1805.18,-566.09 1812.18,-566.09"/>
</g>
<!-- nasalib/co_structures@csequence_list -->
<g id="node23" class="node">
<title>nasalib/co_structures@csequence_list</title>
<ellipse fill="#e6f3ff" stroke="black" cx="1861" cy="-322" rx="61.99" ry="18"/>
<text text-anchor="middle" x="1861" y="-318.3" font-family="Times,serif" font-size="14.00">csequence_list</text>
</g>
<!-- nasalib/co_structures@csequence_list&#45;&gt;nasalib/co_structures@csequence_nth -->
<g id="edge36" class="edge">
<title>nasalib/co_structures@csequence_list&#45;&gt;nasalib/co_structures@csequence_nth</title>
<path fill="none" stroke="black" d="M1914.33,-312.88C1914.33,-312.88 1914.33,-277.86 1914.33,-277.86"/>
<polygon fill="black" stroke="black" points="1917.83,-277.86 1914.33,-267.86 1910.83,-277.86 1917.83,-277.86"/>
</g>
<!-- nasalib/co_structures@csequence_map_composition -->
<g id="node24" class="node">
<title>nasalib/co_structures@csequence_map_composition</title>
<ellipse fill="#e6f3ff" stroke="black" cx="2632" cy="-106" rx="115.08" ry="18"/>
<text text-anchor="middle" x="2632" y="-102.3" font-family="Times,serif" font-size="14.00">csequence_map_composition</text>
</g>
<!-- nasalib/co_structures@csequence_map_composition&#45;&gt;nasalib/co_structures@csequence -->
<g id="edge37" class="edge">
<title>nasalib/co_structures@csequence_map_composition&#45;&gt;nasalib/co_structures@csequence</title>
<path fill="none" stroke="black" d="M2530.88,-97.17C2530.88,-97.17 2530.88,-57.05 2530.88,-57.05"/>
<polygon fill="black" stroke="black" points="2534.38,-57.05 2530.88,-47.05 2527.38,-57.05 2534.38,-57.05"/>
</g>
<!-- nasalib/co_structures@csequence_map_props&#45;&gt;nasalib/co_structures@csequence -->
<g id="edge38" class="edge">
<title>nasalib/co_structures@csequence_map_props&#45;&gt;nasalib/co_structures@csequence</title>
<path fill="none" stroke="black" d="M3232.33,-304.75C3232.33,-241.36 3232.33,-25 3232.33,-25 3232.33,-25 2548.53,-25 2548.53,-25"/>
<polygon fill="black" stroke="black" points="2548.53,-21.5 2538.53,-25 2548.53,-28.5 2548.53,-21.5"/>
</g>
<!-- nasalib/co_structures@csequence_map_props&#45;&gt;nasalib/co_structures@csequence_nth -->
<g id="edge39" class="edge">
<title>nasalib/co_structures@csequence_map_props&#45;&gt;nasalib/co_structures@csequence_nth</title>
<path fill="none" stroke="black" d="M3171.67,-304.81C3171.67,-279.46 3171.67,-235 3171.67,-235 3171.67,-235 1945.65,-235 1945.65,-235"/>
<polygon fill="black" stroke="black" points="1945.65,-231.5 1935.65,-235 1945.65,-238.5 1945.65,-231.5"/>
</g>
<!-- nasalib/co_structures@csequence_merge -->
<g id="node26" class="node">
<title>nasalib/co_structures@csequence_merge</title>
<ellipse fill="#e6f3ff" stroke="black" cx="2219" cy="-322" rx="73.39" ry="18"/>
<text text-anchor="middle" x="2219" y="-318.3" font-family="Times,serif" font-size="14.00">csequence_merge</text>
</g>
<!-- nasalib/co_structures@csequence_merge&#45;&gt;nasalib/co_structures@csequence -->
<g id="edge42" class="edge">
<title>nasalib/co_structures@csequence_merge&#45;&gt;nasalib/co_structures@csequence</title>
<path fill="none" stroke="black" d="M2268.64,-308.69C2268.64,-253.56 2268.64,-46 2268.64,-46 2268.64,-46 2452.67,-46 2452.67,-46"/>
<polygon fill="black" stroke="black" points="2452.67,-49.5 2462.67,-46 2452.67,-42.5 2452.67,-49.5"/>
</g>
<!-- nasalib/co_structures@csequence_merge&#45;&gt;nasalib/co_structures@csequence_length_comp -->
<g id="edge43" class="edge">
<title>nasalib/co_structures@csequence_merge&#45;&gt;nasalib/co_structures@csequence_length_comp</title>
<path fill="none" stroke="black" d="M2178.65,-306.88C2178.65,-301.62 2178.65,-297 2178.65,-297 2178.65,-297 1809.87,-297 1809.87,-297 1809.87,-297 1809.87,-268.19 1809.87,-268.19"/>
<polygon fill="black" stroke="black" points="1813.37,-268.19 1809.87,-258.19 1806.37,-268.19 1813.37,-268.19"/>
</g>
<!-- nasalib/co_structures@csequence_merge&#45;&gt;nasalib/co_structures@csequence_nth -->
<g id="edge44" class="edge">
<title>nasalib/co_structures@csequence_merge&#45;&gt;nasalib/co_structures@csequence_nth</title>
<path fill="none" stroke="black" d="M2211.75,-303.89C2211.75,-284.66 2211.75,-257 2211.75,-257 2211.75,-257 1968.72,-257 1968.72,-257"/>
<polygon fill="black" stroke="black" points="1968.72,-253.5 1958.72,-257 1968.72,-260.5 1968.72,-253.5"/>
</g>
<!-- nasalib/co_structures@csequence_merge_split -->
<g id="node27" class="node">
<title>nasalib/co_structures@csequence_merge_split</title>
<ellipse fill="#e6f3ff" stroke="black" cx="2236" cy="-394" rx="92.88" ry="18"/>
<text text-anchor="middle" x="2236" y="-390.3" font-family="Times,serif" font-size="14.00">csequence_merge_split</text>
</g>
<!-- nasalib/co_structures@csequence_merge_split&#45;&gt;nasalib/co_structures@csequence_merge -->
<g id="edge40" class="edge">
<title>nasalib/co_structures@csequence_merge_split&#45;&gt;nasalib/co_structures@csequence_merge</title>
<path fill="none" stroke="black" d="M2219,-376.2C2219,-376.2 2219,-350.09 2219,-350.09"/>
<polygon fill="black" stroke="black" points="2222.5,-350.09 2219,-340.09 2215.5,-350.09 2222.5,-350.09"/>
</g>
<!-- nasalib/co_structures@csequence_split -->
<g id="node38" class="node">
<title>nasalib/co_structures@csequence_split</title>
<ellipse fill="#e6f3ff" stroke="black" cx="2583" cy="-322" rx="66.09" ry="18"/>
<text text-anchor="middle" x="2583" y="-318.3" font-family="Times,serif" font-size="14.00">csequence_split</text>
</g>
<!-- nasalib/co_structures@csequence_merge_split&#45;&gt;nasalib/co_structures@csequence_split -->
<g id="edge41" class="edge">
<title>nasalib/co_structures@csequence_merge_split&#45;&gt;nasalib/co_structures@csequence_split</title>
<path fill="none" stroke="black" d="M2319.72,-386.01C2319.72,-375.4 2319.72,-358 2319.72,-358 2319.72,-358 2524.82,-358 2524.82,-358 2524.82,-358 2524.82,-340.71 2524.82,-340.71"/>
<polygon fill="black" stroke="black" points="2528.32,-340.71 2524.82,-330.71 2521.32,-340.71 2528.32,-340.71"/>
</g>
<!-- nasalib/co_structures@csequence_nth&#45;&gt;nasalib/co_structures@csequence_length -->
<g id="edge45" class="edge">
<title>nasalib/co_structures@csequence_nth&#45;&gt;nasalib/co_structures@csequence_length</title>
<path fill="none" stroke="black" d="M1901,-231.83C1901,-231.83 1901,-206.41 1901,-206.41"/>
<polygon fill="black" stroke="black" points="1904.5,-206.41 1901,-196.41 1897.5,-206.41 1904.5,-206.41"/>
</g>
<!-- nasalib/co_structures@csequence_prefix -->
<g id="node29" class="node">
<title>nasalib/co_structures@csequence_prefix</title>
<ellipse fill="#e6f3ff" stroke="black" cx="1844" cy="-466" rx="71.49" ry="18"/>
<text text-anchor="middle" x="1844" y="-462.3" font-family="Times,serif" font-size="14.00">csequence_prefix</text>
</g>
<!-- nasalib/co_structures@csequence_prefix&#45;&gt;nasalib/co_structures@csequence_concatenate -->
<g id="edge50" class="edge">
<title>nasalib/co_structures@csequence_prefix&#45;&gt;nasalib/co_structures@csequence_concatenate</title>
<path fill="none" stroke="black" d="M1864.94,-448.42C1864.94,-439.28 1864.94,-430 1864.94,-430 1864.94,-430 2395.4,-430 2395.4,-430 2395.4,-430 2395.4,-419.89 2395.4,-419.89"/>
<polygon fill="black" stroke="black" points="2398.9,-419.89 2395.4,-409.89 2391.9,-419.89 2398.9,-419.89"/>
</g>
<!-- nasalib/co_structures@csequence_prefix&#45;&gt;nasalib/co_structures@csequence_extract -->
<g id="edge51" class="edge">
<title>nasalib/co_structures@csequence_prefix&#45;&gt;nasalib/co_structures@csequence_extract</title>
<path fill="none" stroke="black" d="M1793.45,-453.13C1793.45,-453.13 1793.45,-416.76 1793.45,-416.76"/>
<polygon fill="black" stroke="black" points="1796.95,-416.76 1793.45,-406.76 1789.95,-416.76 1796.95,-416.76"/>
</g>
<!-- nasalib/co_structures@csequence_prefix_append -->
<g id="node30" class="node">
<title>nasalib/co_structures@csequence_prefix_append</title>
<ellipse fill="#e6f3ff" stroke="black" cx="1008" cy="-538" rx="101.28" ry="18"/>
<text text-anchor="middle" x="1008" y="-534.3" font-family="Times,serif" font-size="14.00">csequence_prefix_append</text>
</g>
<!-- nasalib/co_structures@csequence_prefix_append&#45;&gt;nasalib/co_structures@csequence_append -->
<g id="edge46" class="edge">
<title>nasalib/co_structures@csequence_prefix_append&#45;&gt;nasalib/co_structures@csequence_append</title>
<path fill="none" stroke="black" d="M939.9,-524.52C939.9,-489.79 939.9,-400 939.9,-400 939.9,-400 568.42,-400 568.42,-400"/>
<polygon fill="black" stroke="black" points="568.42,-396.5 558.42,-400 568.42,-403.5 568.42,-396.5"/>
</g>
<!-- nasalib/co_structures@csequence_prefix_append&#45;&gt;nasalib/co_structures@csequence_prefix -->
<g id="edge47" class="edge">
<title>nasalib/co_structures@csequence_prefix_append&#45;&gt;nasalib/co_structures@csequence_prefix</title>
<path fill="none" stroke="black" d="M1050.12,-521.4C1050.12,-509.66 1050.12,-496 1050.12,-496 1050.12,-496 1808.25,-496 1808.25,-496 1808.25,-496 1808.25,-491.7 1808.25,-491.7"/>
<polygon fill="black" stroke="black" points="1811.75,-491.7 1808.25,-481.7 1804.75,-491.7 1811.75,-491.7"/>
</g>
<!-- nasalib/co_structures@csequence_prefix_suffix&#45;&gt;nasalib/co_structures@csequence_prefix -->
<g id="edge48" class="edge">
<title>nasalib/co_structures@csequence_prefix_suffix&#45;&gt;nasalib/co_structures@csequence_prefix</title>
<path fill="none" stroke="black" d="M1879.75,-522.73C1879.75,-522.73 1879.75,-491.75 1879.75,-491.75"/>
<polygon fill="black" stroke="black" points="1883.25,-491.75 1879.75,-481.75 1876.25,-491.75 1883.25,-491.75"/>
</g>
<!-- nasalib/co_structures@csequence_prefix_suffix&#45;&gt;nasalib/co_structures@csequence_suffix -->
<g id="edge49" class="edge">
<title>nasalib/co_structures@csequence_prefix_suffix&#45;&gt;nasalib/co_structures@csequence_suffix</title>
<path fill="none" stroke="black" d="M1922.23,-538C1926.27,-538 1928.65,-538 1928.65,-538 1928.65,-538 1928.65,-472 1928.65,-472 1928.65,-472 1966.57,-472 1966.57,-472"/>
<polygon fill="black" stroke="black" points="1966.57,-475.5 1976.57,-472 1966.57,-468.5 1966.57,-475.5"/>
</g>
<!-- nasalib/co_structures@csequence_props&#45;&gt;nasalib/co_structures@csequence -->
<g id="edge52" class="edge">
<title>nasalib/co_structures@csequence_props&#45;&gt;nasalib/co_structures@csequence</title>
<path fill="none" stroke="black" d="M2244.85,-106C2329.73,-106 2460.63,-106 2460.63,-106 2460.63,-106 2460.63,-54.94 2460.63,-54.94"/>
<polygon fill="black" stroke="black" points="2464.13,-54.94 2460.63,-44.94 2457.13,-54.94 2464.13,-54.94"/>
</g>
<!-- nasalib/co_structures@csequence_remove&#45;&gt;nasalib/co_structures@csequence_nth -->
<g id="edge53" class="edge">
<title>nasalib/co_structures@csequence_remove&#45;&gt;nasalib/co_structures@csequence_nth</title>
<path fill="none" stroke="black" d="M1537,-303.76C1537,-296.57 1537,-290 1537,-290 1537,-290 1897.5,-290 1897.5,-290 1897.5,-290 1897.5,-278.13 1897.5,-278.13"/>
<polygon fill="black" stroke="black" points="1901,-278.13 1897.5,-268.13 1894,-278.13 1901,-278.13"/>
</g>
<!-- nasalib/co_structures@csequence_rest -->
<g id="node34" class="node">
<title>nasalib/co_structures@csequence_rest</title>
<ellipse fill="#e6f3ff" stroke="black" cx="1377" cy="-322" rx="63.89" ry="18"/>
<text text-anchor="middle" x="1377" y="-318.3" font-family="Times,serif" font-size="14.00">csequence_rest</text>
</g>
<!-- nasalib/co_structures@csequence_rest&#45;&gt;nasalib/co_structures@csequence_nth -->
<g id="edge54" class="edge">
<title>nasalib/co_structures@csequence_rest&#45;&gt;nasalib/co_structures@csequence_nth</title>
<path fill="none" stroke="black" d="M1377,-303.68C1377,-295.21 1377,-287 1377,-287 1377,-287 1889.09,-287 1889.09,-287 1889.09,-287 1889.09,-278.07 1889.09,-278.07"/>
<polygon fill="black" stroke="black" points="1892.59,-278.07 1889.09,-268.07 1885.59,-278.07 1892.59,-278.07"/>
</g>
<!-- nasalib/co_structures@csequence_reverse -->
<g id="node35" class="node">
<title>nasalib/co_structures@csequence_reverse</title>
<ellipse fill="#e6f3ff" stroke="black" cx="582" cy="-466" rx="76.89" ry="18"/>
<text text-anchor="middle" x="582" y="-462.3" font-family="Times,serif" font-size="14.00">csequence_reverse</text>
</g>
<!-- nasalib/co_structures@csequence_reverse&#45;&gt;nasalib/co_structures@csequence_append -->
<g id="edge55" class="edge">
<title>nasalib/co_structures@csequence_reverse&#45;&gt;nasalib/co_structures@csequence_append</title>
<path fill="none" stroke="black" d="M534,-451.78C534,-451.78 534,-418.2 534,-418.2"/>
<polygon fill="black" stroke="black" points="537.5,-418.2 534,-408.2 530.5,-418.2 537.5,-418.2"/>
</g>
<!-- nasalib/co_structures@csequence_sequence -->
<g id="node36" class="node">
<title>nasalib/co_structures@csequence_sequence</title>
<ellipse fill="#e6f3ff" stroke="black" cx="890" cy="-322" rx="83.39" ry="18"/>
<text text-anchor="middle" x="890" y="-318.3" font-family="Times,serif" font-size="14.00">csequence_sequence</text>
</g>
<!-- nasalib/co_structures@csequence_sequence&#45;&gt;nasalib/co_structures@csequence -->
<g id="edge56" class="edge">
<title>nasalib/co_structures@csequence_sequence&#45;&gt;nasalib/co_structures@csequence</title>
<path fill="none" stroke="black" d="M862.27,-304.85C862.27,-243.84 862.27,-41 862.27,-41 862.27,-41 2444.67,-41 2444.67,-41"/>
<polygon fill="black" stroke="black" points="2444.67,-44.5 2454.67,-41 2444.67,-37.5 2444.67,-44.5"/>
</g>
<!-- nasalib/co_structures@csequence_sequence&#45;&gt;nasalib/co_structures@csequence_nth -->
<g id="edge57" class="edge">
<title>nasalib/co_structures@csequence_sequence&#45;&gt;nasalib/co_structures@csequence_nth</title>
<path fill="none" stroke="black" d="M917.73,-304.99C917.73,-292.24 917.73,-277 917.73,-277 917.73,-277 1863.85,-277 1863.85,-277 1863.85,-277 1863.85,-274.76 1863.85,-274.76"/>
<polygon fill="black" stroke="black" points="1867.35,-274.76 1863.85,-264.76 1860.35,-274.76 1867.35,-274.76"/>
</g>
<!-- nasalib/co_structures@csequence_singleton&#45;&gt;nasalib/co_structures@csequence_nth -->
<g id="edge58" class="edge">
<title>nasalib/co_structures@csequence_singleton&#45;&gt;nasalib/co_structures@csequence_nth</title>
<path fill="none" stroke="black" d="M1968.92,-313.94C1968.92,-298 1968.92,-264 1968.92,-264 1968.92,-264 1950.51,-264 1950.51,-264"/>
<polygon fill="black" stroke="black" points="1950.51,-260.5 1940.51,-264 1950.51,-267.5 1950.51,-260.5"/>
</g>
<!-- nasalib/co_structures@csequence_split&#45;&gt;nasalib/co_structures@csequence -->
<g id="edge59" class="edge">
<title>nasalib/co_structures@csequence_split&#45;&gt;nasalib/co_structures@csequence</title>
<path fill="none" stroke="black" d="M2516.6,-322C2512.08,-322 2509.26,-322 2509.26,-322 2509.26,-322 2509.26,-61.58 2509.26,-61.58"/>
<polygon fill="black" stroke="black" points="2512.76,-61.58 2509.26,-51.58 2505.76,-61.58 2512.76,-61.58"/>
</g>
<!-- nasalib/co_structures@csequence_split&#45;&gt;nasalib/co_structures@csequence_nth -->
<g id="edge60" class="edge">
<title>nasalib/co_structures@csequence_split&#45;&gt;nasalib/co_structures@csequence_nth</title>
<path fill="none" stroke="black" d="M2583.13,-303.99C2583.13,-281.51 2583.13,-246 2583.13,-246 2583.13,-246 1972.13,-246 1972.13,-246"/>
<polygon fill="black" stroke="black" points="1972.13,-242.5 1962.13,-246 1972.13,-249.5 1972.13,-242.5"/>
</g>
<!-- nasalib/co_structures@csequence_strict_prefix -->
<g id="node39" class="node">
<title>nasalib/co_structures@csequence_strict_prefix</title>
<ellipse fill="#e6f3ff" stroke="black" cx="1618" cy="-538" rx="93.68" ry="18"/>
<text text-anchor="middle" x="1618" y="-534.3" font-family="Times,serif" font-size="14.00">csequence_strict_prefix</text>
</g>
<!-- nasalib/co_structures@csequence_strict_prefix&#45;&gt;nasalib/co_structures@csequence_prefix -->
<g id="edge61" class="edge">
<title>nasalib/co_structures@csequence_strict_prefix&#45;&gt;nasalib/co_structures@csequence_prefix</title>
<path fill="none" stroke="black" d="M1618,-519.86C1618,-513.54 1618,-508 1618,-508 1618,-508 1844,-508 1844,-508 1844,-508 1844,-494.06 1844,-494.06"/>
<polygon fill="black" stroke="black" points="1847.5,-494.06 1844,-484.06 1840.5,-494.06 1847.5,-494.06"/>
</g>
<!-- nasalib/co_structures@csequence_subsequence&#45;&gt;nasalib/co_structures@csequence_prefix -->
<g id="edge62" class="edge">
<title>nasalib/co_structures@csequence_subsequence&#45;&gt;nasalib/co_structures@csequence_prefix</title>
<path fill="none" stroke="black" d="M1950.63,-529.65C1950.63,-509.53 1950.63,-460 1950.63,-460 1950.63,-460 1921.53,-460 1921.53,-460"/>
<polygon fill="black" stroke="black" points="1921.53,-456.5 1911.53,-460 1921.53,-463.5 1921.53,-456.5"/>
</g>
<!-- nasalib/co_structures@csequence_subsequence&#45;&gt;nasalib/co_structures@csequence_suffix -->
<g id="edge63" class="edge">
<title>nasalib/co_structures@csequence_subsequence&#45;&gt;nasalib/co_structures@csequence_suffix</title>
<path fill="none" stroke="black" d="M2044,-519.83C2044,-519.83 2044,-494.41 2044,-494.41"/>
<polygon fill="black" stroke="black" points="2047.5,-494.41 2044,-484.41 2040.5,-494.41 2047.5,-494.41"/>
</g>
<!-- nasalib/co_structures@csequence_suffix&#45;&gt;nasalib/co_structures@csequence_concatenate -->
<g id="edge64" class="edge">
<title>nasalib/co_structures@csequence_suffix&#45;&gt;nasalib/co_structures@csequence_concatenate</title>
<path fill="none" stroke="black" d="M2044,-447.84C2044,-442.96 2044,-439 2044,-439 2044,-439 2419.57,-439 2419.57,-439 2419.57,-439 2419.57,-421.79 2419.57,-421.79"/>
<polygon fill="black" stroke="black" points="2423.07,-421.79 2419.57,-411.79 2416.07,-421.79 2423.07,-421.79"/>
</g>
<!-- nasalib/co_structures@csequence_unzip -->
<g id="node42" class="node">
<title>nasalib/co_structures@csequence_unzip</title>
<ellipse fill="#e6f3ff" stroke="black" cx="576" cy="-322" rx="70.69" ry="18"/>
<text text-anchor="middle" x="576" y="-318.3" font-family="Times,serif" font-size="14.00">csequence_unzip</text>
</g>
<!-- nasalib/co_structures@csequence_unzip&#45;&gt;nasalib/co_structures@csequence -->
<g id="edge65" class="edge">
<title>nasalib/co_structures@csequence_unzip&#45;&gt;nasalib/co_structures@csequence</title>
<path fill="none" stroke="black" d="M552.39,-304.67C552.39,-242.02 552.39,-31 552.39,-31 552.39,-31 2441.82,-31 2441.82,-31"/>
<polygon fill="black" stroke="black" points="2441.82,-34.5 2451.82,-31 2441.82,-27.5 2441.82,-34.5"/>
</g>
<!-- nasalib/co_structures@csequence_unzip&#45;&gt;nasalib/co_structures@csequence_nth -->
<g id="edge66" class="edge">
<title>nasalib/co_structures@csequence_unzip&#45;&gt;nasalib/co_structures@csequence_nth</title>
<path fill="none" stroke="black" d="M599.61,-305.02C599.61,-290.18 599.61,-271 599.61,-271 599.61,-271 1847.02,-271 1847.02,-271 1847.02,-271 1847.02,-269.03 1847.02,-269.03"/>
<polygon fill="black" stroke="black" points="1850.52,-269.03 1847.02,-259.03 1843.52,-269.03 1850.52,-269.03"/>
</g>
<!-- nasalib/co_structures@csequence_zip -->
<g id="node43" class="node">
<title>nasalib/co_structures@csequence_zip</title>
<ellipse fill="#e6f3ff" stroke="black" cx="727" cy="-322" rx="61.99" ry="18"/>
<text text-anchor="middle" x="727" y="-318.3" font-family="Times,serif" font-size="14.00">csequence_zip</text>
</g>
<!-- nasalib/co_structures@csequence_zip&#45;&gt;nasalib/co_structures@csequence -->
<g id="edge69" class="edge">
<title>nasalib/co_structures@csequence_zip&#45;&gt;nasalib/co_structures@csequence</title>
<path fill="none" stroke="black" d="M696.13,-306.22C696.13,-246.26 696.13,-36 696.13,-36 696.13,-36 2441.19,-36 2441.19,-36"/>
<polygon fill="black" stroke="black" points="2441.19,-39.5 2451.19,-36 2441.19,-32.5 2441.19,-39.5"/>
</g>
<!-- nasalib/co_structures@csequence_zip&#45;&gt;nasalib/co_structures@csequence_length_comp -->
<g id="edge70" class="edge">
<title>nasalib/co_structures@csequence_zip&#45;&gt;nasalib/co_structures@csequence_length_comp</title>
<path fill="none" stroke="black" d="M757.87,-306.38C757.87,-285.2 757.87,-250 757.87,-250 757.87,-250 1615.15,-250 1615.15,-250"/>
<polygon fill="black" stroke="black" points="1615.15,-253.5 1625.15,-250 1615.15,-246.5 1615.15,-253.5"/>
</g>
<!-- nasalib/co_structures@csequence_zip&#45;&gt;nasalib/co_structures@csequence_nth -->
<g id="edge71" class="edge">
<title>nasalib/co_structures@csequence_zip&#45;&gt;nasalib/co_structures@csequence_nth</title>
<path fill="none" stroke="black" d="M727,-303.85C727,-290.26 727,-274 727,-274 727,-274 1855.43,-274 1855.43,-274 1855.43,-274 1855.43,-272.56 1855.43,-272.56"/>
<polygon fill="black" stroke="black" points="1858.93,-272.56 1855.43,-262.56 1851.93,-272.56 1858.93,-272.56"/>
</g>
<!-- nasalib/co_structures@csequence_zip_unzip -->
<g id="node44" class="node">
<title>nasalib/co_structures@csequence_zip_unzip</title>
<ellipse fill="#e6f3ff" stroke="black" cx="306" cy="-394" rx="85.59" ry="18"/>
<text text-anchor="middle" x="306" y="-390.3" font-family="Times,serif" font-size="14.00">csequence_zip_unzip</text>
</g>
<!-- nasalib/co_structures@csequence_zip_unzip&#45;&gt;nasalib/co_structures@csequence_unzip -->
<g id="edge67" class="edge">
<title>nasalib/co_structures@csequence_zip_unzip&#45;&gt;nasalib/co_structures@csequence_unzip</title>
<path fill="none" stroke="black" d="M334.6,-376.94C334.6,-355.65 334.6,-322 334.6,-322 334.6,-322 494.88,-322 494.88,-322"/>
<polygon fill="black" stroke="black" points="494.88,-325.5 504.88,-322 494.88,-318.5 494.88,-325.5"/>
</g>
<!-- nasalib/co_structures@csequence_zip_unzip&#45;&gt;nasalib/co_structures@csequence_zip -->
<g id="edge68" class="edge">
<title>nasalib/co_structures@csequence_zip_unzip&#45;&gt;nasalib/co_structures@csequence_zip</title>
<path fill="none" stroke="black" d="M277.4,-376.75C277.4,-371.46 277.4,-367 277.4,-367 277.4,-367 727,-367 727,-367 727,-367 727,-350.04 727,-350.04"/>
<polygon fill="black" stroke="black" points="730.5,-350.04 727,-340.04 723.5,-350.04 730.5,-350.04"/>
</g>
</g>
</svg>
