<?xml version="1.0" encoding="UTF-8" standalone="no"?>
<!DOCTYPE svg PUBLIC "-//W3C//DTD SVG 1.1//EN"
 "http://www.w3.org/Graphics/SVG/1.1/DTD/svg11.dtd">
<!-- Generated by graphviz version 7.0.6 (20230106.0513)
 -->
<!-- Title: complex_alt&#45;zoomed Pages: 1 -->
<svg width="856pt" height="390pt"
 viewBox="0.00 0.00 856.00 390.00" xmlns="http://www.w3.org/2000/svg" xmlns:xlink="http://www.w3.org/1999/xlink">
<g id="graph0" class="graph" transform="scale(1 1) rotate(0) translate(4 386)">
<title>complex_alt&#45;zoomed</title>
<polygon fill="white" stroke="none" points="-4,4 -4,-386 852,-386 852,4 -4,4"/>
<g id="clust2" class="cluster">
<title>cluster_NASALib/complex_alt</title>
<polygon fill="none" stroke="black" points="8,-8 8,-374 458,-374 458,-8 8,-8"/>
<text text-anchor="middle" x="233" y="-358.8" font-family="Times,serif" font-size="14.00">NASALib/complex_alt</text>
</g>
<g id="clust1" class="cluster">
<title>cluster_NASALib</title>
<polygon fill="none" stroke="black" points="466,-8 466,-83 840,-83 840,-8 466,-8"/>
<text text-anchor="middle" x="653" y="-67.8" font-family="Times,serif" font-size="14.00">NASALib</text>
</g>
<!-- NASALib/complex_alt@complex_fun_ops -->
<g id="node1" class="node">
<title>NASALib/complex_alt@complex_fun_ops</title>
<ellipse fill="#e6f3ff" stroke="black" cx="226" cy="-181" rx="74.19" ry="18"/>
<text text-anchor="middle" x="226" y="-177.3" font-family="Times,serif" font-size="14.00">complex_fun_ops</text>
</g>
<!-- NASALib/complex_alt@polar -->
<g id="node7" class="node">
<title>NASALib/complex_alt@polar</title>
<ellipse fill="#e6f3ff" stroke="black" cx="226" cy="-109" rx="28.7" ry="18"/>
<text text-anchor="middle" x="226" y="-105.3" font-family="Times,serif" font-size="14.00">polar</text>
</g>
<!-- NASALib/complex_alt@complex_fun_ops&#45;&gt;NASALib/complex_alt@polar -->
<g id="edge1" class="edge">
<title>NASALib/complex_alt@complex_fun_ops&#45;&gt;NASALib/complex_alt@polar</title>
<path fill="none" stroke="black" d="M226,-162.7C226,-155.41 226,-146.73 226,-138.54"/>
<polygon fill="black" stroke="black" points="229.5,-138.62 226,-128.62 222.5,-138.62 229.5,-138.62"/>
</g>
<!-- NASALib/reals -->
<g id="node11" class="node">
<title>NASALib/reals</title>
<polygon fill="#fcfcd7" stroke="black" points="528,-52 474,-52 474,-16 528,-16 528,-52"/>
<text text-anchor="middle" x="501" y="-30.3" font-family="Times,serif" font-size="14.00">reals</text>
</g>
<!-- NASALib/complex_alt@complex_fun_ops&#45;&gt;NASALib/reals -->
<g id="edge2" class="edge">
<title>NASALib/complex_alt@complex_fun_ops&#45;&gt;NASALib/reals</title>
<path fill="none" stroke="black" d="M501,-108C501,-108 501,-84.16 501,-63.73"/>
<polygon fill="black" stroke="black" points="504.5,-63.81 501,-53.81 497.5,-63.81 504.5,-63.81"/>
<path fill="none" stroke="black" d="M275.8,-167.32C355.05,-147.15 501,-110 501,-110"/>
</g>
<!-- NASALib/structures -->
<g id="node12" class="node">
<title>NASALib/structures</title>
<polygon fill="#fcfcd7" stroke="black" points="615.5,-52 546.5,-52 546.5,-16 615.5,-16 615.5,-52"/>
<text text-anchor="middle" x="581" y="-30.3" font-family="Times,serif" font-size="14.00">structures</text>
</g>
<!-- NASALib/complex_alt@complex_fun_ops&#45;&gt;NASALib/structures -->
<g id="edge3" class="edge">
<title>NASALib/complex_alt@complex_fun_ops&#45;&gt;NASALib/structures</title>
<path fill="none" stroke="black" d="M501,-108C501,-108 525,-91 525,-91 525,-91 537,-83 537,-83 537,-83 547.04,-72.04 557.53,-60.6"/>
<polygon fill="black" stroke="black" points="559.92,-63.18 564.09,-53.44 554.75,-58.45 559.92,-63.18"/>
</g>
<!-- NASALib/complex_alt@complex_lnexp -->
<g id="node2" class="node">
<title>NASALib/complex_alt@complex_lnexp</title>
<ellipse fill="#e6f3ff" stroke="black" cx="384" cy="-181" rx="65.79" ry="18"/>
<text text-anchor="middle" x="384" y="-177.3" font-family="Times,serif" font-size="14.00">complex_lnexp</text>
</g>
<!-- NASALib/complex_alt@complex_lnexp&#45;&gt;NASALib/complex_alt@polar -->
<g id="edge4" class="edge">
<title>NASALib/complex_alt@complex_lnexp&#45;&gt;NASALib/complex_alt@polar</title>
<path fill="none" stroke="black" d="M350.49,-165.15C323.58,-153.23 285.99,-136.58 259.17,-124.7"/>
<polygon fill="black" stroke="black" points="260.7,-121.54 250.14,-120.69 257.86,-127.94 260.7,-121.54"/>
</g>
<!-- NASALib/lnexp -->
<g id="node9" class="node">
<title>NASALib/lnexp</title>
<polygon fill="#fcfcd7" stroke="black" points="760,-52 706,-52 706,-16 760,-16 760,-52"/>
<text text-anchor="middle" x="733" y="-30.3" font-family="Times,serif" font-size="14.00">lnexp</text>
</g>
<!-- NASALib/complex_alt@complex_lnexp&#45;&gt;NASALib/lnexp -->
<g id="edge5" class="edge">
<title>NASALib/complex_alt@complex_lnexp&#45;&gt;NASALib/lnexp</title>
<path fill="none" stroke="black" d="M426.21,-166.76C476.27,-151.06 553,-127 553,-127 553,-127 601,-91 601,-91 601,-91 697,-83 697,-83 697,-83 704.9,-72.46 713.3,-61.26"/>
<polygon fill="black" stroke="black" points="715.9,-63.64 719.1,-53.54 710.3,-59.44 715.9,-63.64"/>
</g>
<!-- NASALib/trig -->
<g id="node13" class="node">
<title>NASALib/trig</title>
<polygon fill="#fcfcd7" stroke="black" points="688,-52 634,-52 634,-16 688,-16 688,-52"/>
<text text-anchor="middle" x="661" y="-30.3" font-family="Times,serif" font-size="14.00">trig</text>
</g>
<!-- NASALib/complex_alt@complex_lnexp&#45;&gt;NASALib/trig -->
<g id="edge6" class="edge">
<title>NASALib/complex_alt@complex_lnexp&#45;&gt;NASALib/trig</title>
<path fill="none" stroke="black" d="M539,-108C539,-108 563,-91 563,-91 563,-91 625,-83 625,-83 625,-83 632.9,-72.46 641.3,-61.26"/>
<polygon fill="black" stroke="black" points="643.9,-63.64 647.1,-53.54 638.3,-59.44 643.9,-63.64"/>
<path fill="none" stroke="black" d="M419.8,-165.52C458.58,-149.83 515,-127 515,-127 515,-127 539,-110 539,-110"/>
</g>
<!-- NASALib/complex_alt@complex_root -->
<g id="node3" class="node">
<title>NASALib/complex_alt@complex_root</title>
<ellipse fill="#e6f3ff" stroke="black" cx="365" cy="-325" rx="59.59" ry="18"/>
<text text-anchor="middle" x="365" y="-321.3" font-family="Times,serif" font-size="14.00">complex_root</text>
</g>
<!-- NASALib/complex_alt@fundamental_algebra -->
<g id="node6" class="node">
<title>NASALib/complex_alt@fundamental_algebra</title>
<ellipse fill="#e6f3ff" stroke="black" cx="365" cy="-253" rx="85.29" ry="18"/>
<text text-anchor="middle" x="365" y="-249.3" font-family="Times,serif" font-size="14.00">fundamental_algebra</text>
</g>
<!-- NASALib/complex_alt@complex_root&#45;&gt;NASALib/complex_alt@fundamental_algebra -->
<g id="edge7" class="edge">
<title>NASALib/complex_alt@complex_root&#45;&gt;NASALib/complex_alt@fundamental_algebra</title>
<path fill="none" stroke="black" d="M365,-306.7C365,-299.41 365,-290.73 365,-282.54"/>
<polygon fill="black" stroke="black" points="368.5,-282.62 365,-272.62 361.5,-282.62 368.5,-282.62"/>
</g>
<!-- NASALib/power -->
<g id="node10" class="node">
<title>NASALib/power</title>
<polygon fill="#fcfcd7" stroke="black" points="832,-52 778,-52 778,-16 832,-16 832,-52"/>
<text text-anchor="middle" x="805" y="-30.3" font-family="Times,serif" font-size="14.00">power</text>
</g>
<!-- NASALib/complex_alt@complex_root&#45;&gt;NASALib/power -->
<g id="edge8" class="edge">
<title>NASALib/complex_alt@complex_root&#45;&gt;NASALib/power</title>
<path fill="none" stroke="black" d="M392.19,-308.67C419.95,-293.02 459,-271 459,-271 459,-271 553,-199 553,-199 553,-199 615,-110 615,-110"/>
</g>
<!-- NASALib/complex_alt@complex_sqrt -->
<g id="node4" class="node">
<title>NASALib/complex_alt@complex_sqrt</title>
<ellipse fill="#e6f3ff" stroke="black" cx="75" cy="-181" rx="59.29" ry="18"/>
<text text-anchor="middle" x="75" y="-177.3" font-family="Times,serif" font-size="14.00">complex_sqrt</text>
</g>
<!-- NASALib/complex_alt@complex_sqrt&#45;&gt;NASALib/complex_alt@polar -->
<g id="edge9" class="edge">
<title>NASALib/complex_alt@complex_sqrt&#45;&gt;NASALib/complex_alt@polar</title>
<path fill="none" stroke="black" d="M106.65,-165.33C131.93,-153.61 167.23,-137.24 192.88,-125.35"/>
<polygon fill="black" stroke="black" points="194.26,-128.57 201.86,-121.19 191.31,-122.22 194.26,-128.57"/>
</g>
<!-- NASALib/complex_alt@complex_sqrt&#45;&gt;NASALib/trig -->
<g id="edge10" class="edge">
<title>NASALib/complex_alt@complex_sqrt&#45;&gt;NASALib/trig</title>
<path fill="none" stroke="black" d="M119.6,-168.85C132.42,-165.65 143,-163 143,-163 143,-163 487,-91 487,-91 487,-91 625,-83 625,-83 625,-83 632.9,-72.46 641.3,-61.26"/>
<polygon fill="black" stroke="black" points="643.9,-63.64 647.1,-53.54 638.3,-59.44 643.9,-63.64"/>
</g>
<!-- NASALib/complex_alt@complex_types -->
<g id="node5" class="node">
<title>NASALib/complex_alt@complex_types</title>
<ellipse fill="#e6f3ff" stroke="black" cx="226" cy="-34" rx="64.19" ry="18"/>
<text text-anchor="middle" x="226" y="-30.3" font-family="Times,serif" font-size="14.00">complex_types</text>
</g>
<!-- NASALib/complex_alt@complex_types&#45;&gt;NASALib/reals -->
<g id="edge11" class="edge">
<title>NASALib/complex_alt@complex_types&#45;&gt;NASALib/reals</title>
<path fill="none" stroke="black" d="M290.66,-34C305.83,-34 317.67,-34 317.67,-34 317.67,-34 409.33,-34 409.33,-34 409.33,-34 437.62,-34 462.77,-34"/>
<polygon fill="black" stroke="black" points="462.48,-37.5 472.48,-34 462.48,-30.5 462.48,-37.5"/>
</g>
<!-- NASALib/complex_alt@fundamental_algebra&#45;&gt;NASALib/complex_alt@complex_lnexp -->
<g id="edge12" class="edge">
<title>NASALib/complex_alt@fundamental_algebra&#45;&gt;NASALib/complex_alt@complex_lnexp</title>
<path fill="none" stroke="black" d="M369.7,-234.7C371.72,-227.24 374.14,-218.32 376.41,-209.97"/>
<polygon fill="black" stroke="black" points="379.72,-211.13 378.96,-200.57 372.96,-209.3 379.72,-211.13"/>
</g>
<!-- NASALib/complex_alt@fundamental_algebra&#45;&gt;NASALib/power -->
<g id="edge13" class="edge">
<title>NASALib/complex_alt@fundamental_algebra&#45;&gt;NASALib/power</title>
<path fill="none" stroke="black" d="M539,-180C539,-180 615,-110 615,-110"/>
<path fill="none" stroke="black" d="M615,-108C615,-108 769,-83 769,-83 769,-83 776.9,-72.46 785.3,-61.26"/>
<polygon fill="black" stroke="black" points="787.9,-63.64 791.1,-53.54 782.3,-59.44 787.9,-63.64"/>
</g>
<!-- NASALib/complex_alt@fundamental_algebra&#45;&gt;NASALib/trig -->
<g id="edge14" class="edge">
<title>NASALib/complex_alt@fundamental_algebra&#45;&gt;NASALib/trig</title>
<path fill="none" stroke="black" d="M403.19,-236.64C454.4,-216.03 539,-182 539,-182"/>
<path fill="none" stroke="black" d="M539,-180C539,-180 539,-110 539,-110"/>
</g>
<!-- NASALib/complex_alt@polar&#45;&gt;NASALib/complex_alt@complex_types -->
<g id="edge15" class="edge">
<title>NASALib/complex_alt@polar&#45;&gt;NASALib/complex_alt@complex_types</title>
<path fill="none" stroke="black" d="M226,-90.7C226,-82.67 226,-72.9 226,-63.8"/>
<polygon fill="black" stroke="black" points="229.5,-63.94 226,-53.94 222.5,-63.94 229.5,-63.94"/>
</g>
<!-- NASALib/complex_alt@polar&#45;&gt;NASALib/reals -->
<g id="edge16" class="edge">
<title>NASALib/complex_alt@polar&#45;&gt;NASALib/reals</title>
<path fill="none" stroke="black" d="M254.21,-104.39C293.25,-99.4 359,-91 359,-91 359,-91 462,-83 462,-83 462,-83 470.56,-72.46 479.66,-61.26"/>
<polygon fill="black" stroke="black" points="482.38,-63.47 485.97,-53.5 476.94,-59.06 482.38,-63.47"/>
</g>
<!-- NASALib/complex_alt@polar&#45;&gt;NASALib/trig -->
<g id="edge17" class="edge">
<title>NASALib/complex_alt@polar&#45;&gt;NASALib/trig</title>
<path fill="none" stroke="black" d="M254.21,-104.39C293.25,-99.4 359,-91 359,-91 359,-91 625,-83 625,-83 625,-83 632.9,-72.46 641.3,-61.26"/>
<polygon fill="black" stroke="black" points="643.9,-63.64 647.1,-53.54 638.3,-59.44 643.9,-63.64"/>
</g>
<!-- NASALib/complex_alt@quadratic -->
<g id="node8" class="node">
<title>NASALib/complex_alt@quadratic</title>
<ellipse fill="#e6f3ff" stroke="black" cx="136" cy="-109" rx="43.59" ry="18"/>
<text text-anchor="middle" x="136" y="-105.3" font-family="Times,serif" font-size="14.00">quadratic</text>
</g>
<!-- NASALib/complex_alt@quadratic&#45;&gt;NASALib/complex_alt@complex_types -->
<g id="edge18" class="edge">
<title>NASALib/complex_alt@quadratic&#45;&gt;NASALib/complex_alt@complex_types</title>
<path fill="none" stroke="black" d="M155.09,-92.52C167.28,-82.63 183.32,-69.62 197.06,-58.48"/>
<polygon fill="black" stroke="black" points="198.95,-61.44 204.51,-52.43 194.54,-56.01 198.95,-61.44"/>
</g>
<!-- NASALib/complex_alt@quadratic&#45;&gt;NASALib/reals -->
<g id="edge19" class="edge">
<title>NASALib/complex_alt@quadratic&#45;&gt;NASALib/reals</title>
<path fill="none" stroke="black" d="M169.52,-97.04C179.58,-93.75 188,-91 188,-91 188,-91 462,-83 462,-83 462,-83 470.56,-72.46 479.66,-61.26"/>
<polygon fill="black" stroke="black" points="482.38,-63.47 485.97,-53.5 476.94,-59.06 482.38,-63.47"/>
</g>
<!-- NASALib/complex_alt@quadratic&#45;&gt;NASALib/structures -->
<g id="edge20" class="edge">
<title>NASALib/complex_alt@quadratic&#45;&gt;NASALib/structures</title>
<path fill="none" stroke="black" d="M169.52,-97.04C179.58,-93.75 188,-91 188,-91 188,-91 537,-83 537,-83 537,-83 547.04,-72.04 557.53,-60.6"/>
<polygon fill="black" stroke="black" points="559.92,-63.18 564.09,-53.44 554.75,-58.45 559.92,-63.18"/>
</g>
</g>
</svg>
