<?xml version="1.0" encoding="UTF-8" standalone="no"?>
<!DOCTYPE svg PUBLIC "-//W3C//DTD SVG 1.1//EN"
 "http://www.w3.org/Graphics/SVG/1.1/DTD/svg11.dtd">
<!-- Generated by graphviz version 8.0.4 (20230421.1958)
 -->
<!-- Title: complex&#45;zoomed Pages: 1 -->
<svg width="753pt" height="465pt"
 viewBox="0.00 0.00 753.00 465.00" xmlns="http://www.w3.org/2000/svg" xmlns:xlink="http://www.w3.org/1999/xlink">
<g id="graph0" class="graph" transform="scale(1 1) rotate(0) translate(4 461)">
<title>complex&#45;zoomed</title>
<polygon fill="white" stroke="none" points="-4,4 -4,-461 749,-461 749,4 -4,4"/>
<g id="clust1" class="cluster">
<title>cluster_NASALib</title>
<polygon fill="none" stroke="black" points="449,-80 449,-156.5 737,-156.5 737,-80 449,-80"/>
<text text-anchor="middle" x="593" y="-139.2" font-family="Times,serif" font-size="14.00">NASALib</text>
</g>
<g id="clust2" class="cluster">
<title>cluster_NASALib/complex</title>
<polygon fill="none" stroke="black" points="8,-8 8,-449 441,-449 441,-8 8,-8"/>
<text text-anchor="middle" x="224.5" y="-431.7" font-family="Times,serif" font-size="14.00">NASALib/complex</text>
</g>
<!-- NASALib/algebra -->
<g id="node1" class="node">
<title>NASALib/algebra</title>
<polygon fill="#fcfcd7" stroke="black" points="512.88,-124 457.12,-124 457.12,-88 512.88,-88 512.88,-124"/>
<text text-anchor="middle" x="485" y="-100.95" font-family="Times,serif" font-size="14.00">algebra</text>
</g>
<!-- NASALib/complex@arithmetic -->
<g id="node2" class="node">
<title>NASALib/complex@arithmetic</title>
<ellipse fill="#e6f3ff" stroke="black" cx="237" cy="-182.5" rx="48.79" ry="18"/>
<text text-anchor="middle" x="237" y="-177.45" font-family="Times,serif" font-size="14.00">arithmetic</text>
</g>
<!-- NASALib/complex@complex_types -->
<g id="node6" class="node">
<title>NASALib/complex@complex_types</title>
<ellipse fill="#e6f3ff" stroke="black" cx="237" cy="-106" rx="67.22" ry="18"/>
<text text-anchor="middle" x="237" y="-100.95" font-family="Times,serif" font-size="14.00">complex_types</text>
</g>
<!-- NASALib/complex@arithmetic&#45;&gt;NASALib/complex@complex_types -->
<g id="edge1" class="edge">
<title>NASALib/complex@arithmetic&#45;&gt;NASALib/complex@complex_types</title>
<path fill="none" stroke="black" d="M237,-164.22C237,-155.63 237,-145.03 237,-135.3"/>
<polygon fill="black" stroke="black" points="240.5,-135.44 237,-125.44 233.5,-135.44 240.5,-135.44"/>
</g>
<!-- NASALib/complex@complex_field -->
<g id="node3" class="node">
<title>NASALib/complex@complex_field</title>
<ellipse fill="#e6f3ff" stroke="black" cx="368" cy="-182.5" rx="64.66" ry="18"/>
<text text-anchor="middle" x="368" y="-177.45" font-family="Times,serif" font-size="14.00">complex_field</text>
</g>
<!-- NASALib/complex@complex_field&#45;&gt;NASALib/algebra -->
<g id="edge2" class="edge">
<title>NASALib/complex@complex_field&#45;&gt;NASALib/algebra</title>
<path fill="none" stroke="black" d="M408.75,-168.27C427.22,-162.27 445,-156.5 445,-156.5 445,-156.5 454.56,-144.67 464.33,-132.58"/>
<polygon fill="black" stroke="black" points="467.45,-135.29 471.01,-125.31 462,-130.89 467.45,-135.29"/>
</g>
<!-- NASALib/complex@complex_field&#45;&gt;NASALib/complex@complex_types -->
<g id="edge3" class="edge">
<title>NASALib/complex@complex_field&#45;&gt;NASALib/complex@complex_types</title>
<path fill="none" stroke="black" d="M340.54,-165.88C321.28,-154.93 295.31,-140.16 274.19,-128.15"/>
<polygon fill="black" stroke="black" points="276.3,-124.75 265.88,-122.85 272.84,-130.84 276.3,-124.75"/>
</g>
<!-- NASALib/complex@complex_sets -->
<g id="node4" class="node">
<title>NASALib/complex@complex_sets</title>
<ellipse fill="#e6f3ff" stroke="black" cx="321" cy="-398.5" rx="61.59" ry="18"/>
<text text-anchor="middle" x="321" y="-393.45" font-family="Times,serif" font-size="14.00">complex_sets</text>
</g>
<!-- NASALib/complex@exp -->
<g id="node7" class="node">
<title>NASALib/complex@exp</title>
<ellipse fill="#e6f3ff" stroke="black" cx="200" cy="-326.5" rx="27" ry="18"/>
<text text-anchor="middle" x="200" y="-321.45" font-family="Times,serif" font-size="14.00">exp</text>
</g>
<!-- NASALib/complex@complex_sets&#45;&gt;NASALib/complex@exp -->
<g id="edge4" class="edge">
<title>NASALib/complex@complex_sets&#45;&gt;NASALib/complex@exp</title>
<path fill="none" stroke="black" d="M294.15,-381.96C274.97,-370.87 249.17,-355.95 229.44,-344.53"/>
<polygon fill="black" stroke="black" points="231.42,-341.05 221.01,-339.08 227.91,-347.11 231.42,-341.05"/>
</g>
<!-- NASALib/complex@complex_sqrt -->
<g id="node5" class="node">
<title>NASALib/complex@complex_sqrt</title>
<ellipse fill="#e6f3ff" stroke="black" cx="93" cy="-326.5" rx="61.59" ry="18"/>
<text text-anchor="middle" x="93" y="-321.45" font-family="Times,serif" font-size="14.00">complex_sqrt</text>
</g>
<!-- NASALib/complex@number_fields_sq -->
<g id="node10" class="node">
<title>NASALib/complex@number_fields_sq</title>
<ellipse fill="#e6f3ff" stroke="black" cx="93" cy="-182.5" rx="77.45" ry="18"/>
<text text-anchor="middle" x="93" y="-177.45" font-family="Times,serif" font-size="14.00">number_fields_sq</text>
</g>
<!-- NASALib/complex@complex_sqrt&#45;&gt;NASALib/complex@number_fields_sq -->
<g id="edge5" class="edge">
<title>NASALib/complex@complex_sqrt&#45;&gt;NASALib/complex@number_fields_sq</title>
<path fill="none" stroke="black" d="M93,-308.09C93,-284 93,-240.25 93,-211.53"/>
<polygon fill="black" stroke="black" points="96.5,-211.61 93,-201.61 89.5,-211.61 96.5,-211.61"/>
</g>
<!-- NASALib/complex@polar -->
<g id="node11" class="node">
<title>NASALib/complex@polar</title>
<ellipse fill="#e6f3ff" stroke="black" cx="200" cy="-254.5" rx="29.86" ry="18"/>
<text text-anchor="middle" x="200" y="-249.45" font-family="Times,serif" font-size="14.00">polar</text>
</g>
<!-- NASALib/complex@complex_sqrt&#45;&gt;NASALib/complex@polar -->
<g id="edge6" class="edge">
<title>NASALib/complex@complex_sqrt&#45;&gt;NASALib/complex@polar</title>
<path fill="none" stroke="black" d="M117.28,-309.62C133.41,-299.07 154.65,-285.17 171.56,-274.1"/>
<polygon fill="black" stroke="black" points="173.01,-276.69 179.46,-268.28 169.17,-270.83 173.01,-276.69"/>
</g>
<!-- NASALib/trig -->
<g id="node14" class="node">
<title>NASALib/trig</title>
<polygon fill="#fcfcd7" stroke="black" points="657,-124 603,-124 603,-88 657,-88 657,-124"/>
<text text-anchor="middle" x="630" y="-100.95" font-family="Times,serif" font-size="14.00">trig</text>
</g>
<!-- NASALib/complex@complex_sqrt&#45;&gt;NASALib/trig -->
<g id="edge7" class="edge">
<title>NASALib/complex@complex_sqrt&#45;&gt;NASALib/trig</title>
<path fill="none" stroke="black" d="M137.94,-313.96C258.5,-283.02 580,-200.5 580,-200.5 580,-200.5 600.94,-161.35 615.71,-133.72"/>
<polygon fill="black" stroke="black" points="619.2,-135.62 620.83,-125.15 613.03,-132.32 619.2,-135.62"/>
</g>
<!-- NASALib/complex@number_fields_bis -->
<g id="node9" class="node">
<title>NASALib/complex@number_fields_bis</title>
<ellipse fill="#e6f3ff" stroke="black" cx="166" cy="-34" rx="80.01" ry="18"/>
<text text-anchor="middle" x="166" y="-28.95" font-family="Times,serif" font-size="14.00">number_fields_bis</text>
</g>
<!-- NASALib/complex@complex_types&#45;&gt;NASALib/complex@number_fields_bis -->
<g id="edge8" class="edge">
<title>NASALib/complex@complex_types&#45;&gt;NASALib/complex@number_fields_bis</title>
<path fill="none" stroke="black" d="M220.17,-88.41C211.46,-79.82 200.65,-69.16 190.98,-59.63"/>
<polygon fill="black" stroke="black" points="193.78,-57.48 184.2,-52.96 188.86,-62.47 193.78,-57.48"/>
</g>
<!-- NASALib/complex@exp&#45;&gt;NASALib/complex@polar -->
<g id="edge9" class="edge">
<title>NASALib/complex@exp&#45;&gt;NASALib/complex@polar</title>
<path fill="none" stroke="black" d="M200,-308.2C200,-300.74 200,-291.82 200,-283.47"/>
<polygon fill="black" stroke="black" points="203.5,-283.6 200,-273.6 196.5,-283.6 203.5,-283.6"/>
</g>
<!-- NASALib/lnexp -->
<g id="node12" class="node">
<title>NASALib/lnexp</title>
<polygon fill="#fcfcd7" stroke="black" points="729,-124 675,-124 675,-88 729,-88 729,-124"/>
<text text-anchor="middle" x="702" y="-100.95" font-family="Times,serif" font-size="14.00">lnexp</text>
</g>
<!-- NASALib/complex@exp&#45;&gt;NASALib/lnexp -->
<g id="edge10" class="edge">
<title>NASALib/complex@exp&#45;&gt;NASALib/lnexp</title>
<path fill="none" stroke="black" d="M702,-181.5C702,-181.5 702,-156.2 702,-135.09"/>
<polygon fill="black" stroke="black" points="705.5,-135.28 702,-125.28 698.5,-135.28 705.5,-135.28"/>
</g>
<!-- NASALib/complex@exp&#45;&gt;NASALib/trig -->
<g id="edge11" class="edge">
<title>NASALib/complex@exp&#45;&gt;NASALib/trig</title>
<path fill="none" stroke="black" d="M702,-181.5C702,-181.5 666,-156.5 666,-156.5 666,-156.5 657.56,-144.9 648.86,-132.93"/>
<polygon fill="black" stroke="black" points="651.3,-131.34 642.59,-125.31 645.64,-135.46 651.3,-131.34"/>
<path fill="none" stroke="black" d="M226.56,-322.26C321,-310.76 635,-272.5 635,-272.5 635,-272.5 702,-183.5 702,-183.5"/>
</g>
<!-- NASALib/complex@fundamental_algebra -->
<g id="node8" class="node">
<title>NASALib/complex@fundamental_algebra</title>
<ellipse fill="#e6f3ff" stroke="black" cx="152" cy="-398.5" rx="89.23" ry="18"/>
<text text-anchor="middle" x="152" y="-393.45" font-family="Times,serif" font-size="14.00">fundamental_algebra</text>
</g>
<!-- NASALib/complex@fundamental_algebra&#45;&gt;NASALib/complex@exp -->
<g id="edge12" class="edge">
<title>NASALib/complex@fundamental_algebra&#45;&gt;NASALib/complex@exp</title>
<path fill="none" stroke="black" d="M163.87,-380.2C169.7,-371.69 176.82,-361.3 183.2,-352"/>
<polygon fill="black" stroke="black" points="186.49,-354.4 189.25,-344.17 180.71,-350.44 186.49,-354.4"/>
</g>
<!-- NASALib/complex@number_fields_sq&#45;&gt;NASALib/complex@number_fields_bis -->
<g id="edge13" class="edge">
<title>NASALib/complex@number_fields_sq&#45;&gt;NASALib/complex@number_fields_bis</title>
<path fill="none" stroke="black" d="M101.66,-164.12C114.23,-138.9 137.64,-91.92 152.49,-62.12"/>
<polygon fill="black" stroke="black" points="156.02,-63.87 157.35,-53.36 149.76,-60.75 156.02,-63.87"/>
</g>
<!-- NASALib/complex@polar&#45;&gt;NASALib/complex@arithmetic -->
<g id="edge14" class="edge">
<title>NASALib/complex@polar&#45;&gt;NASALib/complex@arithmetic</title>
<path fill="none" stroke="black" d="M208.77,-236.91C212.99,-228.92 218.16,-219.14 222.92,-210.14"/>
<polygon fill="black" stroke="black" points="226.46,-211.93 228.04,-201.46 220.27,-208.66 226.46,-211.93"/>
</g>
<!-- NASALib/complex@polar&#45;&gt;NASALib/complex@number_fields_sq -->
<g id="edge15" class="edge">
<title>NASALib/complex@polar&#45;&gt;NASALib/complex@number_fields_sq</title>
<path fill="none" stroke="black" d="M180.37,-240.66C165.48,-230.91 144.62,-217.27 127.02,-205.76"/>
<polygon fill="black" stroke="black" points="129.45,-202.51 119.17,-199.96 125.62,-208.37 129.45,-202.51"/>
</g>
<!-- NASALib/reals -->
<g id="node13" class="node">
<title>NASALib/reals</title>
<polygon fill="#fcfcd7" stroke="black" points="585,-124 531,-124 531,-88 585,-88 585,-124"/>
<text text-anchor="middle" x="558" y="-100.95" font-family="Times,serif" font-size="14.00">reals</text>
</g>
<!-- NASALib/complex@polar&#45;&gt;NASALib/reals -->
<g id="edge16" class="edge">
<title>NASALib/complex@polar&#45;&gt;NASALib/reals</title>
<path fill="none" stroke="black" d="M566,-181.5C566,-181.5 563.28,-156.2 561.02,-135.09"/>
<polygon fill="black" stroke="black" points="564.4,-134.85 559.86,-125.28 557.44,-135.6 564.4,-134.85"/>
<path fill="none" stroke="black" d="M228.41,-248.07C314.41,-231.62 566,-183.5 566,-183.5"/>
</g>
<!-- NASALib/complex@polar&#45;&gt;NASALib/trig -->
<g id="edge17" class="edge">
<title>NASALib/complex@polar&#45;&gt;NASALib/trig</title>
<path fill="none" stroke="black" d="M566,-181.5C566,-181.5 594,-156.5 594,-156.5 594,-156.5 602.44,-144.9 611.14,-132.93"/>
<polygon fill="black" stroke="black" points="614.36,-135.46 617.41,-125.31 608.7,-131.34 614.36,-135.46"/>
</g>
</g>
</svg>
