<?xml version="1.0" encoding="UTF-8" standalone="no"?>
<!DOCTYPE svg PUBLIC "-//W3C//DTD SVG 1.1//EN"
 "http://www.w3.org/Graphics/SVG/1.1/DTD/svg11.dtd">
<!-- Generated by graphviz version 2.40.1 (20161225.0304)
 -->
<!-- Title: complex Pages: 1 -->
<svg width="356pt" height="612pt"
 viewBox="0.00 0.00 356.00 612.00" xmlns="http://www.w3.org/2000/svg" xmlns:xlink="http://www.w3.org/1999/xlink">
<g id="graph0" class="graph" transform="scale(1 1) rotate(0) translate(4 608)">
<title>complex</title>
<polygon fill="#ffffff" stroke="transparent" points="-4,4 -4,-608 352,-608 352,4 -4,4"/>
<g id="clust1" class="cluster">
<title>cluster_NASALib</title>
<polygon fill="none" stroke="#000000" points="8,-90 8,-596 340,-596 340,-90 8,-90"/>
<text text-anchor="middle" x="174" y="-580.8" font-family="Times,serif" font-size="14.00" fill="#000000">NASALib</text>
</g>
<g id="clust2" class="cluster">
<title>cluster_PVS Prelude</title>
<polygon fill="none" stroke="#000000" points="217,-8 217,-82 305,-82 305,-8 217,-8"/>
<text text-anchor="middle" x="261" y="-66.8" font-family="Times,serif" font-size="14.00" fill="#000000">PVS Prelude</text>
</g>
<!-- /Users/mmoscato/Workspace/Workbench/pvs/dependency&#45;all/Users/mmoscato/pvs/pvs/lib/finite_sets -->
<g id="node1" class="node">
<title>/Users/mmoscato/Workspace/Workbench/pvs/dependency&#45;all/Users/mmoscato/pvs/pvs/lib/finite_sets</title>
<polygon fill="#fcfcd7" stroke="#000000" points="297.2796,-52 224.7204,-52 224.7204,-16 297.2796,-16 297.2796,-52"/>
<text text-anchor="middle" x="261" y="-29.8" font-family="Times,serif" font-size="14.00" fill="#000000">finite_sets</text>
</g>
<!-- /Users/mmoscato/Workspace/Workbench/pvs/dependency&#45;all/Users/mmoscato/pvs/pvs/nasalib/algebra -->
<g id="node2" class="node">
<title>/Users/mmoscato/Workspace/Workbench/pvs/dependency&#45;all/Users/mmoscato/pvs/pvs/nasalib/algebra</title>
<polygon fill="#fcfcd7" stroke="#000000" points="133.6937,-422 76.3063,-422 76.3063,-386 133.6937,-386 133.6937,-422"/>
<text text-anchor="middle" x="105" y="-399.8" font-family="Times,serif" font-size="14.00" fill="#000000">algebra</text>
</g>
<!-- /Users/mmoscato/Workspace/Workbench/pvs/dependency&#45;all/Users/mmoscato/pvs/pvs/nasalib/algebra&#45;&gt;/Users/mmoscato/Workspace/Workbench/pvs/dependency&#45;all/Users/mmoscato/pvs/pvs/lib/finite_sets -->
<g id="edge1" class="edge">
<title>/Users/mmoscato/Workspace/Workbench/pvs/dependency&#45;all/Users/mmoscato/pvs/pvs/nasalib/algebra&#45;&gt;/Users/mmoscato/Workspace/Workbench/pvs/dependency&#45;all/Users/mmoscato/pvs/pvs/lib/finite_sets</title>
<path fill="none" stroke="#000000" d="M95.4678,-385.9037C95.4678,-311.6189 95.4678,-34 95.4678,-34 95.4678,-34 214.6733,-34 214.6733,-34"/>
<polygon fill="#000000" stroke="#000000" points="214.6733,-37.5001 224.6733,-34 214.6732,-30.5001 214.6733,-37.5001"/>
</g>
<!-- /Users/mmoscato/Workspace/Workbench/pvs/dependency&#45;all/Users/mmoscato/pvs/pvs/nasalib/ints -->
<g id="node5" class="node">
<title>/Users/mmoscato/Workspace/Workbench/pvs/dependency&#45;all/Users/mmoscato/pvs/pvs/nasalib/ints</title>
<polygon fill="#fcfcd7" stroke="#000000" points="254,-134 200,-134 200,-98 254,-98 254,-134"/>
<text text-anchor="middle" x="227" y="-111.8" font-family="Times,serif" font-size="14.00" fill="#000000">ints</text>
</g>
<!-- /Users/mmoscato/Workspace/Workbench/pvs/dependency&#45;all/Users/mmoscato/pvs/pvs/nasalib/algebra&#45;&gt;/Users/mmoscato/Workspace/Workbench/pvs/dependency&#45;all/Users/mmoscato/pvs/pvs/nasalib/ints -->
<g id="edge2" class="edge">
<title>/Users/mmoscato/Workspace/Workbench/pvs/dependency&#45;all/Users/mmoscato/pvs/pvs/nasalib/algebra&#45;&gt;/Users/mmoscato/Workspace/Workbench/pvs/dependency&#45;all/Users/mmoscato/pvs/pvs/nasalib/ints</title>
<path fill="none" stroke="#000000" d="M114.5322,-385.9295C114.5322,-321.6635 114.5322,-108 114.5322,-108 114.5322,-108 189.7747,-108 189.7747,-108"/>
<polygon fill="#000000" stroke="#000000" points="189.7747,-111.5001 199.7747,-108 189.7747,-104.5001 189.7747,-111.5001"/>
</g>
<!-- /Users/mmoscato/Workspace/Workbench/pvs/dependency&#45;all/Users/mmoscato/pvs/pvs/nasalib/analysis -->
<g id="node3" class="node">
<title>/Users/mmoscato/Workspace/Workbench/pvs/dependency&#45;all/Users/mmoscato/pvs/pvs/nasalib/analysis</title>
<polygon fill="#fcfcd7" stroke="#000000" points="245.6036,-350 184.3964,-350 184.3964,-314 245.6036,-314 245.6036,-350"/>
<text text-anchor="middle" x="215" y="-327.8" font-family="Times,serif" font-size="14.00" fill="#000000">analysis</text>
</g>
<!-- /Users/mmoscato/Workspace/Workbench/pvs/dependency&#45;all/Users/mmoscato/pvs/pvs/nasalib/analysis&#45;&gt;/Users/mmoscato/Workspace/Workbench/pvs/dependency&#45;all/Users/mmoscato/pvs/pvs/lib/finite_sets -->
<g id="edge3" class="edge">
<title>/Users/mmoscato/Workspace/Workbench/pvs/dependency&#45;all/Users/mmoscato/pvs/pvs/nasalib/analysis&#45;&gt;/Users/mmoscato/Workspace/Workbench/pvs/dependency&#45;all/Users/mmoscato/pvs/pvs/lib/finite_sets</title>
<path fill="none" stroke="#000000" d="M234.1638,-313.9364C234.1638,-281.7915 234.1638,-218 234.1638,-218 234.1638,-218 271.0078,-218 271.0078,-218 271.0078,-218 271.0078,-62.3153 271.0078,-62.3153"/>
<polygon fill="#000000" stroke="#000000" points="274.5079,-62.3153 271.0078,-52.3153 267.5079,-62.3154 274.5079,-62.3153"/>
</g>
<!-- /Users/mmoscato/Workspace/Workbench/pvs/dependency&#45;all/Users/mmoscato/pvs/pvs/nasalib/analysis&#45;&gt;/Users/mmoscato/Workspace/Workbench/pvs/dependency&#45;all/Users/mmoscato/pvs/pvs/nasalib/ints -->
<g id="edge4" class="edge">
<title>/Users/mmoscato/Workspace/Workbench/pvs/dependency&#45;all/Users/mmoscato/pvs/pvs/nasalib/analysis&#45;&gt;/Users/mmoscato/Workspace/Workbench/pvs/dependency&#45;all/Users/mmoscato/pvs/pvs/nasalib/ints</title>
<path fill="none" stroke="#000000" d="M184.0356,-332C164.8845,-332 143.9328,-332 143.9328,-332 143.9328,-332 143.9328,-123 143.9328,-123 143.9328,-123 189.8007,-123 189.8007,-123"/>
<polygon fill="#000000" stroke="#000000" points="189.8007,-126.5001 199.8007,-123 189.8007,-119.5001 189.8007,-126.5001"/>
</g>
<!-- /Users/mmoscato/Workspace/Workbench/pvs/dependency&#45;all/Users/mmoscato/pvs/pvs/nasalib/orders -->
<g id="node7" class="node">
<title>/Users/mmoscato/Workspace/Workbench/pvs/dependency&#45;all/Users/mmoscato/pvs/pvs/nasalib/orders</title>
<polygon fill="#fcfcd7" stroke="#000000" points="312,-278 258,-278 258,-242 312,-242 312,-278"/>
<text text-anchor="middle" x="285" y="-255.8" font-family="Times,serif" font-size="14.00" fill="#000000">orders</text>
</g>
<!-- /Users/mmoscato/Workspace/Workbench/pvs/dependency&#45;all/Users/mmoscato/pvs/pvs/nasalib/analysis&#45;&gt;/Users/mmoscato/Workspace/Workbench/pvs/dependency&#45;all/Users/mmoscato/pvs/pvs/nasalib/orders -->
<g id="edge5" class="edge">
<title>/Users/mmoscato/Workspace/Workbench/pvs/dependency&#45;all/Users/mmoscato/pvs/pvs/nasalib/analysis&#45;&gt;/Users/mmoscato/Workspace/Workbench/pvs/dependency&#45;all/Users/mmoscato/pvs/pvs/nasalib/orders</title>
<path fill="none" stroke="#000000" d="M245.7137,-332C253.9744,-332 260.6667,-332 260.6667,-332 260.6667,-332 260.6667,-288.1686 260.6667,-288.1686"/>
<polygon fill="#000000" stroke="#000000" points="264.1668,-288.1686 260.6667,-278.1686 257.1668,-288.1687 264.1668,-288.1686"/>
</g>
<!-- /Users/mmoscato/Workspace/Workbench/pvs/dependency&#45;all/Users/mmoscato/pvs/pvs/nasalib/reals -->
<g id="node8" class="node">
<title>/Users/mmoscato/Workspace/Workbench/pvs/dependency&#45;all/Users/mmoscato/pvs/pvs/nasalib/reals</title>
<polygon fill="#fcfcd7" stroke="#000000" points="200,-278 146,-278 146,-242 200,-242 200,-278"/>
<text text-anchor="middle" x="173" y="-255.8" font-family="Times,serif" font-size="14.00" fill="#000000">reals</text>
</g>
<!-- /Users/mmoscato/Workspace/Workbench/pvs/dependency&#45;all/Users/mmoscato/pvs/pvs/nasalib/analysis&#45;&gt;/Users/mmoscato/Workspace/Workbench/pvs/dependency&#45;all/Users/mmoscato/pvs/pvs/nasalib/reals -->
<g id="edge6" class="edge">
<title>/Users/mmoscato/Workspace/Workbench/pvs/dependency&#45;all/Users/mmoscato/pvs/pvs/nasalib/analysis&#45;&gt;/Users/mmoscato/Workspace/Workbench/pvs/dependency&#45;all/Users/mmoscato/pvs/pvs/nasalib/reals</title>
<path fill="none" stroke="#000000" d="M192.2241,-313.8314C192.2241,-313.8314 192.2241,-288.4133 192.2241,-288.4133"/>
<polygon fill="#000000" stroke="#000000" points="195.7242,-288.4132 192.2241,-278.4133 188.7242,-288.4133 195.7242,-288.4132"/>
</g>
<!-- /Users/mmoscato/Workspace/Workbench/pvs/dependency&#45;all/Users/mmoscato/pvs/pvs/nasalib/structures -->
<g id="node10" class="node">
<title>/Users/mmoscato/Workspace/Workbench/pvs/dependency&#45;all/Users/mmoscato/pvs/pvs/nasalib/structures</title>
<polygon fill="#fcfcd7" stroke="#000000" points="262.429,-206 191.571,-206 191.571,-170 262.429,-170 262.429,-206"/>
<text text-anchor="middle" x="227" y="-183.8" font-family="Times,serif" font-size="14.00" fill="#000000">structures</text>
</g>
<!-- /Users/mmoscato/Workspace/Workbench/pvs/dependency&#45;all/Users/mmoscato/pvs/pvs/nasalib/analysis&#45;&gt;/Users/mmoscato/Workspace/Workbench/pvs/dependency&#45;all/Users/mmoscato/pvs/pvs/nasalib/structures -->
<g id="edge7" class="edge">
<title>/Users/mmoscato/Workspace/Workbench/pvs/dependency&#45;all/Users/mmoscato/pvs/pvs/nasalib/analysis&#45;&gt;/Users/mmoscato/Workspace/Workbench/pvs/dependency&#45;all/Users/mmoscato/pvs/pvs/nasalib/structures</title>
<path fill="none" stroke="#000000" d="M222.7759,-313.7623C222.7759,-313.7623 222.7759,-216.0896 222.7759,-216.0896"/>
<polygon fill="#000000" stroke="#000000" points="226.276,-216.0896 222.7759,-206.0896 219.276,-216.0897 226.276,-216.0896"/>
</g>
<!-- /Users/mmoscato/Workspace/Workbench/pvs/dependency&#45;all/Users/mmoscato/pvs/pvs/nasalib/complex -->
<g id="node4" class="node">
<title>/Users/mmoscato/Workspace/Workbench/pvs/dependency&#45;all/Users/mmoscato/pvs/pvs/nasalib/complex</title>
<polygon fill="#f7e28d" stroke="#000000" points="225.2074,-566 160.7926,-566 160.7926,-530 225.2074,-530 225.2074,-566"/>
<text text-anchor="middle" x="193" y="-543.8" font-family="Times,serif" font-size="14.00" fill="#000000">complex</text>
</g>
<!-- /Users/mmoscato/Workspace/Workbench/pvs/dependency&#45;all/Users/mmoscato/pvs/pvs/nasalib/complex&#45;&gt;/Users/mmoscato/Workspace/Workbench/pvs/dependency&#45;all/Users/mmoscato/pvs/pvs/lib/finite_sets -->
<g id="edge8" class="edge">
<title>/Users/mmoscato/Workspace/Workbench/pvs/dependency&#45;all/Users/mmoscato/pvs/pvs/nasalib/complex&#45;&gt;/Users/mmoscato/Workspace/Workbench/pvs/dependency&#45;all/Users/mmoscato/pvs/pvs/lib/finite_sets</title>
<path fill="none" stroke="#000000" d="M160.6456,-548C147.6401,-548 135.6639,-548 135.6639,-548 135.6639,-548 135.6639,-43 135.6639,-43 135.6639,-43 214.4107,-43 214.4107,-43"/>
<polygon fill="#000000" stroke="#000000" points="214.4107,-46.5001 224.4107,-43 214.4106,-39.5001 214.4107,-46.5001"/>
</g>
<!-- /Users/mmoscato/Workspace/Workbench/pvs/dependency&#45;all/Users/mmoscato/pvs/pvs/nasalib/complex&#45;&gt;/Users/mmoscato/Workspace/Workbench/pvs/dependency&#45;all/Users/mmoscato/pvs/pvs/nasalib/algebra -->
<g id="edge9" class="edge">
<title>/Users/mmoscato/Workspace/Workbench/pvs/dependency&#45;all/Users/mmoscato/pvs/pvs/nasalib/complex&#45;&gt;/Users/mmoscato/Workspace/Workbench/pvs/dependency&#45;all/Users/mmoscato/pvs/pvs/nasalib/algebra</title>
<path fill="none" stroke="#000000" d="M167.6256,-529.9282C167.6256,-493.3519 167.6256,-414 167.6256,-414 167.6256,-414 143.7467,-414 143.7467,-414"/>
<polygon fill="#000000" stroke="#000000" points="143.7467,-410.5001 133.7467,-414 143.7467,-417.5001 143.7467,-410.5001"/>
</g>
<!-- /Users/mmoscato/Workspace/Workbench/pvs/dependency&#45;all/Users/mmoscato/pvs/pvs/nasalib/complex&#45;&gt;/Users/mmoscato/Workspace/Workbench/pvs/dependency&#45;all/Users/mmoscato/pvs/pvs/nasalib/analysis -->
<g id="edge10" class="edge">
<title>/Users/mmoscato/Workspace/Workbench/pvs/dependency&#45;all/Users/mmoscato/pvs/pvs/nasalib/complex&#45;&gt;/Users/mmoscato/Workspace/Workbench/pvs/dependency&#45;all/Users/mmoscato/pvs/pvs/nasalib/analysis</title>
<path fill="none" stroke="#000000" d="M195.4689,-529.9555C195.4689,-529.9555 195.4689,-360.1451 195.4689,-360.1451"/>
<polygon fill="#000000" stroke="#000000" points="198.969,-360.145 195.4689,-350.1451 191.969,-360.1451 198.969,-360.145"/>
</g>
<!-- /Users/mmoscato/Workspace/Workbench/pvs/dependency&#45;all/Users/mmoscato/pvs/pvs/nasalib/complex&#45;&gt;/Users/mmoscato/Workspace/Workbench/pvs/dependency&#45;all/Users/mmoscato/pvs/pvs/nasalib/ints -->
<g id="edge11" class="edge">
<title>/Users/mmoscato/Workspace/Workbench/pvs/dependency&#45;all/Users/mmoscato/pvs/pvs/nasalib/complex&#45;&gt;/Users/mmoscato/Workspace/Workbench/pvs/dependency&#45;all/Users/mmoscato/pvs/pvs/nasalib/ints</title>
<path fill="none" stroke="#000000" d="M225.4489,-554C267.6399,-554 336,-554 336,-554 336,-554 336,-116 336,-116 336,-116 264.2241,-116 264.2241,-116"/>
<polygon fill="#000000" stroke="#000000" points="264.2242,-112.5001 254.2241,-116 264.2241,-119.5001 264.2242,-112.5001"/>
</g>
<!-- /Users/mmoscato/Workspace/Workbench/pvs/dependency&#45;all/Users/mmoscato/pvs/pvs/nasalib/lnexp -->
<g id="node6" class="node">
<title>/Users/mmoscato/Workspace/Workbench/pvs/dependency&#45;all/Users/mmoscato/pvs/pvs/nasalib/lnexp</title>
<polygon fill="#fcfcd7" stroke="#000000" points="90,-494 36,-494 36,-458 90,-458 90,-494"/>
<text text-anchor="middle" x="63" y="-471.8" font-family="Times,serif" font-size="14.00" fill="#000000">lnexp</text>
</g>
<!-- /Users/mmoscato/Workspace/Workbench/pvs/dependency&#45;all/Users/mmoscato/pvs/pvs/nasalib/complex&#45;&gt;/Users/mmoscato/Workspace/Workbench/pvs/dependency&#45;all/Users/mmoscato/pvs/pvs/nasalib/lnexp -->
<g id="edge12" class="edge">
<title>/Users/mmoscato/Workspace/Workbench/pvs/dependency&#45;all/Users/mmoscato/pvs/pvs/nasalib/complex&#45;&gt;/Users/mmoscato/Workspace/Workbench/pvs/dependency&#45;all/Users/mmoscato/pvs/pvs/nasalib/lnexp</title>
<path fill="none" stroke="#000000" d="M164.261,-529.9775C164.261,-512.6266 164.261,-489 164.261,-489 164.261,-489 100.1361,-489 100.1361,-489"/>
<polygon fill="#000000" stroke="#000000" points="100.1361,-485.5001 90.1361,-489 100.1361,-492.5001 100.1361,-485.5001"/>
</g>
<!-- /Users/mmoscato/Workspace/Workbench/pvs/dependency&#45;all/Users/mmoscato/pvs/pvs/nasalib/complex&#45;&gt;/Users/mmoscato/Workspace/Workbench/pvs/dependency&#45;all/Users/mmoscato/pvs/pvs/nasalib/orders -->
<g id="edge13" class="edge">
<title>/Users/mmoscato/Workspace/Workbench/pvs/dependency&#45;all/Users/mmoscato/pvs/pvs/nasalib/complex&#45;&gt;/Users/mmoscato/Workspace/Workbench/pvs/dependency&#45;all/Users/mmoscato/pvs/pvs/nasalib/orders</title>
<path fill="none" stroke="#000000" d="M225.2325,-542C255.6641,-542 296.6667,-542 296.6667,-542 296.6667,-542 296.6667,-288.0694 296.6667,-288.0694"/>
<polygon fill="#000000" stroke="#000000" points="300.1666,-288.0694 296.6667,-278.0694 293.1666,-288.0693 300.1666,-288.0694"/>
</g>
<!-- /Users/mmoscato/Workspace/Workbench/pvs/dependency&#45;all/Users/mmoscato/pvs/pvs/nasalib/complex&#45;&gt;/Users/mmoscato/Workspace/Workbench/pvs/dependency&#45;all/Users/mmoscato/pvs/pvs/nasalib/reals -->
<g id="edge14" class="edge">
<title>/Users/mmoscato/Workspace/Workbench/pvs/dependency&#45;all/Users/mmoscato/pvs/pvs/nasalib/complex&#45;&gt;/Users/mmoscato/Workspace/Workbench/pvs/dependency&#45;all/Users/mmoscato/pvs/pvs/nasalib/reals</title>
<path fill="none" stroke="#000000" d="M170.9901,-529.9843C170.9901,-529.9843 170.9901,-288.0089 170.9901,-288.0089"/>
<polygon fill="#000000" stroke="#000000" points="174.4902,-288.0088 170.9901,-278.0089 167.4902,-288.0089 174.4902,-288.0088"/>
</g>
<!-- /Users/mmoscato/Workspace/Workbench/pvs/dependency&#45;all/Users/mmoscato/pvs/pvs/nasalib/series -->
<g id="node9" class="node">
<title>/Users/mmoscato/Workspace/Workbench/pvs/dependency&#45;all/Users/mmoscato/pvs/pvs/nasalib/series</title>
<polygon fill="#fcfcd7" stroke="#000000" points="266,-422 212,-422 212,-386 266,-386 266,-422"/>
<text text-anchor="middle" x="239" y="-399.8" font-family="Times,serif" font-size="14.00" fill="#000000">series</text>
</g>
<!-- /Users/mmoscato/Workspace/Workbench/pvs/dependency&#45;all/Users/mmoscato/pvs/pvs/nasalib/complex&#45;&gt;/Users/mmoscato/Workspace/Workbench/pvs/dependency&#45;all/Users/mmoscato/pvs/pvs/nasalib/series -->
<g id="edge15" class="edge">
<title>/Users/mmoscato/Workspace/Workbench/pvs/dependency&#45;all/Users/mmoscato/pvs/pvs/nasalib/complex&#45;&gt;/Users/mmoscato/Workspace/Workbench/pvs/dependency&#45;all/Users/mmoscato/pvs/pvs/nasalib/series</title>
<path fill="none" stroke="#000000" d="M200.9793,-529.9162C200.9793,-489.0289 200.9793,-393 200.9793,-393 200.9793,-393 202.0586,-393 202.0586,-393"/>
<polygon fill="#000000" stroke="#000000" points="201.7728,-396.5001 211.7728,-393 201.7728,-389.5001 201.7728,-396.5001"/>
</g>
<!-- /Users/mmoscato/Workspace/Workbench/pvs/dependency&#45;all/Users/mmoscato/pvs/pvs/nasalib/complex&#45;&gt;/Users/mmoscato/Workspace/Workbench/pvs/dependency&#45;all/Users/mmoscato/pvs/pvs/nasalib/structures -->
<g id="edge16" class="edge">
<title>/Users/mmoscato/Workspace/Workbench/pvs/dependency&#45;all/Users/mmoscato/pvs/pvs/nasalib/complex&#45;&gt;/Users/mmoscato/Workspace/Workbench/pvs/dependency&#45;all/Users/mmoscato/pvs/pvs/nasalib/structures</title>
<path fill="none" stroke="#000000" d="M174.3546,-529.8768C174.3546,-472.0955 174.3546,-296 174.3546,-296 174.3546,-296 211.3879,-296 211.3879,-296 211.3879,-296 211.3879,-216.3207 211.3879,-216.3207"/>
<polygon fill="#000000" stroke="#000000" points="214.888,-216.3207 211.3879,-206.3207 207.888,-216.3208 214.888,-216.3207"/>
</g>
<!-- /Users/mmoscato/Workspace/Workbench/pvs/dependency&#45;all/Users/mmoscato/pvs/pvs/nasalib/trig -->
<g id="node11" class="node">
<title>/Users/mmoscato/Workspace/Workbench/pvs/dependency&#45;all/Users/mmoscato/pvs/pvs/nasalib/trig</title>
<polygon fill="#fcfcd7" stroke="#000000" points="266,-494 212,-494 212,-458 266,-458 266,-494"/>
<text text-anchor="middle" x="239" y="-471.8" font-family="Times,serif" font-size="14.00" fill="#000000">trig</text>
</g>
<!-- /Users/mmoscato/Workspace/Workbench/pvs/dependency&#45;all/Users/mmoscato/pvs/pvs/nasalib/complex&#45;&gt;/Users/mmoscato/Workspace/Workbench/pvs/dependency&#45;all/Users/mmoscato/pvs/pvs/nasalib/trig -->
<g id="edge17" class="edge">
<title>/Users/mmoscato/Workspace/Workbench/pvs/dependency&#45;all/Users/mmoscato/pvs/pvs/nasalib/complex&#45;&gt;/Users/mmoscato/Workspace/Workbench/pvs/dependency&#45;all/Users/mmoscato/pvs/pvs/nasalib/trig</title>
<path fill="none" stroke="#000000" d="M218.5518,-529.8314C218.5518,-529.8314 218.5518,-504.4133 218.5518,-504.4133"/>
<polygon fill="#000000" stroke="#000000" points="222.0519,-504.4132 218.5518,-494.4133 215.0519,-504.4133 222.0519,-504.4132"/>
</g>
<!-- /Users/mmoscato/Workspace/Workbench/pvs/dependency&#45;all/Users/mmoscato/pvs/pvs/nasalib/ints&#45;&gt;/Users/mmoscato/Workspace/Workbench/pvs/dependency&#45;all/Users/mmoscato/pvs/pvs/lib/finite_sets -->
<g id="edge18" class="edge">
<title>/Users/mmoscato/Workspace/Workbench/pvs/dependency&#45;all/Users/mmoscato/pvs/pvs/nasalib/ints&#45;&gt;/Users/mmoscato/Workspace/Workbench/pvs/dependency&#45;all/Users/mmoscato/pvs/pvs/lib/finite_sets</title>
<path fill="none" stroke="#000000" d="M239.3052,-97.8015C239.3052,-97.8015 239.3052,-62.1476 239.3052,-62.1476"/>
<polygon fill="#000000" stroke="#000000" points="242.8053,-62.1476 239.3052,-52.1476 235.8053,-62.1476 242.8053,-62.1476"/>
</g>
<!-- /Users/mmoscato/Workspace/Workbench/pvs/dependency&#45;all/Users/mmoscato/pvs/pvs/nasalib/lnexp&#45;&gt;/Users/mmoscato/Workspace/Workbench/pvs/dependency&#45;all/Users/mmoscato/pvs/pvs/lib/finite_sets -->
<g id="edge19" class="edge">
<title>/Users/mmoscato/Workspace/Workbench/pvs/dependency&#45;all/Users/mmoscato/pvs/pvs/nasalib/lnexp&#45;&gt;/Users/mmoscato/Workspace/Workbench/pvs/dependency&#45;all/Users/mmoscato/pvs/pvs/lib/finite_sets</title>
<path fill="none" stroke="#000000" d="M46.1008,-457.7617C46.1008,-373.3868 46.1008,-25 46.1008,-25 46.1008,-25 214.5453,-25 214.5453,-25"/>
<polygon fill="#000000" stroke="#000000" points="214.5453,-28.5001 224.5453,-25 214.5453,-21.5001 214.5453,-28.5001"/>
</g>
<!-- /Users/mmoscato/Workspace/Workbench/pvs/dependency&#45;all/Users/mmoscato/pvs/pvs/nasalib/lnexp&#45;&gt;/Users/mmoscato/Workspace/Workbench/pvs/dependency&#45;all/Users/mmoscato/pvs/pvs/nasalib/analysis -->
<g id="edge20" class="edge">
<title>/Users/mmoscato/Workspace/Workbench/pvs/dependency&#45;all/Users/mmoscato/pvs/pvs/nasalib/lnexp&#45;&gt;/Users/mmoscato/Workspace/Workbench/pvs/dependency&#45;all/Users/mmoscato/pvs/pvs/nasalib/analysis</title>
<path fill="none" stroke="#000000" d="M90.2358,-471C127.5404,-471 189.9586,-471 189.9586,-471 189.9586,-471 189.9586,-360.1718 189.9586,-360.1718"/>
<polygon fill="#000000" stroke="#000000" points="193.4587,-360.1718 189.9586,-350.1718 186.4587,-360.1719 193.4587,-360.1718"/>
</g>
<!-- /Users/mmoscato/Workspace/Workbench/pvs/dependency&#45;all/Users/mmoscato/pvs/pvs/nasalib/lnexp&#45;&gt;/Users/mmoscato/Workspace/Workbench/pvs/dependency&#45;all/Users/mmoscato/pvs/pvs/nasalib/ints -->
<g id="edge21" class="edge">
<title>/Users/mmoscato/Workspace/Workbench/pvs/dependency&#45;all/Users/mmoscato/pvs/pvs/nasalib/lnexp&#45;&gt;/Users/mmoscato/Workspace/Workbench/pvs/dependency&#45;all/Users/mmoscato/pvs/pvs/nasalib/ints</title>
<path fill="none" stroke="#000000" d="M56.2017,-457.7569C56.2017,-382.8699 56.2017,-103 56.2017,-103 56.2017,-103 189.9365,-103 189.9365,-103"/>
<polygon fill="#000000" stroke="#000000" points="189.9365,-106.5001 199.9365,-103 189.9365,-99.5001 189.9365,-106.5001"/>
</g>
<!-- /Users/mmoscato/Workspace/Workbench/pvs/dependency&#45;all/Users/mmoscato/pvs/pvs/nasalib/lnexp&#45;&gt;/Users/mmoscato/Workspace/Workbench/pvs/dependency&#45;all/Users/mmoscato/pvs/pvs/nasalib/reals -->
<g id="edge22" class="edge">
<title>/Users/mmoscato/Workspace/Workbench/pvs/dependency&#45;all/Users/mmoscato/pvs/pvs/nasalib/lnexp&#45;&gt;/Users/mmoscato/Workspace/Workbench/pvs/dependency&#45;all/Users/mmoscato/pvs/pvs/nasalib/reals</title>
<path fill="none" stroke="#000000" d="M90.1375,-467C116.7796,-467 153.4482,-467 153.4482,-467 153.4482,-467 153.4482,-288.0078 153.4482,-288.0078"/>
<polygon fill="#000000" stroke="#000000" points="156.9483,-288.0077 153.4482,-278.0078 149.9483,-288.0078 156.9483,-288.0077"/>
</g>
<!-- /Users/mmoscato/Workspace/Workbench/pvs/dependency&#45;all/Users/mmoscato/pvs/pvs/nasalib/lnexp&#45;&gt;/Users/mmoscato/Workspace/Workbench/pvs/dependency&#45;all/Users/mmoscato/pvs/pvs/nasalib/series -->
<g id="edge23" class="edge">
<title>/Users/mmoscato/Workspace/Workbench/pvs/dependency&#45;all/Users/mmoscato/pvs/pvs/nasalib/lnexp&#45;&gt;/Users/mmoscato/Workspace/Workbench/pvs/dependency&#45;all/Users/mmoscato/pvs/pvs/nasalib/series</title>
<path fill="none" stroke="#000000" d="M83.2017,-457.5782C83.2017,-448.7209 83.2017,-440 83.2017,-440 83.2017,-440 230,-440 230,-440 230,-440 230,-432.4218 230,-432.4218"/>
<polygon fill="#000000" stroke="#000000" points="233.5001,-432.4218 230,-422.4218 226.5001,-432.4219 233.5001,-432.4218"/>
</g>
<!-- /Users/mmoscato/Workspace/Workbench/pvs/dependency&#45;all/Users/mmoscato/pvs/pvs/nasalib/lnexp&#45;&gt;/Users/mmoscato/Workspace/Workbench/pvs/dependency&#45;all/Users/mmoscato/pvs/pvs/nasalib/structures -->
<g id="edge24" class="edge">
<title>/Users/mmoscato/Workspace/Workbench/pvs/dependency&#45;all/Users/mmoscato/pvs/pvs/nasalib/lnexp&#45;&gt;/Users/mmoscato/Workspace/Workbench/pvs/dependency&#45;all/Users/mmoscato/pvs/pvs/nasalib/structures</title>
<path fill="none" stroke="#000000" d="M66.3025,-457.609C66.3025,-393.2452 66.3025,-182 66.3025,-182 66.3025,-182 181.7342,-182 181.7342,-182"/>
<polygon fill="#000000" stroke="#000000" points="181.7343,-185.5001 191.7342,-182 181.7342,-178.5001 181.7343,-185.5001"/>
</g>
<!-- /Users/mmoscato/Workspace/Workbench/pvs/dependency&#45;all/Users/mmoscato/pvs/pvs/nasalib/orders&#45;&gt;/Users/mmoscato/Workspace/Workbench/pvs/dependency&#45;all/Users/mmoscato/pvs/pvs/lib/finite_sets -->
<g id="edge25" class="edge">
<title>/Users/mmoscato/Workspace/Workbench/pvs/dependency&#45;all/Users/mmoscato/pvs/pvs/nasalib/orders&#45;&gt;/Users/mmoscato/Workspace/Workbench/pvs/dependency&#45;all/Users/mmoscato/pvs/pvs/lib/finite_sets</title>
<path fill="none" stroke="#000000" d="M288.5957,-241.8875C288.5957,-241.8875 288.5957,-62.1988 288.5957,-62.1988"/>
<polygon fill="#000000" stroke="#000000" points="292.0958,-62.1987 288.5957,-52.1988 285.0958,-62.1988 292.0958,-62.1987"/>
</g>
<!-- /Users/mmoscato/Workspace/Workbench/pvs/dependency&#45;all/Users/mmoscato/pvs/pvs/nasalib/reals&#45;&gt;/Users/mmoscato/Workspace/Workbench/pvs/dependency&#45;all/Users/mmoscato/pvs/pvs/nasalib/ints -->
<g id="edge26" class="edge">
<title>/Users/mmoscato/Workspace/Workbench/pvs/dependency&#45;all/Users/mmoscato/pvs/pvs/nasalib/reals&#45;&gt;/Users/mmoscato/Workspace/Workbench/pvs/dependency&#45;all/Users/mmoscato/pvs/pvs/nasalib/ints</title>
<path fill="none" stroke="#000000" d="M168.8931,-241.9227C168.8931,-205.7713 168.8931,-128 168.8931,-128 168.8931,-128 189.9879,-128 189.9879,-128"/>
<polygon fill="#000000" stroke="#000000" points="189.9879,-131.5001 199.9879,-128 189.9878,-124.5001 189.9879,-131.5001"/>
</g>
<!-- /Users/mmoscato/Workspace/Workbench/pvs/dependency&#45;all/Users/mmoscato/pvs/pvs/nasalib/reals&#45;&gt;/Users/mmoscato/Workspace/Workbench/pvs/dependency&#45;all/Users/mmoscato/pvs/pvs/nasalib/structures -->
<g id="edge27" class="edge">
<title>/Users/mmoscato/Workspace/Workbench/pvs/dependency&#45;all/Users/mmoscato/pvs/pvs/nasalib/reals&#45;&gt;/Users/mmoscato/Workspace/Workbench/pvs/dependency&#45;all/Users/mmoscato/pvs/pvs/nasalib/structures</title>
<path fill="none" stroke="#000000" d="M195.8931,-241.8314C195.8931,-241.8314 195.8931,-216.4133 195.8931,-216.4133"/>
<polygon fill="#000000" stroke="#000000" points="199.3932,-216.4132 195.8931,-206.4133 192.3932,-216.4133 199.3932,-216.4132"/>
</g>
<!-- /Users/mmoscato/Workspace/Workbench/pvs/dependency&#45;all/Users/mmoscato/pvs/pvs/nasalib/series&#45;&gt;/Users/mmoscato/Workspace/Workbench/pvs/dependency&#45;all/Users/mmoscato/pvs/pvs/lib/finite_sets -->
<g id="edge28" class="edge">
<title>/Users/mmoscato/Workspace/Workbench/pvs/dependency&#45;all/Users/mmoscato/pvs/pvs/nasalib/series&#45;&gt;/Users/mmoscato/Workspace/Workbench/pvs/dependency&#45;all/Users/mmoscato/pvs/pvs/lib/finite_sets</title>
<path fill="none" stroke="#000000" d="M253.8506,-385.7078C253.8506,-341.034 253.8506,-230 253.8506,-230 253.8506,-230 279.8018,-230 279.8018,-230 279.8018,-230 279.8018,-62.0879 279.8018,-62.0879"/>
<polygon fill="#000000" stroke="#000000" points="283.3019,-62.0879 279.8018,-52.0879 276.3019,-62.0879 283.3019,-62.0879"/>
</g>
<!-- /Users/mmoscato/Workspace/Workbench/pvs/dependency&#45;all/Users/mmoscato/pvs/pvs/nasalib/series&#45;&gt;/Users/mmoscato/Workspace/Workbench/pvs/dependency&#45;all/Users/mmoscato/pvs/pvs/nasalib/analysis -->
<g id="edge29" class="edge">
<title>/Users/mmoscato/Workspace/Workbench/pvs/dependency&#45;all/Users/mmoscato/pvs/pvs/nasalib/series&#45;&gt;/Users/mmoscato/Workspace/Workbench/pvs/dependency&#45;all/Users/mmoscato/pvs/pvs/nasalib/analysis</title>
<path fill="none" stroke="#000000" d="M228.7759,-385.8314C228.7759,-385.8314 228.7759,-360.4133 228.7759,-360.4133"/>
<polygon fill="#000000" stroke="#000000" points="232.276,-360.4132 228.7759,-350.4133 225.276,-360.4133 232.276,-360.4132"/>
</g>
<!-- /Users/mmoscato/Workspace/Workbench/pvs/dependency&#45;all/Users/mmoscato/pvs/pvs/nasalib/series&#45;&gt;/Users/mmoscato/Workspace/Workbench/pvs/dependency&#45;all/Users/mmoscato/pvs/pvs/nasalib/ints -->
<g id="edge30" class="edge">
<title>/Users/mmoscato/Workspace/Workbench/pvs/dependency&#45;all/Users/mmoscato/pvs/pvs/nasalib/series&#45;&gt;/Users/mmoscato/Workspace/Workbench/pvs/dependency&#45;all/Users/mmoscato/pvs/pvs/nasalib/ints</title>
<path fill="none" stroke="#000000" d="M211.8927,-407C182.5209,-407 139.7983,-407 139.7983,-407 139.7983,-407 139.7983,-118 139.7983,-118 139.7983,-118 189.8869,-118 189.8869,-118"/>
<polygon fill="#000000" stroke="#000000" points="189.8869,-121.5001 199.8869,-118 189.8868,-114.5001 189.8869,-121.5001"/>
</g>
<!-- /Users/mmoscato/Workspace/Workbench/pvs/dependency&#45;all/Users/mmoscato/pvs/pvs/nasalib/series&#45;&gt;/Users/mmoscato/Workspace/Workbench/pvs/dependency&#45;all/Users/mmoscato/pvs/pvs/nasalib/orders -->
<g id="edge31" class="edge">
<title>/Users/mmoscato/Workspace/Workbench/pvs/dependency&#45;all/Users/mmoscato/pvs/pvs/nasalib/series&#45;&gt;/Users/mmoscato/Workspace/Workbench/pvs/dependency&#45;all/Users/mmoscato/pvs/pvs/nasalib/orders</title>
<path fill="none" stroke="#000000" d="M263.3333,-385.7623C263.3333,-385.7623 263.3333,-288.0896 263.3333,-288.0896"/>
<polygon fill="#000000" stroke="#000000" points="266.8334,-288.0896 263.3333,-278.0896 259.8334,-288.0897 266.8334,-288.0896"/>
</g>
<!-- /Users/mmoscato/Workspace/Workbench/pvs/dependency&#45;all/Users/mmoscato/pvs/pvs/nasalib/series&#45;&gt;/Users/mmoscato/Workspace/Workbench/pvs/dependency&#45;all/Users/mmoscato/pvs/pvs/nasalib/reals -->
<g id="edge32" class="edge">
<title>/Users/mmoscato/Workspace/Workbench/pvs/dependency&#45;all/Users/mmoscato/pvs/pvs/nasalib/series&#45;&gt;/Users/mmoscato/Workspace/Workbench/pvs/dependency&#45;all/Users/mmoscato/pvs/pvs/nasalib/reals</title>
<path fill="none" stroke="#000000" d="M211.7378,-400C196.716,-400 181.0837,-400 181.0837,-400 181.0837,-400 181.0837,-288.0159 181.0837,-288.0159"/>
<polygon fill="#000000" stroke="#000000" points="184.5838,-288.0159 181.0837,-278.0159 177.5838,-288.016 184.5838,-288.0159"/>
</g>
<!-- /Users/mmoscato/Workspace/Workbench/pvs/dependency&#45;all/Users/mmoscato/pvs/pvs/nasalib/series&#45;&gt;/Users/mmoscato/Workspace/Workbench/pvs/dependency&#45;all/Users/mmoscato/pvs/pvs/nasalib/structures -->
<g id="edge33" class="edge">
<title>/Users/mmoscato/Workspace/Workbench/pvs/dependency&#45;all/Users/mmoscato/pvs/pvs/nasalib/series&#45;&gt;/Users/mmoscato/Workspace/Workbench/pvs/dependency&#45;all/Users/mmoscato/pvs/pvs/nasalib/structures</title>
<path fill="none" stroke="#000000" d="M249.7012,-385.9555C249.7012,-385.9555 249.7012,-216.1451 249.7012,-216.1451"/>
<polygon fill="#000000" stroke="#000000" points="253.2013,-216.145 249.7012,-206.1451 246.2013,-216.1451 253.2013,-216.145"/>
</g>
<!-- /Users/mmoscato/Workspace/Workbench/pvs/dependency&#45;all/Users/mmoscato/pvs/pvs/nasalib/structures&#45;&gt;/Users/mmoscato/Workspace/Workbench/pvs/dependency&#45;all/Users/mmoscato/pvs/pvs/lib/finite_sets -->
<g id="edge34" class="edge">
<title>/Users/mmoscato/Workspace/Workbench/pvs/dependency&#45;all/Users/mmoscato/pvs/pvs/nasalib/structures&#45;&gt;/Users/mmoscato/Workspace/Workbench/pvs/dependency&#45;all/Users/mmoscato/pvs/pvs/lib/finite_sets</title>
<path fill="none" stroke="#000000" d="M258.1069,-169.7294C258.1069,-169.7294 258.1069,-62.2468 258.1069,-62.2468"/>
<polygon fill="#000000" stroke="#000000" points="261.607,-62.2468 258.1069,-52.2468 254.607,-62.2468 261.607,-62.2468"/>
</g>
<!-- /Users/mmoscato/Workspace/Workbench/pvs/dependency&#45;all/Users/mmoscato/pvs/pvs/nasalib/structures&#45;&gt;/Users/mmoscato/Workspace/Workbench/pvs/dependency&#45;all/Users/mmoscato/pvs/pvs/nasalib/ints -->
<g id="edge35" class="edge">
<title>/Users/mmoscato/Workspace/Workbench/pvs/dependency&#45;all/Users/mmoscato/pvs/pvs/nasalib/structures&#45;&gt;/Users/mmoscato/Workspace/Workbench/pvs/dependency&#45;all/Users/mmoscato/pvs/pvs/nasalib/ints</title>
<path fill="none" stroke="#000000" d="M227,-169.8314C227,-169.8314 227,-144.4133 227,-144.4133"/>
<polygon fill="#000000" stroke="#000000" points="230.5001,-144.4132 227,-134.4133 223.5001,-144.4133 230.5001,-144.4132"/>
</g>
<!-- /Users/mmoscato/Workspace/Workbench/pvs/dependency&#45;all/Users/mmoscato/pvs/pvs/nasalib/trig&#45;&gt;/Users/mmoscato/Workspace/Workbench/pvs/dependency&#45;all/Users/mmoscato/pvs/pvs/lib/finite_sets -->
<g id="edge36" class="edge">
<title>/Users/mmoscato/Workspace/Workbench/pvs/dependency&#45;all/Users/mmoscato/pvs/pvs/nasalib/trig&#45;&gt;/Users/mmoscato/Workspace/Workbench/pvs/dependency&#45;all/Users/mmoscato/pvs/pvs/lib/finite_sets</title>
<path fill="none" stroke="#000000" d="M266.3624,-482C291.2106,-482 324,-482 324,-482 324,-482 324,-34 324,-34 324,-34 307.2823,-34 307.2823,-34"/>
<polygon fill="#000000" stroke="#000000" points="307.2824,-30.5001 297.2823,-34 307.2823,-37.5001 307.2824,-30.5001"/>
</g>
<!-- /Users/mmoscato/Workspace/Workbench/pvs/dependency&#45;all/Users/mmoscato/pvs/pvs/nasalib/trig&#45;&gt;/Users/mmoscato/Workspace/Workbench/pvs/dependency&#45;all/Users/mmoscato/pvs/pvs/nasalib/analysis -->
<g id="edge37" class="edge">
<title>/Users/mmoscato/Workspace/Workbench/pvs/dependency&#45;all/Users/mmoscato/pvs/pvs/nasalib/trig&#45;&gt;/Users/mmoscato/Workspace/Workbench/pvs/dependency&#45;all/Users/mmoscato/pvs/pvs/nasalib/analysis</title>
<path fill="none" stroke="#000000" d="M211.8581,-462C208.6505,-462 206.4896,-462 206.4896,-462 206.4896,-462 206.4896,-360.0759 206.4896,-360.0759"/>
<polygon fill="#000000" stroke="#000000" points="209.9897,-360.0759 206.4896,-350.0759 202.9897,-360.076 209.9897,-360.0759"/>
</g>
<!-- /Users/mmoscato/Workspace/Workbench/pvs/dependency&#45;all/Users/mmoscato/pvs/pvs/nasalib/trig&#45;&gt;/Users/mmoscato/Workspace/Workbench/pvs/dependency&#45;all/Users/mmoscato/pvs/pvs/nasalib/ints -->
<g id="edge38" class="edge">
<title>/Users/mmoscato/Workspace/Workbench/pvs/dependency&#45;all/Users/mmoscato/pvs/pvs/nasalib/trig&#45;&gt;/Users/mmoscato/Workspace/Workbench/pvs/dependency&#45;all/Users/mmoscato/pvs/pvs/nasalib/ints</title>
<path fill="none" stroke="#000000" d="M211.8618,-485C181.8647,-485 137.7311,-485 137.7311,-485 137.7311,-485 137.7311,-113 137.7311,-113 137.7311,-113 189.7313,-113 189.7313,-113"/>
<polygon fill="#000000" stroke="#000000" points="189.7314,-116.5001 199.7313,-113 189.7313,-109.5001 189.7314,-116.5001"/>
</g>
<!-- /Users/mmoscato/Workspace/Workbench/pvs/dependency&#45;all/Users/mmoscato/pvs/pvs/nasalib/trig&#45;&gt;/Users/mmoscato/Workspace/Workbench/pvs/dependency&#45;all/Users/mmoscato/pvs/pvs/nasalib/orders -->
<g id="edge39" class="edge">
<title>/Users/mmoscato/Workspace/Workbench/pvs/dependency&#45;all/Users/mmoscato/pvs/pvs/nasalib/trig&#45;&gt;/Users/mmoscato/Workspace/Workbench/pvs/dependency&#45;all/Users/mmoscato/pvs/pvs/nasalib/orders</title>
<path fill="none" stroke="#000000" d="M266.05,-470C274.3467,-470 281.3333,-470 281.3333,-470 281.3333,-470 281.3333,-288.2688 281.3333,-288.2688"/>
<polygon fill="#000000" stroke="#000000" points="284.8334,-288.2687 281.3333,-278.2688 277.8334,-288.2688 284.8334,-288.2687"/>
</g>
<!-- /Users/mmoscato/Workspace/Workbench/pvs/dependency&#45;all/Users/mmoscato/pvs/pvs/nasalib/trig&#45;&gt;/Users/mmoscato/Workspace/Workbench/pvs/dependency&#45;all/Users/mmoscato/pvs/pvs/nasalib/reals -->
<g id="edge40" class="edge">
<title>/Users/mmoscato/Workspace/Workbench/pvs/dependency&#45;all/Users/mmoscato/pvs/pvs/nasalib/trig&#45;&gt;/Users/mmoscato/Workspace/Workbench/pvs/dependency&#45;all/Users/mmoscato/pvs/pvs/nasalib/reals</title>
<path fill="none" stroke="#000000" d="M211.943,-476C195.5267,-476 177.7192,-476 177.7192,-476 177.7192,-476 177.7192,-288.0445 177.7192,-288.0445"/>
<polygon fill="#000000" stroke="#000000" points="181.2193,-288.0445 177.7192,-278.0445 174.2193,-288.0446 181.2193,-288.0445"/>
</g>
<!-- /Users/mmoscato/Workspace/Workbench/pvs/dependency&#45;all/Users/mmoscato/pvs/pvs/nasalib/trig&#45;&gt;/Users/mmoscato/Workspace/Workbench/pvs/dependency&#45;all/Users/mmoscato/pvs/pvs/nasalib/series -->
<g id="edge41" class="edge">
<title>/Users/mmoscato/Workspace/Workbench/pvs/dependency&#45;all/Users/mmoscato/pvs/pvs/nasalib/trig&#45;&gt;/Users/mmoscato/Workspace/Workbench/pvs/dependency&#45;all/Users/mmoscato/pvs/pvs/nasalib/series</title>
<path fill="none" stroke="#000000" d="M248,-457.8314C248,-457.8314 248,-432.4133 248,-432.4133"/>
<polygon fill="#000000" stroke="#000000" points="251.5001,-432.4132 248,-422.4133 244.5001,-432.4133 251.5001,-432.4132"/>
</g>
<!-- /Users/mmoscato/Workspace/Workbench/pvs/dependency&#45;all/Users/mmoscato/pvs/pvs/nasalib/trig&#45;&gt;/Users/mmoscato/Workspace/Workbench/pvs/dependency&#45;all/Users/mmoscato/pvs/pvs/nasalib/structures -->
<g id="edge42" class="edge">
<title>/Users/mmoscato/Workspace/Workbench/pvs/dependency&#45;all/Users/mmoscato/pvs/pvs/nasalib/trig&#45;&gt;/Users/mmoscato/Workspace/Workbench/pvs/dependency&#45;all/Users/mmoscato/pvs/pvs/nasalib/structures</title>
<path fill="none" stroke="#000000" d="M211.9426,-480C183.2014,-480 141.8656,-480 141.8656,-480 141.8656,-480 141.8656,-194 141.8656,-194 141.8656,-194 181.3886,-194 181.3886,-194"/>
<polygon fill="#000000" stroke="#000000" points="181.3887,-197.5001 191.3886,-194 181.3886,-190.5001 181.3887,-197.5001"/>
</g>
</g>
</svg>
