<?xml version="1.0" encoding="UTF-8" standalone="no"?>
<!DOCTYPE svg PUBLIC "-//W3C//DTD SVG 1.1//EN"
 "http://www.w3.org/Graphics/SVG/1.1/DTD/svg11.dtd">
<!-- Generated by graphviz version 8.1.0 (20230707.0739)
 -->
<!-- Title: complex Pages: 1 -->
<svg width="442pt" height="689pt"
 viewBox="0.00 0.00 442.00 689.00" xmlns="http://www.w3.org/2000/svg" xmlns:xlink="http://www.w3.org/1999/xlink">
<g id="graph0" class="graph" transform="scale(1 1) rotate(0) translate(4 685)">
<title>complex</title>
<polygon fill="white" stroke="none" points="-4,4 -4,-685 438,-685 438,4 -4,4"/>
<g id="clust1" class="cluster">
<title>cluster_NASALib</title>
<polygon fill="none" stroke="black" points="8,-92.5 8,-673 426,-673 426,-92.5 8,-92.5"/>
<text text-anchor="middle" x="217" y="-655.7" font-family="Times,serif" font-size="14.00">NASALib</text>
</g>
<g id="clust2" class="cluster">
<title>cluster_PVS Prelude</title>
<polygon fill="none" stroke="black" points="236,-8 236,-84.5 324,-84.5 324,-8 236,-8"/>
<text text-anchor="middle" x="280" y="-67.2" font-family="Times,serif" font-size="14.00">PVS Prelude</text>
</g>
<!-- lib/finite_sets -->
<g id="node1" class="node">
<title>lib/finite_sets</title>
<polygon fill="#fcfcd7" stroke="black" points="315.75,-52 244.25,-52 244.25,-16 315.75,-16 315.75,-52"/>
<text text-anchor="middle" x="280" y="-28.95" font-family="Times,serif" font-size="14.00">finite_sets</text>
</g>
<!-- nasalib/algebra -->
<g id="node2" class="node">
<title>nasalib/algebra</title>
<polygon fill="#fcfcd7" stroke="black" points="192.88,-568.5 137.12,-568.5 137.12,-532.5 192.88,-532.5 192.88,-568.5"/>
<text text-anchor="middle" x="165" y="-545.45" font-family="Times,serif" font-size="14.00">algebra</text>
</g>
<!-- nasalib/algebra&#45;&gt;lib/finite_sets -->
<g id="edge1" class="edge">
<title>nasalib/algebra&#45;&gt;lib/finite_sets</title>
<path fill="none" stroke="black" d="M193.28,-540.98C243.03,-526 341,-496.5 341,-496.5 341,-496.5 430,-352.5 430,-352.5 430,-352.5 430,-316.5 430,-316.5 430,-316.5 409,-263.5 409,-263.5"/>
</g>
<!-- nasalib/ints -->
<g id="node5" class="node">
<title>nasalib/ints</title>
<polygon fill="#fcfcd7" stroke="black" points="206,-136.5 152,-136.5 152,-100.5 206,-100.5 206,-136.5"/>
<text text-anchor="middle" x="179" y="-113.45" font-family="Times,serif" font-size="14.00">ints</text>
</g>
<!-- nasalib/algebra&#45;&gt;nasalib/ints -->
<g id="edge2" class="edge">
<title>nasalib/algebra&#45;&gt;nasalib/ints</title>
<path fill="none" stroke="black" d="M136.84,-532.15C111.76,-516.69 79,-496.5 79,-496.5 79,-496.5 57,-335.5 57,-335.5"/>
<path fill="none" stroke="black" d="M87,-189.5C87,-189.5 120.91,-163.7 147.56,-143.42"/>
<polygon fill="black" stroke="black" points="149.42,-145.64 155.26,-136.8 145.18,-140.07 149.42,-145.64"/>
<path fill="none" stroke="black" d="M57,-333.5C57,-333.5 87,-191.5 87,-191.5"/>
</g>
<!-- nasalib/numbers -->
<g id="node7" class="node">
<title>nasalib/numbers</title>
<polygon fill="#fcfcd7" stroke="black" points="139.62,-352.5 76.38,-352.5 76.38,-316.5 139.62,-316.5 139.62,-352.5"/>
<text text-anchor="middle" x="108" y="-329.45" font-family="Times,serif" font-size="14.00">numbers</text>
</g>
<!-- nasalib/algebra&#45;&gt;nasalib/numbers -->
<g id="edge3" class="edge">
<title>nasalib/algebra&#45;&gt;nasalib/numbers</title>
<path fill="none" stroke="black" d="M138.15,-532.15C114.24,-516.69 83,-496.5 83,-496.5 83,-496.5 83,-460.5 83,-460.5 83,-460.5 95.04,-400.32 102.41,-363.47"/>
<polygon fill="black" stroke="black" points="105.99,-364.37 104.52,-353.88 99.13,-363 105.99,-364.37"/>
</g>
<!-- nasalib/reals -->
<g id="node9" class="node">
<title>nasalib/reals</title>
<polygon fill="#fcfcd7" stroke="black" points="160,-280.5 106,-280.5 106,-244.5 160,-244.5 160,-280.5"/>
<text text-anchor="middle" x="133" y="-257.45" font-family="Times,serif" font-size="14.00">reals</text>
</g>
<!-- nasalib/algebra&#45;&gt;nasalib/reals -->
<g id="edge4" class="edge">
<title>nasalib/algebra&#45;&gt;nasalib/reals</title>
<path fill="none" stroke="black" d="M166.12,-532.35C169.44,-481.57 179,-335.5 179,-335.5"/>
<path fill="none" stroke="black" d="M179,-333.5C179,-333.5 163.34,-309.68 150.3,-289.83"/>
<polygon fill="black" stroke="black" points="152.79,-288.24 144.37,-281.8 146.94,-292.08 152.79,-288.24"/>
</g>
<!-- nasalib/sigma_set -->
<g id="node12" class="node">
<title>nasalib/sigma_set</title>
<polygon fill="#fcfcd7" stroke="black" points="260.38,-496.5 189.62,-496.5 189.62,-460.5 260.38,-460.5 260.38,-496.5"/>
<text text-anchor="middle" x="225" y="-473.45" font-family="Times,serif" font-size="14.00">sigma_set</text>
</g>
<!-- nasalib/algebra&#45;&gt;nasalib/sigma_set -->
<g id="edge5" class="edge">
<title>nasalib/algebra&#45;&gt;nasalib/sigma_set</title>
<path fill="none" stroke="black" d="M179.83,-532.2C186.88,-523.97 195.44,-513.98 203.21,-504.92"/>
<polygon fill="black" stroke="black" points="206.49,-507.47 210.34,-497.6 201.17,-502.92 206.49,-507.47"/>
</g>
<!-- nasalib/structures -->
<g id="node13" class="node">
<title>nasalib/structures</title>
<polygon fill="#fcfcd7" stroke="black" points="213.25,-208.5 144.75,-208.5 144.75,-172.5 213.25,-172.5 213.25,-208.5"/>
<text text-anchor="middle" x="179" y="-185.45" font-family="Times,serif" font-size="14.00">structures</text>
</g>
<!-- nasalib/algebra&#45;&gt;nasalib/structures -->
<g id="edge6" class="edge">
<title>nasalib/algebra&#45;&gt;nasalib/structures</title>
<path fill="none" stroke="black" d="M179,-333.5C179,-333.5 179,-261.09 179,-219.68"/>
<polygon fill="black" stroke="black" points="182.5,-219.91 179,-209.91 175.5,-219.91 182.5,-219.91"/>
</g>
<!-- nasalib/analysis -->
<g id="node3" class="node">
<title>nasalib/analysis</title>
<polygon fill="#fcfcd7" stroke="black" points="297.75,-352.5 238.25,-352.5 238.25,-316.5 297.75,-316.5 297.75,-352.5"/>
<text text-anchor="middle" x="268" y="-329.45" font-family="Times,serif" font-size="14.00">analysis</text>
</g>
<!-- nasalib/analysis&#45;&gt;lib/finite_sets -->
<g id="edge7" class="edge">
<title>nasalib/analysis&#45;&gt;lib/finite_sets</title>
<path fill="none" stroke="black" d="M298.1,-320.94C335.65,-305.27 395,-280.5 395,-280.5 395,-280.5 409,-263.5 409,-263.5"/>
<path fill="none" stroke="black" d="M409,-261.5C409,-261.5 409,-191.5 409,-191.5"/>
</g>
<!-- nasalib/analysis&#45;&gt;nasalib/ints -->
<g id="edge8" class="edge">
<title>nasalib/analysis&#45;&gt;nasalib/ints</title>
<path fill="none" stroke="black" d="M268,-261.5C268,-261.5 278,-244.5 278,-244.5 278,-244.5 360,-191.5 360,-191.5"/>
<path fill="none" stroke="black" d="M360,-189.5C360,-189.5 269.58,-154.53 216.56,-134.03"/>
<polygon fill="black" stroke="black" points="218.08,-130.47 207.49,-130.13 215.55,-137 218.08,-130.47"/>
</g>
<!-- nasalib/orders -->
<g id="node8" class="node">
<title>nasalib/orders</title>
<polygon fill="#fcfcd7" stroke="black" points="341,-280.5 287,-280.5 287,-244.5 341,-244.5 341,-280.5"/>
<text text-anchor="middle" x="314" y="-257.45" font-family="Times,serif" font-size="14.00">orders</text>
</g>
<!-- nasalib/analysis&#45;&gt;nasalib/orders -->
<g id="edge9" class="edge">
<title>nasalib/analysis&#45;&gt;nasalib/orders</title>
<path fill="none" stroke="black" d="M279.37,-316.2C284.61,-308.23 290.93,-298.6 296.74,-289.76"/>
<polygon fill="black" stroke="black" points="300.19,-291.88 302.76,-281.6 294.34,-288.04 300.19,-291.88"/>
</g>
<!-- nasalib/analysis&#45;&gt;nasalib/reals -->
<g id="edge10" class="edge">
<title>nasalib/analysis&#45;&gt;nasalib/reals</title>
<path fill="none" stroke="black" d="M238.04,-317.96C217.92,-307.53 191.28,-293.72 169.86,-282.61"/>
<polygon fill="black" stroke="black" points="171.62,-279.06 161.13,-277.57 168.39,-285.28 171.62,-279.06"/>
</g>
<!-- nasalib/analysis&#45;&gt;nasalib/structures -->
<g id="edge11" class="edge">
<title>nasalib/analysis&#45;&gt;nasalib/structures</title>
<path fill="none" stroke="black" d="M268,-261.5C268,-261.5 235.19,-235.7 209.41,-215.42"/>
<polygon fill="black" stroke="black" points="212.02,-212.23 202,-208.8 207.7,-217.74 212.02,-212.23"/>
<path fill="none" stroke="black" d="M268,-316.2C268,-295.47 268,-263.5 268,-263.5"/>
</g>
<!-- nasalib/complex -->
<g id="node4" class="node">
<title>nasalib/complex</title>
<polygon fill="#f7e28d" stroke="black" points="196.62,-640.5 133.38,-640.5 133.38,-604.5 196.62,-604.5 196.62,-640.5"/>
<text text-anchor="middle" x="165" y="-617.45" font-family="Times,serif" font-size="14.00">complex</text>
</g>
<!-- nasalib/complex&#45;&gt;nasalib/algebra -->
<g id="edge12" class="edge">
<title>nasalib/complex&#45;&gt;nasalib/algebra</title>
<path fill="none" stroke="black" d="M165,-604.2C165,-596.74 165,-587.82 165,-579.47"/>
<polygon fill="black" stroke="black" points="168.5,-579.6 165,-569.6 161.5,-579.6 168.5,-579.6"/>
</g>
<!-- nasalib/lnexp -->
<g id="node6" class="node">
<title>nasalib/lnexp</title>
<polygon fill="#fcfcd7" stroke="black" points="146,-496.5 92,-496.5 92,-460.5 146,-460.5 146,-496.5"/>
<text text-anchor="middle" x="119" y="-473.45" font-family="Times,serif" font-size="14.00">lnexp</text>
</g>
<!-- nasalib/complex&#45;&gt;nasalib/lnexp -->
<g id="edge13" class="edge">
<title>nasalib/complex&#45;&gt;nasalib/lnexp</title>
<path fill="none" stroke="black" d="M53,-549.5C53,-549.5 76.28,-524.81 95.19,-504.75"/>
<polygon fill="black" stroke="black" points="97.37,-507.48 101.69,-497.8 92.28,-502.68 97.37,-507.48"/>
</g>
<!-- nasalib/complex&#45;&gt;nasalib/reals -->
<g id="edge14" class="edge">
<title>nasalib/complex&#45;&gt;nasalib/reals</title>
<path fill="none" stroke="black" d="M53,-549.5C53,-549.5 83,-460.5 83,-460.5 83,-460.5 119,-407.5 119,-407.5"/>
<path fill="none" stroke="black" d="M137.03,-604.02C103.85,-583.28 53,-551.5 53,-551.5"/>
<path fill="none" stroke="black" d="M119,-405.5C119,-405.5 149,-352.5 149,-352.5 149,-352.5 149,-316.5 149,-316.5 149,-316.5 145.21,-303.93 141.31,-291.03"/>
<polygon fill="black" stroke="black" points="144.48,-290.42 138.24,-281.85 137.78,-292.44 144.48,-290.42"/>
</g>
<!-- nasalib/trig -->
<g id="node14" class="node">
<title>nasalib/trig</title>
<polygon fill="#fcfcd7" stroke="black" points="332,-496.5 278,-496.5 278,-460.5 332,-460.5 332,-496.5"/>
<text text-anchor="middle" x="305" y="-473.45" font-family="Times,serif" font-size="14.00">trig</text>
</g>
<!-- nasalib/complex&#45;&gt;nasalib/trig -->
<g id="edge15" class="edge">
<title>nasalib/complex&#45;&gt;nasalib/trig</title>
<path fill="none" stroke="black" d="M182.17,-604.09C206.86,-579.04 252.53,-532.72 280.68,-504.16"/>
<polygon fill="black" stroke="black" points="282.6,-507.19 287.13,-497.61 277.62,-502.27 282.6,-507.19"/>
</g>
<!-- nasalib/ints&#45;&gt;lib/finite_sets -->
<g id="edge16" class="edge">
<title>nasalib/ints&#45;&gt;lib/finite_sets</title>
<path fill="none" stroke="black" d="M200.42,-100C214.88,-88.19 234.17,-72.44 250.14,-59.39"/>
<polygon fill="black" stroke="black" points="252.08,-61.51 257.61,-52.47 247.65,-56.09 252.08,-61.51"/>
</g>
<!-- nasalib/lnexp&#45;&gt;nasalib/analysis -->
<g id="edge17" class="edge">
<title>nasalib/lnexp&#45;&gt;nasalib/analysis</title>
<path fill="none" stroke="black" d="M146.49,-467.66C189.29,-452.33 267,-424.5 267,-424.5 267,-424.5 267.39,-389.61 267.69,-363.52"/>
<polygon fill="black" stroke="black" points="271.19,-363.7 267.81,-353.66 264.19,-363.62 271.19,-363.7"/>
</g>
<!-- nasalib/lnexp&#45;&gt;nasalib/ints -->
<g id="edge18" class="edge">
<title>nasalib/lnexp&#45;&gt;nasalib/ints</title>
<path fill="none" stroke="black" d="M111.4,-460.09C94.84,-422.17 57,-335.5 57,-335.5"/>
</g>
<!-- nasalib/lnexp&#45;&gt;nasalib/reals -->
<g id="edge19" class="edge">
<title>nasalib/lnexp&#45;&gt;nasalib/reals</title>
<path fill="none" stroke="black" d="M119,-460.2C119,-439.47 119,-407.5 119,-407.5"/>
</g>
<!-- nasalib/series -->
<g id="node10" class="node">
<title>nasalib/series</title>
<polygon fill="#fcfcd7" stroke="black" points="258,-424.5 204,-424.5 204,-388.5 258,-388.5 258,-424.5"/>
<text text-anchor="middle" x="231" y="-401.45" font-family="Times,serif" font-size="14.00">series</text>
</g>
<!-- nasalib/lnexp&#45;&gt;nasalib/series -->
<g id="edge20" class="edge">
<title>nasalib/lnexp&#45;&gt;nasalib/series</title>
<path fill="none" stroke="black" d="M146.4,-460.38C161.01,-451.24 179.19,-439.88 194.94,-430.04"/>
<polygon fill="black" stroke="black" points="196.26,-432.72 202.88,-424.45 192.55,-426.78 196.26,-432.72"/>
</g>
<!-- nasalib/numbers&#45;&gt;nasalib/ints -->
<g id="edge21" class="edge">
<title>nasalib/numbers&#45;&gt;nasalib/ints</title>
<path fill="none" stroke="black" d="M102.81,-316.2C96.59,-295.47 87,-263.5 87,-263.5"/>
<path fill="none" stroke="black" d="M87,-261.5C87,-261.5 87,-191.5 87,-191.5"/>
</g>
<!-- nasalib/numbers&#45;&gt;nasalib/reals -->
<g id="edge22" class="edge">
<title>nasalib/numbers&#45;&gt;nasalib/reals</title>
<path fill="none" stroke="black" d="M114.18,-316.2C116.9,-308.57 120.17,-299.42 123.22,-290.9"/>
<polygon fill="black" stroke="black" points="126.82,-292.2 126.89,-281.6 120.23,-289.84 126.82,-292.2"/>
</g>
<!-- nasalib/numbers&#45;&gt;nasalib/structures -->
<g id="edge23" class="edge">
<title>nasalib/numbers&#45;&gt;nasalib/structures</title>
<path fill="none" stroke="black" d="M87,-261.5C87,-261.5 97,-244.5 97,-244.5 97,-244.5 120.91,-229.04 142.91,-214.82"/>
<polygon fill="black" stroke="black" points="144.65,-217.22 151.15,-208.85 140.85,-211.34 144.65,-217.22"/>
</g>
<!-- nasalib/orders&#45;&gt;lib/finite_sets -->
<g id="edge24" class="edge">
<title>nasalib/orders&#45;&gt;lib/finite_sets</title>
<path fill="none" stroke="black" d="M340.52,-244.15C364.15,-228.69 395,-208.5 395,-208.5 395,-208.5 409,-191.5 409,-191.5"/>
<path fill="none" stroke="black" d="M409,-189.5C409,-189.5 409,-119.5 409,-119.5"/>
</g>
<!-- nasalib/orders&#45;&gt;nasalib/structures -->
<g id="edge25" class="edge">
<title>nasalib/orders&#45;&gt;nasalib/structures</title>
<path fill="none" stroke="black" d="M286.68,-247.33C268.19,-237.75 243.38,-224.88 222.23,-213.91"/>
<polygon fill="black" stroke="black" points="223.98,-210.36 213.5,-208.87 220.76,-216.58 223.98,-210.36"/>
</g>
<!-- nasalib/reals&#45;&gt;nasalib/ints -->
<g id="edge26" class="edge">
<title>nasalib/reals&#45;&gt;nasalib/ints</title>
<path fill="none" stroke="black" d="M121.63,-244.2C108.01,-223.47 87,-191.5 87,-191.5"/>
</g>
<!-- nasalib/reals&#45;&gt;nasalib/structures -->
<g id="edge27" class="edge">
<title>nasalib/reals&#45;&gt;nasalib/structures</title>
<path fill="none" stroke="black" d="M144.37,-244.2C149.61,-236.23 155.93,-226.6 161.74,-217.76"/>
<polygon fill="black" stroke="black" points="165.19,-219.88 167.76,-209.6 159.34,-216.04 165.19,-219.88"/>
</g>
<!-- nasalib/series&#45;&gt;nasalib/analysis -->
<g id="edge28" class="edge">
<title>nasalib/series&#45;&gt;nasalib/analysis</title>
<path fill="none" stroke="black" d="M240.15,-388.2C244.27,-380.4 249.23,-371.01 253.82,-362.33"/>
<polygon fill="black" stroke="black" points="257.38,-364.08 258.96,-353.6 251.19,-360.81 257.38,-364.08"/>
</g>
<!-- nasalib/series&#45;&gt;nasalib/ints -->
<g id="edge29" class="edge">
<title>nasalib/series&#45;&gt;nasalib/ints</title>
<path fill="none" stroke="black" d="M219,-333.5C219,-333.5 169,-244.5 169,-244.5 169,-244.5 87,-191.5 87,-191.5"/>
<path fill="none" stroke="black" d="M228.03,-388.2C224.48,-367.47 219,-335.5 219,-335.5"/>
</g>
<!-- nasalib/series&#45;&gt;nasalib/orders -->
<g id="edge30" class="edge">
<title>nasalib/series&#45;&gt;nasalib/orders</title>
<path fill="none" stroke="black" d="M219,-333.5C219,-333.5 229,-316.5 229,-316.5 229,-316.5 254.33,-300.71 277.33,-286.36"/>
<polygon fill="black" stroke="black" points="279,-288.82 285.64,-280.56 275.3,-282.88 279,-288.82"/>
</g>
<!-- nasalib/series&#45;&gt;nasalib/reals -->
<g id="edge31" class="edge">
<title>nasalib/series&#45;&gt;nasalib/reals</title>
<path fill="none" stroke="black" d="M223.09,-388.2C213.61,-367.47 199,-335.5 199,-335.5"/>
</g>
<!-- nasalib/sets_aux -->
<g id="node11" class="node">
<title>nasalib/sets_aux</title>
<polygon fill="#fcfcd7" stroke="black" points="398.25,-352.5 335.75,-352.5 335.75,-316.5 398.25,-316.5 398.25,-352.5"/>
<text text-anchor="middle" x="367" y="-329.45" font-family="Times,serif" font-size="14.00">sets_aux</text>
</g>
<!-- nasalib/sets_aux&#45;&gt;lib/finite_sets -->
<g id="edge32" class="edge">
<title>nasalib/sets_aux&#45;&gt;lib/finite_sets</title>
<path fill="none" stroke="black" d="M377.38,-316.2C389.82,-295.47 409,-263.5 409,-263.5"/>
</g>
<!-- nasalib/sets_aux&#45;&gt;nasalib/ints -->
<g id="edge33" class="edge">
<title>nasalib/sets_aux&#45;&gt;nasalib/ints</title>
<path fill="none" stroke="black" d="M360,-261.5C360,-261.5 360,-191.5 360,-191.5"/>
</g>
<!-- nasalib/sets_aux&#45;&gt;nasalib/orders -->
<g id="edge34" class="edge">
<title>nasalib/sets_aux&#45;&gt;nasalib/orders</title>
<path fill="none" stroke="black" d="M353.9,-316.2C347.74,-308.06 340.26,-298.19 333.46,-289.2"/>
<polygon fill="black" stroke="black" points="335.78,-287.46 326.95,-281.6 330.2,-291.69 335.78,-287.46"/>
</g>
<!-- nasalib/sets_aux&#45;&gt;nasalib/structures -->
<g id="edge35" class="edge">
<title>nasalib/sets_aux&#45;&gt;nasalib/structures</title>
<path fill="none" stroke="black" d="M365.27,-316.2C363.2,-295.47 360,-263.5 360,-263.5"/>
<path fill="none" stroke="black" d="M360,-261.5C360,-261.5 350,-244.5 350,-244.5 350,-244.5 274.67,-221.15 224.01,-205.45"/>
<polygon fill="black" stroke="black" points="225.19,-201.84 214.6,-202.23 223.12,-208.53 225.19,-201.84"/>
</g>
<!-- nasalib/sigma_set&#45;&gt;nasalib/analysis -->
<g id="edge36" class="edge">
<title>nasalib/sigma_set&#45;&gt;nasalib/analysis</title>
<path fill="none" stroke="black" d="M250.21,-460.15C272.67,-444.69 302,-424.5 302,-424.5 302,-424.5 317,-407.5 317,-407.5"/>
<path fill="none" stroke="black" d="M317,-405.5C317,-405.5 300.17,-381.46 286.24,-361.56"/>
<polygon fill="black" stroke="black" points="288.71,-359.99 280.11,-353.8 282.98,-364 288.71,-359.99"/>
</g>
<!-- nasalib/sigma_set&#45;&gt;nasalib/orders -->
<g id="edge37" class="edge">
<title>nasalib/sigma_set&#45;&gt;nasalib/orders</title>
<path fill="none" stroke="black" d="M317,-405.5C317,-405.5 315.47,-333.09 314.6,-291.68"/>
<polygon fill="black" stroke="black" points="318.08,-291.84 314.37,-281.91 311.08,-291.98 318.08,-291.84"/>
</g>
<!-- nasalib/sigma_set&#45;&gt;nasalib/reals -->
<g id="edge38" class="edge">
<title>nasalib/sigma_set&#45;&gt;nasalib/reals</title>
<path fill="none" stroke="black" d="M199,-333.5C199,-333.5 184,-316.5 184,-316.5 184,-316.5 170.42,-302.39 157.28,-288.73"/>
<polygon fill="black" stroke="black" points="160.16,-286.63 150.7,-281.85 155.11,-291.49 160.16,-286.63"/>
<path fill="none" stroke="black" d="M215.18,-460.15C206.43,-444.69 195,-424.5 195,-424.5 195,-424.5 195,-388.5 195,-388.5 195,-388.5 199,-335.5 199,-335.5"/>
</g>
<!-- nasalib/sigma_set&#45;&gt;nasalib/series -->
<g id="edge39" class="edge">
<title>nasalib/sigma_set&#45;&gt;nasalib/series</title>
<path fill="none" stroke="black" d="M226.48,-460.2C227.12,-452.74 227.89,-443.82 228.6,-435.47"/>
<polygon fill="black" stroke="black" points="232.17,-435.87 229.53,-425.6 225.19,-435.27 232.17,-435.87"/>
</g>
<!-- nasalib/sigma_set&#45;&gt;nasalib/sets_aux -->
<g id="edge40" class="edge">
<title>nasalib/sigma_set&#45;&gt;nasalib/sets_aux</title>
<path fill="none" stroke="black" d="M256.76,-460.15C285.05,-444.69 322,-424.5 322,-424.5 322,-424.5 340.12,-388.67 353.36,-362.47"/>
<polygon fill="black" stroke="black" points="356.93,-364.16 358.32,-353.66 350.69,-361 356.93,-364.16"/>
</g>
<!-- nasalib/structures&#45;&gt;lib/finite_sets -->
<g id="edge41" class="edge">
<title>nasalib/structures&#45;&gt;lib/finite_sets</title>
<path fill="none" stroke="black" d="M213.43,-179.02C277.6,-159.49 409,-119.5 409,-119.5"/>
<path fill="none" stroke="black" d="M409,-117.5C409,-117.5 354.34,-82.54 316.18,-58.14"/>
<polygon fill="black" stroke="black" points="318.67,-54.94 308.36,-52.5 314.9,-60.83 318.67,-54.94"/>
</g>
<!-- nasalib/structures&#45;&gt;nasalib/ints -->
<g id="edge42" class="edge">
<title>nasalib/structures&#45;&gt;nasalib/ints</title>
<path fill="none" stroke="black" d="M179,-172.2C179,-164.74 179,-155.82 179,-147.47"/>
<polygon fill="black" stroke="black" points="182.5,-147.6 179,-137.6 175.5,-147.6 182.5,-147.6"/>
</g>
<!-- nasalib/trig&#45;&gt;nasalib/analysis -->
<g id="edge43" class="edge">
<title>nasalib/trig&#45;&gt;nasalib/analysis</title>
<path fill="none" stroke="black" d="M310.57,-460.15C315.52,-444.69 322,-424.5 322,-424.5 322,-424.5 322,-388.5 322,-388.5 322,-388.5 307.36,-374.13 293.32,-360.35"/>
<polygon fill="black" stroke="black" points="296.27,-358.36 286.68,-353.85 291.37,-363.36 296.27,-358.36"/>
</g>
<!-- nasalib/trig&#45;&gt;nasalib/ints -->
<g id="edge44" class="edge">
<title>nasalib/trig&#45;&gt;nasalib/ints</title>
<path fill="none" stroke="black" d="M319.18,-460.12C347.21,-425.77 407,-352.5 407,-352.5 407,-352.5 407,-316.5 407,-316.5 407,-316.5 360,-191.5 360,-191.5"/>
</g>
<!-- nasalib/trig&#45;&gt;nasalib/reals -->
<g id="edge45" class="edge">
<title>nasalib/trig&#45;&gt;nasalib/reals</title>
<path fill="none" stroke="black" d="M297.67,-460.34C286.63,-434.48 267,-388.5 267,-388.5 267,-388.5 199,-335.5 199,-335.5"/>
</g>
<!-- nasalib/trig&#45;&gt;nasalib/series -->
<g id="edge46" class="edge">
<title>nasalib/trig&#45;&gt;nasalib/series</title>
<path fill="none" stroke="black" d="M286.71,-460.2C277.81,-451.78 266.96,-441.52 257.21,-432.29"/>
<polygon fill="black" stroke="black" points="260.01,-430.18 250.34,-425.85 255.2,-435.26 260.01,-430.18"/>
</g>
</g>
</svg>
