<?xml version="1.0" encoding="UTF-8" standalone="no"?>
<!DOCTYPE svg PUBLIC "-//W3C//DTD SVG 1.1//EN"
 "http://www.w3.org/Graphics/SVG/1.1/DTD/svg11.dtd">
<!-- Generated by graphviz version 8.1.0 (20230707.0739)
 -->
<!-- Title: Sturm Pages: 1 -->
<svg width="406pt" height="833pt"
 viewBox="0.00 0.00 406.00 833.00" xmlns="http://www.w3.org/2000/svg" xmlns:xlink="http://www.w3.org/1999/xlink">
<g id="graph0" class="graph" transform="scale(1 1) rotate(0) translate(4 829)">
<title>Sturm</title>
<polygon fill="white" stroke="none" points="-4,4 -4,-829 402,-829 402,4 -4,4"/>
<g id="clust1" class="cluster">
<title>cluster_NASALib</title>
<polygon fill="none" stroke="black" points="8,-92.5 8,-817 390,-817 390,-92.5 8,-92.5"/>
<text text-anchor="middle" x="199" y="-799.7" font-family="Times,serif" font-size="14.00">NASALib</text>
</g>
<g id="clust2" class="cluster">
<title>cluster_PVS Prelude</title>
<polygon fill="none" stroke="black" points="227,-8 227,-84.5 315,-84.5 315,-8 227,-8"/>
<text text-anchor="middle" x="271" y="-67.2" font-family="Times,serif" font-size="14.00">PVS Prelude</text>
</g>
<!-- lib/finite_sets -->
<g id="node1" class="node">
<title>lib/finite_sets</title>
<polygon fill="#fcfcd7" stroke="black" points="306.75,-52 235.25,-52 235.25,-16 306.75,-16 306.75,-52"/>
<text text-anchor="middle" x="271" y="-28.95" font-family="Times,serif" font-size="14.00">finite_sets</text>
</g>
<!-- nasalib/Sturm -->
<g id="node2" class="node">
<title>nasalib/Sturm</title>
<polygon fill="#f7e28d" stroke="black" points="156,-640.5 102,-640.5 102,-604.5 156,-604.5 156,-640.5"/>
<text text-anchor="middle" x="129" y="-617.45" font-family="Times,serif" font-size="14.00">Sturm</text>
</g>
<!-- nasalib/interval_arith -->
<g id="node7" class="node">
<title>nasalib/interval_arith</title>
<polygon fill="#fcfcd7" stroke="black" points="244.38,-568.5 155.62,-568.5 155.62,-532.5 244.38,-532.5 244.38,-568.5"/>
<text text-anchor="middle" x="200" y="-545.45" font-family="Times,serif" font-size="14.00">interval_arith</text>
</g>
<!-- nasalib/Sturm&#45;&gt;nasalib/interval_arith -->
<g id="edge1" class="edge">
<title>nasalib/Sturm&#45;&gt;nasalib/interval_arith</title>
<path fill="none" stroke="black" d="M146.55,-604.2C155.15,-595.72 165.65,-585.36 175.07,-576.08"/>
<polygon fill="black" stroke="black" points="176.99,-579.12 181.65,-569.6 172.07,-574.13 176.99,-579.12"/>
</g>
<!-- nasalib/ints -->
<g id="node8" class="node">
<title>nasalib/ints</title>
<polygon fill="#fcfcd7" stroke="black" points="224,-136.5 170,-136.5 170,-100.5 224,-100.5 224,-136.5"/>
<text text-anchor="middle" x="197" y="-113.45" font-family="Times,serif" font-size="14.00">ints</text>
</g>
<!-- nasalib/Sturm&#45;&gt;nasalib/ints -->
<g id="edge2" class="edge">
<title>nasalib/Sturm&#45;&gt;nasalib/ints</title>
<path fill="none" stroke="black" d="M117,-549.5C117,-549.5 77,-263.5 77,-263.5"/>
<path fill="none" stroke="black" d="M126.03,-604.2C122.48,-583.47 117,-551.5 117,-551.5"/>
</g>
<!-- nasalib/reals -->
<g id="node11" class="node">
<title>nasalib/reals</title>
<polygon fill="#fcfcd7" stroke="black" points="178,-280.5 124,-280.5 124,-244.5 178,-244.5 178,-280.5"/>
<text text-anchor="middle" x="151" y="-257.45" font-family="Times,serif" font-size="14.00">reals</text>
</g>
<!-- nasalib/Sturm&#45;&gt;nasalib/reals -->
<g id="edge3" class="edge">
<title>nasalib/Sturm&#45;&gt;nasalib/reals</title>
<path fill="none" stroke="black" d="M177,-405.5C177,-405.5 177,-335.5 177,-335.5"/>
<path fill="none" stroke="black" d="M117,-477.5C117,-477.5 177,-407.5 177,-407.5"/>
</g>
<!-- nasalib/structures -->
<g id="node13" class="node">
<title>nasalib/structures</title>
<polygon fill="#fcfcd7" stroke="black" points="231.25,-208.5 162.75,-208.5 162.75,-172.5 231.25,-172.5 231.25,-208.5"/>
<text text-anchor="middle" x="197" y="-185.45" font-family="Times,serif" font-size="14.00">structures</text>
</g>
<!-- nasalib/Sturm&#45;&gt;nasalib/structures -->
<g id="edge4" class="edge">
<title>nasalib/Sturm&#45;&gt;nasalib/structures</title>
<path fill="none" stroke="black" d="M117,-477.5C117,-477.5 97,-263.5 97,-263.5"/>
<path fill="none" stroke="black" d="M117,-549.5C117,-549.5 117,-479.5 117,-479.5"/>
</g>
<!-- nasalib/Tarski -->
<g id="node3" class="node">
<title>nasalib/Tarski</title>
<polygon fill="#fcfcd7" stroke="black" points="110,-712.5 56,-712.5 56,-676.5 110,-676.5 110,-712.5"/>
<text text-anchor="middle" x="83" y="-689.45" font-family="Times,serif" font-size="14.00">Tarski</text>
</g>
<!-- nasalib/Tarski&#45;&gt;nasalib/Sturm -->
<g id="edge5" class="edge">
<title>nasalib/Tarski&#45;&gt;nasalib/Sturm</title>
<path fill="none" stroke="black" d="M94.37,-676.2C99.61,-668.23 105.93,-658.6 111.74,-649.76"/>
<polygon fill="black" stroke="black" points="115.19,-651.88 117.76,-641.6 109.34,-648.04 115.19,-651.88"/>
</g>
<!-- nasalib/Tarski&#45;&gt;nasalib/ints -->
<g id="edge6" class="edge">
<title>nasalib/Tarski&#45;&gt;nasalib/ints</title>
<path fill="none" stroke="black" d="M77,-261.5C77,-261.5 77,-191.5 77,-191.5"/>
<path fill="none" stroke="black" d="M57,-549.5C57,-549.5 61,-460.5 61,-460.5 61,-460.5 77,-263.5 77,-263.5"/>
<path fill="none" stroke="black" d="M79.81,-676.09C72.87,-638.17 57,-551.5 57,-551.5"/>
<path fill="none" stroke="black" d="M77,-189.5C77,-189.5 125.34,-161.3 160.66,-140.7"/>
<polygon fill="black" stroke="black" points="161.9,-143.45 168.77,-135.38 158.37,-137.4 161.9,-143.45"/>
</g>
<!-- nasalib/Tarski&#45;&gt;nasalib/reals -->
<g id="edge7" class="edge">
<title>nasalib/Tarski&#45;&gt;nasalib/reals</title>
<path fill="none" stroke="black" d="M57,-549.5C57,-549.5 177,-335.5 177,-335.5"/>
<path fill="none" stroke="black" d="M177,-333.5C177,-333.5 168.47,-310.53 161.18,-290.91"/>
<polygon fill="black" stroke="black" points="164.19,-289.96 157.43,-281.8 157.63,-292.4 164.19,-289.96"/>
</g>
<!-- nasalib/Tarski&#45;&gt;nasalib/structures -->
<g id="edge8" class="edge">
<title>nasalib/Tarski&#45;&gt;nasalib/structures</title>
<path fill="none" stroke="black" d="M57,-549.5C57,-549.5 97,-263.5 97,-263.5"/>
<path fill="none" stroke="black" d="M97,-261.5C97,-261.5 115,-244.5 115,-244.5 115,-244.5 138.91,-229.04 160.91,-214.82"/>
<polygon fill="black" stroke="black" points="162.65,-217.22 169.15,-208.85 158.85,-211.34 162.65,-217.22"/>
</g>
<!-- nasalib/analysis -->
<g id="node4" class="node">
<title>nasalib/analysis</title>
<polygon fill="#fcfcd7" stroke="black" points="335.75,-352.5 276.25,-352.5 276.25,-316.5 335.75,-316.5 335.75,-352.5"/>
<text text-anchor="middle" x="306" y="-329.45" font-family="Times,serif" font-size="14.00">analysis</text>
</g>
<!-- nasalib/analysis&#45;&gt;lib/finite_sets -->
<g id="edge9" class="edge">
<title>nasalib/analysis&#45;&gt;lib/finite_sets</title>
<path fill="none" stroke="black" d="M326.96,-316.15C345.62,-300.69 370,-280.5 370,-280.5 370,-280.5 384,-191.5 384,-191.5"/>
</g>
<!-- nasalib/analysis&#45;&gt;nasalib/ints -->
<g id="edge10" class="edge">
<title>nasalib/analysis&#45;&gt;nasalib/ints</title>
<path fill="none" stroke="black" d="M335,-261.5C335,-261.5 335,-191.5 335,-191.5"/>
</g>
<!-- nasalib/orders -->
<g id="node10" class="node">
<title>nasalib/orders</title>
<polygon fill="#fcfcd7" stroke="black" points="316,-280.5 262,-280.5 262,-244.5 316,-244.5 316,-280.5"/>
<text text-anchor="middle" x="289" y="-257.45" font-family="Times,serif" font-size="14.00">orders</text>
</g>
<!-- nasalib/analysis&#45;&gt;nasalib/orders -->
<g id="edge11" class="edge">
<title>nasalib/analysis&#45;&gt;nasalib/orders</title>
<path fill="none" stroke="black" d="M301.8,-316.2C299.97,-308.65 297.77,-299.62 295.72,-291.18"/>
<polygon fill="black" stroke="black" points="298.92,-290.5 293.15,-281.6 292.11,-292.15 298.92,-290.5"/>
</g>
<!-- nasalib/analysis&#45;&gt;nasalib/reals -->
<g id="edge12" class="edge">
<title>nasalib/analysis&#45;&gt;nasalib/reals</title>
<path fill="none" stroke="black" d="M276.11,-320C251.07,-308.69 215.21,-292.5 188.29,-280.34"/>
<polygon fill="black" stroke="black" points="190.01,-276.82 179.45,-275.9 187.13,-283.2 190.01,-276.82"/>
</g>
<!-- nasalib/analysis&#45;&gt;nasalib/structures -->
<g id="edge13" class="edge">
<title>nasalib/analysis&#45;&gt;nasalib/structures</title>
<path fill="none" stroke="black" d="M335,-261.5C335,-261.5 325,-244.5 325,-244.5 325,-244.5 278.67,-225.32 241.75,-210.03"/>
<polygon fill="black" stroke="black" points="243.22,-206.43 232.64,-205.84 240.54,-212.9 243.22,-206.43"/>
<path fill="none" stroke="black" d="M313.17,-316.2C321.76,-295.47 335,-263.5 335,-263.5"/>
</g>
<!-- nasalib/exact_real_arith -->
<g id="node5" class="node">
<title>nasalib/exact_real_arith</title>
<polygon fill="#fcfcd7" stroke="black" points="251.5,-712.5 148.5,-712.5 148.5,-676.5 251.5,-676.5 251.5,-712.5"/>
<text text-anchor="middle" x="200" y="-689.45" font-family="Times,serif" font-size="14.00">exact_real_arith</text>
</g>
<!-- nasalib/exact_real_arith&#45;&gt;nasalib/Sturm -->
<g id="edge14" class="edge">
<title>nasalib/exact_real_arith&#45;&gt;nasalib/Sturm</title>
<path fill="none" stroke="black" d="M182.45,-676.2C173.85,-667.72 163.35,-657.36 153.93,-648.08"/>
<polygon fill="black" stroke="black" points="156.93,-646.13 147.35,-641.6 152.01,-651.12 156.93,-646.13"/>
</g>
<!-- nasalib/exact_real_arith&#45;&gt;nasalib/interval_arith -->
<g id="edge15" class="edge">
<title>nasalib/exact_real_arith&#45;&gt;nasalib/interval_arith</title>
<path fill="none" stroke="black" d="M200,-621.5C200,-621.5 200,-599.16 200,-579.72"/>
<polygon fill="black" stroke="black" points="203.5,-579.8 200,-569.8 196.5,-579.8 203.5,-579.8"/>
</g>
<!-- nasalib/lnexp -->
<g id="node9" class="node">
<title>nasalib/lnexp</title>
<polygon fill="#fcfcd7" stroke="black" points="362,-496.5 308,-496.5 308,-460.5 362,-460.5 362,-496.5"/>
<text text-anchor="middle" x="335" y="-473.45" font-family="Times,serif" font-size="14.00">lnexp</text>
</g>
<!-- nasalib/exact_real_arith&#45;&gt;nasalib/lnexp -->
<g id="edge16" class="edge">
<title>nasalib/exact_real_arith&#45;&gt;nasalib/lnexp</title>
<path fill="none" stroke="black" d="M210.82,-676.35C234.37,-639.02 290.4,-550.19 318.43,-505.76"/>
<polygon fill="black" stroke="black" points="321.75,-508.06 324.13,-497.73 315.83,-504.32 321.75,-508.06"/>
</g>
<!-- nasalib/exact_real_arith&#45;&gt;nasalib/reals -->
<g id="edge17" class="edge">
<title>nasalib/exact_real_arith&#45;&gt;nasalib/reals</title>
<path fill="none" stroke="black" d="M137,-549.5C137,-549.5 177,-407.5 177,-407.5"/>
<path fill="none" stroke="black" d="M200,-621.5C200,-621.5 147,-568.5 147,-568.5 147,-568.5 137,-551.5 137,-551.5"/>
<path fill="none" stroke="black" d="M200,-676.2C200,-655.47 200,-623.5 200,-623.5"/>
</g>
<!-- nasalib/exact_real_arith&#45;&gt;nasalib/structures -->
<g id="edge18" class="edge">
<title>nasalib/exact_real_arith&#45;&gt;nasalib/structures</title>
<path fill="none" stroke="black" d="M137,-549.5C137,-549.5 108,-316.5 108,-316.5 108,-316.5 97,-263.5 97,-263.5"/>
</g>
<!-- nasalib/trig -->
<g id="node14" class="node">
<title>nasalib/trig</title>
<polygon fill="#fcfcd7" stroke="black" points="270,-496.5 216,-496.5 216,-460.5 270,-460.5 270,-496.5"/>
<text text-anchor="middle" x="243" y="-473.45" font-family="Times,serif" font-size="14.00">trig</text>
</g>
<!-- nasalib/exact_real_arith&#45;&gt;nasalib/trig -->
<g id="edge19" class="edge">
<title>nasalib/exact_real_arith&#45;&gt;nasalib/trig</title>
<path fill="none" stroke="black" d="M200,-621.5C200,-621.5 253,-568.5 253,-568.5 253,-568.5 253,-532.5 253,-532.5 253,-532.5 250.68,-520.18 248.27,-507.42"/>
<polygon fill="black" stroke="black" points="251.57,-507.03 246.27,-497.85 244.69,-508.33 251.57,-507.03"/>
</g>
<!-- nasalib/examples -->
<g id="node6" class="node">
<title>nasalib/examples</title>
<polygon fill="#fcfcd7" stroke="black" points="162.88,-784.5 95.12,-784.5 95.12,-748.5 162.88,-748.5 162.88,-784.5"/>
<text text-anchor="middle" x="129" y="-761.45" font-family="Times,serif" font-size="14.00">examples</text>
</g>
<!-- nasalib/examples&#45;&gt;nasalib/Sturm -->
<g id="edge20" class="edge">
<title>nasalib/examples&#45;&gt;nasalib/Sturm</title>
<path fill="none" stroke="black" d="M129,-748.09C129,-724 129,-680.25 129,-651.53"/>
<polygon fill="black" stroke="black" points="132.5,-651.61 129,-641.61 125.5,-651.61 132.5,-651.61"/>
</g>
<!-- nasalib/examples&#45;&gt;nasalib/Tarski -->
<g id="edge21" class="edge">
<title>nasalib/examples&#45;&gt;nasalib/Tarski</title>
<path fill="none" stroke="black" d="M117.63,-748.2C112.39,-740.23 106.07,-730.6 100.26,-721.76"/>
<polygon fill="black" stroke="black" points="102.66,-720.04 94.24,-713.6 96.81,-723.88 102.66,-720.04"/>
</g>
<!-- nasalib/examples&#45;&gt;nasalib/analysis -->
<g id="edge22" class="edge">
<title>nasalib/examples&#45;&gt;nasalib/analysis</title>
<path fill="none" stroke="black" d="M345,-549.5C345,-549.5 371,-496.5 371,-496.5 371,-496.5 371,-460.5 371,-460.5 371,-460.5 334,-407.5 334,-407.5"/>
</g>
<!-- nasalib/examples&#45;&gt;nasalib/exact_real_arith -->
<g id="edge23" class="edge">
<title>nasalib/examples&#45;&gt;nasalib/exact_real_arith</title>
<path fill="none" stroke="black" d="M146.55,-748.2C155.15,-739.72 165.65,-729.36 175.07,-720.08"/>
<polygon fill="black" stroke="black" points="176.99,-723.12 181.65,-713.6 172.07,-718.13 176.99,-723.12"/>
</g>
<!-- nasalib/examples&#45;&gt;nasalib/interval_arith -->
<g id="edge24" class="edge">
<title>nasalib/examples&#45;&gt;nasalib/interval_arith</title>
<path fill="none" stroke="black" d="M325,-693.5C325,-693.5 258.5,-617.96 222.51,-577.07"/>
<polygon fill="black" stroke="black" points="225.56,-575.11 216.33,-569.91 220.31,-579.73 225.56,-575.11"/>
<path fill="none" stroke="black" d="M163.14,-753.31C219.3,-733.25 325,-695.5 325,-695.5"/>
</g>
<!-- nasalib/examples&#45;&gt;nasalib/lnexp -->
<g id="edge25" class="edge">
<title>nasalib/examples&#45;&gt;nasalib/lnexp</title>
<path fill="none" stroke="black" d="M345,-549.5C345,-549.5 341.78,-526.95 338.99,-507.45"/>
<polygon fill="black" stroke="black" points="342.35,-507.21 337.47,-497.8 335.42,-508.2 342.35,-507.21"/>
</g>
<!-- nasalib/examples&#45;&gt;nasalib/reals -->
<g id="edge26" class="edge">
<title>nasalib/examples&#45;&gt;nasalib/reals</title>
<path fill="none" stroke="black" d="M102.15,-748.15C78.24,-732.69 47,-712.5 47,-712.5 47,-712.5 37,-623.5 37,-623.5 37,-623.5 37,-623.5 37,-549.5 37,-549.5 111.45,-362.72 140.02,-291.05"/>
<polygon fill="black" stroke="black" points="143.59,-292.55 144.04,-281.96 137.09,-289.95 143.59,-292.55"/>
</g>
<!-- nasalib/examples&#45;&gt;nasalib/trig -->
<g id="edge27" class="edge">
<title>nasalib/examples&#45;&gt;nasalib/trig</title>
<path fill="none" stroke="black" d="M325,-693.5C325,-693.5 345,-551.5 345,-551.5"/>
<path fill="none" stroke="black" d="M345,-549.5C345,-549.5 306.96,-523.4 277.35,-503.07"/>
<polygon fill="black" stroke="black" points="279.7,-499.76 269.48,-496.98 275.74,-505.53 279.7,-499.76"/>
</g>
<!-- nasalib/interval_arith&#45;&gt;nasalib/analysis -->
<g id="edge28" class="edge">
<title>nasalib/interval_arith&#45;&gt;nasalib/analysis</title>
<path fill="none" stroke="black" d="M225.87,-532.15C248.91,-516.69 279,-496.5 279,-496.5 279,-496.5 299,-460.5 299,-460.5 299,-460.5 334,-407.5 334,-407.5"/>
</g>
<!-- nasalib/interval_arith&#45;&gt;nasalib/ints -->
<g id="edge29" class="edge">
<title>nasalib/interval_arith&#45;&gt;nasalib/ints</title>
<path fill="none" stroke="black" d="M192.49,-532.04C165.79,-469.95 77,-263.5 77,-263.5"/>
</g>
<!-- nasalib/interval_arith&#45;&gt;nasalib/lnexp -->
<g id="edge30" class="edge">
<title>nasalib/interval_arith&#45;&gt;nasalib/lnexp</title>
<path fill="none" stroke="black" d="M233.72,-532.02C253.23,-521.9 277.81,-509.16 297.87,-498.75"/>
<polygon fill="black" stroke="black" points="299.34,-501.42 306.6,-493.71 296.11,-495.2 299.34,-501.42"/>
</g>
<!-- nasalib/interval_arith&#45;&gt;nasalib/reals -->
<g id="edge31" class="edge">
<title>nasalib/interval_arith&#45;&gt;nasalib/reals</title>
<path fill="none" stroke="black" d="M199.63,-532.09C198.83,-494.17 197,-407.5 197,-407.5"/>
<path fill="none" stroke="black" d="M197,-405.5C197,-405.5 177,-335.5 177,-335.5"/>
</g>
<!-- nasalib/interval_arith&#45;&gt;nasalib/structures -->
<g id="edge32" class="edge">
<title>nasalib/interval_arith&#45;&gt;nasalib/structures</title>
<path fill="none" stroke="black" d="M197,-405.5C197,-405.5 197,-277.65 197,-219.59"/>
<polygon fill="black" stroke="black" points="200.5,-219.65 197,-209.65 193.5,-219.65 200.5,-219.65"/>
</g>
<!-- nasalib/interval_arith&#45;&gt;nasalib/trig -->
<g id="edge33" class="edge">
<title>nasalib/interval_arith&#45;&gt;nasalib/trig</title>
<path fill="none" stroke="black" d="M210.63,-532.2C215.52,-524.23 221.44,-514.6 226.87,-505.76"/>
<polygon fill="black" stroke="black" points="230.24,-507.96 232.49,-497.6 224.28,-504.29 230.24,-507.96"/>
</g>
<!-- nasalib/ints&#45;&gt;lib/finite_sets -->
<g id="edge34" class="edge">
<title>nasalib/ints&#45;&gt;lib/finite_sets</title>
<path fill="none" stroke="black" d="M212.69,-100C223,-88.52 236.64,-73.31 248.14,-60.49"/>
<polygon fill="black" stroke="black" points="250.26,-63.25 254.33,-53.47 245.05,-58.58 250.26,-63.25"/>
</g>
<!-- nasalib/lnexp&#45;&gt;nasalib/analysis -->
<g id="edge35" class="edge">
<title>nasalib/lnexp&#45;&gt;nasalib/analysis</title>
<path fill="none" stroke="black" d="M334.75,-460.2C334.46,-439.47 334,-407.5 334,-407.5"/>
</g>
<!-- nasalib/lnexp&#45;&gt;nasalib/ints -->
<g id="edge36" class="edge">
<title>nasalib/lnexp&#45;&gt;nasalib/ints</title>
<path fill="none" stroke="black" d="M336.39,-460.12C339.14,-425.77 345,-352.5 345,-352.5 345,-352.5 345,-316.5 345,-316.5 345,-316.5 340,-244.5 340,-244.5 340,-244.5 335,-191.5 335,-191.5"/>
</g>
<!-- nasalib/lnexp&#45;&gt;nasalib/reals -->
<g id="edge37" class="edge">
<title>nasalib/lnexp&#45;&gt;nasalib/reals</title>
<path fill="none" stroke="black" d="M307.79,-460.73C282.59,-445.2 249,-424.5 249,-424.5 249,-424.5 194.99,-335.76 167.16,-290.05"/>
<polygon fill="black" stroke="black" points="169.68,-288.45 161.49,-281.73 163.7,-292.09 169.68,-288.45"/>
</g>
<!-- nasalib/series -->
<g id="node12" class="node">
<title>nasalib/series</title>
<polygon fill="#fcfcd7" stroke="black" points="312,-424.5 258,-424.5 258,-388.5 312,-388.5 312,-424.5"/>
<text text-anchor="middle" x="285" y="-401.45" font-family="Times,serif" font-size="14.00">series</text>
</g>
<!-- nasalib/lnexp&#45;&gt;nasalib/series -->
<g id="edge38" class="edge">
<title>nasalib/lnexp&#45;&gt;nasalib/series</title>
<path fill="none" stroke="black" d="M322.64,-460.2C316.89,-452.14 309.92,-442.39 303.56,-433.48"/>
<polygon fill="black" stroke="black" points="305.88,-431.71 297.22,-425.6 300.18,-435.78 305.88,-431.71"/>
</g>
<!-- nasalib/orders&#45;&gt;lib/finite_sets -->
<g id="edge39" class="edge">
<title>nasalib/orders&#45;&gt;lib/finite_sets</title>
<path fill="none" stroke="black" d="M384,-189.5C384,-189.5 384,-119.5 384,-119.5"/>
<path fill="none" stroke="black" d="M315.52,-244.15C339.15,-228.69 370,-208.5 370,-208.5 370,-208.5 384,-191.5 384,-191.5"/>
</g>
<!-- nasalib/orders&#45;&gt;nasalib/structures -->
<g id="edge40" class="edge">
<title>nasalib/orders&#45;&gt;nasalib/structures</title>
<path fill="none" stroke="black" d="M266.26,-244.2C254.87,-235.53 240.9,-224.9 228.49,-215.46"/>
<polygon fill="black" stroke="black" points="230.88,-212.12 220.8,-208.85 226.64,-217.69 230.88,-212.12"/>
</g>
<!-- nasalib/reals&#45;&gt;nasalib/ints -->
<g id="edge41" class="edge">
<title>nasalib/reals&#45;&gt;nasalib/ints</title>
<path fill="none" stroke="black" d="M132.71,-244.2C110.79,-223.47 77,-191.5 77,-191.5"/>
</g>
<!-- nasalib/reals&#45;&gt;nasalib/structures -->
<g id="edge42" class="edge">
<title>nasalib/reals&#45;&gt;nasalib/structures</title>
<path fill="none" stroke="black" d="M162.37,-244.2C167.61,-236.23 173.93,-226.6 179.74,-217.76"/>
<polygon fill="black" stroke="black" points="183.19,-219.88 185.76,-209.6 177.34,-216.04 183.19,-219.88"/>
</g>
<!-- nasalib/series&#45;&gt;nasalib/analysis -->
<g id="edge43" class="edge">
<title>nasalib/series&#45;&gt;nasalib/analysis</title>
<path fill="none" stroke="black" d="M290.19,-388.2C292.48,-380.57 295.23,-371.42 297.78,-362.9"/>
<polygon fill="black" stroke="black" points="301.35,-364.19 300.87,-353.6 294.64,-362.18 301.35,-364.19"/>
</g>
<!-- nasalib/series&#45;&gt;nasalib/ints -->
<g id="edge44" class="edge">
<title>nasalib/series&#45;&gt;nasalib/ints</title>
<path fill="none" stroke="black" d="M257,-333.5C257,-333.5 243,-263.5 243,-263.5"/>
</g>
<!-- nasalib/series&#45;&gt;nasalib/orders -->
<g id="edge45" class="edge">
<title>nasalib/series&#45;&gt;nasalib/orders</title>
<path fill="none" stroke="black" d="M257,-333.5C257,-333.5 267.6,-310.32 276.6,-290.64"/>
<polygon fill="black" stroke="black" points="280.12,-292.35 281.09,-281.8 273.75,-289.44 280.12,-292.35"/>
</g>
<!-- nasalib/series&#45;&gt;nasalib/reals -->
<g id="edge46" class="edge">
<title>nasalib/series&#45;&gt;nasalib/reals</title>
<path fill="none" stroke="black" d="M257,-333.5C257,-333.5 242,-316.5 242,-316.5 242,-316.5 212.99,-299.61 187.73,-284.89"/>
<polygon fill="black" stroke="black" points="189.71,-281.41 179.3,-279.4 186.18,-287.46 189.71,-281.41"/>
<path fill="none" stroke="black" d="M278.08,-388.2C269.79,-367.47 257,-335.5 257,-335.5"/>
</g>
<!-- nasalib/structures&#45;&gt;lib/finite_sets -->
<g id="edge47" class="edge">
<title>nasalib/structures&#45;&gt;lib/finite_sets</title>
<path fill="none" stroke="black" d="M231.74,-176.5C285.81,-156.25 384,-119.5 384,-119.5"/>
<path fill="none" stroke="black" d="M384,-117.5C384,-117.5 336.92,-83.13 303.54,-58.76"/>
<polygon fill="black" stroke="black" points="306.1,-55.57 295.96,-52.5 301.98,-61.22 306.1,-55.57"/>
</g>
<!-- nasalib/structures&#45;&gt;nasalib/ints -->
<g id="edge48" class="edge">
<title>nasalib/structures&#45;&gt;nasalib/ints</title>
<path fill="none" stroke="black" d="M197,-172.2C197,-164.74 197,-155.82 197,-147.47"/>
<polygon fill="black" stroke="black" points="200.5,-147.6 197,-137.6 193.5,-147.6 200.5,-147.6"/>
</g>
<!-- nasalib/trig&#45;&gt;nasalib/analysis -->
<g id="edge49" class="edge">
<title>nasalib/trig&#45;&gt;nasalib/analysis</title>
<path fill="none" stroke="black" d="M334,-405.5C334,-405.5 324.81,-382.53 316.96,-362.91"/>
<polygon fill="black" stroke="black" points="319.88,-361.79 312.92,-353.8 313.39,-364.39 319.88,-361.79"/>
<path fill="none" stroke="black" d="M268.54,-460.15C291.29,-444.69 321,-424.5 321,-424.5 321,-424.5 334,-407.5 334,-407.5"/>
</g>
<!-- nasalib/trig&#45;&gt;nasalib/ints -->
<g id="edge50" class="edge">
<title>nasalib/trig&#45;&gt;nasalib/ints</title>
<path fill="none" stroke="black" d="M335,-189.5C335,-189.5 274.82,-158.97 233.94,-138.24"/>
<polygon fill="black" stroke="black" points="235.77,-134.73 225.26,-133.33 232.6,-140.97 235.77,-134.73"/>
<path fill="none" stroke="black" d="M243,-261.5C243,-261.5 253,-244.5 253,-244.5 253,-244.5 335,-191.5 335,-191.5"/>
<path fill="none" stroke="black" d="M217,-405.5C217,-405.5 243,-263.5 243,-263.5"/>
</g>
<!-- nasalib/trig&#45;&gt;nasalib/reals -->
<g id="edge51" class="edge">
<title>nasalib/trig&#45;&gt;nasalib/reals</title>
<path fill="none" stroke="black" d="M217,-405.5C217,-405.5 177,-335.5 177,-335.5"/>
<path fill="none" stroke="black" d="M236.57,-460.2C228.87,-439.47 217,-407.5 217,-407.5"/>
</g>
<!-- nasalib/trig&#45;&gt;nasalib/series -->
<g id="edge52" class="edge">
<title>nasalib/trig&#45;&gt;nasalib/series</title>
<path fill="none" stroke="black" d="M253.38,-460.2C258.16,-452.23 263.94,-442.6 269.24,-433.76"/>
<polygon fill="black" stroke="black" points="272.59,-435.98 274.74,-425.6 266.59,-432.38 272.59,-435.98"/>
</g>
</g>
</svg>
