<?xml version="1.0" encoding="UTF-8" standalone="no"?>
<!DOCTYPE svg PUBLIC "-//W3C//DTD SVG 1.1//EN"
 "http://www.w3.org/Graphics/SVG/1.1/DTD/svg11.dtd">
<!-- Generated by graphviz version 7.0.6 (20230106.0513)
 -->
<!-- Title: Sturm&#45;zoomed Pages: 1 -->
<svg width="764pt" height="614pt"
 viewBox="0.00 0.00 764.00 614.00" xmlns="http://www.w3.org/2000/svg" xmlns:xlink="http://www.w3.org/1999/xlink">
<g id="graph0" class="graph" transform="scale(1 1) rotate(0) translate(4 610)">
<title>Sturm&#45;zoomed</title>
<polygon fill="white" stroke="none" points="-4,4 -4,-610 760,-610 760,4 -4,4"/>
<g id="clust1" class="cluster">
<title>cluster_NASALib</title>
<polygon fill="none" stroke="black" points="410,-8 410,-83 748,-83 748,-8 410,-8"/>
<text text-anchor="middle" x="579" y="-67.8" font-family="Times,serif" font-size="14.00">NASALib</text>
</g>
<g id="clust2" class="cluster">
<title>cluster_NASALib/Sturm</title>
<polygon fill="none" stroke="black" points="8,-91 8,-598 471,-598 471,-91 8,-91"/>
<text text-anchor="middle" x="239.5" y="-582.8" font-family="Times,serif" font-size="14.00">NASALib/Sturm</text>
</g>
<!-- NASALib/Sturm@clear_denominators -->
<g id="node1" class="node">
<title>NASALib/Sturm@clear_denominators</title>
<ellipse fill="#e6f3ff" stroke="black" cx="382" cy="-333" rx="80.69" ry="18"/>
<text text-anchor="middle" x="382" y="-329.3" font-family="Times,serif" font-size="14.00">clear_denominators</text>
</g>
<!-- NASALib/ints -->
<g id="node14" class="node">
<title>NASALib/ints</title>
<polygon fill="#fcfcd7" stroke="black" points="632,-52 578,-52 578,-16 632,-16 632,-52"/>
<text text-anchor="middle" x="605" y="-30.3" font-family="Times,serif" font-size="14.00">ints</text>
</g>
<!-- NASALib/Sturm@clear_denominators&#45;&gt;NASALib/ints -->
<g id="edge1" class="edge">
<title>NASALib/Sturm@clear_denominators&#45;&gt;NASALib/ints</title>
<path fill="none" stroke="black" d="M412.5,-315.91C476.51,-282.15 619,-207 619,-207 619,-207 619,-91 619,-91 619,-91 615.55,-77.21 612.08,-63.32"/>
<polygon fill="black" stroke="black" points="615.54,-62.73 609.72,-53.88 608.75,-64.43 615.54,-62.73"/>
</g>
<!-- NASALib/Sturm@compute_sturm -->
<g id="node2" class="node">
<title>NASALib/Sturm@compute_sturm</title>
<ellipse fill="#e6f3ff" stroke="black" cx="282" cy="-405" rx="66.09" ry="18"/>
<text text-anchor="middle" x="282" y="-401.3" font-family="Times,serif" font-size="14.00">compute_sturm</text>
</g>
<!-- NASALib/Sturm@compute_sturm&#45;&gt;NASALib/Sturm@clear_denominators -->
<g id="edge2" class="edge">
<title>NASALib/Sturm@compute_sturm&#45;&gt;NASALib/Sturm@clear_denominators</title>
<path fill="none" stroke="black" d="M305.19,-387.76C318.26,-378.62 334.79,-367.05 349.16,-356.99"/>
<polygon fill="black" stroke="black" points="350.81,-360.1 357,-351.5 346.8,-354.37 350.81,-360.1"/>
</g>
<!-- NASALib/Sturm@remainder_sequence -->
<g id="node9" class="node">
<title>NASALib/Sturm@remainder_sequence</title>
<ellipse fill="#e6f3ff" stroke="black" cx="151" cy="-333" rx="83.39" ry="18"/>
<text text-anchor="middle" x="151" y="-329.3" font-family="Times,serif" font-size="14.00">remainder_sequence</text>
</g>
<!-- NASALib/Sturm@compute_sturm&#45;&gt;NASALib/Sturm@remainder_sequence -->
<g id="edge3" class="edge">
<title>NASALib/Sturm@compute_sturm&#45;&gt;NASALib/Sturm@remainder_sequence</title>
<path fill="none" stroke="black" d="M252.93,-388.46C234.83,-378.79 211.28,-366.21 191.38,-355.58"/>
<polygon fill="black" stroke="black" points="193.16,-352.56 182.69,-350.93 189.86,-358.73 193.16,-352.56"/>
</g>
<!-- NASALib/Sturm@sturm -->
<g id="node11" class="node">
<title>NASALib/Sturm@sturm</title>
<ellipse fill="#e6f3ff" stroke="black" cx="432" cy="-261" rx="31.4" ry="18"/>
<text text-anchor="middle" x="432" y="-257.3" font-family="Times,serif" font-size="14.00">sturm</text>
</g>
<!-- NASALib/Sturm@compute_sturm&#45;&gt;NASALib/Sturm@sturm -->
<g id="edge4" class="edge">
<title>NASALib/Sturm@compute_sturm&#45;&gt;NASALib/Sturm@sturm</title>
<path fill="none" stroke="black" d="M283.93,-386.84C286.83,-360.98 292,-315 292,-315 292,-315 392,-279 392,-279 392,-279 393.89,-278.2 396.85,-276.94"/>
<polygon fill="black" stroke="black" points="398.12,-280.2 405.96,-273.07 395.39,-273.76 398.12,-280.2"/>
</g>
<!-- NASALib/reals -->
<g id="node15" class="node">
<title>NASALib/reals</title>
<polygon fill="#fcfcd7" stroke="black" points="560,-52 506,-52 506,-16 560,-16 560,-52"/>
<text text-anchor="middle" x="533" y="-30.3" font-family="Times,serif" font-size="14.00">reals</text>
</g>
<!-- NASALib/Sturm@compute_sturm&#45;&gt;NASALib/reals -->
<g id="edge5" class="edge">
<title>NASALib/Sturm@compute_sturm&#45;&gt;NASALib/reals</title>
<path fill="none" stroke="black" d="M327.03,-391.44C383.21,-375.77 472,-351 472,-351 472,-351 529,-190 529,-190"/>
</g>
<!-- NASALib/Sturm@gcd_coeff -->
<g id="node3" class="node">
<title>NASALib/Sturm@gcd_coeff</title>
<ellipse fill="#e6f3ff" stroke="black" cx="199" cy="-189" rx="46.29" ry="18"/>
<text text-anchor="middle" x="199" y="-185.3" font-family="Times,serif" font-size="14.00">gcd_coeff</text>
</g>
<!-- NASALib/Sturm@polynomial_division -->
<g id="node7" class="node">
<title>NASALib/Sturm@polynomial_division</title>
<ellipse fill="#e6f3ff" stroke="black" cx="199" cy="-117" rx="83.69" ry="18"/>
<text text-anchor="middle" x="199" y="-113.3" font-family="Times,serif" font-size="14.00">polynomial_division</text>
</g>
<!-- NASALib/Sturm@gcd_coeff&#45;&gt;NASALib/Sturm@polynomial_division -->
<g id="edge6" class="edge">
<title>NASALib/Sturm@gcd_coeff&#45;&gt;NASALib/Sturm@polynomial_division</title>
<path fill="none" stroke="black" d="M199,-170.7C199,-163.41 199,-154.73 199,-146.54"/>
<polygon fill="black" stroke="black" points="202.5,-146.62 199,-136.62 195.5,-146.62 202.5,-146.62"/>
</g>
<!-- NASALib/Sturm@gcd_coeff&#45;&gt;NASALib/ints -->
<g id="edge7" class="edge">
<title>NASALib/Sturm@gcd_coeff&#45;&gt;NASALib/ints</title>
<path fill="none" stroke="black" d="M234.45,-177.04C245.1,-173.75 254,-171 254,-171 254,-171 505,-135 505,-135 505,-135 569,-83 569,-83 569,-83 576.9,-72.46 585.3,-61.26"/>
<polygon fill="black" stroke="black" points="587.9,-63.64 591.1,-53.54 582.3,-59.44 587.9,-63.64"/>
</g>
<!-- NASALib/Sturm@gcd_coeff&#45;&gt;NASALib/reals -->
<g id="edge8" class="edge">
<title>NASALib/Sturm@gcd_coeff&#45;&gt;NASALib/reals</title>
<path fill="none" stroke="black" d="M453,-116C453,-116 496,-83 496,-83 496,-83 504.12,-72.46 512.75,-61.26"/>
<polygon fill="black" stroke="black" points="515.39,-63.58 518.72,-53.53 509.84,-59.31 515.39,-63.58"/>
<path fill="none" stroke="black" d="M234.45,-177.04C245.1,-173.75 254,-171 254,-171 254,-171 429,-135 429,-135 429,-135 453,-118 453,-118"/>
</g>
<!-- NASALib/structures -->
<g id="node16" class="node">
<title>NASALib/structures</title>
<polygon fill="#fcfcd7" stroke="black" points="487.5,-52 418.5,-52 418.5,-16 487.5,-16 487.5,-52"/>
<text text-anchor="middle" x="453" y="-30.3" font-family="Times,serif" font-size="14.00">structures</text>
</g>
<!-- NASALib/Sturm@gcd_coeff&#45;&gt;NASALib/structures -->
<g id="edge9" class="edge">
<title>NASALib/Sturm@gcd_coeff&#45;&gt;NASALib/structures</title>
<path fill="none" stroke="black" d="M233.7,-176.75C294.76,-156.97 415,-118 415,-118"/>
<path fill="none" stroke="black" d="M415,-116C415,-116 429.13,-85.89 440.15,-62.38"/>
<polygon fill="black" stroke="black" points="443.22,-64.09 444.3,-53.55 436.88,-61.11 443.22,-64.09"/>
</g>
<!-- NASALib/Sturm@number_sign_changes -->
<g id="node4" class="node">
<title>NASALib/Sturm@number_sign_changes</title>
<ellipse fill="#e6f3ff" stroke="black" cx="353" cy="-189" rx="89.88" ry="18"/>
<text text-anchor="middle" x="353" y="-185.3" font-family="Times,serif" font-size="14.00">number_sign_changes</text>
</g>
<!-- NASALib/Sturm@number_sign_changes&#45;&gt;NASALib/reals -->
<g id="edge10" class="edge">
<title>NASALib/Sturm@number_sign_changes&#45;&gt;NASALib/reals</title>
<path fill="none" stroke="black" d="M377.05,-171.23C399.31,-155.7 429,-135 429,-135 429,-135 453,-118 453,-118"/>
</g>
<!-- NASALib/Sturm@poly_strategy -->
<g id="node5" class="node">
<title>NASALib/Sturm@poly_strategy</title>
<ellipse fill="#e6f3ff" stroke="black" cx="403" cy="-477" rx="58.49" ry="18"/>
<text text-anchor="middle" x="403" y="-473.3" font-family="Times,serif" font-size="14.00">poly_strategy</text>
</g>
<!-- NASALib/Sturm@poly_strategy&#45;&gt;NASALib/Sturm@compute_sturm -->
<g id="edge11" class="edge">
<title>NASALib/Sturm@poly_strategy&#45;&gt;NASALib/Sturm@compute_sturm</title>
<path fill="none" stroke="black" d="M376.45,-460.64C359.66,-450.93 337.72,-438.23 319.21,-427.52"/>
<polygon fill="black" stroke="black" points="321.05,-424.55 310.64,-422.57 317.54,-430.61 321.05,-424.55"/>
</g>
<!-- NASALib/Sturm@polylist -->
<g id="node6" class="node">
<title>NASALib/Sturm@polylist</title>
<ellipse fill="#e6f3ff" stroke="black" cx="403" cy="-405" rx="37.09" ry="18"/>
<text text-anchor="middle" x="403" y="-401.3" font-family="Times,serif" font-size="14.00">polylist</text>
</g>
<!-- NASALib/Sturm@poly_strategy&#45;&gt;NASALib/Sturm@polylist -->
<g id="edge12" class="edge">
<title>NASALib/Sturm@poly_strategy&#45;&gt;NASALib/Sturm@polylist</title>
<path fill="none" stroke="black" d="M403,-458.7C403,-451.41 403,-442.73 403,-434.54"/>
<polygon fill="black" stroke="black" points="406.5,-434.62 403,-424.62 399.5,-434.62 406.5,-434.62"/>
</g>
<!-- NASALib/Sturm@polylist&#45;&gt;NASALib/reals -->
<g id="edge13" class="edge">
<title>NASALib/Sturm@polylist&#45;&gt;NASALib/reals</title>
<path fill="none" stroke="black" d="M567,-188C567,-188 549.15,-107.67 539.32,-63.42"/>
<polygon fill="black" stroke="black" points="542.75,-62.73 537.16,-53.73 535.92,-64.25 542.75,-62.73"/>
</g>
<!-- NASALib/Sturm@polylist&#45;&gt;NASALib/structures -->
<g id="edge14" class="edge">
<title>NASALib/Sturm@polylist&#45;&gt;NASALib/structures</title>
<path fill="none" stroke="black" d="M491,-116C491,-116 476.87,-85.89 465.85,-62.38"/>
<polygon fill="black" stroke="black" points="469.12,-61.11 461.7,-53.55 462.78,-64.09 469.12,-61.11"/>
<path fill="none" stroke="black" d="M567,-188C567,-188 491,-118 491,-118"/>
<path fill="none" stroke="black" d="M431.67,-393.15C472.63,-377.64 543,-351 543,-351 543,-351 567,-190 567,-190"/>
</g>
<!-- NASALib/Sturm@polynomial_division&#45;&gt;NASALib/reals -->
<g id="edge15" class="edge">
<title>NASALib/Sturm@polynomial_division&#45;&gt;NASALib/reals</title>
<path fill="none" stroke="black" d="M272.03,-107.89C359.97,-98.11 496,-83 496,-83 496,-83 504.12,-72.46 512.75,-61.26"/>
<polygon fill="black" stroke="black" points="515.39,-63.58 518.72,-53.53 509.84,-59.31 515.39,-63.58"/>
</g>
<!-- NASALib/Sturm@polynomial_division&#45;&gt;NASALib/structures -->
<g id="edge16" class="edge">
<title>NASALib/Sturm@polynomial_division&#45;&gt;NASALib/structures</title>
<path fill="none" stroke="black" d="M244.41,-101.52C290.42,-86.85 361.2,-64.28 407.31,-49.57"/>
<polygon fill="black" stroke="black" points="408.27,-52.94 416.74,-46.56 406.15,-46.27 408.27,-52.94"/>
</g>
<!-- NASALib/Sturm@polynomial_pseudo_divide -->
<g id="node8" class="node">
<title>NASALib/Sturm@polynomial_pseudo_divide</title>
<ellipse fill="#e6f3ff" stroke="black" cx="123" cy="-261" rx="106.68" ry="18"/>
<text text-anchor="middle" x="123" y="-257.3" font-family="Times,serif" font-size="14.00">polynomial_pseudo_divide</text>
</g>
<!-- NASALib/Sturm@polynomial_pseudo_divide&#45;&gt;NASALib/Sturm@gcd_coeff -->
<g id="edge17" class="edge">
<title>NASALib/Sturm@polynomial_pseudo_divide&#45;&gt;NASALib/Sturm@gcd_coeff</title>
<path fill="none" stroke="black" d="M141.4,-243.05C150.94,-234.27 162.75,-223.39 173.19,-213.77"/>
<polygon fill="black" stroke="black" points="175.46,-216.44 180.44,-207.09 170.72,-211.29 175.46,-216.44"/>
</g>
<!-- NASALib/Sturm@polynomial_pseudo_divide&#45;&gt;NASALib/Sturm@polynomial_division -->
<g id="edge18" class="edge">
<title>NASALib/Sturm@polynomial_pseudo_divide&#45;&gt;NASALib/Sturm@polynomial_division</title>
<path fill="none" stroke="black" d="M134,-188C134,-188 144,-171 144,-171 144,-171 158.83,-156.71 173.08,-142.97"/>
<polygon fill="black" stroke="black" points="175.43,-145.57 180.21,-136.11 170.58,-140.53 175.43,-145.57"/>
<path fill="none" stroke="black" d="M125.72,-242.7C128.98,-221.97 134,-190 134,-190"/>
</g>
<!-- NASALib/Sturm@polynomial_pseudo_divide&#45;&gt;NASALib/reals -->
<g id="edge19" class="edge">
<title>NASALib/Sturm@polynomial_pseudo_divide&#45;&gt;NASALib/reals</title>
<path fill="none" stroke="black" d="M529,-188C529,-188 453,-118 453,-118"/>
<path fill="none" stroke="black" d="M201.3,-248.43C221.66,-245.42 238,-243 238,-243 238,-243 505,-207 505,-207 505,-207 529,-190 529,-190"/>
</g>
<!-- NASALib/Sturm@polynomial_pseudo_divide&#45;&gt;NASALib/structures -->
<g id="edge20" class="edge">
<title>NASALib/Sturm@polynomial_pseudo_divide&#45;&gt;NASALib/structures</title>
<path fill="none" stroke="black" d="M491,-188C491,-188 475,-171 475,-171 475,-171 415,-118 415,-118"/>
<path fill="none" stroke="black" d="M200.68,-248.3C304.34,-232.7 475,-207 475,-207 475,-207 491,-190 491,-190"/>
</g>
<!-- NASALib/Sturm@remainder_sequence&#45;&gt;NASALib/Sturm@polynomial_pseudo_divide -->
<g id="edge21" class="edge">
<title>NASALib/Sturm@remainder_sequence&#45;&gt;NASALib/Sturm@polynomial_pseudo_divide</title>
<path fill="none" stroke="black" d="M144.08,-314.7C141.06,-307.15 137.45,-298.12 134.07,-289.68"/>
<polygon fill="black" stroke="black" points="137.37,-288.49 130.4,-280.51 130.87,-291.09 137.37,-288.49"/>
</g>
<!-- NASALib/Sturm@strategies -->
<g id="node10" class="node">
<title>NASALib/Sturm@strategies</title>
<ellipse fill="#e6f3ff" stroke="black" cx="403" cy="-549" rx="44.39" ry="18"/>
<text text-anchor="middle" x="403" y="-545.3" font-family="Times,serif" font-size="14.00">strategies</text>
</g>
<!-- NASALib/Sturm@strategies&#45;&gt;NASALib/Sturm@poly_strategy -->
<g id="edge22" class="edge">
<title>NASALib/Sturm@strategies&#45;&gt;NASALib/Sturm@poly_strategy</title>
<path fill="none" stroke="black" d="M403,-530.7C403,-523.41 403,-514.73 403,-506.54"/>
<polygon fill="black" stroke="black" points="406.5,-506.62 403,-496.62 399.5,-506.62 406.5,-506.62"/>
</g>
<!-- NASALib/interval_arith -->
<g id="node13" class="node">
<title>NASALib/interval_arith</title>
<polygon fill="#fcfcd7" stroke="black" points="739.5,-52 650.5,-52 650.5,-16 739.5,-16 739.5,-52"/>
<text text-anchor="middle" x="695" y="-30.3" font-family="Times,serif" font-size="14.00">interval_arith</text>
</g>
<!-- NASALib/Sturm@strategies&#45;&gt;NASALib/interval_arith -->
<g id="edge23" class="edge">
<title>NASALib/Sturm@strategies&#45;&gt;NASALib/interval_arith</title>
<path fill="none" stroke="black" d="M681,-188C681,-188 688.32,-108.01 692.37,-63.71"/>
<polygon fill="black" stroke="black" points="695.86,-64.04 693.28,-53.76 688.89,-63.4 695.86,-64.04"/>
</g>
<!-- NASALib/Sturm@strategies&#45;&gt;NASALib/reals -->
<g id="edge24" class="edge">
<title>NASALib/Sturm@strategies&#45;&gt;NASALib/reals</title>
<path fill="none" stroke="black" d="M681,-188C681,-188 569,-83 569,-83 569,-83 561.1,-72.46 552.7,-61.26"/>
<polygon fill="black" stroke="black" points="555.7,-59.44 546.9,-53.54 550.1,-63.64 555.7,-59.44"/>
</g>
<!-- NASALib/Sturm@strategies&#45;&gt;NASALib/structures -->
<g id="edge25" class="edge">
<title>NASALib/Sturm@strategies&#45;&gt;NASALib/structures</title>
<path fill="none" stroke="black" d="M429.91,-534.26C499.68,-498.62 681,-406 681,-406 681,-406 681,-406 681,-332 681,-332 681,-190 681,-190"/>
<path fill="none" stroke="black" d="M681,-188C681,-188 491,-118 491,-118"/>
</g>
<!-- NASALib/Sturm@sturm&#45;&gt;NASALib/Sturm@gcd_coeff -->
<g id="edge26" class="edge">
<title>NASALib/Sturm@sturm&#45;&gt;NASALib/Sturm@gcd_coeff</title>
<path fill="none" stroke="black" d="M407.35,-249.52C399.12,-246.03 392,-243 392,-243 392,-243 254,-207 254,-207 254,-207 250.52,-205.93 245.32,-204.32"/>
<polygon fill="black" stroke="black" points="246.49,-201.01 235.9,-201.41 244.42,-207.7 246.49,-201.01"/>
</g>
<!-- NASALib/Sturm@sturm&#45;&gt;NASALib/Sturm@number_sign_changes -->
<g id="edge27" class="edge">
<title>NASALib/Sturm@sturm&#45;&gt;NASALib/Sturm@number_sign_changes</title>
<path fill="none" stroke="black" d="M415.63,-245.5C405.55,-236.56 392.36,-224.87 380.68,-214.53"/>
<polygon fill="black" stroke="black" points="383.07,-211.97 373.26,-207.95 378.43,-217.21 383.07,-211.97"/>
</g>
<!-- NASALib/Sturm@sturm&#45;&gt;NASALib/Sturm@polynomial_division -->
<g id="edge28" class="edge">
<title>NASALib/Sturm@sturm&#45;&gt;NASALib/Sturm@polynomial_division</title>
<path fill="none" stroke="black" d="M438.44,-242.94C444.28,-227.45 452,-207 452,-207 452,-207 452,-171 452,-171 452,-171 343.5,-148.27 268.61,-132.58"/>
<polygon fill="black" stroke="black" points="269.35,-129.16 258.84,-130.54 267.91,-136.01 269.35,-129.16"/>
</g>
<!-- NASALib/Sturm@sturm&#45;&gt;NASALib/ints -->
<g id="edge29" class="edge">
<title>NASALib/Sturm@sturm&#45;&gt;NASALib/ints</title>
<path fill="none" stroke="black" d="M457.16,-249.82C505.14,-230.41 605,-190 605,-190"/>
</g>
<!-- NASALib/Sturm@sturm&#45;&gt;NASALib/reals -->
<g id="edge30" class="edge">
<title>NASALib/Sturm@sturm&#45;&gt;NASALib/reals</title>
<path fill="none" stroke="black" d="M450.7,-246.5C478.89,-226.16 529,-190 529,-190"/>
</g>
<!-- NASALib/Sturm@sturm&#45;&gt;NASALib/structures -->
<g id="edge31" class="edge">
<title>NASALib/Sturm@sturm&#45;&gt;NASALib/structures</title>
<path fill="none" stroke="black" d="M445.09,-244.46C462.48,-223.84 491,-190 491,-190"/>
</g>
<!-- NASALib/Sturm@sturmsquarefree -->
<g id="node12" class="node">
<title>NASALib/Sturm@sturmsquarefree</title>
<ellipse fill="#e6f3ff" stroke="black" cx="315" cy="-261" rx="67.69" ry="18"/>
<text text-anchor="middle" x="315" y="-257.3" font-family="Times,serif" font-size="14.00">sturmsquarefree</text>
</g>
<!-- NASALib/Sturm@sturmsquarefree&#45;&gt;NASALib/Sturm@gcd_coeff -->
<g id="edge32" class="edge">
<title>NASALib/Sturm@sturmsquarefree&#45;&gt;NASALib/Sturm@gcd_coeff</title>
<path fill="none" stroke="black" d="M288.68,-244.12C272.1,-234.11 250.53,-221.1 232.7,-210.34"/>
<polygon fill="black" stroke="black" points="234.91,-207.58 224.54,-205.41 231.29,-213.57 234.91,-207.58"/>
</g>
<!-- NASALib/Sturm@sturmsquarefree&#45;&gt;NASALib/Sturm@number_sign_changes -->
<g id="edge33" class="edge">
<title>NASALib/Sturm@sturmsquarefree&#45;&gt;NASALib/Sturm@number_sign_changes</title>
<path fill="none" stroke="black" d="M324.39,-242.7C328.58,-234.98 333.61,-225.71 338.28,-217.11"/>
<polygon fill="black" stroke="black" points="341.3,-218.89 342.99,-208.43 335.15,-215.55 341.3,-218.89"/>
</g>
<!-- NASALib/Sturm@sturmsquarefree&#45;&gt;NASALib/Sturm@polynomial_division -->
<g id="edge34" class="edge">
<title>NASALib/Sturm@sturmsquarefree&#45;&gt;NASALib/Sturm@polynomial_division</title>
<path fill="none" stroke="black" d="M272.29,-246.76C221.64,-231.06 144,-207 144,-207 144,-207 134,-190 134,-190"/>
</g>
<!-- NASALib/Sturm@sturmsquarefree&#45;&gt;NASALib/ints -->
<g id="edge35" class="edge">
<title>NASALib/Sturm@sturmsquarefree&#45;&gt;NASALib/ints</title>
<path fill="none" stroke="black" d="M605,-188C605,-188 605,-108.01 605,-63.71"/>
<polygon fill="black" stroke="black" points="608.5,-63.77 605,-53.77 601.5,-63.77 608.5,-63.77"/>
<path fill="none" stroke="black" d="M364.75,-248.43C431.84,-232.84 543,-207 543,-207 543,-207 605,-190 605,-190"/>
</g>
<!-- NASALib/Sturm@sturmsquarefree&#45;&gt;NASALib/reals -->
<g id="edge36" class="edge">
<title>NASALib/Sturm@sturmsquarefree&#45;&gt;NASALib/reals</title>
<path fill="none" stroke="black" d="M360.51,-247.31C416.72,-231.63 505,-207 505,-207 505,-207 529,-190 529,-190"/>
</g>
<!-- NASALib/Sturm@sturmsquarefree&#45;&gt;NASALib/structures -->
<g id="edge37" class="edge">
<title>NASALib/Sturm@sturmsquarefree&#45;&gt;NASALib/structures</title>
<path fill="none" stroke="black" d="M356.2,-246.35C403.61,-230.65 475,-207 475,-207 475,-207 491,-190 491,-190"/>
</g>
</g>
</svg>
