<?xml version="1.0" encoding="UTF-8" standalone="no"?>
<!DOCTYPE svg PUBLIC "-//W3C//DTD SVG 1.1//EN"
 "http://www.w3.org/Graphics/SVG/1.1/DTD/svg11.dtd">
<!-- Generated by graphviz version 8.0.4 (20230421.1958)
 -->
<!-- Title: Sturm&#45;zoomed Pages: 1 -->
<svg width="781pt" height="617pt"
 viewBox="0.00 0.00 781.00 617.00" xmlns="http://www.w3.org/2000/svg" xmlns:xlink="http://www.w3.org/1999/xlink">
<g id="graph0" class="graph" transform="scale(1 1) rotate(0) translate(4 613)">
<title>Sturm&#45;zoomed</title>
<polygon fill="white" stroke="none" points="-4,4 -4,-613 777,-613 777,4 -4,4"/>
<g id="clust1" class="cluster">
<title>cluster_NASALib</title>
<polygon fill="none" stroke="black" points="431,-8 431,-84.5 765,-84.5 765,-8 431,-8"/>
<text text-anchor="middle" x="598" y="-67.2" font-family="Times,serif" font-size="14.00">NASALib</text>
</g>
<g id="clust2" class="cluster">
<title>cluster_NASALib/Sturm</title>
<polygon fill="none" stroke="black" points="8,-92.5 8,-601 490,-601 490,-92.5 8,-92.5"/>
<text text-anchor="middle" x="249" y="-583.7" font-family="Times,serif" font-size="14.00">NASALib/Sturm</text>
</g>
<!-- NASALib/Sturm@clear_denominators -->
<g id="node1" class="node">
<title>NASALib/Sturm@clear_denominators</title>
<ellipse fill="#e6f3ff" stroke="black" cx="398" cy="-334.5" rx="84.11" ry="18"/>
<text text-anchor="middle" x="398" y="-329.45" font-family="Times,serif" font-size="14.00">clear_denominators</text>
</g>
<!-- NASALib/ints -->
<g id="node14" class="node">
<title>NASALib/ints</title>
<polygon fill="#fcfcd7" stroke="black" points="651,-52 597,-52 597,-16 651,-16 651,-52"/>
<text text-anchor="middle" x="624" y="-28.95" font-family="Times,serif" font-size="14.00">ints</text>
</g>
<!-- NASALib/Sturm@clear_denominators&#45;&gt;NASALib/ints -->
<g id="edge1" class="edge">
<title>NASALib/Sturm@clear_denominators&#45;&gt;NASALib/ints</title>
<path fill="none" stroke="black" d="M428.88,-317.41C493.7,-283.65 638,-208.5 638,-208.5 638,-208.5 638,-92.5 638,-92.5 638,-92.5 634.32,-77.41 630.74,-62.68"/>
<polygon fill="black" stroke="black" points="633.97,-62.14 628.2,-53.25 627.17,-63.8 633.97,-62.14"/>
</g>
<!-- NASALib/Sturm@compute_sturm -->
<g id="node2" class="node">
<title>NASALib/Sturm@compute_sturm</title>
<ellipse fill="#e6f3ff" stroke="black" cx="295" cy="-406.5" rx="69.26" ry="18"/>
<text text-anchor="middle" x="295" y="-401.45" font-family="Times,serif" font-size="14.00">compute_sturm</text>
</g>
<!-- NASALib/Sturm@compute_sturm&#45;&gt;NASALib/Sturm@clear_denominators -->
<g id="edge2" class="edge">
<title>NASALib/Sturm@compute_sturm&#45;&gt;NASALib/Sturm@clear_denominators</title>
<path fill="none" stroke="black" d="M318.89,-389.26C332.47,-380.03 349.69,-368.33 364.6,-358.2"/>
<polygon fill="black" stroke="black" points="366.22,-360.65 372.53,-352.13 362.29,-354.86 366.22,-360.65"/>
</g>
<!-- NASALib/Sturm@remainder_sequence -->
<g id="node9" class="node">
<title>NASALib/Sturm@remainder_sequence</title>
<ellipse fill="#e6f3ff" stroke="black" cx="158" cy="-334.5" rx="87.18" ry="18"/>
<text text-anchor="middle" x="158" y="-329.45" font-family="Times,serif" font-size="14.00">remainder_sequence</text>
</g>
<!-- NASALib/Sturm@compute_sturm&#45;&gt;NASALib/Sturm@remainder_sequence -->
<g id="edge3" class="edge">
<title>NASALib/Sturm@compute_sturm&#45;&gt;NASALib/Sturm@remainder_sequence</title>
<path fill="none" stroke="black" d="M264.6,-389.96C245.4,-380.16 220.36,-367.36 199.38,-356.64"/>
<polygon fill="black" stroke="black" points="201.25,-353.15 190.75,-351.72 198.06,-359.39 201.25,-353.15"/>
</g>
<!-- NASALib/Sturm@sturm -->
<g id="node11" class="node">
<title>NASALib/Sturm@sturm</title>
<ellipse fill="#e6f3ff" stroke="black" cx="450" cy="-262.5" rx="32.41" ry="18"/>
<text text-anchor="middle" x="450" y="-257.45" font-family="Times,serif" font-size="14.00">sturm</text>
</g>
<!-- NASALib/Sturm@compute_sturm&#45;&gt;NASALib/Sturm@sturm -->
<g id="edge4" class="edge">
<title>NASALib/Sturm@compute_sturm&#45;&gt;NASALib/Sturm@sturm</title>
<path fill="none" stroke="black" d="M296.93,-388.34C299.83,-362.48 305,-316.5 305,-316.5 305,-316.5 409,-280.5 409,-280.5 409,-280.5 411.31,-279.54 414.83,-278.08"/>
<polygon fill="black" stroke="black" points="415.84,-281.04 423.73,-273.98 413.16,-274.57 415.84,-281.04"/>
</g>
<!-- NASALib/reals -->
<g id="node15" class="node">
<title>NASALib/reals</title>
<polygon fill="#fcfcd7" stroke="black" points="579,-52 525,-52 525,-16 579,-16 579,-52"/>
<text text-anchor="middle" x="552" y="-28.95" font-family="Times,serif" font-size="14.00">reals</text>
</g>
<!-- NASALib/Sturm@compute_sturm&#45;&gt;NASALib/reals -->
<g id="edge5" class="edge">
<title>NASALib/Sturm@compute_sturm&#45;&gt;NASALib/reals</title>
<path fill="none" stroke="black" d="M341.45,-392.94C399.41,-377.27 491,-352.5 491,-352.5 491,-352.5 548,-191.5 548,-191.5"/>
</g>
<!-- NASALib/Sturm@gcd_coeff -->
<g id="node3" class="node">
<title>NASALib/Sturm@gcd_coeff</title>
<ellipse fill="#e6f3ff" stroke="black" cx="208" cy="-190.5" rx="47.77" ry="18"/>
<text text-anchor="middle" x="208" y="-185.45" font-family="Times,serif" font-size="14.00">gcd_coeff</text>
</g>
<!-- NASALib/Sturm@polynomial_division -->
<g id="node7" class="node">
<title>NASALib/Sturm@polynomial_division</title>
<ellipse fill="#e6f3ff" stroke="black" cx="208" cy="-118.5" rx="87.69" ry="18"/>
<text text-anchor="middle" x="208" y="-113.45" font-family="Times,serif" font-size="14.00">polynomial_division</text>
</g>
<!-- NASALib/Sturm@gcd_coeff&#45;&gt;NASALib/Sturm@polynomial_division -->
<g id="edge6" class="edge">
<title>NASALib/Sturm@gcd_coeff&#45;&gt;NASALib/Sturm@polynomial_division</title>
<path fill="none" stroke="black" d="M208,-172.2C208,-164.74 208,-155.82 208,-147.47"/>
<polygon fill="black" stroke="black" points="211.5,-147.6 208,-137.6 204.5,-147.6 211.5,-147.6"/>
</g>
<!-- NASALib/Sturm@gcd_coeff&#45;&gt;NASALib/ints -->
<g id="edge7" class="edge">
<title>NASALib/Sturm@gcd_coeff&#45;&gt;NASALib/ints</title>
<path fill="none" stroke="black" d="M244.74,-178.54C255.77,-175.25 265,-172.5 265,-172.5 265,-172.5 524,-136.5 524,-136.5 524,-136.5 588,-84.5 588,-84.5 588,-84.5 596.44,-72.9 605.14,-60.93"/>
<polygon fill="black" stroke="black" points="608.36,-63.46 611.41,-53.31 602.7,-59.34 608.36,-63.46"/>
</g>
<!-- NASALib/Sturm@gcd_coeff&#45;&gt;NASALib/reals -->
<g id="edge8" class="edge">
<title>NASALib/Sturm@gcd_coeff&#45;&gt;NASALib/reals</title>
<path fill="none" stroke="black" d="M472,-117.5C472,-117.5 516,-84.5 516,-84.5 516,-84.5 524.44,-72.9 533.14,-60.93"/>
<polygon fill="black" stroke="black" points="536.36,-63.46 539.41,-53.31 530.7,-59.34 536.36,-63.46"/>
<path fill="none" stroke="black" d="M244.74,-178.54C255.77,-175.25 265,-172.5 265,-172.5 265,-172.5 448,-136.5 448,-136.5 448,-136.5 472,-119.5 472,-119.5"/>
</g>
<!-- NASALib/structures -->
<g id="node16" class="node">
<title>NASALib/structures</title>
<polygon fill="#fcfcd7" stroke="black" points="507.25,-52 438.75,-52 438.75,-16 507.25,-16 507.25,-52"/>
<text text-anchor="middle" x="473" y="-28.95" font-family="Times,serif" font-size="14.00">structures</text>
</g>
<!-- NASALib/Sturm@gcd_coeff&#45;&gt;NASALib/structures -->
<g id="edge9" class="edge">
<title>NASALib/Sturm@gcd_coeff&#45;&gt;NASALib/structures</title>
<path fill="none" stroke="black" d="M244.06,-178.33C307.87,-158.57 434,-119.5 434,-119.5"/>
<path fill="none" stroke="black" d="M434,-117.5C434,-117.5 448.76,-86.27 460.12,-62.24"/>
<polygon fill="black" stroke="black" points="463.62,-64.03 464.73,-53.5 457.29,-61.04 463.62,-64.03"/>
</g>
<!-- NASALib/Sturm@number_sign_changes -->
<g id="node4" class="node">
<title>NASALib/Sturm@number_sign_changes</title>
<ellipse fill="#e6f3ff" stroke="black" cx="368" cy="-190.5" rx="93.83" ry="18"/>
<text text-anchor="middle" x="368" y="-185.45" font-family="Times,serif" font-size="14.00">number_sign_changes</text>
</g>
<!-- NASALib/Sturm@number_sign_changes&#45;&gt;NASALib/reals -->
<g id="edge10" class="edge">
<title>NASALib/Sturm@number_sign_changes&#45;&gt;NASALib/reals</title>
<path fill="none" stroke="black" d="M393.31,-172.73C416.75,-157.2 448,-136.5 448,-136.5 448,-136.5 472,-119.5 472,-119.5"/>
</g>
<!-- NASALib/Sturm@poly_strategy -->
<g id="node5" class="node">
<title>NASALib/Sturm@poly_strategy</title>
<ellipse fill="#e6f3ff" stroke="black" cx="421" cy="-478.5" rx="61.08" ry="18"/>
<text text-anchor="middle" x="421" y="-473.45" font-family="Times,serif" font-size="14.00">poly_strategy</text>
</g>
<!-- NASALib/Sturm@poly_strategy&#45;&gt;NASALib/Sturm@compute_sturm -->
<g id="edge11" class="edge">
<title>NASALib/Sturm@poly_strategy&#45;&gt;NASALib/Sturm@compute_sturm</title>
<path fill="none" stroke="black" d="M393.35,-462.14C375.62,-452.29 352.38,-439.38 332.94,-428.58"/>
<polygon fill="black" stroke="black" points="334.9,-425.11 324.46,-423.31 331.5,-431.23 334.9,-425.11"/>
</g>
<!-- NASALib/Sturm@polylist -->
<g id="node6" class="node">
<title>NASALib/Sturm@polylist</title>
<ellipse fill="#e6f3ff" stroke="black" cx="421" cy="-406.5" rx="38.56" ry="18"/>
<text text-anchor="middle" x="421" y="-401.45" font-family="Times,serif" font-size="14.00">polylist</text>
</g>
<!-- NASALib/Sturm@poly_strategy&#45;&gt;NASALib/Sturm@polylist -->
<g id="edge12" class="edge">
<title>NASALib/Sturm@poly_strategy&#45;&gt;NASALib/Sturm@polylist</title>
<path fill="none" stroke="black" d="M421,-460.2C421,-452.74 421,-443.82 421,-435.47"/>
<polygon fill="black" stroke="black" points="424.5,-435.6 421,-425.6 417.5,-435.6 424.5,-435.6"/>
</g>
<!-- NASALib/Sturm@polylist&#45;&gt;NASALib/reals -->
<g id="edge13" class="edge">
<title>NASALib/Sturm@polylist&#45;&gt;NASALib/reals</title>
<path fill="none" stroke="black" d="M586,-189.5C586,-189.5 568,-107.69 558.19,-63.13"/>
<polygon fill="black" stroke="black" points="561.4,-62.44 555.83,-53.42 554.57,-63.94 561.4,-62.44"/>
</g>
<!-- NASALib/Sturm@polylist&#45;&gt;NASALib/structures -->
<g id="edge14" class="edge">
<title>NASALib/Sturm@polylist&#45;&gt;NASALib/structures</title>
<path fill="none" stroke="black" d="M510,-117.5C510,-117.5 496,-86.27 485.22,-62.24"/>
<polygon fill="black" stroke="black" points="488.13,-61.19 480.85,-53.5 481.75,-64.05 488.13,-61.19"/>
<path fill="none" stroke="black" d="M586,-189.5C586,-189.5 510,-119.5 510,-119.5"/>
<path fill="none" stroke="black" d="M450.22,-394.52C491.52,-378.99 562,-352.5 562,-352.5 562,-352.5 586,-191.5 586,-191.5"/>
</g>
<!-- NASALib/Sturm@polynomial_division&#45;&gt;NASALib/reals -->
<g id="edge15" class="edge">
<title>NASALib/Sturm@polynomial_division&#45;&gt;NASALib/reals</title>
<path fill="none" stroke="black" d="M284.13,-109.34C375.34,-99.57 516,-84.5 516,-84.5 516,-84.5 524.44,-72.9 533.14,-60.93"/>
<polygon fill="black" stroke="black" points="536.36,-63.46 539.41,-53.31 530.7,-59.34 536.36,-63.46"/>
</g>
<!-- NASALib/Sturm@polynomial_division&#45;&gt;NASALib/structures -->
<g id="edge16" class="edge">
<title>NASALib/Sturm@polynomial_division&#45;&gt;NASALib/structures</title>
<path fill="none" stroke="black" d="M254.77,-102.94C303.67,-87.72 379.87,-63.99 428.07,-48.99"/>
<polygon fill="black" stroke="black" points="429,-52.05 437.51,-45.74 426.92,-45.37 429,-52.05"/>
</g>
<!-- NASALib/Sturm@polynomial_pseudo_divide -->
<g id="node8" class="node">
<title>NASALib/Sturm@polynomial_pseudo_divide</title>
<ellipse fill="#e6f3ff" stroke="black" cx="128" cy="-262.5" rx="111.74" ry="18"/>
<text text-anchor="middle" x="128" y="-257.45" font-family="Times,serif" font-size="14.00">polynomial_pseudo_divide</text>
</g>
<!-- NASALib/Sturm@polynomial_pseudo_divide&#45;&gt;NASALib/Sturm@gcd_coeff -->
<g id="edge17" class="edge">
<title>NASALib/Sturm@polynomial_pseudo_divide&#45;&gt;NASALib/Sturm@gcd_coeff</title>
<path fill="none" stroke="black" d="M147.37,-244.55C157.61,-235.59 170.34,-224.45 181.49,-214.7"/>
<polygon fill="black" stroke="black" points="183.42,-216.79 188.64,-207.57 178.81,-211.52 183.42,-216.79"/>
</g>
<!-- NASALib/Sturm@polynomial_pseudo_divide&#45;&gt;NASALib/Sturm@polynomial_division -->
<g id="edge18" class="edge">
<title>NASALib/Sturm@polynomial_pseudo_divide&#45;&gt;NASALib/Sturm@polynomial_division</title>
<path fill="none" stroke="black" d="M141,-189.5C141,-189.5 151,-172.5 151,-172.5 151,-172.5 166.94,-157.67 181.97,-143.7"/>
<polygon fill="black" stroke="black" points="183.71,-146.93 188.65,-137.56 178.94,-141.81 183.71,-146.93"/>
<path fill="none" stroke="black" d="M131.21,-244.2C135.06,-223.47 141,-191.5 141,-191.5"/>
</g>
<!-- NASALib/Sturm@polynomial_pseudo_divide&#45;&gt;NASALib/reals -->
<g id="edge19" class="edge">
<title>NASALib/Sturm@polynomial_pseudo_divide&#45;&gt;NASALib/reals</title>
<path fill="none" stroke="black" d="M548,-189.5C548,-189.5 472,-119.5 472,-119.5"/>
<path fill="none" stroke="black" d="M210.05,-249.97C231.63,-246.94 249,-244.5 249,-244.5 249,-244.5 524,-208.5 524,-208.5 524,-208.5 548,-191.5 548,-191.5"/>
</g>
<!-- NASALib/Sturm@polynomial_pseudo_divide&#45;&gt;NASALib/structures -->
<g id="edge20" class="edge">
<title>NASALib/Sturm@polynomial_pseudo_divide&#45;&gt;NASALib/structures</title>
<path fill="none" stroke="black" d="M510,-189.5C510,-189.5 494,-172.5 494,-172.5 494,-172.5 434,-119.5 434,-119.5"/>
<path fill="none" stroke="black" d="M209.23,-249.74C317.05,-234.12 494,-208.5 494,-208.5 494,-208.5 510,-191.5 510,-191.5"/>
</g>
<!-- NASALib/Sturm@remainder_sequence&#45;&gt;NASALib/Sturm@polynomial_pseudo_divide -->
<g id="edge21" class="edge">
<title>NASALib/Sturm@remainder_sequence&#45;&gt;NASALib/Sturm@polynomial_pseudo_divide</title>
<path fill="none" stroke="black" d="M150.58,-316.2C147.28,-308.48 143.31,-299.21 139.62,-290.61"/>
<polygon fill="black" stroke="black" points="142.49,-289.42 135.33,-281.6 136.05,-292.17 142.49,-289.42"/>
</g>
<!-- NASALib/Sturm@strategies -->
<g id="node10" class="node">
<title>NASALib/Sturm@strategies</title>
<ellipse fill="#e6f3ff" stroke="black" cx="421" cy="-550.5" rx="45.72" ry="18"/>
<text text-anchor="middle" x="421" y="-545.45" font-family="Times,serif" font-size="14.00">strategies</text>
</g>
<!-- NASALib/Sturm@strategies&#45;&gt;NASALib/Sturm@poly_strategy -->
<g id="edge22" class="edge">
<title>NASALib/Sturm@strategies&#45;&gt;NASALib/Sturm@poly_strategy</title>
<path fill="none" stroke="black" d="M421,-532.2C421,-524.74 421,-515.82 421,-507.47"/>
<polygon fill="black" stroke="black" points="424.5,-507.6 421,-497.6 417.5,-507.6 424.5,-507.6"/>
</g>
<!-- NASALib/interval_arith -->
<g id="node13" class="node">
<title>NASALib/interval_arith</title>
<polygon fill="#fcfcd7" stroke="black" points="757.38,-52 668.62,-52 668.62,-16 757.38,-16 757.38,-52"/>
<text text-anchor="middle" x="713" y="-28.95" font-family="Times,serif" font-size="14.00">interval_arith</text>
</g>
<!-- NASALib/Sturm@strategies&#45;&gt;NASALib/interval_arith -->
<g id="edge23" class="edge">
<title>NASALib/Sturm@strategies&#45;&gt;NASALib/interval_arith</title>
<path fill="none" stroke="black" d="M700,-189.5C700,-189.5 706.88,-107.69 710.63,-63.13"/>
<polygon fill="black" stroke="black" points="714.18,-63.68 711.53,-53.42 707.21,-63.09 714.18,-63.68"/>
</g>
<!-- NASALib/Sturm@strategies&#45;&gt;NASALib/reals -->
<g id="edge24" class="edge">
<title>NASALib/Sturm@strategies&#45;&gt;NASALib/reals</title>
<path fill="none" stroke="black" d="M700,-189.5C700,-189.5 588,-84.5 588,-84.5 588,-84.5 579.56,-72.9 570.86,-60.93"/>
<polygon fill="black" stroke="black" points="573.3,-59.34 564.59,-53.31 567.64,-63.46 573.3,-59.34"/>
</g>
<!-- NASALib/Sturm@strategies&#45;&gt;NASALib/structures -->
<g id="edge25" class="edge">
<title>NASALib/Sturm@strategies&#45;&gt;NASALib/structures</title>
<path fill="none" stroke="black" d="M448.26,-535.63C518.46,-499.9 700,-407.5 700,-407.5 700,-407.5 700,-407.5 700,-333.5 700,-333.5 700,-191.5 700,-191.5"/>
<path fill="none" stroke="black" d="M700,-189.5C700,-189.5 510,-119.5 510,-119.5"/>
</g>
<!-- NASALib/Sturm@sturm&#45;&gt;NASALib/Sturm@gcd_coeff -->
<g id="edge26" class="edge">
<title>NASALib/Sturm@sturm&#45;&gt;NASALib/Sturm@gcd_coeff</title>
<path fill="none" stroke="black" d="M424.73,-251.02C416.3,-247.53 409,-244.5 409,-244.5 409,-244.5 265,-208.5 265,-208.5 265,-208.5 261.03,-207.31 255.18,-205.57"/>
<polygon fill="black" stroke="black" points="256.33,-201.96 245.74,-202.46 254.33,-208.67 256.33,-201.96"/>
</g>
<!-- NASALib/Sturm@sturm&#45;&gt;NASALib/Sturm@number_sign_changes -->
<g id="edge27" class="edge">
<title>NASALib/Sturm@sturm&#45;&gt;NASALib/Sturm@number_sign_changes</title>
<path fill="none" stroke="black" d="M433.01,-247C422.34,-237.89 408.31,-225.91 396.02,-215.42"/>
<polygon fill="black" stroke="black" points="398.73,-212.28 388.86,-208.45 394.19,-217.61 398.73,-212.28"/>
</g>
<!-- NASALib/Sturm@sturm&#45;&gt;NASALib/Sturm@polynomial_division -->
<g id="edge28" class="edge">
<title>NASALib/Sturm@sturm&#45;&gt;NASALib/Sturm@polynomial_division</title>
<path fill="none" stroke="black" d="M456.76,-244.44C462.9,-228.95 471,-208.5 471,-208.5 471,-208.5 471,-172.5 471,-172.5 471,-172.5 357.61,-149.65 279.74,-133.96"/>
<polygon fill="black" stroke="black" points="280.49,-130.34 270,-131.79 279.11,-137.2 280.49,-130.34"/>
</g>
<!-- NASALib/Sturm@sturm&#45;&gt;NASALib/ints -->
<g id="edge29" class="edge">
<title>NASALib/Sturm@sturm&#45;&gt;NASALib/ints</title>
<path fill="none" stroke="black" d="M475.67,-251.17C524.08,-231.7 624,-191.5 624,-191.5"/>
</g>
<!-- NASALib/Sturm@sturm&#45;&gt;NASALib/reals -->
<g id="edge30" class="edge">
<title>NASALib/Sturm@sturm&#45;&gt;NASALib/reals</title>
<path fill="none" stroke="black" d="M469.36,-247.67C497.92,-227.27 548,-191.5 548,-191.5"/>
</g>
<!-- NASALib/Sturm@sturm&#45;&gt;NASALib/structures -->
<g id="edge31" class="edge">
<title>NASALib/Sturm@sturm&#45;&gt;NASALib/structures</title>
<path fill="none" stroke="black" d="M463.32,-245.96C480.99,-225.34 510,-191.5 510,-191.5"/>
</g>
<!-- NASALib/Sturm@sturmsquarefree -->
<g id="node12" class="node">
<title>NASALib/Sturm@sturmsquarefree</title>
<ellipse fill="#e6f3ff" stroke="black" cx="329" cy="-262.5" rx="70.8" ry="18"/>
<text text-anchor="middle" x="329" y="-257.45" font-family="Times,serif" font-size="14.00">sturmsquarefree</text>
</g>
<!-- NASALib/Sturm@sturmsquarefree&#45;&gt;NASALib/Sturm@gcd_coeff -->
<g id="edge32" class="edge">
<title>NASALib/Sturm@sturmsquarefree&#45;&gt;NASALib/Sturm@gcd_coeff</title>
<path fill="none" stroke="black" d="M301.54,-245.62C284.09,-235.52 261.34,-222.36 242.64,-211.54"/>
<polygon fill="black" stroke="black" points="244.69,-208.11 234.28,-206.13 241.19,-214.16 244.69,-208.11"/>
</g>
<!-- NASALib/Sturm@sturmsquarefree&#45;&gt;NASALib/Sturm@number_sign_changes -->
<g id="edge33" class="edge">
<title>NASALib/Sturm@sturmsquarefree&#45;&gt;NASALib/Sturm@number_sign_changes</title>
<path fill="none" stroke="black" d="M338.64,-244.2C343.03,-236.31 348.33,-226.8 353.21,-218.05"/>
<polygon fill="black" stroke="black" points="356.66,-220.04 358.47,-209.6 350.55,-216.64 356.66,-220.04"/>
</g>
<!-- NASALib/Sturm@sturmsquarefree&#45;&gt;NASALib/Sturm@polynomial_division -->
<g id="edge34" class="edge">
<title>NASALib/Sturm@sturmsquarefree&#45;&gt;NASALib/Sturm@polynomial_division</title>
<path fill="none" stroke="black" d="M284.54,-248.26C231.82,-232.56 151,-208.5 151,-208.5 151,-208.5 141,-191.5 141,-191.5"/>
</g>
<!-- NASALib/Sturm@sturmsquarefree&#45;&gt;NASALib/ints -->
<g id="edge35" class="edge">
<title>NASALib/Sturm@sturmsquarefree&#45;&gt;NASALib/ints</title>
<path fill="none" stroke="black" d="M624,-189.5C624,-189.5 624,-108.04 624,-63.42"/>
<polygon fill="black" stroke="black" points="627.5,-63.42 624,-53.42 620.5,-63.42 627.5,-63.42"/>
<path fill="none" stroke="black" d="M380.42,-249.8C449.04,-234.2 562,-208.5 562,-208.5 562,-208.5 624,-191.5 624,-191.5"/>
</g>
<!-- NASALib/Sturm@sturmsquarefree&#45;&gt;NASALib/reals -->
<g id="edge36" class="edge">
<title>NASALib/Sturm@sturmsquarefree&#45;&gt;NASALib/reals</title>
<path fill="none" stroke="black" d="M376.2,-248.67C433.91,-232.98 524,-208.5 524,-208.5 524,-208.5 548,-191.5 548,-191.5"/>
</g>
<!-- NASALib/Sturm@sturmsquarefree&#45;&gt;NASALib/structures -->
<g id="edge37" class="edge">
<title>NASALib/Sturm@sturmsquarefree&#45;&gt;NASALib/structures</title>
<path fill="none" stroke="black" d="M371.49,-247.85C420.38,-232.15 494,-208.5 494,-208.5 494,-208.5 510,-191.5 510,-191.5"/>
</g>
</g>
</svg>
