<?xml version="1.0" encoding="UTF-8" standalone="no"?>
<!DOCTYPE svg PUBLIC "-//W3C//DTD SVG 1.1//EN"
 "http://www.w3.org/Graphics/SVG/1.1/DTD/svg11.dtd">
<!-- Generated by graphviz version 2.40.1 (20161225.0304)
 -->
<!-- Title: Sturm Pages: 1 -->
<svg width="299pt" height="530pt"
 viewBox="0.00 0.00 299.00 530.00" xmlns="http://www.w3.org/2000/svg" xmlns:xlink="http://www.w3.org/1999/xlink">
<g id="graph0" class="graph" transform="scale(1 1) rotate(0) translate(4 526)">
<title>Sturm</title>
<polygon fill="#ffffff" stroke="transparent" points="-4,4 -4,-526 295,-526 295,4 -4,4"/>
<g id="clust1" class="cluster">
<title>cluster_NASALib</title>
<polygon fill="none" stroke="#000000" points="8,-8 8,-514 283,-514 283,-8 8,-8"/>
<text text-anchor="middle" x="145.5" y="-498.8" font-family="Times,serif" font-size="14.00" fill="#000000">NASALib</text>
</g>
<!-- /Users/mmoscato/Workspace/Workbench/pvs/dependency&#45;all/Users/mmoscato/pvs/pvs/nasalib/Sturm -->
<g id="node1" class="node">
<title>/Users/mmoscato/Workspace/Workbench/pvs/dependency&#45;all/Users/mmoscato/pvs/pvs/nasalib/Sturm</title>
<polygon fill="#f7e28d" stroke="#000000" points="215,-340 161,-340 161,-304 215,-304 215,-340"/>
<text text-anchor="middle" x="188" y="-317.8" font-family="Times,serif" font-size="14.00" fill="#000000">Sturm</text>
</g>
<!-- /Users/mmoscato/Workspace/Workbench/pvs/dependency&#45;all/Users/mmoscato/pvs/pvs/nasalib/interval_arith -->
<g id="node5" class="node">
<title>/Users/mmoscato/Workspace/Workbench/pvs/dependency&#45;all/Users/mmoscato/pvs/pvs/nasalib/interval_arith</title>
<polygon fill="#fcfcd7" stroke="#000000" points="167.915,-268 76.085,-268 76.085,-232 167.915,-232 167.915,-268"/>
<text text-anchor="middle" x="122" y="-245.8" font-family="Times,serif" font-size="14.00" fill="#000000">interval_arith</text>
</g>
<!-- /Users/mmoscato/Workspace/Workbench/pvs/dependency&#45;all/Users/mmoscato/pvs/pvs/nasalib/Sturm&#45;&gt;/Users/mmoscato/Workspace/Workbench/pvs/dependency&#45;all/Users/mmoscato/pvs/pvs/nasalib/interval_arith -->
<g id="edge1" class="edge">
<title>/Users/mmoscato/Workspace/Workbench/pvs/dependency&#45;all/Users/mmoscato/pvs/pvs/nasalib/Sturm&#45;&gt;/Users/mmoscato/Workspace/Workbench/pvs/dependency&#45;all/Users/mmoscato/pvs/pvs/nasalib/interval_arith</title>
<path fill="none" stroke="#000000" d="M170.7803,-303.8314C170.7803,-282.502 170.7803,-250 170.7803,-250 170.7803,-250 170.4897,-250 170.4897,-250"/>
<polygon fill="#000000" stroke="#000000" points="177.8751,-246.5004 167.8749,-250 177.8748,-253.5004 177.8751,-246.5004"/>
</g>
<!-- /Users/mmoscato/Workspace/Workbench/pvs/dependency&#45;all/Users/mmoscato/pvs/pvs/nasalib/ints -->
<g id="node6" class="node">
<title>/Users/mmoscato/Workspace/Workbench/pvs/dependency&#45;all/Users/mmoscato/pvs/pvs/nasalib/ints</title>
<polygon fill="#fcfcd7" stroke="#000000" points="196,-52 142,-52 142,-16 196,-16 196,-52"/>
<text text-anchor="middle" x="169" y="-29.8" font-family="Times,serif" font-size="14.00" fill="#000000">ints</text>
</g>
<!-- /Users/mmoscato/Workspace/Workbench/pvs/dependency&#45;all/Users/mmoscato/pvs/pvs/nasalib/Sturm&#45;&gt;/Users/mmoscato/Workspace/Workbench/pvs/dependency&#45;all/Users/mmoscato/pvs/pvs/nasalib/ints -->
<g id="edge2" class="edge">
<title>/Users/mmoscato/Workspace/Workbench/pvs/dependency&#45;all/Users/mmoscato/pvs/pvs/nasalib/Sturm&#45;&gt;/Users/mmoscato/Workspace/Workbench/pvs/dependency&#45;all/Users/mmoscato/pvs/pvs/nasalib/ints</title>
<path fill="none" stroke="#000000" d="M215.0153,-322C227.2586,-322 239.0415,-322 239.0415,-322 239.0415,-322 239.0415,-34 239.0415,-34 239.0415,-34 206.2804,-34 206.2804,-34"/>
<polygon fill="#000000" stroke="#000000" points="206.2805,-30.5001 196.2804,-34 206.2804,-37.5001 206.2805,-30.5001"/>
</g>
<!-- /Users/mmoscato/Workspace/Workbench/pvs/dependency&#45;all/Users/mmoscato/pvs/pvs/nasalib/reals -->
<g id="node7" class="node">
<title>/Users/mmoscato/Workspace/Workbench/pvs/dependency&#45;all/Users/mmoscato/pvs/pvs/nasalib/reals</title>
<polygon fill="#fcfcd7" stroke="#000000" points="234,-196 180,-196 180,-160 234,-160 234,-196"/>
<text text-anchor="middle" x="207" y="-173.8" font-family="Times,serif" font-size="14.00" fill="#000000">reals</text>
</g>
<!-- /Users/mmoscato/Workspace/Workbench/pvs/dependency&#45;all/Users/mmoscato/pvs/pvs/nasalib/Sturm&#45;&gt;/Users/mmoscato/Workspace/Workbench/pvs/dependency&#45;all/Users/mmoscato/pvs/pvs/nasalib/reals -->
<g id="edge3" class="edge">
<title>/Users/mmoscato/Workspace/Workbench/pvs/dependency&#45;all/Users/mmoscato/pvs/pvs/nasalib/Sturm&#45;&gt;/Users/mmoscato/Workspace/Workbench/pvs/dependency&#45;all/Users/mmoscato/pvs/pvs/nasalib/reals</title>
<path fill="none" stroke="#000000" d="M203.3333,-303.7623C203.3333,-303.7623 203.3333,-206.0896 203.3333,-206.0896"/>
<polygon fill="#000000" stroke="#000000" points="206.8334,-206.0896 203.3333,-196.0896 199.8334,-206.0897 206.8334,-206.0896"/>
</g>
<!-- /Users/mmoscato/Workspace/Workbench/pvs/dependency&#45;all/Users/mmoscato/pvs/pvs/nasalib/structures -->
<g id="node8" class="node">
<title>/Users/mmoscato/Workspace/Workbench/pvs/dependency&#45;all/Users/mmoscato/pvs/pvs/nasalib/structures</title>
<polygon fill="#fcfcd7" stroke="#000000" points="204.429,-124 133.571,-124 133.571,-88 204.429,-88 204.429,-124"/>
<text text-anchor="middle" x="169" y="-101.8" font-family="Times,serif" font-size="14.00" fill="#000000">structures</text>
</g>
<!-- /Users/mmoscato/Workspace/Workbench/pvs/dependency&#45;all/Users/mmoscato/pvs/pvs/nasalib/Sturm&#45;&gt;/Users/mmoscato/Workspace/Workbench/pvs/dependency&#45;all/Users/mmoscato/pvs/pvs/nasalib/structures -->
<g id="edge4" class="edge">
<title>/Users/mmoscato/Workspace/Workbench/pvs/dependency&#45;all/Users/mmoscato/pvs/pvs/nasalib/Sturm&#45;&gt;/Users/mmoscato/Workspace/Workbench/pvs/dependency&#45;all/Users/mmoscato/pvs/pvs/nasalib/structures</title>
<path fill="none" stroke="#000000" d="M176.9268,-303.9555C176.9268,-303.9555 176.9268,-134.1451 176.9268,-134.1451"/>
<polygon fill="#000000" stroke="#000000" points="180.4269,-134.145 176.9268,-124.1451 173.4269,-134.1451 180.4269,-134.145"/>
</g>
<!-- /Users/mmoscato/Workspace/Workbench/pvs/dependency&#45;all/Users/mmoscato/pvs/pvs/nasalib/Tarski -->
<g id="node2" class="node">
<title>/Users/mmoscato/Workspace/Workbench/pvs/dependency&#45;all/Users/mmoscato/pvs/pvs/nasalib/Tarski</title>
<polygon fill="#fcfcd7" stroke="#000000" points="100,-412 46,-412 46,-376 100,-376 100,-412"/>
<text text-anchor="middle" x="73" y="-389.8" font-family="Times,serif" font-size="14.00" fill="#000000">Tarski</text>
</g>
<!-- /Users/mmoscato/Workspace/Workbench/pvs/dependency&#45;all/Users/mmoscato/pvs/pvs/nasalib/Tarski&#45;&gt;/Users/mmoscato/Workspace/Workbench/pvs/dependency&#45;all/Users/mmoscato/pvs/pvs/nasalib/Sturm -->
<g id="edge5" class="edge">
<title>/Users/mmoscato/Workspace/Workbench/pvs/dependency&#45;all/Users/mmoscato/pvs/pvs/nasalib/Tarski&#45;&gt;/Users/mmoscato/Workspace/Workbench/pvs/dependency&#45;all/Users/mmoscato/pvs/pvs/nasalib/Sturm</title>
<path fill="none" stroke="#000000" d="M92.0977,-375.9092C92.0977,-352.8672 92.0977,-316 92.0977,-316 92.0977,-316 150.7748,-316 150.7748,-316"/>
<polygon fill="#000000" stroke="#000000" points="150.7748,-319.5001 160.7748,-316 150.7747,-312.5001 150.7748,-319.5001"/>
</g>
<!-- /Users/mmoscato/Workspace/Workbench/pvs/dependency&#45;all/Users/mmoscato/pvs/pvs/nasalib/Tarski&#45;&gt;/Users/mmoscato/Workspace/Workbench/pvs/dependency&#45;all/Users/mmoscato/pvs/pvs/nasalib/interval_arith -->
<g id="edge6" class="edge">
<title>/Users/mmoscato/Workspace/Workbench/pvs/dependency&#45;all/Users/mmoscato/pvs/pvs/nasalib/Tarski&#45;&gt;/Users/mmoscato/Workspace/Workbench/pvs/dependency&#45;all/Users/mmoscato/pvs/pvs/nasalib/interval_arith</title>
<path fill="none" stroke="#000000" d="M84.1953,-375.7623C84.1953,-375.7623 84.1953,-278.0896 84.1953,-278.0896"/>
<polygon fill="#000000" stroke="#000000" points="87.6954,-278.0896 84.1953,-268.0896 80.6954,-278.0897 87.6954,-278.0896"/>
</g>
<!-- /Users/mmoscato/Workspace/Workbench/pvs/dependency&#45;all/Users/mmoscato/pvs/pvs/nasalib/Tarski&#45;&gt;/Users/mmoscato/Workspace/Workbench/pvs/dependency&#45;all/Users/mmoscato/pvs/pvs/nasalib/ints -->
<g id="edge7" class="edge">
<title>/Users/mmoscato/Workspace/Workbench/pvs/dependency&#45;all/Users/mmoscato/pvs/pvs/nasalib/Tarski&#45;&gt;/Users/mmoscato/Workspace/Workbench/pvs/dependency&#45;all/Users/mmoscato/pvs/pvs/nasalib/ints</title>
<path fill="none" stroke="#000000" d="M53.5732,-375.6526C53.5732,-302.2916 53.5732,-34 53.5732,-34 53.5732,-34 131.9376,-34 131.9376,-34"/>
<polygon fill="#000000" stroke="#000000" points="131.9376,-37.5001 141.9376,-34 131.9375,-30.5001 131.9376,-37.5001"/>
</g>
<!-- /Users/mmoscato/Workspace/Workbench/pvs/dependency&#45;all/Users/mmoscato/pvs/pvs/nasalib/Tarski&#45;&gt;/Users/mmoscato/Workspace/Workbench/pvs/dependency&#45;all/Users/mmoscato/pvs/pvs/nasalib/reals -->
<g id="edge8" class="edge">
<title>/Users/mmoscato/Workspace/Workbench/pvs/dependency&#45;all/Users/mmoscato/pvs/pvs/nasalib/Tarski&#45;&gt;/Users/mmoscato/Workspace/Workbench/pvs/dependency&#45;all/Users/mmoscato/pvs/pvs/nasalib/reals</title>
<path fill="none" stroke="#000000" d="M68.7197,-375.8328C68.7197,-322.8127 68.7197,-172 68.7197,-172 68.7197,-172 169.6803,-172 169.6803,-172"/>
<polygon fill="#000000" stroke="#000000" points="169.6803,-175.5001 179.6803,-172 169.6802,-168.5001 169.6803,-175.5001"/>
</g>
<!-- /Users/mmoscato/Workspace/Workbench/pvs/dependency&#45;all/Users/mmoscato/pvs/pvs/nasalib/Tarski&#45;&gt;/Users/mmoscato/Workspace/Workbench/pvs/dependency&#45;all/Users/mmoscato/pvs/pvs/nasalib/structures -->
<g id="edge9" class="edge">
<title>/Users/mmoscato/Workspace/Workbench/pvs/dependency&#45;all/Users/mmoscato/pvs/pvs/nasalib/Tarski&#45;&gt;/Users/mmoscato/Workspace/Workbench/pvs/dependency&#45;all/Users/mmoscato/pvs/pvs/nasalib/structures</title>
<path fill="none" stroke="#000000" d="M61.1465,-375.9843C61.1465,-312.9341 61.1465,-106 61.1465,-106 61.1465,-106 123.6847,-106 123.6847,-106"/>
<polygon fill="#000000" stroke="#000000" points="123.6848,-109.5001 133.6847,-106 123.6847,-102.5001 123.6848,-109.5001"/>
</g>
<!-- /Users/mmoscato/Workspace/Workbench/pvs/dependency&#45;all/Users/mmoscato/pvs/pvs/nasalib/exact_real_arith -->
<g id="node3" class="node">
<title>/Users/mmoscato/Workspace/Workbench/pvs/dependency&#45;all/Users/mmoscato/pvs/pvs/nasalib/exact_real_arith</title>
<polygon fill="#fcfcd7" stroke="#000000" points="244.1661,-412 137.8339,-412 137.8339,-376 244.1661,-376 244.1661,-412"/>
<text text-anchor="middle" x="191" y="-389.8" font-family="Times,serif" font-size="14.00" fill="#000000">exact_real_arith</text>
</g>
<!-- /Users/mmoscato/Workspace/Workbench/pvs/dependency&#45;all/Users/mmoscato/pvs/pvs/nasalib/exact_real_arith&#45;&gt;/Users/mmoscato/Workspace/Workbench/pvs/dependency&#45;all/Users/mmoscato/pvs/pvs/nasalib/Sturm -->
<g id="edge10" class="edge">
<title>/Users/mmoscato/Workspace/Workbench/pvs/dependency&#45;all/Users/mmoscato/pvs/pvs/nasalib/exact_real_arith&#45;&gt;/Users/mmoscato/Workspace/Workbench/pvs/dependency&#45;all/Users/mmoscato/pvs/pvs/nasalib/Sturm</title>
<path fill="none" stroke="#000000" d="M188,-375.8314C188,-375.8314 188,-350.4133 188,-350.4133"/>
<polygon fill="#000000" stroke="#000000" points="191.5001,-350.4132 188,-340.4133 184.5001,-350.4133 191.5001,-350.4132"/>
</g>
<!-- /Users/mmoscato/Workspace/Workbench/pvs/dependency&#45;all/Users/mmoscato/pvs/pvs/nasalib/exact_real_arith&#45;&gt;/Users/mmoscato/Workspace/Workbench/pvs/dependency&#45;all/Users/mmoscato/pvs/pvs/nasalib/interval_arith -->
<g id="edge11" class="edge">
<title>/Users/mmoscato/Workspace/Workbench/pvs/dependency&#45;all/Users/mmoscato/pvs/pvs/nasalib/exact_real_arith&#45;&gt;/Users/mmoscato/Workspace/Workbench/pvs/dependency&#45;all/Users/mmoscato/pvs/pvs/nasalib/interval_arith</title>
<path fill="none" stroke="#000000" d="M149.4585,-375.7623C149.4585,-375.7623 149.4585,-278.0896 149.4585,-278.0896"/>
<polygon fill="#000000" stroke="#000000" points="152.9586,-278.0896 149.4585,-268.0896 145.9586,-278.0897 152.9586,-278.0896"/>
</g>
<!-- /Users/mmoscato/Workspace/Workbench/pvs/dependency&#45;all/Users/mmoscato/pvs/pvs/nasalib/exact_real_arith&#45;&gt;/Users/mmoscato/Workspace/Workbench/pvs/dependency&#45;all/Users/mmoscato/pvs/pvs/nasalib/ints -->
<g id="edge12" class="edge">
<title>/Users/mmoscato/Workspace/Workbench/pvs/dependency&#45;all/Users/mmoscato/pvs/pvs/nasalib/exact_real_arith&#45;&gt;/Users/mmoscato/Workspace/Workbench/pvs/dependency&#45;all/Users/mmoscato/pvs/pvs/nasalib/ints</title>
<path fill="none" stroke="#000000" d="M241.5623,-375.9526C241.5623,-301.8686 241.5623,-25 241.5623,-25 241.5623,-25 206.0195,-25 206.0195,-25"/>
<polygon fill="#000000" stroke="#000000" points="206.0195,-21.5001 196.0195,-25 206.0195,-28.5001 206.0195,-21.5001"/>
</g>
<!-- /Users/mmoscato/Workspace/Workbench/pvs/dependency&#45;all/Users/mmoscato/pvs/pvs/nasalib/exact_real_arith&#45;&gt;/Users/mmoscato/Workspace/Workbench/pvs/dependency&#45;all/Users/mmoscato/pvs/pvs/nasalib/reals -->
<g id="edge13" class="edge">
<title>/Users/mmoscato/Workspace/Workbench/pvs/dependency&#45;all/Users/mmoscato/pvs/pvs/nasalib/exact_real_arith&#45;&gt;/Users/mmoscato/Workspace/Workbench/pvs/dependency&#45;all/Users/mmoscato/pvs/pvs/nasalib/reals</title>
<path fill="none" stroke="#000000" d="M224.5,-375.9555C224.5,-375.9555 224.5,-206.1451 224.5,-206.1451"/>
<polygon fill="#000000" stroke="#000000" points="228.0001,-206.145 224.5,-196.1451 221.0001,-206.1451 228.0001,-206.145"/>
</g>
<!-- /Users/mmoscato/Workspace/Workbench/pvs/dependency&#45;all/Users/mmoscato/pvs/pvs/nasalib/exact_real_arith&#45;&gt;/Users/mmoscato/Workspace/Workbench/pvs/dependency&#45;all/Users/mmoscato/pvs/pvs/nasalib/structures -->
<g id="edge14" class="edge">
<title>/Users/mmoscato/Workspace/Workbench/pvs/dependency&#45;all/Users/mmoscato/pvs/pvs/nasalib/exact_real_arith&#45;&gt;/Users/mmoscato/Workspace/Workbench/pvs/dependency&#45;all/Users/mmoscato/pvs/pvs/nasalib/structures</title>
<path fill="none" stroke="#000000" d="M236.5208,-375.9843C236.5208,-312.9341 236.5208,-106 236.5208,-106 236.5208,-106 214.3424,-106 214.3424,-106"/>
<polygon fill="#000000" stroke="#000000" points="214.3424,-102.5001 204.3424,-106 214.3423,-109.5001 214.3424,-102.5001"/>
</g>
<!-- /Users/mmoscato/Workspace/Workbench/pvs/dependency&#45;all/Users/mmoscato/pvs/pvs/nasalib/examples -->
<g id="node4" class="node">
<title>/Users/mmoscato/Workspace/Workbench/pvs/dependency&#45;all/Users/mmoscato/pvs/pvs/nasalib/examples</title>
<polygon fill="#fcfcd7" stroke="#000000" points="153.3693,-484 84.6307,-484 84.6307,-448 153.3693,-448 153.3693,-484"/>
<text text-anchor="middle" x="119" y="-461.8" font-family="Times,serif" font-size="14.00" fill="#000000">examples</text>
</g>
<!-- /Users/mmoscato/Workspace/Workbench/pvs/dependency&#45;all/Users/mmoscato/pvs/pvs/nasalib/examples&#45;&gt;/Users/mmoscato/Workspace/Workbench/pvs/dependency&#45;all/Users/mmoscato/pvs/pvs/nasalib/Sturm -->
<g id="edge15" class="edge">
<title>/Users/mmoscato/Workspace/Workbench/pvs/dependency&#45;all/Users/mmoscato/pvs/pvs/nasalib/examples&#45;&gt;/Users/mmoscato/Workspace/Workbench/pvs/dependency&#45;all/Users/mmoscato/pvs/pvs/nasalib/Sturm</title>
<path fill="none" stroke="#000000" d="M130.3336,-447.9589C130.3336,-410.5524 130.3336,-328 130.3336,-328 130.3336,-328 150.8554,-328 150.8554,-328"/>
<polygon fill="#000000" stroke="#000000" points="150.8554,-331.5001 160.8554,-328 150.8553,-324.5001 150.8554,-331.5001"/>
</g>
<!-- /Users/mmoscato/Workspace/Workbench/pvs/dependency&#45;all/Users/mmoscato/pvs/pvs/nasalib/examples&#45;&gt;/Users/mmoscato/Workspace/Workbench/pvs/dependency&#45;all/Users/mmoscato/pvs/pvs/nasalib/Tarski -->
<g id="edge16" class="edge">
<title>/Users/mmoscato/Workspace/Workbench/pvs/dependency&#45;all/Users/mmoscato/pvs/pvs/nasalib/examples&#45;&gt;/Users/mmoscato/Workspace/Workbench/pvs/dependency&#45;all/Users/mmoscato/pvs/pvs/nasalib/Tarski</title>
<path fill="none" stroke="#000000" d="M92.2827,-447.8314C92.2827,-447.8314 92.2827,-422.4133 92.2827,-422.4133"/>
<polygon fill="#000000" stroke="#000000" points="95.7828,-422.4132 92.2827,-412.4133 88.7828,-422.4133 95.7828,-422.4132"/>
</g>
<!-- /Users/mmoscato/Workspace/Workbench/pvs/dependency&#45;all/Users/mmoscato/pvs/pvs/nasalib/examples&#45;&gt;/Users/mmoscato/Workspace/Workbench/pvs/dependency&#45;all/Users/mmoscato/pvs/pvs/nasalib/exact_real_arith -->
<g id="edge17" class="edge">
<title>/Users/mmoscato/Workspace/Workbench/pvs/dependency&#45;all/Users/mmoscato/pvs/pvs/nasalib/examples&#45;&gt;/Users/mmoscato/Workspace/Workbench/pvs/dependency&#45;all/Users/mmoscato/pvs/pvs/nasalib/exact_real_arith</title>
<path fill="none" stroke="#000000" d="M145.6758,-447.8314C145.6758,-447.8314 145.6758,-422.4133 145.6758,-422.4133"/>
<polygon fill="#000000" stroke="#000000" points="149.1759,-422.4132 145.6758,-412.4133 142.1759,-422.4133 149.1759,-422.4132"/>
</g>
<!-- /Users/mmoscato/Workspace/Workbench/pvs/dependency&#45;all/Users/mmoscato/pvs/pvs/nasalib/examples&#45;&gt;/Users/mmoscato/Workspace/Workbench/pvs/dependency&#45;all/Users/mmoscato/pvs/pvs/nasalib/interval_arith -->
<g id="edge18" class="edge">
<title>/Users/mmoscato/Workspace/Workbench/pvs/dependency&#45;all/Users/mmoscato/pvs/pvs/nasalib/examples&#45;&gt;/Users/mmoscato/Workspace/Workbench/pvs/dependency&#45;all/Users/mmoscato/pvs/pvs/nasalib/interval_arith</title>
<path fill="none" stroke="#000000" d="M107.5834,-447.9555C107.5834,-447.9555 107.5834,-278.1451 107.5834,-278.1451"/>
<polygon fill="#000000" stroke="#000000" points="111.0835,-278.145 107.5834,-268.1451 104.0835,-278.1451 111.0835,-278.145"/>
</g>
<!-- /Users/mmoscato/Workspace/Workbench/pvs/dependency&#45;all/Users/mmoscato/pvs/pvs/nasalib/examples&#45;&gt;/Users/mmoscato/Workspace/Workbench/pvs/dependency&#45;all/Users/mmoscato/pvs/pvs/nasalib/ints -->
<g id="edge19" class="edge">
<title>/Users/mmoscato/Workspace/Workbench/pvs/dependency&#45;all/Users/mmoscato/pvs/pvs/nasalib/examples&#45;&gt;/Users/mmoscato/Workspace/Workbench/pvs/dependency&#45;all/Users/mmoscato/pvs/pvs/nasalib/ints</title>
<path fill="none" stroke="#000000" d="M84.5968,-466C58.8272,-466 28,-466 28,-466 28,-466 28,-25 28,-25 28,-25 131.8138,-25 131.8138,-25"/>
<polygon fill="#000000" stroke="#000000" points="131.8138,-28.5001 141.8138,-25 131.8137,-21.5001 131.8138,-28.5001"/>
</g>
<!-- /Users/mmoscato/Workspace/Workbench/pvs/dependency&#45;all/Users/mmoscato/pvs/pvs/nasalib/examples&#45;&gt;/Users/mmoscato/Workspace/Workbench/pvs/dependency&#45;all/Users/mmoscato/pvs/pvs/nasalib/reals -->
<g id="edge20" class="edge">
<title>/Users/mmoscato/Workspace/Workbench/pvs/dependency&#45;all/Users/mmoscato/pvs/pvs/nasalib/examples&#45;&gt;/Users/mmoscato/Workspace/Workbench/pvs/dependency&#45;all/Users/mmoscato/pvs/pvs/nasalib/reals</title>
<path fill="none" stroke="#000000" d="M122.7502,-447.7078C122.7502,-403.034 122.7502,-292 122.7502,-292 122.7502,-292 191.6667,-292 191.6667,-292 191.6667,-292 191.6667,-206.0636 191.6667,-206.0636"/>
<polygon fill="#000000" stroke="#000000" points="195.1668,-206.0636 191.6667,-196.0636 188.1668,-206.0637 195.1668,-206.0636"/>
</g>
<!-- /Users/mmoscato/Workspace/Workbench/pvs/dependency&#45;all/Users/mmoscato/pvs/pvs/nasalib/examples&#45;&gt;/Users/mmoscato/Workspace/Workbench/pvs/dependency&#45;all/Users/mmoscato/pvs/pvs/nasalib/structures -->
<g id="edge21" class="edge">
<title>/Users/mmoscato/Workspace/Workbench/pvs/dependency&#45;all/Users/mmoscato/pvs/pvs/nasalib/examples&#45;&gt;/Users/mmoscato/Workspace/Workbench/pvs/dependency&#45;all/Users/mmoscato/pvs/pvs/nasalib/structures</title>
<path fill="none" stroke="#000000" d="M115.1668,-447.8269C115.1668,-401.0245 115.1668,-280 115.1668,-280 115.1668,-280 173.8535,-280 173.8535,-280 173.8535,-280 173.8535,-134.2922 173.8535,-134.2922"/>
<polygon fill="#000000" stroke="#000000" points="177.3536,-134.2921 173.8535,-124.2922 170.3536,-134.2922 177.3536,-134.2921"/>
</g>
<!-- /Users/mmoscato/Workspace/Workbench/pvs/dependency&#45;all/Users/mmoscato/pvs/pvs/nasalib/interval_arith&#45;&gt;/Users/mmoscato/Workspace/Workbench/pvs/dependency&#45;all/Users/mmoscato/pvs/pvs/nasalib/ints -->
<g id="edge22" class="edge">
<title>/Users/mmoscato/Workspace/Workbench/pvs/dependency&#45;all/Users/mmoscato/pvs/pvs/nasalib/interval_arith&#45;&gt;/Users/mmoscato/Workspace/Workbench/pvs/dependency&#45;all/Users/mmoscato/pvs/pvs/nasalib/ints</title>
<path fill="none" stroke="#000000" d="M105.0396,-231.9922C105.0396,-181.6304 105.0396,-43 105.0396,-43 105.0396,-43 131.875,-43 131.875,-43"/>
<polygon fill="#000000" stroke="#000000" points="131.875,-46.5001 141.875,-43 131.875,-39.5001 131.875,-46.5001"/>
</g>
<!-- /Users/mmoscato/Workspace/Workbench/pvs/dependency&#45;all/Users/mmoscato/pvs/pvs/nasalib/interval_arith&#45;&gt;/Users/mmoscato/Workspace/Workbench/pvs/dependency&#45;all/Users/mmoscato/pvs/pvs/nasalib/reals -->
<g id="edge23" class="edge">
<title>/Users/mmoscato/Workspace/Workbench/pvs/dependency&#45;all/Users/mmoscato/pvs/pvs/nasalib/interval_arith&#45;&gt;/Users/mmoscato/Workspace/Workbench/pvs/dependency&#45;all/Users/mmoscato/pvs/pvs/nasalib/reals</title>
<path fill="none" stroke="#000000" d="M156.4001,-231.9652C156.4001,-212.4238 156.4001,-184 156.4001,-184 156.4001,-184 169.9224,-184 169.9224,-184"/>
<polygon fill="#000000" stroke="#000000" points="169.9225,-187.5001 179.9224,-184 169.9224,-180.5001 169.9225,-187.5001"/>
</g>
<!-- /Users/mmoscato/Workspace/Workbench/pvs/dependency&#45;all/Users/mmoscato/pvs/pvs/nasalib/interval_arith&#45;&gt;/Users/mmoscato/Workspace/Workbench/pvs/dependency&#45;all/Users/mmoscato/pvs/pvs/nasalib/structures -->
<g id="edge24" class="edge">
<title>/Users/mmoscato/Workspace/Workbench/pvs/dependency&#45;all/Users/mmoscato/pvs/pvs/nasalib/interval_arith&#45;&gt;/Users/mmoscato/Workspace/Workbench/pvs/dependency&#45;all/Users/mmoscato/pvs/pvs/nasalib/structures</title>
<path fill="none" stroke="#000000" d="M145.0931,-231.7623C145.0931,-231.7623 145.0931,-134.0896 145.0931,-134.0896"/>
<polygon fill="#000000" stroke="#000000" points="148.5932,-134.0896 145.0931,-124.0896 141.5932,-134.0897 148.5932,-134.0896"/>
</g>
<!-- /Users/mmoscato/Workspace/Workbench/pvs/dependency&#45;all/Users/mmoscato/pvs/pvs/nasalib/reals&#45;&gt;/Users/mmoscato/Workspace/Workbench/pvs/dependency&#45;all/Users/mmoscato/pvs/pvs/nasalib/ints -->
<g id="edge25" class="edge">
<title>/Users/mmoscato/Workspace/Workbench/pvs/dependency&#45;all/Users/mmoscato/pvs/pvs/nasalib/reals&#45;&gt;/Users/mmoscato/Workspace/Workbench/pvs/dependency&#45;all/Users/mmoscato/pvs/pvs/nasalib/ints</title>
<path fill="none" stroke="#000000" d="M219.1069,-159.7933C219.1069,-122.9441 219.1069,-43 219.1069,-43 219.1069,-43 206.1066,-43 206.1066,-43"/>
<polygon fill="#000000" stroke="#000000" points="206.1066,-39.5001 196.1066,-43 206.1066,-46.5001 206.1066,-39.5001"/>
</g>
<!-- /Users/mmoscato/Workspace/Workbench/pvs/dependency&#45;all/Users/mmoscato/pvs/pvs/nasalib/reals&#45;&gt;/Users/mmoscato/Workspace/Workbench/pvs/dependency&#45;all/Users/mmoscato/pvs/pvs/nasalib/structures -->
<g id="edge26" class="edge">
<title>/Users/mmoscato/Workspace/Workbench/pvs/dependency&#45;all/Users/mmoscato/pvs/pvs/nasalib/reals&#45;&gt;/Users/mmoscato/Workspace/Workbench/pvs/dependency&#45;all/Users/mmoscato/pvs/pvs/nasalib/structures</title>
<path fill="none" stroke="#000000" d="M192.1069,-159.8314C192.1069,-159.8314 192.1069,-134.4133 192.1069,-134.4133"/>
<polygon fill="#000000" stroke="#000000" points="195.607,-134.4132 192.1069,-124.4133 188.607,-134.4133 195.607,-134.4132"/>
</g>
<!-- /Users/mmoscato/Workspace/Workbench/pvs/dependency&#45;all/Users/mmoscato/pvs/pvs/nasalib/structures&#45;&gt;/Users/mmoscato/Workspace/Workbench/pvs/dependency&#45;all/Users/mmoscato/pvs/pvs/nasalib/ints -->
<g id="edge27" class="edge">
<title>/Users/mmoscato/Workspace/Workbench/pvs/dependency&#45;all/Users/mmoscato/pvs/pvs/nasalib/structures&#45;&gt;/Users/mmoscato/Workspace/Workbench/pvs/dependency&#45;all/Users/mmoscato/pvs/pvs/nasalib/ints</title>
<path fill="none" stroke="#000000" d="M169,-87.8314C169,-87.8314 169,-62.4133 169,-62.4133"/>
<polygon fill="#000000" stroke="#000000" points="172.5001,-62.4132 169,-52.4133 165.5001,-62.4133 172.5001,-62.4132"/>
</g>
</g>
</svg>
