<?xml version="1.0" encoding="UTF-8" standalone="no"?>
<!DOCTYPE svg PUBLIC "-//W3C//DTD SVG 1.1//EN"
 "http://www.w3.org/Graphics/SVG/1.1/DTD/svg11.dtd">
<!-- Generated by graphviz version 7.0.6 (20230106.0513)
 -->
<!-- Title: Sturm Pages: 1 -->
<svg width="1090pt" height="1110pt"
 viewBox="0.00 0.00 1090.00 1110.00" xmlns="http://www.w3.org/2000/svg" xmlns:xlink="http://www.w3.org/1999/xlink">
<g id="graph0" class="graph" transform="scale(1 1) rotate(0) translate(4 1106)">
<title>Sturm</title>
<polygon fill="white" stroke="none" points="-4,4 -4,-1106 1086,-1106 1086,4 -4,4"/>
<g id="clust1" class="cluster">
<title>cluster_NASALib</title>
<polygon fill="none" stroke="black" points="8,-8 8,-1094 978,-1094 978,-8 8,-8"/>
<text text-anchor="middle" x="493" y="-1078.8" font-family="Times,serif" font-size="14.00">NASALib</text>
</g>
<g id="clust2" class="cluster">
<title>cluster_PVS Prelude</title>
<polygon fill="none" stroke="black" points="986,-8 986,-83 1074,-83 1074,-8 986,-8"/>
<text text-anchor="middle" x="1030" y="-67.8" font-family="Times,serif" font-size="14.00">PVS Prelude</text>
</g>
<!-- NASALib/Sturm -->
<g id="node1" class="node">
<title>NASALib/Sturm</title>
<polygon fill="#f7e28d" stroke="black" points="390,-919 336,-919 336,-883 390,-883 390,-919"/>
<text text-anchor="middle" x="363" y="-897.3" font-family="Times,serif" font-size="14.00">Sturm</text>
</g>
<!-- NASALib/interval_arith -->
<g id="node7" class="node">
<title>NASALib/interval_arith</title>
<polygon fill="#fcfcd7" stroke="black" points="257.5,-847 168.5,-847 168.5,-811 257.5,-811 257.5,-847"/>
<text text-anchor="middle" x="213" y="-825.3" font-family="Times,serif" font-size="14.00">interval_arith</text>
</g>
<!-- NASALib/Sturm&#45;&gt;NASALib/interval_arith -->
<g id="edge1" class="edge">
<title>NASALib/Sturm&#45;&gt;NASALib/interval_arith</title>
<path fill="none" stroke="black" d="M335.84,-887.32C314.93,-877.57 285.51,-863.84 260.71,-852.26"/>
<polygon fill="black" stroke="black" points="262.31,-849.15 251.77,-848.09 259.35,-855.49 262.31,-849.15"/>
</g>
<!-- NASALib/ints -->
<g id="node8" class="node">
<title>NASALib/ints</title>
<polygon fill="#fcfcd7" stroke="black" points="770,-52 716,-52 716,-16 770,-16 770,-52"/>
<text text-anchor="middle" x="743" y="-30.3" font-family="Times,serif" font-size="14.00">ints</text>
</g>
<!-- NASALib/Sturm&#45;&gt;NASALib/ints -->
<g id="edge2" class="edge">
<title>NASALib/Sturm&#45;&gt;NASALib/ints</title>
<path fill="none" stroke="black" d="M286,-252C286,-252 301,-163 301,-163 301,-163 383,-110 383,-110"/>
<path fill="none" stroke="black" d="M335.91,-892.96C280.42,-878.54 159,-847 159,-847 159,-847 92,-559 92,-559 92,-559 77,-470 77,-470"/>
<path fill="none" stroke="black" d="M117,-396C117,-396 177,-326 177,-326"/>
<path fill="none" stroke="black" d="M383,-108C383,-108 611.66,-61.63 704.51,-42.81"/>
<polygon fill="black" stroke="black" points="705.06,-46.27 714.16,-40.85 703.67,-39.4 705.06,-46.27"/>
<path fill="none" stroke="black" d="M77,-468C77,-468 117,-398 117,-398"/>
<path fill="none" stroke="black" d="M177,-324C177,-324 192,-307 192,-307 192,-307 286,-254 286,-254"/>
</g>
<!-- NASALib/reals -->
<g id="node15" class="node">
<title>NASALib/reals</title>
<polygon fill="#fcfcd7" stroke="black" points="470,-703 416,-703 416,-667 470,-667 470,-703"/>
<text text-anchor="middle" x="443" y="-681.3" font-family="Times,serif" font-size="14.00">reals</text>
</g>
<!-- NASALib/Sturm&#45;&gt;NASALib/reals -->
<g id="edge3" class="edge">
<title>NASALib/Sturm&#45;&gt;NASALib/reals</title>
<path fill="none" stroke="black" d="M380,-756C380,-756 401.83,-731.74 419.79,-711.79"/>
<polygon fill="black" stroke="black" points="422.33,-714.2 426.41,-704.43 417.12,-709.52 422.33,-714.2"/>
</g>
<!-- NASALib/structures -->
<g id="node19" class="node">
<title>NASALib/structures</title>
<polygon fill="#fcfcd7" stroke="black" points="777.5,-127 708.5,-127 708.5,-91 777.5,-91 777.5,-127"/>
<text text-anchor="middle" x="743" y="-105.3" font-family="Times,serif" font-size="14.00">structures</text>
</g>
<!-- NASALib/Sturm&#45;&gt;NASALib/structures -->
<g id="edge4" class="edge">
<title>NASALib/Sturm&#45;&gt;NASALib/structures</title>
<path fill="none" stroke="black" d="M380,-756C380,-756 403,-326 403,-326"/>
<path fill="none" stroke="black" d="M365.08,-882.59C369.62,-844.67 380,-758 380,-758"/>
<path fill="none" stroke="black" d="M403,-324C403,-324 403,-254 403,-254"/>
</g>
<!-- NASALib/Tarski -->
<g id="node2" class="node">
<title>NASALib/Tarski</title>
<polygon fill="#fcfcd7" stroke="black" points="390,-991 336,-991 336,-955 390,-955 390,-991"/>
<text text-anchor="middle" x="363" y="-969.3" font-family="Times,serif" font-size="14.00">Tarski</text>
</g>
<!-- NASALib/Tarski&#45;&gt;NASALib/Sturm -->
<g id="edge5" class="edge">
<title>NASALib/Tarski&#45;&gt;NASALib/Sturm</title>
<path fill="none" stroke="black" d="M363,-954.7C363,-947.41 363,-938.73 363,-930.54"/>
<polygon fill="black" stroke="black" points="366.5,-930.62 363,-920.62 359.5,-930.62 366.5,-930.62"/>
</g>
<!-- NASALib/Tarski&#45;&gt;NASALib/ints -->
<g id="edge6" class="edge">
<title>NASALib/Tarski&#45;&gt;NASALib/ints</title>
<path fill="none" stroke="black" d="M335.91,-955.4C280.42,-921.4 159,-847 159,-847 159,-847 159,-811 159,-811 159,-811 177,-326 177,-326"/>
</g>
<!-- NASALib/Tarski&#45;&gt;NASALib/reals -->
<g id="edge7" class="edge">
<title>NASALib/Tarski&#45;&gt;NASALib/reals</title>
<path fill="none" stroke="black" d="M449,-828C449,-828 420,-758 420,-758"/>
<path fill="none" stroke="black" d="M379.7,-954.65C394.57,-939.19 414,-919 414,-919 414,-919 449,-830 449,-830"/>
</g>
<!-- NASALib/Tarski&#45;&gt;NASALib/structures -->
<g id="edge8" class="edge">
<title>NASALib/Tarski&#45;&gt;NASALib/structures</title>
<path fill="none" stroke="black" d="M449,-828C449,-828 464,-811 464,-811 464,-811 926,-631 926,-631 926,-631 969,-614 969,-614 969,-614 969,-614 969,-324 969,-324 949,-182 949,-182"/>
</g>
<!-- NASALib/analysis -->
<g id="node3" class="node">
<title>NASALib/analysis</title>
<polygon fill="#fcfcd7" stroke="black" points="499,-775 439,-775 439,-739 499,-739 499,-775"/>
<text text-anchor="middle" x="469" y="-753.3" font-family="Times,serif" font-size="14.00">analysis</text>
</g>
<!-- NASALib/analysis&#45;&gt;NASALib/ints -->
<g id="edge9" class="edge">
<title>NASALib/analysis&#45;&gt;NASALib/ints</title>
<path fill="none" stroke="black" d="M443.79,-738.65C421.33,-723.19 392,-703 392,-703 392,-703 212,-559 212,-559 212,-559 117,-398 117,-398"/>
</g>
<!-- NASALib/orders -->
<g id="node13" class="node">
<title>NASALib/orders</title>
<polygon fill="#fcfcd7" stroke="black" points="870,-199 816,-199 816,-163 870,-163 870,-199"/>
<text text-anchor="middle" x="843" y="-177.3" font-family="Times,serif" font-size="14.00">orders</text>
</g>
<!-- NASALib/analysis&#45;&gt;NASALib/orders -->
<g id="edge10" class="edge">
<title>NASALib/analysis&#45;&gt;NASALib/orders</title>
<path fill="none" stroke="black" d="M949,-252C949,-252 909.47,-225.9 878.69,-205.57"/>
<polygon fill="black" stroke="black" points="881.01,-202.91 870.74,-200.32 877.15,-208.75 881.01,-202.91"/>
<path fill="none" stroke="black" d="M499.08,-744.38C506.81,-741.39 513,-739 513,-739 513,-739 949,-614 949,-614 949,-614 949,-614 949,-396 949,-396 949,-254 949,-254"/>
</g>
<!-- NASALib/analysis&#45;&gt;NASALib/reals -->
<g id="edge11" class="edge">
<title>NASALib/analysis&#45;&gt;NASALib/reals</title>
<path fill="none" stroke="black" d="M462.57,-738.7C459.77,-731.15 456.42,-722.12 453.28,-713.68"/>
<polygon fill="black" stroke="black" points="456.64,-712.68 449.88,-704.52 450.08,-715.12 456.64,-712.68"/>
</g>
<!-- NASALib/analysis&#45;&gt;NASALib/structures -->
<g id="edge12" class="edge">
<title>NASALib/analysis&#45;&gt;NASALib/structures</title>
<path fill="none" stroke="black" d="M949,-252C949,-252 949,-182 949,-182"/>
<path fill="none" stroke="black" d="M949,-180C949,-180 849.49,-146.19 788.79,-125.56"/>
<polygon fill="black" stroke="black" points="789.97,-122.27 779.38,-122.36 787.72,-128.89 789.97,-122.27"/>
</g>
<!-- lib/finite_sets -->
<g id="node23" class="node">
<title>lib/finite_sets</title>
<polygon fill="#fcfcd7" stroke="black" points="1066,-52 994,-52 994,-16 1066,-16 1066,-52"/>
<text text-anchor="middle" x="1030" y="-30.3" font-family="Times,serif" font-size="14.00">finite_sets</text>
</g>
<!-- NASALib/analysis&#45;&gt;lib/finite_sets -->
<g id="edge13" class="edge">
<title>NASALib/analysis&#45;&gt;lib/finite_sets</title>
<path fill="none" stroke="black" d="M499.24,-749.18C562.71,-734.87 704,-703 704,-703 704,-703 926,-631 926,-631 926,-631 982,-559 982,-559 982,-559 998,-470 998,-470"/>
</g>
<!-- NASALib/exact_real_arith -->
<g id="node4" class="node">
<title>NASALib/exact_real_arith</title>
<polygon fill="#fcfcd7" stroke="black" points="298,-991 194,-991 194,-955 298,-955 298,-991"/>
<text text-anchor="middle" x="246" y="-969.3" font-family="Times,serif" font-size="14.00">exact_real_arith</text>
</g>
<!-- NASALib/exact_real_arith&#45;&gt;NASALib/Sturm -->
<g id="edge14" class="edge">
<title>NASALib/exact_real_arith&#45;&gt;NASALib/Sturm</title>
<path fill="none" stroke="black" d="M275.22,-954.52C290.58,-945.33 309.57,-933.97 325.95,-924.17"/>
<polygon fill="black" stroke="black" points="327.67,-927.22 334.46,-919.08 324.08,-921.21 327.67,-927.22"/>
</g>
<!-- NASALib/exact_real_arith&#45;&gt;NASALib/interval_arith -->
<g id="edge15" class="edge">
<title>NASALib/exact_real_arith&#45;&gt;NASALib/interval_arith</title>
<path fill="none" stroke="black" d="M253.66,-954.7C262.84,-933.97 277,-902 277,-902"/>
<path fill="none" stroke="black" d="M277,-900C277,-900 254.82,-875.74 236.58,-855.79"/>
<polygon fill="black" stroke="black" points="239.17,-853.44 229.84,-848.42 234.01,-858.16 239.17,-853.44"/>
</g>
<!-- NASALib/lnexp -->
<g id="node10" class="node">
<title>NASALib/lnexp</title>
<polygon fill="#fcfcd7" stroke="black" points="290,-343 236,-343 236,-307 290,-307 290,-343"/>
<text text-anchor="middle" x="263" y="-321.3" font-family="Times,serif" font-size="14.00">lnexp</text>
</g>
<!-- NASALib/exact_real_arith&#45;&gt;NASALib/lnexp -->
<g id="edge16" class="edge">
<title>NASALib/exact_real_arith&#45;&gt;NASALib/lnexp</title>
<path fill="none" stroke="black" d="M109,-756C109,-756 241,-379 241,-379 241,-379 246.11,-366.68 251.41,-353.92"/>
<polygon fill="black" stroke="black" points="254.61,-355.33 255.22,-344.75 248.15,-352.65 254.61,-355.33"/>
</g>
<!-- NASALib/exact_real_arith&#45;&gt;NASALib/reals -->
<g id="edge17" class="edge">
<title>NASALib/exact_real_arith&#45;&gt;NASALib/reals</title>
<path fill="none" stroke="black" d="M296.1,-954.65C340.72,-939.19 399,-919 399,-919 399,-919 420,-758 420,-758"/>
<path fill="none" stroke="black" d="M420,-756C420,-756 427.34,-733.66 433.73,-714.22"/>
<polygon fill="black" stroke="black" points="437.05,-715.33 436.84,-704.74 430.4,-713.15 437.05,-715.33"/>
</g>
<!-- NASALib/exact_real_arith&#45;&gt;NASALib/structures -->
<g id="edge18" class="edge">
<title>NASALib/exact_real_arith&#45;&gt;NASALib/structures</title>
<path fill="none" stroke="black" d="M206.05,-954.65C170.47,-939.19 124,-919 124,-919 124,-919 109,-758 109,-758"/>
<path fill="none" stroke="black" d="M109,-756C109,-756 124,-667 124,-667 124,-667 220,-307 220,-307 220,-307 398,-235 398,-235 398,-235 603.7,-160.47 697.43,-126.51"/>
<polygon fill="black" stroke="black" points="698.39,-129.89 706.6,-123.19 696,-123.31 698.39,-129.89"/>
</g>
<!-- NASALib/trig -->
<g id="node21" class="node">
<title>NASALib/trig</title>
<polygon fill="#fcfcd7" stroke="black" points="384,-343 330,-343 330,-307 384,-307 384,-343"/>
<text text-anchor="middle" x="357" y="-321.3" font-family="Times,serif" font-size="14.00">trig</text>
</g>
<!-- NASALib/exact_real_arith&#45;&gt;NASALib/trig -->
<g id="edge19" class="edge">
<title>NASALib/exact_real_arith&#45;&gt;NASALib/trig</title>
<path fill="none" stroke="black" d="M277,-900C277,-900 277,-758 277,-758 277,-758 277,-758 277,-612 277,-612 292,-523 292,-523 292,-523 323,-398 323,-398"/>
<path fill="none" stroke="black" d="M323,-396C323,-396 334.16,-373.03 343.69,-353.41"/>
<polygon fill="black" stroke="black" points="346.71,-355.19 347.93,-344.66 340.42,-352.13 346.71,-355.19"/>
</g>
<!-- NASALib/examples -->
<g id="node5" class="node">
<title>NASALib/examples</title>
<polygon fill="#fcfcd7" stroke="black" points="351,-1063 283,-1063 283,-1027 351,-1027 351,-1063"/>
<text text-anchor="middle" x="317" y="-1041.3" font-family="Times,serif" font-size="14.00">examples</text>
</g>
<!-- NASALib/examples&#45;&gt;NASALib/Sturm -->
<g id="edge20" class="edge">
<title>NASALib/examples&#45;&gt;NASALib/Sturm</title>
<path fill="none" stroke="black" d="M317,-972C317,-972 327,-955 327,-955 327,-955 335.88,-941.93 344.82,-928.77"/>
<polygon fill="black" stroke="black" points="347.64,-930.84 350.36,-920.61 341.85,-926.91 347.64,-930.84"/>
</g>
<!-- NASALib/examples&#45;&gt;NASALib/Tarski -->
<g id="edge21" class="edge">
<title>NASALib/examples&#45;&gt;NASALib/Tarski</title>
<path fill="none" stroke="black" d="M328.37,-1026.7C333.55,-1018.81 339.8,-1009.3 345.56,-1000.55"/>
<polygon fill="black" stroke="black" points="348.36,-1002.65 350.93,-992.37 342.51,-998.8 348.36,-1002.65"/>
</g>
<!-- NASALib/examples&#45;&gt;NASALib/analysis -->
<g id="edge22" class="edge">
<title>NASALib/examples&#45;&gt;NASALib/analysis</title>
<path fill="none" stroke="black" d="M469,-828C469,-828 469,-806.08 469,-786.77"/>
<polygon fill="black" stroke="black" points="472.5,-786.82 469,-776.82 465.5,-786.82 472.5,-786.82"/>
</g>
<!-- NASALib/examples&#45;&gt;NASALib/exact_real_arith -->
<g id="edge23" class="edge">
<title>NASALib/examples&#45;&gt;NASALib/exact_real_arith</title>
<path fill="none" stroke="black" d="M299.45,-1026.7C291.02,-1018.39 280.77,-1008.28 271.5,-999.14"/>
<polygon fill="black" stroke="black" points="274,-996.7 264.43,-992.17 269.09,-1001.68 274,-996.7"/>
</g>
<!-- NASALib/examples&#45;&gt;NASALib/interval_arith -->
<g id="edge24" class="edge">
<title>NASALib/examples&#45;&gt;NASALib/interval_arith</title>
<path fill="none" stroke="black" d="M89,-900C89,-900 136.04,-873.44 172.17,-853.05"/>
<polygon fill="black" stroke="black" points="173.72,-856.19 180.71,-848.23 170.28,-850.1 173.72,-856.19"/>
</g>
<!-- NASALib/examples&#45;&gt;NASALib/lnexp -->
<g id="edge25" class="edge">
<title>NASALib/examples&#45;&gt;NASALib/lnexp</title>
<path fill="none" stroke="black" d="M282.66,-1030.21C243.55,-1014.51 185,-991 185,-991 185,-991 104,-919 104,-919 104,-919 89,-902 89,-902"/>
<path fill="none" stroke="black" d="M89,-900C89,-900 64,-703 64,-703 64,-703 64,-667 64,-667 64,-667 226,-379 226,-379 226,-379 235.13,-365.93 244.31,-352.77"/>
<polygon fill="black" stroke="black" points="247.16,-354.8 250.02,-344.6 241.42,-350.79 247.16,-354.8"/>
</g>
<!-- NASALib/examples&#45;&gt;NASALib/reals -->
<g id="edge26" class="edge">
<title>NASALib/examples&#45;&gt;NASALib/reals</title>
<path fill="none" stroke="black" d="M469,-828C469,-828 430,-775 430,-775 430,-775 420,-758 420,-758"/>
<path fill="none" stroke="black" d="M469,-900C469,-900 469,-830 469,-830"/>
</g>
<!-- NASALib/examples&#45;&gt;NASALib/trig -->
<g id="edge27" class="edge">
<title>NASALib/examples&#45;&gt;NASALib/trig</title>
<path fill="none" stroke="black" d="M317,-1026.7C317,-1005.97 317,-974 317,-974"/>
<path fill="none" stroke="black" d="M317,-972C317,-972 317,-830 317,-830 317,-830 317,-830 317,-684 317,-684 323,-398 323,-398"/>
</g>
<!-- NASALib/vectors -->
<g id="node22" class="node">
<title>NASALib/vectors</title>
<polygon fill="#fcfcd7" stroke="black" points="478,-415 422,-415 422,-379 478,-379 478,-415"/>
<text text-anchor="middle" x="450" y="-393.3" font-family="Times,serif" font-size="14.00">vectors</text>
</g>
<!-- NASALib/examples&#45;&gt;NASALib/vectors -->
<g id="edge28" class="edge">
<title>NASALib/examples&#45;&gt;NASALib/vectors</title>
<path fill="none" stroke="black" d="M343.85,-1026.65C367.76,-1011.19 399,-991 399,-991 399,-991 469,-902 469,-902"/>
<path fill="none" stroke="black" d="M469,-900C469,-900 415,-775 415,-775 415,-775 392,-703 392,-703 392,-703 392,-667 392,-667 392,-667 429.07,-495.08 443.94,-426.12"/>
<polygon fill="black" stroke="black" points="447.28,-427.23 445.96,-416.72 440.44,-425.75 447.28,-427.23"/>
</g>
<!-- NASALib/extended_nnreal -->
<g id="node6" class="node">
<title>NASALib/extended_nnreal</title>
<polygon fill="#fcfcd7" stroke="black" points="850,-487 744,-487 744,-451 850,-451 850,-487"/>
<text text-anchor="middle" x="797" y="-465.3" font-family="Times,serif" font-size="14.00">extended_nnreal</text>
</g>
<!-- NASALib/extended_nnreal&#45;&gt;NASALib/analysis -->
<g id="edge29" class="edge">
<title>NASALib/extended_nnreal&#45;&gt;NASALib/analysis</title>
<path fill="none" stroke="black" d="M824.97,-487.48C849.21,-502.63 882.87,-523.67 899.26,-533.91"/>
<polygon fill="black" stroke="black" points="897.38,-536.87 907.72,-539.2 901.09,-530.93 897.38,-536.87"/>
<path fill="none" stroke="black" d="M909,-542C909,-542 854,-631 854,-631 854,-631 603,-684 603,-684"/>
</g>
<!-- NASALib/extended_nnreal&#45;&gt;NASALib/reals -->
<g id="edge30" class="edge">
<title>NASALib/extended_nnreal&#45;&gt;NASALib/reals</title>
<path fill="none" stroke="black" d="M809.12,-487.35C819.91,-502.81 834,-523 834,-523 834,-523 843.06,-576.78 847.1,-600.73"/>
<polygon fill="black" stroke="black" points="843.64,-601.23 848.75,-610.51 850.54,-600.06 843.64,-601.23"/>
<path fill="none" stroke="black" d="M849,-614C849,-614 561.3,-663.6 470.27,-679.3"/>
</g>
<!-- NASALib/series -->
<g id="node16" class="node">
<title>NASALib/series</title>
<polygon fill="#fcfcd7" stroke="black" points="476,-271 422,-271 422,-235 476,-235 476,-271"/>
<text text-anchor="middle" x="449" y="-249.3" font-family="Times,serif" font-size="14.00">series</text>
</g>
<!-- NASALib/extended_nnreal&#45;&gt;NASALib/series -->
<g id="edge31" class="edge">
<title>NASALib/extended_nnreal&#45;&gt;NASALib/series</title>
<path fill="none" stroke="black" d="M746,-324C746,-324 567.88,-282.02 487.52,-263.08"/>
<polygon fill="black" stroke="black" points="488.42,-259.69 477.88,-260.81 486.81,-266.51 488.42,-259.69"/>
<path fill="none" stroke="black" d="M791.22,-450.84C782.5,-424.98 767,-379 767,-379 767,-379 746,-326 746,-326"/>
</g>
<!-- NASALib/sigma_set -->
<g id="node18" class="node">
<title>NASALib/sigma_set</title>
<polygon fill="#fcfcd7" stroke="black" points="887.5,-415 816.5,-415 816.5,-379 887.5,-379 887.5,-415"/>
<text text-anchor="middle" x="852" y="-393.3" font-family="Times,serif" font-size="14.00">sigma_set</text>
</g>
<!-- NASALib/extended_nnreal&#45;&gt;NASALib/sigma_set -->
<g id="edge32" class="edge">
<title>NASALib/extended_nnreal&#45;&gt;NASALib/sigma_set</title>
<path fill="none" stroke="black" d="M810.6,-450.7C816.92,-442.64 824.58,-432.89 831.59,-423.98"/>
<polygon fill="black" stroke="black" points="834.2,-426.32 837.63,-416.29 828.7,-422 834.2,-426.32"/>
</g>
<!-- NASALib/interval_arith&#45;&gt;NASALib/analysis -->
<g id="edge33" class="edge">
<title>NASALib/interval_arith&#45;&gt;NASALib/analysis</title>
<path fill="none" stroke="black" d="M257.96,-816.76C320.19,-801.2 425,-775 425,-775 425,-775 426.36,-774.47 428.6,-773.61"/>
<polygon fill="black" stroke="black" points="429.44,-777.04 437.51,-770.17 426.92,-770.51 429.44,-777.04"/>
</g>
<!-- NASALib/interval_arith&#45;&gt;NASALib/ints -->
<g id="edge34" class="edge">
<title>NASALib/interval_arith&#45;&gt;NASALib/ints</title>
<path fill="none" stroke="black" d="M177,-756C177,-756 77,-470 77,-470"/>
<path fill="none" stroke="black" d="M204.1,-810.7C193.44,-789.97 177,-758 177,-758"/>
</g>
<!-- NASALib/interval_arith&#45;&gt;NASALib/lnexp -->
<g id="edge35" class="edge">
<title>NASALib/interval_arith&#45;&gt;NASALib/lnexp</title>
<path fill="none" stroke="black" d="M177,-756C177,-756 192,-667 192,-667 192,-667 239.97,-436.61 257.05,-354.57"/>
<polygon fill="black" stroke="black" points="260.46,-355.36 259.07,-344.86 253.61,-353.94 260.46,-355.36"/>
</g>
<!-- NASALib/interval_arith&#45;&gt;NASALib/reals -->
<g id="edge36" class="edge">
<title>NASALib/interval_arith&#45;&gt;NASALib/reals</title>
<path fill="none" stroke="black" d="M241.2,-810.59C282.66,-784.99 360.11,-737.18 406.06,-708.81"/>
<polygon fill="black" stroke="black" points="407.68,-711.92 414.35,-703.69 404.01,-705.96 407.68,-711.92"/>
</g>
<!-- NASALib/interval_arith&#45;&gt;NASALib/structures -->
<g id="edge37" class="edge">
<title>NASALib/interval_arith&#45;&gt;NASALib/structures</title>
<path fill="none" stroke="black" d="M673,-180C673,-180 697.69,-155.31 717.75,-135.25"/>
<polygon fill="black" stroke="black" points="720.03,-137.92 724.63,-128.37 715.08,-132.97 720.03,-137.92"/>
<path fill="none" stroke="black" d="M403,-252C403,-252 413,-235 413,-235 413,-235 673,-182 673,-182"/>
<path fill="none" stroke="black" d="M177,-756C177,-756 257,-614 257,-614"/>
<path fill="none" stroke="black" d="M257,-612C257,-612 217,-470 217,-470 217,-470 217,-470 217,-396 217,-396 227,-307 227,-307 227,-307 403,-254 403,-254"/>
</g>
<!-- NASALib/interval_arith&#45;&gt;NASALib/trig -->
<g id="edge38" class="edge">
<title>NASALib/interval_arith&#45;&gt;NASALib/trig</title>
<path fill="none" stroke="black" d="M257,-612C257,-612 272,-523 272,-523 272,-523 292,-451 292,-451 292,-451 318,-379 318,-379 318,-379 327.81,-365.67 337.59,-352.38"/>
<polygon fill="black" stroke="black" points="340.23,-354.7 343.33,-344.57 334.59,-350.55 340.23,-354.7"/>
</g>
<!-- NASALib/lebesgue -->
<g id="node9" class="node">
<title>NASALib/lebesgue</title>
<polygon fill="#fcfcd7" stroke="black" points="726,-631 662,-631 662,-595 726,-595 726,-631"/>
<text text-anchor="middle" x="694" y="-609.3" font-family="Times,serif" font-size="14.00">lebesgue</text>
</g>
<!-- NASALib/lebesgue&#45;&gt;NASALib/analysis -->
<g id="edge39" class="edge">
<title>NASALib/lebesgue&#45;&gt;NASALib/analysis</title>
<path fill="none" stroke="black" d="M671.51,-631.3C652.35,-646.04 625.8,-666.46 612.06,-677.03"/>
<polygon fill="black" stroke="black" points="609.99,-674.21 604.2,-683.08 614.26,-679.75 609.99,-674.21"/>
</g>
<!-- NASALib/lebesgue&#45;&gt;NASALib/extended_nnreal -->
<g id="edge40" class="edge">
<title>NASALib/lebesgue&#45;&gt;NASALib/extended_nnreal</title>
<path fill="none" stroke="black" d="M829,-540C829,-540 818.6,-517.24 809.65,-497.68"/>
<polygon fill="black" stroke="black" points="812.88,-496.32 805.54,-488.68 806.51,-499.23 812.88,-496.32"/>
</g>
<!-- NASALib/measure_integration -->
<g id="node11" class="node">
<title>NASALib/measure_integration</title>
<polygon fill="#fcfcd7" stroke="black" points="810,-559 682,-559 682,-523 810,-523 810,-559"/>
<text text-anchor="middle" x="746" y="-537.3" font-family="Times,serif" font-size="14.00">measure_integration</text>
</g>
<!-- NASALib/lebesgue&#45;&gt;NASALib/measure_integration -->
<g id="edge41" class="edge">
<title>NASALib/lebesgue&#45;&gt;NASALib/measure_integration</title>
<path fill="none" stroke="black" d="M706.85,-594.7C712.77,-586.73 719.93,-577.1 726.49,-568.26"/>
<polygon fill="black" stroke="black" points="729.24,-570.43 732.39,-560.32 723.62,-566.26 729.24,-570.43"/>
</g>
<!-- NASALib/metric_space -->
<g id="node12" class="node">
<title>NASALib/metric_space</title>
<polygon fill="#fcfcd7" stroke="black" points="645.5,-487 556.5,-487 556.5,-451 645.5,-451 645.5,-487"/>
<text text-anchor="middle" x="601" y="-465.3" font-family="Times,serif" font-size="14.00">metric_space</text>
</g>
<!-- NASALib/lebesgue&#45;&gt;NASALib/metric_space -->
<g id="edge42" class="edge">
<title>NASALib/lebesgue&#45;&gt;NASALib/metric_space</title>
<path fill="none" stroke="black" d="M682.21,-594.65C671.71,-579.19 658,-559 658,-559 658,-559 634.85,-522.85 618.05,-496.63"/>
<polygon fill="black" stroke="black" points="621.15,-494.97 612.81,-488.43 615.25,-498.74 621.15,-494.97"/>
</g>
<!-- NASALib/power -->
<g id="node14" class="node">
<title>NASALib/power</title>
<polygon fill="#fcfcd7" stroke="black" points="570,-415 516,-415 516,-379 570,-379 570,-415"/>
<text text-anchor="middle" x="543" y="-393.3" font-family="Times,serif" font-size="14.00">power</text>
</g>
<!-- NASALib/lebesgue&#45;&gt;NASALib/power -->
<g id="edge43" class="edge">
<title>NASALib/lebesgue&#45;&gt;NASALib/power</title>
<path fill="none" stroke="black" d="M673.7,-594.65C655.62,-579.19 632,-559 632,-559 632,-559 548,-487 548,-487 548,-487 546.06,-452.42 544.59,-426.37"/>
<polygon fill="black" stroke="black" points="548.1,-426.46 544.05,-416.67 541.12,-426.85 548.1,-426.46"/>
</g>
<!-- NASALib/sets_aux -->
<g id="node17" class="node">
<title>NASALib/sets_aux</title>
<polygon fill="#fcfcd7" stroke="black" points="828.5,-343 765.5,-343 765.5,-307 828.5,-307 828.5,-343"/>
<text text-anchor="middle" x="797" y="-321.3" font-family="Times,serif" font-size="14.00">sets_aux</text>
</g>
<!-- NASALib/lebesgue&#45;&gt;NASALib/sets_aux -->
<g id="edge45" class="edge">
<title>NASALib/lebesgue&#45;&gt;NASALib/sets_aux</title>
<path fill="none" stroke="black" d="M918,-396C918,-396 897,-379 897,-379 897,-379 866.21,-362.68 838.8,-348.15"/>
<polygon fill="black" stroke="black" points="840.73,-345.21 830.25,-343.62 837.45,-351.4 840.73,-345.21"/>
<path fill="none" stroke="black" d="M726.47,-599.71C767.83,-584.05 834,-559 834,-559 834,-559 918,-398 918,-398"/>
</g>
<!-- NASALib/lebesgue&#45;&gt;NASALib/sigma_set -->
<g id="edge46" class="edge">
<title>NASALib/lebesgue&#45;&gt;NASALib/sigma_set</title>
<path fill="none" stroke="black" d="M829,-540C829,-540 859,-487 859,-487 859,-487 859,-451 859,-451 859,-451 857.44,-439.17 855.79,-426.68"/>
<polygon fill="black" stroke="black" points="859.27,-426.31 854.49,-416.85 852.33,-427.23 859.27,-426.31"/>
</g>
<!-- NASALib/lebesgue&#45;&gt;NASALib/structures -->
<g id="edge47" class="edge">
<title>NASALib/lebesgue&#45;&gt;NASALib/structures</title>
<path fill="none" stroke="black" d="M687.12,-594.65C681,-579.19 673,-559 673,-559 673,-559 673,-326 673,-326"/>
<path fill="none" stroke="black" d="M673,-324C673,-324 673,-182 673,-182"/>
</g>
<!-- NASALib/topology -->
<g id="node20" class="node">
<title>NASALib/topology</title>
<polygon fill="#fcfcd7" stroke="black" points="757.5,-415 692.5,-415 692.5,-379 757.5,-379 757.5,-415"/>
<text text-anchor="middle" x="725" y="-393.3" font-family="Times,serif" font-size="14.00">topology</text>
</g>
<!-- NASALib/lebesgue&#45;&gt;NASALib/topology -->
<g id="edge48" class="edge">
<title>NASALib/lebesgue&#45;&gt;NASALib/topology</title>
<path fill="none" stroke="black" d="M726.19,-598.35C763.23,-582.65 819,-559 819,-559 819,-559 829,-542 829,-542"/>
<path fill="none" stroke="black" d="M829,-540C829,-540 819,-523 819,-523 819,-523 735,-487 735,-487 735,-487 731.12,-452.42 728.19,-426.37"/>
<polygon fill="black" stroke="black" points="731.69,-426.21 727.1,-416.66 724.74,-426.99 731.69,-426.21"/>
</g>
<!-- NASALib/lnexp&#45;&gt;NASALib/analysis -->
<g id="edge49" class="edge">
<title>NASALib/lnexp&#45;&gt;NASALib/analysis</title>
<path fill="none" stroke="black" d="M261.52,-343.3C260.41,-356.26 258.92,-373.6 257.96,-384.79"/>
<polygon fill="black" stroke="black" points="254.5,-384.23 257.13,-394.49 261.47,-384.83 254.5,-384.23"/>
<path fill="none" stroke="black" d="M257,-398C257,-398 272,-487 272,-487 272,-487 332,-631 332,-631 332,-631 397,-684 397,-684"/>
<path fill="none" stroke="black" d="M397,-686C397,-686 407,-703 407,-703 407,-703 430.62,-723.19 448.7,-738.65"/>
</g>
<!-- NASALib/lnexp&#45;&gt;NASALib/ints -->
<g id="edge50" class="edge">
<title>NASALib/lnexp&#45;&gt;NASALib/ints</title>
<path fill="none" stroke="black" d="M268.69,-306.7C275.5,-285.97 286,-254 286,-254"/>
</g>
<!-- NASALib/lnexp&#45;&gt;NASALib/reals -->
<g id="edge51" class="edge">
<title>NASALib/lnexp&#45;&gt;NASALib/reals</title>
<path fill="none" stroke="black" d="M257,-398C257,-398 391.26,-604.45 431.64,-666.54"/>
</g>
<!-- NASALib/lnexp&#45;&gt;NASALib/series -->
<g id="edge52" class="edge">
<title>NASALib/lnexp&#45;&gt;NASALib/series</title>
<path fill="none" stroke="black" d="M290.27,-314.03C332.28,-298.68 408,-271 408,-271 408,-271 409.37,-270.43 411.62,-269.5"/>
<polygon fill="black" stroke="black" points="412.59,-272.89 420.48,-265.82 409.9,-266.42 412.59,-272.89"/>
</g>
<!-- NASALib/measure_integration&#45;&gt;NASALib/extended_nnreal -->
<g id="edge53" class="edge">
<title>NASALib/measure_integration&#45;&gt;NASALib/extended_nnreal</title>
<path fill="none" stroke="black" d="M758.61,-522.7C764.41,-514.73 771.43,-505.1 777.86,-496.26"/>
<polygon fill="black" stroke="black" points="780.59,-498.47 783.65,-488.33 774.93,-494.35 780.59,-498.47"/>
</g>
<!-- NASALib/measure_integration&#45;&gt;NASALib/metric_space -->
<g id="edge54" class="edge">
<title>NASALib/measure_integration&#45;&gt;NASALib/metric_space</title>
<path fill="none" stroke="black" d="M709.78,-522.52C690.86,-513.38 667.48,-502.09 647.25,-492.33"/>
<polygon fill="black" stroke="black" points="648.9,-489.24 638.37,-488.04 645.85,-495.54 648.9,-489.24"/>
</g>
<!-- NASALib/measure_integration&#45;&gt;NASALib/orders -->
<g id="edge55" class="edge">
<title>NASALib/measure_integration&#45;&gt;NASALib/orders</title>
<path fill="none" stroke="black" d="M797,-396C797,-396 808,-379 808,-379 808,-379 838,-343 838,-343 838,-343 848,-326 848,-326"/>
<path fill="none" stroke="black" d="M848,-324C848,-324 845.47,-252.2 844.01,-210.71"/>
<polygon fill="black" stroke="black" points="847.52,-210.8 843.67,-200.92 840.52,-211.04 847.52,-210.8"/>
</g>
<!-- NASALib/measure_integration&#45;&gt;NASALib/power -->
<g id="edge56" class="edge">
<title>NASALib/measure_integration&#45;&gt;NASALib/power</title>
<path fill="none" stroke="black" d="M705,-468C705,-468 628.68,-435.02 580.81,-414.34"/>
<polygon fill="black" stroke="black" points="582.44,-411.23 571.87,-410.47 579.66,-417.65 582.44,-411.23"/>
<path fill="none" stroke="black" d="M735.87,-522.7C723.72,-501.97 705,-470 705,-470"/>
</g>
<!-- NASALib/measure_integration&#45;&gt;NASALib/reals -->
<g id="edge57" class="edge">
<title>NASALib/measure_integration&#45;&gt;NASALib/reals</title>
<path fill="none" stroke="black" d="M715.55,-559.35C688.43,-574.81 653,-595 653,-595 653,-595 650.95,-598.49 648.7,-602.31"/>
<polygon fill="black" stroke="black" points="645.82,-600.3 643.77,-610.7 651.85,-603.85 645.82,-600.3"/>
</g>
<!-- NASALib/measure_integration&#45;&gt;NASALib/series -->
<g id="edge58" class="edge">
<title>NASALib/measure_integration&#45;&gt;NASALib/series</title>
<path fill="none" stroke="black" d="M705,-468C705,-468 668,-415 668,-415 668,-415 613,-326 613,-326"/>
</g>
<!-- NASALib/measure_integration&#45;&gt;NASALib/sets_aux -->
<g id="edge59" class="edge">
<title>NASALib/measure_integration&#45;&gt;NASALib/sets_aux</title>
<path fill="none" stroke="black" d="M797,-396C797,-396 797,-374.08 797,-354.77"/>
<polygon fill="black" stroke="black" points="800.5,-354.82 797,-344.82 793.5,-354.82 800.5,-354.82"/>
<path fill="none" stroke="black" d="M705,-468C705,-468 797,-398 797,-398"/>
</g>
<!-- NASALib/measure_integration&#45;&gt;NASALib/sigma_set -->
<g id="edge60" class="edge">
<title>NASALib/measure_integration&#45;&gt;NASALib/sigma_set</title>
<path fill="none" stroke="black" d="M705,-468C705,-468 735,-451 735,-451 735,-451 773.15,-433.72 805.88,-418.89"/>
<polygon fill="black" stroke="black" points="807.22,-422.13 814.88,-414.81 804.33,-415.75 807.22,-422.13"/>
</g>
<!-- NASALib/measure_integration&#45;&gt;NASALib/structures -->
<g id="edge61" class="edge">
<title>NASALib/measure_integration&#45;&gt;NASALib/structures</title>
<path fill="none" stroke="black" d="M705,-468C705,-468 684,-415 684,-415 684,-415 673,-326 673,-326"/>
</g>
<!-- NASALib/measure_integration&#45;&gt;NASALib/topology -->
<g id="edge62" class="edge">
<title>NASALib/measure_integration&#45;&gt;NASALib/topology</title>
<path fill="none" stroke="black" d="M705,-468C705,-468 711.38,-445.66 716.94,-426.22"/>
<polygon fill="black" stroke="black" points="720.26,-427.34 719.64,-416.76 713.53,-425.41 720.26,-427.34"/>
</g>
<!-- NASALib/measure_integration&#45;&gt;lib/finite_sets -->
<g id="edge63" class="edge">
<title>NASALib/measure_integration&#45;&gt;lib/finite_sets</title>
<path fill="none" stroke="black" d="M998,-468C998,-468 998,-398 998,-398"/>
<path fill="none" stroke="black" d="M810.49,-525.52C880.36,-509.83 982,-487 982,-487 982,-487 998,-470 998,-470"/>
</g>
<!-- NASALib/metric_space&#45;&gt;NASALib/analysis -->
<g id="edge64" class="edge">
<title>NASALib/metric_space&#45;&gt;NASALib/analysis</title>
<path fill="none" stroke="black" d="M601.16,-487.15C601.56,-529.4 602.57,-637.62 602.9,-672.78"/>
<polygon fill="black" stroke="black" points="599.39,-672.52 602.99,-682.49 606.39,-672.45 599.39,-672.52"/>
</g>
<!-- NASALib/metric_space&#45;&gt;NASALib/power -->
<g id="edge65" class="edge">
<title>NASALib/metric_space&#45;&gt;NASALib/power</title>
<path fill="none" stroke="black" d="M586.66,-450.7C579.92,-442.56 571.74,-432.69 564.3,-423.7"/>
<polygon fill="black" stroke="black" points="567.21,-421.74 558.14,-416.27 561.82,-426.2 567.21,-421.74"/>
</g>
<!-- NASALib/metric_space&#45;&gt;NASALib/series -->
<g id="edge67" class="edge">
<title>NASALib/metric_space&#45;&gt;NASALib/series</title>
<path fill="none" stroke="black" d="M602.35,-450.84C604.38,-424.98 608,-379 608,-379 608,-379 613,-326 613,-326"/>
<path fill="none" stroke="black" d="M613,-324C613,-324 535.33,-290.85 486.89,-270.17"/>
<polygon fill="black" stroke="black" points="488.41,-267.02 477.84,-266.31 485.67,-273.46 488.41,-267.02"/>
</g>
<!-- NASALib/metric_space&#45;&gt;NASALib/sets_aux -->
<g id="edge68" class="edge">
<title>NASALib/metric_space&#45;&gt;NASALib/sets_aux</title>
<path fill="none" stroke="black" d="M617,-450.84C641.12,-424.98 684,-379 684,-379 684,-379 722.92,-360.75 755.08,-345.66"/>
<polygon fill="black" stroke="black" points="756.28,-348.96 763.85,-341.55 753.31,-342.62 756.28,-348.96"/>
</g>
<!-- NASALib/metric_space&#45;&gt;NASALib/topology -->
<g id="edge69" class="edge">
<title>NASALib/metric_space&#45;&gt;NASALib/topology</title>
<path fill="none" stroke="black" d="M631.97,-450.52C647.92,-441.51 667.56,-430.42 684.68,-420.76"/>
<polygon fill="black" stroke="black" points="686.12,-423.97 693.11,-416 682.68,-417.87 686.12,-423.97"/>
</g>
<!-- NASALib/metric_space&#45;&gt;NASALib/vectors -->
<g id="edge70" class="edge">
<title>NASALib/metric_space&#45;&gt;NASALib/vectors</title>
<path fill="none" stroke="black" d="M563.29,-450.52C540.51,-439.96 511.56,-426.54 488.62,-415.9"/>
<polygon fill="black" stroke="black" points="490.14,-412.75 479.6,-411.72 487.2,-419.1 490.14,-412.75"/>
</g>
<!-- NASALib/metric_space&#45;&gt;lib/finite_sets -->
<g id="edge71" class="edge">
<title>NASALib/metric_space&#45;&gt;lib/finite_sets</title>
<path fill="none" stroke="black" d="M645.87,-460.3C672.06,-455.8 700,-451 700,-451 700,-451 923,-415 923,-415 923,-415 998,-398 998,-398"/>
<path fill="none" stroke="black" d="M998,-396C998,-396 998,-254 998,-254"/>
</g>
<!-- NASALib/orders&#45;&gt;NASALib/structures -->
<g id="edge72" class="edge">
<title>NASALib/orders&#45;&gt;NASALib/structures</title>
<path fill="none" stroke="black" d="M818.02,-162.52C805.64,-153.85 790.5,-143.25 777.07,-133.85"/>
<polygon fill="black" stroke="black" points="779.1,-131 768.9,-128.13 775.08,-136.73 779.1,-131"/>
</g>
<!-- NASALib/orders&#45;&gt;lib/finite_sets -->
<g id="edge73" class="edge">
<title>NASALib/orders&#45;&gt;lib/finite_sets</title>
<path fill="none" stroke="black" d="M998,-108C998,-108 1008.84,-83.26 1017.91,-62.59"/>
<polygon fill="black" stroke="black" points="1021,-64.25 1021.81,-53.69 1014.59,-61.44 1021,-64.25"/>
<path fill="none" stroke="black" d="M870.35,-167.65C914.85,-147.55 998,-110 998,-110"/>
</g>
<!-- NASALib/power&#45;&gt;NASALib/analysis -->
<g id="edge74" class="edge">
<title>NASALib/power&#45;&gt;NASALib/analysis</title>
<path fill="none" stroke="black" d="M519.75,-415.35C499.05,-430.81 472,-451 472,-451 472,-451 433.03,-565.09 420.69,-601.19"/>
<polygon fill="black" stroke="black" points="417.41,-599.97 417.49,-610.57 424.03,-602.24 417.41,-599.97"/>
</g>
<!-- NASALib/power&#45;&gt;NASALib/lnexp -->
<g id="edge75" class="edge">
<title>NASALib/power&#45;&gt;NASALib/lnexp</title>
<path fill="none" stroke="black" d="M515.66,-387.7C501.44,-383.38 487,-379 487,-379 487,-379 321,-343 321,-343 321,-343 312.01,-340.36 301.11,-337.17"/>
<polygon fill="black" stroke="black" points="302.33,-333.88 291.75,-334.43 300.37,-340.6 302.33,-333.88"/>
</g>
<!-- NASALib/power&#45;&gt;NASALib/reals -->
<g id="edge76" class="edge">
<title>NASALib/power&#45;&gt;NASALib/reals</title>
<path fill="none" stroke="black" d="M539.81,-415.41C534.39,-445.04 523.52,-504.41 519.02,-528.98"/>
<polygon fill="black" stroke="black" points="515.63,-528.04 517.27,-538.51 522.52,-529.31 515.63,-528.04"/>
</g>
<!-- NASALib/reals&#45;&gt;NASALib/ints -->
<g id="edge77" class="edge">
<title>NASALib/reals&#45;&gt;NASALib/ints</title>
<path fill="none" stroke="black" d="M423.03,-666.65C405.24,-651.19 382,-631 382,-631 382,-631 318,-415 318,-415 318,-415 299,-307 299,-307 299,-307 286,-254 286,-254"/>
</g>
<!-- NASALib/reals&#45;&gt;NASALib/lebesgue -->
<g id="edge78" class="edge">
<title>NASALib/reals&#45;&gt;NASALib/lebesgue</title>
<path fill="none" stroke="black" d="M481.04,-674.17C540.31,-658.84 648,-631 648,-631 648,-631 649.14,-630.58 651.05,-629.87"/>
<polygon fill="black" stroke="black" points="480.49,-670.69 471.69,-676.58 482.25,-677.47 480.49,-670.69"/>
<polygon fill="black" stroke="black" points="651.97,-633.27 660.13,-626.52 649.54,-626.7 651.97,-633.27"/>
</g>
<!-- NASALib/reals&#45;&gt;NASALib/metric_space -->
<g id="edge79" class="edge">
<title>NASALib/reals&#45;&gt;NASALib/metric_space</title>
<path fill="none" stroke="black" d="M478.33,-660.3C499.37,-646.18 522,-631 522,-631 522,-631 565,-543.38 587.55,-497.41"/>
<polygon fill="black" stroke="black" points="476.48,-657.32 470.12,-665.8 480.38,-663.14 476.48,-657.32"/>
<polygon fill="black" stroke="black" points="590.62,-499.11 591.88,-488.59 584.33,-496.02 590.62,-499.11"/>
</g>
<!-- NASALib/reals&#45;&gt;NASALib/sets_aux -->
<g id="edge80" class="edge">
<title>NASALib/reals&#45;&gt;NASALib/sets_aux</title>
<path fill="none" stroke="black" d="M470.29,-680.48C562.08,-668.64 854,-631 854,-631 854,-631 914,-487 914,-487 914,-487 918,-398 918,-398"/>
</g>
<!-- NASALib/reals&#45;&gt;NASALib/structures -->
<g id="edge81" class="edge">
<title>NASALib/reals&#45;&gt;NASALib/structures</title>
<path fill="none" stroke="black" d="M441.07,-666.73C433.08,-595.22 403,-326 403,-326"/>
</g>
<!-- NASALib/series&#45;&gt;NASALib/analysis -->
<g id="edge82" class="edge">
<title>NASALib/series&#45;&gt;NASALib/analysis</title>
<path fill="none" stroke="black" d="M603,-686C603,-686 538.94,-719.46 499.41,-740.12"/>
<path fill="none" stroke="black" d="M497,-398C497,-398 603,-684 603,-684"/>
</g>
<!-- NASALib/series&#45;&gt;NASALib/ints -->
<g id="edge83" class="edge">
<title>NASALib/series&#45;&gt;NASALib/ints</title>
<path fill="none" stroke="black" d="M432.69,-234.7C413.14,-213.97 383,-182 383,-182"/>
</g>
<!-- NASALib/series&#45;&gt;NASALib/orders -->
<g id="edge84" class="edge">
<title>NASALib/series&#45;&gt;NASALib/orders</title>
<path fill="none" stroke="black" d="M476.41,-247.89C559.34,-235.43 802,-199 802,-199 802,-199 803.37,-198.43 805.62,-197.5"/>
<polygon fill="black" stroke="black" points="806.59,-200.89 814.48,-193.82 803.9,-194.42 806.59,-200.89"/>
</g>
<!-- NASALib/series&#45;&gt;NASALib/reals -->
<g id="edge85" class="edge">
<title>NASALib/series&#45;&gt;NASALib/reals</title>
<path fill="none" stroke="black" d="M454.89,-271.41C464.95,-301.18 485.17,-361.01 493.4,-385.34"/>
<polygon fill="black" stroke="black" points="490,-386.21 496.52,-394.57 496.63,-383.97 490,-386.21"/>
<path fill="none" stroke="black" d="M497,-398C497,-398 477,-468 477,-468"/>
</g>
<!-- NASALib/sets_aux&#45;&gt;NASALib/ints -->
<g id="edge86" class="edge">
<title>NASALib/sets_aux&#45;&gt;NASALib/ints</title>
<path fill="none" stroke="black" d="M797,-180C797,-180 787,-91 787,-91 787,-91 775.07,-75.81 763.63,-61.25"/>
<polygon fill="black" stroke="black" points="766.55,-59.3 757.62,-53.6 761.04,-63.63 766.55,-59.3"/>
</g>
<!-- NASALib/sets_aux&#45;&gt;NASALib/orders -->
<g id="edge87" class="edge">
<title>NASALib/sets_aux&#45;&gt;NASALib/orders</title>
<path fill="none" stroke="black" d="M797,-252C797,-252 812.37,-228.61 825.35,-208.87"/>
<polygon fill="black" stroke="black" points="828.23,-210.85 830.8,-200.57 822.38,-207 828.23,-210.85"/>
</g>
<!-- NASALib/sets_aux&#45;&gt;NASALib/structures -->
<g id="edge88" class="edge">
<title>NASALib/sets_aux&#45;&gt;NASALib/structures</title>
<path fill="none" stroke="black" d="M797,-306.7C797,-285.97 797,-254 797,-254"/>
<path fill="none" stroke="black" d="M797,-180C797,-180 778.62,-156.18 763.31,-136.33"/>
<polygon fill="black" stroke="black" points="766.15,-134.28 757.27,-128.5 760.61,-138.56 766.15,-134.28"/>
<path fill="none" stroke="black" d="M797,-252C797,-252 797,-182 797,-182"/>
</g>
<!-- NASALib/sets_aux&#45;&gt;lib/finite_sets -->
<g id="edge89" class="edge">
<title>NASALib/sets_aux&#45;&gt;lib/finite_sets</title>
<path fill="none" stroke="black" d="M998,-252C998,-252 998,-110 998,-110"/>
<path fill="none" stroke="black" d="M828.85,-312.91C885.53,-293.17 998,-254 998,-254"/>
</g>
<!-- NASALib/sigma_set&#45;&gt;NASALib/analysis -->
<g id="edge90" class="edge">
<title>NASALib/sigma_set&#45;&gt;NASALib/analysis</title>
<path fill="none" stroke="black" d="M909,-470C909,-470 909,-540 909,-540"/>
</g>
<!-- NASALib/sigma_set&#45;&gt;NASALib/orders -->
<g id="edge91" class="edge">
<title>NASALib/sigma_set&#45;&gt;NASALib/orders</title>
<path fill="none" stroke="black" d="M851.01,-378.7C849.83,-357.97 848,-326 848,-326"/>
</g>
<!-- NASALib/sigma_set&#45;&gt;NASALib/reals -->
<g id="edge92" class="edge">
<title>NASALib/sigma_set&#45;&gt;NASALib/reals</title>
<path fill="none" stroke="black" d="M866.09,-415.3C877.43,-429.23 892.9,-448.23 901.84,-459.2"/>
<polygon fill="black" stroke="black" points="899.02,-461.28 908.04,-466.83 904.44,-456.86 899.02,-461.28"/>
<path fill="none" stroke="black" d="M909,-470C909,-470 854,-595 854,-595 854,-595 849,-612 849,-612"/>
</g>
<!-- NASALib/sigma_set&#45;&gt;NASALib/series -->
<g id="edge93" class="edge">
<title>NASALib/sigma_set&#45;&gt;NASALib/series</title>
<path fill="none" stroke="black" d="M820.89,-378.65C793.19,-363.19 757,-343 757,-343 757,-343 746,-326 746,-326"/>
</g>
<!-- NASALib/sigma_set&#45;&gt;NASALib/sets_aux -->
<g id="edge94" class="edge">
<title>NASALib/sigma_set&#45;&gt;NASALib/sets_aux</title>
<path fill="none" stroke="black" d="M838.4,-378.7C832.08,-370.64 824.42,-360.89 817.41,-351.98"/>
<polygon fill="black" stroke="black" points="820.3,-350 811.37,-344.29 814.8,-354.32 820.3,-350"/>
</g>
<!-- NASALib/structures&#45;&gt;NASALib/ints -->
<g id="edge95" class="edge">
<title>NASALib/structures&#45;&gt;NASALib/ints</title>
<path fill="none" stroke="black" d="M743,-90.7C743,-82.67 743,-72.9 743,-63.8"/>
<polygon fill="black" stroke="black" points="746.5,-63.94 743,-53.94 739.5,-63.94 746.5,-63.94"/>
</g>
<!-- NASALib/structures&#45;&gt;lib/finite_sets -->
<g id="edge96" class="edge">
<title>NASALib/structures&#45;&gt;lib/finite_sets</title>
<path fill="none" stroke="black" d="M777.75,-104.36C844.04,-97.43 982,-83 982,-83 982,-83 993.17,-71.83 1004.73,-60.27"/>
<polygon fill="black" stroke="black" points="1007,-62.95 1011.6,-53.4 1002.05,-58 1007,-62.95"/>
</g>
<!-- NASALib/topology&#45;&gt;NASALib/reals -->
<g id="edge97" class="edge">
<title>NASALib/topology&#45;&gt;NASALib/reals</title>
<path fill="none" stroke="black" d="M643,-614C643,-614 525.16,-655.24 470.39,-674.41"/>
<path fill="none" stroke="black" d="M716.81,-415.35C709.52,-430.81 700,-451 700,-451 700,-451 673,-523 673,-523 673,-523 654.51,-577.87 646.56,-601.44"/>
<polygon fill="black" stroke="black" points="643.36,-599.97 643.48,-610.57 649.99,-602.21 643.36,-599.97"/>
</g>
<!-- NASALib/topology&#45;&gt;NASALib/sets_aux -->
<g id="edge98" class="edge">
<title>NASALib/topology&#45;&gt;NASALib/sets_aux</title>
<path fill="none" stroke="black" d="M742.8,-378.7C751.28,-370.45 761.59,-360.43 770.93,-351.35"/>
<polygon fill="black" stroke="black" points="773.34,-353.88 778.07,-344.4 768.46,-348.86 773.34,-353.88"/>
</g>
<!-- NASALib/topology&#45;&gt;NASALib/structures -->
<g id="edge99" class="edge">
<title>NASALib/topology&#45;&gt;NASALib/structures</title>
<path fill="none" stroke="black" d="M712.15,-378.7C696.75,-357.97 673,-326 673,-326"/>
</g>
<!-- NASALib/trig&#45;&gt;NASALib/analysis -->
<g id="edge100" class="edge">
<title>NASALib/trig&#45;&gt;NASALib/analysis</title>
<path fill="none" stroke="black" d="M417,-614C417,-614 397,-684 397,-684"/>
<path fill="none" stroke="black" d="M357.19,-343.16C357.48,-369.02 358,-415 358,-415 358,-415 401.38,-559.83 413.74,-601.13"/>
<polygon fill="black" stroke="black" points="410.34,-601.97 416.57,-610.55 417.05,-599.97 410.34,-601.97"/>
</g>
<!-- NASALib/trig&#45;&gt;NASALib/ints -->
<g id="edge101" class="edge">
<title>NASALib/trig&#45;&gt;NASALib/ints</title>
<path fill="none" stroke="black" d="M383,-180C383,-180 383,-110 383,-110"/>
<path fill="none" stroke="black" d="M360.19,-306.59C367.13,-268.67 383,-182 383,-182"/>
</g>
<!-- NASALib/trig&#45;&gt;NASALib/reals -->
<g id="edge102" class="edge">
<title>NASALib/trig&#45;&gt;NASALib/reals</title>
<path fill="none" stroke="black" d="M361.16,-343.24C375.51,-402.61 422,-595 422,-595 422,-595 430.23,-629.89 436.39,-655.98"/>
<polygon fill="black" stroke="black" points="432.9,-656.44 438.6,-665.37 439.71,-654.83 432.9,-656.44"/>
</g>
<!-- NASALib/trig&#45;&gt;NASALib/series -->
<g id="edge103" class="edge">
<title>NASALib/trig&#45;&gt;NASALib/series</title>
<path fill="none" stroke="black" d="M379.74,-306.7C391.02,-298.11 404.83,-287.61 417.14,-278.24"/>
<polygon fill="black" stroke="black" points="419.16,-281.1 425,-272.26 414.92,-275.53 419.16,-281.1"/>
</g>
<!-- NASALib/vectors&#45;&gt;NASALib/reals -->
<g id="edge104" class="edge">
<title>NASALib/vectors&#45;&gt;NASALib/reals</title>
<path fill="none" stroke="black" d="M477,-470C477,-470 517,-540 517,-540"/>
<path fill="none" stroke="black" d="M517,-542C517,-542 471.83,-628.67 452.07,-666.59"/>
<path fill="none" stroke="black" d="M456.67,-415.3C461.8,-428.58 468.7,-446.47 473,-457.62"/>
<polygon fill="black" stroke="black" points="469.59,-458.52 476.46,-466.59 476.12,-456 469.59,-458.52"/>
</g>
<!-- NASALib/vectors&#45;&gt;NASALib/structures -->
<g id="edge105" class="edge">
<title>NASALib/vectors&#45;&gt;NASALib/structures</title>
<path fill="none" stroke="black" d="M438.38,-378.7C424.46,-357.97 403,-326 403,-326"/>
</g>
<!-- NASALib/vectors&#45;&gt;NASALib/trig -->
<g id="edge106" class="edge">
<title>NASALib/vectors&#45;&gt;NASALib/trig</title>
<path fill="none" stroke="black" d="M427.01,-378.7C415.61,-370.11 401.65,-359.61 389.2,-350.24"/>
<polygon fill="black" stroke="black" points="391.35,-347.47 381.26,-344.26 387.14,-353.07 391.35,-347.47"/>
</g>
</g>
</svg>
