<?xml version="1.0" encoding="UTF-8" standalone="no"?>
<!DOCTYPE svg PUBLIC "-//W3C//DTD SVG 1.1//EN"
 "http://www.w3.org/Graphics/SVG/1.1/DTD/svg11.dtd">
<!-- Generated by graphviz version 7.0.6 (20230106.0513)
 -->
<!-- Title: PVSioChecker&#45;zoomed Pages: 1 -->
<svg width="559pt" height="246pt"
 viewBox="0.00 0.00 559.00 246.00" xmlns="http://www.w3.org/2000/svg" xmlns:xlink="http://www.w3.org/1999/xlink">
<g id="graph0" class="graph" transform="scale(1 1) rotate(0) translate(4 242)">
<title>PVSioChecker&#45;zoomed</title>
<polygon fill="white" stroke="none" points="-4,4 -4,-242 555,-242 555,4 -4,4"/>
<g id="clust2" class="cluster">
<title>cluster_NASALib/PVSioChecker</title>
<polygon fill="none" stroke="black" points="8,-8 8,-230 463,-230 463,-8 8,-8"/>
<text text-anchor="middle" x="235.5" y="-214.8" font-family="Times,serif" font-size="14.00">NASALib/PVSioChecker</text>
</g>
<g id="clust1" class="cluster">
<title>cluster_NASALib</title>
<polygon fill="none" stroke="black" points="471,-8 471,-83 543,-83 543,-8 471,-8"/>
<text text-anchor="middle" x="507" y="-67.8" font-family="Times,serif" font-size="14.00">NASALib</text>
</g>
<!-- NASALib/PVSioChecker@csv_reader -->
<g id="node1" class="node">
<title>NASALib/PVSioChecker@csv_reader</title>
<ellipse fill="#e6f3ff" stroke="black" cx="272" cy="-181" rx="48.99" ry="18"/>
<text text-anchor="middle" x="272" y="-177.3" font-family="Times,serif" font-size="14.00">csv_reader</text>
</g>
<!-- NASALib/PVSioChecker@csv_writer -->
<g id="node2" class="node">
<title>NASALib/PVSioChecker@csv_writer</title>
<ellipse fill="#e6f3ff" stroke="black" cx="397" cy="-109" rx="48.19" ry="18"/>
<text text-anchor="middle" x="397" y="-105.3" font-family="Times,serif" font-size="14.00">csv_writer</text>
</g>
<!-- NASALib/PVSioChecker@csv_reader&#45;&gt;NASALib/PVSioChecker@csv_writer -->
<g id="edge1" class="edge">
<title>NASALib/PVSioChecker@csv_reader&#45;&gt;NASALib/PVSioChecker@csv_writer</title>
<path fill="none" stroke="black" d="M298.2,-165.33C316.49,-155.08 341.13,-141.29 361.22,-130.04"/>
<polygon fill="black" stroke="black" points="362.92,-133.09 369.94,-125.15 359.5,-126.99 362.92,-133.09"/>
</g>
<!-- NASALib/PVSioChecker@pvsio_checker -->
<g id="node7" class="node">
<title>NASALib/PVSioChecker@pvsio_checker</title>
<ellipse fill="#e6f3ff" stroke="black" cx="180" cy="-109" rx="61.99" ry="18"/>
<text text-anchor="middle" x="180" y="-105.3" font-family="Times,serif" font-size="14.00">pvsio_checker</text>
</g>
<!-- NASALib/PVSioChecker@csv_reader&#45;&gt;NASALib/PVSioChecker@pvsio_checker -->
<g id="edge2" class="edge">
<title>NASALib/PVSioChecker@csv_reader&#45;&gt;NASALib/PVSioChecker@pvsio_checker</title>
<path fill="none" stroke="black" d="M251.58,-164.46C239.45,-155.24 223.84,-143.36 210.3,-133.05"/>
<polygon fill="black" stroke="black" points="212.6,-130.41 202.52,-127.14 208.36,-135.98 212.6,-130.41"/>
</g>
<!-- NASALib/PVSioChecker@str_util -->
<g id="node8" class="node">
<title>NASALib/PVSioChecker@str_util</title>
<ellipse fill="#e6f3ff" stroke="black" cx="295" cy="-109" rx="36" ry="18"/>
<text text-anchor="middle" x="295" y="-105.3" font-family="Times,serif" font-size="14.00">str_util</text>
</g>
<!-- NASALib/PVSioChecker@csv_reader&#45;&gt;NASALib/PVSioChecker@str_util -->
<g id="edge3" class="edge">
<title>NASALib/PVSioChecker@csv_reader&#45;&gt;NASALib/PVSioChecker@str_util</title>
<path fill="none" stroke="black" d="M277.69,-162.7C280.14,-155.24 283.07,-146.32 285.81,-137.97"/>
<polygon fill="black" stroke="black" points="289.11,-139.14 288.91,-128.54 282.46,-136.95 289.11,-139.14"/>
</g>
<!-- NASALib/PVSioChecker@csv_writerow -->
<g id="node3" class="node">
<title>NASALib/PVSioChecker@csv_writerow</title>
<ellipse fill="#e6f3ff" stroke="black" cx="397" cy="-181" rx="58.49" ry="18"/>
<text text-anchor="middle" x="397" y="-177.3" font-family="Times,serif" font-size="14.00">csv_writerow</text>
</g>
<!-- NASALib/PVSioChecker@csv_writerow&#45;&gt;NASALib/PVSioChecker@csv_writer -->
<g id="edge4" class="edge">
<title>NASALib/PVSioChecker@csv_writerow&#45;&gt;NASALib/PVSioChecker@csv_writer</title>
<path fill="none" stroke="black" d="M397,-162.7C397,-155.41 397,-146.73 397,-138.54"/>
<polygon fill="black" stroke="black" points="400.5,-138.62 397,-128.62 393.5,-138.62 400.5,-138.62"/>
</g>
<!-- NASALib/PVSioChecker@is_prime -->
<g id="node4" class="node">
<title>NASALib/PVSioChecker@is_prime</title>
<ellipse fill="#e6f3ff" stroke="black" cx="58" cy="-109" rx="42.49" ry="18"/>
<text text-anchor="middle" x="58" y="-105.3" font-family="Times,serif" font-size="14.00">is_prime</text>
</g>
<!-- NASALib/PVSioChecker@pathname -->
<g id="node5" class="node">
<title>NASALib/PVSioChecker@pathname</title>
<ellipse fill="#e6f3ff" stroke="black" cx="127" cy="-34" rx="45.49" ry="18"/>
<text text-anchor="middle" x="127" y="-30.3" font-family="Times,serif" font-size="14.00">pathname</text>
</g>
<!-- NASALib/PVSioChecker@prime_check -->
<g id="node6" class="node">
<title>NASALib/PVSioChecker@prime_check</title>
<ellipse fill="#e6f3ff" stroke="black" cx="111" cy="-181" rx="56.59" ry="18"/>
<text text-anchor="middle" x="111" y="-177.3" font-family="Times,serif" font-size="14.00">prime_check</text>
</g>
<!-- NASALib/PVSioChecker@prime_check&#45;&gt;NASALib/PVSioChecker@is_prime -->
<g id="edge5" class="edge">
<title>NASALib/PVSioChecker@prime_check&#45;&gt;NASALib/PVSioChecker@is_prime</title>
<path fill="none" stroke="black" d="M98.17,-163.05C91.89,-154.77 84.21,-144.62 77.25,-135.42"/>
<polygon fill="black" stroke="black" points="80.09,-133.37 71.26,-127.51 74.51,-137.6 80.09,-133.37"/>
</g>
<!-- NASALib/PVSioChecker@prime_check&#45;&gt;NASALib/PVSioChecker@pvsio_checker -->
<g id="edge6" class="edge">
<title>NASALib/PVSioChecker@prime_check&#45;&gt;NASALib/PVSioChecker@pvsio_checker</title>
<path fill="none" stroke="black" d="M127.35,-163.41C135.86,-154.78 146.42,-144.06 155.85,-134.5"/>
<polygon fill="black" stroke="black" points="158.18,-137.13 162.7,-127.55 153.19,-132.21 158.18,-137.13"/>
</g>
<!-- NASALib/PVSioChecker@pvsio_checker&#45;&gt;NASALib/PVSioChecker@pathname -->
<g id="edge7" class="edge">
<title>NASALib/PVSioChecker@pvsio_checker&#45;&gt;NASALib/PVSioChecker@pathname</title>
<path fill="none" stroke="black" d="M167.71,-91.07C161.17,-82.07 153,-70.81 145.7,-60.75"/>
<polygon fill="black" stroke="black" points="148.64,-58.85 139.93,-52.81 142.98,-62.96 148.64,-58.85"/>
</g>
<!-- NASALib/PVSioChecker@time_fun -->
<g id="node9" class="node">
<title>NASALib/PVSioChecker@time_fun</title>
<ellipse fill="#e6f3ff" stroke="black" cx="233" cy="-34" rx="42.79" ry="18"/>
<text text-anchor="middle" x="233" y="-30.3" font-family="Times,serif" font-size="14.00">time_fun</text>
</g>
<!-- NASALib/PVSioChecker@pvsio_checker&#45;&gt;NASALib/PVSioChecker@time_fun -->
<g id="edge8" class="edge">
<title>NASALib/PVSioChecker@pvsio_checker&#45;&gt;NASALib/PVSioChecker@time_fun</title>
<path fill="none" stroke="black" d="M192.29,-91.07C198.83,-82.07 207,-70.81 214.3,-60.75"/>
<polygon fill="black" stroke="black" points="217.02,-62.96 220.07,-52.81 211.36,-58.85 217.02,-62.96"/>
</g>
<!-- NASALib/reals -->
<g id="node10" class="node">
<title>NASALib/reals</title>
<polygon fill="#fcfcd7" stroke="black" points="533,-52 479,-52 479,-16 533,-16 533,-52"/>
<text text-anchor="middle" x="506" y="-30.3" font-family="Times,serif" font-size="14.00">reals</text>
</g>
<!-- NASALib/PVSioChecker@pvsio_checker&#45;&gt;NASALib/reals -->
<g id="edge9" class="edge">
<title>NASALib/PVSioChecker@pvsio_checker&#45;&gt;NASALib/reals</title>
<path fill="none" stroke="black" d="M226.3,-96.76C239.32,-93.59 250,-91 250,-91 250,-91 467,-83 467,-83 467,-83 475.56,-72.46 484.66,-61.26"/>
<polygon fill="black" stroke="black" points="487.38,-63.47 490.97,-53.5 481.94,-59.06 487.38,-63.47"/>
</g>
</g>
</svg>
