<?xml version="1.0" encoding="UTF-8" standalone="no"?>
<!DOCTYPE svg PUBLIC "-//W3C//DTD SVG 1.1//EN"
 "http://www.w3.org/Graphics/SVG/1.1/DTD/svg11.dtd">
<!-- Generated by graphviz version 2.40.1 (20161225.0304)
 -->
<!-- Title: PVSioChecker Pages: 1 -->
<svg width="160pt" height="242pt"
 viewBox="0.00 0.00 160.00 242.00" xmlns="http://www.w3.org/2000/svg" xmlns:xlink="http://www.w3.org/1999/xlink">
<g id="graph0" class="graph" transform="scale(1 1) rotate(0) translate(4 238)">
<title>PVSioChecker</title>
<polygon fill="#ffffff" stroke="transparent" points="-4,4 -4,-238 156,-238 156,4 -4,4"/>
<g id="clust1" class="cluster">
<title>cluster_NASALib</title>
<polygon fill="none" stroke="#000000" points="8,-8 8,-226 144,-226 144,-8 8,-8"/>
<text text-anchor="middle" x="76" y="-210.8" font-family="Times,serif" font-size="14.00" fill="#000000">NASALib</text>
</g>
<!-- /Users/mmoscato/Workspace/Workbench/pvs/dependency&#45;all/Users/mmoscato/pvs/pvs/nasalib/PVSioChecker -->
<g id="node1" class="node">
<title>/Users/mmoscato/Workspace/Workbench/pvs/dependency&#45;all/Users/mmoscato/pvs/pvs/nasalib/PVSioChecker</title>
<polygon fill="#f7e28d" stroke="#000000" points="115.7141,-124 16.2859,-124 16.2859,-88 115.7141,-88 115.7141,-124"/>
<text text-anchor="middle" x="66" y="-101.8" font-family="Times,serif" font-size="14.00" fill="#000000">PVSioChecker</text>
</g>
<!-- /Users/mmoscato/Workspace/Workbench/pvs/dependency&#45;all/Users/mmoscato/pvs/pvs/nasalib/reals -->
<g id="node3" class="node">
<title>/Users/mmoscato/Workspace/Workbench/pvs/dependency&#45;all/Users/mmoscato/pvs/pvs/nasalib/reals</title>
<polygon fill="#fcfcd7" stroke="#000000" points="114,-52 60,-52 60,-16 114,-16 114,-52"/>
<text text-anchor="middle" x="87" y="-29.8" font-family="Times,serif" font-size="14.00" fill="#000000">reals</text>
</g>
<!-- /Users/mmoscato/Workspace/Workbench/pvs/dependency&#45;all/Users/mmoscato/pvs/pvs/nasalib/PVSioChecker&#45;&gt;/Users/mmoscato/Workspace/Workbench/pvs/dependency&#45;all/Users/mmoscato/pvs/pvs/nasalib/reals -->
<g id="edge1" class="edge">
<title>/Users/mmoscato/Workspace/Workbench/pvs/dependency&#45;all/Users/mmoscato/pvs/pvs/nasalib/PVSioChecker&#45;&gt;/Users/mmoscato/Workspace/Workbench/pvs/dependency&#45;all/Users/mmoscato/pvs/pvs/nasalib/reals</title>
<path fill="none" stroke="#000000" d="M87,-87.8314C87,-87.8314 87,-62.4133 87,-62.4133"/>
<polygon fill="#000000" stroke="#000000" points="90.5001,-62.4132 87,-52.4133 83.5001,-62.4133 90.5001,-62.4132"/>
</g>
<!-- /Users/mmoscato/Workspace/Workbench/pvs/dependency&#45;all/Users/mmoscato/pvs/pvs/nasalib/examples -->
<g id="node2" class="node">
<title>/Users/mmoscato/Workspace/Workbench/pvs/dependency&#45;all/Users/mmoscato/pvs/pvs/nasalib/examples</title>
<polygon fill="#fcfcd7" stroke="#000000" points="118.3693,-196 49.6307,-196 49.6307,-160 118.3693,-160 118.3693,-196"/>
<text text-anchor="middle" x="84" y="-173.8" font-family="Times,serif" font-size="14.00" fill="#000000">examples</text>
</g>
<!-- /Users/mmoscato/Workspace/Workbench/pvs/dependency&#45;all/Users/mmoscato/pvs/pvs/nasalib/examples&#45;&gt;/Users/mmoscato/Workspace/Workbench/pvs/dependency&#45;all/Users/mmoscato/pvs/pvs/nasalib/PVSioChecker -->
<g id="edge2" class="edge">
<title>/Users/mmoscato/Workspace/Workbench/pvs/dependency&#45;all/Users/mmoscato/pvs/pvs/nasalib/examples&#45;&gt;/Users/mmoscato/Workspace/Workbench/pvs/dependency&#45;all/Users/mmoscato/pvs/pvs/nasalib/PVSioChecker</title>
<path fill="none" stroke="#000000" d="M82.5862,-159.8314C82.5862,-159.8314 82.5862,-134.4133 82.5862,-134.4133"/>
<polygon fill="#000000" stroke="#000000" points="86.0863,-134.4132 82.5862,-124.4133 79.0863,-134.4133 86.0863,-134.4132"/>
</g>
<!-- /Users/mmoscato/Workspace/Workbench/pvs/dependency&#45;all/Users/mmoscato/pvs/pvs/nasalib/examples&#45;&gt;/Users/mmoscato/Workspace/Workbench/pvs/dependency&#45;all/Users/mmoscato/pvs/pvs/nasalib/reals -->
<g id="edge3" class="edge">
<title>/Users/mmoscato/Workspace/Workbench/pvs/dependency&#45;all/Users/mmoscato/pvs/pvs/nasalib/examples&#45;&gt;/Users/mmoscato/Workspace/Workbench/pvs/dependency&#45;all/Users/mmoscato/pvs/pvs/nasalib/reals</title>
<path fill="none" stroke="#000000" d="M118.3896,-178C128.2729,-178 136.4346,-178 136.4346,-178 136.4346,-178 136.4346,-34 136.4346,-34 136.4346,-34 124.0315,-34 124.0315,-34"/>
<polygon fill="#000000" stroke="#000000" points="124.0315,-30.5001 114.0315,-34 124.0315,-37.5001 124.0315,-30.5001"/>
</g>
</g>
</svg>
