<?xml version="1.0" encoding="UTF-8" standalone="no"?>
<!DOCTYPE svg PUBLIC "-//W3C//DTD SVG 1.1//EN"
 "http://www.w3.org/Graphics/SVG/1.1/DTD/svg11.dtd">
<!-- Generated by graphviz version 2.44.1 (20200629.0846)
 -->
<!-- Title: PVSioChecker&#45;zoomed Pages: 1 -->
<svg width="559pt" height="246pt"
 viewBox="0.00 0.00 559.00 246.00" xmlns="http://www.w3.org/2000/svg" xmlns:xlink="http://www.w3.org/1999/xlink">
<g id="graph0" class="graph" transform="scale(1 1) rotate(0) translate(4 242)">
<title>PVSioChecker&#45;zoomed</title>
<polygon fill="white" stroke="transparent" points="-4,4 -4,-242 555,-242 555,4 -4,4"/>
<g id="clust1" class="cluster">
<title>cluster_NASALib</title>
<polygon fill="none" stroke="black" points="471,-8 471,-83 543,-83 543,-8 471,-8"/>
<text text-anchor="middle" x="507" y="-67.8" font-family="Times,serif" font-size="14.00">NASALib</text>
</g>
<g id="clust2" class="cluster">
<title>cluster_NASALib/PVSioChecker</title>
<polygon fill="none" stroke="black" points="8,-8 8,-230 463,-230 463,-8 8,-8"/>
<text text-anchor="middle" x="235.5" y="-214.8" font-family="Times,serif" font-size="14.00">NASALib/PVSioChecker</text>
</g>
<!-- nasalib/PVSioChecker@csv_reader -->
<g id="node1" class="node">
<title>nasalib/PVSioChecker@csv_reader</title>
<ellipse fill="#e6f3ff" stroke="black" cx="272" cy="-181" rx="48.99" ry="18"/>
<text text-anchor="middle" x="272" y="-177.3" font-family="Times,serif" font-size="14.00">csv_reader</text>
</g>
<!-- nasalib/PVSioChecker@csv_writer -->
<g id="node2" class="node">
<title>nasalib/PVSioChecker@csv_writer</title>
<ellipse fill="#e6f3ff" stroke="black" cx="397" cy="-109" rx="48.19" ry="18"/>
<text text-anchor="middle" x="397" y="-105.3" font-family="Times,serif" font-size="14.00">csv_writer</text>
</g>
<!-- nasalib/PVSioChecker@csv_reader&#45;&gt;nasalib/PVSioChecker@csv_writer -->
<g id="edge1" class="edge">
<title>nasalib/PVSioChecker@csv_reader&#45;&gt;nasalib/PVSioChecker@csv_writer</title>
<path fill="none" stroke="black" d="M321.04,-181C328.96,-181 334.63,-181 334.63,-181 334.63,-181 334.63,-109 334.63,-109 334.63,-109 338.78,-109 338.78,-109"/>
<polygon fill="black" stroke="black" points="338.78,-112.5 348.78,-109 338.78,-105.5 338.78,-112.5"/>
</g>
<!-- nasalib/PVSioChecker@pvsio_checker -->
<g id="node7" class="node">
<title>nasalib/PVSioChecker@pvsio_checker</title>
<ellipse fill="#e6f3ff" stroke="black" cx="180" cy="-109" rx="61.99" ry="18"/>
<text text-anchor="middle" x="180" y="-105.3" font-family="Times,serif" font-size="14.00">pvsio_checker</text>
</g>
<!-- nasalib/PVSioChecker@csv_reader&#45;&gt;nasalib/PVSioChecker@pvsio_checker -->
<g id="edge2" class="edge">
<title>nasalib/PVSioChecker@csv_reader&#45;&gt;nasalib/PVSioChecker@pvsio_checker</title>
<path fill="none" stroke="black" d="M232.5,-170.38C232.5,-170.38 232.5,-128.74 232.5,-128.74"/>
<polygon fill="black" stroke="black" points="236,-128.74 232.5,-118.74 229,-128.74 236,-128.74"/>
</g>
<!-- nasalib/PVSioChecker@str_util -->
<g id="node8" class="node">
<title>nasalib/PVSioChecker@str_util</title>
<ellipse fill="#e6f3ff" stroke="black" cx="295" cy="-109" rx="36" ry="18"/>
<text text-anchor="middle" x="295" y="-105.3" font-family="Times,serif" font-size="14.00">str_util</text>
</g>
<!-- nasalib/PVSioChecker@csv_reader&#45;&gt;nasalib/PVSioChecker@str_util -->
<g id="edge3" class="edge">
<title>nasalib/PVSioChecker@csv_reader&#45;&gt;nasalib/PVSioChecker@str_util</title>
<path fill="none" stroke="black" d="M290,-163.94C290,-163.94 290,-136.95 290,-136.95"/>
<polygon fill="black" stroke="black" points="293.5,-136.95 290,-126.95 286.5,-136.95 293.5,-136.95"/>
</g>
<!-- nasalib/PVSioChecker@csv_writerow -->
<g id="node3" class="node">
<title>nasalib/PVSioChecker@csv_writerow</title>
<ellipse fill="#e6f3ff" stroke="black" cx="397" cy="-181" rx="58.49" ry="18"/>
<text text-anchor="middle" x="397" y="-177.3" font-family="Times,serif" font-size="14.00">csv_writerow</text>
</g>
<!-- nasalib/PVSioChecker@csv_writerow&#45;&gt;nasalib/PVSioChecker@csv_writer -->
<g id="edge4" class="edge">
<title>nasalib/PVSioChecker@csv_writerow&#45;&gt;nasalib/PVSioChecker@csv_writer</title>
<path fill="none" stroke="black" d="M397,-162.83C397,-162.83 397,-137.41 397,-137.41"/>
<polygon fill="black" stroke="black" points="400.5,-137.41 397,-127.41 393.5,-137.41 400.5,-137.41"/>
</g>
<!-- nasalib/PVSioChecker@is_prime -->
<g id="node4" class="node">
<title>nasalib/PVSioChecker@is_prime</title>
<ellipse fill="#e6f3ff" stroke="black" cx="58" cy="-109" rx="42.49" ry="18"/>
<text text-anchor="middle" x="58" y="-105.3" font-family="Times,serif" font-size="14.00">is_prime</text>
</g>
<!-- nasalib/PVSioChecker@pathname -->
<g id="node5" class="node">
<title>nasalib/PVSioChecker@pathname</title>
<ellipse fill="#e6f3ff" stroke="black" cx="127" cy="-34" rx="45.49" ry="18"/>
<text text-anchor="middle" x="127" y="-30.3" font-family="Times,serif" font-size="14.00">pathname</text>
</g>
<!-- nasalib/PVSioChecker@prime_check -->
<g id="node6" class="node">
<title>nasalib/PVSioChecker@prime_check</title>
<ellipse fill="#e6f3ff" stroke="black" cx="111" cy="-181" rx="56.59" ry="18"/>
<text text-anchor="middle" x="111" y="-177.3" font-family="Times,serif" font-size="14.00">prime_check</text>
</g>
<!-- nasalib/PVSioChecker@prime_check&#45;&gt;nasalib/PVSioChecker@is_prime -->
<g id="edge5" class="edge">
<title>nasalib/PVSioChecker@prime_check&#45;&gt;nasalib/PVSioChecker@is_prime</title>
<path fill="none" stroke="black" d="M77.35,-166.43C77.35,-166.43 77.35,-135.05 77.35,-135.05"/>
<polygon fill="black" stroke="black" points="80.85,-135.05 77.35,-125.05 73.85,-135.05 80.85,-135.05"/>
</g>
<!-- nasalib/PVSioChecker@prime_check&#45;&gt;nasalib/PVSioChecker@pvsio_checker -->
<g id="edge6" class="edge">
<title>nasalib/PVSioChecker@prime_check&#45;&gt;nasalib/PVSioChecker@pvsio_checker</title>
<path fill="none" stroke="black" d="M142.9,-166.08C142.9,-166.08 142.9,-133.41 142.9,-133.41"/>
<polygon fill="black" stroke="black" points="146.4,-133.41 142.9,-123.41 139.4,-133.41 146.4,-133.41"/>
</g>
<!-- nasalib/PVSioChecker@pvsio_checker&#45;&gt;nasalib/PVSioChecker@pathname -->
<g id="edge7" class="edge">
<title>nasalib/PVSioChecker@pvsio_checker&#45;&gt;nasalib/PVSioChecker@pathname</title>
<path fill="none" stroke="black" d="M145.38,-93.82C145.38,-93.82 145.38,-60.72 145.38,-60.72"/>
<polygon fill="black" stroke="black" points="148.88,-60.72 145.38,-50.72 141.88,-60.72 148.88,-60.72"/>
</g>
<!-- nasalib/PVSioChecker@time_fun -->
<g id="node9" class="node">
<title>nasalib/PVSioChecker@time_fun</title>
<ellipse fill="#e6f3ff" stroke="black" cx="233" cy="-34" rx="42.79" ry="18"/>
<text text-anchor="middle" x="233" y="-30.3" font-family="Times,serif" font-size="14.00">time_fun</text>
</g>
<!-- nasalib/PVSioChecker@pvsio_checker&#45;&gt;nasalib/PVSioChecker@time_fun -->
<g id="edge8" class="edge">
<title>nasalib/PVSioChecker@pvsio_checker&#45;&gt;nasalib/PVSioChecker@time_fun</title>
<path fill="none" stroke="black" d="M207.32,-92.73C207.32,-92.73 207.32,-58.72 207.32,-58.72"/>
<polygon fill="black" stroke="black" points="210.82,-58.72 207.32,-48.72 203.82,-58.72 210.82,-58.72"/>
</g>
<!-- nasalib/reals -->
<g id="node10" class="node">
<title>nasalib/reals</title>
<polygon fill="#fcfcd7" stroke="black" points="533,-52 479,-52 479,-16 533,-16 533,-52"/>
<text text-anchor="middle" x="506" y="-30.3" font-family="Times,serif" font-size="14.00">reals</text>
</g>
<!-- nasalib/PVSioChecker@pvsio_checker&#45;&gt;nasalib/reals -->
<g id="edge9" class="edge">
<title>nasalib/PVSioChecker@pvsio_checker&#45;&gt;nasalib/reals</title>
<path fill="none" stroke="black" d="M224.53,-96.13C224.53,-85.11 224.53,-71 224.53,-71 224.53,-71 506,-71 506,-71 506,-71 506,-62.07 506,-62.07"/>
<polygon fill="black" stroke="black" points="509.5,-62.07 506,-52.07 502.5,-62.07 509.5,-62.07"/>
</g>
</g>
</svg>
