<?xml version="1.0" encoding="UTF-8" standalone="no"?>
<!DOCTYPE svg PUBLIC "-//W3C//DTD SVG 1.1//EN"
 "http://www.w3.org/Graphics/SVG/1.1/DTD/svg11.dtd">
<!-- Generated by graphviz version 8.0.4 (20230421.1958)
 -->
<!-- Title: lebesgue Pages: 1 -->
<svg width="632pt" height="833pt"
 viewBox="0.00 0.00 632.00 833.00" xmlns="http://www.w3.org/2000/svg" xmlns:xlink="http://www.w3.org/1999/xlink">
<g id="graph0" class="graph" transform="scale(1 1) rotate(0) translate(4 829)">
<title>lebesgue</title>
<polygon fill="white" stroke="none" points="-4,4 -4,-829 628,-829 628,4 -4,4"/>
<g id="clust1" class="cluster">
<title>cluster_NASALib</title>
<polygon fill="none" stroke="black" points="8,-92.5 8,-817 604,-817 604,-92.5 8,-92.5"/>
<text text-anchor="middle" x="306" y="-799.7" font-family="Times,serif" font-size="14.00">NASALib</text>
</g>
<g id="clust2" class="cluster">
<title>cluster_PVS Prelude</title>
<polygon fill="none" stroke="black" points="389,-8 389,-84.5 477,-84.5 477,-8 389,-8"/>
<text text-anchor="middle" x="433" y="-67.2" font-family="Times,serif" font-size="14.00">PVS Prelude</text>
</g>
<!-- NASALib/analysis -->
<g id="node1" class="node">
<title>NASALib/analysis</title>
<polygon fill="#fcfcd7" stroke="black" points="287.75,-352.5 228.25,-352.5 228.25,-316.5 287.75,-316.5 287.75,-352.5"/>
<text text-anchor="middle" x="258" y="-329.45" font-family="Times,serif" font-size="14.00">analysis</text>
</g>
<!-- NASALib/ints -->
<g id="node3" class="node">
<title>NASALib/ints</title>
<polygon fill="#fcfcd7" stroke="black" points="334,-136.5 280,-136.5 280,-100.5 334,-100.5 334,-136.5"/>
<text text-anchor="middle" x="307" y="-113.45" font-family="Times,serif" font-size="14.00">ints</text>
</g>
<!-- NASALib/analysis&#45;&gt;NASALib/ints -->
<g id="edge1" class="edge">
<title>NASALib/analysis&#45;&gt;NASALib/ints</title>
<path fill="none" stroke="black" d="M253.06,-316.2C247.13,-295.47 238,-263.5 238,-263.5"/>
</g>
<!-- NASALib/orders -->
<g id="node8" class="node">
<title>NASALib/orders</title>
<polygon fill="#fcfcd7" stroke="black" points="334,-280.5 280,-280.5 280,-244.5 334,-244.5 334,-280.5"/>
<text text-anchor="middle" x="307" y="-257.45" font-family="Times,serif" font-size="14.00">orders</text>
</g>
<!-- NASALib/analysis&#45;&gt;NASALib/orders -->
<g id="edge2" class="edge">
<title>NASALib/analysis&#45;&gt;NASALib/orders</title>
<path fill="none" stroke="black" d="M270.11,-316.2C275.75,-308.14 282.57,-298.39 288.81,-289.48"/>
<polygon fill="black" stroke="black" points="292.16,-291.8 295.03,-281.6 286.42,-287.79 292.16,-291.8"/>
</g>
<!-- NASALib/reals -->
<g id="node10" class="node">
<title>NASALib/reals</title>
<polygon fill="#fcfcd7" stroke="black" points="219,-280.5 165,-280.5 165,-244.5 219,-244.5 219,-280.5"/>
<text text-anchor="middle" x="192" y="-257.45" font-family="Times,serif" font-size="14.00">reals</text>
</g>
<!-- NASALib/analysis&#45;&gt;NASALib/reals -->
<g id="edge3" class="edge">
<title>NASALib/analysis&#45;&gt;NASALib/reals</title>
<path fill="none" stroke="black" d="M241.69,-316.2C233.77,-307.8 224.12,-297.57 215.44,-288.36"/>
<polygon fill="black" stroke="black" points="218.53,-286.48 209.13,-281.6 213.44,-291.28 218.53,-286.48"/>
</g>
<!-- NASALib/structures -->
<g id="node14" class="node">
<title>NASALib/structures</title>
<polygon fill="#fcfcd7" stroke="black" points="341.25,-208.5 272.75,-208.5 272.75,-172.5 341.25,-172.5 341.25,-208.5"/>
<text text-anchor="middle" x="307" y="-185.45" font-family="Times,serif" font-size="14.00">structures</text>
</g>
<!-- NASALib/analysis&#45;&gt;NASALib/structures -->
<g id="edge4" class="edge">
<title>NASALib/analysis&#45;&gt;NASALib/structures</title>
<path fill="none" stroke="black" d="M258,-316.2C258,-295.47 258,-263.5 258,-263.5"/>
</g>
<!-- lib/finite_sets -->
<g id="node18" class="node">
<title>lib/finite_sets</title>
<polygon fill="#fcfcd7" stroke="black" points="468.75,-52 397.25,-52 397.25,-16 468.75,-16 468.75,-52"/>
<text text-anchor="middle" x="433" y="-28.95" font-family="Times,serif" font-size="14.00">finite_sets</text>
</g>
<!-- NASALib/analysis&#45;&gt;lib/finite_sets -->
<g id="edge5" class="edge">
<title>NASALib/analysis&#45;&gt;lib/finite_sets</title>
<path fill="none" stroke="black" d="M624,-261.5C624,-261.5 624,-191.5 624,-191.5"/>
<path fill="none" stroke="black" d="M288.14,-328.94C373.04,-316.08 608,-280.5 608,-280.5 608,-280.5 624,-263.5 624,-263.5"/>
</g>
<!-- NASALib/extended_nnreal -->
<g id="node2" class="node">
<title>NASALib/extended_nnreal</title>
<polygon fill="#fcfcd7" stroke="black" points="373.62,-568.5 268.38,-568.5 268.38,-532.5 373.62,-532.5 373.62,-568.5"/>
<text text-anchor="middle" x="321" y="-545.45" font-family="Times,serif" font-size="14.00">extended_nnreal</text>
</g>
<!-- NASALib/extended_nnreal&#45;&gt;NASALib/analysis -->
<g id="edge6" class="edge">
<title>NASALib/extended_nnreal&#45;&gt;NASALib/analysis</title>
<path fill="none" stroke="black" d="M321,-532.2C321,-511.47 321,-479.5 321,-479.5"/>
</g>
<!-- NASALib/extended_nnreal&#45;&gt;NASALib/reals -->
<g id="edge7" class="edge">
<title>NASALib/extended_nnreal&#45;&gt;NASALib/reals</title>
<path fill="none" stroke="black" d="M301,-477.5C301,-477.5 291,-388.5 291,-388.5 291,-388.5 169,-335.5 169,-335.5"/>
</g>
<!-- NASALib/series -->
<g id="node11" class="node">
<title>NASALib/series</title>
<polygon fill="#fcfcd7" stroke="black" points="282,-424.5 228,-424.5 228,-388.5 282,-388.5 282,-424.5"/>
<text text-anchor="middle" x="255" y="-401.45" font-family="Times,serif" font-size="14.00">series</text>
</g>
<!-- NASALib/extended_nnreal&#45;&gt;NASALib/series -->
<g id="edge8" class="edge">
<title>NASALib/extended_nnreal&#45;&gt;NASALib/series</title>
<path fill="none" stroke="black" d="M301,-477.5C301,-477.5 285.34,-453.68 272.3,-433.83"/>
<polygon fill="black" stroke="black" points="274.79,-432.24 266.37,-425.8 268.94,-436.08 274.79,-432.24"/>
<path fill="none" stroke="black" d="M316.06,-532.2C310.13,-511.47 301,-479.5 301,-479.5"/>
</g>
<!-- NASALib/sigma_set -->
<g id="node13" class="node">
<title>NASALib/sigma_set</title>
<polygon fill="#fcfcd7" stroke="black" points="414.38,-496.5 343.62,-496.5 343.62,-460.5 414.38,-460.5 414.38,-496.5"/>
<text text-anchor="middle" x="379" y="-473.45" font-family="Times,serif" font-size="14.00">sigma_set</text>
</g>
<!-- NASALib/extended_nnreal&#45;&gt;NASALib/sigma_set -->
<g id="edge9" class="edge">
<title>NASALib/extended_nnreal&#45;&gt;NASALib/sigma_set</title>
<path fill="none" stroke="black" d="M335.34,-532.2C342.15,-523.97 350.43,-513.98 357.94,-504.92"/>
<polygon fill="black" stroke="black" points="361.14,-507.54 364.83,-497.6 355.75,-503.07 361.14,-507.54"/>
</g>
<!-- NASALib/ints&#45;&gt;lib/finite_sets -->
<g id="edge10" class="edge">
<title>NASALib/ints&#45;&gt;lib/finite_sets</title>
<path fill="none" stroke="black" d="M333.72,-100C352.18,-87.92 376.94,-71.7 397.12,-58.49"/>
<polygon fill="black" stroke="black" points="398.87,-60.88 405.32,-52.47 395.03,-55.02 398.87,-60.88"/>
</g>
<!-- NASALib/lebesgue -->
<g id="node4" class="node">
<title>NASALib/lebesgue</title>
<polygon fill="#f7e28d" stroke="black" points="383.62,-784.5 320.38,-784.5 320.38,-748.5 383.62,-748.5 383.62,-784.5"/>
<text text-anchor="middle" x="352" y="-761.45" font-family="Times,serif" font-size="14.00">lebesgue</text>
</g>
<!-- NASALib/lebesgue&#45;&gt;NASALib/analysis -->
<g id="edge11" class="edge">
<title>NASALib/lebesgue&#45;&gt;NASALib/analysis</title>
<path fill="none" stroke="black" d="M555,-549.5C555,-549.5 525,-388.5 525,-388.5 525,-388.5 373.23,-358.37 298.54,-343.55"/>
<polygon fill="black" stroke="black" points="299.6,-339.99 289.11,-341.48 298.24,-346.86 299.6,-339.99"/>
</g>
<!-- NASALib/lebesgue&#45;&gt;NASALib/extended_nnreal -->
<g id="edge12" class="edge">
<title>NASALib/lebesgue&#45;&gt;NASALib/extended_nnreal</title>
<path fill="none" stroke="black" d="M269,-693.5C269,-693.5 269,-623.5 269,-623.5"/>
<path fill="none" stroke="black" d="M269,-621.5C269,-621.5 286.86,-597.46 301.64,-577.56"/>
<polygon fill="black" stroke="black" points="304.99,-579.92 308.15,-569.8 299.37,-575.74 304.99,-579.92"/>
</g>
<!-- NASALib/measure_integration -->
<g id="node6" class="node">
<title>NASALib/measure_integration</title>
<polygon fill="#fcfcd7" stroke="black" points="415.5,-712.5 288.5,-712.5 288.5,-676.5 415.5,-676.5 415.5,-712.5"/>
<text text-anchor="middle" x="352" y="-689.45" font-family="Times,serif" font-size="14.00">measure_integration</text>
</g>
<!-- NASALib/lebesgue&#45;&gt;NASALib/measure_integration -->
<g id="edge13" class="edge">
<title>NASALib/lebesgue&#45;&gt;NASALib/measure_integration</title>
<path fill="none" stroke="black" d="M352,-748.2C352,-740.74 352,-731.82 352,-723.47"/>
<polygon fill="black" stroke="black" points="355.5,-723.6 352,-713.6 348.5,-723.6 355.5,-723.6"/>
</g>
<!-- NASALib/metric_space -->
<g id="node7" class="node">
<title>NASALib/metric_space</title>
<polygon fill="#fcfcd7" stroke="black" points="230,-640.5 142,-640.5 142,-604.5 230,-604.5 230,-640.5"/>
<text text-anchor="middle" x="186" y="-617.45" font-family="Times,serif" font-size="14.00">metric_space</text>
</g>
<!-- NASALib/lebesgue&#45;&gt;NASALib/metric_space -->
<g id="edge14" class="edge">
<title>NASALib/lebesgue&#45;&gt;NASALib/metric_space</title>
<path fill="none" stroke="black" d="M269,-693.5C269,-693.5 238.67,-667.92 214.68,-647.69"/>
<polygon fill="black" stroke="black" points="217.42,-644.57 207.52,-640.8 212.9,-649.93 217.42,-644.57"/>
</g>
<!-- NASALib/power -->
<g id="node9" class="node">
<title>NASALib/power</title>
<polygon fill="#fcfcd7" stroke="black" points="90,-568.5 36,-568.5 36,-532.5 90,-532.5 90,-568.5"/>
<text text-anchor="middle" x="63" y="-545.45" font-family="Times,serif" font-size="14.00">power</text>
</g>
<!-- NASALib/lebesgue&#45;&gt;NASALib/power -->
<g id="edge15" class="edge">
<title>NASALib/lebesgue&#45;&gt;NASALib/power</title>
<path fill="none" stroke="black" d="M63,-621.5C63,-621.5 63,-599.16 63,-579.72"/>
<polygon fill="black" stroke="black" points="66.5,-579.8 63,-569.8 59.5,-579.8 66.5,-579.8"/>
</g>
<!-- NASALib/lebesgue&#45;&gt;NASALib/reals -->
<g id="edge16" class="edge">
<title>NASALib/lebesgue&#45;&gt;NASALib/reals</title>
<path fill="none" stroke="black" d="M63,-621.5C63,-621.5 27,-568.5 27,-568.5 27,-568.5 17,-479.5 17,-479.5"/>
<path fill="none" stroke="black" d="M17,-477.5C17,-477.5 27,-460.5 27,-460.5 27,-460.5 109,-335.5 109,-335.5"/>
<path fill="none" stroke="black" d="M109,-333.5C109,-333.5 139.33,-307.92 163.32,-287.69"/>
<polygon fill="black" stroke="black" points="165.1,-289.93 170.48,-280.8 160.58,-284.57 165.1,-289.93"/>
<path fill="none" stroke="black" d="M328.42,-748.15C307.43,-732.69 280,-712.5 280,-712.5 280,-712.5 269,-695.5 269,-695.5"/>
<path fill="none" stroke="black" d="M269,-693.5C269,-693.5 102,-640.5 102,-640.5 102,-640.5 63,-623.5 63,-623.5"/>
</g>
<!-- NASALib/sets_aux -->
<g id="node12" class="node">
<title>NASALib/sets_aux</title>
<polygon fill="#fcfcd7" stroke="black" points="516.25,-424.5 453.75,-424.5 453.75,-388.5 516.25,-388.5 516.25,-424.5"/>
<text text-anchor="middle" x="485" y="-401.45" font-family="Times,serif" font-size="14.00">sets_aux</text>
</g>
<!-- NASALib/lebesgue&#45;&gt;NASALib/sets_aux -->
<g id="edge17" class="edge">
<title>NASALib/lebesgue&#45;&gt;NASALib/sets_aux</title>
<path fill="none" stroke="black" d="M595,-621.5C595,-621.5 555,-551.5 555,-551.5"/>
<path fill="none" stroke="black" d="M555,-549.5C555,-549.5 515,-479.5 515,-479.5"/>
<path fill="none" stroke="black" d="M575,-693.5C575,-693.5 595,-623.5 595,-623.5"/>
</g>
<!-- NASALib/lebesgue&#45;&gt;NASALib/sigma_set -->
<g id="edge18" class="edge">
<title>NASALib/lebesgue&#45;&gt;NASALib/sigma_set</title>
<path fill="none" stroke="black" d="M269,-693.5C269,-693.5 280,-676.5 280,-676.5 280,-676.5 383,-568.5 383,-568.5 383,-568.5 383,-532.5 383,-532.5 383,-532.5 382.09,-520.42 381.14,-507.8"/>
<polygon fill="black" stroke="black" points="384.55,-507.56 380.31,-497.85 377.57,-508.09 384.55,-507.56"/>
</g>
<!-- NASALib/lebesgue&#45;&gt;NASALib/structures -->
<g id="edge19" class="edge">
<title>NASALib/lebesgue&#45;&gt;NASALib/structures</title>
<path fill="none" stroke="black" d="M595,-621.5C595,-621.5 580,-460.5 580,-460.5 580,-460.5 485,-263.5 485,-263.5"/>
</g>
<!-- NASALib/topology -->
<g id="node15" class="node">
<title>NASALib/topology</title>
<polygon fill="#fcfcd7" stroke="black" points="516,-568.5 452,-568.5 452,-532.5 516,-532.5 516,-568.5"/>
<text text-anchor="middle" x="484" y="-545.45" font-family="Times,serif" font-size="14.00">topology</text>
</g>
<!-- NASALib/lebesgue&#45;&gt;NASALib/topology -->
<g id="edge20" class="edge">
<title>NASALib/lebesgue&#45;&gt;NASALib/topology</title>
<path fill="none" stroke="black" d="M575,-693.5C575,-693.5 527.4,-619.22 501.05,-578.1"/>
<polygon fill="black" stroke="black" points="503.5,-576.44 495.16,-569.91 497.61,-580.22 503.5,-576.44"/>
<path fill="none" stroke="black" d="M383.95,-755.47C445.61,-736.12 575,-695.5 575,-695.5"/>
</g>
<!-- NASALib/lnexp -->
<g id="node5" class="node">
<title>NASALib/lnexp</title>
<polygon fill="#fcfcd7" stroke="black" points="90,-496.5 36,-496.5 36,-460.5 90,-460.5 90,-496.5"/>
<text text-anchor="middle" x="63" y="-473.45" font-family="Times,serif" font-size="14.00">lnexp</text>
</g>
<!-- NASALib/lnexp&#45;&gt;NASALib/analysis -->
<g id="edge21" class="edge">
<title>NASALib/lnexp&#45;&gt;NASALib/analysis</title>
<path fill="none" stroke="black" d="M149,-405.5C149,-405.5 164,-388.5 164,-388.5 164,-388.5 192.94,-372.18 218.71,-357.65"/>
<polygon fill="black" stroke="black" points="220.01,-360.38 227,-352.42 216.57,-354.28 220.01,-360.38"/>
<path fill="none" stroke="black" d="M84.26,-460.2C109.73,-439.47 149,-407.5 149,-407.5"/>
</g>
<!-- NASALib/lnexp&#45;&gt;NASALib/ints -->
<g id="edge22" class="edge">
<title>NASALib/lnexp&#45;&gt;NASALib/ints</title>
<path fill="none" stroke="black" d="M146,-261.5C146,-261.5 156,-244.5 156,-244.5 156,-244.5 215,-191.5 215,-191.5"/>
<path fill="none" stroke="black" d="M69.43,-460.2C77.13,-439.47 89,-407.5 89,-407.5"/>
<path fill="none" stroke="black" d="M89,-405.5C89,-405.5 104,-316.5 104,-316.5 104,-316.5 146,-263.5 146,-263.5"/>
<path fill="none" stroke="black" d="M215,-189.5C215,-189.5 248.91,-163.7 275.56,-143.42"/>
<polygon fill="black" stroke="black" points="277.42,-145.64 283.26,-136.8 273.18,-140.07 277.42,-145.64"/>
</g>
<!-- NASALib/lnexp&#45;&gt;NASALib/reals -->
<g id="edge23" class="edge">
<title>NASALib/lnexp&#45;&gt;NASALib/reals</title>
<path fill="none" stroke="black" d="M89,-405.5C89,-405.5 109,-335.5 109,-335.5"/>
</g>
<!-- NASALib/lnexp&#45;&gt;NASALib/series -->
<g id="edge24" class="edge">
<title>NASALib/lnexp&#45;&gt;NASALib/series</title>
<path fill="none" stroke="black" d="M90.1,-467.62C123.46,-455.46 180.26,-434.75 217.71,-421.09"/>
<polygon fill="black" stroke="black" points="218.53,-424.16 226.73,-417.44 216.13,-417.58 218.53,-424.16"/>
</g>
<!-- NASALib/measure_integration&#45;&gt;NASALib/extended_nnreal -->
<g id="edge25" class="edge">
<title>NASALib/measure_integration&#45;&gt;NASALib/extended_nnreal</title>
<path fill="none" stroke="black" d="M331.48,-676.2C306.9,-655.47 269,-623.5 269,-623.5"/>
</g>
<!-- NASALib/measure_integration&#45;&gt;NASALib/metric_space -->
<g id="edge26" class="edge">
<title>NASALib/measure_integration&#45;&gt;NASALib/metric_space</title>
<path fill="none" stroke="black" d="M310.54,-676.02C288.27,-666.63 260.63,-654.97 237.05,-645.03"/>
<polygon fill="black" stroke="black" points="238.79,-641.54 228.22,-640.88 236.07,-647.99 238.79,-641.54"/>
</g>
<!-- NASALib/measure_integration&#45;&gt;NASALib/orders -->
<g id="edge27" class="edge">
<title>NASALib/measure_integration&#45;&gt;NASALib/orders</title>
<path fill="none" stroke="black" d="M535,-549.5C535,-549.5 525,-388.5 525,-388.5 525,-388.5 480,-352.5 480,-352.5 480,-352.5 465,-335.5 465,-335.5"/>
</g>
<!-- NASALib/measure_integration&#45;&gt;NASALib/power -->
<g id="edge28" class="edge">
<title>NASALib/measure_integration&#45;&gt;NASALib/power</title>
<path fill="none" stroke="black" d="M288.07,-678.03C223.43,-662.38 133,-640.5 133,-640.5 133,-640.5 103.81,-603.39 83.13,-577.09"/>
<polygon fill="black" stroke="black" points="85.43,-575.36 76.5,-569.66 79.93,-579.68 85.43,-575.36"/>
</g>
<!-- NASALib/measure_integration&#45;&gt;NASALib/reals -->
<g id="edge29" class="edge">
<title>NASALib/measure_integration&#45;&gt;NASALib/reals</title>
<path fill="none" stroke="black" d="M433,-549.5C433,-549.5 415,-335.5 415,-335.5"/>
</g>
<!-- NASALib/measure_integration&#45;&gt;NASALib/series -->
<g id="edge30" class="edge">
<title>NASALib/measure_integration&#45;&gt;NASALib/series</title>
<path fill="none" stroke="black" d="M323.19,-676.15C297.52,-660.69 264,-640.5 264,-640.5 264,-640.5 259,-568.5 259,-568.5 259,-568.5 259,-532.5 259,-532.5 259,-532.5 261,-479.5 261,-479.5"/>
</g>
<!-- NASALib/measure_integration&#45;&gt;NASALib/sets_aux -->
<g id="edge31" class="edge">
<title>NASALib/measure_integration&#45;&gt;NASALib/sets_aux</title>
<path fill="none" stroke="black" d="M484,-621.5C484,-621.5 525,-568.5 525,-568.5 525,-568.5 535,-551.5 535,-551.5"/>
<path fill="none" stroke="black" d="M535,-549.5C535,-549.5 515,-479.5 515,-479.5"/>
</g>
<!-- NASALib/measure_integration&#45;&gt;NASALib/sigma_set -->
<g id="edge32" class="edge">
<title>NASALib/measure_integration&#45;&gt;NASALib/sigma_set</title>
<path fill="none" stroke="black" d="M484,-621.5C484,-621.5 443,-568.5 443,-568.5 443,-568.5 433,-551.5 433,-551.5"/>
<path fill="none" stroke="black" d="M433,-549.5C433,-549.5 414.29,-525.24 398.89,-505.29"/>
<polygon fill="black" stroke="black" points="401.23,-503.58 392.35,-497.8 395.69,-507.86 401.23,-503.58"/>
<path fill="none" stroke="black" d="M384.97,-676.02C424.07,-655.28 484,-623.5 484,-623.5"/>
</g>
<!-- NASALib/measure_integration&#45;&gt;NASALib/structures -->
<g id="edge33" class="edge">
<title>NASALib/measure_integration&#45;&gt;NASALib/structures</title>
<path fill="none" stroke="black" d="M396.86,-676.15C436.81,-660.69 489,-640.5 489,-640.5 489,-640.5 575,-551.5 575,-551.5 575,-551.5 575,-551.5 575,-477.5 575,-477.5 531,-388.5 531,-388.5 531,-388.5 485,-335.5 485,-335.5"/>
</g>
<!-- NASALib/measure_integration&#45;&gt;NASALib/topology -->
<g id="edge34" class="edge">
<title>NASALib/measure_integration&#45;&gt;NASALib/topology</title>
<path fill="none" stroke="black" d="M484,-621.5C484,-621.5 484,-599.16 484,-579.72"/>
<polygon fill="black" stroke="black" points="487.5,-579.8 484,-569.8 480.5,-579.8 487.5,-579.8"/>
</g>
<!-- NASALib/measure_integration&#45;&gt;lib/finite_sets -->
<g id="edge35" class="edge">
<title>NASALib/measure_integration&#45;&gt;lib/finite_sets</title>
<path fill="none" stroke="black" d="M415.94,-680.26C491.76,-664.56 608,-640.5 608,-640.5 608,-640.5 624,-551.5 624,-551.5"/>
</g>
<!-- NASALib/metric_space&#45;&gt;NASALib/analysis -->
<g id="edge36" class="edge">
<title>NASALib/metric_space&#45;&gt;NASALib/analysis</title>
<path fill="none" stroke="black" d="M229,-549.5C229,-549.5 321,-479.5 321,-479.5"/>
<path fill="none" stroke="black" d="M321,-477.5C321,-477.5 306,-388.5 306,-388.5 306,-388.5 293.22,-374.39 280.85,-360.73"/>
<polygon fill="black" stroke="black" points="284.02,-358.92 274.72,-353.85 278.84,-363.62 284.02,-358.92"/>
</g>
<!-- NASALib/metric_space&#45;&gt;NASALib/power -->
<g id="edge37" class="edge">
<title>NASALib/metric_space&#45;&gt;NASALib/power</title>
<path fill="none" stroke="black" d="M155.28,-604.02C138.47,-594.45 117.52,-582.53 99.84,-572.47"/>
<polygon fill="black" stroke="black" points="101.82,-569 91.4,-567.09 98.36,-575.08 101.82,-569"/>
</g>
<!-- NASALib/metric_space&#45;&gt;NASALib/reals -->
<g id="edge38" class="edge">
<title>NASALib/metric_space&#45;&gt;NASALib/reals</title>
<path fill="none" stroke="black" d="M170.94,-604.15C157.52,-588.69 140,-568.5 140,-568.5 140,-568.5 109,-335.5 109,-335.5"/>
</g>
<!-- NASALib/metric_space&#45;&gt;NASALib/series -->
<g id="edge39" class="edge">
<title>NASALib/metric_space&#45;&gt;NASALib/series</title>
<path fill="none" stroke="black" d="M261,-477.5C261,-477.5 259.09,-455.16 257.42,-435.72"/>
<polygon fill="black" stroke="black" points="260.82,-435.47 256.48,-425.8 253.85,-436.07 260.82,-435.47"/>
<path fill="none" stroke="black" d="M229,-549.5C229,-549.5 261,-479.5 261,-479.5"/>
<path fill="none" stroke="black" d="M196.63,-604.2C209.36,-583.47 229,-551.5 229,-551.5"/>
</g>
<!-- NASALib/metric_space&#45;&gt;NASALib/sets_aux -->
<g id="edge40" class="edge">
<title>NASALib/metric_space&#45;&gt;NASALib/sets_aux</title>
<path fill="none" stroke="black" d="M230.21,-609.61C288.29,-593.98 383,-568.5 383,-568.5 383,-568.5 428,-532.5 428,-532.5 428,-532.5 515,-479.5 515,-479.5"/>
<path fill="none" stroke="black" d="M515,-477.5C515,-477.5 505.16,-454.53 496.75,-434.91"/>
<polygon fill="black" stroke="black" points="499.57,-433.62 492.42,-425.8 493.14,-436.37 499.57,-433.62"/>
</g>
<!-- NASALib/metric_space&#45;&gt;NASALib/topology -->
<g id="edge41" class="edge">
<title>NASALib/metric_space&#45;&gt;NASALib/topology</title>
<path fill="none" stroke="black" d="M230.47,-612.15C302.82,-596.93 438,-568.5 438,-568.5 438,-568.5 439.31,-568.02 441.48,-567.22"/>
<polygon fill="black" stroke="black" points="442.39,-570.24 450.55,-563.49 439.96,-563.67 442.39,-570.24"/>
</g>
<!-- NASALib/vectors -->
<g id="node17" class="node">
<title>NASALib/vectors</title>
<polygon fill="#fcfcd7" stroke="black" points="203.5,-568.5 148.5,-568.5 148.5,-532.5 203.5,-532.5 203.5,-568.5"/>
<text text-anchor="middle" x="176" y="-545.45" font-family="Times,serif" font-size="14.00">vectors</text>
</g>
<!-- NASALib/metric_space&#45;&gt;NASALib/vectors -->
<g id="edge42" class="edge">
<title>NASALib/metric_space&#45;&gt;NASALib/vectors</title>
<path fill="none" stroke="black" d="M183.53,-604.2C182.46,-596.74 181.19,-587.82 180,-579.47"/>
<polygon fill="black" stroke="black" points="183.32,-579.01 178.44,-569.6 176.39,-580 183.32,-579.01"/>
</g>
<!-- NASALib/metric_space&#45;&gt;lib/finite_sets -->
<g id="edge43" class="edge">
<title>NASALib/metric_space&#45;&gt;lib/finite_sets</title>
<path fill="none" stroke="black" d="M230.32,-614.57C322.21,-600.2 525,-568.5 525,-568.5 525,-568.5 624,-551.5 624,-551.5"/>
<path fill="none" stroke="black" d="M624,-549.5C624,-549.5 624,-335.5 624,-335.5"/>
</g>
<!-- NASALib/orders&#45;&gt;NASALib/structures -->
<g id="edge44" class="edge">
<title>NASALib/orders&#45;&gt;NASALib/structures</title>
<path fill="none" stroke="black" d="M307,-244.2C307,-236.74 307,-227.82 307,-219.47"/>
<polygon fill="black" stroke="black" points="310.5,-219.6 307,-209.6 303.5,-219.6 310.5,-219.6"/>
</g>
<!-- NASALib/orders&#45;&gt;lib/finite_sets -->
<g id="edge45" class="edge">
<title>NASALib/orders&#45;&gt;lib/finite_sets</title>
<path fill="none" stroke="black" d="M624,-189.5C624,-189.5 624,-119.5 624,-119.5"/>
<path fill="none" stroke="black" d="M334.24,-256.7C408.34,-243.66 608,-208.5 608,-208.5 608,-208.5 624,-191.5 624,-191.5"/>
</g>
<!-- NASALib/power&#45;&gt;NASALib/analysis -->
<g id="edge46" class="edge">
<title>NASALib/power&#45;&gt;NASALib/analysis</title>
<path fill="none" stroke="black" d="M74.79,-532.15C85.29,-516.69 99,-496.5 99,-496.5 99,-496.5 149,-407.5 149,-407.5"/>
</g>
<!-- NASALib/power&#45;&gt;NASALib/lnexp -->
<g id="edge47" class="edge">
<title>NASALib/power&#45;&gt;NASALib/lnexp</title>
<path fill="none" stroke="black" d="M63,-532.2C63,-524.74 63,-515.82 63,-507.47"/>
<polygon fill="black" stroke="black" points="66.5,-507.6 63,-497.6 59.5,-507.6 66.5,-507.6"/>
</g>
<!-- NASALib/power&#45;&gt;NASALib/reals -->
<g id="edge48" class="edge">
<title>NASALib/power&#45;&gt;NASALib/reals</title>
<path fill="none" stroke="black" d="M51.21,-532.15C40.71,-516.69 27,-496.5 27,-496.5 27,-496.5 17,-479.5 17,-479.5"/>
</g>
<!-- NASALib/reals&#45;&gt;NASALib/ints -->
<g id="edge49" class="edge">
<title>NASALib/reals&#45;&gt;NASALib/ints</title>
<path fill="none" stroke="black" d="M197.69,-244.2C204.5,-223.47 215,-191.5 215,-191.5"/>
</g>
<!-- NASALib/reals&#45;&gt;NASALib/structures -->
<g id="edge50" class="edge">
<title>NASALib/reals&#45;&gt;NASALib/structures</title>
<path fill="none" stroke="black" d="M219.25,-244.91C234.13,-235.85 252.79,-224.5 269.07,-214.59"/>
<polygon fill="black" stroke="black" points="270.62,-217.14 277.34,-208.95 266.98,-211.16 270.62,-217.14"/>
</g>
<!-- NASALib/series&#45;&gt;NASALib/analysis -->
<g id="edge51" class="edge">
<title>NASALib/series&#45;&gt;NASALib/analysis</title>
<path fill="none" stroke="black" d="M255.74,-388.2C256.06,-380.74 256.44,-371.82 256.8,-363.47"/>
<polygon fill="black" stroke="black" points="260.34,-363.75 257.27,-353.6 253.34,-363.45 260.34,-363.75"/>
</g>
<!-- NASALib/series&#45;&gt;NASALib/ints -->
<g id="edge52" class="edge">
<title>NASALib/series&#45;&gt;NASALib/ints</title>
<path fill="none" stroke="black" d="M238,-261.5C238,-261.5 215,-191.5 215,-191.5"/>
<path fill="none" stroke="black" d="M243.21,-388.15C232.71,-372.69 219,-352.5 219,-352.5 219,-352.5 219,-316.5 219,-316.5 219,-316.5 238,-263.5 238,-263.5"/>
</g>
<!-- NASALib/series&#45;&gt;NASALib/orders -->
<g id="edge53" class="edge">
<title>NASALib/series&#45;&gt;NASALib/orders</title>
<path fill="none" stroke="black" d="M268.75,-388.15C281,-372.69 297,-352.5 297,-352.5 297,-352.5 300.92,-317.61 303.85,-291.52"/>
<polygon fill="black" stroke="black" points="307.43,-291.99 305.07,-281.66 300.48,-291.21 307.43,-291.99"/>
</g>
<!-- NASALib/series&#45;&gt;NASALib/reals -->
<g id="edge54" class="edge">
<title>NASALib/series&#45;&gt;NASALib/reals</title>
<path fill="none" stroke="black" d="M231.75,-388.15C211.05,-372.69 184,-352.5 184,-352.5 184,-352.5 169,-335.5 169,-335.5"/>
</g>
<!-- NASALib/sets_aux&#45;&gt;NASALib/ints -->
<g id="edge55" class="edge">
<title>NASALib/sets_aux&#45;&gt;NASALib/ints</title>
<path fill="none" stroke="black" d="M486.64,-388.15C488.1,-372.69 490,-352.5 490,-352.5 490,-352.5 490,-244.5 490,-244.5 490,-244.5 394.54,-179.29 341.51,-143.07"/>
<polygon fill="black" stroke="black" points="343.68,-139.63 333.45,-136.88 339.73,-145.41 343.68,-139.63"/>
</g>
<!-- NASALib/sets_aux&#45;&gt;NASALib/orders -->
<g id="edge56" class="edge">
<title>NASALib/sets_aux&#45;&gt;NASALib/orders</title>
<path fill="none" stroke="black" d="M480.06,-388.2C474.13,-367.47 465,-335.5 465,-335.5"/>
</g>
<!-- NASALib/sets_aux&#45;&gt;NASALib/structures -->
<g id="edge57" class="edge">
<title>NASALib/sets_aux&#45;&gt;NASALib/structures</title>
<path fill="none" stroke="black" d="M485,-388.2C485,-367.47 485,-335.5 485,-335.5"/>
</g>
<!-- NASALib/sets_aux&#45;&gt;lib/finite_sets -->
<g id="edge58" class="edge">
<title>NASALib/sets_aux&#45;&gt;lib/finite_sets</title>
<path fill="none" stroke="black" d="M624,-333.5C624,-333.5 624,-263.5 624,-263.5"/>
<path fill="none" stroke="black" d="M516.68,-391.85C553.12,-376.15 608,-352.5 608,-352.5 608,-352.5 624,-335.5 624,-335.5"/>
</g>
<!-- NASALib/sigma_set&#45;&gt;NASALib/analysis -->
<g id="edge59" class="edge">
<title>NASALib/sigma_set&#45;&gt;NASALib/analysis</title>
<path fill="none" stroke="black" d="M395,-405.5C395,-405.5 338.15,-376.45 297.7,-355.78"/>
<polygon fill="black" stroke="black" points="299.56,-352.3 289.07,-350.86 296.38,-358.53 299.56,-352.3"/>
<path fill="none" stroke="black" d="M382.96,-460.2C387.69,-439.47 395,-407.5 395,-407.5"/>
</g>
<!-- NASALib/sigma_set&#45;&gt;NASALib/orders -->
<g id="edge60" class="edge">
<title>NASALib/sigma_set&#45;&gt;NASALib/orders</title>
<path fill="none" stroke="black" d="M465,-333.5C465,-333.5 390.65,-300.56 343.95,-279.87"/>
<polygon fill="black" stroke="black" points="345.72,-276.38 335.16,-275.53 342.89,-282.78 345.72,-276.38"/>
<path fill="none" stroke="black" d="M395,-405.5C395,-405.5 465,-335.5 465,-335.5"/>
</g>
<!-- NASALib/sigma_set&#45;&gt;NASALib/reals -->
<g id="edge61" class="edge">
<title>NASALib/sigma_set&#45;&gt;NASALib/reals</title>
<path fill="none" stroke="black" d="M415,-333.5C415,-333.5 233,-280.5 233,-280.5 233,-280.5 231.44,-279.85 228.92,-278.81"/>
<polygon fill="black" stroke="black" points="230.7,-275.34 220.12,-274.74 228.02,-281.81 230.7,-275.34"/>
<path fill="none" stroke="black" d="M395,-405.5C395,-405.5 415,-335.5 415,-335.5"/>
</g>
<!-- NASALib/sigma_set&#45;&gt;NASALib/series -->
<g id="edge62" class="edge">
<title>NASALib/sigma_set&#45;&gt;NASALib/series</title>
<path fill="none" stroke="black" d="M348.03,-460.02C330.96,-450.38 309.67,-438.36 291.76,-428.25"/>
<polygon fill="black" stroke="black" points="293.64,-424.73 283.21,-422.86 290.19,-430.82 293.64,-424.73"/>
</g>
<!-- NASALib/sigma_set&#45;&gt;NASALib/sets_aux -->
<g id="edge63" class="edge">
<title>NASALib/sigma_set&#45;&gt;NASALib/sets_aux</title>
<path fill="none" stroke="black" d="M405.47,-460.02C418.86,-451.18 435.27,-440.34 449.71,-430.8"/>
<polygon fill="black" stroke="black" points="451.45,-433.19 457.86,-424.76 447.59,-427.35 451.45,-433.19"/>
</g>
<!-- NASALib/structures&#45;&gt;NASALib/ints -->
<g id="edge64" class="edge">
<title>NASALib/structures&#45;&gt;NASALib/ints</title>
<path fill="none" stroke="black" d="M307,-172.2C307,-164.74 307,-155.82 307,-147.47"/>
<polygon fill="black" stroke="black" points="310.5,-147.6 307,-137.6 303.5,-147.6 310.5,-147.6"/>
</g>
<!-- NASALib/structures&#45;&gt;lib/finite_sets -->
<g id="edge65" class="edge">
<title>NASALib/structures&#45;&gt;lib/finite_sets</title>
<path fill="none" stroke="black" d="M624,-117.5C624,-117.5 535.23,-79.16 478.73,-54.75"/>
<polygon fill="black" stroke="black" points="480.49,-51.27 469.93,-50.52 477.72,-57.7 480.49,-51.27"/>
<path fill="none" stroke="black" d="M341.53,-181.88C423.69,-163.73 624,-119.5 624,-119.5"/>
</g>
<!-- NASALib/topology&#45;&gt;NASALib/reals -->
<g id="edge66" class="edge">
<title>NASALib/topology&#45;&gt;NASALib/reals</title>
<path fill="none" stroke="black" d="M435,-405.5C435,-405.5 415,-335.5 415,-335.5"/>
<path fill="none" stroke="black" d="M477.99,-532.09C464.91,-494.17 435,-407.5 435,-407.5"/>
</g>
<!-- NASALib/topology&#45;&gt;NASALib/sets_aux -->
<g id="edge67" class="edge">
<title>NASALib/topology&#45;&gt;NASALib/sets_aux</title>
<path fill="none" stroke="black" d="M491.66,-532.2C500.84,-511.47 515,-479.5 515,-479.5"/>
</g>
<!-- NASALib/topology&#45;&gt;NASALib/structures -->
<g id="edge68" class="edge">
<title>NASALib/topology&#45;&gt;NASALib/structures</title>
<path fill="none" stroke="black" d="M435,-405.5C435,-405.5 445,-388.5 445,-388.5 445,-388.5 485,-335.5 485,-335.5"/>
<path fill="none" stroke="black" d="M485,-333.5C485,-333.5 485,-263.5 485,-263.5"/>
<path fill="none" stroke="black" d="M485,-261.5C485,-261.5 404.62,-229.89 351.89,-209.15"/>
<polygon fill="black" stroke="black" points="353.33,-205.57 342.74,-205.16 350.77,-212.08 353.33,-205.57"/>
</g>
<!-- NASALib/trig -->
<g id="node16" class="node">
<title>NASALib/trig</title>
<polygon fill="#fcfcd7" stroke="black" points="242,-496.5 188,-496.5 188,-460.5 242,-460.5 242,-496.5"/>
<text text-anchor="middle" x="215" y="-473.45" font-family="Times,serif" font-size="14.00">trig</text>
</g>
<!-- NASALib/trig&#45;&gt;NASALib/analysis -->
<g id="edge69" class="edge">
<title>NASALib/trig&#45;&gt;NASALib/analysis</title>
<path fill="none" stroke="black" d="M215.77,-460.34C216.93,-434.48 219,-388.5 219,-388.5 219,-388.5 229,-374.91 238.87,-361.5"/>
<polygon fill="black" stroke="black" points="242.12,-363.98 245.23,-353.85 236.48,-359.83 242.12,-363.98"/>
</g>
<!-- NASALib/trig&#45;&gt;NASALib/ints -->
<g id="edge70" class="edge">
<title>NASALib/trig&#45;&gt;NASALib/ints</title>
<path fill="none" stroke="black" d="M203.63,-460.2C190.01,-439.47 169,-407.5 169,-407.5"/>
<path fill="none" stroke="black" d="M169,-405.5C169,-405.5 146,-263.5 146,-263.5"/>
</g>
<!-- NASALib/trig&#45;&gt;NASALib/reals -->
<g id="edge71" class="edge">
<title>NASALib/trig&#45;&gt;NASALib/reals</title>
<path fill="none" stroke="black" d="M169,-405.5C169,-405.5 169,-335.5 169,-335.5"/>
</g>
<!-- NASALib/trig&#45;&gt;NASALib/series -->
<g id="edge72" class="edge">
<title>NASALib/trig&#45;&gt;NASALib/series</title>
<path fill="none" stroke="black" d="M224.89,-460.2C229.39,-452.31 234.83,-442.8 239.83,-434.05"/>
<polygon fill="black" stroke="black" points="243.3,-436.02 245.23,-425.6 237.23,-432.55 243.3,-436.02"/>
</g>
<!-- NASALib/vectors&#45;&gt;NASALib/reals -->
<g id="edge73" class="edge">
<title>NASALib/vectors&#45;&gt;NASALib/reals</title>
<path fill="none" stroke="black" d="M171.55,-532.12C162.76,-497.77 144,-424.5 144,-424.5 144,-424.5 144,-388.5 144,-388.5 144,-388.5 169,-335.5 169,-335.5"/>
<path fill="none" stroke="black" d="M169,-333.5C169,-333.5 176.48,-310.74 182.91,-291.18"/>
<polygon fill="black" stroke="black" points="186.52,-292.4 186.31,-281.8 179.87,-290.21 186.52,-292.4"/>
</g>
<!-- NASALib/vectors&#45;&gt;NASALib/structures -->
<g id="edge74" class="edge">
<title>NASALib/vectors&#45;&gt;NASALib/structures</title>
<path fill="none" stroke="black" d="M176.58,-532.34C177.45,-506.48 179,-460.5 179,-460.5 179,-460.5 219,-316.5 219,-316.5 219,-316.5 258,-263.5 258,-263.5"/>
<path fill="none" stroke="black" d="M258,-261.5C258,-261.5 274.83,-237.46 288.76,-217.56"/>
<polygon fill="black" stroke="black" points="292.02,-220 294.89,-209.8 286.29,-215.99 292.02,-220"/>
</g>
<!-- NASALib/vectors&#45;&gt;NASALib/trig -->
<g id="edge75" class="edge">
<title>NASALib/vectors&#45;&gt;NASALib/trig</title>
<path fill="none" stroke="black" d="M185.64,-532.2C190.03,-524.31 195.33,-514.8 200.21,-506.05"/>
<polygon fill="black" stroke="black" points="203.66,-508.04 205.47,-497.6 197.55,-504.64 203.66,-508.04"/>
</g>
</g>
</svg>
