<?xml version="1.0" encoding="UTF-8" standalone="no"?>
<!DOCTYPE svg PUBLIC "-//W3C//DTD SVG 1.1//EN"
 "http://www.w3.org/Graphics/SVG/1.1/DTD/svg11.dtd">
<!-- Generated by graphviz version 8.0.4 (20230421.1958)
 -->
<!-- Title: lebesgue&#45;zoomed Pages: 1 -->
<svg width="956pt" height="617pt"
 viewBox="0.00 0.00 956.00 617.00" xmlns="http://www.w3.org/2000/svg" xmlns:xlink="http://www.w3.org/1999/xlink">
<g id="graph0" class="graph" transform="scale(1 1) rotate(0) translate(4 613)">
<title>lebesgue&#45;zoomed</title>
<polygon fill="white" stroke="none" points="-4,4 -4,-613 952,-613 952,4 -4,4"/>
<g id="clust1" class="cluster">
<title>cluster_NASALib</title>
<polygon fill="none" stroke="black" points="8,-8 8,-84.5 940,-84.5 940,-8 8,-8"/>
<text text-anchor="middle" x="474" y="-67.2" font-family="Times,serif" font-size="14.00">NASALib</text>
</g>
<g id="clust2" class="cluster">
<title>cluster_NASALib/lebesgue</title>
<polygon fill="none" stroke="black" points="89,-92.5 89,-601 555,-601 555,-92.5 89,-92.5"/>
<text text-anchor="middle" x="322" y="-583.7" font-family="Times,serif" font-size="14.00">NASALib/lebesgue</text>
</g>
<!-- NASALib/analysis -->
<g id="node1" class="node">
<title>NASALib/analysis</title>
<polygon fill="#fcfcd7" stroke="black" points="931.75,-52 872.25,-52 872.25,-16 931.75,-16 931.75,-52"/>
<text text-anchor="middle" x="902" y="-28.95" font-family="Times,serif" font-size="14.00">analysis</text>
</g>
<!-- NASALib/extended_nnreal -->
<g id="node2" class="node">
<title>NASALib/extended_nnreal</title>
<polygon fill="#fcfcd7" stroke="black" points="281.62,-52 176.38,-52 176.38,-16 281.62,-16 281.62,-52"/>
<text text-anchor="middle" x="229" y="-28.95" font-family="Times,serif" font-size="14.00">extended_nnreal</text>
</g>
<!-- NASALib/lebesgue@ae_continuous_def -->
<g id="node3" class="node">
<title>NASALib/lebesgue@ae_continuous_def</title>
<ellipse fill="#e6f3ff" stroke="black" cx="320" cy="-334.5" rx="80.52" ry="18"/>
<text text-anchor="middle" x="320" y="-329.45" font-family="Times,serif" font-size="14.00">ae_continuous_def</text>
</g>
<!-- NASALib/lebesgue@lebesgue_def -->
<g id="node6" class="node">
<title>NASALib/lebesgue@lebesgue_def</title>
<ellipse fill="#e6f3ff" stroke="black" cx="397" cy="-262.5" rx="59.54" ry="18"/>
<text text-anchor="middle" x="397" y="-257.45" font-family="Times,serif" font-size="14.00">lebesgue_def</text>
</g>
<!-- NASALib/lebesgue@ae_continuous_def&#45;&gt;NASALib/lebesgue@lebesgue_def -->
<g id="edge1" class="edge">
<title>NASALib/lebesgue@ae_continuous_def&#45;&gt;NASALib/lebesgue@lebesgue_def</title>
<path fill="none" stroke="black" d="M338.64,-316.55C348.26,-307.81 360.16,-296.99 370.71,-287.4"/>
<polygon fill="black" stroke="black" points="372.75,-290.36 377.8,-281.05 368.04,-285.18 372.75,-290.36"/>
</g>
<!-- NASALib/measure_integration -->
<g id="node16" class="node">
<title>NASALib/measure_integration</title>
<polygon fill="#fcfcd7" stroke="black" points="499.5,-52 372.5,-52 372.5,-16 499.5,-16 499.5,-52"/>
<text text-anchor="middle" x="436" y="-28.95" font-family="Times,serif" font-size="14.00">measure_integration</text>
</g>
<!-- NASALib/lebesgue@ae_continuous_def&#45;&gt;NASALib/measure_integration -->
<g id="edge2" class="edge">
<title>NASALib/lebesgue@ae_continuous_def&#45;&gt;NASALib/measure_integration</title>
<path fill="none" stroke="black" d="M562,-117.5C562,-117.5 538,-92.5 538,-92.5 538,-92.5 509,-84.5 509,-84.5 509,-84.5 489.31,-71.15 470.39,-58.32"/>
<polygon fill="black" stroke="black" points="472.77,-55.03 462.53,-52.31 468.84,-60.82 472.77,-55.03"/>
<path fill="none" stroke="black" d="M361.06,-318.6C404.24,-302.92 466,-280.5 466,-280.5 466,-280.5 562,-119.5 562,-119.5"/>
</g>
<!-- NASALib/metric_space -->
<g id="node17" class="node">
<title>NASALib/metric_space</title>
<polygon fill="#fcfcd7" stroke="black" points="606,-52 518,-52 518,-16 606,-16 606,-52"/>
<text text-anchor="middle" x="562" y="-28.95" font-family="Times,serif" font-size="14.00">metric_space</text>
</g>
<!-- NASALib/lebesgue@ae_continuous_def&#45;&gt;NASALib/metric_space -->
<g id="edge3" class="edge">
<title>NASALib/lebesgue@ae_continuous_def&#45;&gt;NASALib/metric_space</title>
<path fill="none" stroke="black" d="M562,-117.5C562,-117.5 562,-87.1 562,-63.21"/>
<polygon fill="black" stroke="black" points="565.5,-63.5 562,-53.5 558.5,-63.5 565.5,-63.5"/>
</g>
<!-- NASALib/lebesgue@bounded_interval_props -->
<g id="node4" class="node">
<title>NASALib/lebesgue@bounded_interval_props</title>
<ellipse fill="#e6f3ff" stroke="black" cx="197" cy="-190.5" rx="100.48" ry="18"/>
<text text-anchor="middle" x="197" y="-185.45" font-family="Times,serif" font-size="14.00">bounded_interval_props</text>
</g>
<!-- NASALib/lebesgue@real_intervals_aux -->
<g id="node9" class="node">
<title>NASALib/lebesgue@real_intervals_aux</title>
<ellipse fill="#e6f3ff" stroke="black" cx="239" cy="-118.5" rx="78.99" ry="18"/>
<text text-anchor="middle" x="239" y="-113.45" font-family="Times,serif" font-size="14.00">real_intervals_aux</text>
</g>
<!-- NASALib/lebesgue@bounded_interval_props&#45;&gt;NASALib/lebesgue@real_intervals_aux -->
<g id="edge4" class="edge">
<title>NASALib/lebesgue@bounded_interval_props&#45;&gt;NASALib/lebesgue@real_intervals_aux</title>
<path fill="none" stroke="black" d="M207.38,-172.2C212.16,-164.23 217.94,-154.6 223.24,-145.76"/>
<polygon fill="black" stroke="black" points="226.59,-147.98 228.74,-137.6 220.59,-144.38 226.59,-147.98"/>
</g>
<!-- NASALib/lebesgue@continuous_on -->
<g id="node5" class="node">
<title>NASALib/lebesgue@continuous_on</title>
<ellipse fill="#e6f3ff" stroke="black" cx="302" cy="-478.5" rx="65.17" ry="18"/>
<text text-anchor="middle" x="302" y="-473.45" font-family="Times,serif" font-size="14.00">continuous_on</text>
</g>
<!-- NASALib/lebesgue@continuous_on&#45;&gt;NASALib/metric_space -->
<g id="edge5" class="edge">
<title>NASALib/lebesgue@continuous_on&#45;&gt;NASALib/metric_space</title>
<path fill="none" stroke="black" d="M350.95,-466.26C364.71,-463.09 376,-460.5 376,-460.5 376,-460.5 728,-424.5 728,-424.5 728,-424.5 790,-335.5 790,-335.5 790,-335.5 790,-335.5 790,-261.5 790,-261.5 790,-119.5 790,-119.5"/>
<path fill="none" stroke="black" d="M790,-117.5C790,-117.5 728,-92.5 728,-92.5 728,-92.5 615,-84.5 615,-84.5 615,-84.5 601.6,-71.98 588.27,-59.54"/>
<polygon fill="black" stroke="black" points="591.23,-57.58 581.54,-53.31 586.46,-62.7 591.23,-57.58"/>
</g>
<!-- NASALib/topology -->
<g id="node23" class="node">
<title>NASALib/topology</title>
<polygon fill="#fcfcd7" stroke="black" points="768,-52 704,-52 704,-16 768,-16 768,-52"/>
<text text-anchor="middle" x="736" y="-28.95" font-family="Times,serif" font-size="14.00">topology</text>
</g>
<!-- NASALib/lebesgue@continuous_on&#45;&gt;NASALib/topology -->
<g id="edge6" class="edge">
<title>NASALib/lebesgue@continuous_on&#45;&gt;NASALib/topology</title>
<path fill="none" stroke="black" d="M790,-117.5C790,-117.5 769.19,-85.71 753.41,-61.6"/>
<polygon fill="black" stroke="black" points="755.86,-59.95 747.45,-53.5 750,-63.78 755.86,-59.95"/>
</g>
<!-- NASALib/lebesgue@real_lebesgue_scaf -->
<g id="node10" class="node">
<title>NASALib/lebesgue@real_lebesgue_scaf</title>
<ellipse fill="#e6f3ff" stroke="black" cx="397" cy="-190.5" rx="81.04" ry="18"/>
<text text-anchor="middle" x="397" y="-185.45" font-family="Times,serif" font-size="14.00">real_lebesgue_scaf</text>
</g>
<!-- NASALib/lebesgue@lebesgue_def&#45;&gt;NASALib/lebesgue@real_lebesgue_scaf -->
<g id="edge7" class="edge">
<title>NASALib/lebesgue@lebesgue_def&#45;&gt;NASALib/lebesgue@real_lebesgue_scaf</title>
<path fill="none" stroke="black" d="M397,-244.2C397,-236.74 397,-227.82 397,-219.47"/>
<polygon fill="black" stroke="black" points="400.5,-219.6 397,-209.6 393.5,-219.6 400.5,-219.6"/>
</g>
<!-- NASALib/lebesgue@lebesgue_def&#45;&gt;NASALib/measure_integration -->
<g id="edge8" class="edge">
<title>NASALib/lebesgue@lebesgue_def&#45;&gt;NASALib/measure_integration</title>
<path fill="none" stroke="black" d="M423.03,-246.17C449.61,-230.52 487,-208.5 487,-208.5 487,-208.5 524,-119.5 524,-119.5"/>
<path fill="none" stroke="black" d="M524,-117.5C524,-117.5 500,-92.5 500,-92.5 500,-92.5 480.49,-74.97 463.01,-59.27"/>
<polygon fill="black" stroke="black" points="465.98,-57.33 456.2,-53.25 461.3,-62.54 465.98,-57.33"/>
</g>
<!-- NASALib/lebesgue@lebesgue_def&#45;&gt;NASALib/topology -->
<g id="edge9" class="edge">
<title>NASALib/lebesgue@lebesgue_def&#45;&gt;NASALib/topology</title>
<path fill="none" stroke="black" d="M524,-117.5C524,-117.5 548,-92.5 548,-92.5 548,-92.5 695,-84.5 695,-84.5 695,-84.5 704.79,-72.67 714.81,-60.58"/>
<polygon fill="black" stroke="black" points="717.98,-63.25 721.66,-53.31 712.59,-58.78 717.98,-63.25"/>
</g>
<!-- NASALib/lebesgue@lebesgue_fundamental -->
<g id="node7" class="node">
<title>NASALib/lebesgue@lebesgue_fundamental</title>
<ellipse fill="#e6f3ff" stroke="black" cx="302" cy="-550.5" rx="94.34" ry="18"/>
<text text-anchor="middle" x="302" y="-545.45" font-family="Times,serif" font-size="14.00">lebesgue_fundamental</text>
</g>
<!-- NASALib/lebesgue@lebesgue_fundamental&#45;&gt;NASALib/analysis -->
<g id="edge10" class="edge">
<title>NASALib/lebesgue@lebesgue_fundamental&#45;&gt;NASALib/analysis</title>
<path fill="none" stroke="black" d="M364.54,-536.6C440.61,-520.91 559,-496.5 559,-496.5 559,-496.5 828,-407.5 828,-407.5"/>
</g>
<!-- NASALib/lebesgue@lebesgue_fundamental&#45;&gt;NASALib/lebesgue@continuous_on -->
<g id="edge11" class="edge">
<title>NASALib/lebesgue@lebesgue_fundamental&#45;&gt;NASALib/lebesgue@continuous_on</title>
<path fill="none" stroke="black" d="M302,-532.2C302,-524.74 302,-515.82 302,-507.47"/>
<polygon fill="black" stroke="black" points="305.5,-507.6 302,-497.6 298.5,-507.6 305.5,-507.6"/>
</g>
<!-- NASALib/lebesgue@restriction_integral -->
<g id="node11" class="node">
<title>NASALib/lebesgue@restriction_integral</title>
<ellipse fill="#e6f3ff" stroke="black" cx="466" cy="-478.5" rx="81.04" ry="18"/>
<text text-anchor="middle" x="466" y="-473.45" font-family="Times,serif" font-size="14.00">restriction_integral</text>
</g>
<!-- NASALib/lebesgue@lebesgue_fundamental&#45;&gt;NASALib/lebesgue@restriction_integral -->
<g id="edge12" class="edge">
<title>NASALib/lebesgue@lebesgue_fundamental&#45;&gt;NASALib/lebesgue@restriction_integral</title>
<path fill="none" stroke="black" d="M339.21,-533.62C363.16,-523.4 394.45,-510.04 419.96,-499.15"/>
<polygon fill="black" stroke="black" points="420.96,-502.1 428.78,-494.96 418.21,-495.67 420.96,-502.1"/>
</g>
<!-- NASALib/lebesgue@riemann_link -->
<g id="node12" class="node">
<title>NASALib/lebesgue@riemann_link</title>
<ellipse fill="#e6f3ff" stroke="black" cx="158" cy="-478.5" rx="60.56" ry="18"/>
<text text-anchor="middle" x="158" y="-473.45" font-family="Times,serif" font-size="14.00">riemann_link</text>
</g>
<!-- NASALib/lebesgue@lebesgue_fundamental&#45;&gt;NASALib/lebesgue@riemann_link -->
<g id="edge13" class="edge">
<title>NASALib/lebesgue@lebesgue_fundamental&#45;&gt;NASALib/lebesgue@riemann_link</title>
<path fill="none" stroke="black" d="M268.6,-533.26C247.71,-523.11 220.66,-509.96 198.54,-499.2"/>
<polygon fill="black" stroke="black" points="200.28,-495.68 189.76,-494.45 197.22,-501.97 200.28,-495.68"/>
</g>
<!-- NASALib/lebesgue@real_intervals -->
<g id="node8" class="node">
<title>NASALib/lebesgue@real_intervals</title>
<ellipse fill="#e6f3ff" stroke="black" cx="397" cy="-118.5" rx="61.08" ry="18"/>
<text text-anchor="middle" x="397" y="-113.45" font-family="Times,serif" font-size="14.00">real_intervals</text>
</g>
<!-- NASALib/lebesgue@real_intervals&#45;&gt;NASALib/measure_integration -->
<g id="edge14" class="edge">
<title>NASALib/lebesgue@real_intervals&#45;&gt;NASALib/measure_integration</title>
<path fill="none" stroke="black" d="M405.08,-100.41C410.33,-89.31 417.28,-74.61 423.26,-61.96"/>
<polygon fill="black" stroke="black" points="426.69,-63.89 427.8,-53.36 420.36,-60.9 426.69,-63.89"/>
</g>
<!-- NASALib/lebesgue@real_intervals&#45;&gt;NASALib/metric_space -->
<g id="edge15" class="edge">
<title>NASALib/lebesgue@real_intervals&#45;&gt;NASALib/metric_space</title>
<path fill="none" stroke="black" d="M436.26,-104.41C454.4,-98.37 472,-92.5 472,-92.5 472,-92.5 509,-84.5 509,-84.5 509,-84.5 522.4,-71.98 535.73,-59.54"/>
<polygon fill="black" stroke="black" points="537.54,-62.7 542.46,-53.31 532.77,-57.58 537.54,-62.7"/>
</g>
<!-- NASALib/power -->
<g id="node18" class="node">
<title>NASALib/power</title>
<polygon fill="#fcfcd7" stroke="black" points="70,-52 16,-52 16,-16 70,-16 70,-52"/>
<text text-anchor="middle" x="43" y="-28.95" font-family="Times,serif" font-size="14.00">power</text>
</g>
<!-- NASALib/lebesgue@real_intervals&#45;&gt;NASALib/power -->
<g id="edge16" class="edge">
<title>NASALib/lebesgue@real_intervals&#45;&gt;NASALib/power</title>
<path fill="none" stroke="black" d="M359.13,-103.98C342.64,-98.09 327,-92.5 327,-92.5 327,-92.5 79,-84.5 79,-84.5 79,-84.5 70.56,-72.9 61.86,-60.93"/>
<polygon fill="black" stroke="black" points="64.3,-59.34 55.59,-53.31 58.64,-63.46 64.3,-59.34"/>
</g>
<!-- NASALib/sets_aux -->
<g id="node20" class="node">
<title>NASALib/sets_aux</title>
<polygon fill="#fcfcd7" stroke="black" points="686.25,-52 623.75,-52 623.75,-16 686.25,-16 686.25,-52"/>
<text text-anchor="middle" x="655" y="-28.95" font-family="Times,serif" font-size="14.00">sets_aux</text>
</g>
<!-- NASALib/lebesgue@real_intervals&#45;&gt;NASALib/sets_aux -->
<g id="edge17" class="edge">
<title>NASALib/lebesgue@real_intervals&#45;&gt;NASALib/sets_aux</title>
<path fill="none" stroke="black" d="M436.26,-104.41C454.4,-98.37 472,-92.5 472,-92.5 472,-92.5 615,-84.5 615,-84.5 615,-84.5 624.56,-72.67 634.33,-60.58"/>
<polygon fill="black" stroke="black" points="637.45,-63.29 641.01,-53.31 632,-58.89 637.45,-63.29"/>
</g>
<!-- NASALib/lebesgue@real_intervals_aux&#45;&gt;NASALib/metric_space -->
<g id="edge18" class="edge">
<title>NASALib/lebesgue@real_intervals_aux&#45;&gt;NASALib/metric_space</title>
<path fill="none" stroke="black" d="M287.12,-103.83C307.66,-97.99 327,-92.5 327,-92.5 327,-92.5 509,-84.5 509,-84.5 509,-84.5 522.4,-71.98 535.73,-59.54"/>
<polygon fill="black" stroke="black" points="537.54,-62.7 542.46,-53.31 532.77,-57.58 537.54,-62.7"/>
</g>
<!-- NASALib/reals -->
<g id="node19" class="node">
<title>NASALib/reals</title>
<polygon fill="#fcfcd7" stroke="black" points="354,-52 300,-52 300,-16 354,-16 354,-52"/>
<text text-anchor="middle" x="327" y="-28.95" font-family="Times,serif" font-size="14.00">reals</text>
</g>
<!-- NASALib/lebesgue@real_intervals_aux&#45;&gt;NASALib/reals -->
<g id="edge19" class="edge">
<title>NASALib/lebesgue@real_intervals_aux&#45;&gt;NASALib/reals</title>
<path fill="none" stroke="black" d="M264.7,-101.19C277.8,-92.88 291,-84.5 291,-84.5 291,-84.5 299.44,-72.9 308.14,-60.93"/>
<polygon fill="black" stroke="black" points="311.36,-63.46 314.41,-53.31 305.7,-59.34 311.36,-63.46"/>
</g>
<!-- NASALib/lebesgue@real_lebesgue_scaf&#45;&gt;NASALib/extended_nnreal -->
<g id="edge20" class="edge">
<title>NASALib/lebesgue@real_lebesgue_scaf&#45;&gt;NASALib/extended_nnreal</title>
<path fill="none" stroke="black" d="M486,-117.5C486,-117.5 467,-92.5 467,-92.5 467,-92.5 291,-84.5 291,-84.5 291,-84.5 274.73,-71.51 258.86,-58.84"/>
<polygon fill="black" stroke="black" points="261.68,-55.82 251.68,-52.31 257.32,-61.29 261.68,-55.82"/>
</g>
<!-- NASALib/lebesgue@real_lebesgue_scaf&#45;&gt;NASALib/lebesgue@real_intervals -->
<g id="edge21" class="edge">
<title>NASALib/lebesgue@real_lebesgue_scaf&#45;&gt;NASALib/lebesgue@real_intervals</title>
<path fill="none" stroke="black" d="M397,-172.2C397,-164.74 397,-155.82 397,-147.47"/>
<polygon fill="black" stroke="black" points="400.5,-147.6 397,-137.6 393.5,-147.6 400.5,-147.6"/>
</g>
<!-- NASALib/lebesgue@real_lebesgue_scaf&#45;&gt;NASALib/lebesgue@real_intervals_aux -->
<g id="edge22" class="edge">
<title>NASALib/lebesgue@real_lebesgue_scaf&#45;&gt;NASALib/lebesgue@real_intervals_aux</title>
<path fill="none" stroke="black" d="M361.93,-173.96C338.92,-163.77 308.62,-150.34 283.85,-139.37"/>
<polygon fill="black" stroke="black" points="285.53,-135.84 274.97,-134.99 282.69,-142.24 285.53,-135.84"/>
</g>
<!-- NASALib/lebesgue@real_lebesgue_scaf&#45;&gt;NASALib/measure_integration -->
<g id="edge23" class="edge">
<title>NASALib/lebesgue@real_lebesgue_scaf&#45;&gt;NASALib/measure_integration</title>
<path fill="none" stroke="black" d="M486,-117.5C486,-117.5 466.73,-85.71 452.12,-61.6"/>
<polygon fill="black" stroke="black" points="454.78,-60.23 446.6,-53.5 448.79,-63.86 454.78,-60.23"/>
</g>
<!-- NASALib/lebesgue@real_lebesgue_scaf&#45;&gt;NASALib/metric_space -->
<g id="edge24" class="edge">
<title>NASALib/lebesgue@real_lebesgue_scaf&#45;&gt;NASALib/metric_space</title>
<path fill="none" stroke="black" d="M486,-117.5C486,-117.5 516.33,-84.58 538.67,-60.33"/>
<polygon fill="black" stroke="black" points="540.68,-63.22 544.88,-53.5 535.53,-58.48 540.68,-63.22"/>
</g>
<!-- NASALib/lebesgue@real_lebesgue_scaf&#45;&gt;NASALib/reals -->
<g id="edge25" class="edge">
<title>NASALib/lebesgue@real_lebesgue_scaf&#45;&gt;NASALib/reals</title>
<path fill="none" stroke="black" d="M486,-117.5C486,-117.5 467,-92.5 467,-92.5 467,-92.5 364,-84.5 364,-84.5 364,-84.5 355.33,-72.9 346.38,-60.93"/>
<polygon fill="black" stroke="black" points="348.73,-59.23 339.94,-53.31 343.12,-63.42 348.73,-59.23"/>
</g>
<!-- NASALib/sigma_set -->
<g id="node21" class="node">
<title>NASALib/sigma_set</title>
<polygon fill="#fcfcd7" stroke="black" points="158.38,-52 87.62,-52 87.62,-16 158.38,-16 158.38,-52"/>
<text text-anchor="middle" x="123" y="-28.95" font-family="Times,serif" font-size="14.00">sigma_set</text>
</g>
<!-- NASALib/lebesgue@real_lebesgue_scaf&#45;&gt;NASALib/sigma_set -->
<g id="edge26" class="edge">
<title>NASALib/lebesgue@real_lebesgue_scaf&#45;&gt;NASALib/sigma_set</title>
<path fill="none" stroke="black" d="M419.15,-172.73C439.66,-157.2 467,-136.5 467,-136.5 467,-136.5 486,-119.5 486,-119.5"/>
<path fill="none" stroke="black" d="M486,-117.5C486,-117.5 467,-92.5 467,-92.5 467,-92.5 167,-84.5 167,-84.5 167,-84.5 156.29,-72.45 145.43,-60.23"/>
<polygon fill="black" stroke="black" points="148.65,-58.46 139.39,-53.31 143.42,-63.11 148.65,-58.46"/>
</g>
<!-- NASALib/lebesgue@restriction_integral&#45;&gt;NASALib/analysis -->
<g id="edge27" class="edge">
<title>NASALib/lebesgue@restriction_integral&#45;&gt;NASALib/analysis</title>
<path fill="none" stroke="black" d="M828,-405.5C828,-405.5 828,-263.5 828,-263.5 828,-263.5 828,-263.5 828,-189.5 828,-189.5 867.68,-106.65 888.93,-62.29"/>
<polygon fill="black" stroke="black" points="892.49,-63.95 893.66,-53.42 886.18,-60.93 892.49,-63.95"/>
<path fill="none" stroke="black" d="M526.87,-466.26C611.11,-450.7 753,-424.5 753,-424.5 753,-424.5 828,-407.5 828,-407.5"/>
</g>
<!-- NASALib/lebesgue@riemann_link&#45;&gt;NASALib/analysis -->
<g id="edge28" class="edge">
<title>NASALib/lebesgue@riemann_link&#45;&gt;NASALib/analysis</title>
<path fill="none" stroke="black" d="M714,-405.5C714,-405.5 752,-263.5 752,-263.5 752,-263.5 752,-263.5 752,-189.5 752,-189.5 776,-92.5 776,-92.5 776,-92.5 863,-84.5 863,-84.5 863,-84.5 872.14,-72.9 881.57,-60.93"/>
<polygon fill="black" stroke="black" points="884.92,-63.33 888.36,-53.31 879.42,-59 884.92,-63.33"/>
</g>
<!-- NASALib/lebesgue@riemann_scaf -->
<g id="node13" class="node">
<title>NASALib/lebesgue@riemann_scaf</title>
<ellipse fill="#e6f3ff" stroke="black" cx="220" cy="-406.5" rx="61.08" ry="18"/>
<text text-anchor="middle" x="220" y="-401.45" font-family="Times,serif" font-size="14.00">riemann_scaf</text>
</g>
<!-- NASALib/lebesgue@riemann_link&#45;&gt;NASALib/lebesgue@riemann_scaf -->
<g id="edge29" class="edge">
<title>NASALib/lebesgue@riemann_link&#45;&gt;NASALib/lebesgue@riemann_scaf</title>
<path fill="none" stroke="black" d="M172.69,-460.91C180.34,-452.28 189.83,-441.56 198.3,-432"/>
<polygon fill="black" stroke="black" points="200.4,-434.78 204.41,-424.97 195.16,-430.14 200.4,-434.78"/>
</g>
<!-- NASALib/lebesgue@riemann_link&#45;&gt;NASALib/metric_space -->
<g id="edge30" class="edge">
<title>NASALib/lebesgue@riemann_link&#45;&gt;NASALib/metric_space</title>
<path fill="none" stroke="black" d="M203.91,-466.35C217.1,-463.15 228,-460.5 228,-460.5 228,-460.5 714,-407.5 714,-407.5"/>
<path fill="none" stroke="black" d="M714,-405.5C714,-405.5 676,-263.5 676,-263.5 676,-263.5 676,-263.5 676,-189.5 676,-189.5 652,-92.5 652,-92.5 652,-92.5 615,-84.5 615,-84.5 615,-84.5 601.6,-71.98 588.27,-59.54"/>
<polygon fill="black" stroke="black" points="591.23,-57.58 581.54,-53.31 586.46,-62.7 591.23,-57.58"/>
</g>
<!-- NASALib/lebesgue@riemann_scaf&#45;&gt;NASALib/analysis -->
<g id="edge31" class="edge">
<title>NASALib/lebesgue@riemann_scaf&#45;&gt;NASALib/analysis</title>
<path fill="none" stroke="black" d="M714,-117.5C714,-117.5 738,-92.5 738,-92.5 738,-92.5 863,-84.5 863,-84.5 863,-84.5 872.14,-72.9 881.57,-60.93"/>
<polygon fill="black" stroke="black" points="884.92,-63.33 888.36,-53.31 879.42,-59 884.92,-63.33"/>
</g>
<!-- NASALib/lebesgue@riemann_scaf&#45;&gt;NASALib/lebesgue@ae_continuous_def -->
<g id="edge32" class="edge">
<title>NASALib/lebesgue@riemann_scaf&#45;&gt;NASALib/lebesgue@ae_continuous_def</title>
<path fill="none" stroke="black" d="M242.69,-389.62C255.96,-380.33 272.92,-368.45 287.58,-358.19"/>
<polygon fill="black" stroke="black" points="289.17,-360.65 295.35,-352.05 285.16,-354.92 289.17,-360.65"/>
</g>
<!-- NASALib/lebesgue@riemann_scaf&#45;&gt;NASALib/lebesgue@lebesgue_def -->
<g id="edge33" class="edge">
<title>NASALib/lebesgue@riemann_scaf&#45;&gt;NASALib/lebesgue@lebesgue_def</title>
<path fill="none" stroke="black" d="M221.93,-388.34C224.83,-362.48 230,-316.5 230,-316.5 230,-316.5 297.63,-295.04 346.81,-279.43"/>
<polygon fill="black" stroke="black" points="347.53,-282.56 356,-276.19 345.41,-275.88 347.53,-282.56"/>
</g>
<!-- NASALib/lebesgue@riemann_scaf&#45;&gt;NASALib/measure_integration -->
<g id="edge34" class="edge">
<title>NASALib/lebesgue@riemann_scaf&#45;&gt;NASALib/measure_integration</title>
<path fill="none" stroke="black" d="M638,-117.5C638,-117.5 614,-92.5 614,-92.5 614,-92.5 509,-84.5 509,-84.5 509,-84.5 489.31,-71.15 470.39,-58.32"/>
<polygon fill="black" stroke="black" points="472.77,-55.03 462.53,-52.31 468.84,-60.82 472.77,-55.03"/>
</g>
<!-- NASALib/lebesgue@riemann_scaf&#45;&gt;NASALib/reals -->
<g id="edge35" class="edge">
<title>NASALib/lebesgue@riemann_scaf&#45;&gt;NASALib/reals</title>
<path fill="none" stroke="black" d="M638,-117.5C638,-117.5 614,-92.5 614,-92.5 614,-92.5 364,-84.5 364,-84.5 364,-84.5 355.33,-72.9 346.38,-60.93"/>
<polygon fill="black" stroke="black" points="348.73,-59.23 339.94,-53.31 343.12,-63.42 348.73,-59.23"/>
<path fill="none" stroke="black" d="M272.87,-397.16C367.49,-382.23 556,-352.5 556,-352.5 556,-352.5 638,-119.5 638,-119.5"/>
</g>
<!-- NASALib/lebesgue@riemann_scaf&#45;&gt;NASALib/sets_aux -->
<g id="edge36" class="edge">
<title>NASALib/lebesgue@riemann_scaf&#45;&gt;NASALib/sets_aux</title>
<path fill="none" stroke="black" d="M638,-117.5C638,-117.5 644.26,-87.1 649.19,-63.21"/>
<polygon fill="black" stroke="black" points="652.8,-64 651.39,-53.5 645.95,-62.58 652.8,-64"/>
</g>
<!-- NASALib/structures -->
<g id="node22" class="node">
<title>NASALib/structures</title>
<polygon fill="#fcfcd7" stroke="black" points="854.25,-52 785.75,-52 785.75,-16 854.25,-16 854.25,-52"/>
<text text-anchor="middle" x="820" y="-28.95" font-family="Times,serif" font-size="14.00">structures</text>
</g>
<!-- NASALib/lebesgue@riemann_scaf&#45;&gt;NASALib/structures -->
<g id="edge37" class="edge">
<title>NASALib/lebesgue@riemann_scaf&#45;&gt;NASALib/structures</title>
<path fill="none" stroke="black" d="M714,-117.5C714,-117.5 738,-92.5 738,-92.5 738,-92.5 777,-84.5 777,-84.5 777,-84.5 787.27,-72.67 797.78,-60.58"/>
<polygon fill="black" stroke="black" points="801.04,-63.16 804.96,-53.31 795.76,-58.57 801.04,-63.16"/>
<path fill="none" stroke="black" d="M273.68,-397.51C373.13,-382.7 576,-352.5 576,-352.5 576,-352.5 690,-208.5 690,-208.5 690,-208.5 714,-119.5 714,-119.5"/>
</g>
<!-- NASALib/lebesgue@tends -->
<g id="node14" class="node">
<title>NASALib/lebesgue@tends</title>
<ellipse fill="#e6f3ff" stroke="black" cx="143" cy="-550.5" rx="30.37" ry="18"/>
<text text-anchor="middle" x="143" y="-545.45" font-family="Times,serif" font-size="14.00">tends</text>
</g>
<!-- NASALib/lebesgue@uncountability -->
<g id="node15" class="node">
<title>NASALib/lebesgue@uncountability</title>
<ellipse fill="#e6f3ff" stroke="black" cx="483" cy="-334.5" rx="64.15" ry="18"/>
<text text-anchor="middle" x="483" y="-329.45" font-family="Times,serif" font-size="14.00">uncountability</text>
</g>
<!-- NASALib/lebesgue@uncountability&#45;&gt;NASALib/lebesgue@lebesgue_def -->
<g id="edge38" class="edge">
<title>NASALib/lebesgue@uncountability&#45;&gt;NASALib/lebesgue@lebesgue_def</title>
<path fill="none" stroke="black" d="M463.05,-317.26C451.85,-308.14 437.67,-296.6 425.33,-286.56"/>
<polygon fill="black" stroke="black" points="428.1,-283.49 418.14,-279.89 423.68,-288.92 428.1,-283.49"/>
</g>
<!-- NASALib/lebesgue@uncountability&#45;&gt;NASALib/metric_space -->
<g id="edge39" class="edge">
<title>NASALib/lebesgue@uncountability&#45;&gt;NASALib/metric_space</title>
<path fill="none" stroke="black" d="M600,-117.5C600,-117.5 585.62,-86.27 574.55,-62.24"/>
<polygon fill="black" stroke="black" points="577.42,-61.11 570.06,-53.5 571.06,-64.04 577.42,-61.11"/>
</g>
<!-- NASALib/lebesgue@uncountability&#45;&gt;NASALib/reals -->
<g id="edge40" class="edge">
<title>NASALib/lebesgue@uncountability&#45;&gt;NASALib/reals</title>
<path fill="none" stroke="black" d="M600,-117.5C600,-117.5 576,-92.5 576,-92.5 576,-92.5 364,-84.5 364,-84.5 364,-84.5 355.33,-72.9 346.38,-60.93"/>
<polygon fill="black" stroke="black" points="348.73,-59.23 339.94,-53.31 343.12,-63.42 348.73,-59.23"/>
<path fill="none" stroke="black" d="M492.38,-316.35C520.14,-265.57 600,-119.5 600,-119.5"/>
</g>
<!-- NASALib/lebesgue@uncountability&#45;&gt;NASALib/sets_aux -->
<g id="edge41" class="edge">
<title>NASALib/lebesgue@uncountability&#45;&gt;NASALib/sets_aux</title>
<path fill="none" stroke="black" d="M600,-117.5C600,-117.5 621.19,-85.71 637.27,-61.6"/>
<polygon fill="black" stroke="black" points="640.7,-63.76 643.34,-53.5 634.88,-59.88 640.7,-63.76"/>
</g>
</g>
</svg>
