<?xml version="1.0" encoding="UTF-8" standalone="no"?>
<!DOCTYPE svg PUBLIC "-//W3C//DTD SVG 1.1//EN"
 "http://www.w3.org/Graphics/SVG/1.1/DTD/svg11.dtd">
<!-- Generated by graphviz version 7.0.6 (20230106.0513)
 -->
<!-- Title: lebesgue&#45;zoomed Pages: 1 -->
<svg width="963pt" height="614pt"
 viewBox="0.00 0.00 963.00 614.00" xmlns="http://www.w3.org/2000/svg" xmlns:xlink="http://www.w3.org/1999/xlink">
<g id="graph0" class="graph" transform="scale(1 1) rotate(0) translate(4 610)">
<title>lebesgue&#45;zoomed</title>
<polygon fill="white" stroke="none" points="-4,4 -4,-610 959,-610 959,4 -4,4"/>
<g id="clust1" class="cluster">
<title>cluster_NASALib</title>
<polygon fill="none" stroke="black" points="8,-8 8,-83 947,-83 947,-8 8,-8"/>
<text text-anchor="middle" x="477.5" y="-67.8" font-family="Times,serif" font-size="14.00">NASALib</text>
</g>
<g id="clust2" class="cluster">
<title>cluster_NASALib/lebesgue</title>
<polygon fill="none" stroke="black" points="20,-91 20,-598 467,-598 467,-91 20,-91"/>
<text text-anchor="middle" x="243.5" y="-582.8" font-family="Times,serif" font-size="14.00">NASALib/lebesgue</text>
</g>
<!-- NASALib/analysis -->
<g id="node1" class="node">
<title>NASALib/analysis</title>
<polygon fill="#fcfcd7" stroke="black" points="939,-52 879,-52 879,-16 939,-16 939,-52"/>
<text text-anchor="middle" x="909" y="-30.3" font-family="Times,serif" font-size="14.00">analysis</text>
</g>
<!-- NASALib/extended_nnreal -->
<g id="node2" class="node">
<title>NASALib/extended_nnreal</title>
<polygon fill="#fcfcd7" stroke="black" points="194,-52 88,-52 88,-16 194,-16 194,-52"/>
<text text-anchor="middle" x="141" y="-30.3" font-family="Times,serif" font-size="14.00">extended_nnreal</text>
</g>
<!-- NASALib/lebesgue@ae_continuous_def -->
<g id="node3" class="node">
<title>NASALib/lebesgue@ae_continuous_def</title>
<ellipse fill="#e6f3ff" stroke="black" cx="316" cy="-333" rx="77.19" ry="18"/>
<text text-anchor="middle" x="316" y="-329.3" font-family="Times,serif" font-size="14.00">ae_continuous_def</text>
</g>
<!-- NASALib/lebesgue@lebesgue_def -->
<g id="node6" class="node">
<title>NASALib/lebesgue@lebesgue_def</title>
<ellipse fill="#e6f3ff" stroke="black" cx="316" cy="-261" rx="57.39" ry="18"/>
<text text-anchor="middle" x="316" y="-257.3" font-family="Times,serif" font-size="14.00">lebesgue_def</text>
</g>
<!-- NASALib/lebesgue@ae_continuous_def&#45;&gt;NASALib/lebesgue@lebesgue_def -->
<g id="edge1" class="edge">
<title>NASALib/lebesgue@ae_continuous_def&#45;&gt;NASALib/lebesgue@lebesgue_def</title>
<path fill="none" stroke="black" d="M316,-314.7C316,-307.41 316,-298.73 316,-290.54"/>
<polygon fill="black" stroke="black" points="319.5,-290.62 316,-280.62 312.5,-290.62 319.5,-290.62"/>
</g>
<!-- NASALib/measure_integration -->
<g id="node15" class="node">
<title>NASALib/measure_integration</title>
<polygon fill="#fcfcd7" stroke="black" points="690,-52 562,-52 562,-16 690,-16 690,-52"/>
<text text-anchor="middle" x="626" y="-30.3" font-family="Times,serif" font-size="14.00">measure_integration</text>
</g>
<!-- NASALib/lebesgue@ae_continuous_def&#45;&gt;NASALib/measure_integration -->
<g id="edge2" class="edge">
<title>NASALib/lebesgue@ae_continuous_def&#45;&gt;NASALib/measure_integration</title>
<path fill="none" stroke="black" d="M554,-116C554,-116 582.23,-84.24 603.34,-60.49"/>
<polygon fill="black" stroke="black" points="605.7,-63.11 609.73,-53.31 600.47,-58.46 605.7,-63.11"/>
<path fill="none" stroke="black" d="M516,-188C516,-188 554,-118 554,-118"/>
</g>
<!-- NASALib/metric_space -->
<g id="node16" class="node">
<title>NASALib/metric_space</title>
<polygon fill="#fcfcd7" stroke="black" points="543.5,-52 454.5,-52 454.5,-16 543.5,-16 543.5,-52"/>
<text text-anchor="middle" x="499" y="-30.3" font-family="Times,serif" font-size="14.00">metric_space</text>
</g>
<!-- NASALib/lebesgue@ae_continuous_def&#45;&gt;NASALib/metric_space -->
<g id="edge3" class="edge">
<title>NASALib/lebesgue@ae_continuous_def&#45;&gt;NASALib/metric_space</title>
<path fill="none" stroke="black" d="M516,-188C516,-188 502,-135 502,-135 502,-135 500.75,-93.34 499.86,-63.8"/>
<polygon fill="black" stroke="black" points="503.37,-63.82 499.57,-53.93 496.37,-64.03 503.37,-63.82"/>
<path fill="none" stroke="black" d="M339.33,-315.43C392.09,-277.97 516,-190 516,-190"/>
</g>
<!-- NASALib/lebesgue@bounded_interval_props -->
<g id="node4" class="node">
<title>NASALib/lebesgue@bounded_interval_props</title>
<ellipse fill="#e6f3ff" stroke="black" cx="124" cy="-189" rx="96.38" ry="18"/>
<text text-anchor="middle" x="124" y="-185.3" font-family="Times,serif" font-size="14.00">bounded_interval_props</text>
</g>
<!-- NASALib/lebesgue@real_intervals_aux -->
<g id="node9" class="node">
<title>NASALib/lebesgue@real_intervals_aux</title>
<ellipse fill="#e6f3ff" stroke="black" cx="164" cy="-117" rx="75.29" ry="18"/>
<text text-anchor="middle" x="164" y="-113.3" font-family="Times,serif" font-size="14.00">real_intervals_aux</text>
</g>
<!-- NASALib/lebesgue@bounded_interval_props&#45;&gt;NASALib/lebesgue@real_intervals_aux -->
<g id="edge4" class="edge">
<title>NASALib/lebesgue@bounded_interval_props&#45;&gt;NASALib/lebesgue@real_intervals_aux</title>
<path fill="none" stroke="black" d="M133.89,-170.7C138.34,-162.9 143.71,-153.51 148.67,-144.83"/>
<polygon fill="black" stroke="black" points="151.55,-146.84 153.48,-136.42 145.47,-143.36 151.55,-146.84"/>
</g>
<!-- NASALib/lebesgue@continuous_on -->
<g id="node5" class="node">
<title>NASALib/lebesgue@continuous_on</title>
<ellipse fill="#e6f3ff" stroke="black" cx="224" cy="-477" rx="62.29" ry="18"/>
<text text-anchor="middle" x="224" y="-473.3" font-family="Times,serif" font-size="14.00">continuous_on</text>
</g>
<!-- NASALib/lebesgue@continuous_on&#45;&gt;NASALib/metric_space -->
<g id="edge5" class="edge">
<title>NASALib/lebesgue@continuous_on&#45;&gt;NASALib/metric_space</title>
<path fill="none" stroke="black" d="M828,-116C828,-116 766,-91 766,-91 766,-91 553,-83 553,-83 553,-83 540.19,-71.61 527.05,-59.93"/>
<polygon fill="black" stroke="black" points="529.43,-57.36 519.63,-53.33 524.78,-62.59 529.43,-57.36"/>
<path fill="none" stroke="black" d="M271.22,-464.85C284.79,-461.65 296,-459 296,-459 296,-459 804,-423 804,-423 804,-423 828,-334 828,-334 828,-334 828,-334 828,-260 828,-260 828,-118 828,-118"/>
</g>
<!-- NASALib/topology -->
<g id="node22" class="node">
<title>NASALib/topology</title>
<polygon fill="#fcfcd7" stroke="black" points="860.5,-52 795.5,-52 795.5,-16 860.5,-16 860.5,-52"/>
<text text-anchor="middle" x="828" y="-30.3" font-family="Times,serif" font-size="14.00">topology</text>
</g>
<!-- NASALib/lebesgue@continuous_on&#45;&gt;NASALib/topology -->
<g id="edge6" class="edge">
<title>NASALib/lebesgue@continuous_on&#45;&gt;NASALib/topology</title>
<path fill="none" stroke="black" d="M828,-116C828,-116 828,-86.96 828,-63.66"/>
<polygon fill="black" stroke="black" points="831.5,-63.69 828,-53.69 824.5,-63.69 831.5,-63.69"/>
</g>
<!-- NASALib/lebesgue@real_lebesgue_scaf -->
<g id="node10" class="node">
<title>NASALib/lebesgue@real_lebesgue_scaf</title>
<ellipse fill="#e6f3ff" stroke="black" cx="316" cy="-189" rx="77.19" ry="18"/>
<text text-anchor="middle" x="316" y="-185.3" font-family="Times,serif" font-size="14.00">real_lebesgue_scaf</text>
</g>
<!-- NASALib/lebesgue@lebesgue_def&#45;&gt;NASALib/lebesgue@real_lebesgue_scaf -->
<g id="edge7" class="edge">
<title>NASALib/lebesgue@lebesgue_def&#45;&gt;NASALib/lebesgue@real_lebesgue_scaf</title>
<path fill="none" stroke="black" d="M316,-242.7C316,-235.41 316,-226.73 316,-218.54"/>
<polygon fill="black" stroke="black" points="319.5,-218.62 316,-208.62 312.5,-218.62 319.5,-218.62"/>
</g>
<!-- NASALib/lebesgue@lebesgue_def&#45;&gt;NASALib/measure_integration -->
<g id="edge8" class="edge">
<title>NASALib/lebesgue@lebesgue_def&#45;&gt;NASALib/measure_integration</title>
<path fill="none" stroke="black" d="M341.34,-244.38C366.71,-228.75 402,-207 402,-207 402,-207 502,-91 502,-91 502,-91 553,-83 553,-83 553,-83 571.66,-70.73 590.11,-58.6"/>
<polygon fill="black" stroke="black" points="591.95,-61.58 598.38,-53.16 588.1,-55.73 591.95,-61.58"/>
</g>
<!-- NASALib/lebesgue@lebesgue_def&#45;&gt;NASALib/topology -->
<g id="edge9" class="edge">
<title>NASALib/lebesgue@lebesgue_def&#45;&gt;NASALib/topology</title>
<path fill="none" stroke="black" d="M351.79,-246.55C461.7,-205.25 787,-83 787,-83 787,-83 796.18,-72.25 805.85,-60.93"/>
<polygon fill="black" stroke="black" points="808.38,-63.36 812.22,-53.48 803.06,-58.81 808.38,-63.36"/>
</g>
<!-- NASALib/lebesgue@lebesgue_fundamental -->
<g id="node7" class="node">
<title>NASALib/lebesgue@lebesgue_fundamental</title>
<ellipse fill="#e6f3ff" stroke="black" cx="224" cy="-549" rx="90.18" ry="18"/>
<text text-anchor="middle" x="224" y="-545.3" font-family="Times,serif" font-size="14.00">lebesgue_fundamental</text>
</g>
<!-- NASALib/lebesgue@lebesgue_fundamental&#45;&gt;NASALib/analysis -->
<g id="edge10" class="edge">
<title>NASALib/lebesgue@lebesgue_fundamental&#45;&gt;NASALib/analysis</title>
<path fill="none" stroke="black" d="M284.63,-535.33C436.66,-503.55 822,-423 822,-423 822,-423 866,-406 866,-406"/>
</g>
<!-- NASALib/lebesgue@lebesgue_fundamental&#45;&gt;NASALib/lebesgue@continuous_on -->
<g id="edge11" class="edge">
<title>NASALib/lebesgue@lebesgue_fundamental&#45;&gt;NASALib/lebesgue@continuous_on</title>
<path fill="none" stroke="black" d="M224,-530.7C224,-523.41 224,-514.73 224,-506.54"/>
<polygon fill="black" stroke="black" points="227.5,-506.62 224,-496.62 220.5,-506.62 227.5,-506.62"/>
</g>
<!-- NASALib/lebesgue@restriction_integral -->
<g id="node11" class="node">
<title>NASALib/lebesgue@restriction_integral</title>
<ellipse fill="#e6f3ff" stroke="black" cx="382" cy="-477" rx="77.19" ry="18"/>
<text text-anchor="middle" x="382" y="-473.3" font-family="Times,serif" font-size="14.00">restriction_integral</text>
</g>
<!-- NASALib/lebesgue@lebesgue_fundamental&#45;&gt;NASALib/lebesgue@restriction_integral -->
<g id="edge12" class="edge">
<title>NASALib/lebesgue@lebesgue_fundamental&#45;&gt;NASALib/lebesgue@restriction_integral</title>
<path fill="none" stroke="black" d="M259.85,-532.12C282.62,-522.03 312.27,-508.89 336.66,-498.09"/>
<polygon fill="black" stroke="black" points="338,-501.32 345.72,-494.07 335.16,-494.92 338,-501.32"/>
</g>
<!-- NASALib/lebesgue@riemann_link -->
<g id="node12" class="node">
<title>NASALib/lebesgue@riemann_link</title>
<ellipse fill="#e6f3ff" stroke="black" cx="86" cy="-477" rx="57.69" ry="18"/>
<text text-anchor="middle" x="86" y="-473.3" font-family="Times,serif" font-size="14.00">riemann_link</text>
</g>
<!-- NASALib/lebesgue@lebesgue_fundamental&#45;&gt;NASALib/lebesgue@riemann_link -->
<g id="edge13" class="edge">
<title>NASALib/lebesgue@lebesgue_fundamental&#45;&gt;NASALib/lebesgue@riemann_link</title>
<path fill="none" stroke="black" d="M191.99,-531.76C172.1,-521.68 146.39,-508.63 125.27,-497.92"/>
<polygon fill="black" stroke="black" points="126.86,-494.8 116.36,-493.4 123.7,-501.05 126.86,-494.8"/>
</g>
<!-- NASALib/lebesgue@real_intervals -->
<g id="node8" class="node">
<title>NASALib/lebesgue@real_intervals</title>
<ellipse fill="#e6f3ff" stroke="black" cx="316" cy="-117" rx="58.49" ry="18"/>
<text text-anchor="middle" x="316" y="-113.3" font-family="Times,serif" font-size="14.00">real_intervals</text>
</g>
<!-- NASALib/lebesgue@real_intervals&#45;&gt;NASALib/measure_integration -->
<g id="edge14" class="edge">
<title>NASALib/lebesgue@real_intervals&#45;&gt;NASALib/measure_integration</title>
<path fill="none" stroke="black" d="M353.69,-102.91C371.11,-96.87 388,-91 388,-91 388,-91 553,-83 553,-83 553,-83 571.66,-70.73 590.11,-58.6"/>
<polygon fill="black" stroke="black" points="591.95,-61.58 598.38,-53.16 588.1,-55.73 591.95,-61.58"/>
</g>
<!-- NASALib/lebesgue@real_intervals&#45;&gt;NASALib/metric_space -->
<g id="edge15" class="edge">
<title>NASALib/lebesgue@real_intervals&#45;&gt;NASALib/metric_space</title>
<path fill="none" stroke="black" d="M353.69,-102.91C371.11,-96.87 388,-91 388,-91 388,-91 446,-83 446,-83 446,-83 458.57,-71.61 471.47,-59.93"/>
<polygon fill="black" stroke="black" points="473.68,-62.65 478.74,-53.35 468.98,-57.46 473.68,-62.65"/>
</g>
<!-- NASALib/power -->
<g id="node17" class="node">
<title>NASALib/power</title>
<polygon fill="#fcfcd7" stroke="black" points="70,-52 16,-52 16,-16 70,-16 70,-52"/>
<text text-anchor="middle" x="43" y="-30.3" font-family="Times,serif" font-size="14.00">power</text>
</g>
<!-- NASALib/lebesgue@real_intervals&#45;&gt;NASALib/power -->
<g id="edge16" class="edge">
<title>NASALib/lebesgue@real_intervals&#45;&gt;NASALib/power</title>
<path fill="none" stroke="black" d="M279.61,-102.62C263.44,-96.68 248,-91 248,-91 248,-91 79,-83 79,-83 79,-83 71.1,-72.46 62.7,-61.26"/>
<polygon fill="black" stroke="black" points="65.7,-59.44 56.9,-53.54 60.1,-63.64 65.7,-59.44"/>
</g>
<!-- NASALib/sets_aux -->
<g id="node19" class="node">
<title>NASALib/sets_aux</title>
<polygon fill="#fcfcd7" stroke="black" points="347.5,-52 284.5,-52 284.5,-16 347.5,-16 347.5,-52"/>
<text text-anchor="middle" x="316" y="-30.3" font-family="Times,serif" font-size="14.00">sets_aux</text>
</g>
<!-- NASALib/lebesgue@real_intervals&#45;&gt;NASALib/sets_aux -->
<g id="edge17" class="edge">
<title>NASALib/lebesgue@real_intervals&#45;&gt;NASALib/sets_aux</title>
<path fill="none" stroke="black" d="M316,-98.82C316,-88.69 316,-75.6 316,-63.92"/>
<polygon fill="black" stroke="black" points="319.5,-63.95 316,-53.95 312.5,-63.95 319.5,-63.95"/>
</g>
<!-- NASALib/lebesgue@real_intervals_aux&#45;&gt;NASALib/metric_space -->
<g id="edge18" class="edge">
<title>NASALib/lebesgue@real_intervals_aux&#45;&gt;NASALib/metric_space</title>
<path fill="none" stroke="black" d="M209.98,-102.48C230.01,-96.59 249,-91 249,-91 249,-91 446,-83 446,-83 446,-83 458.57,-71.61 471.47,-59.93"/>
<polygon fill="black" stroke="black" points="473.68,-62.65 478.74,-53.35 468.98,-57.46 473.68,-62.65"/>
</g>
<!-- NASALib/reals -->
<g id="node18" class="node">
<title>NASALib/reals</title>
<polygon fill="#fcfcd7" stroke="black" points="266,-52 212,-52 212,-16 266,-16 266,-52"/>
<text text-anchor="middle" x="239" y="-30.3" font-family="Times,serif" font-size="14.00">reals</text>
</g>
<!-- NASALib/lebesgue@real_intervals_aux&#45;&gt;NASALib/reals -->
<g id="edge19" class="edge">
<title>NASALib/lebesgue@real_intervals_aux&#45;&gt;NASALib/reals</title>
<path fill="none" stroke="black" d="M183.5,-99.5C193.25,-91.25 203,-83 203,-83 203,-83 210.9,-72.46 219.3,-61.26"/>
<polygon fill="black" stroke="black" points="221.9,-63.64 225.1,-53.54 216.3,-59.44 221.9,-63.64"/>
</g>
<!-- NASALib/lebesgue@real_lebesgue_scaf&#45;&gt;NASALib/extended_nnreal -->
<g id="edge20" class="edge">
<title>NASALib/lebesgue@real_lebesgue_scaf&#45;&gt;NASALib/extended_nnreal</title>
<path fill="none" stroke="black" d="M337.2,-171.23C356.83,-155.7 383,-135 383,-135 383,-135 402,-118 402,-118"/>
<path fill="none" stroke="black" d="M402,-116C402,-116 383,-91 383,-91 383,-91 203,-83 203,-83 203,-83 187.73,-71.18 172.34,-59.26"/>
<polygon fill="black" stroke="black" points="174.63,-56.61 164.58,-53.26 170.34,-62.14 174.63,-56.61"/>
</g>
<!-- NASALib/lebesgue@real_lebesgue_scaf&#45;&gt;NASALib/lebesgue@real_intervals -->
<g id="edge21" class="edge">
<title>NASALib/lebesgue@real_lebesgue_scaf&#45;&gt;NASALib/lebesgue@real_intervals</title>
<path fill="none" stroke="black" d="M316,-170.7C316,-163.41 316,-154.73 316,-146.54"/>
<polygon fill="black" stroke="black" points="319.5,-146.62 316,-136.62 312.5,-146.62 319.5,-146.62"/>
</g>
<!-- NASALib/lebesgue@real_lebesgue_scaf&#45;&gt;NASALib/lebesgue@real_intervals_aux -->
<g id="edge22" class="edge">
<title>NASALib/lebesgue@real_lebesgue_scaf&#45;&gt;NASALib/lebesgue@real_intervals_aux</title>
<path fill="none" stroke="black" d="M282.27,-172.46C260.32,-162.36 231.49,-149.08 207.79,-138.16"/>
<polygon fill="black" stroke="black" points="209.56,-135.13 199.01,-134.12 206.63,-141.49 209.56,-135.13"/>
</g>
<!-- NASALib/lebesgue@real_lebesgue_scaf&#45;&gt;NASALib/measure_integration -->
<g id="edge23" class="edge">
<title>NASALib/lebesgue@real_lebesgue_scaf&#45;&gt;NASALib/measure_integration</title>
<path fill="none" stroke="black" d="M402,-116C402,-116 464,-91 464,-91 464,-91 553,-83 553,-83 553,-83 571.66,-70.73 590.11,-58.6"/>
<polygon fill="black" stroke="black" points="591.95,-61.58 598.38,-53.16 588.1,-55.73 591.95,-61.58"/>
</g>
<!-- NASALib/lebesgue@real_lebesgue_scaf&#45;&gt;NASALib/metric_space -->
<g id="edge24" class="edge">
<title>NASALib/lebesgue@real_lebesgue_scaf&#45;&gt;NASALib/metric_space</title>
<path fill="none" stroke="black" d="M402,-116C402,-116 426,-91 426,-91 426,-91 446,-83 446,-83 446,-83 458.57,-71.61 471.47,-59.93"/>
<polygon fill="black" stroke="black" points="473.68,-62.65 478.74,-53.35 468.98,-57.46 473.68,-62.65"/>
</g>
<!-- NASALib/lebesgue@real_lebesgue_scaf&#45;&gt;NASALib/reals -->
<g id="edge25" class="edge">
<title>NASALib/lebesgue@real_lebesgue_scaf&#45;&gt;NASALib/reals</title>
<path fill="none" stroke="black" d="M402,-116C402,-116 383,-91 383,-91 383,-91 276,-83 276,-83 276,-83 267.88,-72.46 259.25,-61.26"/>
<polygon fill="black" stroke="black" points="262.16,-59.31 253.28,-53.53 256.61,-63.58 262.16,-59.31"/>
</g>
<!-- NASALib/sigma_set -->
<g id="node20" class="node">
<title>NASALib/sigma_set</title>
<polygon fill="#fcfcd7" stroke="black" points="436.5,-52 365.5,-52 365.5,-16 436.5,-16 436.5,-52"/>
<text text-anchor="middle" x="401" y="-30.3" font-family="Times,serif" font-size="14.00">sigma_set</text>
</g>
<!-- NASALib/lebesgue@real_lebesgue_scaf&#45;&gt;NASALib/sigma_set -->
<g id="edge26" class="edge">
<title>NASALib/lebesgue@real_lebesgue_scaf&#45;&gt;NASALib/sigma_set</title>
<path fill="none" stroke="black" d="M402,-116C402,-116 401.64,-86.96 401.35,-63.66"/>
<polygon fill="black" stroke="black" points="404.85,-63.65 401.23,-53.69 397.85,-63.73 404.85,-63.65"/>
</g>
<!-- NASALib/lebesgue@restriction_integral&#45;&gt;NASALib/analysis -->
<g id="edge27" class="edge">
<title>NASALib/lebesgue@restriction_integral&#45;&gt;NASALib/analysis</title>
<path fill="none" stroke="black" d="M449.31,-467.89C572.56,-453.05 822,-423 822,-423 822,-423 866,-406 866,-406"/>
<path fill="none" stroke="black" d="M866,-404C866,-404 866,-190 866,-190"/>
</g>
<!-- NASALib/lebesgue@riemann_link&#45;&gt;NASALib/analysis -->
<g id="edge28" class="edge">
<title>NASALib/lebesgue@riemann_link&#45;&gt;NASALib/analysis</title>
<path fill="none" stroke="black" d="M790,-260C790,-260 866,-190 866,-190"/>
<path fill="none" stroke="black" d="M866,-188C866,-188 866,-118 866,-118"/>
</g>
<!-- NASALib/lebesgue@riemann_scaf -->
<g id="node13" class="node">
<title>NASALib/lebesgue@riemann_scaf</title>
<ellipse fill="#e6f3ff" stroke="black" cx="220" cy="-405" rx="58.49" ry="18"/>
<text text-anchor="middle" x="220" y="-401.3" font-family="Times,serif" font-size="14.00">riemann_scaf</text>
</g>
<!-- NASALib/lebesgue@riemann_link&#45;&gt;NASALib/lebesgue@riemann_scaf -->
<g id="edge29" class="edge">
<title>NASALib/lebesgue@riemann_link&#45;&gt;NASALib/lebesgue@riemann_scaf</title>
<path fill="none" stroke="black" d="M114.75,-460.98C134.18,-450.83 160.06,-437.31 181.3,-426.22"/>
<polygon fill="black" stroke="black" points="182.72,-429.43 189.96,-421.69 179.48,-423.22 182.72,-429.43"/>
</g>
<!-- NASALib/lebesgue@riemann_link&#45;&gt;NASALib/metric_space -->
<g id="edge30" class="edge">
<title>NASALib/lebesgue@riemann_link&#45;&gt;NASALib/metric_space</title>
<path fill="none" stroke="black" d="M129.12,-464.63C188.18,-449.06 287,-423 287,-423 287,-423 790,-262 790,-262"/>
<path fill="none" stroke="black" d="M790,-260C790,-260 553,-83 553,-83 553,-83 540.19,-71.61 527.05,-59.93"/>
<polygon fill="black" stroke="black" points="529.43,-57.36 519.63,-53.33 524.78,-62.59 529.43,-57.36"/>
</g>
<!-- NASALib/lebesgue@riemann_scaf&#45;&gt;NASALib/analysis -->
<g id="edge31" class="edge">
<title>NASALib/lebesgue@riemann_scaf&#45;&gt;NASALib/analysis</title>
<path fill="none" stroke="black" d="M866,-116C866,-116 882.13,-85.61 894.63,-62.06"/>
<polygon fill="black" stroke="black" points="897.57,-63.99 899.17,-53.51 891.39,-60.71 897.57,-63.99"/>
<path fill="none" stroke="black" d="M714,-260C714,-260 866,-118 866,-118"/>
</g>
<!-- NASALib/lebesgue@riemann_scaf&#45;&gt;NASALib/lebesgue@ae_continuous_def -->
<g id="edge32" class="edge">
<title>NASALib/lebesgue@riemann_scaf&#45;&gt;NASALib/lebesgue@ae_continuous_def</title>
<path fill="none" stroke="black" d="M241.78,-388.12C254.28,-379 270.19,-367.4 284.08,-357.28"/>
<polygon fill="black" stroke="black" points="286.06,-360.16 292.08,-351.44 281.94,-354.51 286.06,-360.16"/>
</g>
<!-- NASALib/lebesgue@riemann_scaf&#45;&gt;NASALib/lebesgue@lebesgue_def -->
<g id="edge33" class="edge">
<title>NASALib/lebesgue@riemann_scaf&#45;&gt;NASALib/lebesgue@lebesgue_def</title>
<path fill="none" stroke="black" d="M221.93,-386.84C224.83,-360.98 230,-315 230,-315 230,-315 257.26,-298.2 281.09,-283.51"/>
<polygon fill="black" stroke="black" points="282.7,-286.64 289.37,-278.41 279.02,-280.68 282.7,-286.64"/>
</g>
<!-- NASALib/lebesgue@riemann_scaf&#45;&gt;NASALib/measure_integration -->
<g id="edge34" class="edge">
<title>NASALib/lebesgue@riemann_scaf&#45;&gt;NASALib/measure_integration</title>
<path fill="none" stroke="black" d="M554,-188C554,-188 554,-118 554,-118"/>
</g>
<!-- NASALib/lebesgue@riemann_scaf&#45;&gt;NASALib/reals -->
<g id="edge35" class="edge">
<title>NASALib/lebesgue@riemann_scaf&#45;&gt;NASALib/reals</title>
<path fill="none" stroke="black" d="M516,-116C516,-116 416,-91 416,-91 416,-91 276,-83 276,-83 276,-83 267.88,-72.46 259.25,-61.26"/>
<polygon fill="black" stroke="black" points="262.16,-59.31 253.28,-53.53 256.61,-63.58 262.16,-59.31"/>
<path fill="none" stroke="black" d="M261.69,-392.02C380.79,-357.78 714,-262 714,-262"/>
<path fill="none" stroke="black" d="M554,-188C554,-188 516,-118 516,-118"/>
<path fill="none" stroke="black" d="M714,-260C714,-260 554,-190 554,-190"/>
</g>
<!-- NASALib/lebesgue@riemann_scaf&#45;&gt;NASALib/sets_aux -->
<g id="edge36" class="edge">
<title>NASALib/lebesgue@riemann_scaf&#45;&gt;NASALib/sets_aux</title>
<path fill="none" stroke="black" d="M516,-116C516,-116 416,-91 416,-91 416,-91 357,-83 357,-83 357,-83 347.82,-72.25 338.15,-60.93"/>
<polygon fill="black" stroke="black" points="340.94,-58.81 331.78,-53.48 335.62,-63.36 340.94,-58.81"/>
</g>
<!-- NASALib/structures -->
<g id="node21" class="node">
<title>NASALib/structures</title>
<polygon fill="#fcfcd7" stroke="black" points="777.5,-52 708.5,-52 708.5,-16 777.5,-16 777.5,-52"/>
<text text-anchor="middle" x="743" y="-30.3" font-family="Times,serif" font-size="14.00">structures</text>
</g>
<!-- NASALib/lebesgue@riemann_scaf&#45;&gt;NASALib/structures -->
<g id="edge37" class="edge">
<title>NASALib/lebesgue@riemann_scaf&#45;&gt;NASALib/structures</title>
<path fill="none" stroke="black" d="M714,-260C714,-260 731.49,-124.31 739.3,-63.68"/>
<polygon fill="black" stroke="black" points="742.77,-64.15 740.58,-53.78 735.83,-63.25 742.77,-64.15"/>
</g>
<!-- NASALib/lebesgue@tends -->
<g id="node14" class="node">
<title>NASALib/lebesgue@tends</title>
<ellipse fill="#e6f3ff" stroke="black" cx="72" cy="-549" rx="29.5" ry="18"/>
<text text-anchor="middle" x="72" y="-545.3" font-family="Times,serif" font-size="14.00">tends</text>
</g>
</g>
</svg>
