<?xml version="1.0" encoding="UTF-8" standalone="no"?>
<!DOCTYPE svg PUBLIC "-//W3C//DTD SVG 1.1//EN"
 "http://www.w3.org/Graphics/SVG/1.1/DTD/svg11.dtd">
<!-- Generated by graphviz version 8.1.0 (20230707.0739)
 -->
<!-- Title: polygons&#45;zoomed Pages: 1 -->
<svg width="588pt" height="550pt"
 viewBox="0.00 0.00 588.00 549.50" xmlns="http://www.w3.org/2000/svg" xmlns:xlink="http://www.w3.org/1999/xlink">
<g id="graph0" class="graph" transform="scale(1 1) rotate(0) translate(4 545.5)">
<title>polygons&#45;zoomed</title>
<polygon fill="white" stroke="none" points="-4,4 -4,-545.5 584,-545.5 584,4 -4,4"/>
<g id="clust1" class="cluster">
<title>cluster_NASALib</title>
<polygon fill="none" stroke="black" points="138,-8 138,-84.5 394,-84.5 394,-8 138,-8"/>
<text text-anchor="middle" x="266" y="-67.2" font-family="Times,serif" font-size="14.00">NASALib</text>
</g>
<g id="clust2" class="cluster">
<title>cluster_NASALib/polygons</title>
<polygon fill="none" stroke="black" points="116,-92.5 116,-533.5 572,-533.5 572,-92.5 116,-92.5"/>
<text text-anchor="middle" x="344" y="-516.2" font-family="Times,serif" font-size="14.00">NASALib/polygons</text>
</g>
<g id="clust3" class="cluster">
<title>cluster_PVS Prelude</title>
<polygon fill="none" stroke="black" points="20,-92.5 20,-169 108,-169 108,-92.5 20,-92.5"/>
<text text-anchor="middle" x="64" y="-151.7" font-family="Times,serif" font-size="14.00">PVS Prelude</text>
</g>
<!-- lib/finite_sets -->
<g id="node1" class="node">
<title>lib/finite_sets</title>
<polygon fill="#fcfcd7" stroke="black" points="99.75,-136.5 28.25,-136.5 28.25,-100.5 99.75,-100.5 99.75,-136.5"/>
<text text-anchor="middle" x="64" y="-113.45" font-family="Times,serif" font-size="14.00">finite_sets</text>
</g>
<!-- nasalib/line_segments -->
<g id="node2" class="node">
<title>nasalib/line_segments</title>
<polygon fill="#fcfcd7" stroke="black" points="312,-52 218,-52 218,-16 312,-16 312,-52"/>
<text text-anchor="middle" x="265" y="-28.95" font-family="Times,serif" font-size="14.00">line_segments</text>
</g>
<!-- nasalib/orders -->
<g id="node3" class="node">
<title>nasalib/orders</title>
<polygon fill="#fcfcd7" stroke="black" points="200,-52 146,-52 146,-16 200,-16 200,-52"/>
<text text-anchor="middle" x="173" y="-28.95" font-family="Times,serif" font-size="14.00">orders</text>
</g>
<!-- nasalib/polygons@arb_direc_edge_crossing -->
<g id="node4" class="node">
<title>nasalib/polygons@arb_direc_edge_crossing</title>
<ellipse fill="#e6f3ff" stroke="black" cx="227" cy="-411" rx="103.04" ry="18"/>
<text text-anchor="middle" x="227" y="-405.95" font-family="Times,serif" font-size="14.00">arb_direc_edge_crossing</text>
</g>
<!-- nasalib/polygons@horiz_edge_crossing -->
<g id="node5" class="node">
<title>nasalib/polygons@horiz_edge_crossing</title>
<ellipse fill="#e6f3ff" stroke="black" cx="227" cy="-339" rx="87.18" ry="18"/>
<text text-anchor="middle" x="227" y="-333.95" font-family="Times,serif" font-size="14.00">horiz_edge_crossing</text>
</g>
<!-- nasalib/polygons@arb_direc_edge_crossing&#45;&gt;nasalib/polygons@horiz_edge_crossing -->
<g id="edge1" class="edge">
<title>nasalib/polygons@arb_direc_edge_crossing&#45;&gt;nasalib/polygons@horiz_edge_crossing</title>
<path fill="none" stroke="black" d="M227,-392.7C227,-385.24 227,-376.32 227,-367.97"/>
<polygon fill="black" stroke="black" points="230.5,-368.1 227,-358.1 223.5,-368.1 230.5,-368.1"/>
</g>
<!-- nasalib/polygons@horiz_edge_crossing&#45;&gt;lib/finite_sets -->
<g id="edge2" class="edge">
<title>nasalib/polygons@horiz_edge_crossing&#45;&gt;lib/finite_sets</title>
<path fill="none" stroke="black" d="M158,-194C158,-194 112,-169 112,-169 112,-169 100.09,-156.72 88.13,-144.39"/>
<polygon fill="black" stroke="black" points="91.26,-142.56 81.79,-137.81 86.24,-147.43 91.26,-142.56"/>
<path fill="none" stroke="black" d="M158,-266C158,-266 158,-196 158,-196"/>
<path fill="none" stroke="black" d="M210.3,-321.05C189.88,-300.34 158,-268 158,-268"/>
</g>
<!-- nasalib/polygons@horiz_edge_crossing&#45;&gt;nasalib/line_segments -->
<g id="edge3" class="edge">
<title>nasalib/polygons@horiz_edge_crossing&#45;&gt;nasalib/line_segments</title>
<path fill="none" stroke="black" d="M293.28,-326.95C386.47,-311.42 545,-285 545,-285 545,-285 545,-249 545,-249 545,-249 369,-92.5 369,-92.5 369,-92.5 322,-84.5 322,-84.5 322,-84.5 307.32,-71.75 292.85,-59.19"/>
<polygon fill="black" stroke="black" points="295.78,-56.23 285.94,-52.31 291.19,-61.51 295.78,-56.23"/>
</g>
<!-- nasalib/polygons@topleft_vertex -->
<g id="node12" class="node">
<title>nasalib/polygons@topleft_vertex</title>
<ellipse fill="#e6f3ff" stroke="black" cx="260" cy="-195" rx="62.61" ry="18"/>
<text text-anchor="middle" x="260" y="-189.95" font-family="Times,serif" font-size="14.00">topleft_vertex</text>
</g>
<!-- nasalib/polygons@horiz_edge_crossing&#45;&gt;nasalib/polygons@topleft_vertex -->
<g id="edge4" class="edge">
<title>nasalib/polygons@horiz_edge_crossing&#45;&gt;nasalib/polygons@topleft_vertex</title>
<path fill="none" stroke="black" d="M158,-266C158,-266 177,-249 177,-249 177,-249 202.99,-232.4 225.89,-217.78"/>
<polygon fill="black" stroke="black" points="227.55,-220.23 234.1,-211.9 223.79,-214.33 227.55,-220.23"/>
</g>
<!-- nasalib/polygons@polygon_attributes -->
<g id="node6" class="node">
<title>nasalib/polygons@polygon_attributes</title>
<ellipse fill="#e6f3ff" stroke="black" cx="456" cy="-267" rx="80.01" ry="18"/>
<text text-anchor="middle" x="456" y="-261.95" font-family="Times,serif" font-size="14.00">polygon_attributes</text>
</g>
<!-- nasalib/polygons@polygon_attributes&#45;&gt;lib/finite_sets -->
<g id="edge5" class="edge">
<title>nasalib/polygons@polygon_attributes&#45;&gt;lib/finite_sets</title>
<path fill="none" stroke="black" d="M397.19,-254.37C318.3,-238.77 188,-213 188,-213 188,-213 158,-196 158,-196"/>
</g>
<!-- nasalib/polygons@polygon_attributes&#45;&gt;nasalib/line_segments -->
<g id="edge6" class="edge">
<title>nasalib/polygons@polygon_attributes&#45;&gt;nasalib/line_segments</title>
<path fill="none" stroke="black" d="M355,-117.5C355,-117.5 328,-92.5 328,-92.5 328,-92.5 308.79,-74.97 291.59,-59.27"/>
<polygon fill="black" stroke="black" points="294.65,-57.41 284.9,-53.25 289.93,-62.58 294.65,-57.41"/>
</g>
<!-- nasalib/polygons@polygon_attributes&#45;&gt;nasalib/orders -->
<g id="edge7" class="edge">
<title>nasalib/polygons@polygon_attributes&#45;&gt;nasalib/orders</title>
<path fill="none" stroke="black" d="M444.22,-248.91C417.57,-210.26 355,-119.5 355,-119.5"/>
<path fill="none" stroke="black" d="M355,-117.5C355,-117.5 328,-92.5 328,-92.5 328,-92.5 209,-84.5 209,-84.5 209,-84.5 200.56,-72.9 191.86,-60.93"/>
<polygon fill="black" stroke="black" points="194.3,-59.34 185.59,-53.31 188.64,-63.46 194.3,-59.34"/>
</g>
<!-- nasalib/polygons@polygon_attributes&#45;&gt;nasalib/polygons@topleft_vertex -->
<g id="edge8" class="edge">
<title>nasalib/polygons@polygon_attributes&#45;&gt;nasalib/polygons@topleft_vertex</title>
<path fill="none" stroke="black" d="M414.91,-251.33C383.82,-240.22 341.02,-224.94 308.29,-213.25"/>
<polygon fill="black" stroke="black" points="309.64,-209.65 299.04,-209.59 307.28,-216.25 309.64,-209.65"/>
</g>
<!-- nasalib/vectors -->
<g id="node13" class="node">
<title>nasalib/vectors</title>
<polygon fill="#fcfcd7" stroke="black" points="385.5,-52 330.5,-52 330.5,-16 385.5,-16 385.5,-52"/>
<text text-anchor="middle" x="358" y="-28.95" font-family="Times,serif" font-size="14.00">vectors</text>
</g>
<!-- nasalib/polygons@polygon_attributes&#45;&gt;nasalib/vectors -->
<g id="edge9" class="edge">
<title>nasalib/polygons@polygon_attributes&#45;&gt;nasalib/vectors</title>
<path fill="none" stroke="black" d="M355,-117.5C355,-117.5 356.11,-87.1 356.97,-63.21"/>
<polygon fill="black" stroke="black" points="360.5,-63.62 357.36,-53.5 353.5,-63.36 360.5,-63.62"/>
</g>
<!-- nasalib/polygons@polygon_membership -->
<g id="node7" class="node">
<title>nasalib/polygons@polygon_membership</title>
<ellipse fill="#e6f3ff" stroke="black" cx="341" cy="-483" rx="92.3" ry="18"/>
<text text-anchor="middle" x="341" y="-477.95" font-family="Times,serif" font-size="14.00">polygon_membership</text>
</g>
<!-- nasalib/polygons@polygon_membership&#45;&gt;nasalib/polygons@arb_direc_edge_crossing -->
<g id="edge10" class="edge">
<title>nasalib/polygons@polygon_membership&#45;&gt;nasalib/polygons@arb_direc_edge_crossing</title>
<path fill="none" stroke="black" d="M313.98,-465.41C298.9,-456.15 279.91,-444.49 263.52,-434.42"/>
<polygon fill="black" stroke="black" points="265.57,-430.96 255.22,-428.71 261.91,-436.93 265.57,-430.96"/>
</g>
<!-- nasalib/polygons@polygon_miter_sequences -->
<g id="node8" class="node">
<title>nasalib/polygons@polygon_miter_sequences</title>
<ellipse fill="#e6f3ff" stroke="black" cx="456" cy="-411" rx="107.65" ry="18"/>
<text text-anchor="middle" x="456" y="-405.95" font-family="Times,serif" font-size="14.00">polygon_miter_sequences</text>
</g>
<!-- nasalib/polygons@polygon_membership&#45;&gt;nasalib/polygons@polygon_miter_sequences -->
<g id="edge11" class="edge">
<title>nasalib/polygons@polygon_membership&#45;&gt;nasalib/polygons@polygon_miter_sequences</title>
<path fill="none" stroke="black" d="M368.25,-465.41C383.47,-456.15 402.63,-444.49 419.16,-434.42"/>
<polygon fill="black" stroke="black" points="420.82,-436.9 427.54,-428.71 417.18,-430.92 420.82,-436.9"/>
</g>
<!-- nasalib/polygons@polygon_miter_sequences&#45;&gt;nasalib/line_segments -->
<g id="edge12" class="edge">
<title>nasalib/polygons@polygon_miter_sequences&#45;&gt;nasalib/line_segments</title>
<path fill="none" stroke="black" d="M381.03,-397.77C285.05,-382.12 131,-357 131,-357 131,-357 0,-268 0,-268 0,-268 0,-268 0,-194 0,-194 16,-92.5 16,-92.5 16,-92.5 209,-84.5 209,-84.5 209,-84.5 223.16,-71.98 237.24,-59.54"/>
<polygon fill="black" stroke="black" points="239.24,-62.56 244.41,-53.31 234.6,-57.31 239.24,-62.56"/>
</g>
<!-- nasalib/polygons@reverse_polygons -->
<g id="node10" class="node">
<title>nasalib/polygons@reverse_polygons</title>
<ellipse fill="#e6f3ff" stroke="black" cx="456" cy="-339" rx="75.92" ry="18"/>
<text text-anchor="middle" x="456" y="-333.95" font-family="Times,serif" font-size="14.00">reverse_polygons</text>
</g>
<!-- nasalib/polygons@polygon_miter_sequences&#45;&gt;nasalib/polygons@reverse_polygons -->
<g id="edge13" class="edge">
<title>nasalib/polygons@polygon_miter_sequences&#45;&gt;nasalib/polygons@reverse_polygons</title>
<path fill="none" stroke="black" d="M456,-392.7C456,-385.24 456,-376.32 456,-367.97"/>
<polygon fill="black" stroke="black" points="459.5,-368.1 456,-358.1 452.5,-368.1 459.5,-368.1"/>
</g>
<!-- nasalib/polygons@polygons_2d -->
<g id="node9" class="node">
<title>nasalib/polygons@polygons_2d</title>
<ellipse fill="#e6f3ff" stroke="black" cx="260" cy="-118.5" rx="58.52" ry="18"/>
<text text-anchor="middle" x="260" y="-113.45" font-family="Times,serif" font-size="14.00">polygons_2d</text>
</g>
<!-- nasalib/polygons@polygons_2d&#45;&gt;nasalib/line_segments -->
<g id="edge14" class="edge">
<title>nasalib/polygons@polygons_2d&#45;&gt;nasalib/line_segments</title>
<path fill="none" stroke="black" d="M261.06,-100C261.71,-89.28 262.56,-75.32 263.3,-63.08"/>
<polygon fill="black" stroke="black" points="266.83,-63.66 263.94,-53.47 259.84,-63.24 266.83,-63.66"/>
</g>
<!-- nasalib/polygons@reverse_polygons&#45;&gt;nasalib/polygons@polygon_attributes -->
<g id="edge15" class="edge">
<title>nasalib/polygons@reverse_polygons&#45;&gt;nasalib/polygons@polygon_attributes</title>
<path fill="none" stroke="black" d="M456,-320.7C456,-313.24 456,-304.32 456,-295.97"/>
<polygon fill="black" stroke="black" points="459.5,-296.1 456,-286.1 452.5,-296.1 459.5,-296.1"/>
</g>
<!-- nasalib/polygons@rightward_crossings -->
<g id="node11" class="node">
<title>nasalib/polygons@rightward_crossings</title>
<ellipse fill="#e6f3ff" stroke="black" cx="272" cy="-267" rx="85.64" ry="18"/>
<text text-anchor="middle" x="272" y="-261.95" font-family="Times,serif" font-size="14.00">rightward_crossings</text>
</g>
<!-- nasalib/polygons@reverse_polygons&#45;&gt;nasalib/polygons@rightward_crossings -->
<g id="edge16" class="edge">
<title>nasalib/polygons@reverse_polygons&#45;&gt;nasalib/polygons@rightward_crossings</title>
<path fill="none" stroke="black" d="M416.98,-323.15C389.42,-312.67 352.25,-298.53 322.45,-287.19"/>
<polygon fill="black" stroke="black" points="323.83,-283.59 313.24,-283.31 321.34,-290.13 323.83,-283.59"/>
</g>
<!-- nasalib/polygons@rightward_crossings&#45;&gt;nasalib/polygons@topleft_vertex -->
<g id="edge17" class="edge">
<title>nasalib/polygons@rightward_crossings&#45;&gt;nasalib/polygons@topleft_vertex</title>
<path fill="none" stroke="black" d="M269.03,-248.7C267.74,-241.15 266.19,-232.12 264.75,-223.68"/>
<polygon fill="black" stroke="black" points="268.07,-223.37 262.93,-214.1 261.17,-224.55 268.07,-223.37"/>
</g>
<!-- nasalib/polygons@topleft_vertex&#45;&gt;lib/finite_sets -->
<g id="edge18" class="edge">
<title>nasalib/polygons@topleft_vertex&#45;&gt;lib/finite_sets</title>
<path fill="none" stroke="black" d="M209.06,-184.16C189.6,-180.4 172,-177 172,-177 172,-177 112,-169 112,-169 112,-169 100.09,-156.72 88.13,-144.39"/>
<polygon fill="black" stroke="black" points="91.26,-142.56 81.79,-137.81 86.24,-147.43 91.26,-142.56"/>
</g>
<!-- nasalib/polygons@topleft_vertex&#45;&gt;nasalib/orders -->
<g id="edge19" class="edge">
<title>nasalib/polygons@topleft_vertex&#45;&gt;nasalib/orders</title>
<path fill="none" stroke="black" d="M222.42,-180.18C206.69,-174.4 192,-169 192,-169 192,-169 182.54,-102.26 176.97,-62.98"/>
<polygon fill="black" stroke="black" points="180.31,-62.65 175.45,-53.24 173.38,-63.64 180.31,-62.65"/>
</g>
<!-- nasalib/polygons@topleft_vertex&#45;&gt;nasalib/polygons@polygons_2d -->
<g id="edge20" class="edge">
<title>nasalib/polygons@topleft_vertex&#45;&gt;nasalib/polygons@polygons_2d</title>
<path fill="none" stroke="black" d="M260,-176.72C260,-168.13 260,-157.53 260,-147.8"/>
<polygon fill="black" stroke="black" points="263.5,-147.94 260,-137.94 256.5,-147.94 263.5,-147.94"/>
</g>
</g>
</svg>
