<?xml version="1.0" encoding="UTF-8" standalone="no"?>
<!DOCTYPE svg PUBLIC "-//W3C//DTD SVG 1.1//EN"
 "http://www.w3.org/Graphics/SVG/1.1/DTD/svg11.dtd">
<!-- Generated by graphviz version 2.40.1 (20161225.0304)
 -->
<!-- Title: vect_analysis Pages: 1 -->
<svg width="268pt" height="388pt"
 viewBox="0.00 0.00 268.00 388.00" xmlns="http://www.w3.org/2000/svg" xmlns:xlink="http://www.w3.org/1999/xlink">
<g id="graph0" class="graph" transform="scale(1 1) rotate(0) translate(4 384)">
<title>vect_analysis</title>
<polygon fill="#ffffff" stroke="transparent" points="-4,4 -4,-384 264,-384 264,4 -4,4"/>
<g id="clust1" class="cluster">
<title>cluster_NASALib</title>
<polygon fill="none" stroke="#000000" points="8,-8 8,-372 156,-372 156,-8 8,-8"/>
<text text-anchor="middle" x="82" y="-356.8" font-family="Times,serif" font-size="14.00" fill="#000000">NASALib</text>
</g>
<g id="clust2" class="cluster">
<title>cluster_PVS Prelude</title>
<polygon fill="none" stroke="#000000" points="164,-8 164,-82 252,-82 252,-8 164,-8"/>
<text text-anchor="middle" x="208" y="-66.8" font-family="Times,serif" font-size="14.00" fill="#000000">PVS Prelude</text>
</g>
<!-- /Users/mmoscato/Workspace/Workbench/pvs/dependency&#45;all/Users/mmoscato/pvs/pvs/lib/finite_sets -->
<g id="node1" class="node">
<title>/Users/mmoscato/Workspace/Workbench/pvs/dependency&#45;all/Users/mmoscato/pvs/pvs/lib/finite_sets</title>
<polygon fill="#fcfcd7" stroke="#000000" points="244.2796,-52 171.7204,-52 171.7204,-16 244.2796,-16 244.2796,-52"/>
<text text-anchor="middle" x="208" y="-29.8" font-family="Times,serif" font-size="14.00" fill="#000000">finite_sets</text>
</g>
<!-- /Users/mmoscato/Workspace/Workbench/pvs/dependency&#45;all/Users/mmoscato/pvs/pvs/nasalib/ACCoRD -->
<g id="node2" class="node">
<title>/Users/mmoscato/Workspace/Workbench/pvs/dependency&#45;all/Users/mmoscato/pvs/pvs/nasalib/ACCoRD</title>
<polygon fill="#fcfcd7" stroke="#000000" points="117.7348,-342 46.2652,-342 46.2652,-306 117.7348,-306 117.7348,-342"/>
<text text-anchor="middle" x="82" y="-319.8" font-family="Times,serif" font-size="14.00" fill="#000000">ACCoRD</text>
</g>
<!-- /Users/mmoscato/Workspace/Workbench/pvs/dependency&#45;all/Users/mmoscato/pvs/pvs/nasalib/ACCoRD&#45;&gt;/Users/mmoscato/Workspace/Workbench/pvs/dependency&#45;all/Users/mmoscato/pvs/pvs/lib/finite_sets -->
<g id="edge1" class="edge">
<title>/Users/mmoscato/Workspace/Workbench/pvs/dependency&#45;all/Users/mmoscato/pvs/pvs/nasalib/ACCoRD&#45;&gt;/Users/mmoscato/Workspace/Workbench/pvs/dependency&#45;all/Users/mmoscato/pvs/pvs/lib/finite_sets</title>
<path fill="none" stroke="#000000" d="M117.9314,-330C158.8587,-330 220.1299,-330 220.1299,-330 220.1299,-330 220.1299,-62.0705 220.1299,-62.0705"/>
<polygon fill="#000000" stroke="#000000" points="223.63,-62.0705 220.1299,-52.0705 216.63,-62.0706 223.63,-62.0705"/>
</g>
<!-- /Users/mmoscato/Workspace/Workbench/pvs/dependency&#45;all/Users/mmoscato/pvs/pvs/nasalib/analysis -->
<g id="node3" class="node">
<title>/Users/mmoscato/Workspace/Workbench/pvs/dependency&#45;all/Users/mmoscato/pvs/pvs/nasalib/analysis</title>
<polygon fill="#fcfcd7" stroke="#000000" points="117.6036,-126 56.3964,-126 56.3964,-90 117.6036,-90 117.6036,-126"/>
<text text-anchor="middle" x="87" y="-103.8" font-family="Times,serif" font-size="14.00" fill="#000000">analysis</text>
</g>
<!-- /Users/mmoscato/Workspace/Workbench/pvs/dependency&#45;all/Users/mmoscato/pvs/pvs/nasalib/ACCoRD&#45;&gt;/Users/mmoscato/Workspace/Workbench/pvs/dependency&#45;all/Users/mmoscato/pvs/pvs/nasalib/analysis -->
<g id="edge2" class="edge">
<title>/Users/mmoscato/Workspace/Workbench/pvs/dependency&#45;all/Users/mmoscato/pvs/pvs/nasalib/ACCoRD&#45;&gt;/Users/mmoscato/Workspace/Workbench/pvs/dependency&#45;all/Users/mmoscato/pvs/pvs/nasalib/analysis</title>
<path fill="none" stroke="#000000" d="M117.8114,-318C134.041,-318 149.6604,-318 149.6604,-318 149.6604,-318 149.6604,-102 149.6604,-102 149.6604,-102 127.596,-102 127.596,-102"/>
<polygon fill="#000000" stroke="#000000" points="127.596,-98.5001 117.596,-102 127.5959,-105.5001 127.596,-98.5001"/>
</g>
<!-- /Users/mmoscato/Workspace/Workbench/pvs/dependency&#45;all/Users/mmoscato/pvs/pvs/nasalib/reals -->
<g id="node4" class="node">
<title>/Users/mmoscato/Workspace/Workbench/pvs/dependency&#45;all/Users/mmoscato/pvs/pvs/nasalib/reals</title>
<polygon fill="#fcfcd7" stroke="#000000" points="92,-52 38,-52 38,-16 92,-16 92,-52"/>
<text text-anchor="middle" x="65" y="-29.8" font-family="Times,serif" font-size="14.00" fill="#000000">reals</text>
</g>
<!-- /Users/mmoscato/Workspace/Workbench/pvs/dependency&#45;all/Users/mmoscato/pvs/pvs/nasalib/ACCoRD&#45;&gt;/Users/mmoscato/Workspace/Workbench/pvs/dependency&#45;all/Users/mmoscato/pvs/pvs/nasalib/reals -->
<g id="edge3" class="edge">
<title>/Users/mmoscato/Workspace/Workbench/pvs/dependency&#45;all/Users/mmoscato/pvs/pvs/nasalib/ACCoRD&#45;&gt;/Users/mmoscato/Workspace/Workbench/pvs/dependency&#45;all/Users/mmoscato/pvs/pvs/nasalib/reals</title>
<path fill="none" stroke="#000000" d="M46.3279,-330C29.1768,-330 12.2896,-330 12.2896,-330 12.2896,-330 12.2896,-34 12.2896,-34 12.2896,-34 27.7184,-34 27.7184,-34"/>
<polygon fill="#000000" stroke="#000000" points="27.7184,-37.5001 37.7184,-34 27.7184,-30.5001 27.7184,-37.5001"/>
</g>
<!-- /Users/mmoscato/Workspace/Workbench/pvs/dependency&#45;all/Users/mmoscato/pvs/pvs/nasalib/vect_analysis -->
<g id="node5" class="node">
<title>/Users/mmoscato/Workspace/Workbench/pvs/dependency&#45;all/Users/mmoscato/pvs/pvs/nasalib/vect_analysis</title>
<polygon fill="#f7e28d" stroke="#000000" points="127.9219,-270 36.0781,-270 36.0781,-234 127.9219,-234 127.9219,-270"/>
<text text-anchor="middle" x="82" y="-247.8" font-family="Times,serif" font-size="14.00" fill="#000000">vect_analysis</text>
</g>
<!-- /Users/mmoscato/Workspace/Workbench/pvs/dependency&#45;all/Users/mmoscato/pvs/pvs/nasalib/ACCoRD&#45;&gt;/Users/mmoscato/Workspace/Workbench/pvs/dependency&#45;all/Users/mmoscato/pvs/pvs/nasalib/vect_analysis -->
<g id="edge4" class="edge">
<title>/Users/mmoscato/Workspace/Workbench/pvs/dependency&#45;all/Users/mmoscato/pvs/pvs/nasalib/ACCoRD&#45;&gt;/Users/mmoscato/Workspace/Workbench/pvs/dependency&#45;all/Users/mmoscato/pvs/pvs/nasalib/vect_analysis</title>
<path fill="none" stroke="#000000" d="M82,-305.8314C82,-305.8314 82,-280.4133 82,-280.4133"/>
<polygon fill="#000000" stroke="#000000" points="85.5001,-280.4132 82,-270.4133 78.5001,-280.4133 85.5001,-280.4132"/>
</g>
<!-- /Users/mmoscato/Workspace/Workbench/pvs/dependency&#45;all/Users/mmoscato/pvs/pvs/nasalib/vectors -->
<g id="node6" class="node">
<title>/Users/mmoscato/Workspace/Workbench/pvs/dependency&#45;all/Users/mmoscato/pvs/pvs/nasalib/vectors</title>
<polygon fill="#fcfcd7" stroke="#000000" points="112.4294,-198 55.5706,-198 55.5706,-162 112.4294,-162 112.4294,-198"/>
<text text-anchor="middle" x="84" y="-175.8" font-family="Times,serif" font-size="14.00" fill="#000000">vectors</text>
</g>
<!-- /Users/mmoscato/Workspace/Workbench/pvs/dependency&#45;all/Users/mmoscato/pvs/pvs/nasalib/ACCoRD&#45;&gt;/Users/mmoscato/Workspace/Workbench/pvs/dependency&#45;all/Users/mmoscato/pvs/pvs/nasalib/vectors -->
<g id="edge5" class="edge">
<title>/Users/mmoscato/Workspace/Workbench/pvs/dependency&#45;all/Users/mmoscato/pvs/pvs/nasalib/ACCoRD&#45;&gt;/Users/mmoscato/Workspace/Workbench/pvs/dependency&#45;all/Users/mmoscato/pvs/pvs/nasalib/vectors</title>
<path fill="none" stroke="#000000" d="M46.1074,-318C34.3714,-318 24.2896,-318 24.2896,-318 24.2896,-318 24.2896,-174 24.2896,-174 24.2896,-174 45.5438,-174 45.5438,-174"/>
<polygon fill="#000000" stroke="#000000" points="45.5438,-177.5001 55.5438,-174 45.5437,-170.5001 45.5438,-177.5001"/>
</g>
<!-- /Users/mmoscato/Workspace/Workbench/pvs/dependency&#45;all/Users/mmoscato/pvs/pvs/nasalib/analysis&#45;&gt;/Users/mmoscato/Workspace/Workbench/pvs/dependency&#45;all/Users/mmoscato/pvs/pvs/lib/finite_sets -->
<g id="edge6" class="edge">
<title>/Users/mmoscato/Workspace/Workbench/pvs/dependency&#45;all/Users/mmoscato/pvs/pvs/nasalib/analysis&#45;&gt;/Users/mmoscato/Workspace/Workbench/pvs/dependency&#45;all/Users/mmoscato/pvs/pvs/lib/finite_sets</title>
<path fill="none" stroke="#000000" d="M104.7759,-89.8468C104.7759,-66.2434 104.7759,-28 104.7759,-28 104.7759,-28 161.607,-28 161.607,-28"/>
<polygon fill="#000000" stroke="#000000" points="161.6071,-31.5001 171.607,-28 161.607,-24.5001 161.6071,-31.5001"/>
</g>
<!-- /Users/mmoscato/Workspace/Workbench/pvs/dependency&#45;all/Users/mmoscato/pvs/pvs/nasalib/analysis&#45;&gt;/Users/mmoscato/Workspace/Workbench/pvs/dependency&#45;all/Users/mmoscato/pvs/pvs/nasalib/reals -->
<g id="edge7" class="edge">
<title>/Users/mmoscato/Workspace/Workbench/pvs/dependency&#45;all/Users/mmoscato/pvs/pvs/nasalib/analysis&#45;&gt;/Users/mmoscato/Workspace/Workbench/pvs/dependency&#45;all/Users/mmoscato/pvs/pvs/nasalib/reals</title>
<path fill="none" stroke="#000000" d="M74.2241,-89.7079C74.2241,-89.7079 74.2241,-62.0817 74.2241,-62.0817"/>
<polygon fill="#000000" stroke="#000000" points="77.7242,-62.0817 74.2241,-52.0817 70.7242,-62.0818 77.7242,-62.0817"/>
</g>
<!-- /Users/mmoscato/Workspace/Workbench/pvs/dependency&#45;all/Users/mmoscato/pvs/pvs/nasalib/vect_analysis&#45;&gt;/Users/mmoscato/Workspace/Workbench/pvs/dependency&#45;all/Users/mmoscato/pvs/pvs/lib/finite_sets -->
<g id="edge8" class="edge">
<title>/Users/mmoscato/Workspace/Workbench/pvs/dependency&#45;all/Users/mmoscato/pvs/pvs/nasalib/vect_analysis&#45;&gt;/Users/mmoscato/Workspace/Workbench/pvs/dependency&#45;all/Users/mmoscato/pvs/pvs/lib/finite_sets</title>
<path fill="none" stroke="#000000" d="M124.3242,-233.925C124.3242,-182.6575 124.3242,-40 124.3242,-40 124.3242,-40 161.542,-40 161.542,-40"/>
<polygon fill="#000000" stroke="#000000" points="161.542,-43.5001 171.542,-40 161.542,-36.5001 161.542,-43.5001"/>
</g>
<!-- /Users/mmoscato/Workspace/Workbench/pvs/dependency&#45;all/Users/mmoscato/pvs/pvs/nasalib/vect_analysis&#45;&gt;/Users/mmoscato/Workspace/Workbench/pvs/dependency&#45;all/Users/mmoscato/pvs/pvs/nasalib/analysis -->
<g id="edge9" class="edge">
<title>/Users/mmoscato/Workspace/Workbench/pvs/dependency&#45;all/Users/mmoscato/pvs/pvs/nasalib/vect_analysis&#45;&gt;/Users/mmoscato/Workspace/Workbench/pvs/dependency&#45;all/Users/mmoscato/pvs/pvs/nasalib/analysis</title>
<path fill="none" stroke="#000000" d="M120.938,-233.9589C120.938,-196.5524 120.938,-114 120.938,-114 120.938,-114 120.6002,-114 120.6002,-114"/>
<polygon fill="#000000" stroke="#000000" points="127.5599,-110.5003 117.5598,-114 127.5597,-117.5003 127.5599,-110.5003"/>
</g>
<!-- /Users/mmoscato/Workspace/Workbench/pvs/dependency&#45;all/Users/mmoscato/pvs/pvs/nasalib/vect_analysis&#45;&gt;/Users/mmoscato/Workspace/Workbench/pvs/dependency&#45;all/Users/mmoscato/pvs/pvs/nasalib/reals -->
<g id="edge10" class="edge">
<title>/Users/mmoscato/Workspace/Workbench/pvs/dependency&#45;all/Users/mmoscato/pvs/pvs/nasalib/vect_analysis&#45;&gt;/Users/mmoscato/Workspace/Workbench/pvs/dependency&#45;all/Users/mmoscato/pvs/pvs/nasalib/reals</title>
<path fill="none" stroke="#000000" d="M43.9287,-233.7884C43.9287,-233.7884 43.9287,-62.0064 43.9287,-62.0064"/>
<polygon fill="#000000" stroke="#000000" points="47.4288,-62.0064 43.9287,-52.0064 40.4288,-62.0065 47.4288,-62.0064"/>
</g>
<!-- /Users/mmoscato/Workspace/Workbench/pvs/dependency&#45;all/Users/mmoscato/pvs/pvs/nasalib/vect_analysis&#45;&gt;/Users/mmoscato/Workspace/Workbench/pvs/dependency&#45;all/Users/mmoscato/pvs/pvs/nasalib/vectors -->
<g id="edge11" class="edge">
<title>/Users/mmoscato/Workspace/Workbench/pvs/dependency&#45;all/Users/mmoscato/pvs/pvs/nasalib/vect_analysis&#45;&gt;/Users/mmoscato/Workspace/Workbench/pvs/dependency&#45;all/Users/mmoscato/pvs/pvs/nasalib/vectors</title>
<path fill="none" stroke="#000000" d="M84,-233.8314C84,-233.8314 84,-208.4133 84,-208.4133"/>
<polygon fill="#000000" stroke="#000000" points="87.5001,-208.4132 84,-198.4133 80.5001,-208.4133 87.5001,-208.4132"/>
</g>
<!-- /Users/mmoscato/Workspace/Workbench/pvs/dependency&#45;all/Users/mmoscato/pvs/pvs/nasalib/vectors&#45;&gt;/Users/mmoscato/Workspace/Workbench/pvs/dependency&#45;all/Users/mmoscato/pvs/pvs/lib/finite_sets -->
<g id="edge12" class="edge">
<title>/Users/mmoscato/Workspace/Workbench/pvs/dependency&#45;all/Users/mmoscato/pvs/pvs/nasalib/vectors&#45;&gt;/Users/mmoscato/Workspace/Workbench/pvs/dependency&#45;all/Users/mmoscato/pvs/pvs/lib/finite_sets</title>
<path fill="none" stroke="#000000" d="M112.2296,-180C145.3702,-180 195.8701,-180 195.8701,-180 195.8701,-180 195.8701,-62.1958 195.8701,-62.1958"/>
<polygon fill="#000000" stroke="#000000" points="199.3702,-62.1958 195.8701,-52.1958 192.3702,-62.1958 199.3702,-62.1958"/>
</g>
<!-- /Users/mmoscato/Workspace/Workbench/pvs/dependency&#45;all/Users/mmoscato/pvs/pvs/nasalib/vectors&#45;&gt;/Users/mmoscato/Workspace/Workbench/pvs/dependency&#45;all/Users/mmoscato/pvs/pvs/nasalib/analysis -->
<g id="edge13" class="edge">
<title>/Users/mmoscato/Workspace/Workbench/pvs/dependency&#45;all/Users/mmoscato/pvs/pvs/nasalib/vectors&#45;&gt;/Users/mmoscato/Workspace/Workbench/pvs/dependency&#45;all/Users/mmoscato/pvs/pvs/nasalib/analysis</title>
<path fill="none" stroke="#000000" d="M84.3311,-161.8314C84.3311,-161.8314 84.3311,-136.4133 84.3311,-136.4133"/>
<polygon fill="#000000" stroke="#000000" points="87.8312,-136.4132 84.3311,-126.4133 80.8312,-136.4133 87.8312,-136.4132"/>
</g>
<!-- /Users/mmoscato/Workspace/Workbench/pvs/dependency&#45;all/Users/mmoscato/pvs/pvs/nasalib/vectors&#45;&gt;/Users/mmoscato/Workspace/Workbench/pvs/dependency&#45;all/Users/mmoscato/pvs/pvs/nasalib/reals -->
<g id="edge14" class="edge">
<title>/Users/mmoscato/Workspace/Workbench/pvs/dependency&#45;all/Users/mmoscato/pvs/pvs/nasalib/vectors&#45;&gt;/Users/mmoscato/Workspace/Workbench/pvs/dependency&#45;all/Users/mmoscato/pvs/pvs/nasalib/reals</title>
<path fill="none" stroke="#000000" d="M55.4954,-186C52.1268,-186 49.8574,-186 49.8574,-186 49.8574,-186 49.8574,-62.0333 49.8574,-62.0333"/>
<polygon fill="#000000" stroke="#000000" points="53.3575,-62.0333 49.8574,-52.0333 46.3575,-62.0333 53.3575,-62.0333"/>
</g>
</g>
</svg>
