<?xml version="1.0" encoding="UTF-8" standalone="no"?>
<!DOCTYPE svg PUBLIC "-//W3C//DTD SVG 1.1//EN"
 "http://www.w3.org/Graphics/SVG/1.1/DTD/svg11.dtd">
<!-- Generated by graphviz version 2.44.1 (20200629.0846)
 -->
<!-- Title: vect_analysis&#45;zoomed Pages: 1 -->
<svg width="2508pt" height="401pt"
 viewBox="0.00 0.00 2508.00 401.00" xmlns="http://www.w3.org/2000/svg" xmlns:xlink="http://www.w3.org/1999/xlink">
<g id="graph0" class="graph" transform="scale(1 1) rotate(0) translate(4 397)">
<title>vect_analysis&#45;zoomed</title>
<polygon fill="white" stroke="transparent" points="-4,4 -4,-397 2504,-397 2504,4 -4,4"/>
<g id="clust1" class="cluster">
<title>cluster_NASALib</title>
<polygon fill="none" stroke="black" points="2270,-19 2270,-94 2492,-94 2492,-19 2270,-19"/>
<text text-anchor="middle" x="2381" y="-78.8" font-family="Times,serif" font-size="14.00">NASALib</text>
</g>
<g id="clust2" class="cluster">
<title>cluster_NASALib/vect_analysis</title>
<polygon fill="none" stroke="black" points="8,-19 8,-385 2262,-385 2262,-19 8,-19"/>
<text text-anchor="middle" x="1135" y="-369.8" font-family="Times,serif" font-size="14.00">NASALib/vect_analysis</text>
</g>
<!-- nasalib/analysis -->
<g id="node1" class="node">
<title>nasalib/analysis</title>
<polygon fill="#fcfcd7" stroke="black" points="2410,-63 2350,-63 2350,-27 2410,-27 2410,-63"/>
<text text-anchor="middle" x="2380" y="-41.3" font-family="Times,serif" font-size="14.00">analysis</text>
</g>
<!-- nasalib/reals -->
<g id="node2" class="node">
<title>nasalib/reals</title>
<polygon fill="#fcfcd7" stroke="black" points="2332,-63 2278,-63 2278,-27 2332,-27 2332,-63"/>
<text text-anchor="middle" x="2305" y="-41.3" font-family="Times,serif" font-size="14.00">reals</text>
</g>
<!-- nasalib/vect_analysis@cont_real_vect2 -->
<g id="node3" class="node">
<title>nasalib/vect_analysis@cont_real_vect2</title>
<ellipse fill="#e6f3ff" stroke="black" cx="406" cy="-192" rx="66.89" ry="18"/>
<text text-anchor="middle" x="406" y="-188.3" font-family="Times,serif" font-size="14.00">cont_real_vect2</text>
</g>
<!-- nasalib/vect_analysis@cont_real_vect2&#45;&gt;nasalib/analysis -->
<g id="edge1" class="edge">
<title>nasalib/vect_analysis@cont_real_vect2&#45;&gt;nasalib/analysis</title>
<path fill="none" stroke="black" d="M458.73,-180.61C458.73,-170.06 458.73,-156 458.73,-156 458.73,-156 2363.64,-156 2363.64,-156 2363.64,-156 2363.64,-73.33 2363.64,-73.33"/>
<polygon fill="black" stroke="black" points="2367.14,-73.33 2363.64,-63.33 2360.14,-73.33 2367.14,-73.33"/>
</g>
<!-- nasalib/vect_analysis@cont_real_vect2&#45;&gt;nasalib/reals -->
<g id="edge2" class="edge">
<title>nasalib/vect_analysis@cont_real_vect2&#45;&gt;nasalib/reals</title>
<path fill="none" stroke="black" d="M444.53,-177.08C444.53,-162.99 444.53,-144 444.53,-144 444.53,-144 2314,-144 2314,-144 2314,-144 2314,-73.16 2314,-73.16"/>
<polygon fill="black" stroke="black" points="2317.5,-73.16 2314,-63.16 2310.5,-73.16 2317.5,-73.16"/>
</g>
<!-- nasalib/vect_analysis@limit_real_vect2 -->
<g id="node15" class="node">
<title>nasalib/vect_analysis@limit_real_vect2</title>
<ellipse fill="#e6f3ff" stroke="black" cx="485" cy="-120" rx="68.79" ry="18"/>
<text text-anchor="middle" x="485" y="-116.3" font-family="Times,serif" font-size="14.00">limit_real_vect2</text>
</g>
<!-- nasalib/vect_analysis@cont_real_vect2&#45;&gt;nasalib/vect_analysis@limit_real_vect2 -->
<g id="edge3" class="edge">
<title>nasalib/vect_analysis@cont_real_vect2&#45;&gt;nasalib/vect_analysis@limit_real_vect2</title>
<path fill="none" stroke="black" d="M430.32,-174.94C430.32,-174.94 430.32,-141.33 430.32,-141.33"/>
<polygon fill="black" stroke="black" points="433.82,-141.33 430.32,-131.33 426.82,-141.33 433.82,-141.33"/>
</g>
<!-- nasalib/vect_analysis@cont_vect -->
<g id="node4" class="node">
<title>nasalib/vect_analysis@cont_vect</title>
<ellipse fill="#e6f3ff" stroke="black" cx="1013" cy="-264" rx="44.69" ry="18"/>
<text text-anchor="middle" x="1013" y="-260.3" font-family="Times,serif" font-size="14.00">cont_vect</text>
</g>
<!-- nasalib/vect_analysis@limit_vect -->
<g id="node16" class="node">
<title>nasalib/vect_analysis@limit_vect</title>
<ellipse fill="#e6f3ff" stroke="black" cx="1015" cy="-192" rx="46.59" ry="18"/>
<text text-anchor="middle" x="1015" y="-188.3" font-family="Times,serif" font-size="14.00">limit_vect</text>
</g>
<!-- nasalib/vect_analysis@cont_vect&#45;&gt;nasalib/vect_analysis@limit_vect -->
<g id="edge7" class="edge">
<title>nasalib/vect_analysis@cont_vect&#45;&gt;nasalib/vect_analysis@limit_vect</title>
<path fill="none" stroke="black" d="M998.08,-246.94C998.08,-246.94 998.08,-218.94 998.08,-218.94"/>
<polygon fill="black" stroke="black" points="1001.58,-218.94 998.08,-208.94 994.58,-218.94 1001.58,-218.94"/>
</g>
<!-- nasalib/vectors -->
<g id="node36" class="node">
<title>nasalib/vectors</title>
<polygon fill="#fcfcd7" stroke="black" points="2484,-63 2428,-63 2428,-27 2484,-27 2484,-63"/>
<text text-anchor="middle" x="2456" y="-41.3" font-family="Times,serif" font-size="14.00">vectors</text>
</g>
<!-- nasalib/vect_analysis@cont_vect&#45;&gt;nasalib/vectors -->
<g id="edge8" class="edge">
<title>nasalib/vect_analysis@cont_vect&#45;&gt;nasalib/vectors</title>
<path fill="none" stroke="black" d="M1027.97,-246.81C1027.97,-242.97 1027.97,-240 1027.97,-240 1027.97,-240 2457.65,-240 2457.65,-240 2457.65,-240 2457.65,-73.35 2457.65,-73.35"/>
<polygon fill="black" stroke="black" points="2461.15,-73.35 2457.65,-63.35 2454.15,-73.35 2461.15,-73.35"/>
</g>
<!-- nasalib/vect_analysis@cont_vect2_real -->
<g id="node5" class="node">
<title>nasalib/vect_analysis@cont_vect2_real</title>
<ellipse fill="#e6f3ff" stroke="black" cx="251" cy="-192" rx="66.89" ry="18"/>
<text text-anchor="middle" x="251" y="-188.3" font-family="Times,serif" font-size="14.00">cont_vect2_real</text>
</g>
<!-- nasalib/vect_analysis@limit_vect2_real -->
<g id="node17" class="node">
<title>nasalib/vect_analysis@limit_vect2_real</title>
<ellipse fill="#e6f3ff" stroke="black" cx="253" cy="-120" rx="68.79" ry="18"/>
<text text-anchor="middle" x="253" y="-116.3" font-family="Times,serif" font-size="14.00">limit_vect2_real</text>
</g>
<!-- nasalib/vect_analysis@cont_vect2_real&#45;&gt;nasalib/vect_analysis@limit_vect2_real -->
<g id="edge4" class="edge">
<title>nasalib/vect_analysis@cont_vect2_real&#45;&gt;nasalib/vect_analysis@limit_vect2_real</title>
<path fill="none" stroke="black" d="M228.72,-174.94C228.72,-174.94 228.72,-146.94 228.72,-146.94"/>
<polygon fill="black" stroke="black" points="232.22,-146.94 228.72,-136.94 225.22,-146.94 232.22,-146.94"/>
</g>
<!-- nasalib/vect_analysis@cont_vect2_vect2 -->
<g id="node6" class="node">
<title>nasalib/vect_analysis@cont_vect2_vect2</title>
<ellipse fill="#e6f3ff" stroke="black" cx="91" cy="-192" rx="72.59" ry="18"/>
<text text-anchor="middle" x="91" y="-188.3" font-family="Times,serif" font-size="14.00">cont_vect2_vect2</text>
</g>
<!-- nasalib/vect_analysis@limit_vect2_vect2 -->
<g id="node18" class="node">
<title>nasalib/vect_analysis@limit_vect2_vect2</title>
<ellipse fill="#e6f3ff" stroke="black" cx="91" cy="-120" rx="74.99" ry="18"/>
<text text-anchor="middle" x="91" y="-116.3" font-family="Times,serif" font-size="14.00">limit_vect2_vect2</text>
</g>
<!-- nasalib/vect_analysis@cont_vect2_vect2&#45;&gt;nasalib/vect_analysis@limit_vect2_vect2 -->
<g id="edge5" class="edge">
<title>nasalib/vect_analysis@cont_vect2_vect2&#45;&gt;nasalib/vect_analysis@limit_vect2_vect2</title>
<path fill="none" stroke="black" d="M91,-173.83C91,-173.83 91,-148.41 91,-148.41"/>
<polygon fill="black" stroke="black" points="94.5,-148.41 91,-138.41 87.5,-148.41 94.5,-148.41"/>
</g>
<!-- nasalib/vect_analysis@cont_vect3_real -->
<g id="node7" class="node">
<title>nasalib/vect_analysis@cont_vect3_real</title>
<ellipse fill="#e6f3ff" stroke="black" cx="1151" cy="-336" rx="66.89" ry="18"/>
<text text-anchor="middle" x="1151" y="-332.3" font-family="Times,serif" font-size="14.00">cont_vect3_real</text>
</g>
<!-- nasalib/vect_analysis@limit_vect3_real -->
<g id="node19" class="node">
<title>nasalib/vect_analysis@limit_vect3_real</title>
<ellipse fill="#e6f3ff" stroke="black" cx="1145" cy="-264" rx="68.79" ry="18"/>
<text text-anchor="middle" x="1145" y="-260.3" font-family="Times,serif" font-size="14.00">limit_vect3_real</text>
</g>
<!-- nasalib/vect_analysis@cont_vect3_real&#45;&gt;nasalib/vect_analysis@limit_vect3_real -->
<g id="edge6" class="edge">
<title>nasalib/vect_analysis@cont_vect3_real&#45;&gt;nasalib/vect_analysis@limit_vect3_real</title>
<path fill="none" stroke="black" d="M1148.97,-317.83C1148.97,-317.83 1148.97,-292.41 1148.97,-292.41"/>
<polygon fill="black" stroke="black" points="1152.48,-292.41 1148.97,-282.41 1145.48,-292.41 1152.48,-292.41"/>
</g>
<!-- nasalib/vect_analysis@deriv_cont_2D -->
<g id="node8" class="node">
<title>nasalib/vect_analysis@deriv_cont_2D</title>
<ellipse fill="#e6f3ff" stroke="black" cx="566" cy="-264" rx="63.89" ry="18"/>
<text text-anchor="middle" x="566" y="-260.3" font-family="Times,serif" font-size="14.00">deriv_cont_2D</text>
</g>
<!-- nasalib/vect_analysis@deriv_cont_2D&#45;&gt;nasalib/analysis -->
<g id="edge9" class="edge">
<title>nasalib/vect_analysis@deriv_cont_2D&#45;&gt;nasalib/analysis</title>
<path fill="none" stroke="black" d="M607.32,-250.28C607.32,-239.4 607.32,-226 607.32,-226 607.32,-226 2380,-226 2380,-226 2380,-226 2380,-73.02 2380,-73.02"/>
<polygon fill="black" stroke="black" points="2383.5,-73.02 2380,-63.02 2376.5,-73.02 2383.5,-73.02"/>
</g>
<!-- nasalib/vect_analysis@deriv_cont_2D&#45;&gt;nasalib/vect_analysis@cont_real_vect2 -->
<g id="edge10" class="edge">
<title>nasalib/vect_analysis@deriv_cont_2D&#45;&gt;nasalib/vect_analysis@cont_real_vect2</title>
<path fill="none" stroke="black" d="M528.1,-249.43C528.1,-228.39 528.1,-192 528.1,-192 528.1,-192 483.12,-192 483.12,-192"/>
<polygon fill="black" stroke="black" points="483.12,-188.5 473.12,-192 483.12,-195.5 483.12,-188.5"/>
</g>
<!-- nasalib/vect_analysis@deriv_real_vect2 -->
<g id="node11" class="node">
<title>nasalib/vect_analysis@deriv_real_vect2</title>
<ellipse fill="#e6f3ff" stroke="black" cx="641" cy="-120" rx="69.59" ry="18"/>
<text text-anchor="middle" x="641" y="-116.3" font-family="Times,serif" font-size="14.00">deriv_real_vect2</text>
</g>
<!-- nasalib/vect_analysis@deriv_cont_2D&#45;&gt;nasalib/vect_analysis@deriv_real_vect2 -->
<g id="edge11" class="edge">
<title>nasalib/vect_analysis@deriv_cont_2D&#45;&gt;nasalib/vect_analysis@deriv_real_vect2</title>
<path fill="none" stroke="black" d="M578.21,-246.05C578.21,-246.05 578.21,-138 578.21,-138"/>
<polygon fill="black" stroke="black" points="581.71,-138 578.21,-128 574.71,-138 581.71,-138"/>
</g>
<!-- nasalib/vect_analysis@deriv_dot_prod -->
<g id="node9" class="node">
<title>nasalib/vect_analysis@deriv_dot_prod</title>
<ellipse fill="#e6f3ff" stroke="black" cx="865" cy="-264" rx="64.99" ry="18"/>
<text text-anchor="middle" x="865" y="-260.3" font-family="Times,serif" font-size="14.00">deriv_dot_prod</text>
</g>
<!-- nasalib/vect_analysis@deriv_dot_prod&#45;&gt;nasalib/analysis -->
<g id="edge12" class="edge">
<title>nasalib/vect_analysis@deriv_dot_prod&#45;&gt;nasalib/analysis</title>
<path fill="none" stroke="black" d="M875,-246.13C875,-238.8 875,-232 875,-232 875,-232 2385.45,-232 2385.45,-232 2385.45,-232 2385.45,-73.27 2385.45,-73.27"/>
<polygon fill="black" stroke="black" points="2388.95,-73.27 2385.45,-63.27 2381.95,-73.27 2388.95,-73.27"/>
</g>
<!-- nasalib/vect_analysis@deriv_real_vect_def -->
<g id="node12" class="node">
<title>nasalib/vect_analysis@deriv_real_vect_def</title>
<ellipse fill="#e6f3ff" stroke="black" cx="875" cy="-120" rx="81.49" ry="18"/>
<text text-anchor="middle" x="875" y="-116.3" font-family="Times,serif" font-size="14.00">deriv_real_vect_def</text>
</g>
<!-- nasalib/vect_analysis@deriv_dot_prod&#45;&gt;nasalib/vect_analysis@deriv_real_vect_def -->
<g id="edge13" class="edge">
<title>nasalib/vect_analysis@deriv_dot_prod&#45;&gt;nasalib/vect_analysis@deriv_real_vect_def</title>
<path fill="none" stroke="black" d="M810.21,-254.1C810.21,-254.1 810.21,-141.14 810.21,-141.14"/>
<polygon fill="black" stroke="black" points="813.71,-141.14 810.21,-131.14 806.71,-141.14 813.71,-141.14"/>
</g>
<!-- nasalib/vect_analysis@deriv_sigma -->
<g id="node13" class="node">
<title>nasalib/vect_analysis@deriv_sigma</title>
<ellipse fill="#e6f3ff" stroke="black" cx="875" cy="-192" rx="54.69" ry="18"/>
<text text-anchor="middle" x="875" y="-188.3" font-family="Times,serif" font-size="14.00">deriv_sigma</text>
</g>
<!-- nasalib/vect_analysis@deriv_dot_prod&#45;&gt;nasalib/vect_analysis@deriv_sigma -->
<g id="edge14" class="edge">
<title>nasalib/vect_analysis@deriv_dot_prod&#45;&gt;nasalib/vect_analysis@deriv_sigma</title>
<path fill="none" stroke="black" d="M847.7,-246.57C847.7,-246.57 847.7,-217.8 847.7,-217.8"/>
<polygon fill="black" stroke="black" points="851.2,-217.8 847.7,-207.8 844.2,-217.8 851.2,-217.8"/>
</g>
<!-- nasalib/vect_analysis@deriv_dot_prod&#45;&gt;nasalib/vectors -->
<g id="edge15" class="edge">
<title>nasalib/vect_analysis@deriv_dot_prod&#45;&gt;nasalib/vectors</title>
<path fill="none" stroke="black" d="M902.3,-249.24C902.3,-242.93 902.3,-237 902.3,-237 902.3,-237 2454.35,-237 2454.35,-237 2454.35,-237 2454.35,-73.06 2454.35,-73.06"/>
<polygon fill="black" stroke="black" points="2457.85,-73.06 2454.35,-63.06 2450.85,-73.06 2457.85,-73.06"/>
</g>
<!-- nasalib/vect_analysis@deriv_real_vect -->
<g id="node10" class="node">
<title>nasalib/vect_analysis@deriv_real_vect</title>
<ellipse fill="#e6f3ff" stroke="black" cx="877" cy="-336" rx="65.79" ry="18"/>
<text text-anchor="middle" x="877" y="-332.3" font-family="Times,serif" font-size="14.00">deriv_real_vect</text>
</g>
<!-- nasalib/vect_analysis@deriv_real_vect&#45;&gt;nasalib/analysis -->
<g id="edge22" class="edge">
<title>nasalib/vect_analysis@deriv_real_vect&#45;&gt;nasalib/analysis</title>
<path fill="none" stroke="black" d="M934.21,-326.89C934.21,-313.74 934.21,-291 934.21,-291 934.21,-291 2399.09,-291 2399.09,-291 2399.09,-291 2399.09,-73.09 2399.09,-73.09"/>
<polygon fill="black" stroke="black" points="2402.59,-73.09 2399.09,-63.09 2395.59,-73.09 2402.59,-73.09"/>
</g>
<!-- nasalib/vect_analysis@deriv_real_vect&#45;&gt;nasalib/vect_analysis@deriv_dot_prod -->
<g id="edge23" class="edge">
<title>nasalib/vect_analysis@deriv_real_vect&#45;&gt;nasalib/vect_analysis@deriv_dot_prod</title>
<path fill="none" stroke="black" d="M870.68,-317.83C870.68,-317.83 870.68,-292.41 870.68,-292.41"/>
<polygon fill="black" stroke="black" points="874.18,-292.41 870.68,-282.41 867.18,-292.41 874.18,-292.41"/>
</g>
<!-- nasalib/vect_analysis@deriv_real_vect&#45;&gt;nasalib/vect_analysis@deriv_real_vect_def -->
<g id="edge24" class="edge">
<title>nasalib/vect_analysis@deriv_real_vect&#45;&gt;nasalib/vect_analysis@deriv_real_vect_def</title>
<path fill="none" stroke="black" d="M938.43,-329.3C938.43,-329.3 938.43,-141.48 938.43,-141.48"/>
<polygon fill="black" stroke="black" points="941.93,-141.48 938.43,-131.48 934.93,-141.48 941.93,-141.48"/>
</g>
<!-- nasalib/vect_analysis@deriv_real_vect2&#45;&gt;nasalib/analysis -->
<g id="edge16" class="edge">
<title>nasalib/vect_analysis@deriv_real_vect2&#45;&gt;nasalib/analysis</title>
<path fill="none" stroke="black" d="M641,-101.51C641,-89.86 641,-77 641,-77 641,-77 2352.73,-77 2352.73,-77 2352.73,-77 2352.73,-73.24 2352.73,-73.24"/>
<polygon fill="black" stroke="black" points="2356.23,-73.24 2352.73,-63.24 2349.23,-73.24 2356.23,-73.24"/>
</g>
<!-- nasalib/vect_analysis@vect_fun_ops_rv -->
<g id="node33" class="node">
<title>nasalib/vect_analysis@vect_fun_ops_rv</title>
<ellipse fill="#e6f3ff" stroke="black" cx="641" cy="-45" rx="69.59" ry="18"/>
<text text-anchor="middle" x="641" y="-41.3" font-family="Times,serif" font-size="14.00">vect_fun_ops_rv</text>
</g>
<!-- nasalib/vect_analysis@deriv_real_vect2&#45;&gt;nasalib/vect_analysis@vect_fun_ops_rv -->
<g id="edge17" class="edge">
<title>nasalib/vect_analysis@deriv_real_vect2&#45;&gt;nasalib/vect_analysis@vect_fun_ops_rv</title>
<path fill="none" stroke="black" d="M606.23,-104.09C606.23,-104.09 606.23,-70.63 606.23,-70.63"/>
<polygon fill="black" stroke="black" points="609.73,-70.63 606.23,-60.63 602.73,-70.63 609.73,-70.63"/>
</g>
<!-- nasalib/vect_analysis@deriv_real_vect2&#45;&gt;nasalib/vectors -->
<g id="edge18" class="edge">
<title>nasalib/vect_analysis@deriv_real_vect2&#45;&gt;nasalib/vectors</title>
<path fill="none" stroke="black" d="M675.77,-104.28C675.77,-98.8 675.77,-94 675.77,-94 675.77,-94 2441.18,-94 2441.18,-94 2441.18,-94 2441.18,-73.25 2441.18,-73.25"/>
<polygon fill="black" stroke="black" points="2444.68,-73.25 2441.18,-63.25 2437.68,-73.25 2444.68,-73.25"/>
</g>
<!-- nasalib/vect_analysis@deriv_real_vect_def&#45;&gt;nasalib/analysis -->
<g id="edge19" class="edge">
<title>nasalib/vect_analysis@deriv_real_vect_def&#45;&gt;nasalib/analysis</title>
<path fill="none" stroke="black" d="M951.62,-114C1255.33,-114 2358.18,-114 2358.18,-114 2358.18,-114 2358.18,-73.13 2358.18,-73.13"/>
<polygon fill="black" stroke="black" points="2361.68,-73.13 2358.18,-63.13 2354.68,-73.13 2361.68,-73.13"/>
</g>
<!-- nasalib/vect_analysis@vect_fun_ops -->
<g id="node32" class="node">
<title>nasalib/vect_analysis@vect_fun_ops</title>
<ellipse fill="#e6f3ff" stroke="black" cx="875" cy="-45" rx="57.69" ry="18"/>
<text text-anchor="middle" x="875" y="-41.3" font-family="Times,serif" font-size="14.00">vect_fun_ops</text>
</g>
<!-- nasalib/vect_analysis@deriv_real_vect_def&#45;&gt;nasalib/vect_analysis@vect_fun_ops -->
<g id="edge20" class="edge">
<title>nasalib/vect_analysis@deriv_real_vect_def&#45;&gt;nasalib/vect_analysis@vect_fun_ops</title>
<path fill="none" stroke="black" d="M875,-101.84C875,-101.84 875,-73.25 875,-73.25"/>
<polygon fill="black" stroke="black" points="878.5,-73.25 875,-63.25 871.5,-73.25 878.5,-73.25"/>
</g>
<!-- nasalib/vect_analysis@deriv_real_vect_def&#45;&gt;nasalib/vectors -->
<g id="edge21" class="edge">
<title>nasalib/vect_analysis@deriv_real_vect_def&#45;&gt;nasalib/vectors</title>
<path fill="none" stroke="black" d="M951.66,-126C1267.02,-126 2447.76,-126 2447.76,-126 2447.76,-126 2447.76,-73.38 2447.76,-73.38"/>
<polygon fill="black" stroke="black" points="2451.26,-73.38 2447.76,-63.38 2444.26,-73.38 2451.26,-73.38"/>
</g>
<!-- nasalib/vect_analysis@deriv_sigma&#45;&gt;nasalib/analysis -->
<g id="edge25" class="edge">
<title>nasalib/vect_analysis@deriv_sigma&#45;&gt;nasalib/analysis</title>
<path fill="none" stroke="black" d="M893.2,-174.81C893.2,-170.97 893.2,-168 893.2,-168 893.2,-168 2369.09,-168 2369.09,-168 2369.09,-168 2369.09,-73.15 2369.09,-73.15"/>
<polygon fill="black" stroke="black" points="2372.59,-73.15 2369.09,-63.15 2365.59,-73.15 2372.59,-73.15"/>
</g>
<!-- nasalib/vect_analysis@deriv_sigma&#45;&gt;nasalib/reals -->
<g id="edge26" class="edge">
<title>nasalib/vect_analysis@deriv_sigma&#45;&gt;nasalib/reals</title>
<path fill="none" stroke="black" d="M929.75,-192C948.22,-192 964.25,-192 964.25,-192 964.25,-192 964.25,-36 964.25,-36 964.25,-36 2267.92,-36 2267.92,-36"/>
<polygon fill="black" stroke="black" points="2267.92,-39.5 2277.92,-36 2267.92,-32.5 2267.92,-39.5"/>
</g>
<!-- nasalib/vect_analysis@deriv_sigma&#45;&gt;nasalib/vect_analysis@deriv_real_vect_def -->
<g id="edge27" class="edge">
<title>nasalib/vect_analysis@deriv_sigma&#45;&gt;nasalib/vect_analysis@deriv_real_vect_def</title>
<path fill="none" stroke="black" d="M856.8,-174.94C856.8,-174.94 856.8,-147.69 856.8,-147.69"/>
<polygon fill="black" stroke="black" points="860.3,-147.69 856.8,-137.69 853.3,-147.69 860.3,-147.69"/>
</g>
<!-- nasalib/vect_analysis@four_vects_2D_continuity -->
<g id="node14" class="node">
<title>nasalib/vect_analysis@four_vects_2D_continuity</title>
<ellipse fill="#e6f3ff" stroke="black" cx="1617" cy="-336" rx="102.88" ry="18"/>
<text text-anchor="middle" x="1617" y="-332.3" font-family="Times,serif" font-size="14.00">four_vects_2D_continuity</text>
</g>
<!-- nasalib/vect_analysis@four_vects_2D_continuity&#45;&gt;nasalib/vectors -->
<g id="edge28" class="edge">
<title>nasalib/vect_analysis@four_vects_2D_continuity&#45;&gt;nasalib/vectors</title>
<path fill="none" stroke="black" d="M1646.97,-318.64C1646.97,-314.37 1646.97,-311 1646.97,-311 1646.97,-311 2474.12,-311 2474.12,-311 2474.12,-311 2474.12,-73.28 2474.12,-73.28"/>
<polygon fill="black" stroke="black" points="2477.62,-73.28 2474.12,-63.28 2470.62,-73.28 2477.62,-73.28"/>
</g>
<!-- nasalib/vect_analysis@limit_real_vect2&#45;&gt;nasalib/reals -->
<g id="edge29" class="edge">
<title>nasalib/vect_analysis@limit_real_vect2&#45;&gt;nasalib/reals</title>
<path fill="none" stroke="black" d="M450.55,-104.35C450.55,-90.68 450.55,-73 450.55,-73 450.55,-73 2305,-73 2305,-73 2305,-73 2305,-72.02 2305,-72.02"/>
<polygon fill="black" stroke="black" points="2308.5,-73.21 2305,-63.21 2301.5,-73.21 2308.5,-73.21"/>
</g>
<!-- nasalib/vect_analysis@limit_real_vect2&#45;&gt;nasalib/vect_analysis@vect_fun_ops_rv -->
<g id="edge30" class="edge">
<title>nasalib/vect_analysis@limit_real_vect2&#45;&gt;nasalib/vect_analysis@vect_fun_ops_rv</title>
<path fill="none" stroke="black" d="M519.45,-104.09C519.45,-82.08 519.45,-45 519.45,-45 519.45,-45 561.35,-45 561.35,-45"/>
<polygon fill="black" stroke="black" points="561.35,-48.5 571.35,-45 561.35,-41.5 561.35,-48.5"/>
</g>
<!-- nasalib/vect_analysis@limit_real_vect2&#45;&gt;nasalib/vectors -->
<g id="edge31" class="edge">
<title>nasalib/vect_analysis@limit_real_vect2&#45;&gt;nasalib/vectors</title>
<path fill="none" stroke="black" d="M485,-101.8C485,-95.97 485,-91 485,-91 485,-91 2437.88,-91 2437.88,-91 2437.88,-91 2437.88,-73.18 2437.88,-73.18"/>
<polygon fill="black" stroke="black" points="2441.38,-73.18 2437.88,-63.18 2434.38,-73.18 2441.38,-73.18"/>
</g>
<!-- nasalib/vect_analysis@limit_vect&#45;&gt;nasalib/analysis -->
<g id="edge44" class="edge">
<title>nasalib/vect_analysis@limit_vect&#45;&gt;nasalib/analysis</title>
<path fill="none" stroke="black" d="M1062.1,-192C1301.46,-192 2371.82,-192 2371.82,-192 2371.82,-192 2371.82,-73.03 2371.82,-73.03"/>
<polygon fill="black" stroke="black" points="2375.32,-73.03 2371.82,-63.03 2368.32,-73.03 2375.32,-73.03"/>
</g>
<!-- nasalib/vect_analysis@limit_vect&#45;&gt;nasalib/reals -->
<g id="edge45" class="edge">
<title>nasalib/vect_analysis@limit_vect&#45;&gt;nasalib/reals</title>
<path fill="none" stroke="black" d="M1055.58,-183C1276.36,-183 2323,-183 2323,-183 2323,-183 2323,-73.04 2323,-73.04"/>
<polygon fill="black" stroke="black" points="2326.5,-73.04 2323,-63.04 2319.5,-73.04 2326.5,-73.04"/>
</g>
<!-- nasalib/vect_analysis@limit_vect&#45;&gt;nasalib/vectors -->
<g id="edge46" class="edge">
<title>nasalib/vect_analysis@limit_vect&#45;&gt;nasalib/vectors</title>
<path fill="none" stroke="black" d="M1055.67,-201C1289.37,-201 2451.06,-201 2451.06,-201 2451.06,-201 2451.06,-73.2 2451.06,-73.2"/>
<polygon fill="black" stroke="black" points="2454.56,-73.2 2451.06,-63.2 2447.56,-73.2 2454.56,-73.2"/>
</g>
<!-- nasalib/vect_analysis@limit_vect2_real&#45;&gt;nasalib/analysis -->
<g id="edge32" class="edge">
<title>nasalib/vect_analysis@limit_vect2_real&#45;&gt;nasalib/analysis</title>
<path fill="none" stroke="black" d="M273.33,-137.45C273.33,-144.05 273.33,-150 273.33,-150 273.33,-150 2360.91,-150 2360.91,-150 2360.91,-150 2360.91,-73.29 2360.91,-73.29"/>
<polygon fill="black" stroke="black" points="2364.41,-73.29 2360.91,-63.29 2357.41,-73.29 2364.41,-73.29"/>
</g>
<!-- nasalib/vect_analysis@limit_vect2_real&#45;&gt;nasalib/reals -->
<g id="edge33" class="edge">
<title>nasalib/vect_analysis@limit_vect2_real&#45;&gt;nasalib/reals</title>
<path fill="none" stroke="black" d="M230.04,-102.79C230.04,-88.33 230.04,-70 230.04,-70 230.04,-70 2296,-70 2296,-70 2296,-70 2296,-69.32 2296,-69.32"/>
<polygon fill="black" stroke="black" points="2299.5,-73.17 2296,-63.17 2292.5,-73.17 2299.5,-73.17"/>
</g>
<!-- nasalib/vect_analysis@limit_vect2_real&#45;&gt;nasalib/vectors -->
<g id="edge34" class="edge">
<title>nasalib/vect_analysis@limit_vect2_real&#45;&gt;nasalib/vectors</title>
<path fill="none" stroke="black" d="M275.96,-102.73C275.96,-94.74 275.96,-87 275.96,-87 275.96,-87 2434.59,-87 2434.59,-87 2434.59,-87 2434.59,-73.06 2434.59,-73.06"/>
<polygon fill="black" stroke="black" points="2438.09,-73.06 2434.59,-63.06 2431.09,-73.06 2438.09,-73.06"/>
</g>
<!-- nasalib/vect_analysis@limit_vect2_vect2&#45;&gt;nasalib/analysis -->
<g id="edge35" class="edge">
<title>nasalib/vect_analysis@limit_vect2_vect2&#45;&gt;nasalib/analysis</title>
<path fill="none" stroke="black" d="M128.37,-104.06C128.37,-75.38 128.37,-18 128.37,-18 128.37,-18 2380,-18 2380,-18 2380,-18 2380,-18.88 2380,-18.88"/>
<polygon fill="black" stroke="black" points="2376.5,-16.84 2380,-26.84 2383.5,-16.84 2376.5,-16.84"/>
</g>
<!-- nasalib/vect_analysis@limit_vect2_vect2&#45;&gt;nasalib/reals -->
<g id="edge36" class="edge">
<title>nasalib/vect_analysis@limit_vect2_vect2&#45;&gt;nasalib/reals</title>
<path fill="none" stroke="black" d="M53.63,-104.38C53.63,-88.43 53.63,-66 53.63,-66 53.63,-66 2287,-66 2287,-66 2287,-66 2287,-65.71 2287,-65.71"/>
<polygon fill="black" stroke="black" points="2290.5,-73.08 2287,-63.08 2283.5,-73.08 2290.5,-73.08"/>
</g>
<!-- nasalib/vect_analysis@limit_vect2_vect2&#45;&gt;nasalib/vectors -->
<g id="edge37" class="edge">
<title>nasalib/vect_analysis@limit_vect2_vect2&#45;&gt;nasalib/vectors</title>
<path fill="none" stroke="black" d="M91,-102C91,-93 91,-84 91,-84 91,-84 2431.29,-84 2431.29,-84 2431.29,-84 2431.29,-73.13 2431.29,-73.13"/>
<polygon fill="black" stroke="black" points="2434.79,-73.13 2431.29,-63.13 2427.79,-73.13 2434.79,-73.13"/>
</g>
<!-- nasalib/vect_analysis@limit_vect3_real&#45;&gt;nasalib/analysis -->
<g id="edge38" class="edge">
<title>nasalib/vect_analysis@limit_vect3_real&#45;&gt;nasalib/analysis</title>
<path fill="none" stroke="black" d="M1110.55,-248.3C1110.55,-241.04 1110.55,-234 1110.55,-234 1110.55,-234 2388.18,-234 2388.18,-234 2388.18,-234 2388.18,-73.12 2388.18,-73.12"/>
<polygon fill="black" stroke="black" points="2391.68,-73.12 2388.18,-63.12 2384.68,-73.12 2391.68,-73.12"/>
</g>
<!-- nasalib/vect_analysis@limit_vect3_real&#45;&gt;nasalib/reals -->
<g id="edge39" class="edge">
<title>nasalib/vect_analysis@limit_vect3_real&#45;&gt;nasalib/reals</title>
<path fill="none" stroke="black" d="M1179.45,-248.25C1179.45,-198.04 1179.45,-45 1179.45,-45 1179.45,-45 2267.73,-45 2267.73,-45"/>
<polygon fill="black" stroke="black" points="2267.73,-48.5 2277.73,-45 2267.73,-41.5 2267.73,-48.5"/>
</g>
<!-- nasalib/vect_analysis@limit_vect3_real&#45;&gt;nasalib/vectors -->
<g id="edge40" class="edge">
<title>nasalib/vect_analysis@limit_vect3_real&#45;&gt;nasalib/vectors</title>
<path fill="none" stroke="black" d="M1145,-245.92C1145,-244.15 1145,-243 1145,-243 1145,-243 2460.94,-243 2460.94,-243 2460.94,-243 2460.94,-73.27 2460.94,-73.27"/>
<polygon fill="black" stroke="black" points="2464.44,-73.27 2460.94,-63.27 2457.44,-73.27 2464.44,-73.27"/>
</g>
<!-- nasalib/vect_analysis@limit_vect_real -->
<g id="node20" class="node">
<title>nasalib/vect_analysis@limit_vect_real</title>
<ellipse fill="#e6f3ff" stroke="black" cx="1802" cy="-336" rx="64.19" ry="18"/>
<text text-anchor="middle" x="1802" y="-332.3" font-family="Times,serif" font-size="14.00">limit_vect_real</text>
</g>
<!-- nasalib/vect_analysis@limit_vect_real&#45;&gt;nasalib/analysis -->
<g id="edge41" class="edge">
<title>nasalib/vect_analysis@limit_vect_real&#45;&gt;nasalib/analysis</title>
<path fill="none" stroke="black" d="M1802,-318C1802,-259.73 1802,-80 1802,-80 1802,-80 2355.45,-80 2355.45,-80 2355.45,-80 2355.45,-73.32 2355.45,-73.32"/>
<polygon fill="black" stroke="black" points="2358.95,-73.32 2355.45,-63.32 2351.95,-73.32 2358.95,-73.32"/>
</g>
<!-- nasalib/vect_analysis@limit_vect_real&#45;&gt;nasalib/reals -->
<g id="edge42" class="edge">
<title>nasalib/vect_analysis@limit_vect_real&#45;&gt;nasalib/reals</title>
<path fill="none" stroke="black" d="M1769.83,-320.03C1769.83,-260.38 1769.83,-54 1769.83,-54 1769.83,-54 2267.72,-54 2267.72,-54"/>
<polygon fill="black" stroke="black" points="2267.73,-57.5 2277.72,-54 2267.72,-50.5 2267.73,-57.5"/>
</g>
<!-- nasalib/vect_analysis@limit_vect_real&#45;&gt;nasalib/vectors -->
<g id="edge43" class="edge">
<title>nasalib/vect_analysis@limit_vect_real&#45;&gt;nasalib/vectors</title>
<path fill="none" stroke="black" d="M1834.17,-320.38C1834.17,-267.44 1834.17,-98 1834.17,-98 1834.17,-98 2444.47,-98 2444.47,-98 2444.47,-98 2444.47,-73.24 2444.47,-73.24"/>
<polygon fill="black" stroke="black" points="2447.97,-73.24 2444.47,-63.24 2440.97,-73.24 2447.97,-73.24"/>
</g>
<!-- nasalib/vect_analysis@metric_vect -->
<g id="node21" class="node">
<title>nasalib/vect_analysis@metric_vect</title>
<ellipse fill="#e6f3ff" stroke="black" cx="1013" cy="-336" rx="52.79" ry="18"/>
<text text-anchor="middle" x="1013" y="-332.3" font-family="Times,serif" font-size="14.00">metric_vect</text>
</g>
<!-- nasalib/vect_analysis@metric_vect&#45;&gt;nasalib/vect_analysis@cont_vect -->
<g id="edge47" class="edge">
<title>nasalib/vect_analysis@metric_vect&#45;&gt;nasalib/vect_analysis@cont_vect</title>
<path fill="none" stroke="black" d="M998.05,-318.57C998.05,-318.57 998.05,-291.27 998.05,-291.27"/>
<polygon fill="black" stroke="black" points="1001.55,-291.27 998.05,-281.27 994.55,-291.27 1001.55,-291.27"/>
</g>
<!-- nasalib/vect_analysis@metric_vect&#45;&gt;nasalib/vectors -->
<g id="edge48" class="edge">
<title>nasalib/vect_analysis@metric_vect&#45;&gt;nasalib/vectors</title>
<path fill="none" stroke="black" d="M1027.95,-318.43C1027.95,-312.8 1027.95,-308 1027.95,-308 1027.95,-308 2470.82,-308 2470.82,-308 2470.82,-308 2470.82,-73.08 2470.82,-73.08"/>
<polygon fill="black" stroke="black" points="2474.32,-73.08 2470.82,-63.08 2467.32,-73.08 2474.32,-73.08"/>
</g>
<!-- nasalib/vect_analysis@vect2_Heine -->
<g id="node22" class="node">
<title>nasalib/vect_analysis@vect2_Heine</title>
<ellipse fill="#e6f3ff" stroke="black" cx="1313" cy="-336" rx="55.49" ry="18"/>
<text text-anchor="middle" x="1313" y="-332.3" font-family="Times,serif" font-size="14.00">vect2_Heine</text>
</g>
<!-- nasalib/vect_analysis@vect2_Heine&#45;&gt;nasalib/analysis -->
<g id="edge49" class="edge">
<title>nasalib/vect_analysis@vect2_Heine&#45;&gt;nasalib/analysis</title>
<path fill="none" stroke="black" d="M1331.42,-318.85C1331.42,-307.61 1331.42,-295 1331.42,-295 1331.42,-295 2401.82,-295 2401.82,-295 2401.82,-295 2401.82,-73.38 2401.82,-73.38"/>
<polygon fill="black" stroke="black" points="2405.32,-73.38 2401.82,-63.38 2398.32,-73.38 2405.32,-73.38"/>
</g>
<!-- nasalib/vect_analysis@vect2_metric_space -->
<g id="node26" class="node">
<title>nasalib/vect_analysis@vect2_metric_space</title>
<ellipse fill="#e6f3ff" stroke="black" cx="1313" cy="-264" rx="81.49" ry="18"/>
<text text-anchor="middle" x="1313" y="-260.3" font-family="Times,serif" font-size="14.00">vect2_metric_space</text>
</g>
<!-- nasalib/vect_analysis@vect2_Heine&#45;&gt;nasalib/vect_analysis@vect2_metric_space -->
<g id="edge50" class="edge">
<title>nasalib/vect_analysis@vect2_Heine&#45;&gt;nasalib/vect_analysis@vect2_metric_space</title>
<path fill="none" stroke="black" d="M1294.58,-318.94C1294.58,-318.94 1294.58,-291.69 1294.58,-291.69"/>
<polygon fill="black" stroke="black" points="1298.09,-291.69 1294.58,-281.69 1291.09,-291.69 1298.09,-291.69"/>
</g>
<!-- nasalib/vect_analysis@vect2_cont_comp -->
<g id="node23" class="node">
<title>nasalib/vect_analysis@vect2_cont_comp</title>
<ellipse fill="#e6f3ff" stroke="black" cx="237" cy="-264" rx="73.39" ry="18"/>
<text text-anchor="middle" x="237" y="-260.3" font-family="Times,serif" font-size="14.00">vect2_cont_comp</text>
</g>
<!-- nasalib/vect_analysis@vect2_cont_comp&#45;&gt;nasalib/analysis -->
<g id="edge53" class="edge">
<title>nasalib/vect_analysis@vect2_cont_comp&#45;&gt;nasalib/analysis</title>
<path fill="none" stroke="black" d="M285.17,-250.12C285.17,-238.22 285.17,-223 285.17,-223 285.17,-223 2377.27,-223 2377.27,-223 2377.27,-223 2377.27,-73.05 2377.27,-73.05"/>
<polygon fill="black" stroke="black" points="2380.77,-73.05 2377.27,-63.05 2373.77,-73.05 2380.77,-73.05"/>
</g>
<!-- nasalib/vect_analysis@vect2_cont_comp&#45;&gt;nasalib/vect_analysis@cont_real_vect2 -->
<g id="edge54" class="edge">
<title>nasalib/vect_analysis@vect2_cont_comp&#45;&gt;nasalib/vect_analysis@cont_real_vect2</title>
<path fill="none" stroke="black" d="M259.89,-246.87C259.89,-233.79 259.89,-218 259.89,-218 259.89,-218 406,-218 406,-218 406,-218 406,-217.21 406,-217.21"/>
<polygon fill="black" stroke="black" points="409.5,-220.06 406,-210.06 402.5,-220.06 409.5,-220.06"/>
</g>
<!-- nasalib/vect_analysis@vect2_cont_comp&#45;&gt;nasalib/vect_analysis@cont_vect2_real -->
<g id="edge55" class="edge">
<title>nasalib/vect_analysis@vect2_cont_comp&#45;&gt;nasalib/vect_analysis@cont_vect2_real</title>
<path fill="none" stroke="black" d="M234.61,-245.83C234.61,-245.83 234.61,-219.91 234.61,-219.91"/>
<polygon fill="black" stroke="black" points="238.11,-219.91 234.61,-209.91 231.11,-219.91 238.11,-219.91"/>
</g>
<!-- nasalib/vect_analysis@vect2_cont_comp&#45;&gt;nasalib/vect_analysis@cont_vect2_vect2 -->
<g id="edge56" class="edge">
<title>nasalib/vect_analysis@vect2_cont_comp&#45;&gt;nasalib/vect_analysis@cont_vect2_vect2</title>
<path fill="none" stroke="black" d="M163.27,-264C158.04,-264 154.78,-264 154.78,-264 154.78,-264 154.78,-210.83 154.78,-210.83"/>
<polygon fill="black" stroke="black" points="158.28,-210.83 154.78,-200.83 151.28,-210.83 158.28,-210.83"/>
</g>
<!-- nasalib/vect_analysis@vect2_cont_comp2 -->
<g id="node24" class="node">
<title>nasalib/vect_analysis@vect2_cont_comp2</title>
<ellipse fill="#e6f3ff" stroke="black" cx="406" cy="-264" rx="77.99" ry="18"/>
<text text-anchor="middle" x="406" y="-260.3" font-family="Times,serif" font-size="14.00">vect2_cont_comp2</text>
</g>
<!-- nasalib/vect_analysis@vect2_cont_comp2&#45;&gt;nasalib/vect_analysis@cont_real_vect2 -->
<g id="edge51" class="edge">
<title>nasalib/vect_analysis@vect2_cont_comp2&#45;&gt;nasalib/vect_analysis@cont_real_vect2</title>
<path fill="none" stroke="black" d="M439.47,-247.66C439.47,-247.66 439.47,-217.78 439.47,-217.78"/>
<polygon fill="black" stroke="black" points="442.97,-217.78 439.47,-207.78 435.97,-217.78 442.97,-217.78"/>
</g>
<!-- nasalib/vect_analysis@vect2_cont_comp2&#45;&gt;nasalib/vect_analysis@cont_vect2_real -->
<g id="edge52" class="edge">
<title>nasalib/vect_analysis@vect2_cont_comp2&#45;&gt;nasalib/vect_analysis@cont_vect2_real</title>
<path fill="none" stroke="black" d="M327.74,-264C319.58,-264 314.19,-264 314.19,-264 314.19,-264 314.19,-208.14 314.19,-208.14"/>
<polygon fill="black" stroke="black" points="317.69,-208.14 314.19,-198.14 310.69,-208.14 317.69,-208.14"/>
</g>
<!-- nasalib/vect_analysis@vect2_cont_dot -->
<g id="node25" class="node">
<title>nasalib/vect_analysis@vect2_cont_dot</title>
<ellipse fill="#e6f3ff" stroke="black" cx="81" cy="-264" rx="64.99" ry="18"/>
<text text-anchor="middle" x="81" y="-260.3" font-family="Times,serif" font-size="14.00">vect2_cont_dot</text>
</g>
<!-- nasalib/vect_analysis@vect2_cont_dot&#45;&gt;nasalib/analysis -->
<g id="edge57" class="edge">
<title>nasalib/vect_analysis@vect2_cont_dot&#45;&gt;nasalib/analysis</title>
<path fill="none" stroke="black" d="M120.44,-249.44C120.44,-236.97 120.44,-221 120.44,-221 120.44,-221 2374.55,-221 2374.55,-221 2374.55,-221 2374.55,-73.17 2374.55,-73.17"/>
<polygon fill="black" stroke="black" points="2378.05,-73.17 2374.55,-63.17 2371.05,-73.17 2378.05,-73.17"/>
</g>
<!-- nasalib/vect_analysis@vect2_cont_dot&#45;&gt;nasalib/vect_analysis@cont_real_vect2 -->
<g id="edge58" class="edge">
<title>nasalib/vect_analysis@vect2_cont_dot&#45;&gt;nasalib/vect_analysis@cont_real_vect2</title>
<path fill="none" stroke="black" d="M94.88,-246.31C94.88,-232.27 94.88,-215 94.88,-215 94.88,-215 372.53,-215 372.53,-215 372.53,-215 372.53,-214.27 372.53,-214.27"/>
<polygon fill="black" stroke="black" points="376.03,-217.72 372.53,-207.72 369.03,-217.72 376.03,-217.72"/>
</g>
<!-- nasalib/vect_analysis@vect2_cont_dot&#45;&gt;nasalib/vect_analysis@cont_vect2_real -->
<g id="edge59" class="edge">
<title>nasalib/vect_analysis@vect2_cont_dot&#45;&gt;nasalib/vect_analysis@cont_vect2_real</title>
<path fill="none" stroke="black" d="M69.32,-246.1C69.32,-231.06 69.32,-212 69.32,-212 69.32,-212 209.33,-212 209.33,-212 209.33,-212 209.33,-211.41 209.33,-211.41"/>
<polygon fill="black" stroke="black" points="212.83,-216.11 209.33,-206.11 205.83,-216.11 212.83,-216.11"/>
</g>
<!-- nasalib/vect_analysis@vect2_cont_dot&#45;&gt;nasalib/vect_analysis@cont_vect2_vect2 -->
<g id="edge60" class="edge">
<title>nasalib/vect_analysis@vect2_cont_dot&#45;&gt;nasalib/vect_analysis@cont_vect2_vect2</title>
<path fill="none" stroke="black" d="M43.76,-249.08C43.76,-249.08 43.76,-215.92 43.76,-215.92"/>
<polygon fill="black" stroke="black" points="47.26,-215.92 43.76,-205.92 40.26,-215.92 47.26,-215.92"/>
</g>
<!-- nasalib/vect_analysis@vect2_metric_space&#45;&gt;nasalib/analysis -->
<g id="edge61" class="edge">
<title>nasalib/vect_analysis@vect2_metric_space&#45;&gt;nasalib/analysis</title>
<path fill="none" stroke="black" d="M1391.41,-268.87C1391.41,-275.07 1391.41,-285 1391.41,-285 1391.41,-285 2393.64,-285 2393.64,-285 2393.64,-285 2393.64,-73.04 2393.64,-73.04"/>
<polygon fill="black" stroke="black" points="2397.14,-73.04 2393.64,-63.04 2390.14,-73.04 2397.14,-73.04"/>
</g>
<!-- nasalib/vect_analysis@vect2_metric_space&#45;&gt;nasalib/vectors -->
<g id="edge62" class="edge">
<title>nasalib/vect_analysis@vect2_metric_space&#45;&gt;nasalib/vectors</title>
<path fill="none" stroke="black" d="M1388.58,-270.61C1388.58,-281.97 1388.58,-304 1388.58,-304 1388.58,-304 2467.53,-304 2467.53,-304 2467.53,-304 2467.53,-73.21 2467.53,-73.21"/>
<polygon fill="black" stroke="black" points="2471.03,-73.21 2467.53,-63.21 2464.03,-73.21 2471.03,-73.21"/>
</g>
<!-- nasalib/vect_analysis@vect3_Heine -->
<g id="node27" class="node">
<title>nasalib/vect_analysis@vect3_Heine</title>
<ellipse fill="#e6f3ff" stroke="black" cx="1441" cy="-336" rx="55.49" ry="18"/>
<text text-anchor="middle" x="1441" y="-332.3" font-family="Times,serif" font-size="14.00">vect3_Heine</text>
</g>
<!-- nasalib/vect_analysis@vect3_Heine&#45;&gt;nasalib/analysis -->
<g id="edge63" class="edge">
<title>nasalib/vect_analysis@vect3_Heine&#45;&gt;nasalib/analysis</title>
<path fill="none" stroke="black" d="M1468.08,-320.1C1468.08,-309.69 1468.08,-298 1468.08,-298 1468.08,-298 2404.55,-298 2404.55,-298 2404.55,-298 2404.55,-73.2 2404.55,-73.2"/>
<polygon fill="black" stroke="black" points="2408.05,-73.2 2404.55,-63.2 2401.05,-73.2 2408.05,-73.2"/>
</g>
<!-- nasalib/vect_analysis@vect3_metric_space -->
<g id="node28" class="node">
<title>nasalib/vect_analysis@vect3_metric_space</title>
<ellipse fill="#e6f3ff" stroke="black" cx="1493" cy="-264" rx="81.49" ry="18"/>
<text text-anchor="middle" x="1493" y="-260.3" font-family="Times,serif" font-size="14.00">vect3_metric_space</text>
</g>
<!-- nasalib/vect_analysis@vect3_Heine&#45;&gt;nasalib/vect_analysis@vect3_metric_space -->
<g id="edge64" class="edge">
<title>nasalib/vect_analysis@vect3_Heine&#45;&gt;nasalib/vect_analysis@vect3_metric_space</title>
<path fill="none" stroke="black" d="M1439.92,-317.83C1439.92,-317.83 1439.92,-288.07 1439.92,-288.07"/>
<polygon fill="black" stroke="black" points="1443.42,-288.07 1439.92,-278.07 1436.42,-288.07 1443.42,-288.07"/>
</g>
<!-- nasalib/vect_analysis@vect3_metric_space&#45;&gt;nasalib/analysis -->
<g id="edge65" class="edge">
<title>nasalib/vect_analysis@vect3_metric_space&#45;&gt;nasalib/analysis</title>
<path fill="none" stroke="black" d="M1569.94,-258C1787.41,-258 2390.91,-258 2390.91,-258 2390.91,-258 2390.91,-73.16 2390.91,-73.16"/>
<polygon fill="black" stroke="black" points="2394.41,-73.16 2390.91,-63.16 2387.41,-73.16 2394.41,-73.16"/>
</g>
<!-- nasalib/vect_analysis@vect3_metric_space&#45;&gt;nasalib/vectors -->
<g id="edge66" class="edge">
<title>nasalib/vect_analysis@vect3_metric_space&#45;&gt;nasalib/vectors</title>
<path fill="none" stroke="black" d="M1569.62,-270C1798.96,-270 2464.24,-270 2464.24,-270 2464.24,-270 2464.24,-73.03 2464.24,-73.03"/>
<polygon fill="black" stroke="black" points="2467.74,-73.03 2464.24,-63.03 2460.74,-73.03 2467.74,-73.03"/>
</g>
<!-- nasalib/vect_analysis@vect_chain_rule -->
<g id="node29" class="node">
<title>nasalib/vect_analysis@vect_chain_rule</title>
<ellipse fill="#e6f3ff" stroke="black" cx="715" cy="-264" rx="66.89" ry="18"/>
<text text-anchor="middle" x="715" y="-260.3" font-family="Times,serif" font-size="14.00">vect_chain_rule</text>
</g>
<!-- nasalib/vect_analysis@vect_chain_rule&#45;&gt;nasalib/analysis -->
<g id="edge67" class="edge">
<title>nasalib/vect_analysis@vect_chain_rule&#45;&gt;nasalib/analysis</title>
<path fill="none" stroke="black" d="M734.68,-246.5C734.68,-237.75 734.68,-229 734.68,-229 734.68,-229 2382.73,-229 2382.73,-229 2382.73,-229 2382.73,-73.32 2382.73,-73.32"/>
<polygon fill="black" stroke="black" points="2386.23,-73.32 2382.73,-63.32 2379.23,-73.32 2386.23,-73.32"/>
</g>
<!-- nasalib/vect_analysis@vect_deriv_2D -->
<g id="node31" class="node">
<title>nasalib/vect_analysis@vect_deriv_2D</title>
<ellipse fill="#e6f3ff" stroke="black" cx="648" cy="-192" rx="63.09" ry="18"/>
<text text-anchor="middle" x="648" y="-188.3" font-family="Times,serif" font-size="14.00">vect_deriv_2D</text>
</g>
<!-- nasalib/vect_analysis@vect_chain_rule&#45;&gt;nasalib/vect_analysis@vect_deriv_2D -->
<g id="edge68" class="edge">
<title>nasalib/vect_analysis@vect_chain_rule&#45;&gt;nasalib/vect_analysis@vect_deriv_2D</title>
<path fill="none" stroke="black" d="M679.55,-248.73C679.55,-248.73 679.55,-217.75 679.55,-217.75"/>
<polygon fill="black" stroke="black" points="683.05,-217.75 679.55,-207.75 676.05,-217.75 683.05,-217.75"/>
</g>
<!-- nasalib/vect_analysis@vect_chain_rule&#45;&gt;nasalib/vect_analysis@vect_fun_ops_rv -->
<g id="edge69" class="edge">
<title>nasalib/vect_analysis@vect_chain_rule&#45;&gt;nasalib/vect_analysis@vect_fun_ops_rv</title>
<path fill="none" stroke="black" d="M758.31,-249.97C758.31,-201.63 758.31,-45 758.31,-45 758.31,-45 720.6,-45 720.6,-45"/>
<polygon fill="black" stroke="black" points="720.6,-41.5 710.6,-45 720.6,-48.5 720.6,-41.5"/>
</g>
<!-- nasalib/vect_analysis@vect_cont_2D -->
<g id="node30" class="node">
<title>nasalib/vect_analysis@vect_cont_2D</title>
<ellipse fill="#e6f3ff" stroke="black" cx="237" cy="-336" rx="59.59" ry="18"/>
<text text-anchor="middle" x="237" y="-332.3" font-family="Times,serif" font-size="14.00">vect_cont_2D</text>
</g>
<!-- nasalib/vect_analysis@vect_cont_2D&#45;&gt;nasalib/analysis -->
<g id="edge70" class="edge">
<title>nasalib/vect_analysis@vect_cont_2D&#45;&gt;nasalib/analysis</title>
<path fill="none" stroke="black" d="M256.93,-318.94C256.93,-305.15 256.93,-288 256.93,-288 256.93,-288 2396.36,-288 2396.36,-288 2396.36,-288 2396.36,-73.26 2396.36,-73.26"/>
<polygon fill="black" stroke="black" points="2399.86,-73.26 2396.36,-63.26 2392.86,-73.26 2399.86,-73.26"/>
</g>
<!-- nasalib/vect_analysis@vect_cont_2D&#45;&gt;nasalib/vect_analysis@vect2_cont_comp -->
<g id="edge71" class="edge">
<title>nasalib/vect_analysis@vect_cont_2D&#45;&gt;nasalib/vect_analysis@vect2_cont_comp</title>
<path fill="none" stroke="black" d="M217.07,-318.94C217.07,-318.94 217.07,-291.44 217.07,-291.44"/>
<polygon fill="black" stroke="black" points="220.57,-291.44 217.07,-281.44 213.57,-291.44 220.57,-291.44"/>
</g>
<!-- nasalib/vect_analysis@vect_cont_2D&#45;&gt;nasalib/vect_analysis@vect2_cont_dot -->
<g id="edge72" class="edge">
<title>nasalib/vect_analysis@vect_cont_2D&#45;&gt;nasalib/vect_analysis@vect2_cont_dot</title>
<path fill="none" stroke="black" d="M177.13,-336C133.14,-336 81,-336 81,-336 81,-336 81,-292.17 81,-292.17"/>
<polygon fill="black" stroke="black" points="84.5,-292.17 81,-282.17 77.5,-292.17 84.5,-292.17"/>
</g>
<!-- nasalib/vect_analysis@vect_deriv_2D&#45;&gt;nasalib/analysis -->
<g id="edge73" class="edge">
<title>nasalib/vect_analysis@vect_deriv_2D&#45;&gt;nasalib/analysis</title>
<path fill="none" stroke="black" d="M668.68,-174.9C668.68,-168.16 668.68,-162 668.68,-162 668.68,-162 2366.36,-162 2366.36,-162 2366.36,-162 2366.36,-73.02 2366.36,-73.02"/>
<polygon fill="black" stroke="black" points="2369.86,-73.02 2366.36,-63.02 2362.86,-73.02 2369.86,-73.02"/>
</g>
<!-- nasalib/vect_analysis@vect_deriv_2D&#45;&gt;nasalib/vect_analysis@deriv_real_vect2 -->
<g id="edge74" class="edge">
<title>nasalib/vect_analysis@vect_deriv_2D&#45;&gt;nasalib/vect_analysis@deriv_real_vect2</title>
<path fill="none" stroke="black" d="M626.82,-174.94C626.82,-174.94 626.82,-147.69 626.82,-147.69"/>
<polygon fill="black" stroke="black" points="630.32,-147.69 626.82,-137.69 623.32,-147.69 630.32,-147.69"/>
</g>
<!-- nasalib/vect_analysis@vect_fun_ops&#45;&gt;nasalib/vectors -->
<g id="edge76" class="edge">
<title>nasalib/vect_analysis@vect_fun_ops&#45;&gt;nasalib/vectors</title>
<path fill="none" stroke="black" d="M875,-27C875,-18 875,-9 875,-9 875,-9 2446.67,-9 2446.67,-9 2446.67,-9 2446.67,-16.58 2446.67,-16.58"/>
<polygon fill="black" stroke="black" points="2443.17,-16.58 2446.67,-26.58 2450.17,-16.58 2443.17,-16.58"/>
</g>
<!-- nasalib/vect_analysis@vect_fun_ops_rv&#45;&gt;nasalib/vectors -->
<g id="edge75" class="edge">
<title>nasalib/vect_analysis@vect_fun_ops_rv&#45;&gt;nasalib/vectors</title>
<path fill="none" stroke="black" d="M641,-26.96C641,-14.44 641,0 641,0 641,0 2465.33,0 2465.33,0 2465.33,0 2465.33,-16.96 2465.33,-16.96"/>
<polygon fill="black" stroke="black" points="2461.83,-16.96 2465.33,-26.96 2468.83,-16.96 2461.83,-16.96"/>
</g>
<!-- nasalib/vect_analysis@vect_metric_space -->
<g id="node34" class="node">
<title>nasalib/vect_analysis@vect_metric_space</title>
<ellipse fill="#e6f3ff" stroke="black" cx="1961" cy="-336" rx="76.89" ry="18"/>
<text text-anchor="middle" x="1961" y="-332.3" font-family="Times,serif" font-size="14.00">vect_metric_space</text>
</g>
<!-- nasalib/vect_analysis@vect_metric_space&#45;&gt;nasalib/analysis -->
<g id="edge77" class="edge">
<title>nasalib/vect_analysis@vect_metric_space&#45;&gt;nasalib/analysis</title>
<path fill="none" stroke="black" d="M1935.44,-318.91C1935.44,-310.03 1935.44,-301 1935.44,-301 1935.44,-301 2407.27,-301 2407.27,-301 2407.27,-301 2407.27,-73 2407.27,-73"/>
<polygon fill="black" stroke="black" points="2410.77,-73 2407.27,-63 2403.77,-73 2410.77,-73"/>
</g>
<!-- nasalib/vect_analysis@vect_metric_space&#45;&gt;nasalib/vectors -->
<g id="edge78" class="edge">
<title>nasalib/vect_analysis@vect_metric_space&#45;&gt;nasalib/vectors</title>
<path fill="none" stroke="black" d="M1986.56,-318.67C1986.56,-315.94 1986.56,-314 1986.56,-314 1986.56,-314 2477.41,-314 2477.41,-314 2477.41,-314 2477.41,-73.07 2477.41,-73.07"/>
<polygon fill="black" stroke="black" points="2480.91,-73.07 2477.41,-63.07 2473.91,-73.07 2480.91,-73.07"/>
</g>
<!-- nasalib/vect_analysis@vect_vect_2D_continuity -->
<g id="node35" class="node">
<title>nasalib/vect_analysis@vect_vect_2D_continuity</title>
<ellipse fill="#e6f3ff" stroke="black" cx="2155" cy="-336" rx="99.38" ry="18"/>
<text text-anchor="middle" x="2155" y="-332.3" font-family="Times,serif" font-size="14.00">vect_vect_2D_continuity</text>
</g>
<!-- nasalib/vect_analysis@vect_vect_2D_continuity&#45;&gt;nasalib/vectors -->
<g id="edge79" class="edge">
<title>nasalib/vect_analysis@vect_vect_2D_continuity&#45;&gt;nasalib/vectors</title>
<path fill="none" stroke="black" d="M2254.49,-336C2350.28,-336 2480.71,-336 2480.71,-336 2480.71,-336 2480.71,-73.2 2480.71,-73.2"/>
<polygon fill="black" stroke="black" points="2484.21,-73.2 2480.71,-63.2 2477.21,-73.2 2484.21,-73.2"/>
</g>
</g>
</svg>
