<?xml version="1.0" encoding="UTF-8" standalone="no"?>
<!DOCTYPE svg PUBLIC "-//W3C//DTD SVG 1.1//EN"
 "http://www.w3.org/Graphics/SVG/1.1/DTD/svg11.dtd">
<!-- Generated by graphviz version 7.0.6 (20230106.0513)
 -->
<!-- Title: vect_analysis Pages: 1 -->
<svg width="897pt" height="966pt"
 viewBox="0.00 0.00 897.00 966.00" xmlns="http://www.w3.org/2000/svg" xmlns:xlink="http://www.w3.org/1999/xlink">
<g id="graph0" class="graph" transform="scale(1 1) rotate(0) translate(4 962)">
<title>vect_analysis</title>
<polygon fill="white" stroke="none" points="-4,4 -4,-962 893,-962 893,4 -4,4"/>
<g id="clust1" class="cluster">
<title>cluster_NASALib</title>
<polygon fill="none" stroke="black" points="8,-8 8,-950 785,-950 785,-8 8,-8"/>
<text text-anchor="middle" x="396.5" y="-934.8" font-family="Times,serif" font-size="14.00">NASALib</text>
</g>
<g id="clust2" class="cluster">
<title>cluster_PVS Prelude</title>
<polygon fill="none" stroke="black" points="793,-8 793,-83 881,-83 881,-8 793,-8"/>
<text text-anchor="middle" x="837" y="-67.8" font-family="Times,serif" font-size="14.00">PVS Prelude</text>
</g>
<!-- NASALib/ACCoRD -->
<g id="node1" class="node">
<title>NASALib/ACCoRD</title>
<polygon fill="#fcfcd7" stroke="black" points="253,-919 183,-919 183,-883 253,-883 253,-919"/>
<text text-anchor="middle" x="218" y="-897.3" font-family="Times,serif" font-size="14.00">ACCoRD</text>
</g>
<!-- NASALib/analysis -->
<g id="node2" class="node">
<title>NASALib/analysis</title>
<polygon fill="#fcfcd7" stroke="black" points="346,-775 286,-775 286,-739 346,-739 346,-775"/>
<text text-anchor="middle" x="316" y="-753.3" font-family="Times,serif" font-size="14.00">analysis</text>
</g>
<!-- NASALib/ACCoRD&#45;&gt;NASALib/analysis -->
<g id="edge1" class="edge">
<title>NASALib/ACCoRD&#45;&gt;NASALib/analysis</title>
<path fill="none" stroke="black" d="M776,-828C776,-828 470.52,-781.51 357.44,-764.31"/>
<polygon fill="black" stroke="black" points="358.09,-760.86 347.68,-762.82 357.04,-767.79 358.09,-760.86"/>
<path fill="none" stroke="black" d="M253.33,-895.57C375.99,-880.18 776,-830 776,-830"/>
</g>
<!-- NASALib/reals -->
<g id="node11" class="node">
<title>NASALib/reals</title>
<polygon fill="#fcfcd7" stroke="black" points="343,-703 289,-703 289,-667 343,-667 343,-703"/>
<text text-anchor="middle" x="316" y="-681.3" font-family="Times,serif" font-size="14.00">reals</text>
</g>
<!-- NASALib/ACCoRD&#45;&gt;NASALib/reals -->
<g id="edge2" class="edge">
<title>NASALib/ACCoRD&#45;&gt;NASALib/reals</title>
<path fill="none" stroke="black" d="M776,-756C776,-756 465.47,-708.75 354.69,-691.89"/>
<polygon fill="black" stroke="black" points="355.31,-688.44 344.89,-690.4 354.25,-695.36 355.31,-688.44"/>
<path fill="none" stroke="black" d="M776,-828C776,-828 776,-758 776,-758"/>
</g>
<!-- NASALib/structures -->
<g id="node15" class="node">
<title>NASALib/structures</title>
<polygon fill="#fcfcd7" stroke="black" points="469.5,-127 400.5,-127 400.5,-91 469.5,-91 469.5,-127"/>
<text text-anchor="middle" x="435" y="-105.3" font-family="Times,serif" font-size="14.00">structures</text>
</g>
<!-- NASALib/ACCoRD&#45;&gt;NASALib/structures -->
<g id="edge3" class="edge">
<title>NASALib/ACCoRD&#45;&gt;NASALib/structures</title>
<path fill="none" stroke="black" d="M776,-756C776,-756 776,-614 776,-614 776,-614 776,-614 776,-540 776,-540 756,-398 756,-398"/>
</g>
<!-- NASALib/trig -->
<g id="node17" class="node">
<title>NASALib/trig</title>
<polygon fill="#fcfcd7" stroke="black" points="157,-343 103,-343 103,-307 157,-307 157,-343"/>
<text text-anchor="middle" x="130" y="-321.3" font-family="Times,serif" font-size="14.00">trig</text>
</g>
<!-- NASALib/ACCoRD&#45;&gt;NASALib/trig -->
<g id="edge4" class="edge">
<title>NASALib/ACCoRD&#45;&gt;NASALib/trig</title>
<path fill="none" stroke="black" d="M84,-468C84,-468 47,-415 47,-415 47,-415 47,-379 47,-379 47,-379 70.99,-363.68 93.18,-349.51"/>
<polygon fill="black" stroke="black" points="95,-352.5 101.55,-344.17 91.24,-346.6 95,-352.5"/>
<path fill="none" stroke="black" d="M197.56,-882.62C157.17,-848.27 71,-775 71,-775 71,-775 56,-758 56,-758 56,-758 56,-758 56,-612 56,-612 84,-470 84,-470"/>
</g>
<!-- NASALib/vect_analysis -->
<g id="node18" class="node">
<title>NASALib/vect_analysis</title>
<polygon fill="#f7e28d" stroke="black" points="262.5,-847 173.5,-847 173.5,-811 262.5,-811 262.5,-847"/>
<text text-anchor="middle" x="218" y="-825.3" font-family="Times,serif" font-size="14.00">vect_analysis</text>
</g>
<!-- NASALib/ACCoRD&#45;&gt;NASALib/vect_analysis -->
<g id="edge5" class="edge">
<title>NASALib/ACCoRD&#45;&gt;NASALib/vect_analysis</title>
<path fill="none" stroke="black" d="M218,-882.7C218,-875.41 218,-866.73 218,-858.54"/>
<polygon fill="black" stroke="black" points="221.5,-858.62 218,-848.62 214.5,-858.62 221.5,-858.62"/>
</g>
<!-- NASALib/vectors -->
<g id="node19" class="node">
<title>NASALib/vectors</title>
<polygon fill="#fcfcd7" stroke="black" points="112,-415 56,-415 56,-379 112,-379 112,-415"/>
<text text-anchor="middle" x="84" y="-393.3" font-family="Times,serif" font-size="14.00">vectors</text>
</g>
<!-- NASALib/ACCoRD&#45;&gt;NASALib/vectors -->
<g id="edge6" class="edge">
<title>NASALib/ACCoRD&#45;&gt;NASALib/vectors</title>
<path fill="none" stroke="black" d="M84,-468C84,-468 84,-446.08 84,-426.77"/>
<polygon fill="black" stroke="black" points="87.5,-426.82 84,-416.82 80.5,-426.82 87.5,-426.82"/>
</g>
<!-- lib/finite_sets -->
<g id="node20" class="node">
<title>lib/finite_sets</title>
<polygon fill="#fcfcd7" stroke="black" points="873,-52 801,-52 801,-16 873,-16 873,-52"/>
<text text-anchor="middle" x="837" y="-30.3" font-family="Times,serif" font-size="14.00">finite_sets</text>
</g>
<!-- NASALib/ACCoRD&#45;&gt;lib/finite_sets -->
<g id="edge7" class="edge">
<title>NASALib/ACCoRD&#45;&gt;lib/finite_sets</title>
<path fill="none" stroke="black" d="M776,-756C776,-756 805,-686 805,-686"/>
</g>
<!-- NASALib/ints -->
<g id="node4" class="node">
<title>NASALib/ints</title>
<polygon fill="#fcfcd7" stroke="black" points="411,-52 357,-52 357,-16 411,-16 411,-52"/>
<text text-anchor="middle" x="384" y="-30.3" font-family="Times,serif" font-size="14.00">ints</text>
</g>
<!-- NASALib/analysis&#45;&gt;NASALib/ints -->
<g id="edge8" class="edge">
<title>NASALib/analysis&#45;&gt;NASALib/ints</title>
<path fill="none" stroke="black" d="M130,-252C130,-252 334,-110 334,-110"/>
<path fill="none" stroke="black" d="M334,-108C334,-108 351.41,-82.58 365.69,-61.74"/>
<polygon fill="black" stroke="black" points="368.53,-63.78 371.3,-53.55 362.76,-59.82 368.53,-63.78"/>
<path fill="none" stroke="black" d="M290.28,-738.62C239.44,-704.27 131,-631 131,-631 131,-631 43,-415 43,-415 43,-415 43,-379 43,-379 43,-379 86,-307 86,-307 86,-307 130,-254 130,-254"/>
</g>
<!-- NASALib/orders -->
<g id="node9" class="node">
<title>NASALib/orders</title>
<polygon fill="#fcfcd7" stroke="black" points="508,-199 454,-199 454,-163 508,-163 508,-199"/>
<text text-anchor="middle" x="481" y="-177.3" font-family="Times,serif" font-size="14.00">orders</text>
</g>
<!-- NASALib/analysis&#45;&gt;NASALib/orders -->
<g id="edge9" class="edge">
<title>NASALib/analysis&#45;&gt;NASALib/orders</title>
<path fill="none" stroke="black" d="M346.44,-752.02C440.63,-739.69 721,-703 721,-703 721,-703 756,-470 756,-470"/>
<path fill="none" stroke="black" d="M756,-468C756,-468 736,-326 736,-326"/>
</g>
<!-- NASALib/analysis&#45;&gt;NASALib/reals -->
<g id="edge10" class="edge">
<title>NASALib/analysis&#45;&gt;NASALib/reals</title>
<path fill="none" stroke="black" d="M316,-738.7C316,-731.41 316,-722.73 316,-714.54"/>
<polygon fill="black" stroke="black" points="319.5,-714.62 316,-704.62 312.5,-714.62 319.5,-714.62"/>
</g>
<!-- NASALib/analysis&#45;&gt;NASALib/structures -->
<g id="edge11" class="edge">
<title>NASALib/analysis&#45;&gt;NASALib/structures</title>
<path fill="none" stroke="black" d="M756,-468C756,-468 756,-398 756,-398"/>
</g>
<!-- NASALib/analysis&#45;&gt;lib/finite_sets -->
<g id="edge12" class="edge">
<title>NASALib/analysis&#45;&gt;lib/finite_sets</title>
<path fill="none" stroke="black" d="M805,-684C805,-684 805,-470 805,-470"/>
<path fill="none" stroke="black" d="M346.3,-752.1C441.44,-739.86 728,-703 728,-703 728,-703 805,-686 805,-686"/>
</g>
<!-- NASALib/extended_nnreal -->
<g id="node3" class="node">
<title>NASALib/extended_nnreal</title>
<polygon fill="#fcfcd7" stroke="black" points="677,-487 571,-487 571,-451 677,-451 677,-487"/>
<text text-anchor="middle" x="624" y="-465.3" font-family="Times,serif" font-size="14.00">extended_nnreal</text>
</g>
<!-- NASALib/extended_nnreal&#45;&gt;NASALib/analysis -->
<g id="edge13" class="edge">
<title>NASALib/extended_nnreal&#45;&gt;NASALib/analysis</title>
<path fill="none" stroke="black" d="M716,-614C716,-614 716,-684 716,-684"/>
<path fill="none" stroke="black" d="M635.28,-487.41C654.86,-517.63 694.49,-578.8 709.78,-602.41"/>
<polygon fill="black" stroke="black" points="706.8,-604.24 715.18,-610.73 712.68,-600.43 706.8,-604.24"/>
</g>
<!-- NASALib/extended_nnreal&#45;&gt;NASALib/reals -->
<g id="edge14" class="edge">
<title>NASALib/extended_nnreal&#45;&gt;NASALib/reals</title>
<path fill="none" stroke="black" d="M618.85,-487.41C610.09,-517.04 592.53,-576.41 585.26,-600.98"/>
<polygon fill="black" stroke="black" points="581.91,-599.97 582.43,-610.55 588.62,-601.95 581.91,-599.97"/>
</g>
<!-- NASALib/series -->
<g id="node12" class="node">
<title>NASALib/series</title>
<polygon fill="#fcfcd7" stroke="black" points="361,-271 307,-271 307,-235 361,-235 361,-271"/>
<text text-anchor="middle" x="334" y="-249.3" font-family="Times,serif" font-size="14.00">series</text>
</g>
<!-- NASALib/extended_nnreal&#45;&gt;NASALib/series -->
<g id="edge15" class="edge">
<title>NASALib/extended_nnreal&#45;&gt;NASALib/series</title>
<path fill="none" stroke="black" d="M592.61,-450.59C524.25,-412.67 368,-326 368,-326"/>
</g>
<!-- NASALib/sigma_set -->
<g id="node14" class="node">
<title>NASALib/sigma_set</title>
<polygon fill="#fcfcd7" stroke="black" points="622.5,-415 551.5,-415 551.5,-379 622.5,-379 622.5,-415"/>
<text text-anchor="middle" x="587" y="-393.3" font-family="Times,serif" font-size="14.00">sigma_set</text>
</g>
<!-- NASALib/extended_nnreal&#45;&gt;NASALib/sigma_set -->
<g id="edge16" class="edge">
<title>NASALib/extended_nnreal&#45;&gt;NASALib/sigma_set</title>
<path fill="none" stroke="black" d="M614.85,-450.7C610.78,-442.98 605.88,-433.71 601.33,-425.11"/>
<polygon fill="black" stroke="black" points="604.52,-423.65 596.75,-416.44 598.33,-426.92 604.52,-423.65"/>
</g>
<!-- NASALib/lebesgue -->
<g id="node5" class="node">
<title>NASALib/lebesgue</title>
<polygon fill="#fcfcd7" stroke="black" points="665,-631 601,-631 601,-595 665,-595 665,-631"/>
<text text-anchor="middle" x="633" y="-609.3" font-family="Times,serif" font-size="14.00">lebesgue</text>
</g>
<!-- NASALib/lebesgue&#45;&gt;NASALib/analysis -->
<g id="edge17" class="edge">
<title>NASALib/lebesgue&#45;&gt;NASALib/analysis</title>
<path fill="none" stroke="black" d="M716,-686C716,-686 439.74,-734.35 346.39,-750.68"/>
<path fill="none" stroke="black" d="M653.52,-631.3C670.8,-645.88 694.67,-666.01 707.32,-676.68"/>
<polygon fill="black" stroke="black" points="704.94,-679.25 714.84,-683.02 709.46,-673.9 704.94,-679.25"/>
</g>
<!-- NASALib/lebesgue&#45;&gt;NASALib/extended_nnreal -->
<g id="edge18" class="edge">
<title>NASALib/lebesgue&#45;&gt;NASALib/extended_nnreal</title>
<path fill="none" stroke="black" d="M631.9,-594.59C630.38,-570.61 627.62,-527.14 625.8,-498.42"/>
<polygon fill="black" stroke="black" points="629.31,-498.38 625.18,-488.62 622.32,-498.82 629.31,-498.38"/>
</g>
<!-- NASALib/measure_integration -->
<g id="node7" class="node">
<title>NASALib/measure_integration</title>
<polygon fill="#fcfcd7" stroke="black" points="543,-559 415,-559 415,-523 543,-523 543,-559"/>
<text text-anchor="middle" x="479" y="-537.3" font-family="Times,serif" font-size="14.00">measure_integration</text>
</g>
<!-- NASALib/lebesgue&#45;&gt;NASALib/measure_integration -->
<g id="edge19" class="edge">
<title>NASALib/lebesgue&#45;&gt;NASALib/measure_integration</title>
<path fill="none" stroke="black" d="M600.72,-597.33C579.51,-587.69 551.38,-574.9 527.51,-564.05"/>
<polygon fill="black" stroke="black" points="529.15,-560.95 518.6,-560 526.26,-567.33 529.15,-560.95"/>
</g>
<!-- NASALib/metric_space -->
<g id="node8" class="node">
<title>NASALib/metric_space</title>
<polygon fill="#fcfcd7" stroke="black" points="424.5,-487 335.5,-487 335.5,-451 424.5,-451 424.5,-487"/>
<text text-anchor="middle" x="380" y="-465.3" font-family="Times,serif" font-size="14.00">metric_space</text>
</g>
<!-- NASALib/lebesgue&#45;&gt;NASALib/metric_space -->
<g id="edge20" class="edge">
<title>NASALib/lebesgue&#45;&gt;NASALib/metric_space</title>
<path fill="none" stroke="black" d="M600.55,-600.01C592.94,-597.2 587,-595 587,-595 587,-595 406,-559 406,-559 406,-559 395.81,-524.11 388.19,-498.02"/>
<polygon fill="black" stroke="black" points="391.6,-497.23 385.44,-488.61 384.88,-499.19 391.6,-497.23"/>
</g>
<!-- NASALib/power -->
<g id="node10" class="node">
<title>NASALib/power</title>
<polygon fill="#fcfcd7" stroke="black" points="329,-415 275,-415 275,-379 329,-379 329,-415"/>
<text text-anchor="middle" x="302" y="-393.3" font-family="Times,serif" font-size="14.00">power</text>
</g>
<!-- NASALib/lebesgue&#45;&gt;NASALib/power -->
<g id="edge21" class="edge">
<title>NASALib/lebesgue&#45;&gt;NASALib/power</title>
<path fill="none" stroke="black" d="M600.55,-600.01C592.94,-597.2 587,-595 587,-595 587,-595 392,-559 392,-559 392,-559 327,-487 327,-487 327,-487 317.2,-452.11 309.87,-426.02"/>
<polygon fill="black" stroke="black" points="313.3,-425.3 307.23,-416.62 306.56,-427.19 313.3,-425.3"/>
</g>
<!-- NASALib/sets_aux -->
<g id="node13" class="node">
<title>NASALib/sets_aux</title>
<polygon fill="#fcfcd7" stroke="black" points="543.5,-343 480.5,-343 480.5,-307 543.5,-307 543.5,-343"/>
<text text-anchor="middle" x="512" y="-321.3" font-family="Times,serif" font-size="14.00">sets_aux</text>
</g>
<!-- NASALib/lebesgue&#45;&gt;NASALib/sets_aux -->
<g id="edge23" class="edge">
<title>NASALib/lebesgue&#45;&gt;NASALib/sets_aux</title>
<path fill="none" stroke="black" d="M696,-468C696,-468 686,-451 686,-451 686,-451 632,-379 632,-379 632,-379 588.79,-359.92 554.23,-344.65"/>
<polygon fill="black" stroke="black" points="555.79,-341.51 545.23,-340.68 552.96,-347.92 555.79,-341.51"/>
</g>
<!-- NASALib/lebesgue&#45;&gt;NASALib/sigma_set -->
<g id="edge24" class="edge">
<title>NASALib/lebesgue&#45;&gt;NASALib/sigma_set</title>
<path fill="none" stroke="black" d="M648.57,-594.7C667.23,-573.97 696,-542 696,-542"/>
<path fill="none" stroke="black" d="M696,-468C696,-468 686,-451 686,-451 686,-451 656.35,-435.13 629.5,-420.75"/>
<polygon fill="black" stroke="black" points="631.22,-417.7 620.75,-416.07 627.91,-423.87 631.22,-417.7"/>
<path fill="none" stroke="black" d="M696,-540C696,-540 696,-470 696,-470"/>
</g>
<!-- NASALib/lebesgue&#45;&gt;NASALib/structures -->
<g id="edge25" class="edge">
<title>NASALib/lebesgue&#45;&gt;NASALib/structures</title>
<path fill="none" stroke="black" d="M696,-540C696,-540 756,-398 756,-398"/>
<path fill="none" stroke="black" d="M756,-396C756,-396 741,-307 741,-307 741,-307 552.67,-185.75 471.5,-133.5"/>
<polygon fill="black" stroke="black" points="473.73,-130.77 463.43,-128.3 469.94,-136.66 473.73,-130.77"/>
</g>
<!-- NASALib/topology -->
<g id="node16" class="node">
<title>NASALib/topology</title>
<polygon fill="#fcfcd7" stroke="black" points="452.5,-415 387.5,-415 387.5,-379 452.5,-379 452.5,-415"/>
<text text-anchor="middle" x="420" y="-393.3" font-family="Times,serif" font-size="14.00">topology</text>
</g>
<!-- NASALib/lebesgue&#45;&gt;NASALib/topology -->
<g id="edge26" class="edge">
<title>NASALib/lebesgue&#45;&gt;NASALib/topology</title>
<path fill="none" stroke="black" d="M617.38,-594.84C593.84,-568.98 552,-523 552,-523 552,-523 477,-451 477,-451 477,-451 461.54,-436.63 446.73,-422.85"/>
<polygon fill="black" stroke="black" points="449.48,-420.63 439.77,-416.38 444.71,-425.76 449.48,-420.63"/>
</g>
<!-- NASALib/lnexp -->
<g id="node6" class="node">
<title>NASALib/lnexp</title>
<polygon fill="#fcfcd7" stroke="black" points="269,-343 215,-343 215,-307 269,-307 269,-343"/>
<text text-anchor="middle" x="242" y="-321.3" font-family="Times,serif" font-size="14.00">lnexp</text>
</g>
<!-- NASALib/lnexp&#45;&gt;NASALib/analysis -->
<g id="edge27" class="edge">
<title>NASALib/lnexp&#45;&gt;NASALib/analysis</title>
<path fill="none" stroke="black" d="M238.4,-343.35C235.19,-358.81 231,-379 231,-379 231,-379 221.94,-432.78 217.9,-456.73"/>
<polygon fill="black" stroke="black" points="214.46,-456.06 216.25,-466.51 221.36,-457.23 214.46,-456.06"/>
<path fill="none" stroke="black" d="M216,-470C216,-470 136,-612 136,-612"/>
</g>
<!-- NASALib/lnexp&#45;&gt;NASALib/ints -->
<g id="edge28" class="edge">
<title>NASALib/lnexp&#45;&gt;NASALib/ints</title>
<path fill="none" stroke="black" d="M242,-306.7C242,-285.97 242,-254 242,-254"/>
</g>
<!-- NASALib/lnexp&#45;&gt;NASALib/reals -->
<g id="edge29" class="edge">
<title>NASALib/lnexp&#45;&gt;NASALib/reals</title>
<path fill="none" stroke="black" d="M216,-470C216,-470 231,-631 231,-631 231,-631 263.79,-651.45 288.64,-666.94"/>
</g>
<!-- NASALib/lnexp&#45;&gt;NASALib/series -->
<g id="edge30" class="edge">
<title>NASALib/lnexp&#45;&gt;NASALib/series</title>
<path fill="none" stroke="black" d="M264.74,-306.7C276.02,-298.11 289.83,-287.61 302.14,-278.24"/>
<polygon fill="black" stroke="black" points="304.16,-281.1 310,-272.26 299.92,-275.53 304.16,-281.1"/>
</g>
<!-- NASALib/measure_integration&#45;&gt;NASALib/extended_nnreal -->
<g id="edge31" class="edge">
<title>NASALib/measure_integration&#45;&gt;NASALib/extended_nnreal</title>
<path fill="none" stroke="black" d="M515.22,-522.52C534.14,-513.38 557.52,-502.09 577.75,-492.33"/>
<polygon fill="black" stroke="black" points="579.15,-495.54 586.63,-488.04 576.1,-489.24 579.15,-495.54"/>
</g>
<!-- NASALib/measure_integration&#45;&gt;NASALib/metric_space -->
<g id="edge32" class="edge">
<title>NASALib/measure_integration&#45;&gt;NASALib/metric_space</title>
<path fill="none" stroke="black" d="M454.27,-522.52C442.01,-513.85 427.02,-503.25 413.73,-493.85"/>
<polygon fill="black" stroke="black" points="415.83,-491.05 405.65,-488.13 411.79,-496.77 415.83,-491.05"/>
</g>
<!-- NASALib/measure_integration&#45;&gt;NASALib/orders -->
<g id="edge33" class="edge">
<title>NASALib/measure_integration&#45;&gt;NASALib/orders</title>
<path fill="none" stroke="black" d="M472,-468C472,-468 512,-398 512,-398"/>
<path fill="none" stroke="black" d="M512,-396C512,-396 501,-379 501,-379 501,-379 472,-343 472,-343 472,-343 472,-307 472,-307 472,-307 476,-235 476,-235 476,-235 477.12,-223.17 478.29,-210.68"/>
<polygon fill="black" stroke="black" points="481.77,-211.15 479.22,-200.86 474.8,-210.49 481.77,-211.15"/>
</g>
<!-- NASALib/measure_integration&#45;&gt;NASALib/power -->
<g id="edge34" class="edge">
<title>NASALib/measure_integration&#45;&gt;NASALib/power</title>
<path fill="none" stroke="black" d="M477.27,-522.7C475.2,-501.97 472,-470 472,-470"/>
<path fill="none" stroke="black" d="M472,-468C472,-468 434,-451 434,-451 434,-451 378.87,-428.86 339.86,-413.2"/>
<polygon fill="black" stroke="black" points="341.34,-410.02 330.76,-409.55 338.73,-416.52 341.34,-410.02"/>
</g>
<!-- NASALib/measure_integration&#45;&gt;NASALib/reals -->
<g id="edge35" class="edge">
<title>NASALib/measure_integration&#45;&gt;NASALib/reals</title>
<path fill="none" stroke="black" d="M453.27,-559.48C431.11,-574.55 400.36,-595.44 385.2,-605.75"/>
<polygon fill="black" stroke="black" points="383.56,-602.63 377.25,-611.15 387.49,-608.42 383.56,-602.63"/>
</g>
<!-- NASALib/measure_integration&#45;&gt;NASALib/series -->
<g id="edge36" class="edge">
<title>NASALib/measure_integration&#45;&gt;NASALib/series</title>
<path fill="none" stroke="black" d="M472,-468C472,-468 379,-415 379,-415 379,-415 368,-326 368,-326"/>
</g>
<!-- NASALib/measure_integration&#45;&gt;NASALib/sets_aux -->
<g id="edge37" class="edge">
<title>NASALib/measure_integration&#45;&gt;NASALib/sets_aux</title>
<path fill="none" stroke="black" d="M512,-396C512,-396 512,-374.08 512,-354.77"/>
<polygon fill="black" stroke="black" points="515.5,-354.82 512,-344.82 508.5,-354.82 515.5,-354.82"/>
</g>
<!-- NASALib/measure_integration&#45;&gt;NASALib/sigma_set -->
<g id="edge38" class="edge">
<title>NASALib/measure_integration&#45;&gt;NASALib/sigma_set</title>
<path fill="none" stroke="black" d="M488.25,-522.84C502.2,-496.98 527,-451 527,-451 527,-451 543.27,-436.63 558.87,-422.85"/>
<polygon fill="black" stroke="black" points="561.04,-425.6 566.22,-416.36 556.41,-420.35 561.04,-425.6"/>
</g>
<!-- NASALib/measure_integration&#45;&gt;NASALib/structures -->
<g id="edge39" class="edge">
<title>NASALib/measure_integration&#45;&gt;NASALib/structures</title>
<path fill="none" stroke="black" d="M435,-180C435,-180 435,-158.08 435,-138.77"/>
<polygon fill="black" stroke="black" points="438.5,-138.82 435,-128.82 431.5,-138.82 438.5,-138.82"/>
<path fill="none" stroke="black" d="M472,-468C472,-468 462,-379 462,-379 462,-379 435,-182 435,-182"/>
</g>
<!-- NASALib/measure_integration&#45;&gt;NASALib/topology -->
<g id="edge40" class="edge">
<title>NASALib/measure_integration&#45;&gt;NASALib/topology</title>
<path fill="none" stroke="black" d="M472,-468C472,-468 454.3,-444.18 439.56,-424.33"/>
<polygon fill="black" stroke="black" points="442.53,-422.46 433.76,-416.52 436.91,-426.63 442.53,-422.46"/>
</g>
<!-- NASALib/measure_integration&#45;&gt;lib/finite_sets -->
<g id="edge41" class="edge">
<title>NASALib/measure_integration&#45;&gt;lib/finite_sets</title>
<path fill="none" stroke="black" d="M805,-468C805,-468 805,-398 805,-398"/>
<path fill="none" stroke="black" d="M543.23,-529.02C634.03,-513.49 789,-487 789,-487 789,-487 805,-470 805,-470"/>
</g>
<!-- NASALib/metric_space&#45;&gt;NASALib/analysis -->
<g id="edge42" class="edge">
<title>NASALib/metric_space&#45;&gt;NASALib/analysis</title>
<path fill="none" stroke="black" d="M369.85,-487.35C360.81,-502.81 349,-523 349,-523 349,-523 281.56,-639.75 261.54,-674.41"/>
<polygon fill="black" stroke="black" points="258.73,-672.28 256.76,-682.69 264.79,-675.78 258.73,-672.28"/>
</g>
<!-- NASALib/metric_space&#45;&gt;NASALib/power -->
<g id="edge43" class="edge">
<title>NASALib/metric_space&#45;&gt;NASALib/power</title>
<path fill="none" stroke="black" d="M360.72,-450.7C351.34,-442.28 339.91,-432.02 329.62,-422.79"/>
<polygon fill="black" stroke="black" points="332.24,-420.43 322.46,-416.36 327.56,-425.64 332.24,-420.43"/>
</g>
<!-- NASALib/metric_space&#45;&gt;NASALib/series -->
<g id="edge45" class="edge">
<title>NASALib/metric_space&#45;&gt;NASALib/series</title>
<path fill="none" stroke="black" d="M372.09,-450.7C362.61,-429.97 348,-398 348,-398"/>
<path fill="none" stroke="black" d="M348,-396C348,-396 368,-326 368,-326"/>
<path fill="none" stroke="black" d="M368,-324C368,-324 356.84,-301.03 347.31,-281.41"/>
<polygon fill="black" stroke="black" points="350.58,-280.13 343.07,-272.66 344.29,-283.19 350.58,-280.13"/>
</g>
<!-- NASALib/metric_space&#45;&gt;NASALib/sets_aux -->
<g id="edge46" class="edge">
<title>NASALib/metric_space&#45;&gt;NASALib/sets_aux</title>
<path fill="none" stroke="black" d="M348,-396C348,-396 379,-379 379,-379 379,-379 430.63,-358.43 469.56,-342.91"/>
<polygon fill="black" stroke="black" points="470.74,-346.21 478.74,-339.26 468.15,-339.71 470.74,-346.21"/>
</g>
<!-- NASALib/metric_space&#45;&gt;NASALib/topology -->
<g id="edge47" class="edge">
<title>NASALib/metric_space&#45;&gt;NASALib/topology</title>
<path fill="none" stroke="black" d="M389.89,-450.7C394.34,-442.9 399.71,-433.51 404.67,-424.83"/>
<polygon fill="black" stroke="black" points="407.55,-426.84 409.48,-416.42 401.47,-423.36 407.55,-426.84"/>
</g>
<!-- NASALib/metric_space&#45;&gt;NASALib/vectors -->
<g id="edge48" class="edge">
<title>NASALib/metric_space&#45;&gt;NASALib/vectors</title>
<path fill="none" stroke="black" d="M335.04,-457.37C277.37,-443.73 178.24,-420.29 123.39,-407.31"/>
<polygon fill="black" stroke="black" points="124.4,-403.96 113.86,-405.06 122.78,-410.77 124.4,-403.96"/>
</g>
<!-- NASALib/metric_space&#45;&gt;lib/finite_sets -->
<g id="edge49" class="edge">
<title>NASALib/metric_space&#45;&gt;lib/finite_sets</title>
<path fill="none" stroke="black" d="M424.77,-459.25C446.09,-455.09 467,-451 467,-451 467,-451 761,-415 761,-415 761,-415 805,-398 805,-398"/>
<path fill="none" stroke="black" d="M805,-396C805,-396 805,-254 805,-254"/>
</g>
<!-- NASALib/orders&#45;&gt;NASALib/structures -->
<g id="edge50" class="edge">
<title>NASALib/orders&#45;&gt;NASALib/structures</title>
<path fill="none" stroke="black" d="M469.63,-162.7C464.45,-154.81 458.2,-145.3 452.44,-136.55"/>
<polygon fill="black" stroke="black" points="455.49,-134.8 447.07,-128.37 449.64,-138.65 455.49,-134.8"/>
</g>
<!-- NASALib/orders&#45;&gt;lib/finite_sets -->
<g id="edge51" class="edge">
<title>NASALib/orders&#45;&gt;lib/finite_sets</title>
<path fill="none" stroke="black" d="M805,-108C805,-108 815.84,-83.26 824.91,-62.59"/>
<polygon fill="black" stroke="black" points="828,-64.25 828.81,-53.69 821.59,-61.44 828,-64.25"/>
<path fill="none" stroke="black" d="M508.34,-174.09C586.46,-157.22 805,-110 805,-110"/>
</g>
<!-- NASALib/power&#45;&gt;NASALib/analysis -->
<g id="edge52" class="edge">
<title>NASALib/power&#45;&gt;NASALib/analysis</title>
<path fill="none" stroke="black" d="M299.19,-415.46C290.61,-468.82 264.88,-628.79 257.81,-672.73"/>
<polygon fill="black" stroke="black" points="254.37,-672.08 256.24,-682.51 261.28,-673.19 254.37,-672.08"/>
</g>
<!-- NASALib/power&#45;&gt;NASALib/lnexp -->
<g id="edge53" class="edge">
<title>NASALib/power&#45;&gt;NASALib/lnexp</title>
<path fill="none" stroke="black" d="M287.17,-378.7C280.19,-370.56 271.73,-360.69 264.03,-351.7"/>
<polygon fill="black" stroke="black" points="266.81,-349.57 257.65,-344.25 261.5,-354.12 266.81,-349.57"/>
</g>
<!-- NASALib/power&#45;&gt;NASALib/reals -->
<g id="edge54" class="edge">
<title>NASALib/power&#45;&gt;NASALib/reals</title>
<path fill="none" stroke="black" d="M302.84,-415.23C305.17,-462.74 311.69,-595.97 314.59,-655.1"/>
<polygon fill="black" stroke="black" points="311.09,-655.21 315.07,-665.03 318.08,-654.87 311.09,-655.21"/>
</g>
<!-- NASALib/reals&#45;&gt;NASALib/ints -->
<g id="edge55" class="edge">
<title>NASALib/reals&#45;&gt;NASALib/ints</title>
<path fill="none" stroke="black" d="M242,-252C242,-252 316,-199 316,-199 316,-199 334,-182 334,-182"/>
<path fill="none" stroke="black" d="M288.89,-668.38C261.76,-652.75 224,-631 224,-631 224,-631 217,-559 217,-559 217,-559 211,-487 211,-487 211,-487 206,-343 206,-343 206,-343 206,-307 206,-307 206,-307 242,-254 242,-254"/>
<path fill="none" stroke="black" d="M334,-180C334,-180 334,-110 334,-110"/>
</g>
<!-- NASALib/reals&#45;&gt;NASALib/lebesgue -->
<g id="edge56" class="edge">
<title>NASALib/reals&#45;&gt;NASALib/lebesgue</title>
<path fill="none" stroke="black" d="M354.75,-676.42C429.66,-661.77 587,-631 587,-631 587,-631 588.14,-630.58 590.05,-629.87"/>
<polygon fill="black" stroke="black" points="354.1,-672.98 344.96,-678.34 355.45,-679.85 354.1,-672.98"/>
<polygon fill="black" stroke="black" points="590.97,-633.27 599.13,-626.52 588.54,-626.7 590.97,-633.27"/>
</g>
<!-- NASALib/reals&#45;&gt;NASALib/metric_space -->
<g id="edge57" class="edge">
<title>NASALib/reals&#45;&gt;NASALib/metric_space</title>
<path fill="none" stroke="black" d="M324.42,-655.86C336.69,-614.82 359.36,-539.02 371.61,-498.05"/>
<polygon fill="black" stroke="black" points="321.07,-654.82 321.56,-665.4 327.78,-656.82 321.07,-654.82"/>
<polygon fill="black" stroke="black" points="374.9,-499.27 374.41,-488.68 368.19,-497.26 374.9,-499.27"/>
</g>
<!-- NASALib/reals&#45;&gt;NASALib/sets_aux -->
<g id="edge58" class="edge">
<title>NASALib/reals&#45;&gt;NASALib/sets_aux</title>
<path fill="none" stroke="black" d="M343.07,-669.66C405.06,-636.83 552,-559 552,-559 552,-559 552,-523 552,-523 552,-523 528.86,-409.03 517.78,-354.47"/>
<polygon fill="black" stroke="black" points="521.27,-354.07 515.85,-344.97 514.41,-355.46 521.27,-354.07"/>
</g>
<!-- NASALib/reals&#45;&gt;NASALib/structures -->
<g id="edge59" class="edge">
<title>NASALib/reals&#45;&gt;NASALib/structures</title>
<path fill="none" stroke="black" d="M306.19,-666.59C284.83,-628.67 236,-542 236,-542 236,-542 236,-542 236,-468 236,-468 262,-379 262,-379 262,-379 278,-343 278,-343 278,-343 298,-235 298,-235 298,-235 384,-182 384,-182"/>
<path fill="none" stroke="black" d="M384,-180C384,-180 401.2,-156.39 415.62,-136.6"/>
<polygon fill="black" stroke="black" points="418.44,-138.67 421.5,-128.53 412.78,-134.55 418.44,-138.67"/>
</g>
<!-- NASALib/series&#45;&gt;NASALib/analysis -->
<g id="edge60" class="edge">
<title>NASALib/series&#45;&gt;NASALib/analysis</title>
<path fill="none" stroke="black" d="M306.54,-265.37C268.93,-280.94 206,-307 206,-307 206,-307 151.2,-545.76 138.57,-600.78"/>
<polygon fill="black" stroke="black" points="135.16,-600 136.34,-610.52 141.99,-601.56 135.16,-600"/>
</g>
<!-- NASALib/series&#45;&gt;NASALib/ints -->
<g id="edge61" class="edge">
<title>NASALib/series&#45;&gt;NASALib/ints</title>
<path fill="none" stroke="black" d="M334,-234.7C334,-213.97 334,-182 334,-182"/>
</g>
<!-- NASALib/series&#45;&gt;NASALib/orders -->
<g id="edge62" class="edge">
<title>NASALib/series&#45;&gt;NASALib/orders</title>
<path fill="none" stroke="black" d="M361.31,-239C384.51,-227.95 418.05,-211.98 443.72,-199.75"/>
<polygon fill="black" stroke="black" points="444.95,-203.04 452.47,-195.58 441.94,-196.72 444.95,-203.04"/>
</g>
<!-- NASALib/series&#45;&gt;NASALib/reals -->
<g id="edge63" class="edge">
<title>NASALib/series&#45;&gt;NASALib/reals</title>
<path fill="none" stroke="black" d="M326.09,-271.16C314.18,-297.02 293,-343 293,-343 293,-343 266,-379 266,-379 266,-379 266,-415 266,-415 266,-415 297.82,-586.22 310.69,-655.45"/>
<polygon fill="black" stroke="black" points="307.25,-656.08 312.52,-665.28 314.13,-654.8 307.25,-656.08"/>
</g>
<!-- NASALib/sets_aux&#45;&gt;NASALib/ints -->
<g id="edge64" class="edge">
<title>NASALib/sets_aux&#45;&gt;NASALib/ints</title>
<path fill="none" stroke="black" d="M497.73,-306.85C455.5,-256.07 334,-110 334,-110"/>
</g>
<!-- NASALib/sets_aux&#45;&gt;NASALib/orders -->
<g id="edge65" class="edge">
<title>NASALib/sets_aux&#45;&gt;NASALib/orders</title>
<path fill="none" stroke="black" d="M481,-252C481,-252 481,-230.08 481,-210.77"/>
<polygon fill="black" stroke="black" points="484.5,-210.82 481,-200.82 477.5,-210.82 484.5,-210.82"/>
</g>
<!-- NASALib/sets_aux&#45;&gt;NASALib/structures -->
<g id="edge66" class="edge">
<title>NASALib/sets_aux&#45;&gt;NASALib/structures</title>
<path fill="none" stroke="black" d="M504.34,-306.7C495.16,-285.97 481,-254 481,-254"/>
<path fill="none" stroke="black" d="M481,-252C481,-252 445,-199 445,-199 445,-199 435,-182 435,-182"/>
</g>
<!-- NASALib/sets_aux&#45;&gt;lib/finite_sets -->
<g id="edge67" class="edge">
<title>NASALib/sets_aux&#45;&gt;lib/finite_sets</title>
<path fill="none" stroke="black" d="M805,-252C805,-252 805,-110 805,-110"/>
<path fill="none" stroke="black" d="M543.91,-316.38C619.85,-298.23 805,-254 805,-254"/>
</g>
<!-- NASALib/sigma_set&#45;&gt;NASALib/analysis -->
<g id="edge68" class="edge">
<title>NASALib/sigma_set&#45;&gt;NASALib/analysis</title>
<path fill="none" stroke="black" d="M622.76,-414.62C656.19,-430.17 701,-451 701,-451 701,-451 711.53,-564.03 714.95,-600.68"/>
<polygon fill="black" stroke="black" points="711.45,-600.86 715.86,-610.49 718.42,-600.21 711.45,-600.86"/>
</g>
<!-- NASALib/sigma_set&#45;&gt;NASALib/orders -->
<g id="edge69" class="edge">
<title>NASALib/sigma_set&#45;&gt;NASALib/orders</title>
<path fill="none" stroke="black" d="M736,-324C736,-324 588.9,-242.08 518.15,-202.69"/>
<polygon fill="black" stroke="black" points="520.05,-199.74 509.61,-197.93 516.65,-205.86 520.05,-199.74"/>
<path fill="none" stroke="black" d="M622.69,-379.23C666.77,-358.52 736,-326 736,-326"/>
</g>
<!-- NASALib/sigma_set&#45;&gt;NASALib/reals -->
<g id="edge70" class="edge">
<title>NASALib/sigma_set&#45;&gt;NASALib/reals</title>
<path fill="none" stroke="black" d="M578.81,-415.35C571.52,-430.81 562,-451 562,-451 562,-451 562,-487 562,-487 562,-487 575.33,-570.31 580.23,-600.91"/>
<polygon fill="black" stroke="black" points="576.72,-601.18 581.76,-610.51 583.64,-600.08 576.72,-601.18"/>
<path fill="none" stroke="black" d="M582,-614C582,-614 567,-631 567,-631 567,-631 408.39,-664.49 343.34,-678.23"/>
</g>
<!-- NASALib/sigma_set&#45;&gt;NASALib/series -->
<g id="edge71" class="edge">
<title>NASALib/sigma_set&#45;&gt;NASALib/series</title>
<path fill="none" stroke="black" d="M551.33,-384.6C489.27,-364.76 368,-326 368,-326"/>
</g>
<!-- NASALib/sigma_set&#45;&gt;NASALib/sets_aux -->
<g id="edge72" class="edge">
<title>NASALib/sigma_set&#45;&gt;NASALib/sets_aux</title>
<path fill="none" stroke="black" d="M568.46,-378.7C559.54,-370.37 548.67,-360.22 538.86,-351.07"/>
<polygon fill="black" stroke="black" points="541.39,-348.64 531.69,-344.38 536.61,-353.76 541.39,-348.64"/>
</g>
<!-- NASALib/structures&#45;&gt;NASALib/ints -->
<g id="edge73" class="edge">
<title>NASALib/structures&#45;&gt;NASALib/ints</title>
<path fill="none" stroke="black" d="M422.91,-90.7C416.86,-82.04 409.4,-71.35 402.63,-61.67"/>
<polygon fill="black" stroke="black" points="405.64,-59.86 397.04,-53.67 399.9,-63.87 405.64,-59.86"/>
</g>
<!-- NASALib/structures&#45;&gt;lib/finite_sets -->
<g id="edge74" class="edge">
<title>NASALib/structures&#45;&gt;lib/finite_sets</title>
<path fill="none" stroke="black" d="M469.91,-105.53C559.22,-99.23 789,-83 789,-83 789,-83 800.17,-71.83 811.73,-60.27"/>
<polygon fill="black" stroke="black" points="814,-62.95 818.6,-53.4 809.05,-58 814,-62.95"/>
</g>
<!-- NASALib/topology&#45;&gt;NASALib/reals -->
<g id="edge75" class="edge">
<title>NASALib/topology&#45;&gt;NASALib/reals</title>
<path fill="none" stroke="black" d="M376,-614C376,-614 348.6,-645.97 330.83,-666.7"/>
<path fill="none" stroke="black" d="M424.58,-415.35C428.67,-430.81 434,-451 434,-451 434,-451 434,-487 434,-487 434,-487 406,-523 406,-523 406,-523 387.51,-577.87 379.56,-601.44"/>
<polygon fill="black" stroke="black" points="376.36,-599.97 376.48,-610.57 382.99,-602.21 376.36,-599.97"/>
</g>
<!-- NASALib/topology&#45;&gt;NASALib/sets_aux -->
<g id="edge76" class="edge">
<title>NASALib/topology&#45;&gt;NASALib/sets_aux</title>
<path fill="none" stroke="black" d="M442.74,-378.7C454.02,-370.11 467.83,-359.61 480.14,-350.24"/>
<polygon fill="black" stroke="black" points="482.16,-353.1 488,-344.26 477.92,-347.53 482.16,-353.1"/>
</g>
<!-- NASALib/topology&#45;&gt;NASALib/structures -->
<g id="edge77" class="edge">
<title>NASALib/topology&#45;&gt;NASALib/structures</title>
<path fill="none" stroke="black" d="M417.11,-378.85C408.57,-328.07 384,-182 384,-182"/>
</g>
<!-- NASALib/trig&#45;&gt;NASALib/analysis -->
<g id="edge78" class="edge">
<title>NASALib/trig&#45;&gt;NASALib/analysis</title>
<path fill="none" stroke="black" d="M256,-686C256,-686 283.4,-717.97 301.17,-738.7"/>
<path fill="none" stroke="black" d="M156,-470C156,-470 131,-523 131,-523 131,-523 131,-559 131,-559 131,-559 136,-612 136,-612"/>
<path fill="none" stroke="black" d="M136,-614C136,-614 151,-631 151,-631 151,-631 256,-684 256,-684"/>
<path fill="none" stroke="black" d="M133.19,-343.41C138.61,-373.04 149.48,-432.41 153.98,-456.98"/>
<polygon fill="black" stroke="black" points="150.48,-457.31 155.73,-466.51 157.37,-456.04 150.48,-457.31"/>
</g>
<!-- NASALib/trig&#45;&gt;NASALib/ints -->
<g id="edge79" class="edge">
<title>NASALib/trig&#45;&gt;NASALib/ints</title>
<path fill="none" stroke="black" d="M130,-306.7C130,-285.97 130,-254 130,-254"/>
</g>
<!-- NASALib/trig&#45;&gt;NASALib/reals -->
<g id="edge80" class="edge">
<title>NASALib/trig&#45;&gt;NASALib/reals</title>
<path fill="none" stroke="black" d="M156,-470C156,-470 156,-612 156,-612"/>
</g>
<!-- NASALib/trig&#45;&gt;NASALib/series -->
<g id="edge81" class="edge">
<title>NASALib/trig&#45;&gt;NASALib/series</title>
<path fill="none" stroke="black" d="M157.09,-314.7C192.75,-302.47 255.65,-280.88 296.04,-267.02"/>
<polygon fill="black" stroke="black" points="297.04,-270.38 305.37,-263.83 294.77,-263.76 297.04,-270.38"/>
</g>
<!-- NASALib/vect_analysis&#45;&gt;NASALib/analysis -->
<g id="edge82" class="edge">
<title>NASALib/vect_analysis&#45;&gt;NASALib/analysis</title>
<path fill="none" stroke="black" d="M242.48,-810.52C254.61,-801.85 269.45,-791.25 282.61,-781.85"/>
<polygon fill="black" stroke="black" points="284.5,-784.8 290.6,-776.14 280.43,-779.1 284.5,-784.8"/>
</g>
<!-- NASALib/vect_analysis&#45;&gt;NASALib/reals -->
<g id="edge83" class="edge">
<title>NASALib/vect_analysis&#45;&gt;NASALib/reals</title>
<path fill="none" stroke="black" d="M76,-756C76,-756 261,-703 261,-703 261,-703 268.26,-700.76 277.5,-697.9"/>
<polygon fill="black" stroke="black" points="278.53,-701.24 287.05,-694.95 276.47,-694.56 278.53,-701.24"/>
</g>
<!-- NASALib/vect_analysis&#45;&gt;NASALib/vectors -->
<g id="edge84" class="edge">
<title>NASALib/vect_analysis&#45;&gt;NASALib/vectors</title>
<path fill="none" stroke="black" d="M182.53,-810.52C140.47,-789.78 76,-758 76,-758"/>
<path fill="none" stroke="black" d="M76,-756C76,-756 89,-487 89,-487 89,-487 89,-451 89,-451 89,-451 87.88,-439.17 86.71,-426.68"/>
<polygon fill="black" stroke="black" points="90.2,-426.49 85.78,-416.86 83.23,-427.15 90.2,-426.49"/>
</g>
<!-- NASALib/vectors&#45;&gt;NASALib/reals -->
<g id="edge85" class="edge">
<title>NASALib/vectors&#45;&gt;NASALib/reals</title>
<path fill="none" stroke="black" d="M156,-614C156,-614 191,-631 191,-631 191,-631 251.77,-656.77 288.57,-672.37"/>
<path fill="none" stroke="black" d="M92.19,-415.35C99.48,-430.81 109,-451 109,-451 109,-451 142.31,-565.09 152.84,-601.19"/>
<polygon fill="black" stroke="black" points="149.41,-601.93 155.58,-610.55 156.13,-599.97 149.41,-601.93"/>
</g>
<!-- NASALib/vectors&#45;&gt;NASALib/structures -->
<g id="edge86" class="edge">
<title>NASALib/vectors&#45;&gt;NASALib/structures</title>
<path fill="none" stroke="black" d="M85.93,-378.84C88.83,-352.98 94,-307 94,-307 94,-307 304.73,-185.26 394.87,-133.18"/>
<polygon fill="black" stroke="black" points="396.52,-136.27 403.43,-128.24 393.02,-130.21 396.52,-136.27"/>
</g>
<!-- NASALib/vectors&#45;&gt;NASALib/trig -->
<g id="edge87" class="edge">
<title>NASALib/vectors&#45;&gt;NASALib/trig</title>
<path fill="none" stroke="black" d="M95.37,-378.7C100.55,-370.81 106.8,-361.3 112.56,-352.55"/>
<polygon fill="black" stroke="black" points="115.36,-354.65 117.93,-344.37 109.51,-350.8 115.36,-354.65"/>
</g>
</g>
</svg>
