<?xml version="1.0" encoding="UTF-8" standalone="no"?>
<!DOCTYPE svg PUBLIC "-//W3C//DTD SVG 1.1//EN"
 "http://www.w3.org/Graphics/SVG/1.1/DTD/svg11.dtd">
<!-- Generated by graphviz version 8.0.4 (20230421.1958)
 -->
<!-- Title: vect_analysis&#45;zoomed Pages: 1 -->
<svg width="2661pt" height="393pt"
 viewBox="0.00 0.00 2661.00 393.00" xmlns="http://www.w3.org/2000/svg" xmlns:xlink="http://www.w3.org/1999/xlink">
<g id="graph0" class="graph" transform="scale(1 1) rotate(0) translate(4 389)">
<title>vect_analysis&#45;zoomed</title>
<polygon fill="white" stroke="none" points="-4,4 -4,-389 2657,-389 2657,4 -4,4"/>
<g id="clust1" class="cluster">
<title>cluster_NASALib</title>
<polygon fill="none" stroke="black" points="2359,-8 2359,-84.5 2580,-84.5 2580,-8 2359,-8"/>
<text text-anchor="middle" x="2469.5" y="-67.2" font-family="Times,serif" font-size="14.00">NASALib</text>
</g>
<g id="clust2" class="cluster">
<title>cluster_NASALib/vect_analysis</title>
<polygon fill="none" stroke="black" points="8,-8 8,-377 2351,-377 2351,-8 8,-8"/>
<text text-anchor="middle" x="1179.5" y="-359.7" font-family="Times,serif" font-size="14.00">NASALib/vect_analysis</text>
</g>
<!-- NASALib/analysis -->
<g id="node1" class="node">
<title>NASALib/analysis</title>
<polygon fill="#fcfcd7" stroke="black" points="2498.75,-52 2439.25,-52 2439.25,-16 2498.75,-16 2498.75,-52"/>
<text text-anchor="middle" x="2469" y="-28.95" font-family="Times,serif" font-size="14.00">analysis</text>
</g>
<!-- NASALib/reals -->
<g id="node2" class="node">
<title>NASALib/reals</title>
<polygon fill="#fcfcd7" stroke="black" points="2421,-52 2367,-52 2367,-16 2421,-16 2421,-52"/>
<text text-anchor="middle" x="2394" y="-28.95" font-family="Times,serif" font-size="14.00">reals</text>
</g>
<!-- NASALib/vect_analysis@cont_real_vect2 -->
<g id="node3" class="node">
<title>NASALib/vect_analysis@cont_real_vect2</title>
<ellipse fill="#e6f3ff" stroke="black" cx="423" cy="-182.5" rx="69.78" ry="18"/>
<text text-anchor="middle" x="423" y="-177.45" font-family="Times,serif" font-size="14.00">cont_real_vect2</text>
</g>
<!-- NASALib/vect_analysis@cont_real_vect2&#45;&gt;NASALib/analysis -->
<g id="edge1" class="edge">
<title>NASALib/vect_analysis@cont_real_vect2&#45;&gt;NASALib/analysis</title>
<path fill="none" stroke="black" d="M2069,-109.5C2069,-109.5 2083,-92.5 2083,-92.5 2083,-92.5 2430,-84.5 2430,-84.5 2430,-84.5 2439.14,-72.9 2448.57,-60.93"/>
<polygon fill="black" stroke="black" points="2451.92,-63.33 2455.36,-53.31 2446.42,-59 2451.92,-63.33"/>
</g>
<!-- NASALib/vect_analysis@cont_real_vect2&#45;&gt;NASALib/reals -->
<g id="edge2" class="edge">
<title>NASALib/vect_analysis@cont_real_vect2&#45;&gt;NASALib/reals</title>
<path fill="none" stroke="black" d="M487.54,-175.27C537.77,-170.41 599,-164.5 599,-164.5 599,-164.5 2069,-111.5 2069,-111.5"/>
<path fill="none" stroke="black" d="M2069,-109.5C2069,-109.5 2083,-92.5 2083,-92.5 2083,-92.5 2355,-84.5 2355,-84.5 2355,-84.5 2364.14,-72.9 2373.57,-60.93"/>
<polygon fill="black" stroke="black" points="2376.92,-63.33 2380.36,-53.31 2371.42,-59 2376.92,-63.33"/>
</g>
<!-- NASALib/vect_analysis@limit_real_vect2 -->
<g id="node15" class="node">
<title>NASALib/vect_analysis@limit_real_vect2</title>
<ellipse fill="#e6f3ff" stroke="black" cx="504" cy="-110.5" rx="71.82" ry="18"/>
<text text-anchor="middle" x="504" y="-105.45" font-family="Times,serif" font-size="14.00">limit_real_vect2</text>
</g>
<!-- NASALib/vect_analysis@cont_real_vect2&#45;&gt;NASALib/vect_analysis@limit_real_vect2 -->
<g id="edge3" class="edge">
<title>NASALib/vect_analysis@cont_real_vect2&#45;&gt;NASALib/vect_analysis@limit_real_vect2</title>
<path fill="none" stroke="black" d="M442.2,-164.91C452.41,-156.08 465.15,-145.07 476.41,-135.34"/>
<polygon fill="black" stroke="black" points="478.38,-137.4 483.66,-128.21 473.81,-132.1 478.38,-137.4"/>
</g>
<!-- NASALib/vect_analysis@cont_vect -->
<g id="node4" class="node">
<title>NASALib/vect_analysis@cont_vect</title>
<ellipse fill="#e6f3ff" stroke="black" cx="1052" cy="-254.5" rx="46.75" ry="18"/>
<text text-anchor="middle" x="1052" y="-249.45" font-family="Times,serif" font-size="14.00">cont_vect</text>
</g>
<!-- NASALib/vect_analysis@limit_vect -->
<g id="node16" class="node">
<title>NASALib/vect_analysis@limit_vect</title>
<ellipse fill="#e6f3ff" stroke="black" cx="1054" cy="-182.5" rx="48.79" ry="18"/>
<text text-anchor="middle" x="1054" y="-177.45" font-family="Times,serif" font-size="14.00">limit_vect</text>
</g>
<!-- NASALib/vect_analysis@cont_vect&#45;&gt;NASALib/vect_analysis@limit_vect -->
<g id="edge7" class="edge">
<title>NASALib/vect_analysis@cont_vect&#45;&gt;NASALib/vect_analysis@limit_vect</title>
<path fill="none" stroke="black" d="M1052.49,-236.2C1052.71,-228.74 1052.96,-219.82 1053.2,-211.47"/>
<polygon fill="black" stroke="black" points="1056.72,-211.7 1053.51,-201.6 1049.73,-211.5 1056.72,-211.7"/>
</g>
<!-- NASALib/vectors -->
<g id="node36" class="node">
<title>NASALib/vectors</title>
<polygon fill="#fcfcd7" stroke="black" points="2571.5,-52 2516.5,-52 2516.5,-16 2571.5,-16 2571.5,-52"/>
<text text-anchor="middle" x="2544" y="-28.95" font-family="Times,serif" font-size="14.00">vectors</text>
</g>
<!-- NASALib/vect_analysis@cont_vect&#45;&gt;NASALib/vectors -->
<g id="edge8" class="edge">
<title>NASALib/vect_analysis@cont_vect&#45;&gt;NASALib/vectors</title>
<path fill="none" stroke="black" d="M1087.78,-242.64C1098.76,-239.31 1108,-236.5 1108,-236.5 1108,-236.5 2273,-200.5 2273,-200.5 2273,-200.5 2321,-92.5 2321,-92.5 2321,-92.5 2508,-84.5 2508,-84.5 2508,-84.5 2516.44,-72.9 2525.14,-60.93"/>
<polygon fill="black" stroke="black" points="2528.36,-63.46 2531.41,-53.31 2522.7,-59.34 2528.36,-63.46"/>
</g>
<!-- NASALib/vect_analysis@cont_vect2_real -->
<g id="node5" class="node">
<title>NASALib/vect_analysis@cont_vect2_real</title>
<ellipse fill="#e6f3ff" stroke="black" cx="260" cy="-182.5" rx="69.78" ry="18"/>
<text text-anchor="middle" x="260" y="-177.45" font-family="Times,serif" font-size="14.00">cont_vect2_real</text>
</g>
<!-- NASALib/vect_analysis@limit_vect2_real -->
<g id="node17" class="node">
<title>NASALib/vect_analysis@limit_vect2_real</title>
<ellipse fill="#e6f3ff" stroke="black" cx="262" cy="-110.5" rx="71.82" ry="18"/>
<text text-anchor="middle" x="262" y="-105.45" font-family="Times,serif" font-size="14.00">limit_vect2_real</text>
</g>
<!-- NASALib/vect_analysis@cont_vect2_real&#45;&gt;NASALib/vect_analysis@limit_vect2_real -->
<g id="edge4" class="edge">
<title>NASALib/vect_analysis@cont_vect2_real&#45;&gt;NASALib/vect_analysis@limit_vect2_real</title>
<path fill="none" stroke="black" d="M260.49,-164.2C260.71,-156.74 260.96,-147.82 261.2,-139.47"/>
<polygon fill="black" stroke="black" points="264.72,-139.7 261.51,-129.6 257.73,-139.5 264.72,-139.7"/>
</g>
<!-- NASALib/vect_analysis@cont_vect2_vect2 -->
<g id="node6" class="node">
<title>NASALib/vect_analysis@cont_vect2_vect2</title>
<ellipse fill="#e6f3ff" stroke="black" cx="94" cy="-182.5" rx="75.92" ry="18"/>
<text text-anchor="middle" x="94" y="-177.45" font-family="Times,serif" font-size="14.00">cont_vect2_vect2</text>
</g>
<!-- NASALib/vect_analysis@limit_vect2_vect2 -->
<g id="node18" class="node">
<title>NASALib/vect_analysis@limit_vect2_vect2</title>
<ellipse fill="#e6f3ff" stroke="black" cx="94" cy="-110.5" rx="77.97" ry="18"/>
<text text-anchor="middle" x="94" y="-105.45" font-family="Times,serif" font-size="14.00">limit_vect2_vect2</text>
</g>
<!-- NASALib/vect_analysis@cont_vect2_vect2&#45;&gt;NASALib/vect_analysis@limit_vect2_vect2 -->
<g id="edge5" class="edge">
<title>NASALib/vect_analysis@cont_vect2_vect2&#45;&gt;NASALib/vect_analysis@limit_vect2_vect2</title>
<path fill="none" stroke="black" d="M94,-164.2C94,-156.74 94,-147.82 94,-139.47"/>
<polygon fill="black" stroke="black" points="97.5,-139.6 94,-129.6 90.5,-139.6 97.5,-139.6"/>
</g>
<!-- NASALib/vect_analysis@cont_vect3_real -->
<g id="node7" class="node">
<title>NASALib/vect_analysis@cont_vect3_real</title>
<ellipse fill="#e6f3ff" stroke="black" cx="1195" cy="-326.5" rx="69.78" ry="18"/>
<text text-anchor="middle" x="1195" y="-321.45" font-family="Times,serif" font-size="14.00">cont_vect3_real</text>
</g>
<!-- NASALib/vect_analysis@limit_vect3_real -->
<g id="node19" class="node">
<title>NASALib/vect_analysis@limit_vect3_real</title>
<ellipse fill="#e6f3ff" stroke="black" cx="1189" cy="-254.5" rx="71.82" ry="18"/>
<text text-anchor="middle" x="1189" y="-249.45" font-family="Times,serif" font-size="14.00">limit_vect3_real</text>
</g>
<!-- NASALib/vect_analysis@cont_vect3_real&#45;&gt;NASALib/vect_analysis@limit_vect3_real -->
<g id="edge6" class="edge">
<title>NASALib/vect_analysis@cont_vect3_real&#45;&gt;NASALib/vect_analysis@limit_vect3_real</title>
<path fill="none" stroke="black" d="M1193.52,-308.2C1192.88,-300.74 1192.11,-291.82 1191.4,-283.47"/>
<polygon fill="black" stroke="black" points="1194.81,-283.27 1190.47,-273.6 1187.83,-283.87 1194.81,-283.27"/>
</g>
<!-- NASALib/vect_analysis@deriv_cont_2D -->
<g id="node8" class="node">
<title>NASALib/vect_analysis@deriv_cont_2D</title>
<ellipse fill="#e6f3ff" stroke="black" cx="589" cy="-254.5" rx="66.19" ry="18"/>
<text text-anchor="middle" x="589" y="-249.45" font-family="Times,serif" font-size="14.00">deriv_cont_2D</text>
</g>
<!-- NASALib/vect_analysis@deriv_cont_2D&#45;&gt;NASALib/analysis -->
<g id="edge9" class="edge">
<title>NASALib/vect_analysis@deriv_cont_2D&#45;&gt;NASALib/analysis</title>
<path fill="none" stroke="black" d="M638.61,-242.26C652.56,-239.09 664,-236.5 664,-236.5 664,-236.5 1112,-200.5 1112,-200.5 1112,-200.5 1131,-183.5 1131,-183.5"/>
</g>
<!-- NASALib/vect_analysis@deriv_cont_2D&#45;&gt;NASALib/vect_analysis@cont_real_vect2 -->
<g id="edge10" class="edge">
<title>NASALib/vect_analysis@deriv_cont_2D&#45;&gt;NASALib/vect_analysis@cont_real_vect2</title>
<path fill="none" stroke="black" d="M554.2,-238.83C529.25,-228.3 495.4,-214.03 468.33,-202.62"/>
<polygon fill="black" stroke="black" points="469.9,-199.06 459.32,-198.4 467.18,-205.51 469.9,-199.06"/>
</g>
<!-- NASALib/vect_analysis@deriv_real_vect2 -->
<g id="node11" class="node">
<title>NASALib/vect_analysis@deriv_real_vect2</title>
<ellipse fill="#e6f3ff" stroke="black" cx="667" cy="-110.5" rx="72.85" ry="18"/>
<text text-anchor="middle" x="667" y="-105.45" font-family="Times,serif" font-size="14.00">deriv_real_vect2</text>
</g>
<!-- NASALib/vect_analysis@deriv_cont_2D&#45;&gt;NASALib/vect_analysis@deriv_real_vect2 -->
<g id="edge11" class="edge">
<title>NASALib/vect_analysis@deriv_cont_2D&#45;&gt;NASALib/vect_analysis@deriv_real_vect2</title>
<path fill="none" stroke="black" d="M590.93,-236.34C593.83,-210.48 599,-164.5 599,-164.5 599,-164.5 619.23,-148.74 637.62,-134.4"/>
<polygon fill="black" stroke="black" points="639.12,-136.89 644.86,-127.98 634.82,-131.37 639.12,-136.89"/>
</g>
<!-- NASALib/vect_analysis@deriv_dot_prod -->
<g id="node9" class="node">
<title>NASALib/vect_analysis@deriv_dot_prod</title>
<ellipse fill="#e6f3ff" stroke="black" cx="899" cy="-254.5" rx="67.73" ry="18"/>
<text text-anchor="middle" x="899" y="-249.45" font-family="Times,serif" font-size="14.00">deriv_dot_prod</text>
</g>
<!-- NASALib/vect_analysis@deriv_dot_prod&#45;&gt;NASALib/analysis -->
<g id="edge12" class="edge">
<title>NASALib/vect_analysis@deriv_dot_prod&#45;&gt;NASALib/analysis</title>
<path fill="none" stroke="black" d="M2259,-109.5C2259,-109.5 2301,-92.5 2301,-92.5 2301,-92.5 2430,-84.5 2430,-84.5 2430,-84.5 2439.14,-72.9 2448.57,-60.93"/>
<polygon fill="black" stroke="black" points="2451.92,-63.33 2455.36,-53.31 2446.42,-59 2451.92,-63.33"/>
</g>
<!-- NASALib/vect_analysis@deriv_real_vect_def -->
<g id="node12" class="node">
<title>NASALib/vect_analysis@deriv_real_vect_def</title>
<ellipse fill="#e6f3ff" stroke="black" cx="910" cy="-110.5" rx="84.62" ry="18"/>
<text text-anchor="middle" x="910" y="-105.45" font-family="Times,serif" font-size="14.00">deriv_real_vect_def</text>
</g>
<!-- NASALib/vect_analysis@deriv_dot_prod&#45;&gt;NASALib/vect_analysis@deriv_real_vect_def -->
<g id="edge13" class="edge">
<title>NASALib/vect_analysis@deriv_dot_prod&#45;&gt;NASALib/vect_analysis@deriv_real_vect_def</title>
<path fill="none" stroke="black" d="M881.6,-236.73C865.48,-221.2 844,-200.5 844,-200.5 844,-200.5 844,-164.5 844,-164.5 844,-164.5 863.04,-149.21 880.67,-135.06"/>
<polygon fill="black" stroke="black" points="882.51,-137.26 888.12,-128.27 878.13,-131.8 882.51,-137.26"/>
</g>
<!-- NASALib/vect_analysis@deriv_sigma -->
<g id="node13" class="node">
<title>NASALib/vect_analysis@deriv_sigma</title>
<ellipse fill="#e6f3ff" stroke="black" cx="910" cy="-182.5" rx="56.98" ry="18"/>
<text text-anchor="middle" x="910" y="-177.45" font-family="Times,serif" font-size="14.00">deriv_sigma</text>
</g>
<!-- NASALib/vect_analysis@deriv_dot_prod&#45;&gt;NASALib/vect_analysis@deriv_sigma -->
<g id="edge14" class="edge">
<title>NASALib/vect_analysis@deriv_dot_prod&#45;&gt;NASALib/vect_analysis@deriv_sigma</title>
<path fill="none" stroke="black" d="M901.72,-236.2C902.89,-228.74 904.29,-219.82 905.61,-211.47"/>
<polygon fill="black" stroke="black" points="909.22,-212.03 907.31,-201.6 902.3,-210.94 909.22,-212.03"/>
</g>
<!-- NASALib/vect_analysis@deriv_dot_prod&#45;&gt;NASALib/vectors -->
<g id="edge15" class="edge">
<title>NASALib/vect_analysis@deriv_dot_prod&#45;&gt;NASALib/vectors</title>
<path fill="none" stroke="black" d="M2259,-109.5C2259,-109.5 2301,-92.5 2301,-92.5 2301,-92.5 2508,-84.5 2508,-84.5 2508,-84.5 2516.44,-72.9 2525.14,-60.93"/>
<polygon fill="black" stroke="black" points="2528.36,-63.46 2531.41,-53.31 2522.7,-59.34 2528.36,-63.46"/>
<path fill="none" stroke="black" d="M954.3,-243.81C976.08,-239.99 996,-236.5 996,-236.5 996,-236.5 2235,-128.5 2235,-128.5 2235,-128.5 2259,-111.5 2259,-111.5"/>
</g>
<!-- NASALib/vect_analysis@deriv_real_vect -->
<g id="node10" class="node">
<title>NASALib/vect_analysis@deriv_real_vect</title>
<ellipse fill="#e6f3ff" stroke="black" cx="911" cy="-326.5" rx="68.24" ry="18"/>
<text text-anchor="middle" x="911" y="-321.45" font-family="Times,serif" font-size="14.00">deriv_real_vect</text>
</g>
<!-- NASALib/vect_analysis@deriv_real_vect&#45;&gt;NASALib/analysis -->
<g id="edge19" class="edge">
<title>NASALib/vect_analysis@deriv_real_vect&#45;&gt;NASALib/analysis</title>
<path fill="none" stroke="black" d="M961.93,-314.26C976.25,-311.09 988,-308.5 988,-308.5 988,-308.5 1644,-272.5 1644,-272.5 1644,-272.5 1746,-236.5 1746,-236.5 1746,-236.5 2405,-200.5 2405,-200.5 2405,-200.5 2440.15,-109.6 2458.35,-62.54"/>
<polygon fill="black" stroke="black" points="2461.93,-63.99 2462.27,-53.4 2455.4,-61.46 2461.93,-63.99"/>
</g>
<!-- NASALib/vect_analysis@deriv_real_vect&#45;&gt;NASALib/vect_analysis@deriv_dot_prod -->
<g id="edge20" class="edge">
<title>NASALib/vect_analysis@deriv_real_vect&#45;&gt;NASALib/vect_analysis@deriv_dot_prod</title>
<path fill="none" stroke="black" d="M908.03,-308.2C906.74,-300.65 905.19,-291.62 903.75,-283.18"/>
<polygon fill="black" stroke="black" points="907.07,-282.87 901.93,-273.6 900.17,-284.05 907.07,-282.87"/>
</g>
<!-- NASALib/vect_analysis@deriv_real_vect&#45;&gt;NASALib/vect_analysis@deriv_real_vect_def -->
<g id="edge21" class="edge">
<title>NASALib/vect_analysis@deriv_real_vect&#45;&gt;NASALib/vect_analysis@deriv_real_vect_def</title>
<path fill="none" stroke="black" d="M931.21,-309.02C950.29,-293.46 976,-272.5 976,-272.5 976,-272.5 976,-164.5 976,-164.5 976,-164.5 956.96,-149.21 939.33,-135.06"/>
<polygon fill="black" stroke="black" points="941.87,-131.8 931.88,-128.27 937.49,-137.26 941.87,-131.8"/>
</g>
<!-- NASALib/vect_analysis@deriv_real_vect2&#45;&gt;NASALib/analysis -->
<g id="edge16" class="edge">
<title>NASALib/vect_analysis@deriv_real_vect2&#45;&gt;NASALib/analysis</title>
<path fill="none" stroke="black" d="M731.92,-102.09C772.07,-97.51 816,-92.5 816,-92.5 816,-92.5 2430,-84.5 2430,-84.5 2430,-84.5 2439.14,-72.9 2448.57,-60.93"/>
<polygon fill="black" stroke="black" points="2451.92,-63.33 2455.36,-53.31 2446.42,-59 2451.92,-63.33"/>
</g>
<!-- NASALib/vect_analysis@vect_fun_ops_rv -->
<g id="node33" class="node">
<title>NASALib/vect_analysis@vect_fun_ops_rv</title>
<ellipse fill="#e6f3ff" stroke="black" cx="667" cy="-34" rx="72.85" ry="18"/>
<text text-anchor="middle" x="667" y="-28.95" font-family="Times,serif" font-size="14.00">vect_fun_ops_rv</text>
</g>
<!-- NASALib/vect_analysis@deriv_real_vect2&#45;&gt;NASALib/vect_analysis@vect_fun_ops_rv -->
<g id="edge17" class="edge">
<title>NASALib/vect_analysis@deriv_real_vect2&#45;&gt;NASALib/vect_analysis@vect_fun_ops_rv</title>
<path fill="none" stroke="black" d="M667,-92.22C667,-83.63 667,-73.03 667,-63.3"/>
<polygon fill="black" stroke="black" points="670.5,-63.44 667,-53.44 663.5,-63.44 670.5,-63.44"/>
</g>
<!-- NASALib/vect_analysis@deriv_real_vect2&#45;&gt;NASALib/vectors -->
<g id="edge18" class="edge">
<title>NASALib/vect_analysis@deriv_real_vect2&#45;&gt;NASALib/vectors</title>
<path fill="none" stroke="black" d="M731.92,-102.09C772.07,-97.51 816,-92.5 816,-92.5 816,-92.5 2508,-84.5 2508,-84.5 2508,-84.5 2516.44,-72.9 2525.14,-60.93"/>
<polygon fill="black" stroke="black" points="2528.36,-63.46 2531.41,-53.31 2522.7,-59.34 2528.36,-63.46"/>
</g>
<!-- NASALib/vect_analysis@deriv_real_vect_def&#45;&gt;NASALib/analysis -->
<g id="edge22" class="edge">
<title>NASALib/vect_analysis@deriv_real_vect_def&#45;&gt;NASALib/analysis</title>
<path fill="none" stroke="black" d="M994.16,-108.12C1313.17,-102.87 2430,-84.5 2430,-84.5 2430,-84.5 2439.14,-72.9 2448.57,-60.93"/>
<polygon fill="black" stroke="black" points="2451.92,-63.33 2455.36,-53.31 2446.42,-59 2451.92,-63.33"/>
</g>
<!-- NASALib/vect_analysis@vect_fun_ops -->
<g id="node32" class="node">
<title>NASALib/vect_analysis@vect_fun_ops</title>
<ellipse fill="#e6f3ff" stroke="black" cx="910" cy="-34" rx="60.56" ry="18"/>
<text text-anchor="middle" x="910" y="-28.95" font-family="Times,serif" font-size="14.00">vect_fun_ops</text>
</g>
<!-- NASALib/vect_analysis@deriv_real_vect_def&#45;&gt;NASALib/vect_analysis@vect_fun_ops -->
<g id="edge23" class="edge">
<title>NASALib/vect_analysis@deriv_real_vect_def&#45;&gt;NASALib/vect_analysis@vect_fun_ops</title>
<path fill="none" stroke="black" d="M910,-92.22C910,-83.63 910,-73.03 910,-63.3"/>
<polygon fill="black" stroke="black" points="913.5,-63.44 910,-53.44 906.5,-63.44 913.5,-63.44"/>
</g>
<!-- NASALib/vect_analysis@deriv_real_vect_def&#45;&gt;NASALib/vectors -->
<g id="edge24" class="edge">
<title>NASALib/vect_analysis@deriv_real_vect_def&#45;&gt;NASALib/vectors</title>
<path fill="none" stroke="black" d="M994.23,-108.18C1323.81,-103.03 2508,-84.5 2508,-84.5 2508,-84.5 2516.44,-72.9 2525.14,-60.93"/>
<polygon fill="black" stroke="black" points="2528.36,-63.46 2531.41,-53.31 2522.7,-59.34 2528.36,-63.46"/>
</g>
<!-- NASALib/vect_analysis@deriv_sigma&#45;&gt;NASALib/analysis -->
<g id="edge25" class="edge">
<title>NASALib/vect_analysis@deriv_sigma&#45;&gt;NASALib/analysis</title>
<path fill="none" stroke="black" d="M2145,-109.5C2145,-109.5 2169,-92.5 2169,-92.5 2169,-92.5 2430,-84.5 2430,-84.5 2430,-84.5 2439.14,-72.9 2448.57,-60.93"/>
<polygon fill="black" stroke="black" points="2451.92,-63.33 2455.36,-53.31 2446.42,-59 2451.92,-63.33"/>
</g>
<!-- NASALib/vect_analysis@deriv_sigma&#45;&gt;NASALib/reals -->
<g id="edge26" class="edge">
<title>NASALib/vect_analysis@deriv_sigma&#45;&gt;NASALib/reals</title>
<path fill="none" stroke="black" d="M2145,-109.5C2145,-109.5 2169,-92.5 2169,-92.5 2169,-92.5 2355,-84.5 2355,-84.5 2355,-84.5 2364.14,-72.9 2373.57,-60.93"/>
<polygon fill="black" stroke="black" points="2376.92,-63.33 2380.36,-53.31 2371.42,-59 2376.92,-63.33"/>
<path fill="none" stroke="black" d="M957.53,-172.1C977.42,-168.17 996,-164.5 996,-164.5 996,-164.5 2121,-128.5 2121,-128.5 2121,-128.5 2145,-111.5 2145,-111.5"/>
</g>
<!-- NASALib/vect_analysis@deriv_sigma&#45;&gt;NASALib/vect_analysis@deriv_real_vect_def -->
<g id="edge27" class="edge">
<title>NASALib/vect_analysis@deriv_sigma&#45;&gt;NASALib/vect_analysis@deriv_real_vect_def</title>
<path fill="none" stroke="black" d="M910,-164.2C910,-156.74 910,-147.82 910,-139.47"/>
<polygon fill="black" stroke="black" points="913.5,-139.6 910,-129.6 906.5,-139.6 913.5,-139.6"/>
</g>
<!-- NASALib/vect_analysis@four_vects_2D_continuity -->
<g id="node14" class="node">
<title>NASALib/vect_analysis@four_vects_2D_continuity</title>
<ellipse fill="#e6f3ff" stroke="black" cx="1679" cy="-326.5" rx="107.65" ry="18"/>
<text text-anchor="middle" x="1679" y="-321.45" font-family="Times,serif" font-size="14.00">four_vects_2D_continuity</text>
</g>
<!-- NASALib/vect_analysis@four_vects_2D_continuity&#45;&gt;NASALib/vectors -->
<g id="edge28" class="edge">
<title>NASALib/vect_analysis@four_vects_2D_continuity&#45;&gt;NASALib/vectors</title>
<path fill="none" stroke="black" d="M1701.47,-308.55C1735.71,-282.73 1797,-236.5 1797,-236.5 1797,-236.5 2463,-200.5 2463,-200.5 2463,-200.5 2511,-92.5 2511,-92.5 2511,-92.5 2520.17,-76.51 2528.85,-61.4"/>
<polygon fill="black" stroke="black" points="2532.16,-63.67 2534.1,-53.25 2526.09,-60.18 2532.16,-63.67"/>
</g>
<!-- NASALib/vect_analysis@limit_real_vect2&#45;&gt;NASALib/reals -->
<g id="edge29" class="edge">
<title>NASALib/vect_analysis@limit_real_vect2&#45;&gt;NASALib/reals</title>
<path fill="none" stroke="black" d="M557.58,-98.26C572.64,-95.09 585,-92.5 585,-92.5 585,-92.5 2355,-84.5 2355,-84.5 2355,-84.5 2364.14,-72.9 2373.57,-60.93"/>
<polygon fill="black" stroke="black" points="2376.92,-63.33 2380.36,-53.31 2371.42,-59 2376.92,-63.33"/>
</g>
<!-- NASALib/vect_analysis@limit_real_vect2&#45;&gt;NASALib/vect_analysis@vect_fun_ops_rv -->
<g id="edge30" class="edge">
<title>NASALib/vect_analysis@limit_real_vect2&#45;&gt;NASALib/vect_analysis@vect_fun_ops_rv</title>
<path fill="none" stroke="black" d="M537.38,-94.24C562.24,-82.88 596.4,-67.27 623.42,-54.92"/>
<polygon fill="black" stroke="black" points="624.75,-57.7 632.39,-50.36 621.84,-51.34 624.75,-57.7"/>
</g>
<!-- NASALib/vect_analysis@limit_real_vect2&#45;&gt;NASALib/vectors -->
<g id="edge31" class="edge">
<title>NASALib/vect_analysis@limit_real_vect2&#45;&gt;NASALib/vectors</title>
<path fill="none" stroke="black" d="M557.58,-98.26C572.64,-95.09 585,-92.5 585,-92.5 585,-92.5 2508,-84.5 2508,-84.5 2508,-84.5 2516.44,-72.9 2525.14,-60.93"/>
<polygon fill="black" stroke="black" points="2528.36,-63.46 2531.41,-53.31 2522.7,-59.34 2528.36,-63.46"/>
</g>
<!-- NASALib/vect_analysis@limit_vect&#45;&gt;NASALib/analysis -->
<g id="edge41" class="edge">
<title>NASALib/vect_analysis@limit_vect&#45;&gt;NASALib/analysis</title>
<path fill="none" stroke="black" d="M2183,-109.5C2183,-109.5 2207,-92.5 2207,-92.5 2207,-92.5 2430,-84.5 2430,-84.5 2430,-84.5 2439.14,-72.9 2448.57,-60.93"/>
<polygon fill="black" stroke="black" points="2451.92,-63.33 2455.36,-53.31 2446.42,-59 2451.92,-63.33"/>
</g>
<!-- NASALib/vect_analysis@limit_vect&#45;&gt;NASALib/reals -->
<g id="edge42" class="edge">
<title>NASALib/vect_analysis@limit_vect&#45;&gt;NASALib/reals</title>
<path fill="none" stroke="black" d="M2183,-109.5C2183,-109.5 2207,-92.5 2207,-92.5 2207,-92.5 2355,-84.5 2355,-84.5 2355,-84.5 2364.14,-72.9 2373.57,-60.93"/>
<polygon fill="black" stroke="black" points="2376.92,-63.33 2380.36,-53.31 2371.42,-59 2376.92,-63.33"/>
<path fill="none" stroke="black" d="M1092.46,-171.12C1105.58,-167.58 1117,-164.5 1117,-164.5 1117,-164.5 2159,-128.5 2159,-128.5 2159,-128.5 2183,-111.5 2183,-111.5"/>
</g>
<!-- NASALib/vect_analysis@limit_vect&#45;&gt;NASALib/vectors -->
<g id="edge43" class="edge">
<title>NASALib/vect_analysis@limit_vect&#45;&gt;NASALib/vectors</title>
<path fill="none" stroke="black" d="M2183,-109.5C2183,-109.5 2245,-92.5 2245,-92.5 2245,-92.5 2508,-84.5 2508,-84.5 2508,-84.5 2516.44,-72.9 2525.14,-60.93"/>
<polygon fill="black" stroke="black" points="2528.36,-63.46 2531.41,-53.31 2522.7,-59.34 2528.36,-63.46"/>
</g>
<!-- NASALib/vect_analysis@limit_vect2_real&#45;&gt;NASALib/analysis -->
<g id="edge32" class="edge">
<title>NASALib/vect_analysis@limit_vect2_real&#45;&gt;NASALib/analysis</title>
<path fill="none" stroke="black" d="M327.02,-102.63C371.7,-97.92 423,-92.5 423,-92.5 423,-92.5 2430,-84.5 2430,-84.5 2430,-84.5 2439.14,-72.9 2448.57,-60.93"/>
<polygon fill="black" stroke="black" points="2451.92,-63.33 2455.36,-53.31 2446.42,-59 2451.92,-63.33"/>
</g>
<!-- NASALib/vect_analysis@limit_vect2_real&#45;&gt;NASALib/reals -->
<g id="edge33" class="edge">
<title>NASALib/vect_analysis@limit_vect2_real&#45;&gt;NASALib/reals</title>
<path fill="none" stroke="black" d="M327.02,-102.63C371.7,-97.92 423,-92.5 423,-92.5 423,-92.5 2355,-84.5 2355,-84.5 2355,-84.5 2364.14,-72.9 2373.57,-60.93"/>
<polygon fill="black" stroke="black" points="2376.92,-63.33 2380.36,-53.31 2371.42,-59 2376.92,-63.33"/>
</g>
<!-- NASALib/vect_analysis@limit_vect2_real&#45;&gt;NASALib/vectors -->
<g id="edge34" class="edge">
<title>NASALib/vect_analysis@limit_vect2_real&#45;&gt;NASALib/vectors</title>
<path fill="none" stroke="black" d="M327.02,-102.63C371.7,-97.92 423,-92.5 423,-92.5 423,-92.5 2508,-84.5 2508,-84.5 2508,-84.5 2516.44,-72.9 2525.14,-60.93"/>
<polygon fill="black" stroke="black" points="2528.36,-63.46 2531.41,-53.31 2522.7,-59.34 2528.36,-63.46"/>
</g>
<!-- NASALib/vect_analysis@limit_vect2_vect2&#45;&gt;NASALib/analysis -->
<g id="edge35" class="edge">
<title>NASALib/vect_analysis@limit_vect2_vect2&#45;&gt;NASALib/analysis</title>
<path fill="none" stroke="black" d="M152.03,-98.16C167.99,-95.04 181,-92.5 181,-92.5 181,-92.5 2430,-84.5 2430,-84.5 2430,-84.5 2439.14,-72.9 2448.57,-60.93"/>
<polygon fill="black" stroke="black" points="2451.92,-63.33 2455.36,-53.31 2446.42,-59 2451.92,-63.33"/>
</g>
<!-- NASALib/vect_analysis@limit_vect2_vect2&#45;&gt;NASALib/reals -->
<g id="edge36" class="edge">
<title>NASALib/vect_analysis@limit_vect2_vect2&#45;&gt;NASALib/reals</title>
<path fill="none" stroke="black" d="M152.03,-98.16C167.99,-95.04 181,-92.5 181,-92.5 181,-92.5 2355,-84.5 2355,-84.5 2355,-84.5 2364.14,-72.9 2373.57,-60.93"/>
<polygon fill="black" stroke="black" points="2376.92,-63.33 2380.36,-53.31 2371.42,-59 2376.92,-63.33"/>
</g>
<!-- NASALib/vect_analysis@limit_vect2_vect2&#45;&gt;NASALib/vectors -->
<g id="edge37" class="edge">
<title>NASALib/vect_analysis@limit_vect2_vect2&#45;&gt;NASALib/vectors</title>
<path fill="none" stroke="black" d="M152.03,-98.16C167.99,-95.04 181,-92.5 181,-92.5 181,-92.5 2508,-84.5 2508,-84.5 2508,-84.5 2516.44,-72.9 2525.14,-60.93"/>
<polygon fill="black" stroke="black" points="2528.36,-63.46 2531.41,-53.31 2522.7,-59.34 2528.36,-63.46"/>
</g>
<!-- NASALib/vect_analysis@limit_vect3_real&#45;&gt;NASALib/analysis -->
<g id="edge38" class="edge">
<title>NASALib/vect_analysis@limit_vect3_real&#45;&gt;NASALib/analysis</title>
<path fill="none" stroke="black" d="M2335,-109.5C2335,-109.5 2359,-92.5 2359,-92.5 2359,-92.5 2430,-84.5 2430,-84.5 2430,-84.5 2439.14,-72.9 2448.57,-60.93"/>
<polygon fill="black" stroke="black" points="2451.92,-63.33 2455.36,-53.31 2446.42,-59 2451.92,-63.33"/>
<path fill="none" stroke="black" d="M1242.36,-242.16C1257.04,-239.04 1269,-236.5 1269,-236.5 1269,-236.5 2311,-200.5 2311,-200.5 2311,-200.5 2335,-111.5 2335,-111.5"/>
</g>
<!-- NASALib/vect_analysis@limit_vect3_real&#45;&gt;NASALib/reals -->
<g id="edge39" class="edge">
<title>NASALib/vect_analysis@limit_vect3_real&#45;&gt;NASALib/reals</title>
<path fill="none" stroke="black" d="M2335,-109.5C2335,-109.5 2355,-84.5 2355,-84.5 2355,-84.5 2364.14,-72.9 2373.57,-60.93"/>
<polygon fill="black" stroke="black" points="2376.92,-63.33 2380.36,-53.31 2371.42,-59 2376.92,-63.33"/>
</g>
<!-- NASALib/vect_analysis@limit_vect3_real&#45;&gt;NASALib/vectors -->
<g id="edge40" class="edge">
<title>NASALib/vect_analysis@limit_vect3_real&#45;&gt;NASALib/vectors</title>
<path fill="none" stroke="black" d="M2335,-109.5C2335,-109.5 2359,-92.5 2359,-92.5 2359,-92.5 2508,-84.5 2508,-84.5 2508,-84.5 2516.44,-72.9 2525.14,-60.93"/>
<polygon fill="black" stroke="black" points="2528.36,-63.46 2531.41,-53.31 2522.7,-59.34 2528.36,-63.46"/>
</g>
<!-- NASALib/vect_analysis@limit_vect_real -->
<g id="node20" class="node">
<title>NASALib/vect_analysis@limit_vect_real</title>
<ellipse fill="#e6f3ff" stroke="black" cx="1872" cy="-326.5" rx="67.22" ry="18"/>
<text text-anchor="middle" x="1872" y="-321.45" font-family="Times,serif" font-size="14.00">limit_vect_real</text>
</g>
<!-- NASALib/vect_analysis@limit_vect_real&#45;&gt;NASALib/analysis -->
<g id="edge44" class="edge">
<title>NASALib/vect_analysis@limit_vect_real&#45;&gt;NASALib/analysis</title>
<path fill="none" stroke="black" d="M1849.92,-309.02C1829.08,-293.46 1801,-272.5 1801,-272.5 1801,-272.5 1801,-236.5 1801,-236.5 1801,-236.5 2501,-200.5 2501,-200.5 2501,-200.5 2525,-111.5 2525,-111.5"/>
<path fill="none" stroke="black" d="M2525,-109.5C2525,-109.5 2504.73,-82.54 2488.59,-61.06"/>
<polygon fill="black" stroke="black" points="2490.79,-59.17 2481.99,-53.28 2485.2,-63.38 2490.79,-59.17"/>
</g>
<!-- NASALib/vect_analysis@limit_vect_real&#45;&gt;NASALib/reals -->
<g id="edge45" class="edge">
<title>NASALib/vect_analysis@limit_vect_real&#45;&gt;NASALib/reals</title>
<path fill="none" stroke="black" d="M2525,-109.5C2525,-109.5 2430,-84.5 2430,-84.5 2430,-84.5 2421.56,-72.9 2412.86,-60.93"/>
<polygon fill="black" stroke="black" points="2415.3,-59.34 2406.59,-53.31 2409.64,-63.46 2415.3,-59.34"/>
</g>
<!-- NASALib/vect_analysis@limit_vect_real&#45;&gt;NASALib/vectors -->
<g id="edge46" class="edge">
<title>NASALib/vect_analysis@limit_vect_real&#45;&gt;NASALib/vectors</title>
<path fill="none" stroke="black" d="M2525,-109.5C2525,-109.5 2531.51,-83.97 2536.91,-62.79"/>
<polygon fill="black" stroke="black" points="2540.51,-63.83 2539.59,-53.28 2533.73,-62.1 2540.51,-63.83"/>
</g>
<!-- NASALib/vect_analysis@metric_vect -->
<g id="node21" class="node">
<title>NASALib/vect_analysis@metric_vect</title>
<ellipse fill="#e6f3ff" stroke="black" cx="1052" cy="-326.5" rx="54.93" ry="18"/>
<text text-anchor="middle" x="1052" y="-321.45" font-family="Times,serif" font-size="14.00">metric_vect</text>
</g>
<!-- NASALib/vect_analysis@metric_vect&#45;&gt;NASALib/vect_analysis@cont_vect -->
<g id="edge47" class="edge">
<title>NASALib/vect_analysis@metric_vect&#45;&gt;NASALib/vect_analysis@cont_vect</title>
<path fill="none" stroke="black" d="M1052,-308.2C1052,-300.74 1052,-291.82 1052,-283.47"/>
<polygon fill="black" stroke="black" points="1055.5,-283.6 1052,-273.6 1048.5,-283.6 1055.5,-283.6"/>
</g>
<!-- NASALib/vect_analysis@metric_vect&#45;&gt;NASALib/vectors -->
<g id="edge48" class="edge">
<title>NASALib/vect_analysis@metric_vect&#45;&gt;NASALib/vectors</title>
<path fill="none" stroke="black" d="M1093.62,-314.45C1105.84,-311.2 1116,-308.5 1116,-308.5 1116,-308.5 1677,-272.5 1677,-272.5 1677,-272.5 1801,-236.5 1801,-236.5 1801,-236.5 2463,-200.5 2463,-200.5 2463,-200.5 2539,-128.5 2539,-128.5 2539,-128.5 2541.04,-90.37 2542.51,-62.81"/>
<polygon fill="black" stroke="black" points="2546.04,-63.32 2543.08,-53.15 2539.05,-62.95 2546.04,-63.32"/>
</g>
<!-- NASALib/vect_analysis@vect2_Heine -->
<g id="node22" class="node">
<title>NASALib/vect_analysis@vect2_Heine</title>
<ellipse fill="#e6f3ff" stroke="black" cx="1363" cy="-326.5" rx="57.49" ry="18"/>
<text text-anchor="middle" x="1363" y="-321.45" font-family="Times,serif" font-size="14.00">vect2_Heine</text>
</g>
<!-- NASALib/vect_analysis@vect2_Heine&#45;&gt;NASALib/analysis -->
<g id="edge49" class="edge">
<title>NASALib/vect_analysis@vect2_Heine&#45;&gt;NASALib/analysis</title>
<path fill="none" stroke="black" d="M1815,-253.5C1815,-253.5 2519,-200.5 2519,-200.5 2519,-200.5 2539,-128.5 2539,-128.5 2539,-128.5 2539,-92.5 2539,-92.5 2539,-92.5 2508,-84.5 2508,-84.5 2508,-84.5 2498.86,-72.9 2489.43,-60.93"/>
<polygon fill="black" stroke="black" points="2491.58,-59 2482.64,-53.31 2486.08,-63.33 2491.58,-59"/>
<path fill="none" stroke="black" d="M1406.57,-314.45C1419.36,-311.2 1430,-308.5 1430,-308.5 1430,-308.5 1791,-272.5 1791,-272.5 1791,-272.5 1815,-255.5 1815,-255.5"/>
</g>
<!-- NASALib/vect_analysis@vect2_metric_space -->
<g id="node26" class="node">
<title>NASALib/vect_analysis@vect2_metric_space</title>
<ellipse fill="#e6f3ff" stroke="black" cx="1363" cy="-254.5" rx="84.62" ry="18"/>
<text text-anchor="middle" x="1363" y="-249.45" font-family="Times,serif" font-size="14.00">vect2_metric_space</text>
</g>
<!-- NASALib/vect_analysis@vect2_Heine&#45;&gt;NASALib/vect_analysis@vect2_metric_space -->
<g id="edge50" class="edge">
<title>NASALib/vect_analysis@vect2_Heine&#45;&gt;NASALib/vect_analysis@vect2_metric_space</title>
<path fill="none" stroke="black" d="M1363,-308.2C1363,-300.74 1363,-291.82 1363,-283.47"/>
<polygon fill="black" stroke="black" points="1366.5,-283.6 1363,-273.6 1359.5,-283.6 1366.5,-283.6"/>
</g>
<!-- NASALib/vect_analysis@vect2_cont_comp -->
<g id="node23" class="node">
<title>NASALib/vect_analysis@vect2_cont_comp</title>
<ellipse fill="#e6f3ff" stroke="black" cx="247" cy="-254.5" rx="76.94" ry="18"/>
<text text-anchor="middle" x="247" y="-249.45" font-family="Times,serif" font-size="14.00">vect2_cont_comp</text>
</g>
<!-- NASALib/vect_analysis@vect2_cont_comp&#45;&gt;NASALib/analysis -->
<g id="edge53" class="edge">
<title>NASALib/vect_analysis@vect2_cont_comp&#45;&gt;NASALib/analysis</title>
<path fill="none" stroke="black" d="M304.17,-242.07C319.54,-238.99 332,-236.5 332,-236.5 332,-236.5 1112,-200.5 1112,-200.5 1112,-200.5 1131,-183.5 1131,-183.5"/>
</g>
<!-- NASALib/vect_analysis@vect2_cont_comp&#45;&gt;NASALib/vect_analysis@cont_real_vect2 -->
<g id="edge54" class="edge">
<title>NASALib/vect_analysis@vect2_cont_comp&#45;&gt;NASALib/vect_analysis@cont_real_vect2</title>
<path fill="none" stroke="black" d="M284.76,-238.48C311.47,-227.86 347.48,-213.53 376.05,-202.17"/>
<polygon fill="black" stroke="black" points="377.21,-205.08 385.21,-198.13 374.63,-198.58 377.21,-205.08"/>
</g>
<!-- NASALib/vect_analysis@vect2_cont_comp&#45;&gt;NASALib/vect_analysis@cont_vect2_real -->
<g id="edge55" class="edge">
<title>NASALib/vect_analysis@vect2_cont_comp&#45;&gt;NASALib/vect_analysis@cont_vect2_real</title>
<path fill="none" stroke="black" d="M250.21,-236.2C251.61,-228.65 253.29,-219.62 254.86,-211.18"/>
<polygon fill="black" stroke="black" points="258.44,-212.08 256.82,-201.6 251.56,-210.8 258.44,-212.08"/>
</g>
<!-- NASALib/vect_analysis@vect2_cont_comp&#45;&gt;NASALib/vect_analysis@cont_vect2_vect2 -->
<g id="edge56" class="edge">
<title>NASALib/vect_analysis@vect2_cont_comp&#45;&gt;NASALib/vect_analysis@cont_vect2_vect2</title>
<path fill="none" stroke="black" d="M213.04,-237.96C190.86,-227.81 161.67,-214.46 137.75,-203.52"/>
<polygon fill="black" stroke="black" points="139.41,-199.97 128.86,-198.99 136.5,-206.34 139.41,-199.97"/>
</g>
<!-- NASALib/vect_analysis@vect2_cont_comp2 -->
<g id="node24" class="node">
<title>NASALib/vect_analysis@vect2_cont_comp2</title>
<ellipse fill="#e6f3ff" stroke="black" cx="423" cy="-254.5" rx="81.55" ry="18"/>
<text text-anchor="middle" x="423" y="-249.45" font-family="Times,serif" font-size="14.00">vect2_cont_comp2</text>
</g>
<!-- NASALib/vect_analysis@vect2_cont_comp2&#45;&gt;NASALib/vect_analysis@cont_real_vect2 -->
<g id="edge51" class="edge">
<title>NASALib/vect_analysis@vect2_cont_comp2&#45;&gt;NASALib/vect_analysis@cont_real_vect2</title>
<path fill="none" stroke="black" d="M423,-236.2C423,-228.74 423,-219.82 423,-211.47"/>
<polygon fill="black" stroke="black" points="426.5,-211.6 423,-201.6 419.5,-211.6 426.5,-211.6"/>
</g>
<!-- NASALib/vect_analysis@vect2_cont_comp2&#45;&gt;NASALib/vect_analysis@cont_vect2_real -->
<g id="edge52" class="edge">
<title>NASALib/vect_analysis@vect2_cont_comp2&#45;&gt;NASALib/vect_analysis@cont_vect2_real</title>
<path fill="none" stroke="black" d="M386.83,-237.96C362.65,-227.58 330.67,-213.85 304.87,-202.77"/>
<polygon fill="black" stroke="black" points="306.52,-199.24 295.96,-198.51 303.76,-205.67 306.52,-199.24"/>
</g>
<!-- NASALib/vect_analysis@vect2_cont_dot -->
<g id="node25" class="node">
<title>NASALib/vect_analysis@vect2_cont_dot</title>
<ellipse fill="#e6f3ff" stroke="black" cx="84" cy="-254.5" rx="67.73" ry="18"/>
<text text-anchor="middle" x="84" y="-249.45" font-family="Times,serif" font-size="14.00">vect2_cont_dot</text>
</g>
<!-- NASALib/vect_analysis@vect2_cont_dot&#45;&gt;NASALib/analysis -->
<g id="edge57" class="edge">
<title>NASALib/vect_analysis@vect2_cont_dot&#45;&gt;NASALib/analysis</title>
<path fill="none" stroke="black" d="M134.93,-242.26C149.25,-239.09 161,-236.5 161,-236.5 161,-236.5 1112,-200.5 1112,-200.5 1112,-200.5 1131,-183.5 1131,-183.5"/>
<path fill="none" stroke="black" d="M1131,-181.5C1131,-181.5 1429,-164.5 1429,-164.5 1429,-164.5 2197,-128.5 2197,-128.5 2197,-128.5 2245,-92.5 2245,-92.5 2245,-92.5 2430,-84.5 2430,-84.5 2430,-84.5 2439.14,-72.9 2448.57,-60.93"/>
<polygon fill="black" stroke="black" points="2451.92,-63.33 2455.36,-53.31 2446.42,-59 2451.92,-63.33"/>
</g>
<!-- NASALib/vect_analysis@vect2_cont_dot&#45;&gt;NASALib/vect_analysis@cont_real_vect2 -->
<g id="edge58" class="edge">
<title>NASALib/vect_analysis@vect2_cont_dot&#45;&gt;NASALib/vect_analysis@cont_real_vect2</title>
<path fill="none" stroke="black" d="M134.93,-242.26C149.25,-239.09 161,-236.5 161,-236.5 161,-236.5 339,-200.5 339,-200.5 339,-200.5 347.29,-198.82 358.67,-196.52"/>
<polygon fill="black" stroke="black" points="359.22,-199.78 368.33,-194.36 357.83,-192.92 359.22,-199.78"/>
</g>
<!-- NASALib/vect_analysis@vect2_cont_dot&#45;&gt;NASALib/vect_analysis@cont_vect2_real -->
<g id="edge59" class="edge">
<title>NASALib/vect_analysis@vect2_cont_dot&#45;&gt;NASALib/vect_analysis@cont_vect2_real</title>
<path fill="none" stroke="black" d="M120.47,-239C147.4,-228.29 184.27,-213.62 213.35,-202.06"/>
<polygon fill="black" stroke="black" points="214.28,-205.05 222.28,-198.11 211.69,-198.55 214.28,-205.05"/>
</g>
<!-- NASALib/vect_analysis@vect2_cont_dot&#45;&gt;NASALib/vect_analysis@cont_vect2_vect2 -->
<g id="edge60" class="edge">
<title>NASALib/vect_analysis@vect2_cont_dot&#45;&gt;NASALib/vect_analysis@cont_vect2_vect2</title>
<path fill="none" stroke="black" d="M86.47,-236.2C87.54,-228.74 88.81,-219.82 90,-211.47"/>
<polygon fill="black" stroke="black" points="93.61,-212 91.56,-201.6 86.68,-211.01 93.61,-212"/>
</g>
<!-- NASALib/vect_analysis@vect2_metric_space&#45;&gt;NASALib/analysis -->
<g id="edge61" class="edge">
<title>NASALib/vect_analysis@vect2_metric_space&#45;&gt;NASALib/analysis</title>
<path fill="none" stroke="black" d="M2373,-109.5C2373,-109.5 2397,-92.5 2397,-92.5 2397,-92.5 2430,-84.5 2430,-84.5 2430,-84.5 2439.14,-72.9 2448.57,-60.93"/>
<polygon fill="black" stroke="black" points="2451.92,-63.33 2455.36,-53.31 2446.42,-59 2451.92,-63.33"/>
<path fill="none" stroke="black" d="M1425.81,-242.02C1442.51,-238.97 1456,-236.5 1456,-236.5 1456,-236.5 2349,-200.5 2349,-200.5 2349,-200.5 2373,-111.5 2373,-111.5"/>
</g>
<!-- NASALib/vect_analysis@vect2_metric_space&#45;&gt;NASALib/vectors -->
<g id="edge62" class="edge">
<title>NASALib/vect_analysis@vect2_metric_space&#45;&gt;NASALib/vectors</title>
<path fill="none" stroke="black" d="M2373,-109.5C2373,-109.5 2397,-92.5 2397,-92.5 2397,-92.5 2508,-84.5 2508,-84.5 2508,-84.5 2516.44,-72.9 2525.14,-60.93"/>
<polygon fill="black" stroke="black" points="2528.36,-63.46 2531.41,-53.31 2522.7,-59.34 2528.36,-63.46"/>
</g>
<!-- NASALib/vect_analysis@vect3_Heine -->
<g id="node27" class="node">
<title>NASALib/vect_analysis@vect3_Heine</title>
<ellipse fill="#e6f3ff" stroke="black" cx="1496" cy="-326.5" rx="57.49" ry="18"/>
<text text-anchor="middle" x="1496" y="-321.45" font-family="Times,serif" font-size="14.00">vect3_Heine</text>
</g>
<!-- NASALib/vect_analysis@vect3_Heine&#45;&gt;NASALib/analysis -->
<g id="edge63" class="edge">
<title>NASALib/vect_analysis@vect3_Heine&#45;&gt;NASALib/analysis</title>
<path fill="none" stroke="black" d="M1539.29,-314.35C1551.73,-311.15 1562,-308.5 1562,-308.5 1562,-308.5 1791,-272.5 1791,-272.5 1791,-272.5 1815,-255.5 1815,-255.5"/>
</g>
<!-- NASALib/vect_analysis@vect3_metric_space -->
<g id="node28" class="node">
<title>NASALib/vect_analysis@vect3_metric_space</title>
<ellipse fill="#e6f3ff" stroke="black" cx="1550" cy="-254.5" rx="84.62" ry="18"/>
<text text-anchor="middle" x="1550" y="-249.45" font-family="Times,serif" font-size="14.00">vect3_metric_space</text>
</g>
<!-- NASALib/vect_analysis@vect3_Heine&#45;&gt;NASALib/vect_analysis@vect3_metric_space -->
<g id="edge64" class="edge">
<title>NASALib/vect_analysis@vect3_Heine&#45;&gt;NASALib/vect_analysis@vect3_metric_space</title>
<path fill="none" stroke="black" d="M1509.07,-308.55C1515.51,-300.21 1523.39,-289.99 1530.52,-280.75"/>
<polygon fill="black" stroke="black" points="1533.71,-283.34 1537.05,-273.29 1528.17,-279.07 1533.71,-283.34"/>
</g>
<!-- NASALib/vect_analysis@vect3_metric_space&#45;&gt;NASALib/analysis -->
<g id="edge65" class="edge">
<title>NASALib/vect_analysis@vect3_metric_space&#45;&gt;NASALib/analysis</title>
<path fill="none" stroke="black" d="M2411,-109.5C2411,-109.5 2432.18,-82.3 2448.94,-60.77"/>
<polygon fill="black" stroke="black" points="2452.17,-63.32 2455.55,-53.28 2446.64,-59.02 2452.17,-63.32"/>
<path fill="none" stroke="black" d="M1614.37,-242.45C1633.28,-239.2 1649,-236.5 1649,-236.5 1649,-236.5 2387,-200.5 2387,-200.5 2387,-200.5 2411,-111.5 2411,-111.5"/>
</g>
<!-- NASALib/vect_analysis@vect3_metric_space&#45;&gt;NASALib/vectors -->
<g id="edge66" class="edge">
<title>NASALib/vect_analysis@vect3_metric_space&#45;&gt;NASALib/vectors</title>
<path fill="none" stroke="black" d="M2411,-109.5C2411,-109.5 2473,-92.5 2473,-92.5 2473,-92.5 2508,-84.5 2508,-84.5 2508,-84.5 2516.44,-72.9 2525.14,-60.93"/>
<polygon fill="black" stroke="black" points="2528.36,-63.46 2531.41,-53.31 2522.7,-59.34 2528.36,-63.46"/>
</g>
<!-- NASALib/vect_analysis@vect_chain_rule -->
<g id="node29" class="node">
<title>NASALib/vect_analysis@vect_chain_rule</title>
<ellipse fill="#e6f3ff" stroke="black" cx="743" cy="-254.5" rx="69.78" ry="18"/>
<text text-anchor="middle" x="743" y="-249.45" font-family="Times,serif" font-size="14.00">vect_chain_rule</text>
</g>
<!-- NASALib/vect_analysis@vect_chain_rule&#45;&gt;NASALib/analysis -->
<g id="edge67" class="edge">
<title>NASALib/vect_analysis@vect_chain_rule&#45;&gt;NASALib/analysis</title>
<path fill="none" stroke="black" d="M795.25,-242.26C809.95,-239.09 822,-236.5 822,-236.5 822,-236.5 1112,-200.5 1112,-200.5 1112,-200.5 1131,-183.5 1131,-183.5"/>
</g>
<!-- NASALib/vect_analysis@vect_deriv_2D -->
<g id="node31" class="node">
<title>NASALib/vect_analysis@vect_deriv_2D</title>
<ellipse fill="#e6f3ff" stroke="black" cx="674" cy="-182.5" rx="65.68" ry="18"/>
<text text-anchor="middle" x="674" y="-177.45" font-family="Times,serif" font-size="14.00">vect_deriv_2D</text>
</g>
<!-- NASALib/vect_analysis@vect_chain_rule&#45;&gt;NASALib/vect_analysis@vect_deriv_2D -->
<g id="edge68" class="edge">
<title>NASALib/vect_analysis@vect_chain_rule&#45;&gt;NASALib/vect_analysis@vect_deriv_2D</title>
<path fill="none" stroke="black" d="M726.3,-236.55C717.82,-227.96 707.37,-217.36 698.05,-207.9"/>
<polygon fill="black" stroke="black" points="701.06,-205.95 691.55,-201.29 696.08,-210.87 701.06,-205.95"/>
</g>
<!-- NASALib/vect_analysis@vect_chain_rule&#45;&gt;NASALib/vect_analysis@vect_fun_ops_rv -->
<g id="edge69" class="edge">
<title>NASALib/vect_analysis@vect_chain_rule&#45;&gt;NASALib/vect_analysis@vect_fun_ops_rv</title>
<path fill="none" stroke="black" d="M744.96,-236.15C746.71,-220.69 749,-200.5 749,-200.5 749,-200.5 749,-92.5 749,-92.5 749,-92.5 722.13,-73.66 699.15,-57.55"/>
<polygon fill="black" stroke="black" points="701.48,-54.2 691.28,-51.32 697.46,-59.93 701.48,-54.2"/>
</g>
<!-- NASALib/vect_analysis@vect_cont_2D -->
<g id="node30" class="node">
<title>NASALib/vect_analysis@vect_cont_2D</title>
<ellipse fill="#e6f3ff" stroke="black" cx="247" cy="-326.5" rx="62.61" ry="18"/>
<text text-anchor="middle" x="247" y="-321.45" font-family="Times,serif" font-size="14.00">vect_cont_2D</text>
</g>
<!-- NASALib/vect_analysis@vect_cont_2D&#45;&gt;NASALib/analysis -->
<g id="edge70" class="edge">
<title>NASALib/vect_analysis@vect_cont_2D&#45;&gt;NASALib/analysis</title>
<path fill="none" stroke="black" d="M308.83,-323.15C579.19,-312.9 1644,-272.5 1644,-272.5 1644,-272.5 1815,-255.5 1815,-255.5"/>
</g>
<!-- NASALib/vect_analysis@vect_cont_2D&#45;&gt;NASALib/vect_analysis@vect2_cont_comp -->
<g id="edge71" class="edge">
<title>NASALib/vect_analysis@vect_cont_2D&#45;&gt;NASALib/vect_analysis@vect2_cont_comp</title>
<path fill="none" stroke="black" d="M247,-308.2C247,-300.74 247,-291.82 247,-283.47"/>
<polygon fill="black" stroke="black" points="250.5,-283.6 247,-273.6 243.5,-283.6 250.5,-283.6"/>
</g>
<!-- NASALib/vect_analysis@vect_cont_2D&#45;&gt;NASALib/vect_analysis@vect2_cont_dot -->
<g id="edge72" class="edge">
<title>NASALib/vect_analysis@vect_cont_2D&#45;&gt;NASALib/vect_analysis@vect2_cont_dot</title>
<path fill="none" stroke="black" d="M213.23,-311C188.67,-300.45 155.18,-286.07 128.45,-274.59"/>
<polygon fill="black" stroke="black" points="130.14,-271.08 119.57,-270.35 127.38,-277.51 130.14,-271.08"/>
</g>
<!-- NASALib/vect_analysis@vect_deriv_2D&#45;&gt;NASALib/analysis -->
<g id="edge73" class="edge">
<title>NASALib/vect_analysis@vect_deriv_2D&#45;&gt;NASALib/analysis</title>
<path fill="none" stroke="black" d="M734.89,-175.41C783.67,-170.53 844,-164.5 844,-164.5 844,-164.5 2083,-128.5 2083,-128.5 2083,-128.5 2131,-92.5 2131,-92.5 2131,-92.5 2430,-84.5 2430,-84.5 2430,-84.5 2439.14,-72.9 2448.57,-60.93"/>
<polygon fill="black" stroke="black" points="2451.92,-63.33 2455.36,-53.31 2446.42,-59 2451.92,-63.33"/>
</g>
<!-- NASALib/vect_analysis@vect_deriv_2D&#45;&gt;NASALib/vect_analysis@deriv_real_vect2 -->
<g id="edge74" class="edge">
<title>NASALib/vect_analysis@vect_deriv_2D&#45;&gt;NASALib/vect_analysis@deriv_real_vect2</title>
<path fill="none" stroke="black" d="M672.27,-164.2C671.52,-156.74 670.63,-147.82 669.8,-139.47"/>
<polygon fill="black" stroke="black" points="673.19,-139.21 668.71,-129.6 666.22,-139.9 673.19,-139.21"/>
</g>
<!-- NASALib/vect_analysis@vect_fun_ops&#45;&gt;NASALib/vectors -->
<g id="edge75" class="edge">
<title>NASALib/vect_analysis@vect_fun_ops&#45;&gt;NASALib/vectors</title>
<path fill="none" stroke="black" d="M970.17,-36.26C1244.56,-46.54 2364,-88.5 2364,-88.5 2364,-88.5 2499,-88.5 2499,-88.5 2499,-88.5 2508,-84.5 2508,-84.5 2508,-84.5 2516.22,-72.97 2524.8,-60.93"/>
<polygon fill="black" stroke="black" points="2528.05,-63.41 2531,-53.23 2522.35,-59.34 2528.05,-63.41"/>
</g>
<!-- NASALib/vect_analysis@vect_fun_ops_rv&#45;&gt;NASALib/vectors -->
<g id="edge76" class="edge">
<title>NASALib/vect_analysis@vect_fun_ops_rv&#45;&gt;NASALib/vectors</title>
<path fill="none" stroke="black" d="M713.87,-48.04C767.79,-64.18 849,-88.5 849,-88.5 849,-88.5 2499,-88.5 2499,-88.5 2499,-88.5 2508,-84.5 2508,-84.5 2508,-84.5 2516.22,-72.97 2524.8,-60.93"/>
<polygon fill="black" stroke="black" points="2528.05,-63.41 2531,-53.23 2522.35,-59.34 2528.05,-63.41"/>
</g>
<!-- NASALib/vect_analysis@vect_metric_space -->
<g id="node34" class="node">
<title>NASALib/vect_analysis@vect_metric_space</title>
<ellipse fill="#e6f3ff" stroke="black" cx="2037" cy="-326.5" rx="80.01" ry="18"/>
<text text-anchor="middle" x="2037" y="-321.45" font-family="Times,serif" font-size="14.00">vect_metric_space</text>
</g>
<!-- NASALib/vect_analysis@vect_metric_space&#45;&gt;NASALib/analysis -->
<g id="edge77" class="edge">
<title>NASALib/vect_analysis@vect_metric_space&#45;&gt;NASALib/analysis</title>
<path fill="none" stroke="black" d="M2639,-109.5C2639,-109.5 2615,-92.5 2615,-92.5 2615,-92.5 2508,-84.5 2508,-84.5 2508,-84.5 2498.86,-72.9 2489.43,-60.93"/>
<polygon fill="black" stroke="black" points="2491.58,-59 2482.64,-53.31 2486.08,-63.33 2491.58,-59"/>
<path fill="none" stroke="black" d="M2093.21,-313.34C2238.46,-281.93 2615,-200.5 2615,-200.5 2615,-200.5 2639,-111.5 2639,-111.5"/>
</g>
<!-- NASALib/vect_analysis@vect_metric_space&#45;&gt;NASALib/vectors -->
<g id="edge78" class="edge">
<title>NASALib/vect_analysis@vect_metric_space&#45;&gt;NASALib/vectors</title>
<path fill="none" stroke="black" d="M2639,-109.5C2639,-109.5 2602.44,-80.83 2574.68,-59.06"/>
<polygon fill="black" stroke="black" points="2577.06,-55.7 2567.03,-52.28 2572.74,-61.2 2577.06,-55.7"/>
</g>
<!-- NASALib/vect_analysis@vect_vect_2D_continuity -->
<g id="node35" class="node">
<title>NASALib/vect_analysis@vect_vect_2D_continuity</title>
<ellipse fill="#e6f3ff" stroke="black" cx="2239" cy="-326.5" rx="104.07" ry="18"/>
<text text-anchor="middle" x="2239" y="-321.45" font-family="Times,serif" font-size="14.00">vect_vect_2D_continuity</text>
</g>
<!-- NASALib/vect_analysis@vect_vect_2D_continuity&#45;&gt;NASALib/vectors -->
<g id="edge79" class="edge">
<title>NASALib/vect_analysis@vect_vect_2D_continuity&#45;&gt;NASALib/vectors</title>
<path fill="none" stroke="black" d="M2320.79,-315.03C2441.45,-299.58 2653,-272.5 2653,-272.5 2653,-272.5 2653,-92.5 2653,-92.5 2653,-92.5 2612.82,-71.31 2581.25,-54.65"/>
<polygon fill="black" stroke="black" points="2583.27,-51.23 2572.79,-49.66 2580,-57.42 2583.27,-51.23"/>
</g>
</g>
</svg>
