<?xml version="1.0" encoding="UTF-8" standalone="no"?>
<!DOCTYPE svg PUBLIC "-//W3C//DTD SVG 1.1//EN"
 "http://www.w3.org/Graphics/SVG/1.1/DTD/svg11.dtd">
<!-- Generated by graphviz version 12.2.1 (20241206.2353)
 -->
<!-- Title: sets_aux Pages: 1 -->
<svg width="336pt" height="426pt"
 viewBox="0.00 0.00 336.00 426.00" xmlns="http://www.w3.org/2000/svg" xmlns:xlink="http://www.w3.org/1999/xlink">
<g id="graph0" class="graph" transform="scale(1 1) rotate(0) translate(4 422)">
<title>sets_aux</title>
<polygon fill="white" stroke="none" points="-4,4 -4,-422 332,-422 332,4 -4,4"/>
<g id="clust1" class="cluster">
<title>cluster_NASALib</title>
<polygon fill="none" stroke="black" points="20,-92.5 20,-241 320,-241 320,-92.5 20,-92.5"/>
<text text-anchor="middle" x="170" y="-223.7" font-family="Times,serif" font-size="14.00">NASALib</text>
</g>
<g id="clust2" class="cluster">
<title>cluster_PVS Prelude</title>
<polygon fill="none" stroke="black" points="41,-8 41,-84.5 129,-84.5 129,-8 41,-8"/>
<text text-anchor="middle" x="85" y="-67.2" font-family="Times,serif" font-size="14.00">PVS Prelude</text>
</g>
<g id="clust3" class="cluster">
<title>cluster_algebra</title>
<polygon fill="none" stroke="black" points="102,-249 102,-325.5 232,-325.5 232,-249 102,-249"/>
<text text-anchor="middle" x="167" y="-308.2" font-family="Times,serif" font-size="14.00">algebra</text>
</g>
<g id="clust4" class="cluster">
<title>cluster_ints</title>
<polygon fill="none" stroke="black" points="121,-333.5 121,-410 213,-410 213,-333.5 121,-333.5"/>
<text text-anchor="middle" x="167" y="-392.7" font-family="Times,serif" font-size="14.00">ints</text>
</g>
<!-- algebra/algebra_examples -->
<g id="node1" class="node">
<title>algebra/algebra_examples</title>
<polygon fill="#fcfcd7" stroke="black" points="224.12,-293 109.88,-293 109.88,-257 224.12,-257 224.12,-293"/>
<text text-anchor="middle" x="167" y="-269.95" font-family="Times,serif" font-size="14.00">algebra_examples</text>
</g>
<!-- pvslib/ints -->
<g id="node4" class="node">
<title>pvslib/ints</title>
<polygon fill="#fcfcd7" stroke="black" points="312,-136.5 258,-136.5 258,-100.5 312,-100.5 312,-136.5"/>
<text text-anchor="middle" x="285" y="-113.45" font-family="Times,serif" font-size="14.00">ints</text>
</g>
<!-- algebra/algebra_examples&#45;&gt;pvslib/ints -->
<g id="edge1" class="edge">
<title>algebra/algebra_examples&#45;&gt;pvslib/ints</title>
<path fill="none" stroke="black" d="M213,-189.5C213,-189.5 238.4,-164.81 259.03,-144.75"/>
<polygon fill="black" stroke="black" points="261.39,-147.34 266.12,-137.86 256.51,-142.32 261.39,-147.34"/>
</g>
<!-- pvslib/reals -->
<g id="node6" class="node">
<title>pvslib/reals</title>
<polygon fill="#fcfcd7" stroke="black" points="240,-136.5 186,-136.5 186,-100.5 240,-100.5 240,-136.5"/>
<text text-anchor="middle" x="213" y="-113.45" font-family="Times,serif" font-size="14.00">reals</text>
</g>
<!-- algebra/algebra_examples&#45;&gt;pvslib/reals -->
<g id="edge2" class="edge">
<title>algebra/algebra_examples&#45;&gt;pvslib/reals</title>
<path fill="none" stroke="black" d="M213,-189.5C213,-189.5 213,-167.58 213,-148.27"/>
<polygon fill="black" stroke="black" points="216.5,-148.32 213,-138.32 209.5,-148.32 216.5,-148.32"/>
</g>
<!-- pvslib/sets_aux -->
<g id="node7" class="node">
<title>pvslib/sets_aux</title>
<polygon fill="#f7e28d" stroke="black" points="165.25,-208.5 102.75,-208.5 102.75,-172.5 165.25,-172.5 165.25,-208.5"/>
<text text-anchor="middle" x="134" y="-185.45" font-family="Times,serif" font-size="14.00">sets_aux</text>
</g>
<!-- algebra/algebra_examples&#45;&gt;pvslib/sets_aux -->
<g id="edge3" class="edge">
<title>algebra/algebra_examples&#45;&gt;pvslib/sets_aux</title>
<path fill="none" stroke="black" d="M160,-256.5C155.71,-245.78 150.13,-231.82 145.23,-219.58"/>
<polygon fill="black" stroke="black" points="148.51,-218.36 141.55,-210.38 142.01,-220.96 148.51,-218.36"/>
</g>
<!-- pvslib/structures -->
<g id="node8" class="node">
<title>pvslib/structures</title>
<polygon fill="#fcfcd7" stroke="black" points="168.25,-136.5 99.75,-136.5 99.75,-100.5 168.25,-100.5 168.25,-136.5"/>
<text text-anchor="middle" x="134" y="-113.45" font-family="Times,serif" font-size="14.00">structures</text>
</g>
<!-- algebra/algebra_examples&#45;&gt;pvslib/structures -->
<g id="edge4" class="edge">
<title>algebra/algebra_examples&#45;&gt;pvslib/structures</title>
<path fill="none" stroke="black" d="M213,-189.5C213,-189.5 184.63,-164.36 161.9,-144.22"/>
<polygon fill="black" stroke="black" points="164.47,-141.82 154.66,-137.81 159.82,-147.06 164.47,-141.82"/>
<path fill="none" stroke="black" d="M176.76,-256.5C190.26,-232.29 213,-191.5 213,-191.5"/>
</g>
<!-- ints/inf_primes -->
<g id="node2" class="node">
<title>ints/inf_primes</title>
<polygon fill="#fcfcd7" stroke="black" points="204.62,-377.5 129.38,-377.5 129.38,-341.5 204.62,-341.5 204.62,-377.5"/>
<text text-anchor="middle" x="167" y="-354.45" font-family="Times,serif" font-size="14.00">inf_primes</text>
</g>
<!-- ints/inf_primes&#45;&gt;algebra/algebra_examples -->
<g id="edge5" class="edge">
<title>ints/inf_primes&#45;&gt;algebra/algebra_examples</title>
<path fill="none" stroke="black" d="M167,-341C167,-330.5 167,-316.89 167,-304.83"/>
<polygon fill="black" stroke="black" points="170.5,-304.98 167,-294.98 163.5,-304.98 170.5,-304.98"/>
</g>
<!-- lib/finite_sets -->
<g id="node3" class="node">
<title>lib/finite_sets</title>
<polygon fill="#fcfcd7" stroke="black" points="120.75,-52 49.25,-52 49.25,-16 120.75,-16 120.75,-52"/>
<text text-anchor="middle" x="85" y="-28.95" font-family="Times,serif" font-size="14.00">finite_sets</text>
</g>
<!-- ints/inf_primes&#45;&gt;lib/finite_sets -->
<g id="edge6" class="edge">
<title>ints/inf_primes&#45;&gt;lib/finite_sets</title>
<path fill="none" stroke="black" d="M0,-274C0,-274 0,-119.5 0,-119.5"/>
<path fill="none" stroke="black" d="M0,-117.5C0,-117.5 16,-92.5 16,-92.5 16,-92.5 36.85,-75.13 55.62,-59.48"/>
<polygon fill="black" stroke="black" points="57.69,-62.31 63.13,-53.22 53.21,-56.93 57.69,-62.31"/>
<path fill="none" stroke="black" d="M130.48,-341.03C113.93,-333.12 98,-325.5 98,-325.5 98,-325.5 0,-276 0,-276"/>
</g>
<!-- ints/inf_primes&#45;&gt;pvslib/ints -->
<g id="edge7" class="edge">
<title>ints/inf_primes&#45;&gt;pvslib/ints</title>
<path fill="none" stroke="black" d="M285,-189.5C285,-189.5 285,-167.58 285,-148.27"/>
<polygon fill="black" stroke="black" points="288.5,-148.32 285,-138.32 281.5,-148.32 288.5,-148.32"/>
</g>
<!-- ints/inf_primes&#45;&gt;pvslib/reals -->
<g id="edge8" class="edge">
<title>ints/inf_primes&#45;&gt;pvslib/reals</title>
<path fill="none" stroke="black" d="M203.52,-341.03C220.07,-333.12 236,-325.5 236,-325.5 236,-325.5 285,-191.5 285,-191.5"/>
<path fill="none" stroke="black" d="M285,-189.5C285,-189.5 259.6,-164.81 238.97,-144.75"/>
<polygon fill="black" stroke="black" points="241.49,-142.32 231.88,-137.86 236.61,-147.34 241.49,-142.32"/>
</g>
<!-- ints/inf_primes&#45;&gt;pvslib/sets_aux -->
<g id="edge9" class="edge">
<title>ints/inf_primes&#45;&gt;pvslib/sets_aux</title>
<path fill="none" stroke="black" d="M0,-274C0,-274 56.3,-239.34 95.91,-214.95"/>
<polygon fill="black" stroke="black" points="97.61,-218.01 104.29,-209.79 93.94,-212.05 97.61,-218.01"/>
</g>
<!-- pvslib/ints&#45;&gt;lib/finite_sets -->
<g id="edge10" class="edge">
<title>pvslib/ints&#45;&gt;lib/finite_sets</title>
<path fill="none" stroke="black" d="M260,-100.14C253.85,-95.87 249,-92.5 249,-92.5 249,-92.5 180.08,-68.34 131.6,-51.34"/>
<polygon fill="black" stroke="black" points="133.01,-48.13 122.42,-48.12 130.7,-54.73 133.01,-48.13"/>
</g>
<!-- pvslib/orders -->
<g id="node5" class="node">
<title>pvslib/orders</title>
<polygon fill="#fcfcd7" stroke="black" points="82,-136.5 28,-136.5 28,-100.5 82,-100.5 82,-136.5"/>
<text text-anchor="middle" x="55" y="-113.45" font-family="Times,serif" font-size="14.00">orders</text>
</g>
<!-- pvslib/sets_aux&#45;&gt;lib/finite_sets -->
<g id="edge11" class="edge">
<title>pvslib/sets_aux&#45;&gt;lib/finite_sets</title>
<path fill="none" stroke="black" d="M102.38,-175.3C67.43,-159.6 16,-136.5 16,-136.5 16,-136.5 0,-119.5 0,-119.5"/>
</g>
<!-- pvslib/sets_aux&#45;&gt;pvslib/ints -->
<g id="edge12" class="edge">
<title>pvslib/sets_aux&#45;&gt;pvslib/ints</title>
<path fill="none" stroke="black" d="M165.73,-174.88C192.59,-162.5 228.91,-145.76 247.31,-137.23"/>
<polygon fill="black" stroke="black" points="248.76,-140.42 256.34,-133.02 245.8,-134.07 248.76,-140.42"/>
</g>
<!-- pvslib/sets_aux&#45;&gt;pvslib/orders -->
<g id="edge13" class="edge">
<title>pvslib/sets_aux&#45;&gt;pvslib/orders</title>
<path fill="none" stroke="black" d="M114.47,-172.2C104.98,-163.78 93.39,-153.52 82.98,-144.29"/>
<polygon fill="black" stroke="black" points="85.52,-141.86 75.71,-137.85 80.87,-147.1 85.52,-141.86"/>
</g>
<!-- pvslib/sets_aux&#45;&gt;pvslib/reals -->
<g id="edge14" class="edge">
<title>pvslib/sets_aux&#45;&gt;pvslib/reals</title>
<path fill="none" stroke="black" d="M153.53,-172.2C163.02,-163.78 174.61,-153.52 185.02,-144.29"/>
<polygon fill="black" stroke="black" points="187.13,-147.1 192.29,-137.85 182.48,-141.86 187.13,-147.1"/>
</g>
<!-- pvslib/sets_aux&#45;&gt;pvslib/structures -->
<g id="edge15" class="edge">
<title>pvslib/sets_aux&#45;&gt;pvslib/structures</title>
<path fill="none" stroke="black" d="M134,-172.2C134,-164.91 134,-156.23 134,-148.04"/>
<polygon fill="black" stroke="black" points="137.5,-148.12 134,-138.12 130.5,-148.12 137.5,-148.12"/>
</g>
</g>
</svg>
